<?xml version="1.0" encoding="utf-8" standalone="no"?>
<!DOCTYPE svg PUBLIC "-//W3C//DTD SVG 1.1//EN"
  "http://www.w3.org/Graphics/SVG/1.1/DTD/svg11.dtd">
<!-- Created with matplotlib (https://matplotlib.org/) -->
<svg height="707.76pt" version="1.1" viewBox="0 0 1382.4 707.76" width="1382.4pt" xmlns="http://www.w3.org/2000/svg" xmlns:xlink="http://www.w3.org/1999/xlink">
 <defs>
  <style type="text/css">
*{stroke-linecap:butt;stroke-linejoin:round;}
  </style>
 </defs>
 <g id="figure_1">
  <g id="patch_1">
   <path d="M 0 707.76 
L 1382.4 707.76 
L 1382.4 0 
L 0 0 
z
" style="fill:#ffffff;"/>
  </g>
  <g id="axes_1">
   <g id="patch_2">
    <path d="M 172.8 629.9064 
L 659.781818 629.9064 
L 659.781818 84.9312 
L 172.8 84.9312 
z
" style="fill:#ffffff;"/>
   </g>
   <g id="matplotlib.axis_1">
    <g id="xtick_1">
     <g id="line2d_1">
      <defs>
       <path d="M 0 0 
L 0 3.5 
" id="ma53755e569" style="stroke:#000000;stroke-width:0.8;"/>
      </defs>
      <g>
       <use style="stroke:#000000;stroke-width:0.8;" x="194.935537" xlink:href="#ma53755e569" y="629.9064"/>
      </g>
     </g>
     <g id="text_1">
      <!-- 0 -->
      <defs>
       <path d="M 31.78125 66.40625 
Q 24.171875 66.40625 20.328125 58.90625 
Q 16.5 51.421875 16.5 36.375 
Q 16.5 21.390625 20.328125 13.890625 
Q 24.171875 6.390625 31.78125 6.390625 
Q 39.453125 6.390625 43.28125 13.890625 
Q 47.125 21.390625 47.125 36.375 
Q 47.125 51.421875 43.28125 58.90625 
Q 39.453125 66.40625 31.78125 66.40625 
z
M 31.78125 74.21875 
Q 44.046875 74.21875 50.515625 64.515625 
Q 56.984375 54.828125 56.984375 36.375 
Q 56.984375 17.96875 50.515625 8.265625 
Q 44.046875 -1.421875 31.78125 -1.421875 
Q 19.53125 -1.421875 13.0625 8.265625 
Q 6.59375 17.96875 6.59375 36.375 
Q 6.59375 54.828125 13.0625 64.515625 
Q 19.53125 74.21875 31.78125 74.21875 
z
" id="DejaVuSans-48"/>
      </defs>
      <g transform="translate(191.754287 644.504838)scale(0.1 -0.1)">
       <use xlink:href="#DejaVuSans-48"/>
      </g>
     </g>
    </g>
    <g id="xtick_2">
     <g id="line2d_2">
      <g>
       <use style="stroke:#000000;stroke-width:0.8;" x="256.42314" xlink:href="#ma53755e569" y="629.9064"/>
      </g>
     </g>
     <g id="text_2">
      <!-- 100 -->
      <defs>
       <path d="M 12.40625 8.296875 
L 28.515625 8.296875 
L 28.515625 63.921875 
L 10.984375 60.40625 
L 10.984375 69.390625 
L 28.421875 72.90625 
L 38.28125 72.90625 
L 38.28125 8.296875 
L 54.390625 8.296875 
L 54.390625 0 
L 12.40625 0 
z
" id="DejaVuSans-49"/>
      </defs>
      <g transform="translate(246.87939 644.504838)scale(0.1 -0.1)">
       <use xlink:href="#DejaVuSans-49"/>
       <use x="63.623047" xlink:href="#DejaVuSans-48"/>
       <use x="127.246094" xlink:href="#DejaVuSans-48"/>
      </g>
     </g>
    </g>
    <g id="xtick_3">
     <g id="line2d_3">
      <g>
       <use style="stroke:#000000;stroke-width:0.8;" x="317.910744" xlink:href="#ma53755e569" y="629.9064"/>
      </g>
     </g>
     <g id="text_3">
      <!-- 200 -->
      <defs>
       <path d="M 19.1875 8.296875 
L 53.609375 8.296875 
L 53.609375 0 
L 7.328125 0 
L 7.328125 8.296875 
Q 12.9375 14.109375 22.625 23.890625 
Q 32.328125 33.6875 34.8125 36.53125 
Q 39.546875 41.84375 41.421875 45.53125 
Q 43.3125 49.21875 43.3125 52.78125 
Q 43.3125 58.59375 39.234375 62.25 
Q 35.15625 65.921875 28.609375 65.921875 
Q 23.96875 65.921875 18.8125 64.3125 
Q 13.671875 62.703125 7.8125 59.421875 
L 7.8125 69.390625 
Q 13.765625 71.78125 18.9375 73 
Q 24.125 74.21875 28.421875 74.21875 
Q 39.75 74.21875 46.484375 68.546875 
Q 53.21875 62.890625 53.21875 53.421875 
Q 53.21875 48.921875 51.53125 44.890625 
Q 49.859375 40.875 45.40625 35.40625 
Q 44.1875 33.984375 37.640625 27.21875 
Q 31.109375 20.453125 19.1875 8.296875 
z
" id="DejaVuSans-50"/>
      </defs>
      <g transform="translate(308.366994 644.504838)scale(0.1 -0.1)">
       <use xlink:href="#DejaVuSans-50"/>
       <use x="63.623047" xlink:href="#DejaVuSans-48"/>
       <use x="127.246094" xlink:href="#DejaVuSans-48"/>
      </g>
     </g>
    </g>
    <g id="xtick_4">
     <g id="line2d_4">
      <g>
       <use style="stroke:#000000;stroke-width:0.8;" x="379.398347" xlink:href="#ma53755e569" y="629.9064"/>
      </g>
     </g>
     <g id="text_4">
      <!-- 300 -->
      <defs>
       <path d="M 40.578125 39.3125 
Q 47.65625 37.796875 51.625 33 
Q 55.609375 28.21875 55.609375 21.1875 
Q 55.609375 10.40625 48.1875 4.484375 
Q 40.765625 -1.421875 27.09375 -1.421875 
Q 22.515625 -1.421875 17.65625 -0.515625 
Q 12.796875 0.390625 7.625 2.203125 
L 7.625 11.71875 
Q 11.71875 9.328125 16.59375 8.109375 
Q 21.484375 6.890625 26.8125 6.890625 
Q 36.078125 6.890625 40.9375 10.546875 
Q 45.796875 14.203125 45.796875 21.1875 
Q 45.796875 27.640625 41.28125 31.265625 
Q 36.765625 34.90625 28.71875 34.90625 
L 20.21875 34.90625 
L 20.21875 43.015625 
L 29.109375 43.015625 
Q 36.375 43.015625 40.234375 45.921875 
Q 44.09375 48.828125 44.09375 54.296875 
Q 44.09375 59.90625 40.109375 62.90625 
Q 36.140625 65.921875 28.71875 65.921875 
Q 24.65625 65.921875 20.015625 65.03125 
Q 15.375 64.15625 9.8125 62.3125 
L 9.8125 71.09375 
Q 15.4375 72.65625 20.34375 73.4375 
Q 25.25 74.21875 29.59375 74.21875 
Q 40.828125 74.21875 47.359375 69.109375 
Q 53.90625 64.015625 53.90625 55.328125 
Q 53.90625 49.265625 50.4375 45.09375 
Q 46.96875 40.921875 40.578125 39.3125 
z
" id="DejaVuSans-51"/>
      </defs>
      <g transform="translate(369.854597 644.504838)scale(0.1 -0.1)">
       <use xlink:href="#DejaVuSans-51"/>
       <use x="63.623047" xlink:href="#DejaVuSans-48"/>
       <use x="127.246094" xlink:href="#DejaVuSans-48"/>
      </g>
     </g>
    </g>
    <g id="xtick_5">
     <g id="line2d_5">
      <g>
       <use style="stroke:#000000;stroke-width:0.8;" x="440.88595" xlink:href="#ma53755e569" y="629.9064"/>
      </g>
     </g>
     <g id="text_5">
      <!-- 400 -->
      <defs>
       <path d="M 37.796875 64.3125 
L 12.890625 25.390625 
L 37.796875 25.390625 
z
M 35.203125 72.90625 
L 47.609375 72.90625 
L 47.609375 25.390625 
L 58.015625 25.390625 
L 58.015625 17.1875 
L 47.609375 17.1875 
L 47.609375 0 
L 37.796875 0 
L 37.796875 17.1875 
L 4.890625 17.1875 
L 4.890625 26.703125 
z
" id="DejaVuSans-52"/>
      </defs>
      <g transform="translate(431.3422 644.504838)scale(0.1 -0.1)">
       <use xlink:href="#DejaVuSans-52"/>
       <use x="63.623047" xlink:href="#DejaVuSans-48"/>
       <use x="127.246094" xlink:href="#DejaVuSans-48"/>
      </g>
     </g>
    </g>
    <g id="xtick_6">
     <g id="line2d_6">
      <g>
       <use style="stroke:#000000;stroke-width:0.8;" x="502.373554" xlink:href="#ma53755e569" y="629.9064"/>
      </g>
     </g>
     <g id="text_6">
      <!-- 500 -->
      <defs>
       <path d="M 10.796875 72.90625 
L 49.515625 72.90625 
L 49.515625 64.59375 
L 19.828125 64.59375 
L 19.828125 46.734375 
Q 21.96875 47.46875 24.109375 47.828125 
Q 26.265625 48.1875 28.421875 48.1875 
Q 40.625 48.1875 47.75 41.5 
Q 54.890625 34.8125 54.890625 23.390625 
Q 54.890625 11.625 47.5625 5.09375 
Q 40.234375 -1.421875 26.90625 -1.421875 
Q 22.3125 -1.421875 17.546875 -0.640625 
Q 12.796875 0.140625 7.71875 1.703125 
L 7.71875 11.625 
Q 12.109375 9.234375 16.796875 8.0625 
Q 21.484375 6.890625 26.703125 6.890625 
Q 35.15625 6.890625 40.078125 11.328125 
Q 45.015625 15.765625 45.015625 23.390625 
Q 45.015625 31 40.078125 35.4375 
Q 35.15625 39.890625 26.703125 39.890625 
Q 22.75 39.890625 18.8125 39.015625 
Q 14.890625 38.140625 10.796875 36.28125 
z
" id="DejaVuSans-53"/>
      </defs>
      <g transform="translate(492.829804 644.504838)scale(0.1 -0.1)">
       <use xlink:href="#DejaVuSans-53"/>
       <use x="63.623047" xlink:href="#DejaVuSans-48"/>
       <use x="127.246094" xlink:href="#DejaVuSans-48"/>
      </g>
     </g>
    </g>
    <g id="xtick_7">
     <g id="line2d_7">
      <g>
       <use style="stroke:#000000;stroke-width:0.8;" x="563.861157" xlink:href="#ma53755e569" y="629.9064"/>
      </g>
     </g>
     <g id="text_7">
      <!-- 600 -->
      <defs>
       <path d="M 33.015625 40.375 
Q 26.375 40.375 22.484375 35.828125 
Q 18.609375 31.296875 18.609375 23.390625 
Q 18.609375 15.53125 22.484375 10.953125 
Q 26.375 6.390625 33.015625 6.390625 
Q 39.65625 6.390625 43.53125 10.953125 
Q 47.40625 15.53125 47.40625 23.390625 
Q 47.40625 31.296875 43.53125 35.828125 
Q 39.65625 40.375 33.015625 40.375 
z
M 52.59375 71.296875 
L 52.59375 62.3125 
Q 48.875 64.0625 45.09375 64.984375 
Q 41.3125 65.921875 37.59375 65.921875 
Q 27.828125 65.921875 22.671875 59.328125 
Q 17.53125 52.734375 16.796875 39.40625 
Q 19.671875 43.65625 24.015625 45.921875 
Q 28.375 48.1875 33.59375 48.1875 
Q 44.578125 48.1875 50.953125 41.515625 
Q 57.328125 34.859375 57.328125 23.390625 
Q 57.328125 12.15625 50.6875 5.359375 
Q 44.046875 -1.421875 33.015625 -1.421875 
Q 20.359375 -1.421875 13.671875 8.265625 
Q 6.984375 17.96875 6.984375 36.375 
Q 6.984375 53.65625 15.1875 63.9375 
Q 23.390625 74.21875 37.203125 74.21875 
Q 40.921875 74.21875 44.703125 73.484375 
Q 48.484375 72.75 52.59375 71.296875 
z
" id="DejaVuSans-54"/>
      </defs>
      <g transform="translate(554.317407 644.504838)scale(0.1 -0.1)">
       <use xlink:href="#DejaVuSans-54"/>
       <use x="63.623047" xlink:href="#DejaVuSans-48"/>
       <use x="127.246094" xlink:href="#DejaVuSans-48"/>
      </g>
     </g>
    </g>
    <g id="xtick_8">
     <g id="line2d_8">
      <g>
       <use style="stroke:#000000;stroke-width:0.8;" x="625.34876" xlink:href="#ma53755e569" y="629.9064"/>
      </g>
     </g>
     <g id="text_8">
      <!-- 700 -->
      <defs>
       <path d="M 8.203125 72.90625 
L 55.078125 72.90625 
L 55.078125 68.703125 
L 28.609375 0 
L 18.3125 0 
L 43.21875 64.59375 
L 8.203125 64.59375 
z
" id="DejaVuSans-55"/>
      </defs>
      <g transform="translate(615.80501 644.504838)scale(0.1 -0.1)">
       <use xlink:href="#DejaVuSans-55"/>
       <use x="63.623047" xlink:href="#DejaVuSans-48"/>
       <use x="127.246094" xlink:href="#DejaVuSans-48"/>
      </g>
     </g>
    </g>
   </g>
   <g id="matplotlib.axis_2">
    <g id="ytick_1">
     <g id="line2d_9">
      <defs>
       <path d="M 0 0 
L -3.5 0 
" id="me8d087dd15" style="stroke:#000000;stroke-width:0.8;"/>
      </defs>
      <g>
       <use style="stroke:#000000;stroke-width:0.8;" x="172.8" xlink:href="#me8d087dd15" y="546.661964"/>
      </g>
     </g>
     <g id="text_9">
      <!-- −0.4 -->
      <defs>
       <path d="M 10.59375 35.5 
L 73.1875 35.5 
L 73.1875 27.203125 
L 10.59375 27.203125 
z
" id="DejaVuSans-8722"/>
       <path d="M 10.6875 12.40625 
L 21 12.40625 
L 21 0 
L 10.6875 0 
z
" id="DejaVuSans-46"/>
      </defs>
      <g transform="translate(141.517187 550.461183)scale(0.1 -0.1)">
       <use xlink:href="#DejaVuSans-8722"/>
       <use x="83.789062" xlink:href="#DejaVuSans-48"/>
       <use x="147.412109" xlink:href="#DejaVuSans-46"/>
       <use x="179.199219" xlink:href="#DejaVuSans-52"/>
      </g>
     </g>
    </g>
    <g id="ytick_2">
     <g id="line2d_10">
      <g>
       <use style="stroke:#000000;stroke-width:0.8;" x="172.8" xlink:href="#me8d087dd15" y="452.040972"/>
      </g>
     </g>
     <g id="text_10">
      <!-- −0.2 -->
      <g transform="translate(141.517187 455.84019)scale(0.1 -0.1)">
       <use xlink:href="#DejaVuSans-8722"/>
       <use x="83.789062" xlink:href="#DejaVuSans-48"/>
       <use x="147.412109" xlink:href="#DejaVuSans-46"/>
       <use x="179.199219" xlink:href="#DejaVuSans-50"/>
      </g>
     </g>
    </g>
    <g id="ytick_3">
     <g id="line2d_11">
      <g>
       <use style="stroke:#000000;stroke-width:0.8;" x="172.8" xlink:href="#me8d087dd15" y="357.419979"/>
      </g>
     </g>
     <g id="text_11">
      <!-- 0.0 -->
      <g transform="translate(149.896875 361.219198)scale(0.1 -0.1)">
       <use xlink:href="#DejaVuSans-48"/>
       <use x="63.623047" xlink:href="#DejaVuSans-46"/>
       <use x="95.410156" xlink:href="#DejaVuSans-48"/>
      </g>
     </g>
    </g>
    <g id="ytick_4">
     <g id="line2d_12">
      <g>
       <use style="stroke:#000000;stroke-width:0.8;" x="172.8" xlink:href="#me8d087dd15" y="262.798987"/>
      </g>
     </g>
     <g id="text_12">
      <!-- 0.2 -->
      <g transform="translate(149.896875 266.598205)scale(0.1 -0.1)">
       <use xlink:href="#DejaVuSans-48"/>
       <use x="63.623047" xlink:href="#DejaVuSans-46"/>
       <use x="95.410156" xlink:href="#DejaVuSans-50"/>
      </g>
     </g>
    </g>
    <g id="ytick_5">
     <g id="line2d_13">
      <g>
       <use style="stroke:#000000;stroke-width:0.8;" x="172.8" xlink:href="#me8d087dd15" y="168.177994"/>
      </g>
     </g>
     <g id="text_13">
      <!-- 0.4 -->
      <g transform="translate(149.896875 171.977213)scale(0.1 -0.1)">
       <use xlink:href="#DejaVuSans-48"/>
       <use x="63.623047" xlink:href="#DejaVuSans-46"/>
       <use x="95.410156" xlink:href="#DejaVuSans-52"/>
      </g>
     </g>
    </g>
   </g>
   <g id="line2d_14">
    <path clip-path="url(#pa388c28a97)" d="M 194.935537 357.390131 
L 196.780165 357.47942 
L 198.009917 357.624198 
L 205.38843 357.613754 
L 207.233058 357.574392 
L 209.077686 357.609457 
L 211.53719 357.598542 
L 253.34876 357.978572 
L 281.018182 358.490955 
L 310.532231 359.366372 
L 330.208264 360.156339 
L 349.269421 361.146966 
L 367.715702 362.325991 
L 384.932231 363.606334 
L 405.838017 365.419812 
L 421.209917 366.951244 
L 444.575207 369.419528 
L 455.028099 370.057285 
L 466.095868 370.123467 
L 470.4 369.902265 
L 471.629752 369.738997 
L 473.47438 369.814571 
L 475.933884 369.600556 
L 477.778512 369.546823 
L 479.62314 369.397234 
L 481.467769 369.315094 
L 483.927273 369.124672 
L 488.231405 368.805471 
L 514.671074 366.701538 
L 555.252893 364.168345 
L 558.327273 363.98389 
L 559.557025 363.940304 
L 561.401653 363.636641 
L 563.246281 363.54971 
L 565.705785 363.20401 
L 567.550413 363.016582 
L 570.009917 362.710128 
L 574.928926 362.085723 
L 580.46281 361.32739 
L 586.61157 360.505265 
L 591.530579 359.861302 
L 598.909091 359.091536 
L 603.213223 358.801048 
L 607.517355 358.703693 
L 611.206612 358.826008 
L 614.895868 359.18573 
L 617.970248 359.705884 
L 621.044628 360.445862 
L 624.733884 361.679215 
L 627.193388 362.709407 
L 630.267769 364.266953 
L 632.727273 365.710749 
L 635.186777 367.336442 
L 637.031405 368.641255 
L 637.031405 368.641255 
" style="fill:none;stroke:#ff796c;stroke-linecap:square;stroke-width:1.5;"/>
   </g>
   <g id="line2d_15">
    <path clip-path="url(#pa388c28a97)" d="M 194.935537 357.419979 
L 195.550413 356.988399 
L 204.158678 356.926151 
L 213.996694 356.483589 
L 225.679339 355.737022 
L 245.355372 354.435647 
L 262.571901 353.629595 
L 287.781818 352.555366 
L 298.234711 352.391888 
L 308.072727 352.448925 
L 316.680992 352.70964 
L 325.289256 353.194835 
L 335.127273 353.98398 
L 346.195041 355.102377 
L 356.033058 356.320938 
L 365.871074 357.770318 
L 375.094215 359.358309 
L 383.702479 361.056258 
L 392.92562 363.107975 
L 402.14876 365.378029 
L 412.601653 368.17977 
L 430.433058 373.084859 
L 433.507438 373.612926 
L 436.581818 373.921512 
L 439.656198 373.944553 
L 442.115702 373.714717 
L 444.575207 373.296699 
L 447.649587 372.504354 
L 450.723967 371.425223 
L 453.183471 370.348777 
L 456.257851 368.74954 
L 459.947107 366.513772 
L 464.25124 363.564659 
L 469.785124 359.43416 
L 474.704132 355.495015 
L 480.238017 350.997573 
L 486.386777 346.314482 
L 489.461157 344.245413 
L 492.535537 342.41485 
L 495.609917 340.847187 
L 498.684298 339.569506 
L 501.143802 338.769008 
L 503.603306 338.179191 
L 506.677686 337.686732 
L 509.752066 337.462834 
L 512.21157 337.486173 
L 514.671074 337.698289 
L 517.745455 338.210197 
L 521.434711 339.10303 
L 526.353719 340.563588 
L 536.191736 343.771358 
L 547.259504 347.54903 
L 557.712397 351.413277 
L 566.935537 355.044352 
L 574.31405 358.169322 
L 580.46281 361.053477 
L 585.381818 363.615866 
L 589.68595 366.124053 
L 593.375207 368.530039 
L 597.064463 371.243957 
L 600.138843 373.802096 
L 603.213223 376.691314 
L 605.672727 379.277145 
L 608.132231 382.145008 
L 610.591736 385.334265 
L 613.05124 388.872085 
L 615.510744 392.792565 
L 617.970248 397.125756 
L 620.429752 401.892329 
L 622.889256 407.10793 
L 625.34876 412.758174 
L 628.42314 420.390539 
L 632.112397 430.221313 
L 637.646281 445.433188 
L 637.646281 445.433188 
" style="fill:none;stroke:#e50000;stroke-linecap:square;stroke-width:1.5;"/>
   </g>
   <g id="line2d_16">
    <path clip-path="url(#pa388c28a97)" d="M 194.935537 109.7028 
L 199.239669 109.818338 
L 203.543802 110.164842 
L 207.847934 110.741992 
L 212.152066 111.549246 
L 216.456198 112.585854 
L 220.760331 113.850847 
L 225.064463 115.343046 
L 229.368595 117.061059 
L 233.672727 119.003283 
L 237.97686 121.167906 
L 242.895868 123.911488 
L 247.814876 126.939564 
L 252.733884 130.248444 
L 257.652893 133.834099 
L 262.571901 137.692158 
L 267.490909 141.817921 
L 273.024793 146.773125 
L 278.558678 152.05313 
L 284.092562 157.649797 
L 289.626446 163.554494 
L 295.775207 170.465451 
L 301.923967 177.732286 
L 308.072727 185.341167 
L 314.836364 194.088694 
L 321.6 203.212409 
L 328.978512 213.569881 
L 336.357025 224.321636 
L 344.350413 236.380103 
L 352.958678 249.800425 
L 362.181818 264.62349 
L 372.019835 280.871161 
L 383.087603 299.591552 
L 396.614876 322.944411 
L 416.290909 357.419979 
L 440.88595 400.435616 
L 453.798347 422.577329 
L 464.866116 441.127755 
L 474.704132 457.187253 
L 483.927273 471.803043 
L 491.920661 484.07606 
L 499.91405 495.941668 
L 507.292562 506.499899 
L 514.056198 515.820005 
L 520.819835 524.775279 
L 527.583471 533.345097 
L 533.732231 540.784725 
L 539.880992 547.875309 
L 546.029752 554.60335 
L 551.563636 560.338013 
L 557.097521 565.759791 
L 562.631405 570.860324 
L 568.165289 575.631748 
L 573.084298 579.590765 
L 578.003306 583.2791 
L 582.922314 586.692262 
L 587.841322 589.82609 
L 592.760331 592.676768 
L 597.679339 595.240821 
L 601.983471 597.246781 
L 606.287603 599.029027 
L 610.591736 600.585896 
L 614.895868 601.915935 
L 619.2 603.017903 
L 623.504132 603.890774 
L 627.808264 604.533731 
L 632.112397 604.946177 
L 636.416529 605.127726 
L 637.031405 605.1348 
L 637.031405 605.1348 
" style="fill:none;stroke:#014d4e;stroke-linecap:square;stroke-width:1.5;"/>
   </g>
   <g id="line2d_17">
    <path clip-path="url(#pa388c28a97)" d="M 194.935537 110.13438 
L 199.239669 110.224433 
L 204.158678 110.748364 
L 207.233058 111.278491 
L 211.53719 112.264404 
L 215.841322 113.507136 
L 219.530579 114.77647 
L 223.834711 116.493044 
L 228.138843 118.451638 
L 232.442975 120.636538 
L 237.361983 123.390755 
L 242.280992 126.401016 
L 247.2 129.657345 
L 252.119008 133.164785 
L 257.038017 136.936977 
L 261.957025 140.985545 
L 266.876033 145.313212 
L 272.409917 150.500421 
L 277.943802 155.996261 
L 284.092562 162.425437 
L 290.241322 169.164503 
L 297.004959 176.915416 
L 303.768595 184.998818 
L 311.147107 194.155664 
L 319.140496 204.415044 
L 327.74876 215.817658 
L 336.357025 227.587581 
L 345.580165 240.5884 
L 356.033058 255.708577 
L 368.945455 274.792269 
L 399.07438 319.897995 
L 417.520661 347.246533 
L 429.203306 364.551597 
L 433.507438 371.338276 
L 437.196694 377.497 
L 440.88595 384.06482 
L 445.190083 392.276426 
L 449.494215 401.006523 
L 453.798347 410.251874 
L 458.717355 421.389162 
L 465.480992 437.342452 
L 477.778512 467.040263 
L 483.312397 480.145661 
L 488.231405 491.237463 
L 492.535537 500.344779 
L 496.224793 507.636111 
L 499.91405 514.41073 
L 502.98843 519.629546 
L 506.677686 525.43286 
L 509.752066 529.898945 
L 512.826446 534.00292 
L 515.900826 537.745133 
L 518.975207 541.165395 
L 522.664463 544.946307 
L 526.968595 549.050536 
L 531.887603 553.454764 
L 537.421488 558.118934 
L 542.340496 561.990954 
L 546.644628 565.126664 
L 551.563636 568.413886 
L 556.482645 571.41112 
L 560.786777 573.771535 
L 565.090909 575.900813 
L 569.395041 577.769059 
L 573.699174 579.317362 
L 577.38843 580.383777 
L 581.077686 581.192626 
L 584.152066 581.644703 
L 587.226446 581.859411 
L 589.68595 581.840129 
L 592.145455 581.648785 
L 594.604959 581.247402 
L 597.064463 580.622083 
L 599.523967 579.745679 
L 601.983471 578.580901 
L 604.442975 577.108302 
L 606.902479 575.2852 
L 608.747107 573.669107 
L 610.591736 571.820835 
L 612.436364 569.731659 
L 614.895868 566.543349 
L 617.355372 562.867852 
L 619.814876 558.684297 
L 622.27438 553.97686 
L 624.733884 548.759772 
L 627.193388 543.058453 
L 630.267769 535.334414 
L 634.571901 523.786443 
L 637.031405 517.121591 
L 637.031405 517.121591 
" style="fill:none;stroke:#ffff14;stroke-linecap:square;stroke-width:1.5;"/>
   </g>
   <g id="patch_3">
    <path d="M 172.8 629.9064 
L 172.8 84.9312 
" style="fill:none;stroke:#000000;stroke-linecap:square;stroke-linejoin:miter;stroke-width:0.8;"/>
   </g>
   <g id="patch_4">
    <path d="M 659.781818 629.9064 
L 659.781818 84.9312 
" style="fill:none;stroke:#000000;stroke-linecap:square;stroke-linejoin:miter;stroke-width:0.8;"/>
   </g>
   <g id="patch_5">
    <path d="M 172.8 629.9064 
L 659.781818 629.9064 
" style="fill:none;stroke:#000000;stroke-linecap:square;stroke-linejoin:miter;stroke-width:0.8;"/>
   </g>
   <g id="patch_6">
    <path d="M 172.8 84.9312 
L 659.781818 84.9312 
" style="fill:none;stroke:#000000;stroke-linecap:square;stroke-linejoin:miter;stroke-width:0.8;"/>
   </g>
   <g id="text_14">
    <!-- Right abduction -->
    <defs>
     <path d="M 44.390625 34.1875 
Q 47.5625 33.109375 50.5625 29.59375 
Q 53.5625 26.078125 56.59375 19.921875 
L 66.609375 0 
L 56 0 
L 46.6875 18.703125 
Q 43.0625 26.03125 39.671875 28.421875 
Q 36.28125 30.8125 30.421875 30.8125 
L 19.671875 30.8125 
L 19.671875 0 
L 9.8125 0 
L 9.8125 72.90625 
L 32.078125 72.90625 
Q 44.578125 72.90625 50.734375 67.671875 
Q 56.890625 62.453125 56.890625 51.90625 
Q 56.890625 45.015625 53.6875 40.46875 
Q 50.484375 35.9375 44.390625 34.1875 
z
M 19.671875 64.796875 
L 19.671875 38.921875 
L 32.078125 38.921875 
Q 39.203125 38.921875 42.84375 42.21875 
Q 46.484375 45.515625 46.484375 51.90625 
Q 46.484375 58.296875 42.84375 61.546875 
Q 39.203125 64.796875 32.078125 64.796875 
z
" id="DejaVuSans-82"/>
     <path d="M 9.421875 54.6875 
L 18.40625 54.6875 
L 18.40625 0 
L 9.421875 0 
z
M 9.421875 75.984375 
L 18.40625 75.984375 
L 18.40625 64.59375 
L 9.421875 64.59375 
z
" id="DejaVuSans-105"/>
     <path d="M 45.40625 27.984375 
Q 45.40625 37.75 41.375 43.109375 
Q 37.359375 48.484375 30.078125 48.484375 
Q 22.859375 48.484375 18.828125 43.109375 
Q 14.796875 37.75 14.796875 27.984375 
Q 14.796875 18.265625 18.828125 12.890625 
Q 22.859375 7.515625 30.078125 7.515625 
Q 37.359375 7.515625 41.375 12.890625 
Q 45.40625 18.265625 45.40625 27.984375 
z
M 54.390625 6.78125 
Q 54.390625 -7.171875 48.1875 -13.984375 
Q 42 -20.796875 29.203125 -20.796875 
Q 24.46875 -20.796875 20.265625 -20.09375 
Q 16.0625 -19.390625 12.109375 -17.921875 
L 12.109375 -9.1875 
Q 16.0625 -11.328125 19.921875 -12.34375 
Q 23.78125 -13.375 27.78125 -13.375 
Q 36.625 -13.375 41.015625 -8.765625 
Q 45.40625 -4.15625 45.40625 5.171875 
L 45.40625 9.625 
Q 42.625 4.78125 38.28125 2.390625 
Q 33.9375 0 27.875 0 
Q 17.828125 0 11.671875 7.65625 
Q 5.515625 15.328125 5.515625 27.984375 
Q 5.515625 40.671875 11.671875 48.328125 
Q 17.828125 56 27.875 56 
Q 33.9375 56 38.28125 53.609375 
Q 42.625 51.21875 45.40625 46.390625 
L 45.40625 54.6875 
L 54.390625 54.6875 
z
" id="DejaVuSans-103"/>
     <path d="M 54.890625 33.015625 
L 54.890625 0 
L 45.90625 0 
L 45.90625 32.71875 
Q 45.90625 40.484375 42.875 44.328125 
Q 39.84375 48.1875 33.796875 48.1875 
Q 26.515625 48.1875 22.3125 43.546875 
Q 18.109375 38.921875 18.109375 30.90625 
L 18.109375 0 
L 9.078125 0 
L 9.078125 75.984375 
L 18.109375 75.984375 
L 18.109375 46.1875 
Q 21.34375 51.125 25.703125 53.5625 
Q 30.078125 56 35.796875 56 
Q 45.21875 56 50.046875 50.171875 
Q 54.890625 44.34375 54.890625 33.015625 
z
" id="DejaVuSans-104"/>
     <path d="M 18.3125 70.21875 
L 18.3125 54.6875 
L 36.8125 54.6875 
L 36.8125 47.703125 
L 18.3125 47.703125 
L 18.3125 18.015625 
Q 18.3125 11.328125 20.140625 9.421875 
Q 21.96875 7.515625 27.59375 7.515625 
L 36.8125 7.515625 
L 36.8125 0 
L 27.59375 0 
Q 17.1875 0 13.234375 3.875 
Q 9.28125 7.765625 9.28125 18.015625 
L 9.28125 47.703125 
L 2.6875 47.703125 
L 2.6875 54.6875 
L 9.28125 54.6875 
L 9.28125 70.21875 
z
" id="DejaVuSans-116"/>
     <path id="DejaVuSans-32"/>
     <path d="M 34.28125 27.484375 
Q 23.390625 27.484375 19.1875 25 
Q 14.984375 22.515625 14.984375 16.5 
Q 14.984375 11.71875 18.140625 8.90625 
Q 21.296875 6.109375 26.703125 6.109375 
Q 34.1875 6.109375 38.703125 11.40625 
Q 43.21875 16.703125 43.21875 25.484375 
L 43.21875 27.484375 
z
M 52.203125 31.203125 
L 52.203125 0 
L 43.21875 0 
L 43.21875 8.296875 
Q 40.140625 3.328125 35.546875 0.953125 
Q 30.953125 -1.421875 24.3125 -1.421875 
Q 15.921875 -1.421875 10.953125 3.296875 
Q 6 8.015625 6 15.921875 
Q 6 25.140625 12.171875 29.828125 
Q 18.359375 34.515625 30.609375 34.515625 
L 43.21875 34.515625 
L 43.21875 35.40625 
Q 43.21875 41.609375 39.140625 45 
Q 35.0625 48.390625 27.6875 48.390625 
Q 23 48.390625 18.546875 47.265625 
Q 14.109375 46.140625 10.015625 43.890625 
L 10.015625 52.203125 
Q 14.9375 54.109375 19.578125 55.046875 
Q 24.21875 56 28.609375 56 
Q 40.484375 56 46.34375 49.84375 
Q 52.203125 43.703125 52.203125 31.203125 
z
" id="DejaVuSans-97"/>
     <path d="M 48.6875 27.296875 
Q 48.6875 37.203125 44.609375 42.84375 
Q 40.53125 48.484375 33.40625 48.484375 
Q 26.265625 48.484375 22.1875 42.84375 
Q 18.109375 37.203125 18.109375 27.296875 
Q 18.109375 17.390625 22.1875 11.75 
Q 26.265625 6.109375 33.40625 6.109375 
Q 40.53125 6.109375 44.609375 11.75 
Q 48.6875 17.390625 48.6875 27.296875 
z
M 18.109375 46.390625 
Q 20.953125 51.265625 25.265625 53.625 
Q 29.59375 56 35.59375 56 
Q 45.5625 56 51.78125 48.09375 
Q 58.015625 40.1875 58.015625 27.296875 
Q 58.015625 14.40625 51.78125 6.484375 
Q 45.5625 -1.421875 35.59375 -1.421875 
Q 29.59375 -1.421875 25.265625 0.953125 
Q 20.953125 3.328125 18.109375 8.203125 
L 18.109375 0 
L 9.078125 0 
L 9.078125 75.984375 
L 18.109375 75.984375 
z
" id="DejaVuSans-98"/>
     <path d="M 45.40625 46.390625 
L 45.40625 75.984375 
L 54.390625 75.984375 
L 54.390625 0 
L 45.40625 0 
L 45.40625 8.203125 
Q 42.578125 3.328125 38.25 0.953125 
Q 33.9375 -1.421875 27.875 -1.421875 
Q 17.96875 -1.421875 11.734375 6.484375 
Q 5.515625 14.40625 5.515625 27.296875 
Q 5.515625 40.1875 11.734375 48.09375 
Q 17.96875 56 27.875 56 
Q 33.9375 56 38.25 53.625 
Q 42.578125 51.265625 45.40625 46.390625 
z
M 14.796875 27.296875 
Q 14.796875 17.390625 18.875 11.75 
Q 22.953125 6.109375 30.078125 6.109375 
Q 37.203125 6.109375 41.296875 11.75 
Q 45.40625 17.390625 45.40625 27.296875 
Q 45.40625 37.203125 41.296875 42.84375 
Q 37.203125 48.484375 30.078125 48.484375 
Q 22.953125 48.484375 18.875 42.84375 
Q 14.796875 37.203125 14.796875 27.296875 
z
" id="DejaVuSans-100"/>
     <path d="M 8.5 21.578125 
L 8.5 54.6875 
L 17.484375 54.6875 
L 17.484375 21.921875 
Q 17.484375 14.15625 20.5 10.265625 
Q 23.53125 6.390625 29.59375 6.390625 
Q 36.859375 6.390625 41.078125 11.03125 
Q 45.3125 15.671875 45.3125 23.6875 
L 45.3125 54.6875 
L 54.296875 54.6875 
L 54.296875 0 
L 45.3125 0 
L 45.3125 8.40625 
Q 42.046875 3.421875 37.71875 1 
Q 33.40625 -1.421875 27.6875 -1.421875 
Q 18.265625 -1.421875 13.375 4.4375 
Q 8.5 10.296875 8.5 21.578125 
z
M 31.109375 56 
z
" id="DejaVuSans-117"/>
     <path d="M 48.78125 52.59375 
L 48.78125 44.1875 
Q 44.96875 46.296875 41.140625 47.34375 
Q 37.3125 48.390625 33.40625 48.390625 
Q 24.65625 48.390625 19.8125 42.84375 
Q 14.984375 37.3125 14.984375 27.296875 
Q 14.984375 17.28125 19.8125 11.734375 
Q 24.65625 6.203125 33.40625 6.203125 
Q 37.3125 6.203125 41.140625 7.25 
Q 44.96875 8.296875 48.78125 10.40625 
L 48.78125 2.09375 
Q 45.015625 0.34375 40.984375 -0.53125 
Q 36.96875 -1.421875 32.421875 -1.421875 
Q 20.0625 -1.421875 12.78125 6.34375 
Q 5.515625 14.109375 5.515625 27.296875 
Q 5.515625 40.671875 12.859375 48.328125 
Q 20.21875 56 33.015625 56 
Q 37.15625 56 41.109375 55.140625 
Q 45.0625 54.296875 48.78125 52.59375 
z
" id="DejaVuSans-99"/>
     <path d="M 30.609375 48.390625 
Q 23.390625 48.390625 19.1875 42.75 
Q 14.984375 37.109375 14.984375 27.296875 
Q 14.984375 17.484375 19.15625 11.84375 
Q 23.34375 6.203125 30.609375 6.203125 
Q 37.796875 6.203125 41.984375 11.859375 
Q 46.1875 17.53125 46.1875 27.296875 
Q 46.1875 37.015625 41.984375 42.703125 
Q 37.796875 48.390625 30.609375 48.390625 
z
M 30.609375 56 
Q 42.328125 56 49.015625 48.375 
Q 55.71875 40.765625 55.71875 27.296875 
Q 55.71875 13.875 49.015625 6.21875 
Q 42.328125 -1.421875 30.609375 -1.421875 
Q 18.84375 -1.421875 12.171875 6.21875 
Q 5.515625 13.875 5.515625 27.296875 
Q 5.515625 40.765625 12.171875 48.375 
Q 18.84375 56 30.609375 56 
z
" id="DejaVuSans-111"/>
     <path d="M 54.890625 33.015625 
L 54.890625 0 
L 45.90625 0 
L 45.90625 32.71875 
Q 45.90625 40.484375 42.875 44.328125 
Q 39.84375 48.1875 33.796875 48.1875 
Q 26.515625 48.1875 22.3125 43.546875 
Q 18.109375 38.921875 18.109375 30.90625 
L 18.109375 0 
L 9.078125 0 
L 9.078125 54.6875 
L 18.109375 54.6875 
L 18.109375 46.1875 
Q 21.34375 51.125 25.703125 53.5625 
Q 30.078125 56 35.796875 56 
Q 45.21875 56 50.046875 50.171875 
Q 54.890625 44.34375 54.890625 33.015625 
z
" id="DejaVuSans-110"/>
    </defs>
    <g transform="translate(368.694972 78.9312)scale(0.12 -0.12)">
     <use xlink:href="#DejaVuSans-82"/>
     <use x="69.482422" xlink:href="#DejaVuSans-105"/>
     <use x="97.265625" xlink:href="#DejaVuSans-103"/>
     <use x="160.742188" xlink:href="#DejaVuSans-104"/>
     <use x="224.121094" xlink:href="#DejaVuSans-116"/>
     <use x="263.330078" xlink:href="#DejaVuSans-32"/>
     <use x="295.117188" xlink:href="#DejaVuSans-97"/>
     <use x="356.396484" xlink:href="#DejaVuSans-98"/>
     <use x="419.873047" xlink:href="#DejaVuSans-100"/>
     <use x="483.349609" xlink:href="#DejaVuSans-117"/>
     <use x="546.728516" xlink:href="#DejaVuSans-99"/>
     <use x="601.708984" xlink:href="#DejaVuSans-116"/>
     <use x="640.917969" xlink:href="#DejaVuSans-105"/>
     <use x="668.701172" xlink:href="#DejaVuSans-111"/>
     <use x="729.882812" xlink:href="#DejaVuSans-110"/>
    </g>
   </g>
  </g>
  <g id="axes_2">
   <g id="patch_7">
    <path d="M 757.178182 629.9064 
L 1244.16 629.9064 
L 1244.16 84.9312 
L 757.178182 84.9312 
z
" style="fill:#ffffff;"/>
   </g>
   <g id="matplotlib.axis_3">
    <g id="xtick_9">
     <g id="line2d_18">
      <g>
       <use style="stroke:#000000;stroke-width:0.8;" x="779.313719" xlink:href="#ma53755e569" y="629.9064"/>
      </g>
     </g>
     <g id="text_15">
      <!-- 0 -->
      <g transform="translate(776.132469 644.504838)scale(0.1 -0.1)">
       <use xlink:href="#DejaVuSans-48"/>
      </g>
     </g>
    </g>
    <g id="xtick_10">
     <g id="line2d_19">
      <g>
       <use style="stroke:#000000;stroke-width:0.8;" x="840.801322" xlink:href="#ma53755e569" y="629.9064"/>
      </g>
     </g>
     <g id="text_16">
      <!-- 100 -->
      <g transform="translate(831.257572 644.504838)scale(0.1 -0.1)">
       <use xlink:href="#DejaVuSans-49"/>
       <use x="63.623047" xlink:href="#DejaVuSans-48"/>
       <use x="127.246094" xlink:href="#DejaVuSans-48"/>
      </g>
     </g>
    </g>
    <g id="xtick_11">
     <g id="line2d_20">
      <g>
       <use style="stroke:#000000;stroke-width:0.8;" x="902.288926" xlink:href="#ma53755e569" y="629.9064"/>
      </g>
     </g>
     <g id="text_17">
      <!-- 200 -->
      <g transform="translate(892.745176 644.504838)scale(0.1 -0.1)">
       <use xlink:href="#DejaVuSans-50"/>
       <use x="63.623047" xlink:href="#DejaVuSans-48"/>
       <use x="127.246094" xlink:href="#DejaVuSans-48"/>
      </g>
     </g>
    </g>
    <g id="xtick_12">
     <g id="line2d_21">
      <g>
       <use style="stroke:#000000;stroke-width:0.8;" x="963.776529" xlink:href="#ma53755e569" y="629.9064"/>
      </g>
     </g>
     <g id="text_18">
      <!-- 300 -->
      <g transform="translate(954.232779 644.504838)scale(0.1 -0.1)">
       <use xlink:href="#DejaVuSans-51"/>
       <use x="63.623047" xlink:href="#DejaVuSans-48"/>
       <use x="127.246094" xlink:href="#DejaVuSans-48"/>
      </g>
     </g>
    </g>
    <g id="xtick_13">
     <g id="line2d_22">
      <g>
       <use style="stroke:#000000;stroke-width:0.8;" x="1025.264132" xlink:href="#ma53755e569" y="629.9064"/>
      </g>
     </g>
     <g id="text_19">
      <!-- 400 -->
      <g transform="translate(1015.720382 644.504838)scale(0.1 -0.1)">
       <use xlink:href="#DejaVuSans-52"/>
       <use x="63.623047" xlink:href="#DejaVuSans-48"/>
       <use x="127.246094" xlink:href="#DejaVuSans-48"/>
      </g>
     </g>
    </g>
    <g id="xtick_14">
     <g id="line2d_23">
      <g>
       <use style="stroke:#000000;stroke-width:0.8;" x="1086.751736" xlink:href="#ma53755e569" y="629.9064"/>
      </g>
     </g>
     <g id="text_20">
      <!-- 500 -->
      <g transform="translate(1077.207986 644.504838)scale(0.1 -0.1)">
       <use xlink:href="#DejaVuSans-53"/>
       <use x="63.623047" xlink:href="#DejaVuSans-48"/>
       <use x="127.246094" xlink:href="#DejaVuSans-48"/>
      </g>
     </g>
    </g>
    <g id="xtick_15">
     <g id="line2d_24">
      <g>
       <use style="stroke:#000000;stroke-width:0.8;" x="1148.239339" xlink:href="#ma53755e569" y="629.9064"/>
      </g>
     </g>
     <g id="text_21">
      <!-- 600 -->
      <g transform="translate(1138.695589 644.504838)scale(0.1 -0.1)">
       <use xlink:href="#DejaVuSans-54"/>
       <use x="63.623047" xlink:href="#DejaVuSans-48"/>
       <use x="127.246094" xlink:href="#DejaVuSans-48"/>
      </g>
     </g>
    </g>
    <g id="xtick_16">
     <g id="line2d_25">
      <g>
       <use style="stroke:#000000;stroke-width:0.8;" x="1209.726942" xlink:href="#ma53755e569" y="629.9064"/>
      </g>
     </g>
     <g id="text_22">
      <!-- 700 -->
      <g transform="translate(1200.183192 644.504838)scale(0.1 -0.1)">
       <use xlink:href="#DejaVuSans-55"/>
       <use x="63.623047" xlink:href="#DejaVuSans-48"/>
       <use x="127.246094" xlink:href="#DejaVuSans-48"/>
      </g>
     </g>
    </g>
   </g>
   <g id="matplotlib.axis_4">
    <g id="ytick_6">
     <g id="line2d_26">
      <g>
       <use style="stroke:#000000;stroke-width:0.8;" x="757.178182" xlink:href="#me8d087dd15" y="592.985476"/>
      </g>
     </g>
     <g id="text_23">
      <!-- −0.8 -->
      <defs>
       <path d="M 31.78125 34.625 
Q 24.75 34.625 20.71875 30.859375 
Q 16.703125 27.09375 16.703125 20.515625 
Q 16.703125 13.921875 20.71875 10.15625 
Q 24.75 6.390625 31.78125 6.390625 
Q 38.8125 6.390625 42.859375 10.171875 
Q 46.921875 13.96875 46.921875 20.515625 
Q 46.921875 27.09375 42.890625 30.859375 
Q 38.875 34.625 31.78125 34.625 
z
M 21.921875 38.8125 
Q 15.578125 40.375 12.03125 44.71875 
Q 8.5 49.078125 8.5 55.328125 
Q 8.5 64.0625 14.71875 69.140625 
Q 20.953125 74.21875 31.78125 74.21875 
Q 42.671875 74.21875 48.875 69.140625 
Q 55.078125 64.0625 55.078125 55.328125 
Q 55.078125 49.078125 51.53125 44.71875 
Q 48 40.375 41.703125 38.8125 
Q 48.828125 37.15625 52.796875 32.3125 
Q 56.78125 27.484375 56.78125 20.515625 
Q 56.78125 9.90625 50.3125 4.234375 
Q 43.84375 -1.421875 31.78125 -1.421875 
Q 19.734375 -1.421875 13.25 4.234375 
Q 6.78125 9.90625 6.78125 20.515625 
Q 6.78125 27.484375 10.78125 32.3125 
Q 14.796875 37.15625 21.921875 38.8125 
z
M 18.3125 54.390625 
Q 18.3125 48.734375 21.84375 45.5625 
Q 25.390625 42.390625 31.78125 42.390625 
Q 38.140625 42.390625 41.71875 45.5625 
Q 45.3125 48.734375 45.3125 54.390625 
Q 45.3125 60.0625 41.71875 63.234375 
Q 38.140625 66.40625 31.78125 66.40625 
Q 25.390625 66.40625 21.84375 63.234375 
Q 18.3125 60.0625 18.3125 54.390625 
z
" id="DejaVuSans-56"/>
      </defs>
      <g transform="translate(725.895369 596.784695)scale(0.1 -0.1)">
       <use xlink:href="#DejaVuSans-8722"/>
       <use x="83.789062" xlink:href="#DejaVuSans-48"/>
       <use x="147.412109" xlink:href="#DejaVuSans-46"/>
       <use x="179.199219" xlink:href="#DejaVuSans-56"/>
      </g>
     </g>
    </g>
    <g id="ytick_7">
     <g id="line2d_27">
      <g>
       <use style="stroke:#000000;stroke-width:0.8;" x="757.178182" xlink:href="#me8d087dd15" y="519.959921"/>
      </g>
     </g>
     <g id="text_24">
      <!-- −0.6 -->
      <g transform="translate(725.895369 523.75914)scale(0.1 -0.1)">
       <use xlink:href="#DejaVuSans-8722"/>
       <use x="83.789062" xlink:href="#DejaVuSans-48"/>
       <use x="147.412109" xlink:href="#DejaVuSans-46"/>
       <use x="179.199219" xlink:href="#DejaVuSans-54"/>
      </g>
     </g>
    </g>
    <g id="ytick_8">
     <g id="line2d_28">
      <g>
       <use style="stroke:#000000;stroke-width:0.8;" x="757.178182" xlink:href="#me8d087dd15" y="446.934366"/>
      </g>
     </g>
     <g id="text_25">
      <!-- −0.4 -->
      <g transform="translate(725.895369 450.733585)scale(0.1 -0.1)">
       <use xlink:href="#DejaVuSans-8722"/>
       <use x="83.789062" xlink:href="#DejaVuSans-48"/>
       <use x="147.412109" xlink:href="#DejaVuSans-46"/>
       <use x="179.199219" xlink:href="#DejaVuSans-52"/>
      </g>
     </g>
    </g>
    <g id="ytick_9">
     <g id="line2d_29">
      <g>
       <use style="stroke:#000000;stroke-width:0.8;" x="757.178182" xlink:href="#me8d087dd15" y="373.908811"/>
      </g>
     </g>
     <g id="text_26">
      <!-- −0.2 -->
      <g transform="translate(725.895369 377.70803)scale(0.1 -0.1)">
       <use xlink:href="#DejaVuSans-8722"/>
       <use x="83.789062" xlink:href="#DejaVuSans-48"/>
       <use x="147.412109" xlink:href="#DejaVuSans-46"/>
       <use x="179.199219" xlink:href="#DejaVuSans-50"/>
      </g>
     </g>
    </g>
    <g id="ytick_10">
     <g id="line2d_30">
      <g>
       <use style="stroke:#000000;stroke-width:0.8;" x="757.178182" xlink:href="#me8d087dd15" y="300.883256"/>
      </g>
     </g>
     <g id="text_27">
      <!-- 0.0 -->
      <g transform="translate(734.275057 304.682475)scale(0.1 -0.1)">
       <use xlink:href="#DejaVuSans-48"/>
       <use x="63.623047" xlink:href="#DejaVuSans-46"/>
       <use x="95.410156" xlink:href="#DejaVuSans-48"/>
      </g>
     </g>
    </g>
    <g id="ytick_11">
     <g id="line2d_31">
      <g>
       <use style="stroke:#000000;stroke-width:0.8;" x="757.178182" xlink:href="#me8d087dd15" y="227.857701"/>
      </g>
     </g>
     <g id="text_28">
      <!-- 0.2 -->
      <g transform="translate(734.275057 231.65692)scale(0.1 -0.1)">
       <use xlink:href="#DejaVuSans-48"/>
       <use x="63.623047" xlink:href="#DejaVuSans-46"/>
       <use x="95.410156" xlink:href="#DejaVuSans-50"/>
      </g>
     </g>
    </g>
    <g id="ytick_12">
     <g id="line2d_32">
      <g>
       <use style="stroke:#000000;stroke-width:0.8;" x="757.178182" xlink:href="#me8d087dd15" y="154.832146"/>
      </g>
     </g>
     <g id="text_29">
      <!-- 0.4 -->
      <g transform="translate(734.275057 158.631365)scale(0.1 -0.1)">
       <use xlink:href="#DejaVuSans-48"/>
       <use x="63.623047" xlink:href="#DejaVuSans-46"/>
       <use x="95.410156" xlink:href="#DejaVuSans-52"/>
      </g>
     </g>
    </g>
   </g>
   <g id="line2d_33">
    <path clip-path="url(#pf1d939c3a0)" d="M 779.313719 300.8737 
L 812.517025 300.972687 
L 844.490579 301.028559 
L 1024.03438 301.04743 
L 1030.798017 301.00151 
L 1068.920331 300.935371 
L 1110.117025 301.086541 
L 1124.259174 301.047088 
L 1180.212893 301.259881 
L 1215.875702 301.737561 
L 1221.409587 301.617233 
L 1221.409587 301.617233 
" style="fill:none;stroke:#ff796c;stroke-linecap:square;stroke-width:1.5;"/>
   </g>
   <g id="line2d_34">
    <path clip-path="url(#pf1d939c3a0)" d="M 779.313719 300.883256 
L 779.928595 300.558595 
L 783.617851 300.508007 
L 786.077355 300.302595 
L 794.68562 299.910467 
L 798.989752 299.496675 
L 810.672397 297.802665 
L 821.125289 296.032586 
L 826.659174 294.849654 
L 832.193058 293.418261 
L 838.956694 291.39525 
L 853.713719 286.900118 
L 868.470744 282.521457 
L 877.079008 279.648955 
L 896.755041 272.741123 
L 904.133554 269.934009 
L 912.126942 266.647939 
L 949.019504 250.947958 
L 967.465785 242.828848 
L 987.141818 233.825675 
L 1017.270744 220.111812 
L 1019.730248 219.310632 
L 1021.574876 218.8861 
L 1023.419504 218.713971 
L 1025.264132 218.750671 
L 1026.493884 218.968183 
L 1028.338512 219.602166 
L 1030.798017 220.771672 
L 1033.872397 222.565685 
L 1036.331901 224.29542 
L 1038.176529 225.842553 
L 1040.636033 228.262662 
L 1043.095537 231.030718 
L 1046.169917 234.784229 
L 1051.088926 241.2923 
L 1056.62281 248.830268 
L 1061.541818 256.088596 
L 1065.84595 262.138292 
L 1070.150083 267.839879 
L 1072.609587 270.715555 
L 1075.069091 273.242402 
L 1077.528595 275.439037 
L 1079.988099 277.323302 
L 1082.447603 278.906391 
L 1084.907107 280.182979 
L 1086.751736 280.92262 
L 1087.981488 281.268041 
L 1091.055868 281.734071 
L 1093.515372 281.992155 
L 1096.589752 282.102744 
L 1098.43438 281.878558 
L 1100.279008 281.417439 
L 1102.123636 280.704289 
L 1105.198017 279.158617 
L 1110.731901 276.235613 
L 1113.191405 275.118578 
L 1116.880661 273.729496 
L 1120.569917 272.694838 
L 1124.259174 271.969071 
L 1131.02281 270.950979 
L 1140.24595 269.66463 
L 1148.239339 268.971493 
L 1150.083967 268.974475 
L 1156.232727 269.367816 
L 1168.530248 269.409567 
L 1172.219504 269.146195 
L 1175.90876 268.582782 
L 1178.98314 267.851542 
L 1181.442645 267.038026 
L 1183.902149 265.981996 
L 1186.361653 264.628459 
L 1188.206281 263.38277 
L 1190.050909 261.926807 
L 1191.895537 260.228721 
L 1193.740165 258.271054 
L 1195.584793 256.025566 
L 1197.429421 253.469216 
L 1199.27405 250.616611 
L 1201.118678 247.377849 
L 1202.963306 243.771902 
L 1205.42281 238.354609 
L 1207.882314 232.269344 
L 1210.341818 225.552412 
L 1212.801322 218.266462 
L 1215.875702 208.477319 
L 1222.024463 187.810348 
L 1222.024463 187.810348 
" style="fill:none;stroke:#e50000;stroke-linecap:square;stroke-width:1.5;"/>
   </g>
   <g id="line2d_35">
    <path clip-path="url(#pf1d939c3a0)" d="M 779.313719 109.7028 
L 784.232727 109.819262 
L 789.151736 110.168506 
L 794.070744 110.750107 
L 798.989752 111.563355 
L 803.90876 112.607261 
L 808.827769 113.880552 
L 813.746777 115.381677 
L 818.665785 117.108807 
L 823.584793 119.059838 
L 828.503802 121.232392 
L 834.037686 123.938 
L 839.57157 126.916445 
L 845.105455 130.163134 
L 850.639339 133.673062 
L 856.173223 137.440815 
L 861.707107 141.460584 
L 867.855868 146.215018 
L 874.004628 151.263872 
L 880.153388 156.597534 
L 886.917025 162.781384 
L 893.680661 169.283314 
L 900.444298 176.088349 
L 907.82281 183.839277 
L 915.201322 191.911015 
L 923.194711 200.991742 
L 931.802975 211.129469 
L 941.026116 222.361838 
L 950.864132 234.712439 
L 961.931901 248.989147 
L 974.229421 265.223506 
L 990.216198 286.715161 
L 1030.798017 341.44748 
L 1043.095537 357.57621 
L 1054.163306 371.726596 
L 1064.001322 383.940698 
L 1073.224463 395.025017 
L 1081.832727 405.007595 
L 1089.826116 413.930104 
L 1097.204628 421.844149 
L 1104.58314 429.426649 
L 1111.346777 436.068253 
L 1118.110413 442.398495 
L 1124.259174 447.870788 
L 1130.407934 453.063282 
L 1136.556694 457.966092 
L 1142.705455 462.569887 
L 1148.239339 466.450388 
L 1153.773223 470.075596 
L 1159.307107 473.439922 
L 1164.840992 476.538178 
L 1170.374876 479.365588 
L 1175.90876 481.91779 
L 1180.827769 483.952185 
L 1185.746777 485.76354 
L 1190.665785 487.349646 
L 1195.584793 488.708571 
L 1200.503802 489.83866 
L 1205.42281 490.738536 
L 1210.341818 491.407103 
L 1215.260826 491.843546 
L 1220.179835 492.047333 
L 1221.409587 492.061892 
L 1221.409587 492.061892 
" style="fill:none;stroke:#014d4e;stroke-linecap:square;stroke-width:1.5;"/>
   </g>
   <g id="line2d_36">
    <path clip-path="url(#pf1d939c3a0)" d="M 779.313719 110.027461 
L 782.388099 110.068347 
L 791.61124 111.298506 
L 795.300496 112.010014 
L 798.989752 113.033396 
L 803.90876 114.773742 
L 808.212893 116.51512 
L 812.517025 118.449944 
L 816.821157 120.609093 
L 821.125289 123.026669 
L 824.814545 125.332346 
L 828.503802 127.871439 
L 832.807934 131.127745 
L 837.112066 134.66572 
L 842.64595 139.523969 
L 849.409587 145.774316 
L 856.173223 152.30799 
L 861.707107 157.934869 
L 867.240992 163.892193 
L 872.774876 170.207847 
L 878.923636 177.593535 
L 885.687273 186.073197 
L 892.450909 194.892111 
L 898.599669 203.256636 
L 904.74843 212.009008 
L 911.512066 222.071725 
L 919.505455 234.392096 
L 929.343471 249.958527 
L 937.951736 263.998455 
L 947.789752 280.48427 
L 958.242645 298.418906 
L 969.310413 317.855223 
L 982.22281 341.007888 
L 1012.351736 395.628928 
L 1017.270744 404.348612 
L 1020.345124 409.37095 
L 1022.804628 412.959753 
L 1025.264132 416.128884 
L 1027.10876 418.0656 
L 1029.568264 420.248128 
L 1032.642645 422.594989 
L 1035.102149 424.18323 
L 1036.946777 425.14258 
L 1038.791405 425.854299 
L 1040.636033 426.340183 
L 1043.095537 426.705722 
L 1045.555041 426.853082 
L 1049.244298 426.733694 
L 1055.393058 426.215568 
L 1057.237686 425.765925 
L 1061.541818 424.830101 
L 1068.305455 423.769453 
L 1070.150083 423.671574 
L 1072.609587 423.796905 
L 1074.454215 424.114338 
L 1076.298843 424.591983 
L 1078.758347 425.492525 
L 1081.217851 426.650295 
L 1083.677355 428.085134 
L 1086.13686 429.816133 
L 1087.981488 431.404281 
L 1094.745124 438.025222 
L 1096.589752 440.021443 
L 1099.049256 443.058861 
L 1101.50876 446.487887 
L 1105.812893 453.062843 
L 1109.502149 458.630307 
L 1113.191405 463.840032 
L 1116.880661 468.616883 
L 1120.569917 472.946937 
L 1124.259174 476.887118 
L 1129.793058 482.398553 
L 1136.556694 488.816178 
L 1140.24595 492.04394 
L 1146.394711 497.052613 
L 1149.469091 499.187036 
L 1161.766612 506.293195 
L 1172.219504 512.05966 
L 1176.523636 514.750831 
L 1179.598017 516.878716 
L 1182.672397 519.264716 
L 1185.746777 522.018336 
L 1188.206281 524.547167 
L 1190.665785 527.40924 
L 1193.125289 530.669818 
L 1195.584793 534.385197 
L 1198.044298 538.574187 
L 1200.503802 543.344067 
L 1202.34843 547.314511 
L 1204.807934 553.167329 
L 1207.267438 559.630317 
L 1209.726942 566.667057 
L 1212.801322 576.172438 
L 1216.490579 588.401786 
L 1221.409587 605.1348 
L 1221.409587 605.1348 
" style="fill:none;stroke:#ffff14;stroke-linecap:square;stroke-width:1.5;"/>
   </g>
   <g id="patch_8">
    <path d="M 757.178182 629.9064 
L 757.178182 84.9312 
" style="fill:none;stroke:#000000;stroke-linecap:square;stroke-linejoin:miter;stroke-width:0.8;"/>
   </g>
   <g id="patch_9">
    <path d="M 1244.16 629.9064 
L 1244.16 84.9312 
" style="fill:none;stroke:#000000;stroke-linecap:square;stroke-linejoin:miter;stroke-width:0.8;"/>
   </g>
   <g id="patch_10">
    <path d="M 757.178182 629.9064 
L 1244.16 629.9064 
" style="fill:none;stroke:#000000;stroke-linecap:square;stroke-linejoin:miter;stroke-width:0.8;"/>
   </g>
   <g id="patch_11">
    <path d="M 757.178182 84.9312 
L 1244.16 84.9312 
" style="fill:none;stroke:#000000;stroke-linecap:square;stroke-linejoin:miter;stroke-width:0.8;"/>
   </g>
   <g id="text_30">
    <!-- Left abduction -->
    <defs>
     <path d="M 9.8125 72.90625 
L 19.671875 72.90625 
L 19.671875 8.296875 
L 55.171875 8.296875 
L 55.171875 0 
L 9.8125 0 
z
" id="DejaVuSans-76"/>
     <path d="M 56.203125 29.59375 
L 56.203125 25.203125 
L 14.890625 25.203125 
Q 15.484375 15.921875 20.484375 11.0625 
Q 25.484375 6.203125 34.421875 6.203125 
Q 39.59375 6.203125 44.453125 7.46875 
Q 49.3125 8.734375 54.109375 11.28125 
L 54.109375 2.78125 
Q 49.265625 0.734375 44.1875 -0.34375 
Q 39.109375 -1.421875 33.890625 -1.421875 
Q 20.796875 -1.421875 13.15625 6.1875 
Q 5.515625 13.8125 5.515625 26.8125 
Q 5.515625 40.234375 12.765625 48.109375 
Q 20.015625 56 32.328125 56 
Q 43.359375 56 49.78125 48.890625 
Q 56.203125 41.796875 56.203125 29.59375 
z
M 47.21875 32.234375 
Q 47.125 39.59375 43.09375 43.984375 
Q 39.0625 48.390625 32.421875 48.390625 
Q 24.90625 48.390625 20.390625 44.140625 
Q 15.875 39.890625 15.1875 32.171875 
z
" id="DejaVuSans-101"/>
     <path d="M 37.109375 75.984375 
L 37.109375 68.5 
L 28.515625 68.5 
Q 23.6875 68.5 21.796875 66.546875 
Q 19.921875 64.59375 19.921875 59.515625 
L 19.921875 54.6875 
L 34.71875 54.6875 
L 34.71875 47.703125 
L 19.921875 47.703125 
L 19.921875 0 
L 10.890625 0 
L 10.890625 47.703125 
L 2.296875 47.703125 
L 2.296875 54.6875 
L 10.890625 54.6875 
L 10.890625 58.5 
Q 10.890625 67.625 15.140625 71.796875 
Q 19.390625 75.984375 28.609375 75.984375 
z
" id="DejaVuSans-102"/>
    </defs>
    <g transform="translate(957.375341 78.9312)scale(0.12 -0.12)">
     <use xlink:href="#DejaVuSans-76"/>
     <use x="55.697266" xlink:href="#DejaVuSans-101"/>
     <use x="117.220703" xlink:href="#DejaVuSans-102"/>
     <use x="152.410156" xlink:href="#DejaVuSans-116"/>
     <use x="191.619141" xlink:href="#DejaVuSans-32"/>
     <use x="223.40625" xlink:href="#DejaVuSans-97"/>
     <use x="284.685547" xlink:href="#DejaVuSans-98"/>
     <use x="348.162109" xlink:href="#DejaVuSans-100"/>
     <use x="411.638672" xlink:href="#DejaVuSans-117"/>
     <use x="475.017578" xlink:href="#DejaVuSans-99"/>
     <use x="529.998047" xlink:href="#DejaVuSans-116"/>
     <use x="569.207031" xlink:href="#DejaVuSans-105"/>
     <use x="596.990234" xlink:href="#DejaVuSans-111"/>
     <use x="658.171875" xlink:href="#DejaVuSans-110"/>
    </g>
   </g>
  </g>
 </g>
 <defs>
  <clipPath id="pa388c28a97">
   <rect height="544.9752" width="486.981818" x="172.8" y="84.9312"/>
  </clipPath>
  <clipPath id="pf1d939c3a0">
   <rect height="544.9752" width="486.981818" x="757.178182" y="84.9312"/>
  </clipPath>
 </defs>
</svg>
