<?xml version="1.0" encoding="utf-8" standalone="no"?>
<!DOCTYPE svg PUBLIC "-//W3C//DTD SVG 1.1//EN"
  "http://www.w3.org/Graphics/SVG/1.1/DTD/svg11.dtd">
<!-- Created with matplotlib (https://matplotlib.org/) -->
<svg height="345.6pt" version="1.1" viewBox="0 0 460.8 345.6" width="460.8pt" xmlns="http://www.w3.org/2000/svg" xmlns:xlink="http://www.w3.org/1999/xlink">
 <defs>
  <style type="text/css">
*{stroke-linecap:butt;stroke-linejoin:round;}
  </style>
 </defs>
 <g id="figure_1">
  <g id="patch_1">
   <path d="M 0 345.6 
L 460.8 345.6 
L 460.8 0 
L 0 0 
z
" style="fill:#ffffff;"/>
  </g>
  <g id="axes_1">
   <g id="patch_2">
    <path d="M 57.6 307.584 
L 219.927273 307.584 
L 219.927273 41.472 
L 57.6 41.472 
z
" style="fill:#ffffff;"/>
   </g>
   <g id="matplotlib.axis_1">
    <g id="xtick_1">
     <g id="line2d_1">
      <defs>
       <path d="M 0 0 
L 0 3.5 
" id="m5a1ee04c43" style="stroke:#000000;stroke-width:0.8;"/>
      </defs>
      <g>
       <use style="stroke:#000000;stroke-width:0.8;" x="64.978512" xlink:href="#m5a1ee04c43" y="307.584"/>
      </g>
     </g>
     <g id="text_1">
      <!-- 0 -->
      <defs>
       <path d="M 31.78125 66.40625 
Q 24.171875 66.40625 20.328125 58.90625 
Q 16.5 51.421875 16.5 36.375 
Q 16.5 21.390625 20.328125 13.890625 
Q 24.171875 6.390625 31.78125 6.390625 
Q 39.453125 6.390625 43.28125 13.890625 
Q 47.125 21.390625 47.125 36.375 
Q 47.125 51.421875 43.28125 58.90625 
Q 39.453125 66.40625 31.78125 66.40625 
z
M 31.78125 74.21875 
Q 44.046875 74.21875 50.515625 64.515625 
Q 56.984375 54.828125 56.984375 36.375 
Q 56.984375 17.96875 50.515625 8.265625 
Q 44.046875 -1.421875 31.78125 -1.421875 
Q 19.53125 -1.421875 13.0625 8.265625 
Q 6.59375 17.96875 6.59375 36.375 
Q 6.59375 54.828125 13.0625 64.515625 
Q 19.53125 74.21875 31.78125 74.21875 
z
" id="DejaVuSans-48"/>
      </defs>
      <g transform="translate(61.797262 322.182437)scale(0.1 -0.1)">
       <use xlink:href="#DejaVuSans-48"/>
      </g>
     </g>
    </g>
    <g id="xtick_2">
     <g id="line2d_2">
      <g>
       <use style="stroke:#000000;stroke-width:0.8;" x="105.970248" xlink:href="#m5a1ee04c43" y="307.584"/>
      </g>
     </g>
     <g id="text_2">
      <!-- 200 -->
      <defs>
       <path d="M 19.1875 8.296875 
L 53.609375 8.296875 
L 53.609375 0 
L 7.328125 0 
L 7.328125 8.296875 
Q 12.9375 14.109375 22.625 23.890625 
Q 32.328125 33.6875 34.8125 36.53125 
Q 39.546875 41.84375 41.421875 45.53125 
Q 43.3125 49.21875 43.3125 52.78125 
Q 43.3125 58.59375 39.234375 62.25 
Q 35.15625 65.921875 28.609375 65.921875 
Q 23.96875 65.921875 18.8125 64.3125 
Q 13.671875 62.703125 7.8125 59.421875 
L 7.8125 69.390625 
Q 13.765625 71.78125 18.9375 73 
Q 24.125 74.21875 28.421875 74.21875 
Q 39.75 74.21875 46.484375 68.546875 
Q 53.21875 62.890625 53.21875 53.421875 
Q 53.21875 48.921875 51.53125 44.890625 
Q 49.859375 40.875 45.40625 35.40625 
Q 44.1875 33.984375 37.640625 27.21875 
Q 31.109375 20.453125 19.1875 8.296875 
z
" id="DejaVuSans-50"/>
      </defs>
      <g transform="translate(96.426498 322.182437)scale(0.1 -0.1)">
       <use xlink:href="#DejaVuSans-50"/>
       <use x="63.623047" xlink:href="#DejaVuSans-48"/>
       <use x="127.246094" xlink:href="#DejaVuSans-48"/>
      </g>
     </g>
    </g>
    <g id="xtick_3">
     <g id="line2d_3">
      <g>
       <use style="stroke:#000000;stroke-width:0.8;" x="146.961983" xlink:href="#m5a1ee04c43" y="307.584"/>
      </g>
     </g>
     <g id="text_3">
      <!-- 400 -->
      <defs>
       <path d="M 37.796875 64.3125 
L 12.890625 25.390625 
L 37.796875 25.390625 
z
M 35.203125 72.90625 
L 47.609375 72.90625 
L 47.609375 25.390625 
L 58.015625 25.390625 
L 58.015625 17.1875 
L 47.609375 17.1875 
L 47.609375 0 
L 37.796875 0 
L 37.796875 17.1875 
L 4.890625 17.1875 
L 4.890625 26.703125 
z
" id="DejaVuSans-52"/>
      </defs>
      <g transform="translate(137.418233 322.182437)scale(0.1 -0.1)">
       <use xlink:href="#DejaVuSans-52"/>
       <use x="63.623047" xlink:href="#DejaVuSans-48"/>
       <use x="127.246094" xlink:href="#DejaVuSans-48"/>
      </g>
     </g>
    </g>
    <g id="xtick_4">
     <g id="line2d_4">
      <g>
       <use style="stroke:#000000;stroke-width:0.8;" x="187.953719" xlink:href="#m5a1ee04c43" y="307.584"/>
      </g>
     </g>
     <g id="text_4">
      <!-- 600 -->
      <defs>
       <path d="M 33.015625 40.375 
Q 26.375 40.375 22.484375 35.828125 
Q 18.609375 31.296875 18.609375 23.390625 
Q 18.609375 15.53125 22.484375 10.953125 
Q 26.375 6.390625 33.015625 6.390625 
Q 39.65625 6.390625 43.53125 10.953125 
Q 47.40625 15.53125 47.40625 23.390625 
Q 47.40625 31.296875 43.53125 35.828125 
Q 39.65625 40.375 33.015625 40.375 
z
M 52.59375 71.296875 
L 52.59375 62.3125 
Q 48.875 64.0625 45.09375 64.984375 
Q 41.3125 65.921875 37.59375 65.921875 
Q 27.828125 65.921875 22.671875 59.328125 
Q 17.53125 52.734375 16.796875 39.40625 
Q 19.671875 43.65625 24.015625 45.921875 
Q 28.375 48.1875 33.59375 48.1875 
Q 44.578125 48.1875 50.953125 41.515625 
Q 57.328125 34.859375 57.328125 23.390625 
Q 57.328125 12.15625 50.6875 5.359375 
Q 44.046875 -1.421875 33.015625 -1.421875 
Q 20.359375 -1.421875 13.671875 8.265625 
Q 6.984375 17.96875 6.984375 36.375 
Q 6.984375 53.65625 15.1875 63.9375 
Q 23.390625 74.21875 37.203125 74.21875 
Q 40.921875 74.21875 44.703125 73.484375 
Q 48.484375 72.75 52.59375 71.296875 
z
" id="DejaVuSans-54"/>
      </defs>
      <g transform="translate(178.409969 322.182437)scale(0.1 -0.1)">
       <use xlink:href="#DejaVuSans-54"/>
       <use x="63.623047" xlink:href="#DejaVuSans-48"/>
       <use x="127.246094" xlink:href="#DejaVuSans-48"/>
      </g>
     </g>
    </g>
   </g>
   <g id="matplotlib.axis_2">
    <g id="ytick_1">
     <g id="line2d_5">
      <defs>
       <path d="M 0 0 
L -3.5 0 
" id="m8fecd5d962" style="stroke:#000000;stroke-width:0.8;"/>
      </defs>
      <g>
       <use style="stroke:#000000;stroke-width:0.8;" x="57.6" xlink:href="#m8fecd5d962" y="277.268449"/>
      </g>
     </g>
     <g id="text_5">
      <!-- −2 -->
      <defs>
       <path d="M 10.59375 35.5 
L 73.1875 35.5 
L 73.1875 27.203125 
L 10.59375 27.203125 
z
" id="DejaVuSans-8722"/>
      </defs>
      <g transform="translate(35.857813 281.067667)scale(0.1 -0.1)">
       <use xlink:href="#DejaVuSans-8722"/>
       <use x="83.789062" xlink:href="#DejaVuSans-50"/>
      </g>
     </g>
    </g>
    <g id="ytick_2">
     <g id="line2d_6">
      <g>
       <use style="stroke:#000000;stroke-width:0.8;" x="57.6" xlink:href="#m8fecd5d962" y="233.439983"/>
      </g>
     </g>
     <g id="text_6">
      <!-- −1 -->
      <defs>
       <path d="M 12.40625 8.296875 
L 28.515625 8.296875 
L 28.515625 63.921875 
L 10.984375 60.40625 
L 10.984375 69.390625 
L 28.421875 72.90625 
L 38.28125 72.90625 
L 38.28125 8.296875 
L 54.390625 8.296875 
L 54.390625 0 
L 12.40625 0 
z
" id="DejaVuSans-49"/>
      </defs>
      <g transform="translate(35.857813 237.239202)scale(0.1 -0.1)">
       <use xlink:href="#DejaVuSans-8722"/>
       <use x="83.789062" xlink:href="#DejaVuSans-49"/>
      </g>
     </g>
    </g>
    <g id="ytick_3">
     <g id="line2d_7">
      <g>
       <use style="stroke:#000000;stroke-width:0.8;" x="57.6" xlink:href="#m8fecd5d962" y="189.611517"/>
      </g>
     </g>
     <g id="text_7">
      <!-- 0 -->
      <g transform="translate(44.2375 193.410736)scale(0.1 -0.1)">
       <use xlink:href="#DejaVuSans-48"/>
      </g>
     </g>
    </g>
    <g id="ytick_4">
     <g id="line2d_8">
      <g>
       <use style="stroke:#000000;stroke-width:0.8;" x="57.6" xlink:href="#m8fecd5d962" y="145.783051"/>
      </g>
     </g>
     <g id="text_8">
      <!-- 1 -->
      <g transform="translate(44.2375 149.58227)scale(0.1 -0.1)">
       <use xlink:href="#DejaVuSans-49"/>
      </g>
     </g>
    </g>
    <g id="ytick_5">
     <g id="line2d_9">
      <g>
       <use style="stroke:#000000;stroke-width:0.8;" x="57.6" xlink:href="#m8fecd5d962" y="101.954586"/>
      </g>
     </g>
     <g id="text_9">
      <!-- 2 -->
      <g transform="translate(44.2375 105.753804)scale(0.1 -0.1)">
       <use xlink:href="#DejaVuSans-50"/>
      </g>
     </g>
    </g>
    <g id="ytick_6">
     <g id="line2d_10">
      <g>
       <use style="stroke:#000000;stroke-width:0.8;" x="57.6" xlink:href="#m8fecd5d962" y="58.12612"/>
      </g>
     </g>
     <g id="text_10">
      <!-- 3 -->
      <defs>
       <path d="M 40.578125 39.3125 
Q 47.65625 37.796875 51.625 33 
Q 55.609375 28.21875 55.609375 21.1875 
Q 55.609375 10.40625 48.1875 4.484375 
Q 40.765625 -1.421875 27.09375 -1.421875 
Q 22.515625 -1.421875 17.65625 -0.515625 
Q 12.796875 0.390625 7.625 2.203125 
L 7.625 11.71875 
Q 11.71875 9.328125 16.59375 8.109375 
Q 21.484375 6.890625 26.8125 6.890625 
Q 36.078125 6.890625 40.9375 10.546875 
Q 45.796875 14.203125 45.796875 21.1875 
Q 45.796875 27.640625 41.28125 31.265625 
Q 36.765625 34.90625 28.71875 34.90625 
L 20.21875 34.90625 
L 20.21875 43.015625 
L 29.109375 43.015625 
Q 36.375 43.015625 40.234375 45.921875 
Q 44.09375 48.828125 44.09375 54.296875 
Q 44.09375 59.90625 40.109375 62.90625 
Q 36.140625 65.921875 28.71875 65.921875 
Q 24.65625 65.921875 20.015625 65.03125 
Q 15.375 64.15625 9.8125 62.3125 
L 9.8125 71.09375 
Q 15.4375 72.65625 20.34375 73.4375 
Q 25.25 74.21875 29.59375 74.21875 
Q 40.828125 74.21875 47.359375 69.109375 
Q 53.90625 64.015625 53.90625 55.328125 
Q 53.90625 49.265625 50.4375 45.09375 
Q 46.96875 40.921875 40.578125 39.3125 
z
" id="DejaVuSans-51"/>
      </defs>
      <g transform="translate(44.2375 61.925339)scale(0.1 -0.1)">
       <use xlink:href="#DejaVuSans-51"/>
      </g>
     </g>
    </g>
   </g>
   <g id="line2d_11">
    <path clip-path="url(#pe8af5245cd)" d="M 64.978512 189.608077 
L 77.480992 189.658599 
L 92.647934 189.750648 
L 126.876033 190.006006 
L 138.558678 190.024054 
L 141.428099 190.072912 
L 146.142149 190.108904 
L 169.097521 190.17337 
L 169.917355 190.135592 
L 170.942149 190.133155 
L 171.966942 190.106796 
L 175.041322 190.034407 
L 179.140496 189.925967 
L 179.960331 189.93317 
L 181.6 189.906492 
L 188.978512 190.135707 
L 189.798347 190.249681 
L 190.413223 190.282631 
L 197.17686 191.308384 
L 197.381818 191.488953 
L 197.586777 191.339967 
L 197.791736 191.614326 
L 197.996694 191.336278 
L 198.201653 191.784433 
L 198.406612 191.265219 
L 198.61157 192.042994 
L 198.816529 191.067137 
L 199.021488 192.474585 
L 199.226446 190.614926 
L 199.431405 193.259488 
L 199.636364 189.646168 
L 199.841322 194.77558 
L 200.046281 187.625722 
L 200.25124 197.855081 
L 200.456198 183.227946 
L 200.661157 205.383752 
L 200.866116 171.065765 
L 201.071074 228.845329 
L 201.276033 130.933578 
L 201.480992 295.488 
L 201.68595 53.568 
L 201.890909 256.548854 
L 202.095868 147.370053 
L 202.300826 222.013143 
L 202.505785 175.086226 
L 202.710744 207.375207 
L 202.915702 190.622815 
L 203.120661 190.71853 
L 203.32562 202.895338 
L 203.530579 178.154896 
L 203.735537 203.210145 
L 203.940496 183.752625 
L 204.145455 188.277374 
L 204.350413 198.451369 
L 204.555372 180.768213 
L 204.760331 195.210151 
L 204.965289 191.578721 
L 205.170248 181.810863 
L 205.375207 195.811211 
L 205.580165 183.467477 
L 205.785124 182.617658 
L 205.990083 191.770379 
L 206.195041 176.786077 
L 206.604959 187.595487 
L 206.809917 175.143932 
L 207.014876 190.529314 
L 207.219835 182.560785 
L 207.424793 168.503827 
L 207.629752 195.334733 
L 208.039669 166.920212 
L 208.244628 170.676458 
L 208.449587 178.878543 
L 209.064463 163.674475 
L 209.47438 174.660927 
L 209.679339 177.59687 
L 209.884298 177.718009 
L 210.089256 173.630672 
L 210.294215 172.858014 
L 210.704132 186.975058 
L 210.909091 186.238292 
L 211.11405 180.684209 
L 211.319008 182.102715 
L 211.523967 185.458178 
L 211.933884 173.295185 
L 212.138843 176.879487 
L 212.343802 185.643519 
L 212.343802 185.643519 
" style="fill:none;stroke:#ff796c;stroke-linecap:square;stroke-width:1.5;"/>
   </g>
   <g id="line2d_12">
    <path clip-path="url(#pe8af5245cd)" d="M 64.978512 189.611517 
L 65.593388 189.565849 
L 72.766942 189.492585 
L 88.343802 189.303755 
L 99.206612 189.405472 
L 114.578512 189.6096 
L 119.292562 189.227967 
L 129.745455 188.282238 
L 132.614876 188.332052 
L 136.099174 188.641417 
L 139.378512 189.208433 
L 142.86281 189.771336 
L 146.552066 190.383054 
L 158.029752 192.652429 
L 161.51405 193.087033 
L 165.203306 193.313425 
L 169.712397 193.385049 
L 180.575207 193.646786 
L 183.444628 193.960745 
L 185.904132 194.372514 
L 188.568595 195.036037 
L 191.028099 195.914906 
L 194.102479 197.250557 
L 196.561983 198.24051 
L 197.996694 198.614146 
L 199.636364 198.764962 
L 199.841322 198.57084 
L 200.046281 198.787123 
L 200.25124 198.40725 
L 200.456198 198.843691 
L 200.661157 198.082287 
L 200.866116 198.991733 
L 201.071074 197.155057 
L 201.276033 199.266721 
L 201.480992 194.040266 
L 201.68595 199.726252 
L 201.890909 183.783394 
L 202.095868 192.045928 
L 202.300826 189.095185 
L 202.505785 194.545972 
L 202.710744 193.96653 
L 202.915702 196.137281 
L 203.530579 192.693182 
L 203.735537 189.865916 
L 203.940496 188.872557 
L 204.350413 184.940663 
L 205.580165 178.248606 
L 206.809917 173.189831 
L 207.219835 172.267284 
L 207.629752 171.647194 
L 207.834711 171.194833 
L 208.244628 168.543713 
L 208.654545 165.792725 
L 208.859504 165.014858 
L 209.269421 165.082851 
L 209.884298 167.156478 
L 210.704132 172.876361 
L 211.11405 176.114887 
L 211.319008 177.248976 
L 212.54876 189.297323 
L 212.54876 189.297323 
" style="fill:none;stroke:#e50000;stroke-linecap:square;stroke-width:1.5;"/>
   </g>
   <g id="line2d_13">
    <path clip-path="url(#pe8af5245cd)" d="M 64.978512 166.662986 
L 69.692562 166.778451 
L 74.406612 167.123685 
L 79.120661 167.695212 
L 83.834711 168.487283 
L 88.753719 169.54028 
L 93.877686 170.870793 
L 99.206612 172.490596 
L 104.740496 174.40536 
L 110.684298 176.695971 
L 117.242975 179.461641 
L 125.031405 182.997836 
L 135.484298 188.010709 
L 154.340496 197.082828 
L 162.128926 200.56161 
L 168.892562 203.342188 
L 174.836364 205.552906 
L 180.370248 207.382691 
L 185.699174 208.912127 
L 190.82314 210.148946 
L 195.742149 211.106768 
L 200.456198 211.803801 
L 205.170248 212.277514 
L 209.884298 212.523139 
L 212.343802 212.55983 
L 212.343802 212.55983 
" style="fill:none;stroke:#014d4e;stroke-linecap:square;stroke-width:1.5;"/>
   </g>
   <g id="line2d_14">
    <path clip-path="url(#pe8af5245cd)" d="M 64.978512 166.709109 
L 69.282645 166.818635 
L 73.586777 167.18551 
L 78.505785 167.828404 
L 83.629752 168.737391 
L 89.163636 169.945837 
L 94.902479 171.436134 
L 101.05124 173.26514 
L 107.814876 175.514042 
L 111.504132 176.930541 
L 114.98843 178.524746 
L 119.087603 180.661059 
L 125.236364 184.149171 
L 129.335537 186.36149 
L 132.614876 187.88385 
L 136.509091 189.394503 
L 146.552066 192.58507 
L 160.899174 196.59452 
L 165.203306 198.147177 
L 176.066116 202.127411 
L 179.755372 203.197746 
L 182.419835 203.761924 
L 185.289256 204.121845 
L 187.74876 204.187447 
L 189.593388 204.039689 
L 192.052893 203.591517 
L 197.17686 202.477612 
L 198.201653 202.432097 
L 199.226446 202.602301 
L 199.431405 202.517616 
L 199.636364 202.739128 
L 199.841322 202.549815 
L 200.046281 202.956236 
L 200.25124 202.545922 
L 200.456198 203.333031 
L 200.661157 202.448867 
L 200.866116 204.310403 
L 201.071074 202.223175 
L 201.276033 207.473642 
L 201.480992 201.811244 
L 201.68595 217.777264 
L 201.890909 209.537468 
L 202.095868 212.510522 
L 202.300826 207.081622 
L 202.505785 207.682523 
L 202.710744 205.532804 
L 203.32562 209.037434 
L 203.530579 211.88402 
L 203.735537 212.896271 
L 204.145455 216.86466 
L 205.375207 223.655873 
L 206.604959 228.79826 
L 207.014876 229.745213 
L 207.424793 230.387973 
L 207.629752 230.851018 
L 208.039669 233.522202 
L 208.449587 236.291514 
L 208.654545 237.07789 
L 209.064463 237.025611 
L 209.679339 234.972284 
L 210.499174 229.273362 
L 210.909091 226.042699 
L 211.11405 224.911886 
L 212.343802 212.874024 
L 212.343802 212.874024 
" style="fill:none;stroke:#ffff14;stroke-linecap:square;stroke-width:1.5;"/>
   </g>
   <g id="patch_3">
    <path d="M 57.6 307.584 
L 57.6 41.472 
" style="fill:none;stroke:#000000;stroke-linecap:square;stroke-linejoin:miter;stroke-width:0.8;"/>
   </g>
   <g id="patch_4">
    <path d="M 219.927273 307.584 
L 219.927273 41.472 
" style="fill:none;stroke:#000000;stroke-linecap:square;stroke-linejoin:miter;stroke-width:0.8;"/>
   </g>
   <g id="patch_5">
    <path d="M 57.6 307.584 
L 219.927273 307.584 
" style="fill:none;stroke:#000000;stroke-linecap:square;stroke-linejoin:miter;stroke-width:0.8;"/>
   </g>
   <g id="patch_6">
    <path d="M 57.6 41.472 
L 219.927273 41.472 
" style="fill:none;stroke:#000000;stroke-linecap:square;stroke-linejoin:miter;stroke-width:0.8;"/>
   </g>
   <g id="text_11">
    <!-- Right abduction -->
    <defs>
     <path d="M 44.390625 34.1875 
Q 47.5625 33.109375 50.5625 29.59375 
Q 53.5625 26.078125 56.59375 19.921875 
L 66.609375 0 
L 56 0 
L 46.6875 18.703125 
Q 43.0625 26.03125 39.671875 28.421875 
Q 36.28125 30.8125 30.421875 30.8125 
L 19.671875 30.8125 
L 19.671875 0 
L 9.8125 0 
L 9.8125 72.90625 
L 32.078125 72.90625 
Q 44.578125 72.90625 50.734375 67.671875 
Q 56.890625 62.453125 56.890625 51.90625 
Q 56.890625 45.015625 53.6875 40.46875 
Q 50.484375 35.9375 44.390625 34.1875 
z
M 19.671875 64.796875 
L 19.671875 38.921875 
L 32.078125 38.921875 
Q 39.203125 38.921875 42.84375 42.21875 
Q 46.484375 45.515625 46.484375 51.90625 
Q 46.484375 58.296875 42.84375 61.546875 
Q 39.203125 64.796875 32.078125 64.796875 
z
" id="DejaVuSans-82"/>
     <path d="M 9.421875 54.6875 
L 18.40625 54.6875 
L 18.40625 0 
L 9.421875 0 
z
M 9.421875 75.984375 
L 18.40625 75.984375 
L 18.40625 64.59375 
L 9.421875 64.59375 
z
" id="DejaVuSans-105"/>
     <path d="M 45.40625 27.984375 
Q 45.40625 37.75 41.375 43.109375 
Q 37.359375 48.484375 30.078125 48.484375 
Q 22.859375 48.484375 18.828125 43.109375 
Q 14.796875 37.75 14.796875 27.984375 
Q 14.796875 18.265625 18.828125 12.890625 
Q 22.859375 7.515625 30.078125 7.515625 
Q 37.359375 7.515625 41.375 12.890625 
Q 45.40625 18.265625 45.40625 27.984375 
z
M 54.390625 6.78125 
Q 54.390625 -7.171875 48.1875 -13.984375 
Q 42 -20.796875 29.203125 -20.796875 
Q 24.46875 -20.796875 20.265625 -20.09375 
Q 16.0625 -19.390625 12.109375 -17.921875 
L 12.109375 -9.1875 
Q 16.0625 -11.328125 19.921875 -12.34375 
Q 23.78125 -13.375 27.78125 -13.375 
Q 36.625 -13.375 41.015625 -8.765625 
Q 45.40625 -4.15625 45.40625 5.171875 
L 45.40625 9.625 
Q 42.625 4.78125 38.28125 2.390625 
Q 33.9375 0 27.875 0 
Q 17.828125 0 11.671875 7.65625 
Q 5.515625 15.328125 5.515625 27.984375 
Q 5.515625 40.671875 11.671875 48.328125 
Q 17.828125 56 27.875 56 
Q 33.9375 56 38.28125 53.609375 
Q 42.625 51.21875 45.40625 46.390625 
L 45.40625 54.6875 
L 54.390625 54.6875 
z
" id="DejaVuSans-103"/>
     <path d="M 54.890625 33.015625 
L 54.890625 0 
L 45.90625 0 
L 45.90625 32.71875 
Q 45.90625 40.484375 42.875 44.328125 
Q 39.84375 48.1875 33.796875 48.1875 
Q 26.515625 48.1875 22.3125 43.546875 
Q 18.109375 38.921875 18.109375 30.90625 
L 18.109375 0 
L 9.078125 0 
L 9.078125 75.984375 
L 18.109375 75.984375 
L 18.109375 46.1875 
Q 21.34375 51.125 25.703125 53.5625 
Q 30.078125 56 35.796875 56 
Q 45.21875 56 50.046875 50.171875 
Q 54.890625 44.34375 54.890625 33.015625 
z
" id="DejaVuSans-104"/>
     <path d="M 18.3125 70.21875 
L 18.3125 54.6875 
L 36.8125 54.6875 
L 36.8125 47.703125 
L 18.3125 47.703125 
L 18.3125 18.015625 
Q 18.3125 11.328125 20.140625 9.421875 
Q 21.96875 7.515625 27.59375 7.515625 
L 36.8125 7.515625 
L 36.8125 0 
L 27.59375 0 
Q 17.1875 0 13.234375 3.875 
Q 9.28125 7.765625 9.28125 18.015625 
L 9.28125 47.703125 
L 2.6875 47.703125 
L 2.6875 54.6875 
L 9.28125 54.6875 
L 9.28125 70.21875 
z
" id="DejaVuSans-116"/>
     <path id="DejaVuSans-32"/>
     <path d="M 34.28125 27.484375 
Q 23.390625 27.484375 19.1875 25 
Q 14.984375 22.515625 14.984375 16.5 
Q 14.984375 11.71875 18.140625 8.90625 
Q 21.296875 6.109375 26.703125 6.109375 
Q 34.1875 6.109375 38.703125 11.40625 
Q 43.21875 16.703125 43.21875 25.484375 
L 43.21875 27.484375 
z
M 52.203125 31.203125 
L 52.203125 0 
L 43.21875 0 
L 43.21875 8.296875 
Q 40.140625 3.328125 35.546875 0.953125 
Q 30.953125 -1.421875 24.3125 -1.421875 
Q 15.921875 -1.421875 10.953125 3.296875 
Q 6 8.015625 6 15.921875 
Q 6 25.140625 12.171875 29.828125 
Q 18.359375 34.515625 30.609375 34.515625 
L 43.21875 34.515625 
L 43.21875 35.40625 
Q 43.21875 41.609375 39.140625 45 
Q 35.0625 48.390625 27.6875 48.390625 
Q 23 48.390625 18.546875 47.265625 
Q 14.109375 46.140625 10.015625 43.890625 
L 10.015625 52.203125 
Q 14.9375 54.109375 19.578125 55.046875 
Q 24.21875 56 28.609375 56 
Q 40.484375 56 46.34375 49.84375 
Q 52.203125 43.703125 52.203125 31.203125 
z
" id="DejaVuSans-97"/>
     <path d="M 48.6875 27.296875 
Q 48.6875 37.203125 44.609375 42.84375 
Q 40.53125 48.484375 33.40625 48.484375 
Q 26.265625 48.484375 22.1875 42.84375 
Q 18.109375 37.203125 18.109375 27.296875 
Q 18.109375 17.390625 22.1875 11.75 
Q 26.265625 6.109375 33.40625 6.109375 
Q 40.53125 6.109375 44.609375 11.75 
Q 48.6875 17.390625 48.6875 27.296875 
z
M 18.109375 46.390625 
Q 20.953125 51.265625 25.265625 53.625 
Q 29.59375 56 35.59375 56 
Q 45.5625 56 51.78125 48.09375 
Q 58.015625 40.1875 58.015625 27.296875 
Q 58.015625 14.40625 51.78125 6.484375 
Q 45.5625 -1.421875 35.59375 -1.421875 
Q 29.59375 -1.421875 25.265625 0.953125 
Q 20.953125 3.328125 18.109375 8.203125 
L 18.109375 0 
L 9.078125 0 
L 9.078125 75.984375 
L 18.109375 75.984375 
z
" id="DejaVuSans-98"/>
     <path d="M 45.40625 46.390625 
L 45.40625 75.984375 
L 54.390625 75.984375 
L 54.390625 0 
L 45.40625 0 
L 45.40625 8.203125 
Q 42.578125 3.328125 38.25 0.953125 
Q 33.9375 -1.421875 27.875 -1.421875 
Q 17.96875 -1.421875 11.734375 6.484375 
Q 5.515625 14.40625 5.515625 27.296875 
Q 5.515625 40.1875 11.734375 48.09375 
Q 17.96875 56 27.875 56 
Q 33.9375 56 38.25 53.625 
Q 42.578125 51.265625 45.40625 46.390625 
z
M 14.796875 27.296875 
Q 14.796875 17.390625 18.875 11.75 
Q 22.953125 6.109375 30.078125 6.109375 
Q 37.203125 6.109375 41.296875 11.75 
Q 45.40625 17.390625 45.40625 27.296875 
Q 45.40625 37.203125 41.296875 42.84375 
Q 37.203125 48.484375 30.078125 48.484375 
Q 22.953125 48.484375 18.875 42.84375 
Q 14.796875 37.203125 14.796875 27.296875 
z
" id="DejaVuSans-100"/>
     <path d="M 8.5 21.578125 
L 8.5 54.6875 
L 17.484375 54.6875 
L 17.484375 21.921875 
Q 17.484375 14.15625 20.5 10.265625 
Q 23.53125 6.390625 29.59375 6.390625 
Q 36.859375 6.390625 41.078125 11.03125 
Q 45.3125 15.671875 45.3125 23.6875 
L 45.3125 54.6875 
L 54.296875 54.6875 
L 54.296875 0 
L 45.3125 0 
L 45.3125 8.40625 
Q 42.046875 3.421875 37.71875 1 
Q 33.40625 -1.421875 27.6875 -1.421875 
Q 18.265625 -1.421875 13.375 4.4375 
Q 8.5 10.296875 8.5 21.578125 
z
M 31.109375 56 
z
" id="DejaVuSans-117"/>
     <path d="M 48.78125 52.59375 
L 48.78125 44.1875 
Q 44.96875 46.296875 41.140625 47.34375 
Q 37.3125 48.390625 33.40625 48.390625 
Q 24.65625 48.390625 19.8125 42.84375 
Q 14.984375 37.3125 14.984375 27.296875 
Q 14.984375 17.28125 19.8125 11.734375 
Q 24.65625 6.203125 33.40625 6.203125 
Q 37.3125 6.203125 41.140625 7.25 
Q 44.96875 8.296875 48.78125 10.40625 
L 48.78125 2.09375 
Q 45.015625 0.34375 40.984375 -0.53125 
Q 36.96875 -1.421875 32.421875 -1.421875 
Q 20.0625 -1.421875 12.78125 6.34375 
Q 5.515625 14.109375 5.515625 27.296875 
Q 5.515625 40.671875 12.859375 48.328125 
Q 20.21875 56 33.015625 56 
Q 37.15625 56 41.109375 55.140625 
Q 45.0625 54.296875 48.78125 52.59375 
z
" id="DejaVuSans-99"/>
     <path d="M 30.609375 48.390625 
Q 23.390625 48.390625 19.1875 42.75 
Q 14.984375 37.109375 14.984375 27.296875 
Q 14.984375 17.484375 19.15625 11.84375 
Q 23.34375 6.203125 30.609375 6.203125 
Q 37.796875 6.203125 41.984375 11.859375 
Q 46.1875 17.53125 46.1875 27.296875 
Q 46.1875 37.015625 41.984375 42.703125 
Q 37.796875 48.390625 30.609375 48.390625 
z
M 30.609375 56 
Q 42.328125 56 49.015625 48.375 
Q 55.71875 40.765625 55.71875 27.296875 
Q 55.71875 13.875 49.015625 6.21875 
Q 42.328125 -1.421875 30.609375 -1.421875 
Q 18.84375 -1.421875 12.171875 6.21875 
Q 5.515625 13.875 5.515625 27.296875 
Q 5.515625 40.765625 12.171875 48.375 
Q 18.84375 56 30.609375 56 
z
" id="DejaVuSans-111"/>
     <path d="M 54.890625 33.015625 
L 54.890625 0 
L 45.90625 0 
L 45.90625 32.71875 
Q 45.90625 40.484375 42.875 44.328125 
Q 39.84375 48.1875 33.796875 48.1875 
Q 26.515625 48.1875 22.3125 43.546875 
Q 18.109375 38.921875 18.109375 30.90625 
L 18.109375 0 
L 9.078125 0 
L 9.078125 54.6875 
L 18.109375 54.6875 
L 18.109375 46.1875 
Q 21.34375 51.125 25.703125 53.5625 
Q 30.078125 56 35.796875 56 
Q 45.21875 56 50.046875 50.171875 
Q 54.890625 44.34375 54.890625 33.015625 
z
" id="DejaVuSans-110"/>
    </defs>
    <g transform="translate(91.167699 35.472)scale(0.12 -0.12)">
     <use xlink:href="#DejaVuSans-82"/>
     <use x="69.482422" xlink:href="#DejaVuSans-105"/>
     <use x="97.265625" xlink:href="#DejaVuSans-103"/>
     <use x="160.742188" xlink:href="#DejaVuSans-104"/>
     <use x="224.121094" xlink:href="#DejaVuSans-116"/>
     <use x="263.330078" xlink:href="#DejaVuSans-32"/>
     <use x="295.117188" xlink:href="#DejaVuSans-97"/>
     <use x="356.396484" xlink:href="#DejaVuSans-98"/>
     <use x="419.873047" xlink:href="#DejaVuSans-100"/>
     <use x="483.349609" xlink:href="#DejaVuSans-117"/>
     <use x="546.728516" xlink:href="#DejaVuSans-99"/>
     <use x="601.708984" xlink:href="#DejaVuSans-116"/>
     <use x="640.917969" xlink:href="#DejaVuSans-105"/>
     <use x="668.701172" xlink:href="#DejaVuSans-111"/>
     <use x="729.882812" xlink:href="#DejaVuSans-110"/>
    </g>
   </g>
  </g>
  <g id="axes_2">
   <g id="patch_7">
    <path d="M 252.392727 307.584 
L 414.72 307.584 
L 414.72 41.472 
L 252.392727 41.472 
z
" style="fill:#ffffff;"/>
   </g>
   <g id="matplotlib.axis_3">
    <g id="xtick_5">
     <g id="line2d_15">
      <g>
       <use style="stroke:#000000;stroke-width:0.8;" x="259.77124" xlink:href="#m5a1ee04c43" y="307.584"/>
      </g>
     </g>
     <g id="text_12">
      <!-- 0 -->
      <g transform="translate(256.58999 322.182437)scale(0.1 -0.1)">
       <use xlink:href="#DejaVuSans-48"/>
      </g>
     </g>
    </g>
    <g id="xtick_6">
     <g id="line2d_16">
      <g>
       <use style="stroke:#000000;stroke-width:0.8;" x="300.762975" xlink:href="#m5a1ee04c43" y="307.584"/>
      </g>
     </g>
     <g id="text_13">
      <!-- 200 -->
      <g transform="translate(291.219225 322.182437)scale(0.1 -0.1)">
       <use xlink:href="#DejaVuSans-50"/>
       <use x="63.623047" xlink:href="#DejaVuSans-48"/>
       <use x="127.246094" xlink:href="#DejaVuSans-48"/>
      </g>
     </g>
    </g>
    <g id="xtick_7">
     <g id="line2d_17">
      <g>
       <use style="stroke:#000000;stroke-width:0.8;" x="341.754711" xlink:href="#m5a1ee04c43" y="307.584"/>
      </g>
     </g>
     <g id="text_14">
      <!-- 400 -->
      <g transform="translate(332.210961 322.182437)scale(0.1 -0.1)">
       <use xlink:href="#DejaVuSans-52"/>
       <use x="63.623047" xlink:href="#DejaVuSans-48"/>
       <use x="127.246094" xlink:href="#DejaVuSans-48"/>
      </g>
     </g>
    </g>
    <g id="xtick_8">
     <g id="line2d_18">
      <g>
       <use style="stroke:#000000;stroke-width:0.8;" x="382.746446" xlink:href="#m5a1ee04c43" y="307.584"/>
      </g>
     </g>
     <g id="text_15">
      <!-- 600 -->
      <g transform="translate(373.202696 322.182437)scale(0.1 -0.1)">
       <use xlink:href="#DejaVuSans-54"/>
       <use x="63.623047" xlink:href="#DejaVuSans-48"/>
       <use x="127.246094" xlink:href="#DejaVuSans-48"/>
      </g>
     </g>
    </g>
   </g>
   <g id="matplotlib.axis_4">
    <g id="ytick_7">
     <g id="line2d_19">
      <g>
       <use style="stroke:#000000;stroke-width:0.8;" x="252.392727" xlink:href="#m8fecd5d962" y="288.663702"/>
      </g>
     </g>
     <g id="text_16">
      <!-- −2.0 -->
      <defs>
       <path d="M 10.6875 12.40625 
L 21 12.40625 
L 21 0 
L 10.6875 0 
z
" id="DejaVuSans-46"/>
      </defs>
      <g transform="translate(221.109915 292.462921)scale(0.1 -0.1)">
       <use xlink:href="#DejaVuSans-8722"/>
       <use x="83.789062" xlink:href="#DejaVuSans-50"/>
       <use x="147.412109" xlink:href="#DejaVuSans-46"/>
       <use x="179.199219" xlink:href="#DejaVuSans-48"/>
      </g>
     </g>
    </g>
    <g id="ytick_8">
     <g id="line2d_20">
      <g>
       <use style="stroke:#000000;stroke-width:0.8;" x="252.392727" xlink:href="#m8fecd5d962" y="255.844176"/>
      </g>
     </g>
     <g id="text_17">
      <!-- −1.5 -->
      <defs>
       <path d="M 10.796875 72.90625 
L 49.515625 72.90625 
L 49.515625 64.59375 
L 19.828125 64.59375 
L 19.828125 46.734375 
Q 21.96875 47.46875 24.109375 47.828125 
Q 26.265625 48.1875 28.421875 48.1875 
Q 40.625 48.1875 47.75 41.5 
Q 54.890625 34.8125 54.890625 23.390625 
Q 54.890625 11.625 47.5625 5.09375 
Q 40.234375 -1.421875 26.90625 -1.421875 
Q 22.3125 -1.421875 17.546875 -0.640625 
Q 12.796875 0.140625 7.71875 1.703125 
L 7.71875 11.625 
Q 12.109375 9.234375 16.796875 8.0625 
Q 21.484375 6.890625 26.703125 6.890625 
Q 35.15625 6.890625 40.078125 11.328125 
Q 45.015625 15.765625 45.015625 23.390625 
Q 45.015625 31 40.078125 35.4375 
Q 35.15625 39.890625 26.703125 39.890625 
Q 22.75 39.890625 18.8125 39.015625 
Q 14.890625 38.140625 10.796875 36.28125 
z
" id="DejaVuSans-53"/>
      </defs>
      <g transform="translate(221.109915 259.643394)scale(0.1 -0.1)">
       <use xlink:href="#DejaVuSans-8722"/>
       <use x="83.789062" xlink:href="#DejaVuSans-49"/>
       <use x="147.412109" xlink:href="#DejaVuSans-46"/>
       <use x="179.199219" xlink:href="#DejaVuSans-53"/>
      </g>
     </g>
    </g>
    <g id="ytick_9">
     <g id="line2d_21">
      <g>
       <use style="stroke:#000000;stroke-width:0.8;" x="252.392727" xlink:href="#m8fecd5d962" y="223.024649"/>
      </g>
     </g>
     <g id="text_18">
      <!-- −1.0 -->
      <g transform="translate(221.109915 226.823868)scale(0.1 -0.1)">
       <use xlink:href="#DejaVuSans-8722"/>
       <use x="83.789062" xlink:href="#DejaVuSans-49"/>
       <use x="147.412109" xlink:href="#DejaVuSans-46"/>
       <use x="179.199219" xlink:href="#DejaVuSans-48"/>
      </g>
     </g>
    </g>
    <g id="ytick_10">
     <g id="line2d_22">
      <g>
       <use style="stroke:#000000;stroke-width:0.8;" x="252.392727" xlink:href="#m8fecd5d962" y="190.205123"/>
      </g>
     </g>
     <g id="text_19">
      <!-- −0.5 -->
      <g transform="translate(221.109915 194.004341)scale(0.1 -0.1)">
       <use xlink:href="#DejaVuSans-8722"/>
       <use x="83.789062" xlink:href="#DejaVuSans-48"/>
       <use x="147.412109" xlink:href="#DejaVuSans-46"/>
       <use x="179.199219" xlink:href="#DejaVuSans-53"/>
      </g>
     </g>
    </g>
    <g id="ytick_11">
     <g id="line2d_23">
      <g>
       <use style="stroke:#000000;stroke-width:0.8;" x="252.392727" xlink:href="#m8fecd5d962" y="157.385596"/>
      </g>
     </g>
     <g id="text_20">
      <!-- 0.0 -->
      <g transform="translate(229.489602 161.184815)scale(0.1 -0.1)">
       <use xlink:href="#DejaVuSans-48"/>
       <use x="63.623047" xlink:href="#DejaVuSans-46"/>
       <use x="95.410156" xlink:href="#DejaVuSans-48"/>
      </g>
     </g>
    </g>
    <g id="ytick_12">
     <g id="line2d_24">
      <g>
       <use style="stroke:#000000;stroke-width:0.8;" x="252.392727" xlink:href="#m8fecd5d962" y="124.56607"/>
      </g>
     </g>
     <g id="text_21">
      <!-- 0.5 -->
      <g transform="translate(229.489602 128.365288)scale(0.1 -0.1)">
       <use xlink:href="#DejaVuSans-48"/>
       <use x="63.623047" xlink:href="#DejaVuSans-46"/>
       <use x="95.410156" xlink:href="#DejaVuSans-53"/>
      </g>
     </g>
    </g>
    <g id="ytick_13">
     <g id="line2d_25">
      <g>
       <use style="stroke:#000000;stroke-width:0.8;" x="252.392727" xlink:href="#m8fecd5d962" y="91.746543"/>
      </g>
     </g>
     <g id="text_22">
      <!-- 1.0 -->
      <g transform="translate(229.489602 95.545762)scale(0.1 -0.1)">
       <use xlink:href="#DejaVuSans-49"/>
       <use x="63.623047" xlink:href="#DejaVuSans-46"/>
       <use x="95.410156" xlink:href="#DejaVuSans-48"/>
      </g>
     </g>
    </g>
    <g id="ytick_14">
     <g id="line2d_26">
      <g>
       <use style="stroke:#000000;stroke-width:0.8;" x="252.392727" xlink:href="#m8fecd5d962" y="58.927016"/>
      </g>
     </g>
     <g id="text_23">
      <!-- 1.5 -->
      <g transform="translate(229.489602 62.726235)scale(0.1 -0.1)">
       <use xlink:href="#DejaVuSans-49"/>
       <use x="63.623047" xlink:href="#DejaVuSans-46"/>
       <use x="95.410156" xlink:href="#DejaVuSans-53"/>
      </g>
     </g>
    </g>
   </g>
   <g id="line2d_27">
    <path clip-path="url(#pcf122b6ead)" d="M 259.77124 157.383466 
L 286.00595 157.416049 
L 363.275372 157.410414 
L 364.915041 157.417287 
L 377.622479 157.454868 
L 380.69686 157.467526 
L 383.566281 157.49615 
L 385.20595 157.500242 
L 389.305124 157.525553 
L 390.739835 157.495127 
L 391.354711 157.51692 
L 391.969587 157.457092 
L 392.174545 157.526758 
L 392.379504 157.428126 
L 392.584463 157.545908 
L 392.789421 157.381057 
L 392.99438 157.588844 
L 393.199339 157.300323 
L 393.404298 157.678812 
L 393.609256 157.154911 
L 393.814215 157.860104 
L 394.019174 156.878583 
L 394.224132 158.2267 
L 394.429091 156.333839 
L 394.63405 158.976846 
L 394.839008 155.238896 
L 395.043967 160.550129 
L 395.248926 152.894959 
L 395.453884 164.503119 
L 395.658843 146.417552 
L 395.863802 177.103893 
L 396.06876 124.849105 
L 396.273719 213.460277 
L 396.478678 82.845496 
L 396.683636 194.111346 
L 396.888595 134.350583 
L 397.093554 175.968829 
L 397.298512 149.802165 
L 397.503471 167.77415 
L 397.70843 157.659486 
L 397.913388 157.000631 
L 398.118347 163.878313 
L 398.323306 149.598347 
L 398.528264 164.383349 
L 398.733223 153.166654 
L 398.938182 156.054993 
L 399.14314 162.257095 
L 399.348099 152.196062 
L 399.553058 160.692904 
L 399.758017 158.676679 
L 399.962975 153.125578 
L 400.167934 160.969826 
L 400.372893 153.959033 
L 400.577851 153.457007 
L 400.78281 158.550208 
L 400.987769 150.423667 
L 401.397686 157.048898 
L 401.602645 150.801185 
L 401.807603 159.794457 
L 402.012562 156.059203 
L 402.217521 148.986103 
L 402.422479 163.513905 
L 402.832397 147.630718 
L 403.037355 149.570985 
L 403.242314 154.085565 
L 403.652231 148.669281 
L 403.85719 148.596833 
L 404.062149 153.844171 
L 404.472066 157.891751 
L 404.677025 158.229115 
L 404.881983 156.052154 
L 405.086942 155.940195 
L 405.49686 164.747694 
L 405.701818 164.224356 
L 405.906777 160.68483 
L 406.111736 161.182151 
L 406.316694 162.809188 
L 406.726612 155.229135 
L 406.93157 157.29567 
L 407.136529 162.36661 
L 407.136529 162.36661 
" style="fill:none;stroke:#ff796c;stroke-linecap:square;stroke-width:1.5;"/>
   </g>
   <g id="line2d_28">
    <path clip-path="url(#pcf122b6ead)" d="M 259.77124 157.385596 
L 260.386116 157.332998 
L 262.230744 157.249365 
L 265.305124 157.102895 
L 270.019174 156.922122 
L 276.372893 156.282554 
L 280.881983 155.668599 
L 288.260496 154.384832 
L 294.614215 153.060311 
L 306.911736 150.477063 
L 308.551405 150.459066 
L 310.80595 150.70038 
L 314.700165 151.396432 
L 318.59438 152.234999 
L 321.873719 152.937755 
L 323.718347 153.104166 
L 325.562975 153.067096 
L 326.997686 152.834764 
L 331.506777 151.626525 
L 332.53157 151.210044 
L 333.966281 150.316473 
L 336.015868 148.964983 
L 337.040661 148.553696 
L 338.270413 148.325059 
L 340.729917 148.007974 
L 341.959669 147.559024 
L 344.009256 146.484491 
L 345.648926 145.755612 
L 347.288595 145.294311 
L 350.977851 144.437591 
L 352.617521 144.045131 
L 354.872066 143.889883 
L 356.921653 143.910101 
L 358.561322 144.148187 
L 361.430744 144.874598 
L 363.685289 145.569028 
L 365.529917 146.218053 
L 368.604298 146.941098 
L 374.34314 148.222565 
L 376.392727 148.194695 
L 378.032397 147.895679 
L 379.467107 147.356218 
L 381.516694 146.226785 
L 383.156364 144.980388 
L 384.591074 143.446084 
L 385.820826 141.76593 
L 387.460496 139.087706 
L 389.510083 135.352538 
L 391.559669 131.715133 
L 392.584463 130.215632 
L 393.814215 128.960001 
L 394.019174 129.035537 
L 394.224132 128.667999 
L 394.429091 128.969196 
L 394.63405 128.402205 
L 394.839008 129.110633 
L 395.043967 128.094685 
L 395.248926 129.582765 
L 395.453884 127.570202 
L 395.658843 130.750925 
L 395.863802 125.887646 
L 396.06876 133.882965 
L 396.273719 120.312088 
L 396.478678 144.210032 
L 396.683636 121.94966 
L 396.888595 146.923358 
L 397.093554 125.143435 
L 397.298512 127.677591 
L 397.503471 113.512616 
L 397.70843 107.702161 
L 398.118347 83.095818 
L 398.528264 83.155042 
L 398.733223 89.151624 
L 398.938182 89.208909 
L 399.348099 96.692668 
L 399.553058 96.780379 
L 399.758017 100.829581 
L 399.962975 101.807778 
L 400.167934 101.873414 
L 400.372893 105.506064 
L 400.577851 105.800067 
L 400.78281 109.241322 
L 401.397686 131.505167 
L 402.217521 174.242485 
L 402.422479 180.696605 
L 402.627438 192.028587 
L 403.037355 195.98719 
L 403.447273 218.184226 
L 403.85719 249.775934 
L 404.267107 295.488 
L 404.881983 295.112587 
L 405.086942 292.698285 
L 405.291901 292.743539 
L 405.49686 294.697069 
L 405.701818 293.511824 
L 405.906777 284.622273 
L 407.136529 206.212829 
L 407.341488 199.427585 
L 407.341488 199.427585 
" style="fill:none;stroke:#e50000;stroke-linecap:square;stroke-width:1.5;"/>
   </g>
   <g id="line2d_29">
    <path clip-path="url(#pcf122b6ead)" d="M 259.77124 123.017068 
L 263.460496 123.123015 
L 267.354711 123.463984 
L 271.248926 124.03796 
L 275.14314 124.841002 
L 279.037355 125.867591 
L 283.136529 127.181946 
L 287.235702 128.726168 
L 291.539835 130.582115 
L 296.048926 132.767353 
L 300.967934 135.409019 
L 306.091901 138.416334 
L 311.830744 142.050434 
L 318.389421 146.480302 
L 326.587769 152.305604 
L 351.387769 170.12111 
L 357.741488 174.309469 
L 363.480331 177.82878 
L 368.604298 180.714978 
L 373.318347 183.126102 
L 377.827438 185.190319 
L 382.13157 186.922129 
L 386.230744 188.341269 
L 390.329917 189.524817 
L 394.224132 190.422745 
L 398.118347 191.093742 
L 402.012562 191.533198 
L 405.906777 191.738094 
L 407.136529 191.753797 
L 407.136529 191.753797 
" style="fill:none;stroke:#014d4e;stroke-linecap:square;stroke-width:1.5;"/>
   </g>
   <g id="line2d_30">
    <path clip-path="url(#pcf122b6ead)" d="M 259.77124 123.071751 
L 261.820826 123.168545 
L 269.404298 124.167737 
L 272.273719 124.925277 
L 276.167934 126.192786 
L 279.242314 127.424825 
L 282.521653 128.990331 
L 286.415868 131.095424 
L 289.900165 133.213395 
L 293.999339 135.98068 
L 298.303471 139.149972 
L 304.247273 143.87276 
L 307.116694 145.982034 
L 308.961322 147.087171 
L 311.625785 148.432087 
L 322.693554 153.838069 
L 324.74314 155.256811 
L 326.38281 156.613944 
L 331.09686 161.278431 
L 332.53157 162.923191 
L 334.17124 165.194007 
L 336.015868 167.706037 
L 337.24562 169.018248 
L 339.090248 170.570283 
L 340.729917 172.048961 
L 342.164628 173.672475 
L 345.648926 177.835743 
L 347.698512 179.787256 
L 350.362975 182.246527 
L 352.617521 184.316881 
L 355.281983 186.235303 
L 357.33157 187.460254 
L 359.381157 188.337221 
L 362.455537 189.380896 
L 364.710083 189.899675 
L 366.349752 190.379481 
L 369.014215 191.222419 
L 372.90843 192.224285 
L 375.162975 193.143402 
L 377.212562 194.264783 
L 378.442314 195.152757 
L 380.081983 196.578737 
L 381.721653 198.209308 
L 382.951405 199.629519 
L 384.386116 201.670717 
L 385.820826 204.142729 
L 387.460496 207.373461 
L 391.764628 216.183169 
L 392.789421 217.776897 
L 393.404298 218.389582 
L 393.609256 218.721509 
L 393.814215 218.688878 
L 394.019174 219.098694 
L 394.224132 218.839146 
L 394.429091 219.447157 
L 394.63405 218.779119 
L 394.839008 219.834827 
L 395.043967 218.385875 
L 395.248926 220.436936 
L 395.453884 217.294076 
L 395.658843 222.194585 
L 395.863802 214.235863 
L 396.06876 227.842701 
L 396.273719 203.980083 
L 396.478678 226.275144 
L 396.683636 201.335499 
L 396.888595 223.148836 
L 397.093554 220.647458 
L 397.298512 234.84457 
L 397.503471 240.686524 
L 397.913388 265.353944 
L 398.323306 265.353231 
L 398.528264 259.384942 
L 398.733223 259.355306 
L 399.14314 251.924917 
L 399.348099 251.862924 
L 399.553058 247.838795 
L 399.758017 246.885026 
L 399.962975 246.843172 
L 400.167934 243.233658 
L 400.372893 242.962144 
L 400.577851 239.542731 
L 401.192727 217.340525 
L 402.012562 174.676309 
L 402.217521 168.23884 
L 402.422479 156.922859 
L 402.832397 152.994304 
L 403.242314 130.824711 
L 403.652231 99.257839 
L 404.062149 53.568 
L 404.677025 53.971857 
L 404.881983 56.394334 
L 405.086942 56.356601 
L 405.291901 54.409939 
L 405.49686 55.601399 
L 405.701818 64.496511 
L 406.93157 142.925582 
L 407.136529 149.711808 
L 407.136529 149.711808 
" style="fill:none;stroke:#ffff14;stroke-linecap:square;stroke-width:1.5;"/>
   </g>
   <g id="patch_8">
    <path d="M 252.392727 307.584 
L 252.392727 41.472 
" style="fill:none;stroke:#000000;stroke-linecap:square;stroke-linejoin:miter;stroke-width:0.8;"/>
   </g>
   <g id="patch_9">
    <path d="M 414.72 307.584 
L 414.72 41.472 
" style="fill:none;stroke:#000000;stroke-linecap:square;stroke-linejoin:miter;stroke-width:0.8;"/>
   </g>
   <g id="patch_10">
    <path d="M 252.392727 307.584 
L 414.72 307.584 
" style="fill:none;stroke:#000000;stroke-linecap:square;stroke-linejoin:miter;stroke-width:0.8;"/>
   </g>
   <g id="patch_11">
    <path d="M 252.392727 41.472 
L 414.72 41.472 
" style="fill:none;stroke:#000000;stroke-linecap:square;stroke-linejoin:miter;stroke-width:0.8;"/>
   </g>
   <g id="text_24">
    <!-- Left abduction -->
    <defs>
     <path d="M 9.8125 72.90625 
L 19.671875 72.90625 
L 19.671875 8.296875 
L 55.171875 8.296875 
L 55.171875 0 
L 9.8125 0 
z
" id="DejaVuSans-76"/>
     <path d="M 56.203125 29.59375 
L 56.203125 25.203125 
L 14.890625 25.203125 
Q 15.484375 15.921875 20.484375 11.0625 
Q 25.484375 6.203125 34.421875 6.203125 
Q 39.59375 6.203125 44.453125 7.46875 
Q 49.3125 8.734375 54.109375 11.28125 
L 54.109375 2.78125 
Q 49.265625 0.734375 44.1875 -0.34375 
Q 39.109375 -1.421875 33.890625 -1.421875 
Q 20.796875 -1.421875 13.15625 6.1875 
Q 5.515625 13.8125 5.515625 26.8125 
Q 5.515625 40.234375 12.765625 48.109375 
Q 20.015625 56 32.328125 56 
Q 43.359375 56 49.78125 48.890625 
Q 56.203125 41.796875 56.203125 29.59375 
z
M 47.21875 32.234375 
Q 47.125 39.59375 43.09375 43.984375 
Q 39.0625 48.390625 32.421875 48.390625 
Q 24.90625 48.390625 20.390625 44.140625 
Q 15.875 39.890625 15.1875 32.171875 
z
" id="DejaVuSans-101"/>
     <path d="M 37.109375 75.984375 
L 37.109375 68.5 
L 28.515625 68.5 
Q 23.6875 68.5 21.796875 66.546875 
Q 19.921875 64.59375 19.921875 59.515625 
L 19.921875 54.6875 
L 34.71875 54.6875 
L 34.71875 47.703125 
L 19.921875 47.703125 
L 19.921875 0 
L 10.890625 0 
L 10.890625 47.703125 
L 2.296875 47.703125 
L 2.296875 54.6875 
L 10.890625 54.6875 
L 10.890625 58.5 
Q 10.890625 67.625 15.140625 71.796875 
Q 19.390625 75.984375 28.609375 75.984375 
z
" id="DejaVuSans-102"/>
    </defs>
    <g transform="translate(290.262614 35.472)scale(0.12 -0.12)">
     <use xlink:href="#DejaVuSans-76"/>
     <use x="55.697266" xlink:href="#DejaVuSans-101"/>
     <use x="117.220703" xlink:href="#DejaVuSans-102"/>
     <use x="152.410156" xlink:href="#DejaVuSans-116"/>
     <use x="191.619141" xlink:href="#DejaVuSans-32"/>
     <use x="223.40625" xlink:href="#DejaVuSans-97"/>
     <use x="284.685547" xlink:href="#DejaVuSans-98"/>
     <use x="348.162109" xlink:href="#DejaVuSans-100"/>
     <use x="411.638672" xlink:href="#DejaVuSans-117"/>
     <use x="475.017578" xlink:href="#DejaVuSans-99"/>
     <use x="529.998047" xlink:href="#DejaVuSans-116"/>
     <use x="569.207031" xlink:href="#DejaVuSans-105"/>
     <use x="596.990234" xlink:href="#DejaVuSans-111"/>
     <use x="658.171875" xlink:href="#DejaVuSans-110"/>
    </g>
   </g>
  </g>
 </g>
 <defs>
  <clipPath id="pe8af5245cd">
   <rect height="266.112" width="162.327273" x="57.6" y="41.472"/>
  </clipPath>
  <clipPath id="pcf122b6ead">
   <rect height="266.112" width="162.327273" x="252.392727" y="41.472"/>
  </clipPath>
 </defs>
</svg>
