<?xml version="1.0" encoding="utf-8" standalone="no"?>
<!DOCTYPE svg PUBLIC "-//W3C//DTD SVG 1.1//EN"
  "http://www.w3.org/Graphics/SVG/1.1/DTD/svg11.dtd">
<!-- Created with matplotlib (https://matplotlib.org/) -->
<svg height="707.76pt" version="1.1" viewBox="0 0 1382.4 707.76" width="1382.4pt" xmlns="http://www.w3.org/2000/svg" xmlns:xlink="http://www.w3.org/1999/xlink">
 <defs>
  <style type="text/css">
*{stroke-linecap:butt;stroke-linejoin:round;}
  </style>
 </defs>
 <g id="figure_1">
  <g id="patch_1">
   <path d="M 0 707.76 
L 1382.4 707.76 
L 1382.4 0 
L 0 0 
z
" style="fill:#ffffff;"/>
  </g>
  <g id="axes_1">
   <g id="patch_2">
    <path d="M 172.8 629.9064 
L 659.781818 629.9064 
L 659.781818 84.9312 
L 172.8 84.9312 
z
" style="fill:#ffffff;"/>
   </g>
   <g id="matplotlib.axis_1">
    <g id="xtick_1">
     <g id="line2d_1">
      <defs>
       <path d="M 0 0 
L 0 3.5 
" id="m04cee96a65" style="stroke:#000000;stroke-width:0.8;"/>
      </defs>
      <g>
       <use style="stroke:#000000;stroke-width:0.8;" x="194.935537" xlink:href="#m04cee96a65" y="629.9064"/>
      </g>
     </g>
     <g id="text_1">
      <!-- 0 -->
      <defs>
       <path d="M 31.78125 66.40625 
Q 24.171875 66.40625 20.328125 58.90625 
Q 16.5 51.421875 16.5 36.375 
Q 16.5 21.390625 20.328125 13.890625 
Q 24.171875 6.390625 31.78125 6.390625 
Q 39.453125 6.390625 43.28125 13.890625 
Q 47.125 21.390625 47.125 36.375 
Q 47.125 51.421875 43.28125 58.90625 
Q 39.453125 66.40625 31.78125 66.40625 
z
M 31.78125 74.21875 
Q 44.046875 74.21875 50.515625 64.515625 
Q 56.984375 54.828125 56.984375 36.375 
Q 56.984375 17.96875 50.515625 8.265625 
Q 44.046875 -1.421875 31.78125 -1.421875 
Q 19.53125 -1.421875 13.0625 8.265625 
Q 6.59375 17.96875 6.59375 36.375 
Q 6.59375 54.828125 13.0625 64.515625 
Q 19.53125 74.21875 31.78125 74.21875 
z
" id="DejaVuSans-48"/>
      </defs>
      <g transform="translate(191.754287 644.504838)scale(0.1 -0.1)">
       <use xlink:href="#DejaVuSans-48"/>
      </g>
     </g>
    </g>
    <g id="xtick_2">
     <g id="line2d_2">
      <g>
       <use style="stroke:#000000;stroke-width:0.8;" x="253.963636" xlink:href="#m04cee96a65" y="629.9064"/>
      </g>
     </g>
     <g id="text_2">
      <!-- 100 -->
      <defs>
       <path d="M 12.40625 8.296875 
L 28.515625 8.296875 
L 28.515625 63.921875 
L 10.984375 60.40625 
L 10.984375 69.390625 
L 28.421875 72.90625 
L 38.28125 72.90625 
L 38.28125 8.296875 
L 54.390625 8.296875 
L 54.390625 0 
L 12.40625 0 
z
" id="DejaVuSans-49"/>
      </defs>
      <g transform="translate(244.419886 644.504838)scale(0.1 -0.1)">
       <use xlink:href="#DejaVuSans-49"/>
       <use x="63.623047" xlink:href="#DejaVuSans-48"/>
       <use x="127.246094" xlink:href="#DejaVuSans-48"/>
      </g>
     </g>
    </g>
    <g id="xtick_3">
     <g id="line2d_3">
      <g>
       <use style="stroke:#000000;stroke-width:0.8;" x="312.991736" xlink:href="#m04cee96a65" y="629.9064"/>
      </g>
     </g>
     <g id="text_3">
      <!-- 200 -->
      <defs>
       <path d="M 19.1875 8.296875 
L 53.609375 8.296875 
L 53.609375 0 
L 7.328125 0 
L 7.328125 8.296875 
Q 12.9375 14.109375 22.625 23.890625 
Q 32.328125 33.6875 34.8125 36.53125 
Q 39.546875 41.84375 41.421875 45.53125 
Q 43.3125 49.21875 43.3125 52.78125 
Q 43.3125 58.59375 39.234375 62.25 
Q 35.15625 65.921875 28.609375 65.921875 
Q 23.96875 65.921875 18.8125 64.3125 
Q 13.671875 62.703125 7.8125 59.421875 
L 7.8125 69.390625 
Q 13.765625 71.78125 18.9375 73 
Q 24.125 74.21875 28.421875 74.21875 
Q 39.75 74.21875 46.484375 68.546875 
Q 53.21875 62.890625 53.21875 53.421875 
Q 53.21875 48.921875 51.53125 44.890625 
Q 49.859375 40.875 45.40625 35.40625 
Q 44.1875 33.984375 37.640625 27.21875 
Q 31.109375 20.453125 19.1875 8.296875 
z
" id="DejaVuSans-50"/>
      </defs>
      <g transform="translate(303.447986 644.504838)scale(0.1 -0.1)">
       <use xlink:href="#DejaVuSans-50"/>
       <use x="63.623047" xlink:href="#DejaVuSans-48"/>
       <use x="127.246094" xlink:href="#DejaVuSans-48"/>
      </g>
     </g>
    </g>
    <g id="xtick_4">
     <g id="line2d_4">
      <g>
       <use style="stroke:#000000;stroke-width:0.8;" x="372.019835" xlink:href="#m04cee96a65" y="629.9064"/>
      </g>
     </g>
     <g id="text_4">
      <!-- 300 -->
      <defs>
       <path d="M 40.578125 39.3125 
Q 47.65625 37.796875 51.625 33 
Q 55.609375 28.21875 55.609375 21.1875 
Q 55.609375 10.40625 48.1875 4.484375 
Q 40.765625 -1.421875 27.09375 -1.421875 
Q 22.515625 -1.421875 17.65625 -0.515625 
Q 12.796875 0.390625 7.625 2.203125 
L 7.625 11.71875 
Q 11.71875 9.328125 16.59375 8.109375 
Q 21.484375 6.890625 26.8125 6.890625 
Q 36.078125 6.890625 40.9375 10.546875 
Q 45.796875 14.203125 45.796875 21.1875 
Q 45.796875 27.640625 41.28125 31.265625 
Q 36.765625 34.90625 28.71875 34.90625 
L 20.21875 34.90625 
L 20.21875 43.015625 
L 29.109375 43.015625 
Q 36.375 43.015625 40.234375 45.921875 
Q 44.09375 48.828125 44.09375 54.296875 
Q 44.09375 59.90625 40.109375 62.90625 
Q 36.140625 65.921875 28.71875 65.921875 
Q 24.65625 65.921875 20.015625 65.03125 
Q 15.375 64.15625 9.8125 62.3125 
L 9.8125 71.09375 
Q 15.4375 72.65625 20.34375 73.4375 
Q 25.25 74.21875 29.59375 74.21875 
Q 40.828125 74.21875 47.359375 69.109375 
Q 53.90625 64.015625 53.90625 55.328125 
Q 53.90625 49.265625 50.4375 45.09375 
Q 46.96875 40.921875 40.578125 39.3125 
z
" id="DejaVuSans-51"/>
      </defs>
      <g transform="translate(362.476085 644.504838)scale(0.1 -0.1)">
       <use xlink:href="#DejaVuSans-51"/>
       <use x="63.623047" xlink:href="#DejaVuSans-48"/>
       <use x="127.246094" xlink:href="#DejaVuSans-48"/>
      </g>
     </g>
    </g>
    <g id="xtick_5">
     <g id="line2d_5">
      <g>
       <use style="stroke:#000000;stroke-width:0.8;" x="431.047934" xlink:href="#m04cee96a65" y="629.9064"/>
      </g>
     </g>
     <g id="text_5">
      <!-- 400 -->
      <defs>
       <path d="M 37.796875 64.3125 
L 12.890625 25.390625 
L 37.796875 25.390625 
z
M 35.203125 72.90625 
L 47.609375 72.90625 
L 47.609375 25.390625 
L 58.015625 25.390625 
L 58.015625 17.1875 
L 47.609375 17.1875 
L 47.609375 0 
L 37.796875 0 
L 37.796875 17.1875 
L 4.890625 17.1875 
L 4.890625 26.703125 
z
" id="DejaVuSans-52"/>
      </defs>
      <g transform="translate(421.504184 644.504838)scale(0.1 -0.1)">
       <use xlink:href="#DejaVuSans-52"/>
       <use x="63.623047" xlink:href="#DejaVuSans-48"/>
       <use x="127.246094" xlink:href="#DejaVuSans-48"/>
      </g>
     </g>
    </g>
    <g id="xtick_6">
     <g id="line2d_6">
      <g>
       <use style="stroke:#000000;stroke-width:0.8;" x="490.076033" xlink:href="#m04cee96a65" y="629.9064"/>
      </g>
     </g>
     <g id="text_6">
      <!-- 500 -->
      <defs>
       <path d="M 10.796875 72.90625 
L 49.515625 72.90625 
L 49.515625 64.59375 
L 19.828125 64.59375 
L 19.828125 46.734375 
Q 21.96875 47.46875 24.109375 47.828125 
Q 26.265625 48.1875 28.421875 48.1875 
Q 40.625 48.1875 47.75 41.5 
Q 54.890625 34.8125 54.890625 23.390625 
Q 54.890625 11.625 47.5625 5.09375 
Q 40.234375 -1.421875 26.90625 -1.421875 
Q 22.3125 -1.421875 17.546875 -0.640625 
Q 12.796875 0.140625 7.71875 1.703125 
L 7.71875 11.625 
Q 12.109375 9.234375 16.796875 8.0625 
Q 21.484375 6.890625 26.703125 6.890625 
Q 35.15625 6.890625 40.078125 11.328125 
Q 45.015625 15.765625 45.015625 23.390625 
Q 45.015625 31 40.078125 35.4375 
Q 35.15625 39.890625 26.703125 39.890625 
Q 22.75 39.890625 18.8125 39.015625 
Q 14.890625 38.140625 10.796875 36.28125 
z
" id="DejaVuSans-53"/>
      </defs>
      <g transform="translate(480.532283 644.504838)scale(0.1 -0.1)">
       <use xlink:href="#DejaVuSans-53"/>
       <use x="63.623047" xlink:href="#DejaVuSans-48"/>
       <use x="127.246094" xlink:href="#DejaVuSans-48"/>
      </g>
     </g>
    </g>
    <g id="xtick_7">
     <g id="line2d_7">
      <g>
       <use style="stroke:#000000;stroke-width:0.8;" x="549.104132" xlink:href="#m04cee96a65" y="629.9064"/>
      </g>
     </g>
     <g id="text_7">
      <!-- 600 -->
      <defs>
       <path d="M 33.015625 40.375 
Q 26.375 40.375 22.484375 35.828125 
Q 18.609375 31.296875 18.609375 23.390625 
Q 18.609375 15.53125 22.484375 10.953125 
Q 26.375 6.390625 33.015625 6.390625 
Q 39.65625 6.390625 43.53125 10.953125 
Q 47.40625 15.53125 47.40625 23.390625 
Q 47.40625 31.296875 43.53125 35.828125 
Q 39.65625 40.375 33.015625 40.375 
z
M 52.59375 71.296875 
L 52.59375 62.3125 
Q 48.875 64.0625 45.09375 64.984375 
Q 41.3125 65.921875 37.59375 65.921875 
Q 27.828125 65.921875 22.671875 59.328125 
Q 17.53125 52.734375 16.796875 39.40625 
Q 19.671875 43.65625 24.015625 45.921875 
Q 28.375 48.1875 33.59375 48.1875 
Q 44.578125 48.1875 50.953125 41.515625 
Q 57.328125 34.859375 57.328125 23.390625 
Q 57.328125 12.15625 50.6875 5.359375 
Q 44.046875 -1.421875 33.015625 -1.421875 
Q 20.359375 -1.421875 13.671875 8.265625 
Q 6.984375 17.96875 6.984375 36.375 
Q 6.984375 53.65625 15.1875 63.9375 
Q 23.390625 74.21875 37.203125 74.21875 
Q 40.921875 74.21875 44.703125 73.484375 
Q 48.484375 72.75 52.59375 71.296875 
z
" id="DejaVuSans-54"/>
      </defs>
      <g transform="translate(539.560382 644.504838)scale(0.1 -0.1)">
       <use xlink:href="#DejaVuSans-54"/>
       <use x="63.623047" xlink:href="#DejaVuSans-48"/>
       <use x="127.246094" xlink:href="#DejaVuSans-48"/>
      </g>
     </g>
    </g>
    <g id="xtick_8">
     <g id="line2d_8">
      <g>
       <use style="stroke:#000000;stroke-width:0.8;" x="608.132231" xlink:href="#m04cee96a65" y="629.9064"/>
      </g>
     </g>
     <g id="text_8">
      <!-- 700 -->
      <defs>
       <path d="M 8.203125 72.90625 
L 55.078125 72.90625 
L 55.078125 68.703125 
L 28.609375 0 
L 18.3125 0 
L 43.21875 64.59375 
L 8.203125 64.59375 
z
" id="DejaVuSans-55"/>
      </defs>
      <g transform="translate(598.588481 644.504838)scale(0.1 -0.1)">
       <use xlink:href="#DejaVuSans-55"/>
       <use x="63.623047" xlink:href="#DejaVuSans-48"/>
       <use x="127.246094" xlink:href="#DejaVuSans-48"/>
      </g>
     </g>
    </g>
   </g>
   <g id="matplotlib.axis_2">
    <g id="ytick_1">
     <g id="line2d_9">
      <defs>
       <path d="M 0 0 
L -3.5 0 
" id="m3c6e2fd9d8" style="stroke:#000000;stroke-width:0.8;"/>
      </defs>
      <g>
       <use style="stroke:#000000;stroke-width:0.8;" x="172.8" xlink:href="#m3c6e2fd9d8" y="592.528724"/>
      </g>
     </g>
     <g id="text_9">
      <!-- −0.6 -->
      <defs>
       <path d="M 10.59375 35.5 
L 73.1875 35.5 
L 73.1875 27.203125 
L 10.59375 27.203125 
z
" id="DejaVuSans-8722"/>
       <path d="M 10.6875 12.40625 
L 21 12.40625 
L 21 0 
L 10.6875 0 
z
" id="DejaVuSans-46"/>
      </defs>
      <g transform="translate(141.517187 596.327943)scale(0.1 -0.1)">
       <use xlink:href="#DejaVuSans-8722"/>
       <use x="83.789062" xlink:href="#DejaVuSans-48"/>
       <use x="147.412109" xlink:href="#DejaVuSans-46"/>
       <use x="179.199219" xlink:href="#DejaVuSans-54"/>
      </g>
     </g>
    </g>
    <g id="ytick_2">
     <g id="line2d_10">
      <g>
       <use style="stroke:#000000;stroke-width:0.8;" x="172.8" xlink:href="#m3c6e2fd9d8" y="506.58596"/>
      </g>
     </g>
     <g id="text_10">
      <!-- −0.4 -->
      <g transform="translate(141.517187 510.385178)scale(0.1 -0.1)">
       <use xlink:href="#DejaVuSans-8722"/>
       <use x="83.789062" xlink:href="#DejaVuSans-48"/>
       <use x="147.412109" xlink:href="#DejaVuSans-46"/>
       <use x="179.199219" xlink:href="#DejaVuSans-52"/>
      </g>
     </g>
    </g>
    <g id="ytick_3">
     <g id="line2d_11">
      <g>
       <use style="stroke:#000000;stroke-width:0.8;" x="172.8" xlink:href="#m3c6e2fd9d8" y="420.643195"/>
      </g>
     </g>
     <g id="text_11">
      <!-- −0.2 -->
      <g transform="translate(141.517187 424.442414)scale(0.1 -0.1)">
       <use xlink:href="#DejaVuSans-8722"/>
       <use x="83.789062" xlink:href="#DejaVuSans-48"/>
       <use x="147.412109" xlink:href="#DejaVuSans-46"/>
       <use x="179.199219" xlink:href="#DejaVuSans-50"/>
      </g>
     </g>
    </g>
    <g id="ytick_4">
     <g id="line2d_12">
      <g>
       <use style="stroke:#000000;stroke-width:0.8;" x="172.8" xlink:href="#m3c6e2fd9d8" y="334.700431"/>
      </g>
     </g>
     <g id="text_12">
      <!-- 0.0 -->
      <g transform="translate(149.896875 338.49965)scale(0.1 -0.1)">
       <use xlink:href="#DejaVuSans-48"/>
       <use x="63.623047" xlink:href="#DejaVuSans-46"/>
       <use x="95.410156" xlink:href="#DejaVuSans-48"/>
      </g>
     </g>
    </g>
    <g id="ytick_5">
     <g id="line2d_13">
      <g>
       <use style="stroke:#000000;stroke-width:0.8;" x="172.8" xlink:href="#m3c6e2fd9d8" y="248.757667"/>
      </g>
     </g>
     <g id="text_13">
      <!-- 0.2 -->
      <g transform="translate(149.896875 252.556885)scale(0.1 -0.1)">
       <use xlink:href="#DejaVuSans-48"/>
       <use x="63.623047" xlink:href="#DejaVuSans-46"/>
       <use x="95.410156" xlink:href="#DejaVuSans-50"/>
      </g>
     </g>
    </g>
    <g id="ytick_6">
     <g id="line2d_14">
      <g>
       <use style="stroke:#000000;stroke-width:0.8;" x="172.8" xlink:href="#m3c6e2fd9d8" y="162.814902"/>
      </g>
     </g>
     <g id="text_14">
      <!-- 0.4 -->
      <g transform="translate(149.896875 166.614121)scale(0.1 -0.1)">
       <use xlink:href="#DejaVuSans-48"/>
       <use x="63.623047" xlink:href="#DejaVuSans-46"/>
       <use x="95.410156" xlink:href="#DejaVuSans-52"/>
      </g>
     </g>
    </g>
   </g>
   <g id="line2d_15">
    <path clip-path="url(#p31241e7ae0)" d="M 194.935537 334.683977 
L 197.296661 334.740137 
L 200.248066 334.859487 
L 203.199471 334.837494 
L 206.741157 334.857175 
L 213.824529 334.887398 
L 271.672066 335.159708 
L 327.74876 335.082966 
L 343.096066 335.050655 
L 363.755901 335.212922 
L 372.019835 335.272975 
L 387.957421 335.314733 
L 445.214678 335.518829 
L 463.513388 335.991538 
L 472.957884 336.333224 
L 503.062215 337.712448 
L 511.326149 338.042496 
L 520.180364 338.323571 
L 521.360926 338.325416 
L 522.541488 338.333794 
L 523.72205 338.346988 
L 524.902612 338.425998 
L 526.083174 338.412773 
L 527.263736 338.45617 
L 528.444298 338.39912 
L 531.985983 338.502124 
L 535.527669 338.454402 
L 539.069355 338.501818 
L 544.972165 338.449068 
L 553.82638 338.348155 
L 555.597223 338.315629 
L 562.090314 338.214781 
L 563.270876 338.226139 
L 566.222281 338.207165 
L 567.402843 338.170615 
L 568.583405 338.171997 
L 569.763967 338.156959 
L 570.944529 338.15323 
L 572.125091 338.13643 
L 575.076496 338.116726 
L 576.847339 338.12037 
L 584.520992 338.1059 
L 588.062678 338.133525 
L 606.361388 338.507496 
L 607.54195 338.616963 
L 608.722512 338.677194 
L 609.903074 338.744572 
L 613.44476 338.956187 
L 614.625322 339.055585 
L 615.805884 339.156672 
L 616.986446 339.271353 
L 618.167008 339.420174 
L 619.34757 339.541151 
L 620.528132 339.705951 
L 621.118413 326.021471 
L 621.708694 329.112863 
L 622.298975 343.282607 
L 622.889256 346.69244 
L 623.479537 332.479056 
L 624.069818 328.507225 
L 624.660099 341.339396 
L 625.25038 345.607847 
L 625.840661 334.32348 
L 626.430942 330.629323 
L 627.021223 341.87722 
L 627.611504 337.155585 
L 628.201785 333.766367 
L 628.792066 335.603643 
L 629.382347 339.891859 
L 629.972628 340.999857 
L 631.15319 332.739481 
L 631.743471 332.179771 
L 632.924033 337.210633 
L 633.514314 336.237606 
L 634.104595 333.250771 
L 634.694876 331.685959 
L 635.285157 333.334121 
L 635.875438 336.373408 
L 636.465719 337.646878 
L 637.056 336.039572 
L 637.056 336.039572 
" style="fill:none;stroke:#ff796c;stroke-linecap:square;stroke-width:1.5;"/>
   </g>
   <g id="line2d_16">
    <path clip-path="url(#p31241e7ae0)" d="M 194.935537 334.700431 
L 195.525818 334.325309 
L 212.053686 334.3165 
L 220.31762 333.936816 
L 226.810711 333.418125 
L 240.977455 332.215178 
L 252.783074 331.472859 
L 262.22757 330.816978 
L 266.949818 330.257194 
L 272.262347 329.408262 
L 281.116562 327.719601 
L 291.151339 325.867934 
L 298.824992 324.70674 
L 307.088926 323.710722 
L 331.880727 320.923634 
L 338.964099 320.01939 
L 343.686347 319.690002 
L 347.818314 319.631311 
L 353.130843 319.787295 
L 372.610116 320.582396 
L 377.332364 320.440786 
L 382.644893 320.044842 
L 390.318545 319.1875 
L 400.943603 318.0227 
L 406.846413 317.600272 
L 412.749223 317.390391 
L 419.242314 317.384589 
L 426.325686 317.604904 
L 433.409058 318.050236 
L 439.311868 318.624769 
L 446.985521 319.604625 
L 452.888331 320.587764 
L 461.152264 322.233263 
L 468.235636 323.903846 
L 477.680132 326.383454 
L 492.437157 330.333223 
L 498.339967 331.69377 
L 503.062215 332.583159 
L 507.784463 333.244429 
L 511.91643 333.600847 
L 516.048397 333.73201 
L 520.770645 333.646966 
L 526.083174 333.132611 
L 529.62486 332.560884 
L 533.756826 331.756549 
L 544.972165 329.114641 
L 551.465256 327.616358 
L 559.138909 326.339338 
L 564.451438 325.935139 
L 567.993124 325.958355 
L 570.354248 326.19277 
L 573.305653 326.658927 
L 575.666777 327.217286 
L 578.027901 327.969628 
L 580.389025 328.920246 
L 583.930711 330.635724 
L 594.555769 336.063915 
L 597.507174 336.998093 
L 599.868298 337.420439 
L 603.409983 337.750001 
L 606.951669 338.102319 
L 609.903074 338.658431 
L 611.673917 339.152596 
L 613.44476 339.843019 
L 615.215603 340.775643 
L 616.396165 341.562199 
L 618.167008 343.030459 
L 619.937851 344.853272 
L 621.118413 346.246852 
L 622.298975 341.621256 
L 622.889256 339.685744 
L 623.479537 337.080757 
L 624.069818 333.1547 
L 624.660099 330.560847 
L 625.25038 329.935588 
L 625.840661 328.843509 
L 626.430942 326.572854 
L 627.021223 325.268009 
L 627.611504 325.626306 
L 630.562909 313.829664 
L 632.333752 306.200129 
L 634.694876 297.353401 
L 636.465719 291.477111 
L 637.646281 287.464825 
L 637.646281 287.464825 
" style="fill:none;stroke:#e50000;stroke-linecap:square;stroke-width:1.5;"/>
   </g>
   <g id="line2d_17">
    <path clip-path="url(#p31241e7ae0)" d="M 194.935537 109.7028 
L 199.067504 109.807741 
L 203.199471 110.122466 
L 207.331438 110.646681 
L 211.463405 111.379898 
L 215.595372 112.321433 
L 219.727339 113.470406 
L 223.859306 114.825747 
L 228.581554 116.625772 
L 233.303802 118.691488 
L 238.02605 121.020377 
L 242.748298 123.609603 
L 247.470545 126.45601 
L 252.192793 129.556131 
L 256.915041 132.906189 
L 262.22757 136.968663 
L 267.540099 141.336024 
L 272.852628 146.00154 
L 278.165157 150.958016 
L 283.477686 156.197809 
L 289.380496 162.342246 
L 295.283306 168.814777 
L 301.186116 175.60308 
L 307.679207 183.419492 
L 314.172298 191.584338 
L 321.255669 200.866713 
L 328.339041 210.515917 
L 336.012694 221.35248 
L 344.276628 233.429348 
L 353.130843 246.786853 
L 362.575339 261.448367 
L 373.200397 278.365523 
L 385.596298 298.533734 
L 402.714446 326.848127 
L 432.228496 375.702992 
L 445.214678 396.718183 
L 455.839736 413.496262 
L 465.284231 428.005428 
L 474.138446 441.196235 
L 482.40238 453.097317 
L 490.076033 463.75377 
L 497.159405 473.222804 
L 504.242777 482.312158 
L 510.735868 490.28923 
L 517.228959 497.907946 
L 523.131769 504.508299 
L 529.034579 510.785412 
L 534.937388 516.727338 
L 540.249917 521.779124 
L 545.562446 526.542448 
L 550.874975 531.009966 
L 556.187504 535.174788 
L 561.500033 539.030494 
L 566.222281 542.193465 
L 570.944529 545.103638 
L 575.666777 547.757467 
L 580.389025 550.151719 
L 585.111273 552.283476 
L 589.833521 554.150142 
L 594.555769 555.749443 
L 598.687736 556.927968 
L 602.819702 557.899195 
L 606.951669 558.662217 
L 611.083636 559.216325 
L 615.215603 559.560999 
L 619.34757 559.69592 
L 623.479537 559.620961 
L 627.611504 559.336192 
L 631.743471 558.841878 
L 635.875438 558.138481 
L 637.056 557.899195 
L 637.056 557.899195 
" style="fill:none;stroke:#014d4e;stroke-linecap:square;stroke-width:1.5;"/>
   </g>
   <g id="line2d_18">
    <path clip-path="url(#p31241e7ae0)" d="M 194.935537 110.077921 
L 200.248066 110.143022 
L 204.970314 110.575042 
L 209.102281 111.256813 
L 212.643967 112.050096 
L 216.185653 113.03426 
L 220.31762 114.452409 
L 224.449587 116.161709 
L 228.581554 118.121422 
L 233.303802 120.611365 
L 238.616331 123.683744 
L 243.92886 127.026679 
L 249.241388 130.644856 
L 253.963636 134.113994 
L 258.685884 137.85818 
L 262.817851 141.443345 
L 266.949818 145.362848 
L 271.081785 149.602292 
L 275.804033 154.779085 
L 281.116562 160.930636 
L 287.609653 168.784863 
L 295.283306 178.390796 
L 303.54724 189.064774 
L 310.630612 198.506783 
L 317.713983 208.279062 
L 323.616793 216.80343 
L 330.109884 226.593706 
L 349.589157 256.417547 
L 363.755901 277.641818 
L 370.248992 287.750177 
L 375.561521 296.379589 
L 382.054612 307.388554 
L 390.908826 322.934494 
L 405.07557 347.806059 
L 413.339504 361.841978 
L 421.603438 375.470348 
L 429.867372 388.699743 
L 436.950744 399.658311 
L 443.443835 409.380772 
L 450.527207 419.593601 
L 457.020298 428.544225 
L 463.513388 437.111526 
L 469.416198 444.565553 
L 475.909289 452.421067 
L 482.992661 460.637291 
L 495.388562 474.409826 
L 510.145587 490.758879 
L 519.590083 501.600681 
L 531.985983 516.478256 
L 538.479074 524.268135 
L 544.381884 531.095033 
L 549.104132 536.258461 
L 553.236099 540.444891 
L 556.187504 543.272169 
L 559.138909 545.773635 
L 562.680595 548.596852 
L 566.812562 551.336568 
L 569.173686 552.627001 
L 572.125091 553.945118 
L 574.486215 554.757411 
L 576.847339 555.318006 
L 579.208463 555.610162 
L 581.569587 555.664178 
L 583.930711 555.531762 
L 587.472397 555.074615 
L 593.375207 554.251146 
L 595.736331 554.120837 
L 598.097455 554.216014 
L 606.951669 555.164774 
L 608.722512 555.105946 
L 611.083636 554.76416 
L 612.854479 554.247123 
L 614.625322 553.449385 
L 615.805884 552.731353 
L 617.576727 551.333766 
L 619.34757 549.543079 
L 620.528132 548.149499 
L 621.708694 552.757961 
L 622.298975 554.678481 
L 622.889256 557.264192 
L 623.479537 561.166691 
L 624.069818 563.732704 
L 624.660099 564.325842 
L 625.25038 565.381518 
L 625.840661 567.611491 
L 626.430942 568.871373 
L 627.021223 568.463836 
L 629.972628 579.950127 
L 631.743471 587.34218 
L 634.104595 595.812532 
L 635.875438 601.361801 
L 637.056 605.1348 
L 637.056 605.1348 
" style="fill:none;stroke:#ffff14;stroke-linecap:square;stroke-width:1.5;"/>
   </g>
   <g id="patch_3">
    <path d="M 172.8 629.9064 
L 172.8 84.9312 
" style="fill:none;stroke:#000000;stroke-linecap:square;stroke-linejoin:miter;stroke-width:0.8;"/>
   </g>
   <g id="patch_4">
    <path d="M 659.781818 629.9064 
L 659.781818 84.9312 
" style="fill:none;stroke:#000000;stroke-linecap:square;stroke-linejoin:miter;stroke-width:0.8;"/>
   </g>
   <g id="patch_5">
    <path d="M 172.8 629.9064 
L 659.781818 629.9064 
" style="fill:none;stroke:#000000;stroke-linecap:square;stroke-linejoin:miter;stroke-width:0.8;"/>
   </g>
   <g id="patch_6">
    <path d="M 172.8 84.9312 
L 659.781818 84.9312 
" style="fill:none;stroke:#000000;stroke-linecap:square;stroke-linejoin:miter;stroke-width:0.8;"/>
   </g>
   <g id="text_15">
    <!-- Right abduction -->
    <defs>
     <path d="M 44.390625 34.1875 
Q 47.5625 33.109375 50.5625 29.59375 
Q 53.5625 26.078125 56.59375 19.921875 
L 66.609375 0 
L 56 0 
L 46.6875 18.703125 
Q 43.0625 26.03125 39.671875 28.421875 
Q 36.28125 30.8125 30.421875 30.8125 
L 19.671875 30.8125 
L 19.671875 0 
L 9.8125 0 
L 9.8125 72.90625 
L 32.078125 72.90625 
Q 44.578125 72.90625 50.734375 67.671875 
Q 56.890625 62.453125 56.890625 51.90625 
Q 56.890625 45.015625 53.6875 40.46875 
Q 50.484375 35.9375 44.390625 34.1875 
z
M 19.671875 64.796875 
L 19.671875 38.921875 
L 32.078125 38.921875 
Q 39.203125 38.921875 42.84375 42.21875 
Q 46.484375 45.515625 46.484375 51.90625 
Q 46.484375 58.296875 42.84375 61.546875 
Q 39.203125 64.796875 32.078125 64.796875 
z
" id="DejaVuSans-82"/>
     <path d="M 9.421875 54.6875 
L 18.40625 54.6875 
L 18.40625 0 
L 9.421875 0 
z
M 9.421875 75.984375 
L 18.40625 75.984375 
L 18.40625 64.59375 
L 9.421875 64.59375 
z
" id="DejaVuSans-105"/>
     <path d="M 45.40625 27.984375 
Q 45.40625 37.75 41.375 43.109375 
Q 37.359375 48.484375 30.078125 48.484375 
Q 22.859375 48.484375 18.828125 43.109375 
Q 14.796875 37.75 14.796875 27.984375 
Q 14.796875 18.265625 18.828125 12.890625 
Q 22.859375 7.515625 30.078125 7.515625 
Q 37.359375 7.515625 41.375 12.890625 
Q 45.40625 18.265625 45.40625 27.984375 
z
M 54.390625 6.78125 
Q 54.390625 -7.171875 48.1875 -13.984375 
Q 42 -20.796875 29.203125 -20.796875 
Q 24.46875 -20.796875 20.265625 -20.09375 
Q 16.0625 -19.390625 12.109375 -17.921875 
L 12.109375 -9.1875 
Q 16.0625 -11.328125 19.921875 -12.34375 
Q 23.78125 -13.375 27.78125 -13.375 
Q 36.625 -13.375 41.015625 -8.765625 
Q 45.40625 -4.15625 45.40625 5.171875 
L 45.40625 9.625 
Q 42.625 4.78125 38.28125 2.390625 
Q 33.9375 0 27.875 0 
Q 17.828125 0 11.671875 7.65625 
Q 5.515625 15.328125 5.515625 27.984375 
Q 5.515625 40.671875 11.671875 48.328125 
Q 17.828125 56 27.875 56 
Q 33.9375 56 38.28125 53.609375 
Q 42.625 51.21875 45.40625 46.390625 
L 45.40625 54.6875 
L 54.390625 54.6875 
z
" id="DejaVuSans-103"/>
     <path d="M 54.890625 33.015625 
L 54.890625 0 
L 45.90625 0 
L 45.90625 32.71875 
Q 45.90625 40.484375 42.875 44.328125 
Q 39.84375 48.1875 33.796875 48.1875 
Q 26.515625 48.1875 22.3125 43.546875 
Q 18.109375 38.921875 18.109375 30.90625 
L 18.109375 0 
L 9.078125 0 
L 9.078125 75.984375 
L 18.109375 75.984375 
L 18.109375 46.1875 
Q 21.34375 51.125 25.703125 53.5625 
Q 30.078125 56 35.796875 56 
Q 45.21875 56 50.046875 50.171875 
Q 54.890625 44.34375 54.890625 33.015625 
z
" id="DejaVuSans-104"/>
     <path d="M 18.3125 70.21875 
L 18.3125 54.6875 
L 36.8125 54.6875 
L 36.8125 47.703125 
L 18.3125 47.703125 
L 18.3125 18.015625 
Q 18.3125 11.328125 20.140625 9.421875 
Q 21.96875 7.515625 27.59375 7.515625 
L 36.8125 7.515625 
L 36.8125 0 
L 27.59375 0 
Q 17.1875 0 13.234375 3.875 
Q 9.28125 7.765625 9.28125 18.015625 
L 9.28125 47.703125 
L 2.6875 47.703125 
L 2.6875 54.6875 
L 9.28125 54.6875 
L 9.28125 70.21875 
z
" id="DejaVuSans-116"/>
     <path id="DejaVuSans-32"/>
     <path d="M 34.28125 27.484375 
Q 23.390625 27.484375 19.1875 25 
Q 14.984375 22.515625 14.984375 16.5 
Q 14.984375 11.71875 18.140625 8.90625 
Q 21.296875 6.109375 26.703125 6.109375 
Q 34.1875 6.109375 38.703125 11.40625 
Q 43.21875 16.703125 43.21875 25.484375 
L 43.21875 27.484375 
z
M 52.203125 31.203125 
L 52.203125 0 
L 43.21875 0 
L 43.21875 8.296875 
Q 40.140625 3.328125 35.546875 0.953125 
Q 30.953125 -1.421875 24.3125 -1.421875 
Q 15.921875 -1.421875 10.953125 3.296875 
Q 6 8.015625 6 15.921875 
Q 6 25.140625 12.171875 29.828125 
Q 18.359375 34.515625 30.609375 34.515625 
L 43.21875 34.515625 
L 43.21875 35.40625 
Q 43.21875 41.609375 39.140625 45 
Q 35.0625 48.390625 27.6875 48.390625 
Q 23 48.390625 18.546875 47.265625 
Q 14.109375 46.140625 10.015625 43.890625 
L 10.015625 52.203125 
Q 14.9375 54.109375 19.578125 55.046875 
Q 24.21875 56 28.609375 56 
Q 40.484375 56 46.34375 49.84375 
Q 52.203125 43.703125 52.203125 31.203125 
z
" id="DejaVuSans-97"/>
     <path d="M 48.6875 27.296875 
Q 48.6875 37.203125 44.609375 42.84375 
Q 40.53125 48.484375 33.40625 48.484375 
Q 26.265625 48.484375 22.1875 42.84375 
Q 18.109375 37.203125 18.109375 27.296875 
Q 18.109375 17.390625 22.1875 11.75 
Q 26.265625 6.109375 33.40625 6.109375 
Q 40.53125 6.109375 44.609375 11.75 
Q 48.6875 17.390625 48.6875 27.296875 
z
M 18.109375 46.390625 
Q 20.953125 51.265625 25.265625 53.625 
Q 29.59375 56 35.59375 56 
Q 45.5625 56 51.78125 48.09375 
Q 58.015625 40.1875 58.015625 27.296875 
Q 58.015625 14.40625 51.78125 6.484375 
Q 45.5625 -1.421875 35.59375 -1.421875 
Q 29.59375 -1.421875 25.265625 0.953125 
Q 20.953125 3.328125 18.109375 8.203125 
L 18.109375 0 
L 9.078125 0 
L 9.078125 75.984375 
L 18.109375 75.984375 
z
" id="DejaVuSans-98"/>
     <path d="M 45.40625 46.390625 
L 45.40625 75.984375 
L 54.390625 75.984375 
L 54.390625 0 
L 45.40625 0 
L 45.40625 8.203125 
Q 42.578125 3.328125 38.25 0.953125 
Q 33.9375 -1.421875 27.875 -1.421875 
Q 17.96875 -1.421875 11.734375 6.484375 
Q 5.515625 14.40625 5.515625 27.296875 
Q 5.515625 40.1875 11.734375 48.09375 
Q 17.96875 56 27.875 56 
Q 33.9375 56 38.25 53.625 
Q 42.578125 51.265625 45.40625 46.390625 
z
M 14.796875 27.296875 
Q 14.796875 17.390625 18.875 11.75 
Q 22.953125 6.109375 30.078125 6.109375 
Q 37.203125 6.109375 41.296875 11.75 
Q 45.40625 17.390625 45.40625 27.296875 
Q 45.40625 37.203125 41.296875 42.84375 
Q 37.203125 48.484375 30.078125 48.484375 
Q 22.953125 48.484375 18.875 42.84375 
Q 14.796875 37.203125 14.796875 27.296875 
z
" id="DejaVuSans-100"/>
     <path d="M 8.5 21.578125 
L 8.5 54.6875 
L 17.484375 54.6875 
L 17.484375 21.921875 
Q 17.484375 14.15625 20.5 10.265625 
Q 23.53125 6.390625 29.59375 6.390625 
Q 36.859375 6.390625 41.078125 11.03125 
Q 45.3125 15.671875 45.3125 23.6875 
L 45.3125 54.6875 
L 54.296875 54.6875 
L 54.296875 0 
L 45.3125 0 
L 45.3125 8.40625 
Q 42.046875 3.421875 37.71875 1 
Q 33.40625 -1.421875 27.6875 -1.421875 
Q 18.265625 -1.421875 13.375 4.4375 
Q 8.5 10.296875 8.5 21.578125 
z
M 31.109375 56 
z
" id="DejaVuSans-117"/>
     <path d="M 48.78125 52.59375 
L 48.78125 44.1875 
Q 44.96875 46.296875 41.140625 47.34375 
Q 37.3125 48.390625 33.40625 48.390625 
Q 24.65625 48.390625 19.8125 42.84375 
Q 14.984375 37.3125 14.984375 27.296875 
Q 14.984375 17.28125 19.8125 11.734375 
Q 24.65625 6.203125 33.40625 6.203125 
Q 37.3125 6.203125 41.140625 7.25 
Q 44.96875 8.296875 48.78125 10.40625 
L 48.78125 2.09375 
Q 45.015625 0.34375 40.984375 -0.53125 
Q 36.96875 -1.421875 32.421875 -1.421875 
Q 20.0625 -1.421875 12.78125 6.34375 
Q 5.515625 14.109375 5.515625 27.296875 
Q 5.515625 40.671875 12.859375 48.328125 
Q 20.21875 56 33.015625 56 
Q 37.15625 56 41.109375 55.140625 
Q 45.0625 54.296875 48.78125 52.59375 
z
" id="DejaVuSans-99"/>
     <path d="M 30.609375 48.390625 
Q 23.390625 48.390625 19.1875 42.75 
Q 14.984375 37.109375 14.984375 27.296875 
Q 14.984375 17.484375 19.15625 11.84375 
Q 23.34375 6.203125 30.609375 6.203125 
Q 37.796875 6.203125 41.984375 11.859375 
Q 46.1875 17.53125 46.1875 27.296875 
Q 46.1875 37.015625 41.984375 42.703125 
Q 37.796875 48.390625 30.609375 48.390625 
z
M 30.609375 56 
Q 42.328125 56 49.015625 48.375 
Q 55.71875 40.765625 55.71875 27.296875 
Q 55.71875 13.875 49.015625 6.21875 
Q 42.328125 -1.421875 30.609375 -1.421875 
Q 18.84375 -1.421875 12.171875 6.21875 
Q 5.515625 13.875 5.515625 27.296875 
Q 5.515625 40.765625 12.171875 48.375 
Q 18.84375 56 30.609375 56 
z
" id="DejaVuSans-111"/>
     <path d="M 54.890625 33.015625 
L 54.890625 0 
L 45.90625 0 
L 45.90625 32.71875 
Q 45.90625 40.484375 42.875 44.328125 
Q 39.84375 48.1875 33.796875 48.1875 
Q 26.515625 48.1875 22.3125 43.546875 
Q 18.109375 38.921875 18.109375 30.90625 
L 18.109375 0 
L 9.078125 0 
L 9.078125 54.6875 
L 18.109375 54.6875 
L 18.109375 46.1875 
Q 21.34375 51.125 25.703125 53.5625 
Q 30.078125 56 35.796875 56 
Q 45.21875 56 50.046875 50.171875 
Q 54.890625 44.34375 54.890625 33.015625 
z
" id="DejaVuSans-110"/>
    </defs>
    <g transform="translate(368.694972 78.9312)scale(0.12 -0.12)">
     <use xlink:href="#DejaVuSans-82"/>
     <use x="69.482422" xlink:href="#DejaVuSans-105"/>
     <use x="97.265625" xlink:href="#DejaVuSans-103"/>
     <use x="160.742188" xlink:href="#DejaVuSans-104"/>
     <use x="224.121094" xlink:href="#DejaVuSans-116"/>
     <use x="263.330078" xlink:href="#DejaVuSans-32"/>
     <use x="295.117188" xlink:href="#DejaVuSans-97"/>
     <use x="356.396484" xlink:href="#DejaVuSans-98"/>
     <use x="419.873047" xlink:href="#DejaVuSans-100"/>
     <use x="483.349609" xlink:href="#DejaVuSans-117"/>
     <use x="546.728516" xlink:href="#DejaVuSans-99"/>
     <use x="601.708984" xlink:href="#DejaVuSans-116"/>
     <use x="640.917969" xlink:href="#DejaVuSans-105"/>
     <use x="668.701172" xlink:href="#DejaVuSans-111"/>
     <use x="729.882812" xlink:href="#DejaVuSans-110"/>
    </g>
   </g>
  </g>
  <g id="axes_2">
   <g id="patch_7">
    <path d="M 757.178182 629.9064 
L 1244.16 629.9064 
L 1244.16 84.9312 
L 757.178182 84.9312 
z
" style="fill:#ffffff;"/>
   </g>
   <g id="matplotlib.axis_3">
    <g id="xtick_9">
     <g id="line2d_19">
      <g>
       <use style="stroke:#000000;stroke-width:0.8;" x="779.313719" xlink:href="#m04cee96a65" y="629.9064"/>
      </g>
     </g>
     <g id="text_16">
      <!-- 0 -->
      <g transform="translate(776.132469 644.504838)scale(0.1 -0.1)">
       <use xlink:href="#DejaVuSans-48"/>
      </g>
     </g>
    </g>
    <g id="xtick_10">
     <g id="line2d_20">
      <g>
       <use style="stroke:#000000;stroke-width:0.8;" x="838.341818" xlink:href="#m04cee96a65" y="629.9064"/>
      </g>
     </g>
     <g id="text_17">
      <!-- 100 -->
      <g transform="translate(828.798068 644.504838)scale(0.1 -0.1)">
       <use xlink:href="#DejaVuSans-49"/>
       <use x="63.623047" xlink:href="#DejaVuSans-48"/>
       <use x="127.246094" xlink:href="#DejaVuSans-48"/>
      </g>
     </g>
    </g>
    <g id="xtick_11">
     <g id="line2d_21">
      <g>
       <use style="stroke:#000000;stroke-width:0.8;" x="897.369917" xlink:href="#m04cee96a65" y="629.9064"/>
      </g>
     </g>
     <g id="text_18">
      <!-- 200 -->
      <g transform="translate(887.826167 644.504838)scale(0.1 -0.1)">
       <use xlink:href="#DejaVuSans-50"/>
       <use x="63.623047" xlink:href="#DejaVuSans-48"/>
       <use x="127.246094" xlink:href="#DejaVuSans-48"/>
      </g>
     </g>
    </g>
    <g id="xtick_12">
     <g id="line2d_22">
      <g>
       <use style="stroke:#000000;stroke-width:0.8;" x="956.398017" xlink:href="#m04cee96a65" y="629.9064"/>
      </g>
     </g>
     <g id="text_19">
      <!-- 300 -->
      <g transform="translate(946.854267 644.504838)scale(0.1 -0.1)">
       <use xlink:href="#DejaVuSans-51"/>
       <use x="63.623047" xlink:href="#DejaVuSans-48"/>
       <use x="127.246094" xlink:href="#DejaVuSans-48"/>
      </g>
     </g>
    </g>
    <g id="xtick_13">
     <g id="line2d_23">
      <g>
       <use style="stroke:#000000;stroke-width:0.8;" x="1015.426116" xlink:href="#m04cee96a65" y="629.9064"/>
      </g>
     </g>
     <g id="text_20">
      <!-- 400 -->
      <g transform="translate(1005.882366 644.504838)scale(0.1 -0.1)">
       <use xlink:href="#DejaVuSans-52"/>
       <use x="63.623047" xlink:href="#DejaVuSans-48"/>
       <use x="127.246094" xlink:href="#DejaVuSans-48"/>
      </g>
     </g>
    </g>
    <g id="xtick_14">
     <g id="line2d_24">
      <g>
       <use style="stroke:#000000;stroke-width:0.8;" x="1074.454215" xlink:href="#m04cee96a65" y="629.9064"/>
      </g>
     </g>
     <g id="text_21">
      <!-- 500 -->
      <g transform="translate(1064.910465 644.504838)scale(0.1 -0.1)">
       <use xlink:href="#DejaVuSans-53"/>
       <use x="63.623047" xlink:href="#DejaVuSans-48"/>
       <use x="127.246094" xlink:href="#DejaVuSans-48"/>
      </g>
     </g>
    </g>
    <g id="xtick_15">
     <g id="line2d_25">
      <g>
       <use style="stroke:#000000;stroke-width:0.8;" x="1133.482314" xlink:href="#m04cee96a65" y="629.9064"/>
      </g>
     </g>
     <g id="text_22">
      <!-- 600 -->
      <g transform="translate(1123.938564 644.504838)scale(0.1 -0.1)">
       <use xlink:href="#DejaVuSans-54"/>
       <use x="63.623047" xlink:href="#DejaVuSans-48"/>
       <use x="127.246094" xlink:href="#DejaVuSans-48"/>
      </g>
     </g>
    </g>
    <g id="xtick_16">
     <g id="line2d_26">
      <g>
       <use style="stroke:#000000;stroke-width:0.8;" x="1192.510413" xlink:href="#m04cee96a65" y="629.9064"/>
      </g>
     </g>
     <g id="text_23">
      <!-- 700 -->
      <g transform="translate(1182.966663 644.504838)scale(0.1 -0.1)">
       <use xlink:href="#DejaVuSans-55"/>
       <use x="63.623047" xlink:href="#DejaVuSans-48"/>
       <use x="127.246094" xlink:href="#DejaVuSans-48"/>
      </g>
     </g>
    </g>
   </g>
   <g id="matplotlib.axis_4">
    <g id="ytick_7">
     <g id="line2d_27">
      <g>
       <use style="stroke:#000000;stroke-width:0.8;" x="757.178182" xlink:href="#m3c6e2fd9d8" y="618.56132"/>
      </g>
     </g>
     <g id="text_24">
      <!-- −0.6 -->
      <g transform="translate(725.895369 622.360539)scale(0.1 -0.1)">
       <use xlink:href="#DejaVuSans-8722"/>
       <use x="83.789062" xlink:href="#DejaVuSans-48"/>
       <use x="147.412109" xlink:href="#DejaVuSans-46"/>
       <use x="179.199219" xlink:href="#DejaVuSans-54"/>
      </g>
     </g>
    </g>
    <g id="ytick_8">
     <g id="line2d_28">
      <g>
       <use style="stroke:#000000;stroke-width:0.8;" x="757.178182" xlink:href="#m3c6e2fd9d8" y="527.984767"/>
      </g>
     </g>
     <g id="text_25">
      <!-- −0.4 -->
      <g transform="translate(725.895369 531.783986)scale(0.1 -0.1)">
       <use xlink:href="#DejaVuSans-8722"/>
       <use x="83.789062" xlink:href="#DejaVuSans-48"/>
       <use x="147.412109" xlink:href="#DejaVuSans-46"/>
       <use x="179.199219" xlink:href="#DejaVuSans-52"/>
      </g>
     </g>
    </g>
    <g id="ytick_9">
     <g id="line2d_29">
      <g>
       <use style="stroke:#000000;stroke-width:0.8;" x="757.178182" xlink:href="#m3c6e2fd9d8" y="437.408214"/>
      </g>
     </g>
     <g id="text_26">
      <!-- −0.2 -->
      <g transform="translate(725.895369 441.207433)scale(0.1 -0.1)">
       <use xlink:href="#DejaVuSans-8722"/>
       <use x="83.789062" xlink:href="#DejaVuSans-48"/>
       <use x="147.412109" xlink:href="#DejaVuSans-46"/>
       <use x="179.199219" xlink:href="#DejaVuSans-50"/>
      </g>
     </g>
    </g>
    <g id="ytick_10">
     <g id="line2d_30">
      <g>
       <use style="stroke:#000000;stroke-width:0.8;" x="757.178182" xlink:href="#m3c6e2fd9d8" y="346.831661"/>
      </g>
     </g>
     <g id="text_27">
      <!-- 0.0 -->
      <g transform="translate(734.275057 350.63088)scale(0.1 -0.1)">
       <use xlink:href="#DejaVuSans-48"/>
       <use x="63.623047" xlink:href="#DejaVuSans-46"/>
       <use x="95.410156" xlink:href="#DejaVuSans-48"/>
      </g>
     </g>
    </g>
    <g id="ytick_11">
     <g id="line2d_31">
      <g>
       <use style="stroke:#000000;stroke-width:0.8;" x="757.178182" xlink:href="#m3c6e2fd9d8" y="256.255108"/>
      </g>
     </g>
     <g id="text_28">
      <!-- 0.2 -->
      <g transform="translate(734.275057 260.054327)scale(0.1 -0.1)">
       <use xlink:href="#DejaVuSans-48"/>
       <use x="63.623047" xlink:href="#DejaVuSans-46"/>
       <use x="95.410156" xlink:href="#DejaVuSans-50"/>
      </g>
     </g>
    </g>
    <g id="ytick_12">
     <g id="line2d_32">
      <g>
       <use style="stroke:#000000;stroke-width:0.8;" x="757.178182" xlink:href="#m3c6e2fd9d8" y="165.678555"/>
      </g>
     </g>
     <g id="text_29">
      <!-- 0.4 -->
      <g transform="translate(734.275057 169.477774)scale(0.1 -0.1)">
       <use xlink:href="#DejaVuSans-48"/>
       <use x="63.623047" xlink:href="#DejaVuSans-46"/>
       <use x="95.410156" xlink:href="#DejaVuSans-52"/>
      </g>
     </g>
    </g>
   </g>
   <g id="line2d_33">
    <path clip-path="url(#pad726ad60b)" d="M 779.313719 346.824239 
L 792.890182 346.880513 
L 805.286083 346.92209 
L 814.140298 346.932417 
L 882.022612 347.037399 
L 1093.343207 347.09201 
L 1120.496132 347.088898 
L 1126.398942 347.103782 
L 1142.336529 347.213011 
L 1145.287934 347.202167 
L 1151.190744 347.232848 
L 1159.454678 347.242542 
L 1188.968727 346.716067 
L 1204.906314 346.99055 
L 1205.496595 341.577312 
L 1206.086876 342.888647 
L 1206.677157 348.602067 
L 1207.267438 349.95875 
L 1207.857719 344.258679 
L 1208.448 342.709922 
L 1209.038281 347.915421 
L 1209.628562 349.643657 
L 1210.218843 345.109485 
L 1210.809124 343.668013 
L 1211.399405 348.250473 
L 1211.989686 346.374657 
L 1212.579967 345.037825 
L 1213.170248 345.822118 
L 1213.760529 347.584026 
L 1214.35081 348.030187 
L 1215.531372 344.707074 
L 1216.121653 344.569019 
L 1217.302215 346.864841 
L 1217.892496 346.582671 
L 1218.482777 345.477141 
L 1219.073058 344.959997 
L 1219.663339 345.75246 
L 1220.25362 347.084131 
L 1220.843901 347.644904 
L 1221.434182 346.986543 
L 1221.434182 346.986543 
" style="fill:none;stroke:#ff796c;stroke-linecap:square;stroke-width:1.5;"/>
   </g>
   <g id="line2d_34">
    <path clip-path="url(#pad726ad60b)" d="M 779.313719 346.831661 
L 779.904 346.477686 
L 784.626248 346.45293 
L 788.167934 345.978935 
L 801.744397 344.806349 
L 808.237488 343.981809 
L 818.862545 342.986654 
L 824.765355 342.289822 
L 831.258446 341.310561 
L 840.702942 339.60427 
L 852.508562 337.500034 
L 856.640529 337.099204 
L 863.13362 336.732364 
L 881.432331 335.818474 
L 892.057388 334.769162 
L 909.175537 332.939171 
L 915.078347 332.620408 
L 926.883967 332.097499 
L 931.015934 331.593331 
L 935.738182 330.715879 
L 945.182678 328.562559 
L 949.314645 327.642964 
L 954.036893 326.838526 
L 958.75914 326.272134 
L 964.66195 325.814248 
L 969.384198 325.686297 
L 974.696727 325.807928 
L 982.37038 326.262505 
L 990.044033 326.640379 
L 995.946843 326.692649 
L 1002.439934 326.511137 
L 1011.294149 326.034694 
L 1020.148364 325.365523 
L 1026.641455 324.676223 
L 1034.315107 323.593271 
L 1041.398479 322.408934 
L 1046.120727 321.51823 
L 1052.023537 320.286013 
L 1062.648595 317.892252 
L 1074.454215 315.332757 
L 1079.176463 314.514532 
L 1083.898711 313.895551 
L 1088.030678 313.569874 
L 1092.162645 313.494279 
L 1095.704331 313.642773 
L 1099.246017 314.027969 
L 1102.787702 314.646934 
L 1105.739107 315.275976 
L 1108.100231 315.840403 
L 1114.003041 317.950525 
L 1121.676694 321.572769 
L 1128.169785 324.929167 
L 1135.843438 329.096162 
L 1138.794843 330.552701 
L 1141.155967 331.788131 
L 1143.517091 332.938104 
L 1150.600463 335.577822 
L 1152.961587 336.125524 
L 1155.912992 336.517889 
L 1158.274116 336.541064 
L 1160.63524 336.358233 
L 1162.406083 336.062661 
L 1164.176926 335.565465 
L 1166.53805 334.602785 
L 1171.850579 331.934758 
L 1176.572826 329.587352 
L 1178.343669 328.892031 
L 1180.114512 328.393823 
L 1182.475636 328.02546 
L 1184.246479 328.043188 
L 1186.017322 328.347632 
L 1191.920132 329.643646 
L 1194.871537 329.744152 
L 1199.003504 329.685385 
L 1201.364628 329.410634 
L 1202.54519 329.038402 
L 1203.725752 328.501926 
L 1205.496595 327.25197 
L 1206.086876 325.648354 
L 1206.677157 329.634458 
L 1207.267438 336.582111 
L 1207.857719 339.906957 
L 1208.448 338.862433 
L 1209.038281 341.019733 
L 1209.628562 347.302624 
L 1210.218843 350.670559 
L 1210.809124 349.927762 
L 1211.399405 351.424573 
L 1211.989686 356.250689 
L 1213.170248 358.782573 
L 1214.35081 364.740578 
L 1214.941091 366.280031 
L 1215.531372 366.138779 
L 1216.121653 366.498025 
L 1216.711934 368.811038 
L 1217.892496 376.589797 
L 1219.663339 384.603073 
L 1220.843901 392.631674 
L 1221.434182 395.280436 
L 1222.024463 396.327328 
L 1222.024463 396.327328 
" style="fill:none;stroke:#e50000;stroke-linecap:square;stroke-width:1.5;"/>
   </g>
   <g id="line2d_35">
    <path clip-path="url(#pad726ad60b)" d="M 779.313719 109.7028 
L 783.445686 109.813399 
L 787.577653 110.145093 
L 791.70962 110.697573 
L 795.841587 111.470323 
L 799.973554 112.462622 
L 804.105521 113.673545 
L 808.237488 115.101962 
L 812.369455 116.746541 
L 816.501421 118.605747 
L 821.223669 120.99113 
L 825.945917 123.651665 
L 830.668165 126.58411 
L 835.390413 129.784893 
L 840.112661 133.250113 
L 844.834909 136.975551 
L 850.147438 141.472043 
L 855.459967 146.285186 
L 860.772496 151.407557 
L 866.085025 156.831257 
L 871.987835 163.200815 
L 877.890645 169.919925 
L 883.793455 176.975797 
L 890.286545 185.110167 
L 896.779636 193.617018 
L 903.272727 202.476757 
L 910.356099 212.520395 
L 918.029752 223.815549 
L 925.703405 235.506404 
L 933.967339 248.495925 
L 942.821554 262.819031 
L 952.856331 279.483426 
L 964.071669 298.542325 
L 978.238413 323.07418 
L 1024.870612 404.198325 
L 1036.08595 423.054235 
L 1046.120727 439.485289 
L 1054.974942 453.562992 
L 1063.238876 466.29101 
L 1070.912529 477.71185 
L 1077.995901 487.881311 
L 1085.079273 497.664165 
L 1091.572364 506.269236 
L 1098.065455 514.507087 
L 1103.968264 521.661396 
L 1109.871074 528.482907 
L 1115.773884 534.958635 
L 1121.086413 540.480943 
L 1126.398942 545.704658 
L 1131.711471 550.621725 
L 1137.024 555.224562 
L 1142.336529 559.506073 
L 1147.058777 563.036756 
L 1151.781025 566.304027 
L 1156.503273 569.303904 
L 1161.225521 572.032733 
L 1165.947769 574.48719 
L 1170.670017 576.664283 
L 1174.801983 578.339621 
L 1178.93395 579.799005 
L 1183.065917 581.041072 
L 1187.197884 582.064665 
L 1191.329851 582.868828 
L 1195.461818 583.452811 
L 1199.593785 583.81607 
L 1203.725752 583.958265 
L 1207.857719 583.879264 
L 1211.989686 583.579141 
L 1216.121653 583.058175 
L 1220.25362 582.316853 
L 1221.434182 582.064665 
L 1221.434182 582.064665 
" style="fill:none;stroke:#014d4e;stroke-linecap:square;stroke-width:1.5;"/>
   </g>
   <g id="line2d_36">
    <path clip-path="url(#pad726ad60b)" d="M 779.313719 110.056775 
L 783.445686 110.130359 
L 785.216529 110.501343 
L 788.167934 111.109511 
L 794.070744 112.418553 
L 797.022149 113.273966 
L 799.973554 114.317982 
L 805.286083 116.619597 
L 814.730579 121.277652 
L 818.862545 123.667545 
L 822.404231 125.945966 
L 826.536198 128.87639 
L 830.668165 132.10521 
L 834.800132 135.613744 
L 839.52238 139.91896 
L 844.244628 144.52631 
L 860.772496 161.423319 
L 867.265587 168.369728 
L 872.578116 174.366551 
L 877.890645 180.720944 
L 882.612893 186.705871 
L 887.33514 192.981752 
L 893.23795 201.196014 
L 899.14076 209.754431 
L 912.717223 230.079856 
L 922.752 245.445609 
L 926.883967 252.130303 
L 931.606215 260.179096 
L 936.918744 269.731968 
L 945.772959 286.232414 
L 952.856331 299.386568 
L 960.529983 313.256408 
L 968.793917 327.81937 
L 977.648132 342.879481 
L 990.634314 364.924842 
L 998.898248 379.459368 
L 1014.245554 407.007039 
L 1032.544264 440.160211 
L 1039.037355 452.056079 
L 1053.204099 477.714597 
L 1062.058314 493.438324 
L 1069.731967 506.644092 
L 1075.634777 516.367514 
L 1080.357025 523.76231 
L 1084.488992 529.911231 
L 1088.620959 535.712226 
L 1092.162645 540.360569 
L 1095.704331 544.694437 
L 1099.246017 548.676211 
L 1102.197421 551.734167 
L 1108.100231 557.262117 
L 1113.41276 561.291778 
L 1118.135008 564.1689 
L 1121.086413 565.739835 
L 1125.21838 567.765199 
L 1129.350347 569.408635 
L 1133.482314 570.886819 
L 1141.155967 573.313935 
L 1142.92681 573.855227 
L 1148.239339 575.769468 
L 1150.600463 576.604395 
L 1154.142149 578.272408 
L 1156.503273 579.573803 
L 1159.454678 581.444204 
L 1162.406083 583.587561 
L 1164.767207 585.615703 
L 1168.308893 588.999967 
L 1173.621421 593.997508 
L 1176.572826 596.487461 
L 1178.343669 597.733109 
L 1180.114512 598.732961 
L 1181.885355 599.514643 
L 1183.656198 599.989173 
L 1185.427041 600.13683 
L 1187.788165 600.046767 
L 1190.149289 600.006174 
L 1192.510413 600.190103 
L 1199.003504 600.967743 
L 1200.774347 601.300291 
L 1202.54519 601.970548 
L 1203.725752 602.662937 
L 1204.906314 603.537955 
L 1205.496595 605.1348 
L 1206.086876 601.13741 
L 1206.677157 594.173956 
L 1207.267438 590.828796 
L 1207.857719 591.848492 
L 1208.448 589.661851 
L 1209.038281 583.345107 
L 1209.628562 579.938807 
L 1210.218843 580.638727 
L 1210.809124 579.09453 
L 1211.399405 574.216518 
L 1212.579967 571.567317 
L 1213.760529 565.473971 
L 1214.35081 563.860091 
L 1214.941091 563.922415 
L 1215.531372 563.479739 
L 1216.121653 561.078798 
L 1217.302215 553.110692 
L 1219.073058 544.779696 
L 1220.25362 536.516841 
L 1220.843901 533.744224 
L 1221.434182 532.568998 
L 1221.434182 532.568998 
" style="fill:none;stroke:#ffff14;stroke-linecap:square;stroke-width:1.5;"/>
   </g>
   <g id="patch_8">
    <path d="M 757.178182 629.9064 
L 757.178182 84.9312 
" style="fill:none;stroke:#000000;stroke-linecap:square;stroke-linejoin:miter;stroke-width:0.8;"/>
   </g>
   <g id="patch_9">
    <path d="M 1244.16 629.9064 
L 1244.16 84.9312 
" style="fill:none;stroke:#000000;stroke-linecap:square;stroke-linejoin:miter;stroke-width:0.8;"/>
   </g>
   <g id="patch_10">
    <path d="M 757.178182 629.9064 
L 1244.16 629.9064 
" style="fill:none;stroke:#000000;stroke-linecap:square;stroke-linejoin:miter;stroke-width:0.8;"/>
   </g>
   <g id="patch_11">
    <path d="M 757.178182 84.9312 
L 1244.16 84.9312 
" style="fill:none;stroke:#000000;stroke-linecap:square;stroke-linejoin:miter;stroke-width:0.8;"/>
   </g>
   <g id="text_30">
    <!-- Left abduction -->
    <defs>
     <path d="M 9.8125 72.90625 
L 19.671875 72.90625 
L 19.671875 8.296875 
L 55.171875 8.296875 
L 55.171875 0 
L 9.8125 0 
z
" id="DejaVuSans-76"/>
     <path d="M 56.203125 29.59375 
L 56.203125 25.203125 
L 14.890625 25.203125 
Q 15.484375 15.921875 20.484375 11.0625 
Q 25.484375 6.203125 34.421875 6.203125 
Q 39.59375 6.203125 44.453125 7.46875 
Q 49.3125 8.734375 54.109375 11.28125 
L 54.109375 2.78125 
Q 49.265625 0.734375 44.1875 -0.34375 
Q 39.109375 -1.421875 33.890625 -1.421875 
Q 20.796875 -1.421875 13.15625 6.1875 
Q 5.515625 13.8125 5.515625 26.8125 
Q 5.515625 40.234375 12.765625 48.109375 
Q 20.015625 56 32.328125 56 
Q 43.359375 56 49.78125 48.890625 
Q 56.203125 41.796875 56.203125 29.59375 
z
M 47.21875 32.234375 
Q 47.125 39.59375 43.09375 43.984375 
Q 39.0625 48.390625 32.421875 48.390625 
Q 24.90625 48.390625 20.390625 44.140625 
Q 15.875 39.890625 15.1875 32.171875 
z
" id="DejaVuSans-101"/>
     <path d="M 37.109375 75.984375 
L 37.109375 68.5 
L 28.515625 68.5 
Q 23.6875 68.5 21.796875 66.546875 
Q 19.921875 64.59375 19.921875 59.515625 
L 19.921875 54.6875 
L 34.71875 54.6875 
L 34.71875 47.703125 
L 19.921875 47.703125 
L 19.921875 0 
L 10.890625 0 
L 10.890625 47.703125 
L 2.296875 47.703125 
L 2.296875 54.6875 
L 10.890625 54.6875 
L 10.890625 58.5 
Q 10.890625 67.625 15.140625 71.796875 
Q 19.390625 75.984375 28.609375 75.984375 
z
" id="DejaVuSans-102"/>
    </defs>
    <g transform="translate(957.375341 78.9312)scale(0.12 -0.12)">
     <use xlink:href="#DejaVuSans-76"/>
     <use x="55.697266" xlink:href="#DejaVuSans-101"/>
     <use x="117.220703" xlink:href="#DejaVuSans-102"/>
     <use x="152.410156" xlink:href="#DejaVuSans-116"/>
     <use x="191.619141" xlink:href="#DejaVuSans-32"/>
     <use x="223.40625" xlink:href="#DejaVuSans-97"/>
     <use x="284.685547" xlink:href="#DejaVuSans-98"/>
     <use x="348.162109" xlink:href="#DejaVuSans-100"/>
     <use x="411.638672" xlink:href="#DejaVuSans-117"/>
     <use x="475.017578" xlink:href="#DejaVuSans-99"/>
     <use x="529.998047" xlink:href="#DejaVuSans-116"/>
     <use x="569.207031" xlink:href="#DejaVuSans-105"/>
     <use x="596.990234" xlink:href="#DejaVuSans-111"/>
     <use x="658.171875" xlink:href="#DejaVuSans-110"/>
    </g>
   </g>
  </g>
 </g>
 <defs>
  <clipPath id="p31241e7ae0">
   <rect height="544.9752" width="486.981818" x="172.8" y="84.9312"/>
  </clipPath>
  <clipPath id="pad726ad60b">
   <rect height="544.9752" width="486.981818" x="757.178182" y="84.9312"/>
  </clipPath>
 </defs>
</svg>
