<?xml version="1.0" encoding="utf-8" standalone="no"?>
<!DOCTYPE svg PUBLIC "-//W3C//DTD SVG 1.1//EN"
  "http://www.w3.org/Graphics/SVG/1.1/DTD/svg11.dtd">
<!-- Created with matplotlib (https://matplotlib.org/) -->
<svg height="707.76pt" version="1.1" viewBox="0 0 1382.4 707.76" width="1382.4pt" xmlns="http://www.w3.org/2000/svg" xmlns:xlink="http://www.w3.org/1999/xlink">
 <defs>
  <style type="text/css">
*{stroke-linecap:butt;stroke-linejoin:round;}
  </style>
 </defs>
 <g id="figure_1">
  <g id="patch_1">
   <path d="M 0 707.76 
L 1382.4 707.76 
L 1382.4 0 
L 0 0 
z
" style="fill:#ffffff;"/>
  </g>
  <g id="axes_1">
   <g id="patch_2">
    <path d="M 172.8 629.9064 
L 659.781818 629.9064 
L 659.781818 84.9312 
L 172.8 84.9312 
z
" style="fill:#ffffff;"/>
   </g>
   <g id="matplotlib.axis_1">
    <g id="xtick_1">
     <g id="line2d_1">
      <defs>
       <path d="M 0 0 
L 0 3.5 
" id="mb77b3038b1" style="stroke:#000000;stroke-width:0.8;"/>
      </defs>
      <g>
       <use style="stroke:#000000;stroke-width:0.8;" x="194.935537" xlink:href="#mb77b3038b1" y="629.9064"/>
      </g>
     </g>
     <g id="text_1">
      <!-- 0 -->
      <defs>
       <path d="M 31.78125 66.40625 
Q 24.171875 66.40625 20.328125 58.90625 
Q 16.5 51.421875 16.5 36.375 
Q 16.5 21.390625 20.328125 13.890625 
Q 24.171875 6.390625 31.78125 6.390625 
Q 39.453125 6.390625 43.28125 13.890625 
Q 47.125 21.390625 47.125 36.375 
Q 47.125 51.421875 43.28125 58.90625 
Q 39.453125 66.40625 31.78125 66.40625 
z
M 31.78125 74.21875 
Q 44.046875 74.21875 50.515625 64.515625 
Q 56.984375 54.828125 56.984375 36.375 
Q 56.984375 17.96875 50.515625 8.265625 
Q 44.046875 -1.421875 31.78125 -1.421875 
Q 19.53125 -1.421875 13.0625 8.265625 
Q 6.59375 17.96875 6.59375 36.375 
Q 6.59375 54.828125 13.0625 64.515625 
Q 19.53125 74.21875 31.78125 74.21875 
z
" id="DejaVuSans-48"/>
      </defs>
      <g transform="translate(191.754287 644.504838)scale(0.1 -0.1)">
       <use xlink:href="#DejaVuSans-48"/>
      </g>
     </g>
    </g>
    <g id="xtick_2">
     <g id="line2d_2">
      <g>
       <use style="stroke:#000000;stroke-width:0.8;" x="253.963636" xlink:href="#mb77b3038b1" y="629.9064"/>
      </g>
     </g>
     <g id="text_2">
      <!-- 100 -->
      <defs>
       <path d="M 12.40625 8.296875 
L 28.515625 8.296875 
L 28.515625 63.921875 
L 10.984375 60.40625 
L 10.984375 69.390625 
L 28.421875 72.90625 
L 38.28125 72.90625 
L 38.28125 8.296875 
L 54.390625 8.296875 
L 54.390625 0 
L 12.40625 0 
z
" id="DejaVuSans-49"/>
      </defs>
      <g transform="translate(244.419886 644.504838)scale(0.1 -0.1)">
       <use xlink:href="#DejaVuSans-49"/>
       <use x="63.623047" xlink:href="#DejaVuSans-48"/>
       <use x="127.246094" xlink:href="#DejaVuSans-48"/>
      </g>
     </g>
    </g>
    <g id="xtick_3">
     <g id="line2d_3">
      <g>
       <use style="stroke:#000000;stroke-width:0.8;" x="312.991736" xlink:href="#mb77b3038b1" y="629.9064"/>
      </g>
     </g>
     <g id="text_3">
      <!-- 200 -->
      <defs>
       <path d="M 19.1875 8.296875 
L 53.609375 8.296875 
L 53.609375 0 
L 7.328125 0 
L 7.328125 8.296875 
Q 12.9375 14.109375 22.625 23.890625 
Q 32.328125 33.6875 34.8125 36.53125 
Q 39.546875 41.84375 41.421875 45.53125 
Q 43.3125 49.21875 43.3125 52.78125 
Q 43.3125 58.59375 39.234375 62.25 
Q 35.15625 65.921875 28.609375 65.921875 
Q 23.96875 65.921875 18.8125 64.3125 
Q 13.671875 62.703125 7.8125 59.421875 
L 7.8125 69.390625 
Q 13.765625 71.78125 18.9375 73 
Q 24.125 74.21875 28.421875 74.21875 
Q 39.75 74.21875 46.484375 68.546875 
Q 53.21875 62.890625 53.21875 53.421875 
Q 53.21875 48.921875 51.53125 44.890625 
Q 49.859375 40.875 45.40625 35.40625 
Q 44.1875 33.984375 37.640625 27.21875 
Q 31.109375 20.453125 19.1875 8.296875 
z
" id="DejaVuSans-50"/>
      </defs>
      <g transform="translate(303.447986 644.504838)scale(0.1 -0.1)">
       <use xlink:href="#DejaVuSans-50"/>
       <use x="63.623047" xlink:href="#DejaVuSans-48"/>
       <use x="127.246094" xlink:href="#DejaVuSans-48"/>
      </g>
     </g>
    </g>
    <g id="xtick_4">
     <g id="line2d_4">
      <g>
       <use style="stroke:#000000;stroke-width:0.8;" x="372.019835" xlink:href="#mb77b3038b1" y="629.9064"/>
      </g>
     </g>
     <g id="text_4">
      <!-- 300 -->
      <defs>
       <path d="M 40.578125 39.3125 
Q 47.65625 37.796875 51.625 33 
Q 55.609375 28.21875 55.609375 21.1875 
Q 55.609375 10.40625 48.1875 4.484375 
Q 40.765625 -1.421875 27.09375 -1.421875 
Q 22.515625 -1.421875 17.65625 -0.515625 
Q 12.796875 0.390625 7.625 2.203125 
L 7.625 11.71875 
Q 11.71875 9.328125 16.59375 8.109375 
Q 21.484375 6.890625 26.8125 6.890625 
Q 36.078125 6.890625 40.9375 10.546875 
Q 45.796875 14.203125 45.796875 21.1875 
Q 45.796875 27.640625 41.28125 31.265625 
Q 36.765625 34.90625 28.71875 34.90625 
L 20.21875 34.90625 
L 20.21875 43.015625 
L 29.109375 43.015625 
Q 36.375 43.015625 40.234375 45.921875 
Q 44.09375 48.828125 44.09375 54.296875 
Q 44.09375 59.90625 40.109375 62.90625 
Q 36.140625 65.921875 28.71875 65.921875 
Q 24.65625 65.921875 20.015625 65.03125 
Q 15.375 64.15625 9.8125 62.3125 
L 9.8125 71.09375 
Q 15.4375 72.65625 20.34375 73.4375 
Q 25.25 74.21875 29.59375 74.21875 
Q 40.828125 74.21875 47.359375 69.109375 
Q 53.90625 64.015625 53.90625 55.328125 
Q 53.90625 49.265625 50.4375 45.09375 
Q 46.96875 40.921875 40.578125 39.3125 
z
" id="DejaVuSans-51"/>
      </defs>
      <g transform="translate(362.476085 644.504838)scale(0.1 -0.1)">
       <use xlink:href="#DejaVuSans-51"/>
       <use x="63.623047" xlink:href="#DejaVuSans-48"/>
       <use x="127.246094" xlink:href="#DejaVuSans-48"/>
      </g>
     </g>
    </g>
    <g id="xtick_5">
     <g id="line2d_5">
      <g>
       <use style="stroke:#000000;stroke-width:0.8;" x="431.047934" xlink:href="#mb77b3038b1" y="629.9064"/>
      </g>
     </g>
     <g id="text_5">
      <!-- 400 -->
      <defs>
       <path d="M 37.796875 64.3125 
L 12.890625 25.390625 
L 37.796875 25.390625 
z
M 35.203125 72.90625 
L 47.609375 72.90625 
L 47.609375 25.390625 
L 58.015625 25.390625 
L 58.015625 17.1875 
L 47.609375 17.1875 
L 47.609375 0 
L 37.796875 0 
L 37.796875 17.1875 
L 4.890625 17.1875 
L 4.890625 26.703125 
z
" id="DejaVuSans-52"/>
      </defs>
      <g transform="translate(421.504184 644.504838)scale(0.1 -0.1)">
       <use xlink:href="#DejaVuSans-52"/>
       <use x="63.623047" xlink:href="#DejaVuSans-48"/>
       <use x="127.246094" xlink:href="#DejaVuSans-48"/>
      </g>
     </g>
    </g>
    <g id="xtick_6">
     <g id="line2d_6">
      <g>
       <use style="stroke:#000000;stroke-width:0.8;" x="490.076033" xlink:href="#mb77b3038b1" y="629.9064"/>
      </g>
     </g>
     <g id="text_6">
      <!-- 500 -->
      <defs>
       <path d="M 10.796875 72.90625 
L 49.515625 72.90625 
L 49.515625 64.59375 
L 19.828125 64.59375 
L 19.828125 46.734375 
Q 21.96875 47.46875 24.109375 47.828125 
Q 26.265625 48.1875 28.421875 48.1875 
Q 40.625 48.1875 47.75 41.5 
Q 54.890625 34.8125 54.890625 23.390625 
Q 54.890625 11.625 47.5625 5.09375 
Q 40.234375 -1.421875 26.90625 -1.421875 
Q 22.3125 -1.421875 17.546875 -0.640625 
Q 12.796875 0.140625 7.71875 1.703125 
L 7.71875 11.625 
Q 12.109375 9.234375 16.796875 8.0625 
Q 21.484375 6.890625 26.703125 6.890625 
Q 35.15625 6.890625 40.078125 11.328125 
Q 45.015625 15.765625 45.015625 23.390625 
Q 45.015625 31 40.078125 35.4375 
Q 35.15625 39.890625 26.703125 39.890625 
Q 22.75 39.890625 18.8125 39.015625 
Q 14.890625 38.140625 10.796875 36.28125 
z
" id="DejaVuSans-53"/>
      </defs>
      <g transform="translate(480.532283 644.504838)scale(0.1 -0.1)">
       <use xlink:href="#DejaVuSans-53"/>
       <use x="63.623047" xlink:href="#DejaVuSans-48"/>
       <use x="127.246094" xlink:href="#DejaVuSans-48"/>
      </g>
     </g>
    </g>
    <g id="xtick_7">
     <g id="line2d_7">
      <g>
       <use style="stroke:#000000;stroke-width:0.8;" x="549.104132" xlink:href="#mb77b3038b1" y="629.9064"/>
      </g>
     </g>
     <g id="text_7">
      <!-- 600 -->
      <defs>
       <path d="M 33.015625 40.375 
Q 26.375 40.375 22.484375 35.828125 
Q 18.609375 31.296875 18.609375 23.390625 
Q 18.609375 15.53125 22.484375 10.953125 
Q 26.375 6.390625 33.015625 6.390625 
Q 39.65625 6.390625 43.53125 10.953125 
Q 47.40625 15.53125 47.40625 23.390625 
Q 47.40625 31.296875 43.53125 35.828125 
Q 39.65625 40.375 33.015625 40.375 
z
M 52.59375 71.296875 
L 52.59375 62.3125 
Q 48.875 64.0625 45.09375 64.984375 
Q 41.3125 65.921875 37.59375 65.921875 
Q 27.828125 65.921875 22.671875 59.328125 
Q 17.53125 52.734375 16.796875 39.40625 
Q 19.671875 43.65625 24.015625 45.921875 
Q 28.375 48.1875 33.59375 48.1875 
Q 44.578125 48.1875 50.953125 41.515625 
Q 57.328125 34.859375 57.328125 23.390625 
Q 57.328125 12.15625 50.6875 5.359375 
Q 44.046875 -1.421875 33.015625 -1.421875 
Q 20.359375 -1.421875 13.671875 8.265625 
Q 6.984375 17.96875 6.984375 36.375 
Q 6.984375 53.65625 15.1875 63.9375 
Q 23.390625 74.21875 37.203125 74.21875 
Q 40.921875 74.21875 44.703125 73.484375 
Q 48.484375 72.75 52.59375 71.296875 
z
" id="DejaVuSans-54"/>
      </defs>
      <g transform="translate(539.560382 644.504838)scale(0.1 -0.1)">
       <use xlink:href="#DejaVuSans-54"/>
       <use x="63.623047" xlink:href="#DejaVuSans-48"/>
       <use x="127.246094" xlink:href="#DejaVuSans-48"/>
      </g>
     </g>
    </g>
    <g id="xtick_8">
     <g id="line2d_8">
      <g>
       <use style="stroke:#000000;stroke-width:0.8;" x="608.132231" xlink:href="#mb77b3038b1" y="629.9064"/>
      </g>
     </g>
     <g id="text_8">
      <!-- 700 -->
      <defs>
       <path d="M 8.203125 72.90625 
L 55.078125 72.90625 
L 55.078125 68.703125 
L 28.609375 0 
L 18.3125 0 
L 43.21875 64.59375 
L 8.203125 64.59375 
z
" id="DejaVuSans-55"/>
      </defs>
      <g transform="translate(598.588481 644.504838)scale(0.1 -0.1)">
       <use xlink:href="#DejaVuSans-55"/>
       <use x="63.623047" xlink:href="#DejaVuSans-48"/>
       <use x="127.246094" xlink:href="#DejaVuSans-48"/>
      </g>
     </g>
    </g>
   </g>
   <g id="matplotlib.axis_2">
    <g id="ytick_1">
     <g id="line2d_9">
      <defs>
       <path d="M 0 0 
L -3.5 0 
" id="mb314e26951" style="stroke:#000000;stroke-width:0.8;"/>
      </defs>
      <g>
       <use style="stroke:#000000;stroke-width:0.8;" x="172.8" xlink:href="#mb314e26951" y="614.941627"/>
      </g>
     </g>
     <g id="text_9">
      <!-- −0.6 -->
      <defs>
       <path d="M 10.59375 35.5 
L 73.1875 35.5 
L 73.1875 27.203125 
L 10.59375 27.203125 
z
" id="DejaVuSans-8722"/>
       <path d="M 10.6875 12.40625 
L 21 12.40625 
L 21 0 
L 10.6875 0 
z
" id="DejaVuSans-46"/>
      </defs>
      <g transform="translate(141.517187 618.740845)scale(0.1 -0.1)">
       <use xlink:href="#DejaVuSans-8722"/>
       <use x="83.789062" xlink:href="#DejaVuSans-48"/>
       <use x="147.412109" xlink:href="#DejaVuSans-46"/>
       <use x="179.199219" xlink:href="#DejaVuSans-54"/>
      </g>
     </g>
    </g>
    <g id="ytick_2">
     <g id="line2d_10">
      <g>
       <use style="stroke:#000000;stroke-width:0.8;" x="172.8" xlink:href="#mb314e26951" y="525.009377"/>
      </g>
     </g>
     <g id="text_10">
      <!-- −0.4 -->
      <g transform="translate(141.517187 528.808596)scale(0.1 -0.1)">
       <use xlink:href="#DejaVuSans-8722"/>
       <use x="83.789062" xlink:href="#DejaVuSans-48"/>
       <use x="147.412109" xlink:href="#DejaVuSans-46"/>
       <use x="179.199219" xlink:href="#DejaVuSans-52"/>
      </g>
     </g>
    </g>
    <g id="ytick_3">
     <g id="line2d_11">
      <g>
       <use style="stroke:#000000;stroke-width:0.8;" x="172.8" xlink:href="#mb314e26951" y="435.077128"/>
      </g>
     </g>
     <g id="text_11">
      <!-- −0.2 -->
      <g transform="translate(141.517187 438.876347)scale(0.1 -0.1)">
       <use xlink:href="#DejaVuSans-8722"/>
       <use x="83.789062" xlink:href="#DejaVuSans-48"/>
       <use x="147.412109" xlink:href="#DejaVuSans-46"/>
       <use x="179.199219" xlink:href="#DejaVuSans-50"/>
      </g>
     </g>
    </g>
    <g id="ytick_4">
     <g id="line2d_12">
      <g>
       <use style="stroke:#000000;stroke-width:0.8;" x="172.8" xlink:href="#mb314e26951" y="345.144878"/>
      </g>
     </g>
     <g id="text_12">
      <!-- 0.0 -->
      <g transform="translate(149.896875 348.944097)scale(0.1 -0.1)">
       <use xlink:href="#DejaVuSans-48"/>
       <use x="63.623047" xlink:href="#DejaVuSans-46"/>
       <use x="95.410156" xlink:href="#DejaVuSans-48"/>
      </g>
     </g>
    </g>
    <g id="ytick_5">
     <g id="line2d_13">
      <g>
       <use style="stroke:#000000;stroke-width:0.8;" x="172.8" xlink:href="#mb314e26951" y="255.212629"/>
      </g>
     </g>
     <g id="text_13">
      <!-- 0.2 -->
      <g transform="translate(149.896875 259.011848)scale(0.1 -0.1)">
       <use xlink:href="#DejaVuSans-48"/>
       <use x="63.623047" xlink:href="#DejaVuSans-46"/>
       <use x="95.410156" xlink:href="#DejaVuSans-50"/>
      </g>
     </g>
    </g>
    <g id="ytick_6">
     <g id="line2d_14">
      <g>
       <use style="stroke:#000000;stroke-width:0.8;" x="172.8" xlink:href="#mb314e26951" y="165.28038"/>
      </g>
     </g>
     <g id="text_14">
      <!-- 0.4 -->
      <g transform="translate(149.896875 169.079598)scale(0.1 -0.1)">
       <use xlink:href="#DejaVuSans-48"/>
       <use x="63.623047" xlink:href="#DejaVuSans-46"/>
       <use x="95.410156" xlink:href="#DejaVuSans-52"/>
      </g>
     </g>
    </g>
   </g>
   <g id="line2d_15">
    <path clip-path="url(#p0424405719)" d="M 194.935537 345.126929 
L 197.296661 345.182156 
L 200.248066 345.327229 
L 203.199471 345.312669 
L 206.150876 345.348476 
L 212.053686 345.349271 
L 233.894083 345.385172 
L 347.228033 345.540001 
L 360.804496 345.445978 
L 412.158942 345.602286 
L 481.812099 345.780678 
L 492.437157 345.86846 
L 516.638678 346.276104 
L 531.395702 346.77054 
L 535.527669 347.09089 
L 537.298512 347.54935 
L 539.659636 347.763077 
L 546.152727 348.237233 
L 549.694413 348.585233 
L 556.777785 349.335744 
L 563.270876 349.768125 
L 570.944529 350.080828 
L 579.208463 350.203241 
L 585.701554 350.240709 
L 592.784926 350.195295 
L 596.326612 350.241677 
L 604.590545 350.267255 
L 605.771107 350.616686 
L 606.951669 350.690735 
L 608.132231 350.491984 
L 609.312793 340.936617 
L 609.903074 337.915717 
L 610.493355 336.695802 
L 611.083636 337.149114 
L 611.673917 338.79119 
L 612.854479 343.091815 
L 613.44476 344.757819 
L 614.035041 345.859707 
L 614.625322 346.519686 
L 615.805884 347.520488 
L 616.396165 348.269209 
L 618.167008 351.306094 
L 618.757289 351.943365 
L 619.34757 352.096831 
L 619.937851 351.726773 
L 620.528132 350.917008 
L 622.889256 346.676243 
L 623.479537 346.227981 
L 624.069818 346.123792 
L 624.660099 346.347811 
L 627.021223 347.981544 
L 627.611504 348.850956 
L 628.201785 349.396701 
L 628.792066 349.567529 
L 629.382347 349.417726 
L 631.15319 348.400172 
L 631.743471 348.282744 
L 632.333752 348.356182 
L 633.514314 348.905531 
L 634.694876 349.478599 
L 635.285157 349.598035 
L 635.875438 349.579713 
L 637.056 349.251929 
L 637.056 349.251929 
" style="fill:none;stroke:#ff796c;stroke-linecap:square;stroke-width:1.5;"/>
   </g>
   <g id="line2d_16">
    <path clip-path="url(#p0424405719)" d="M 194.935537 345.144878 
L 195.525818 344.752344 
L 207.921719 344.704814 
L 213.234248 344.28306 
L 230.352397 342.577566 
L 248.060826 340.531654 
L 304.137521 334.01971 
L 324.207074 332.02201 
L 343.096066 330.389909 
L 365.526744 328.652779 
L 380.283769 328.046482 
L 413.929785 327.04759 
L 428.68681 326.941781 
L 440.49243 327.028834 
L 446.985521 327.135125 
L 456.430017 327.366554 
L 487.714909 328.844117 
L 501.291372 329.823779 
L 514.277554 330.980819 
L 528.444298 332.495705 
L 535.527669 333.365976 
L 537.298512 334.248137 
L 539.069355 334.795852 
L 541.430479 335.163594 
L 550.284694 336.21259 
L 556.777785 337.342973 
L 560.319471 337.729828 
L 565.632 338.155185 
L 576.257058 338.772968 
L 588.062678 339.48962 
L 593.965488 339.886581 
L 598.097455 340.299985 
L 605.180826 341.17282 
L 606.361388 341.8384 
L 607.54195 342.102073 
L 608.722512 341.998733 
L 609.903074 328.267292 
L 610.493355 323.537666 
L 611.083636 320.821399 
L 611.673917 320.092936 
L 612.264198 321.03621 
L 612.854479 323.167904 
L 614.035041 329.100375 
L 616.396165 341.316628 
L 617.576727 346.752087 
L 618.167008 348.964655 
L 618.757289 350.59313 
L 619.34757 351.478152 
L 619.937851 351.545397 
L 620.528132 350.82388 
L 621.118413 349.451997 
L 623.479537 342.086364 
L 624.069818 340.917703 
L 624.660099 340.219927 
L 625.25038 340.011488 
L 625.840661 340.192557 
L 626.430942 340.65974 
L 627.611504 342.001354 
L 628.792066 344.00872 
L 629.382347 344.660065 
L 629.972628 345.050149 
L 630.562909 345.235196 
L 633.514314 345.639065 
L 635.285157 346.112129 
L 636.465719 346.117256 
L 637.646281 345.89704 
L 637.646281 345.89704 
" style="fill:none;stroke:#e50000;stroke-linecap:square;stroke-width:1.5;"/>
   </g>
   <g id="line2d_17">
    <path clip-path="url(#p0424405719)" d="M 194.935537 109.7028 
L 199.067504 109.812612 
L 203.199471 110.141947 
L 207.331438 110.690497 
L 211.463405 111.45775 
L 215.595372 112.44299 
L 219.727339 113.645299 
L 223.859306 115.063556 
L 227.991273 116.696436 
L 232.12324 118.542417 
L 236.845488 120.910832 
L 241.567736 123.552441 
L 246.289983 126.464027 
L 251.012231 129.642041 
L 255.734479 133.082613 
L 260.456727 136.78155 
L 265.769256 141.246057 
L 271.081785 146.024962 
L 276.394314 151.110896 
L 281.706843 156.496015 
L 287.609653 162.820265 
L 293.512463 169.491579 
L 299.415273 176.49726 
L 305.908364 184.573767 
L 312.401455 193.020106 
L 318.894545 201.816822 
L 325.977917 211.789017 
L 333.65157 223.003824 
L 341.325223 234.611518 
L 349.589157 247.508639 
L 358.443372 261.72986 
L 368.478149 278.275715 
L 379.693488 297.199041 
L 393.860231 321.556393 
L 440.49243 402.103472 
L 451.707769 420.825254 
L 461.742545 437.139427 
L 470.59676 451.116991 
L 478.860694 463.754471 
L 486.534347 475.094069 
L 493.617719 485.191192 
L 500.701091 494.904457 
L 507.194182 503.448317 
L 513.687273 511.627569 
L 519.590083 518.730987 
L 525.492893 525.503974 
L 531.395702 531.933638 
L 536.708231 537.416664 
L 542.02076 542.60322 
L 547.333289 547.48531 
L 552.645818 552.055406 
L 557.958347 556.306461 
L 562.680595 559.812029 
L 567.402843 563.056058 
L 572.125091 566.034597 
L 576.847339 568.744015 
L 581.569587 571.181012 
L 586.291835 573.342618 
L 590.423802 575.00604 
L 594.555769 576.455042 
L 598.687736 577.688274 
L 602.819702 578.704586 
L 606.951669 579.503028 
L 611.083636 580.082857 
L 615.215603 580.443532 
L 619.34757 580.584716 
L 623.479537 580.506277 
L 627.611504 580.208288 
L 631.743471 579.691029 
L 635.875438 578.95498 
L 637.056 578.704586 
L 637.056 578.704586 
" style="fill:none;stroke:#014d4e;stroke-linecap:square;stroke-width:1.5;"/>
   </g>
   <g id="line2d_18">
    <path clip-path="url(#p0424405719)" d="M 194.935537 110.095335 
L 200.248066 110.159891 
L 204.380033 110.575055 
L 207.331438 111.130561 
L 210.873124 112.029853 
L 215.005091 113.371444 
L 219.137058 114.947954 
L 223.269025 116.739142 
L 227.400992 118.763613 
L 231.532959 121.029233 
L 236.255207 123.902242 
L 240.977455 127.05894 
L 245.699702 130.490158 
L 250.42195 134.193221 
L 255.144198 138.166013 
L 260.456727 142.950819 
L 265.769256 148.057455 
L 271.081785 153.472873 
L 276.394314 159.188088 
L 282.297124 165.879527 
L 288.199934 172.914768 
L 294.102744 180.28176 
L 300.005554 187.963807 
L 306.498645 196.761545 
L 313.582017 206.752079 
L 321.255669 218.000946 
L 328.929322 229.659045 
L 337.193256 242.640662 
L 346.047471 256.98037 
L 354.901686 271.847153 
L 372.610116 302.027837 
L 386.186579 325.644614 
L 429.277091 401.193252 
L 449.346645 434.872428 
L 462.923107 456.558014 
L 469.416198 466.539676 
L 478.270413 479.695817 
L 487.124628 492.25025 
L 493.617719 501.055871 
L 500.11081 509.478676 
L 506.01362 516.798158 
L 511.91643 523.780655 
L 518.409521 531.035645 
L 524.902612 537.82977 
L 530.805421 543.605667 
L 534.937388 547.400424 
L 537.298512 548.687174 
L 539.069355 549.997956 
L 543.791603 553.956397 
L 547.333289 556.810379 
L 550.284694 558.882802 
L 559.72919 565.066484 
L 567.402843 569.889063 
L 572.715372 572.915364 
L 577.43762 575.346786 
L 581.569587 577.261915 
L 585.701554 578.885682 
L 589.833521 580.239525 
L 595.736331 581.868205 
L 599.278017 582.48373 
L 603.409983 582.920321 
L 604.590545 583.04556 
L 605.771107 582.603659 
L 606.951669 582.545834 
L 608.132231 582.837174 
L 609.312793 596.738754 
L 609.903074 601.546747 
L 610.493355 604.336911 
L 611.083636 605.1348 
L 611.673917 604.256479 
L 612.264198 602.185263 
L 613.44476 596.360322 
L 615.805884 584.305395 
L 616.986446 578.923719 
L 617.576727 576.731321 
L 618.167008 575.118534 
L 618.757289 574.244718 
L 619.34757 574.184197 
L 619.937851 574.907955 
L 620.528132 576.277597 
L 622.889256 583.589443 
L 623.479537 584.733452 
L 624.069818 585.402096 
L 624.660099 585.576922 
L 625.25038 585.357761 
L 625.840661 584.848006 
L 627.021223 583.407816 
L 628.201785 581.283969 
L 628.792066 580.56767 
L 629.382347 580.108161 
L 630.562909 579.70452 
L 631.743471 579.451321 
L 632.924033 579.008842 
L 634.694876 578.220318 
L 635.875438 577.982603 
L 637.056 577.952424 
L 637.056 577.952424 
" style="fill:none;stroke:#ffff14;stroke-linecap:square;stroke-width:1.5;"/>
   </g>
   <g id="patch_3">
    <path d="M 172.8 629.9064 
L 172.8 84.9312 
" style="fill:none;stroke:#000000;stroke-linecap:square;stroke-linejoin:miter;stroke-width:0.8;"/>
   </g>
   <g id="patch_4">
    <path d="M 659.781818 629.9064 
L 659.781818 84.9312 
" style="fill:none;stroke:#000000;stroke-linecap:square;stroke-linejoin:miter;stroke-width:0.8;"/>
   </g>
   <g id="patch_5">
    <path d="M 172.8 629.9064 
L 659.781818 629.9064 
" style="fill:none;stroke:#000000;stroke-linecap:square;stroke-linejoin:miter;stroke-width:0.8;"/>
   </g>
   <g id="patch_6">
    <path d="M 172.8 84.9312 
L 659.781818 84.9312 
" style="fill:none;stroke:#000000;stroke-linecap:square;stroke-linejoin:miter;stroke-width:0.8;"/>
   </g>
   <g id="text_15">
    <!-- Right abduction -->
    <defs>
     <path d="M 44.390625 34.1875 
Q 47.5625 33.109375 50.5625 29.59375 
Q 53.5625 26.078125 56.59375 19.921875 
L 66.609375 0 
L 56 0 
L 46.6875 18.703125 
Q 43.0625 26.03125 39.671875 28.421875 
Q 36.28125 30.8125 30.421875 30.8125 
L 19.671875 30.8125 
L 19.671875 0 
L 9.8125 0 
L 9.8125 72.90625 
L 32.078125 72.90625 
Q 44.578125 72.90625 50.734375 67.671875 
Q 56.890625 62.453125 56.890625 51.90625 
Q 56.890625 45.015625 53.6875 40.46875 
Q 50.484375 35.9375 44.390625 34.1875 
z
M 19.671875 64.796875 
L 19.671875 38.921875 
L 32.078125 38.921875 
Q 39.203125 38.921875 42.84375 42.21875 
Q 46.484375 45.515625 46.484375 51.90625 
Q 46.484375 58.296875 42.84375 61.546875 
Q 39.203125 64.796875 32.078125 64.796875 
z
" id="DejaVuSans-82"/>
     <path d="M 9.421875 54.6875 
L 18.40625 54.6875 
L 18.40625 0 
L 9.421875 0 
z
M 9.421875 75.984375 
L 18.40625 75.984375 
L 18.40625 64.59375 
L 9.421875 64.59375 
z
" id="DejaVuSans-105"/>
     <path d="M 45.40625 27.984375 
Q 45.40625 37.75 41.375 43.109375 
Q 37.359375 48.484375 30.078125 48.484375 
Q 22.859375 48.484375 18.828125 43.109375 
Q 14.796875 37.75 14.796875 27.984375 
Q 14.796875 18.265625 18.828125 12.890625 
Q 22.859375 7.515625 30.078125 7.515625 
Q 37.359375 7.515625 41.375 12.890625 
Q 45.40625 18.265625 45.40625 27.984375 
z
M 54.390625 6.78125 
Q 54.390625 -7.171875 48.1875 -13.984375 
Q 42 -20.796875 29.203125 -20.796875 
Q 24.46875 -20.796875 20.265625 -20.09375 
Q 16.0625 -19.390625 12.109375 -17.921875 
L 12.109375 -9.1875 
Q 16.0625 -11.328125 19.921875 -12.34375 
Q 23.78125 -13.375 27.78125 -13.375 
Q 36.625 -13.375 41.015625 -8.765625 
Q 45.40625 -4.15625 45.40625 5.171875 
L 45.40625 9.625 
Q 42.625 4.78125 38.28125 2.390625 
Q 33.9375 0 27.875 0 
Q 17.828125 0 11.671875 7.65625 
Q 5.515625 15.328125 5.515625 27.984375 
Q 5.515625 40.671875 11.671875 48.328125 
Q 17.828125 56 27.875 56 
Q 33.9375 56 38.28125 53.609375 
Q 42.625 51.21875 45.40625 46.390625 
L 45.40625 54.6875 
L 54.390625 54.6875 
z
" id="DejaVuSans-103"/>
     <path d="M 54.890625 33.015625 
L 54.890625 0 
L 45.90625 0 
L 45.90625 32.71875 
Q 45.90625 40.484375 42.875 44.328125 
Q 39.84375 48.1875 33.796875 48.1875 
Q 26.515625 48.1875 22.3125 43.546875 
Q 18.109375 38.921875 18.109375 30.90625 
L 18.109375 0 
L 9.078125 0 
L 9.078125 75.984375 
L 18.109375 75.984375 
L 18.109375 46.1875 
Q 21.34375 51.125 25.703125 53.5625 
Q 30.078125 56 35.796875 56 
Q 45.21875 56 50.046875 50.171875 
Q 54.890625 44.34375 54.890625 33.015625 
z
" id="DejaVuSans-104"/>
     <path d="M 18.3125 70.21875 
L 18.3125 54.6875 
L 36.8125 54.6875 
L 36.8125 47.703125 
L 18.3125 47.703125 
L 18.3125 18.015625 
Q 18.3125 11.328125 20.140625 9.421875 
Q 21.96875 7.515625 27.59375 7.515625 
L 36.8125 7.515625 
L 36.8125 0 
L 27.59375 0 
Q 17.1875 0 13.234375 3.875 
Q 9.28125 7.765625 9.28125 18.015625 
L 9.28125 47.703125 
L 2.6875 47.703125 
L 2.6875 54.6875 
L 9.28125 54.6875 
L 9.28125 70.21875 
z
" id="DejaVuSans-116"/>
     <path id="DejaVuSans-32"/>
     <path d="M 34.28125 27.484375 
Q 23.390625 27.484375 19.1875 25 
Q 14.984375 22.515625 14.984375 16.5 
Q 14.984375 11.71875 18.140625 8.90625 
Q 21.296875 6.109375 26.703125 6.109375 
Q 34.1875 6.109375 38.703125 11.40625 
Q 43.21875 16.703125 43.21875 25.484375 
L 43.21875 27.484375 
z
M 52.203125 31.203125 
L 52.203125 0 
L 43.21875 0 
L 43.21875 8.296875 
Q 40.140625 3.328125 35.546875 0.953125 
Q 30.953125 -1.421875 24.3125 -1.421875 
Q 15.921875 -1.421875 10.953125 3.296875 
Q 6 8.015625 6 15.921875 
Q 6 25.140625 12.171875 29.828125 
Q 18.359375 34.515625 30.609375 34.515625 
L 43.21875 34.515625 
L 43.21875 35.40625 
Q 43.21875 41.609375 39.140625 45 
Q 35.0625 48.390625 27.6875 48.390625 
Q 23 48.390625 18.546875 47.265625 
Q 14.109375 46.140625 10.015625 43.890625 
L 10.015625 52.203125 
Q 14.9375 54.109375 19.578125 55.046875 
Q 24.21875 56 28.609375 56 
Q 40.484375 56 46.34375 49.84375 
Q 52.203125 43.703125 52.203125 31.203125 
z
" id="DejaVuSans-97"/>
     <path d="M 48.6875 27.296875 
Q 48.6875 37.203125 44.609375 42.84375 
Q 40.53125 48.484375 33.40625 48.484375 
Q 26.265625 48.484375 22.1875 42.84375 
Q 18.109375 37.203125 18.109375 27.296875 
Q 18.109375 17.390625 22.1875 11.75 
Q 26.265625 6.109375 33.40625 6.109375 
Q 40.53125 6.109375 44.609375 11.75 
Q 48.6875 17.390625 48.6875 27.296875 
z
M 18.109375 46.390625 
Q 20.953125 51.265625 25.265625 53.625 
Q 29.59375 56 35.59375 56 
Q 45.5625 56 51.78125 48.09375 
Q 58.015625 40.1875 58.015625 27.296875 
Q 58.015625 14.40625 51.78125 6.484375 
Q 45.5625 -1.421875 35.59375 -1.421875 
Q 29.59375 -1.421875 25.265625 0.953125 
Q 20.953125 3.328125 18.109375 8.203125 
L 18.109375 0 
L 9.078125 0 
L 9.078125 75.984375 
L 18.109375 75.984375 
z
" id="DejaVuSans-98"/>
     <path d="M 45.40625 46.390625 
L 45.40625 75.984375 
L 54.390625 75.984375 
L 54.390625 0 
L 45.40625 0 
L 45.40625 8.203125 
Q 42.578125 3.328125 38.25 0.953125 
Q 33.9375 -1.421875 27.875 -1.421875 
Q 17.96875 -1.421875 11.734375 6.484375 
Q 5.515625 14.40625 5.515625 27.296875 
Q 5.515625 40.1875 11.734375 48.09375 
Q 17.96875 56 27.875 56 
Q 33.9375 56 38.25 53.625 
Q 42.578125 51.265625 45.40625 46.390625 
z
M 14.796875 27.296875 
Q 14.796875 17.390625 18.875 11.75 
Q 22.953125 6.109375 30.078125 6.109375 
Q 37.203125 6.109375 41.296875 11.75 
Q 45.40625 17.390625 45.40625 27.296875 
Q 45.40625 37.203125 41.296875 42.84375 
Q 37.203125 48.484375 30.078125 48.484375 
Q 22.953125 48.484375 18.875 42.84375 
Q 14.796875 37.203125 14.796875 27.296875 
z
" id="DejaVuSans-100"/>
     <path d="M 8.5 21.578125 
L 8.5 54.6875 
L 17.484375 54.6875 
L 17.484375 21.921875 
Q 17.484375 14.15625 20.5 10.265625 
Q 23.53125 6.390625 29.59375 6.390625 
Q 36.859375 6.390625 41.078125 11.03125 
Q 45.3125 15.671875 45.3125 23.6875 
L 45.3125 54.6875 
L 54.296875 54.6875 
L 54.296875 0 
L 45.3125 0 
L 45.3125 8.40625 
Q 42.046875 3.421875 37.71875 1 
Q 33.40625 -1.421875 27.6875 -1.421875 
Q 18.265625 -1.421875 13.375 4.4375 
Q 8.5 10.296875 8.5 21.578125 
z
M 31.109375 56 
z
" id="DejaVuSans-117"/>
     <path d="M 48.78125 52.59375 
L 48.78125 44.1875 
Q 44.96875 46.296875 41.140625 47.34375 
Q 37.3125 48.390625 33.40625 48.390625 
Q 24.65625 48.390625 19.8125 42.84375 
Q 14.984375 37.3125 14.984375 27.296875 
Q 14.984375 17.28125 19.8125 11.734375 
Q 24.65625 6.203125 33.40625 6.203125 
Q 37.3125 6.203125 41.140625 7.25 
Q 44.96875 8.296875 48.78125 10.40625 
L 48.78125 2.09375 
Q 45.015625 0.34375 40.984375 -0.53125 
Q 36.96875 -1.421875 32.421875 -1.421875 
Q 20.0625 -1.421875 12.78125 6.34375 
Q 5.515625 14.109375 5.515625 27.296875 
Q 5.515625 40.671875 12.859375 48.328125 
Q 20.21875 56 33.015625 56 
Q 37.15625 56 41.109375 55.140625 
Q 45.0625 54.296875 48.78125 52.59375 
z
" id="DejaVuSans-99"/>
     <path d="M 30.609375 48.390625 
Q 23.390625 48.390625 19.1875 42.75 
Q 14.984375 37.109375 14.984375 27.296875 
Q 14.984375 17.484375 19.15625 11.84375 
Q 23.34375 6.203125 30.609375 6.203125 
Q 37.796875 6.203125 41.984375 11.859375 
Q 46.1875 17.53125 46.1875 27.296875 
Q 46.1875 37.015625 41.984375 42.703125 
Q 37.796875 48.390625 30.609375 48.390625 
z
M 30.609375 56 
Q 42.328125 56 49.015625 48.375 
Q 55.71875 40.765625 55.71875 27.296875 
Q 55.71875 13.875 49.015625 6.21875 
Q 42.328125 -1.421875 30.609375 -1.421875 
Q 18.84375 -1.421875 12.171875 6.21875 
Q 5.515625 13.875 5.515625 27.296875 
Q 5.515625 40.765625 12.171875 48.375 
Q 18.84375 56 30.609375 56 
z
" id="DejaVuSans-111"/>
     <path d="M 54.890625 33.015625 
L 54.890625 0 
L 45.90625 0 
L 45.90625 32.71875 
Q 45.90625 40.484375 42.875 44.328125 
Q 39.84375 48.1875 33.796875 48.1875 
Q 26.515625 48.1875 22.3125 43.546875 
Q 18.109375 38.921875 18.109375 30.90625 
L 18.109375 0 
L 9.078125 0 
L 9.078125 54.6875 
L 18.109375 54.6875 
L 18.109375 46.1875 
Q 21.34375 51.125 25.703125 53.5625 
Q 30.078125 56 35.796875 56 
Q 45.21875 56 50.046875 50.171875 
Q 54.890625 44.34375 54.890625 33.015625 
z
" id="DejaVuSans-110"/>
    </defs>
    <g transform="translate(368.694972 78.9312)scale(0.12 -0.12)">
     <use xlink:href="#DejaVuSans-82"/>
     <use x="69.482422" xlink:href="#DejaVuSans-105"/>
     <use x="97.265625" xlink:href="#DejaVuSans-103"/>
     <use x="160.742188" xlink:href="#DejaVuSans-104"/>
     <use x="224.121094" xlink:href="#DejaVuSans-116"/>
     <use x="263.330078" xlink:href="#DejaVuSans-32"/>
     <use x="295.117188" xlink:href="#DejaVuSans-97"/>
     <use x="356.396484" xlink:href="#DejaVuSans-98"/>
     <use x="419.873047" xlink:href="#DejaVuSans-100"/>
     <use x="483.349609" xlink:href="#DejaVuSans-117"/>
     <use x="546.728516" xlink:href="#DejaVuSans-99"/>
     <use x="601.708984" xlink:href="#DejaVuSans-116"/>
     <use x="640.917969" xlink:href="#DejaVuSans-105"/>
     <use x="668.701172" xlink:href="#DejaVuSans-111"/>
     <use x="729.882812" xlink:href="#DejaVuSans-110"/>
    </g>
   </g>
  </g>
  <g id="axes_2">
   <g id="patch_7">
    <path d="M 757.178182 629.9064 
L 1244.16 629.9064 
L 1244.16 84.9312 
L 757.178182 84.9312 
z
" style="fill:#ffffff;"/>
   </g>
   <g id="matplotlib.axis_3">
    <g id="xtick_9">
     <g id="line2d_19">
      <g>
       <use style="stroke:#000000;stroke-width:0.8;" x="779.313719" xlink:href="#mb77b3038b1" y="629.9064"/>
      </g>
     </g>
     <g id="text_16">
      <!-- 0 -->
      <g transform="translate(776.132469 644.504838)scale(0.1 -0.1)">
       <use xlink:href="#DejaVuSans-48"/>
      </g>
     </g>
    </g>
    <g id="xtick_10">
     <g id="line2d_20">
      <g>
       <use style="stroke:#000000;stroke-width:0.8;" x="838.341818" xlink:href="#mb77b3038b1" y="629.9064"/>
      </g>
     </g>
     <g id="text_17">
      <!-- 100 -->
      <g transform="translate(828.798068 644.504838)scale(0.1 -0.1)">
       <use xlink:href="#DejaVuSans-49"/>
       <use x="63.623047" xlink:href="#DejaVuSans-48"/>
       <use x="127.246094" xlink:href="#DejaVuSans-48"/>
      </g>
     </g>
    </g>
    <g id="xtick_11">
     <g id="line2d_21">
      <g>
       <use style="stroke:#000000;stroke-width:0.8;" x="897.369917" xlink:href="#mb77b3038b1" y="629.9064"/>
      </g>
     </g>
     <g id="text_18">
      <!-- 200 -->
      <g transform="translate(887.826167 644.504838)scale(0.1 -0.1)">
       <use xlink:href="#DejaVuSans-50"/>
       <use x="63.623047" xlink:href="#DejaVuSans-48"/>
       <use x="127.246094" xlink:href="#DejaVuSans-48"/>
      </g>
     </g>
    </g>
    <g id="xtick_12">
     <g id="line2d_22">
      <g>
       <use style="stroke:#000000;stroke-width:0.8;" x="956.398017" xlink:href="#mb77b3038b1" y="629.9064"/>
      </g>
     </g>
     <g id="text_19">
      <!-- 300 -->
      <g transform="translate(946.854267 644.504838)scale(0.1 -0.1)">
       <use xlink:href="#DejaVuSans-51"/>
       <use x="63.623047" xlink:href="#DejaVuSans-48"/>
       <use x="127.246094" xlink:href="#DejaVuSans-48"/>
      </g>
     </g>
    </g>
    <g id="xtick_13">
     <g id="line2d_23">
      <g>
       <use style="stroke:#000000;stroke-width:0.8;" x="1015.426116" xlink:href="#mb77b3038b1" y="629.9064"/>
      </g>
     </g>
     <g id="text_20">
      <!-- 400 -->
      <g transform="translate(1005.882366 644.504838)scale(0.1 -0.1)">
       <use xlink:href="#DejaVuSans-52"/>
       <use x="63.623047" xlink:href="#DejaVuSans-48"/>
       <use x="127.246094" xlink:href="#DejaVuSans-48"/>
      </g>
     </g>
    </g>
    <g id="xtick_14">
     <g id="line2d_24">
      <g>
       <use style="stroke:#000000;stroke-width:0.8;" x="1074.454215" xlink:href="#mb77b3038b1" y="629.9064"/>
      </g>
     </g>
     <g id="text_21">
      <!-- 500 -->
      <g transform="translate(1064.910465 644.504838)scale(0.1 -0.1)">
       <use xlink:href="#DejaVuSans-53"/>
       <use x="63.623047" xlink:href="#DejaVuSans-48"/>
       <use x="127.246094" xlink:href="#DejaVuSans-48"/>
      </g>
     </g>
    </g>
    <g id="xtick_15">
     <g id="line2d_25">
      <g>
       <use style="stroke:#000000;stroke-width:0.8;" x="1133.482314" xlink:href="#mb77b3038b1" y="629.9064"/>
      </g>
     </g>
     <g id="text_22">
      <!-- 600 -->
      <g transform="translate(1123.938564 644.504838)scale(0.1 -0.1)">
       <use xlink:href="#DejaVuSans-54"/>
       <use x="63.623047" xlink:href="#DejaVuSans-48"/>
       <use x="127.246094" xlink:href="#DejaVuSans-48"/>
      </g>
     </g>
    </g>
    <g id="xtick_16">
     <g id="line2d_26">
      <g>
       <use style="stroke:#000000;stroke-width:0.8;" x="1192.510413" xlink:href="#mb77b3038b1" y="629.9064"/>
      </g>
     </g>
     <g id="text_23">
      <!-- 700 -->
      <g transform="translate(1182.966663 644.504838)scale(0.1 -0.1)">
       <use xlink:href="#DejaVuSans-55"/>
       <use x="63.623047" xlink:href="#DejaVuSans-48"/>
       <use x="127.246094" xlink:href="#DejaVuSans-48"/>
      </g>
     </g>
    </g>
   </g>
   <g id="matplotlib.axis_4">
    <g id="ytick_7">
     <g id="line2d_27">
      <g>
       <use style="stroke:#000000;stroke-width:0.8;" x="757.178182" xlink:href="#mb314e26951" y="613.461339"/>
      </g>
     </g>
     <g id="text_24">
      <!-- −0.6 -->
      <g transform="translate(725.895369 617.260557)scale(0.1 -0.1)">
       <use xlink:href="#DejaVuSans-8722"/>
       <use x="83.789062" xlink:href="#DejaVuSans-48"/>
       <use x="147.412109" xlink:href="#DejaVuSans-46"/>
       <use x="179.199219" xlink:href="#DejaVuSans-54"/>
      </g>
     </g>
    </g>
    <g id="ytick_8">
     <g id="line2d_28">
      <g>
       <use style="stroke:#000000;stroke-width:0.8;" x="757.178182" xlink:href="#mb314e26951" y="523.79258"/>
      </g>
     </g>
     <g id="text_25">
      <!-- −0.4 -->
      <g transform="translate(725.895369 527.591798)scale(0.1 -0.1)">
       <use xlink:href="#DejaVuSans-8722"/>
       <use x="83.789062" xlink:href="#DejaVuSans-48"/>
       <use x="147.412109" xlink:href="#DejaVuSans-46"/>
       <use x="179.199219" xlink:href="#DejaVuSans-52"/>
      </g>
     </g>
    </g>
    <g id="ytick_9">
     <g id="line2d_29">
      <g>
       <use style="stroke:#000000;stroke-width:0.8;" x="757.178182" xlink:href="#mb314e26951" y="434.123821"/>
      </g>
     </g>
     <g id="text_26">
      <!-- −0.2 -->
      <g transform="translate(725.895369 437.923039)scale(0.1 -0.1)">
       <use xlink:href="#DejaVuSans-8722"/>
       <use x="83.789062" xlink:href="#DejaVuSans-48"/>
       <use x="147.412109" xlink:href="#DejaVuSans-46"/>
       <use x="179.199219" xlink:href="#DejaVuSans-50"/>
      </g>
     </g>
    </g>
    <g id="ytick_10">
     <g id="line2d_30">
      <g>
       <use style="stroke:#000000;stroke-width:0.8;" x="757.178182" xlink:href="#mb314e26951" y="344.455062"/>
      </g>
     </g>
     <g id="text_27">
      <!-- 0.0 -->
      <g transform="translate(734.275057 348.254281)scale(0.1 -0.1)">
       <use xlink:href="#DejaVuSans-48"/>
       <use x="63.623047" xlink:href="#DejaVuSans-46"/>
       <use x="95.410156" xlink:href="#DejaVuSans-48"/>
      </g>
     </g>
    </g>
    <g id="ytick_11">
     <g id="line2d_31">
      <g>
       <use style="stroke:#000000;stroke-width:0.8;" x="757.178182" xlink:href="#mb314e26951" y="254.786303"/>
      </g>
     </g>
     <g id="text_28">
      <!-- 0.2 -->
      <g transform="translate(734.275057 258.585522)scale(0.1 -0.1)">
       <use xlink:href="#DejaVuSans-48"/>
       <use x="63.623047" xlink:href="#DejaVuSans-46"/>
       <use x="95.410156" xlink:href="#DejaVuSans-50"/>
      </g>
     </g>
    </g>
    <g id="ytick_12">
     <g id="line2d_32">
      <g>
       <use style="stroke:#000000;stroke-width:0.8;" x="757.178182" xlink:href="#mb314e26951" y="165.117544"/>
      </g>
     </g>
     <g id="text_29">
      <!-- 0.4 -->
      <g transform="translate(734.275057 168.916763)scale(0.1 -0.1)">
       <use xlink:href="#DejaVuSans-48"/>
       <use x="63.623047" xlink:href="#DejaVuSans-46"/>
       <use x="95.410156" xlink:href="#DejaVuSans-52"/>
      </g>
     </g>
    </g>
   </g>
   <g id="line2d_33">
    <path clip-path="url(#p4d91426965)" d="M 779.313719 344.447518 
L 792.890182 344.49886 
L 809.41805 344.547788 
L 1110.461355 344.619477 
L 1144.697653 344.497412 
L 1175.392264 344.613715 
L 1180.114512 344.641858 
L 1187.788165 344.647741 
L 1192.510413 344.462974 
L 1193.100694 344.046253 
L 1193.690975 343.779272 
L 1194.281256 344.012171 
L 1194.871537 344.851594 
L 1196.64238 348.811721 
L 1197.232661 349.499407 
L 1197.822942 349.512178 
L 1198.413223 348.890722 
L 1199.593785 346.563082 
L 1200.774347 344.408527 
L 1201.364628 343.771968 
L 1201.954909 343.439218 
L 1203.135471 343.313052 
L 1206.677157 343.414809 
L 1207.267438 343.630408 
L 1208.448 344.404547 
L 1209.628562 345.258136 
L 1210.218843 345.541657 
L 1210.809124 345.662794 
L 1211.399405 345.614603 
L 1211.989686 345.865848 
L 1212.579967 345.894113 
L 1213.170248 345.698606 
L 1215.531372 344.234283 
L 1216.121653 344.111899 
L 1216.711934 344.148533 
L 1217.892496 344.543682 
L 1219.073058 344.9829 
L 1220.25362 345.12947 
L 1221.434182 344.998068 
L 1221.434182 344.998068 
" style="fill:none;stroke:#ff796c;stroke-linecap:square;stroke-width:1.5;"/>
   </g>
   <g id="line2d_34">
    <path clip-path="url(#p4d91426965)" d="M 779.313719 344.455062 
L 779.904 344.104635 
L 784.626248 344.085214 
L 788.758215 343.516257 
L 793.480463 343.190261 
L 802.334678 343.071289 
L 807.056926 342.764775 
L 818.862545 341.605883 
L 828.307041 340.532705 
L 848.966876 337.84321 
L 888.515702 332.737733 
L 906.224132 330.689702 
L 919.210314 329.334767 
L 932.786777 328.101491 
L 938.099306 327.966811 
L 942.231273 327.810184 
L 950.495207 327.131097 
L 959.939702 326.193969 
L 970.56476 325.30883 
L 977.648132 324.983539 
L 999.488529 324.315697 
L 1014.245554 324.15141 
L 1042.579041 324.410569 
L 1066.190281 325.176553 
L 1095.704331 326.612162 
L 1119.905851 327.905815 
L 1121.676694 327.107622 
L 1123.447537 326.405097 
L 1124.628099 326.148166 
L 1125.808661 326.188589 
L 1127.579504 326.613574 
L 1129.940628 327.142534 
L 1132.892033 327.478169 
L 1135.253157 327.535617 
L 1140.565686 327.465638 
L 1143.517091 327.725677 
L 1150.010182 329.003386 
L 1157.093554 330.63296 
L 1174.211702 334.740446 
L 1178.93395 335.772698 
L 1181.295074 336.400231 
L 1183.656198 336.74313 
L 1188.968727 337.296853 
L 1189.559008 337.241986 
L 1190.149289 336.878483 
L 1191.329851 336.544434 
L 1192.510413 336.574185 
L 1193.100694 336.740039 
L 1194.871537 363.143393 
L 1196.052099 378.923557 
L 1196.64238 384.381821 
L 1197.232661 386.81621 
L 1197.822942 385.586604 
L 1198.413223 380.671793 
L 1199.003504 372.701913 
L 1201.364628 333.49645 
L 1201.954909 326.808217 
L 1202.54519 322.205884 
L 1203.135471 319.542132 
L 1203.725752 318.518647 
L 1204.316033 318.826914 
L 1204.906314 320.210385 
L 1205.496595 322.497925 
L 1206.677157 329.067297 
L 1209.038281 343.772876 
L 1209.628562 346.472334 
L 1210.218843 348.296996 
L 1210.809124 349.094693 
L 1211.399405 348.847157 
L 1211.989686 347.681271 
L 1212.579967 347.341053 
L 1213.170248 346.201258 
L 1213.760529 344.397055 
L 1214.941091 340.100478 
L 1215.531372 338.350641 
L 1216.121653 337.236714 
L 1216.711934 336.858992 
L 1217.302215 337.164762 
L 1217.892496 337.982289 
L 1219.663339 341.14313 
L 1220.25362 341.816199 
L 1220.843901 342.184088 
L 1221.434182 342.29566 
L 1222.024463 342.247766 
L 1222.024463 342.247766 
" style="fill:none;stroke:#e50000;stroke-linecap:square;stroke-width:1.5;"/>
   </g>
   <g id="line2d_35">
    <path clip-path="url(#p4d91426965)" d="M 779.313719 109.7028 
L 783.445686 109.812291 
L 787.577653 110.14066 
L 791.70962 110.687603 
L 795.841587 111.452608 
L 799.973554 112.434962 
L 804.105521 113.633748 
L 808.237488 115.047849 
L 812.369455 116.675945 
L 816.501421 118.516518 
L 821.223669 120.877994 
L 825.945917 123.511863 
L 830.668165 126.414918 
L 835.390413 129.583622 
L 840.112661 133.014113 
L 844.834909 136.702212 
L 850.147438 141.153639 
L 855.459967 145.918543 
L 860.772496 150.989575 
L 866.085025 156.358917 
L 871.987835 162.664637 
L 877.890645 169.316406 
L 883.793455 176.30156 
L 890.286545 184.354404 
L 896.779636 192.775996 
L 903.272727 201.546939 
L 910.356099 211.489917 
L 918.029752 222.671866 
L 925.703405 234.245551 
L 933.967339 247.104885 
L 942.821554 261.284439 
L 952.856331 277.781817 
L 964.071669 296.6497 
L 978.238413 320.935688 
L 1024.870612 401.246774 
L 1036.08595 419.913703 
L 1046.120727 436.180078 
L 1054.974942 450.116689 
L 1063.238876 462.717142 
L 1070.912529 474.023518 
L 1077.995901 484.091056 
L 1085.079273 493.775863 
L 1091.572364 502.294691 
L 1098.065455 510.449978 
L 1103.968264 517.532584 
L 1109.871074 524.285728 
L 1115.773884 530.696553 
L 1121.086413 536.163514 
L 1126.398942 541.334875 
L 1131.711471 546.202661 
L 1137.024 550.759367 
L 1142.336529 554.997966 
L 1147.058777 558.493264 
L 1151.781025 561.727789 
L 1156.503273 564.6976 
L 1161.225521 567.39908 
L 1165.947769 569.828937 
L 1170.670017 571.98421 
L 1174.801983 573.642758 
L 1178.93395 575.087515 
L 1183.065917 576.317134 
L 1187.197884 577.330468 
L 1191.329851 578.126571 
L 1195.461818 578.704701 
L 1199.593785 579.064319 
L 1203.725752 579.205089 
L 1207.857719 579.12688 
L 1211.989686 578.829765 
L 1216.121653 578.31402 
L 1220.25362 577.580128 
L 1221.434182 577.330468 
L 1221.434182 577.330468 
" style="fill:none;stroke:#014d4e;stroke-linecap:square;stroke-width:1.5;"/>
   </g>
   <g id="line2d_36">
    <path clip-path="url(#p4d91426965)" d="M 779.313719 110.053227 
L 783.445686 110.121387 
L 785.216529 110.498195 
L 787.577653 111.032571 
L 791.119339 111.805853 
L 799.973554 113.751549 
L 803.51524 114.919648 
L 806.466645 116.105808 
L 810.598612 118.03701 
L 815.32086 120.514732 
L 819.452826 122.931297 
L 823.584793 125.589353 
L 827.71676 128.491503 
L 832.439008 132.095663 
L 837.161256 135.981756 
L 842.473785 140.665516 
L 847.786314 145.670606 
L 853.098843 150.996869 
L 858.411372 156.635535 
L 864.314182 163.25364 
L 870.216992 170.223007 
L 876.119802 177.531005 
L 882.612893 185.942079 
L 889.105983 194.723421 
L 896.189355 204.693721 
L 903.863008 215.929405 
L 910.94638 226.686329 
L 920.390876 241.487005 
L 929.835372 256.812919 
L 937.509025 269.218296 
L 942.231273 277.01435 
L 949.904926 290.211442 
L 968.203636 322.718403 
L 984.141223 350.868439 
L 1004.801058 387.197371 
L 1013.064992 401.485181 
L 1027.822017 426.490418 
L 1038.447074 443.89991 
L 1046.711008 457.050226 
L 1057.926347 474.23197 
L 1065.6 485.516766 
L 1073.273653 496.354166 
L 1080.357025 505.96227 
L 1086.850116 514.413624 
L 1093.343207 522.492959 
L 1099.836298 530.21317 
L 1104.558545 535.552785 
L 1109.280793 540.71068 
L 1115.773884 547.406236 
L 1119.31557 550.922878 
L 1121.676694 554.351526 
L 1123.447537 556.714344 
L 1124.628099 557.970118 
L 1125.808661 558.929635 
L 1131.12119 562.760665 
L 1134.072595 565.179901 
L 1139.385124 569.701581 
L 1142.336529 571.79767 
L 1144.697653 573.20886 
L 1148.239339 575.034032 
L 1152.371306 576.917597 
L 1155.912992 578.307196 
L 1160.044959 579.68862 
L 1163.586645 580.684666 
L 1175.392264 583.230355 
L 1177.163107 583.50266 
L 1183.656198 584.115985 
L 1187.197884 584.482232 
L 1187.788165 584.527258 
L 1188.968727 584.911379 
L 1189.559008 585.388615 
L 1190.73957 585.9368 
L 1191.920132 586.103398 
L 1192.510413 586.029043 
L 1194.281256 559.873467 
L 1195.461818 544.236206 
L 1196.052099 538.842705 
L 1196.64238 536.468617 
L 1197.232661 537.754062 
L 1197.822942 542.720249 
L 1198.413223 550.73704 
L 1200.774347 590.085491 
L 1201.364628 596.798304 
L 1201.954909 601.420748 
L 1202.54519 604.100142 
L 1203.135471 605.1348 
L 1203.725752 604.833237 
L 1204.316033 603.452001 
L 1204.906314 601.162226 
L 1206.086876 594.574977 
L 1208.448 579.780019 
L 1209.038281 577.047047 
L 1209.628562 575.184404 
L 1210.218843 574.34426 
L 1210.809124 574.544884 
L 1211.399405 575.659394 
L 1211.989686 575.943773 
L 1212.579967 577.023267 
L 1213.170248 578.762708 
L 1214.35081 582.916383 
L 1214.941091 584.588081 
L 1215.531372 585.619415 
L 1216.121653 585.91009 
L 1216.711934 585.51282 
L 1217.302215 584.599343 
L 1219.073058 581.123967 
L 1219.663339 580.337165 
L 1220.25362 579.851102 
L 1220.843901 579.616918 
L 1221.434182 579.537763 
L 1221.434182 579.537763 
" style="fill:none;stroke:#ffff14;stroke-linecap:square;stroke-width:1.5;"/>
   </g>
   <g id="patch_8">
    <path d="M 757.178182 629.9064 
L 757.178182 84.9312 
" style="fill:none;stroke:#000000;stroke-linecap:square;stroke-linejoin:miter;stroke-width:0.8;"/>
   </g>
   <g id="patch_9">
    <path d="M 1244.16 629.9064 
L 1244.16 84.9312 
" style="fill:none;stroke:#000000;stroke-linecap:square;stroke-linejoin:miter;stroke-width:0.8;"/>
   </g>
   <g id="patch_10">
    <path d="M 757.178182 629.9064 
L 1244.16 629.9064 
" style="fill:none;stroke:#000000;stroke-linecap:square;stroke-linejoin:miter;stroke-width:0.8;"/>
   </g>
   <g id="patch_11">
    <path d="M 757.178182 84.9312 
L 1244.16 84.9312 
" style="fill:none;stroke:#000000;stroke-linecap:square;stroke-linejoin:miter;stroke-width:0.8;"/>
   </g>
   <g id="text_30">
    <!-- Left abduction -->
    <defs>
     <path d="M 9.8125 72.90625 
L 19.671875 72.90625 
L 19.671875 8.296875 
L 55.171875 8.296875 
L 55.171875 0 
L 9.8125 0 
z
" id="DejaVuSans-76"/>
     <path d="M 56.203125 29.59375 
L 56.203125 25.203125 
L 14.890625 25.203125 
Q 15.484375 15.921875 20.484375 11.0625 
Q 25.484375 6.203125 34.421875 6.203125 
Q 39.59375 6.203125 44.453125 7.46875 
Q 49.3125 8.734375 54.109375 11.28125 
L 54.109375 2.78125 
Q 49.265625 0.734375 44.1875 -0.34375 
Q 39.109375 -1.421875 33.890625 -1.421875 
Q 20.796875 -1.421875 13.15625 6.1875 
Q 5.515625 13.8125 5.515625 26.8125 
Q 5.515625 40.234375 12.765625 48.109375 
Q 20.015625 56 32.328125 56 
Q 43.359375 56 49.78125 48.890625 
Q 56.203125 41.796875 56.203125 29.59375 
z
M 47.21875 32.234375 
Q 47.125 39.59375 43.09375 43.984375 
Q 39.0625 48.390625 32.421875 48.390625 
Q 24.90625 48.390625 20.390625 44.140625 
Q 15.875 39.890625 15.1875 32.171875 
z
" id="DejaVuSans-101"/>
     <path d="M 37.109375 75.984375 
L 37.109375 68.5 
L 28.515625 68.5 
Q 23.6875 68.5 21.796875 66.546875 
Q 19.921875 64.59375 19.921875 59.515625 
L 19.921875 54.6875 
L 34.71875 54.6875 
L 34.71875 47.703125 
L 19.921875 47.703125 
L 19.921875 0 
L 10.890625 0 
L 10.890625 47.703125 
L 2.296875 47.703125 
L 2.296875 54.6875 
L 10.890625 54.6875 
L 10.890625 58.5 
Q 10.890625 67.625 15.140625 71.796875 
Q 19.390625 75.984375 28.609375 75.984375 
z
" id="DejaVuSans-102"/>
    </defs>
    <g transform="translate(957.375341 78.9312)scale(0.12 -0.12)">
     <use xlink:href="#DejaVuSans-76"/>
     <use x="55.697266" xlink:href="#DejaVuSans-101"/>
     <use x="117.220703" xlink:href="#DejaVuSans-102"/>
     <use x="152.410156" xlink:href="#DejaVuSans-116"/>
     <use x="191.619141" xlink:href="#DejaVuSans-32"/>
     <use x="223.40625" xlink:href="#DejaVuSans-97"/>
     <use x="284.685547" xlink:href="#DejaVuSans-98"/>
     <use x="348.162109" xlink:href="#DejaVuSans-100"/>
     <use x="411.638672" xlink:href="#DejaVuSans-117"/>
     <use x="475.017578" xlink:href="#DejaVuSans-99"/>
     <use x="529.998047" xlink:href="#DejaVuSans-116"/>
     <use x="569.207031" xlink:href="#DejaVuSans-105"/>
     <use x="596.990234" xlink:href="#DejaVuSans-111"/>
     <use x="658.171875" xlink:href="#DejaVuSans-110"/>
    </g>
   </g>
  </g>
 </g>
 <defs>
  <clipPath id="p0424405719">
   <rect height="544.9752" width="486.981818" x="172.8" y="84.9312"/>
  </clipPath>
  <clipPath id="p4d91426965">
   <rect height="544.9752" width="486.981818" x="757.178182" y="84.9312"/>
  </clipPath>
 </defs>
</svg>
