<?xml version="1.0" encoding="utf-8" standalone="no"?>
<!DOCTYPE svg PUBLIC "-//W3C//DTD SVG 1.1//EN"
  "http://www.w3.org/Graphics/SVG/1.1/DTD/svg11.dtd">
<!-- Created with matplotlib (https://matplotlib.org/) -->
<svg height="707.76pt" version="1.1" viewBox="0 0 1382.4 707.76" width="1382.4pt" xmlns="http://www.w3.org/2000/svg" xmlns:xlink="http://www.w3.org/1999/xlink">
 <defs>
  <style type="text/css">
*{stroke-linecap:butt;stroke-linejoin:round;}
  </style>
 </defs>
 <g id="figure_1">
  <g id="patch_1">
   <path d="M 0 707.76 
L 1382.4 707.76 
L 1382.4 0 
L 0 0 
z
" style="fill:#ffffff;"/>
  </g>
  <g id="axes_1">
   <g id="patch_2">
    <path d="M 172.8 332.6472 
L 659.781818 332.6472 
L 659.781818 84.9312 
L 172.8 84.9312 
z
" style="fill:#ffffff;"/>
   </g>
   <g id="matplotlib.axis_1">
    <g id="xtick_1">
     <g id="line2d_1">
      <defs>
       <path d="M 0 0 
L 0 3.5 
" id="m8cb55e51d2" style="stroke:#000000;stroke-width:0.8;"/>
      </defs>
      <g>
       <use style="stroke:#000000;stroke-width:0.8;" x="194.935537" xlink:href="#m8cb55e51d2" y="332.6472"/>
      </g>
     </g>
     <g id="text_1">
      <!-- 0 -->
      <defs>
       <path d="M 31.78125 66.40625 
Q 24.171875 66.40625 20.328125 58.90625 
Q 16.5 51.421875 16.5 36.375 
Q 16.5 21.390625 20.328125 13.890625 
Q 24.171875 6.390625 31.78125 6.390625 
Q 39.453125 6.390625 43.28125 13.890625 
Q 47.125 21.390625 47.125 36.375 
Q 47.125 51.421875 43.28125 58.90625 
Q 39.453125 66.40625 31.78125 66.40625 
z
M 31.78125 74.21875 
Q 44.046875 74.21875 50.515625 64.515625 
Q 56.984375 54.828125 56.984375 36.375 
Q 56.984375 17.96875 50.515625 8.265625 
Q 44.046875 -1.421875 31.78125 -1.421875 
Q 19.53125 -1.421875 13.0625 8.265625 
Q 6.59375 17.96875 6.59375 36.375 
Q 6.59375 54.828125 13.0625 64.515625 
Q 19.53125 74.21875 31.78125 74.21875 
z
" id="DejaVuSans-48"/>
      </defs>
      <g transform="translate(191.754287 347.245637)scale(0.1 -0.1)">
       <use xlink:href="#DejaVuSans-48"/>
      </g>
     </g>
    </g>
    <g id="xtick_2">
     <g id="line2d_2">
      <g>
       <use style="stroke:#000000;stroke-width:0.8;" x="287.359492" xlink:href="#m8cb55e51d2" y="332.6472"/>
      </g>
     </g>
     <g id="text_2">
      <!-- 100 -->
      <defs>
       <path d="M 12.40625 8.296875 
L 28.515625 8.296875 
L 28.515625 63.921875 
L 10.984375 60.40625 
L 10.984375 69.390625 
L 28.421875 72.90625 
L 38.28125 72.90625 
L 38.28125 8.296875 
L 54.390625 8.296875 
L 54.390625 0 
L 12.40625 0 
z
" id="DejaVuSans-49"/>
      </defs>
      <g transform="translate(277.815742 347.245637)scale(0.1 -0.1)">
       <use xlink:href="#DejaVuSans-49"/>
       <use x="63.623047" xlink:href="#DejaVuSans-48"/>
       <use x="127.246094" xlink:href="#DejaVuSans-48"/>
      </g>
     </g>
    </g>
    <g id="xtick_3">
     <g id="line2d_3">
      <g>
       <use style="stroke:#000000;stroke-width:0.8;" x="379.783447" xlink:href="#m8cb55e51d2" y="332.6472"/>
      </g>
     </g>
     <g id="text_3">
      <!-- 200 -->
      <defs>
       <path d="M 19.1875 8.296875 
L 53.609375 8.296875 
L 53.609375 0 
L 7.328125 0 
L 7.328125 8.296875 
Q 12.9375 14.109375 22.625 23.890625 
Q 32.328125 33.6875 34.8125 36.53125 
Q 39.546875 41.84375 41.421875 45.53125 
Q 43.3125 49.21875 43.3125 52.78125 
Q 43.3125 58.59375 39.234375 62.25 
Q 35.15625 65.921875 28.609375 65.921875 
Q 23.96875 65.921875 18.8125 64.3125 
Q 13.671875 62.703125 7.8125 59.421875 
L 7.8125 69.390625 
Q 13.765625 71.78125 18.9375 73 
Q 24.125 74.21875 28.421875 74.21875 
Q 39.75 74.21875 46.484375 68.546875 
Q 53.21875 62.890625 53.21875 53.421875 
Q 53.21875 48.921875 51.53125 44.890625 
Q 49.859375 40.875 45.40625 35.40625 
Q 44.1875 33.984375 37.640625 27.21875 
Q 31.109375 20.453125 19.1875 8.296875 
z
" id="DejaVuSans-50"/>
      </defs>
      <g transform="translate(370.239697 347.245637)scale(0.1 -0.1)">
       <use xlink:href="#DejaVuSans-50"/>
       <use x="63.623047" xlink:href="#DejaVuSans-48"/>
       <use x="127.246094" xlink:href="#DejaVuSans-48"/>
      </g>
     </g>
    </g>
    <g id="xtick_4">
     <g id="line2d_4">
      <g>
       <use style="stroke:#000000;stroke-width:0.8;" x="472.207402" xlink:href="#m8cb55e51d2" y="332.6472"/>
      </g>
     </g>
     <g id="text_4">
      <!-- 300 -->
      <defs>
       <path d="M 40.578125 39.3125 
Q 47.65625 37.796875 51.625 33 
Q 55.609375 28.21875 55.609375 21.1875 
Q 55.609375 10.40625 48.1875 4.484375 
Q 40.765625 -1.421875 27.09375 -1.421875 
Q 22.515625 -1.421875 17.65625 -0.515625 
Q 12.796875 0.390625 7.625 2.203125 
L 7.625 11.71875 
Q 11.71875 9.328125 16.59375 8.109375 
Q 21.484375 6.890625 26.8125 6.890625 
Q 36.078125 6.890625 40.9375 10.546875 
Q 45.796875 14.203125 45.796875 21.1875 
Q 45.796875 27.640625 41.28125 31.265625 
Q 36.765625 34.90625 28.71875 34.90625 
L 20.21875 34.90625 
L 20.21875 43.015625 
L 29.109375 43.015625 
Q 36.375 43.015625 40.234375 45.921875 
Q 44.09375 48.828125 44.09375 54.296875 
Q 44.09375 59.90625 40.109375 62.90625 
Q 36.140625 65.921875 28.71875 65.921875 
Q 24.65625 65.921875 20.015625 65.03125 
Q 15.375 64.15625 9.8125 62.3125 
L 9.8125 71.09375 
Q 15.4375 72.65625 20.34375 73.4375 
Q 25.25 74.21875 29.59375 74.21875 
Q 40.828125 74.21875 47.359375 69.109375 
Q 53.90625 64.015625 53.90625 55.328125 
Q 53.90625 49.265625 50.4375 45.09375 
Q 46.96875 40.921875 40.578125 39.3125 
z
" id="DejaVuSans-51"/>
      </defs>
      <g transform="translate(462.663652 347.245637)scale(0.1 -0.1)">
       <use xlink:href="#DejaVuSans-51"/>
       <use x="63.623047" xlink:href="#DejaVuSans-48"/>
       <use x="127.246094" xlink:href="#DejaVuSans-48"/>
      </g>
     </g>
    </g>
    <g id="xtick_5">
     <g id="line2d_5">
      <g>
       <use style="stroke:#000000;stroke-width:0.8;" x="564.631357" xlink:href="#m8cb55e51d2" y="332.6472"/>
      </g>
     </g>
     <g id="text_5">
      <!-- 400 -->
      <defs>
       <path d="M 37.796875 64.3125 
L 12.890625 25.390625 
L 37.796875 25.390625 
z
M 35.203125 72.90625 
L 47.609375 72.90625 
L 47.609375 25.390625 
L 58.015625 25.390625 
L 58.015625 17.1875 
L 47.609375 17.1875 
L 47.609375 0 
L 37.796875 0 
L 37.796875 17.1875 
L 4.890625 17.1875 
L 4.890625 26.703125 
z
" id="DejaVuSans-52"/>
      </defs>
      <g transform="translate(555.087607 347.245637)scale(0.1 -0.1)">
       <use xlink:href="#DejaVuSans-52"/>
       <use x="63.623047" xlink:href="#DejaVuSans-48"/>
       <use x="127.246094" xlink:href="#DejaVuSans-48"/>
      </g>
     </g>
    </g>
    <g id="xtick_6">
     <g id="line2d_6">
      <g>
       <use style="stroke:#000000;stroke-width:0.8;" x="657.055312" xlink:href="#m8cb55e51d2" y="332.6472"/>
      </g>
     </g>
     <g id="text_6">
      <!-- 500 -->
      <defs>
       <path d="M 10.796875 72.90625 
L 49.515625 72.90625 
L 49.515625 64.59375 
L 19.828125 64.59375 
L 19.828125 46.734375 
Q 21.96875 47.46875 24.109375 47.828125 
Q 26.265625 48.1875 28.421875 48.1875 
Q 40.625 48.1875 47.75 41.5 
Q 54.890625 34.8125 54.890625 23.390625 
Q 54.890625 11.625 47.5625 5.09375 
Q 40.234375 -1.421875 26.90625 -1.421875 
Q 22.3125 -1.421875 17.546875 -0.640625 
Q 12.796875 0.140625 7.71875 1.703125 
L 7.71875 11.625 
Q 12.109375 9.234375 16.796875 8.0625 
Q 21.484375 6.890625 26.703125 6.890625 
Q 35.15625 6.890625 40.078125 11.328125 
Q 45.015625 15.765625 45.015625 23.390625 
Q 45.015625 31 40.078125 35.4375 
Q 35.15625 39.890625 26.703125 39.890625 
Q 22.75 39.890625 18.8125 39.015625 
Q 14.890625 38.140625 10.796875 36.28125 
z
" id="DejaVuSans-53"/>
      </defs>
      <g transform="translate(647.511562 347.245637)scale(0.1 -0.1)">
       <use xlink:href="#DejaVuSans-53"/>
       <use x="63.623047" xlink:href="#DejaVuSans-48"/>
       <use x="127.246094" xlink:href="#DejaVuSans-48"/>
      </g>
     </g>
    </g>
   </g>
   <g id="matplotlib.axis_2">
    <g id="ytick_1">
     <g id="line2d_7">
      <defs>
       <path d="M 0 0 
L -3.5 0 
" id="md873a1c2fa" style="stroke:#000000;stroke-width:0.8;"/>
      </defs>
      <g>
       <use style="stroke:#000000;stroke-width:0.8;" x="172.8" xlink:href="#md873a1c2fa" y="321.399302"/>
      </g>
     </g>
     <g id="text_7">
      <!-- −1.5 -->
      <defs>
       <path d="M 10.59375 35.5 
L 73.1875 35.5 
L 73.1875 27.203125 
L 10.59375 27.203125 
z
" id="DejaVuSans-8722"/>
       <path d="M 10.6875 12.40625 
L 21 12.40625 
L 21 0 
L 10.6875 0 
z
" id="DejaVuSans-46"/>
      </defs>
      <g transform="translate(141.517187 325.198521)scale(0.1 -0.1)">
       <use xlink:href="#DejaVuSans-8722"/>
       <use x="83.789062" xlink:href="#DejaVuSans-49"/>
       <use x="147.412109" xlink:href="#DejaVuSans-46"/>
       <use x="179.199219" xlink:href="#DejaVuSans-53"/>
      </g>
     </g>
    </g>
    <g id="ytick_2">
     <g id="line2d_8">
      <g>
       <use style="stroke:#000000;stroke-width:0.8;" x="172.8" xlink:href="#md873a1c2fa" y="270.551545"/>
      </g>
     </g>
     <g id="text_8">
      <!-- −1.0 -->
      <g transform="translate(141.517187 274.350764)scale(0.1 -0.1)">
       <use xlink:href="#DejaVuSans-8722"/>
       <use x="83.789062" xlink:href="#DejaVuSans-49"/>
       <use x="147.412109" xlink:href="#DejaVuSans-46"/>
       <use x="179.199219" xlink:href="#DejaVuSans-48"/>
      </g>
     </g>
    </g>
    <g id="ytick_3">
     <g id="line2d_9">
      <g>
       <use style="stroke:#000000;stroke-width:0.8;" x="172.8" xlink:href="#md873a1c2fa" y="219.703788"/>
      </g>
     </g>
     <g id="text_9">
      <!-- −0.5 -->
      <g transform="translate(141.517187 223.503007)scale(0.1 -0.1)">
       <use xlink:href="#DejaVuSans-8722"/>
       <use x="83.789062" xlink:href="#DejaVuSans-48"/>
       <use x="147.412109" xlink:href="#DejaVuSans-46"/>
       <use x="179.199219" xlink:href="#DejaVuSans-53"/>
      </g>
     </g>
    </g>
    <g id="ytick_4">
     <g id="line2d_10">
      <g>
       <use style="stroke:#000000;stroke-width:0.8;" x="172.8" xlink:href="#md873a1c2fa" y="168.856031"/>
      </g>
     </g>
     <g id="text_10">
      <!-- 0.0 -->
      <g transform="translate(149.896875 172.65525)scale(0.1 -0.1)">
       <use xlink:href="#DejaVuSans-48"/>
       <use x="63.623047" xlink:href="#DejaVuSans-46"/>
       <use x="95.410156" xlink:href="#DejaVuSans-48"/>
      </g>
     </g>
    </g>
    <g id="ytick_5">
     <g id="line2d_11">
      <g>
       <use style="stroke:#000000;stroke-width:0.8;" x="172.8" xlink:href="#md873a1c2fa" y="118.008274"/>
      </g>
     </g>
     <g id="text_11">
      <!-- 0.5 -->
      <g transform="translate(149.896875 121.807493)scale(0.1 -0.1)">
       <use xlink:href="#DejaVuSans-48"/>
       <use x="63.623047" xlink:href="#DejaVuSans-46"/>
       <use x="95.410156" xlink:href="#DejaVuSans-53"/>
      </g>
     </g>
    </g>
   </g>
   <g id="line2d_12">
    <path clip-path="url(#p2a9d0773c3)" d="M 194.935537 170.173761 
L 195.859777 170.303873 
L 196.784016 169.440178 
L 197.708256 168.762623 
L 198.632495 168.966884 
L 199.556735 169.629483 
L 200.480974 169.912721 
L 203.253693 169.085398 
L 204.177933 169.186283 
L 205.102172 169.123771 
L 206.950651 168.719986 
L 208.79913 169.020032 
L 209.72337 168.896056 
L 210.64761 168.536362 
L 211.571849 168.354353 
L 212.496089 168.593003 
L 213.420328 169.005098 
L 214.344568 169.144831 
L 216.193047 168.634547 
L 217.117286 168.703878 
L 218.965765 169.387848 
L 219.890005 169.370645 
L 220.814245 169.153224 
L 221.738484 169.057358 
L 224.511203 169.526598 
L 227.283921 169.341255 
L 229.1324 169.489917 
L 231.905119 169.458603 
L 234.677838 169.531672 
L 236.526317 169.626741 
L 238.374796 169.767248 
L 241.147515 169.861246 
L 242.995994 170.052346 
L 246.692952 170.183674 
L 248.541431 170.282016 
L 251.31415 170.318086 
L 254.086868 170.403411 
L 256.859587 170.477229 
L 268.874701 170.856385 
L 280.889815 171.220903 
L 312.31396 172.519433 
L 321.556355 173.215442 
L 340.965386 174.706106 
L 373.31377 176.001283 
L 389.950082 176.291206 
L 401.965196 176.336064 
L 412.131831 176.128055 
L 422.298466 175.753415 
L 440.783257 174.773803 
L 474.98012 172.730331 
L 480.525558 172.215476 
L 485.146755 171.596142 
L 492.540672 170.324369 
L 499.010349 169.350423 
L 503.631546 168.962814 
L 507.328505 168.811722 
L 515.646661 168.651636 
L 519.343619 168.422088 
L 524.889056 167.760237 
L 532.282972 166.755927 
L 536.90417 166.381686 
L 544.298087 166.277336 
L 554.464722 166.089856 
L 557.23744 165.972402 
L 558.16168 154.040487 
L 560.010159 173.550799 
L 560.934398 159.231839 
L 561.858638 156.085336 
L 562.782878 170.454444 
L 563.707117 166.596479 
L 564.631357 155.538708 
L 565.555596 164.725845 
L 566.479836 171.639198 
L 567.404075 161.241138 
L 568.328315 159.214977 
L 569.252554 170.114427 
L 570.176794 168.274224 
L 571.101033 159.351119 
L 572.025273 161.223458 
L 572.949513 170.182773 
L 573.873752 167.978464 
L 574.797992 160.506301 
L 575.722231 165.055909 
L 576.646471 170.595273 
L 577.57071 164.73895 
L 578.49495 161.211615 
L 579.419189 167.575211 
L 580.343429 168.238098 
L 581.267669 161.511652 
L 582.191908 162.280618 
L 583.116148 167.428485 
L 584.040387 164.095842 
L 584.964627 159.476428 
L 585.888866 163.222912 
L 586.813106 165.263274 
L 587.737345 160.246084 
L 588.661585 158.981105 
L 589.585824 163.072186 
L 590.510064 162.06848 
L 591.434304 157.72838 
L 592.358543 158.960759 
L 593.282783 161.823351 
L 595.131262 156.580574 
L 596.055501 158.773996 
L 596.979741 160.337873 
L 597.90398 157.599282 
L 598.82822 155.997004 
L 599.752459 158.215148 
L 600.676699 159.009374 
L 601.600939 156.506367 
L 602.525178 155.459886 
L 603.449418 157.356975 
L 604.373657 157.828671 
L 605.297897 155.635595 
L 606.222136 154.638716 
L 607.146376 156.077401 
L 608.070615 156.496586 
L 608.994855 154.613545 
L 609.919095 153.395016 
L 610.843334 154.384867 
L 611.767574 154.902713 
L 613.616053 151.958366 
L 614.540292 152.47091 
L 615.464532 153.12185 
L 616.388771 152.058841 
L 617.313011 147.508053 
L 618.23725 148.576178 
L 619.16149 152.244347 
L 620.08573 151.756349 
L 621.009969 147.242799 
L 621.934209 144.523621 
L 622.858448 146.969203 
L 623.782688 148.030434 
L 624.706927 146.586336 
L 625.631167 143.936631 
L 626.555406 142.468386 
L 627.479646 142.850787 
L 628.403886 143.519031 
L 629.328125 142.74427 
L 631.176604 138.627438 
L 632.100844 138.109346 
L 633.025083 138.768186 
L 633.949323 139.269448 
L 634.873562 138.661601 
L 635.797802 136.432166 
L 636.722041 134.892086 
L 637.646281 134.848659 
L 637.646281 134.848659 
" style="fill:none;stroke:#ff796c;stroke-linecap:square;stroke-width:1.5;"/>
   </g>
   <g id="line2d_13">
    <path clip-path="url(#p2a9d0773c3)" d="M 194.935537 128.978474 
L 195.859777 129.206936 
L 201.405214 131.970994 
L 205.102172 134.493643 
L 206.950651 135.641278 
L 209.72337 136.946099 
L 211.571849 137.573097 
L 213.420328 137.740197 
L 216.193047 137.769625 
L 218.041526 137.423842 
L 223.586963 135.867951 
L 228.208161 134.176146 
L 231.905119 132.522685 
L 235.602077 130.584981 
L 243.920233 125.917109 
L 246.692952 124.651374 
L 249.465671 123.67219 
L 252.238389 123.000226 
L 255.011108 122.646861 
L 257.783826 122.58989 
L 260.556545 122.835893 
L 263.329264 123.387841 
L 266.101982 124.243157 
L 268.874701 125.406669 
L 271.64742 126.871351 
L 274.420138 128.621189 
L 277.192857 130.625457 
L 280.889815 133.640073 
L 284.586773 136.967741 
L 290.132211 142.332619 
L 297.526127 149.549792 
L 301.223085 152.871374 
L 303.995804 155.127945 
L 306.768523 157.131513 
L 309.541241 158.853674 
L 312.31396 160.274595 
L 315.086679 161.39213 
L 317.859397 162.214648 
L 320.632116 162.762929 
L 323.404834 163.067261 
L 326.177553 163.164719 
L 330.798751 163.03834 
L 341.889625 162.307014 
L 349.283542 161.988105 
L 354.828979 161.983506 
L 359.450177 162.239577 
L 363.147135 162.663301 
L 366.844093 163.296409 
L 371.465291 164.343692 
L 379.783447 166.576359 
L 385.328884 167.941256 
L 389.950082 168.815592 
L 393.64704 169.298054 
L 397.343998 169.587129 
L 401.965196 169.719241 
L 408.434873 169.624685 
L 418.601508 169.460597 
L 422.298466 169.604839 
L 425.995424 169.98825 
L 428.768143 170.487217 
L 431.540862 171.206306 
L 434.31358 172.177917 
L 437.086299 173.431958 
L 439.859018 174.994936 
L 442.631736 176.890339 
L 445.404455 179.140439 
L 448.177174 181.76298 
L 450.949892 184.767854 
L 453.722611 188.155178 
L 456.495329 191.913559 
L 459.268048 196.016543 
L 462.965006 201.944242 
L 467.586204 209.846627 
L 474.98012 222.598952 
L 477.752839 227.035523 
L 480.525558 231.104042 
L 483.298276 234.719073 
L 486.070995 237.83684 
L 487.919474 239.639783 
L 490.692193 241.96458 
L 493.464911 243.906248 
L 496.23763 245.567099 
L 499.934588 247.52186 
L 512.873942 254.09005 
L 516.5709 256.274955 
L 525.813296 261.982157 
L 527.661775 262.844877 
L 529.510254 263.492244 
L 531.358733 263.882271 
L 533.207212 263.988604 
L 535.055691 263.804264 
L 536.90417 263.343997 
L 538.752649 262.641246 
L 541.525368 261.239375 
L 546.146566 258.46123 
L 549.843524 256.319486 
L 552.616243 254.932036 
L 555.388961 253.75806 
L 557.23744 253.078344 
L 558.16168 253.077458 
L 559.085919 253.607135 
L 560.010159 254.307439 
L 562.782878 255.569606 
L 563.707117 255.752442 
L 565.555596 255.867695 
L 566.479836 255.91156 
L 568.328315 255.597428 
L 569.252554 255.627057 
L 571.101033 255.353822 
L 572.025273 255.618776 
L 573.873752 256.719587 
L 574.797992 257.21206 
L 576.646471 258.957177 
L 577.57071 259.788277 
L 578.49495 260.776638 
L 582.191908 265.939122 
L 594.207022 285.858364 
L 599.752459 294.265892 
L 602.525178 298.076702 
L 605.297897 301.665328 
L 608.994855 306.048472 
L 612.691813 309.960591 
L 615.464532 312.302046 
L 616.388771 312.928346 
L 618.23725 313.652306 
L 620.08573 314.648715 
L 621.009969 314.971314 
L 622.858448 316.163699 
L 623.782688 316.764025 
L 625.631167 317.590033 
L 627.479646 318.384935 
L 629.328125 319.207164 
L 632.100844 320.173862 
L 633.949323 320.973164 
L 634.873562 321.231667 
L 636.722041 321.387382 
L 637.646281 321.345043 
L 637.646281 321.345043 
" style="fill:none;stroke:#ffff14;stroke-linecap:square;stroke-width:1.5;"/>
   </g>
   <g id="line2d_14">
    <path clip-path="url(#p2a9d0773c3)" d="M 194.935537 128.920296 
L 203.253693 129.024192 
L 211.571849 129.33552 
L 219.890005 129.853201 
L 228.208161 130.575437 
L 237.450556 131.614763 
L 246.692952 132.899068 
L 255.935347 134.422851 
L 265.177743 136.179587 
L 274.420138 138.161755 
L 283.662534 140.360866 
L 293.829169 143.019191 
L 303.995804 145.914832 
L 314.162439 149.032784 
L 325.253314 152.668723 
L 337.268428 156.858467 
L 350.207781 161.628232 
L 364.071375 166.990803 
L 379.783447 173.319705 
L 399.192477 181.393788 
L 460.192288 206.961857 
L 475.90436 213.188889 
L 489.767953 218.43552 
L 501.783067 222.753673 
L 512.873942 226.522457 
L 523.964817 230.058817 
L 534.131452 233.077654 
L 544.298087 235.867212 
L 554.464722 238.413037 
L 563.707117 240.504796 
L 572.949513 242.37525 
L 582.191908 244.016389 
L 591.434304 245.421184 
L 600.676699 246.583622 
L 608.994855 247.418464 
L 617.313011 248.050054 
L 625.631167 248.476201 
L 633.949323 248.695428 
L 637.646281 248.726218 
L 637.646281 248.726218 
" style="fill:none;stroke:#014d4e;stroke-linecap:square;stroke-width:1.5;"/>
   </g>
   <g id="line2d_15">
    <path clip-path="url(#p2a9d0773c3)" d="M 194.935537 168.797853 
L 195.859777 168.570673 
L 201.405214 165.868191 
L 205.102172 163.437864 
L 206.950651 162.351752 
L 209.72337 161.158386 
L 211.571849 160.618454 
L 213.420328 160.548613 
L 216.193047 160.68415 
L 218.041526 161.152597 
L 222.662724 162.724978 
L 228.208161 165.255322 
L 231.905119 167.294808 
L 235.602077 169.658192 
L 244.844473 176.005321 
L 247.617191 177.611046 
L 250.38991 178.919275 
L 253.162629 179.950982 
L 255.935347 180.683264 
L 258.708066 181.143306 
L 261.480785 181.32083 
L 264.253503 181.208937 
L 267.026222 180.818926 
L 269.798941 180.136091 
L 272.571659 179.17985 
L 275.344378 177.96563 
L 278.117097 176.526411 
L 281.814055 174.314228 
L 286.435253 171.199024 
L 298.450367 162.754256 
L 301.223085 161.087069 
L 303.995804 159.642918 
L 306.768523 158.468312 
L 309.541241 157.591337 
L 312.31396 157.031497 
L 315.086679 156.79061 
L 317.859397 156.859966 
L 320.632116 157.218442 
L 323.404834 157.8354 
L 326.177553 158.673411 
L 329.874511 160.023938 
L 335.419949 162.313349 
L 350.207781 168.515007 
L 355.753219 170.588051 
L 360.374416 172.067168 
L 364.071375 173.045084 
L 368.692572 173.998848 
L 374.23801 174.848602 
L 383.480405 176.178441 
L 388.101603 177.108633 
L 391.798561 178.067463 
L 395.495519 179.230612 
L 400.116717 180.947126 
L 405.662154 183.289661 
L 420.449987 189.739234 
L 424.146945 191.053768 
L 426.919664 191.856624 
L 429.692383 192.460839 
L 432.465101 192.83062 
L 435.23782 192.935419 
L 438.010538 192.746285 
L 440.783257 192.236197 
L 442.631736 191.706155 
L 444.480215 191.016597 
L 446.328694 190.161843 
L 448.177174 189.137521 
L 450.949892 187.277226 
L 453.722611 185.028944 
L 456.495329 182.403628 
L 459.268048 179.427295 
L 462.040767 176.14255 
L 465.737725 171.405232 
L 476.8286 156.809972 
L 479.601318 153.674366 
L 482.374037 150.957575 
L 484.222516 149.410017 
L 486.070995 148.081452 
L 487.919474 146.967617 
L 489.767953 146.05482 
L 491.616432 145.320892 
L 494.389151 144.493997 
L 497.16187 143.899593 
L 501.783067 143.167278 
L 509.176984 142.038594 
L 512.873942 141.288438 
L 516.5709 140.309252 
L 526.737535 137.322623 
L 528.586014 137.115916 
L 530.434493 137.1403 
L 532.282972 137.429638 
L 534.131452 138.001181 
L 535.979931 138.851794 
L 537.82841 139.955311 
L 540.601128 141.992604 
L 544.298087 145.128652 
L 548.919284 149.083124 
L 551.692003 151.229339 
L 554.464722 153.142074 
L 557.23744 154.840974 
L 558.16168 155.054318 
L 559.085919 154.734938 
L 560.010159 154.24276 
L 563.707117 153.608385 
L 565.555596 153.885198 
L 566.479836 154.034024 
L 568.328315 154.726812 
L 569.252554 154.883134 
L 571.101033 155.521471 
L 572.025273 155.435654 
L 573.873752 154.686251 
L 574.797992 154.366033 
L 576.646471 152.958494 
L 577.57071 152.2927 
L 578.49495 151.467316 
L 582.191908 146.933297 
L 596.055501 126.144383 
L 598.82822 122.335762 
L 601.600939 118.700529 
L 605.297897 114.263062 
L 609.919095 109.299948 
L 612.691813 106.61985 
L 615.464532 104.481373 
L 616.388771 103.917673 
L 618.23725 103.311306 
L 620.08573 102.422334 
L 621.009969 102.149638 
L 622.858448 101.049416 
L 623.782688 100.491349 
L 625.631167 99.742199 
L 627.479646 99.013934 
L 629.328125 98.24811 
L 632.100844 97.346812 
L 633.949323 96.578295 
L 634.873562 96.331338 
L 636.722041 96.191018 
L 637.646281 96.237206 
L 637.646281 96.237206 
" style="fill:none;stroke:#e50000;stroke-linecap:square;stroke-width:1.5;"/>
   </g>
   <g id="patch_3">
    <path d="M 172.8 332.6472 
L 172.8 84.9312 
" style="fill:none;stroke:#000000;stroke-linecap:square;stroke-linejoin:miter;stroke-width:0.8;"/>
   </g>
   <g id="patch_4">
    <path d="M 659.781818 332.6472 
L 659.781818 84.9312 
" style="fill:none;stroke:#000000;stroke-linecap:square;stroke-linejoin:miter;stroke-width:0.8;"/>
   </g>
   <g id="patch_5">
    <path d="M 172.8 332.6472 
L 659.781818 332.6472 
" style="fill:none;stroke:#000000;stroke-linecap:square;stroke-linejoin:miter;stroke-width:0.8;"/>
   </g>
   <g id="patch_6">
    <path d="M 172.8 84.9312 
L 659.781818 84.9312 
" style="fill:none;stroke:#000000;stroke-linecap:square;stroke-linejoin:miter;stroke-width:0.8;"/>
   </g>
   <g id="text_12">
    <!-- Right abduction -->
    <defs>
     <path d="M 44.390625 34.1875 
Q 47.5625 33.109375 50.5625 29.59375 
Q 53.5625 26.078125 56.59375 19.921875 
L 66.609375 0 
L 56 0 
L 46.6875 18.703125 
Q 43.0625 26.03125 39.671875 28.421875 
Q 36.28125 30.8125 30.421875 30.8125 
L 19.671875 30.8125 
L 19.671875 0 
L 9.8125 0 
L 9.8125 72.90625 
L 32.078125 72.90625 
Q 44.578125 72.90625 50.734375 67.671875 
Q 56.890625 62.453125 56.890625 51.90625 
Q 56.890625 45.015625 53.6875 40.46875 
Q 50.484375 35.9375 44.390625 34.1875 
z
M 19.671875 64.796875 
L 19.671875 38.921875 
L 32.078125 38.921875 
Q 39.203125 38.921875 42.84375 42.21875 
Q 46.484375 45.515625 46.484375 51.90625 
Q 46.484375 58.296875 42.84375 61.546875 
Q 39.203125 64.796875 32.078125 64.796875 
z
" id="DejaVuSans-82"/>
     <path d="M 9.421875 54.6875 
L 18.40625 54.6875 
L 18.40625 0 
L 9.421875 0 
z
M 9.421875 75.984375 
L 18.40625 75.984375 
L 18.40625 64.59375 
L 9.421875 64.59375 
z
" id="DejaVuSans-105"/>
     <path d="M 45.40625 27.984375 
Q 45.40625 37.75 41.375 43.109375 
Q 37.359375 48.484375 30.078125 48.484375 
Q 22.859375 48.484375 18.828125 43.109375 
Q 14.796875 37.75 14.796875 27.984375 
Q 14.796875 18.265625 18.828125 12.890625 
Q 22.859375 7.515625 30.078125 7.515625 
Q 37.359375 7.515625 41.375 12.890625 
Q 45.40625 18.265625 45.40625 27.984375 
z
M 54.390625 6.78125 
Q 54.390625 -7.171875 48.1875 -13.984375 
Q 42 -20.796875 29.203125 -20.796875 
Q 24.46875 -20.796875 20.265625 -20.09375 
Q 16.0625 -19.390625 12.109375 -17.921875 
L 12.109375 -9.1875 
Q 16.0625 -11.328125 19.921875 -12.34375 
Q 23.78125 -13.375 27.78125 -13.375 
Q 36.625 -13.375 41.015625 -8.765625 
Q 45.40625 -4.15625 45.40625 5.171875 
L 45.40625 9.625 
Q 42.625 4.78125 38.28125 2.390625 
Q 33.9375 0 27.875 0 
Q 17.828125 0 11.671875 7.65625 
Q 5.515625 15.328125 5.515625 27.984375 
Q 5.515625 40.671875 11.671875 48.328125 
Q 17.828125 56 27.875 56 
Q 33.9375 56 38.28125 53.609375 
Q 42.625 51.21875 45.40625 46.390625 
L 45.40625 54.6875 
L 54.390625 54.6875 
z
" id="DejaVuSans-103"/>
     <path d="M 54.890625 33.015625 
L 54.890625 0 
L 45.90625 0 
L 45.90625 32.71875 
Q 45.90625 40.484375 42.875 44.328125 
Q 39.84375 48.1875 33.796875 48.1875 
Q 26.515625 48.1875 22.3125 43.546875 
Q 18.109375 38.921875 18.109375 30.90625 
L 18.109375 0 
L 9.078125 0 
L 9.078125 75.984375 
L 18.109375 75.984375 
L 18.109375 46.1875 
Q 21.34375 51.125 25.703125 53.5625 
Q 30.078125 56 35.796875 56 
Q 45.21875 56 50.046875 50.171875 
Q 54.890625 44.34375 54.890625 33.015625 
z
" id="DejaVuSans-104"/>
     <path d="M 18.3125 70.21875 
L 18.3125 54.6875 
L 36.8125 54.6875 
L 36.8125 47.703125 
L 18.3125 47.703125 
L 18.3125 18.015625 
Q 18.3125 11.328125 20.140625 9.421875 
Q 21.96875 7.515625 27.59375 7.515625 
L 36.8125 7.515625 
L 36.8125 0 
L 27.59375 0 
Q 17.1875 0 13.234375 3.875 
Q 9.28125 7.765625 9.28125 18.015625 
L 9.28125 47.703125 
L 2.6875 47.703125 
L 2.6875 54.6875 
L 9.28125 54.6875 
L 9.28125 70.21875 
z
" id="DejaVuSans-116"/>
     <path id="DejaVuSans-32"/>
     <path d="M 34.28125 27.484375 
Q 23.390625 27.484375 19.1875 25 
Q 14.984375 22.515625 14.984375 16.5 
Q 14.984375 11.71875 18.140625 8.90625 
Q 21.296875 6.109375 26.703125 6.109375 
Q 34.1875 6.109375 38.703125 11.40625 
Q 43.21875 16.703125 43.21875 25.484375 
L 43.21875 27.484375 
z
M 52.203125 31.203125 
L 52.203125 0 
L 43.21875 0 
L 43.21875 8.296875 
Q 40.140625 3.328125 35.546875 0.953125 
Q 30.953125 -1.421875 24.3125 -1.421875 
Q 15.921875 -1.421875 10.953125 3.296875 
Q 6 8.015625 6 15.921875 
Q 6 25.140625 12.171875 29.828125 
Q 18.359375 34.515625 30.609375 34.515625 
L 43.21875 34.515625 
L 43.21875 35.40625 
Q 43.21875 41.609375 39.140625 45 
Q 35.0625 48.390625 27.6875 48.390625 
Q 23 48.390625 18.546875 47.265625 
Q 14.109375 46.140625 10.015625 43.890625 
L 10.015625 52.203125 
Q 14.9375 54.109375 19.578125 55.046875 
Q 24.21875 56 28.609375 56 
Q 40.484375 56 46.34375 49.84375 
Q 52.203125 43.703125 52.203125 31.203125 
z
" id="DejaVuSans-97"/>
     <path d="M 48.6875 27.296875 
Q 48.6875 37.203125 44.609375 42.84375 
Q 40.53125 48.484375 33.40625 48.484375 
Q 26.265625 48.484375 22.1875 42.84375 
Q 18.109375 37.203125 18.109375 27.296875 
Q 18.109375 17.390625 22.1875 11.75 
Q 26.265625 6.109375 33.40625 6.109375 
Q 40.53125 6.109375 44.609375 11.75 
Q 48.6875 17.390625 48.6875 27.296875 
z
M 18.109375 46.390625 
Q 20.953125 51.265625 25.265625 53.625 
Q 29.59375 56 35.59375 56 
Q 45.5625 56 51.78125 48.09375 
Q 58.015625 40.1875 58.015625 27.296875 
Q 58.015625 14.40625 51.78125 6.484375 
Q 45.5625 -1.421875 35.59375 -1.421875 
Q 29.59375 -1.421875 25.265625 0.953125 
Q 20.953125 3.328125 18.109375 8.203125 
L 18.109375 0 
L 9.078125 0 
L 9.078125 75.984375 
L 18.109375 75.984375 
z
" id="DejaVuSans-98"/>
     <path d="M 45.40625 46.390625 
L 45.40625 75.984375 
L 54.390625 75.984375 
L 54.390625 0 
L 45.40625 0 
L 45.40625 8.203125 
Q 42.578125 3.328125 38.25 0.953125 
Q 33.9375 -1.421875 27.875 -1.421875 
Q 17.96875 -1.421875 11.734375 6.484375 
Q 5.515625 14.40625 5.515625 27.296875 
Q 5.515625 40.1875 11.734375 48.09375 
Q 17.96875 56 27.875 56 
Q 33.9375 56 38.25 53.625 
Q 42.578125 51.265625 45.40625 46.390625 
z
M 14.796875 27.296875 
Q 14.796875 17.390625 18.875 11.75 
Q 22.953125 6.109375 30.078125 6.109375 
Q 37.203125 6.109375 41.296875 11.75 
Q 45.40625 17.390625 45.40625 27.296875 
Q 45.40625 37.203125 41.296875 42.84375 
Q 37.203125 48.484375 30.078125 48.484375 
Q 22.953125 48.484375 18.875 42.84375 
Q 14.796875 37.203125 14.796875 27.296875 
z
" id="DejaVuSans-100"/>
     <path d="M 8.5 21.578125 
L 8.5 54.6875 
L 17.484375 54.6875 
L 17.484375 21.921875 
Q 17.484375 14.15625 20.5 10.265625 
Q 23.53125 6.390625 29.59375 6.390625 
Q 36.859375 6.390625 41.078125 11.03125 
Q 45.3125 15.671875 45.3125 23.6875 
L 45.3125 54.6875 
L 54.296875 54.6875 
L 54.296875 0 
L 45.3125 0 
L 45.3125 8.40625 
Q 42.046875 3.421875 37.71875 1 
Q 33.40625 -1.421875 27.6875 -1.421875 
Q 18.265625 -1.421875 13.375 4.4375 
Q 8.5 10.296875 8.5 21.578125 
z
M 31.109375 56 
z
" id="DejaVuSans-117"/>
     <path d="M 48.78125 52.59375 
L 48.78125 44.1875 
Q 44.96875 46.296875 41.140625 47.34375 
Q 37.3125 48.390625 33.40625 48.390625 
Q 24.65625 48.390625 19.8125 42.84375 
Q 14.984375 37.3125 14.984375 27.296875 
Q 14.984375 17.28125 19.8125 11.734375 
Q 24.65625 6.203125 33.40625 6.203125 
Q 37.3125 6.203125 41.140625 7.25 
Q 44.96875 8.296875 48.78125 10.40625 
L 48.78125 2.09375 
Q 45.015625 0.34375 40.984375 -0.53125 
Q 36.96875 -1.421875 32.421875 -1.421875 
Q 20.0625 -1.421875 12.78125 6.34375 
Q 5.515625 14.109375 5.515625 27.296875 
Q 5.515625 40.671875 12.859375 48.328125 
Q 20.21875 56 33.015625 56 
Q 37.15625 56 41.109375 55.140625 
Q 45.0625 54.296875 48.78125 52.59375 
z
" id="DejaVuSans-99"/>
     <path d="M 30.609375 48.390625 
Q 23.390625 48.390625 19.1875 42.75 
Q 14.984375 37.109375 14.984375 27.296875 
Q 14.984375 17.484375 19.15625 11.84375 
Q 23.34375 6.203125 30.609375 6.203125 
Q 37.796875 6.203125 41.984375 11.859375 
Q 46.1875 17.53125 46.1875 27.296875 
Q 46.1875 37.015625 41.984375 42.703125 
Q 37.796875 48.390625 30.609375 48.390625 
z
M 30.609375 56 
Q 42.328125 56 49.015625 48.375 
Q 55.71875 40.765625 55.71875 27.296875 
Q 55.71875 13.875 49.015625 6.21875 
Q 42.328125 -1.421875 30.609375 -1.421875 
Q 18.84375 -1.421875 12.171875 6.21875 
Q 5.515625 13.875 5.515625 27.296875 
Q 5.515625 40.765625 12.171875 48.375 
Q 18.84375 56 30.609375 56 
z
" id="DejaVuSans-111"/>
     <path d="M 54.890625 33.015625 
L 54.890625 0 
L 45.90625 0 
L 45.90625 32.71875 
Q 45.90625 40.484375 42.875 44.328125 
Q 39.84375 48.1875 33.796875 48.1875 
Q 26.515625 48.1875 22.3125 43.546875 
Q 18.109375 38.921875 18.109375 30.90625 
L 18.109375 0 
L 9.078125 0 
L 9.078125 54.6875 
L 18.109375 54.6875 
L 18.109375 46.1875 
Q 21.34375 51.125 25.703125 53.5625 
Q 30.078125 56 35.796875 56 
Q 45.21875 56 50.046875 50.171875 
Q 54.890625 44.34375 54.890625 33.015625 
z
" id="DejaVuSans-110"/>
    </defs>
    <g transform="translate(368.694972 78.9312)scale(0.12 -0.12)">
     <use xlink:href="#DejaVuSans-82"/>
     <use x="69.482422" xlink:href="#DejaVuSans-105"/>
     <use x="97.265625" xlink:href="#DejaVuSans-103"/>
     <use x="160.742188" xlink:href="#DejaVuSans-104"/>
     <use x="224.121094" xlink:href="#DejaVuSans-116"/>
     <use x="263.330078" xlink:href="#DejaVuSans-32"/>
     <use x="295.117188" xlink:href="#DejaVuSans-97"/>
     <use x="356.396484" xlink:href="#DejaVuSans-98"/>
     <use x="419.873047" xlink:href="#DejaVuSans-100"/>
     <use x="483.349609" xlink:href="#DejaVuSans-117"/>
     <use x="546.728516" xlink:href="#DejaVuSans-99"/>
     <use x="601.708984" xlink:href="#DejaVuSans-116"/>
     <use x="640.917969" xlink:href="#DejaVuSans-105"/>
     <use x="668.701172" xlink:href="#DejaVuSans-111"/>
     <use x="729.882812" xlink:href="#DejaVuSans-110"/>
    </g>
   </g>
  </g>
  <g id="axes_2">
   <g id="patch_7">
    <path d="M 757.178182 332.6472 
L 1244.16 332.6472 
L 1244.16 84.9312 
L 757.178182 84.9312 
z
" style="fill:#ffffff;"/>
   </g>
   <g id="matplotlib.axis_3">
    <g id="xtick_7">
     <g id="line2d_16">
      <g>
       <use style="stroke:#000000;stroke-width:0.8;" x="779.313719" xlink:href="#m8cb55e51d2" y="332.6472"/>
      </g>
     </g>
     <g id="text_13">
      <!-- 0 -->
      <g transform="translate(776.132469 347.245637)scale(0.1 -0.1)">
       <use xlink:href="#DejaVuSans-48"/>
      </g>
     </g>
    </g>
    <g id="xtick_8">
     <g id="line2d_17">
      <g>
       <use style="stroke:#000000;stroke-width:0.8;" x="871.737674" xlink:href="#m8cb55e51d2" y="332.6472"/>
      </g>
     </g>
     <g id="text_14">
      <!-- 100 -->
      <g transform="translate(862.193924 347.245637)scale(0.1 -0.1)">
       <use xlink:href="#DejaVuSans-49"/>
       <use x="63.623047" xlink:href="#DejaVuSans-48"/>
       <use x="127.246094" xlink:href="#DejaVuSans-48"/>
      </g>
     </g>
    </g>
    <g id="xtick_9">
     <g id="line2d_18">
      <g>
       <use style="stroke:#000000;stroke-width:0.8;" x="964.161629" xlink:href="#m8cb55e51d2" y="332.6472"/>
      </g>
     </g>
     <g id="text_15">
      <!-- 200 -->
      <g transform="translate(954.617879 347.245637)scale(0.1 -0.1)">
       <use xlink:href="#DejaVuSans-50"/>
       <use x="63.623047" xlink:href="#DejaVuSans-48"/>
       <use x="127.246094" xlink:href="#DejaVuSans-48"/>
      </g>
     </g>
    </g>
    <g id="xtick_10">
     <g id="line2d_19">
      <g>
       <use style="stroke:#000000;stroke-width:0.8;" x="1056.585584" xlink:href="#m8cb55e51d2" y="332.6472"/>
      </g>
     </g>
     <g id="text_16">
      <!-- 300 -->
      <g transform="translate(1047.041834 347.245637)scale(0.1 -0.1)">
       <use xlink:href="#DejaVuSans-51"/>
       <use x="63.623047" xlink:href="#DejaVuSans-48"/>
       <use x="127.246094" xlink:href="#DejaVuSans-48"/>
      </g>
     </g>
    </g>
    <g id="xtick_11">
     <g id="line2d_20">
      <g>
       <use style="stroke:#000000;stroke-width:0.8;" x="1149.009538" xlink:href="#m8cb55e51d2" y="332.6472"/>
      </g>
     </g>
     <g id="text_17">
      <!-- 400 -->
      <g transform="translate(1139.465788 347.245637)scale(0.1 -0.1)">
       <use xlink:href="#DejaVuSans-52"/>
       <use x="63.623047" xlink:href="#DejaVuSans-48"/>
       <use x="127.246094" xlink:href="#DejaVuSans-48"/>
      </g>
     </g>
    </g>
    <g id="xtick_12">
     <g id="line2d_21">
      <g>
       <use style="stroke:#000000;stroke-width:0.8;" x="1241.433493" xlink:href="#m8cb55e51d2" y="332.6472"/>
      </g>
     </g>
     <g id="text_18">
      <!-- 500 -->
      <g transform="translate(1231.889743 347.245637)scale(0.1 -0.1)">
       <use xlink:href="#DejaVuSans-53"/>
       <use x="63.623047" xlink:href="#DejaVuSans-48"/>
       <use x="127.246094" xlink:href="#DejaVuSans-48"/>
      </g>
     </g>
    </g>
   </g>
   <g id="matplotlib.axis_4">
    <g id="ytick_6">
     <g id="line2d_22">
      <g>
       <use style="stroke:#000000;stroke-width:0.8;" x="757.178182" xlink:href="#md873a1c2fa" y="325.079392"/>
      </g>
     </g>
     <g id="text_19">
      <!-- −0.05 -->
      <g transform="translate(719.532869 328.878611)scale(0.1 -0.1)">
       <use xlink:href="#DejaVuSans-8722"/>
       <use x="83.789062" xlink:href="#DejaVuSans-48"/>
       <use x="147.412109" xlink:href="#DejaVuSans-46"/>
       <use x="179.199219" xlink:href="#DejaVuSans-48"/>
       <use x="242.822266" xlink:href="#DejaVuSans-53"/>
      </g>
     </g>
    </g>
    <g id="ytick_7">
     <g id="line2d_23">
      <g>
       <use style="stroke:#000000;stroke-width:0.8;" x="757.178182" xlink:href="#md873a1c2fa" y="295.72146"/>
      </g>
     </g>
     <g id="text_20">
      <!-- 0.00 -->
      <g transform="translate(727.912557 299.520678)scale(0.1 -0.1)">
       <use xlink:href="#DejaVuSans-48"/>
       <use x="63.623047" xlink:href="#DejaVuSans-46"/>
       <use x="95.410156" xlink:href="#DejaVuSans-48"/>
       <use x="159.033203" xlink:href="#DejaVuSans-48"/>
      </g>
     </g>
    </g>
    <g id="ytick_8">
     <g id="line2d_24">
      <g>
       <use style="stroke:#000000;stroke-width:0.8;" x="757.178182" xlink:href="#md873a1c2fa" y="266.363527"/>
      </g>
     </g>
     <g id="text_21">
      <!-- 0.05 -->
      <g transform="translate(727.912557 270.162746)scale(0.1 -0.1)">
       <use xlink:href="#DejaVuSans-48"/>
       <use x="63.623047" xlink:href="#DejaVuSans-46"/>
       <use x="95.410156" xlink:href="#DejaVuSans-48"/>
       <use x="159.033203" xlink:href="#DejaVuSans-53"/>
      </g>
     </g>
    </g>
    <g id="ytick_9">
     <g id="line2d_25">
      <g>
       <use style="stroke:#000000;stroke-width:0.8;" x="757.178182" xlink:href="#md873a1c2fa" y="237.005595"/>
      </g>
     </g>
     <g id="text_22">
      <!-- 0.10 -->
      <g transform="translate(727.912557 240.804814)scale(0.1 -0.1)">
       <use xlink:href="#DejaVuSans-48"/>
       <use x="63.623047" xlink:href="#DejaVuSans-46"/>
       <use x="95.410156" xlink:href="#DejaVuSans-49"/>
       <use x="159.033203" xlink:href="#DejaVuSans-48"/>
      </g>
     </g>
    </g>
    <g id="ytick_10">
     <g id="line2d_26">
      <g>
       <use style="stroke:#000000;stroke-width:0.8;" x="757.178182" xlink:href="#md873a1c2fa" y="207.647663"/>
      </g>
     </g>
     <g id="text_23">
      <!-- 0.15 -->
      <g transform="translate(727.912557 211.446882)scale(0.1 -0.1)">
       <use xlink:href="#DejaVuSans-48"/>
       <use x="63.623047" xlink:href="#DejaVuSans-46"/>
       <use x="95.410156" xlink:href="#DejaVuSans-49"/>
       <use x="159.033203" xlink:href="#DejaVuSans-53"/>
      </g>
     </g>
    </g>
    <g id="ytick_11">
     <g id="line2d_27">
      <g>
       <use style="stroke:#000000;stroke-width:0.8;" x="757.178182" xlink:href="#md873a1c2fa" y="178.289731"/>
      </g>
     </g>
     <g id="text_24">
      <!-- 0.20 -->
      <g transform="translate(727.912557 182.088949)scale(0.1 -0.1)">
       <use xlink:href="#DejaVuSans-48"/>
       <use x="63.623047" xlink:href="#DejaVuSans-46"/>
       <use x="95.410156" xlink:href="#DejaVuSans-50"/>
       <use x="159.033203" xlink:href="#DejaVuSans-48"/>
      </g>
     </g>
    </g>
    <g id="ytick_12">
     <g id="line2d_28">
      <g>
       <use style="stroke:#000000;stroke-width:0.8;" x="757.178182" xlink:href="#md873a1c2fa" y="148.931798"/>
      </g>
     </g>
     <g id="text_25">
      <!-- 0.25 -->
      <g transform="translate(727.912557 152.731017)scale(0.1 -0.1)">
       <use xlink:href="#DejaVuSans-48"/>
       <use x="63.623047" xlink:href="#DejaVuSans-46"/>
       <use x="95.410156" xlink:href="#DejaVuSans-50"/>
       <use x="159.033203" xlink:href="#DejaVuSans-53"/>
      </g>
     </g>
    </g>
    <g id="ytick_13">
     <g id="line2d_29">
      <g>
       <use style="stroke:#000000;stroke-width:0.8;" x="757.178182" xlink:href="#md873a1c2fa" y="119.573866"/>
      </g>
     </g>
     <g id="text_26">
      <!-- 0.30 -->
      <g transform="translate(727.912557 123.373085)scale(0.1 -0.1)">
       <use xlink:href="#DejaVuSans-48"/>
       <use x="63.623047" xlink:href="#DejaVuSans-46"/>
       <use x="95.410156" xlink:href="#DejaVuSans-51"/>
       <use x="159.033203" xlink:href="#DejaVuSans-48"/>
      </g>
     </g>
    </g>
    <g id="ytick_14">
     <g id="line2d_30">
      <g>
       <use style="stroke:#000000;stroke-width:0.8;" x="757.178182" xlink:href="#md873a1c2fa" y="90.215934"/>
      </g>
     </g>
     <g id="text_27">
      <!-- 0.35 -->
      <g transform="translate(727.912557 94.015152)scale(0.1 -0.1)">
       <use xlink:href="#DejaVuSans-48"/>
       <use x="63.623047" xlink:href="#DejaVuSans-46"/>
       <use x="95.410156" xlink:href="#DejaVuSans-51"/>
       <use x="159.033203" xlink:href="#DejaVuSans-53"/>
      </g>
     </g>
    </g>
   </g>
   <g id="line2d_31">
    <path clip-path="url(#p35c58b6d71)" d="M 779.313719 295.722689 
L 1142.539862 296.100962 
L 1144.388341 296.789679 
L 1145.31258 296.688755 
L 1146.23682 296.7677 
L 1147.161059 297.180932 
L 1148.085299 297.176031 
L 1149.009538 296.962174 
L 1150.858018 297.372522 
L 1151.782257 297.09625 
L 1152.706497 296.999362 
L 1153.630736 297.210788 
L 1154.554976 297.069983 
L 1155.479215 296.700432 
L 1156.403455 296.64102 
L 1157.327694 296.799162 
L 1158.251934 296.619399 
L 1159.176174 296.248256 
L 1161.024653 296.272549 
L 1162.873132 295.637196 
L 1163.797371 295.739203 
L 1164.721611 295.647727 
L 1165.64585 295.268829 
L 1166.57009 295.212413 
L 1167.494329 295.37079 
L 1169.342809 294.936839 
L 1171.191288 295.253973 
L 1172.115527 295.059042 
L 1173.039767 295.077451 
L 1173.964006 295.407085 
L 1174.888246 295.492127 
L 1175.812485 295.406841 
L 1178.585204 296.036367 
L 1179.509444 296.067393 
L 1181.357923 296.65742 
L 1183.206402 296.740437 
L 1185.054881 297.176605 
L 1186.90336 297.158444 
L 1188.751839 297.396084 
L 1190.600318 297.272816 
L 1192.448797 297.385866 
L 1194.297276 297.239377 
L 1196.145755 297.337934 
L 1197.994235 297.250584 
L 1200.766953 297.495296 
L 1201.691193 297.324081 
L 1202.615432 297.97379 
L 1203.539672 299.382764 
L 1204.463911 300.275833 
L 1205.388151 300.350195 
L 1206.31239 300.903554 
L 1208.16087 304.361557 
L 1209.085109 305.47042 
L 1210.009349 306.196262 
L 1210.933588 307.280059 
L 1213.706307 312.612033 
L 1215.554786 314.212464 
L 1216.479026 315.589694 
L 1218.327505 319.436619 
L 1219.251744 320.515203 
L 1221.100223 320.789263 
L 1222.024463 321.387382 
L 1222.024463 321.387382 
" style="fill:none;stroke:#ff796c;stroke-linecap:square;stroke-width:1.5;"/>
   </g>
   <g id="line2d_32">
    <path clip-path="url(#p35c58b6d71)" d="M 779.313719 96.202137 
L 885.601267 96.231835 
L 1102.797561 96.192523 
L 1141.615622 96.191188 
L 1143.464101 112.008549 
L 1148.085299 111.743653 
L 1158.251934 111.651318 
L 1161.024653 111.429994 
L 1163.797371 111.121762 
L 1169.342809 110.246395 
L 1188.751839 106.496318 
L 1194.297276 105.287489 
L 1196.145755 105.687888 
L 1197.069995 105.71458 
L 1197.994235 106.322515 
L 1198.918474 107.900422 
L 1200.766953 111.91386 
L 1201.691193 118.387747 
L 1203.539672 134.726256 
L 1204.463911 140.877136 
L 1205.388151 145.729092 
L 1206.31239 147.518929 
L 1207.23663 149.863872 
L 1210.009349 160.291031 
L 1210.933588 164.72736 
L 1212.782067 175.884848 
L 1214.630546 188.577738 
L 1216.479026 201.149578 
L 1217.403265 206.000135 
L 1218.327505 209.473472 
L 1219.251744 211.571249 
L 1221.100223 191.927139 
L 1222.024463 179.860054 
L 1222.024463 179.860054 
" style="fill:none;stroke:#ffff14;stroke-linecap:square;stroke-width:1.5;"/>
   </g>
   <g id="line2d_33">
    <path clip-path="url(#p35c58b6d71)" d="M 779.313719 96.241996 
L 1222.024463 96.241996 
L 1222.024463 96.241996 
" style="fill:none;stroke:#014d4e;stroke-linecap:square;stroke-width:1.5;"/>
   </g>
   <g id="line2d_34">
    <path clip-path="url(#p35c58b6d71)" d="M 779.313719 295.761318 
L 885.601267 295.731621 
L 1102.797561 295.770932 
L 1141.615622 295.772268 
L 1143.464101 279.954907 
L 1148.085299 280.219802 
L 1158.251934 280.312138 
L 1161.024653 280.533462 
L 1163.797371 280.841694 
L 1169.342809 281.717061 
L 1188.751839 285.467138 
L 1194.297276 286.675967 
L 1196.145755 286.275568 
L 1197.069995 286.248876 
L 1197.994235 285.640941 
L 1198.918474 284.063034 
L 1200.766953 280.049596 
L 1201.691193 273.575709 
L 1203.539672 257.2372 
L 1204.463911 251.086319 
L 1205.388151 246.234364 
L 1206.31239 244.444526 
L 1207.23663 242.099584 
L 1210.009349 231.672425 
L 1210.933588 227.236096 
L 1212.782067 216.078607 
L 1214.630546 203.385717 
L 1216.479026 190.813878 
L 1217.403265 185.963321 
L 1218.327505 182.489984 
L 1219.251744 180.392206 
L 1221.100223 200.036317 
L 1222.024463 212.103402 
L 1222.024463 212.103402 
" style="fill:none;stroke:#e50000;stroke-linecap:square;stroke-width:1.5;"/>
   </g>
   <g id="patch_8">
    <path d="M 757.178182 332.6472 
L 757.178182 84.9312 
" style="fill:none;stroke:#000000;stroke-linecap:square;stroke-linejoin:miter;stroke-width:0.8;"/>
   </g>
   <g id="patch_9">
    <path d="M 1244.16 332.6472 
L 1244.16 84.9312 
" style="fill:none;stroke:#000000;stroke-linecap:square;stroke-linejoin:miter;stroke-width:0.8;"/>
   </g>
   <g id="patch_10">
    <path d="M 757.178182 332.6472 
L 1244.16 332.6472 
" style="fill:none;stroke:#000000;stroke-linecap:square;stroke-linejoin:miter;stroke-width:0.8;"/>
   </g>
   <g id="patch_11">
    <path d="M 757.178182 84.9312 
L 1244.16 84.9312 
" style="fill:none;stroke:#000000;stroke-linecap:square;stroke-linejoin:miter;stroke-width:0.8;"/>
   </g>
   <g id="text_28">
    <!-- Right flexion -->
    <defs>
     <path d="M 37.109375 75.984375 
L 37.109375 68.5 
L 28.515625 68.5 
Q 23.6875 68.5 21.796875 66.546875 
Q 19.921875 64.59375 19.921875 59.515625 
L 19.921875 54.6875 
L 34.71875 54.6875 
L 34.71875 47.703125 
L 19.921875 47.703125 
L 19.921875 0 
L 10.890625 0 
L 10.890625 47.703125 
L 2.296875 47.703125 
L 2.296875 54.6875 
L 10.890625 54.6875 
L 10.890625 58.5 
Q 10.890625 67.625 15.140625 71.796875 
Q 19.390625 75.984375 28.609375 75.984375 
z
" id="DejaVuSans-102"/>
     <path d="M 9.421875 75.984375 
L 18.40625 75.984375 
L 18.40625 0 
L 9.421875 0 
z
" id="DejaVuSans-108"/>
     <path d="M 56.203125 29.59375 
L 56.203125 25.203125 
L 14.890625 25.203125 
Q 15.484375 15.921875 20.484375 11.0625 
Q 25.484375 6.203125 34.421875 6.203125 
Q 39.59375 6.203125 44.453125 7.46875 
Q 49.3125 8.734375 54.109375 11.28125 
L 54.109375 2.78125 
Q 49.265625 0.734375 44.1875 -0.34375 
Q 39.109375 -1.421875 33.890625 -1.421875 
Q 20.796875 -1.421875 13.15625 6.1875 
Q 5.515625 13.8125 5.515625 26.8125 
Q 5.515625 40.234375 12.765625 48.109375 
Q 20.015625 56 32.328125 56 
Q 43.359375 56 49.78125 48.890625 
Q 56.203125 41.796875 56.203125 29.59375 
z
M 47.21875 32.234375 
Q 47.125 39.59375 43.09375 43.984375 
Q 39.0625 48.390625 32.421875 48.390625 
Q 24.90625 48.390625 20.390625 44.140625 
Q 15.875 39.890625 15.1875 32.171875 
z
" id="DejaVuSans-101"/>
     <path d="M 54.890625 54.6875 
L 35.109375 28.078125 
L 55.90625 0 
L 45.3125 0 
L 29.390625 21.484375 
L 13.484375 0 
L 2.875 0 
L 24.125 28.609375 
L 4.6875 54.6875 
L 15.28125 54.6875 
L 29.78125 35.203125 
L 44.28125 54.6875 
z
" id="DejaVuSans-120"/>
    </defs>
    <g transform="translate(962.800653 78.9312)scale(0.12 -0.12)">
     <use xlink:href="#DejaVuSans-82"/>
     <use x="69.482422" xlink:href="#DejaVuSans-105"/>
     <use x="97.265625" xlink:href="#DejaVuSans-103"/>
     <use x="160.742188" xlink:href="#DejaVuSans-104"/>
     <use x="224.121094" xlink:href="#DejaVuSans-116"/>
     <use x="263.330078" xlink:href="#DejaVuSans-32"/>
     <use x="295.117188" xlink:href="#DejaVuSans-102"/>
     <use x="330.322266" xlink:href="#DejaVuSans-108"/>
     <use x="358.105469" xlink:href="#DejaVuSans-101"/>
     <use x="419.613281" xlink:href="#DejaVuSans-120"/>
     <use x="478.792969" xlink:href="#DejaVuSans-105"/>
     <use x="506.576172" xlink:href="#DejaVuSans-111"/>
     <use x="567.757812" xlink:href="#DejaVuSans-110"/>
    </g>
   </g>
  </g>
  <g id="axes_3">
   <g id="patch_12">
    <path d="M 172.8 629.9064 
L 659.781818 629.9064 
L 659.781818 382.1904 
L 172.8 382.1904 
z
" style="fill:#ffffff;"/>
   </g>
   <g id="matplotlib.axis_5">
    <g id="xtick_13">
     <g id="line2d_35">
      <g>
       <use style="stroke:#000000;stroke-width:0.8;" x="194.935537" xlink:href="#m8cb55e51d2" y="629.9064"/>
      </g>
     </g>
     <g id="text_29">
      <!-- 0 -->
      <g transform="translate(191.754287 644.504838)scale(0.1 -0.1)">
       <use xlink:href="#DejaVuSans-48"/>
      </g>
     </g>
    </g>
    <g id="xtick_14">
     <g id="line2d_36">
      <g>
       <use style="stroke:#000000;stroke-width:0.8;" x="287.359492" xlink:href="#m8cb55e51d2" y="629.9064"/>
      </g>
     </g>
     <g id="text_30">
      <!-- 100 -->
      <g transform="translate(277.815742 644.504838)scale(0.1 -0.1)">
       <use xlink:href="#DejaVuSans-49"/>
       <use x="63.623047" xlink:href="#DejaVuSans-48"/>
       <use x="127.246094" xlink:href="#DejaVuSans-48"/>
      </g>
     </g>
    </g>
    <g id="xtick_15">
     <g id="line2d_37">
      <g>
       <use style="stroke:#000000;stroke-width:0.8;" x="379.783447" xlink:href="#m8cb55e51d2" y="629.9064"/>
      </g>
     </g>
     <g id="text_31">
      <!-- 200 -->
      <g transform="translate(370.239697 644.504838)scale(0.1 -0.1)">
       <use xlink:href="#DejaVuSans-50"/>
       <use x="63.623047" xlink:href="#DejaVuSans-48"/>
       <use x="127.246094" xlink:href="#DejaVuSans-48"/>
      </g>
     </g>
    </g>
    <g id="xtick_16">
     <g id="line2d_38">
      <g>
       <use style="stroke:#000000;stroke-width:0.8;" x="472.207402" xlink:href="#m8cb55e51d2" y="629.9064"/>
      </g>
     </g>
     <g id="text_32">
      <!-- 300 -->
      <g transform="translate(462.663652 644.504838)scale(0.1 -0.1)">
       <use xlink:href="#DejaVuSans-51"/>
       <use x="63.623047" xlink:href="#DejaVuSans-48"/>
       <use x="127.246094" xlink:href="#DejaVuSans-48"/>
      </g>
     </g>
    </g>
    <g id="xtick_17">
     <g id="line2d_39">
      <g>
       <use style="stroke:#000000;stroke-width:0.8;" x="564.631357" xlink:href="#m8cb55e51d2" y="629.9064"/>
      </g>
     </g>
     <g id="text_33">
      <!-- 400 -->
      <g transform="translate(555.087607 644.504838)scale(0.1 -0.1)">
       <use xlink:href="#DejaVuSans-52"/>
       <use x="63.623047" xlink:href="#DejaVuSans-48"/>
       <use x="127.246094" xlink:href="#DejaVuSans-48"/>
      </g>
     </g>
    </g>
    <g id="xtick_18">
     <g id="line2d_40">
      <g>
       <use style="stroke:#000000;stroke-width:0.8;" x="657.055312" xlink:href="#m8cb55e51d2" y="629.9064"/>
      </g>
     </g>
     <g id="text_34">
      <!-- 500 -->
      <g transform="translate(647.511562 644.504838)scale(0.1 -0.1)">
       <use xlink:href="#DejaVuSans-53"/>
       <use x="63.623047" xlink:href="#DejaVuSans-48"/>
       <use x="127.246094" xlink:href="#DejaVuSans-48"/>
      </g>
     </g>
    </g>
   </g>
   <g id="matplotlib.axis_6">
    <g id="ytick_15">
     <g id="line2d_41">
      <g>
       <use style="stroke:#000000;stroke-width:0.8;" x="172.8" xlink:href="#md873a1c2fa" y="603.709515"/>
      </g>
     </g>
     <g id="text_35">
      <!-- −0.75 -->
      <defs>
       <path d="M 8.203125 72.90625 
L 55.078125 72.90625 
L 55.078125 68.703125 
L 28.609375 0 
L 18.3125 0 
L 43.21875 64.59375 
L 8.203125 64.59375 
z
" id="DejaVuSans-55"/>
      </defs>
      <g transform="translate(135.154687 607.508733)scale(0.1 -0.1)">
       <use xlink:href="#DejaVuSans-8722"/>
       <use x="83.789062" xlink:href="#DejaVuSans-48"/>
       <use x="147.412109" xlink:href="#DejaVuSans-46"/>
       <use x="179.199219" xlink:href="#DejaVuSans-55"/>
       <use x="242.822266" xlink:href="#DejaVuSans-53"/>
      </g>
     </g>
    </g>
    <g id="ytick_16">
     <g id="line2d_42">
      <g>
       <use style="stroke:#000000;stroke-width:0.8;" x="172.8" xlink:href="#md873a1c2fa" y="570.740972"/>
      </g>
     </g>
     <g id="text_36">
      <!-- −0.50 -->
      <g transform="translate(135.154687 574.540191)scale(0.1 -0.1)">
       <use xlink:href="#DejaVuSans-8722"/>
       <use x="83.789062" xlink:href="#DejaVuSans-48"/>
       <use x="147.412109" xlink:href="#DejaVuSans-46"/>
       <use x="179.199219" xlink:href="#DejaVuSans-53"/>
       <use x="242.822266" xlink:href="#DejaVuSans-48"/>
      </g>
     </g>
    </g>
    <g id="ytick_17">
     <g id="line2d_43">
      <g>
       <use style="stroke:#000000;stroke-width:0.8;" x="172.8" xlink:href="#md873a1c2fa" y="537.77243"/>
      </g>
     </g>
     <g id="text_37">
      <!-- −0.25 -->
      <g transform="translate(135.154687 541.571649)scale(0.1 -0.1)">
       <use xlink:href="#DejaVuSans-8722"/>
       <use x="83.789062" xlink:href="#DejaVuSans-48"/>
       <use x="147.412109" xlink:href="#DejaVuSans-46"/>
       <use x="179.199219" xlink:href="#DejaVuSans-50"/>
       <use x="242.822266" xlink:href="#DejaVuSans-53"/>
      </g>
     </g>
    </g>
    <g id="ytick_18">
     <g id="line2d_44">
      <g>
       <use style="stroke:#000000;stroke-width:0.8;" x="172.8" xlink:href="#md873a1c2fa" y="504.803887"/>
      </g>
     </g>
     <g id="text_38">
      <!-- 0.00 -->
      <g transform="translate(143.534375 508.603106)scale(0.1 -0.1)">
       <use xlink:href="#DejaVuSans-48"/>
       <use x="63.623047" xlink:href="#DejaVuSans-46"/>
       <use x="95.410156" xlink:href="#DejaVuSans-48"/>
       <use x="159.033203" xlink:href="#DejaVuSans-48"/>
      </g>
     </g>
    </g>
    <g id="ytick_19">
     <g id="line2d_45">
      <g>
       <use style="stroke:#000000;stroke-width:0.8;" x="172.8" xlink:href="#md873a1c2fa" y="471.835345"/>
      </g>
     </g>
     <g id="text_39">
      <!-- 0.25 -->
      <g transform="translate(143.534375 475.634564)scale(0.1 -0.1)">
       <use xlink:href="#DejaVuSans-48"/>
       <use x="63.623047" xlink:href="#DejaVuSans-46"/>
       <use x="95.410156" xlink:href="#DejaVuSans-50"/>
       <use x="159.033203" xlink:href="#DejaVuSans-53"/>
      </g>
     </g>
    </g>
    <g id="ytick_20">
     <g id="line2d_46">
      <g>
       <use style="stroke:#000000;stroke-width:0.8;" x="172.8" xlink:href="#md873a1c2fa" y="438.866802"/>
      </g>
     </g>
     <g id="text_40">
      <!-- 0.50 -->
      <g transform="translate(143.534375 442.666021)scale(0.1 -0.1)">
       <use xlink:href="#DejaVuSans-48"/>
       <use x="63.623047" xlink:href="#DejaVuSans-46"/>
       <use x="95.410156" xlink:href="#DejaVuSans-53"/>
       <use x="159.033203" xlink:href="#DejaVuSans-48"/>
      </g>
     </g>
    </g>
    <g id="ytick_21">
     <g id="line2d_47">
      <g>
       <use style="stroke:#000000;stroke-width:0.8;" x="172.8" xlink:href="#md873a1c2fa" y="405.89826"/>
      </g>
     </g>
     <g id="text_41">
      <!-- 0.75 -->
      <g transform="translate(143.534375 409.697479)scale(0.1 -0.1)">
       <use xlink:href="#DejaVuSans-48"/>
       <use x="63.623047" xlink:href="#DejaVuSans-46"/>
       <use x="95.410156" xlink:href="#DejaVuSans-55"/>
       <use x="159.033203" xlink:href="#DejaVuSans-53"/>
      </g>
     </g>
    </g>
   </g>
   <g id="line2d_48">
    <path clip-path="url(#pbe9f968e73)" d="M 194.935537 505.425182 
L 195.859777 505.36358 
L 197.708256 504.197315 
L 198.632495 504.198538 
L 199.556735 504.536041 
L 200.480974 504.746392 
L 203.253693 504.447863 
L 209.72337 504.995102 
L 210.64761 504.860626 
L 211.571849 504.847216 
L 213.420328 505.261682 
L 214.344568 505.292423 
L 216.193047 504.925661 
L 217.117286 504.934833 
L 218.965765 505.212616 
L 220.814245 504.965244 
L 221.738484 504.863248 
L 225.435442 504.978234 
L 227.283921 504.903743 
L 230.98088 504.998327 
L 242.995994 505.000064 
L 246.692952 504.923614 
L 259.632306 504.863002 
L 301.223085 504.798497 
L 335.419949 504.869499 
L 380.707686 504.929776 
L 408.434873 505.207887 
L 525.813296 504.569662 
L 545.222326 505.001238 
L 557.23744 504.940137 
L 558.16168 499.161436 
L 560.010159 509.036763 
L 560.934398 502.09846 
L 561.858638 500.840602 
L 562.782878 508.28853 
L 563.707117 506.637001 
L 564.631357 501.396539 
L 565.555596 506.123833 
L 566.479836 509.538887 
L 567.404075 504.227486 
L 568.328315 503.039599 
L 569.252554 508.20419 
L 570.176794 506.97704 
L 571.101033 502.276775 
L 572.025273 503.010813 
L 572.949513 507.261022 
L 573.873752 505.968445 
L 574.797992 502.136663 
L 575.722231 504.317387 
L 576.646471 506.982155 
L 577.57071 504.027852 
L 578.49495 502.284219 
L 579.419189 505.444662 
L 580.343429 505.789036 
L 581.267669 502.539457 
L 582.191908 503.05391 
L 583.116148 505.749951 
L 584.040387 504.289675 
L 584.964627 502.253689 
L 585.888866 504.365824 
L 586.813106 505.62456 
L 587.737345 503.421176 
L 588.661585 503.080227 
L 589.585824 505.344705 
L 590.510064 505.0885 
L 591.434304 503.212057 
L 592.358543 504.045492 
L 593.282783 505.633792 
L 595.131262 503.48219 
L 596.055501 504.696528 
L 596.979741 505.573103 
L 597.90398 504.403908 
L 598.82822 503.780061 
L 599.752459 504.928623 
L 600.676699 505.389335 
L 601.600939 504.330489 
L 602.525178 503.95676 
L 603.449418 504.917154 
L 604.373657 505.213001 
L 605.297897 504.317102 
L 606.222136 503.979039 
L 607.146376 504.727214 
L 608.070615 505.016797 
L 608.994855 504.309106 
L 609.919095 503.923918 
L 610.843334 504.523694 
L 611.767574 504.913125 
L 613.616053 504.02423 
L 615.464532 505.001555 
L 616.388771 504.760114 
L 617.313011 502.995067 
L 618.23725 503.673665 
L 619.16149 505.440982 
L 620.08573 505.393762 
L 621.009969 503.703345 
L 621.934209 502.869478 
L 622.858448 504.364593 
L 623.782688 505.179148 
L 624.706927 504.890232 
L 625.631167 504.112674 
L 626.555406 503.863458 
L 628.403886 504.954491 
L 629.328125 504.89076 
L 630.252365 504.271827 
L 631.176604 503.787829 
L 632.100844 503.94711 
L 633.949323 505.104889 
L 634.873562 505.127897 
L 635.797802 504.324616 
L 636.722041 503.987767 
L 637.646281 504.40606 
L 637.646281 504.40606 
" style="fill:none;stroke:#ff796c;stroke-linecap:square;stroke-width:1.5;"/>
   </g>
   <g id="line2d_49">
    <path clip-path="url(#pbe9f968e73)" d="M 194.935537 401.378664 
L 195.859777 402.037392 
L 196.784016 403.150212 
L 197.708256 403.958827 
L 198.632495 403.985457 
L 202.329454 401.603108 
L 203.253693 400.829693 
L 205.102172 398.784371 
L 207.874891 395.647826 
L 208.79913 394.886399 
L 209.72337 394.431588 
L 213.420328 393.450218 
L 214.344568 393.686246 
L 217.117286 395.350029 
L 218.965765 396.229914 
L 222.662724 398.949296 
L 224.511203 399.831323 
L 227.283921 401.29586 
L 230.98088 402.830513 
L 233.753598 404.290546 
L 236.526317 406.064118 
L 238.374796 407.463668 
L 243.920233 411.916997 
L 245.768712 413.293132 
L 248.541431 415.030293 
L 250.38991 416.054685 
L 253.162629 417.271513 
L 255.935347 418.332289 
L 261.480785 420.087187 
L 265.177743 421.037265 
L 268.874701 421.647687 
L 271.64742 421.888211 
L 275.344378 421.976056 
L 279.965576 421.807237 
L 286.435253 421.285744 
L 297.526127 420.318064 
L 301.223085 420.28824 
L 303.995804 420.481988 
L 306.768523 420.891095 
L 309.541241 421.555075 
L 312.31396 422.472967 
L 315.086679 423.651715 
L 317.859397 425.07335 
L 320.632116 426.71545 
L 324.329074 429.193684 
L 328.026032 431.927336 
L 339.116907 440.531372 
L 361.298656 456.721196 
L 365.919854 459.874924 
L 370.541051 462.75546 
L 376.086489 465.945479 
L 385.328884 471.228004 
L 390.874322 474.703596 
L 396.419759 478.492464 
L 402.889436 483.222866 
L 410.283352 488.899434 
L 421.374227 497.313916 
L 425.995424 500.587431 
L 429.692383 502.990417 
L 433.389341 505.137057 
L 437.086299 506.981507 
L 439.859018 508.145454 
L 442.631736 509.101715 
L 445.404455 509.832332 
L 448.177174 510.318849 
L 450.949892 510.546158 
L 453.722611 510.506804 
L 456.495329 510.206751 
L 459.268048 509.665279 
L 462.040767 508.915103 
L 466.661964 507.35359 
L 479.601318 502.706877 
L 485.146755 501.097905 
L 490.692193 499.724311 
L 494.389151 499.023313 
L 497.16187 498.729349 
L 499.934588 498.710977 
L 501.783067 498.882041 
L 503.631546 499.218609 
L 506.404265 500.026371 
L 509.176984 501.118007 
L 515.646661 503.858629 
L 517.49514 504.381089 
L 519.343619 504.685626 
L 521.192098 504.758378 
L 523.040577 504.612595 
L 525.813296 504.108646 
L 529.510254 503.40625 
L 531.358733 503.303152 
L 533.207212 503.504711 
L 535.055691 504.083199 
L 536.90417 505.06759 
L 538.752649 506.432922 
L 540.601128 508.136252 
L 543.373847 511.123513 
L 547.995045 516.316017 
L 550.767763 519.047658 
L 552.616243 520.608982 
L 554.464722 521.967717 
L 557.23744 523.700846 
L 558.16168 525.57818 
L 560.010159 519.313636 
L 560.934398 521.204956 
L 561.858638 519.937188 
L 562.782878 515.014908 
L 563.707117 514.668997 
L 564.631357 516.17883 
L 565.555596 513.976675 
L 566.479836 513.60114 
L 567.404075 517.957937 
L 568.328315 520.729286 
L 569.252554 521.117693 
L 570.176794 524.772246 
L 571.101033 529.702924 
L 572.025273 531.3773 
L 572.949513 531.179896 
L 573.873752 533.474376 
L 574.797992 536.386268 
L 575.722231 535.998518 
L 576.646471 535.26019 
L 577.57071 536.874543 
L 578.49495 537.378142 
L 579.419189 535.325363 
L 580.343429 534.440168 
L 581.267669 534.771713 
L 582.191908 532.852348 
L 583.116148 529.727317 
L 584.964627 526.807806 
L 585.888866 523.229544 
L 586.813106 520.14331 
L 587.737345 518.647145 
L 588.661585 516.239547 
L 589.585824 512.813403 
L 590.510064 510.790406 
L 591.434304 509.586478 
L 593.282783 504.771657 
L 595.131262 502.880923 
L 596.055501 501.039477 
L 596.979741 499.603473 
L 597.90398 499.28691 
L 598.82822 498.730215 
L 599.752459 497.408924 
L 600.676699 496.564039 
L 601.600939 496.496361 
L 602.525178 496.043711 
L 603.449418 494.952407 
L 604.373657 494.24653 
L 605.297897 494.091964 
L 606.222136 493.541401 
L 607.146376 492.380655 
L 608.070615 491.4188 
L 608.994855 490.852388 
L 609.919095 489.950803 
L 611.767574 486.980006 
L 612.691813 485.904821 
L 613.616053 484.641365 
L 615.464532 481.13906 
L 616.388771 479.884389 
L 617.313011 479.703452 
L 618.23725 478.080545 
L 619.16149 475.841402 
L 620.08573 474.609807 
L 621.009969 474.055643 
L 621.934209 472.456679 
L 622.858448 469.138886 
L 623.782688 466.498724 
L 624.706927 464.7067 
L 625.631167 463.215361 
L 626.555406 461.351736 
L 628.403886 456.955369 
L 629.328125 455.361006 
L 630.252365 454.081346 
L 631.176604 452.565707 
L 633.949323 446.416908 
L 634.873562 445.116891 
L 635.797802 444.989761 
L 636.722041 444.198464 
L 637.646281 442.746395 
L 637.646281 442.746395 
" style="fill:none;stroke:#ffff14;stroke-linecap:square;stroke-width:1.5;"/>
   </g>
   <g id="line2d_50">
    <path clip-path="url(#pbe9f968e73)" d="M 194.935537 401.230157 
L 202.329454 401.336615 
L 209.72337 401.655697 
L 217.117286 402.18653 
L 224.511203 402.927657 
L 231.905119 403.877049 
L 239.299036 405.032101 
L 246.692952 406.389649 
L 255.011108 408.154281 
L 263.329264 410.164351 
L 271.64742 412.412886 
L 279.965576 414.892087 
L 288.283732 417.593353 
L 297.526127 420.843785 
L 306.768523 424.342868 
L 316.010918 428.075617 
L 326.177553 432.432421 
L 336.344188 437.030029 
L 347.435063 442.292216 
L 359.450177 448.246634 
L 372.389531 454.905922 
L 388.101603 463.257461 
L 409.359112 474.844982 
L 448.177174 496.054297 
L 463.889246 504.360865 
L 476.8286 510.96966 
L 488.843714 516.866698 
L 499.934588 522.067316 
L 510.101223 526.601562 
L 520.267858 530.88872 
L 529.510254 534.553003 
L 538.752649 537.979017 
L 547.995045 541.15209 
L 556.313201 543.780338 
L 564.631357 546.183566 
L 572.949513 548.353439 
L 581.267669 550.28243 
L 589.585824 551.963847 
L 596.979741 553.245865 
L 604.373657 554.324136 
L 611.767574 555.195702 
L 619.16149 555.858176 
L 626.555406 556.309742 
L 633.949323 556.549162 
L 637.646281 556.589089 
L 637.646281 556.589089 
" style="fill:none;stroke:#014d4e;stroke-linecap:square;stroke-width:1.5;"/>
   </g>
   <g id="line2d_51">
    <path clip-path="url(#pbe9f968e73)" d="M 194.935537 504.65538 
L 195.859777 503.998316 
L 196.784016 502.890487 
L 197.708256 502.090191 
L 198.632495 502.075206 
L 202.329454 504.537394 
L 203.253693 505.339079 
L 205.102172 507.450905 
L 207.874891 510.712092 
L 208.79913 511.521697 
L 209.72337 512.027997 
L 213.420328 513.248392 
L 214.344568 513.080375 
L 217.117286 511.640389 
L 218.965765 510.92614 
L 221.738484 508.990011 
L 223.586963 508.25791 
L 228.208161 506.526996 
L 230.98088 505.720443 
L 233.753598 504.659986 
L 236.526317 503.314814 
L 238.374796 502.216795 
L 242.071754 499.891467 
L 245.768712 497.719758 
L 248.541431 496.533846 
L 250.38991 495.892419 
L 253.162629 495.273075 
L 255.935347 494.837221 
L 260.556545 494.451893 
L 264.253503 494.374188 
L 267.026222 494.565476 
L 269.798941 494.944465 
L 272.571659 495.549102 
L 275.344378 496.3146 
L 279.965576 497.888737 
L 285.511013 500.098038 
L 301.223085 506.730043 
L 303.995804 507.589806 
L 306.768523 508.255661 
L 309.541241 508.687678 
L 312.31396 508.886399 
L 315.086679 508.844448 
L 317.859397 508.579355 
L 320.632116 508.113096 
L 324.329074 507.231888 
L 328.026032 506.127672 
L 337.268428 503.111336 
L 341.889625 501.875056 
L 361.298656 497.266183 
L 365.919854 496.476529 
L 369.616812 496.065542 
L 374.23801 495.776446 
L 388.101603 495.135089 
L 392.722801 494.626665 
L 398.268238 493.76047 
L 404.737915 492.497269 
L 424.146945 488.472394 
L 427.843903 487.99049 
L 431.540862 487.734834 
L 435.23782 487.754116 
L 438.010538 487.972447 
L 440.783257 488.381687 
L 443.555976 488.998522 
L 446.328694 489.842246 
L 449.101413 490.929973 
L 451.874132 492.273161 
L 454.64685 493.874759 
L 457.419569 495.724813 
L 460.192288 497.798734 
L 463.889246 500.843969 
L 470.358923 506.526218 
L 476.8286 512.159846 
L 481.449797 515.92726 
L 486.995235 520.168209 
L 491.616432 523.467249 
L 495.313391 525.835648 
L 498.086109 527.3318 
L 500.858828 528.516966 
L 502.707307 529.1034 
L 504.555786 529.509203 
L 506.404265 529.757641 
L 509.176984 529.885104 
L 515.646661 529.91735 
L 517.49514 530.16809 
L 519.343619 530.628044 
L 521.192098 531.31094 
L 523.040577 532.203401 
L 525.813296 533.810267 
L 529.510254 535.950641 
L 531.358733 536.758487 
L 533.207212 537.252022 
L 535.055691 537.358855 
L 536.90417 537.049892 
L 538.752649 536.349982 
L 540.601128 535.301952 
L 542.449607 533.992757 
L 549.843524 528.374125 
L 551.692003 527.296057 
L 553.540482 526.419669 
L 556.313201 525.430261 
L 557.23744 525.161675 
L 558.16168 523.559848 
L 560.010159 530.366984 
L 560.934398 528.742728 
L 561.858638 530.274723 
L 562.782878 535.458381 
L 563.707117 536.06281 
L 564.631357 534.808624 
L 565.555596 537.263544 
L 566.479836 537.888952 
L 567.404075 533.779125 
L 568.328315 531.251831 
L 569.252554 531.104555 
L 570.176794 527.6882 
L 571.101033 522.992774 
L 572.025273 521.550695 
L 572.949513 521.977431 
L 573.873752 519.909308 
L 574.797992 517.220789 
L 575.722231 517.828918 
L 576.646471 518.784622 
L 577.57071 517.384631 
L 578.49495 517.092374 
L 579.419189 519.353463 
L 580.343429 520.443927 
L 581.267669 520.314604 
L 582.191908 522.433134 
L 583.116148 525.754262 
L 584.964627 529.056739 
L 585.888866 532.821852 
L 586.813106 536.091838 
L 587.737345 537.768649 
L 588.661585 540.353777 
L 589.585824 543.954331 
L 590.510064 546.148608 
L 591.434304 547.52068 
L 593.282783 552.662348 
L 595.131262 554.867299 
L 596.055501 556.861099 
L 596.979741 558.44628 
L 597.90398 558.908835 
L 598.82822 559.608331 
L 599.752459 561.069228 
L 600.676699 562.050515 
L 601.600939 562.251387 
L 602.525178 562.834017 
L 603.449418 564.052081 
L 604.373657 564.881493 
L 605.297897 565.156364 
L 606.222136 565.823995 
L 607.146376 567.098569 
L 608.070615 568.171007 
L 608.994855 568.844751 
L 609.919095 569.850414 
L 611.767574 573.019584 
L 612.691813 574.189056 
L 613.616053 575.543526 
L 615.464532 579.21803 
L 616.388771 580.553878 
L 617.313011 580.812705 
L 618.23725 582.510212 
L 619.16149 584.820661 
L 620.08573 586.120268 
L 621.009969 586.739143 
L 621.934209 588.399517 
L 622.858448 591.775415 
L 623.782688 594.470375 
L 624.706927 596.313888 
L 625.631167 597.853404 
L 626.555406 599.761893 
L 628.403886 604.23804 
L 629.328125 605.867315 
L 630.252365 607.178567 
L 631.176604 608.722475 
L 633.949323 614.936141 
L 634.873562 616.25113 
L 635.797802 616.389906 
L 636.722041 617.189521 
L 637.646281 618.646582 
L 637.646281 618.646582 
" style="fill:none;stroke:#e50000;stroke-linecap:square;stroke-width:1.5;"/>
   </g>
   <g id="patch_13">
    <path d="M 172.8 629.9064 
L 172.8 382.1904 
" style="fill:none;stroke:#000000;stroke-linecap:square;stroke-linejoin:miter;stroke-width:0.8;"/>
   </g>
   <g id="patch_14">
    <path d="M 659.781818 629.9064 
L 659.781818 382.1904 
" style="fill:none;stroke:#000000;stroke-linecap:square;stroke-linejoin:miter;stroke-width:0.8;"/>
   </g>
   <g id="patch_15">
    <path d="M 172.8 629.9064 
L 659.781818 629.9064 
" style="fill:none;stroke:#000000;stroke-linecap:square;stroke-linejoin:miter;stroke-width:0.8;"/>
   </g>
   <g id="patch_16">
    <path d="M 172.8 382.1904 
L 659.781818 382.1904 
" style="fill:none;stroke:#000000;stroke-linecap:square;stroke-linejoin:miter;stroke-width:0.8;"/>
   </g>
   <g id="text_42">
    <!-- Left abduction -->
    <defs>
     <path d="M 9.8125 72.90625 
L 19.671875 72.90625 
L 19.671875 8.296875 
L 55.171875 8.296875 
L 55.171875 0 
L 9.8125 0 
z
" id="DejaVuSans-76"/>
    </defs>
    <g transform="translate(372.997159 376.1904)scale(0.12 -0.12)">
     <use xlink:href="#DejaVuSans-76"/>
     <use x="55.697266" xlink:href="#DejaVuSans-101"/>
     <use x="117.220703" xlink:href="#DejaVuSans-102"/>
     <use x="152.410156" xlink:href="#DejaVuSans-116"/>
     <use x="191.619141" xlink:href="#DejaVuSans-32"/>
     <use x="223.40625" xlink:href="#DejaVuSans-97"/>
     <use x="284.685547" xlink:href="#DejaVuSans-98"/>
     <use x="348.162109" xlink:href="#DejaVuSans-100"/>
     <use x="411.638672" xlink:href="#DejaVuSans-117"/>
     <use x="475.017578" xlink:href="#DejaVuSans-99"/>
     <use x="529.998047" xlink:href="#DejaVuSans-116"/>
     <use x="569.207031" xlink:href="#DejaVuSans-105"/>
     <use x="596.990234" xlink:href="#DejaVuSans-111"/>
     <use x="658.171875" xlink:href="#DejaVuSans-110"/>
    </g>
   </g>
  </g>
  <g id="axes_4">
   <g id="patch_17">
    <path d="M 757.178182 629.9064 
L 1244.16 629.9064 
L 1244.16 382.1904 
L 757.178182 382.1904 
z
" style="fill:#ffffff;"/>
   </g>
   <g id="matplotlib.axis_7">
    <g id="xtick_19">
     <g id="line2d_52">
      <g>
       <use style="stroke:#000000;stroke-width:0.8;" x="779.313719" xlink:href="#m8cb55e51d2" y="629.9064"/>
      </g>
     </g>
     <g id="text_43">
      <!-- 0 -->
      <g transform="translate(776.132469 644.504838)scale(0.1 -0.1)">
       <use xlink:href="#DejaVuSans-48"/>
      </g>
     </g>
    </g>
    <g id="xtick_20">
     <g id="line2d_53">
      <g>
       <use style="stroke:#000000;stroke-width:0.8;" x="871.737674" xlink:href="#m8cb55e51d2" y="629.9064"/>
      </g>
     </g>
     <g id="text_44">
      <!-- 100 -->
      <g transform="translate(862.193924 644.504838)scale(0.1 -0.1)">
       <use xlink:href="#DejaVuSans-49"/>
       <use x="63.623047" xlink:href="#DejaVuSans-48"/>
       <use x="127.246094" xlink:href="#DejaVuSans-48"/>
      </g>
     </g>
    </g>
    <g id="xtick_21">
     <g id="line2d_54">
      <g>
       <use style="stroke:#000000;stroke-width:0.8;" x="964.161629" xlink:href="#m8cb55e51d2" y="629.9064"/>
      </g>
     </g>
     <g id="text_45">
      <!-- 200 -->
      <g transform="translate(954.617879 644.504838)scale(0.1 -0.1)">
       <use xlink:href="#DejaVuSans-50"/>
       <use x="63.623047" xlink:href="#DejaVuSans-48"/>
       <use x="127.246094" xlink:href="#DejaVuSans-48"/>
      </g>
     </g>
    </g>
    <g id="xtick_22">
     <g id="line2d_55">
      <g>
       <use style="stroke:#000000;stroke-width:0.8;" x="1056.585584" xlink:href="#m8cb55e51d2" y="629.9064"/>
      </g>
     </g>
     <g id="text_46">
      <!-- 300 -->
      <g transform="translate(1047.041834 644.504838)scale(0.1 -0.1)">
       <use xlink:href="#DejaVuSans-51"/>
       <use x="63.623047" xlink:href="#DejaVuSans-48"/>
       <use x="127.246094" xlink:href="#DejaVuSans-48"/>
      </g>
     </g>
    </g>
    <g id="xtick_23">
     <g id="line2d_56">
      <g>
       <use style="stroke:#000000;stroke-width:0.8;" x="1149.009538" xlink:href="#m8cb55e51d2" y="629.9064"/>
      </g>
     </g>
     <g id="text_47">
      <!-- 400 -->
      <g transform="translate(1139.465788 644.504838)scale(0.1 -0.1)">
       <use xlink:href="#DejaVuSans-52"/>
       <use x="63.623047" xlink:href="#DejaVuSans-48"/>
       <use x="127.246094" xlink:href="#DejaVuSans-48"/>
      </g>
     </g>
    </g>
    <g id="xtick_24">
     <g id="line2d_57">
      <g>
       <use style="stroke:#000000;stroke-width:0.8;" x="1241.433493" xlink:href="#m8cb55e51d2" y="629.9064"/>
      </g>
     </g>
     <g id="text_48">
      <!-- 500 -->
      <g transform="translate(1231.889743 644.504838)scale(0.1 -0.1)">
       <use xlink:href="#DejaVuSans-53"/>
       <use x="63.623047" xlink:href="#DejaVuSans-48"/>
       <use x="127.246094" xlink:href="#DejaVuSans-48"/>
      </g>
     </g>
    </g>
   </g>
   <g id="matplotlib.axis_8">
    <g id="ytick_22">
     <g id="line2d_58">
      <g>
       <use style="stroke:#000000;stroke-width:0.8;" x="757.178182" xlink:href="#md873a1c2fa" y="606.536737"/>
      </g>
     </g>
     <g id="text_49">
      <!-- −0.5 -->
      <g transform="translate(725.895369 610.335955)scale(0.1 -0.1)">
       <use xlink:href="#DejaVuSans-8722"/>
       <use x="83.789062" xlink:href="#DejaVuSans-48"/>
       <use x="147.412109" xlink:href="#DejaVuSans-46"/>
       <use x="179.199219" xlink:href="#DejaVuSans-53"/>
      </g>
     </g>
    </g>
    <g id="ytick_23">
     <g id="line2d_59">
      <g>
       <use style="stroke:#000000;stroke-width:0.8;" x="757.178182" xlink:href="#md873a1c2fa" y="576.097859"/>
      </g>
     </g>
     <g id="text_50">
      <!-- −0.4 -->
      <g transform="translate(725.895369 579.897078)scale(0.1 -0.1)">
       <use xlink:href="#DejaVuSans-8722"/>
       <use x="83.789062" xlink:href="#DejaVuSans-48"/>
       <use x="147.412109" xlink:href="#DejaVuSans-46"/>
       <use x="179.199219" xlink:href="#DejaVuSans-52"/>
      </g>
     </g>
    </g>
    <g id="ytick_24">
     <g id="line2d_60">
      <g>
       <use style="stroke:#000000;stroke-width:0.8;" x="757.178182" xlink:href="#md873a1c2fa" y="545.658982"/>
      </g>
     </g>
     <g id="text_51">
      <!-- −0.3 -->
      <g transform="translate(725.895369 549.4582)scale(0.1 -0.1)">
       <use xlink:href="#DejaVuSans-8722"/>
       <use x="83.789062" xlink:href="#DejaVuSans-48"/>
       <use x="147.412109" xlink:href="#DejaVuSans-46"/>
       <use x="179.199219" xlink:href="#DejaVuSans-51"/>
      </g>
     </g>
    </g>
    <g id="ytick_25">
     <g id="line2d_61">
      <g>
       <use style="stroke:#000000;stroke-width:0.8;" x="757.178182" xlink:href="#md873a1c2fa" y="515.220104"/>
      </g>
     </g>
     <g id="text_52">
      <!-- −0.2 -->
      <g transform="translate(725.895369 519.019323)scale(0.1 -0.1)">
       <use xlink:href="#DejaVuSans-8722"/>
       <use x="83.789062" xlink:href="#DejaVuSans-48"/>
       <use x="147.412109" xlink:href="#DejaVuSans-46"/>
       <use x="179.199219" xlink:href="#DejaVuSans-50"/>
      </g>
     </g>
    </g>
    <g id="ytick_26">
     <g id="line2d_62">
      <g>
       <use style="stroke:#000000;stroke-width:0.8;" x="757.178182" xlink:href="#md873a1c2fa" y="484.781227"/>
      </g>
     </g>
     <g id="text_53">
      <!-- −0.1 -->
      <g transform="translate(725.895369 488.580445)scale(0.1 -0.1)">
       <use xlink:href="#DejaVuSans-8722"/>
       <use x="83.789062" xlink:href="#DejaVuSans-48"/>
       <use x="147.412109" xlink:href="#DejaVuSans-46"/>
       <use x="179.199219" xlink:href="#DejaVuSans-49"/>
      </g>
     </g>
    </g>
    <g id="ytick_27">
     <g id="line2d_63">
      <g>
       <use style="stroke:#000000;stroke-width:0.8;" x="757.178182" xlink:href="#md873a1c2fa" y="454.342349"/>
      </g>
     </g>
     <g id="text_54">
      <!-- 0.0 -->
      <g transform="translate(734.275057 458.141568)scale(0.1 -0.1)">
       <use xlink:href="#DejaVuSans-48"/>
       <use x="63.623047" xlink:href="#DejaVuSans-46"/>
       <use x="95.410156" xlink:href="#DejaVuSans-48"/>
      </g>
     </g>
    </g>
    <g id="ytick_28">
     <g id="line2d_64">
      <g>
       <use style="stroke:#000000;stroke-width:0.8;" x="757.178182" xlink:href="#md873a1c2fa" y="423.903472"/>
      </g>
     </g>
     <g id="text_55">
      <!-- 0.1 -->
      <g transform="translate(734.275057 427.702691)scale(0.1 -0.1)">
       <use xlink:href="#DejaVuSans-48"/>
       <use x="63.623047" xlink:href="#DejaVuSans-46"/>
       <use x="95.410156" xlink:href="#DejaVuSans-49"/>
      </g>
     </g>
    </g>
    <g id="ytick_29">
     <g id="line2d_65">
      <g>
       <use style="stroke:#000000;stroke-width:0.8;" x="757.178182" xlink:href="#md873a1c2fa" y="393.464594"/>
      </g>
     </g>
     <g id="text_56">
      <!-- 0.2 -->
      <g transform="translate(734.275057 397.263813)scale(0.1 -0.1)">
       <use xlink:href="#DejaVuSans-48"/>
       <use x="63.623047" xlink:href="#DejaVuSans-46"/>
       <use x="95.410156" xlink:href="#DejaVuSans-50"/>
      </g>
     </g>
    </g>
   </g>
   <g id="line2d_66">
    <path clip-path="url(#p92b7ccd21e)" d="M 779.313719 454.341737 
L 1143.464101 454.159947 
L 1145.31258 454.20156 
L 1154.554976 454.261411 
L 1156.403455 454.178892 
L 1158.251934 454.173034 
L 1160.100413 454.098885 
L 1161.948892 454.033926 
L 1165.64585 453.90438 
L 1173.039767 453.860657 
L 1174.888246 453.94091 
L 1176.736725 453.969413 
L 1178.585204 454.046251 
L 1183.206402 454.185555 
L 1185.97912 454.265268 
L 1201.691193 454.298189 
L 1202.615432 454.452135 
L 1203.539672 454.787102 
L 1204.463911 455.000494 
L 1205.388151 455.019415 
L 1206.31239 455.151975 
L 1208.16087 455.996555 
L 1211.857828 457.168698 
L 1212.782067 457.677471 
L 1213.706307 458.058188 
L 1215.554786 458.467486 
L 1216.479026 458.821546 
L 1218.327505 459.816733 
L 1219.251744 460.103472 
L 1222.024463 460.382279 
L 1222.024463 460.382279 
" style="fill:none;stroke:#ff796c;stroke-linecap:square;stroke-width:1.5;"/>
   </g>
   <g id="line2d_67">
    <path clip-path="url(#p92b7ccd21e)" d="M 779.313719 557.780422 
L 954.919233 557.818255 
L 1141.615622 557.789564 
L 1143.464101 567.975083 
L 1144.388341 568.167103 
L 1165.64585 568.062785 
L 1178.585204 568.274003 
L 1185.97912 568.379699 
L 1194.297276 568.799002 
L 1196.145755 569.729758 
L 1197.069995 570.01063 
L 1197.994235 570.918503 
L 1198.918474 572.932917 
L 1200.766953 578.135481 
L 1201.691193 585.867033 
L 1203.539672 604.857673 
L 1205.388151 618.646582 
L 1206.31239 617.661633 
L 1207.23663 616.874317 
L 1209.085109 615.738114 
L 1210.933588 615.011218 
L 1212.782067 614.546774 
L 1215.554786 614.144414 
L 1221.100223 613.742401 
L 1222.024463 613.734537 
L 1222.024463 613.734537 
" style="fill:none;stroke:#ffff14;stroke-linecap:square;stroke-width:1.5;"/>
   </g>
   <g id="line2d_68">
    <path clip-path="url(#p92b7ccd21e)" d="M 779.313719 557.754451 
L 1222.024463 557.754451 
L 1222.024463 557.754451 
" style="fill:none;stroke:#014d4e;stroke-linecap:square;stroke-width:1.5;"/>
   </g>
   <g id="line2d_69">
    <path clip-path="url(#p92b7ccd21e)" d="M 779.313719 454.316378 
L 954.919233 454.278545 
L 1141.615622 454.307236 
L 1143.464101 444.121717 
L 1144.388341 443.929697 
L 1165.64585 444.034015 
L 1178.585204 443.822797 
L 1185.97912 443.717101 
L 1194.297276 443.297798 
L 1196.145755 442.367042 
L 1197.069995 442.08617 
L 1197.994235 441.178297 
L 1198.918474 439.163883 
L 1200.766953 433.961319 
L 1201.691193 426.229767 
L 1203.539672 407.239127 
L 1205.388151 393.450218 
L 1206.31239 394.435167 
L 1207.23663 395.222483 
L 1209.085109 396.358686 
L 1210.933588 397.085582 
L 1212.782067 397.550026 
L 1215.554786 397.952386 
L 1221.100223 398.354399 
L 1222.024463 398.362263 
L 1222.024463 398.362263 
" style="fill:none;stroke:#e50000;stroke-linecap:square;stroke-width:1.5;"/>
   </g>
   <g id="patch_18">
    <path d="M 757.178182 629.9064 
L 757.178182 382.1904 
" style="fill:none;stroke:#000000;stroke-linecap:square;stroke-linejoin:miter;stroke-width:0.8;"/>
   </g>
   <g id="patch_19">
    <path d="M 1244.16 629.9064 
L 1244.16 382.1904 
" style="fill:none;stroke:#000000;stroke-linecap:square;stroke-linejoin:miter;stroke-width:0.8;"/>
   </g>
   <g id="patch_20">
    <path d="M 757.178182 629.9064 
L 1244.16 629.9064 
" style="fill:none;stroke:#000000;stroke-linecap:square;stroke-linejoin:miter;stroke-width:0.8;"/>
   </g>
   <g id="patch_21">
    <path d="M 757.178182 382.1904 
L 1244.16 382.1904 
" style="fill:none;stroke:#000000;stroke-linecap:square;stroke-linejoin:miter;stroke-width:0.8;"/>
   </g>
   <g id="text_57">
    <!-- Left flexion -->
    <g transform="translate(967.102841 376.1904)scale(0.12 -0.12)">
     <use xlink:href="#DejaVuSans-76"/>
     <use x="55.697266" xlink:href="#DejaVuSans-101"/>
     <use x="117.220703" xlink:href="#DejaVuSans-102"/>
     <use x="152.410156" xlink:href="#DejaVuSans-116"/>
     <use x="191.619141" xlink:href="#DejaVuSans-32"/>
     <use x="223.40625" xlink:href="#DejaVuSans-102"/>
     <use x="258.611328" xlink:href="#DejaVuSans-108"/>
     <use x="286.394531" xlink:href="#DejaVuSans-101"/>
     <use x="347.902344" xlink:href="#DejaVuSans-120"/>
     <use x="407.082031" xlink:href="#DejaVuSans-105"/>
     <use x="434.865234" xlink:href="#DejaVuSans-111"/>
     <use x="496.046875" xlink:href="#DejaVuSans-110"/>
    </g>
   </g>
  </g>
  <g id="legend_1">
   <g id="patch_22">
    <path d="M 1308.251562 384.875313 
L 1375.4 384.875313 
Q 1377.4 384.875313 1377.4 382.875313 
L 1377.4 324.884687 
Q 1377.4 322.884687 1375.4 322.884687 
L 1308.251562 322.884687 
Q 1306.251562 322.884687 1306.251562 324.884687 
L 1306.251562 382.875313 
Q 1306.251562 384.875313 1308.251562 384.875313 
z
" style="fill:#ffffff;opacity:0.8;stroke:#cccccc;stroke-linejoin:miter;"/>
   </g>
   <g id="line2d_70">
    <path d="M 1310.251562 330.983125 
L 1330.251562 330.983125 
" style="fill:none;stroke:#ff796c;stroke-linecap:square;stroke-width:1.5;"/>
   </g>
   <g id="line2d_71"/>
   <g id="text_58">
    <!-- Torque -->
    <defs>
     <path d="M -0.296875 72.90625 
L 61.375 72.90625 
L 61.375 64.59375 
L 35.5 64.59375 
L 35.5 0 
L 25.59375 0 
L 25.59375 64.59375 
L -0.296875 64.59375 
z
" id="DejaVuSans-84"/>
     <path d="M 41.109375 46.296875 
Q 39.59375 47.171875 37.8125 47.578125 
Q 36.03125 48 33.890625 48 
Q 26.265625 48 22.1875 43.046875 
Q 18.109375 38.09375 18.109375 28.8125 
L 18.109375 0 
L 9.078125 0 
L 9.078125 54.6875 
L 18.109375 54.6875 
L 18.109375 46.1875 
Q 20.953125 51.171875 25.484375 53.578125 
Q 30.03125 56 36.53125 56 
Q 37.453125 56 38.578125 55.875 
Q 39.703125 55.765625 41.0625 55.515625 
z
" id="DejaVuSans-114"/>
     <path d="M 14.796875 27.296875 
Q 14.796875 17.390625 18.875 11.75 
Q 22.953125 6.109375 30.078125 6.109375 
Q 37.203125 6.109375 41.296875 11.75 
Q 45.40625 17.390625 45.40625 27.296875 
Q 45.40625 37.203125 41.296875 42.84375 
Q 37.203125 48.484375 30.078125 48.484375 
Q 22.953125 48.484375 18.875 42.84375 
Q 14.796875 37.203125 14.796875 27.296875 
z
M 45.40625 8.203125 
Q 42.578125 3.328125 38.25 0.953125 
Q 33.9375 -1.421875 27.875 -1.421875 
Q 17.96875 -1.421875 11.734375 6.484375 
Q 5.515625 14.40625 5.515625 27.296875 
Q 5.515625 40.1875 11.734375 48.09375 
Q 17.96875 56 27.875 56 
Q 33.9375 56 38.25 53.625 
Q 42.578125 51.265625 45.40625 46.390625 
L 45.40625 54.6875 
L 54.390625 54.6875 
L 54.390625 -20.796875 
L 45.40625 -20.796875 
z
" id="DejaVuSans-113"/>
    </defs>
    <g transform="translate(1338.251562 334.483125)scale(0.1 -0.1)">
     <use xlink:href="#DejaVuSans-84"/>
     <use x="60.818359" xlink:href="#DejaVuSans-111"/>
     <use x="122" xlink:href="#DejaVuSans-114"/>
     <use x="163.097656" xlink:href="#DejaVuSans-113"/>
     <use x="226.574219" xlink:href="#DejaVuSans-117"/>
     <use x="289.953125" xlink:href="#DejaVuSans-101"/>
    </g>
   </g>
   <g id="line2d_72">
    <path d="M 1310.251562 345.66125 
L 1330.251562 345.66125 
" style="fill:none;stroke:#ffff14;stroke-linecap:square;stroke-width:1.5;"/>
   </g>
   <g id="line2d_73"/>
   <g id="text_59">
    <!-- q -->
    <g transform="translate(1338.251562 349.16125)scale(0.1 -0.1)">
     <use xlink:href="#DejaVuSans-113"/>
    </g>
   </g>
   <g id="line2d_74">
    <path d="M 1310.251562 360.339375 
L 1330.251562 360.339375 
" style="fill:none;stroke:#014d4e;stroke-linecap:square;stroke-width:1.5;"/>
   </g>
   <g id="line2d_75"/>
   <g id="text_60">
    <!-- q_des -->
    <defs>
     <path d="M 50.984375 -16.609375 
L 50.984375 -23.578125 
L -0.984375 -23.578125 
L -0.984375 -16.609375 
z
" id="DejaVuSans-95"/>
     <path d="M 44.28125 53.078125 
L 44.28125 44.578125 
Q 40.484375 46.53125 36.375 47.5 
Q 32.28125 48.484375 27.875 48.484375 
Q 21.1875 48.484375 17.84375 46.4375 
Q 14.5 44.390625 14.5 40.28125 
Q 14.5 37.15625 16.890625 35.375 
Q 19.28125 33.59375 26.515625 31.984375 
L 29.59375 31.296875 
Q 39.15625 29.25 43.1875 25.515625 
Q 47.21875 21.78125 47.21875 15.09375 
Q 47.21875 7.46875 41.1875 3.015625 
Q 35.15625 -1.421875 24.609375 -1.421875 
Q 20.21875 -1.421875 15.453125 -0.5625 
Q 10.6875 0.296875 5.421875 2 
L 5.421875 11.28125 
Q 10.40625 8.6875 15.234375 7.390625 
Q 20.0625 6.109375 24.8125 6.109375 
Q 31.15625 6.109375 34.5625 8.28125 
Q 37.984375 10.453125 37.984375 14.40625 
Q 37.984375 18.0625 35.515625 20.015625 
Q 33.0625 21.96875 24.703125 23.78125 
L 21.578125 24.515625 
Q 13.234375 26.265625 9.515625 29.90625 
Q 5.8125 33.546875 5.8125 39.890625 
Q 5.8125 47.609375 11.28125 51.796875 
Q 16.75 56 26.8125 56 
Q 31.78125 56 36.171875 55.265625 
Q 40.578125 54.546875 44.28125 53.078125 
z
" id="DejaVuSans-115"/>
    </defs>
    <g transform="translate(1338.251562 363.839375)scale(0.1 -0.1)">
     <use xlink:href="#DejaVuSans-113"/>
     <use x="63.476562" xlink:href="#DejaVuSans-95"/>
     <use x="113.476562" xlink:href="#DejaVuSans-100"/>
     <use x="176.953125" xlink:href="#DejaVuSans-101"/>
     <use x="238.476562" xlink:href="#DejaVuSans-115"/>
    </g>
   </g>
   <g id="line2d_76">
    <path d="M 1310.251562 375.295625 
L 1330.251562 375.295625 
" style="fill:none;stroke:#e50000;stroke-linecap:square;stroke-width:1.5;"/>
   </g>
   <g id="line2d_77"/>
   <g id="text_61">
    <!-- error -->
    <g transform="translate(1338.251562 378.795625)scale(0.1 -0.1)">
     <use xlink:href="#DejaVuSans-101"/>
     <use x="61.523438" xlink:href="#DejaVuSans-114"/>
     <use x="102.621094" xlink:href="#DejaVuSans-114"/>
     <use x="143.703125" xlink:href="#DejaVuSans-111"/>
     <use x="204.884766" xlink:href="#DejaVuSans-114"/>
    </g>
   </g>
  </g>
 </g>
 <defs>
  <clipPath id="p2a9d0773c3">
   <rect height="247.716" width="486.981818" x="172.8" y="84.9312"/>
  </clipPath>
  <clipPath id="p35c58b6d71">
   <rect height="247.716" width="486.981818" x="757.178182" y="84.9312"/>
  </clipPath>
  <clipPath id="pbe9f968e73">
   <rect height="247.716" width="486.981818" x="172.8" y="382.1904"/>
  </clipPath>
  <clipPath id="p92b7ccd21e">
   <rect height="247.716" width="486.981818" x="757.178182" y="382.1904"/>
  </clipPath>
 </defs>
</svg>
