<?xml version="1.0" encoding="utf-8" standalone="no"?>
<!DOCTYPE svg PUBLIC "-//W3C//DTD SVG 1.1//EN"
  "http://www.w3.org/Graphics/SVG/1.1/DTD/svg11.dtd">
<!-- Created with matplotlib (https://matplotlib.org/) -->
<svg height="707.76pt" version="1.1" viewBox="0 0 1382.4 707.76" width="1382.4pt" xmlns="http://www.w3.org/2000/svg" xmlns:xlink="http://www.w3.org/1999/xlink">
 <defs>
  <style type="text/css">
*{stroke-linecap:butt;stroke-linejoin:round;}
  </style>
 </defs>
 <g id="figure_1">
  <g id="patch_1">
   <path d="M 0 707.76 
L 1382.4 707.76 
L 1382.4 0 
L 0 0 
z
" style="fill:#ffffff;"/>
  </g>
  <g id="axes_1">
   <g id="patch_2">
    <path d="M 172.8 629.9064 
L 1244.16 629.9064 
L 1244.16 84.9312 
L 172.8 84.9312 
z
" style="fill:#ffffff;"/>
   </g>
   <g id="matplotlib.axis_1">
    <g id="xtick_1">
     <g id="line2d_1">
      <defs>
       <path d="M 0 0 
L 0 3.5 
" id="m8066114b42" style="stroke:#000000;stroke-width:0.8;"/>
      </defs>
      <g>
       <use style="stroke:#000000;stroke-width:0.8;" x="274.905298" xlink:href="#m8066114b42" y="629.9064"/>
      </g>
     </g>
     <g id="text_1">
      <!-- −0.205 -->
      <defs>
       <path d="M 10.59375 35.5 
L 73.1875 35.5 
L 73.1875 27.203125 
L 10.59375 27.203125 
z
" id="DejaVuSans-8722"/>
       <path d="M 31.78125 66.40625 
Q 24.171875 66.40625 20.328125 58.90625 
Q 16.5 51.421875 16.5 36.375 
Q 16.5 21.390625 20.328125 13.890625 
Q 24.171875 6.390625 31.78125 6.390625 
Q 39.453125 6.390625 43.28125 13.890625 
Q 47.125 21.390625 47.125 36.375 
Q 47.125 51.421875 43.28125 58.90625 
Q 39.453125 66.40625 31.78125 66.40625 
z
M 31.78125 74.21875 
Q 44.046875 74.21875 50.515625 64.515625 
Q 56.984375 54.828125 56.984375 36.375 
Q 56.984375 17.96875 50.515625 8.265625 
Q 44.046875 -1.421875 31.78125 -1.421875 
Q 19.53125 -1.421875 13.0625 8.265625 
Q 6.59375 17.96875 6.59375 36.375 
Q 6.59375 54.828125 13.0625 64.515625 
Q 19.53125 74.21875 31.78125 74.21875 
z
" id="DejaVuSans-48"/>
       <path d="M 10.6875 12.40625 
L 21 12.40625 
L 21 0 
L 10.6875 0 
z
" id="DejaVuSans-46"/>
       <path d="M 19.1875 8.296875 
L 53.609375 8.296875 
L 53.609375 0 
L 7.328125 0 
L 7.328125 8.296875 
Q 12.9375 14.109375 22.625 23.890625 
Q 32.328125 33.6875 34.8125 36.53125 
Q 39.546875 41.84375 41.421875 45.53125 
Q 43.3125 49.21875 43.3125 52.78125 
Q 43.3125 58.59375 39.234375 62.25 
Q 35.15625 65.921875 28.609375 65.921875 
Q 23.96875 65.921875 18.8125 64.3125 
Q 13.671875 62.703125 7.8125 59.421875 
L 7.8125 69.390625 
Q 13.765625 71.78125 18.9375 73 
Q 24.125 74.21875 28.421875 74.21875 
Q 39.75 74.21875 46.484375 68.546875 
Q 53.21875 62.890625 53.21875 53.421875 
Q 53.21875 48.921875 51.53125 44.890625 
Q 49.859375 40.875 45.40625 35.40625 
Q 44.1875 33.984375 37.640625 27.21875 
Q 31.109375 20.453125 19.1875 8.296875 
z
" id="DejaVuSans-50"/>
       <path d="M 10.796875 72.90625 
L 49.515625 72.90625 
L 49.515625 64.59375 
L 19.828125 64.59375 
L 19.828125 46.734375 
Q 21.96875 47.46875 24.109375 47.828125 
Q 26.265625 48.1875 28.421875 48.1875 
Q 40.625 48.1875 47.75 41.5 
Q 54.890625 34.8125 54.890625 23.390625 
Q 54.890625 11.625 47.5625 5.09375 
Q 40.234375 -1.421875 26.90625 -1.421875 
Q 22.3125 -1.421875 17.546875 -0.640625 
Q 12.796875 0.140625 7.71875 1.703125 
L 7.71875 11.625 
Q 12.109375 9.234375 16.796875 8.0625 
Q 21.484375 6.890625 26.703125 6.890625 
Q 35.15625 6.890625 40.078125 11.328125 
Q 45.015625 15.765625 45.015625 23.390625 
Q 45.015625 31 40.078125 35.4375 
Q 35.15625 39.890625 26.703125 39.890625 
Q 22.75 39.890625 18.8125 39.015625 
Q 14.890625 38.140625 10.796875 36.28125 
z
" id="DejaVuSans-53"/>
      </defs>
      <g transform="translate(256.401392 644.504838)scale(0.1 -0.1)">
       <use xlink:href="#DejaVuSans-8722"/>
       <use x="83.789062" xlink:href="#DejaVuSans-48"/>
       <use x="147.412109" xlink:href="#DejaVuSans-46"/>
       <use x="179.199219" xlink:href="#DejaVuSans-50"/>
       <use x="242.822266" xlink:href="#DejaVuSans-48"/>
       <use x="306.445312" xlink:href="#DejaVuSans-53"/>
      </g>
     </g>
    </g>
    <g id="xtick_2">
     <g id="line2d_2">
      <g>
       <use style="stroke:#000000;stroke-width:0.8;" x="401.845859" xlink:href="#m8066114b42" y="629.9064"/>
      </g>
     </g>
     <g id="text_2">
      <!-- −0.200 -->
      <g transform="translate(383.341953 644.504838)scale(0.1 -0.1)">
       <use xlink:href="#DejaVuSans-8722"/>
       <use x="83.789062" xlink:href="#DejaVuSans-48"/>
       <use x="147.412109" xlink:href="#DejaVuSans-46"/>
       <use x="179.199219" xlink:href="#DejaVuSans-50"/>
       <use x="242.822266" xlink:href="#DejaVuSans-48"/>
       <use x="306.445312" xlink:href="#DejaVuSans-48"/>
      </g>
     </g>
    </g>
    <g id="xtick_3">
     <g id="line2d_3">
      <g>
       <use style="stroke:#000000;stroke-width:0.8;" x="528.78642" xlink:href="#m8066114b42" y="629.9064"/>
      </g>
     </g>
     <g id="text_3">
      <!-- −0.195 -->
      <defs>
       <path d="M 12.40625 8.296875 
L 28.515625 8.296875 
L 28.515625 63.921875 
L 10.984375 60.40625 
L 10.984375 69.390625 
L 28.421875 72.90625 
L 38.28125 72.90625 
L 38.28125 8.296875 
L 54.390625 8.296875 
L 54.390625 0 
L 12.40625 0 
z
" id="DejaVuSans-49"/>
       <path d="M 10.984375 1.515625 
L 10.984375 10.5 
Q 14.703125 8.734375 18.5 7.8125 
Q 22.3125 6.890625 25.984375 6.890625 
Q 35.75 6.890625 40.890625 13.453125 
Q 46.046875 20.015625 46.78125 33.40625 
Q 43.953125 29.203125 39.59375 26.953125 
Q 35.25 24.703125 29.984375 24.703125 
Q 19.046875 24.703125 12.671875 31.3125 
Q 6.296875 37.9375 6.296875 49.421875 
Q 6.296875 60.640625 12.9375 67.421875 
Q 19.578125 74.21875 30.609375 74.21875 
Q 43.265625 74.21875 49.921875 64.515625 
Q 56.59375 54.828125 56.59375 36.375 
Q 56.59375 19.140625 48.40625 8.859375 
Q 40.234375 -1.421875 26.421875 -1.421875 
Q 22.703125 -1.421875 18.890625 -0.6875 
Q 15.09375 0.046875 10.984375 1.515625 
z
M 30.609375 32.421875 
Q 37.25 32.421875 41.125 36.953125 
Q 45.015625 41.5 45.015625 49.421875 
Q 45.015625 57.28125 41.125 61.84375 
Q 37.25 66.40625 30.609375 66.40625 
Q 23.96875 66.40625 20.09375 61.84375 
Q 16.21875 57.28125 16.21875 49.421875 
Q 16.21875 41.5 20.09375 36.953125 
Q 23.96875 32.421875 30.609375 32.421875 
z
" id="DejaVuSans-57"/>
      </defs>
      <g transform="translate(510.282513 644.504838)scale(0.1 -0.1)">
       <use xlink:href="#DejaVuSans-8722"/>
       <use x="83.789062" xlink:href="#DejaVuSans-48"/>
       <use x="147.412109" xlink:href="#DejaVuSans-46"/>
       <use x="179.199219" xlink:href="#DejaVuSans-49"/>
       <use x="242.822266" xlink:href="#DejaVuSans-57"/>
       <use x="306.445312" xlink:href="#DejaVuSans-53"/>
      </g>
     </g>
    </g>
    <g id="xtick_4">
     <g id="line2d_4">
      <g>
       <use style="stroke:#000000;stroke-width:0.8;" x="655.72698" xlink:href="#m8066114b42" y="629.9064"/>
      </g>
     </g>
     <g id="text_4">
      <!-- −0.190 -->
      <g transform="translate(637.223074 644.504838)scale(0.1 -0.1)">
       <use xlink:href="#DejaVuSans-8722"/>
       <use x="83.789062" xlink:href="#DejaVuSans-48"/>
       <use x="147.412109" xlink:href="#DejaVuSans-46"/>
       <use x="179.199219" xlink:href="#DejaVuSans-49"/>
       <use x="242.822266" xlink:href="#DejaVuSans-57"/>
       <use x="306.445312" xlink:href="#DejaVuSans-48"/>
      </g>
     </g>
    </g>
    <g id="xtick_5">
     <g id="line2d_5">
      <g>
       <use style="stroke:#000000;stroke-width:0.8;" x="782.667541" xlink:href="#m8066114b42" y="629.9064"/>
      </g>
     </g>
     <g id="text_5">
      <!-- −0.185 -->
      <defs>
       <path d="M 31.78125 34.625 
Q 24.75 34.625 20.71875 30.859375 
Q 16.703125 27.09375 16.703125 20.515625 
Q 16.703125 13.921875 20.71875 10.15625 
Q 24.75 6.390625 31.78125 6.390625 
Q 38.8125 6.390625 42.859375 10.171875 
Q 46.921875 13.96875 46.921875 20.515625 
Q 46.921875 27.09375 42.890625 30.859375 
Q 38.875 34.625 31.78125 34.625 
z
M 21.921875 38.8125 
Q 15.578125 40.375 12.03125 44.71875 
Q 8.5 49.078125 8.5 55.328125 
Q 8.5 64.0625 14.71875 69.140625 
Q 20.953125 74.21875 31.78125 74.21875 
Q 42.671875 74.21875 48.875 69.140625 
Q 55.078125 64.0625 55.078125 55.328125 
Q 55.078125 49.078125 51.53125 44.71875 
Q 48 40.375 41.703125 38.8125 
Q 48.828125 37.15625 52.796875 32.3125 
Q 56.78125 27.484375 56.78125 20.515625 
Q 56.78125 9.90625 50.3125 4.234375 
Q 43.84375 -1.421875 31.78125 -1.421875 
Q 19.734375 -1.421875 13.25 4.234375 
Q 6.78125 9.90625 6.78125 20.515625 
Q 6.78125 27.484375 10.78125 32.3125 
Q 14.796875 37.15625 21.921875 38.8125 
z
M 18.3125 54.390625 
Q 18.3125 48.734375 21.84375 45.5625 
Q 25.390625 42.390625 31.78125 42.390625 
Q 38.140625 42.390625 41.71875 45.5625 
Q 45.3125 48.734375 45.3125 54.390625 
Q 45.3125 60.0625 41.71875 63.234375 
Q 38.140625 66.40625 31.78125 66.40625 
Q 25.390625 66.40625 21.84375 63.234375 
Q 18.3125 60.0625 18.3125 54.390625 
z
" id="DejaVuSans-56"/>
      </defs>
      <g transform="translate(764.163635 644.504838)scale(0.1 -0.1)">
       <use xlink:href="#DejaVuSans-8722"/>
       <use x="83.789062" xlink:href="#DejaVuSans-48"/>
       <use x="147.412109" xlink:href="#DejaVuSans-46"/>
       <use x="179.199219" xlink:href="#DejaVuSans-49"/>
       <use x="242.822266" xlink:href="#DejaVuSans-56"/>
       <use x="306.445312" xlink:href="#DejaVuSans-53"/>
      </g>
     </g>
    </g>
    <g id="xtick_6">
     <g id="line2d_6">
      <g>
       <use style="stroke:#000000;stroke-width:0.8;" x="909.608102" xlink:href="#m8066114b42" y="629.9064"/>
      </g>
     </g>
     <g id="text_6">
      <!-- −0.180 -->
      <g transform="translate(891.104196 644.504838)scale(0.1 -0.1)">
       <use xlink:href="#DejaVuSans-8722"/>
       <use x="83.789062" xlink:href="#DejaVuSans-48"/>
       <use x="147.412109" xlink:href="#DejaVuSans-46"/>
       <use x="179.199219" xlink:href="#DejaVuSans-49"/>
       <use x="242.822266" xlink:href="#DejaVuSans-56"/>
       <use x="306.445312" xlink:href="#DejaVuSans-48"/>
      </g>
     </g>
    </g>
    <g id="xtick_7">
     <g id="line2d_7">
      <g>
       <use style="stroke:#000000;stroke-width:0.8;" x="1036.548663" xlink:href="#m8066114b42" y="629.9064"/>
      </g>
     </g>
     <g id="text_7">
      <!-- −0.175 -->
      <defs>
       <path d="M 8.203125 72.90625 
L 55.078125 72.90625 
L 55.078125 68.703125 
L 28.609375 0 
L 18.3125 0 
L 43.21875 64.59375 
L 8.203125 64.59375 
z
" id="DejaVuSans-55"/>
      </defs>
      <g transform="translate(1018.044756 644.504838)scale(0.1 -0.1)">
       <use xlink:href="#DejaVuSans-8722"/>
       <use x="83.789062" xlink:href="#DejaVuSans-48"/>
       <use x="147.412109" xlink:href="#DejaVuSans-46"/>
       <use x="179.199219" xlink:href="#DejaVuSans-49"/>
       <use x="242.822266" xlink:href="#DejaVuSans-55"/>
       <use x="306.445312" xlink:href="#DejaVuSans-53"/>
      </g>
     </g>
    </g>
    <g id="xtick_8">
     <g id="line2d_8">
      <g>
       <use style="stroke:#000000;stroke-width:0.8;" x="1163.489223" xlink:href="#m8066114b42" y="629.9064"/>
      </g>
     </g>
     <g id="text_8">
      <!-- −0.170 -->
      <g transform="translate(1144.985317 644.504838)scale(0.1 -0.1)">
       <use xlink:href="#DejaVuSans-8722"/>
       <use x="83.789062" xlink:href="#DejaVuSans-48"/>
       <use x="147.412109" xlink:href="#DejaVuSans-46"/>
       <use x="179.199219" xlink:href="#DejaVuSans-49"/>
       <use x="242.822266" xlink:href="#DejaVuSans-55"/>
       <use x="306.445312" xlink:href="#DejaVuSans-48"/>
      </g>
     </g>
    </g>
   </g>
   <g id="matplotlib.axis_2">
    <g id="ytick_1">
     <g id="line2d_9">
      <defs>
       <path d="M 0 0 
L -3.5 0 
" id="m98a5bc97b7" style="stroke:#000000;stroke-width:0.8;"/>
      </defs>
      <g>
       <use style="stroke:#000000;stroke-width:0.8;" x="172.8" xlink:href="#m98a5bc97b7" y="562.01756"/>
      </g>
     </g>
     <g id="text_9">
      <!-- −0.04 -->
      <defs>
       <path d="M 37.796875 64.3125 
L 12.890625 25.390625 
L 37.796875 25.390625 
z
M 35.203125 72.90625 
L 47.609375 72.90625 
L 47.609375 25.390625 
L 58.015625 25.390625 
L 58.015625 17.1875 
L 47.609375 17.1875 
L 47.609375 0 
L 37.796875 0 
L 37.796875 17.1875 
L 4.890625 17.1875 
L 4.890625 26.703125 
z
" id="DejaVuSans-52"/>
      </defs>
      <g transform="translate(135.154687 565.816779)scale(0.1 -0.1)">
       <use xlink:href="#DejaVuSans-8722"/>
       <use x="83.789062" xlink:href="#DejaVuSans-48"/>
       <use x="147.412109" xlink:href="#DejaVuSans-46"/>
       <use x="179.199219" xlink:href="#DejaVuSans-48"/>
       <use x="242.822266" xlink:href="#DejaVuSans-52"/>
      </g>
     </g>
    </g>
    <g id="ytick_2">
     <g id="line2d_10">
      <g>
       <use style="stroke:#000000;stroke-width:0.8;" x="172.8" xlink:href="#m98a5bc97b7" y="459.860945"/>
      </g>
     </g>
     <g id="text_10">
      <!-- −0.03 -->
      <defs>
       <path d="M 40.578125 39.3125 
Q 47.65625 37.796875 51.625 33 
Q 55.609375 28.21875 55.609375 21.1875 
Q 55.609375 10.40625 48.1875 4.484375 
Q 40.765625 -1.421875 27.09375 -1.421875 
Q 22.515625 -1.421875 17.65625 -0.515625 
Q 12.796875 0.390625 7.625 2.203125 
L 7.625 11.71875 
Q 11.71875 9.328125 16.59375 8.109375 
Q 21.484375 6.890625 26.8125 6.890625 
Q 36.078125 6.890625 40.9375 10.546875 
Q 45.796875 14.203125 45.796875 21.1875 
Q 45.796875 27.640625 41.28125 31.265625 
Q 36.765625 34.90625 28.71875 34.90625 
L 20.21875 34.90625 
L 20.21875 43.015625 
L 29.109375 43.015625 
Q 36.375 43.015625 40.234375 45.921875 
Q 44.09375 48.828125 44.09375 54.296875 
Q 44.09375 59.90625 40.109375 62.90625 
Q 36.140625 65.921875 28.71875 65.921875 
Q 24.65625 65.921875 20.015625 65.03125 
Q 15.375 64.15625 9.8125 62.3125 
L 9.8125 71.09375 
Q 15.4375 72.65625 20.34375 73.4375 
Q 25.25 74.21875 29.59375 74.21875 
Q 40.828125 74.21875 47.359375 69.109375 
Q 53.90625 64.015625 53.90625 55.328125 
Q 53.90625 49.265625 50.4375 45.09375 
Q 46.96875 40.921875 40.578125 39.3125 
z
" id="DejaVuSans-51"/>
      </defs>
      <g transform="translate(135.154687 463.660163)scale(0.1 -0.1)">
       <use xlink:href="#DejaVuSans-8722"/>
       <use x="83.789062" xlink:href="#DejaVuSans-48"/>
       <use x="147.412109" xlink:href="#DejaVuSans-46"/>
       <use x="179.199219" xlink:href="#DejaVuSans-48"/>
       <use x="242.822266" xlink:href="#DejaVuSans-51"/>
      </g>
     </g>
    </g>
    <g id="ytick_3">
     <g id="line2d_11">
      <g>
       <use style="stroke:#000000;stroke-width:0.8;" x="172.8" xlink:href="#m98a5bc97b7" y="357.704329"/>
      </g>
     </g>
     <g id="text_11">
      <!-- −0.02 -->
      <g transform="translate(135.154687 361.503548)scale(0.1 -0.1)">
       <use xlink:href="#DejaVuSans-8722"/>
       <use x="83.789062" xlink:href="#DejaVuSans-48"/>
       <use x="147.412109" xlink:href="#DejaVuSans-46"/>
       <use x="179.199219" xlink:href="#DejaVuSans-48"/>
       <use x="242.822266" xlink:href="#DejaVuSans-50"/>
      </g>
     </g>
    </g>
    <g id="ytick_4">
     <g id="line2d_12">
      <g>
       <use style="stroke:#000000;stroke-width:0.8;" x="172.8" xlink:href="#m98a5bc97b7" y="255.547714"/>
      </g>
     </g>
     <g id="text_12">
      <!-- −0.01 -->
      <g transform="translate(135.154687 259.346933)scale(0.1 -0.1)">
       <use xlink:href="#DejaVuSans-8722"/>
       <use x="83.789062" xlink:href="#DejaVuSans-48"/>
       <use x="147.412109" xlink:href="#DejaVuSans-46"/>
       <use x="179.199219" xlink:href="#DejaVuSans-48"/>
       <use x="242.822266" xlink:href="#DejaVuSans-49"/>
      </g>
     </g>
    </g>
    <g id="ytick_5">
     <g id="line2d_13">
      <g>
       <use style="stroke:#000000;stroke-width:0.8;" x="172.8" xlink:href="#m98a5bc97b7" y="153.391099"/>
      </g>
     </g>
     <g id="text_13">
      <!-- 0.00 -->
      <g transform="translate(143.534375 157.190317)scale(0.1 -0.1)">
       <use xlink:href="#DejaVuSans-48"/>
       <use x="63.623047" xlink:href="#DejaVuSans-46"/>
       <use x="95.410156" xlink:href="#DejaVuSans-48"/>
       <use x="159.033203" xlink:href="#DejaVuSans-48"/>
      </g>
     </g>
    </g>
   </g>
   <g id="line2d_14">
    <path clip-path="url(#p3afb1d2d17)" d="M 1185.20144 153.393697 
L 1185.192383 153.391031 
L 1179.299086 153.492912 
L 1177.345848 153.518996 
L 1175.915177 153.494814 
L 1179.964347 153.464324 
L 1195.461818 153.276613 
L 1193.100151 153.222804 
L 1190.695284 153.172586 
L 1158.691309 153.608311 
L 1158.861049 153.628571 
L 1159.083428 153.633265 
L 1157.075898 153.693878 
L 1154.800222 153.72641 
L 1157.128706 153.586056 
L 1156.998448 151.015006 
L 1156.606367 148.228157 
L 1155.939938 145.391819 
L 1155.608049 144.309814 
L 1155.592068 136.087113 
L 1155.488079 136.061157 
L 1155.501492 136.113018 
L 1155.585211 136.424121 
L 1166.738034 136.245059 
L 1158.715672 136.391823 
L 1158.325754 136.029132 
L 1158.402353 136.468816 
L 1158.74308 137.517617 
L 1158.702419 137.519845 
L 1154.058163 137.818323 
L 1157.113275 137.533436 
L 1156.724952 137.035384 
L 1152.177997 130.491084 
L 1151.926852 128.906434 
L 1151.749079 126.104357 
L 1151.413001 124.109653 
L 1151.130756 123.167883 
L 1150.59502 122.713896 
L 1150.529654 122.700883 
L 1150.480443 122.555939 
L 1150.540515 122.867777 
L 1151.893751 125.254026 
L 1153.436396 127.118905 
L 1154.800457 128.897812 
L 1155.172478 129.608217 
L 1156.237171 132.885353 
L 1157.208987 135.153897 
L 1157.272439 135.958857 
L 1158.614295 135.886623 
L 1160.309952 135.598086 
L 1166.217377 134.303901 
L 1166.474286 134.062335 
L 1166.305021 134.092014 
L 1161.48589 134.238252 
L 1161.171595 134.590534 
L 1160.740594 134.386513 
L 1160.300861 133.603012 
L 1154.399975 133.92104 
L 1156.534325 133.728471 
L 1158.045407 133.544249 
L 1157.645584 132.582338 
L 1154.600624 129.688554 
L 1154.092804 129.427532 
L 1153.119952 128.607109 
L 1152.388581 127.57276 
L 1151.199834 125.380945 
L 1150.987298 120.910823 
L 1150.716229 117.893207 
L 1150.50703 116.584989 
L 1150.65253 115.483151 
L 1150.500974 113.748376 
L 1149.807096 111.345862 
L 1149.545522 110.771487 
L 1149.312302 110.557178 
L 1149.34273 110.596647 
L 1149.212691 110.418557 
L 1149.293934 110.732011 
L 1148.71248 110.182552 
L 1149.119562 110.092383 
L 1149.023959 110.014712 
L 1148.384112 109.737547 
L 1148.074248 109.7028 
L 1148.097446 109.763271 
L 1148.334719 110.487823 
L 1148.831728 111.149683 
L 1151.501326 123.947225 
L 1152.895935 128.609869 
L 1154.741646 133.78608 
L 1157.841298 141.276996 
L 1159.446497 145.227819 
L 1160.833512 149.298462 
L 1162.817498 156.47535 
L 1163.360622 160.036128 
L 1163.521278 163.686051 
L 1163.352842 167.387026 
L 1162.883851 171.099224 
L 1162.1022 174.783458 
L 1161.578934 176.60212 
L 1161.308837 178.092852 
L 1160.368929 180.91324 
L 1159.767849 182.267348 
L 1159.052357 183.589242 
L 1158.214009 184.870918 
L 1157.244716 186.105117 
L 1156.143781 187.285626 
L 1154.917106 188.407908 
L 1153.49579 189.536125 
L 1151.692495 190.405759 
L 1147.820416 191.828025 
L 1136.050525 194.522596 
L 1133.108899 195.59407 
L 1128.155934 197.444203 
L 1121.753823 199.532738 
L 1115.40534 201.325068 
L 1108.747918 202.953041 
L 1101.384487 204.498071 
L 1095.21895 205.615796 
L 1088.297958 206.629831 
L 1083.189396 207.185574 
L 1077.681109 207.606292 
L 1071.820524 207.874617 
L 1065.662585 207.986736 
L 1056.013546 207.902897 
L 1040.851353 207.617837 
L 1040.573212 207.924693 
L 1040.140961 209.207837 
L 1036.996544 210.849478 
L 1036.630735 211.222467 
L 1036.613316 211.357534 
L 1037.305213 211.924129 
L 1038.236451 212.343651 
L 1043.462504 213.753959 
L 1043.984375 215.014251 
L 1044.176766 216.668782 
L 1043.944972 218.776947 
L 1043.642988 220.25177 
L 1043.428473 221.200796 
L 1043.307652 221.35177 
L 1041.40298 222.868016 
L 1040.392521 223.674976 
L 1039.519618 224.071534 
L 1036.28965 226.465038 
L 1034.663132 227.116609 
L 1029.786724 228.197527 
L 1028.020965 228.531674 
L 1027.205467 228.997274 
L 1026.368061 229.920257 
L 1027.000036 230.046739 
L 1026.975315 230.113404 
L 1026.954224 230.225496 
L 1027.042457 230.214895 
L 1028.176875 229.849758 
L 1028.014215 229.806989 
L 1027.654161 229.778651 
L 1027.342645 230.024397 
L 1025.650887 232.212562 
L 1024.911047 233.321514 
L 1024.312531 233.754756 
L 1021.725889 234.66354 
L 1020.449229 235.099584 
L 1019.039582 235.409497 
L 1018.167447 236.067032 
L 1017.117228 236.661196 
L 1015.127921 238.161355 
L 1011.318059 241.655407 
L 1009.440562 243.754373 
L 1008.341619 245.215798 
L 1007.7217 246.50971 
L 1007.67304 247.035294 
L 1007.801213 247.475851 
L 1008.567629 248.112552 
L 1009.633303 248.674286 
L 1011.794453 249.396468 
L 1013.197305 249.391315 
L 1014.024 248.902409 
L 1015.170162 248.186711 
L 1015.537072 248.084894 
L 1014.780536 247.917491 
L 1012.80392 247.629636 
L 1012.86246 247.561923 
L 1012.45693 246.945721 
L 1011.725607 246.225849 
L 1011.198494 245.888025 
L 1010.442842 245.662606 
L 1009.350271 245.662614 
L 1003.683134 246.343376 
L 1003.210773 246.315462 
L 1005.264811 246.483632 
L 1007.657615 247.53088 
L 1014.637715 250.905857 
L 1015.617526 251.700022 
L 1015.919595 252.231694 
L 1015.487265 252.13854 
L 1014.126532 252.023164 
L 1004.568997 251.763696 
L 1003.425912 251.557634 
L 1003.530378 251.546444 
L 1003.331948 251.185493 
L 1003.357714 250.999613 
L 1003.528744 250.660915 
L 1003.493561 250.437036 
L 1003.689223 249.705288 
L 1003.593468 249.462229 
L 1003.718934 248.291139 
L 1003.590708 248.018735 
L 1003.614108 247.585154 
L 1003.4678 247.269992 
L 1003.470764 246.80217 
L 1002.73538 245.193323 
L 1001.740467 242.367794 
L 1000.761382 241.114137 
L 998.417783 238.915473 
L 997.858189 238.660651 
L 996.178914 238.388129 
L 995.979132 238.650316 
L 996.035085 238.769231 
L 997.79377 240.229679 
L 999.476646 241.152257 
L 1001.461312 242.059603 
L 1002.755217 242.283889 
L 1005.544701 242.474839 
L 1006.901415 242.196635 
L 1006.285684 242.012563 
L 1003.098214 241.589712 
L 1003.110835 241.621334 
L 1003.132177 241.678184 
L 1002.835467 241.211187 
L 1002.198617 240.511937 
L 1001.450397 239.884883 
L 1000.733554 239.515057 
L 999.706287 239.288566 
L 998.215106 239.306526 
L 996.364809 239.57093 
L 994.315127 240.158709 
L 990.56299 240.538774 
L 990.180351 240.801457 
L 990.092422 241.194007 
L 990.341658 241.719125 
L 991.34575 242.798686 
L 992.91795 244.342749 
L 993.6317 245.514555 
L 994.041919 246.901281 
L 994.156142 248.476259 
L 993.949115 250.209981 
L 993.389451 252.068405 
L 992.458486 254.013558 
L 991.158213 256.008794 
L 989.505719 258.025066 
L 987.51732 260.043764 
L 985.19816 262.054909 
L 981.413644 264.941628 
L 977.640867 267.789171 
L 975.629374 269.71141 
L 973.474945 271.714966 
L 972.649959 272.260366 
L 972.41907 272.306444 
L 972.293364 272.198994 
L 972.295107 271.514657 
L 972.27797 269.398729 
L 972.063667 267.224566 
L 971.535846 264.45824 
L 971.083154 262.868153 
L 970.47326 261.146121 
L 969.684803 259.292579 
L 968.705724 257.310371 
L 967.518626 255.196086 
L 966.119954 252.948979 
L 962.679373 248.041225 
L 958.561398 242.575951 
L 953.865848 236.623507 
L 948.476005 221.371564 
L 946.057623 215.860013 
L 943.575465 211.188483 
L 939.80291 204.914508 
L 937.46179 201.691245 
L 937.280427 201.486513 
L 937.143681 201.155593 
L 937.17554 201.136114 
L 937.43898 201.175831 
L 937.910239 201.449669 
L 939.112791 202.19056 
L 940.108183 203.018102 
L 941.256101 204.192382 
L 942.517966 205.77951 
L 943.827989 207.852537 
L 945.106976 210.433046 
L 946.265389 213.552721 
L 947.190609 217.233517 
L 947.521097 219.270486 
L 947.732682 221.431295 
L 947.797796 223.711175 
L 947.684006 226.008336 
L 947.363801 228.335589 
L 946.811002 230.709655 
L 946.006044 233.14282 
L 944.929694 235.654753 
L 943.619791 238.207012 
L 942.028011 240.817574 
L 940.173479 243.477338 
L 938.018585 246.196446 
L 935.565429 248.972863 
L 932.815032 251.800037 
L 929.767295 254.672051 
L 926.42144 257.584174 
L 922.77563 260.532972 
L 918.827855 263.515709 
L 914.57475 266.529581 
L 910.022736 269.57123 
L 905.211276 272.640021 
L 900.092885 275.720252 
L 888.830399 281.965154 
L 882.803827 285.070033 
L 869.517562 291.582497 
L 863.02246 294.706431 
L 849.273051 300.71946 
L 843.149196 303.991249 
L 837.054967 306.925426 
L 825.572116 313.096837 
L 814.602787 318.744124 
L 782.01549 334.763232 
L 775.011727 338.451575 
L 769.113451 341.776588 
L 760.053538 347.322203 
L 758.302045 348.588003 
L 756.730507 349.452201 
L 755.45434 350.283484 
L 754.523874 351.042742 
L 754.16995 351.67259 
L 753.53464 352.04321 
L 752.658597 352.302308 
L 751.68471 352.061914 
L 751.253313 351.333087 
L 750.488368 350.47902 
L 749.872106 350.09315 
L 748.960019 349.827368 
L 745.919007 349.27809 
L 746.446359 348.695188 
L 747.604401 347.974253 
L 749.44982 347.177501 
L 752.291463 346.259946 
L 756.220653 345.129103 
L 763.688157 343.289533 
L 769.949554 341.898517 
L 777.153498 340.598983 
L 781.259133 339.906719 
L 799.766849 337.17197 
L 815.0073 334.945271 
L 831.344628 332.804297 
L 842.731968 331.50211 
L 854.330369 330.362158 
L 871.303463 328.997855 
L 886.895841 327.929383 
L 896.462362 327.407759 
L 908.308706 327.021423 
L 921.678643 326.719534 
L 924.972138 326.44881 
L 927.194754 325.947231 
L 927.936587 325.59274 
L 928.453624 325.160507 
L 928.937215 324.201282 
L 928.898081 323.590622 
L 928.727198 323.268082 
L 928.025713 322.592281 
L 927.061676 321.303681 
L 925.947154 319.378131 
L 925.403123 317.850779 
L 925.474496 317.873579 
L 925.70881 318.074096 
L 925.617306 318.136713 
L 926.659335 320.281762 
L 926.915381 321.645534 
L 927.003412 323.443904 
L 926.795019 325.730562 
L 926.083345 328.570147 
L 924.785213 331.900644 
L 922.824233 335.752861 
L 920.128875 340.131209 
L 918.261974 342.574201 
L 913.93785 347.639035 
L 911.470189 350.328547 
L 906.032776 355.798522 
L 902.936217 358.758769 
L 899.601702 361.70102 
L 896.049153 364.636644 
L 892.246422 367.577978 
L 883.854562 373.532869 
L 874.370774 379.598872 
L 869.204457 382.68296 
L 863.673533 385.825461 
L 857.797713 388.988301 
L 846.750973 395.52396 
L 841.095917 398.827144 
L 829.181308 405.249877 
L 823.068613 408.398993 
L 810.601757 414.467528 
L 792.117365 423.076789 
L 779.886959 428.259171 
L 757.123789 437.774038 
L 742.010652 443.783661 
L 728.964599 448.92743 
L 718.507692 453.252089 
L 706.633483 458.501826 
L 705.252081 459.362224 
L 703.098994 460.471169 
L 702.592401 460.905839 
L 702.479324 461.269047 
L 702.975733 461.517909 
L 703.153434 461.479197 
L 703.500716 461.026288 
L 703.242163 461.004039 
L 703.873574 461.078681 
L 705.69998 461.516256 
L 705.379967 461.275176 
L 705.233732 460.739944 
L 704.748434 459.914453 
L 704.321653 459.49806 
L 703.614623 459.168279 
L 702.62985 458.99289 
L 701.9328 458.94802 
L 700.095932 458.405449 
L 700.063539 458.169617 
L 700.180654 457.916293 
L 700.487103 457.62556 
L 700.989454 457.323491 
L 702.833048 456.597746 
L 705.576572 455.73568 
L 714.314041 453.519609 
L 720.334843 452.136799 
L 731.868491 449.91144 
L 736.401772 449.11498 
L 741.469886 448.342378 
L 771.862301 442.451519 
L 782.979365 440.710009 
L 799.792929 438.295449 
L 810.445859 436.681045 
L 820.341408 434.89876 
L 829.573651 432.995443 
L 833.938403 431.939119 
L 838.133389 430.789978 
L 842.141081 429.532405 
L 845.950586 428.158513 
L 850.642025 427.036923 
L 857.625429 424.424369 
L 863.464699 421.885597 
L 868.337632 419.388163 
L 870.4212 418.137376 
L 872.28237 416.852356 
L 873.909787 415.545658 
L 875.31081 414.190248 
L 877.470703 411.726961 
L 878.849718 409.870084 
L 879.485956 408.643384 
L 879.570231 407.813336 
L 879.408997 407.249889 
L 878.876164 406.555503 
L 878.322668 405.423907 
L 877.845875 403.92703 
L 877.571613 401.862988 
L 877.612186 401.875936 
L 877.789265 401.982861 
L 877.912158 402.172802 
L 877.78959 402.246479 
L 878.083267 404.503065 
L 877.881968 405.908371 
L 877.381173 407.746117 
L 876.466748 410.065334 
L 875.027966 412.899158 
L 872.943597 416.269969 
L 870.081682 420.184415 
L 866.207428 424.652656 
L 863.9184 427.060241 
L 861.363906 429.583459 
L 858.338105 432.258443 
L 851.593226 437.747899 
L 843.897611 443.602284 
L 839.669835 446.657189 
L 835.173702 449.692798 
L 830.458621 452.705274 
L 819.974426 458.78668 
L 808.374807 465.090594 
L 802.09297 468.158635 
L 788.445844 474.295379 
L 781.152789 477.323197 
L 773.678054 480.219517 
L 766.670098 483.258969 
L 730.429261 498.281243 
L 708.244566 506.389755 
L 700.827788 508.829018 
L 686.333809 513.922304 
L 679.122306 516.166267 
L 665.09387 520.695255 
L 658.389756 522.782747 
L 651.720283 524.681098 
L 645.289237 526.314215 
L 627.598941 531.352557 
L 622.151173 532.745298 
L 602.240831 538.357 
L 594.111146 540.703435 
L 590.272518 541.77106 
L 586.432037 542.992596 
L 576.798854 545.521382 
L 571.569357 546.941553 
L 569.102333 547.310851 
L 561.141684 547.982865 
L 558.459368 547.80497 
L 555.398104 548.130188 
L 555.516015 547.991713 
L 555.376731 547.604251 
L 555.122568 546.856535 
L 554.704121 546.18725 
L 554.186126 545.775389 
L 553.583822 545.441255 
L 552.083982 544.962179 
L 551.044873 544.871734 
L 550.704906 544.678819 
L 550.752602 544.579386 
L 551.371922 544.401561 
L 553.796164 544.218203 
L 568.00468 544.022128 
L 573.001685 544.269362 
L 577.262054 544.844665 
L 579.968621 545.344238 
L 581.328331 546.107307 
L 581.593816 546.444002 
L 581.607406 546.822592 
L 581.327966 547.197804 
L 579.816692 547.915172 
L 577.164694 548.691048 
L 571.997366 550.323503 
L 568.09331 551.49015 
L 565.529431 551.983745 
L 563.871748 552.660452 
L 559.907846 553.544815 
L 555.053772 554.367155 
L 552.314747 554.606475 
L 551.844165 554.695575 
L 551.221265 554.847908 
L 551.8129 554.805265 
L 552.722266 554.637833 
L 553.871279 554.275461 
L 553.847166 554.243838 
L 553.937993 554.122236 
L 553.83692 554.119295 
L 551.201849 554.327217 
L 548.069828 554.753835 
L 523.545619 559.333526 
L 509.696524 561.849569 
L 492.645146 564.674669 
L 472.392751 567.733925 
L 457.302953 569.845611 
L 441.112643 571.944774 
L 424.006309 573.984741 
L 406.170242 575.912034 
L 387.785589 577.660599 
L 350.276368 580.807701 
L 331.313099 582.362263 
L 312.445412 584.249248 
L 294.010757 586.041219 
L 276.115428 587.587442 
L 267.435854 588.267072 
L 260.211712 589.329937 
L 246.054546 590.528639 
L 235.272414 591.748981 
L 231.134539 592.375124 
L 227.825327 593.017336 
L 225.338297 593.680893 
L 223.660032 594.37241 
L 222.674445 595.081793 
L 221.981828 595.718002 
L 221.589986 596.276113 
L 221.498182 596.751852 
L 221.66264 597.144831 
L 221.710571 597.591766 
L 222.293827 597.839863 
L 223.739151 598.270236 
L 225.667096 598.041368 
L 228.297631 597.580985 
L 229.547515 597.527821 
L 230.087378 597.228805 
L 230.024324 596.858959 
L 230.822594 596.722828 
L 231.145687 596.619148 
L 231.182146 595.864307 
L 230.930293 594.718325 
L 230.49028 593.808197 
L 229.91257 593.632764 
L 229.813395 593.547918 
L 229.628062 593.596703 
L 230.136215 593.530074 
L 232.035991 593.460427 
L 237.096911 593.528648 
L 259.550571 594.094039 
L 273.040002 594.080119 
L 282.8514 593.917137 
L 299.802675 593.315226 
L 321.947648 593.244461 
L 328.482355 593.581654 
L 333.46422 593.951326 
L 337.248075 594.467085 
L 339.89339 595.08329 
L 341.126964 595.793062 
L 341.240939 596.075605 
L 341.143665 596.311959 
L 341.282172 596.456513 
L 341.050414 596.721263 
L 341.324688 597.023367 
L 341.87147 597.271968 
L 341.600014 597.308745 
L 341.13611 597.343052 
L 345.932008 596.723096 
L 345.923244 596.647636 
L 346.283807 596.620917 
L 344.747355 596.894856 
L 343.286234 597.0722 
L 343.097899 597.362689 
L 317.018277 601.608099 
L 302.946052 603.658428 
L 291.857586 605.1348 
L 291.857586 605.1348 
" style="fill:none;stroke:#029386;stroke-linecap:square;stroke-width:1.5;"/>
   </g>
   <g id="patch_3">
    <path d="M 172.8 629.9064 
L 172.8 84.9312 
" style="fill:none;stroke:#000000;stroke-linecap:square;stroke-linejoin:miter;stroke-width:0.8;"/>
   </g>
   <g id="patch_4">
    <path d="M 1244.16 629.9064 
L 1244.16 84.9312 
" style="fill:none;stroke:#000000;stroke-linecap:square;stroke-linejoin:miter;stroke-width:0.8;"/>
   </g>
   <g id="patch_5">
    <path d="M 172.8 629.9064 
L 1244.16 629.9064 
" style="fill:none;stroke:#000000;stroke-linecap:square;stroke-linejoin:miter;stroke-width:0.8;"/>
   </g>
   <g id="patch_6">
    <path d="M 172.8 84.9312 
L 1244.16 84.9312 
" style="fill:none;stroke:#000000;stroke-linecap:square;stroke-linejoin:miter;stroke-width:0.8;"/>
   </g>
   <g id="text_14">
    <!-- COM x-y trajectory -->
    <defs>
     <path d="M 64.40625 67.28125 
L 64.40625 56.890625 
Q 59.421875 61.53125 53.78125 63.8125 
Q 48.140625 66.109375 41.796875 66.109375 
Q 29.296875 66.109375 22.65625 58.46875 
Q 16.015625 50.828125 16.015625 36.375 
Q 16.015625 21.96875 22.65625 14.328125 
Q 29.296875 6.6875 41.796875 6.6875 
Q 48.140625 6.6875 53.78125 8.984375 
Q 59.421875 11.28125 64.40625 15.921875 
L 64.40625 5.609375 
Q 59.234375 2.09375 53.4375 0.328125 
Q 47.65625 -1.421875 41.21875 -1.421875 
Q 24.65625 -1.421875 15.125 8.703125 
Q 5.609375 18.84375 5.609375 36.375 
Q 5.609375 53.953125 15.125 64.078125 
Q 24.65625 74.21875 41.21875 74.21875 
Q 47.75 74.21875 53.53125 72.484375 
Q 59.328125 70.75 64.40625 67.28125 
z
" id="DejaVuSans-67"/>
     <path d="M 39.40625 66.21875 
Q 28.65625 66.21875 22.328125 58.203125 
Q 16.015625 50.203125 16.015625 36.375 
Q 16.015625 22.609375 22.328125 14.59375 
Q 28.65625 6.59375 39.40625 6.59375 
Q 50.140625 6.59375 56.421875 14.59375 
Q 62.703125 22.609375 62.703125 36.375 
Q 62.703125 50.203125 56.421875 58.203125 
Q 50.140625 66.21875 39.40625 66.21875 
z
M 39.40625 74.21875 
Q 54.734375 74.21875 63.90625 63.9375 
Q 73.09375 53.65625 73.09375 36.375 
Q 73.09375 19.140625 63.90625 8.859375 
Q 54.734375 -1.421875 39.40625 -1.421875 
Q 24.03125 -1.421875 14.8125 8.828125 
Q 5.609375 19.09375 5.609375 36.375 
Q 5.609375 53.65625 14.8125 63.9375 
Q 24.03125 74.21875 39.40625 74.21875 
z
" id="DejaVuSans-79"/>
     <path d="M 9.8125 72.90625 
L 24.515625 72.90625 
L 43.109375 23.296875 
L 61.8125 72.90625 
L 76.515625 72.90625 
L 76.515625 0 
L 66.890625 0 
L 66.890625 64.015625 
L 48.09375 14.015625 
L 38.1875 14.015625 
L 19.390625 64.015625 
L 19.390625 0 
L 9.8125 0 
z
" id="DejaVuSans-77"/>
     <path id="DejaVuSans-32"/>
     <path d="M 54.890625 54.6875 
L 35.109375 28.078125 
L 55.90625 0 
L 45.3125 0 
L 29.390625 21.484375 
L 13.484375 0 
L 2.875 0 
L 24.125 28.609375 
L 4.6875 54.6875 
L 15.28125 54.6875 
L 29.78125 35.203125 
L 44.28125 54.6875 
z
" id="DejaVuSans-120"/>
     <path d="M 4.890625 31.390625 
L 31.203125 31.390625 
L 31.203125 23.390625 
L 4.890625 23.390625 
z
" id="DejaVuSans-45"/>
     <path d="M 32.171875 -5.078125 
Q 28.375 -14.84375 24.75 -17.8125 
Q 21.140625 -20.796875 15.09375 -20.796875 
L 7.90625 -20.796875 
L 7.90625 -13.28125 
L 13.1875 -13.28125 
Q 16.890625 -13.28125 18.9375 -11.515625 
Q 21 -9.765625 23.484375 -3.21875 
L 25.09375 0.875 
L 2.984375 54.6875 
L 12.5 54.6875 
L 29.59375 11.921875 
L 46.6875 54.6875 
L 56.203125 54.6875 
z
" id="DejaVuSans-121"/>
     <path d="M 18.3125 70.21875 
L 18.3125 54.6875 
L 36.8125 54.6875 
L 36.8125 47.703125 
L 18.3125 47.703125 
L 18.3125 18.015625 
Q 18.3125 11.328125 20.140625 9.421875 
Q 21.96875 7.515625 27.59375 7.515625 
L 36.8125 7.515625 
L 36.8125 0 
L 27.59375 0 
Q 17.1875 0 13.234375 3.875 
Q 9.28125 7.765625 9.28125 18.015625 
L 9.28125 47.703125 
L 2.6875 47.703125 
L 2.6875 54.6875 
L 9.28125 54.6875 
L 9.28125 70.21875 
z
" id="DejaVuSans-116"/>
     <path d="M 41.109375 46.296875 
Q 39.59375 47.171875 37.8125 47.578125 
Q 36.03125 48 33.890625 48 
Q 26.265625 48 22.1875 43.046875 
Q 18.109375 38.09375 18.109375 28.8125 
L 18.109375 0 
L 9.078125 0 
L 9.078125 54.6875 
L 18.109375 54.6875 
L 18.109375 46.1875 
Q 20.953125 51.171875 25.484375 53.578125 
Q 30.03125 56 36.53125 56 
Q 37.453125 56 38.578125 55.875 
Q 39.703125 55.765625 41.0625 55.515625 
z
" id="DejaVuSans-114"/>
     <path d="M 34.28125 27.484375 
Q 23.390625 27.484375 19.1875 25 
Q 14.984375 22.515625 14.984375 16.5 
Q 14.984375 11.71875 18.140625 8.90625 
Q 21.296875 6.109375 26.703125 6.109375 
Q 34.1875 6.109375 38.703125 11.40625 
Q 43.21875 16.703125 43.21875 25.484375 
L 43.21875 27.484375 
z
M 52.203125 31.203125 
L 52.203125 0 
L 43.21875 0 
L 43.21875 8.296875 
Q 40.140625 3.328125 35.546875 0.953125 
Q 30.953125 -1.421875 24.3125 -1.421875 
Q 15.921875 -1.421875 10.953125 3.296875 
Q 6 8.015625 6 15.921875 
Q 6 25.140625 12.171875 29.828125 
Q 18.359375 34.515625 30.609375 34.515625 
L 43.21875 34.515625 
L 43.21875 35.40625 
Q 43.21875 41.609375 39.140625 45 
Q 35.0625 48.390625 27.6875 48.390625 
Q 23 48.390625 18.546875 47.265625 
Q 14.109375 46.140625 10.015625 43.890625 
L 10.015625 52.203125 
Q 14.9375 54.109375 19.578125 55.046875 
Q 24.21875 56 28.609375 56 
Q 40.484375 56 46.34375 49.84375 
Q 52.203125 43.703125 52.203125 31.203125 
z
" id="DejaVuSans-97"/>
     <path d="M 9.421875 54.6875 
L 18.40625 54.6875 
L 18.40625 -0.984375 
Q 18.40625 -11.421875 14.421875 -16.109375 
Q 10.453125 -20.796875 1.609375 -20.796875 
L -1.8125 -20.796875 
L -1.8125 -13.1875 
L 0.59375 -13.1875 
Q 5.71875 -13.1875 7.5625 -10.8125 
Q 9.421875 -8.453125 9.421875 -0.984375 
z
M 9.421875 75.984375 
L 18.40625 75.984375 
L 18.40625 64.59375 
L 9.421875 64.59375 
z
" id="DejaVuSans-106"/>
     <path d="M 56.203125 29.59375 
L 56.203125 25.203125 
L 14.890625 25.203125 
Q 15.484375 15.921875 20.484375 11.0625 
Q 25.484375 6.203125 34.421875 6.203125 
Q 39.59375 6.203125 44.453125 7.46875 
Q 49.3125 8.734375 54.109375 11.28125 
L 54.109375 2.78125 
Q 49.265625 0.734375 44.1875 -0.34375 
Q 39.109375 -1.421875 33.890625 -1.421875 
Q 20.796875 -1.421875 13.15625 6.1875 
Q 5.515625 13.8125 5.515625 26.8125 
Q 5.515625 40.234375 12.765625 48.109375 
Q 20.015625 56 32.328125 56 
Q 43.359375 56 49.78125 48.890625 
Q 56.203125 41.796875 56.203125 29.59375 
z
M 47.21875 32.234375 
Q 47.125 39.59375 43.09375 43.984375 
Q 39.0625 48.390625 32.421875 48.390625 
Q 24.90625 48.390625 20.390625 44.140625 
Q 15.875 39.890625 15.1875 32.171875 
z
" id="DejaVuSans-101"/>
     <path d="M 48.78125 52.59375 
L 48.78125 44.1875 
Q 44.96875 46.296875 41.140625 47.34375 
Q 37.3125 48.390625 33.40625 48.390625 
Q 24.65625 48.390625 19.8125 42.84375 
Q 14.984375 37.3125 14.984375 27.296875 
Q 14.984375 17.28125 19.8125 11.734375 
Q 24.65625 6.203125 33.40625 6.203125 
Q 37.3125 6.203125 41.140625 7.25 
Q 44.96875 8.296875 48.78125 10.40625 
L 48.78125 2.09375 
Q 45.015625 0.34375 40.984375 -0.53125 
Q 36.96875 -1.421875 32.421875 -1.421875 
Q 20.0625 -1.421875 12.78125 6.34375 
Q 5.515625 14.109375 5.515625 27.296875 
Q 5.515625 40.671875 12.859375 48.328125 
Q 20.21875 56 33.015625 56 
Q 37.15625 56 41.109375 55.140625 
Q 45.0625 54.296875 48.78125 52.59375 
z
" id="DejaVuSans-99"/>
     <path d="M 30.609375 48.390625 
Q 23.390625 48.390625 19.1875 42.75 
Q 14.984375 37.109375 14.984375 27.296875 
Q 14.984375 17.484375 19.15625 11.84375 
Q 23.34375 6.203125 30.609375 6.203125 
Q 37.796875 6.203125 41.984375 11.859375 
Q 46.1875 17.53125 46.1875 27.296875 
Q 46.1875 37.015625 41.984375 42.703125 
Q 37.796875 48.390625 30.609375 48.390625 
z
M 30.609375 56 
Q 42.328125 56 49.015625 48.375 
Q 55.71875 40.765625 55.71875 27.296875 
Q 55.71875 13.875 49.015625 6.21875 
Q 42.328125 -1.421875 30.609375 -1.421875 
Q 18.84375 -1.421875 12.171875 6.21875 
Q 5.515625 13.875 5.515625 27.296875 
Q 5.515625 40.765625 12.171875 48.375 
Q 18.84375 56 30.609375 56 
z
" id="DejaVuSans-111"/>
    </defs>
    <g transform="translate(652.115625 78.9312)scale(0.12 -0.12)">
     <use xlink:href="#DejaVuSans-67"/>
     <use x="69.824219" xlink:href="#DejaVuSans-79"/>
     <use x="148.535156" xlink:href="#DejaVuSans-77"/>
     <use x="234.814453" xlink:href="#DejaVuSans-32"/>
     <use x="266.601562" xlink:href="#DejaVuSans-120"/>
     <use x="325.78125" xlink:href="#DejaVuSans-45"/>
     <use x="361.849609" xlink:href="#DejaVuSans-121"/>
     <use x="421.029297" xlink:href="#DejaVuSans-32"/>
     <use x="452.816406" xlink:href="#DejaVuSans-116"/>
     <use x="492.025391" xlink:href="#DejaVuSans-114"/>
     <use x="533.138672" xlink:href="#DejaVuSans-97"/>
     <use x="594.417969" xlink:href="#DejaVuSans-106"/>
     <use x="622.201172" xlink:href="#DejaVuSans-101"/>
     <use x="683.724609" xlink:href="#DejaVuSans-99"/>
     <use x="738.705078" xlink:href="#DejaVuSans-116"/>
     <use x="777.914062" xlink:href="#DejaVuSans-111"/>
     <use x="839.095703" xlink:href="#DejaVuSans-114"/>
     <use x="880.208984" xlink:href="#DejaVuSans-121"/>
    </g>
   </g>
  </g>
 </g>
 <defs>
  <clipPath id="p3afb1d2d17">
   <rect height="544.9752" width="1071.36" x="172.8" y="84.9312"/>
  </clipPath>
 </defs>
</svg>
