<?xml version="1.0" encoding="utf-8" standalone="no"?>
<!DOCTYPE svg PUBLIC "-//W3C//DTD SVG 1.1//EN"
  "http://www.w3.org/Graphics/SVG/1.1/DTD/svg11.dtd">
<!-- Created with matplotlib (https://matplotlib.org/) -->
<svg height="707.76pt" version="1.1" viewBox="0 0 1382.4 707.76" width="1382.4pt" xmlns="http://www.w3.org/2000/svg" xmlns:xlink="http://www.w3.org/1999/xlink">
 <defs>
  <style type="text/css">
*{stroke-linecap:butt;stroke-linejoin:round;}
  </style>
 </defs>
 <g id="figure_1">
  <g id="patch_1">
   <path d="M 0 707.76 
L 1382.4 707.76 
L 1382.4 0 
L 0 0 
z
" style="fill:#ffffff;"/>
  </g>
  <g id="axes_1">
   <g id="patch_2">
    <path d="M 172.8 629.9064 
L 659.781818 629.9064 
L 659.781818 84.9312 
L 172.8 84.9312 
z
" style="fill:#ffffff;"/>
   </g>
   <g id="matplotlib.axis_1">
    <g id="xtick_1">
     <g id="line2d_1">
      <defs>
       <path d="M 0 0 
L 0 3.5 
" id="mfe77c1dfb0" style="stroke:#000000;stroke-width:0.8;"/>
      </defs>
      <g>
       <use style="stroke:#000000;stroke-width:0.8;" x="194.935537" xlink:href="#mfe77c1dfb0" y="629.9064"/>
      </g>
     </g>
     <g id="text_1">
      <!-- 0 -->
      <defs>
       <path d="M 31.78125 66.40625 
Q 24.171875 66.40625 20.328125 58.90625 
Q 16.5 51.421875 16.5 36.375 
Q 16.5 21.390625 20.328125 13.890625 
Q 24.171875 6.390625 31.78125 6.390625 
Q 39.453125 6.390625 43.28125 13.890625 
Q 47.125 21.390625 47.125 36.375 
Q 47.125 51.421875 43.28125 58.90625 
Q 39.453125 66.40625 31.78125 66.40625 
z
M 31.78125 74.21875 
Q 44.046875 74.21875 50.515625 64.515625 
Q 56.984375 54.828125 56.984375 36.375 
Q 56.984375 17.96875 50.515625 8.265625 
Q 44.046875 -1.421875 31.78125 -1.421875 
Q 19.53125 -1.421875 13.0625 8.265625 
Q 6.59375 17.96875 6.59375 36.375 
Q 6.59375 54.828125 13.0625 64.515625 
Q 19.53125 74.21875 31.78125 74.21875 
z
" id="DejaVuSans-48"/>
      </defs>
      <g transform="translate(191.754287 644.504838)scale(0.1 -0.1)">
       <use xlink:href="#DejaVuSans-48"/>
      </g>
     </g>
    </g>
    <g id="xtick_2">
     <g id="line2d_2">
      <g>
       <use style="stroke:#000000;stroke-width:0.8;" x="256.42314" xlink:href="#mfe77c1dfb0" y="629.9064"/>
      </g>
     </g>
     <g id="text_2">
      <!-- 100 -->
      <defs>
       <path d="M 12.40625 8.296875 
L 28.515625 8.296875 
L 28.515625 63.921875 
L 10.984375 60.40625 
L 10.984375 69.390625 
L 28.421875 72.90625 
L 38.28125 72.90625 
L 38.28125 8.296875 
L 54.390625 8.296875 
L 54.390625 0 
L 12.40625 0 
z
" id="DejaVuSans-49"/>
      </defs>
      <g transform="translate(246.87939 644.504838)scale(0.1 -0.1)">
       <use xlink:href="#DejaVuSans-49"/>
       <use x="63.623047" xlink:href="#DejaVuSans-48"/>
       <use x="127.246094" xlink:href="#DejaVuSans-48"/>
      </g>
     </g>
    </g>
    <g id="xtick_3">
     <g id="line2d_3">
      <g>
       <use style="stroke:#000000;stroke-width:0.8;" x="317.910744" xlink:href="#mfe77c1dfb0" y="629.9064"/>
      </g>
     </g>
     <g id="text_3">
      <!-- 200 -->
      <defs>
       <path d="M 19.1875 8.296875 
L 53.609375 8.296875 
L 53.609375 0 
L 7.328125 0 
L 7.328125 8.296875 
Q 12.9375 14.109375 22.625 23.890625 
Q 32.328125 33.6875 34.8125 36.53125 
Q 39.546875 41.84375 41.421875 45.53125 
Q 43.3125 49.21875 43.3125 52.78125 
Q 43.3125 58.59375 39.234375 62.25 
Q 35.15625 65.921875 28.609375 65.921875 
Q 23.96875 65.921875 18.8125 64.3125 
Q 13.671875 62.703125 7.8125 59.421875 
L 7.8125 69.390625 
Q 13.765625 71.78125 18.9375 73 
Q 24.125 74.21875 28.421875 74.21875 
Q 39.75 74.21875 46.484375 68.546875 
Q 53.21875 62.890625 53.21875 53.421875 
Q 53.21875 48.921875 51.53125 44.890625 
Q 49.859375 40.875 45.40625 35.40625 
Q 44.1875 33.984375 37.640625 27.21875 
Q 31.109375 20.453125 19.1875 8.296875 
z
" id="DejaVuSans-50"/>
      </defs>
      <g transform="translate(308.366994 644.504838)scale(0.1 -0.1)">
       <use xlink:href="#DejaVuSans-50"/>
       <use x="63.623047" xlink:href="#DejaVuSans-48"/>
       <use x="127.246094" xlink:href="#DejaVuSans-48"/>
      </g>
     </g>
    </g>
    <g id="xtick_4">
     <g id="line2d_4">
      <g>
       <use style="stroke:#000000;stroke-width:0.8;" x="379.398347" xlink:href="#mfe77c1dfb0" y="629.9064"/>
      </g>
     </g>
     <g id="text_4">
      <!-- 300 -->
      <defs>
       <path d="M 40.578125 39.3125 
Q 47.65625 37.796875 51.625 33 
Q 55.609375 28.21875 55.609375 21.1875 
Q 55.609375 10.40625 48.1875 4.484375 
Q 40.765625 -1.421875 27.09375 -1.421875 
Q 22.515625 -1.421875 17.65625 -0.515625 
Q 12.796875 0.390625 7.625 2.203125 
L 7.625 11.71875 
Q 11.71875 9.328125 16.59375 8.109375 
Q 21.484375 6.890625 26.8125 6.890625 
Q 36.078125 6.890625 40.9375 10.546875 
Q 45.796875 14.203125 45.796875 21.1875 
Q 45.796875 27.640625 41.28125 31.265625 
Q 36.765625 34.90625 28.71875 34.90625 
L 20.21875 34.90625 
L 20.21875 43.015625 
L 29.109375 43.015625 
Q 36.375 43.015625 40.234375 45.921875 
Q 44.09375 48.828125 44.09375 54.296875 
Q 44.09375 59.90625 40.109375 62.90625 
Q 36.140625 65.921875 28.71875 65.921875 
Q 24.65625 65.921875 20.015625 65.03125 
Q 15.375 64.15625 9.8125 62.3125 
L 9.8125 71.09375 
Q 15.4375 72.65625 20.34375 73.4375 
Q 25.25 74.21875 29.59375 74.21875 
Q 40.828125 74.21875 47.359375 69.109375 
Q 53.90625 64.015625 53.90625 55.328125 
Q 53.90625 49.265625 50.4375 45.09375 
Q 46.96875 40.921875 40.578125 39.3125 
z
" id="DejaVuSans-51"/>
      </defs>
      <g transform="translate(369.854597 644.504838)scale(0.1 -0.1)">
       <use xlink:href="#DejaVuSans-51"/>
       <use x="63.623047" xlink:href="#DejaVuSans-48"/>
       <use x="127.246094" xlink:href="#DejaVuSans-48"/>
      </g>
     </g>
    </g>
    <g id="xtick_5">
     <g id="line2d_5">
      <g>
       <use style="stroke:#000000;stroke-width:0.8;" x="440.88595" xlink:href="#mfe77c1dfb0" y="629.9064"/>
      </g>
     </g>
     <g id="text_5">
      <!-- 400 -->
      <defs>
       <path d="M 37.796875 64.3125 
L 12.890625 25.390625 
L 37.796875 25.390625 
z
M 35.203125 72.90625 
L 47.609375 72.90625 
L 47.609375 25.390625 
L 58.015625 25.390625 
L 58.015625 17.1875 
L 47.609375 17.1875 
L 47.609375 0 
L 37.796875 0 
L 37.796875 17.1875 
L 4.890625 17.1875 
L 4.890625 26.703125 
z
" id="DejaVuSans-52"/>
      </defs>
      <g transform="translate(431.3422 644.504838)scale(0.1 -0.1)">
       <use xlink:href="#DejaVuSans-52"/>
       <use x="63.623047" xlink:href="#DejaVuSans-48"/>
       <use x="127.246094" xlink:href="#DejaVuSans-48"/>
      </g>
     </g>
    </g>
    <g id="xtick_6">
     <g id="line2d_6">
      <g>
       <use style="stroke:#000000;stroke-width:0.8;" x="502.373554" xlink:href="#mfe77c1dfb0" y="629.9064"/>
      </g>
     </g>
     <g id="text_6">
      <!-- 500 -->
      <defs>
       <path d="M 10.796875 72.90625 
L 49.515625 72.90625 
L 49.515625 64.59375 
L 19.828125 64.59375 
L 19.828125 46.734375 
Q 21.96875 47.46875 24.109375 47.828125 
Q 26.265625 48.1875 28.421875 48.1875 
Q 40.625 48.1875 47.75 41.5 
Q 54.890625 34.8125 54.890625 23.390625 
Q 54.890625 11.625 47.5625 5.09375 
Q 40.234375 -1.421875 26.90625 -1.421875 
Q 22.3125 -1.421875 17.546875 -0.640625 
Q 12.796875 0.140625 7.71875 1.703125 
L 7.71875 11.625 
Q 12.109375 9.234375 16.796875 8.0625 
Q 21.484375 6.890625 26.703125 6.890625 
Q 35.15625 6.890625 40.078125 11.328125 
Q 45.015625 15.765625 45.015625 23.390625 
Q 45.015625 31 40.078125 35.4375 
Q 35.15625 39.890625 26.703125 39.890625 
Q 22.75 39.890625 18.8125 39.015625 
Q 14.890625 38.140625 10.796875 36.28125 
z
" id="DejaVuSans-53"/>
      </defs>
      <g transform="translate(492.829804 644.504838)scale(0.1 -0.1)">
       <use xlink:href="#DejaVuSans-53"/>
       <use x="63.623047" xlink:href="#DejaVuSans-48"/>
       <use x="127.246094" xlink:href="#DejaVuSans-48"/>
      </g>
     </g>
    </g>
    <g id="xtick_7">
     <g id="line2d_7">
      <g>
       <use style="stroke:#000000;stroke-width:0.8;" x="563.861157" xlink:href="#mfe77c1dfb0" y="629.9064"/>
      </g>
     </g>
     <g id="text_7">
      <!-- 600 -->
      <defs>
       <path d="M 33.015625 40.375 
Q 26.375 40.375 22.484375 35.828125 
Q 18.609375 31.296875 18.609375 23.390625 
Q 18.609375 15.53125 22.484375 10.953125 
Q 26.375 6.390625 33.015625 6.390625 
Q 39.65625 6.390625 43.53125 10.953125 
Q 47.40625 15.53125 47.40625 23.390625 
Q 47.40625 31.296875 43.53125 35.828125 
Q 39.65625 40.375 33.015625 40.375 
z
M 52.59375 71.296875 
L 52.59375 62.3125 
Q 48.875 64.0625 45.09375 64.984375 
Q 41.3125 65.921875 37.59375 65.921875 
Q 27.828125 65.921875 22.671875 59.328125 
Q 17.53125 52.734375 16.796875 39.40625 
Q 19.671875 43.65625 24.015625 45.921875 
Q 28.375 48.1875 33.59375 48.1875 
Q 44.578125 48.1875 50.953125 41.515625 
Q 57.328125 34.859375 57.328125 23.390625 
Q 57.328125 12.15625 50.6875 5.359375 
Q 44.046875 -1.421875 33.015625 -1.421875 
Q 20.359375 -1.421875 13.671875 8.265625 
Q 6.984375 17.96875 6.984375 36.375 
Q 6.984375 53.65625 15.1875 63.9375 
Q 23.390625 74.21875 37.203125 74.21875 
Q 40.921875 74.21875 44.703125 73.484375 
Q 48.484375 72.75 52.59375 71.296875 
z
" id="DejaVuSans-54"/>
      </defs>
      <g transform="translate(554.317407 644.504838)scale(0.1 -0.1)">
       <use xlink:href="#DejaVuSans-54"/>
       <use x="63.623047" xlink:href="#DejaVuSans-48"/>
       <use x="127.246094" xlink:href="#DejaVuSans-48"/>
      </g>
     </g>
    </g>
    <g id="xtick_8">
     <g id="line2d_8">
      <g>
       <use style="stroke:#000000;stroke-width:0.8;" x="625.34876" xlink:href="#mfe77c1dfb0" y="629.9064"/>
      </g>
     </g>
     <g id="text_8">
      <!-- 700 -->
      <defs>
       <path d="M 8.203125 72.90625 
L 55.078125 72.90625 
L 55.078125 68.703125 
L 28.609375 0 
L 18.3125 0 
L 43.21875 64.59375 
L 8.203125 64.59375 
z
" id="DejaVuSans-55"/>
      </defs>
      <g transform="translate(615.80501 644.504838)scale(0.1 -0.1)">
       <use xlink:href="#DejaVuSans-55"/>
       <use x="63.623047" xlink:href="#DejaVuSans-48"/>
       <use x="127.246094" xlink:href="#DejaVuSans-48"/>
      </g>
     </g>
    </g>
   </g>
   <g id="matplotlib.axis_2">
    <g id="ytick_1">
     <g id="line2d_9">
      <defs>
       <path d="M 0 0 
L -3.5 0 
" id="m00df25acfa" style="stroke:#000000;stroke-width:0.8;"/>
      </defs>
      <g>
       <use style="stroke:#000000;stroke-width:0.8;" x="172.8" xlink:href="#m00df25acfa" y="581.930357"/>
      </g>
     </g>
     <g id="text_9">
      <!-- −1.00 -->
      <defs>
       <path d="M 10.59375 35.5 
L 73.1875 35.5 
L 73.1875 27.203125 
L 10.59375 27.203125 
z
" id="DejaVuSans-8722"/>
       <path d="M 10.6875 12.40625 
L 21 12.40625 
L 21 0 
L 10.6875 0 
z
" id="DejaVuSans-46"/>
      </defs>
      <g transform="translate(135.154687 585.729576)scale(0.1 -0.1)">
       <use xlink:href="#DejaVuSans-8722"/>
       <use x="83.789062" xlink:href="#DejaVuSans-49"/>
       <use x="147.412109" xlink:href="#DejaVuSans-46"/>
       <use x="179.199219" xlink:href="#DejaVuSans-48"/>
       <use x="242.822266" xlink:href="#DejaVuSans-48"/>
      </g>
     </g>
    </g>
    <g id="ytick_2">
     <g id="line2d_10">
      <g>
       <use style="stroke:#000000;stroke-width:0.8;" x="172.8" xlink:href="#m00df25acfa" y="511.995328"/>
      </g>
     </g>
     <g id="text_10">
      <!-- −0.75 -->
      <g transform="translate(135.154687 515.794546)scale(0.1 -0.1)">
       <use xlink:href="#DejaVuSans-8722"/>
       <use x="83.789062" xlink:href="#DejaVuSans-48"/>
       <use x="147.412109" xlink:href="#DejaVuSans-46"/>
       <use x="179.199219" xlink:href="#DejaVuSans-55"/>
       <use x="242.822266" xlink:href="#DejaVuSans-53"/>
      </g>
     </g>
    </g>
    <g id="ytick_3">
     <g id="line2d_11">
      <g>
       <use style="stroke:#000000;stroke-width:0.8;" x="172.8" xlink:href="#m00df25acfa" y="442.060298"/>
      </g>
     </g>
     <g id="text_11">
      <!-- −0.50 -->
      <g transform="translate(135.154687 445.859517)scale(0.1 -0.1)">
       <use xlink:href="#DejaVuSans-8722"/>
       <use x="83.789062" xlink:href="#DejaVuSans-48"/>
       <use x="147.412109" xlink:href="#DejaVuSans-46"/>
       <use x="179.199219" xlink:href="#DejaVuSans-53"/>
       <use x="242.822266" xlink:href="#DejaVuSans-48"/>
      </g>
     </g>
    </g>
    <g id="ytick_4">
     <g id="line2d_12">
      <g>
       <use style="stroke:#000000;stroke-width:0.8;" x="172.8" xlink:href="#m00df25acfa" y="372.125269"/>
      </g>
     </g>
     <g id="text_12">
      <!-- −0.25 -->
      <g transform="translate(135.154687 375.924488)scale(0.1 -0.1)">
       <use xlink:href="#DejaVuSans-8722"/>
       <use x="83.789062" xlink:href="#DejaVuSans-48"/>
       <use x="147.412109" xlink:href="#DejaVuSans-46"/>
       <use x="179.199219" xlink:href="#DejaVuSans-50"/>
       <use x="242.822266" xlink:href="#DejaVuSans-53"/>
      </g>
     </g>
    </g>
    <g id="ytick_5">
     <g id="line2d_13">
      <g>
       <use style="stroke:#000000;stroke-width:0.8;" x="172.8" xlink:href="#m00df25acfa" y="302.190239"/>
      </g>
     </g>
     <g id="text_13">
      <!-- 0.00 -->
      <g transform="translate(143.534375 305.989458)scale(0.1 -0.1)">
       <use xlink:href="#DejaVuSans-48"/>
       <use x="63.623047" xlink:href="#DejaVuSans-46"/>
       <use x="95.410156" xlink:href="#DejaVuSans-48"/>
       <use x="159.033203" xlink:href="#DejaVuSans-48"/>
      </g>
     </g>
    </g>
    <g id="ytick_6">
     <g id="line2d_14">
      <g>
       <use style="stroke:#000000;stroke-width:0.8;" x="172.8" xlink:href="#m00df25acfa" y="232.25521"/>
      </g>
     </g>
     <g id="text_14">
      <!-- 0.25 -->
      <g transform="translate(143.534375 236.054429)scale(0.1 -0.1)">
       <use xlink:href="#DejaVuSans-48"/>
       <use x="63.623047" xlink:href="#DejaVuSans-46"/>
       <use x="95.410156" xlink:href="#DejaVuSans-50"/>
       <use x="159.033203" xlink:href="#DejaVuSans-53"/>
      </g>
     </g>
    </g>
    <g id="ytick_7">
     <g id="line2d_15">
      <g>
       <use style="stroke:#000000;stroke-width:0.8;" x="172.8" xlink:href="#m00df25acfa" y="162.320181"/>
      </g>
     </g>
     <g id="text_15">
      <!-- 0.50 -->
      <g transform="translate(143.534375 166.119399)scale(0.1 -0.1)">
       <use xlink:href="#DejaVuSans-48"/>
       <use x="63.623047" xlink:href="#DejaVuSans-46"/>
       <use x="95.410156" xlink:href="#DejaVuSans-53"/>
       <use x="159.033203" xlink:href="#DejaVuSans-48"/>
      </g>
     </g>
    </g>
    <g id="ytick_8">
     <g id="line2d_16">
      <g>
       <use style="stroke:#000000;stroke-width:0.8;" x="172.8" xlink:href="#m00df25acfa" y="92.385151"/>
      </g>
     </g>
     <g id="text_16">
      <!-- 0.75 -->
      <g transform="translate(143.534375 96.18437)scale(0.1 -0.1)">
       <use xlink:href="#DejaVuSans-48"/>
       <use x="63.623047" xlink:href="#DejaVuSans-46"/>
       <use x="95.410156" xlink:href="#DejaVuSans-55"/>
       <use x="159.033203" xlink:href="#DejaVuSans-53"/>
      </g>
     </g>
    </g>
   </g>
   <g id="line2d_17">
    <path clip-path="url(#p4e4027a91d)" d="M 194.935537 301.381897 
L 196.165289 300.109403 
L 196.780165 299.775288 
L 197.395041 299.687879 
L 198.009917 299.844899 
L 198.624793 300.216999 
L 199.854545 301.380752 
L 201.084298 302.607797 
L 201.699174 303.058627 
L 202.31405 303.325921 
L 202.928926 303.382195 
L 203.543802 303.228008 
L 204.158678 302.885283 
L 205.38843 301.818601 
L 206.618182 300.679929 
L 207.233058 300.24529 
L 207.847934 299.966572 
L 208.46281 299.869998 
L 209.077686 299.962937 
L 209.692562 300.230464 
L 210.922314 301.146699 
L 212.766942 302.683562 
L 213.381818 303.033028 
L 213.996694 303.241609 
L 214.61157 303.298868 
L 215.226446 303.208772 
L 216.456198 302.678983 
L 218.300826 301.626076 
L 219.530579 301.241127 
L 220.145455 301.226412 
L 221.375207 301.557983 
L 223.219835 302.594178 
L 224.449587 303.230058 
L 225.679339 303.537257 
L 226.909091 303.441474 
L 228.753719 302.81099 
L 229.983471 302.41176 
L 231.213223 302.286596 
L 232.442975 302.51459 
L 234.287603 303.305987 
L 235.517355 303.829538 
L 236.747107 304.117927 
L 237.97686 304.091132 
L 239.206612 303.812 
L 241.666116 303.169886 
L 242.895868 303.132882 
L 244.12562 303.349056 
L 247.2 304.213448 
L 248.429752 304.300556 
L 249.659504 304.160525 
L 253.34876 303.456582 
L 254.578512 303.506347 
L 259.497521 304.12684 
L 261.342149 303.836586 
L 263.801653 303.394331 
L 265.646281 303.374191 
L 269.335537 303.641549 
L 271.180165 303.45958 
L 274.869421 302.866634 
L 276.71405 302.821706 
L 280.403306 302.818358 
L 282.86281 302.498651 
L 285.322314 302.190744 
L 287.781818 302.119659 
L 290.856198 302.045767 
L 297.619835 301.641835 
L 303.153719 301.574239 
L 306.842975 301.559025 
L 324.059504 302.141384 
L 345.580165 302.467374 
L 359.107438 302.281543 
L 384.932231 301.937331 
L 398.459504 302.189249 
L 410.757025 302.677633 
L 435.352066 303.912852 
L 446.419835 304.361342 
L 453.798347 304.482792 
L 461.17686 304.375913 
L 467.32562 304.057413 
L 478.393388 303.214274 
L 485.771901 302.641053 
L 488.846281 302.451138 
L 494.380165 302.025841 
L 503.603306 301.972031 
L 506.677686 302.126744 
L 515.28595 302.96374 
L 520.204959 303.74143 
L 526.968595 304.735487 
L 531.887603 305.30301 
L 536.191736 305.548147 
L 541.72562 305.618444 
L 547.259504 305.487935 
L 553.408264 305.132607 
L 558.942149 304.565923 
L 566.320661 303.559915 
L 576.773554 301.772963 
L 593.375207 299.01984 
L 599.523967 298.303878 
L 605.672727 297.810153 
L 611.206612 297.583542 
L 616.740496 297.575389 
L 621.659504 297.780525 
L 626.578512 298.212787 
L 627.193388 298.281097 
L 629.652893 298.179203 
L 631.497521 298.291071 
L 634.571901 298.766428 
L 637.031405 299.178318 
L 637.031405 299.178318 
" style="fill:none;stroke:#ff796c;stroke-linecap:square;stroke-width:1.5;"/>
   </g>
   <g id="line2d_18">
    <path clip-path="url(#p4e4027a91d)" d="M 194.935537 302.190239 
L 195.550413 301.754017 
L 196.780165 301.978199 
L 197.395041 302.288324 
L 198.009917 302.768741 
L 198.624793 303.428631 
L 199.854545 305.245437 
L 202.928926 310.585381 
L 203.543802 311.309947 
L 204.158678 311.846789 
L 204.773554 312.21426 
L 206.003306 312.60362 
L 207.233058 313.010093 
L 207.847934 313.388005 
L 208.46281 313.951504 
L 209.077686 314.723633 
L 210.307438 316.90913 
L 211.53719 319.766189 
L 213.996694 325.718874 
L 215.226446 327.966464 
L 216.456198 329.548325 
L 218.300826 331.240202 
L 219.530579 332.486427 
L 220.760331 334.195505 
L 221.990083 336.431527 
L 225.679339 343.818268 
L 226.909091 345.494833 
L 228.138843 346.628158 
L 231.828099 349.173629 
L 233.057851 350.438088 
L 235.517355 353.253761 
L 236.747107 354.280544 
L 237.361983 354.606207 
L 237.97686 354.792153 
L 238.591736 354.841276 
L 239.821488 354.607286 
L 241.666116 353.789812 
L 243.510744 353.011227 
L 247.2 351.719106 
L 248.429752 350.81408 
L 249.659504 349.477754 
L 250.889256 347.762456 
L 258.267769 336.095248 
L 260.112397 332.581138 
L 261.957025 328.455938 
L 266.261157 318.447666 
L 269.950413 310.186371 
L 272.409917 304.027613 
L 276.099174 294.712479 
L 279.173554 287.726945 
L 285.93719 272.827929 
L 287.781818 269.348019 
L 290.241322 265.161068 
L 293.315702 260.343517 
L 295.160331 257.789164 
L 297.004959 255.604741 
L 298.849587 253.80313 
L 300.694215 252.316218 
L 303.153719 250.697909 
L 304.998347 249.770096 
L 306.842975 249.170267 
L 308.687603 248.888962 
L 310.532231 248.858301 
L 312.991736 249.063501 
L 314.836364 249.398999 
L 316.680992 249.926348 
L 319.140496 250.885879 
L 325.289256 253.739961 
L 333.282645 257.517576 
L 336.357025 258.659071 
L 339.431405 259.592499 
L 341.890909 260.132213 
L 344.350413 260.459967 
L 347.424793 260.624033 
L 350.499174 260.532604 
L 353.573554 260.219936 
L 357.26281 259.601089 
L 368.945455 257.324214 
L 372.019835 256.983996 
L 374.479339 256.942428 
L 376.938843 257.131567 
L 379.398347 257.57844 
L 381.242975 258.117582 
L 383.087603 258.859641 
L 384.932231 259.815175 
L 386.77686 261.004019 
L 388.621488 262.436302 
L 390.466116 264.118931 
L 392.310744 266.061466 
L 394.155372 268.278562 
L 396.614876 271.664119 
L 399.07438 275.51261 
L 401.533884 279.797275 
L 403.993388 284.496499 
L 407.067769 290.907354 
L 410.142149 297.820764 
L 413.831405 306.638645 
L 418.750413 319.021745 
L 426.128926 338.278949 
L 434.122314 359.130726 
L 439.041322 371.447373 
L 442.730579 380.203345 
L 445.804959 387.051334 
L 448.879339 393.347537 
L 451.338843 397.88115 
L 453.798347 401.88076 
L 455.642975 404.480809 
L 457.487603 406.700676 
L 459.332231 408.509178 
L 460.561983 409.472971 
L 461.791736 410.235655 
L 463.021488 410.792245 
L 464.25124 411.137211 
L 465.480992 411.272135 
L 466.710744 411.199485 
L 467.940496 410.917126 
L 469.170248 410.427857 
L 470.4 409.736902 
L 472.244628 408.352857 
L 474.089256 406.57574 
L 475.933884 404.445491 
L 477.778512 401.99196 
L 480.238017 398.276825 
L 482.697521 394.137385 
L 485.157025 389.662303 
L 488.846281 381.978534 
L 502.373554 353.260599 
L 506.06281 346.19223 
L 510.366942 338.492027 
L 514.056198 332.282567 
L 518.975207 324.502769 
L 523.894215 316.635902 
L 527.583471 310.298122 
L 531.272727 303.49241 
L 534.961983 296.276539 
L 538.65124 288.592476 
L 542.340496 280.37993 
L 546.029752 271.578753 
L 549.719008 262.183572 
L 554.02314 250.583584 
L 559.557025 234.936729 
L 572.469421 198.075394 
L 576.158678 188.293594 
L 579.847934 179.162369 
L 582.922314 172.110393 
L 585.996694 165.640861 
L 588.456198 160.934905 
L 590.915702 156.684703 
L 593.375207 152.915308 
L 595.219835 150.42389 
L 597.064463 148.228999 
L 598.909091 146.35001 
L 600.753719 144.80296 
L 602.598347 143.602762 
L 603.828099 143.014754 
L 605.057851 142.602638 
L 606.287603 142.375574 
L 607.517355 142.343409 
L 608.747107 142.516506 
L 609.97686 142.905568 
L 611.206612 143.52147 
L 612.436364 144.369616 
L 613.666116 145.464019 
L 614.895868 146.820336 
L 616.12562 148.447254 
L 617.355372 150.35227 
L 619.2 153.745277 
L 621.044628 157.804254 
L 622.889256 162.51168 
L 624.733884 167.878916 
L 626.578512 173.884664 
L 628.42314 179.938824 
L 630.267769 185.44323 
L 632.727273 193.654943 
L 635.186777 202.770746 
L 637.646281 212.62599 
L 637.646281 212.62599 
" style="fill:none;stroke:#e50000;stroke-linecap:square;stroke-width:1.5;"/>
   </g>
   <g id="line2d_19">
    <path clip-path="url(#p4e4027a91d)" d="M 194.935537 155.718656 
L 200.469421 155.831581 
L 206.003306 156.170179 
L 211.53719 156.73393 
L 217.071074 157.521965 
L 222.604959 158.533067 
L 228.138843 159.765678 
L 233.672727 161.217897 
L 239.206612 162.887486 
L 244.740496 164.771869 
L 250.889256 167.114003 
L 257.038017 169.713262 
L 263.186777 172.564699 
L 269.335537 175.662885 
L 275.484298 179.001924 
L 282.247934 182.945451 
L 289.01157 187.163625 
L 295.775207 191.646732 
L 302.538843 196.384446 
L 309.917355 201.830402 
L 317.295868 207.551437 
L 325.289256 214.04144 
L 333.282645 220.814988 
L 341.890909 228.401668 
L 351.11405 236.834939 
L 360.952066 246.137991 
L 372.019835 256.928031 
L 384.317355 269.241302 
L 399.689256 284.974351 
L 454.413223 341.333067 
L 466.710744 353.485669 
L 477.163636 363.511994 
L 487.001653 372.641426 
L 496.224793 380.889364 
L 504.833058 388.284076 
L 512.826446 394.86359 
L 520.819835 401.145007 
L 528.198347 406.661162 
L 535.57686 411.890969 
L 542.340496 416.421154 
L 549.104132 420.688239 
L 555.867769 424.682397 
L 562.016529 428.068857 
L 568.165289 431.2157 
L 574.31405 434.116936 
L 580.46281 436.767042 
L 586.61157 439.160974 
L 592.760331 441.294174 
L 598.294215 442.987762 
L 603.828099 444.46425 
L 609.361983 445.721362 
L 614.895868 446.75716 
L 620.429752 447.570045 
L 625.963636 448.158766 
L 631.497521 448.522414 
L 637.031405 448.660428 
L 637.031405 448.660428 
" style="fill:none;stroke:#014d4e;stroke-linecap:square;stroke-width:1.5;"/>
   </g>
   <g id="line2d_20">
    <path clip-path="url(#p4e4027a91d)" d="M 194.935537 156.154878 
L 196.165289 155.936274 
L 196.780165 155.63312 
L 197.395041 155.162463 
L 198.009917 154.515121 
L 199.239669 152.731775 
L 202.31405 147.524249 
L 202.928926 146.834524 
L 203.543802 146.335305 
L 204.158678 146.008243 
L 205.38843 145.708045 
L 206.618182 145.401859 
L 207.233058 145.07826 
L 207.847934 144.57185 
L 208.46281 143.859589 
L 209.077686 142.931591 
L 210.307438 140.503028 
L 213.381818 133.443106 
L 214.61157 131.367883 
L 215.841322 129.969434 
L 217.68595 128.573356 
L 218.915702 127.538096 
L 220.145455 126.050975 
L 221.375207 124.047887 
L 225.064463 117.425624 
L 226.294215 116.025712 
L 227.523967 115.17992 
L 229.368595 114.45555 
L 230.598347 113.923985 
L 231.828099 113.127157 
L 235.517355 110.117468 
L 236.132231 109.842941 
L 236.747107 109.7028 
L 237.361983 109.705043 
L 237.97686 109.846771 
L 239.206612 110.47044 
L 241.05124 111.892312 
L 242.895868 113.299061 
L 245.970248 115.38122 
L 247.2 116.54911 
L 248.429752 118.136791 
L 249.659504 120.155295 
L 251.504132 123.741015 
L 255.808264 132.313571 
L 257.652893 136.082136 
L 259.497521 140.43297 
L 261.342149 145.417404 
L 266.876033 160.827893 
L 269.335537 167.666754 
L 271.795041 175.13257 
L 276.099174 188.271424 
L 284.092562 210.897749 
L 286.552066 217.321851 
L 289.626446 224.589555 
L 293.315702 232.721747 
L 295.775207 237.547907 
L 297.619835 240.741459 
L 300.079339 244.506881 
L 302.538843 247.876777 
L 304.383471 250.139461 
L 306.228099 252.092061 
L 308.072727 253.743806 
L 310.532231 255.600222 
L 312.991736 257.215921 
L 315.45124 258.557656 
L 317.910744 259.603775 
L 322.829752 261.336993 
L 332.052893 264.682141 
L 335.127273 266.159814 
L 338.201653 267.87928 
L 340.661157 269.473132 
L 343.120661 271.302397 
L 346.195041 273.878777 
L 349.269421 276.745048 
L 352.958678 280.526658 
L 356.647934 284.620749 
L 371.404959 301.526885 
L 374.479339 304.587744 
L 377.553719 307.302351 
L 380.013223 309.172248 
L 382.472727 310.706609 
L 384.317355 311.616367 
L 386.161983 312.298461 
L 388.006612 312.74244 
L 389.85124 312.941077 
L 391.695868 312.884489 
L 393.540496 312.557698 
L 395.385124 311.957835 
L 397.229752 311.095696 
L 399.07438 309.985245 
L 400.919008 308.6373 
L 402.763636 307.057813 
L 405.22314 304.6117 
L 407.682645 301.821071 
L 410.757025 297.926164 
L 413.831405 293.670549 
L 418.135537 287.275988 
L 423.669421 278.631586 
L 434.122314 262.165202 
L 438.426446 255.84631 
L 441.500826 251.663159 
L 444.575207 247.86155 
L 447.034711 245.177426 
L 448.879339 243.425269 
L 450.723967 241.934012 
L 452.568595 240.737035 
L 454.413223 239.868573 
L 455.642975 239.488898 
L 456.872727 239.27998 
L 458.102479 239.25082 
L 459.332231 239.409487 
L 460.561983 239.76289 
L 461.791736 240.316627 
L 463.021488 241.074865 
L 464.25124 242.043131 
L 465.480992 243.21492 
L 467.32562 245.356922 
L 469.170248 247.955028 
L 471.014876 250.98345 
L 472.859504 254.402779 
L 475.319008 259.510348 
L 477.778512 265.175423 
L 480.852893 272.910139 
L 484.542149 282.917471 
L 489.461157 297.728242 
L 498.684298 325.70603 
L 502.98843 338.062721 
L 507.292562 349.700805 
L 511.596694 360.725331 
L 515.900826 371.154707 
L 525.738843 394.581902 
L 530.042975 405.532222 
L 534.961983 418.626843 
L 539.266116 430.66799 
L 543.570248 443.350745 
L 547.87438 456.745677 
L 552.793388 472.813974 
L 559.557025 495.765068 
L 569.395041 529.112893 
L 573.699174 542.917937 
L 577.38843 554.025808 
L 580.46281 562.679002 
L 583.53719 570.738028 
L 586.61157 578.118946 
L 589.071074 583.484072 
L 591.530579 588.341457 
L 593.990083 592.6578 
L 595.834711 595.525752 
L 597.679339 598.060153 
L 599.523967 600.244434 
L 601.368595 602.065142 
L 603.213223 603.486476 
L 604.442975 604.202402 
L 605.672727 604.722431 
L 606.902479 605.036691 
L 608.132231 605.1348 
L 609.361983 605.006034 
L 610.591736 604.639497 
L 611.821488 604.029765 
L 613.05124 603.162811 
L 614.280992 602.022956 
L 615.510744 600.6015 
L 616.740496 598.890928 
L 617.970248 596.884624 
L 619.2 594.577439 
L 621.044628 590.537453 
L 622.889256 585.821592 
L 624.733884 580.426232 
L 626.578512 574.376414 
L 627.193388 572.218342 
L 629.038017 567.033278 
L 630.882645 561.255593 
L 633.342149 552.670921 
L 635.801653 543.226484 
L 637.031405 538.224677 
L 637.031405 538.224677 
" style="fill:none;stroke:#ffff14;stroke-linecap:square;stroke-width:1.5;"/>
   </g>
   <g id="patch_3">
    <path d="M 172.8 629.9064 
L 172.8 84.9312 
" style="fill:none;stroke:#000000;stroke-linecap:square;stroke-linejoin:miter;stroke-width:0.8;"/>
   </g>
   <g id="patch_4">
    <path d="M 659.781818 629.9064 
L 659.781818 84.9312 
" style="fill:none;stroke:#000000;stroke-linecap:square;stroke-linejoin:miter;stroke-width:0.8;"/>
   </g>
   <g id="patch_5">
    <path d="M 172.8 629.9064 
L 659.781818 629.9064 
" style="fill:none;stroke:#000000;stroke-linecap:square;stroke-linejoin:miter;stroke-width:0.8;"/>
   </g>
   <g id="patch_6">
    <path d="M 172.8 84.9312 
L 659.781818 84.9312 
" style="fill:none;stroke:#000000;stroke-linecap:square;stroke-linejoin:miter;stroke-width:0.8;"/>
   </g>
   <g id="text_17">
    <!-- Right abduction -->
    <defs>
     <path d="M 44.390625 34.1875 
Q 47.5625 33.109375 50.5625 29.59375 
Q 53.5625 26.078125 56.59375 19.921875 
L 66.609375 0 
L 56 0 
L 46.6875 18.703125 
Q 43.0625 26.03125 39.671875 28.421875 
Q 36.28125 30.8125 30.421875 30.8125 
L 19.671875 30.8125 
L 19.671875 0 
L 9.8125 0 
L 9.8125 72.90625 
L 32.078125 72.90625 
Q 44.578125 72.90625 50.734375 67.671875 
Q 56.890625 62.453125 56.890625 51.90625 
Q 56.890625 45.015625 53.6875 40.46875 
Q 50.484375 35.9375 44.390625 34.1875 
z
M 19.671875 64.796875 
L 19.671875 38.921875 
L 32.078125 38.921875 
Q 39.203125 38.921875 42.84375 42.21875 
Q 46.484375 45.515625 46.484375 51.90625 
Q 46.484375 58.296875 42.84375 61.546875 
Q 39.203125 64.796875 32.078125 64.796875 
z
" id="DejaVuSans-82"/>
     <path d="M 9.421875 54.6875 
L 18.40625 54.6875 
L 18.40625 0 
L 9.421875 0 
z
M 9.421875 75.984375 
L 18.40625 75.984375 
L 18.40625 64.59375 
L 9.421875 64.59375 
z
" id="DejaVuSans-105"/>
     <path d="M 45.40625 27.984375 
Q 45.40625 37.75 41.375 43.109375 
Q 37.359375 48.484375 30.078125 48.484375 
Q 22.859375 48.484375 18.828125 43.109375 
Q 14.796875 37.75 14.796875 27.984375 
Q 14.796875 18.265625 18.828125 12.890625 
Q 22.859375 7.515625 30.078125 7.515625 
Q 37.359375 7.515625 41.375 12.890625 
Q 45.40625 18.265625 45.40625 27.984375 
z
M 54.390625 6.78125 
Q 54.390625 -7.171875 48.1875 -13.984375 
Q 42 -20.796875 29.203125 -20.796875 
Q 24.46875 -20.796875 20.265625 -20.09375 
Q 16.0625 -19.390625 12.109375 -17.921875 
L 12.109375 -9.1875 
Q 16.0625 -11.328125 19.921875 -12.34375 
Q 23.78125 -13.375 27.78125 -13.375 
Q 36.625 -13.375 41.015625 -8.765625 
Q 45.40625 -4.15625 45.40625 5.171875 
L 45.40625 9.625 
Q 42.625 4.78125 38.28125 2.390625 
Q 33.9375 0 27.875 0 
Q 17.828125 0 11.671875 7.65625 
Q 5.515625 15.328125 5.515625 27.984375 
Q 5.515625 40.671875 11.671875 48.328125 
Q 17.828125 56 27.875 56 
Q 33.9375 56 38.28125 53.609375 
Q 42.625 51.21875 45.40625 46.390625 
L 45.40625 54.6875 
L 54.390625 54.6875 
z
" id="DejaVuSans-103"/>
     <path d="M 54.890625 33.015625 
L 54.890625 0 
L 45.90625 0 
L 45.90625 32.71875 
Q 45.90625 40.484375 42.875 44.328125 
Q 39.84375 48.1875 33.796875 48.1875 
Q 26.515625 48.1875 22.3125 43.546875 
Q 18.109375 38.921875 18.109375 30.90625 
L 18.109375 0 
L 9.078125 0 
L 9.078125 75.984375 
L 18.109375 75.984375 
L 18.109375 46.1875 
Q 21.34375 51.125 25.703125 53.5625 
Q 30.078125 56 35.796875 56 
Q 45.21875 56 50.046875 50.171875 
Q 54.890625 44.34375 54.890625 33.015625 
z
" id="DejaVuSans-104"/>
     <path d="M 18.3125 70.21875 
L 18.3125 54.6875 
L 36.8125 54.6875 
L 36.8125 47.703125 
L 18.3125 47.703125 
L 18.3125 18.015625 
Q 18.3125 11.328125 20.140625 9.421875 
Q 21.96875 7.515625 27.59375 7.515625 
L 36.8125 7.515625 
L 36.8125 0 
L 27.59375 0 
Q 17.1875 0 13.234375 3.875 
Q 9.28125 7.765625 9.28125 18.015625 
L 9.28125 47.703125 
L 2.6875 47.703125 
L 2.6875 54.6875 
L 9.28125 54.6875 
L 9.28125 70.21875 
z
" id="DejaVuSans-116"/>
     <path id="DejaVuSans-32"/>
     <path d="M 34.28125 27.484375 
Q 23.390625 27.484375 19.1875 25 
Q 14.984375 22.515625 14.984375 16.5 
Q 14.984375 11.71875 18.140625 8.90625 
Q 21.296875 6.109375 26.703125 6.109375 
Q 34.1875 6.109375 38.703125 11.40625 
Q 43.21875 16.703125 43.21875 25.484375 
L 43.21875 27.484375 
z
M 52.203125 31.203125 
L 52.203125 0 
L 43.21875 0 
L 43.21875 8.296875 
Q 40.140625 3.328125 35.546875 0.953125 
Q 30.953125 -1.421875 24.3125 -1.421875 
Q 15.921875 -1.421875 10.953125 3.296875 
Q 6 8.015625 6 15.921875 
Q 6 25.140625 12.171875 29.828125 
Q 18.359375 34.515625 30.609375 34.515625 
L 43.21875 34.515625 
L 43.21875 35.40625 
Q 43.21875 41.609375 39.140625 45 
Q 35.0625 48.390625 27.6875 48.390625 
Q 23 48.390625 18.546875 47.265625 
Q 14.109375 46.140625 10.015625 43.890625 
L 10.015625 52.203125 
Q 14.9375 54.109375 19.578125 55.046875 
Q 24.21875 56 28.609375 56 
Q 40.484375 56 46.34375 49.84375 
Q 52.203125 43.703125 52.203125 31.203125 
z
" id="DejaVuSans-97"/>
     <path d="M 48.6875 27.296875 
Q 48.6875 37.203125 44.609375 42.84375 
Q 40.53125 48.484375 33.40625 48.484375 
Q 26.265625 48.484375 22.1875 42.84375 
Q 18.109375 37.203125 18.109375 27.296875 
Q 18.109375 17.390625 22.1875 11.75 
Q 26.265625 6.109375 33.40625 6.109375 
Q 40.53125 6.109375 44.609375 11.75 
Q 48.6875 17.390625 48.6875 27.296875 
z
M 18.109375 46.390625 
Q 20.953125 51.265625 25.265625 53.625 
Q 29.59375 56 35.59375 56 
Q 45.5625 56 51.78125 48.09375 
Q 58.015625 40.1875 58.015625 27.296875 
Q 58.015625 14.40625 51.78125 6.484375 
Q 45.5625 -1.421875 35.59375 -1.421875 
Q 29.59375 -1.421875 25.265625 0.953125 
Q 20.953125 3.328125 18.109375 8.203125 
L 18.109375 0 
L 9.078125 0 
L 9.078125 75.984375 
L 18.109375 75.984375 
z
" id="DejaVuSans-98"/>
     <path d="M 45.40625 46.390625 
L 45.40625 75.984375 
L 54.390625 75.984375 
L 54.390625 0 
L 45.40625 0 
L 45.40625 8.203125 
Q 42.578125 3.328125 38.25 0.953125 
Q 33.9375 -1.421875 27.875 -1.421875 
Q 17.96875 -1.421875 11.734375 6.484375 
Q 5.515625 14.40625 5.515625 27.296875 
Q 5.515625 40.1875 11.734375 48.09375 
Q 17.96875 56 27.875 56 
Q 33.9375 56 38.25 53.625 
Q 42.578125 51.265625 45.40625 46.390625 
z
M 14.796875 27.296875 
Q 14.796875 17.390625 18.875 11.75 
Q 22.953125 6.109375 30.078125 6.109375 
Q 37.203125 6.109375 41.296875 11.75 
Q 45.40625 17.390625 45.40625 27.296875 
Q 45.40625 37.203125 41.296875 42.84375 
Q 37.203125 48.484375 30.078125 48.484375 
Q 22.953125 48.484375 18.875 42.84375 
Q 14.796875 37.203125 14.796875 27.296875 
z
" id="DejaVuSans-100"/>
     <path d="M 8.5 21.578125 
L 8.5 54.6875 
L 17.484375 54.6875 
L 17.484375 21.921875 
Q 17.484375 14.15625 20.5 10.265625 
Q 23.53125 6.390625 29.59375 6.390625 
Q 36.859375 6.390625 41.078125 11.03125 
Q 45.3125 15.671875 45.3125 23.6875 
L 45.3125 54.6875 
L 54.296875 54.6875 
L 54.296875 0 
L 45.3125 0 
L 45.3125 8.40625 
Q 42.046875 3.421875 37.71875 1 
Q 33.40625 -1.421875 27.6875 -1.421875 
Q 18.265625 -1.421875 13.375 4.4375 
Q 8.5 10.296875 8.5 21.578125 
z
M 31.109375 56 
z
" id="DejaVuSans-117"/>
     <path d="M 48.78125 52.59375 
L 48.78125 44.1875 
Q 44.96875 46.296875 41.140625 47.34375 
Q 37.3125 48.390625 33.40625 48.390625 
Q 24.65625 48.390625 19.8125 42.84375 
Q 14.984375 37.3125 14.984375 27.296875 
Q 14.984375 17.28125 19.8125 11.734375 
Q 24.65625 6.203125 33.40625 6.203125 
Q 37.3125 6.203125 41.140625 7.25 
Q 44.96875 8.296875 48.78125 10.40625 
L 48.78125 2.09375 
Q 45.015625 0.34375 40.984375 -0.53125 
Q 36.96875 -1.421875 32.421875 -1.421875 
Q 20.0625 -1.421875 12.78125 6.34375 
Q 5.515625 14.109375 5.515625 27.296875 
Q 5.515625 40.671875 12.859375 48.328125 
Q 20.21875 56 33.015625 56 
Q 37.15625 56 41.109375 55.140625 
Q 45.0625 54.296875 48.78125 52.59375 
z
" id="DejaVuSans-99"/>
     <path d="M 30.609375 48.390625 
Q 23.390625 48.390625 19.1875 42.75 
Q 14.984375 37.109375 14.984375 27.296875 
Q 14.984375 17.484375 19.15625 11.84375 
Q 23.34375 6.203125 30.609375 6.203125 
Q 37.796875 6.203125 41.984375 11.859375 
Q 46.1875 17.53125 46.1875 27.296875 
Q 46.1875 37.015625 41.984375 42.703125 
Q 37.796875 48.390625 30.609375 48.390625 
z
M 30.609375 56 
Q 42.328125 56 49.015625 48.375 
Q 55.71875 40.765625 55.71875 27.296875 
Q 55.71875 13.875 49.015625 6.21875 
Q 42.328125 -1.421875 30.609375 -1.421875 
Q 18.84375 -1.421875 12.171875 6.21875 
Q 5.515625 13.875 5.515625 27.296875 
Q 5.515625 40.765625 12.171875 48.375 
Q 18.84375 56 30.609375 56 
z
" id="DejaVuSans-111"/>
     <path d="M 54.890625 33.015625 
L 54.890625 0 
L 45.90625 0 
L 45.90625 32.71875 
Q 45.90625 40.484375 42.875 44.328125 
Q 39.84375 48.1875 33.796875 48.1875 
Q 26.515625 48.1875 22.3125 43.546875 
Q 18.109375 38.921875 18.109375 30.90625 
L 18.109375 0 
L 9.078125 0 
L 9.078125 54.6875 
L 18.109375 54.6875 
L 18.109375 46.1875 
Q 21.34375 51.125 25.703125 53.5625 
Q 30.078125 56 35.796875 56 
Q 45.21875 56 50.046875 50.171875 
Q 54.890625 44.34375 54.890625 33.015625 
z
" id="DejaVuSans-110"/>
    </defs>
    <g transform="translate(368.694972 78.9312)scale(0.12 -0.12)">
     <use xlink:href="#DejaVuSans-82"/>
     <use x="69.482422" xlink:href="#DejaVuSans-105"/>
     <use x="97.265625" xlink:href="#DejaVuSans-103"/>
     <use x="160.742188" xlink:href="#DejaVuSans-104"/>
     <use x="224.121094" xlink:href="#DejaVuSans-116"/>
     <use x="263.330078" xlink:href="#DejaVuSans-32"/>
     <use x="295.117188" xlink:href="#DejaVuSans-97"/>
     <use x="356.396484" xlink:href="#DejaVuSans-98"/>
     <use x="419.873047" xlink:href="#DejaVuSans-100"/>
     <use x="483.349609" xlink:href="#DejaVuSans-117"/>
     <use x="546.728516" xlink:href="#DejaVuSans-99"/>
     <use x="601.708984" xlink:href="#DejaVuSans-116"/>
     <use x="640.917969" xlink:href="#DejaVuSans-105"/>
     <use x="668.701172" xlink:href="#DejaVuSans-111"/>
     <use x="729.882812" xlink:href="#DejaVuSans-110"/>
    </g>
   </g>
  </g>
  <g id="axes_2">
   <g id="patch_7">
    <path d="M 757.178182 629.9064 
L 1244.16 629.9064 
L 1244.16 84.9312 
L 757.178182 84.9312 
z
" style="fill:#ffffff;"/>
   </g>
   <g id="matplotlib.axis_3">
    <g id="xtick_9">
     <g id="line2d_21">
      <g>
       <use style="stroke:#000000;stroke-width:0.8;" x="779.313719" xlink:href="#mfe77c1dfb0" y="629.9064"/>
      </g>
     </g>
     <g id="text_18">
      <!-- 0 -->
      <g transform="translate(776.132469 644.504838)scale(0.1 -0.1)">
       <use xlink:href="#DejaVuSans-48"/>
      </g>
     </g>
    </g>
    <g id="xtick_10">
     <g id="line2d_22">
      <g>
       <use style="stroke:#000000;stroke-width:0.8;" x="840.801322" xlink:href="#mfe77c1dfb0" y="629.9064"/>
      </g>
     </g>
     <g id="text_19">
      <!-- 100 -->
      <g transform="translate(831.257572 644.504838)scale(0.1 -0.1)">
       <use xlink:href="#DejaVuSans-49"/>
       <use x="63.623047" xlink:href="#DejaVuSans-48"/>
       <use x="127.246094" xlink:href="#DejaVuSans-48"/>
      </g>
     </g>
    </g>
    <g id="xtick_11">
     <g id="line2d_23">
      <g>
       <use style="stroke:#000000;stroke-width:0.8;" x="902.288926" xlink:href="#mfe77c1dfb0" y="629.9064"/>
      </g>
     </g>
     <g id="text_20">
      <!-- 200 -->
      <g transform="translate(892.745176 644.504838)scale(0.1 -0.1)">
       <use xlink:href="#DejaVuSans-50"/>
       <use x="63.623047" xlink:href="#DejaVuSans-48"/>
       <use x="127.246094" xlink:href="#DejaVuSans-48"/>
      </g>
     </g>
    </g>
    <g id="xtick_12">
     <g id="line2d_24">
      <g>
       <use style="stroke:#000000;stroke-width:0.8;" x="963.776529" xlink:href="#mfe77c1dfb0" y="629.9064"/>
      </g>
     </g>
     <g id="text_21">
      <!-- 300 -->
      <g transform="translate(954.232779 644.504838)scale(0.1 -0.1)">
       <use xlink:href="#DejaVuSans-51"/>
       <use x="63.623047" xlink:href="#DejaVuSans-48"/>
       <use x="127.246094" xlink:href="#DejaVuSans-48"/>
      </g>
     </g>
    </g>
    <g id="xtick_13">
     <g id="line2d_25">
      <g>
       <use style="stroke:#000000;stroke-width:0.8;" x="1025.264132" xlink:href="#mfe77c1dfb0" y="629.9064"/>
      </g>
     </g>
     <g id="text_22">
      <!-- 400 -->
      <g transform="translate(1015.720382 644.504838)scale(0.1 -0.1)">
       <use xlink:href="#DejaVuSans-52"/>
       <use x="63.623047" xlink:href="#DejaVuSans-48"/>
       <use x="127.246094" xlink:href="#DejaVuSans-48"/>
      </g>
     </g>
    </g>
    <g id="xtick_14">
     <g id="line2d_26">
      <g>
       <use style="stroke:#000000;stroke-width:0.8;" x="1086.751736" xlink:href="#mfe77c1dfb0" y="629.9064"/>
      </g>
     </g>
     <g id="text_23">
      <!-- 500 -->
      <g transform="translate(1077.207986 644.504838)scale(0.1 -0.1)">
       <use xlink:href="#DejaVuSans-53"/>
       <use x="63.623047" xlink:href="#DejaVuSans-48"/>
       <use x="127.246094" xlink:href="#DejaVuSans-48"/>
      </g>
     </g>
    </g>
    <g id="xtick_15">
     <g id="line2d_27">
      <g>
       <use style="stroke:#000000;stroke-width:0.8;" x="1148.239339" xlink:href="#mfe77c1dfb0" y="629.9064"/>
      </g>
     </g>
     <g id="text_24">
      <!-- 600 -->
      <g transform="translate(1138.695589 644.504838)scale(0.1 -0.1)">
       <use xlink:href="#DejaVuSans-54"/>
       <use x="63.623047" xlink:href="#DejaVuSans-48"/>
       <use x="127.246094" xlink:href="#DejaVuSans-48"/>
      </g>
     </g>
    </g>
    <g id="xtick_16">
     <g id="line2d_28">
      <g>
       <use style="stroke:#000000;stroke-width:0.8;" x="1209.726942" xlink:href="#mfe77c1dfb0" y="629.9064"/>
      </g>
     </g>
     <g id="text_25">
      <!-- 700 -->
      <g transform="translate(1200.183192 644.504838)scale(0.1 -0.1)">
       <use xlink:href="#DejaVuSans-55"/>
       <use x="63.623047" xlink:href="#DejaVuSans-48"/>
       <use x="127.246094" xlink:href="#DejaVuSans-48"/>
      </g>
     </g>
    </g>
   </g>
   <g id="matplotlib.axis_4">
    <g id="ytick_9">
     <g id="line2d_29">
      <g>
       <use style="stroke:#000000;stroke-width:0.8;" x="757.178182" xlink:href="#m00df25acfa" y="557.860164"/>
      </g>
     </g>
     <g id="text_26">
      <!-- −0.6 -->
      <g transform="translate(725.895369 561.659383)scale(0.1 -0.1)">
       <use xlink:href="#DejaVuSans-8722"/>
       <use x="83.789062" xlink:href="#DejaVuSans-48"/>
       <use x="147.412109" xlink:href="#DejaVuSans-46"/>
       <use x="179.199219" xlink:href="#DejaVuSans-54"/>
      </g>
     </g>
    </g>
    <g id="ytick_10">
     <g id="line2d_30">
      <g>
       <use style="stroke:#000000;stroke-width:0.8;" x="757.178182" xlink:href="#m00df25acfa" y="480.151985"/>
      </g>
     </g>
     <g id="text_27">
      <!-- −0.4 -->
      <g transform="translate(725.895369 483.951203)scale(0.1 -0.1)">
       <use xlink:href="#DejaVuSans-8722"/>
       <use x="83.789062" xlink:href="#DejaVuSans-48"/>
       <use x="147.412109" xlink:href="#DejaVuSans-46"/>
       <use x="179.199219" xlink:href="#DejaVuSans-52"/>
      </g>
     </g>
    </g>
    <g id="ytick_11">
     <g id="line2d_31">
      <g>
       <use style="stroke:#000000;stroke-width:0.8;" x="757.178182" xlink:href="#m00df25acfa" y="402.443805"/>
      </g>
     </g>
     <g id="text_28">
      <!-- −0.2 -->
      <g transform="translate(725.895369 406.243024)scale(0.1 -0.1)">
       <use xlink:href="#DejaVuSans-8722"/>
       <use x="83.789062" xlink:href="#DejaVuSans-48"/>
       <use x="147.412109" xlink:href="#DejaVuSans-46"/>
       <use x="179.199219" xlink:href="#DejaVuSans-50"/>
      </g>
     </g>
    </g>
    <g id="ytick_12">
     <g id="line2d_32">
      <g>
       <use style="stroke:#000000;stroke-width:0.8;" x="757.178182" xlink:href="#m00df25acfa" y="324.735626"/>
      </g>
     </g>
     <g id="text_29">
      <!-- 0.0 -->
      <g transform="translate(734.275057 328.534844)scale(0.1 -0.1)">
       <use xlink:href="#DejaVuSans-48"/>
       <use x="63.623047" xlink:href="#DejaVuSans-46"/>
       <use x="95.410156" xlink:href="#DejaVuSans-48"/>
      </g>
     </g>
    </g>
    <g id="ytick_13">
     <g id="line2d_33">
      <g>
       <use style="stroke:#000000;stroke-width:0.8;" x="757.178182" xlink:href="#m00df25acfa" y="247.027446"/>
      </g>
     </g>
     <g id="text_30">
      <!-- 0.2 -->
      <g transform="translate(734.275057 250.826665)scale(0.1 -0.1)">
       <use xlink:href="#DejaVuSans-48"/>
       <use x="63.623047" xlink:href="#DejaVuSans-46"/>
       <use x="95.410156" xlink:href="#DejaVuSans-50"/>
      </g>
     </g>
    </g>
    <g id="ytick_14">
     <g id="line2d_34">
      <g>
       <use style="stroke:#000000;stroke-width:0.8;" x="757.178182" xlink:href="#m00df25acfa" y="169.319267"/>
      </g>
     </g>
     <g id="text_31">
      <!-- 0.4 -->
      <g transform="translate(734.275057 173.118486)scale(0.1 -0.1)">
       <use xlink:href="#DejaVuSans-48"/>
       <use x="63.623047" xlink:href="#DejaVuSans-46"/>
       <use x="95.410156" xlink:href="#DejaVuSans-52"/>
      </g>
     </g>
    </g>
    <g id="ytick_15">
     <g id="line2d_35">
      <g>
       <use style="stroke:#000000;stroke-width:0.8;" x="757.178182" xlink:href="#m00df25acfa" y="91.611087"/>
      </g>
     </g>
     <g id="text_32">
      <!-- 0.6 -->
      <g transform="translate(734.275057 95.410306)scale(0.1 -0.1)">
       <use xlink:href="#DejaVuSans-48"/>
       <use x="63.623047" xlink:href="#DejaVuSans-46"/>
       <use x="95.410156" xlink:href="#DejaVuSans-54"/>
      </g>
     </g>
    </g>
   </g>
   <g id="line2d_36">
    <path clip-path="url(#pe9af3d9fcc)" d="M 779.313719 324.369798 
L 780.543471 323.816111 
L 781.158347 323.693932 
L 781.773223 323.696359 
L 783.002975 324.048417 
L 786.077355 325.563278 
L 787.307107 325.702075 
L 788.53686 325.417139 
L 792.226116 323.959753 
L 793.455868 324.020237 
L 794.68562 324.435127 
L 797.145124 325.565938 
L 798.374876 325.847525 
L 799.604628 325.795821 
L 800.83438 325.468476 
L 803.293884 324.679985 
L 804.523636 324.554241 
L 805.753388 324.687406 
L 809.442645 325.527466 
L 810.672397 325.515191 
L 812.517025 325.149958 
L 814.361653 324.714151 
L 815.591405 324.591249 
L 816.821157 324.660849 
L 821.125289 325.307865 
L 822.355041 325.22171 
L 827.27405 324.476653 
L 829.118678 324.631566 
L 831.578182 324.932397 
L 833.42281 324.906598 
L 838.341818 324.418875 
L 840.801322 324.630119 
L 843.260826 324.808542 
L 845.105455 324.722162 
L 848.794711 324.46735 
L 851.254215 324.614663 
L 854.328595 324.779229 
L 861.707107 324.687251 
L 864.781488 324.831182 
L 874.004628 324.904328 
L 878.30876 324.903468 
L 882.612893 324.97314 
L 888.146777 325.039679 
L 893.680661 325.14303 
L 899.214545 325.159946 
L 920.120331 325.076396 
L 948.404628 324.905359 
L 1022.189752 325.196991 
L 1038.791405 325.006615 
L 1060.926942 324.708 
L 1071.379835 324.750771 
L 1095.974876 324.852474 
L 1105.198017 324.921712 
L 1115.650909 324.838792 
L 1124.87405 324.542618 
L 1136.556694 324.271614 
L 1155.617851 324.118211 
L 1170.989752 324.244499 
L 1185.131901 324.575742 
L 1210.956694 325.288851 
L 1212.186446 325.221514 
L 1215.260826 325.021812 
L 1218.335207 325.073106 
L 1221.409587 325.221489 
L 1221.409587 325.221489 
" style="fill:none;stroke:#ff796c;stroke-linecap:square;stroke-width:1.5;"/>
   </g>
   <g id="line2d_37">
    <path clip-path="url(#pe9af3d9fcc)" d="M 779.313719 324.735626 
L 779.928595 324.783737 
L 780.543471 324.959018 
L 781.158347 325.439267 
L 781.773223 326.303335 
L 782.388099 327.546334 
L 783.617851 330.811165 
L 784.847603 334.110095 
L 785.462479 335.371774 
L 786.077355 336.210583 
L 786.692231 336.563197 
L 787.307107 336.431096 
L 787.921983 335.858798 
L 788.53686 334.940777 
L 791.61124 329.324004 
L 792.226116 328.801732 
L 792.840992 328.63205 
L 793.455868 328.802962 
L 794.070744 329.258958 
L 796.530248 331.882333 
L 797.145124 332.147703 
L 797.76 332.063932 
L 798.374876 331.583937 
L 798.989752 330.692846 
L 799.604628 329.417009 
L 800.83438 325.916902 
L 804.523636 313.700039 
L 805.753388 310.673868 
L 809.442645 302.893853 
L 810.672397 299.452142 
L 812.517025 293.310421 
L 814.361653 287.039425 
L 815.591405 283.41487 
L 816.821157 280.434779 
L 818.665785 276.835006 
L 820.510413 273.277447 
L 821.740165 270.479445 
L 826.044298 259.82566 
L 827.27405 257.791628 
L 828.503802 256.478177 
L 829.733554 255.731975 
L 834.037686 253.913998 
L 835.267438 253.297066 
L 836.49719 252.939078 
L 837.112066 252.933324 
L 837.726942 253.0706 
L 838.341818 253.359603 
L 839.57157 254.36705 
L 840.801322 255.80532 
L 844.490579 260.483063 
L 846.950083 263.334685 
L 848.179835 265.092602 
L 849.409587 267.249634 
L 851.254215 271.147041 
L 854.943471 279.28379 
L 859.247603 288.12068 
L 861.707107 294.064531 
L 864.781488 301.527209 
L 867.240992 306.689472 
L 874.619504 321.182232 
L 876.464132 324.137654 
L 878.30876 326.679874 
L 880.768264 329.719177 
L 883.227769 332.417986 
L 885.072397 334.039489 
L 886.302149 334.883915 
L 887.531901 335.516029 
L 889.376529 336.153995 
L 891.221157 336.514986 
L 892.450909 336.591925 
L 893.680661 336.497747 
L 894.910413 336.196797 
L 896.140165 335.673664 
L 897.369917 334.944463 
L 899.214545 333.549526 
L 901.67405 331.30452 
L 903.518678 329.359273 
L 905.363306 327.146512 
L 907.82281 323.806941 
L 918.275702 309.014839 
L 920.735207 305.903259 
L 923.194711 303.160571 
L 925.654215 300.764744 
L 928.113719 298.712836 
L 929.958347 297.449286 
L 931.802975 296.443909 
L 933.647603 295.640568 
L 935.492231 295.059509 
L 937.33686 294.713825 
L 939.181488 294.598001 
L 941.026116 294.699631 
L 942.870744 295.004792 
L 945.330248 295.685758 
L 948.404628 296.837734 
L 962.546777 302.534117 
L 965.006281 303.126954 
L 967.465785 303.462163 
L 969.310413 303.494346 
L 971.155041 303.311806 
L 972.999669 302.903281 
L 974.844298 302.209187 
L 976.688926 301.209669 
L 978.533554 299.905833 
L 980.378182 298.290227 
L 982.22281 296.343881 
L 984.067438 294.059861 
L 985.912066 291.46028 
L 988.37157 287.571408 
L 990.831074 283.261757 
L 993.290579 278.55828 
L 996.364959 272.186954 
L 1000.054215 264.000762 
L 1004.358347 253.922088 
L 1014.81124 228.582652 
L 1020.96 213.753062 
L 1025.264132 203.936383 
L 1028.953388 196.006154 
L 1032.027769 189.877399 
L 1035.102149 184.287212 
L 1037.561653 180.320364 
L 1039.406281 177.715231 
L 1041.250909 175.474978 
L 1043.095537 173.632287 
L 1044.940165 172.212769 
L 1046.169917 171.51237 
L 1047.399669 171.015231 
L 1048.629421 170.724868 
L 1049.859174 170.646625 
L 1051.088926 170.785417 
L 1052.318678 171.139707 
L 1053.54843 171.70402 
L 1054.778182 172.466844 
L 1056.62281 173.9782 
L 1058.467438 175.829946 
L 1060.926942 178.67137 
L 1063.386446 181.92114 
L 1065.84595 185.586393 
L 1068.920331 190.623818 
L 1074.454215 199.806125 
L 1081.832727 211.123127 
L 1084.292231 214.483533 
L 1087.366612 218.210113 
L 1089.826116 220.906132 
L 1091.670744 222.60476 
L 1093.515372 223.92214 
L 1094.745124 224.556677 
L 1095.974876 224.994925 
L 1097.819504 225.405564 
L 1099.664132 225.57231 
L 1101.50876 225.449499 
L 1102.738512 225.160714 
L 1103.968264 224.666254 
L 1105.198017 223.936908 
L 1106.427769 222.970758 
L 1108.272397 221.123355 
L 1110.117025 218.906475 
L 1112.576529 215.57605 
L 1118.725289 206.951517 
L 1120.569917 204.915076 
L 1121.799669 203.857457 
L 1123.029421 203.076169 
L 1124.259174 202.629676 
L 1125.488926 202.554327 
L 1126.718678 202.869987 
L 1127.94843 203.58725 
L 1129.178182 204.718897 
L 1130.407934 206.264429 
L 1131.637686 208.215477 
L 1132.867438 210.559644 
L 1134.09719 213.280814 
L 1135.941818 218.02233 
L 1137.786446 223.487123 
L 1139.631074 229.611783 
L 1142.090579 238.742015 
L 1144.550083 248.926956 
L 1147.009587 260.078388 
L 1150.083967 275.125042 
L 1153.773223 294.383406 
L 1158.692231 321.374923 
L 1165.455868 358.658494 
L 1169.76 380.929117 
L 1173.449256 398.903824 
L 1176.523636 412.776221 
L 1178.98314 422.954677 
L 1181.442645 432.196599 
L 1183.287273 438.446856 
L 1185.131901 444.074962 
L 1186.976529 449.096975 
L 1188.821157 453.465814 
L 1190.665785 457.137332 
L 1191.895537 459.180366 
L 1193.125289 460.888616 
L 1194.355041 462.252546 
L 1195.584793 463.263078 
L 1196.814545 463.913267 
L 1198.044298 464.199297 
L 1199.27405 464.120632 
L 1200.503802 463.67923 
L 1201.733554 462.87928 
L 1202.963306 461.727319 
L 1204.193058 460.232198 
L 1205.42281 458.405225 
L 1206.652562 456.25782 
L 1208.49719 452.478393 
L 1210.341818 448.072422 
L 1215.875702 433.884042 
L 1217.720331 430.03867 
L 1222.024463 421.494581 
L 1222.024463 421.494581 
" style="fill:none;stroke:#e50000;stroke-linecap:square;stroke-width:1.5;"/>
   </g>
   <g id="line2d_38">
    <path clip-path="url(#pe9af3d9fcc)" d="M 779.313719 121.296088 
L 784.232727 121.420018 
L 789.151736 121.791656 
L 794.070744 122.410551 
L 798.989752 123.275947 
L 803.90876 124.386791 
L 808.827769 125.74173 
L 813.746777 127.339111 
L 818.665785 129.17699 
L 823.584793 131.253127 
L 828.503802 133.564993 
L 833.42281 136.109771 
L 838.341818 138.88436 
L 843.875702 142.27625 
L 849.409587 145.949478 
L 854.943471 149.898382 
L 860.477355 154.116873 
L 866.01124 158.598445 
L 872.16 163.878104 
L 878.30876 169.463965 
L 884.457521 175.345394 
L 891.221157 182.142969 
L 897.984793 189.268967 
L 904.74843 196.706976 
L 912.126942 205.156866 
L 919.505455 213.934512 
L 927.498843 223.785569 
L 936.107107 234.756619 
L 945.330248 246.882685 
L 955.168264 260.183313 
L 966.236033 275.519147 
L 979.763306 294.665347 
L 999.439339 322.960303 
L 1025.879008 360.936378 
L 1039.406281 379.957345 
L 1050.47405 395.14952 
L 1060.312066 408.292079 
L 1069.535207 420.244704 
L 1078.143471 431.032492 
L 1086.13686 440.695504 
L 1093.515372 449.284826 
L 1100.893884 457.532768 
L 1107.657521 464.774163 
L 1114.421157 471.693016 
L 1121.184793 478.273394 
L 1127.333554 483.949068 
L 1133.482314 489.321669 
L 1139.631074 494.380972 
L 1145.164959 498.658502 
L 1150.698843 502.667855 
L 1156.232727 506.402849 
L 1161.766612 509.857726 
L 1167.300496 513.027158 
L 1172.219504 515.600838 
L 1177.138512 517.941977 
L 1182.057521 520.047725 
L 1186.976529 521.915514 
L 1191.895537 523.543071 
L 1196.814545 524.928411 
L 1201.733554 526.069847 
L 1206.652562 526.965988 
L 1211.57157 527.615743 
L 1216.490579 528.018319 
L 1221.409587 528.173227 
L 1221.409587 528.173227 
" style="fill:none;stroke:#014d4e;stroke-linecap:square;stroke-width:1.5;"/>
   </g>
   <g id="line2d_39">
    <path clip-path="url(#pe9af3d9fcc)" d="M 779.313719 121.247976 
L 779.928595 121.074632 
L 780.543471 120.600192 
L 781.158347 119.745807 
L 781.773223 118.516365 
L 783.002975 115.290262 
L 784.232727 112.045549 
L 784.847603 110.816784 
L 785.462479 110.01476 
L 786.077355 109.7028 
L 786.692231 109.879425 
L 787.307107 110.500113 
L 787.921983 111.470392 
L 790.996364 117.406422 
L 791.61124 118.00413 
L 792.226116 118.253107 
L 792.840992 118.165347 
L 793.455868 117.796357 
L 795.915372 115.55953 
L 796.530248 115.400418 
L 797.145124 115.59429 
L 797.76 116.18823 
L 798.374876 117.197105 
L 798.989752 118.594564 
L 800.219504 122.349419 
L 803.90876 135.422378 
L 805.138512 138.764459 
L 808.827769 147.583503 
L 810.057521 151.401901 
L 811.902149 158.137004 
L 814.361653 167.142911 
L 815.591405 170.889754 
L 816.821157 174.039721 
L 820.510413 182.734425 
L 822.355041 188.114366 
L 824.814545 195.432769 
L 826.044298 198.398585 
L 827.27405 200.650738 
L 828.503802 202.250431 
L 829.733554 203.430869 
L 832.193058 205.640787 
L 835.267438 208.789444 
L 836.49719 209.619469 
L 837.112066 209.834373 
L 837.726942 209.901104 
L 838.341818 209.82329 
L 839.57157 209.302506 
L 841.416198 208.03748 
L 843.260826 206.850054 
L 846.950083 204.850002 
L 848.179835 203.72557 
L 849.409587 202.209071 
L 851.254215 199.427231 
L 853.713719 195.724906 
L 856.173223 192.588373 
L 858.017851 190.186962 
L 859.862479 187.358966 
L 864.166612 180.284191 
L 866.01124 177.878884 
L 871.545124 171.541911 
L 873.389752 169.619123 
L 874.619504 168.590114 
L 875.849256 167.791515 
L 877.693884 166.94765 
L 879.538512 166.367381 
L 881.38314 165.97757 
L 882.612893 165.868226 
L 883.842645 165.936806 
L 885.072397 166.194788 
L 886.302149 166.676804 
L 887.531901 167.364909 
L 889.376529 168.687824 
L 891.221157 170.306302 
L 893.065785 172.292408 
L 894.910413 174.763117 
L 896.755041 177.740796 
L 899.214545 182.31009 
L 901.67405 187.340684 
L 904.133554 192.838504 
L 906.593058 198.849243 
L 913.356694 216.349002 
L 919.505455 232.0221 
L 922.579835 239.257963 
L 925.654215 246.000666 
L 928.728595 252.225066 
L 931.188099 256.735408 
L 934.262479 261.884418 
L 936.721983 265.575403 
L 939.181488 268.885639 
L 941.640992 271.843307 
L 944.100496 274.490911 
L 947.789752 278.072677 
L 959.472397 289.129532 
L 962.546777 292.399993 
L 965.621157 296.063254 
L 968.080661 299.334817 
L 970.540165 302.994118 
L 972.999669 307.07669 
L 975.459174 311.693701 
L 977.918678 316.864025 
L 980.378182 322.600133 
L 982.837686 328.939355 
L 985.29719 335.863145 
L 988.37157 345.208388 
L 991.44595 355.207907 
L 995.135207 367.98499 
L 1000.054215 385.991989 
L 1006.202975 409.456259 
L 1023.419504 475.48329 
L 1028.338512 493.154182 
L 1032.027769 505.657845 
L 1035.102149 515.439672 
L 1038.176529 524.437244 
L 1040.636033 530.924558 
L 1043.095537 536.688581 
L 1044.940165 540.500043 
L 1046.784793 543.849517 
L 1048.629421 546.721992 
L 1050.47405 549.099729 
L 1052.318678 550.981359 
L 1053.54843 551.970433 
L 1054.778182 552.752631 
L 1056.62281 553.583435 
L 1058.467438 554.087764 
L 1060.312066 554.356335 
L 1062.156694 554.379671 
L 1064.001322 554.149371 
L 1065.84595 553.684846 
L 1068.305455 552.785358 
L 1073.224463 550.8101 
L 1080.602975 548.55431 
L 1082.447603 548.161711 
L 1084.292231 547.969562 
L 1086.751736 547.949264 
L 1088.596364 548.058764 
L 1090.440992 548.405471 
L 1091.670744 548.813708 
L 1092.900496 549.395256 
L 1094.130248 550.16446 
L 1095.974876 551.649013 
L 1098.43438 554.013807 
L 1100.279008 556.067613 
L 1102.123636 558.447545 
L 1103.968264 561.267301 
L 1105.812893 564.595404 
L 1107.657521 568.386433 
L 1110.117025 573.957009 
L 1114.421157 584.410932 
L 1117.495537 591.735151 
L 1119.340165 595.710148 
L 1121.184793 599.151563 
L 1122.414545 601.091721 
L 1123.644298 602.685303 
L 1124.87405 603.895873 
L 1126.103802 604.70348 
L 1127.333554 605.097444 
L 1128.563306 605.064899 
L 1129.793058 604.606259 
L 1131.02281 603.729814 
L 1132.252562 602.447876 
L 1133.482314 600.776481 
L 1134.712066 598.736812 
L 1135.941818 596.351992 
L 1137.786446 592.174534 
L 1139.631074 587.323822 
L 1141.475702 581.829825 
L 1143.320331 575.712387 
L 1145.779835 566.645013 
L 1148.239339 556.675792 
L 1151.313719 543.220158 
L 1155.002975 525.957651 
L 1160.53686 498.739773 
L 1165.455868 474.822586 
L 1169.76 455.07567 
L 1173.449256 439.172351 
L 1176.523636 426.995378 
L 1178.98314 418.137343 
L 1181.442645 410.185293 
L 1183.287273 404.881017 
L 1185.131901 400.16016 
L 1186.976529 396.022915 
L 1188.821157 392.520761 
L 1190.050909 390.559316 
L 1191.280661 388.908094 
L 1192.510413 387.576532 
L 1193.740165 386.574134 
L 1194.969917 385.909954 
L 1196.199669 385.590909 
L 1197.429421 385.620789 
L 1198.659174 386.000106 
L 1199.888926 386.726881 
L 1201.118678 387.796902 
L 1202.34843 389.203611 
L 1203.578182 390.938138 
L 1204.807934 392.989157 
L 1206.652562 396.631715 
L 1208.49719 400.893726 
L 1210.341818 405.739569 
L 1214.031074 415.82156 
L 1215.875702 420.170447 
L 1218.335207 425.188945 
L 1221.409587 431.414272 
L 1221.409587 431.414272 
" style="fill:none;stroke:#ffff14;stroke-linecap:square;stroke-width:1.5;"/>
   </g>
   <g id="patch_8">
    <path d="M 757.178182 629.9064 
L 757.178182 84.9312 
" style="fill:none;stroke:#000000;stroke-linecap:square;stroke-linejoin:miter;stroke-width:0.8;"/>
   </g>
   <g id="patch_9">
    <path d="M 1244.16 629.9064 
L 1244.16 84.9312 
" style="fill:none;stroke:#000000;stroke-linecap:square;stroke-linejoin:miter;stroke-width:0.8;"/>
   </g>
   <g id="patch_10">
    <path d="M 757.178182 629.9064 
L 1244.16 629.9064 
" style="fill:none;stroke:#000000;stroke-linecap:square;stroke-linejoin:miter;stroke-width:0.8;"/>
   </g>
   <g id="patch_11">
    <path d="M 757.178182 84.9312 
L 1244.16 84.9312 
" style="fill:none;stroke:#000000;stroke-linecap:square;stroke-linejoin:miter;stroke-width:0.8;"/>
   </g>
   <g id="text_33">
    <!-- Left abduction -->
    <defs>
     <path d="M 9.8125 72.90625 
L 19.671875 72.90625 
L 19.671875 8.296875 
L 55.171875 8.296875 
L 55.171875 0 
L 9.8125 0 
z
" id="DejaVuSans-76"/>
     <path d="M 56.203125 29.59375 
L 56.203125 25.203125 
L 14.890625 25.203125 
Q 15.484375 15.921875 20.484375 11.0625 
Q 25.484375 6.203125 34.421875 6.203125 
Q 39.59375 6.203125 44.453125 7.46875 
Q 49.3125 8.734375 54.109375 11.28125 
L 54.109375 2.78125 
Q 49.265625 0.734375 44.1875 -0.34375 
Q 39.109375 -1.421875 33.890625 -1.421875 
Q 20.796875 -1.421875 13.15625 6.1875 
Q 5.515625 13.8125 5.515625 26.8125 
Q 5.515625 40.234375 12.765625 48.109375 
Q 20.015625 56 32.328125 56 
Q 43.359375 56 49.78125 48.890625 
Q 56.203125 41.796875 56.203125 29.59375 
z
M 47.21875 32.234375 
Q 47.125 39.59375 43.09375 43.984375 
Q 39.0625 48.390625 32.421875 48.390625 
Q 24.90625 48.390625 20.390625 44.140625 
Q 15.875 39.890625 15.1875 32.171875 
z
" id="DejaVuSans-101"/>
     <path d="M 37.109375 75.984375 
L 37.109375 68.5 
L 28.515625 68.5 
Q 23.6875 68.5 21.796875 66.546875 
Q 19.921875 64.59375 19.921875 59.515625 
L 19.921875 54.6875 
L 34.71875 54.6875 
L 34.71875 47.703125 
L 19.921875 47.703125 
L 19.921875 0 
L 10.890625 0 
L 10.890625 47.703125 
L 2.296875 47.703125 
L 2.296875 54.6875 
L 10.890625 54.6875 
L 10.890625 58.5 
Q 10.890625 67.625 15.140625 71.796875 
Q 19.390625 75.984375 28.609375 75.984375 
z
" id="DejaVuSans-102"/>
    </defs>
    <g transform="translate(957.375341 78.9312)scale(0.12 -0.12)">
     <use xlink:href="#DejaVuSans-76"/>
     <use x="55.697266" xlink:href="#DejaVuSans-101"/>
     <use x="117.220703" xlink:href="#DejaVuSans-102"/>
     <use x="152.410156" xlink:href="#DejaVuSans-116"/>
     <use x="191.619141" xlink:href="#DejaVuSans-32"/>
     <use x="223.40625" xlink:href="#DejaVuSans-97"/>
     <use x="284.685547" xlink:href="#DejaVuSans-98"/>
     <use x="348.162109" xlink:href="#DejaVuSans-100"/>
     <use x="411.638672" xlink:href="#DejaVuSans-117"/>
     <use x="475.017578" xlink:href="#DejaVuSans-99"/>
     <use x="529.998047" xlink:href="#DejaVuSans-116"/>
     <use x="569.207031" xlink:href="#DejaVuSans-105"/>
     <use x="596.990234" xlink:href="#DejaVuSans-111"/>
     <use x="658.171875" xlink:href="#DejaVuSans-110"/>
    </g>
   </g>
  </g>
 </g>
 <defs>
  <clipPath id="p4e4027a91d">
   <rect height="544.9752" width="486.981818" x="172.8" y="84.9312"/>
  </clipPath>
  <clipPath id="pe9af3d9fcc">
   <rect height="544.9752" width="486.981818" x="757.178182" y="84.9312"/>
  </clipPath>
 </defs>
</svg>
