<?xml version="1.0" encoding="utf-8" standalone="no"?>
<!DOCTYPE svg PUBLIC "-//W3C//DTD SVG 1.1//EN"
  "http://www.w3.org/Graphics/SVG/1.1/DTD/svg11.dtd">
<!-- Created with matplotlib (https://matplotlib.org/) -->
<svg height="707.76pt" version="1.1" viewBox="0 0 1382.4 707.76" width="1382.4pt" xmlns="http://www.w3.org/2000/svg" xmlns:xlink="http://www.w3.org/1999/xlink">
 <defs>
  <style type="text/css">
*{stroke-linecap:butt;stroke-linejoin:round;}
  </style>
 </defs>
 <g id="figure_1">
  <g id="patch_1">
   <path d="M 0 707.76 
L 1382.4 707.76 
L 1382.4 0 
L 0 0 
z
" style="fill:#ffffff;"/>
  </g>
  <g id="axes_1">
   <g id="patch_2">
    <path d="M 172.8 629.9064 
L 659.781818 629.9064 
L 659.781818 84.9312 
L 172.8 84.9312 
z
" style="fill:#ffffff;"/>
   </g>
   <g id="matplotlib.axis_1">
    <g id="xtick_1">
     <g id="line2d_1">
      <defs>
       <path d="M 0 0 
L 0 3.5 
" id="m21b262b85d" style="stroke:#000000;stroke-width:0.8;"/>
      </defs>
      <g>
       <use style="stroke:#000000;stroke-width:0.8;" x="194.935537" xlink:href="#m21b262b85d" y="629.9064"/>
      </g>
     </g>
     <g id="text_1">
      <!-- 0 -->
      <defs>
       <path d="M 31.78125 66.40625 
Q 24.171875 66.40625 20.328125 58.90625 
Q 16.5 51.421875 16.5 36.375 
Q 16.5 21.390625 20.328125 13.890625 
Q 24.171875 6.390625 31.78125 6.390625 
Q 39.453125 6.390625 43.28125 13.890625 
Q 47.125 21.390625 47.125 36.375 
Q 47.125 51.421875 43.28125 58.90625 
Q 39.453125 66.40625 31.78125 66.40625 
z
M 31.78125 74.21875 
Q 44.046875 74.21875 50.515625 64.515625 
Q 56.984375 54.828125 56.984375 36.375 
Q 56.984375 17.96875 50.515625 8.265625 
Q 44.046875 -1.421875 31.78125 -1.421875 
Q 19.53125 -1.421875 13.0625 8.265625 
Q 6.59375 17.96875 6.59375 36.375 
Q 6.59375 54.828125 13.0625 64.515625 
Q 19.53125 74.21875 31.78125 74.21875 
z
" id="DejaVuSans-48"/>
      </defs>
      <g transform="translate(191.754287 644.504838)scale(0.1 -0.1)">
       <use xlink:href="#DejaVuSans-48"/>
      </g>
     </g>
    </g>
    <g id="xtick_2">
     <g id="line2d_2">
      <g>
       <use style="stroke:#000000;stroke-width:0.8;" x="256.42314" xlink:href="#m21b262b85d" y="629.9064"/>
      </g>
     </g>
     <g id="text_2">
      <!-- 100 -->
      <defs>
       <path d="M 12.40625 8.296875 
L 28.515625 8.296875 
L 28.515625 63.921875 
L 10.984375 60.40625 
L 10.984375 69.390625 
L 28.421875 72.90625 
L 38.28125 72.90625 
L 38.28125 8.296875 
L 54.390625 8.296875 
L 54.390625 0 
L 12.40625 0 
z
" id="DejaVuSans-49"/>
      </defs>
      <g transform="translate(246.87939 644.504838)scale(0.1 -0.1)">
       <use xlink:href="#DejaVuSans-49"/>
       <use x="63.623047" xlink:href="#DejaVuSans-48"/>
       <use x="127.246094" xlink:href="#DejaVuSans-48"/>
      </g>
     </g>
    </g>
    <g id="xtick_3">
     <g id="line2d_3">
      <g>
       <use style="stroke:#000000;stroke-width:0.8;" x="317.910744" xlink:href="#m21b262b85d" y="629.9064"/>
      </g>
     </g>
     <g id="text_3">
      <!-- 200 -->
      <defs>
       <path d="M 19.1875 8.296875 
L 53.609375 8.296875 
L 53.609375 0 
L 7.328125 0 
L 7.328125 8.296875 
Q 12.9375 14.109375 22.625 23.890625 
Q 32.328125 33.6875 34.8125 36.53125 
Q 39.546875 41.84375 41.421875 45.53125 
Q 43.3125 49.21875 43.3125 52.78125 
Q 43.3125 58.59375 39.234375 62.25 
Q 35.15625 65.921875 28.609375 65.921875 
Q 23.96875 65.921875 18.8125 64.3125 
Q 13.671875 62.703125 7.8125 59.421875 
L 7.8125 69.390625 
Q 13.765625 71.78125 18.9375 73 
Q 24.125 74.21875 28.421875 74.21875 
Q 39.75 74.21875 46.484375 68.546875 
Q 53.21875 62.890625 53.21875 53.421875 
Q 53.21875 48.921875 51.53125 44.890625 
Q 49.859375 40.875 45.40625 35.40625 
Q 44.1875 33.984375 37.640625 27.21875 
Q 31.109375 20.453125 19.1875 8.296875 
z
" id="DejaVuSans-50"/>
      </defs>
      <g transform="translate(308.366994 644.504838)scale(0.1 -0.1)">
       <use xlink:href="#DejaVuSans-50"/>
       <use x="63.623047" xlink:href="#DejaVuSans-48"/>
       <use x="127.246094" xlink:href="#DejaVuSans-48"/>
      </g>
     </g>
    </g>
    <g id="xtick_4">
     <g id="line2d_4">
      <g>
       <use style="stroke:#000000;stroke-width:0.8;" x="379.398347" xlink:href="#m21b262b85d" y="629.9064"/>
      </g>
     </g>
     <g id="text_4">
      <!-- 300 -->
      <defs>
       <path d="M 40.578125 39.3125 
Q 47.65625 37.796875 51.625 33 
Q 55.609375 28.21875 55.609375 21.1875 
Q 55.609375 10.40625 48.1875 4.484375 
Q 40.765625 -1.421875 27.09375 -1.421875 
Q 22.515625 -1.421875 17.65625 -0.515625 
Q 12.796875 0.390625 7.625 2.203125 
L 7.625 11.71875 
Q 11.71875 9.328125 16.59375 8.109375 
Q 21.484375 6.890625 26.8125 6.890625 
Q 36.078125 6.890625 40.9375 10.546875 
Q 45.796875 14.203125 45.796875 21.1875 
Q 45.796875 27.640625 41.28125 31.265625 
Q 36.765625 34.90625 28.71875 34.90625 
L 20.21875 34.90625 
L 20.21875 43.015625 
L 29.109375 43.015625 
Q 36.375 43.015625 40.234375 45.921875 
Q 44.09375 48.828125 44.09375 54.296875 
Q 44.09375 59.90625 40.109375 62.90625 
Q 36.140625 65.921875 28.71875 65.921875 
Q 24.65625 65.921875 20.015625 65.03125 
Q 15.375 64.15625 9.8125 62.3125 
L 9.8125 71.09375 
Q 15.4375 72.65625 20.34375 73.4375 
Q 25.25 74.21875 29.59375 74.21875 
Q 40.828125 74.21875 47.359375 69.109375 
Q 53.90625 64.015625 53.90625 55.328125 
Q 53.90625 49.265625 50.4375 45.09375 
Q 46.96875 40.921875 40.578125 39.3125 
z
" id="DejaVuSans-51"/>
      </defs>
      <g transform="translate(369.854597 644.504838)scale(0.1 -0.1)">
       <use xlink:href="#DejaVuSans-51"/>
       <use x="63.623047" xlink:href="#DejaVuSans-48"/>
       <use x="127.246094" xlink:href="#DejaVuSans-48"/>
      </g>
     </g>
    </g>
    <g id="xtick_5">
     <g id="line2d_5">
      <g>
       <use style="stroke:#000000;stroke-width:0.8;" x="440.88595" xlink:href="#m21b262b85d" y="629.9064"/>
      </g>
     </g>
     <g id="text_5">
      <!-- 400 -->
      <defs>
       <path d="M 37.796875 64.3125 
L 12.890625 25.390625 
L 37.796875 25.390625 
z
M 35.203125 72.90625 
L 47.609375 72.90625 
L 47.609375 25.390625 
L 58.015625 25.390625 
L 58.015625 17.1875 
L 47.609375 17.1875 
L 47.609375 0 
L 37.796875 0 
L 37.796875 17.1875 
L 4.890625 17.1875 
L 4.890625 26.703125 
z
" id="DejaVuSans-52"/>
      </defs>
      <g transform="translate(431.3422 644.504838)scale(0.1 -0.1)">
       <use xlink:href="#DejaVuSans-52"/>
       <use x="63.623047" xlink:href="#DejaVuSans-48"/>
       <use x="127.246094" xlink:href="#DejaVuSans-48"/>
      </g>
     </g>
    </g>
    <g id="xtick_6">
     <g id="line2d_6">
      <g>
       <use style="stroke:#000000;stroke-width:0.8;" x="502.373554" xlink:href="#m21b262b85d" y="629.9064"/>
      </g>
     </g>
     <g id="text_6">
      <!-- 500 -->
      <defs>
       <path d="M 10.796875 72.90625 
L 49.515625 72.90625 
L 49.515625 64.59375 
L 19.828125 64.59375 
L 19.828125 46.734375 
Q 21.96875 47.46875 24.109375 47.828125 
Q 26.265625 48.1875 28.421875 48.1875 
Q 40.625 48.1875 47.75 41.5 
Q 54.890625 34.8125 54.890625 23.390625 
Q 54.890625 11.625 47.5625 5.09375 
Q 40.234375 -1.421875 26.90625 -1.421875 
Q 22.3125 -1.421875 17.546875 -0.640625 
Q 12.796875 0.140625 7.71875 1.703125 
L 7.71875 11.625 
Q 12.109375 9.234375 16.796875 8.0625 
Q 21.484375 6.890625 26.703125 6.890625 
Q 35.15625 6.890625 40.078125 11.328125 
Q 45.015625 15.765625 45.015625 23.390625 
Q 45.015625 31 40.078125 35.4375 
Q 35.15625 39.890625 26.703125 39.890625 
Q 22.75 39.890625 18.8125 39.015625 
Q 14.890625 38.140625 10.796875 36.28125 
z
" id="DejaVuSans-53"/>
      </defs>
      <g transform="translate(492.829804 644.504838)scale(0.1 -0.1)">
       <use xlink:href="#DejaVuSans-53"/>
       <use x="63.623047" xlink:href="#DejaVuSans-48"/>
       <use x="127.246094" xlink:href="#DejaVuSans-48"/>
      </g>
     </g>
    </g>
    <g id="xtick_7">
     <g id="line2d_7">
      <g>
       <use style="stroke:#000000;stroke-width:0.8;" x="563.861157" xlink:href="#m21b262b85d" y="629.9064"/>
      </g>
     </g>
     <g id="text_7">
      <!-- 600 -->
      <defs>
       <path d="M 33.015625 40.375 
Q 26.375 40.375 22.484375 35.828125 
Q 18.609375 31.296875 18.609375 23.390625 
Q 18.609375 15.53125 22.484375 10.953125 
Q 26.375 6.390625 33.015625 6.390625 
Q 39.65625 6.390625 43.53125 10.953125 
Q 47.40625 15.53125 47.40625 23.390625 
Q 47.40625 31.296875 43.53125 35.828125 
Q 39.65625 40.375 33.015625 40.375 
z
M 52.59375 71.296875 
L 52.59375 62.3125 
Q 48.875 64.0625 45.09375 64.984375 
Q 41.3125 65.921875 37.59375 65.921875 
Q 27.828125 65.921875 22.671875 59.328125 
Q 17.53125 52.734375 16.796875 39.40625 
Q 19.671875 43.65625 24.015625 45.921875 
Q 28.375 48.1875 33.59375 48.1875 
Q 44.578125 48.1875 50.953125 41.515625 
Q 57.328125 34.859375 57.328125 23.390625 
Q 57.328125 12.15625 50.6875 5.359375 
Q 44.046875 -1.421875 33.015625 -1.421875 
Q 20.359375 -1.421875 13.671875 8.265625 
Q 6.984375 17.96875 6.984375 36.375 
Q 6.984375 53.65625 15.1875 63.9375 
Q 23.390625 74.21875 37.203125 74.21875 
Q 40.921875 74.21875 44.703125 73.484375 
Q 48.484375 72.75 52.59375 71.296875 
z
" id="DejaVuSans-54"/>
      </defs>
      <g transform="translate(554.317407 644.504838)scale(0.1 -0.1)">
       <use xlink:href="#DejaVuSans-54"/>
       <use x="63.623047" xlink:href="#DejaVuSans-48"/>
       <use x="127.246094" xlink:href="#DejaVuSans-48"/>
      </g>
     </g>
    </g>
    <g id="xtick_8">
     <g id="line2d_8">
      <g>
       <use style="stroke:#000000;stroke-width:0.8;" x="625.34876" xlink:href="#m21b262b85d" y="629.9064"/>
      </g>
     </g>
     <g id="text_8">
      <!-- 700 -->
      <defs>
       <path d="M 8.203125 72.90625 
L 55.078125 72.90625 
L 55.078125 68.703125 
L 28.609375 0 
L 18.3125 0 
L 43.21875 64.59375 
L 8.203125 64.59375 
z
" id="DejaVuSans-55"/>
      </defs>
      <g transform="translate(615.80501 644.504838)scale(0.1 -0.1)">
       <use xlink:href="#DejaVuSans-55"/>
       <use x="63.623047" xlink:href="#DejaVuSans-48"/>
       <use x="127.246094" xlink:href="#DejaVuSans-48"/>
      </g>
     </g>
    </g>
   </g>
   <g id="matplotlib.axis_2">
    <g id="ytick_1">
     <g id="line2d_9">
      <defs>
       <path d="M 0 0 
L -3.5 0 
" id="m23107144ef" style="stroke:#000000;stroke-width:0.8;"/>
      </defs>
      <g>
       <use style="stroke:#000000;stroke-width:0.8;" x="172.8" xlink:href="#m23107144ef" y="597.459781"/>
      </g>
     </g>
     <g id="text_9">
      <!-- −0.8 -->
      <defs>
       <path d="M 10.59375 35.5 
L 73.1875 35.5 
L 73.1875 27.203125 
L 10.59375 27.203125 
z
" id="DejaVuSans-8722"/>
       <path d="M 10.6875 12.40625 
L 21 12.40625 
L 21 0 
L 10.6875 0 
z
" id="DejaVuSans-46"/>
       <path d="M 31.78125 34.625 
Q 24.75 34.625 20.71875 30.859375 
Q 16.703125 27.09375 16.703125 20.515625 
Q 16.703125 13.921875 20.71875 10.15625 
Q 24.75 6.390625 31.78125 6.390625 
Q 38.8125 6.390625 42.859375 10.171875 
Q 46.921875 13.96875 46.921875 20.515625 
Q 46.921875 27.09375 42.890625 30.859375 
Q 38.875 34.625 31.78125 34.625 
z
M 21.921875 38.8125 
Q 15.578125 40.375 12.03125 44.71875 
Q 8.5 49.078125 8.5 55.328125 
Q 8.5 64.0625 14.71875 69.140625 
Q 20.953125 74.21875 31.78125 74.21875 
Q 42.671875 74.21875 48.875 69.140625 
Q 55.078125 64.0625 55.078125 55.328125 
Q 55.078125 49.078125 51.53125 44.71875 
Q 48 40.375 41.703125 38.8125 
Q 48.828125 37.15625 52.796875 32.3125 
Q 56.78125 27.484375 56.78125 20.515625 
Q 56.78125 9.90625 50.3125 4.234375 
Q 43.84375 -1.421875 31.78125 -1.421875 
Q 19.734375 -1.421875 13.25 4.234375 
Q 6.78125 9.90625 6.78125 20.515625 
Q 6.78125 27.484375 10.78125 32.3125 
Q 14.796875 37.15625 21.921875 38.8125 
z
M 18.3125 54.390625 
Q 18.3125 48.734375 21.84375 45.5625 
Q 25.390625 42.390625 31.78125 42.390625 
Q 38.140625 42.390625 41.71875 45.5625 
Q 45.3125 48.734375 45.3125 54.390625 
Q 45.3125 60.0625 41.71875 63.234375 
Q 38.140625 66.40625 31.78125 66.40625 
Q 25.390625 66.40625 21.84375 63.234375 
Q 18.3125 60.0625 18.3125 54.390625 
z
" id="DejaVuSans-56"/>
      </defs>
      <g transform="translate(141.517187 601.258999)scale(0.1 -0.1)">
       <use xlink:href="#DejaVuSans-8722"/>
       <use x="83.789062" xlink:href="#DejaVuSans-48"/>
       <use x="147.412109" xlink:href="#DejaVuSans-46"/>
       <use x="179.199219" xlink:href="#DejaVuSans-56"/>
      </g>
     </g>
    </g>
    <g id="ytick_2">
     <g id="line2d_10">
      <g>
       <use style="stroke:#000000;stroke-width:0.8;" x="172.8" xlink:href="#m23107144ef" y="530.291394"/>
      </g>
     </g>
     <g id="text_10">
      <!-- −0.6 -->
      <g transform="translate(141.517187 534.090613)scale(0.1 -0.1)">
       <use xlink:href="#DejaVuSans-8722"/>
       <use x="83.789062" xlink:href="#DejaVuSans-48"/>
       <use x="147.412109" xlink:href="#DejaVuSans-46"/>
       <use x="179.199219" xlink:href="#DejaVuSans-54"/>
      </g>
     </g>
    </g>
    <g id="ytick_3">
     <g id="line2d_11">
      <g>
       <use style="stroke:#000000;stroke-width:0.8;" x="172.8" xlink:href="#m23107144ef" y="463.123008"/>
      </g>
     </g>
     <g id="text_11">
      <!-- −0.4 -->
      <g transform="translate(141.517187 466.922227)scale(0.1 -0.1)">
       <use xlink:href="#DejaVuSans-8722"/>
       <use x="83.789062" xlink:href="#DejaVuSans-48"/>
       <use x="147.412109" xlink:href="#DejaVuSans-46"/>
       <use x="179.199219" xlink:href="#DejaVuSans-52"/>
      </g>
     </g>
    </g>
    <g id="ytick_4">
     <g id="line2d_12">
      <g>
       <use style="stroke:#000000;stroke-width:0.8;" x="172.8" xlink:href="#m23107144ef" y="395.954622"/>
      </g>
     </g>
     <g id="text_12">
      <!-- −0.2 -->
      <g transform="translate(141.517187 399.753841)scale(0.1 -0.1)">
       <use xlink:href="#DejaVuSans-8722"/>
       <use x="83.789062" xlink:href="#DejaVuSans-48"/>
       <use x="147.412109" xlink:href="#DejaVuSans-46"/>
       <use x="179.199219" xlink:href="#DejaVuSans-50"/>
      </g>
     </g>
    </g>
    <g id="ytick_5">
     <g id="line2d_13">
      <g>
       <use style="stroke:#000000;stroke-width:0.8;" x="172.8" xlink:href="#m23107144ef" y="328.786236"/>
      </g>
     </g>
     <g id="text_13">
      <!-- 0.0 -->
      <g transform="translate(149.896875 332.585455)scale(0.1 -0.1)">
       <use xlink:href="#DejaVuSans-48"/>
       <use x="63.623047" xlink:href="#DejaVuSans-46"/>
       <use x="95.410156" xlink:href="#DejaVuSans-48"/>
      </g>
     </g>
    </g>
    <g id="ytick_6">
     <g id="line2d_14">
      <g>
       <use style="stroke:#000000;stroke-width:0.8;" x="172.8" xlink:href="#m23107144ef" y="261.61785"/>
      </g>
     </g>
     <g id="text_14">
      <!-- 0.2 -->
      <g transform="translate(149.896875 265.417069)scale(0.1 -0.1)">
       <use xlink:href="#DejaVuSans-48"/>
       <use x="63.623047" xlink:href="#DejaVuSans-46"/>
       <use x="95.410156" xlink:href="#DejaVuSans-50"/>
      </g>
     </g>
    </g>
    <g id="ytick_7">
     <g id="line2d_15">
      <g>
       <use style="stroke:#000000;stroke-width:0.8;" x="172.8" xlink:href="#m23107144ef" y="194.449464"/>
      </g>
     </g>
     <g id="text_15">
      <!-- 0.4 -->
      <g transform="translate(149.896875 198.248682)scale(0.1 -0.1)">
       <use xlink:href="#DejaVuSans-48"/>
       <use x="63.623047" xlink:href="#DejaVuSans-46"/>
       <use x="95.410156" xlink:href="#DejaVuSans-52"/>
      </g>
     </g>
    </g>
    <g id="ytick_8">
     <g id="line2d_16">
      <g>
       <use style="stroke:#000000;stroke-width:0.8;" x="172.8" xlink:href="#m23107144ef" y="127.281078"/>
      </g>
     </g>
     <g id="text_16">
      <!-- 0.6 -->
      <g transform="translate(149.896875 131.080296)scale(0.1 -0.1)">
       <use xlink:href="#DejaVuSans-48"/>
       <use x="63.623047" xlink:href="#DejaVuSans-46"/>
       <use x="95.410156" xlink:href="#DejaVuSans-54"/>
      </g>
     </g>
    </g>
   </g>
   <g id="line2d_17">
    <path clip-path="url(#peaccd73b45)" d="M 194.935537 326.847195 
L 195.550413 325.509108 
L 196.165289 325.134027 
L 196.780165 325.710779 
L 198.009917 328.082653 
L 198.624793 328.789029 
L 199.239669 328.699739 
L 199.854545 327.863845 
L 201.084298 325.53244 
L 201.699174 325.008991 
L 202.31405 325.292352 
L 202.928926 326.302595 
L 204.158678 328.97307 
L 204.773554 329.736952 
L 205.38843 329.77582 
L 206.003306 329.168527 
L 207.233058 327.404676 
L 207.847934 327.035035 
L 208.46281 327.285981 
L 209.077686 328.059599 
L 210.307438 329.880562 
L 210.922314 330.231492 
L 211.53719 329.992035 
L 212.152066 329.278694 
L 213.381818 327.684745 
L 213.996694 327.438467 
L 214.61157 327.747325 
L 216.456198 330.150575 
L 217.071074 330.485917 
L 217.68595 330.337308 
L 219.530579 328.769228 
L 220.145455 328.725468 
L 220.760331 329.126789 
L 222.604959 331.259929 
L 223.219835 331.474198 
L 223.834711 331.25835 
L 225.679339 329.701148 
L 226.294215 329.61492 
L 226.909091 329.903195 
L 228.753719 331.433671 
L 229.368595 331.49773 
L 229.983471 331.206526 
L 231.828099 329.752997 
L 232.442975 329.690098 
L 233.057851 329.949371 
L 234.287603 330.902677 
L 234.902479 331.210834 
L 235.517355 331.223047 
L 236.132231 330.936278 
L 237.361983 329.986706 
L 237.97686 329.680609 
L 238.591736 329.650675 
L 239.206612 329.890095 
L 240.436364 330.659048 
L 241.05124 330.856299 
L 241.666116 330.787398 
L 242.280992 330.467459 
L 243.510744 329.584846 
L 244.12562 329.328658 
L 244.740496 329.319157 
L 245.970248 329.842739 
L 246.585124 330.107288 
L 247.2 330.199329 
L 247.814876 330.072474 
L 250.27438 328.878034 
L 250.889256 328.908123 
L 253.34876 329.573017 
L 253.963636 329.427884 
L 255.808264 328.60435 
L 256.42314 328.524232 
L 257.038017 328.607603 
L 258.882645 329.140256 
L 259.497521 329.120764 
L 260.727273 328.708991 
L 261.957025 328.330314 
L 262.571901 328.33279 
L 265.031405 328.901685 
L 266.261157 328.683959 
L 267.490909 328.356346 
L 268.720661 328.373139 
L 270.565289 328.805331 
L 271.795041 328.792528 
L 273.639669 328.504827 
L 274.869421 328.627212 
L 276.71405 328.986819 
L 277.943802 328.926577 
L 279.78843 328.757227 
L 281.018182 328.929285 
L 282.247934 329.153075 
L 283.477686 329.161194 
L 285.322314 328.993199 
L 286.552066 329.107463 
L 288.396694 329.379086 
L 290.241322 329.286316 
L 291.471074 329.257358 
L 295.160331 329.555658 
L 297.004959 329.446014 
L 306.228099 329.708478 
L 309.917355 329.658464 
L 312.991736 329.656552 
L 316.066116 329.616303 
L 319.755372 329.570246 
L 328.363636 329.583556 
L 340.046281 329.663794 
L 349.884298 329.864205 
L 370.790083 330.412849 
L 386.77686 330.722077 
L 423.054545 331.444912 
L 451.953719 332.196027 
L 464.866116 332.304721 
L 481.467769 332.201127 
L 491.920661 332.084243 
L 534.347107 331.439138 
L 585.381818 330.038058 
L 621.659504 329.516159 
L 637.031405 329.581465 
L 637.031405 329.581465 
" style="fill:none;stroke:#ff796c;stroke-linecap:square;stroke-width:1.5;"/>
   </g>
   <g id="line2d_18">
    <path clip-path="url(#peaccd73b45)" d="M 194.935537 328.786236 
L 195.550413 328.26253 
L 196.165289 328.402692 
L 196.780165 328.780507 
L 197.395041 329.419003 
L 198.624793 331.220188 
L 199.854545 333.00339 
L 201.699174 335.38625 
L 202.31405 336.489124 
L 203.543802 339.48459 
L 205.38843 344.624128 
L 206.618182 347.247482 
L 208.46281 350.663695 
L 210.307438 355.023303 
L 211.53719 357.703025 
L 212.766942 359.615744 
L 213.996694 361.286307 
L 215.226446 363.448804 
L 217.68595 368.365264 
L 218.915702 369.944666 
L 220.760331 371.960129 
L 223.219835 375.084387 
L 223.834711 375.513664 
L 224.449587 375.708027 
L 225.679339 375.609455 
L 226.909091 375.404148 
L 228.753719 375.251866 
L 229.368595 375.01145 
L 229.983471 374.577976 
L 231.213223 373.164002 
L 233.057851 370.694422 
L 235.517355 367.647852 
L 236.747107 365.433789 
L 240.436364 357.891056 
L 241.666116 355.398529 
L 242.895868 352.4417 
L 245.355372 346.232819 
L 249.044628 337.713531 
L 250.889256 333.22388 
L 252.733884 329.494572 
L 257.652893 320.32748 
L 260.727273 316.293569 
L 261.957025 314.758379 
L 263.186777 313.550069 
L 264.416529 312.714546 
L 267.490909 311.030285 
L 268.720661 310.61654 
L 269.950413 310.534341 
L 273.024793 310.836523 
L 274.254545 311.091864 
L 275.484298 311.586405 
L 279.78843 313.909351 
L 281.633058 315.16984 
L 284.707438 317.359096 
L 286.552066 318.657496 
L 290.241322 321.419552 
L 296.390083 325.409168 
L 301.309091 327.938304 
L 305.613223 329.627132 
L 308.072727 330.396879 
L 312.37686 331.51157 
L 324.67438 334.37702 
L 328.363636 335.521363 
L 332.667769 337.115437 
L 336.971901 339.018403 
L 341.276033 341.194379 
L 346.809917 344.245774 
L 358.492562 350.717348 
L 363.41157 353.112836 
L 367.715702 354.944977 
L 372.019835 356.512775 
L 376.323967 357.845787 
L 381.242975 359.142745 
L 396 362.855835 
L 399.689256 364.092774 
L 403.378512 365.566303 
L 406.452893 366.995723 
L 409.527273 368.632581 
L 413.216529 370.85789 
L 416.905785 373.361703 
L 421.209917 376.570473 
L 426.743802 381.011814 
L 435.352066 387.964379 
L 439.041322 390.681125 
L 442.115702 392.696164 
L 445.190083 394.432895 
L 447.649587 395.575095 
L 450.109091 396.474194 
L 452.568595 397.109496 
L 454.413223 397.398815 
L 456.872727 397.516371 
L 458.717355 397.406243 
L 460.561983 397.118932 
L 462.406612 396.644125 
L 464.25124 395.988411 
L 466.710744 394.833355 
L 469.170248 393.354755 
L 471.629752 391.560232 
L 474.089256 389.461338 
L 476.54876 387.070387 
L 479.008264 384.374354 
L 481.467769 381.375977 
L 484.542149 377.243857 
L 487.616529 372.751369 
L 491.305785 366.938101 
L 494.995041 360.711807 
L 499.91405 351.916864 
L 504.833058 342.638347 
L 511.596694 329.27316 
L 522.664463 306.970222 
L 539.880992 272.026772 
L 544.185124 263.803202 
L 548.489256 256.051005 
L 552.178512 249.8893 
L 555.252893 245.13861 
L 558.327273 240.757495 
L 561.401653 236.777498 
L 564.476033 233.220156 
L 566.935537 230.683795 
L 569.395041 228.427616 
L 571.854545 226.434167 
L 574.31405 224.705345 
L 576.773554 223.249626 
L 579.233058 222.057971 
L 581.692562 221.13418 
L 584.152066 220.467918 
L 586.61157 220.046575 
L 589.071074 219.86633 
L 591.530579 219.92352 
L 593.990083 220.212865 
L 596.449587 220.730999 
L 598.909091 221.472104 
L 601.368595 222.431063 
L 603.828099 223.602249 
L 606.287603 224.958202 
L 609.361983 226.955802 
L 612.436364 229.266848 
L 615.510744 231.875862 
L 618.585124 234.769012 
L 622.27438 238.59191 
L 625.963636 242.760122 
L 630.267769 247.993328 
L 634.571901 253.551818 
L 637.646281 257.688682 
L 637.646281 257.688682 
" style="fill:none;stroke:#e50000;stroke-linecap:square;stroke-width:1.5;"/>
   </g>
   <g id="line2d_19">
    <path clip-path="url(#peaccd73b45)" d="M 194.935537 152.939812 
L 199.854545 153.046933 
L 204.773554 153.368165 
L 209.692562 153.903117 
L 214.61157 154.651138 
L 219.530579 155.611315 
L 224.449587 156.782479 
L 229.368595 158.163203 
L 234.287603 159.751805 
L 239.821488 161.785041 
L 245.355372 164.075781 
L 250.889256 166.620493 
L 256.42314 169.415253 
L 261.957025 172.455751 
L 267.490909 175.7373 
L 273.639669 179.660011 
L 279.78843 183.866593 
L 285.93719 188.349038 
L 292.08595 193.098813 
L 298.849587 198.621526 
L 305.613223 204.444037 
L 312.37686 210.552938 
L 319.755372 217.527267 
L 327.133884 224.806549 
L 335.127273 233.01341 
L 343.735537 242.195314 
L 352.343802 251.700238 
L 361.566942 262.202231 
L 372.019835 274.446703 
L 383.702479 288.482167 
L 397.844628 305.833672 
L 421.209917 334.923188 
L 442.730579 361.585821 
L 456.257851 377.993167 
L 467.32562 391.087048 
L 477.163636 402.406054 
L 486.386777 412.692898 
L 494.995041 421.970643 
L 502.98843 430.275154 
L 510.981818 438.253209 
L 518.360331 445.305602 
L 525.738843 452.038623 
L 532.502479 457.914223 
L 539.266116 463.492412 
L 545.414876 468.294584 
L 551.563636 472.831193 
L 557.712397 477.093606 
L 563.861157 481.073706 
L 569.395041 484.408147 
L 574.928926 487.50263 
L 580.46281 490.352384 
L 585.996694 492.953015 
L 591.530579 495.300513 
L 597.064463 497.391257 
L 602.598347 499.222025 
L 607.517355 500.628831 
L 612.436364 501.826273 
L 617.355372 502.812893 
L 622.27438 503.587488 
L 627.193388 504.149115 
L 632.112397 504.497089 
L 637.031405 504.630986 
L 637.031405 504.630986 
" style="fill:none;stroke:#014d4e;stroke-linecap:square;stroke-width:1.5;"/>
   </g>
   <g id="line2d_20">
    <path clip-path="url(#peaccd73b45)" d="M 194.935537 153.463519 
L 195.550413 153.325031 
L 196.165289 152.952237 
L 196.780165 152.322111 
L 201.084298 146.507165 
L 201.699174 145.439431 
L 202.928926 142.524278 
L 204.773554 137.530273 
L 206.003306 135.020642 
L 207.847934 131.800042 
L 209.077686 129.103303 
L 210.307438 126.31774 
L 211.53719 124.201849 
L 213.996694 121.046934 
L 215.226446 118.807528 
L 216.456198 116.475369 
L 217.68595 114.778461 
L 222.604959 110.020501 
L 223.219835 109.742554 
L 223.834711 109.7028 
L 225.064463 110.120422 
L 226.909091 110.86241 
L 228.138843 111.332833 
L 228.753719 111.753992 
L 229.368595 112.371463 
L 230.598347 114.163169 
L 233.057851 118.150335 
L 234.287603 120.020751 
L 235.517355 122.34777 
L 237.361983 126.840658 
L 239.206612 131.283499 
L 241.05124 135.659666 
L 242.895868 140.971697 
L 244.740496 146.362062 
L 248.429752 156.531102 
L 250.27438 161.88768 
L 252.119008 166.511751 
L 257.038017 178.199789 
L 260.727273 185.044424 
L 261.957025 187.139125 
L 263.186777 188.856371 
L 266.876033 193.116885 
L 268.105785 194.286275 
L 269.335537 195.135747 
L 273.024793 197.101838 
L 274.254545 197.545402 
L 276.099174 197.859821 
L 280.403306 198.370257 
L 284.092562 198.402977 
L 285.93719 198.477778 
L 289.01157 198.472256 
L 294.545455 199.129428 
L 297.004959 199.813487 
L 300.079339 200.779318 
L 302.538843 201.870069 
L 306.228099 203.734296 
L 309.917355 206.030488 
L 312.991736 208.127153 
L 328.978512 219.511504 
L 333.897521 222.615421 
L 339.431405 225.79593 
L 349.269421 231.065417 
L 354.803306 234.170126 
L 359.107438 236.816364 
L 363.41157 239.735119 
L 367.715702 242.966199 
L 372.019835 246.5148 
L 376.323967 250.345631 
L 381.857851 255.588751 
L 395.385124 268.72488 
L 399.689256 272.583217 
L 403.993388 276.13297 
L 407.682645 278.884475 
L 411.371901 281.350846 
L 415.061157 283.539673 
L 418.750413 285.481491 
L 423.054545 287.492276 
L 437.81157 294.075348 
L 440.88595 295.794325 
L 443.960331 297.767596 
L 446.419835 299.570667 
L 448.879339 301.60341 
L 451.338843 303.880944 
L 453.798347 306.426755 
L 456.257851 309.263033 
L 458.717355 312.387542 
L 461.17686 315.818122 
L 464.25124 320.541506 
L 467.32562 325.739125 
L 470.4 331.40784 
L 473.47438 337.525429 
L 477.163636 345.429536 
L 480.852893 353.971379 
L 484.542149 363.076304 
L 488.846281 374.264213 
L 493.765289 387.676969 
L 499.91405 405.120999 
L 507.292562 426.778009 
L 527.583471 486.828118 
L 536.191736 511.659132 
L 541.110744 525.290733 
L 545.414876 536.666219 
L 549.104132 545.891411 
L 552.793388 554.546352 
L 556.482645 562.587888 
L 559.557025 568.781525 
L 562.631405 574.495555 
L 565.705785 579.706014 
L 568.780165 584.408032 
L 571.854545 588.623744 
L 574.31405 591.640967 
L 576.773554 594.339684 
L 579.233058 596.725306 
L 581.692562 598.794071 
L 584.152066 600.560013 
L 586.61157 602.033736 
L 589.071074 603.216066 
L 591.530579 604.112602 
L 593.990083 604.727004 
L 596.449587 605.062466 
L 598.909091 605.125055 
L 601.368595 604.919766 
L 603.828099 604.459734 
L 606.287603 603.75107 
L 608.747107 602.778315 
L 611.206612 601.552686 
L 613.666116 600.081421 
L 616.12562 598.372067 
L 619.2 595.912134 
L 622.27438 593.109747 
L 625.34876 589.989625 
L 628.42314 586.582472 
L 632.112397 582.151141 
L 635.801653 577.386614 
L 637.031405 575.72854 
L 637.031405 575.72854 
" style="fill:none;stroke:#ffff14;stroke-linecap:square;stroke-width:1.5;"/>
   </g>
   <g id="patch_3">
    <path d="M 172.8 629.9064 
L 172.8 84.9312 
" style="fill:none;stroke:#000000;stroke-linecap:square;stroke-linejoin:miter;stroke-width:0.8;"/>
   </g>
   <g id="patch_4">
    <path d="M 659.781818 629.9064 
L 659.781818 84.9312 
" style="fill:none;stroke:#000000;stroke-linecap:square;stroke-linejoin:miter;stroke-width:0.8;"/>
   </g>
   <g id="patch_5">
    <path d="M 172.8 629.9064 
L 659.781818 629.9064 
" style="fill:none;stroke:#000000;stroke-linecap:square;stroke-linejoin:miter;stroke-width:0.8;"/>
   </g>
   <g id="patch_6">
    <path d="M 172.8 84.9312 
L 659.781818 84.9312 
" style="fill:none;stroke:#000000;stroke-linecap:square;stroke-linejoin:miter;stroke-width:0.8;"/>
   </g>
   <g id="text_17">
    <!-- Right abduction -->
    <defs>
     <path d="M 44.390625 34.1875 
Q 47.5625 33.109375 50.5625 29.59375 
Q 53.5625 26.078125 56.59375 19.921875 
L 66.609375 0 
L 56 0 
L 46.6875 18.703125 
Q 43.0625 26.03125 39.671875 28.421875 
Q 36.28125 30.8125 30.421875 30.8125 
L 19.671875 30.8125 
L 19.671875 0 
L 9.8125 0 
L 9.8125 72.90625 
L 32.078125 72.90625 
Q 44.578125 72.90625 50.734375 67.671875 
Q 56.890625 62.453125 56.890625 51.90625 
Q 56.890625 45.015625 53.6875 40.46875 
Q 50.484375 35.9375 44.390625 34.1875 
z
M 19.671875 64.796875 
L 19.671875 38.921875 
L 32.078125 38.921875 
Q 39.203125 38.921875 42.84375 42.21875 
Q 46.484375 45.515625 46.484375 51.90625 
Q 46.484375 58.296875 42.84375 61.546875 
Q 39.203125 64.796875 32.078125 64.796875 
z
" id="DejaVuSans-82"/>
     <path d="M 9.421875 54.6875 
L 18.40625 54.6875 
L 18.40625 0 
L 9.421875 0 
z
M 9.421875 75.984375 
L 18.40625 75.984375 
L 18.40625 64.59375 
L 9.421875 64.59375 
z
" id="DejaVuSans-105"/>
     <path d="M 45.40625 27.984375 
Q 45.40625 37.75 41.375 43.109375 
Q 37.359375 48.484375 30.078125 48.484375 
Q 22.859375 48.484375 18.828125 43.109375 
Q 14.796875 37.75 14.796875 27.984375 
Q 14.796875 18.265625 18.828125 12.890625 
Q 22.859375 7.515625 30.078125 7.515625 
Q 37.359375 7.515625 41.375 12.890625 
Q 45.40625 18.265625 45.40625 27.984375 
z
M 54.390625 6.78125 
Q 54.390625 -7.171875 48.1875 -13.984375 
Q 42 -20.796875 29.203125 -20.796875 
Q 24.46875 -20.796875 20.265625 -20.09375 
Q 16.0625 -19.390625 12.109375 -17.921875 
L 12.109375 -9.1875 
Q 16.0625 -11.328125 19.921875 -12.34375 
Q 23.78125 -13.375 27.78125 -13.375 
Q 36.625 -13.375 41.015625 -8.765625 
Q 45.40625 -4.15625 45.40625 5.171875 
L 45.40625 9.625 
Q 42.625 4.78125 38.28125 2.390625 
Q 33.9375 0 27.875 0 
Q 17.828125 0 11.671875 7.65625 
Q 5.515625 15.328125 5.515625 27.984375 
Q 5.515625 40.671875 11.671875 48.328125 
Q 17.828125 56 27.875 56 
Q 33.9375 56 38.28125 53.609375 
Q 42.625 51.21875 45.40625 46.390625 
L 45.40625 54.6875 
L 54.390625 54.6875 
z
" id="DejaVuSans-103"/>
     <path d="M 54.890625 33.015625 
L 54.890625 0 
L 45.90625 0 
L 45.90625 32.71875 
Q 45.90625 40.484375 42.875 44.328125 
Q 39.84375 48.1875 33.796875 48.1875 
Q 26.515625 48.1875 22.3125 43.546875 
Q 18.109375 38.921875 18.109375 30.90625 
L 18.109375 0 
L 9.078125 0 
L 9.078125 75.984375 
L 18.109375 75.984375 
L 18.109375 46.1875 
Q 21.34375 51.125 25.703125 53.5625 
Q 30.078125 56 35.796875 56 
Q 45.21875 56 50.046875 50.171875 
Q 54.890625 44.34375 54.890625 33.015625 
z
" id="DejaVuSans-104"/>
     <path d="M 18.3125 70.21875 
L 18.3125 54.6875 
L 36.8125 54.6875 
L 36.8125 47.703125 
L 18.3125 47.703125 
L 18.3125 18.015625 
Q 18.3125 11.328125 20.140625 9.421875 
Q 21.96875 7.515625 27.59375 7.515625 
L 36.8125 7.515625 
L 36.8125 0 
L 27.59375 0 
Q 17.1875 0 13.234375 3.875 
Q 9.28125 7.765625 9.28125 18.015625 
L 9.28125 47.703125 
L 2.6875 47.703125 
L 2.6875 54.6875 
L 9.28125 54.6875 
L 9.28125 70.21875 
z
" id="DejaVuSans-116"/>
     <path id="DejaVuSans-32"/>
     <path d="M 34.28125 27.484375 
Q 23.390625 27.484375 19.1875 25 
Q 14.984375 22.515625 14.984375 16.5 
Q 14.984375 11.71875 18.140625 8.90625 
Q 21.296875 6.109375 26.703125 6.109375 
Q 34.1875 6.109375 38.703125 11.40625 
Q 43.21875 16.703125 43.21875 25.484375 
L 43.21875 27.484375 
z
M 52.203125 31.203125 
L 52.203125 0 
L 43.21875 0 
L 43.21875 8.296875 
Q 40.140625 3.328125 35.546875 0.953125 
Q 30.953125 -1.421875 24.3125 -1.421875 
Q 15.921875 -1.421875 10.953125 3.296875 
Q 6 8.015625 6 15.921875 
Q 6 25.140625 12.171875 29.828125 
Q 18.359375 34.515625 30.609375 34.515625 
L 43.21875 34.515625 
L 43.21875 35.40625 
Q 43.21875 41.609375 39.140625 45 
Q 35.0625 48.390625 27.6875 48.390625 
Q 23 48.390625 18.546875 47.265625 
Q 14.109375 46.140625 10.015625 43.890625 
L 10.015625 52.203125 
Q 14.9375 54.109375 19.578125 55.046875 
Q 24.21875 56 28.609375 56 
Q 40.484375 56 46.34375 49.84375 
Q 52.203125 43.703125 52.203125 31.203125 
z
" id="DejaVuSans-97"/>
     <path d="M 48.6875 27.296875 
Q 48.6875 37.203125 44.609375 42.84375 
Q 40.53125 48.484375 33.40625 48.484375 
Q 26.265625 48.484375 22.1875 42.84375 
Q 18.109375 37.203125 18.109375 27.296875 
Q 18.109375 17.390625 22.1875 11.75 
Q 26.265625 6.109375 33.40625 6.109375 
Q 40.53125 6.109375 44.609375 11.75 
Q 48.6875 17.390625 48.6875 27.296875 
z
M 18.109375 46.390625 
Q 20.953125 51.265625 25.265625 53.625 
Q 29.59375 56 35.59375 56 
Q 45.5625 56 51.78125 48.09375 
Q 58.015625 40.1875 58.015625 27.296875 
Q 58.015625 14.40625 51.78125 6.484375 
Q 45.5625 -1.421875 35.59375 -1.421875 
Q 29.59375 -1.421875 25.265625 0.953125 
Q 20.953125 3.328125 18.109375 8.203125 
L 18.109375 0 
L 9.078125 0 
L 9.078125 75.984375 
L 18.109375 75.984375 
z
" id="DejaVuSans-98"/>
     <path d="M 45.40625 46.390625 
L 45.40625 75.984375 
L 54.390625 75.984375 
L 54.390625 0 
L 45.40625 0 
L 45.40625 8.203125 
Q 42.578125 3.328125 38.25 0.953125 
Q 33.9375 -1.421875 27.875 -1.421875 
Q 17.96875 -1.421875 11.734375 6.484375 
Q 5.515625 14.40625 5.515625 27.296875 
Q 5.515625 40.1875 11.734375 48.09375 
Q 17.96875 56 27.875 56 
Q 33.9375 56 38.25 53.625 
Q 42.578125 51.265625 45.40625 46.390625 
z
M 14.796875 27.296875 
Q 14.796875 17.390625 18.875 11.75 
Q 22.953125 6.109375 30.078125 6.109375 
Q 37.203125 6.109375 41.296875 11.75 
Q 45.40625 17.390625 45.40625 27.296875 
Q 45.40625 37.203125 41.296875 42.84375 
Q 37.203125 48.484375 30.078125 48.484375 
Q 22.953125 48.484375 18.875 42.84375 
Q 14.796875 37.203125 14.796875 27.296875 
z
" id="DejaVuSans-100"/>
     <path d="M 8.5 21.578125 
L 8.5 54.6875 
L 17.484375 54.6875 
L 17.484375 21.921875 
Q 17.484375 14.15625 20.5 10.265625 
Q 23.53125 6.390625 29.59375 6.390625 
Q 36.859375 6.390625 41.078125 11.03125 
Q 45.3125 15.671875 45.3125 23.6875 
L 45.3125 54.6875 
L 54.296875 54.6875 
L 54.296875 0 
L 45.3125 0 
L 45.3125 8.40625 
Q 42.046875 3.421875 37.71875 1 
Q 33.40625 -1.421875 27.6875 -1.421875 
Q 18.265625 -1.421875 13.375 4.4375 
Q 8.5 10.296875 8.5 21.578125 
z
M 31.109375 56 
z
" id="DejaVuSans-117"/>
     <path d="M 48.78125 52.59375 
L 48.78125 44.1875 
Q 44.96875 46.296875 41.140625 47.34375 
Q 37.3125 48.390625 33.40625 48.390625 
Q 24.65625 48.390625 19.8125 42.84375 
Q 14.984375 37.3125 14.984375 27.296875 
Q 14.984375 17.28125 19.8125 11.734375 
Q 24.65625 6.203125 33.40625 6.203125 
Q 37.3125 6.203125 41.140625 7.25 
Q 44.96875 8.296875 48.78125 10.40625 
L 48.78125 2.09375 
Q 45.015625 0.34375 40.984375 -0.53125 
Q 36.96875 -1.421875 32.421875 -1.421875 
Q 20.0625 -1.421875 12.78125 6.34375 
Q 5.515625 14.109375 5.515625 27.296875 
Q 5.515625 40.671875 12.859375 48.328125 
Q 20.21875 56 33.015625 56 
Q 37.15625 56 41.109375 55.140625 
Q 45.0625 54.296875 48.78125 52.59375 
z
" id="DejaVuSans-99"/>
     <path d="M 30.609375 48.390625 
Q 23.390625 48.390625 19.1875 42.75 
Q 14.984375 37.109375 14.984375 27.296875 
Q 14.984375 17.484375 19.15625 11.84375 
Q 23.34375 6.203125 30.609375 6.203125 
Q 37.796875 6.203125 41.984375 11.859375 
Q 46.1875 17.53125 46.1875 27.296875 
Q 46.1875 37.015625 41.984375 42.703125 
Q 37.796875 48.390625 30.609375 48.390625 
z
M 30.609375 56 
Q 42.328125 56 49.015625 48.375 
Q 55.71875 40.765625 55.71875 27.296875 
Q 55.71875 13.875 49.015625 6.21875 
Q 42.328125 -1.421875 30.609375 -1.421875 
Q 18.84375 -1.421875 12.171875 6.21875 
Q 5.515625 13.875 5.515625 27.296875 
Q 5.515625 40.765625 12.171875 48.375 
Q 18.84375 56 30.609375 56 
z
" id="DejaVuSans-111"/>
     <path d="M 54.890625 33.015625 
L 54.890625 0 
L 45.90625 0 
L 45.90625 32.71875 
Q 45.90625 40.484375 42.875 44.328125 
Q 39.84375 48.1875 33.796875 48.1875 
Q 26.515625 48.1875 22.3125 43.546875 
Q 18.109375 38.921875 18.109375 30.90625 
L 18.109375 0 
L 9.078125 0 
L 9.078125 54.6875 
L 18.109375 54.6875 
L 18.109375 46.1875 
Q 21.34375 51.125 25.703125 53.5625 
Q 30.078125 56 35.796875 56 
Q 45.21875 56 50.046875 50.171875 
Q 54.890625 44.34375 54.890625 33.015625 
z
" id="DejaVuSans-110"/>
    </defs>
    <g transform="translate(368.694972 78.9312)scale(0.12 -0.12)">
     <use xlink:href="#DejaVuSans-82"/>
     <use x="69.482422" xlink:href="#DejaVuSans-105"/>
     <use x="97.265625" xlink:href="#DejaVuSans-103"/>
     <use x="160.742188" xlink:href="#DejaVuSans-104"/>
     <use x="224.121094" xlink:href="#DejaVuSans-116"/>
     <use x="263.330078" xlink:href="#DejaVuSans-32"/>
     <use x="295.117188" xlink:href="#DejaVuSans-97"/>
     <use x="356.396484" xlink:href="#DejaVuSans-98"/>
     <use x="419.873047" xlink:href="#DejaVuSans-100"/>
     <use x="483.349609" xlink:href="#DejaVuSans-117"/>
     <use x="546.728516" xlink:href="#DejaVuSans-99"/>
     <use x="601.708984" xlink:href="#DejaVuSans-116"/>
     <use x="640.917969" xlink:href="#DejaVuSans-105"/>
     <use x="668.701172" xlink:href="#DejaVuSans-111"/>
     <use x="729.882812" xlink:href="#DejaVuSans-110"/>
    </g>
   </g>
  </g>
  <g id="axes_2">
   <g id="patch_7">
    <path d="M 757.178182 629.9064 
L 1244.16 629.9064 
L 1244.16 84.9312 
L 757.178182 84.9312 
z
" style="fill:#ffffff;"/>
   </g>
   <g id="matplotlib.axis_3">
    <g id="xtick_9">
     <g id="line2d_21">
      <g>
       <use style="stroke:#000000;stroke-width:0.8;" x="779.313719" xlink:href="#m21b262b85d" y="629.9064"/>
      </g>
     </g>
     <g id="text_18">
      <!-- 0 -->
      <g transform="translate(776.132469 644.504838)scale(0.1 -0.1)">
       <use xlink:href="#DejaVuSans-48"/>
      </g>
     </g>
    </g>
    <g id="xtick_10">
     <g id="line2d_22">
      <g>
       <use style="stroke:#000000;stroke-width:0.8;" x="840.801322" xlink:href="#m21b262b85d" y="629.9064"/>
      </g>
     </g>
     <g id="text_19">
      <!-- 100 -->
      <g transform="translate(831.257572 644.504838)scale(0.1 -0.1)">
       <use xlink:href="#DejaVuSans-49"/>
       <use x="63.623047" xlink:href="#DejaVuSans-48"/>
       <use x="127.246094" xlink:href="#DejaVuSans-48"/>
      </g>
     </g>
    </g>
    <g id="xtick_11">
     <g id="line2d_23">
      <g>
       <use style="stroke:#000000;stroke-width:0.8;" x="902.288926" xlink:href="#m21b262b85d" y="629.9064"/>
      </g>
     </g>
     <g id="text_20">
      <!-- 200 -->
      <g transform="translate(892.745176 644.504838)scale(0.1 -0.1)">
       <use xlink:href="#DejaVuSans-50"/>
       <use x="63.623047" xlink:href="#DejaVuSans-48"/>
       <use x="127.246094" xlink:href="#DejaVuSans-48"/>
      </g>
     </g>
    </g>
    <g id="xtick_12">
     <g id="line2d_24">
      <g>
       <use style="stroke:#000000;stroke-width:0.8;" x="963.776529" xlink:href="#m21b262b85d" y="629.9064"/>
      </g>
     </g>
     <g id="text_21">
      <!-- 300 -->
      <g transform="translate(954.232779 644.504838)scale(0.1 -0.1)">
       <use xlink:href="#DejaVuSans-51"/>
       <use x="63.623047" xlink:href="#DejaVuSans-48"/>
       <use x="127.246094" xlink:href="#DejaVuSans-48"/>
      </g>
     </g>
    </g>
    <g id="xtick_13">
     <g id="line2d_25">
      <g>
       <use style="stroke:#000000;stroke-width:0.8;" x="1025.264132" xlink:href="#m21b262b85d" y="629.9064"/>
      </g>
     </g>
     <g id="text_22">
      <!-- 400 -->
      <g transform="translate(1015.720382 644.504838)scale(0.1 -0.1)">
       <use xlink:href="#DejaVuSans-52"/>
       <use x="63.623047" xlink:href="#DejaVuSans-48"/>
       <use x="127.246094" xlink:href="#DejaVuSans-48"/>
      </g>
     </g>
    </g>
    <g id="xtick_14">
     <g id="line2d_26">
      <g>
       <use style="stroke:#000000;stroke-width:0.8;" x="1086.751736" xlink:href="#m21b262b85d" y="629.9064"/>
      </g>
     </g>
     <g id="text_23">
      <!-- 500 -->
      <g transform="translate(1077.207986 644.504838)scale(0.1 -0.1)">
       <use xlink:href="#DejaVuSans-53"/>
       <use x="63.623047" xlink:href="#DejaVuSans-48"/>
       <use x="127.246094" xlink:href="#DejaVuSans-48"/>
      </g>
     </g>
    </g>
    <g id="xtick_15">
     <g id="line2d_27">
      <g>
       <use style="stroke:#000000;stroke-width:0.8;" x="1148.239339" xlink:href="#m21b262b85d" y="629.9064"/>
      </g>
     </g>
     <g id="text_24">
      <!-- 600 -->
      <g transform="translate(1138.695589 644.504838)scale(0.1 -0.1)">
       <use xlink:href="#DejaVuSans-54"/>
       <use x="63.623047" xlink:href="#DejaVuSans-48"/>
       <use x="127.246094" xlink:href="#DejaVuSans-48"/>
      </g>
     </g>
    </g>
    <g id="xtick_16">
     <g id="line2d_28">
      <g>
       <use style="stroke:#000000;stroke-width:0.8;" x="1209.726942" xlink:href="#m21b262b85d" y="629.9064"/>
      </g>
     </g>
     <g id="text_25">
      <!-- 700 -->
      <g transform="translate(1200.183192 644.504838)scale(0.1 -0.1)">
       <use xlink:href="#DejaVuSans-55"/>
       <use x="63.623047" xlink:href="#DejaVuSans-48"/>
       <use x="127.246094" xlink:href="#DejaVuSans-48"/>
      </g>
     </g>
    </g>
   </g>
   <g id="matplotlib.axis_4">
    <g id="ytick_9">
     <g id="line2d_29">
      <g>
       <use style="stroke:#000000;stroke-width:0.8;" x="757.178182" xlink:href="#m23107144ef" y="628.874377"/>
      </g>
     </g>
     <g id="text_26">
      <!-- −0.6 -->
      <g transform="translate(725.895369 632.673596)scale(0.1 -0.1)">
       <use xlink:href="#DejaVuSans-8722"/>
       <use x="83.789062" xlink:href="#DejaVuSans-48"/>
       <use x="147.412109" xlink:href="#DejaVuSans-46"/>
       <use x="179.199219" xlink:href="#DejaVuSans-54"/>
      </g>
     </g>
    </g>
    <g id="ytick_10">
     <g id="line2d_30">
      <g>
       <use style="stroke:#000000;stroke-width:0.8;" x="757.178182" xlink:href="#m23107144ef" y="541.117408"/>
      </g>
     </g>
     <g id="text_27">
      <!-- −0.4 -->
      <g transform="translate(725.895369 544.916627)scale(0.1 -0.1)">
       <use xlink:href="#DejaVuSans-8722"/>
       <use x="83.789062" xlink:href="#DejaVuSans-48"/>
       <use x="147.412109" xlink:href="#DejaVuSans-46"/>
       <use x="179.199219" xlink:href="#DejaVuSans-52"/>
      </g>
     </g>
    </g>
    <g id="ytick_11">
     <g id="line2d_31">
      <g>
       <use style="stroke:#000000;stroke-width:0.8;" x="757.178182" xlink:href="#m23107144ef" y="453.360439"/>
      </g>
     </g>
     <g id="text_28">
      <!-- −0.2 -->
      <g transform="translate(725.895369 457.159658)scale(0.1 -0.1)">
       <use xlink:href="#DejaVuSans-8722"/>
       <use x="83.789062" xlink:href="#DejaVuSans-48"/>
       <use x="147.412109" xlink:href="#DejaVuSans-46"/>
       <use x="179.199219" xlink:href="#DejaVuSans-50"/>
      </g>
     </g>
    </g>
    <g id="ytick_12">
     <g id="line2d_32">
      <g>
       <use style="stroke:#000000;stroke-width:0.8;" x="757.178182" xlink:href="#m23107144ef" y="365.60347"/>
      </g>
     </g>
     <g id="text_29">
      <!-- 0.0 -->
      <g transform="translate(734.275057 369.402688)scale(0.1 -0.1)">
       <use xlink:href="#DejaVuSans-48"/>
       <use x="63.623047" xlink:href="#DejaVuSans-46"/>
       <use x="95.410156" xlink:href="#DejaVuSans-48"/>
      </g>
     </g>
    </g>
    <g id="ytick_13">
     <g id="line2d_33">
      <g>
       <use style="stroke:#000000;stroke-width:0.8;" x="757.178182" xlink:href="#m23107144ef" y="277.8465"/>
      </g>
     </g>
     <g id="text_30">
      <!-- 0.2 -->
      <g transform="translate(734.275057 281.645719)scale(0.1 -0.1)">
       <use xlink:href="#DejaVuSans-48"/>
       <use x="63.623047" xlink:href="#DejaVuSans-46"/>
       <use x="95.410156" xlink:href="#DejaVuSans-50"/>
      </g>
     </g>
    </g>
    <g id="ytick_14">
     <g id="line2d_34">
      <g>
       <use style="stroke:#000000;stroke-width:0.8;" x="757.178182" xlink:href="#m23107144ef" y="190.089531"/>
      </g>
     </g>
     <g id="text_31">
      <!-- 0.4 -->
      <g transform="translate(734.275057 193.88875)scale(0.1 -0.1)">
       <use xlink:href="#DejaVuSans-48"/>
       <use x="63.623047" xlink:href="#DejaVuSans-46"/>
       <use x="95.410156" xlink:href="#DejaVuSans-52"/>
      </g>
     </g>
    </g>
    <g id="ytick_15">
     <g id="line2d_35">
      <g>
       <use style="stroke:#000000;stroke-width:0.8;" x="757.178182" xlink:href="#m23107144ef" y="102.332562"/>
      </g>
     </g>
     <g id="text_32">
      <!-- 0.6 -->
      <g transform="translate(734.275057 106.131781)scale(0.1 -0.1)">
       <use xlink:href="#DejaVuSans-48"/>
       <use x="63.623047" xlink:href="#DejaVuSans-46"/>
       <use x="95.410156" xlink:href="#DejaVuSans-54"/>
      </g>
     </g>
    </g>
   </g>
   <g id="line2d_36">
    <path clip-path="url(#p9d229719bb)" d="M 779.313719 364.778158 
L 779.928595 364.210704 
L 780.543471 364.057209 
L 781.158347 364.314767 
L 782.388099 365.375156 
L 783.002975 365.718568 
L 783.617851 365.736077 
L 784.232727 365.447815 
L 785.462479 364.620871 
L 786.077355 364.491732 
L 786.692231 364.710241 
L 787.307107 365.239026 
L 788.53686 366.556086 
L 789.151736 366.950873 
L 789.766612 367.017658 
L 790.381488 366.789347 
L 791.61124 366.053519 
L 792.226116 365.892028 
L 792.840992 365.992464 
L 795.300496 367.149956 
L 795.915372 366.984918 
L 797.76 365.765278 
L 798.374876 365.595302 
L 798.989752 365.677636 
L 801.449256 366.693936 
L 802.064132 366.567383 
L 803.90876 365.675425 
L 804.523636 365.597804 
L 805.138512 365.723777 
L 806.98314 366.516696 
L 807.598017 366.546568 
L 808.212893 366.3763 
L 810.057521 365.446738 
L 810.672397 365.339334 
L 811.287273 365.406292 
L 813.131901 365.924258 
L 813.746777 365.896765 
L 814.976529 365.422438 
L 816.206281 364.91806 
L 816.821157 364.858385 
L 818.050909 365.142584 
L 819.280661 365.472182 
L 819.895537 365.468161 
L 821.125289 365.118918 
L 822.355041 364.775267 
L 822.969917 364.7722 
L 824.199669 365.084621 
L 825.429421 365.376909 
L 826.659174 365.248489 
L 828.503802 364.829131 
L 829.733554 364.985517 
L 831.578182 365.392277 
L 832.807934 365.281928 
L 834.037686 365.056598 
L 835.267438 365.08746 
L 837.726942 365.563818 
L 838.956694 365.472143 
L 840.186446 365.327753 
L 841.416198 365.419466 
L 843.260826 365.776634 
L 844.490579 365.774242 
L 846.335207 365.610229 
L 847.564959 365.734214 
L 849.409587 366.009586 
L 851.254215 365.90289 
L 852.483967 365.859867 
L 856.788099 366.111787 
L 858.632727 366.057579 
L 861.707107 366.258055 
L 864.781488 366.139174 
L 867.855868 366.221096 
L 870.315372 366.089504 
L 874.004628 366.130077 
L 876.464132 366.051999 
L 879.538512 366.080219 
L 882.612893 365.990566 
L 885.687273 365.981827 
L 888.761653 365.937692 
L 892.450909 365.903283 
L 903.518678 365.867272 
L 911.512066 365.927506 
L 921.350083 366.000477 
L 940.41124 366.072722 
L 1053.54843 365.781115 
L 1082.447603 365.761408 
L 1091.670744 365.758019 
L 1111.346777 365.715418 
L 1128.563306 365.666259 
L 1197.429421 365.585455 
L 1221.409587 365.543428 
L 1221.409587 365.543428 
" style="fill:none;stroke:#ff796c;stroke-linecap:square;stroke-width:1.5;"/>
   </g>
   <g id="line2d_37">
    <path clip-path="url(#p9d229719bb)" d="M 779.313719 365.60347 
L 779.928595 365.657803 
L 780.543471 366.055553 
L 781.158347 367.087621 
L 781.773223 368.733665 
L 784.232727 376.586498 
L 786.077355 381.135333 
L 787.307107 385.168913 
L 788.53686 389.538427 
L 789.151736 391.182064 
L 789.766612 392.154859 
L 790.381488 392.388694 
L 790.996364 391.94378 
L 791.61124 390.984109 
L 792.840992 388.267818 
L 794.070744 385.040976 
L 794.68562 383.087214 
L 795.300496 380.743303 
L 796.530248 374.752172 
L 799.604628 357.881911 
L 802.679008 343.005678 
L 805.138512 330.213504 
L 811.902149 299.717067 
L 813.131901 295.903392 
L 814.976529 290.89999 
L 816.206281 288.261554 
L 816.821157 287.38674 
L 817.436033 286.881206 
L 818.050909 286.72982 
L 818.665785 286.869184 
L 819.895537 287.659187 
L 821.125289 288.770212 
L 821.740165 289.480176 
L 822.355041 290.374476 
L 822.969917 291.512825 
L 824.199669 294.562482 
L 826.659174 302.136125 
L 828.503802 308.088465 
L 829.733554 312.717518 
L 835.882314 338.443143 
L 838.341818 349.043521 
L 840.801322 358.26523 
L 843.260826 366.990084 
L 844.490579 370.755642 
L 846.335207 375.414207 
L 848.179835 379.518092 
L 849.409587 381.875528 
L 850.639339 383.649354 
L 851.869091 384.885685 
L 853.098843 385.815907 
L 854.328595 386.529071 
L 855.558347 386.876579 
L 856.173223 386.869479 
L 857.402975 386.504396 
L 858.632727 385.818045 
L 859.862479 384.940839 
L 861.092231 383.799993 
L 862.321983 382.270662 
L 864.166612 379.367226 
L 866.626116 374.955664 
L 868.470744 371.141235 
L 875.849256 355.041389 
L 878.30876 350.0822 
L 881.998017 343.044989 
L 883.842645 340.010868 
L 886.302149 336.346001 
L 888.146777 333.917737 
L 889.991405 331.880427 
L 892.450909 329.531806 
L 894.295537 328.082967 
L 896.140165 326.928934 
L 897.984793 325.992454 
L 899.829421 325.305654 
L 901.67405 324.885839 
L 904.133554 324.564975 
L 906.593058 324.458615 
L 910.89719 324.311081 
L 913.97157 324.009331 
L 916.431074 323.514236 
L 918.890579 322.806384 
L 921.350083 321.813814 
L 923.809587 320.557629 
L 926.269091 318.995967 
L 928.728595 317.145136 
L 931.188099 315.018043 
L 934.262479 312.011353 
L 937.33686 308.706273 
L 942.255868 303.04343 
L 950.249256 293.73783 
L 954.553388 289.105579 
L 957.627769 286.092169 
L 960.702149 283.360088 
L 963.776529 280.939814 
L 966.850909 278.823415 
L 969.925289 276.999607 
L 972.999669 275.437553 
L 976.688926 273.823847 
L 982.22281 271.701978 
L 988.986446 269.117987 
L 992.675702 267.500184 
L 995.750083 265.955583 
L 998.824463 264.192125 
L 1001.898843 262.192684 
L 1005.588099 259.486352 
L 1009.277355 256.475057 
L 1013.581488 252.663677 
L 1026.493884 240.963967 
L 1029.568264 238.560771 
L 1032.642645 236.462989 
L 1035.102149 235.049014 
L 1037.561653 233.897451 
L 1040.021157 233.028103 
L 1042.480661 232.459113 
L 1044.325289 232.232842 
L 1046.169917 232.18132 
L 1048.014545 232.304465 
L 1050.47405 232.726372 
L 1052.933554 233.434374 
L 1055.393058 234.417993 
L 1057.852562 235.66289 
L 1060.312066 237.146626 
L 1064.001322 239.697803 
L 1067.075702 242.12504 
L 1069.535207 244.281911 
L 1073.224463 247.877858 
L 1079.988099 254.900135 
L 1090.440992 265.805828 
L 1096.589752 271.992143 
L 1107.042645 282.963395 
L 1110.117025 286.387549 
L 1113.191405 290.099575 
L 1116.265785 294.165797 
L 1119.955041 299.430963 
L 1123.644298 305.062303 
L 1127.94843 312.113914 
L 1134.712066 323.776563 
L 1139.631074 332.085203 
L 1143.320331 337.925085 
L 1147.009587 343.322292 
L 1150.083967 347.445825 
L 1153.158347 351.198766 
L 1155.617851 353.927919 
L 1158.692231 356.966233 
L 1161.766612 359.678621 
L 1164.840992 362.090195 
L 1167.915372 364.20391 
L 1170.989752 366.049437 
L 1174.064132 367.648764 
L 1177.753388 369.321566 
L 1182.057521 371.002615 
L 1186.361653 372.440384 
L 1190.665785 373.658792 
L 1194.969917 374.686 
L 1199.27405 375.501112 
L 1202.963306 375.989345 
L 1206.037686 376.209642 
L 1209.112066 376.197986 
L 1211.57157 375.976829 
L 1214.64595 375.440329 
L 1217.720331 374.658527 
L 1221.409587 373.467578 
L 1222.024463 373.250647 
L 1222.024463 373.250647 
" style="fill:none;stroke:#e50000;stroke-linecap:square;stroke-width:1.5;"/>
   </g>
   <g id="line2d_38">
    <path clip-path="url(#p9d229719bb)" d="M 779.313719 135.856262 
L 783.617851 135.963418 
L 787.921983 136.284786 
L 792.226116 136.820068 
L 796.530248 137.568762 
L 800.83438 138.530172 
L 805.138512 139.7034 
L 809.442645 141.087351 
L 813.746777 142.680736 
L 818.665785 144.756279 
L 823.584793 147.10089 
L 828.503802 149.711714 
L 833.42281 152.585568 
L 838.341818 155.718951 
L 843.260826 159.108047 
L 848.179835 162.748725 
L 853.713719 167.139674 
L 859.247603 171.83664 
L 864.781488 176.83238 
L 870.315372 182.119191 
L 876.464132 188.324876 
L 882.612893 194.868021 
L 888.761653 201.73617 
L 895.525289 209.650894 
L 902.288926 217.924811 
L 909.052562 226.538866 
L 916.431074 236.300609 
L 924.424463 247.27491 
L 932.417851 258.629834 
L 941.026116 271.24196 
L 950.249256 285.144302 
L 960.702149 301.313535 
L 972.384793 319.799243 
L 987.141818 343.583176 
L 1033.872397 419.23689 
L 1045.555041 437.55198 
L 1056.007934 453.52392 
L 1065.231074 467.218061 
L 1073.839339 479.607826 
L 1081.832727 490.732767 
L 1089.21124 500.64549 
L 1096.589752 510.188072 
L 1103.353388 518.587923 
L 1110.117025 526.635416 
L 1116.265785 533.629941 
L 1122.414545 540.304617 
L 1128.563306 546.64674 
L 1134.712066 552.644237 
L 1140.24595 557.737879 
L 1145.779835 562.535264 
L 1151.313719 567.028994 
L 1156.847603 571.212141 
L 1161.766612 574.664531 
L 1166.68562 577.862213 
L 1171.604628 580.80129 
L 1176.523636 583.478182 
L 1181.442645 585.889627 
L 1186.361653 588.032687 
L 1191.280661 589.904751 
L 1195.584793 591.318706 
L 1199.888926 592.522108 
L 1204.193058 593.513837 
L 1208.49719 594.292967 
L 1212.801322 594.858771 
L 1217.105455 595.210722 
L 1221.409587 595.348491 
L 1221.409587 595.348491 
" style="fill:none;stroke:#014d4e;stroke-linecap:square;stroke-width:1.5;"/>
   </g>
   <g id="line2d_39">
    <path clip-path="url(#p9d229719bb)" d="M 779.313719 135.801928 
L 779.928595 135.406365 
L 780.543471 134.380859 
L 781.158347 132.745749 
L 783.617851 124.980389 
L 785.462479 120.543066 
L 786.692231 116.605678 
L 787.921983 112.349829 
L 788.53686 110.769573 
L 789.151736 109.864525 
L 789.766612 109.7028 
L 790.381488 110.224185 
L 790.996364 111.264688 
L 792.226116 114.155719 
L 793.455868 117.574724 
L 794.070744 119.631096 
L 795.300496 124.986466 
L 796.530248 131.897016 
L 798.374876 142.628802 
L 806.368264 183.633662 
L 808.212893 192.935808 
L 810.057521 202.433956 
L 811.287273 207.631071 
L 813.131901 213.874595 
L 814.976529 219.317134 
L 815.591405 220.76928 
L 816.206281 221.901437 
L 816.821157 222.668539 
L 817.436033 223.085713 
L 818.050909 223.216351 
L 819.280661 222.978978 
L 820.510413 222.43738 
L 821.125289 222.018416 
L 821.740165 221.419298 
L 822.355041 220.580307 
L 822.969917 219.479071 
L 824.199669 216.635353 
L 827.888926 206.885913 
L 829.118678 202.942581 
L 836.49719 176.243325 
L 838.341818 169.86535 
L 841.416198 160.69033 
L 843.260826 155.762243 
L 844.490579 153.18331 
L 846.335207 150.133987 
L 848.179835 147.594012 
L 849.409587 146.460091 
L 850.024463 146.13206 
L 851.254215 145.867733 
L 852.483967 145.924779 
L 853.713719 146.214072 
L 854.943471 146.884137 
L 856.173223 148.054255 
L 857.402975 149.651695 
L 859.247603 152.49927 
L 860.477355 154.724725 
L 861.707107 157.353337 
L 863.551736 161.933026 
L 866.01124 168.630158 
L 867.855868 174.196309 
L 877.693884 205.128168 
L 881.998017 217.810934 
L 885.072397 225.951085 
L 887.531901 232.022891 
L 889.991405 237.492661 
L 893.065785 243.804381 
L 895.525289 248.325429 
L 898.599669 253.468734 
L 901.059174 257.112224 
L 904.74843 262.13397 
L 910.89719 270.275833 
L 913.97157 274.703619 
L 917.04595 279.541932 
L 920.120331 284.830699 
L 923.194711 290.606724 
L 926.269091 296.908887 
L 929.343471 303.704814 
L 933.032727 312.484884 
L 937.33686 323.378311 
L 943.48562 339.651592 
L 953.323636 365.720687 
L 958.242645 378.114895 
L 962.546777 388.409322 
L 966.850909 398.162744 
L 971.155041 407.406176 
L 976.688926 418.723584 
L 992.675702 450.974367 
L 997.594711 461.631975 
L 1002.513719 472.887762 
L 1007.432727 484.720656 
L 1013.581488 500.128429 
L 1025.879008 531.125005 
L 1030.18314 541.292621 
L 1033.872397 549.461409 
L 1036.946777 555.803575 
L 1040.021157 561.676518 
L 1043.095537 567.047709 
L 1046.169917 571.903907 
L 1048.629421 575.417877 
L 1051.088926 578.621286 
L 1053.54843 581.517029 
L 1056.007934 584.118722 
L 1058.467438 586.441401 
L 1061.541818 589.009906 
L 1064.001322 590.857166 
L 1067.075702 592.868626 
L 1069.535207 594.207741 
L 1072.609587 595.588447 
L 1076.298843 596.975091 
L 1081.217851 598.620788 
L 1086.751736 600.267437 
L 1096.589752 603.163434 
L 1101.50876 604.143077 
L 1105.812893 604.851413 
L 1108.272397 605.098806 
L 1110.731901 605.116658 
L 1113.191405 604.891418 
L 1115.650909 604.382339 
L 1118.110413 603.634178 
L 1120.569917 602.676424 
L 1123.029421 601.495166 
L 1125.488926 600.084868 
L 1128.563306 598.047425 
L 1132.252562 595.309184 
L 1140.24595 589.268491 
L 1143.935207 586.794847 
L 1147.009587 584.987442 
L 1150.083967 583.434747 
L 1153.158347 582.155474 
L 1155.617851 581.351227 
L 1158.692231 580.60532 
L 1161.766612 580.083005 
L 1164.840992 579.759469 
L 1168.530248 579.626936 
L 1172.219504 579.719105 
L 1177.753388 580.132765 
L 1187.591405 581.142825 
L 1206.037686 583.250174 
L 1209.726942 583.967409 
L 1213.416198 584.957799 
L 1217.720331 586.370761 
L 1221.409587 587.701313 
L 1221.409587 587.701313 
" style="fill:none;stroke:#ffff14;stroke-linecap:square;stroke-width:1.5;"/>
   </g>
   <g id="patch_8">
    <path d="M 757.178182 629.9064 
L 757.178182 84.9312 
" style="fill:none;stroke:#000000;stroke-linecap:square;stroke-linejoin:miter;stroke-width:0.8;"/>
   </g>
   <g id="patch_9">
    <path d="M 1244.16 629.9064 
L 1244.16 84.9312 
" style="fill:none;stroke:#000000;stroke-linecap:square;stroke-linejoin:miter;stroke-width:0.8;"/>
   </g>
   <g id="patch_10">
    <path d="M 757.178182 629.9064 
L 1244.16 629.9064 
" style="fill:none;stroke:#000000;stroke-linecap:square;stroke-linejoin:miter;stroke-width:0.8;"/>
   </g>
   <g id="patch_11">
    <path d="M 757.178182 84.9312 
L 1244.16 84.9312 
" style="fill:none;stroke:#000000;stroke-linecap:square;stroke-linejoin:miter;stroke-width:0.8;"/>
   </g>
   <g id="text_33">
    <!-- Left abduction -->
    <defs>
     <path d="M 9.8125 72.90625 
L 19.671875 72.90625 
L 19.671875 8.296875 
L 55.171875 8.296875 
L 55.171875 0 
L 9.8125 0 
z
" id="DejaVuSans-76"/>
     <path d="M 56.203125 29.59375 
L 56.203125 25.203125 
L 14.890625 25.203125 
Q 15.484375 15.921875 20.484375 11.0625 
Q 25.484375 6.203125 34.421875 6.203125 
Q 39.59375 6.203125 44.453125 7.46875 
Q 49.3125 8.734375 54.109375 11.28125 
L 54.109375 2.78125 
Q 49.265625 0.734375 44.1875 -0.34375 
Q 39.109375 -1.421875 33.890625 -1.421875 
Q 20.796875 -1.421875 13.15625 6.1875 
Q 5.515625 13.8125 5.515625 26.8125 
Q 5.515625 40.234375 12.765625 48.109375 
Q 20.015625 56 32.328125 56 
Q 43.359375 56 49.78125 48.890625 
Q 56.203125 41.796875 56.203125 29.59375 
z
M 47.21875 32.234375 
Q 47.125 39.59375 43.09375 43.984375 
Q 39.0625 48.390625 32.421875 48.390625 
Q 24.90625 48.390625 20.390625 44.140625 
Q 15.875 39.890625 15.1875 32.171875 
z
" id="DejaVuSans-101"/>
     <path d="M 37.109375 75.984375 
L 37.109375 68.5 
L 28.515625 68.5 
Q 23.6875 68.5 21.796875 66.546875 
Q 19.921875 64.59375 19.921875 59.515625 
L 19.921875 54.6875 
L 34.71875 54.6875 
L 34.71875 47.703125 
L 19.921875 47.703125 
L 19.921875 0 
L 10.890625 0 
L 10.890625 47.703125 
L 2.296875 47.703125 
L 2.296875 54.6875 
L 10.890625 54.6875 
L 10.890625 58.5 
Q 10.890625 67.625 15.140625 71.796875 
Q 19.390625 75.984375 28.609375 75.984375 
z
" id="DejaVuSans-102"/>
    </defs>
    <g transform="translate(957.375341 78.9312)scale(0.12 -0.12)">
     <use xlink:href="#DejaVuSans-76"/>
     <use x="55.697266" xlink:href="#DejaVuSans-101"/>
     <use x="117.220703" xlink:href="#DejaVuSans-102"/>
     <use x="152.410156" xlink:href="#DejaVuSans-116"/>
     <use x="191.619141" xlink:href="#DejaVuSans-32"/>
     <use x="223.40625" xlink:href="#DejaVuSans-97"/>
     <use x="284.685547" xlink:href="#DejaVuSans-98"/>
     <use x="348.162109" xlink:href="#DejaVuSans-100"/>
     <use x="411.638672" xlink:href="#DejaVuSans-117"/>
     <use x="475.017578" xlink:href="#DejaVuSans-99"/>
     <use x="529.998047" xlink:href="#DejaVuSans-116"/>
     <use x="569.207031" xlink:href="#DejaVuSans-105"/>
     <use x="596.990234" xlink:href="#DejaVuSans-111"/>
     <use x="658.171875" xlink:href="#DejaVuSans-110"/>
    </g>
   </g>
  </g>
 </g>
 <defs>
  <clipPath id="peaccd73b45">
   <rect height="544.9752" width="486.981818" x="172.8" y="84.9312"/>
  </clipPath>
  <clipPath id="p9d229719bb">
   <rect height="544.9752" width="486.981818" x="757.178182" y="84.9312"/>
  </clipPath>
 </defs>
</svg>
