<?xml version="1.0" encoding="utf-8" standalone="no"?>
<!DOCTYPE svg PUBLIC "-//W3C//DTD SVG 1.1//EN"
  "http://www.w3.org/Graphics/SVG/1.1/DTD/svg11.dtd">
<!-- Created with matplotlib (https://matplotlib.org/) -->
<svg height="707.76pt" version="1.1" viewBox="0 0 1382.4 707.76" width="1382.4pt" xmlns="http://www.w3.org/2000/svg" xmlns:xlink="http://www.w3.org/1999/xlink">
 <defs>
  <style type="text/css">
*{stroke-linecap:butt;stroke-linejoin:round;}
  </style>
 </defs>
 <g id="figure_1">
  <g id="patch_1">
   <path d="M 0 707.76 
L 1382.4 707.76 
L 1382.4 0 
L 0 0 
z
" style="fill:#ffffff;"/>
  </g>
  <g id="axes_1">
   <g id="patch_2">
    <path d="M 172.8 629.9064 
L 659.781818 629.9064 
L 659.781818 84.9312 
L 172.8 84.9312 
z
" style="fill:#ffffff;"/>
   </g>
   <g id="matplotlib.axis_1">
    <g id="xtick_1">
     <g id="line2d_1">
      <defs>
       <path d="M 0 0 
L 0 3.5 
" id="mc1e5c40b54" style="stroke:#000000;stroke-width:0.8;"/>
      </defs>
      <g>
       <use style="stroke:#000000;stroke-width:0.8;" x="194.935537" xlink:href="#mc1e5c40b54" y="629.9064"/>
      </g>
     </g>
     <g id="text_1">
      <!-- 0 -->
      <defs>
       <path d="M 31.78125 66.40625 
Q 24.171875 66.40625 20.328125 58.90625 
Q 16.5 51.421875 16.5 36.375 
Q 16.5 21.390625 20.328125 13.890625 
Q 24.171875 6.390625 31.78125 6.390625 
Q 39.453125 6.390625 43.28125 13.890625 
Q 47.125 21.390625 47.125 36.375 
Q 47.125 51.421875 43.28125 58.90625 
Q 39.453125 66.40625 31.78125 66.40625 
z
M 31.78125 74.21875 
Q 44.046875 74.21875 50.515625 64.515625 
Q 56.984375 54.828125 56.984375 36.375 
Q 56.984375 17.96875 50.515625 8.265625 
Q 44.046875 -1.421875 31.78125 -1.421875 
Q 19.53125 -1.421875 13.0625 8.265625 
Q 6.59375 17.96875 6.59375 36.375 
Q 6.59375 54.828125 13.0625 64.515625 
Q 19.53125 74.21875 31.78125 74.21875 
z
" id="DejaVuSans-48"/>
      </defs>
      <g transform="translate(191.754287 644.504838)scale(0.1 -0.1)">
       <use xlink:href="#DejaVuSans-48"/>
      </g>
     </g>
    </g>
    <g id="xtick_2">
     <g id="line2d_2">
      <g>
       <use style="stroke:#000000;stroke-width:0.8;" x="256.42314" xlink:href="#mc1e5c40b54" y="629.9064"/>
      </g>
     </g>
     <g id="text_2">
      <!-- 100 -->
      <defs>
       <path d="M 12.40625 8.296875 
L 28.515625 8.296875 
L 28.515625 63.921875 
L 10.984375 60.40625 
L 10.984375 69.390625 
L 28.421875 72.90625 
L 38.28125 72.90625 
L 38.28125 8.296875 
L 54.390625 8.296875 
L 54.390625 0 
L 12.40625 0 
z
" id="DejaVuSans-49"/>
      </defs>
      <g transform="translate(246.87939 644.504838)scale(0.1 -0.1)">
       <use xlink:href="#DejaVuSans-49"/>
       <use x="63.623047" xlink:href="#DejaVuSans-48"/>
       <use x="127.246094" xlink:href="#DejaVuSans-48"/>
      </g>
     </g>
    </g>
    <g id="xtick_3">
     <g id="line2d_3">
      <g>
       <use style="stroke:#000000;stroke-width:0.8;" x="317.910744" xlink:href="#mc1e5c40b54" y="629.9064"/>
      </g>
     </g>
     <g id="text_3">
      <!-- 200 -->
      <defs>
       <path d="M 19.1875 8.296875 
L 53.609375 8.296875 
L 53.609375 0 
L 7.328125 0 
L 7.328125 8.296875 
Q 12.9375 14.109375 22.625 23.890625 
Q 32.328125 33.6875 34.8125 36.53125 
Q 39.546875 41.84375 41.421875 45.53125 
Q 43.3125 49.21875 43.3125 52.78125 
Q 43.3125 58.59375 39.234375 62.25 
Q 35.15625 65.921875 28.609375 65.921875 
Q 23.96875 65.921875 18.8125 64.3125 
Q 13.671875 62.703125 7.8125 59.421875 
L 7.8125 69.390625 
Q 13.765625 71.78125 18.9375 73 
Q 24.125 74.21875 28.421875 74.21875 
Q 39.75 74.21875 46.484375 68.546875 
Q 53.21875 62.890625 53.21875 53.421875 
Q 53.21875 48.921875 51.53125 44.890625 
Q 49.859375 40.875 45.40625 35.40625 
Q 44.1875 33.984375 37.640625 27.21875 
Q 31.109375 20.453125 19.1875 8.296875 
z
" id="DejaVuSans-50"/>
      </defs>
      <g transform="translate(308.366994 644.504838)scale(0.1 -0.1)">
       <use xlink:href="#DejaVuSans-50"/>
       <use x="63.623047" xlink:href="#DejaVuSans-48"/>
       <use x="127.246094" xlink:href="#DejaVuSans-48"/>
      </g>
     </g>
    </g>
    <g id="xtick_4">
     <g id="line2d_4">
      <g>
       <use style="stroke:#000000;stroke-width:0.8;" x="379.398347" xlink:href="#mc1e5c40b54" y="629.9064"/>
      </g>
     </g>
     <g id="text_4">
      <!-- 300 -->
      <defs>
       <path d="M 40.578125 39.3125 
Q 47.65625 37.796875 51.625 33 
Q 55.609375 28.21875 55.609375 21.1875 
Q 55.609375 10.40625 48.1875 4.484375 
Q 40.765625 -1.421875 27.09375 -1.421875 
Q 22.515625 -1.421875 17.65625 -0.515625 
Q 12.796875 0.390625 7.625 2.203125 
L 7.625 11.71875 
Q 11.71875 9.328125 16.59375 8.109375 
Q 21.484375 6.890625 26.8125 6.890625 
Q 36.078125 6.890625 40.9375 10.546875 
Q 45.796875 14.203125 45.796875 21.1875 
Q 45.796875 27.640625 41.28125 31.265625 
Q 36.765625 34.90625 28.71875 34.90625 
L 20.21875 34.90625 
L 20.21875 43.015625 
L 29.109375 43.015625 
Q 36.375 43.015625 40.234375 45.921875 
Q 44.09375 48.828125 44.09375 54.296875 
Q 44.09375 59.90625 40.109375 62.90625 
Q 36.140625 65.921875 28.71875 65.921875 
Q 24.65625 65.921875 20.015625 65.03125 
Q 15.375 64.15625 9.8125 62.3125 
L 9.8125 71.09375 
Q 15.4375 72.65625 20.34375 73.4375 
Q 25.25 74.21875 29.59375 74.21875 
Q 40.828125 74.21875 47.359375 69.109375 
Q 53.90625 64.015625 53.90625 55.328125 
Q 53.90625 49.265625 50.4375 45.09375 
Q 46.96875 40.921875 40.578125 39.3125 
z
" id="DejaVuSans-51"/>
      </defs>
      <g transform="translate(369.854597 644.504838)scale(0.1 -0.1)">
       <use xlink:href="#DejaVuSans-51"/>
       <use x="63.623047" xlink:href="#DejaVuSans-48"/>
       <use x="127.246094" xlink:href="#DejaVuSans-48"/>
      </g>
     </g>
    </g>
    <g id="xtick_5">
     <g id="line2d_5">
      <g>
       <use style="stroke:#000000;stroke-width:0.8;" x="440.88595" xlink:href="#mc1e5c40b54" y="629.9064"/>
      </g>
     </g>
     <g id="text_5">
      <!-- 400 -->
      <defs>
       <path d="M 37.796875 64.3125 
L 12.890625 25.390625 
L 37.796875 25.390625 
z
M 35.203125 72.90625 
L 47.609375 72.90625 
L 47.609375 25.390625 
L 58.015625 25.390625 
L 58.015625 17.1875 
L 47.609375 17.1875 
L 47.609375 0 
L 37.796875 0 
L 37.796875 17.1875 
L 4.890625 17.1875 
L 4.890625 26.703125 
z
" id="DejaVuSans-52"/>
      </defs>
      <g transform="translate(431.3422 644.504838)scale(0.1 -0.1)">
       <use xlink:href="#DejaVuSans-52"/>
       <use x="63.623047" xlink:href="#DejaVuSans-48"/>
       <use x="127.246094" xlink:href="#DejaVuSans-48"/>
      </g>
     </g>
    </g>
    <g id="xtick_6">
     <g id="line2d_6">
      <g>
       <use style="stroke:#000000;stroke-width:0.8;" x="502.373554" xlink:href="#mc1e5c40b54" y="629.9064"/>
      </g>
     </g>
     <g id="text_6">
      <!-- 500 -->
      <defs>
       <path d="M 10.796875 72.90625 
L 49.515625 72.90625 
L 49.515625 64.59375 
L 19.828125 64.59375 
L 19.828125 46.734375 
Q 21.96875 47.46875 24.109375 47.828125 
Q 26.265625 48.1875 28.421875 48.1875 
Q 40.625 48.1875 47.75 41.5 
Q 54.890625 34.8125 54.890625 23.390625 
Q 54.890625 11.625 47.5625 5.09375 
Q 40.234375 -1.421875 26.90625 -1.421875 
Q 22.3125 -1.421875 17.546875 -0.640625 
Q 12.796875 0.140625 7.71875 1.703125 
L 7.71875 11.625 
Q 12.109375 9.234375 16.796875 8.0625 
Q 21.484375 6.890625 26.703125 6.890625 
Q 35.15625 6.890625 40.078125 11.328125 
Q 45.015625 15.765625 45.015625 23.390625 
Q 45.015625 31 40.078125 35.4375 
Q 35.15625 39.890625 26.703125 39.890625 
Q 22.75 39.890625 18.8125 39.015625 
Q 14.890625 38.140625 10.796875 36.28125 
z
" id="DejaVuSans-53"/>
      </defs>
      <g transform="translate(492.829804 644.504838)scale(0.1 -0.1)">
       <use xlink:href="#DejaVuSans-53"/>
       <use x="63.623047" xlink:href="#DejaVuSans-48"/>
       <use x="127.246094" xlink:href="#DejaVuSans-48"/>
      </g>
     </g>
    </g>
    <g id="xtick_7">
     <g id="line2d_7">
      <g>
       <use style="stroke:#000000;stroke-width:0.8;" x="563.861157" xlink:href="#mc1e5c40b54" y="629.9064"/>
      </g>
     </g>
     <g id="text_7">
      <!-- 600 -->
      <defs>
       <path d="M 33.015625 40.375 
Q 26.375 40.375 22.484375 35.828125 
Q 18.609375 31.296875 18.609375 23.390625 
Q 18.609375 15.53125 22.484375 10.953125 
Q 26.375 6.390625 33.015625 6.390625 
Q 39.65625 6.390625 43.53125 10.953125 
Q 47.40625 15.53125 47.40625 23.390625 
Q 47.40625 31.296875 43.53125 35.828125 
Q 39.65625 40.375 33.015625 40.375 
z
M 52.59375 71.296875 
L 52.59375 62.3125 
Q 48.875 64.0625 45.09375 64.984375 
Q 41.3125 65.921875 37.59375 65.921875 
Q 27.828125 65.921875 22.671875 59.328125 
Q 17.53125 52.734375 16.796875 39.40625 
Q 19.671875 43.65625 24.015625 45.921875 
Q 28.375 48.1875 33.59375 48.1875 
Q 44.578125 48.1875 50.953125 41.515625 
Q 57.328125 34.859375 57.328125 23.390625 
Q 57.328125 12.15625 50.6875 5.359375 
Q 44.046875 -1.421875 33.015625 -1.421875 
Q 20.359375 -1.421875 13.671875 8.265625 
Q 6.984375 17.96875 6.984375 36.375 
Q 6.984375 53.65625 15.1875 63.9375 
Q 23.390625 74.21875 37.203125 74.21875 
Q 40.921875 74.21875 44.703125 73.484375 
Q 48.484375 72.75 52.59375 71.296875 
z
" id="DejaVuSans-54"/>
      </defs>
      <g transform="translate(554.317407 644.504838)scale(0.1 -0.1)">
       <use xlink:href="#DejaVuSans-54"/>
       <use x="63.623047" xlink:href="#DejaVuSans-48"/>
       <use x="127.246094" xlink:href="#DejaVuSans-48"/>
      </g>
     </g>
    </g>
    <g id="xtick_8">
     <g id="line2d_8">
      <g>
       <use style="stroke:#000000;stroke-width:0.8;" x="625.34876" xlink:href="#mc1e5c40b54" y="629.9064"/>
      </g>
     </g>
     <g id="text_8">
      <!-- 700 -->
      <defs>
       <path d="M 8.203125 72.90625 
L 55.078125 72.90625 
L 55.078125 68.703125 
L 28.609375 0 
L 18.3125 0 
L 43.21875 64.59375 
L 8.203125 64.59375 
z
" id="DejaVuSans-55"/>
      </defs>
      <g transform="translate(615.80501 644.504838)scale(0.1 -0.1)">
       <use xlink:href="#DejaVuSans-55"/>
       <use x="63.623047" xlink:href="#DejaVuSans-48"/>
       <use x="127.246094" xlink:href="#DejaVuSans-48"/>
      </g>
     </g>
    </g>
   </g>
   <g id="matplotlib.axis_2">
    <g id="ytick_1">
     <g id="line2d_9">
      <defs>
       <path d="M 0 0 
L -3.5 0 
" id="m6d7feab54b" style="stroke:#000000;stroke-width:0.8;"/>
      </defs>
      <g>
       <use style="stroke:#000000;stroke-width:0.8;" x="172.8" xlink:href="#m6d7feab54b" y="603.536057"/>
      </g>
     </g>
     <g id="text_9">
      <!-- −0.75 -->
      <defs>
       <path d="M 10.59375 35.5 
L 73.1875 35.5 
L 73.1875 27.203125 
L 10.59375 27.203125 
z
" id="DejaVuSans-8722"/>
       <path d="M 10.6875 12.40625 
L 21 12.40625 
L 21 0 
L 10.6875 0 
z
" id="DejaVuSans-46"/>
      </defs>
      <g transform="translate(135.154687 607.335276)scale(0.1 -0.1)">
       <use xlink:href="#DejaVuSans-8722"/>
       <use x="83.789062" xlink:href="#DejaVuSans-48"/>
       <use x="147.412109" xlink:href="#DejaVuSans-46"/>
       <use x="179.199219" xlink:href="#DejaVuSans-55"/>
       <use x="242.822266" xlink:href="#DejaVuSans-53"/>
      </g>
     </g>
    </g>
    <g id="ytick_2">
     <g id="line2d_10">
      <g>
       <use style="stroke:#000000;stroke-width:0.8;" x="172.8" xlink:href="#m6d7feab54b" y="542.561014"/>
      </g>
     </g>
     <g id="text_10">
      <!-- −0.50 -->
      <g transform="translate(135.154687 546.360232)scale(0.1 -0.1)">
       <use xlink:href="#DejaVuSans-8722"/>
       <use x="83.789062" xlink:href="#DejaVuSans-48"/>
       <use x="147.412109" xlink:href="#DejaVuSans-46"/>
       <use x="179.199219" xlink:href="#DejaVuSans-53"/>
       <use x="242.822266" xlink:href="#DejaVuSans-48"/>
      </g>
     </g>
    </g>
    <g id="ytick_3">
     <g id="line2d_11">
      <g>
       <use style="stroke:#000000;stroke-width:0.8;" x="172.8" xlink:href="#m6d7feab54b" y="481.58597"/>
      </g>
     </g>
     <g id="text_11">
      <!-- −0.25 -->
      <g transform="translate(135.154687 485.385189)scale(0.1 -0.1)">
       <use xlink:href="#DejaVuSans-8722"/>
       <use x="83.789062" xlink:href="#DejaVuSans-48"/>
       <use x="147.412109" xlink:href="#DejaVuSans-46"/>
       <use x="179.199219" xlink:href="#DejaVuSans-50"/>
       <use x="242.822266" xlink:href="#DejaVuSans-53"/>
      </g>
     </g>
    </g>
    <g id="ytick_4">
     <g id="line2d_12">
      <g>
       <use style="stroke:#000000;stroke-width:0.8;" x="172.8" xlink:href="#m6d7feab54b" y="420.610927"/>
      </g>
     </g>
     <g id="text_12">
      <!-- 0.00 -->
      <g transform="translate(143.534375 424.410146)scale(0.1 -0.1)">
       <use xlink:href="#DejaVuSans-48"/>
       <use x="63.623047" xlink:href="#DejaVuSans-46"/>
       <use x="95.410156" xlink:href="#DejaVuSans-48"/>
       <use x="159.033203" xlink:href="#DejaVuSans-48"/>
      </g>
     </g>
    </g>
    <g id="ytick_5">
     <g id="line2d_13">
      <g>
       <use style="stroke:#000000;stroke-width:0.8;" x="172.8" xlink:href="#m6d7feab54b" y="359.635884"/>
      </g>
     </g>
     <g id="text_13">
      <!-- 0.25 -->
      <g transform="translate(143.534375 363.435102)scale(0.1 -0.1)">
       <use xlink:href="#DejaVuSans-48"/>
       <use x="63.623047" xlink:href="#DejaVuSans-46"/>
       <use x="95.410156" xlink:href="#DejaVuSans-50"/>
       <use x="159.033203" xlink:href="#DejaVuSans-53"/>
      </g>
     </g>
    </g>
    <g id="ytick_6">
     <g id="line2d_14">
      <g>
       <use style="stroke:#000000;stroke-width:0.8;" x="172.8" xlink:href="#m6d7feab54b" y="298.66084"/>
      </g>
     </g>
     <g id="text_14">
      <!-- 0.50 -->
      <g transform="translate(143.534375 302.460059)scale(0.1 -0.1)">
       <use xlink:href="#DejaVuSans-48"/>
       <use x="63.623047" xlink:href="#DejaVuSans-46"/>
       <use x="95.410156" xlink:href="#DejaVuSans-53"/>
       <use x="159.033203" xlink:href="#DejaVuSans-48"/>
      </g>
     </g>
    </g>
    <g id="ytick_7">
     <g id="line2d_15">
      <g>
       <use style="stroke:#000000;stroke-width:0.8;" x="172.8" xlink:href="#m6d7feab54b" y="237.685797"/>
      </g>
     </g>
     <g id="text_15">
      <!-- 0.75 -->
      <g transform="translate(143.534375 241.485016)scale(0.1 -0.1)">
       <use xlink:href="#DejaVuSans-48"/>
       <use x="63.623047" xlink:href="#DejaVuSans-46"/>
       <use x="95.410156" xlink:href="#DejaVuSans-55"/>
       <use x="159.033203" xlink:href="#DejaVuSans-53"/>
      </g>
     </g>
    </g>
    <g id="ytick_8">
     <g id="line2d_16">
      <g>
       <use style="stroke:#000000;stroke-width:0.8;" x="172.8" xlink:href="#m6d7feab54b" y="176.710754"/>
      </g>
     </g>
     <g id="text_16">
      <!-- 1.00 -->
      <g transform="translate(143.534375 180.509972)scale(0.1 -0.1)">
       <use xlink:href="#DejaVuSans-49"/>
       <use x="63.623047" xlink:href="#DejaVuSans-46"/>
       <use x="95.410156" xlink:href="#DejaVuSans-48"/>
       <use x="159.033203" xlink:href="#DejaVuSans-48"/>
      </g>
     </g>
    </g>
    <g id="ytick_9">
     <g id="line2d_17">
      <g>
       <use style="stroke:#000000;stroke-width:0.8;" x="172.8" xlink:href="#m6d7feab54b" y="115.73571"/>
      </g>
     </g>
     <g id="text_17">
      <!-- 1.25 -->
      <g transform="translate(143.534375 119.534929)scale(0.1 -0.1)">
       <use xlink:href="#DejaVuSans-49"/>
       <use x="63.623047" xlink:href="#DejaVuSans-46"/>
       <use x="95.410156" xlink:href="#DejaVuSans-50"/>
       <use x="159.033203" xlink:href="#DejaVuSans-53"/>
      </g>
     </g>
    </g>
   </g>
   <g id="line2d_18">
    <path clip-path="url(#pc67db742d2)" d="M 194.935537 384.364495 
L 195.550413 377.468654 
L 196.780165 441.955356 
L 197.395041 434.414399 
L 198.624793 395.451748 
L 199.239669 399.792866 
L 199.854545 418.240701 
L 200.469421 427.999861 
L 201.084298 428.469577 
L 202.31405 411.079836 
L 202.928926 407.499241 
L 203.543802 411.250543 
L 204.158678 419.318357 
L 204.773554 425.693576 
L 205.38843 425.555923 
L 206.618182 414.190906 
L 207.233058 414.05558 
L 208.46281 426.143338 
L 209.077686 426.882472 
L 210.307438 415.596228 
L 210.922314 416.495733 
L 212.152066 426.614172 
L 212.766942 425.399884 
L 213.381818 421.780732 
L 213.996694 421.967031 
L 214.61157 426.028016 
L 215.226446 428.13853 
L 215.841322 425.361355 
L 216.456198 421.932638 
L 217.071074 423.205776 
L 217.68595 428.138043 
L 218.300826 430.812886 
L 218.915702 428.674066 
L 219.530579 425.745218 
L 220.145455 426.708424 
L 220.760331 430.388689 
L 221.375207 431.61077 
L 222.604959 425.881418 
L 223.219835 427.2273 
L 223.834711 430.809992 
L 224.449587 431.492894 
L 225.064463 428.364115 
L 225.679339 425.966406 
L 226.294215 427.520889 
L 226.909091 429.982601 
L 227.523967 428.815771 
L 228.138843 425.147912 
L 228.753719 423.905851 
L 229.368595 426.103615 
L 229.983471 427.302927 
L 231.213223 422.221104 
L 231.828099 423.193266 
L 232.442975 425.538453 
L 233.057851 425.001897 
L 233.672727 422.313915 
L 234.287603 421.670665 
L 235.517355 424.858172 
L 236.132231 424.294052 
L 237.361983 422.698005 
L 237.97686 422.464921 
L 238.591736 422.759847 
L 239.821488 423.958321 
L 240.436364 424.235878 
L 241.05124 424.081434 
L 242.280992 422.930431 
L 242.895868 422.387093 
L 243.510744 422.092401 
L 244.12562 422.052016 
L 245.355372 422.193665 
L 245.970248 422.052632 
L 246.585124 421.66905 
L 249.044628 419.452314 
L 249.659504 419.226534 
L 252.119008 418.87833 
L 252.733884 419.078496 
L 253.963636 420.249309 
L 254.578512 420.18069 
L 255.193388 419.693137 
L 255.808264 419.371742 
L 257.038017 419.784692 
L 257.652893 419.667919 
L 258.882645 418.801363 
L 259.497521 418.822108 
L 260.727273 419.373317 
L 262.571901 419.142402 
L 263.801653 419.850793 
L 264.416529 419.981568 
L 266.261157 419.993998 
L 271.180165 421.025825 
L 273.639669 421.304773 
L 276.71405 421.411628 
L 277.943802 421.428323 
L 282.247934 422.255517 
L 283.477686 422.768759 
L 285.93719 424.145199 
L 287.166942 424.482758 
L 289.626446 424.670536 
L 292.08595 424.887014 
L 293.315702 425.006631 
L 293.930579 424.758349 
L 294.545455 424.179768 
L 295.160331 424.570183 
L 295.775207 425.102074 
L 296.390083 425.443164 
L 297.004959 425.088327 
L 297.619835 424.251628 
L 298.234711 424.725804 
L 299.464463 425.910658 
L 300.079339 425.837265 
L 300.694215 424.895426 
L 301.309091 423.744938 
L 301.923967 422.882851 
L 303.153719 425.973123 
L 303.768595 426.963472 
L 304.383471 427.290082 
L 304.998347 427.18459 
L 305.613223 426.781141 
L 307.457851 425.175625 
L 308.072727 424.95088 
L 308.687603 424.996398 
L 309.302479 425.268705 
L 310.532231 426.08906 
L 311.147107 426.335904 
L 311.761983 426.326231 
L 312.991736 425.716267 
L 313.606612 425.387948 
L 314.221488 425.19029 
L 315.45124 425.164722 
L 316.680992 425.153068 
L 319.755372 424.68041 
L 322.214876 424.843636 
L 325.289256 424.728393 
L 339.431405 425.801889 
L 341.890909 426.036141 
L 343.120661 426.490832 
L 345.580165 427.582962 
L 346.809917 428.103902 
L 347.424793 427.883406 
L 348.654545 424.565486 
L 349.269421 424.098461 
L 349.884298 424.452557 
L 350.499174 418.92195 
L 351.11405 416.092413 
L 351.728926 420.360155 
L 352.343802 426.287557 
L 352.958678 426.765848 
L 353.573554 423.241116 
L 354.18843 422.585794 
L 354.803306 425.734484 
L 355.418182 427.694102 
L 356.033058 426.625559 
L 356.647934 423.538391 
L 357.26281 417.36637 
L 357.877686 417.424698 
L 359.107438 424.708066 
L 359.722314 425.434653 
L 360.33719 422.972377 
L 360.952066 421.906992 
L 361.566942 419.960334 
L 362.181818 421.294644 
L 362.796694 423.825607 
L 363.41157 425.368553 
L 364.026446 424.383832 
L 364.641322 422.708396 
L 365.256198 423.212402 
L 365.871074 421.538749 
L 366.48595 421.39837 
L 367.715702 424.689227 
L 368.330579 424.661863 
L 368.945455 423.399979 
L 369.560331 423.27946 
L 370.175207 424.87472 
L 370.790083 425.635015 
L 372.019835 423.244358 
L 372.634711 423.929152 
L 373.249587 425.340516 
L 373.864463 421.185766 
L 374.479339 420.66252 
L 375.709091 430.207346 
L 376.323967 430.703085 
L 376.938843 426.692371 
L 377.553719 424.64666 
L 378.783471 431.608497 
L 379.398347 429.683696 
L 380.013223 422.683249 
L 380.628099 422.968052 
L 381.857851 430.141252 
L 382.472727 432.032105 
L 383.087603 430.160125 
L 383.702479 425.207158 
L 384.317355 426.534014 
L 385.547107 430.992071 
L 386.161983 431.552926 
L 386.77686 429.848513 
L 387.391736 424.267514 
L 388.006612 423.997806 
L 389.85124 431.975129 
L 390.466116 432.744929 
L 391.695868 430.35733 
L 392.310744 429.51834 
L 392.92562 429.125831 
L 393.540496 429.317863 
L 395.385124 431.317172 
L 396 431.603848 
L 396.614876 431.515581 
L 398.459504 430.650889 
L 399.07438 430.687579 
L 400.919008 431.342699 
L 401.533884 431.091874 
L 402.14876 430.583451 
L 402.763636 430.418974 
L 403.993388 430.656668 
L 405.22314 430.16162 
L 406.452893 429.958803 
L 407.682645 429.526442 
L 408.297521 429.011335 
L 408.912397 428.673515 
L 409.527273 428.546872 
L 411.371901 428.625035 
L 412.601653 428.259765 
L 413.831405 427.80723 
L 414.446281 427.650992 
L 415.061157 427.622903 
L 416.290909 427.880691 
L 418.135537 428.311667 
L 419.980165 428.626177 
L 423.054545 429.46235 
L 424.284298 429.493619 
L 425.51405 429.389465 
L 426.128926 429.146063 
L 426.743802 428.775934 
L 428.58843 429.045694 
L 429.203306 428.884815 
L 431.047934 428.113415 
L 432.277686 428.05461 
L 436.581818 428.692815 
L 437.81157 429.191303 
L 439.041322 429.735907 
L 440.271074 430.038256 
L 442.730579 430.169453 
L 444.575207 430.088444 
L 448.264463 429.6401 
L 450.109091 429.697829 
L 451.338843 430.138301 
L 453.183471 431.079956 
L 454.413223 431.439259 
L 456.257851 431.728433 
L 457.487603 428.425339 
L 458.102479 429.078354 
L 458.717355 429.36504 
L 459.332231 428.477051 
L 459.947107 429.010567 
L 460.561983 430.468381 
L 461.17686 430.351596 
L 461.791736 429.876509 
L 462.406612 430.716556 
L 463.021488 430.538243 
L 463.636364 429.392585 
L 464.25124 427.937008 
L 464.866116 426.905365 
L 465.480992 426.695108 
L 466.095868 427.197501 
L 466.710744 427.935825 
L 467.32562 428.335463 
L 467.940496 428.157724 
L 469.170248 426.873562 
L 469.785124 426.505206 
L 470.4 426.60832 
L 472.244628 427.960864 
L 472.859504 427.974899 
L 474.704132 427.371601 
L 475.319008 427.496193 
L 476.54876 428.019151 
L 477.163636 428.096026 
L 477.778512 427.951217 
L 479.62314 427.113709 
L 480.852893 427.004422 
L 482.082645 426.855308 
L 484.542149 426.036331 
L 485.771901 426.070791 
L 487.001653 426.128156 
L 487.616529 426.058183 
L 488.231405 426.545072 
L 488.846281 427.295579 
L 489.461157 427.142502 
L 490.076033 426.683374 
L 490.690909 426.852095 
L 491.305785 426.897507 
L 491.920661 426.307256 
L 492.535537 426.055984 
L 493.150413 426.42027 
L 493.765289 426.469069 
L 494.380165 426.229777 
L 494.995041 426.521858 
L 495.609917 427.020498 
L 496.839669 426.95332 
L 497.454545 427.354336 
L 498.069421 427.50468 
L 498.684298 427.286633 
L 499.299174 427.529046 
L 499.91405 428.596727 
L 500.528926 428.595735 
L 501.143802 427.42753 
L 501.758678 426.903292 
L 502.373554 427.559764 
L 502.98843 427.873372 
L 503.603306 427.070598 
L 504.218182 426.451854 
L 504.833058 427.04155 
L 505.447934 427.834183 
L 506.06281 427.634046 
L 506.677686 427.082798 
L 507.292562 427.413228 
L 507.907438 428.270669 
L 508.522314 428.389456 
L 509.13719 427.79133 
L 509.752066 427.659218 
L 510.366942 428.245528 
L 510.981818 428.50816 
L 512.21157 427.577188 
L 513.441322 428.387921 
L 514.056198 428.175567 
L 514.671074 427.753679 
L 515.28595 427.943609 
L 515.900826 428.500721 
L 516.515702 428.584316 
L 517.130579 428.211946 
L 517.745455 428.162853 
L 518.360331 428.593985 
L 518.975207 428.803127 
L 520.204959 428.164382 
L 521.434711 428.567133 
L 522.049587 428.333028 
L 522.664463 427.909453 
L 523.279339 427.893668 
L 523.894215 428.1064 
L 524.509091 427.945344 
L 525.123967 427.467892 
L 525.738843 427.247513 
L 526.353719 427.34152 
L 526.968595 427.226438 
L 528.198347 426.384346 
L 529.428099 426.326275 
L 530.657851 425.568665 
L 531.272727 425.481435 
L 531.887603 425.518028 
L 532.502479 425.311216 
L 533.117355 424.941299 
L 533.732231 424.771013 
L 534.347107 424.813047 
L 534.961983 424.730798 
L 536.191736 424.191605 
L 537.421488 424.217343 
L 539.266116 423.771883 
L 539.880992 423.861679 
L 540.495868 423.824733 
L 541.72562 423.563179 
L 542.955372 423.697252 
L 544.8 423.350882 
L 546.029752 423.426605 
L 547.259504 423.157185 
L 549.104132 423.167972 
L 550.333884 422.965631 
L 551.563636 423.026301 
L 553.408264 422.797423 
L 554.638017 422.831032 
L 555.867769 422.67315 
L 562.016529 423.152345 
L 563.861157 423.615212 
L 565.090909 423.935442 
L 568.780165 425.584761 
L 570.624793 427.473441 
L 571.239669 427.994518 
L 571.854545 428.68024 
L 573.699174 431.272027 
L 574.928926 432.294143 
L 576.773554 433.650091 
L 577.38843 433.925667 
L 578.003306 434.056328 
L 578.618182 434.045789 
L 579.847934 433.727516 
L 584.152066 432.280154 
L 584.766942 432.232581 
L 585.381818 432.455385 
L 585.996694 432.96545 
L 587.226446 433.484076 
L 587.841322 434.273084 
L 589.071074 436.764948 
L 589.68595 436.935733 
L 590.300826 436.115296 
L 590.915702 435.028381 
L 591.530579 434.394167 
L 592.145455 434.207338 
L 592.760331 433.825987 
L 593.990083 431.976259 
L 594.604959 431.603039 
L 595.219835 432.182198 
L 596.449587 434.235767 
L 597.064463 434.353587 
L 597.679339 432.966557 
L 598.294215 430.822639 
L 598.909091 430.298227 
L 600.138843 433.73467 
L 600.753719 433.127713 
L 601.983471 426.456078 
L 602.598347 425.337129 
L 603.213223 427.166488 
L 603.828099 429.35084 
L 604.442975 430.845848 
L 605.057851 430.564588 
L 606.287603 427.084617 
L 606.902479 426.466082 
L 607.517355 416.012799 
L 608.132231 408.757216 
L 608.747107 408.74661 
L 610.591736 426.857882 
L 611.206612 428.161599 
L 611.821488 425.503217 
L 613.05124 415.89682 
L 613.666116 413.207242 
L 614.280992 412.561856 
L 614.895868 413.675679 
L 616.12562 417.506009 
L 616.740496 418.315761 
L 617.355372 417.922234 
L 618.585124 416.087135 
L 619.2 415.862167 
L 619.814876 416.060346 
L 621.044628 417.571421 
L 621.659504 417.93788 
L 622.27438 419.279825 
L 622.889256 417.476802 
L 624.733884 407.736757 
L 625.34876 406.934973 
L 625.963636 407.677587 
L 627.193388 411.166245 
L 627.808264 412.188843 
L 628.42314 412.527624 
L 629.038017 415.724159 
L 630.267769 411.460303 
L 630.882645 410.679275 
L 631.497521 411.452071 
L 632.727273 416.115008 
L 633.342149 417.389299 
L 633.957025 415.651191 
L 634.571901 413.395362 
L 635.186777 412.111141 
L 635.801653 411.680328 
L 636.416529 411.804447 
L 637.031405 412.135454 
L 637.031405 412.135454 
" style="fill:none;stroke:#ff796c;stroke-linecap:square;stroke-width:1.5;"/>
   </g>
   <g id="line2d_19">
    <path clip-path="url(#pc67db742d2)" d="M 194.935537 420.610927 
L 195.550413 420.771775 
L 196.165289 426.378029 
L 197.395041 450.440682 
L 198.009917 456.987109 
L 199.239669 463.419453 
L 199.854545 470.794558 
L 201.084298 490.592201 
L 201.699174 498.156972 
L 203.543802 515.123217 
L 206.003306 548.131895 
L 207.847934 563.803397 
L 209.077686 576.161474 
L 209.692562 580.567112 
L 210.922314 586.221457 
L 213.381818 600.032247 
L 215.226446 604.514558 
L 215.841322 605.1348 
L 216.456198 604.752921 
L 217.071074 603.971214 
L 218.300826 602.84219 
L 218.915702 601.441436 
L 219.530579 598.87935 
L 221.375207 588.788671 
L 221.990083 584.382782 
L 224.449587 562.020937 
L 225.679339 548.103948 
L 228.753719 508.542162 
L 231.828099 468.046742 
L 234.287603 439.375649 
L 235.517355 426.923733 
L 237.97686 405.036779 
L 239.206612 395.788041 
L 241.05124 384.070045 
L 242.895868 373.909429 
L 244.12562 368.416773 
L 245.355372 364.211184 
L 246.585124 361.13099 
L 247.2 359.962958 
L 247.814876 359.042886 
L 248.429752 358.390872 
L 249.044628 358.022365 
L 249.659504 357.935593 
L 250.27438 358.108524 
L 250.889256 358.504628 
L 252.119008 359.799374 
L 253.34876 361.586011 
L 260.727273 374.609 
L 264.416529 382.511504 
L 266.876033 387.669998 
L 269.335537 392.436926 
L 271.180165 395.616358 
L 273.024793 398.408316 
L 274.869421 400.858116 
L 277.328926 403.741524 
L 279.78843 406.294911 
L 281.018182 407.303515 
L 282.86281 408.457284 
L 287.781818 411.001448 
L 289.626446 411.709544 
L 291.471074 412.08053 
L 293.315702 412.173421 
L 293.930579 412.103062 
L 294.545455 411.88224 
L 295.160331 411.402699 
L 296.390083 410.946225 
L 297.004959 410.607749 
L 297.619835 409.964568 
L 298.234711 409.029803 
L 300.079339 407.55319 
L 300.694215 406.873037 
L 301.923967 404.616467 
L 302.538843 403.326128 
L 304.998347 401.498556 
L 306.228099 400.05145 
L 309.302479 395.959656 
L 312.991736 391.797606 
L 314.836364 389.33664 
L 317.295868 386.627024 
L 319.755372 384.050102 
L 321.6 382.508393 
L 323.444628 381.225933 
L 325.289256 380.215379 
L 327.133884 379.566861 
L 329.593388 379.062783 
L 336.357025 377.995528 
L 338.201653 377.389863 
L 340.046281 376.563219 
L 341.890909 375.507238 
L 343.120661 374.560089 
L 343.735537 373.909322 
L 344.350413 373.088312 
L 344.965289 372.06394 
L 346.195041 369.335324 
L 347.424793 365.714216 
L 348.654545 361.022495 
L 349.884298 356.149031 
L 351.11405 351.711068 
L 351.728926 350.52982 
L 352.343802 351.012264 
L 352.958678 352.05021 
L 353.573554 352.454218 
L 354.18843 352.251278 
L 354.803306 352.377971 
L 355.418182 352.906697 
L 356.033058 353.036029 
L 356.647934 352.455397 
L 357.877686 350.418158 
L 358.492562 350.825844 
L 360.33719 354.72446 
L 361.566942 355.86544 
L 362.181818 356.664059 
L 363.41157 359.79518 
L 364.026446 361.300263 
L 365.871074 364.243535 
L 366.48595 365.209474 
L 367.100826 366.509338 
L 368.945455 371.262264 
L 370.175207 373.768783 
L 371.404959 376.508173 
L 372.634711 378.395245 
L 374.479339 381.817615 
L 375.094215 383.468038 
L 376.938843 390.916857 
L 377.553719 392.449237 
L 378.168595 394.291792 
L 379.398347 399.268071 
L 380.013223 400.829093 
L 380.628099 401.915354 
L 381.857851 406.767843 
L 383.087603 411.393354 
L 383.702479 412.660364 
L 384.317355 413.53276 
L 386.161983 418.238335 
L 386.77686 419.233199 
L 387.391736 419.640974 
L 388.006612 419.784223 
L 388.621488 420.714034 
L 390.466116 424.489487 
L 391.080992 425.170406 
L 391.695868 425.290204 
L 396 424.843503 
L 396.614876 424.470628 
L 397.229752 423.884611 
L 398.459504 422.267378 
L 401.533884 417.628975 
L 403.993388 413.398893 
L 406.452893 409.735422 
L 408.297521 407.53355 
L 409.527273 406.504191 
L 410.757025 405.970525 
L 411.986777 405.805212 
L 413.216529 405.846082 
L 414.446281 406.176571 
L 415.676033 406.864591 
L 418.750413 409.12492 
L 419.980165 409.711675 
L 421.209917 410.085665 
L 422.439669 410.269139 
L 424.284298 410.246123 
L 426.128926 410.246421 
L 427.358678 410.523971 
L 428.58843 411.28772 
L 430.433058 412.797408 
L 431.66281 414.014892 
L 433.507438 416.318818 
L 435.352066 418.637679 
L 437.196694 420.590248 
L 442.730579 426.085915 
L 443.960331 427.842298 
L 445.190083 429.960686 
L 447.034711 433.743307 
L 451.953719 444.628476 
L 452.568595 445.601371 
L 453.183471 446.364564 
L 453.798347 446.893883 
L 454.413223 447.187839 
L 455.028099 447.266208 
L 455.642975 447.162406 
L 456.872727 446.559889 
L 457.487603 446.090297 
L 458.102479 445.905187 
L 458.717355 446.29144 
L 459.332231 446.999095 
L 459.947107 447.900072 
L 462.406612 452.842529 
L 463.021488 453.845714 
L 463.636364 454.593371 
L 464.866116 455.740554 
L 465.480992 456.65949 
L 466.095868 458.048467 
L 467.32562 461.907051 
L 469.170248 467.702663 
L 470.4 471.600142 
L 474.089256 484.422582 
L 477.163636 492.653572 
L 478.393388 495.420935 
L 480.852893 500.54183 
L 483.312397 506.501515 
L 485.157025 511.459807 
L 490.076033 525.738565 
L 491.305785 528.101006 
L 496.224793 536.23194 
L 497.454545 537.614045 
L 498.069421 538.049295 
L 498.684298 538.231563 
L 499.299174 538.142939 
L 499.91405 537.852545 
L 500.528926 537.323924 
L 501.143802 536.343585 
L 502.98843 532.067973 
L 504.218182 528.812634 
L 508.522314 516.691413 
L 509.752066 512.030276 
L 511.596694 504.06769 
L 515.28595 485.655808 
L 518.360331 469.354972 
L 520.819835 455.299635 
L 525.738843 427.003364 
L 527.583471 417.615481 
L 528.813223 412.00472 
L 530.042975 407.178418 
L 531.272727 403.04387 
L 532.502479 399.753305 
L 533.732231 397.141186 
L 534.961983 395.249762 
L 536.191736 393.934088 
L 536.806612 393.476747 
L 538.036364 392.971173 
L 539.266116 392.830136 
L 540.495868 393.054018 
L 542.340496 393.725307 
L 545.414876 395.091715 
L 546.644628 395.478095 
L 547.87438 395.639792 
L 549.104132 395.628637 
L 550.333884 395.372168 
L 551.563636 394.934675 
L 552.793388 394.306822 
L 555.252893 392.67471 
L 557.712397 390.941057 
L 558.942149 390.256124 
L 560.171901 389.873 
L 561.401653 389.876986 
L 562.016529 390.050888 
L 562.631405 390.369691 
L 563.246281 390.843076 
L 563.861157 391.472114 
L 564.476033 392.266369 
L 565.090909 393.24989 
L 566.320661 395.879653 
L 567.550413 399.469408 
L 568.780165 404.161725 
L 570.009917 410.094535 
L 571.239669 417.085847 
L 573.084298 429.190667 
L 576.773554 454.683976 
L 578.003306 461.62596 
L 579.233058 467.046335 
L 580.46281 470.903192 
L 581.077686 472.308142 
L 581.692562 473.417477 
L 582.307438 474.275545 
L 582.922314 474.925766 
L 584.152066 475.772185 
L 585.381818 476.237056 
L 586.61157 476.427473 
L 587.841322 476.207985 
L 589.68595 475.846656 
L 590.300826 475.518144 
L 591.530579 474.322517 
L 593.375207 472.202886 
L 594.604959 469.888081 
L 597.679339 462.881102 
L 598.909091 459.100976 
L 599.523967 457.715402 
L 600.753719 456.015595 
L 601.368595 454.680986 
L 602.598347 451.112979 
L 603.213223 450.026066 
L 603.828099 449.798028 
L 605.057851 450.403066 
L 605.672727 450.468011 
L 606.902479 450.060715 
L 607.517355 450.060061 
L 608.747107 445.756778 
L 609.361983 444.271063 
L 609.97686 443.175197 
L 613.666116 435.320154 
L 614.895868 433.259695 
L 616.12562 431.903573 
L 617.355372 431.069433 
L 618.585124 430.572977 
L 620.429752 430.359795 
L 621.659504 430.530821 
L 622.27438 430.506389 
L 623.504132 431.13797 
L 624.733884 431.49826 
L 625.34876 431.607216 
L 629.038017 433.11525 
L 629.652893 434.59067 
L 632.112397 434.78242 
L 632.727273 434.952201 
L 633.342149 435.303321 
L 634.571901 436.588793 
L 636.416529 438.673908 
L 637.646281 439.846448 
L 637.646281 439.846448 
" style="fill:none;stroke:#e50000;stroke-linecap:square;stroke-width:1.5;"/>
   </g>
   <g id="line2d_20">
    <path clip-path="url(#pc67db742d2)" d="M 194.935537 292.905095 
L 201.084298 293.026642 
L 207.233058 293.391054 
L 213.381818 293.997636 
L 219.530579 294.845233 
L 225.679339 295.932233 
L 231.828099 297.256566 
L 237.97686 298.81571 
L 244.12562 300.606699 
L 250.27438 302.626122 
L 256.42314 304.870137 
L 262.571901 307.33447 
L 269.335537 310.294095 
L 276.099174 313.507804 
L 282.86281 316.968196 
L 289.626446 320.667301 
L 297.004959 324.964913 
L 304.383471 329.524685 
L 311.761983 334.334117 
L 319.755372 339.810766 
L 327.74876 345.547322 
L 336.357025 351.994633 
L 345.580165 359.185856 
L 355.418182 367.145637 
L 365.871074 375.887402 
L 377.553719 385.946398 
L 391.695868 398.435042 
L 410.757025 415.597219 
L 443.960331 445.525099 
L 458.102479 457.948499 
L 469.785124 467.933273 
L 480.238017 476.593479 
L 490.076033 484.463843 
L 499.299174 491.560486 
L 507.907438 497.910499 
L 515.900826 503.54923 
L 523.894215 508.921177 
L 531.272727 513.628148 
L 538.65124 518.080165 
L 546.029752 522.265025 
L 552.793388 525.856648 
L 559.557025 529.205865 
L 566.320661 532.304964 
L 573.084298 535.146807 
L 579.233058 537.501541 
L 585.381818 539.633767 
L 591.530579 541.539427 
L 597.679339 543.214892 
L 603.828099 544.656974 
L 609.97686 545.862927 
L 616.12562 546.830456 
L 622.27438 547.557719 
L 628.42314 548.043331 
L 634.571901 548.286368 
L 637.031405 548.315543 
L 637.031405 548.315543 
" style="fill:none;stroke:#014d4e;stroke-linecap:square;stroke-width:1.5;"/>
   </g>
   <g id="line2d_21">
    <path clip-path="url(#pc67db742d2)" d="M 194.935537 292.744247 
L 195.550413 287.139208 
L 196.780165 263.086281 
L 197.395041 256.548363 
L 198.624793 250.14033 
L 199.239669 242.781027 
L 200.469421 223.022278 
L 201.084298 215.480597 
L 202.928926 198.598198 
L 205.38843 165.735294 
L 207.233058 150.198584 
L 208.46281 137.94248 
L 209.077686 133.59146 
L 210.307438 128.053605 
L 212.766942 114.50479 
L 214.61157 110.244288 
L 215.226446 109.7028 
L 215.841322 110.165839 
L 216.456198 111.031111 
L 217.68595 112.334471 
L 218.300826 113.825994 
L 218.915702 116.481247 
L 220.760331 126.865796 
L 221.375207 131.374427 
L 223.834711 154.1711 
L 225.064463 168.319794 
L 228.138843 208.502382 
L 231.213223 249.677706 
L 233.672727 278.935058 
L 234.902479 291.694155 
L 237.361983 314.223458 
L 238.591736 323.807315 
L 240.436364 336.045348 
L 242.280992 346.746751 
L 243.510744 352.611414 
L 244.740496 357.198165 
L 245.970248 360.668644 
L 247.2 363.156127 
L 247.814876 364.011232 
L 248.429752 364.585092 
L 249.044628 364.879475 
L 249.659504 364.91641 
L 250.27438 364.732422 
L 250.889256 364.369893 
L 252.119008 363.260621 
L 253.34876 361.670033 
L 255.193388 359.263552 
L 257.038017 356.750333 
L 259.497521 353.33934 
L 263.186777 347.077687 
L 265.031405 343.845828 
L 267.490909 339.948758 
L 269.335537 337.36671 
L 271.180165 335.166782 
L 273.024793 333.368443 
L 274.869421 331.901426 
L 276.71405 330.681711 
L 278.558678 329.648318 
L 279.78843 329.14696 
L 281.018182 328.886183 
L 282.86281 328.788062 
L 286.552066 328.857574 
L 288.396694 329.07651 
L 289.626446 329.41152 
L 291.471074 330.181536 
L 292.700826 330.862847 
L 293.315702 331.290449 
L 293.930579 331.870376 
L 294.545455 332.710878 
L 296.390083 334.599777 
L 297.004959 335.611272 
L 297.619835 336.916173 
L 300.079339 340.57155 
L 301.309091 343.588166 
L 301.923967 345.261188 
L 304.383471 348.637056 
L 305.613223 350.868744 
L 309.302479 358.037363 
L 311.761983 362.333241 
L 315.45124 369.495611 
L 319.755372 376.926537 
L 322.214876 380.529295 
L 324.059504 382.967368 
L 325.904132 385.064956 
L 328.363636 387.445267 
L 336.357025 394.789213 
L 338.816529 397.630943 
L 341.276033 400.899007 
L 342.505785 402.808849 
L 343.735537 405.248182 
L 344.965289 408.493798 
L 346.195041 412.654935 
L 347.424793 417.742529 
L 349.884298 429.238073 
L 350.499174 432.03059 
L 351.11405 433.709971 
L 351.728926 433.726745 
L 352.343802 433.189092 
L 352.958678 433.286443 
L 353.573554 433.991798 
L 354.18843 434.368566 
L 354.803306 434.34434 
L 355.418182 434.720535 
L 356.033058 435.807711 
L 357.26281 438.861055 
L 357.877686 438.962908 
L 358.492562 438.17096 
L 359.107438 437.153565 
L 359.722314 436.59875 
L 360.952066 436.485507 
L 361.566942 436.202158 
L 362.181818 435.268674 
L 363.41157 433.117247 
L 364.026446 432.5902 
L 364.641322 432.257124 
L 365.871074 431.288855 
L 366.48595 430.511349 
L 367.715702 428.203053 
L 368.330579 427.330507 
L 369.560331 425.876118 
L 370.790083 424.192026 
L 372.019835 423.363337 
L 373.864463 421.53415 
L 374.479339 420.416244 
L 376.323967 414.5692 
L 376.938843 413.572119 
L 377.553719 412.265533 
L 378.783471 408.363163 
L 379.398347 407.340059 
L 380.013223 406.792346 
L 380.628099 405.084721 
L 381.857851 401.031411 
L 382.472727 399.474625 
L 383.087603 398.749155 
L 383.702479 398.418867 
L 385.547107 395.342917 
L 386.161983 394.892329 
L 386.77686 395.029344 
L 387.391736 395.431392 
L 388.006612 395.047372 
L 389.85124 392.91216 
L 390.466116 392.778908 
L 391.080992 393.207221 
L 395.385124 397.502227 
L 396 398.426382 
L 397.229752 400.873784 
L 400.304132 408.140152 
L 406.452893 423.366951 
L 408.297521 427.018383 
L 409.527273 428.91802 
L 410.757025 430.351421 
L 412.601653 432.032823 
L 413.831405 432.816508 
L 415.061157 433.242833 
L 418.135537 433.768551 
L 419.365289 434.296067 
L 420.595041 435.036135 
L 421.824793 435.966422 
L 424.284298 438.24716 
L 426.128926 439.789826 
L 426.743802 440.161969 
L 427.973554 440.509225 
L 429.818182 440.664507 
L 431.047934 440.555856 
L 432.277686 440.168305 
L 434.73719 439.25313 
L 436.581818 438.956451 
L 439.656198 438.803902 
L 440.88595 438.719191 
L 442.115702 438.408478 
L 443.345455 437.746978 
L 444.575207 436.721615 
L 445.804959 435.365094 
L 447.649587 432.83421 
L 450.109091 429.356228 
L 451.338843 428.028589 
L 451.953719 427.595469 
L 452.568595 427.371443 
L 453.183471 427.380672 
L 453.798347 427.624635 
L 454.413223 428.083545 
L 455.642975 429.507922 
L 457.487603 432.121011 
L 458.102479 432.267986 
L 458.717355 432.092847 
L 459.332231 431.723667 
L 461.791736 428.90098 
L 462.406612 428.425834 
L 463.021488 428.205435 
L 464.25124 428.110383 
L 464.866116 427.7163 
L 465.480992 426.851354 
L 466.710744 424.038328 
L 468.555372 419.804642 
L 469.785124 416.944057 
L 472.859504 408.502435 
L 474.704132 404.870335 
L 476.54876 401.527027 
L 477.778512 399.771736 
L 480.238017 396.662575 
L 482.082645 393.733064 
L 483.927273 390.464633 
L 485.771901 386.522393 
L 488.846281 379.799551 
L 489.461157 378.85303 
L 490.690909 377.455722 
L 491.920661 376.44508 
L 493.150413 375.349089 
L 495.609917 373.1356 
L 496.224793 372.826024 
L 496.839669 372.693404 
L 497.454545 372.72614 
L 498.069421 373.010533 
L 498.684298 373.564487 
L 499.299174 374.318868 
L 499.91405 375.310125 
L 500.528926 376.75174 
L 502.98843 384.402244 
L 507.907438 401.830013 
L 509.13719 407.375295 
L 510.981818 416.652914 
L 514.671074 437.653773 
L 517.745455 456.069188 
L 520.204959 471.787382 
L 525.123967 503.330401 
L 526.968595 513.908033 
L 528.813223 523.197487 
L 530.042975 528.456653 
L 531.272727 532.94117 
L 532.502479 536.632249 
L 533.732231 539.646995 
L 534.961983 541.965688 
L 536.191736 543.759435 
L 537.421488 544.996147 
L 538.65124 545.860955 
L 539.880992 546.353421 
L 541.72562 546.742619 
L 544.8 547.105809 
L 546.029752 547.397856 
L 547.259504 547.906847 
L 548.489256 548.580896 
L 549.719008 549.492417 
L 551.563636 551.184508 
L 554.02314 553.980544 
L 557.712397 558.353506 
L 558.942149 559.506563 
L 560.171901 560.284126 
L 560.786777 560.522099 
L 561.401653 560.636229 
L 562.016529 560.603373 
L 562.631405 560.413846 
L 563.246281 560.066572 
L 563.861157 559.55198 
L 564.476033 558.846016 
L 565.090909 557.922242 
L 565.705785 556.765029 
L 566.935537 553.715565 
L 568.165289 549.555014 
L 569.395041 544.145402 
L 570.624793 537.66868 
L 572.469421 526.319524 
L 576.158678 502.278668 
L 577.38843 495.803255 
L 578.618182 490.840601 
L 579.233058 488.951596 
L 579.847934 487.432582 
L 580.46281 486.248708 
L 581.077686 485.358215 
L 581.692562 484.716751 
L 582.307438 484.280892 
L 582.922314 484.006339 
L 584.152066 483.797407 
L 585.381818 483.873597 
L 586.61157 484.274268 
L 588.456198 485.241114 
L 589.071074 485.568864 
L 589.68595 486.084526 
L 590.915702 487.647573 
L 592.760331 490.301085 
L 593.990083 492.960271 
L 597.064463 500.787623 
L 598.294215 504.879602 
L 598.909091 506.417599 
L 600.138843 508.415227 
L 600.753719 509.895229 
L 601.983471 513.746974 
L 602.598347 514.972228 
L 603.213223 515.336249 
L 604.442975 514.996097 
L 605.057851 515.060051 
L 606.287603 515.718041 
L 606.902479 515.840486 
L 608.132231 520.380229 
L 608.747107 521.980607 
L 609.97686 524.636801 
L 612.436364 530.330741 
L 613.666116 532.880666 
L 614.895868 534.768266 
L 616.12562 536.002222 
L 617.355372 536.83874 
L 618.585124 537.287519 
L 620.429752 537.51087 
L 621.659504 537.600385 
L 622.27438 537.281441 
L 623.504132 536.943907 
L 625.34876 536.601325 
L 628.42314 535.539008 
L 629.038017 534.098818 
L 631.497521 534.023718 
L 632.112397 533.877028 
L 632.727273 533.54657 
L 633.957025 532.295131 
L 635.801653 530.242837 
L 637.031405 529.080022 
L 637.031405 529.080022 
" style="fill:none;stroke:#ffff14;stroke-linecap:square;stroke-width:1.5;"/>
   </g>
   <g id="patch_3">
    <path d="M 172.8 629.9064 
L 172.8 84.9312 
" style="fill:none;stroke:#000000;stroke-linecap:square;stroke-linejoin:miter;stroke-width:0.8;"/>
   </g>
   <g id="patch_4">
    <path d="M 659.781818 629.9064 
L 659.781818 84.9312 
" style="fill:none;stroke:#000000;stroke-linecap:square;stroke-linejoin:miter;stroke-width:0.8;"/>
   </g>
   <g id="patch_5">
    <path d="M 172.8 629.9064 
L 659.781818 629.9064 
" style="fill:none;stroke:#000000;stroke-linecap:square;stroke-linejoin:miter;stroke-width:0.8;"/>
   </g>
   <g id="patch_6">
    <path d="M 172.8 84.9312 
L 659.781818 84.9312 
" style="fill:none;stroke:#000000;stroke-linecap:square;stroke-linejoin:miter;stroke-width:0.8;"/>
   </g>
   <g id="text_18">
    <!-- Right abduction -->
    <defs>
     <path d="M 44.390625 34.1875 
Q 47.5625 33.109375 50.5625 29.59375 
Q 53.5625 26.078125 56.59375 19.921875 
L 66.609375 0 
L 56 0 
L 46.6875 18.703125 
Q 43.0625 26.03125 39.671875 28.421875 
Q 36.28125 30.8125 30.421875 30.8125 
L 19.671875 30.8125 
L 19.671875 0 
L 9.8125 0 
L 9.8125 72.90625 
L 32.078125 72.90625 
Q 44.578125 72.90625 50.734375 67.671875 
Q 56.890625 62.453125 56.890625 51.90625 
Q 56.890625 45.015625 53.6875 40.46875 
Q 50.484375 35.9375 44.390625 34.1875 
z
M 19.671875 64.796875 
L 19.671875 38.921875 
L 32.078125 38.921875 
Q 39.203125 38.921875 42.84375 42.21875 
Q 46.484375 45.515625 46.484375 51.90625 
Q 46.484375 58.296875 42.84375 61.546875 
Q 39.203125 64.796875 32.078125 64.796875 
z
" id="DejaVuSans-82"/>
     <path d="M 9.421875 54.6875 
L 18.40625 54.6875 
L 18.40625 0 
L 9.421875 0 
z
M 9.421875 75.984375 
L 18.40625 75.984375 
L 18.40625 64.59375 
L 9.421875 64.59375 
z
" id="DejaVuSans-105"/>
     <path d="M 45.40625 27.984375 
Q 45.40625 37.75 41.375 43.109375 
Q 37.359375 48.484375 30.078125 48.484375 
Q 22.859375 48.484375 18.828125 43.109375 
Q 14.796875 37.75 14.796875 27.984375 
Q 14.796875 18.265625 18.828125 12.890625 
Q 22.859375 7.515625 30.078125 7.515625 
Q 37.359375 7.515625 41.375 12.890625 
Q 45.40625 18.265625 45.40625 27.984375 
z
M 54.390625 6.78125 
Q 54.390625 -7.171875 48.1875 -13.984375 
Q 42 -20.796875 29.203125 -20.796875 
Q 24.46875 -20.796875 20.265625 -20.09375 
Q 16.0625 -19.390625 12.109375 -17.921875 
L 12.109375 -9.1875 
Q 16.0625 -11.328125 19.921875 -12.34375 
Q 23.78125 -13.375 27.78125 -13.375 
Q 36.625 -13.375 41.015625 -8.765625 
Q 45.40625 -4.15625 45.40625 5.171875 
L 45.40625 9.625 
Q 42.625 4.78125 38.28125 2.390625 
Q 33.9375 0 27.875 0 
Q 17.828125 0 11.671875 7.65625 
Q 5.515625 15.328125 5.515625 27.984375 
Q 5.515625 40.671875 11.671875 48.328125 
Q 17.828125 56 27.875 56 
Q 33.9375 56 38.28125 53.609375 
Q 42.625 51.21875 45.40625 46.390625 
L 45.40625 54.6875 
L 54.390625 54.6875 
z
" id="DejaVuSans-103"/>
     <path d="M 54.890625 33.015625 
L 54.890625 0 
L 45.90625 0 
L 45.90625 32.71875 
Q 45.90625 40.484375 42.875 44.328125 
Q 39.84375 48.1875 33.796875 48.1875 
Q 26.515625 48.1875 22.3125 43.546875 
Q 18.109375 38.921875 18.109375 30.90625 
L 18.109375 0 
L 9.078125 0 
L 9.078125 75.984375 
L 18.109375 75.984375 
L 18.109375 46.1875 
Q 21.34375 51.125 25.703125 53.5625 
Q 30.078125 56 35.796875 56 
Q 45.21875 56 50.046875 50.171875 
Q 54.890625 44.34375 54.890625 33.015625 
z
" id="DejaVuSans-104"/>
     <path d="M 18.3125 70.21875 
L 18.3125 54.6875 
L 36.8125 54.6875 
L 36.8125 47.703125 
L 18.3125 47.703125 
L 18.3125 18.015625 
Q 18.3125 11.328125 20.140625 9.421875 
Q 21.96875 7.515625 27.59375 7.515625 
L 36.8125 7.515625 
L 36.8125 0 
L 27.59375 0 
Q 17.1875 0 13.234375 3.875 
Q 9.28125 7.765625 9.28125 18.015625 
L 9.28125 47.703125 
L 2.6875 47.703125 
L 2.6875 54.6875 
L 9.28125 54.6875 
L 9.28125 70.21875 
z
" id="DejaVuSans-116"/>
     <path id="DejaVuSans-32"/>
     <path d="M 34.28125 27.484375 
Q 23.390625 27.484375 19.1875 25 
Q 14.984375 22.515625 14.984375 16.5 
Q 14.984375 11.71875 18.140625 8.90625 
Q 21.296875 6.109375 26.703125 6.109375 
Q 34.1875 6.109375 38.703125 11.40625 
Q 43.21875 16.703125 43.21875 25.484375 
L 43.21875 27.484375 
z
M 52.203125 31.203125 
L 52.203125 0 
L 43.21875 0 
L 43.21875 8.296875 
Q 40.140625 3.328125 35.546875 0.953125 
Q 30.953125 -1.421875 24.3125 -1.421875 
Q 15.921875 -1.421875 10.953125 3.296875 
Q 6 8.015625 6 15.921875 
Q 6 25.140625 12.171875 29.828125 
Q 18.359375 34.515625 30.609375 34.515625 
L 43.21875 34.515625 
L 43.21875 35.40625 
Q 43.21875 41.609375 39.140625 45 
Q 35.0625 48.390625 27.6875 48.390625 
Q 23 48.390625 18.546875 47.265625 
Q 14.109375 46.140625 10.015625 43.890625 
L 10.015625 52.203125 
Q 14.9375 54.109375 19.578125 55.046875 
Q 24.21875 56 28.609375 56 
Q 40.484375 56 46.34375 49.84375 
Q 52.203125 43.703125 52.203125 31.203125 
z
" id="DejaVuSans-97"/>
     <path d="M 48.6875 27.296875 
Q 48.6875 37.203125 44.609375 42.84375 
Q 40.53125 48.484375 33.40625 48.484375 
Q 26.265625 48.484375 22.1875 42.84375 
Q 18.109375 37.203125 18.109375 27.296875 
Q 18.109375 17.390625 22.1875 11.75 
Q 26.265625 6.109375 33.40625 6.109375 
Q 40.53125 6.109375 44.609375 11.75 
Q 48.6875 17.390625 48.6875 27.296875 
z
M 18.109375 46.390625 
Q 20.953125 51.265625 25.265625 53.625 
Q 29.59375 56 35.59375 56 
Q 45.5625 56 51.78125 48.09375 
Q 58.015625 40.1875 58.015625 27.296875 
Q 58.015625 14.40625 51.78125 6.484375 
Q 45.5625 -1.421875 35.59375 -1.421875 
Q 29.59375 -1.421875 25.265625 0.953125 
Q 20.953125 3.328125 18.109375 8.203125 
L 18.109375 0 
L 9.078125 0 
L 9.078125 75.984375 
L 18.109375 75.984375 
z
" id="DejaVuSans-98"/>
     <path d="M 45.40625 46.390625 
L 45.40625 75.984375 
L 54.390625 75.984375 
L 54.390625 0 
L 45.40625 0 
L 45.40625 8.203125 
Q 42.578125 3.328125 38.25 0.953125 
Q 33.9375 -1.421875 27.875 -1.421875 
Q 17.96875 -1.421875 11.734375 6.484375 
Q 5.515625 14.40625 5.515625 27.296875 
Q 5.515625 40.1875 11.734375 48.09375 
Q 17.96875 56 27.875 56 
Q 33.9375 56 38.25 53.625 
Q 42.578125 51.265625 45.40625 46.390625 
z
M 14.796875 27.296875 
Q 14.796875 17.390625 18.875 11.75 
Q 22.953125 6.109375 30.078125 6.109375 
Q 37.203125 6.109375 41.296875 11.75 
Q 45.40625 17.390625 45.40625 27.296875 
Q 45.40625 37.203125 41.296875 42.84375 
Q 37.203125 48.484375 30.078125 48.484375 
Q 22.953125 48.484375 18.875 42.84375 
Q 14.796875 37.203125 14.796875 27.296875 
z
" id="DejaVuSans-100"/>
     <path d="M 8.5 21.578125 
L 8.5 54.6875 
L 17.484375 54.6875 
L 17.484375 21.921875 
Q 17.484375 14.15625 20.5 10.265625 
Q 23.53125 6.390625 29.59375 6.390625 
Q 36.859375 6.390625 41.078125 11.03125 
Q 45.3125 15.671875 45.3125 23.6875 
L 45.3125 54.6875 
L 54.296875 54.6875 
L 54.296875 0 
L 45.3125 0 
L 45.3125 8.40625 
Q 42.046875 3.421875 37.71875 1 
Q 33.40625 -1.421875 27.6875 -1.421875 
Q 18.265625 -1.421875 13.375 4.4375 
Q 8.5 10.296875 8.5 21.578125 
z
M 31.109375 56 
z
" id="DejaVuSans-117"/>
     <path d="M 48.78125 52.59375 
L 48.78125 44.1875 
Q 44.96875 46.296875 41.140625 47.34375 
Q 37.3125 48.390625 33.40625 48.390625 
Q 24.65625 48.390625 19.8125 42.84375 
Q 14.984375 37.3125 14.984375 27.296875 
Q 14.984375 17.28125 19.8125 11.734375 
Q 24.65625 6.203125 33.40625 6.203125 
Q 37.3125 6.203125 41.140625 7.25 
Q 44.96875 8.296875 48.78125 10.40625 
L 48.78125 2.09375 
Q 45.015625 0.34375 40.984375 -0.53125 
Q 36.96875 -1.421875 32.421875 -1.421875 
Q 20.0625 -1.421875 12.78125 6.34375 
Q 5.515625 14.109375 5.515625 27.296875 
Q 5.515625 40.671875 12.859375 48.328125 
Q 20.21875 56 33.015625 56 
Q 37.15625 56 41.109375 55.140625 
Q 45.0625 54.296875 48.78125 52.59375 
z
" id="DejaVuSans-99"/>
     <path d="M 30.609375 48.390625 
Q 23.390625 48.390625 19.1875 42.75 
Q 14.984375 37.109375 14.984375 27.296875 
Q 14.984375 17.484375 19.15625 11.84375 
Q 23.34375 6.203125 30.609375 6.203125 
Q 37.796875 6.203125 41.984375 11.859375 
Q 46.1875 17.53125 46.1875 27.296875 
Q 46.1875 37.015625 41.984375 42.703125 
Q 37.796875 48.390625 30.609375 48.390625 
z
M 30.609375 56 
Q 42.328125 56 49.015625 48.375 
Q 55.71875 40.765625 55.71875 27.296875 
Q 55.71875 13.875 49.015625 6.21875 
Q 42.328125 -1.421875 30.609375 -1.421875 
Q 18.84375 -1.421875 12.171875 6.21875 
Q 5.515625 13.875 5.515625 27.296875 
Q 5.515625 40.765625 12.171875 48.375 
Q 18.84375 56 30.609375 56 
z
" id="DejaVuSans-111"/>
     <path d="M 54.890625 33.015625 
L 54.890625 0 
L 45.90625 0 
L 45.90625 32.71875 
Q 45.90625 40.484375 42.875 44.328125 
Q 39.84375 48.1875 33.796875 48.1875 
Q 26.515625 48.1875 22.3125 43.546875 
Q 18.109375 38.921875 18.109375 30.90625 
L 18.109375 0 
L 9.078125 0 
L 9.078125 54.6875 
L 18.109375 54.6875 
L 18.109375 46.1875 
Q 21.34375 51.125 25.703125 53.5625 
Q 30.078125 56 35.796875 56 
Q 45.21875 56 50.046875 50.171875 
Q 54.890625 44.34375 54.890625 33.015625 
z
" id="DejaVuSans-110"/>
    </defs>
    <g transform="translate(368.694972 78.9312)scale(0.12 -0.12)">
     <use xlink:href="#DejaVuSans-82"/>
     <use x="69.482422" xlink:href="#DejaVuSans-105"/>
     <use x="97.265625" xlink:href="#DejaVuSans-103"/>
     <use x="160.742188" xlink:href="#DejaVuSans-104"/>
     <use x="224.121094" xlink:href="#DejaVuSans-116"/>
     <use x="263.330078" xlink:href="#DejaVuSans-32"/>
     <use x="295.117188" xlink:href="#DejaVuSans-97"/>
     <use x="356.396484" xlink:href="#DejaVuSans-98"/>
     <use x="419.873047" xlink:href="#DejaVuSans-100"/>
     <use x="483.349609" xlink:href="#DejaVuSans-117"/>
     <use x="546.728516" xlink:href="#DejaVuSans-99"/>
     <use x="601.708984" xlink:href="#DejaVuSans-116"/>
     <use x="640.917969" xlink:href="#DejaVuSans-105"/>
     <use x="668.701172" xlink:href="#DejaVuSans-111"/>
     <use x="729.882812" xlink:href="#DejaVuSans-110"/>
    </g>
   </g>
  </g>
  <g id="axes_2">
   <g id="patch_7">
    <path d="M 757.178182 629.9064 
L 1244.16 629.9064 
L 1244.16 84.9312 
L 757.178182 84.9312 
z
" style="fill:#ffffff;"/>
   </g>
   <g id="matplotlib.axis_3">
    <g id="xtick_9">
     <g id="line2d_22">
      <g>
       <use style="stroke:#000000;stroke-width:0.8;" x="779.313719" xlink:href="#mc1e5c40b54" y="629.9064"/>
      </g>
     </g>
     <g id="text_19">
      <!-- 0 -->
      <g transform="translate(776.132469 644.504838)scale(0.1 -0.1)">
       <use xlink:href="#DejaVuSans-48"/>
      </g>
     </g>
    </g>
    <g id="xtick_10">
     <g id="line2d_23">
      <g>
       <use style="stroke:#000000;stroke-width:0.8;" x="840.801322" xlink:href="#mc1e5c40b54" y="629.9064"/>
      </g>
     </g>
     <g id="text_20">
      <!-- 100 -->
      <g transform="translate(831.257572 644.504838)scale(0.1 -0.1)">
       <use xlink:href="#DejaVuSans-49"/>
       <use x="63.623047" xlink:href="#DejaVuSans-48"/>
       <use x="127.246094" xlink:href="#DejaVuSans-48"/>
      </g>
     </g>
    </g>
    <g id="xtick_11">
     <g id="line2d_24">
      <g>
       <use style="stroke:#000000;stroke-width:0.8;" x="902.288926" xlink:href="#mc1e5c40b54" y="629.9064"/>
      </g>
     </g>
     <g id="text_21">
      <!-- 200 -->
      <g transform="translate(892.745176 644.504838)scale(0.1 -0.1)">
       <use xlink:href="#DejaVuSans-50"/>
       <use x="63.623047" xlink:href="#DejaVuSans-48"/>
       <use x="127.246094" xlink:href="#DejaVuSans-48"/>
      </g>
     </g>
    </g>
    <g id="xtick_12">
     <g id="line2d_25">
      <g>
       <use style="stroke:#000000;stroke-width:0.8;" x="963.776529" xlink:href="#mc1e5c40b54" y="629.9064"/>
      </g>
     </g>
     <g id="text_22">
      <!-- 300 -->
      <g transform="translate(954.232779 644.504838)scale(0.1 -0.1)">
       <use xlink:href="#DejaVuSans-51"/>
       <use x="63.623047" xlink:href="#DejaVuSans-48"/>
       <use x="127.246094" xlink:href="#DejaVuSans-48"/>
      </g>
     </g>
    </g>
    <g id="xtick_13">
     <g id="line2d_26">
      <g>
       <use style="stroke:#000000;stroke-width:0.8;" x="1025.264132" xlink:href="#mc1e5c40b54" y="629.9064"/>
      </g>
     </g>
     <g id="text_23">
      <!-- 400 -->
      <g transform="translate(1015.720382 644.504838)scale(0.1 -0.1)">
       <use xlink:href="#DejaVuSans-52"/>
       <use x="63.623047" xlink:href="#DejaVuSans-48"/>
       <use x="127.246094" xlink:href="#DejaVuSans-48"/>
      </g>
     </g>
    </g>
    <g id="xtick_14">
     <g id="line2d_27">
      <g>
       <use style="stroke:#000000;stroke-width:0.8;" x="1086.751736" xlink:href="#mc1e5c40b54" y="629.9064"/>
      </g>
     </g>
     <g id="text_24">
      <!-- 500 -->
      <g transform="translate(1077.207986 644.504838)scale(0.1 -0.1)">
       <use xlink:href="#DejaVuSans-53"/>
       <use x="63.623047" xlink:href="#DejaVuSans-48"/>
       <use x="127.246094" xlink:href="#DejaVuSans-48"/>
      </g>
     </g>
    </g>
    <g id="xtick_15">
     <g id="line2d_28">
      <g>
       <use style="stroke:#000000;stroke-width:0.8;" x="1148.239339" xlink:href="#mc1e5c40b54" y="629.9064"/>
      </g>
     </g>
     <g id="text_25">
      <!-- 600 -->
      <g transform="translate(1138.695589 644.504838)scale(0.1 -0.1)">
       <use xlink:href="#DejaVuSans-54"/>
       <use x="63.623047" xlink:href="#DejaVuSans-48"/>
       <use x="127.246094" xlink:href="#DejaVuSans-48"/>
      </g>
     </g>
    </g>
    <g id="xtick_16">
     <g id="line2d_29">
      <g>
       <use style="stroke:#000000;stroke-width:0.8;" x="1209.726942" xlink:href="#mc1e5c40b54" y="629.9064"/>
      </g>
     </g>
     <g id="text_26">
      <!-- 700 -->
      <g transform="translate(1200.183192 644.504838)scale(0.1 -0.1)">
       <use xlink:href="#DejaVuSans-55"/>
       <use x="63.623047" xlink:href="#DejaVuSans-48"/>
       <use x="127.246094" xlink:href="#DejaVuSans-48"/>
      </g>
     </g>
    </g>
   </g>
   <g id="matplotlib.axis_4">
    <g id="ytick_10">
     <g id="line2d_30">
      <g>
       <use style="stroke:#000000;stroke-width:0.8;" x="757.178182" xlink:href="#m6d7feab54b" y="621.138638"/>
      </g>
     </g>
     <g id="text_27">
      <!-- −1.00 -->
      <g transform="translate(719.532869 624.937857)scale(0.1 -0.1)">
       <use xlink:href="#DejaVuSans-8722"/>
       <use x="83.789062" xlink:href="#DejaVuSans-49"/>
       <use x="147.412109" xlink:href="#DejaVuSans-46"/>
       <use x="179.199219" xlink:href="#DejaVuSans-48"/>
       <use x="242.822266" xlink:href="#DejaVuSans-48"/>
      </g>
     </g>
    </g>
    <g id="ytick_11">
     <g id="line2d_31">
      <g>
       <use style="stroke:#000000;stroke-width:0.8;" x="757.178182" xlink:href="#m6d7feab54b" y="560.0117"/>
      </g>
     </g>
     <g id="text_28">
      <!-- −0.75 -->
      <g transform="translate(719.532869 563.810919)scale(0.1 -0.1)">
       <use xlink:href="#DejaVuSans-8722"/>
       <use x="83.789062" xlink:href="#DejaVuSans-48"/>
       <use x="147.412109" xlink:href="#DejaVuSans-46"/>
       <use x="179.199219" xlink:href="#DejaVuSans-55"/>
       <use x="242.822266" xlink:href="#DejaVuSans-53"/>
      </g>
     </g>
    </g>
    <g id="ytick_12">
     <g id="line2d_32">
      <g>
       <use style="stroke:#000000;stroke-width:0.8;" x="757.178182" xlink:href="#m6d7feab54b" y="498.884762"/>
      </g>
     </g>
     <g id="text_29">
      <!-- −0.50 -->
      <g transform="translate(719.532869 502.683981)scale(0.1 -0.1)">
       <use xlink:href="#DejaVuSans-8722"/>
       <use x="83.789062" xlink:href="#DejaVuSans-48"/>
       <use x="147.412109" xlink:href="#DejaVuSans-46"/>
       <use x="179.199219" xlink:href="#DejaVuSans-53"/>
       <use x="242.822266" xlink:href="#DejaVuSans-48"/>
      </g>
     </g>
    </g>
    <g id="ytick_13">
     <g id="line2d_33">
      <g>
       <use style="stroke:#000000;stroke-width:0.8;" x="757.178182" xlink:href="#m6d7feab54b" y="437.757824"/>
      </g>
     </g>
     <g id="text_30">
      <!-- −0.25 -->
      <g transform="translate(719.532869 441.557043)scale(0.1 -0.1)">
       <use xlink:href="#DejaVuSans-8722"/>
       <use x="83.789062" xlink:href="#DejaVuSans-48"/>
       <use x="147.412109" xlink:href="#DejaVuSans-46"/>
       <use x="179.199219" xlink:href="#DejaVuSans-50"/>
       <use x="242.822266" xlink:href="#DejaVuSans-53"/>
      </g>
     </g>
    </g>
    <g id="ytick_14">
     <g id="line2d_34">
      <g>
       <use style="stroke:#000000;stroke-width:0.8;" x="757.178182" xlink:href="#m6d7feab54b" y="376.630886"/>
      </g>
     </g>
     <g id="text_31">
      <!-- 0.00 -->
      <g transform="translate(727.912557 380.430104)scale(0.1 -0.1)">
       <use xlink:href="#DejaVuSans-48"/>
       <use x="63.623047" xlink:href="#DejaVuSans-46"/>
       <use x="95.410156" xlink:href="#DejaVuSans-48"/>
       <use x="159.033203" xlink:href="#DejaVuSans-48"/>
      </g>
     </g>
    </g>
    <g id="ytick_15">
     <g id="line2d_35">
      <g>
       <use style="stroke:#000000;stroke-width:0.8;" x="757.178182" xlink:href="#m6d7feab54b" y="315.503948"/>
      </g>
     </g>
     <g id="text_32">
      <!-- 0.25 -->
      <g transform="translate(727.912557 319.303166)scale(0.1 -0.1)">
       <use xlink:href="#DejaVuSans-48"/>
       <use x="63.623047" xlink:href="#DejaVuSans-46"/>
       <use x="95.410156" xlink:href="#DejaVuSans-50"/>
       <use x="159.033203" xlink:href="#DejaVuSans-53"/>
      </g>
     </g>
    </g>
    <g id="ytick_16">
     <g id="line2d_36">
      <g>
       <use style="stroke:#000000;stroke-width:0.8;" x="757.178182" xlink:href="#m6d7feab54b" y="254.377009"/>
      </g>
     </g>
     <g id="text_33">
      <!-- 0.50 -->
      <g transform="translate(727.912557 258.176228)scale(0.1 -0.1)">
       <use xlink:href="#DejaVuSans-48"/>
       <use x="63.623047" xlink:href="#DejaVuSans-46"/>
       <use x="95.410156" xlink:href="#DejaVuSans-53"/>
       <use x="159.033203" xlink:href="#DejaVuSans-48"/>
      </g>
     </g>
    </g>
    <g id="ytick_17">
     <g id="line2d_37">
      <g>
       <use style="stroke:#000000;stroke-width:0.8;" x="757.178182" xlink:href="#m6d7feab54b" y="193.250071"/>
      </g>
     </g>
     <g id="text_34">
      <!-- 0.75 -->
      <g transform="translate(727.912557 197.04929)scale(0.1 -0.1)">
       <use xlink:href="#DejaVuSans-48"/>
       <use x="63.623047" xlink:href="#DejaVuSans-46"/>
       <use x="95.410156" xlink:href="#DejaVuSans-55"/>
       <use x="159.033203" xlink:href="#DejaVuSans-53"/>
      </g>
     </g>
    </g>
    <g id="ytick_18">
     <g id="line2d_38">
      <g>
       <use style="stroke:#000000;stroke-width:0.8;" x="757.178182" xlink:href="#m6d7feab54b" y="132.123133"/>
      </g>
     </g>
     <g id="text_35">
      <!-- 1.00 -->
      <g transform="translate(727.912557 135.922352)scale(0.1 -0.1)">
       <use xlink:href="#DejaVuSans-49"/>
       <use x="63.623047" xlink:href="#DejaVuSans-46"/>
       <use x="95.410156" xlink:href="#DejaVuSans-48"/>
       <use x="159.033203" xlink:href="#DejaVuSans-48"/>
      </g>
     </g>
    </g>
   </g>
   <g id="line2d_39">
    <path clip-path="url(#p7ec40e4497)" d="M 779.313719 365.266476 
L 779.928595 364.455238 
L 781.158347 389.026818 
L 781.773223 387.037538 
L 783.002975 373.1769 
L 783.617851 374.415179 
L 784.232727 380.676835 
L 784.847603 383.923664 
L 785.462479 383.587958 
L 786.692231 376.32051 
L 787.307107 374.894836 
L 787.921983 376.425501 
L 788.53686 379.639958 
L 789.151736 382.129799 
L 789.766612 382.016863 
L 790.996364 377.295364 
L 791.61124 376.962634 
L 792.840992 380.783725 
L 793.455868 380.608436 
L 794.68562 375.659612 
L 795.300496 375.743886 
L 796.530248 379.243761 
L 797.145124 378.694747 
L 797.76 377.200942 
L 798.374876 377.002332 
L 798.989752 378.143264 
L 799.604628 378.537759 
L 800.83438 375.590546 
L 801.449256 375.824965 
L 802.064132 377.43241 
L 802.679008 378.152349 
L 803.293884 377.004081 
L 803.90876 375.522408 
L 804.523636 375.504758 
L 805.138512 376.507394 
L 805.753388 376.555755 
L 806.98314 373.610357 
L 807.598017 373.861652 
L 808.212893 375.020143 
L 808.827769 375.075753 
L 809.442645 373.687051 
L 810.057521 372.643003 
L 810.672397 373.197508 
L 811.287273 374.154034 
L 811.902149 373.751838 
L 812.517025 372.451623 
L 813.131901 372.182617 
L 813.746777 373.323992 
L 814.361653 374.127716 
L 815.591405 372.955597 
L 816.206281 373.781006 
L 816.821157 375.139455 
L 817.436033 375.357514 
L 818.050909 374.714997 
L 818.665785 374.842422 
L 819.895537 376.725693 
L 820.510413 376.73368 
L 821.740165 376.374058 
L 822.355041 376.361992 
L 823.584793 376.802311 
L 824.199669 377.026571 
L 824.814545 377.088338 
L 825.429421 376.944867 
L 827.888926 375.811377 
L 829.118678 375.823957 
L 830.34843 375.88813 
L 833.42281 375.549263 
L 834.652562 375.888588 
L 837.112066 376.789185 
L 838.341818 377.527582 
L 838.956694 377.566995 
L 840.186446 377.262015 
L 842.031074 377.245593 
L 843.260826 376.815327 
L 843.875702 376.794551 
L 845.105455 376.988514 
L 846.950083 376.920633 
L 848.794711 377.256347 
L 863.551736 376.812911 
L 871.545124 377.291156 
L 877.079008 376.606414 
L 877.693884 376.569787 
L 878.30876 376.415103 
L 878.923636 376.120658 
L 880.768264 376.608757 
L 881.38314 376.43537 
L 881.998017 376.051871 
L 883.842645 376.777006 
L 884.457521 376.738513 
L 886.302149 375.429172 
L 887.531901 376.824262 
L 888.146777 377.272563 
L 888.761653 377.414647 
L 889.376529 377.342305 
L 890.606281 376.815716 
L 891.836033 376.247298 
L 892.450909 376.105369 
L 893.680661 376.190489 
L 895.525289 376.608354 
L 896.755041 376.453414 
L 898.599669 376.04341 
L 900.444298 376.123742 
L 904.74843 376.364855 
L 907.207934 376.655119 
L 913.97157 376.86275 
L 928.113719 376.753215 
L 929.343471 376.735191 
L 931.188099 376.485823 
L 931.802975 376.19553 
L 933.032727 374.65107 
L 933.647603 374.466628 
L 934.262479 374.688488 
L 934.877355 372.873091 
L 935.492231 372.298705 
L 936.107107 374.578265 
L 936.721983 377.485894 
L 937.33686 378.192733 
L 937.951736 377.221666 
L 938.566612 377.210836 
L 939.181488 378.51807 
L 939.796364 379.224707 
L 940.41124 378.632955 
L 941.026116 377.195759 
L 941.640992 374.701821 
L 942.255868 374.738419 
L 943.48562 377.848387 
L 944.100496 378.244284 
L 944.715372 377.354323 
L 945.330248 376.944488 
L 945.945124 376.252677 
L 946.56 376.840585 
L 947.174876 377.879093 
L 947.789752 378.483029 
L 948.404628 378.054095 
L 949.019504 377.315595 
L 949.63438 377.380272 
L 950.249256 376.675253 
L 950.864132 376.599284 
L 952.093884 377.871419 
L 952.70876 377.836031 
L 953.323636 377.307058 
L 953.938512 377.199009 
L 954.553388 377.725095 
L 955.168264 377.911524 
L 956.398017 376.789626 
L 957.012893 376.97333 
L 957.627769 377.445797 
L 958.242645 375.904481 
L 958.857521 375.807209 
L 960.087273 379.724393 
L 960.702149 379.999569 
L 961.317025 378.493182 
L 961.931901 377.701019 
L 963.161653 380.142796 
L 963.776529 379.183904 
L 964.391405 376.33831 
L 965.006281 376.33066 
L 966.236033 378.880912 
L 966.850909 379.419528 
L 967.465785 378.441617 
L 968.080661 376.32241 
L 968.695537 376.626067 
L 969.925289 378.002551 
L 970.540165 378.015397 
L 971.155041 377.14041 
L 971.769917 374.909732 
L 972.384793 374.792937 
L 974.229421 378.037486 
L 974.844298 378.291998 
L 976.688926 376.58571 
L 977.303802 376.3103 
L 977.918678 376.308017 
L 980.378182 376.994908 
L 981.607934 376.626829 
L 982.837686 376.225417 
L 984.067438 376.219064 
L 985.29719 376.340709 
L 987.141818 375.999078 
L 988.37157 376.183347 
L 990.216198 376.184785 
L 992.060826 376.25895 
L 993.290579 376.187847 
L 994.520331 376.449743 
L 995.750083 376.761249 
L 996.979835 376.850199 
L 998.824463 376.881899 
L 1003.128595 377.291929 
L 1007.432727 376.869907 
L 1011.121983 376.183934 
L 1014.196364 376.508254 
L 1015.426116 376.558939 
L 1017.270744 376.941038 
L 1019.115372 377.24861 
L 1022.804628 377.384 
L 1024.649256 377.234507 
L 1027.723636 376.842324 
L 1030.18314 376.787699 
L 1032.642645 376.989747 
L 1036.946777 377.474242 
L 1038.176529 377.34176 
L 1040.021157 376.818949 
L 1040.636033 376.624074 
L 1041.250909 375.796789 
L 1041.865785 375.159889 
L 1043.095537 375.698646 
L 1043.710413 375.591729 
L 1044.325289 376.053299 
L 1044.940165 376.854734 
L 1045.555041 377.032427 
L 1046.169917 377.017935 
L 1046.784793 377.423199 
L 1047.399669 377.392612 
L 1049.244298 376.115027 
L 1049.859174 376.182495 
L 1051.703802 377.431024 
L 1052.318678 377.525053 
L 1054.163306 377.227951 
L 1054.778182 377.365949 
L 1056.007934 377.889488 
L 1056.62281 378.023955 
L 1057.237686 377.982029 
L 1059.69719 377.350009 
L 1061.541818 377.226363 
L 1064.001322 376.546386 
L 1065.231074 376.558174 
L 1070.150083 377.157441 
L 1071.379835 377.392686 
L 1071.994711 377.436236 
L 1073.224463 377.914327 
L 1073.839339 377.791024 
L 1074.454215 377.513246 
L 1075.683967 377.321268 
L 1076.298843 376.973674 
L 1076.913719 376.776994 
L 1078.143471 376.814626 
L 1078.758347 376.706575 
L 1080.602975 376.972779 
L 1081.217851 376.940131 
L 1082.447603 377.062049 
L 1083.062479 376.920236 
L 1083.677355 376.939584 
L 1084.292231 377.237373 
L 1084.907107 377.099385 
L 1085.521983 376.506994 
L 1086.13686 376.172274 
L 1087.366612 376.353103 
L 1088.596364 375.765011 
L 1089.826116 376.377924 
L 1090.440992 376.364456 
L 1091.055868 376.218845 
L 1091.670744 376.403636 
L 1092.28562 376.773573 
L 1092.900496 376.83973 
L 1093.515372 376.611474 
L 1094.130248 376.544753 
L 1094.745124 376.738781 
L 1095.36 376.798628 
L 1096.589752 376.356837 
L 1097.819504 376.603576 
L 1099.664132 376.394042 
L 1100.279008 376.602761 
L 1100.893884 376.629476 
L 1101.50876 376.479715 
L 1102.123636 376.44995 
L 1103.353388 376.656163 
L 1104.58314 376.360719 
L 1105.812893 376.466101 
L 1107.657521 376.183791 
L 1108.272397 376.269602 
L 1109.502149 376.064952 
L 1110.117025 376.01351 
L 1111.346777 376.096346 
L 1112.576529 375.915844 
L 1114.421157 376.044405 
L 1115.036033 376.009827 
L 1117.495537 376.266539 
L 1125.488926 376.912586 
L 1131.02281 376.912441 
L 1132.252562 376.869609 
L 1133.482314 376.85896 
L 1135.326942 376.798165 
L 1139.016198 376.746687 
L 1140.860826 376.721158 
L 1145.164959 376.866908 
L 1147.009587 376.972912 
L 1153.773223 377.641421 
L 1155.002975 377.94816 
L 1156.232727 378.176627 
L 1157.462479 378.519962 
L 1158.077355 378.580289 
L 1159.307107 378.399082 
L 1161.151736 377.869362 
L 1162.381488 377.290633 
L 1164.840992 375.922681 
L 1166.070744 375.496675 
L 1167.300496 375.324362 
L 1168.530248 375.325318 
L 1169.145124 375.451861 
L 1170.374876 376.080636 
L 1171.604628 376.586692 
L 1172.219504 377.012575 
L 1173.449256 378.094047 
L 1174.064132 378.117735 
L 1175.90876 376.81973 
L 1177.138512 376.506876 
L 1178.368264 375.80633 
L 1178.98314 375.734045 
L 1179.598017 376.077874 
L 1180.827769 377.131701 
L 1181.442645 377.257138 
L 1182.057521 376.768437 
L 1182.672397 376.011001 
L 1183.287273 375.976421 
L 1184.517025 377.806394 
L 1185.131901 377.729109 
L 1186.361653 375.31798 
L 1186.976529 375.097846 
L 1188.821157 378.229527 
L 1189.436033 378.291761 
L 1190.665785 377.036486 
L 1191.280661 376.850375 
L 1191.895537 372.266164 
L 1192.510413 369.002592 
L 1193.125289 368.71974 
L 1193.740165 371.158055 
L 1194.355041 374.168331 
L 1194.969917 376.500513 
L 1195.584793 377.244152 
L 1196.199669 376.321973 
L 1196.814545 374.377417 
L 1197.429421 372.854383 
L 1198.044298 372.174714 
L 1198.659174 372.478659 
L 1199.27405 373.602212 
L 1200.503802 376.503976 
L 1201.118678 377.379185 
L 1201.733554 377.648851 
L 1202.963306 377.511881 
L 1203.578182 377.644418 
L 1205.42281 378.684294 
L 1206.037686 378.758353 
L 1206.652562 379.216066 
L 1207.267438 378.271616 
L 1208.49719 375.023234 
L 1209.112066 373.826954 
L 1209.726942 373.537724 
L 1210.341818 373.979317 
L 1211.57157 375.786579 
L 1212.186446 376.349376 
L 1212.801322 376.58415 
L 1213.416198 377.981096 
L 1214.64595 376.145831 
L 1215.260826 375.787865 
L 1215.875702 376.078947 
L 1217.105455 377.901654 
L 1217.720331 378.349534 
L 1218.335207 377.594124 
L 1218.950083 376.642858 
L 1219.564959 376.113942 
L 1220.179835 375.976044 
L 1221.409587 376.345571 
L 1221.409587 376.345571 
" style="fill:none;stroke:#ff796c;stroke-linecap:square;stroke-width:1.5;"/>
   </g>
   <g id="line2d_40">
    <path clip-path="url(#p7ec40e4497)" d="M 779.313719 376.630886 
L 779.928595 376.730805 
L 780.543471 388.563426 
L 781.158347 410.091013 
L 781.773223 424.175935 
L 782.388099 421.380719 
L 783.617851 396.492893 
L 784.232727 389.03683 
L 784.847603 384.313832 
L 785.462479 375.756764 
L 786.077355 362.500896 
L 787.307107 331.424871 
L 787.921983 321.024204 
L 788.53686 315.103929 
L 789.151736 311.005399 
L 789.766612 305.206316 
L 790.381488 295.605522 
L 792.226116 259.610242 
L 793.455868 241.93659 
L 795.300496 207.029046 
L 795.915372 199.573063 
L 797.145124 189.953847 
L 802.064132 137.45978 
L 802.679008 134.491115 
L 803.293884 130.732674 
L 804.523636 120.380801 
L 805.138512 117.053972 
L 806.368264 112.877368 
L 806.98314 110.477836 
L 807.598017 109.7028 
L 808.212893 111.850337 
L 810.057521 124.174192 
L 810.672397 130.044882 
L 811.902149 148.385711 
L 813.131901 168.729946 
L 814.361653 195.631307 
L 818.050909 282.421149 
L 819.895537 317.577671 
L 820.510413 327.477933 
L 821.125289 335.52488 
L 822.355041 347.533729 
L 823.584793 356.66198 
L 824.199669 360.364417 
L 824.814545 363.318011 
L 825.429421 365.447648 
L 826.044298 366.849651 
L 827.888926 369.738015 
L 828.503802 371.280928 
L 829.118678 373.316476 
L 830.34843 378.435442 
L 832.193058 387.14106 
L 833.42281 393.821876 
L 837.112066 415.744762 
L 837.726942 418.273616 
L 838.341818 420.130584 
L 838.956694 421.102415 
L 839.57157 421.116809 
L 840.186446 420.337701 
L 841.416198 417.557507 
L 842.64595 413.954946 
L 843.875702 410.237015 
L 845.105455 407.506761 
L 847.564959 403.262708 
L 848.794711 401.249865 
L 850.024463 398.527412 
L 851.869091 393.415077 
L 854.328595 385.83764 
L 857.402975 376.240528 
L 859.247603 371.309358 
L 860.477355 368.658258 
L 861.707107 366.562308 
L 862.93686 364.998589 
L 866.626116 361.202383 
L 867.855868 359.513493 
L 869.08562 357.44852 
L 870.315372 354.716158 
L 871.545124 351.126079 
L 874.619504 341.139022 
L 875.849256 338.203961 
L 876.464132 337.116823 
L 877.079008 336.285232 
L 877.693884 335.69867 
L 878.923636 334.909159 
L 879.538512 334.419168 
L 880.153388 335.109762 
L 881.38314 336.939009 
L 881.998017 337.277111 
L 882.612893 337.330045 
L 884.457521 342.090076 
L 885.072397 342.999074 
L 886.302149 343.32184 
L 886.917025 343.909544 
L 888.146777 349.922941 
L 888.761653 352.186172 
L 889.376529 353.521566 
L 889.991405 354.060423 
L 890.606281 354.04555 
L 891.836033 353.494188 
L 892.450909 353.499093 
L 893.065785 353.93519 
L 893.680661 354.835078 
L 894.910413 357.57253 
L 896.140165 360.291334 
L 896.755041 361.241686 
L 898.599669 363.544415 
L 899.214545 364.695783 
L 900.444298 367.794131 
L 903.518678 376.768432 
L 906.593058 386.349553 
L 907.82281 389.234485 
L 909.052562 391.386822 
L 910.282314 392.984585 
L 911.512066 394.056211 
L 912.126942 394.374645 
L 912.741818 394.548133 
L 913.97157 394.555317 
L 915.201322 394.251642 
L 917.04595 393.537472 
L 921.350083 391.706211 
L 922.579835 391.427816 
L 923.809587 391.337464 
L 925.039339 391.431724 
L 926.269091 391.712017 
L 927.498843 392.26522 
L 928.728595 392.900133 
L 929.958347 393.187396 
L 931.802975 393.321162 
L 932.417851 393.601899 
L 933.032727 394.398799 
L 933.647603 396.488577 
L 934.262479 400.422206 
L 934.877355 405.96938 
L 935.492231 412.649577 
L 936.107107 422.179237 
L 937.33686 446.190241 
L 937.951736 454.386682 
L 938.566612 459.200971 
L 939.181488 462.487086 
L 939.796364 464.580035 
L 940.41124 464.353362 
L 941.026116 461.606408 
L 942.255868 454.232748 
L 942.870744 454.079645 
L 944.100496 458.716821 
L 944.715372 459.41919 
L 945.330248 458.404593 
L 946.56 455.899601 
L 947.789752 455.475057 
L 948.404628 454.1523 
L 949.019504 451.315177 
L 950.249256 444.521034 
L 950.864132 441.438655 
L 951.479008 439.281491 
L 952.70876 436.388124 
L 953.323636 434.078195 
L 957.627769 414.048901 
L 958.857521 410.076532 
L 959.472397 409.500171 
L 960.087273 410.098766 
L 960.702149 411.02693 
L 961.317025 409.742371 
L 963.776529 396.201956 
L 965.006281 383.004887 
L 965.621157 378.595807 
L 966.850909 372.3935 
L 967.465785 367.768927 
L 968.695537 354.883872 
L 969.310413 350.48927 
L 971.155041 340.275866 
L 972.384793 332.35271 
L 972.999669 331.312324 
L 973.614545 331.960825 
L 974.229421 333.29893 
L 974.844298 333.979519 
L 975.459174 332.995705 
L 976.07405 330.480252 
L 977.303802 324.888711 
L 977.918678 323.178129 
L 978.533554 322.454734 
L 979.14843 322.463925 
L 980.378182 322.967699 
L 980.993058 322.844985 
L 982.837686 321.685238 
L 983.452562 321.878936 
L 984.067438 322.598852 
L 984.682314 323.765406 
L 986.526942 328.370288 
L 987.756694 332.235353 
L 989.601322 339.73176 
L 994.520331 360.831275 
L 995.750083 366.125219 
L 996.979835 370.144029 
L 997.594711 371.565422 
L 998.824463 373.598049 
L 1000.054215 374.948766 
L 1000.669091 375.373514 
L 1001.283967 375.545997 
L 1001.898843 375.394304 
L 1002.513719 374.883041 
L 1003.128595 374.029107 
L 1004.358347 371.562688 
L 1008.662479 361.463395 
L 1009.277355 360.439114 
L 1009.892231 359.693101 
L 1010.507107 359.268002 
L 1011.121983 359.187486 
L 1011.73686 359.517455 
L 1012.351736 360.30801 
L 1015.426116 365.745385 
L 1017.270744 369.144202 
L 1017.88562 370.056477 
L 1018.500496 370.682346 
L 1019.115372 370.952666 
L 1019.730248 370.848839 
L 1020.345124 370.395059 
L 1020.96 369.638204 
L 1022.189752 367.411724 
L 1023.419504 364.39829 
L 1024.649256 360.702758 
L 1026.493884 354.906893 
L 1027.723636 351.788181 
L 1028.953388 349.562671 
L 1030.18314 348.127752 
L 1031.412893 347.300839 
L 1033.872397 346.107047 
L 1034.487273 345.587088 
L 1035.102149 344.903973 
L 1035.717025 344.042692 
L 1036.331901 342.962212 
L 1036.946777 341.610176 
L 1038.176529 338.011268 
L 1040.636033 329.47378 
L 1041.250909 327.833121 
L 1041.865785 326.69575 
L 1042.480661 326.843473 
L 1043.095537 328.654935 
L 1044.325289 334.789269 
L 1045.555041 342.20893 
L 1046.169917 344.887611 
L 1046.784793 346.621656 
L 1047.399669 347.619113 
L 1048.014545 347.657121 
L 1049.244298 346.322178 
L 1049.859174 346.232906 
L 1050.47405 346.969911 
L 1051.703802 349.569491 
L 1052.318678 350.305303 
L 1052.933554 350.260817 
L 1053.54843 349.527944 
L 1054.778182 347.176808 
L 1056.007934 344.480304 
L 1056.62281 342.616689 
L 1057.237686 340.126577 
L 1058.467438 333.39365 
L 1060.312066 322.39439 
L 1062.156694 312.917289 
L 1063.386446 307.448832 
L 1064.001322 305.296139 
L 1064.616198 303.681103 
L 1065.231074 302.606134 
L 1065.84595 301.98135 
L 1066.460826 301.671018 
L 1067.690579 301.541285 
L 1068.920331 301.730238 
L 1070.150083 301.916695 
L 1070.764959 301.7837 
L 1071.379835 301.353498 
L 1071.994711 300.554069 
L 1072.609587 299.372933 
L 1073.224463 297.829657 
L 1073.839339 295.763681 
L 1075.069091 289.860065 
L 1076.913719 280.383882 
L 1077.528595 277.787682 
L 1078.758347 274.046059 
L 1079.373223 272.655928 
L 1083.677355 265.048731 
L 1084.907107 262.602862 
L 1086.13686 259.48885 
L 1086.751736 258.449315 
L 1087.366612 258.189077 
L 1087.981488 258.407216 
L 1088.596364 258.97508 
L 1089.21124 260.176278 
L 1090.440992 264.369582 
L 1092.900496 272.982807 
L 1093.515372 274.683217 
L 1095.36 278.501125 
L 1096.589752 280.49641 
L 1097.204628 281.499537 
L 1099.049256 285.473279 
L 1100.279008 288.467966 
L 1101.50876 291.756788 
L 1105.198017 300.808258 
L 1107.042645 306.103728 
L 1108.272397 310.296679 
L 1110.117025 317.952684 
L 1111.346777 324.024522 
L 1113.191405 334.221614 
L 1118.725289 367.460794 
L 1119.955041 373.507868 
L 1121.184793 378.508858 
L 1122.414545 382.672979 
L 1123.644298 385.779024 
L 1124.87405 388.083311 
L 1125.488926 388.885192 
L 1126.103802 389.449013 
L 1126.718678 389.843189 
L 1127.333554 390.095644 
L 1127.94843 390.174338 
L 1128.563306 390.071265 
L 1130.407934 389.295815 
L 1134.09719 387.379899 
L 1135.326942 386.996144 
L 1137.17157 386.865083 
L 1138.401322 386.99926 
L 1140.860826 387.705048 
L 1142.705455 388.367733 
L 1143.935207 388.589495 
L 1145.164959 388.533748 
L 1146.394711 388.026887 
L 1147.624463 387.110184 
L 1148.239339 386.427384 
L 1149.469091 384.498025 
L 1150.698843 381.825768 
L 1151.928595 378.201535 
L 1153.158347 373.53731 
L 1154.388099 367.779137 
L 1155.617851 360.27751 
L 1156.847603 350.669849 
L 1158.077355 338.984676 
L 1159.307107 325.027223 
L 1162.381488 288.1726 
L 1163.61124 276.544938 
L 1164.226116 272.114944 
L 1164.840992 268.816581 
L 1165.455868 266.754248 
L 1166.070744 265.973648 
L 1166.68562 266.457282 
L 1167.300496 268.130089 
L 1167.915372 270.871141 
L 1168.530248 274.536053 
L 1169.76 284.005472 
L 1172.219504 304.883223 
L 1173.449256 312.661755 
L 1174.064132 314.983274 
L 1174.679008 315.911806 
L 1175.293884 315.75607 
L 1175.90876 315.212001 
L 1176.523636 314.929559 
L 1177.138512 315.18626 
L 1177.753388 315.997321 
L 1178.368264 317.423261 
L 1178.98314 319.700312 
L 1179.598017 323.021376 
L 1182.057521 339.213257 
L 1183.287273 344.914754 
L 1183.902149 348.76393 
L 1185.131901 357.465187 
L 1185.746777 360.341572 
L 1186.361653 362.332112 
L 1186.976529 364.796715 
L 1187.591405 368.911946 
L 1188.821157 379.857531 
L 1189.436033 383.876344 
L 1190.050909 385.854613 
L 1190.665785 386.1462 
L 1191.895537 385.24106 
L 1192.510413 366.147214 
L 1193.125289 352.193566 
L 1193.740165 345.92332 
L 1194.355041 347.796468 
L 1196.199669 367.149891 
L 1196.814545 369.952782 
L 1197.429421 372.006612 
L 1198.044298 376.29108 
L 1198.659174 383.653813 
L 1199.27405 394.176484 
L 1201.118678 430.856661 
L 1201.733554 439.462601 
L 1202.34843 445.137773 
L 1202.963306 448.569205 
L 1203.578182 450.480745 
L 1204.193058 451.406515 
L 1204.807934 453.355133 
L 1205.42281 451.316136 
L 1206.037686 448.086151 
L 1207.267438 438.417943 
L 1209.112066 415.538874 
L 1209.726942 411.827257 
L 1210.341818 410.804769 
L 1210.956694 412.564838 
L 1212.186446 419.492961 
L 1212.801322 422.122014 
L 1214.031074 425.219505 
L 1215.260826 421.427378 
L 1215.875702 420.36045 
L 1216.490579 420.22738 
L 1217.105455 420.503918 
L 1217.720331 420.18009 
L 1218.335207 418.461384 
L 1219.564959 412.291362 
L 1220.179835 410.01657 
L 1220.794711 408.773032 
L 1221.409587 408.3357 
L 1222.024463 408.298242 
L 1222.024463 408.298242 
" style="fill:none;stroke:#e50000;stroke-linecap:square;stroke-width:1.5;"/>
   </g>
   <g id="line2d_41">
    <path clip-path="url(#p7ec40e4497)" d="M 779.313719 248.606926 
L 785.462479 248.728776 
L 791.61124 249.094096 
L 797.76 249.702189 
L 803.90876 250.551898 
L 810.057521 251.641605 
L 816.206281 252.969237 
L 822.355041 254.532265 
L 828.503802 256.327715 
L 834.652562 258.35217 
L 840.801322 260.601774 
L 846.950083 263.072246 
L 853.713719 266.039244 
L 860.477355 269.260959 
L 867.240992 272.729971 
L 874.004628 276.43829 
L 881.38314 280.746609 
L 888.761653 285.317739 
L 896.140165 290.139152 
L 904.133554 295.629444 
L 912.126942 301.38029 
L 920.735207 307.843662 
L 929.958347 315.052799 
L 939.796364 323.032408 
L 950.249256 331.79595 
L 961.931901 341.880004 
L 976.07405 354.399758 
L 995.135207 371.604689 
L 1028.338512 401.607121 
L 1042.480661 414.061469 
L 1054.163306 424.071116 
L 1064.616198 432.752896 
L 1074.454215 440.642866 
L 1083.677355 447.757187 
L 1092.28562 454.123019 
L 1100.279008 459.775797 
L 1108.272397 465.161125 
L 1115.650909 469.879821 
L 1123.029421 474.342929 
L 1130.407934 478.538214 
L 1137.17157 482.138784 
L 1143.935207 485.496345 
L 1150.698843 488.603164 
L 1157.462479 491.452086 
L 1163.61124 493.812686 
L 1169.76 495.950224 
L 1175.90876 497.860631 
L 1182.057521 499.54027 
L 1188.206281 500.985944 
L 1194.355041 502.194901 
L 1200.503802 503.16484 
L 1206.652562 503.893914 
L 1212.801322 504.380736 
L 1218.950083 504.624379 
L 1221.409587 504.653627 
L 1221.409587 504.653627 
" style="fill:none;stroke:#014d4e;stroke-linecap:square;stroke-width:1.5;"/>
   </g>
   <g id="line2d_42">
    <path clip-path="url(#p7ec40e4497)" d="M 779.313719 248.507007 
L 779.928595 236.675604 
L 780.543471 215.151673 
L 781.158347 201.072845 
L 781.773223 203.876592 
L 783.002975 228.788789 
L 783.617851 236.260693 
L 784.232727 241.001969 
L 784.847603 249.57975 
L 785.462479 262.858766 
L 786.692231 293.988393 
L 787.307107 304.419512 
L 787.921983 310.372673 
L 788.53686 314.506522 
L 789.151736 320.343356 
L 789.766612 329.984331 
L 791.61124 366.114739 
L 792.840992 383.890619 
L 794.68562 418.969697 
L 795.300496 426.487705 
L 796.530248 436.238235 
L 800.219504 478.01302 
L 800.83438 484.848113 
L 801.449256 489.354219 
L 802.064132 492.411473 
L 802.679008 496.260909 
L 803.90876 506.801982 
L 804.523636 510.227013 
L 805.753388 514.607213 
L 806.368264 517.112136 
L 806.98314 517.994956 
L 807.598017 515.957593 
L 809.442645 503.978583 
L 810.057521 498.227608 
L 811.287273 480.133346 
L 812.517025 460.045178 
L 813.746777 433.409363 
L 817.436033 347.472836 
L 819.280661 312.774716 
L 819.895537 303.031939 
L 820.510413 295.144814 
L 821.740165 283.462607 
L 822.969917 274.67031 
L 823.584793 271.139333 
L 824.199669 268.359518 
L 824.814545 266.405974 
L 825.429421 265.182376 
L 827.27405 262.84306 
L 827.888926 261.487763 
L 828.503802 259.642125 
L 829.733554 254.909847 
L 831.578182 246.801373 
L 832.807934 240.530018 
L 836.49719 219.88972 
L 837.112066 217.582493 
L 837.726942 215.949388 
L 838.341818 215.20365 
L 838.956694 215.417575 
L 839.57157 216.427226 
L 840.801322 219.675153 
L 842.031074 223.754283 
L 843.260826 227.957583 
L 844.490579 231.181969 
L 846.950083 236.440424 
L 848.179835 238.973459 
L 849.409587 242.224713 
L 851.254215 248.146301 
L 853.713719 256.832489 
L 857.402975 269.910366 
L 858.632727 273.678989 
L 859.862479 276.930369 
L 861.092231 279.634798 
L 862.321983 281.81515 
L 866.01124 287.509703 
L 867.240992 289.847364 
L 868.470744 292.56902 
L 869.700496 295.965928 
L 870.930248 300.228364 
L 874.004628 311.930154 
L 875.23438 315.564507 
L 876.464132 318.190105 
L 877.079008 319.132925 
L 878.923636 321.49242 
L 879.538512 321.165541 
L 880.153388 320.531979 
L 880.768264 320.069253 
L 881.38314 320.100383 
L 881.998017 320.418507 
L 883.842645 316.782531 
L 884.457521 316.251822 
L 885.687273 316.690995 
L 886.302149 316.486929 
L 887.531901 311.246101 
L 888.146777 309.371788 
L 888.761653 308.427059 
L 889.376529 308.280605 
L 889.991405 308.689612 
L 891.221157 310.034404 
L 891.836033 310.428781 
L 892.450909 310.393666 
L 893.065785 309.896454 
L 893.680661 309.030647 
L 895.525289 306.067678 
L 896.140165 305.528352 
L 897.984793 304.468549 
L 898.599669 303.734746 
L 899.829421 301.476365 
L 902.903802 294.629827 
L 905.978182 287.21543 
L 907.207934 285.207867 
L 908.437686 283.938901 
L 909.667438 283.230444 
L 910.282314 283.071485 
L 910.89719 283.053992 
L 911.512066 283.185324 
L 912.741818 283.861694 
L 913.97157 284.942416 
L 915.816198 286.952781 
L 921.964959 293.991592 
L 923.809587 295.481582 
L 925.039339 296.258756 
L 926.269091 296.814237 
L 928.728595 297.607924 
L 929.958347 298.479619 
L 931.188099 299.344352 
L 931.802975 299.556264 
L 932.417851 299.253158 
L 933.032727 297.658309 
L 933.647603 294.220734 
L 934.262479 289.17073 
L 934.877355 282.98881 
L 935.492231 273.958524 
L 936.721983 250.94952 
L 937.33686 243.255687 
L 937.951736 238.945065 
L 938.566612 236.163666 
L 939.181488 234.576473 
L 939.796364 235.309932 
L 940.41124 238.564693 
L 941.640992 246.956988 
L 942.255868 247.6209 
L 943.48562 244.008279 
L 944.100496 243.819635 
L 944.715372 245.34891 
L 945.945124 248.886075 
L 947.174876 250.346484 
L 947.789752 252.188533 
L 948.404628 255.545842 
L 950.249256 266.98818 
L 950.864132 269.669004 
L 952.093884 273.612212 
L 952.70876 276.448301 
L 957.012893 300.182936 
L 958.242645 305.220812 
L 958.857521 306.331017 
L 959.472397 306.266978 
L 960.087273 305.874072 
L 960.702149 307.694582 
L 963.161653 323.385518 
L 965.006281 342.611325 
L 966.236033 349.896473 
L 966.850909 355.063356 
L 968.080661 369.034757 
L 968.695537 373.973377 
L 970.540165 385.82208 
L 971.769917 394.838038 
L 972.384793 396.425575 
L 972.999669 396.324711 
L 973.614545 395.534718 
L 974.229421 395.402707 
L 974.844298 396.935553 
L 977.303802 408.953594 
L 977.918678 410.228138 
L 978.533554 410.770487 
L 979.763306 411.370927 
L 980.378182 412.046293 
L 982.22281 414.866053 
L 982.837686 415.226344 
L 983.452562 415.060723 
L 984.067438 414.448763 
L 985.29719 412.554088 
L 986.526942 410.300233 
L 987.141818 408.755866 
L 988.986446 402.928577 
L 993.905455 386.288147 
L 995.135207 382.110356 
L 995.750083 380.455407 
L 996.364959 379.208081 
L 996.979835 378.345072 
L 997.594711 377.782193 
L 998.209587 377.429396 
L 998.824463 377.240876 
L 999.439339 377.1958 
L 1000.054215 377.329649 
L 1000.669091 377.715774 
L 1001.283967 378.426075 
L 1001.898843 379.495936 
L 1002.513719 380.908446 
L 1003.743471 384.491912 
L 1008.047603 398.498633 
L 1009.277355 401.384346 
L 1009.892231 402.366937 
L 1010.507107 403.004786 
L 1011.121983 403.231979 
L 1011.73686 402.998406 
L 1014.196364 400.880583 
L 1017.270744 398.252898 
L 1017.88562 398.181621 
L 1018.500496 398.465597 
L 1019.115372 399.123412 
L 1019.730248 400.130863 
L 1020.96 403.002024 
L 1022.189752 406.737404 
L 1023.419504 411.221146 
L 1026.493884 423.354351 
L 1027.723636 427.123216 
L 1028.953388 430.028868 
L 1030.18314 432.226972 
L 1032.027769 434.737731 
L 1033.257521 436.497866 
L 1034.487273 438.787288 
L 1035.717025 441.813079 
L 1036.946777 445.902634 
L 1038.176529 451.07824 
L 1040.021157 459.076177 
L 1040.636033 461.253469 
L 1041.250909 462.926791 
L 1041.865785 463.314326 
L 1042.480661 462.037419 
L 1043.095537 459.758051 
L 1044.325289 453.717381 
L 1044.940165 450.61442 
L 1045.555041 448.466631 
L 1046.169917 447.262714 
L 1046.784793 446.794612 
L 1047.399669 447.285175 
L 1048.629421 449.674869 
L 1049.244298 450.290302 
L 1049.859174 450.078634 
L 1051.088926 448.527216 
L 1051.703802 448.31421 
L 1052.318678 448.880638 
L 1052.933554 450.13458 
L 1054.778182 455.305084 
L 1055.393058 457.257563 
L 1056.007934 459.637731 
L 1056.62281 462.643463 
L 1057.852562 470.404793 
L 1059.69719 482.939417 
L 1061.541818 493.94296 
L 1062.77157 500.423959 
L 1063.386446 503.081367 
L 1064.001322 505.200071 
L 1064.616198 506.777647 
L 1065.231074 507.903971 
L 1065.84595 508.714764 
L 1067.075702 509.842148 
L 1070.150083 512.074329 
L 1070.764959 512.996027 
L 1071.379835 514.285789 
L 1071.994711 515.956086 
L 1072.609587 517.987341 
L 1073.224463 520.540105 
L 1074.454215 527.413687 
L 1076.298843 538.335655 
L 1077.528595 543.941811 
L 1078.758347 547.973833 
L 1083.677355 560.562194 
L 1084.907107 564.230873 
L 1085.521983 566.286491 
L 1086.13686 567.785699 
L 1086.751736 568.504221 
L 1087.366612 568.742968 
L 1087.981488 568.630583 
L 1088.596364 567.883449 
L 1089.21124 566.399002 
L 1091.670744 559.444915 
L 1092.28562 557.771097 
L 1092.900496 556.514603 
L 1094.745124 554.019505 
L 1095.36 553.370761 
L 1096.589752 552.330323 
L 1098.43438 549.652005 
L 1099.049256 548.686373 
L 1103.353388 540.614287 
L 1104.58314 538.532574 
L 1105.812893 535.892068 
L 1107.042645 532.911594 
L 1108.272397 529.05105 
L 1109.502149 524.642986 
L 1110.731901 519.368003 
L 1112.576529 510.353304 
L 1118.110413 480.566633 
L 1119.340165 475.267123 
L 1120.569917 471.006423 
L 1121.799669 467.575261 
L 1123.029421 465.194791 
L 1123.644298 464.303374 
L 1124.259174 463.608636 
L 1124.87405 463.163014 
L 1125.488926 462.953572 
L 1126.103802 462.911886 
L 1126.718678 463.010027 
L 1127.333554 463.280028 
L 1128.563306 464.299361 
L 1130.407934 466.211791 
L 1132.252562 468.267976 
L 1134.09719 470.012585 
L 1135.326942 470.891129 
L 1137.17157 471.874398 
L 1138.401322 472.241783 
L 1140.24595 472.621388 
L 1142.090579 472.868351 
L 1143.320331 473.242752 
L 1144.550083 473.886394 
L 1145.779835 474.972836 
L 1147.009587 476.460764 
L 1148.239339 478.579107 
L 1149.469091 481.425325 
L 1150.698843 485.087501 
L 1151.928595 489.776154 
L 1153.158347 495.484885 
L 1154.388099 502.523292 
L 1155.617851 511.609545 
L 1156.847603 522.724254 
L 1158.077355 536.065148 
L 1162.381488 588.032688 
L 1163.61124 598.328627 
L 1164.226116 601.850852 
L 1164.840992 604.134812 
L 1165.455868 605.1348 
L 1166.070744 604.868309 
L 1166.68562 603.410398 
L 1167.300496 600.881991 
L 1167.915372 597.427467 
L 1169.145124 588.372041 
L 1171.604628 568.295031 
L 1172.219504 564.220168 
L 1172.83438 560.903186 
L 1173.449256 558.771577 
L 1174.064132 558.030662 
L 1174.679008 558.371716 
L 1175.293884 559.098802 
L 1175.90876 559.561957 
L 1176.523636 559.483661 
L 1177.138512 558.848693 
L 1177.753388 557.596532 
L 1178.368264 555.490941 
L 1178.98314 552.339016 
L 1181.442645 536.800414 
L 1182.672397 531.411546 
L 1183.287273 527.715172 
L 1184.517025 519.312478 
L 1185.131901 516.581848 
L 1185.746777 514.734709 
L 1186.361653 512.411151 
L 1186.976529 508.434604 
L 1188.206281 497.759299 
L 1188.821157 493.872075 
L 1189.436033 492.023026 
L 1190.050909 491.858286 
L 1191.280661 493.009992 
L 1191.895537 512.223553 
L 1192.510413 526.294535 
L 1193.125289 532.67973 
L 1193.740165 530.919145 
L 1195.584793 511.889071 
L 1196.199669 509.189177 
L 1196.814545 507.235946 
L 1197.429421 503.049679 
L 1198.044298 495.782748 
L 1198.659174 485.353476 
L 1200.503802 448.939065 
L 1201.118678 440.416898 
L 1201.733554 434.823088 
L 1202.34843 431.470606 
L 1202.963306 429.635603 
L 1203.578182 428.783954 
L 1204.193058 426.90704 
L 1204.807934 429.015324 
L 1205.42281 432.312177 
L 1206.652562 442.106857 
L 1208.49719 465.15746 
L 1209.112066 468.921404 
L 1209.726942 469.993793 
L 1210.341818 468.281196 
L 1211.57157 461.440728 
L 1212.186446 458.851857 
L 1213.416198 455.827436 
L 1214.64595 459.682901 
L 1215.260826 460.777847 
L 1215.875702 460.936501 
L 1216.490579 460.683111 
L 1217.105455 461.027652 
L 1217.720331 462.764635 
L 1218.950083 468.963903 
L 1219.564959 471.249663 
L 1220.179835 472.501732 
L 1220.794711 472.945157 
L 1221.409587 472.986271 
L 1221.409587 472.986271 
" style="fill:none;stroke:#ffff14;stroke-linecap:square;stroke-width:1.5;"/>
   </g>
   <g id="patch_8">
    <path d="M 757.178182 629.9064 
L 757.178182 84.9312 
" style="fill:none;stroke:#000000;stroke-linecap:square;stroke-linejoin:miter;stroke-width:0.8;"/>
   </g>
   <g id="patch_9">
    <path d="M 1244.16 629.9064 
L 1244.16 84.9312 
" style="fill:none;stroke:#000000;stroke-linecap:square;stroke-linejoin:miter;stroke-width:0.8;"/>
   </g>
   <g id="patch_10">
    <path d="M 757.178182 629.9064 
L 1244.16 629.9064 
" style="fill:none;stroke:#000000;stroke-linecap:square;stroke-linejoin:miter;stroke-width:0.8;"/>
   </g>
   <g id="patch_11">
    <path d="M 757.178182 84.9312 
L 1244.16 84.9312 
" style="fill:none;stroke:#000000;stroke-linecap:square;stroke-linejoin:miter;stroke-width:0.8;"/>
   </g>
   <g id="text_36">
    <!-- Left abduction -->
    <defs>
     <path d="M 9.8125 72.90625 
L 19.671875 72.90625 
L 19.671875 8.296875 
L 55.171875 8.296875 
L 55.171875 0 
L 9.8125 0 
z
" id="DejaVuSans-76"/>
     <path d="M 56.203125 29.59375 
L 56.203125 25.203125 
L 14.890625 25.203125 
Q 15.484375 15.921875 20.484375 11.0625 
Q 25.484375 6.203125 34.421875 6.203125 
Q 39.59375 6.203125 44.453125 7.46875 
Q 49.3125 8.734375 54.109375 11.28125 
L 54.109375 2.78125 
Q 49.265625 0.734375 44.1875 -0.34375 
Q 39.109375 -1.421875 33.890625 -1.421875 
Q 20.796875 -1.421875 13.15625 6.1875 
Q 5.515625 13.8125 5.515625 26.8125 
Q 5.515625 40.234375 12.765625 48.109375 
Q 20.015625 56 32.328125 56 
Q 43.359375 56 49.78125 48.890625 
Q 56.203125 41.796875 56.203125 29.59375 
z
M 47.21875 32.234375 
Q 47.125 39.59375 43.09375 43.984375 
Q 39.0625 48.390625 32.421875 48.390625 
Q 24.90625 48.390625 20.390625 44.140625 
Q 15.875 39.890625 15.1875 32.171875 
z
" id="DejaVuSans-101"/>
     <path d="M 37.109375 75.984375 
L 37.109375 68.5 
L 28.515625 68.5 
Q 23.6875 68.5 21.796875 66.546875 
Q 19.921875 64.59375 19.921875 59.515625 
L 19.921875 54.6875 
L 34.71875 54.6875 
L 34.71875 47.703125 
L 19.921875 47.703125 
L 19.921875 0 
L 10.890625 0 
L 10.890625 47.703125 
L 2.296875 47.703125 
L 2.296875 54.6875 
L 10.890625 54.6875 
L 10.890625 58.5 
Q 10.890625 67.625 15.140625 71.796875 
Q 19.390625 75.984375 28.609375 75.984375 
z
" id="DejaVuSans-102"/>
    </defs>
    <g transform="translate(957.375341 78.9312)scale(0.12 -0.12)">
     <use xlink:href="#DejaVuSans-76"/>
     <use x="55.697266" xlink:href="#DejaVuSans-101"/>
     <use x="117.220703" xlink:href="#DejaVuSans-102"/>
     <use x="152.410156" xlink:href="#DejaVuSans-116"/>
     <use x="191.619141" xlink:href="#DejaVuSans-32"/>
     <use x="223.40625" xlink:href="#DejaVuSans-97"/>
     <use x="284.685547" xlink:href="#DejaVuSans-98"/>
     <use x="348.162109" xlink:href="#DejaVuSans-100"/>
     <use x="411.638672" xlink:href="#DejaVuSans-117"/>
     <use x="475.017578" xlink:href="#DejaVuSans-99"/>
     <use x="529.998047" xlink:href="#DejaVuSans-116"/>
     <use x="569.207031" xlink:href="#DejaVuSans-105"/>
     <use x="596.990234" xlink:href="#DejaVuSans-111"/>
     <use x="658.171875" xlink:href="#DejaVuSans-110"/>
    </g>
   </g>
  </g>
 </g>
 <defs>
  <clipPath id="pc67db742d2">
   <rect height="544.9752" width="486.981818" x="172.8" y="84.9312"/>
  </clipPath>
  <clipPath id="p7ec40e4497">
   <rect height="544.9752" width="486.981818" x="757.178182" y="84.9312"/>
  </clipPath>
 </defs>
</svg>
