<?xml version="1.0" encoding="utf-8" standalone="no"?>
<!DOCTYPE svg PUBLIC "-//W3C//DTD SVG 1.1//EN"
  "http://www.w3.org/Graphics/SVG/1.1/DTD/svg11.dtd">
<!-- Created with matplotlib (https://matplotlib.org/) -->
<svg height="707.76pt" version="1.1" viewBox="0 0 1382.4 707.76" width="1382.4pt" xmlns="http://www.w3.org/2000/svg" xmlns:xlink="http://www.w3.org/1999/xlink">
 <defs>
  <style type="text/css">
*{stroke-linecap:butt;stroke-linejoin:round;}
  </style>
 </defs>
 <g id="figure_1">
  <g id="patch_1">
   <path d="M 0 707.76 
L 1382.4 707.76 
L 1382.4 0 
L 0 0 
z
" style="fill:#ffffff;"/>
  </g>
  <g id="axes_1">
   <g id="patch_2">
    <path d="M 172.8 629.9064 
L 659.781818 629.9064 
L 659.781818 84.9312 
L 172.8 84.9312 
z
" style="fill:#ffffff;"/>
   </g>
   <g id="matplotlib.axis_1">
    <g id="xtick_1">
     <g id="line2d_1">
      <defs>
       <path d="M 0 0 
L 0 3.5 
" id="m0d4468d348" style="stroke:#000000;stroke-width:0.8;"/>
      </defs>
      <g>
       <use style="stroke:#000000;stroke-width:0.8;" x="194.935537" xlink:href="#m0d4468d348" y="629.9064"/>
      </g>
     </g>
     <g id="text_1">
      <!-- 0 -->
      <defs>
       <path d="M 31.78125 66.40625 
Q 24.171875 66.40625 20.328125 58.90625 
Q 16.5 51.421875 16.5 36.375 
Q 16.5 21.390625 20.328125 13.890625 
Q 24.171875 6.390625 31.78125 6.390625 
Q 39.453125 6.390625 43.28125 13.890625 
Q 47.125 21.390625 47.125 36.375 
Q 47.125 51.421875 43.28125 58.90625 
Q 39.453125 66.40625 31.78125 66.40625 
z
M 31.78125 74.21875 
Q 44.046875 74.21875 50.515625 64.515625 
Q 56.984375 54.828125 56.984375 36.375 
Q 56.984375 17.96875 50.515625 8.265625 
Q 44.046875 -1.421875 31.78125 -1.421875 
Q 19.53125 -1.421875 13.0625 8.265625 
Q 6.59375 17.96875 6.59375 36.375 
Q 6.59375 54.828125 13.0625 64.515625 
Q 19.53125 74.21875 31.78125 74.21875 
z
" id="DejaVuSans-48"/>
      </defs>
      <g transform="translate(191.754287 644.504838)scale(0.1 -0.1)">
       <use xlink:href="#DejaVuSans-48"/>
      </g>
     </g>
    </g>
    <g id="xtick_2">
     <g id="line2d_2">
      <g>
       <use style="stroke:#000000;stroke-width:0.8;" x="256.42314" xlink:href="#m0d4468d348" y="629.9064"/>
      </g>
     </g>
     <g id="text_2">
      <!-- 100 -->
      <defs>
       <path d="M 12.40625 8.296875 
L 28.515625 8.296875 
L 28.515625 63.921875 
L 10.984375 60.40625 
L 10.984375 69.390625 
L 28.421875 72.90625 
L 38.28125 72.90625 
L 38.28125 8.296875 
L 54.390625 8.296875 
L 54.390625 0 
L 12.40625 0 
z
" id="DejaVuSans-49"/>
      </defs>
      <g transform="translate(246.87939 644.504838)scale(0.1 -0.1)">
       <use xlink:href="#DejaVuSans-49"/>
       <use x="63.623047" xlink:href="#DejaVuSans-48"/>
       <use x="127.246094" xlink:href="#DejaVuSans-48"/>
      </g>
     </g>
    </g>
    <g id="xtick_3">
     <g id="line2d_3">
      <g>
       <use style="stroke:#000000;stroke-width:0.8;" x="317.910744" xlink:href="#m0d4468d348" y="629.9064"/>
      </g>
     </g>
     <g id="text_3">
      <!-- 200 -->
      <defs>
       <path d="M 19.1875 8.296875 
L 53.609375 8.296875 
L 53.609375 0 
L 7.328125 0 
L 7.328125 8.296875 
Q 12.9375 14.109375 22.625 23.890625 
Q 32.328125 33.6875 34.8125 36.53125 
Q 39.546875 41.84375 41.421875 45.53125 
Q 43.3125 49.21875 43.3125 52.78125 
Q 43.3125 58.59375 39.234375 62.25 
Q 35.15625 65.921875 28.609375 65.921875 
Q 23.96875 65.921875 18.8125 64.3125 
Q 13.671875 62.703125 7.8125 59.421875 
L 7.8125 69.390625 
Q 13.765625 71.78125 18.9375 73 
Q 24.125 74.21875 28.421875 74.21875 
Q 39.75 74.21875 46.484375 68.546875 
Q 53.21875 62.890625 53.21875 53.421875 
Q 53.21875 48.921875 51.53125 44.890625 
Q 49.859375 40.875 45.40625 35.40625 
Q 44.1875 33.984375 37.640625 27.21875 
Q 31.109375 20.453125 19.1875 8.296875 
z
" id="DejaVuSans-50"/>
      </defs>
      <g transform="translate(308.366994 644.504838)scale(0.1 -0.1)">
       <use xlink:href="#DejaVuSans-50"/>
       <use x="63.623047" xlink:href="#DejaVuSans-48"/>
       <use x="127.246094" xlink:href="#DejaVuSans-48"/>
      </g>
     </g>
    </g>
    <g id="xtick_4">
     <g id="line2d_4">
      <g>
       <use style="stroke:#000000;stroke-width:0.8;" x="379.398347" xlink:href="#m0d4468d348" y="629.9064"/>
      </g>
     </g>
     <g id="text_4">
      <!-- 300 -->
      <defs>
       <path d="M 40.578125 39.3125 
Q 47.65625 37.796875 51.625 33 
Q 55.609375 28.21875 55.609375 21.1875 
Q 55.609375 10.40625 48.1875 4.484375 
Q 40.765625 -1.421875 27.09375 -1.421875 
Q 22.515625 -1.421875 17.65625 -0.515625 
Q 12.796875 0.390625 7.625 2.203125 
L 7.625 11.71875 
Q 11.71875 9.328125 16.59375 8.109375 
Q 21.484375 6.890625 26.8125 6.890625 
Q 36.078125 6.890625 40.9375 10.546875 
Q 45.796875 14.203125 45.796875 21.1875 
Q 45.796875 27.640625 41.28125 31.265625 
Q 36.765625 34.90625 28.71875 34.90625 
L 20.21875 34.90625 
L 20.21875 43.015625 
L 29.109375 43.015625 
Q 36.375 43.015625 40.234375 45.921875 
Q 44.09375 48.828125 44.09375 54.296875 
Q 44.09375 59.90625 40.109375 62.90625 
Q 36.140625 65.921875 28.71875 65.921875 
Q 24.65625 65.921875 20.015625 65.03125 
Q 15.375 64.15625 9.8125 62.3125 
L 9.8125 71.09375 
Q 15.4375 72.65625 20.34375 73.4375 
Q 25.25 74.21875 29.59375 74.21875 
Q 40.828125 74.21875 47.359375 69.109375 
Q 53.90625 64.015625 53.90625 55.328125 
Q 53.90625 49.265625 50.4375 45.09375 
Q 46.96875 40.921875 40.578125 39.3125 
z
" id="DejaVuSans-51"/>
      </defs>
      <g transform="translate(369.854597 644.504838)scale(0.1 -0.1)">
       <use xlink:href="#DejaVuSans-51"/>
       <use x="63.623047" xlink:href="#DejaVuSans-48"/>
       <use x="127.246094" xlink:href="#DejaVuSans-48"/>
      </g>
     </g>
    </g>
    <g id="xtick_5">
     <g id="line2d_5">
      <g>
       <use style="stroke:#000000;stroke-width:0.8;" x="440.88595" xlink:href="#m0d4468d348" y="629.9064"/>
      </g>
     </g>
     <g id="text_5">
      <!-- 400 -->
      <defs>
       <path d="M 37.796875 64.3125 
L 12.890625 25.390625 
L 37.796875 25.390625 
z
M 35.203125 72.90625 
L 47.609375 72.90625 
L 47.609375 25.390625 
L 58.015625 25.390625 
L 58.015625 17.1875 
L 47.609375 17.1875 
L 47.609375 0 
L 37.796875 0 
L 37.796875 17.1875 
L 4.890625 17.1875 
L 4.890625 26.703125 
z
" id="DejaVuSans-52"/>
      </defs>
      <g transform="translate(431.3422 644.504838)scale(0.1 -0.1)">
       <use xlink:href="#DejaVuSans-52"/>
       <use x="63.623047" xlink:href="#DejaVuSans-48"/>
       <use x="127.246094" xlink:href="#DejaVuSans-48"/>
      </g>
     </g>
    </g>
    <g id="xtick_6">
     <g id="line2d_6">
      <g>
       <use style="stroke:#000000;stroke-width:0.8;" x="502.373554" xlink:href="#m0d4468d348" y="629.9064"/>
      </g>
     </g>
     <g id="text_6">
      <!-- 500 -->
      <defs>
       <path d="M 10.796875 72.90625 
L 49.515625 72.90625 
L 49.515625 64.59375 
L 19.828125 64.59375 
L 19.828125 46.734375 
Q 21.96875 47.46875 24.109375 47.828125 
Q 26.265625 48.1875 28.421875 48.1875 
Q 40.625 48.1875 47.75 41.5 
Q 54.890625 34.8125 54.890625 23.390625 
Q 54.890625 11.625 47.5625 5.09375 
Q 40.234375 -1.421875 26.90625 -1.421875 
Q 22.3125 -1.421875 17.546875 -0.640625 
Q 12.796875 0.140625 7.71875 1.703125 
L 7.71875 11.625 
Q 12.109375 9.234375 16.796875 8.0625 
Q 21.484375 6.890625 26.703125 6.890625 
Q 35.15625 6.890625 40.078125 11.328125 
Q 45.015625 15.765625 45.015625 23.390625 
Q 45.015625 31 40.078125 35.4375 
Q 35.15625 39.890625 26.703125 39.890625 
Q 22.75 39.890625 18.8125 39.015625 
Q 14.890625 38.140625 10.796875 36.28125 
z
" id="DejaVuSans-53"/>
      </defs>
      <g transform="translate(492.829804 644.504838)scale(0.1 -0.1)">
       <use xlink:href="#DejaVuSans-53"/>
       <use x="63.623047" xlink:href="#DejaVuSans-48"/>
       <use x="127.246094" xlink:href="#DejaVuSans-48"/>
      </g>
     </g>
    </g>
    <g id="xtick_7">
     <g id="line2d_7">
      <g>
       <use style="stroke:#000000;stroke-width:0.8;" x="563.861157" xlink:href="#m0d4468d348" y="629.9064"/>
      </g>
     </g>
     <g id="text_7">
      <!-- 600 -->
      <defs>
       <path d="M 33.015625 40.375 
Q 26.375 40.375 22.484375 35.828125 
Q 18.609375 31.296875 18.609375 23.390625 
Q 18.609375 15.53125 22.484375 10.953125 
Q 26.375 6.390625 33.015625 6.390625 
Q 39.65625 6.390625 43.53125 10.953125 
Q 47.40625 15.53125 47.40625 23.390625 
Q 47.40625 31.296875 43.53125 35.828125 
Q 39.65625 40.375 33.015625 40.375 
z
M 52.59375 71.296875 
L 52.59375 62.3125 
Q 48.875 64.0625 45.09375 64.984375 
Q 41.3125 65.921875 37.59375 65.921875 
Q 27.828125 65.921875 22.671875 59.328125 
Q 17.53125 52.734375 16.796875 39.40625 
Q 19.671875 43.65625 24.015625 45.921875 
Q 28.375 48.1875 33.59375 48.1875 
Q 44.578125 48.1875 50.953125 41.515625 
Q 57.328125 34.859375 57.328125 23.390625 
Q 57.328125 12.15625 50.6875 5.359375 
Q 44.046875 -1.421875 33.015625 -1.421875 
Q 20.359375 -1.421875 13.671875 8.265625 
Q 6.984375 17.96875 6.984375 36.375 
Q 6.984375 53.65625 15.1875 63.9375 
Q 23.390625 74.21875 37.203125 74.21875 
Q 40.921875 74.21875 44.703125 73.484375 
Q 48.484375 72.75 52.59375 71.296875 
z
" id="DejaVuSans-54"/>
      </defs>
      <g transform="translate(554.317407 644.504838)scale(0.1 -0.1)">
       <use xlink:href="#DejaVuSans-54"/>
       <use x="63.623047" xlink:href="#DejaVuSans-48"/>
       <use x="127.246094" xlink:href="#DejaVuSans-48"/>
      </g>
     </g>
    </g>
    <g id="xtick_8">
     <g id="line2d_8">
      <g>
       <use style="stroke:#000000;stroke-width:0.8;" x="625.34876" xlink:href="#m0d4468d348" y="629.9064"/>
      </g>
     </g>
     <g id="text_8">
      <!-- 700 -->
      <defs>
       <path d="M 8.203125 72.90625 
L 55.078125 72.90625 
L 55.078125 68.703125 
L 28.609375 0 
L 18.3125 0 
L 43.21875 64.59375 
L 8.203125 64.59375 
z
" id="DejaVuSans-55"/>
      </defs>
      <g transform="translate(615.80501 644.504838)scale(0.1 -0.1)">
       <use xlink:href="#DejaVuSans-55"/>
       <use x="63.623047" xlink:href="#DejaVuSans-48"/>
       <use x="127.246094" xlink:href="#DejaVuSans-48"/>
      </g>
     </g>
    </g>
   </g>
   <g id="matplotlib.axis_2">
    <g id="ytick_1">
     <g id="line2d_9">
      <defs>
       <path d="M 0 0 
L -3.5 0 
" id="mefb67e68dc" style="stroke:#000000;stroke-width:0.8;"/>
      </defs>
      <g>
       <use style="stroke:#000000;stroke-width:0.8;" x="172.8" xlink:href="#mefb67e68dc" y="619.197556"/>
      </g>
     </g>
     <g id="text_9">
      <!-- −1.5 -->
      <defs>
       <path d="M 10.59375 35.5 
L 73.1875 35.5 
L 73.1875 27.203125 
L 10.59375 27.203125 
z
" id="DejaVuSans-8722"/>
       <path d="M 10.6875 12.40625 
L 21 12.40625 
L 21 0 
L 10.6875 0 
z
" id="DejaVuSans-46"/>
      </defs>
      <g transform="translate(141.517187 622.996775)scale(0.1 -0.1)">
       <use xlink:href="#DejaVuSans-8722"/>
       <use x="83.789062" xlink:href="#DejaVuSans-49"/>
       <use x="147.412109" xlink:href="#DejaVuSans-46"/>
       <use x="179.199219" xlink:href="#DejaVuSans-53"/>
      </g>
     </g>
    </g>
    <g id="ytick_2">
     <g id="line2d_10">
      <g>
       <use style="stroke:#000000;stroke-width:0.8;" x="172.8" xlink:href="#mefb67e68dc" y="524.961369"/>
      </g>
     </g>
     <g id="text_10">
      <!-- −1.0 -->
      <g transform="translate(141.517187 528.760588)scale(0.1 -0.1)">
       <use xlink:href="#DejaVuSans-8722"/>
       <use x="83.789062" xlink:href="#DejaVuSans-49"/>
       <use x="147.412109" xlink:href="#DejaVuSans-46"/>
       <use x="179.199219" xlink:href="#DejaVuSans-48"/>
      </g>
     </g>
    </g>
    <g id="ytick_3">
     <g id="line2d_11">
      <g>
       <use style="stroke:#000000;stroke-width:0.8;" x="172.8" xlink:href="#mefb67e68dc" y="430.725182"/>
      </g>
     </g>
     <g id="text_11">
      <!-- −0.5 -->
      <g transform="translate(141.517187 434.5244)scale(0.1 -0.1)">
       <use xlink:href="#DejaVuSans-8722"/>
       <use x="83.789062" xlink:href="#DejaVuSans-48"/>
       <use x="147.412109" xlink:href="#DejaVuSans-46"/>
       <use x="179.199219" xlink:href="#DejaVuSans-53"/>
      </g>
     </g>
    </g>
    <g id="ytick_4">
     <g id="line2d_12">
      <g>
       <use style="stroke:#000000;stroke-width:0.8;" x="172.8" xlink:href="#mefb67e68dc" y="336.488994"/>
      </g>
     </g>
     <g id="text_12">
      <!-- 0.0 -->
      <g transform="translate(149.896875 340.288213)scale(0.1 -0.1)">
       <use xlink:href="#DejaVuSans-48"/>
       <use x="63.623047" xlink:href="#DejaVuSans-46"/>
       <use x="95.410156" xlink:href="#DejaVuSans-48"/>
      </g>
     </g>
    </g>
    <g id="ytick_5">
     <g id="line2d_13">
      <g>
       <use style="stroke:#000000;stroke-width:0.8;" x="172.8" xlink:href="#mefb67e68dc" y="242.252807"/>
      </g>
     </g>
     <g id="text_13">
      <!-- 0.5 -->
      <g transform="translate(149.896875 246.052026)scale(0.1 -0.1)">
       <use xlink:href="#DejaVuSans-48"/>
       <use x="63.623047" xlink:href="#DejaVuSans-46"/>
       <use x="95.410156" xlink:href="#DejaVuSans-53"/>
      </g>
     </g>
    </g>
    <g id="ytick_6">
     <g id="line2d_14">
      <g>
       <use style="stroke:#000000;stroke-width:0.8;" x="172.8" xlink:href="#mefb67e68dc" y="148.016619"/>
      </g>
     </g>
     <g id="text_14">
      <!-- 1.0 -->
      <g transform="translate(149.896875 151.815838)scale(0.1 -0.1)">
       <use xlink:href="#DejaVuSans-49"/>
       <use x="63.623047" xlink:href="#DejaVuSans-46"/>
       <use x="95.410156" xlink:href="#DejaVuSans-48"/>
      </g>
     </g>
    </g>
   </g>
   <g id="line2d_15">
    <path clip-path="url(#p01700af52a)" d="M 194.935537 331.263366 
L 195.550413 328.462714 
L 196.165289 329.349677 
L 196.780165 333.384202 
L 197.395041 338.552231 
L 198.009917 342.376371 
L 198.624793 343.067861 
L 199.239669 340.410292 
L 200.469421 331.686388 
L 201.084298 329.993979 
L 201.699174 331.653798 
L 203.543802 343.839044 
L 204.158678 343.852604 
L 204.773554 340.903072 
L 205.38843 336.552814 
L 206.003306 333.000282 
L 206.618182 331.980195 
L 207.233058 333.947044 
L 208.46281 341.750826 
L 209.077686 343.665885 
L 209.692562 342.67316 
L 210.307438 339.296324 
L 210.922314 335.215733 
L 211.53719 332.39967 
L 212.152066 332.11937 
L 212.766942 334.411372 
L 213.996694 341.205138 
L 214.61157 342.314059 
L 215.226446 340.893421 
L 216.456198 334.425215 
L 217.071074 332.65474 
L 217.68595 333.280628 
L 218.300826 335.98495 
L 218.915702 339.468484 
L 219.530579 342.055755 
L 220.145455 342.545215 
L 220.760331 340.820731 
L 221.990083 335.138468 
L 222.604959 334.085993 
L 223.219835 335.195462 
L 224.449587 340.799273 
L 225.064463 342.46239 
L 225.679339 342.075017 
L 226.294215 339.85022 
L 226.909091 336.918977 
L 227.523967 334.710061 
L 228.138843 334.282948 
L 228.753719 335.741224 
L 229.983471 340.536195 
L 230.598347 341.413207 
L 231.213223 340.453406 
L 232.442975 335.691323 
L 233.057851 334.278266 
L 233.672727 334.59176 
L 234.287603 336.44814 
L 234.902479 338.904837 
L 235.517355 340.747902 
L 236.132231 341.103884 
L 236.747107 339.862254 
L 237.97686 335.792506 
L 238.591736 335.104783 
L 239.206612 335.994726 
L 240.436364 340.127147 
L 241.05124 341.313385 
L 241.666116 341.006094 
L 242.280992 339.393625 
L 242.895868 337.311374 
L 243.510744 335.80723 
L 244.12562 335.61192 
L 244.740496 336.769031 
L 245.970248 340.204328 
L 246.585124 340.682824 
L 247.2 339.817039 
L 248.429752 336.251202 
L 249.044628 335.341293 
L 249.659504 335.731039 
L 250.27438 337.183167 
L 250.889256 338.924549 
L 251.504132 340.093692 
L 252.119008 340.109768 
L 252.733884 338.995349 
L 253.34876 337.374685 
L 253.963636 336.116482 
L 254.578512 335.857459 
L 255.193388 336.748659 
L 256.42314 339.844928 
L 257.038017 340.501968 
L 257.652893 340.039223 
L 258.882645 337.254539 
L 259.497521 336.407867 
L 260.112397 336.608873 
L 260.727273 337.715296 
L 261.342149 339.121272 
L 261.957025 340.098068 
L 262.571901 340.1456 
L 263.186777 339.230861 
L 264.416529 336.624245 
L 265.031405 336.218503 
L 265.646281 336.790563 
L 266.876033 339.16354 
L 267.490909 339.699944 
L 268.105785 339.338758 
L 269.950413 336.356023 
L 270.565289 336.48828 
L 271.180165 337.398363 
L 271.795041 338.611299 
L 272.409917 339.510303 
L 273.024793 339.663553 
L 273.639669 339.014123 
L 274.869421 336.994868 
L 275.484298 336.698728 
L 276.099174 337.190877 
L 277.328926 339.182649 
L 277.943802 339.627313 
L 278.558678 339.31179 
L 280.403306 336.669284 
L 281.018182 336.734219 
L 281.633058 337.426427 
L 282.247934 338.33154 
L 282.86281 338.964381 
L 283.477686 338.950741 
L 284.092562 338.298783 
L 285.322314 336.556305 
L 285.93719 336.33786 
L 286.552066 336.767758 
L 287.781818 338.36366 
L 288.396694 338.672305 
L 289.01157 338.366086 
L 290.241322 336.842077 
L 290.856198 336.441483 
L 291.471074 336.625598 
L 293.315702 338.5768 
L 293.930579 338.529714 
L 294.545455 337.975791 
L 295.160331 337.216764 
L 295.775207 336.650947 
L 296.390083 336.565612 
L 297.004959 336.980647 
L 298.234711 338.205943 
L 298.849587 338.332499 
L 299.464463 337.957464 
L 300.694215 336.628207 
L 301.309091 336.347667 
L 301.923967 336.554001 
L 303.153719 337.699994 
L 303.768595 338.00483 
L 304.383471 337.862781 
L 306.228099 336.41581 
L 306.842975 336.489152 
L 307.457851 336.950575 
L 308.072727 337.560353 
L 308.687603 338.009492 
L 309.302479 338.087787 
L 309.917355 337.78273 
L 311.147107 336.893303 
L 311.761983 336.840723 
L 312.37686 337.152719 
L 313.606612 338.171996 
L 314.221488 338.379608 
L 314.836364 338.221768 
L 316.066116 337.381012 
L 316.680992 337.181549 
L 317.295868 337.323798 
L 319.140496 338.49895 
L 319.755372 338.479096 
L 321.6 337.529823 
L 322.214876 337.556275 
L 322.829752 337.870292 
L 324.059504 338.706706 
L 324.67438 338.85294 
L 325.289256 338.722078 
L 326.519008 338.177377 
L 327.133884 338.130699 
L 327.74876 338.346517 
L 329.593388 339.436292 
L 330.208264 339.450279 
L 332.052893 338.869604 
L 332.667769 338.947999 
L 335.127273 339.987366 
L 335.742149 339.869499 
L 336.971901 339.414868 
L 337.586777 339.354979 
L 338.201653 339.492885 
L 340.046281 340.211653 
L 340.661157 340.186141 
L 342.505785 339.632833 
L 343.120661 339.655498 
L 345.580165 340.370816 
L 346.809917 340.076569 
L 348.039669 339.800716 
L 349.269421 340.034573 
L 350.499174 340.329041 
L 351.11405 340.291947 
L 353.573554 339.635008 
L 354.803306 339.802301 
L 356.033058 339.899716 
L 357.26281 339.558937 
L 358.492562 339.17299 
L 359.722314 339.175519 
L 360.952066 339.31561 
L 362.181818 339.152997 
L 364.026446 338.715554 
L 365.256198 338.80508 
L 366.48595 338.925482 
L 367.715702 338.766047 
L 368.945455 338.539354 
L 370.175207 338.571885 
L 372.019835 338.745043 
L 375.094215 338.458545 
L 377.553719 338.682315 
L 380.013223 338.509869 
L 383.087603 338.813097 
L 384.932231 338.671408 
L 388.621488 338.843647 
L 390.466116 338.628056 
L 393.540496 338.543112 
L 396 338.087006 
L 398.459504 337.858241 
L 401.533884 337.182613 
L 403.378512 336.922778 
L 407.682645 335.901489 
L 409.527273 335.399792 
L 411.371901 334.856235 
L 414.446281 334.128915 
L 416.290909 333.59564 
L 427.973554 331.3884 
L 429.818182 331.134159 
L 432.277686 330.697859 
L 435.966942 330.283028 
L 437.81157 330.085715 
L 440.271074 329.939575 
L 442.730579 329.718095 
L 445.804959 329.488033 
L 448.264463 329.267427 
L 450.723967 328.982818 
L 451.338843 328.05208 
L 451.953719 327.70424 
L 452.568595 327.999478 
L 453.183471 328.438939 
L 453.798347 328.45438 
L 455.028099 327.526343 
L 455.642975 327.493677 
L 457.487603 328.392124 
L 459.332231 328.122084 
L 461.17686 328.545416 
L 461.791736 328.456741 
L 464.25124 327.651756 
L 465.480992 327.46442 
L 467.940496 326.640717 
L 471.629752 326.553254 
L 473.47438 326.917882 
L 474.704132 327.057028 
L 479.008264 327.127406 
L 480.852893 326.960249 
L 484.542149 326.787675 
L 485.771901 326.821966 
L 488.846281 327.360922 
L 493.150413 328.165553 
L 495.609917 328.390917 
L 501.143802 328.813211 
L 502.98843 329.204796 
L 503.603306 329.4776 
L 504.218182 328.84088 
L 504.833058 338.014252 
L 505.447934 223.466397 
L 506.06281 374.809418 
L 506.677686 258.910195 
L 507.292562 427.24149 
L 507.907438 302.416849 
L 508.522314 444.745908 
L 509.13719 300.659694 
L 509.752066 405.674887 
L 510.366942 253.522691 
L 510.981818 342.448802 
L 511.596694 278.966827 
L 512.21157 407.57709 
L 512.826446 262.620994 
L 513.441322 346.685037 
L 514.056198 365.926587 
L 514.671074 350.740673 
L 515.28595 327.35581 
L 515.900826 310.382065 
L 516.515702 306.036787 
L 517.130579 314.01195 
L 518.360331 345.307904 
L 518.975207 355.17805 
L 519.590083 355.521413 
L 520.204959 346.783154 
L 521.434711 320.116307 
L 522.049587 313.189663 
L 522.664463 314.826355 
L 523.279339 324.139841 
L 524.509091 348.999386 
L 525.123967 354.760665 
L 525.738843 352.568478 
L 526.353719 343.602401 
L 527.583471 321.107929 
L 528.198347 316.072177 
L 528.813223 318.13563 
L 529.428099 326.296514 
L 530.657851 347.132715 
L 531.272727 352.036957 
L 531.887603 350.333973 
L 532.502479 342.134791 
L 533.732231 322.886656 
L 534.347107 318.309077 
L 534.961983 319.95797 
L 535.57686 327.22705 
L 536.806612 346.636299 
L 537.421488 351.583735 
L 538.036364 350.045076 
L 538.65124 344.462793 
L 539.880992 330.227725 
L 540.495868 327.757555 
L 541.110744 330.451627 
L 541.72562 337.489416 
L 542.955372 354.77757 
L 543.570248 359.730035 
L 544.185124 360.243103 
L 544.8 356.7433 
L 546.029752 345.045164 
L 546.644628 341.332869 
L 547.259504 341.113283 
L 547.87438 344.471156 
L 549.104132 355.938938 
L 549.719008 358.27576 
L 550.333884 350.663442 
L 551.563636 332.021042 
L 552.178512 328.511135 
L 552.793388 331.20478 
L 553.408264 338.754113 
L 554.638017 355.262122 
L 555.252893 356.862667 
L 555.867769 351.566168 
L 557.712397 322.739835 
L 558.327273 320.612752 
L 558.942149 324.192994 
L 560.171901 338.924482 
L 560.786777 343.524601 
L 561.401653 343.298665 
L 562.016529 338.428033 
L 563.246281 323.5042 
L 563.861157 319.294128 
L 564.476033 319.876933 
L 565.090909 324.752006 
L 566.320661 338.458745 
L 566.935537 342.192688 
L 567.550413 341.72568 
L 568.165289 337.144186 
L 568.780165 329.767189 
L 570.009917 317.630174 
L 570.624793 313.268915 
L 571.239669 312.417881 
L 571.854545 317.01901 
L 573.084298 336.038448 
L 573.699174 361.437482 
L 574.31405 368.486988 
L 575.543802 309.127443 
L 576.158678 325.353546 
L 576.773554 364.102491 
L 577.38843 337.818407 
L 578.618182 361.127575 
L 579.233058 343.473215 
L 579.847934 541.373229 
L 580.46281 447.998942 
L 581.077686 313.494245 
L 581.692562 442.544694 
L 582.307438 309.242186 
L 582.922314 426.797231 
L 583.53719 289.997796 
L 584.152066 403.422854 
L 584.766942 276.132709 
L 585.381818 399.903984 
L 585.996694 294.749324 
L 586.61157 430.122511 
L 587.226446 332.817662 
L 587.841322 417.601892 
L 588.456198 274.098327 
L 589.071074 374.13978 
L 589.68595 261.073172 
L 590.300826 400.276929 
L 590.915702 320.153438 
L 591.530579 459.412797 
L 592.145455 350.937919 
L 592.760331 438.588908 
L 593.375207 279.88388 
L 593.990083 370.987215 
L 594.604959 240.308867 
L 595.219835 364.222578 
L 595.834711 266.866916 
L 596.449587 415.246787 
L 597.064463 323.000224 
L 597.679339 455.514511 
L 598.294215 335.01672 
L 598.909091 435.169643 
L 599.523967 323.836599 
L 600.138843 424.944863 
L 600.753719 330.483414 
L 601.368595 415.312032 
L 601.983471 333.110968 
L 602.598347 420.276391 
L 603.213223 309.665167 
L 603.828099 318.608148 
L 605.057851 451.309691 
L 605.672727 345.394493 
L 606.287603 456.405767 
L 606.902479 336.990547 
L 607.517355 435.118019 
L 608.132231 308.95961 
L 608.747107 407.478138 
L 609.361983 279.586732 
L 609.97686 385.078686 
L 610.591736 262.938453 
L 611.206612 371.543311 
L 611.821488 268.740037 
L 612.436364 307.679922 
L 613.05124 312.12491 
L 613.666116 334.566232 
L 614.280992 399.08572 
L 614.895868 327.852742 
L 615.510744 406.210954 
L 616.12562 256.781333 
L 616.740496 374.07387 
L 617.355372 392.597781 
L 617.970248 109.7028 
L 618.585124 441.321633 
L 619.2 550.175773 
L 619.814876 257.32441 
L 620.429752 439.960288 
L 621.044628 365.211716 
L 621.659504 258.273253 
L 622.27438 510.44639 
L 623.504132 197.979747 
L 624.119008 422.454195 
L 624.733884 277.62454 
L 625.34876 478.160742 
L 625.963636 320.026465 
L 626.578512 330.922295 
L 627.193388 454.475346 
L 627.808264 271.806992 
L 628.42314 366.967614 
L 629.038017 246.513385 
L 629.652893 453.61656 
L 630.267769 290.166465 
L 630.882645 472.104132 
L 631.497521 273.467371 
L 632.112397 433.859639 
L 632.727273 231.813727 
L 633.342149 266.405698 
L 633.957025 346.757413 
L 634.571901 355.705235 
L 635.186777 307.473541 
L 635.801653 301.554515 
L 637.031405 423.828764 
L 637.031405 423.828764 
" style="fill:none;stroke:#ff796c;stroke-linecap:square;stroke-width:1.5;"/>
   </g>
   <g id="line2d_16">
    <path clip-path="url(#p01700af52a)" d="M 194.935537 336.488994 
L 195.550413 336.200633 
L 196.165289 336.397298 
L 196.780165 336.898669 
L 198.624793 339.265733 
L 199.239669 339.751837 
L 199.854545 339.952824 
L 201.084298 340.046565 
L 201.699174 340.291278 
L 202.31405 340.797651 
L 204.158678 342.800688 
L 204.773554 343.085811 
L 205.38843 343.100954 
L 206.618182 342.898923 
L 207.233058 343.010588 
L 207.847934 343.352412 
L 209.077686 344.304436 
L 209.692562 344.588416 
L 210.307438 344.613429 
L 212.152066 344.02637 
L 212.766942 344.083471 
L 213.996694 344.731409 
L 214.61157 345.067307 
L 215.226446 345.23025 
L 215.841322 345.178969 
L 217.68595 344.68348 
L 218.300826 344.791157 
L 220.145455 345.615101 
L 220.760331 345.66133 
L 221.375207 345.509614 
L 222.604959 344.977939 
L 223.219835 344.839084 
L 223.834711 344.865937 
L 225.679339 345.194032 
L 226.294215 345.04303 
L 228.753719 343.835938 
L 229.983471 343.880666 
L 230.598347 343.933953 
L 231.213223 343.87399 
L 232.442975 343.350833 
L 233.672727 342.797751 
L 234.287603 342.718928 
L 236.747107 342.893649 
L 237.97686 342.440064 
L 239.206612 342.057868 
L 240.436364 342.130357 
L 241.666116 342.227999 
L 242.895868 341.886152 
L 244.12562 341.40242 
L 244.740496 341.296049 
L 247.814876 341.262073 
L 249.659504 340.734816 
L 250.889256 340.825934 
L 252.119008 341.029464 
L 253.34876 340.918625 
L 254.578512 340.670191 
L 255.808264 340.710607 
L 257.652893 340.989383 
L 258.882645 340.794333 
L 260.112397 340.529716 
L 261.342149 340.549921 
L 262.571901 340.631255 
L 263.801653 340.42828 
L 265.646281 339.947198 
L 268.720661 339.754412 
L 271.180165 339.069084 
L 273.639669 338.767227 
L 277.943802 337.357902 
L 279.173554 336.893266 
L 281.633058 335.642866 
L 284.092562 334.723793 
L 287.166942 333.120919 
L 289.01157 332.417303 
L 292.700826 330.597042 
L 294.545455 329.870784 
L 297.004959 328.675864 
L 302.538843 326.893089 
L 307.457851 326.219559 
L 311.761983 326.411622 
L 313.606612 326.748096 
L 318.52562 328.039194 
L 328.363636 332.156152 
L 330.82314 333.174527 
L 334.512397 334.238634 
L 336.357025 334.572218 
L 338.816529 334.690463 
L 340.661157 334.623898 
L 342.505785 334.253394 
L 344.965289 333.477828 
L 346.809917 332.635311 
L 349.269421 331.155477 
L 351.728926 329.455125 
L 357.26281 325.02895 
L 360.33719 322.633219 
L 363.41157 320.575832 
L 365.256198 319.554829 
L 367.100826 318.770366 
L 368.945455 318.172406 
L 370.790083 317.829781 
L 372.634711 317.748064 
L 374.479339 317.867926 
L 376.323967 318.221841 
L 378.783471 318.958455 
L 381.857851 320.115049 
L 384.932231 321.2681 
L 387.391736 322.004467 
L 389.236364 322.330881 
L 391.080992 322.397399 
L 392.92562 322.196752 
L 394.155372 321.874244 
L 396 321.093132 
L 397.844628 319.983961 
L 399.689256 318.51799 
L 401.533884 316.715821 
L 403.378512 314.643903 
L 405.838017 311.483979 
L 409.527273 306.279666 
L 413.831405 300.165428 
L 416.290909 296.996844 
L 418.135537 294.91131 
L 419.980165 293.110316 
L 421.824793 291.611842 
L 423.669421 290.455178 
L 425.51405 289.60949 
L 427.358678 289.055784 
L 429.203306 288.780958 
L 431.047934 288.728015 
L 432.892562 288.867065 
L 435.352066 289.296686 
L 438.426446 290.05875 
L 443.960331 291.519331 
L 447.034711 292.080703 
L 450.109091 292.378693 
L 451.338843 292.427656 
L 452.568595 291.950588 
L 453.798347 291.161839 
L 455.642975 289.7202 
L 456.872727 289.245798 
L 464.866116 287.330889 
L 466.710744 287.121827 
L 468.555372 287.167782 
L 469.785124 287.395326 
L 471.014876 287.819733 
L 472.244628 288.353049 
L 474.089256 289.42964 
L 476.54876 291.219471 
L 479.62314 293.777464 
L 482.082645 296.036006 
L 483.927273 297.908142 
L 488.231405 303.022872 
L 496.839669 313.99218 
L 505.447934 324.236969 
L 506.06281 324.301531 
L 506.677686 333.429148 
L 507.292562 338.274275 
L 507.907438 349.747702 
L 508.522314 352.081633 
L 509.13719 357.721275 
L 509.752066 352.320957 
L 510.366942 351.143454 
L 510.981818 342.547077 
L 511.596694 342.82077 
L 512.21157 341.525913 
L 512.826446 344.759926 
L 513.441322 341.334318 
L 514.056198 344.059908 
L 514.671074 345.329545 
L 515.28595 344.31758 
L 516.515702 340.612312 
L 517.130579 340.029446 
L 517.745455 340.576771 
L 518.975207 342.833337 
L 519.590083 343.151329 
L 520.204959 342.396155 
L 520.819835 340.646921 
L 522.049587 336.03951 
L 522.664463 334.196999 
L 523.279339 333.011543 
L 523.894215 332.387634 
L 524.509091 332.015684 
L 525.123967 331.490629 
L 525.738843 330.489373 
L 526.353719 328.918823 
L 528.198347 322.932676 
L 528.813223 321.567574 
L 529.428099 320.798837 
L 530.042975 320.542799 
L 531.887603 320.661867 
L 532.502479 320.408779 
L 533.117355 319.880598 
L 533.732231 319.515059 
L 534.347107 319.356865 
L 534.961983 319.550431 
L 535.57686 320.150684 
L 536.191736 321.111353 
L 538.036364 324.71636 
L 539.880992 327.545991 
L 540.495868 328.733051 
L 541.110744 330.262545 
L 541.72562 332.204163 
L 542.955372 337.145707 
L 544.8 344.957975 
L 546.029752 349.021874 
L 548.489256 356.362917 
L 549.104132 358.199262 
L 549.719008 359.539055 
L 550.333884 360.354486 
L 550.94876 359.692976 
L 551.563636 357.957275 
L 552.793388 354.048271 
L 553.408264 352.736677 
L 554.02314 351.723509 
L 554.638017 350.425465 
L 555.252893 348.096067 
L 555.867769 344.159935 
L 556.482645 338.524329 
L 558.942149 311.924613 
L 560.171901 302.841837 
L 561.401653 294.650908 
L 563.861157 276.862908 
L 564.476033 274.327947 
L 565.090909 273.240486 
L 565.705785 273.442087 
L 566.320661 274.583473 
L 567.550413 278.316293 
L 568.780165 282.829178 
L 569.395041 285.298427 
L 573.699174 311.818692 
L 574.31405 315.892258 
L 575.543802 327.769616 
L 576.158678 334.817839 
L 576.773554 343.997077 
L 578.003306 367.185509 
L 578.618182 382.110343 
L 579.847934 420.841523 
L 580.46281 447.054823 
L 581.077686 467.972242 
L 581.692562 482.658499 
L 582.307438 500.728685 
L 582.922314 511.397442 
L 583.53719 525.96319 
L 584.152066 533.505821 
L 584.766942 546.997515 
L 585.381818 555.22173 
L 585.996694 571.258606 
L 586.61157 581.798172 
L 587.226446 598.694294 
L 587.841322 605.1348 
L 588.456198 599.657956 
L 589.071074 585.166727 
L 589.68595 581.710934 
L 590.300826 574.852586 
L 590.915702 581.460377 
L 591.530579 580.105326 
L 592.145455 584.523879 
L 593.375207 552.820293 
L 593.990083 521.959232 
L 595.219835 493.08952 
L 595.834711 494.907123 
L 596.449587 495.53592 
L 597.064463 507.641102 
L 597.679339 512.085821 
L 598.294215 520.790737 
L 598.909091 519.03064 
L 599.523967 520.715286 
L 600.138843 516.107737 
L 600.753719 515.727246 
L 601.368595 511.052709 
L 601.983471 510.015831 
L 602.598347 506.162698 
L 603.213223 505.694266 
L 603.828099 502.594911 
L 604.442975 505.520709 
L 605.057851 512.215024 
L 605.672727 517.329747 
L 606.287603 517.792237 
L 606.902479 518.961126 
L 607.517355 514.957461 
L 608.132231 512.186519 
L 608.747107 506.662197 
L 609.361983 504.227411 
L 609.97686 498.465057 
L 610.591736 499.080011 
L 611.206612 497.85008 
L 611.821488 508.161665 
L 612.436364 515.717599 
L 613.05124 534.652271 
L 613.666116 538.94572 
L 614.895868 550.129121 
L 615.510744 546.234741 
L 616.12562 552.430091 
L 616.740496 531.816033 
L 617.355372 547.223846 
L 617.970248 492.648809 
L 618.585124 414.179509 
L 619.814876 571.355952 
L 620.429752 492.881067 
L 621.044628 570.503417 
L 621.659504 519.18024 
L 622.27438 440.699761 
L 622.889256 512.084941 
L 624.119008 355.114646 
L 624.733884 430.953956 
L 625.34876 352.464135 
L 625.963636 415.944947 
L 626.578512 337.451383 
L 627.193388 335.161497 
L 627.808264 381.132833 
L 628.42314 302.63365 
L 629.038017 338.482264 
L 629.652893 281.20332 
L 630.267769 359.758825 
L 630.882645 287.373323 
L 631.497521 365.925076 
L 632.112397 287.414641 
L 632.727273 365.96264 
L 633.342149 287.44845 
L 633.957025 311.070382 
L 634.571901 350.278674 
L 635.186777 357.410327 
L 635.801653 341.634746 
L 636.416529 333.539404 
L 637.031405 329.07161 
L 637.646281 322.324436 
L 637.646281 322.324436 
" style="fill:none;stroke:#e50000;stroke-linecap:square;stroke-width:1.5;"/>
   </g>
   <g id="line2d_17">
    <path clip-path="url(#p01700af52a)" d="M 194.935537 237.80509 
L 201.699174 237.918735 
L 208.46281 238.259411 
L 215.226446 238.826331 
L 221.990083 239.618191 
L 228.753719 240.633166 
L 235.517355 241.868919 
L 242.280992 243.322603 
L 249.044628 244.990871 
L 256.42314 247.051003 
L 263.801653 249.356278 
L 271.180165 251.900378 
L 278.558678 254.676329 
L 285.93719 257.676524 
L 293.930579 261.170234 
L 301.923967 264.906219 
L 310.532231 269.186733 
L 319.140496 273.718312 
L 328.363636 278.832956 
L 338.201653 284.56015 
L 348.654545 290.921838 
L 359.722314 297.930121 
L 372.019835 305.993991 
L 386.161983 315.550473 
L 403.993388 327.888125 
L 450.723967 360.362791 
L 464.866116 369.835935 
L 477.163636 377.803972 
L 488.231405 384.708046 
L 498.069421 390.596711 
L 507.907438 396.221768 
L 517.130579 401.231461 
L 525.738843 405.657457 
L 534.347107 409.825427 
L 542.340496 413.45104 
L 550.333884 416.829092 
L 557.712397 419.718155 
L 565.090909 422.379093 
L 572.469421 424.804611 
L 579.847934 426.988063 
L 587.226446 428.923463 
L 593.990083 430.475131 
L 600.753719 431.810326 
L 607.517355 432.925976 
L 614.280992 433.819509 
L 621.044628 434.488867 
L 627.808264 434.93251 
L 634.571901 435.149415 
L 637.031405 435.17196 
L 637.031405 435.17196 
" style="fill:none;stroke:#014d4e;stroke-linecap:square;stroke-width:1.5;"/>
   </g>
   <g id="line2d_18">
    <path clip-path="url(#p01700af52a)" d="M 194.935537 238.093451 
L 195.550413 237.897726 
L 196.165289 237.399172 
L 198.009917 235.051835 
L 198.624793 234.576063 
L 199.239669 234.387286 
L 200.469421 234.3236 
L 201.084298 234.096731 
L 201.699174 233.610078 
L 203.543802 231.677461 
L 204.158678 231.419562 
L 204.773554 231.433519 
L 206.003306 231.69937 
L 206.618182 231.622426 
L 207.233058 231.317194 
L 208.46281 230.443968 
L 209.077686 230.202194 
L 209.692562 230.221256 
L 211.53719 230.951745 
L 212.152066 230.946187 
L 213.381818 230.406929 
L 213.996694 230.128165 
L 214.61157 230.024219 
L 215.226446 230.136356 
L 217.071074 230.825566 
L 217.68595 230.786176 
L 219.530579 230.178213 
L 220.145455 230.20768 
L 220.760331 230.436941 
L 221.990083 231.129246 
L 222.604959 231.351183 
L 223.219835 231.409255 
L 224.449587 231.289334 
L 225.064463 231.346975 
L 225.679339 231.590256 
L 228.138843 233.18479 
L 229.368595 233.344751 
L 229.983471 233.396544 
L 230.598347 233.563409 
L 231.828099 234.305823 
L 233.057851 235.085422 
L 233.672727 235.28022 
L 236.132231 235.587459 
L 237.361983 236.292827 
L 238.591736 236.933984 
L 239.821488 237.127613 
L 241.05124 237.303227 
L 242.280992 237.925445 
L 243.510744 238.696644 
L 244.740496 239.088343 
L 245.970248 239.263697 
L 247.2 239.741739 
L 249.044628 240.745049 
L 250.27438 240.980014 
L 251.504132 241.109511 
L 252.733884 241.560294 
L 253.963636 242.155564 
L 255.193388 242.46885 
L 257.038017 242.733441 
L 258.267769 243.299236 
L 259.497521 243.941368 
L 260.727273 244.305418 
L 261.957025 244.61505 
L 263.186777 245.215672 
L 265.031405 246.305686 
L 268.105785 247.546327 
L 270.565289 249.099324 
L 273.024793 250.294684 
L 279.173554 254.842323 
L 281.018182 256.498 
L 283.477686 258.41724 
L 286.552066 261.304483 
L 288.396694 262.796708 
L 292.700826 266.723248 
L 294.545455 268.38054 
L 296.390083 270.107637 
L 302.538843 274.888736 
L 304.998347 276.463833 
L 306.842975 277.589966 
L 311.761983 279.82023 
L 316.066116 281.124844 
L 317.910744 281.506003 
L 320.985124 282.005986 
L 322.829752 282.229298 
L 325.289256 282.451946 
L 331.438017 283.53685 
L 335.127273 284.736047 
L 336.971901 285.666278 
L 339.431405 287.107988 
L 341.276033 288.483361 
L 343.735537 290.688064 
L 345.580165 292.560834 
L 348.039669 295.486252 
L 351.11405 299.490321 
L 357.26281 308.313338 
L 360.33719 312.61606 
L 363.41157 316.601801 
L 365.871074 319.407925 
L 368.330579 321.864218 
L 370.175207 323.427306 
L 372.019835 324.734921 
L 373.864463 325.846182 
L 375.709091 326.728404 
L 378.783471 327.851803 
L 386.77686 330.455984 
L 388.621488 331.394833 
L 390.466116 332.596876 
L 392.310744 334.069166 
L 394.155372 335.888591 
L 396 338.057816 
L 397.844628 340.560487 
L 399.689256 343.429261 
L 402.14876 347.726611 
L 404.608264 352.497088 
L 408.297521 360.212693 
L 413.831405 371.913444 
L 416.290909 376.708104 
L 418.750413 381.023329 
L 421.209917 384.810165 
L 423.054545 387.25748 
L 424.899174 389.393007 
L 426.743802 391.23552 
L 428.58843 392.7979 
L 431.047934 394.539636 
L 433.507438 395.950035 
L 436.581818 397.407904 
L 445.804959 401.503933 
L 448.879339 403.254747 
L 450.723967 404.424129 
L 451.953719 405.735877 
L 453.183471 407.357424 
L 455.028099 410.044592 
L 456.257851 411.34681 
L 464.25124 418.588464 
L 466.710744 420.435892 
L 468.555372 421.483888 
L 469.785124 421.975658 
L 471.629752 422.389634 
L 473.47438 422.503213 
L 475.319008 422.37147 
L 477.778512 421.95994 
L 480.238017 421.362416 
L 482.697521 420.515772 
L 484.542149 419.629138 
L 486.386777 418.589223 
L 489.461157 416.527702 
L 494.995041 412.774431 
L 498.684298 410.571434 
L 502.98843 408.02713 
L 504.833058 406.745963 
L 505.447934 407.029202 
L 506.06281 398.248276 
L 506.677686 393.748721 
L 507.292562 382.619743 
L 507.907438 380.629129 
L 508.522314 375.331669 
L 509.13719 381.073024 
L 509.752066 382.590413 
L 510.366942 391.52552 
L 510.981818 391.589394 
L 511.596694 393.220648 
L 512.21157 390.321856 
L 512.826446 394.081503 
L 513.441322 391.688763 
L 514.056198 390.750781 
L 514.671074 392.0932 
L 515.900826 396.455746 
L 516.515702 397.365424 
L 517.130579 397.143684 
L 518.360331 395.534585 
L 518.975207 395.538462 
L 519.590083 396.614254 
L 520.204959 398.682849 
L 522.049587 406.083251 
L 522.664463 407.582978 
L 523.279339 408.519872 
L 524.509091 410.03896 
L 525.123967 411.349303 
L 525.738843 413.227629 
L 527.583471 420.129178 
L 528.198347 421.796754 
L 528.813223 422.866624 
L 529.428099 423.422449 
L 531.272727 424.194613 
L 531.887603 424.742048 
L 533.117355 426.220336 
L 533.732231 426.668739 
L 534.347107 426.763991 
L 534.961983 426.45116 
L 535.57686 425.776511 
L 537.421488 423.0211 
L 539.266116 421.028255 
L 539.880992 420.117251 
L 540.495868 418.86237 
L 541.110744 417.193915 
L 542.340496 412.794328 
L 544.185124 405.783992 
L 545.414876 402.24732 
L 547.87438 395.942805 
L 548.489256 394.361829 
L 549.104132 393.27589 
L 549.719008 392.712792 
L 550.333884 393.625111 
L 551.563636 397.943662 
L 552.178512 400.013046 
L 553.408264 402.825583 
L 554.02314 404.365188 
L 554.638017 406.93459 
L 555.252893 411.109163 
L 555.867769 416.981642 
L 558.327273 444.5131 
L 559.557025 454.052229 
L 560.786777 462.693122 
L 563.246281 481.361742 
L 563.861157 484.11281 
L 564.476033 485.414752 
L 565.090909 485.426 
L 565.705785 484.495828 
L 566.320661 482.992406 
L 567.550413 479.199711 
L 568.780165 474.812278 
L 573.084298 449.666201 
L 573.699174 445.782236 
L 574.928926 434.279013 
L 575.543802 427.415315 
L 576.158678 418.418902 
L 577.38843 395.591011 
L 578.003306 380.843884 
L 579.233058 342.462976 
L 579.847934 316.422234 
L 580.46281 295.675651 
L 581.077686 281.158503 
L 581.692562 263.255696 
L 582.307438 252.752587 
L 582.922314 238.350749 
L 583.53719 230.970291 
L 584.152066 217.639027 
L 584.766942 209.573497 
L 585.381818 193.693559 
L 585.996694 183.309179 
L 586.61157 166.566489 
L 587.226446 160.277657 
L 587.841322 165.904417 
L 588.456198 180.543798 
L 589.071074 184.145978 
L 589.68595 191.148945 
L 590.300826 184.684003 
L 590.915702 186.180127 
L 591.530579 181.900872 
L 592.760331 213.877713 
L 593.375207 244.872727 
L 594.604959 274.004981 
L 595.219835 272.315963 
L 595.834711 271.813956 
L 596.449587 259.833768 
L 597.064463 255.512243 
L 597.679339 246.92872 
L 598.294215 248.808406 
L 598.909091 247.241543 
L 599.523967 251.965067 
L 600.138843 252.459723 
L 600.753719 257.246612 
L 601.368595 258.394027 
L 601.983471 262.35588 
L 602.598347 262.931213 
L 603.213223 266.135649 
L 603.828099 263.313108 
L 604.442975 256.720224 
L 605.057851 251.705107 
L 605.672727 251.340394 
L 606.287603 250.267451 
L 606.902479 254.365229 
L 607.517355 257.228451 
L 608.132231 262.843216 
L 608.747107 265.366608 
L 609.361983 271.215727 
L 609.97686 270.685699 
L 610.591736 271.998711 
L 611.206612 261.768365 
L 611.821488 254.291823 
L 612.436364 235.434696 
L 613.05124 231.216942 
L 614.280992 220.179382 
L 614.895868 224.143903 
L 615.510744 218.016839 
L 616.12562 238.697329 
L 616.740496 223.354089 
L 617.355372 277.991843 
L 617.970248 356.521999 
L 619.2 199.461687 
L 619.814876 277.991843 
L 620.429752 200.422901 
L 621.044628 251.797621 
L 621.659504 330.327778 
L 622.27438 258.990408 
L 623.504132 416.050721 
L 624.119008 340.253616 
L 624.733884 418.783772 
L 625.34876 355.341424 
L 625.963636 433.871581 
L 626.578512 436.196187 
L 627.193388 390.257698 
L 627.808264 468.787854 
L 628.42314 432.96834 
L 629.038017 490.274508 
L 629.652893 411.744352 
L 630.267769 484.153327 
L 630.882645 405.623171 
L 631.497521 484.153327 
L 632.112397 405.623171 
L 632.727273 484.153327 
L 633.342149 460.545484 
L 633.957025 421.349402 
L 634.571901 414.228082 
L 635.186777 430.012117 
L 635.801653 438.114035 
L 636.416529 442.586526 
L 637.031405 449.336518 
L 637.031405 449.336518 
" style="fill:none;stroke:#ffff14;stroke-linecap:square;stroke-width:1.5;"/>
   </g>
   <g id="patch_3">
    <path d="M 172.8 629.9064 
L 172.8 84.9312 
" style="fill:none;stroke:#000000;stroke-linecap:square;stroke-linejoin:miter;stroke-width:0.8;"/>
   </g>
   <g id="patch_4">
    <path d="M 659.781818 629.9064 
L 659.781818 84.9312 
" style="fill:none;stroke:#000000;stroke-linecap:square;stroke-linejoin:miter;stroke-width:0.8;"/>
   </g>
   <g id="patch_5">
    <path d="M 172.8 629.9064 
L 659.781818 629.9064 
" style="fill:none;stroke:#000000;stroke-linecap:square;stroke-linejoin:miter;stroke-width:0.8;"/>
   </g>
   <g id="patch_6">
    <path d="M 172.8 84.9312 
L 659.781818 84.9312 
" style="fill:none;stroke:#000000;stroke-linecap:square;stroke-linejoin:miter;stroke-width:0.8;"/>
   </g>
   <g id="text_15">
    <!-- Right abduction -->
    <defs>
     <path d="M 44.390625 34.1875 
Q 47.5625 33.109375 50.5625 29.59375 
Q 53.5625 26.078125 56.59375 19.921875 
L 66.609375 0 
L 56 0 
L 46.6875 18.703125 
Q 43.0625 26.03125 39.671875 28.421875 
Q 36.28125 30.8125 30.421875 30.8125 
L 19.671875 30.8125 
L 19.671875 0 
L 9.8125 0 
L 9.8125 72.90625 
L 32.078125 72.90625 
Q 44.578125 72.90625 50.734375 67.671875 
Q 56.890625 62.453125 56.890625 51.90625 
Q 56.890625 45.015625 53.6875 40.46875 
Q 50.484375 35.9375 44.390625 34.1875 
z
M 19.671875 64.796875 
L 19.671875 38.921875 
L 32.078125 38.921875 
Q 39.203125 38.921875 42.84375 42.21875 
Q 46.484375 45.515625 46.484375 51.90625 
Q 46.484375 58.296875 42.84375 61.546875 
Q 39.203125 64.796875 32.078125 64.796875 
z
" id="DejaVuSans-82"/>
     <path d="M 9.421875 54.6875 
L 18.40625 54.6875 
L 18.40625 0 
L 9.421875 0 
z
M 9.421875 75.984375 
L 18.40625 75.984375 
L 18.40625 64.59375 
L 9.421875 64.59375 
z
" id="DejaVuSans-105"/>
     <path d="M 45.40625 27.984375 
Q 45.40625 37.75 41.375 43.109375 
Q 37.359375 48.484375 30.078125 48.484375 
Q 22.859375 48.484375 18.828125 43.109375 
Q 14.796875 37.75 14.796875 27.984375 
Q 14.796875 18.265625 18.828125 12.890625 
Q 22.859375 7.515625 30.078125 7.515625 
Q 37.359375 7.515625 41.375 12.890625 
Q 45.40625 18.265625 45.40625 27.984375 
z
M 54.390625 6.78125 
Q 54.390625 -7.171875 48.1875 -13.984375 
Q 42 -20.796875 29.203125 -20.796875 
Q 24.46875 -20.796875 20.265625 -20.09375 
Q 16.0625 -19.390625 12.109375 -17.921875 
L 12.109375 -9.1875 
Q 16.0625 -11.328125 19.921875 -12.34375 
Q 23.78125 -13.375 27.78125 -13.375 
Q 36.625 -13.375 41.015625 -8.765625 
Q 45.40625 -4.15625 45.40625 5.171875 
L 45.40625 9.625 
Q 42.625 4.78125 38.28125 2.390625 
Q 33.9375 0 27.875 0 
Q 17.828125 0 11.671875 7.65625 
Q 5.515625 15.328125 5.515625 27.984375 
Q 5.515625 40.671875 11.671875 48.328125 
Q 17.828125 56 27.875 56 
Q 33.9375 56 38.28125 53.609375 
Q 42.625 51.21875 45.40625 46.390625 
L 45.40625 54.6875 
L 54.390625 54.6875 
z
" id="DejaVuSans-103"/>
     <path d="M 54.890625 33.015625 
L 54.890625 0 
L 45.90625 0 
L 45.90625 32.71875 
Q 45.90625 40.484375 42.875 44.328125 
Q 39.84375 48.1875 33.796875 48.1875 
Q 26.515625 48.1875 22.3125 43.546875 
Q 18.109375 38.921875 18.109375 30.90625 
L 18.109375 0 
L 9.078125 0 
L 9.078125 75.984375 
L 18.109375 75.984375 
L 18.109375 46.1875 
Q 21.34375 51.125 25.703125 53.5625 
Q 30.078125 56 35.796875 56 
Q 45.21875 56 50.046875 50.171875 
Q 54.890625 44.34375 54.890625 33.015625 
z
" id="DejaVuSans-104"/>
     <path d="M 18.3125 70.21875 
L 18.3125 54.6875 
L 36.8125 54.6875 
L 36.8125 47.703125 
L 18.3125 47.703125 
L 18.3125 18.015625 
Q 18.3125 11.328125 20.140625 9.421875 
Q 21.96875 7.515625 27.59375 7.515625 
L 36.8125 7.515625 
L 36.8125 0 
L 27.59375 0 
Q 17.1875 0 13.234375 3.875 
Q 9.28125 7.765625 9.28125 18.015625 
L 9.28125 47.703125 
L 2.6875 47.703125 
L 2.6875 54.6875 
L 9.28125 54.6875 
L 9.28125 70.21875 
z
" id="DejaVuSans-116"/>
     <path id="DejaVuSans-32"/>
     <path d="M 34.28125 27.484375 
Q 23.390625 27.484375 19.1875 25 
Q 14.984375 22.515625 14.984375 16.5 
Q 14.984375 11.71875 18.140625 8.90625 
Q 21.296875 6.109375 26.703125 6.109375 
Q 34.1875 6.109375 38.703125 11.40625 
Q 43.21875 16.703125 43.21875 25.484375 
L 43.21875 27.484375 
z
M 52.203125 31.203125 
L 52.203125 0 
L 43.21875 0 
L 43.21875 8.296875 
Q 40.140625 3.328125 35.546875 0.953125 
Q 30.953125 -1.421875 24.3125 -1.421875 
Q 15.921875 -1.421875 10.953125 3.296875 
Q 6 8.015625 6 15.921875 
Q 6 25.140625 12.171875 29.828125 
Q 18.359375 34.515625 30.609375 34.515625 
L 43.21875 34.515625 
L 43.21875 35.40625 
Q 43.21875 41.609375 39.140625 45 
Q 35.0625 48.390625 27.6875 48.390625 
Q 23 48.390625 18.546875 47.265625 
Q 14.109375 46.140625 10.015625 43.890625 
L 10.015625 52.203125 
Q 14.9375 54.109375 19.578125 55.046875 
Q 24.21875 56 28.609375 56 
Q 40.484375 56 46.34375 49.84375 
Q 52.203125 43.703125 52.203125 31.203125 
z
" id="DejaVuSans-97"/>
     <path d="M 48.6875 27.296875 
Q 48.6875 37.203125 44.609375 42.84375 
Q 40.53125 48.484375 33.40625 48.484375 
Q 26.265625 48.484375 22.1875 42.84375 
Q 18.109375 37.203125 18.109375 27.296875 
Q 18.109375 17.390625 22.1875 11.75 
Q 26.265625 6.109375 33.40625 6.109375 
Q 40.53125 6.109375 44.609375 11.75 
Q 48.6875 17.390625 48.6875 27.296875 
z
M 18.109375 46.390625 
Q 20.953125 51.265625 25.265625 53.625 
Q 29.59375 56 35.59375 56 
Q 45.5625 56 51.78125 48.09375 
Q 58.015625 40.1875 58.015625 27.296875 
Q 58.015625 14.40625 51.78125 6.484375 
Q 45.5625 -1.421875 35.59375 -1.421875 
Q 29.59375 -1.421875 25.265625 0.953125 
Q 20.953125 3.328125 18.109375 8.203125 
L 18.109375 0 
L 9.078125 0 
L 9.078125 75.984375 
L 18.109375 75.984375 
z
" id="DejaVuSans-98"/>
     <path d="M 45.40625 46.390625 
L 45.40625 75.984375 
L 54.390625 75.984375 
L 54.390625 0 
L 45.40625 0 
L 45.40625 8.203125 
Q 42.578125 3.328125 38.25 0.953125 
Q 33.9375 -1.421875 27.875 -1.421875 
Q 17.96875 -1.421875 11.734375 6.484375 
Q 5.515625 14.40625 5.515625 27.296875 
Q 5.515625 40.1875 11.734375 48.09375 
Q 17.96875 56 27.875 56 
Q 33.9375 56 38.25 53.625 
Q 42.578125 51.265625 45.40625 46.390625 
z
M 14.796875 27.296875 
Q 14.796875 17.390625 18.875 11.75 
Q 22.953125 6.109375 30.078125 6.109375 
Q 37.203125 6.109375 41.296875 11.75 
Q 45.40625 17.390625 45.40625 27.296875 
Q 45.40625 37.203125 41.296875 42.84375 
Q 37.203125 48.484375 30.078125 48.484375 
Q 22.953125 48.484375 18.875 42.84375 
Q 14.796875 37.203125 14.796875 27.296875 
z
" id="DejaVuSans-100"/>
     <path d="M 8.5 21.578125 
L 8.5 54.6875 
L 17.484375 54.6875 
L 17.484375 21.921875 
Q 17.484375 14.15625 20.5 10.265625 
Q 23.53125 6.390625 29.59375 6.390625 
Q 36.859375 6.390625 41.078125 11.03125 
Q 45.3125 15.671875 45.3125 23.6875 
L 45.3125 54.6875 
L 54.296875 54.6875 
L 54.296875 0 
L 45.3125 0 
L 45.3125 8.40625 
Q 42.046875 3.421875 37.71875 1 
Q 33.40625 -1.421875 27.6875 -1.421875 
Q 18.265625 -1.421875 13.375 4.4375 
Q 8.5 10.296875 8.5 21.578125 
z
M 31.109375 56 
z
" id="DejaVuSans-117"/>
     <path d="M 48.78125 52.59375 
L 48.78125 44.1875 
Q 44.96875 46.296875 41.140625 47.34375 
Q 37.3125 48.390625 33.40625 48.390625 
Q 24.65625 48.390625 19.8125 42.84375 
Q 14.984375 37.3125 14.984375 27.296875 
Q 14.984375 17.28125 19.8125 11.734375 
Q 24.65625 6.203125 33.40625 6.203125 
Q 37.3125 6.203125 41.140625 7.25 
Q 44.96875 8.296875 48.78125 10.40625 
L 48.78125 2.09375 
Q 45.015625 0.34375 40.984375 -0.53125 
Q 36.96875 -1.421875 32.421875 -1.421875 
Q 20.0625 -1.421875 12.78125 6.34375 
Q 5.515625 14.109375 5.515625 27.296875 
Q 5.515625 40.671875 12.859375 48.328125 
Q 20.21875 56 33.015625 56 
Q 37.15625 56 41.109375 55.140625 
Q 45.0625 54.296875 48.78125 52.59375 
z
" id="DejaVuSans-99"/>
     <path d="M 30.609375 48.390625 
Q 23.390625 48.390625 19.1875 42.75 
Q 14.984375 37.109375 14.984375 27.296875 
Q 14.984375 17.484375 19.15625 11.84375 
Q 23.34375 6.203125 30.609375 6.203125 
Q 37.796875 6.203125 41.984375 11.859375 
Q 46.1875 17.53125 46.1875 27.296875 
Q 46.1875 37.015625 41.984375 42.703125 
Q 37.796875 48.390625 30.609375 48.390625 
z
M 30.609375 56 
Q 42.328125 56 49.015625 48.375 
Q 55.71875 40.765625 55.71875 27.296875 
Q 55.71875 13.875 49.015625 6.21875 
Q 42.328125 -1.421875 30.609375 -1.421875 
Q 18.84375 -1.421875 12.171875 6.21875 
Q 5.515625 13.875 5.515625 27.296875 
Q 5.515625 40.765625 12.171875 48.375 
Q 18.84375 56 30.609375 56 
z
" id="DejaVuSans-111"/>
     <path d="M 54.890625 33.015625 
L 54.890625 0 
L 45.90625 0 
L 45.90625 32.71875 
Q 45.90625 40.484375 42.875 44.328125 
Q 39.84375 48.1875 33.796875 48.1875 
Q 26.515625 48.1875 22.3125 43.546875 
Q 18.109375 38.921875 18.109375 30.90625 
L 18.109375 0 
L 9.078125 0 
L 9.078125 54.6875 
L 18.109375 54.6875 
L 18.109375 46.1875 
Q 21.34375 51.125 25.703125 53.5625 
Q 30.078125 56 35.796875 56 
Q 45.21875 56 50.046875 50.171875 
Q 54.890625 44.34375 54.890625 33.015625 
z
" id="DejaVuSans-110"/>
    </defs>
    <g transform="translate(368.694972 78.9312)scale(0.12 -0.12)">
     <use xlink:href="#DejaVuSans-82"/>
     <use x="69.482422" xlink:href="#DejaVuSans-105"/>
     <use x="97.265625" xlink:href="#DejaVuSans-103"/>
     <use x="160.742188" xlink:href="#DejaVuSans-104"/>
     <use x="224.121094" xlink:href="#DejaVuSans-116"/>
     <use x="263.330078" xlink:href="#DejaVuSans-32"/>
     <use x="295.117188" xlink:href="#DejaVuSans-97"/>
     <use x="356.396484" xlink:href="#DejaVuSans-98"/>
     <use x="419.873047" xlink:href="#DejaVuSans-100"/>
     <use x="483.349609" xlink:href="#DejaVuSans-117"/>
     <use x="546.728516" xlink:href="#DejaVuSans-99"/>
     <use x="601.708984" xlink:href="#DejaVuSans-116"/>
     <use x="640.917969" xlink:href="#DejaVuSans-105"/>
     <use x="668.701172" xlink:href="#DejaVuSans-111"/>
     <use x="729.882812" xlink:href="#DejaVuSans-110"/>
    </g>
   </g>
  </g>
  <g id="axes_2">
   <g id="patch_7">
    <path d="M 757.178182 629.9064 
L 1244.16 629.9064 
L 1244.16 84.9312 
L 757.178182 84.9312 
z
" style="fill:#ffffff;"/>
   </g>
   <g id="matplotlib.axis_3">
    <g id="xtick_9">
     <g id="line2d_19">
      <g>
       <use style="stroke:#000000;stroke-width:0.8;" x="779.313719" xlink:href="#m0d4468d348" y="629.9064"/>
      </g>
     </g>
     <g id="text_16">
      <!-- 0 -->
      <g transform="translate(776.132469 644.504838)scale(0.1 -0.1)">
       <use xlink:href="#DejaVuSans-48"/>
      </g>
     </g>
    </g>
    <g id="xtick_10">
     <g id="line2d_20">
      <g>
       <use style="stroke:#000000;stroke-width:0.8;" x="840.801322" xlink:href="#m0d4468d348" y="629.9064"/>
      </g>
     </g>
     <g id="text_17">
      <!-- 100 -->
      <g transform="translate(831.257572 644.504838)scale(0.1 -0.1)">
       <use xlink:href="#DejaVuSans-49"/>
       <use x="63.623047" xlink:href="#DejaVuSans-48"/>
       <use x="127.246094" xlink:href="#DejaVuSans-48"/>
      </g>
     </g>
    </g>
    <g id="xtick_11">
     <g id="line2d_21">
      <g>
       <use style="stroke:#000000;stroke-width:0.8;" x="902.288926" xlink:href="#m0d4468d348" y="629.9064"/>
      </g>
     </g>
     <g id="text_18">
      <!-- 200 -->
      <g transform="translate(892.745176 644.504838)scale(0.1 -0.1)">
       <use xlink:href="#DejaVuSans-50"/>
       <use x="63.623047" xlink:href="#DejaVuSans-48"/>
       <use x="127.246094" xlink:href="#DejaVuSans-48"/>
      </g>
     </g>
    </g>
    <g id="xtick_12">
     <g id="line2d_22">
      <g>
       <use style="stroke:#000000;stroke-width:0.8;" x="963.776529" xlink:href="#m0d4468d348" y="629.9064"/>
      </g>
     </g>
     <g id="text_19">
      <!-- 300 -->
      <g transform="translate(954.232779 644.504838)scale(0.1 -0.1)">
       <use xlink:href="#DejaVuSans-51"/>
       <use x="63.623047" xlink:href="#DejaVuSans-48"/>
       <use x="127.246094" xlink:href="#DejaVuSans-48"/>
      </g>
     </g>
    </g>
    <g id="xtick_13">
     <g id="line2d_23">
      <g>
       <use style="stroke:#000000;stroke-width:0.8;" x="1025.264132" xlink:href="#m0d4468d348" y="629.9064"/>
      </g>
     </g>
     <g id="text_20">
      <!-- 400 -->
      <g transform="translate(1015.720382 644.504838)scale(0.1 -0.1)">
       <use xlink:href="#DejaVuSans-52"/>
       <use x="63.623047" xlink:href="#DejaVuSans-48"/>
       <use x="127.246094" xlink:href="#DejaVuSans-48"/>
      </g>
     </g>
    </g>
    <g id="xtick_14">
     <g id="line2d_24">
      <g>
       <use style="stroke:#000000;stroke-width:0.8;" x="1086.751736" xlink:href="#m0d4468d348" y="629.9064"/>
      </g>
     </g>
     <g id="text_21">
      <!-- 500 -->
      <g transform="translate(1077.207986 644.504838)scale(0.1 -0.1)">
       <use xlink:href="#DejaVuSans-53"/>
       <use x="63.623047" xlink:href="#DejaVuSans-48"/>
       <use x="127.246094" xlink:href="#DejaVuSans-48"/>
      </g>
     </g>
    </g>
    <g id="xtick_15">
     <g id="line2d_25">
      <g>
       <use style="stroke:#000000;stroke-width:0.8;" x="1148.239339" xlink:href="#m0d4468d348" y="629.9064"/>
      </g>
     </g>
     <g id="text_22">
      <!-- 600 -->
      <g transform="translate(1138.695589 644.504838)scale(0.1 -0.1)">
       <use xlink:href="#DejaVuSans-54"/>
       <use x="63.623047" xlink:href="#DejaVuSans-48"/>
       <use x="127.246094" xlink:href="#DejaVuSans-48"/>
      </g>
     </g>
    </g>
    <g id="xtick_16">
     <g id="line2d_26">
      <g>
       <use style="stroke:#000000;stroke-width:0.8;" x="1209.726942" xlink:href="#m0d4468d348" y="629.9064"/>
      </g>
     </g>
     <g id="text_23">
      <!-- 700 -->
      <g transform="translate(1200.183192 644.504838)scale(0.1 -0.1)">
       <use xlink:href="#DejaVuSans-55"/>
       <use x="63.623047" xlink:href="#DejaVuSans-48"/>
       <use x="127.246094" xlink:href="#DejaVuSans-48"/>
      </g>
     </g>
    </g>
   </g>
   <g id="matplotlib.axis_4">
    <g id="ytick_7">
     <g id="line2d_27">
      <g>
       <use style="stroke:#000000;stroke-width:0.8;" x="757.178182" xlink:href="#mefb67e68dc" y="611.939706"/>
      </g>
     </g>
     <g id="text_24">
      <!-- −2.0 -->
      <g transform="translate(725.895369 615.738925)scale(0.1 -0.1)">
       <use xlink:href="#DejaVuSans-8722"/>
       <use x="83.789062" xlink:href="#DejaVuSans-50"/>
       <use x="147.412109" xlink:href="#DejaVuSans-46"/>
       <use x="179.199219" xlink:href="#DejaVuSans-48"/>
      </g>
     </g>
    </g>
    <g id="ytick_8">
     <g id="line2d_28">
      <g>
       <use style="stroke:#000000;stroke-width:0.8;" x="757.178182" xlink:href="#mefb67e68dc" y="538.807904"/>
      </g>
     </g>
     <g id="text_25">
      <!-- −1.5 -->
      <g transform="translate(725.895369 542.607123)scale(0.1 -0.1)">
       <use xlink:href="#DejaVuSans-8722"/>
       <use x="83.789062" xlink:href="#DejaVuSans-49"/>
       <use x="147.412109" xlink:href="#DejaVuSans-46"/>
       <use x="179.199219" xlink:href="#DejaVuSans-53"/>
      </g>
     </g>
    </g>
    <g id="ytick_9">
     <g id="line2d_29">
      <g>
       <use style="stroke:#000000;stroke-width:0.8;" x="757.178182" xlink:href="#mefb67e68dc" y="465.676102"/>
      </g>
     </g>
     <g id="text_26">
      <!-- −1.0 -->
      <g transform="translate(725.895369 469.475321)scale(0.1 -0.1)">
       <use xlink:href="#DejaVuSans-8722"/>
       <use x="83.789062" xlink:href="#DejaVuSans-49"/>
       <use x="147.412109" xlink:href="#DejaVuSans-46"/>
       <use x="179.199219" xlink:href="#DejaVuSans-48"/>
      </g>
     </g>
    </g>
    <g id="ytick_10">
     <g id="line2d_30">
      <g>
       <use style="stroke:#000000;stroke-width:0.8;" x="757.178182" xlink:href="#mefb67e68dc" y="392.544301"/>
      </g>
     </g>
     <g id="text_27">
      <!-- −0.5 -->
      <g transform="translate(725.895369 396.343519)scale(0.1 -0.1)">
       <use xlink:href="#DejaVuSans-8722"/>
       <use x="83.789062" xlink:href="#DejaVuSans-48"/>
       <use x="147.412109" xlink:href="#DejaVuSans-46"/>
       <use x="179.199219" xlink:href="#DejaVuSans-53"/>
      </g>
     </g>
    </g>
    <g id="ytick_11">
     <g id="line2d_31">
      <g>
       <use style="stroke:#000000;stroke-width:0.8;" x="757.178182" xlink:href="#mefb67e68dc" y="319.412499"/>
      </g>
     </g>
     <g id="text_28">
      <!-- 0.0 -->
      <g transform="translate(734.275057 323.211718)scale(0.1 -0.1)">
       <use xlink:href="#DejaVuSans-48"/>
       <use x="63.623047" xlink:href="#DejaVuSans-46"/>
       <use x="95.410156" xlink:href="#DejaVuSans-48"/>
      </g>
     </g>
    </g>
    <g id="ytick_12">
     <g id="line2d_32">
      <g>
       <use style="stroke:#000000;stroke-width:0.8;" x="757.178182" xlink:href="#mefb67e68dc" y="246.280697"/>
      </g>
     </g>
     <g id="text_29">
      <!-- 0.5 -->
      <g transform="translate(734.275057 250.079916)scale(0.1 -0.1)">
       <use xlink:href="#DejaVuSans-48"/>
       <use x="63.623047" xlink:href="#DejaVuSans-46"/>
       <use x="95.410156" xlink:href="#DejaVuSans-53"/>
      </g>
     </g>
    </g>
    <g id="ytick_13">
     <g id="line2d_33">
      <g>
       <use style="stroke:#000000;stroke-width:0.8;" x="757.178182" xlink:href="#mefb67e68dc" y="173.148895"/>
      </g>
     </g>
     <g id="text_30">
      <!-- 1.0 -->
      <g transform="translate(734.275057 176.948114)scale(0.1 -0.1)">
       <use xlink:href="#DejaVuSans-49"/>
       <use x="63.623047" xlink:href="#DejaVuSans-46"/>
       <use x="95.410156" xlink:href="#DejaVuSans-48"/>
      </g>
     </g>
    </g>
    <g id="ytick_14">
     <g id="line2d_34">
      <g>
       <use style="stroke:#000000;stroke-width:0.8;" x="757.178182" xlink:href="#mefb67e68dc" y="100.017094"/>
      </g>
     </g>
     <g id="text_31">
      <!-- 1.5 -->
      <g transform="translate(734.275057 103.816312)scale(0.1 -0.1)">
       <use xlink:href="#DejaVuSans-49"/>
       <use x="63.623047" xlink:href="#DejaVuSans-46"/>
       <use x="95.410156" xlink:href="#DejaVuSans-53"/>
      </g>
     </g>
    </g>
   </g>
   <g id="line2d_35">
    <path clip-path="url(#paddf4ca5b6)" d="M 779.313719 317.932291 
L 779.928595 317.257357 
L 780.543471 317.796604 
L 781.158347 319.350303 
L 781.773223 321.225063 
L 782.388099 322.578259 
L 783.002975 322.807758 
L 783.617851 321.846766 
L 784.847603 318.626086 
L 785.462479 317.856327 
L 786.077355 318.185366 
L 787.921983 321.492897 
L 788.53686 321.236373 
L 789.151736 320.009856 
L 790.381488 317.014989 
L 790.996364 316.583217 
L 791.61124 317.20913 
L 792.840992 319.904189 
L 793.455868 320.645624 
L 794.070744 320.446375 
L 794.68562 319.479165 
L 795.300496 318.302145 
L 795.915372 317.567779 
L 796.530248 317.691604 
L 797.145124 318.671557 
L 798.374876 321.296583 
L 798.989752 321.7845 
L 799.604628 321.381648 
L 800.83438 319.238851 
L 801.449256 318.602704 
L 802.064132 318.734933 
L 802.679008 319.530765 
L 803.293884 320.556109 
L 803.90876 321.254163 
L 804.523636 321.231128 
L 805.138512 320.460189 
L 806.368264 318.201801 
L 806.98314 317.707328 
L 807.598017 317.96788 
L 809.442645 320.257444 
L 810.057521 320.142761 
L 810.672397 319.446372 
L 811.287273 318.546666 
L 811.902149 317.920214 
L 812.517025 317.915025 
L 813.131901 318.55778 
L 814.361653 320.478902 
L 814.976529 320.913956 
L 815.591405 320.715247 
L 816.821157 319.302861 
L 817.436033 318.886421 
L 818.050909 319.022923 
L 818.665785 319.647612 
L 819.280661 320.442317 
L 819.895537 321.000404 
L 820.510413 321.032706 
L 821.125289 320.508802 
L 822.355041 318.900491 
L 822.969917 318.548196 
L 823.584793 318.731791 
L 824.814545 319.919439 
L 825.429421 320.238934 
L 826.044298 320.075736 
L 827.888926 318.300304 
L 828.503802 318.277967 
L 829.118678 318.731386 
L 830.34843 320.055417 
L 830.963306 320.311757 
L 831.578182 320.118848 
L 832.807934 319.113076 
L 833.42281 318.894467 
L 834.037686 319.100455 
L 835.882314 320.673136 
L 836.49719 320.667487 
L 837.112066 320.26119 
L 838.341818 319.181358 
L 838.956694 319.020943 
L 839.57157 319.238829 
L 840.801322 320.099955 
L 841.416198 320.229636 
L 842.031074 319.987866 
L 843.260826 318.916352 
L 843.875702 318.589877 
L 844.490579 318.63447 
L 846.335207 319.840494 
L 846.950083 319.894972 
L 847.564959 319.637755 
L 848.794711 318.89218 
L 849.409587 318.831151 
L 850.024463 319.09934 
L 851.254215 320.031509 
L 851.869091 320.262518 
L 852.483967 320.177794 
L 854.328595 319.204471 
L 854.943471 319.233419 
L 856.788099 320.128158 
L 857.402975 320.118761 
L 858.017851 319.834999 
L 859.247603 319.029759 
L 859.862479 318.876499 
L 860.477355 318.997204 
L 861.707107 319.606847 
L 862.321983 319.742109 
L 862.93686 319.633304 
L 864.781488 318.817162 
L 865.396364 318.887382 
L 867.240992 319.816862 
L 867.855868 319.87312 
L 869.08562 319.442867 
L 869.700496 319.22895 
L 870.315372 319.197687 
L 870.930248 319.375644 
L 872.16 319.945502 
L 872.774876 320.047635 
L 873.389752 319.931897 
L 875.23438 319.201389 
L 875.849256 319.227548 
L 877.693884 319.770637 
L 878.30876 319.720301 
L 880.153388 319.025387 
L 880.768264 318.99433 
L 881.998017 319.38311 
L 882.612893 319.59123 
L 883.227769 319.662107 
L 884.457521 319.37662 
L 885.072397 319.201972 
L 885.687273 319.151431 
L 886.302149 319.264619 
L 888.146777 319.859475 
L 888.761653 319.833237 
L 890.606281 319.364527 
L 891.221157 319.38039 
L 893.065785 319.820934 
L 893.680661 319.810185 
L 896.140165 319.221746 
L 897.369917 319.433011 
L 898.599669 319.608132 
L 899.829421 319.376611 
L 901.059174 319.150617 
L 902.288926 319.345427 
L 903.518678 319.621513 
L 904.74843 319.533799 
L 905.978182 319.327541 
L 907.207934 319.445067 
L 908.437686 319.709379 
L 909.667438 319.670027 
L 911.512066 319.36374 
L 912.741818 319.487174 
L 913.97157 319.623823 
L 915.201322 319.467926 
L 916.431074 319.25099 
L 917.660826 319.307713 
L 919.505455 319.502084 
L 922.579835 319.322422 
L 924.424463 319.594582 
L 925.654215 319.54122 
L 927.498843 319.437642 
L 929.958347 319.675453 
L 933.647603 319.52269 
L 935.492231 319.61836 
L 937.951736 319.461239 
L 941.640992 319.662235 
L 943.48562 319.649486 
L 946.56 319.852552 
L 949.019504 319.790979 
L 951.479008 319.872259 
L 954.553388 319.759114 
L 957.012893 319.794506 
L 959.472397 319.719845 
L 962.546777 319.773402 
L 965.006281 319.71097 
L 967.465785 319.705716 
L 970.540165 319.556611 
L 972.999669 319.488889 
L 975.459174 319.390809 
L 978.533554 319.385772 
L 980.993058 319.383268 
L 983.452562 319.414274 
L 986.526942 319.405818 
L 989.601322 319.359284 
L 995.750083 319.361047 
L 1001.898843 319.442689 
L 1006.202975 319.383652 
L 1014.196364 319.291322 
L 1018.500496 319.297604 
L 1035.102149 319.260597 
L 1035.717025 318.982985 
L 1036.331901 318.94143 
L 1038.176529 319.515831 
L 1040.021157 319.288702 
L 1041.865785 319.487064 
L 1043.710413 319.217323 
L 1046.784793 319.196581 
L 1048.014545 319.115671 
L 1054.778182 319.374863 
L 1057.852562 319.376687 
L 1067.690579 319.345426 
L 1070.764959 319.406154 
L 1075.069091 319.402194 
L 1083.062479 319.405431 
L 1087.981488 319.535042 
L 1088.596364 319.21785 
L 1089.21124 322.846488 
L 1089.826116 276.435981 
L 1090.440992 334.890781 
L 1091.055868 286.33152 
L 1091.670744 351.345327 
L 1092.28562 299.851643 
L 1092.900496 356.223088 
L 1093.515372 298.998656 
L 1094.130248 342.725586 
L 1094.745124 282.832336 
L 1095.36 319.601063 
L 1095.974876 294.136934 
L 1096.589752 346.639949 
L 1097.204628 288.016111 
L 1097.819504 322.056298 
L 1098.43438 329.86672 
L 1099.049256 324.262943 
L 1099.664132 315.691022 
L 1100.279008 309.618795 
L 1100.893884 308.234591 
L 1101.50876 311.318051 
L 1102.738512 322.841283 
L 1103.353388 326.438691 
L 1103.968264 326.589986 
L 1104.58314 323.474348 
L 1105.812893 313.916882 
L 1106.427769 311.414064 
L 1107.042645 311.967413 
L 1107.657521 315.258535 
L 1108.887273 324.011909 
L 1109.502149 325.95909 
L 1110.117025 325.030264 
L 1110.731901 321.659191 
L 1111.961653 313.328078 
L 1112.576529 311.45355 
L 1113.191405 312.173007 
L 1113.806281 315.11528 
L 1115.036033 322.668377 
L 1115.650909 324.484468 
L 1116.265785 323.956499 
L 1116.880661 321.142015 
L 1118.110413 314.617286 
L 1118.725289 313.205681 
L 1119.340165 314.027817 
L 1119.955041 316.848421 
L 1121.184793 324.140498 
L 1121.799669 326.019091 
L 1122.414545 325.529909 
L 1123.029421 323.528808 
L 1124.259174 318.248509 
L 1124.87405 317.188432 
L 1125.488926 317.922511 
L 1126.103802 320.152827 
L 1127.333554 325.568672 
L 1127.94843 326.865021 
L 1128.563306 326.535992 
L 1129.178182 324.762572 
L 1130.407934 319.621702 
L 1131.02281 317.892985 
L 1131.637686 317.470903 
L 1132.252562 318.386484 
L 1133.482314 322.146088 
L 1134.09719 323.004057 
L 1134.712066 320.327446 
L 1135.326942 316.905497 
L 1135.941818 314.160063 
L 1136.556694 313.231971 
L 1137.17157 314.515545 
L 1138.401322 321.093413 
L 1139.016198 324.267643 
L 1139.631074 325.460491 
L 1140.24595 324.340121 
L 1141.475702 318.570704 
L 1142.090579 316.621756 
L 1142.705455 316.565469 
L 1143.320331 318.418853 
L 1144.550083 324.542382 
L 1145.164959 326.550824 
L 1145.779835 326.830323 
L 1146.394711 325.443411 
L 1147.624463 320.637617 
L 1148.239339 319.213618 
L 1148.854215 319.358621 
L 1149.469091 320.91367 
L 1150.698843 325.252837 
L 1151.313719 326.318402 
L 1151.928595 325.941582 
L 1152.543471 324.165305 
L 1153.773223 319.06784 
L 1154.388099 316.629734 
L 1155.002975 314.76347 
L 1155.617851 314.084676 
L 1156.232727 315.331181 
L 1157.462479 321.416743 
L 1158.077355 330.80726 
L 1158.692231 333.048348 
L 1159.921983 309.443956 
L 1160.53686 314.964912 
L 1161.151736 328.823099 
L 1161.766612 317.320872 
L 1162.381488 320.265021 
L 1162.996364 322.230904 
L 1163.61124 312.384924 
L 1164.226116 385.533114 
L 1164.840992 347.653158 
L 1165.455868 295.755947 
L 1166.070744 345.743801 
L 1166.68562 295.076159 
L 1167.300496 341.545423 
L 1167.915372 289.956301 
L 1168.530248 334.488723 
L 1169.145124 285.647942 
L 1169.76 332.391111 
L 1170.374876 290.494024 
L 1170.989752 340.505963 
L 1171.604628 302.274905 
L 1172.219504 337.109358 
L 1172.83438 283.660416 
L 1173.449256 323.122347 
L 1174.064132 276.745877 
L 1174.679008 328.269582 
L 1175.293884 291.876772 
L 1175.90876 346.298396 
L 1176.523636 302.025411 
L 1177.138512 341.940125 
L 1177.753388 279.074039 
L 1178.368264 320.577127 
L 1178.98314 264.435478 
L 1179.598017 317.30572 
L 1180.212893 272.355127 
L 1180.827769 333.310567 
L 1181.442645 290.434183 
L 1182.057521 346.199547 
L 1182.672397 294.289902 
L 1183.287273 339.704167 
L 1183.902149 290.792787 
L 1184.517025 335.33325 
L 1185.131901 293.693873 
L 1185.746777 331.181468 
L 1186.361653 294.524621 
L 1186.976529 332.968856 
L 1187.591405 284.002491 
L 1188.206281 286.743625 
L 1189.436033 342.347647 
L 1190.050909 295.054634 
L 1190.665785 343.835646 
L 1191.280661 292.271452 
L 1191.895537 336.952633 
L 1192.510413 283.465157 
L 1193.125289 327.916461 
L 1193.740165 274.325153 
L 1194.355041 320.388792 
L 1194.969917 269.040905 
L 1195.584793 313.837473 
L 1196.199669 268.575772 
L 1196.814545 281.149596 
L 1197.429421 282.657166 
L 1198.044298 291.478015 
L 1198.659174 318.351384 
L 1199.27405 287.776336 
L 1199.888926 320.141536 
L 1200.503802 257.954186 
L 1201.118678 303.561141 
L 1201.733554 321.111967 
L 1202.34843 212.574749 
L 1202.963306 334.777202 
L 1203.578182 362.802677 
L 1204.193058 251.54155 
L 1204.807934 312.83474 
L 1205.42281 290.0832 
L 1206.037686 259.513663 
L 1206.652562 351.867431 
L 1207.882314 252.099714 
L 1208.49719 333.212145 
L 1209.112066 289.137494 
L 1209.726942 361.605288 
L 1210.341818 312.103739 
L 1210.956694 319.239151 
L 1211.57157 363.85041 
L 1212.186446 304.555852 
L 1212.801322 338.759918 
L 1213.416198 300.364364 
L 1214.031074 371.702976 
L 1214.64595 316.798489 
L 1215.260826 376.937477 
L 1215.875702 307.32471 
L 1216.490579 358.65476 
L 1217.105455 286.409589 
L 1217.720331 294.741028 
L 1218.335207 319.196658 
L 1218.950083 319.534177 
L 1219.564959 301.282377 
L 1220.179835 299.694124 
L 1221.409587 352.310881 
L 1221.409587 352.310881 
" style="fill:none;stroke:#ff796c;stroke-linecap:square;stroke-width:1.5;"/>
   </g>
   <g id="line2d_36">
    <path clip-path="url(#paddf4ca5b6)" d="M 779.313719 319.412499 
L 779.928595 319.239936 
L 780.543471 319.635128 
L 781.158347 320.589563 
L 782.388099 323.241485 
L 783.002975 324.031952 
L 783.617851 323.987116 
L 784.232727 323.097915 
L 786.077355 318.958154 
L 786.692231 318.264041 
L 787.921983 317.679958 
L 788.53686 317.092536 
L 789.151736 315.992238 
L 790.996364 311.634211 
L 791.61124 311.070211 
L 792.226116 311.255231 
L 794.070744 313.559967 
L 794.68562 313.872145 
L 795.915372 313.888512 
L 796.530248 314.182915 
L 797.145124 314.95137 
L 798.989752 318.578028 
L 799.604628 319.156486 
L 800.219504 319.119814 
L 800.83438 318.61449 
L 802.064132 317.391598 
L 802.679008 317.129571 
L 803.90876 317.085377 
L 804.523636 316.804535 
L 805.138512 316.089067 
L 807.598017 311.741745 
L 808.212893 311.484583 
L 808.827769 311.633808 
L 810.057521 312.164366 
L 810.672397 312.159892 
L 811.902149 311.808215 
L 812.517025 311.895478 
L 813.131901 312.389035 
L 813.746777 313.271342 
L 814.976529 315.363825 
L 815.591405 316.067693 
L 816.206281 316.372474 
L 816.821157 316.360298 
L 818.050909 316.182669 
L 818.665785 316.331261 
L 819.895537 316.895488 
L 820.510413 316.926942 
L 821.125289 316.586385 
L 821.740165 315.885034 
L 822.969917 314.104859 
L 823.584793 313.458035 
L 824.199669 313.117467 
L 826.044298 312.837753 
L 826.659174 312.513896 
L 827.888926 311.633627 
L 828.503802 311.426777 
L 829.118678 311.557126 
L 829.733554 312.011867 
L 830.963306 313.269284 
L 831.578182 313.713812 
L 832.193058 313.926261 
L 834.037686 314.156146 
L 835.267438 314.922175 
L 835.882314 315.31894 
L 836.49719 315.50893 
L 837.112066 315.395057 
L 837.726942 314.996006 
L 838.956694 313.88683 
L 839.57157 313.474182 
L 840.801322 313.088257 
L 841.416198 312.912611 
L 842.031074 312.591543 
L 843.260826 311.498151 
L 843.875702 310.944466 
L 844.490579 310.58021 
L 845.105455 310.481877 
L 845.720331 310.620435 
L 846.950083 311.123207 
L 847.564959 311.25208 
L 849.409587 311.2681 
L 850.024463 311.473234 
L 851.254215 312.318172 
L 851.869091 312.742093 
L 852.483967 313.000044 
L 853.098843 313.039344 
L 854.328595 312.678694 
L 855.558347 312.410325 
L 857.402975 312.31558 
L 858.017851 312.050335 
L 860.477355 310.401382 
L 861.092231 310.288407 
L 863.551736 310.31136 
L 864.781488 310.107641 
L 865.396364 310.153443 
L 866.01124 310.371918 
L 868.470744 311.775032 
L 869.700496 311.955022 
L 870.930248 312.154482 
L 872.774876 312.772947 
L 873.389752 312.811249 
L 874.004628 312.694208 
L 876.464132 311.862228 
L 878.30876 311.719251 
L 879.538512 311.337177 
L 880.768264 310.95578 
L 881.38314 310.928379 
L 882.612893 311.20627 
L 883.842645 311.517472 
L 886.302149 311.744831 
L 888.761653 312.525374 
L 889.991405 312.456717 
L 891.836033 312.107744 
L 893.680661 311.872281 
L 894.910413 311.348734 
L 896.755041 310.402638 
L 898.599669 309.942259 
L 899.829421 309.554933 
L 901.67405 308.942894 
L 902.903802 308.868561 
L 904.133554 308.865168 
L 905.363306 308.65588 
L 907.207934 308.251299 
L 909.052562 308.003665 
L 910.282314 307.561351 
L 912.741818 306.363626 
L 914.586446 305.619784 
L 917.660826 304.08581 
L 919.505455 303.671816 
L 922.579835 303.065368 
L 924.424463 303.139182 
L 926.269091 303.118117 
L 928.113719 303.040789 
L 930.573223 303.117205 
L 933.647603 302.932207 
L 937.951736 303.363364 
L 939.181488 303.685995 
L 946.56 306.214398 
L 948.404628 306.521704 
L 951.479008 306.808044 
L 953.323636 306.696967 
L 962.546777 305.756358 
L 965.621157 305.044775 
L 968.080661 304.313623 
L 971.155041 303.252565 
L 974.229421 302.4698 
L 976.07405 302.262772 
L 977.918678 302.323809 
L 979.763306 302.5403 
L 981.607934 302.977074 
L 985.912066 304.397345 
L 990.216198 306.216416 
L 992.675702 307.481253 
L 996.364959 309.623565 
L 1000.054215 311.861862 
L 1003.128595 313.428527 
L 1004.973223 314.130731 
L 1007.432727 314.816585 
L 1009.892231 315.284532 
L 1016.655868 316.128275 
L 1020.345124 316.376122 
L 1024.03438 316.290372 
L 1030.18314 316.002022 
L 1033.257521 316.127164 
L 1036.331901 316.263478 
L 1036.946777 316.537022 
L 1038.791405 318.195378 
L 1039.406281 318.521647 
L 1041.250909 318.526794 
L 1042.480661 318.257421 
L 1044.325289 317.445456 
L 1045.555041 317.248522 
L 1047.399669 317.229926 
L 1048.629421 317.472441 
L 1053.54843 319.413463 
L 1054.778182 319.562781 
L 1056.007934 319.372731 
L 1057.852562 318.808712 
L 1059.69719 317.983188 
L 1061.541818 317.203164 
L 1063.386446 316.715733 
L 1065.231074 316.474795 
L 1067.690579 316.297505 
L 1069.535207 315.918635 
L 1071.379835 315.220392 
L 1073.224463 314.204038 
L 1078.143471 311.18135 
L 1080.602975 310.049726 
L 1087.366612 307.400018 
L 1088.596364 306.731939 
L 1089.21124 305.994784 
L 1089.826116 309.456959 
L 1090.440992 259.379909 
L 1091.055868 311.853 
L 1091.670744 253.666187 
L 1092.28562 311.609808 
L 1092.900496 253.066649 
L 1093.515372 308.264747 
L 1094.130248 252.630947 
L 1094.745124 302.422634 
L 1095.36 248.359843 
L 1095.974876 288.456581 
L 1096.589752 263.727577 
L 1097.204628 318.130446 
L 1097.819504 259.448926 
L 1098.43438 293.91994 
L 1099.049256 301.746773 
L 1099.664132 297.851036 
L 1100.279008 292.243458 
L 1100.893884 288.877014 
L 1101.50876 288.810539 
L 1102.123636 291.514636 
L 1103.353388 299.576179 
L 1103.968264 302.025602 
L 1104.58314 302.327516 
L 1105.198017 300.659758 
L 1106.427769 295.327924 
L 1107.042645 294.010773 
L 1107.657521 294.508733 
L 1108.272397 296.619162 
L 1109.502149 301.913715 
L 1110.117025 302.928957 
L 1110.731901 302.092015 
L 1111.346777 299.706901 
L 1112.576529 294.107037 
L 1113.191405 292.94447 
L 1113.806281 293.577711 
L 1114.421157 295.752077 
L 1115.650909 301.341434 
L 1116.265785 302.869341 
L 1116.880661 302.859384 
L 1117.495537 301.384243 
L 1118.110413 299.526932 
L 1118.725289 298.077517 
L 1119.340165 297.871655 
L 1119.955041 299.303113 
L 1120.569917 302.149101 
L 1121.799669 308.65282 
L 1122.414545 310.286016 
L 1123.029421 309.949795 
L 1123.644298 308.201579 
L 1124.87405 303.066324 
L 1125.488926 301.363178 
L 1126.103802 300.773441 
L 1126.718678 301.040039 
L 1127.333554 301.511368 
L 1127.94843 301.420122 
L 1128.563306 300.185594 
L 1129.178182 297.620732 
L 1130.407934 289.892862 
L 1131.02281 286.037954 
L 1131.637686 283.039318 
L 1132.252562 281.24677 
L 1132.867438 280.680901 
L 1133.482314 281.071489 
L 1134.712066 282.716275 
L 1135.941818 279.642985 
L 1136.556694 279.141316 
L 1137.17157 280.098628 
L 1137.786446 282.624035 
L 1139.016198 290.743451 
L 1140.24595 299.249938 
L 1140.860826 302.2006 
L 1142.705455 309.343089 
L 1143.320331 312.898525 
L 1145.779835 330.187612 
L 1146.394711 332.518343 
L 1147.009587 333.585132 
L 1147.624463 333.763207 
L 1148.854215 332.985641 
L 1149.469091 333.105457 
L 1150.698843 334.259562 
L 1151.313719 334.505623 
L 1151.928595 333.969406 
L 1152.543471 332.455283 
L 1153.158347 330.047474 
L 1154.388099 323.586373 
L 1155.617851 316.677103 
L 1156.232727 314.093416 
L 1156.847603 312.946825 
L 1157.462479 313.074707 
L 1158.077355 313.619806 
L 1158.692231 321.097129 
L 1159.307107 320.582325 
L 1160.53686 291.324434 
L 1161.151736 292.763773 
L 1161.766612 301.186001 
L 1162.381488 282.347668 
L 1162.996364 276.624379 
L 1163.61124 267.424651 
L 1164.226116 242.938139 
L 1164.840992 303.746833 
L 1166.070744 195.865959 
L 1166.68562 245.002289 
L 1167.300496 192.147573 
L 1167.915372 241.502346 
L 1168.530248 189.136084 
L 1169.145124 236.57461 
L 1169.76 182.791708 
L 1170.374876 228.471971 
L 1170.989752 174.781706 
L 1171.604628 223.266057 
L 1172.219504 173.904593 
L 1172.83438 222.737679 
L 1173.449256 171.080882 
L 1174.064132 218.287477 
L 1174.679008 161.104901 
L 1175.293884 206.244357 
L 1175.90876 152.479857 
L 1176.523636 205.259667 
L 1177.138512 160.459604 
L 1177.753388 218.18115 
L 1178.368264 165.648266 
L 1178.98314 223.299401 
L 1179.598017 163.106315 
L 1180.212893 222.09164 
L 1180.827769 161.4682 
L 1181.442645 221.670781 
L 1182.057521 161.319755 
L 1182.672397 222.35713 
L 1183.287273 161.506768 
L 1183.902149 222.201714 
L 1184.517025 162.563279 
L 1185.131901 218.766848 
L 1185.746777 167.780395 
L 1186.361653 215.736046 
L 1186.976529 169.921707 
L 1187.591405 218.463613 
L 1188.206281 157.601992 
L 1188.821157 157.682224 
L 1189.436033 184.67684 
L 1190.050909 217.601549 
L 1190.665785 156.734261 
L 1191.280661 217.634326 
L 1191.895537 156.803471 
L 1192.510413 217.818252 
L 1193.125289 156.945272 
L 1193.740165 217.85128 
L 1194.355041 157.156669 
L 1194.969917 216.861398 
L 1195.584793 155.982706 
L 1196.199669 205.228997 
L 1196.814545 144.347441 
L 1198.044298 144.465411 
L 1198.659174 151.452298 
L 1199.27405 177.730917 
L 1199.888926 145.931025 
L 1200.503802 175.565402 
L 1201.118678 120.504258 
L 1201.733554 152.850992 
L 1202.34843 211.784827 
L 1202.963306 150.888887 
L 1203.578182 211.877839 
L 1204.193058 170.834476 
L 1204.807934 109.934201 
L 1205.42281 109.7028 
L 1206.037686 124.428918 
L 1206.652562 154.628637 
L 1207.267438 196.617744 
L 1207.882314 213.697932 
L 1208.49719 224.732072 
L 1209.112066 255.947756 
L 1209.726942 277.330224 
L 1210.341818 307.728112 
L 1211.57157 338.519783 
L 1212.186446 355.678893 
L 1212.801322 360.346822 
L 1213.416198 372.377345 
L 1214.031074 378.87094 
L 1214.64595 392.258458 
L 1215.260826 388.932328 
L 1215.875702 387.006667 
L 1216.490579 370.386579 
L 1217.105455 357.145335 
L 1217.720331 336.24644 
L 1218.335207 319.764998 
L 1220.179835 282.714284 
L 1220.794711 285.006385 
L 1222.024463 348.509225 
L 1222.024463 348.509225 
" style="fill:none;stroke:#e50000;stroke-linecap:square;stroke-width:1.5;"/>
   </g>
   <g id="line2d_37">
    <path clip-path="url(#paddf4ca5b6)" d="M 779.313719 242.829055 
L 786.692231 242.93401 
L 794.070744 243.248587 
L 801.449256 243.771924 
L 808.827769 244.502587 
L 816.821157 245.525763 
L 824.814545 246.786608 
L 832.807934 248.281065 
L 840.801322 250.004327 
L 848.794711 251.950853 
L 856.788099 254.114379 
L 865.396364 256.679014 
L 874.004628 259.477671 
L 882.612893 262.499909 
L 891.836033 265.973302 
L 901.67405 269.930099 
L 911.512066 274.12797 
L 921.964959 278.829457 
L 933.032727 284.0502 
L 945.330248 290.105284 
L 958.857521 297.021667 
L 974.844298 305.456275 
L 997.594711 317.74184 
L 1030.798017 335.661796 
L 1046.784793 344.02944 
L 1060.312066 350.866763 
L 1072.609587 356.832796 
L 1083.677355 361.959981 
L 1094.130248 366.561975 
L 1103.968264 370.656825 
L 1113.191405 374.269368 
L 1122.414545 377.647006 
L 1131.02281 380.574756 
L 1139.631074 383.274347 
L 1148.239339 385.735707 
L 1156.232727 387.799901 
L 1164.226116 389.644117 
L 1172.219504 391.262422 
L 1180.212893 392.64961 
L 1188.206281 393.80122 
L 1196.199669 394.713546 
L 1203.578182 395.340761 
L 1210.956694 395.759861 
L 1218.335207 395.969699 
L 1221.409587 395.995214 
L 1221.409587 395.995214 
" style="fill:none;stroke:#014d4e;stroke-linecap:square;stroke-width:1.5;"/>
   </g>
   <g id="line2d_38">
    <path clip-path="url(#paddf4ca5b6)" d="M 779.313719 243.001618 
L 779.928595 242.607155 
L 780.543471 241.654907 
L 781.773223 239.011733 
L 782.388099 238.227827 
L 783.002975 238.280681 
L 783.617851 239.179358 
L 785.462479 243.356291 
L 786.077355 244.065708 
L 787.307107 244.684768 
L 787.921983 245.291862 
L 788.53686 246.413287 
L 790.381488 250.843424 
L 790.996364 251.434368 
L 791.61124 251.277746 
L 793.455868 249.066915 
L 794.070744 248.788941 
L 795.300496 248.845331 
L 795.915372 248.58948 
L 796.530248 247.861025 
L 798.374876 244.363046 
L 798.989752 243.830373 
L 799.604628 243.914272 
L 800.219504 244.468266 
L 801.449256 245.792825 
L 802.064132 246.107846 
L 803.293884 246.262344 
L 803.90876 246.600494 
L 804.523636 247.374705 
L 806.98314 251.971338 
L 807.598017 252.294406 
L 808.212893 252.212516 
L 809.442645 251.820909 
L 810.057521 251.896996 
L 811.287273 252.396168 
L 811.902149 252.384784 
L 812.517025 251.968526 
L 813.131901 251.164935 
L 814.361653 249.234132 
L 814.976529 248.613224 
L 815.591405 248.392815 
L 816.206281 248.490773 
L 817.436033 248.84419 
L 818.050909 248.7856 
L 819.280661 248.405586 
L 819.895537 248.468338 
L 820.510413 248.9045 
L 821.125289 249.702852 
L 822.355041 251.68121 
L 822.969917 252.429213 
L 823.584793 252.872347 
L 825.429421 253.468074 
L 826.659174 254.464713 
L 827.27405 255.000639 
L 827.888926 255.31972 
L 828.503802 255.302974 
L 829.118678 254.963208 
L 830.34843 253.939839 
L 830.963306 253.614382 
L 831.578182 253.522365 
L 833.42281 253.661919 
L 834.652562 253.148947 
L 835.267438 252.880731 
L 835.882314 252.820636 
L 836.49719 253.065746 
L 837.112066 253.597374 
L 838.956694 255.524939 
L 840.186446 256.188009 
L 840.801322 256.504215 
L 841.416198 256.967165 
L 842.64595 258.348274 
L 843.260826 259.047788 
L 843.875702 259.559184 
L 844.490579 259.805966 
L 845.105455 259.81716 
L 846.335207 259.617796 
L 846.950083 259.642573 
L 848.794711 260.095252 
L 849.409587 260.048923 
L 850.639339 259.525436 
L 851.254215 259.264156 
L 851.869091 259.170117 
L 852.483967 259.295999 
L 853.713719 259.990805 
L 854.943471 260.59837 
L 856.788099 261.211298 
L 857.402975 261.651761 
L 859.862479 264.013952 
L 860.477355 264.308311 
L 862.93686 265.023085 
L 864.166612 265.602935 
L 864.781488 265.747002 
L 865.396364 265.719595 
L 867.855868 265.092659 
L 869.08562 265.307849 
L 870.315372 265.508258 
L 872.16 265.49832 
L 872.774876 265.665172 
L 874.004628 266.427641 
L 875.23438 267.324557 
L 876.464132 267.913219 
L 877.693884 268.439425 
L 878.923636 269.253313 
L 880.153388 270.070959 
L 880.768264 270.318137 
L 881.998017 270.483084 
L 883.227769 270.619072 
L 885.687273 271.29901 
L 888.146777 271.442754 
L 889.376529 271.979839 
L 891.221157 273.039208 
L 893.065785 273.994266 
L 894.295537 275.00259 
L 896.140165 276.683335 
L 901.059174 280.145136 
L 902.288926 280.729548 
L 903.518678 281.246769 
L 904.74843 281.973595 
L 906.593058 283.161352 
L 908.437686 284.200287 
L 909.667438 285.174579 
L 912.741818 287.951913 
L 914.586446 289.594525 
L 916.431074 291.404641 
L 917.660826 292.360315 
L 921.964959 295.176587 
L 931.802975 299.924442 
L 933.647603 300.778554 
L 937.951736 302.353741 
L 940.41124 302.715456 
L 946.56 303.791922 
L 949.63438 304.952995 
L 951.479008 305.83766 
L 957.627769 309.515384 
L 963.776529 313.659949 
L 966.850909 316.095245 
L 972.384793 320.803159 
L 974.229421 322.175279 
L 976.07405 323.264778 
L 978.533554 324.396604 
L 980.378182 325.029545 
L 983.452562 325.741233 
L 985.912066 326.178525 
L 990.216198 326.64075 
L 993.290579 326.648323 
L 996.364959 326.475557 
L 999.439339 326.294828 
L 1001.898843 326.345929 
L 1003.743471 326.575332 
L 1006.202975 327.168746 
L 1008.662479 327.977117 
L 1014.196364 330.222491 
L 1019.115372 332.45675 
L 1022.804628 334.487198 
L 1030.798017 339.05756 
L 1035.717025 341.412786 
L 1036.331901 341.462939 
L 1038.176529 340.773456 
L 1038.791405 340.769385 
L 1040.636033 341.728473 
L 1041.865785 342.63864 
L 1043.710413 344.408627 
L 1044.940165 345.242061 
L 1046.784793 346.212013 
L 1048.014545 346.601402 
L 1049.859174 346.705705 
L 1051.703802 346.921094 
L 1052.933554 347.168288 
L 1054.163306 347.640782 
L 1056.007934 348.919967 
L 1057.852562 350.494511 
L 1061.541818 353.872036 
L 1063.386446 355.192631 
L 1065.231074 356.24999 
L 1067.690579 357.683607 
L 1069.535207 359.057346 
L 1071.379835 360.742218 
L 1073.839339 363.417132 
L 1077.528595 367.37309 
L 1079.988099 369.641309 
L 1086.751736 375.351438 
L 1087.981488 376.565291 
L 1088.596364 377.574065 
L 1089.21124 374.382658 
L 1089.826116 424.729618 
L 1090.440992 372.525575 
L 1091.055868 430.980569 
L 1091.670744 373.304257 
L 1092.28562 432.113846 
L 1092.900496 377.181297 
L 1093.515372 433.079758 
L 1094.130248 383.55184 
L 1094.745124 437.877501 
L 1095.36 398.042731 
L 1095.974876 423.032795 
L 1096.589752 368.890074 
L 1097.204628 427.830825 
L 1097.819504 393.618118 
L 1098.43438 386.048666 
L 1099.049256 390.20085 
L 1099.664132 396.063939 
L 1100.279008 399.684952 
L 1100.893884 400.005048 
L 1101.50876 397.553621 
L 1102.738512 389.994543 
L 1103.353388 387.794907 
L 1103.968264 387.741807 
L 1104.58314 389.657405 
L 1105.812893 395.481973 
L 1106.427769 397.044008 
L 1107.042645 396.789938 
L 1107.657521 394.922399 
L 1108.887273 390.110612 
L 1109.502149 389.335238 
L 1110.117025 390.411028 
L 1110.731901 393.033969 
L 1111.961653 399.106402 
L 1112.576529 400.503704 
L 1113.191405 400.104156 
L 1113.806281 398.16244 
L 1115.036033 393.035231 
L 1115.650909 391.736814 
L 1116.265785 391.975198 
L 1116.880661 393.677701 
L 1117.495537 395.761303 
L 1118.110413 397.435934 
L 1118.725289 397.865933 
L 1119.340165 396.657527 
L 1119.955041 394.033505 
L 1121.184793 387.970436 
L 1121.799669 386.555917 
L 1122.414545 387.10971 
L 1123.029421 389.074389 
L 1124.259174 394.639228 
L 1124.87405 396.555488 
L 1125.488926 397.357212 
L 1126.103802 397.301473 
L 1126.718678 397.039869 
L 1127.333554 397.339704 
L 1127.94843 398.781679 
L 1128.563306 401.552842 
L 1131.02281 416.947937 
L 1131.637686 418.941004 
L 1132.252562 419.706223 
L 1132.867438 419.513813 
L 1133.482314 418.802069 
L 1134.09719 418.261853 
L 1135.326942 421.723235 
L 1135.941818 422.417166 
L 1136.556694 421.650921 
L 1137.17157 419.315384 
L 1138.401322 411.572099 
L 1139.631074 403.436908 
L 1140.24595 400.670071 
L 1142.090579 394.07173 
L 1142.705455 390.695222 
L 1145.164959 374.109481 
L 1145.779835 371.951479 
L 1146.394711 371.056168 
L 1147.009587 371.048319 
L 1148.239339 372.162564 
L 1148.854215 372.209196 
L 1150.083967 371.384185 
L 1150.698843 371.300764 
L 1151.313719 371.998346 
L 1151.928595 373.672556 
L 1152.543471 376.23917 
L 1153.773223 383.014025 
L 1155.002975 390.231889 
L 1155.617851 392.96793 
L 1156.232727 394.265575 
L 1156.847603 394.287446 
L 1157.462479 393.890795 
L 1158.077355 386.560612 
L 1158.692231 387.221245 
L 1159.921983 416.766853 
L 1160.53686 415.469396 
L 1161.151736 407.187728 
L 1161.766612 426.165298 
L 1162.381488 432.026496 
L 1162.996364 441.362803 
L 1163.61124 465.984564 
L 1164.226116 405.309783 
L 1165.455868 513.45447 
L 1166.070744 464.448035 
L 1166.68562 517.431301 
L 1167.300496 468.20373 
L 1167.915372 520.695846 
L 1168.530248 473.381822 
L 1169.145124 527.287871 
L 1169.76 481.729399 
L 1170.374876 535.540096 
L 1170.989752 487.174815 
L 1171.604628 536.653986 
L 1172.219504 487.937242 
L 1172.83438 539.709012 
L 1173.449256 492.616021 
L 1174.064132 549.910828 
L 1174.679008 504.882229 
L 1175.293884 558.75621 
L 1175.90876 506.0845 
L 1176.523636 550.991284 
L 1177.138512 493.375077 
L 1177.753388 546.011915 
L 1178.368264 488.463347 
L 1178.98314 548.757612 
L 1179.598017 489.872074 
L 1180.212893 550.593909 
L 1180.827769 490.488329 
L 1181.442645 550.93496 
L 1182.057521 489.991792 
L 1182.672397 550.93496 
L 1183.287273 490.33142 
L 1183.902149 550.059857 
L 1184.517025 493.944885 
L 1185.131901 545.018528 
L 1185.746777 497.14866 
L 1186.361653 543.047371 
L 1186.976529 494.588426 
L 1187.591405 555.531594 
L 1188.206281 555.531495 
L 1188.821157 528.615595 
L 1189.436033 495.768184 
L 1190.050909 556.711352 
L 1190.665785 495.885745 
L 1191.280661 556.789637 
L 1191.895537 495.846469 
L 1192.510413 556.789637 
L 1193.125289 495.952391 
L 1193.740165 556.714337 
L 1194.355041 497.075514 
L 1194.969917 558.018682 
L 1195.584793 508.835435 
L 1196.199669 569.778604 
L 1197.429421 569.779556 
L 1198.044298 562.849977 
L 1198.659174 536.627228 
L 1199.27405 568.481553 
L 1199.888926 538.90017 
L 1200.503802 594.012868 
L 1201.118678 561.716246 
L 1201.733554 502.831082 
L 1202.34843 563.77425 
L 1202.963306 502.831082 
L 1203.578182 543.918783 
L 1204.193058 604.861951 
L 1204.807934 605.1348 
L 1205.42281 590.448682 
L 1206.037686 560.287515 
L 1206.652562 518.335512 
L 1207.267438 501.290978 
L 1207.882314 490.291041 
L 1208.49719 459.108111 
L 1209.112066 437.756945 
L 1209.726942 407.388907 
L 1210.956694 376.652577 
L 1211.57157 359.518958 
L 1212.186446 354.875066 
L 1212.801322 342.867125 
L 1213.416198 336.394658 
L 1214.031074 323.026812 
L 1214.64595 326.371159 
L 1215.260826 328.31358 
L 1215.875702 344.948972 
L 1216.490579 358.204063 
L 1217.105455 379.115349 
L 1217.720331 395.607725 
L 1219.564959 432.682493 
L 1220.179835 430.395496 
L 1221.409587 366.898488 
L 1221.409587 366.898488 
" style="fill:none;stroke:#ffff14;stroke-linecap:square;stroke-width:1.5;"/>
   </g>
   <g id="patch_8">
    <path d="M 757.178182 629.9064 
L 757.178182 84.9312 
" style="fill:none;stroke:#000000;stroke-linecap:square;stroke-linejoin:miter;stroke-width:0.8;"/>
   </g>
   <g id="patch_9">
    <path d="M 1244.16 629.9064 
L 1244.16 84.9312 
" style="fill:none;stroke:#000000;stroke-linecap:square;stroke-linejoin:miter;stroke-width:0.8;"/>
   </g>
   <g id="patch_10">
    <path d="M 757.178182 629.9064 
L 1244.16 629.9064 
" style="fill:none;stroke:#000000;stroke-linecap:square;stroke-linejoin:miter;stroke-width:0.8;"/>
   </g>
   <g id="patch_11">
    <path d="M 757.178182 84.9312 
L 1244.16 84.9312 
" style="fill:none;stroke:#000000;stroke-linecap:square;stroke-linejoin:miter;stroke-width:0.8;"/>
   </g>
   <g id="text_32">
    <!-- Left abduction -->
    <defs>
     <path d="M 9.8125 72.90625 
L 19.671875 72.90625 
L 19.671875 8.296875 
L 55.171875 8.296875 
L 55.171875 0 
L 9.8125 0 
z
" id="DejaVuSans-76"/>
     <path d="M 56.203125 29.59375 
L 56.203125 25.203125 
L 14.890625 25.203125 
Q 15.484375 15.921875 20.484375 11.0625 
Q 25.484375 6.203125 34.421875 6.203125 
Q 39.59375 6.203125 44.453125 7.46875 
Q 49.3125 8.734375 54.109375 11.28125 
L 54.109375 2.78125 
Q 49.265625 0.734375 44.1875 -0.34375 
Q 39.109375 -1.421875 33.890625 -1.421875 
Q 20.796875 -1.421875 13.15625 6.1875 
Q 5.515625 13.8125 5.515625 26.8125 
Q 5.515625 40.234375 12.765625 48.109375 
Q 20.015625 56 32.328125 56 
Q 43.359375 56 49.78125 48.890625 
Q 56.203125 41.796875 56.203125 29.59375 
z
M 47.21875 32.234375 
Q 47.125 39.59375 43.09375 43.984375 
Q 39.0625 48.390625 32.421875 48.390625 
Q 24.90625 48.390625 20.390625 44.140625 
Q 15.875 39.890625 15.1875 32.171875 
z
" id="DejaVuSans-101"/>
     <path d="M 37.109375 75.984375 
L 37.109375 68.5 
L 28.515625 68.5 
Q 23.6875 68.5 21.796875 66.546875 
Q 19.921875 64.59375 19.921875 59.515625 
L 19.921875 54.6875 
L 34.71875 54.6875 
L 34.71875 47.703125 
L 19.921875 47.703125 
L 19.921875 0 
L 10.890625 0 
L 10.890625 47.703125 
L 2.296875 47.703125 
L 2.296875 54.6875 
L 10.890625 54.6875 
L 10.890625 58.5 
Q 10.890625 67.625 15.140625 71.796875 
Q 19.390625 75.984375 28.609375 75.984375 
z
" id="DejaVuSans-102"/>
    </defs>
    <g transform="translate(957.375341 78.9312)scale(0.12 -0.12)">
     <use xlink:href="#DejaVuSans-76"/>
     <use x="55.697266" xlink:href="#DejaVuSans-101"/>
     <use x="117.220703" xlink:href="#DejaVuSans-102"/>
     <use x="152.410156" xlink:href="#DejaVuSans-116"/>
     <use x="191.619141" xlink:href="#DejaVuSans-32"/>
     <use x="223.40625" xlink:href="#DejaVuSans-97"/>
     <use x="284.685547" xlink:href="#DejaVuSans-98"/>
     <use x="348.162109" xlink:href="#DejaVuSans-100"/>
     <use x="411.638672" xlink:href="#DejaVuSans-117"/>
     <use x="475.017578" xlink:href="#DejaVuSans-99"/>
     <use x="529.998047" xlink:href="#DejaVuSans-116"/>
     <use x="569.207031" xlink:href="#DejaVuSans-105"/>
     <use x="596.990234" xlink:href="#DejaVuSans-111"/>
     <use x="658.171875" xlink:href="#DejaVuSans-110"/>
    </g>
   </g>
  </g>
 </g>
 <defs>
  <clipPath id="p01700af52a">
   <rect height="544.9752" width="486.981818" x="172.8" y="84.9312"/>
  </clipPath>
  <clipPath id="paddf4ca5b6">
   <rect height="544.9752" width="486.981818" x="757.178182" y="84.9312"/>
  </clipPath>
 </defs>
</svg>
