<?xml version="1.0" encoding="utf-8" standalone="no"?>
<!DOCTYPE svg PUBLIC "-//W3C//DTD SVG 1.1//EN"
  "http://www.w3.org/Graphics/SVG/1.1/DTD/svg11.dtd">
<!-- Created with matplotlib (https://matplotlib.org/) -->
<svg height="707.76pt" version="1.1" viewBox="0 0 1382.4 707.76" width="1382.4pt" xmlns="http://www.w3.org/2000/svg" xmlns:xlink="http://www.w3.org/1999/xlink">
 <defs>
  <style type="text/css">
*{stroke-linecap:butt;stroke-linejoin:round;}
  </style>
 </defs>
 <g id="figure_1">
  <g id="patch_1">
   <path d="M 0 707.76 
L 1382.4 707.76 
L 1382.4 0 
L 0 0 
z
" style="fill:#ffffff;"/>
  </g>
  <g id="axes_1">
   <g id="patch_2">
    <path d="M 172.8 629.9064 
L 659.781818 629.9064 
L 659.781818 84.9312 
L 172.8 84.9312 
z
" style="fill:#ffffff;"/>
   </g>
   <g id="matplotlib.axis_1">
    <g id="xtick_1">
     <g id="line2d_1">
      <defs>
       <path d="M 0 0 
L 0 3.5 
" id="mec8be47520" style="stroke:#000000;stroke-width:0.8;"/>
      </defs>
      <g>
       <use style="stroke:#000000;stroke-width:0.8;" x="194.935537" xlink:href="#mec8be47520" y="629.9064"/>
      </g>
     </g>
     <g id="text_1">
      <!-- 0 -->
      <defs>
       <path d="M 31.78125 66.40625 
Q 24.171875 66.40625 20.328125 58.90625 
Q 16.5 51.421875 16.5 36.375 
Q 16.5 21.390625 20.328125 13.890625 
Q 24.171875 6.390625 31.78125 6.390625 
Q 39.453125 6.390625 43.28125 13.890625 
Q 47.125 21.390625 47.125 36.375 
Q 47.125 51.421875 43.28125 58.90625 
Q 39.453125 66.40625 31.78125 66.40625 
z
M 31.78125 74.21875 
Q 44.046875 74.21875 50.515625 64.515625 
Q 56.984375 54.828125 56.984375 36.375 
Q 56.984375 17.96875 50.515625 8.265625 
Q 44.046875 -1.421875 31.78125 -1.421875 
Q 19.53125 -1.421875 13.0625 8.265625 
Q 6.59375 17.96875 6.59375 36.375 
Q 6.59375 54.828125 13.0625 64.515625 
Q 19.53125 74.21875 31.78125 74.21875 
z
" id="DejaVuSans-48"/>
      </defs>
      <g transform="translate(191.754287 644.504838)scale(0.1 -0.1)">
       <use xlink:href="#DejaVuSans-48"/>
      </g>
     </g>
    </g>
    <g id="xtick_2">
     <g id="line2d_2">
      <g>
       <use style="stroke:#000000;stroke-width:0.8;" x="256.42314" xlink:href="#mec8be47520" y="629.9064"/>
      </g>
     </g>
     <g id="text_2">
      <!-- 100 -->
      <defs>
       <path d="M 12.40625 8.296875 
L 28.515625 8.296875 
L 28.515625 63.921875 
L 10.984375 60.40625 
L 10.984375 69.390625 
L 28.421875 72.90625 
L 38.28125 72.90625 
L 38.28125 8.296875 
L 54.390625 8.296875 
L 54.390625 0 
L 12.40625 0 
z
" id="DejaVuSans-49"/>
      </defs>
      <g transform="translate(246.87939 644.504838)scale(0.1 -0.1)">
       <use xlink:href="#DejaVuSans-49"/>
       <use x="63.623047" xlink:href="#DejaVuSans-48"/>
       <use x="127.246094" xlink:href="#DejaVuSans-48"/>
      </g>
     </g>
    </g>
    <g id="xtick_3">
     <g id="line2d_3">
      <g>
       <use style="stroke:#000000;stroke-width:0.8;" x="317.910744" xlink:href="#mec8be47520" y="629.9064"/>
      </g>
     </g>
     <g id="text_3">
      <!-- 200 -->
      <defs>
       <path d="M 19.1875 8.296875 
L 53.609375 8.296875 
L 53.609375 0 
L 7.328125 0 
L 7.328125 8.296875 
Q 12.9375 14.109375 22.625 23.890625 
Q 32.328125 33.6875 34.8125 36.53125 
Q 39.546875 41.84375 41.421875 45.53125 
Q 43.3125 49.21875 43.3125 52.78125 
Q 43.3125 58.59375 39.234375 62.25 
Q 35.15625 65.921875 28.609375 65.921875 
Q 23.96875 65.921875 18.8125 64.3125 
Q 13.671875 62.703125 7.8125 59.421875 
L 7.8125 69.390625 
Q 13.765625 71.78125 18.9375 73 
Q 24.125 74.21875 28.421875 74.21875 
Q 39.75 74.21875 46.484375 68.546875 
Q 53.21875 62.890625 53.21875 53.421875 
Q 53.21875 48.921875 51.53125 44.890625 
Q 49.859375 40.875 45.40625 35.40625 
Q 44.1875 33.984375 37.640625 27.21875 
Q 31.109375 20.453125 19.1875 8.296875 
z
" id="DejaVuSans-50"/>
      </defs>
      <g transform="translate(308.366994 644.504838)scale(0.1 -0.1)">
       <use xlink:href="#DejaVuSans-50"/>
       <use x="63.623047" xlink:href="#DejaVuSans-48"/>
       <use x="127.246094" xlink:href="#DejaVuSans-48"/>
      </g>
     </g>
    </g>
    <g id="xtick_4">
     <g id="line2d_4">
      <g>
       <use style="stroke:#000000;stroke-width:0.8;" x="379.398347" xlink:href="#mec8be47520" y="629.9064"/>
      </g>
     </g>
     <g id="text_4">
      <!-- 300 -->
      <defs>
       <path d="M 40.578125 39.3125 
Q 47.65625 37.796875 51.625 33 
Q 55.609375 28.21875 55.609375 21.1875 
Q 55.609375 10.40625 48.1875 4.484375 
Q 40.765625 -1.421875 27.09375 -1.421875 
Q 22.515625 -1.421875 17.65625 -0.515625 
Q 12.796875 0.390625 7.625 2.203125 
L 7.625 11.71875 
Q 11.71875 9.328125 16.59375 8.109375 
Q 21.484375 6.890625 26.8125 6.890625 
Q 36.078125 6.890625 40.9375 10.546875 
Q 45.796875 14.203125 45.796875 21.1875 
Q 45.796875 27.640625 41.28125 31.265625 
Q 36.765625 34.90625 28.71875 34.90625 
L 20.21875 34.90625 
L 20.21875 43.015625 
L 29.109375 43.015625 
Q 36.375 43.015625 40.234375 45.921875 
Q 44.09375 48.828125 44.09375 54.296875 
Q 44.09375 59.90625 40.109375 62.90625 
Q 36.140625 65.921875 28.71875 65.921875 
Q 24.65625 65.921875 20.015625 65.03125 
Q 15.375 64.15625 9.8125 62.3125 
L 9.8125 71.09375 
Q 15.4375 72.65625 20.34375 73.4375 
Q 25.25 74.21875 29.59375 74.21875 
Q 40.828125 74.21875 47.359375 69.109375 
Q 53.90625 64.015625 53.90625 55.328125 
Q 53.90625 49.265625 50.4375 45.09375 
Q 46.96875 40.921875 40.578125 39.3125 
z
" id="DejaVuSans-51"/>
      </defs>
      <g transform="translate(369.854597 644.504838)scale(0.1 -0.1)">
       <use xlink:href="#DejaVuSans-51"/>
       <use x="63.623047" xlink:href="#DejaVuSans-48"/>
       <use x="127.246094" xlink:href="#DejaVuSans-48"/>
      </g>
     </g>
    </g>
    <g id="xtick_5">
     <g id="line2d_5">
      <g>
       <use style="stroke:#000000;stroke-width:0.8;" x="440.88595" xlink:href="#mec8be47520" y="629.9064"/>
      </g>
     </g>
     <g id="text_5">
      <!-- 400 -->
      <defs>
       <path d="M 37.796875 64.3125 
L 12.890625 25.390625 
L 37.796875 25.390625 
z
M 35.203125 72.90625 
L 47.609375 72.90625 
L 47.609375 25.390625 
L 58.015625 25.390625 
L 58.015625 17.1875 
L 47.609375 17.1875 
L 47.609375 0 
L 37.796875 0 
L 37.796875 17.1875 
L 4.890625 17.1875 
L 4.890625 26.703125 
z
" id="DejaVuSans-52"/>
      </defs>
      <g transform="translate(431.3422 644.504838)scale(0.1 -0.1)">
       <use xlink:href="#DejaVuSans-52"/>
       <use x="63.623047" xlink:href="#DejaVuSans-48"/>
       <use x="127.246094" xlink:href="#DejaVuSans-48"/>
      </g>
     </g>
    </g>
    <g id="xtick_6">
     <g id="line2d_6">
      <g>
       <use style="stroke:#000000;stroke-width:0.8;" x="502.373554" xlink:href="#mec8be47520" y="629.9064"/>
      </g>
     </g>
     <g id="text_6">
      <!-- 500 -->
      <defs>
       <path d="M 10.796875 72.90625 
L 49.515625 72.90625 
L 49.515625 64.59375 
L 19.828125 64.59375 
L 19.828125 46.734375 
Q 21.96875 47.46875 24.109375 47.828125 
Q 26.265625 48.1875 28.421875 48.1875 
Q 40.625 48.1875 47.75 41.5 
Q 54.890625 34.8125 54.890625 23.390625 
Q 54.890625 11.625 47.5625 5.09375 
Q 40.234375 -1.421875 26.90625 -1.421875 
Q 22.3125 -1.421875 17.546875 -0.640625 
Q 12.796875 0.140625 7.71875 1.703125 
L 7.71875 11.625 
Q 12.109375 9.234375 16.796875 8.0625 
Q 21.484375 6.890625 26.703125 6.890625 
Q 35.15625 6.890625 40.078125 11.328125 
Q 45.015625 15.765625 45.015625 23.390625 
Q 45.015625 31 40.078125 35.4375 
Q 35.15625 39.890625 26.703125 39.890625 
Q 22.75 39.890625 18.8125 39.015625 
Q 14.890625 38.140625 10.796875 36.28125 
z
" id="DejaVuSans-53"/>
      </defs>
      <g transform="translate(492.829804 644.504838)scale(0.1 -0.1)">
       <use xlink:href="#DejaVuSans-53"/>
       <use x="63.623047" xlink:href="#DejaVuSans-48"/>
       <use x="127.246094" xlink:href="#DejaVuSans-48"/>
      </g>
     </g>
    </g>
    <g id="xtick_7">
     <g id="line2d_7">
      <g>
       <use style="stroke:#000000;stroke-width:0.8;" x="563.861157" xlink:href="#mec8be47520" y="629.9064"/>
      </g>
     </g>
     <g id="text_7">
      <!-- 600 -->
      <defs>
       <path d="M 33.015625 40.375 
Q 26.375 40.375 22.484375 35.828125 
Q 18.609375 31.296875 18.609375 23.390625 
Q 18.609375 15.53125 22.484375 10.953125 
Q 26.375 6.390625 33.015625 6.390625 
Q 39.65625 6.390625 43.53125 10.953125 
Q 47.40625 15.53125 47.40625 23.390625 
Q 47.40625 31.296875 43.53125 35.828125 
Q 39.65625 40.375 33.015625 40.375 
z
M 52.59375 71.296875 
L 52.59375 62.3125 
Q 48.875 64.0625 45.09375 64.984375 
Q 41.3125 65.921875 37.59375 65.921875 
Q 27.828125 65.921875 22.671875 59.328125 
Q 17.53125 52.734375 16.796875 39.40625 
Q 19.671875 43.65625 24.015625 45.921875 
Q 28.375 48.1875 33.59375 48.1875 
Q 44.578125 48.1875 50.953125 41.515625 
Q 57.328125 34.859375 57.328125 23.390625 
Q 57.328125 12.15625 50.6875 5.359375 
Q 44.046875 -1.421875 33.015625 -1.421875 
Q 20.359375 -1.421875 13.671875 8.265625 
Q 6.984375 17.96875 6.984375 36.375 
Q 6.984375 53.65625 15.1875 63.9375 
Q 23.390625 74.21875 37.203125 74.21875 
Q 40.921875 74.21875 44.703125 73.484375 
Q 48.484375 72.75 52.59375 71.296875 
z
" id="DejaVuSans-54"/>
      </defs>
      <g transform="translate(554.317407 644.504838)scale(0.1 -0.1)">
       <use xlink:href="#DejaVuSans-54"/>
       <use x="63.623047" xlink:href="#DejaVuSans-48"/>
       <use x="127.246094" xlink:href="#DejaVuSans-48"/>
      </g>
     </g>
    </g>
    <g id="xtick_8">
     <g id="line2d_8">
      <g>
       <use style="stroke:#000000;stroke-width:0.8;" x="625.34876" xlink:href="#mec8be47520" y="629.9064"/>
      </g>
     </g>
     <g id="text_8">
      <!-- 700 -->
      <defs>
       <path d="M 8.203125 72.90625 
L 55.078125 72.90625 
L 55.078125 68.703125 
L 28.609375 0 
L 18.3125 0 
L 43.21875 64.59375 
L 8.203125 64.59375 
z
" id="DejaVuSans-55"/>
      </defs>
      <g transform="translate(615.80501 644.504838)scale(0.1 -0.1)">
       <use xlink:href="#DejaVuSans-55"/>
       <use x="63.623047" xlink:href="#DejaVuSans-48"/>
       <use x="127.246094" xlink:href="#DejaVuSans-48"/>
      </g>
     </g>
    </g>
   </g>
   <g id="matplotlib.axis_2">
    <g id="ytick_1">
     <g id="line2d_9">
      <defs>
       <path d="M 0 0 
L -3.5 0 
" id="ma32692448e" style="stroke:#000000;stroke-width:0.8;"/>
      </defs>
      <g>
       <use style="stroke:#000000;stroke-width:0.8;" x="172.8" xlink:href="#ma32692448e" y="622.518778"/>
      </g>
     </g>
     <g id="text_9">
      <!-- −1.5 -->
      <defs>
       <path d="M 10.59375 35.5 
L 73.1875 35.5 
L 73.1875 27.203125 
L 10.59375 27.203125 
z
" id="DejaVuSans-8722"/>
       <path d="M 10.6875 12.40625 
L 21 12.40625 
L 21 0 
L 10.6875 0 
z
" id="DejaVuSans-46"/>
      </defs>
      <g transform="translate(141.517187 626.317996)scale(0.1 -0.1)">
       <use xlink:href="#DejaVuSans-8722"/>
       <use x="83.789062" xlink:href="#DejaVuSans-49"/>
       <use x="147.412109" xlink:href="#DejaVuSans-46"/>
       <use x="179.199219" xlink:href="#DejaVuSans-53"/>
      </g>
     </g>
    </g>
    <g id="ytick_2">
     <g id="line2d_10">
      <g>
       <use style="stroke:#000000;stroke-width:0.8;" x="172.8" xlink:href="#ma32692448e" y="524.663048"/>
      </g>
     </g>
     <g id="text_10">
      <!-- −1.0 -->
      <g transform="translate(141.517187 528.462267)scale(0.1 -0.1)">
       <use xlink:href="#DejaVuSans-8722"/>
       <use x="83.789062" xlink:href="#DejaVuSans-49"/>
       <use x="147.412109" xlink:href="#DejaVuSans-46"/>
       <use x="179.199219" xlink:href="#DejaVuSans-48"/>
      </g>
     </g>
    </g>
    <g id="ytick_3">
     <g id="line2d_11">
      <g>
       <use style="stroke:#000000;stroke-width:0.8;" x="172.8" xlink:href="#ma32692448e" y="426.807319"/>
      </g>
     </g>
     <g id="text_11">
      <!-- −0.5 -->
      <g transform="translate(141.517187 430.606537)scale(0.1 -0.1)">
       <use xlink:href="#DejaVuSans-8722"/>
       <use x="83.789062" xlink:href="#DejaVuSans-48"/>
       <use x="147.412109" xlink:href="#DejaVuSans-46"/>
       <use x="179.199219" xlink:href="#DejaVuSans-53"/>
      </g>
     </g>
    </g>
    <g id="ytick_4">
     <g id="line2d_12">
      <g>
       <use style="stroke:#000000;stroke-width:0.8;" x="172.8" xlink:href="#ma32692448e" y="328.951589"/>
      </g>
     </g>
     <g id="text_12">
      <!-- 0.0 -->
      <g transform="translate(149.896875 332.750808)scale(0.1 -0.1)">
       <use xlink:href="#DejaVuSans-48"/>
       <use x="63.623047" xlink:href="#DejaVuSans-46"/>
       <use x="95.410156" xlink:href="#DejaVuSans-48"/>
      </g>
     </g>
    </g>
    <g id="ytick_5">
     <g id="line2d_13">
      <g>
       <use style="stroke:#000000;stroke-width:0.8;" x="172.8" xlink:href="#ma32692448e" y="231.09586"/>
      </g>
     </g>
     <g id="text_13">
      <!-- 0.5 -->
      <g transform="translate(149.896875 234.895078)scale(0.1 -0.1)">
       <use xlink:href="#DejaVuSans-48"/>
       <use x="63.623047" xlink:href="#DejaVuSans-46"/>
       <use x="95.410156" xlink:href="#DejaVuSans-53"/>
      </g>
     </g>
    </g>
    <g id="ytick_6">
     <g id="line2d_14">
      <g>
       <use style="stroke:#000000;stroke-width:0.8;" x="172.8" xlink:href="#ma32692448e" y="133.24013"/>
      </g>
     </g>
     <g id="text_14">
      <!-- 1.0 -->
      <g transform="translate(149.896875 137.039349)scale(0.1 -0.1)">
       <use xlink:href="#DejaVuSans-49"/>
       <use x="63.623047" xlink:href="#DejaVuSans-46"/>
       <use x="95.410156" xlink:href="#DejaVuSans-48"/>
      </g>
     </g>
    </g>
   </g>
   <g id="line2d_15">
    <path clip-path="url(#p410d584441)" d="M 194.935537 321.319441 
L 195.550413 329.110914 
L 196.165289 328.638947 
L 196.780165 319.868187 
L 198.009917 332.581226 
L 198.624793 325.682064 
L 199.239669 327.089144 
L 199.854545 335.884644 
L 201.084298 326.24853 
L 201.699174 333.225057 
L 202.31405 331.635175 
L 202.928926 323.709336 
L 203.543802 328.388034 
L 204.158678 331.880776 
L 204.773554 325.070674 
L 205.38843 327.260496 
L 206.003306 334.556148 
L 206.618182 330.333128 
L 207.233058 328.493628 
L 207.847934 335.636612 
L 208.46281 333.795284 
L 209.077686 327.898054 
L 209.692562 332.326794 
L 210.307438 333.528973 
L 210.922314 326.575604 
L 211.53719 328.254126 
L 212.152066 332.912399 
L 212.766942 328.067849 
L 213.381818 327.151632 
L 213.996694 333.383758 
L 214.61157 331.478481 
L 215.226446 327.677421 
L 215.841322 332.495037 
L 216.456198 332.993761 
L 217.071074 327.349604 
L 217.68595 329.292845 
L 218.300826 331.98507 
L 218.915702 326.90503 
L 219.530579 326.405044 
L 220.145455 330.875888 
L 221.375207 325.956794 
L 221.990083 330.701208 
L 222.604959 330.58255 
L 223.219835 326.918123 
L 223.834711 330.155115 
L 224.449587 331.801256 
L 225.064463 327.482117 
L 225.679339 328.486669 
L 226.294215 331.367097 
L 226.909091 327.746791 
L 227.523967 326.974723 
L 228.138843 330.751389 
L 229.368595 326.93183 
L 229.983471 330.802769 
L 230.598347 330.653363 
L 231.213223 327.823657 
L 231.828099 330.701199 
L 232.442975 331.737242 
L 233.057851 328.34131 
L 233.672727 329.720475 
L 234.287603 331.595435 
L 234.902479 328.394243 
L 235.517355 328.532603 
L 236.132231 331.134459 
L 236.747107 328.85369 
L 237.361983 328.154576 
L 237.97686 331.14996 
L 239.206612 328.433401 
L 239.821488 331.245989 
L 240.436364 330.699436 
L 241.05124 328.629498 
L 241.666116 330.808169 
L 242.280992 330.845739 
L 242.895868 328.49991 
L 243.510744 330.100993 
L 244.12562 330.762126 
L 244.740496 328.555914 
L 245.970248 330.997586 
L 246.585124 329.080207 
L 247.2 329.897503 
L 247.814876 331.412006 
L 248.429752 329.680141 
L 249.044628 330.008765 
L 249.659504 331.537586 
L 250.27438 329.929121 
L 250.889256 329.823362 
L 251.504132 331.295071 
L 252.119008 329.910862 
L 252.733884 329.571239 
L 253.34876 331.098903 
L 253.963636 329.969046 
L 254.578512 329.558363 
L 255.193388 331.120282 
L 255.808264 330.213905 
L 256.42314 329.705077 
L 257.038017 331.174738 
L 257.652893 330.339559 
L 258.267769 329.70906 
L 258.882645 331.005995 
L 259.497521 330.174562 
L 260.112397 329.537347 
L 260.727273 330.706392 
L 261.342149 329.923513 
L 261.957025 329.406129 
L 262.571901 330.526895 
L 263.186777 329.822428 
L 263.801653 329.485475 
L 264.416529 330.58076 
L 265.031405 329.829847 
L 265.646281 329.692722 
L 266.261157 330.669537 
L 266.876033 329.815228 
L 267.490909 329.858064 
L 268.105785 330.646366 
L 268.720661 329.711235 
L 269.335537 329.973385 
L 269.950413 330.553031 
L 270.565289 329.652166 
L 271.795041 330.550102 
L 272.409917 329.758276 
L 273.024793 330.50774 
L 273.639669 330.624605 
L 274.254545 330.017757 
L 274.869421 330.878119 
L 275.484298 330.665159 
L 276.099174 330.302335 
L 276.71405 331.121979 
L 277.328926 330.599557 
L 277.943802 330.56344 
L 278.558678 331.195817 
L 279.173554 330.523609 
L 280.403306 331.187035 
L 281.018182 330.559301 
L 281.633058 331.159203 
L 282.247934 331.138441 
L 282.86281 330.743609 
L 283.477686 331.411959 
L 284.092562 331.052824 
L 284.707438 330.979261 
L 285.322314 331.494654 
L 285.93719 330.937458 
L 287.166942 331.389276 
L 287.781818 330.871077 
L 288.396694 331.35316 
L 289.626446 330.940386 
L 290.241322 331.441994 
L 290.856198 331.034839 
L 291.471074 331.1378 
L 292.08595 331.431771 
L 292.700826 330.982168 
L 293.315702 331.354746 
L 293.930579 331.318106 
L 294.545455 331.042797 
L 295.160331 331.475272 
L 295.775207 331.164771 
L 296.390083 331.187739 
L 297.004959 331.465897 
L 297.619835 331.082084 
L 298.234711 331.368806 
L 298.849587 331.382411 
L 299.464463 331.143356 
L 300.079339 331.523439 
L 300.694215 331.309212 
L 301.309091 331.325571 
L 301.923967 331.597735 
L 302.538843 331.302185 
L 303.153719 331.53483 
L 303.768595 331.583672 
L 304.383471 331.374088 
L 304.998347 331.684086 
L 305.613223 331.530057 
L 306.228099 331.506398 
L 306.842975 331.7436 
L 307.457851 331.506156 
L 308.687603 331.739267 
L 309.302479 331.546444 
L 309.917355 331.785726 
L 311.147107 331.632115 
L 311.761983 331.846202 
L 312.37686 331.662047 
L 313.606612 331.822664 
L 314.221488 331.627262 
L 314.836364 331.765691 
L 315.45124 331.743238 
L 316.066116 331.603342 
L 316.680992 331.763631 
L 317.910744 331.590078 
L 318.52562 331.711841 
L 319.140496 331.536093 
L 320.370248 331.616077 
L 320.985124 331.439985 
L 321.6 331.526062 
L 337.586777 330.443071 
L 338.201653 330.332749 
L 338.816529 330.356642 
L 340.046281 330.180773 
L 340.661157 330.196352 
L 341.890909 330.021418 
L 342.505785 330.001116 
L 343.735537 329.835849 
L 346.195041 329.533105 
L 347.424793 329.359138 
L 352.958678 328.507723 
L 354.18843 328.294782 
L 367.100826 326.17062 
L 369.560331 325.842712 
L 372.019835 325.468792 
L 375.094215 325.036853 
L 394.770248 322.343812 
L 405.22314 321.373346 
L 418.750413 320.711809 
L 423.669421 320.699652 
L 429.818182 320.821113 
L 434.122314 320.992252 
L 439.041322 321.353067 
L 443.345455 321.865758 
L 447.034711 322.510115 
L 450.109091 323.256596 
L 452.568595 324.054135 
L 455.028099 325.092481 
L 457.487603 326.40842 
L 458.102479 326.789105 
L 458.717355 328.44816 
L 459.332231 327.65174 
L 459.947107 327.668537 
L 460.561983 328.699245 
L 461.17686 327.714052 
L 461.791736 325.960607 
L 462.406612 328.177575 
L 463.021488 328.614701 
L 463.636364 325.539618 
L 464.25124 326.956166 
L 464.866116 329.858038 
L 465.480992 327.256242 
L 466.095868 326.262224 
L 466.710744 329.897525 
L 467.32562 329.960885 
L 467.940496 327.289467 
L 468.555372 329.279588 
L 469.170248 331.72142 
L 469.785124 329.298948 
L 470.4 328.625832 
L 471.014876 331.647075 
L 471.629752 331.15196 
L 472.244628 328.653213 
L 473.47438 332.020829 
L 474.089256 329.617565 
L 474.704132 329.305927 
L 475.319008 331.853823 
L 475.933884 330.967663 
L 476.54876 329.127843 
L 477.163636 331.141089 
L 477.778512 332.028299 
L 478.393388 329.832906 
L 479.008264 330.556609 
L 479.62314 332.551709 
L 480.238017 331.066774 
L 480.852893 330.486943 
L 481.467769 332.792269 
L 482.082645 332.416752 
L 482.697521 331.032045 
L 483.312397 333.024611 
L 483.927273 333.685623 
L 484.542149 332.025252 
L 485.771901 334.812367 
L 486.386777 333.219581 
L 487.001653 334.073582 
L 487.616529 335.781332 
L 488.231405 334.324819 
L 488.846281 334.798807 
L 489.461157 336.540542 
L 490.076033 335.132668 
L 490.690909 335.39923 
L 491.305785 336.980423 
L 491.920661 335.531242 
L 492.535537 335.694523 
L 493.150413 337.027679 
L 493.765289 335.51305 
L 494.380165 335.612934 
L 494.995041 336.711004 
L 495.609917 335.243962 
L 496.224793 335.257392 
L 496.839669 336.284546 
L 497.454545 335.029145 
L 498.069421 334.950801 
L 498.684298 336.091356 
L 499.299174 335.243221 
L 499.91405 335.012217 
L 500.528926 336.27924 
L 501.143802 335.937614 
L 501.758678 335.391228 
L 502.373554 338.730188 
L 502.98843 335.074063 
L 503.603306 333.530415 
L 504.218182 337.127867 
L 504.833058 335.33857 
L 505.447934 331.435588 
L 506.06281 333.7572 
L 506.677686 334.580567 
L 507.292562 330.53887 
L 507.907438 331.019053 
L 508.522314 333.874485 
L 509.13719 340.45898 
L 509.752066 328.611622 
L 510.366942 327.135551 
L 510.981818 339.944526 
L 512.21157 325.350132 
L 512.826446 333.871823 
L 513.441322 333.668672 
L 514.056198 324.36156 
L 515.28595 335.231768 
L 515.900826 327.833447 
L 516.515702 329.968921 
L 517.130579 336.854788 
L 517.745455 334.846292 
L 518.360331 331.25364 
L 518.975207 336.14832 
L 519.590083 338.270751 
L 520.204959 332.260126 
L 520.819835 331.337051 
L 521.434711 335.862568 
L 522.049587 333.243973 
L 522.664463 328.492469 
L 523.279339 332.354821 
L 523.894215 334.447231 
L 524.509091 329.609333 
L 525.123967 330.424122 
L 525.738843 334.295633 
L 526.353719 331.915677 
L 526.968595 328.576209 
L 527.583471 331.478272 
L 528.198347 332.299164 
L 528.813223 327.899413 
L 529.428099 327.651881 
L 530.042975 330.889629 
L 530.657851 329.131885 
L 531.272727 326.220951 
L 531.887603 328.782331 
L 532.502479 330.791016 
L 533.117355 327.826728 
L 533.732231 326.879079 
L 534.347107 329.964387 
L 535.57686 283.129157 
L 536.191736 291.615953 
L 536.806612 332.198002 
L 537.421488 389.085237 
L 538.036364 398.395605 
L 538.65124 354.121949 
L 539.266116 359.116074 
L 539.880992 375.407468 
L 540.495868 338.1938 
L 541.110744 293.154963 
L 541.72562 339.627812 
L 542.340496 355.348941 
L 542.955372 303.013579 
L 543.570248 395.224118 
L 544.185124 204.57006 
L 544.8 449.240744 
L 545.414876 203.619027 
L 546.029752 341.551872 
L 546.644628 424.556383 
L 547.259504 220.438979 
L 547.87438 309.127672 
L 548.489256 434.81896 
L 549.104132 305.987433 
L 549.719008 332.601573 
L 550.333884 344.188955 
L 550.94876 378.560016 
L 551.563636 168.002165 
L 552.178512 412.576584 
L 552.793388 473.729669 
L 553.408264 144.012406 
L 554.02314 213.383117 
L 555.252893 474.534848 
L 555.867769 410.742662 
L 556.482645 387.777363 
L 557.097521 349.897007 
L 558.327273 191.229761 
L 560.171901 423.431659 
L 560.786777 252.939773 
L 561.401653 513.382836 
L 562.631405 242.616677 
L 563.246281 326.012854 
L 563.861157 383.387926 
L 564.476033 250.33849 
L 565.090909 491.078074 
L 565.705785 279.369232 
L 566.320661 193.954479 
L 566.935537 343.180237 
L 567.550413 419.852753 
L 568.165289 345.165341 
L 568.780165 317.173769 
L 569.395041 355.892635 
L 570.009917 350.771711 
L 570.624793 354.469273 
L 571.239669 315.01639 
L 571.854545 308.618131 
L 572.469421 345.771432 
L 573.084298 354.176535 
L 573.699174 313.012529 
L 574.31405 333.203224 
L 574.928926 369.319326 
L 575.543802 276.304154 
L 576.158678 421.506382 
L 576.773554 309.228387 
L 577.38843 426.054149 
L 578.003306 286.391878 
L 578.618182 367.959389 
L 579.233058 257.523571 
L 579.847934 300.871132 
L 580.46281 407.541982 
L 581.077686 308.420867 
L 581.692562 436.031201 
L 582.307438 282.778505 
L 582.922314 408.797575 
L 583.53719 294.888748 
L 584.152066 412.346774 
L 584.766942 295.210413 
L 585.381818 308.241327 
L 585.996694 420.324059 
L 586.61157 269.43553 
L 587.226446 343.907513 
L 587.841322 396.852497 
L 588.456198 313.442251 
L 589.071074 333.403644 
L 589.68595 378.434341 
L 590.300826 336.069286 
L 590.915702 381.68979 
L 591.530579 337.785835 
L 592.145455 376.017918 
L 592.760331 326.478014 
L 593.375207 368.831827 
L 593.990083 323.306642 
L 594.604959 367.719534 
L 595.219835 303.902518 
L 595.834711 365.86085 
L 596.449587 264.442922 
L 597.064463 356.396735 
L 597.679339 184.713255 
L 598.294215 370.737279 
L 598.909091 233.824093 
L 599.523967 413.42947 
L 600.138843 231.58967 
L 600.753719 391.867692 
L 601.368595 203.401219 
L 601.983471 375.613613 
L 602.598347 262.3964 
L 603.213223 443.191262 
L 603.828099 253.004081 
L 604.442975 278.542484 
L 605.057851 400.484427 
L 605.672727 249.390178 
L 606.287603 395.624657 
L 606.902479 206.478949 
L 607.517355 372.491769 
L 608.132231 215.849211 
L 608.747107 412.039118 
L 609.361983 260.217785 
L 609.97686 426.187664 
L 610.591736 213.938476 
L 611.206612 443.442535 
L 611.821488 210.501089 
L 612.436364 331.221061 
L 613.05124 376.458481 
L 613.666116 262.993498 
L 614.280992 317.129722 
L 614.895868 384.189047 
L 615.510744 218.56604 
L 616.12562 466.022578 
L 616.740496 207.71752 
L 617.355372 312.691996 
L 617.970248 357.151645 
L 618.585124 216.573086 
L 619.2 449.300463 
L 619.814876 247.884472 
L 620.429752 339.310992 
L 621.044628 109.7028 
L 621.659504 321.0131 
L 622.27438 481.529051 
L 622.889256 222.634708 
L 623.504132 243.642927 
L 624.119008 444.608489 
L 624.733884 287.730449 
L 625.34876 219.487093 
L 625.963636 456.293458 
L 626.578512 250.30112 
L 627.193388 332.86637 
L 627.808264 161.03993 
L 628.42314 407.432227 
L 629.038017 368.639483 
L 629.652893 199.843662 
L 630.267769 354.312856 
L 630.882645 266.857627 
L 631.497521 437.156884 
L 632.112397 216.531711 
L 633.342149 362.074461 
L 633.957025 290.263491 
L 634.571901 407.93061 
L 635.186777 286.708968 
L 635.801653 403.028573 
L 636.416529 307.955512 
L 637.031405 419.08774 
L 637.031405 419.08774 
" style="fill:none;stroke:#ff796c;stroke-linecap:square;stroke-width:1.5;"/>
   </g>
   <g id="line2d_16">
    <path clip-path="url(#p410d584441)" d="M 194.935537 328.951589 
L 195.550413 328.645617 
L 196.780165 329.767226 
L 197.395041 330.244129 
L 199.239669 333.601413 
L 200.469421 335.836852 
L 201.084298 336.256641 
L 201.699174 336.454578 
L 202.31405 336.93062 
L 202.928926 336.956894 
L 203.543802 336.701623 
L 204.773554 337.40783 
L 205.38843 337.44698 
L 206.003306 337.965682 
L 206.618182 338.723343 
L 207.847934 339.063251 
L 208.46281 339.45944 
L 209.077686 339.245774 
L 209.692562 338.68054 
L 210.307438 338.485002 
L 210.922314 338.083306 
L 211.53719 337.297667 
L 212.152066 337.00257 
L 212.766942 336.938885 
L 213.381818 336.489141 
L 213.996694 336.300942 
L 214.61157 336.475914 
L 215.226446 336.206081 
L 215.841322 335.771436 
L 216.456198 335.67778 
L 217.071074 335.265555 
L 217.68595 334.470711 
L 218.915702 333.625019 
L 219.530579 332.867952 
L 220.145455 332.429259 
L 220.760331 332.330381 
L 221.990083 331.664645 
L 222.604959 331.783151 
L 223.219835 331.660882 
L 223.834711 331.342725 
L 224.449587 331.358678 
L 225.064463 331.249538 
L 225.679339 330.799093 
L 228.138843 329.991128 
L 228.753719 330.116868 
L 229.983471 329.939927 
L 230.598347 330.222515 
L 231.213223 330.294645 
L 231.828099 330.215863 
L 232.442975 330.419478 
L 233.057851 330.482585 
L 233.672727 330.275696 
L 234.902479 330.340785 
L 235.517355 330.111895 
L 236.132231 330.09019 
L 236.747107 330.230517 
L 237.361983 330.140818 
L 237.97686 330.171923 
L 238.591736 330.426327 
L 239.821488 330.473017 
L 240.436364 330.701515 
L 242.895868 330.752611 
L 243.510744 330.609839 
L 244.740496 330.724874 
L 245.355372 330.626445 
L 246.585124 330.860254 
L 247.2 330.824581 
L 248.429752 331.087277 
L 249.659504 331.094389 
L 250.27438 331.18801 
L 251.504132 331.074015 
L 252.119008 331.127935 
L 253.34876 331.002746 
L 253.963636 331.078372 
L 255.193388 331.028109 
L 255.808264 331.13531 
L 257.038017 331.115999 
L 257.652893 331.205996 
L 260.727273 331.048859 
L 261.957025 331.029365 
L 263.186777 331.067304 
L 264.416529 331.081927 
L 265.646281 331.206789 
L 269.950413 331.724049 
L 274.869421 332.74178 
L 276.099174 333.05182 
L 282.247934 334.110038 
L 285.322314 334.390705 
L 287.781818 334.45455 
L 304.998347 333.94437 
L 309.302479 333.782388 
L 312.991736 333.441208 
L 315.45124 333.025964 
L 317.910744 332.415121 
L 320.370248 331.580704 
L 322.829752 330.489962 
L 325.289256 329.118832 
L 327.74876 327.457792 
L 330.208264 325.492847 
L 332.667769 323.240365 
L 335.127273 320.702096 
L 338.201653 317.165497 
L 341.276033 313.288987 
L 345.580165 307.450148 
L 356.647934 292.137761 
L 360.33719 287.502036 
L 363.41157 283.948579 
L 366.48595 280.694208 
L 369.560331 277.74303 
L 372.634711 275.10495 
L 375.709091 272.759363 
L 378.783471 270.736638 
L 381.242975 269.359496 
L 383.702479 268.210473 
L 386.161983 267.306563 
L 388.006612 266.806119 
L 390.466116 266.403199 
L 392.92562 266.279258 
L 394.770248 266.367736 
L 397.229752 266.745906 
L 399.689256 267.395683 
L 402.14876 268.296428 
L 404.608264 269.436627 
L 407.067769 270.824929 
L 410.142149 272.843173 
L 413.216529 275.153346 
L 416.905785 278.238243 
L 420.595041 281.597385 
L 424.899174 285.793932 
L 429.203306 290.262529 
L 432.892562 294.360772 
L 435.966942 298.053808 
L 439.041322 302.092769 
L 441.500826 305.650833 
L 443.960331 309.591103 
L 446.419835 314.010397 
L 448.264463 317.720066 
L 450.109091 321.844196 
L 451.953719 326.471007 
L 453.798347 331.713232 
L 455.642975 337.712642 
L 457.487603 344.604398 
L 459.947107 354.425708 
L 465.480992 375.348784 
L 469.785124 392.418945 
L 471.014876 396.667869 
L 472.859504 402.033162 
L 474.089256 404.884975 
L 475.319008 407.172137 
L 476.54876 408.819137 
L 477.778512 409.892494 
L 478.393388 410.215998 
L 479.62314 410.513213 
L 480.238017 410.492987 
L 481.467769 410.131086 
L 482.697521 409.495181 
L 484.542149 408.096817 
L 489.461157 403.59551 
L 496.224793 398.285019 
L 498.069421 396.539428 
L 501.143802 393.303622 
L 502.373554 391.801706 
L 502.98843 390.670343 
L 504.218182 387.431488 
L 504.833058 386.113044 
L 507.292562 379.113868 
L 508.522314 375.226472 
L 509.13719 373.572479 
L 509.752066 371.598754 
L 510.366942 368.262668 
L 510.981818 365.633336 
L 511.596694 363.960508 
L 512.826446 358.246862 
L 513.441322 356.447283 
L 514.056198 354.232458 
L 514.671074 351.552779 
L 517.130579 344.945831 
L 517.745455 343.881977 
L 520.204959 337.411889 
L 521.434711 333.011692 
L 522.049587 331.229908 
L 523.894215 324.486021 
L 524.509091 322.439269 
L 525.738843 317.751134 
L 526.353719 315.76907 
L 528.198347 308.785762 
L 531.272727 298.172058 
L 531.887603 296.161696 
L 534.961983 288.685783 
L 535.57686 286.535911 
L 536.191736 286.270669 
L 536.806612 290.848842 
L 537.421488 300.290032 
L 538.036364 311.696311 
L 538.65124 318.846314 
L 539.266116 319.955938 
L 539.880992 322.527707 
L 540.495868 324.147052 
L 541.72562 318.607766 
L 542.955372 348.422408 
L 543.570248 351.822665 
L 544.185124 398.32789 
L 544.8 318.997438 
L 545.414876 400.818389 
L 546.029752 319.544915 
L 546.644628 401.362776 
L 547.259504 446.718588 
L 547.87438 383.252627 
L 548.489256 404.96536 
L 549.104132 433.402027 
L 549.719008 418.150121 
L 550.333884 414.402487 
L 550.94876 419.116919 
L 551.563636 405.989722 
L 552.178512 324.700541 
L 553.408264 488.303146 
L 554.02314 407.009156 
L 555.252893 570.602099 
L 555.867769 605.1348 
L 558.327273 279.923117 
L 558.942149 255.364647 
L 560.786777 500.712308 
L 561.401653 438.732417 
L 562.016529 520.509982 
L 563.246281 357.874325 
L 563.861157 414.292019 
L 564.476033 416.00493 
L 565.090909 334.681208 
L 565.705785 416.448674 
L 566.320661 335.121559 
L 566.935537 288.597369 
L 567.550413 344.014792 
L 568.165289 386.964176 
L 569.395041 368.435386 
L 570.009917 375.932813 
L 570.624793 386.35185 
L 571.239669 387.756686 
L 571.854545 374.581888 
L 572.469421 375.597126 
L 573.084298 394.528286 
L 573.699174 404.641847 
L 574.31405 394.294013 
L 574.928926 409.381404 
L 575.543802 432.887421 
L 576.158678 381.101254 
L 576.773554 462.837543 
L 577.38843 399.407359 
L 578.003306 481.140109 
L 578.618182 399.7782 
L 579.233058 462.488971 
L 579.847934 386.375638 
L 580.46281 418.816904 
L 581.077686 490.006772 
L 581.692562 408.635935 
L 582.307438 490.356185 
L 582.922314 408.981753 
L 583.53719 486.597895 
L 584.152066 405.219855 
L 584.766942 486.932888 
L 585.381818 405.551227 
L 585.996694 398.44772 
L 586.61157 440.868863 
L 587.226446 369.876547 
L 587.841322 384.558183 
L 588.456198 393.136153 
L 589.071074 375.99078 
L 589.68595 374.994192 
L 590.300826 379.744803 
L 590.915702 377.096929 
L 591.530579 378.734642 
L 592.145455 373.562745 
L 592.760331 372.40077 
L 593.375207 364.816803 
L 593.990083 363.296553 
L 594.604959 354.571893 
L 595.219835 351.94792 
L 595.834711 332.257522 
L 596.449587 332.644513 
L 597.064463 279.449566 
L 597.679339 302.798667 
L 598.294215 221.378281 
L 598.909091 303.048905 
L 599.523967 236.495682 
L 600.138843 318.162552 
L 600.753719 250.426761 
L 601.368595 326.748662 
L 601.983471 245.317004 
L 602.598347 326.976341 
L 603.213223 277.023138 
L 603.828099 358.678696 
L 604.442975 277.239478 
L 605.057851 263.153703 
L 605.672727 292.736022 
L 606.287603 230.187684 
L 606.902479 303.819755 
L 607.517355 222.371042 
L 608.132231 297.811835 
L 608.747107 216.830709 
L 609.361983 291.203628 
L 609.97686 211.392685 
L 610.591736 280.550606 
L 611.206612 199.090438 
L 611.821488 280.721238 
L 612.436364 199.257238 
L 613.05124 280.884202 
L 613.666116 309.049213 
L 614.280992 264.203636 
L 615.510744 279.196589 
L 616.12562 197.721058 
L 616.740496 277.055383 
L 617.355372 195.575996 
L 617.970248 266.473264 
L 618.585124 268.405972 
L 619.2 186.920793 
L 619.814876 268.526563 
L 620.429752 187.037517 
L 621.044628 268.320015 
L 621.659504 186.827097 
L 622.889256 350.021212 
L 623.504132 268.522478 
L 624.119008 294.140197 
L 624.733884 375.730464 
L 625.963636 218.751394 
L 626.578512 300.335833 
L 627.193388 218.825445 
L 627.808264 281.566379 
L 628.42314 209.524979 
L 629.038017 291.101637 
L 629.652893 294.202279 
L 630.267769 212.682161 
L 630.882645 294.252977 
L 631.497521 248.391878 
L 632.112397 329.958797 
L 632.727273 248.430885 
L 633.342149 296.158405 
L 633.957025 377.719476 
L 634.571901 349.626841 
L 635.186777 431.184011 
L 635.801653 349.646349 
L 636.416529 431.199618 
L 637.031405 354.144397 
L 637.646281 435.693765 
L 637.646281 435.693765 
" style="fill:none;stroke:#e50000;stroke-linecap:square;stroke-width:1.5;"/>
   </g>
   <g id="line2d_17">
    <path clip-path="url(#p410d584441)" d="M 194.935537 226.477309 
L 201.699174 226.59532 
L 208.46281 226.94908 
L 215.226446 227.537775 
L 221.990083 228.36005 
L 228.753719 229.41401 
L 235.517355 230.697227 
L 242.280992 232.206746 
L 249.044628 233.939091 
L 255.808264 235.890271 
L 263.186777 238.263118 
L 270.565289 240.884536 
L 277.943802 243.747339 
L 285.322314 246.843681 
L 293.315702 250.451736 
L 301.309091 254.312298 
L 309.302479 258.412949 
L 317.910744 263.082391 
L 326.519008 267.997552 
L 335.742149 273.515619 
L 345.580165 279.662611 
L 356.033058 286.456198 
L 367.715702 294.323817 
L 380.628099 303.294078 
L 396.614876 314.689926 
L 423.669421 334.314679 
L 445.804959 350.25719 
L 460.561983 360.617883 
L 472.859504 368.99148 
L 483.927273 376.268946 
L 494.380165 382.874982 
L 504.218182 388.822153 
L 513.441322 394.133247 
L 522.049587 398.83888 
L 530.657851 403.283806 
L 538.65124 407.163287 
L 546.644628 410.791188 
L 554.02314 413.906618 
L 561.401653 416.789191 
L 568.780165 419.431008 
L 576.158678 421.824827 
L 582.922314 423.795686 
L 589.68595 425.548097 
L 596.449587 427.078025 
L 603.213223 428.381945 
L 609.97686 429.456855 
L 616.740496 430.300278 
L 623.504132 430.910272 
L 630.267769 431.285432 
L 637.031405 431.424894 
L 637.031405 431.424894 
" style="fill:none;stroke:#014d4e;stroke-linecap:square;stroke-width:1.5;"/>
   </g>
   <g id="line2d_18">
    <path clip-path="url(#p410d584441)" d="M 194.935537 226.783281 
L 196.165289 225.665574 
L 196.780165 225.193548 
L 198.624793 221.8626 
L 199.854545 219.65447 
L 200.469421 219.251261 
L 201.084298 219.071853 
L 201.699174 218.616288 
L 202.31405 218.612441 
L 202.928926 218.892087 
L 204.158678 218.240473 
L 204.773554 218.23154 
L 205.38843 217.745001 
L 206.003306 217.021449 
L 207.233058 216.755593 
L 207.847934 216.399345 
L 208.46281 216.654895 
L 209.077686 217.263955 
L 209.692562 217.505261 
L 210.307438 217.954664 
L 210.922314 218.789951 
L 211.53719 219.136633 
L 212.152066 219.25384 
L 212.766942 219.759044 
L 213.381818 220.004637 
L 213.996694 219.888994 
L 214.61157 220.22009 
L 215.226446 220.717928 
L 215.841322 220.876709 
L 216.456198 221.355989 
L 217.071074 222.219815 
L 218.300826 223.209252 
L 218.915702 224.041078 
L 219.530579 224.556454 
L 220.145455 224.733935 
L 221.375207 225.562636 
L 221.990083 225.528488 
L 222.604959 225.73703 
L 223.219835 226.143375 
L 223.834711 226.21752 
L 224.449587 226.418668 
L 225.064463 226.963031 
L 227.523967 228.165711 
L 228.138843 228.143402 
L 229.368595 228.532895 
L 229.983471 228.359423 
L 230.598347 228.3983 
L 231.213223 228.589978 
L 231.828099 228.501146 
L 232.442975 228.554707 
L 233.057851 228.880145 
L 234.287603 229.057793 
L 234.902479 229.410865 
L 235.517355 229.558625 
L 236.132231 229.546225 
L 236.747107 229.765719 
L 237.361983 229.866273 
L 237.97686 229.745393 
L 239.206612 229.971329 
L 239.821488 229.881929 
L 242.280992 230.405725 
L 242.895868 230.696831 
L 244.12562 230.88398 
L 244.740496 231.136251 
L 245.970248 231.215617 
L 246.585124 231.410614 
L 247.814876 231.47203 
L 249.044628 231.796291 
L 249.659504 231.871071 
L 250.889256 232.327282 
L 251.504132 232.44717 
L 252.733884 232.925361 
L 253.34876 233.028921 
L 254.578512 233.44291 
L 255.193388 233.520242 
L 256.42314 233.913941 
L 257.038017 234.013792 
L 261.957025 235.800178 
L 263.186777 236.155613 
L 265.646281 236.795667 
L 266.876033 237.0858 
L 271.180165 238.023313 
L 276.71405 238.878593 
L 282.86281 240.499176 
L 284.707438 241.13782 
L 286.552066 241.884848 
L 290.241322 243.58906 
L 303.153719 250.215812 
L 308.072727 252.903343 
L 311.761983 255.151391 
L 314.836364 257.311226 
L 317.295868 259.276967 
L 319.755372 261.486451 
L 322.214876 263.972009 
L 324.67438 266.75728 
L 327.133884 269.851355 
L 329.593388 273.267794 
L 332.667769 277.968422 
L 335.742149 283.134518 
L 339.431405 289.865697 
L 343.735537 298.286408 
L 352.343802 315.884952 
L 357.26281 325.671471 
L 361.566942 333.76759 
L 365.256198 340.277304 
L 368.945455 346.375337 
L 372.634711 352.048721 
L 376.323967 357.318363 
L 379.398347 361.359759 
L 382.472727 365.071269 
L 385.547107 368.417122 
L 388.006612 370.794514 
L 390.466116 372.882696 
L 392.92562 374.699973 
L 395.385124 376.235561 
L 397.844628 377.489095 
L 400.304132 378.486568 
L 402.763636 379.245373 
L 405.22314 379.761074 
L 407.682645 380.051897 
L 410.142149 380.14992 
L 413.216529 380.022427 
L 416.290909 379.664935 
L 419.980165 378.988257 
L 423.669421 378.087211 
L 427.358678 376.990483 
L 431.047934 375.653871 
L 434.122314 374.294539 
L 436.581818 372.987479 
L 439.041322 371.42298 
L 441.500826 369.542143 
L 443.345455 367.86509 
L 445.190083 365.917563 
L 447.034711 363.641451 
L 448.879339 360.971816 
L 450.723967 357.826992 
L 452.568595 354.104321 
L 454.413223 349.668693 
L 456.257851 344.376462 
L 463.636364 320.939828 
L 465.480992 315.115375 
L 469.170248 303.041183 
L 470.4 299.622851 
L 471.629752 296.766644 
L 472.859504 294.406408 
L 474.089256 292.658042 
L 474.704132 292.002218 
L 475.319008 291.51352 
L 475.933884 291.17216 
L 476.54876 290.971935 
L 477.163636 290.912539 
L 477.778512 290.994682 
L 479.008264 291.50628 
L 480.238017 292.474756 
L 481.467769 293.764581 
L 483.312397 296.221644 
L 485.771901 299.981016 
L 488.231405 303.848477 
L 490.690909 307.426204 
L 493.150413 310.742167 
L 497.454545 317.175244 
L 501.143802 323.371118 
L 501.758678 324.511481 
L 502.373554 326.009668 
L 503.603306 329.978807 
L 504.218182 331.660698 
L 507.292562 342.542136 
L 509.13719 349.040949 
L 509.752066 352.729977 
L 510.366942 355.711049 
L 510.981818 357.73441 
L 512.21157 364.14547 
L 512.826446 366.291918 
L 514.671074 373.832237 
L 515.28595 375.583232 
L 515.900826 378.04608 
L 516.515702 379.848433 
L 517.130579 381.250378 
L 519.590083 389.059966 
L 520.819835 394.122106 
L 521.434711 396.232888 
L 525.123967 411.657619 
L 525.738843 413.959281 
L 527.583471 421.893151 
L 531.272727 436.380774 
L 534.961983 447.81896 
L 535.57686 448.381208 
L 536.191736 444.098579 
L 536.806612 434.951467 
L 537.421488 423.837794 
L 538.036364 416.978918 
L 538.65124 416.158938 
L 539.266116 413.875324 
L 539.880992 412.54264 
L 541.110744 418.650741 
L 542.340496 389.398871 
L 542.955372 386.27772 
L 543.570248 340.050076 
L 544.185124 419.656575 
L 544.8 338.110134 
L 545.414876 419.656575 
L 546.029752 338.110134 
L 546.644628 293.024189 
L 547.259504 356.758459 
L 547.87438 335.312471 
L 548.489256 307.140982 
L 549.104132 322.656491 
L 549.719008 326.666151 
L 550.333884 322.212161 
L 550.94876 335.598212 
L 551.563636 417.144653 
L 552.793388 254.05177 
L 553.408264 335.598212 
L 554.638017 172.505329 
L 555.252893 138.220228 
L 557.712397 464.405993 
L 558.327273 489.203881 
L 560.171901 244.564557 
L 560.786777 306.77724 
L 561.401653 225.230799 
L 562.631405 388.323681 
L 563.246281 332.132081 
L 563.861157 330.643578 
L 564.476033 412.190019 
L 565.090909 330.643578 
L 565.705785 412.190019 
L 566.320661 458.931834 
L 566.935537 403.73033 
L 567.550413 360.995153 
L 568.780165 379.947212 
L 569.395041 372.658836 
L 570.009917 362.447125 
L 570.624793 361.247884 
L 571.239669 374.626542 
L 571.854545 373.813427 
L 572.469421 355.082647 
L 573.084298 345.16772 
L 573.699174 355.712439 
L 574.31405 340.820178 
L 574.928926 317.507535 
L 575.543802 369.485315 
L 576.158678 287.938873 
L 576.773554 351.557137 
L 577.38843 270.010696 
L 578.003306 351.557137 
L 578.618182 289.029121 
L 579.233058 365.323425 
L 579.847934 333.061345 
L 580.46281 262.048874 
L 581.077686 343.595316 
L 581.692562 262.048874 
L 582.307438 343.595316 
L 582.922314 266.14938 
L 583.53719 347.695821 
L 584.152066 266.14938 
L 584.766942 347.695821 
L 585.381818 354.962294 
L 585.996694 312.702297 
L 586.61157 383.853939 
L 587.226446 369.329803 
L 587.841322 360.907507 
L 588.456198 378.206723 
L 589.071074 379.355321 
L 589.68595 374.754884 
L 590.300826 377.551092 
L 590.915702 376.059872 
L 591.530579 381.376417 
L 592.145455 382.681192 
L 592.760331 390.406109 
L 593.375207 392.065457 
L 593.990083 400.92736 
L 594.604959 403.686716 
L 595.219835 423.510638 
L 595.834711 423.255307 
L 596.449587 476.580048 
L 597.064463 453.358874 
L 597.679339 534.905315 
L 598.294215 453.358874 
L 598.909091 520.034404 
L 599.523967 438.487963 
L 600.138843 506.342304 
L 600.753719 430.13707 
L 601.368595 511.683511 
L 601.983471 430.13707 
L 602.598347 480.20128 
L 603.213223 398.654839 
L 603.828099 480.20128 
L 604.442975 494.392383 
L 605.057851 464.913495 
L 605.672727 527.563366 
L 606.287603 454.030925 
L 606.902479 535.577366 
L 607.517355 460.232398 
L 608.132231 541.307441 
L 608.747107 467.02653 
L 609.361983 546.927572 
L 609.97686 477.857838 
L 610.591736 559.404279 
L 611.206612 477.857838 
L 611.821488 559.404279 
L 612.436364 477.857838 
L 613.05124 449.771431 
L 613.666116 494.69369 
L 614.895868 479.848331 
L 615.510744 561.394772 
L 616.12562 482.129429 
L 616.740496 563.675871 
L 617.355372 492.843728 
L 617.970248 490.974213 
L 618.585124 572.520655 
L 619.2 490.974213 
L 619.814876 572.520655 
L 620.429752 491.293615 
L 621.044628 572.840057 
L 622.27438 409.747174 
L 622.889256 491.293615 
L 623.504132 465.721664 
L 624.119008 384.175223 
L 625.34876 541.236119 
L 625.963636 459.689678 
L 626.578512 541.236119 
L 627.193388 478.529295 
L 627.808264 550.602858 
L 628.42314 469.056416 
L 629.038017 465.984044 
L 629.652893 547.530485 
L 630.267769 465.984044 
L 630.882645 511.86757 
L 631.497521 430.321129 
L 632.112397 511.86757 
L 632.727273 464.156629 
L 633.342149 382.610188 
L 633.957025 410.715502 
L 634.571901 329.169061 
L 635.186777 410.715502 
L 635.801653 329.169061 
L 636.416529 406.22916 
L 637.031405 324.682718 
L 637.031405 324.682718 
" style="fill:none;stroke:#ffff14;stroke-linecap:square;stroke-width:1.5;"/>
   </g>
   <g id="patch_3">
    <path d="M 172.8 629.9064 
L 172.8 84.9312 
" style="fill:none;stroke:#000000;stroke-linecap:square;stroke-linejoin:miter;stroke-width:0.8;"/>
   </g>
   <g id="patch_4">
    <path d="M 659.781818 629.9064 
L 659.781818 84.9312 
" style="fill:none;stroke:#000000;stroke-linecap:square;stroke-linejoin:miter;stroke-width:0.8;"/>
   </g>
   <g id="patch_5">
    <path d="M 172.8 629.9064 
L 659.781818 629.9064 
" style="fill:none;stroke:#000000;stroke-linecap:square;stroke-linejoin:miter;stroke-width:0.8;"/>
   </g>
   <g id="patch_6">
    <path d="M 172.8 84.9312 
L 659.781818 84.9312 
" style="fill:none;stroke:#000000;stroke-linecap:square;stroke-linejoin:miter;stroke-width:0.8;"/>
   </g>
   <g id="text_15">
    <!-- Right abduction -->
    <defs>
     <path d="M 44.390625 34.1875 
Q 47.5625 33.109375 50.5625 29.59375 
Q 53.5625 26.078125 56.59375 19.921875 
L 66.609375 0 
L 56 0 
L 46.6875 18.703125 
Q 43.0625 26.03125 39.671875 28.421875 
Q 36.28125 30.8125 30.421875 30.8125 
L 19.671875 30.8125 
L 19.671875 0 
L 9.8125 0 
L 9.8125 72.90625 
L 32.078125 72.90625 
Q 44.578125 72.90625 50.734375 67.671875 
Q 56.890625 62.453125 56.890625 51.90625 
Q 56.890625 45.015625 53.6875 40.46875 
Q 50.484375 35.9375 44.390625 34.1875 
z
M 19.671875 64.796875 
L 19.671875 38.921875 
L 32.078125 38.921875 
Q 39.203125 38.921875 42.84375 42.21875 
Q 46.484375 45.515625 46.484375 51.90625 
Q 46.484375 58.296875 42.84375 61.546875 
Q 39.203125 64.796875 32.078125 64.796875 
z
" id="DejaVuSans-82"/>
     <path d="M 9.421875 54.6875 
L 18.40625 54.6875 
L 18.40625 0 
L 9.421875 0 
z
M 9.421875 75.984375 
L 18.40625 75.984375 
L 18.40625 64.59375 
L 9.421875 64.59375 
z
" id="DejaVuSans-105"/>
     <path d="M 45.40625 27.984375 
Q 45.40625 37.75 41.375 43.109375 
Q 37.359375 48.484375 30.078125 48.484375 
Q 22.859375 48.484375 18.828125 43.109375 
Q 14.796875 37.75 14.796875 27.984375 
Q 14.796875 18.265625 18.828125 12.890625 
Q 22.859375 7.515625 30.078125 7.515625 
Q 37.359375 7.515625 41.375 12.890625 
Q 45.40625 18.265625 45.40625 27.984375 
z
M 54.390625 6.78125 
Q 54.390625 -7.171875 48.1875 -13.984375 
Q 42 -20.796875 29.203125 -20.796875 
Q 24.46875 -20.796875 20.265625 -20.09375 
Q 16.0625 -19.390625 12.109375 -17.921875 
L 12.109375 -9.1875 
Q 16.0625 -11.328125 19.921875 -12.34375 
Q 23.78125 -13.375 27.78125 -13.375 
Q 36.625 -13.375 41.015625 -8.765625 
Q 45.40625 -4.15625 45.40625 5.171875 
L 45.40625 9.625 
Q 42.625 4.78125 38.28125 2.390625 
Q 33.9375 0 27.875 0 
Q 17.828125 0 11.671875 7.65625 
Q 5.515625 15.328125 5.515625 27.984375 
Q 5.515625 40.671875 11.671875 48.328125 
Q 17.828125 56 27.875 56 
Q 33.9375 56 38.28125 53.609375 
Q 42.625 51.21875 45.40625 46.390625 
L 45.40625 54.6875 
L 54.390625 54.6875 
z
" id="DejaVuSans-103"/>
     <path d="M 54.890625 33.015625 
L 54.890625 0 
L 45.90625 0 
L 45.90625 32.71875 
Q 45.90625 40.484375 42.875 44.328125 
Q 39.84375 48.1875 33.796875 48.1875 
Q 26.515625 48.1875 22.3125 43.546875 
Q 18.109375 38.921875 18.109375 30.90625 
L 18.109375 0 
L 9.078125 0 
L 9.078125 75.984375 
L 18.109375 75.984375 
L 18.109375 46.1875 
Q 21.34375 51.125 25.703125 53.5625 
Q 30.078125 56 35.796875 56 
Q 45.21875 56 50.046875 50.171875 
Q 54.890625 44.34375 54.890625 33.015625 
z
" id="DejaVuSans-104"/>
     <path d="M 18.3125 70.21875 
L 18.3125 54.6875 
L 36.8125 54.6875 
L 36.8125 47.703125 
L 18.3125 47.703125 
L 18.3125 18.015625 
Q 18.3125 11.328125 20.140625 9.421875 
Q 21.96875 7.515625 27.59375 7.515625 
L 36.8125 7.515625 
L 36.8125 0 
L 27.59375 0 
Q 17.1875 0 13.234375 3.875 
Q 9.28125 7.765625 9.28125 18.015625 
L 9.28125 47.703125 
L 2.6875 47.703125 
L 2.6875 54.6875 
L 9.28125 54.6875 
L 9.28125 70.21875 
z
" id="DejaVuSans-116"/>
     <path id="DejaVuSans-32"/>
     <path d="M 34.28125 27.484375 
Q 23.390625 27.484375 19.1875 25 
Q 14.984375 22.515625 14.984375 16.5 
Q 14.984375 11.71875 18.140625 8.90625 
Q 21.296875 6.109375 26.703125 6.109375 
Q 34.1875 6.109375 38.703125 11.40625 
Q 43.21875 16.703125 43.21875 25.484375 
L 43.21875 27.484375 
z
M 52.203125 31.203125 
L 52.203125 0 
L 43.21875 0 
L 43.21875 8.296875 
Q 40.140625 3.328125 35.546875 0.953125 
Q 30.953125 -1.421875 24.3125 -1.421875 
Q 15.921875 -1.421875 10.953125 3.296875 
Q 6 8.015625 6 15.921875 
Q 6 25.140625 12.171875 29.828125 
Q 18.359375 34.515625 30.609375 34.515625 
L 43.21875 34.515625 
L 43.21875 35.40625 
Q 43.21875 41.609375 39.140625 45 
Q 35.0625 48.390625 27.6875 48.390625 
Q 23 48.390625 18.546875 47.265625 
Q 14.109375 46.140625 10.015625 43.890625 
L 10.015625 52.203125 
Q 14.9375 54.109375 19.578125 55.046875 
Q 24.21875 56 28.609375 56 
Q 40.484375 56 46.34375 49.84375 
Q 52.203125 43.703125 52.203125 31.203125 
z
" id="DejaVuSans-97"/>
     <path d="M 48.6875 27.296875 
Q 48.6875 37.203125 44.609375 42.84375 
Q 40.53125 48.484375 33.40625 48.484375 
Q 26.265625 48.484375 22.1875 42.84375 
Q 18.109375 37.203125 18.109375 27.296875 
Q 18.109375 17.390625 22.1875 11.75 
Q 26.265625 6.109375 33.40625 6.109375 
Q 40.53125 6.109375 44.609375 11.75 
Q 48.6875 17.390625 48.6875 27.296875 
z
M 18.109375 46.390625 
Q 20.953125 51.265625 25.265625 53.625 
Q 29.59375 56 35.59375 56 
Q 45.5625 56 51.78125 48.09375 
Q 58.015625 40.1875 58.015625 27.296875 
Q 58.015625 14.40625 51.78125 6.484375 
Q 45.5625 -1.421875 35.59375 -1.421875 
Q 29.59375 -1.421875 25.265625 0.953125 
Q 20.953125 3.328125 18.109375 8.203125 
L 18.109375 0 
L 9.078125 0 
L 9.078125 75.984375 
L 18.109375 75.984375 
z
" id="DejaVuSans-98"/>
     <path d="M 45.40625 46.390625 
L 45.40625 75.984375 
L 54.390625 75.984375 
L 54.390625 0 
L 45.40625 0 
L 45.40625 8.203125 
Q 42.578125 3.328125 38.25 0.953125 
Q 33.9375 -1.421875 27.875 -1.421875 
Q 17.96875 -1.421875 11.734375 6.484375 
Q 5.515625 14.40625 5.515625 27.296875 
Q 5.515625 40.1875 11.734375 48.09375 
Q 17.96875 56 27.875 56 
Q 33.9375 56 38.25 53.625 
Q 42.578125 51.265625 45.40625 46.390625 
z
M 14.796875 27.296875 
Q 14.796875 17.390625 18.875 11.75 
Q 22.953125 6.109375 30.078125 6.109375 
Q 37.203125 6.109375 41.296875 11.75 
Q 45.40625 17.390625 45.40625 27.296875 
Q 45.40625 37.203125 41.296875 42.84375 
Q 37.203125 48.484375 30.078125 48.484375 
Q 22.953125 48.484375 18.875 42.84375 
Q 14.796875 37.203125 14.796875 27.296875 
z
" id="DejaVuSans-100"/>
     <path d="M 8.5 21.578125 
L 8.5 54.6875 
L 17.484375 54.6875 
L 17.484375 21.921875 
Q 17.484375 14.15625 20.5 10.265625 
Q 23.53125 6.390625 29.59375 6.390625 
Q 36.859375 6.390625 41.078125 11.03125 
Q 45.3125 15.671875 45.3125 23.6875 
L 45.3125 54.6875 
L 54.296875 54.6875 
L 54.296875 0 
L 45.3125 0 
L 45.3125 8.40625 
Q 42.046875 3.421875 37.71875 1 
Q 33.40625 -1.421875 27.6875 -1.421875 
Q 18.265625 -1.421875 13.375 4.4375 
Q 8.5 10.296875 8.5 21.578125 
z
M 31.109375 56 
z
" id="DejaVuSans-117"/>
     <path d="M 48.78125 52.59375 
L 48.78125 44.1875 
Q 44.96875 46.296875 41.140625 47.34375 
Q 37.3125 48.390625 33.40625 48.390625 
Q 24.65625 48.390625 19.8125 42.84375 
Q 14.984375 37.3125 14.984375 27.296875 
Q 14.984375 17.28125 19.8125 11.734375 
Q 24.65625 6.203125 33.40625 6.203125 
Q 37.3125 6.203125 41.140625 7.25 
Q 44.96875 8.296875 48.78125 10.40625 
L 48.78125 2.09375 
Q 45.015625 0.34375 40.984375 -0.53125 
Q 36.96875 -1.421875 32.421875 -1.421875 
Q 20.0625 -1.421875 12.78125 6.34375 
Q 5.515625 14.109375 5.515625 27.296875 
Q 5.515625 40.671875 12.859375 48.328125 
Q 20.21875 56 33.015625 56 
Q 37.15625 56 41.109375 55.140625 
Q 45.0625 54.296875 48.78125 52.59375 
z
" id="DejaVuSans-99"/>
     <path d="M 30.609375 48.390625 
Q 23.390625 48.390625 19.1875 42.75 
Q 14.984375 37.109375 14.984375 27.296875 
Q 14.984375 17.484375 19.15625 11.84375 
Q 23.34375 6.203125 30.609375 6.203125 
Q 37.796875 6.203125 41.984375 11.859375 
Q 46.1875 17.53125 46.1875 27.296875 
Q 46.1875 37.015625 41.984375 42.703125 
Q 37.796875 48.390625 30.609375 48.390625 
z
M 30.609375 56 
Q 42.328125 56 49.015625 48.375 
Q 55.71875 40.765625 55.71875 27.296875 
Q 55.71875 13.875 49.015625 6.21875 
Q 42.328125 -1.421875 30.609375 -1.421875 
Q 18.84375 -1.421875 12.171875 6.21875 
Q 5.515625 13.875 5.515625 27.296875 
Q 5.515625 40.765625 12.171875 48.375 
Q 18.84375 56 30.609375 56 
z
" id="DejaVuSans-111"/>
     <path d="M 54.890625 33.015625 
L 54.890625 0 
L 45.90625 0 
L 45.90625 32.71875 
Q 45.90625 40.484375 42.875 44.328125 
Q 39.84375 48.1875 33.796875 48.1875 
Q 26.515625 48.1875 22.3125 43.546875 
Q 18.109375 38.921875 18.109375 30.90625 
L 18.109375 0 
L 9.078125 0 
L 9.078125 54.6875 
L 18.109375 54.6875 
L 18.109375 46.1875 
Q 21.34375 51.125 25.703125 53.5625 
Q 30.078125 56 35.796875 56 
Q 45.21875 56 50.046875 50.171875 
Q 54.890625 44.34375 54.890625 33.015625 
z
" id="DejaVuSans-110"/>
    </defs>
    <g transform="translate(368.694972 78.9312)scale(0.12 -0.12)">
     <use xlink:href="#DejaVuSans-82"/>
     <use x="69.482422" xlink:href="#DejaVuSans-105"/>
     <use x="97.265625" xlink:href="#DejaVuSans-103"/>
     <use x="160.742188" xlink:href="#DejaVuSans-104"/>
     <use x="224.121094" xlink:href="#DejaVuSans-116"/>
     <use x="263.330078" xlink:href="#DejaVuSans-32"/>
     <use x="295.117188" xlink:href="#DejaVuSans-97"/>
     <use x="356.396484" xlink:href="#DejaVuSans-98"/>
     <use x="419.873047" xlink:href="#DejaVuSans-100"/>
     <use x="483.349609" xlink:href="#DejaVuSans-117"/>
     <use x="546.728516" xlink:href="#DejaVuSans-99"/>
     <use x="601.708984" xlink:href="#DejaVuSans-116"/>
     <use x="640.917969" xlink:href="#DejaVuSans-105"/>
     <use x="668.701172" xlink:href="#DejaVuSans-111"/>
     <use x="729.882812" xlink:href="#DejaVuSans-110"/>
    </g>
   </g>
  </g>
  <g id="axes_2">
   <g id="patch_7">
    <path d="M 757.178182 629.9064 
L 1244.16 629.9064 
L 1244.16 84.9312 
L 757.178182 84.9312 
z
" style="fill:#ffffff;"/>
   </g>
   <g id="matplotlib.axis_3">
    <g id="xtick_9">
     <g id="line2d_19">
      <g>
       <use style="stroke:#000000;stroke-width:0.8;" x="779.313719" xlink:href="#mec8be47520" y="629.9064"/>
      </g>
     </g>
     <g id="text_16">
      <!-- 0 -->
      <g transform="translate(776.132469 644.504838)scale(0.1 -0.1)">
       <use xlink:href="#DejaVuSans-48"/>
      </g>
     </g>
    </g>
    <g id="xtick_10">
     <g id="line2d_20">
      <g>
       <use style="stroke:#000000;stroke-width:0.8;" x="840.801322" xlink:href="#mec8be47520" y="629.9064"/>
      </g>
     </g>
     <g id="text_17">
      <!-- 100 -->
      <g transform="translate(831.257572 644.504838)scale(0.1 -0.1)">
       <use xlink:href="#DejaVuSans-49"/>
       <use x="63.623047" xlink:href="#DejaVuSans-48"/>
       <use x="127.246094" xlink:href="#DejaVuSans-48"/>
      </g>
     </g>
    </g>
    <g id="xtick_11">
     <g id="line2d_21">
      <g>
       <use style="stroke:#000000;stroke-width:0.8;" x="902.288926" xlink:href="#mec8be47520" y="629.9064"/>
      </g>
     </g>
     <g id="text_18">
      <!-- 200 -->
      <g transform="translate(892.745176 644.504838)scale(0.1 -0.1)">
       <use xlink:href="#DejaVuSans-50"/>
       <use x="63.623047" xlink:href="#DejaVuSans-48"/>
       <use x="127.246094" xlink:href="#DejaVuSans-48"/>
      </g>
     </g>
    </g>
    <g id="xtick_12">
     <g id="line2d_22">
      <g>
       <use style="stroke:#000000;stroke-width:0.8;" x="963.776529" xlink:href="#mec8be47520" y="629.9064"/>
      </g>
     </g>
     <g id="text_19">
      <!-- 300 -->
      <g transform="translate(954.232779 644.504838)scale(0.1 -0.1)">
       <use xlink:href="#DejaVuSans-51"/>
       <use x="63.623047" xlink:href="#DejaVuSans-48"/>
       <use x="127.246094" xlink:href="#DejaVuSans-48"/>
      </g>
     </g>
    </g>
    <g id="xtick_13">
     <g id="line2d_23">
      <g>
       <use style="stroke:#000000;stroke-width:0.8;" x="1025.264132" xlink:href="#mec8be47520" y="629.9064"/>
      </g>
     </g>
     <g id="text_20">
      <!-- 400 -->
      <g transform="translate(1015.720382 644.504838)scale(0.1 -0.1)">
       <use xlink:href="#DejaVuSans-52"/>
       <use x="63.623047" xlink:href="#DejaVuSans-48"/>
       <use x="127.246094" xlink:href="#DejaVuSans-48"/>
      </g>
     </g>
    </g>
    <g id="xtick_14">
     <g id="line2d_24">
      <g>
       <use style="stroke:#000000;stroke-width:0.8;" x="1086.751736" xlink:href="#mec8be47520" y="629.9064"/>
      </g>
     </g>
     <g id="text_21">
      <!-- 500 -->
      <g transform="translate(1077.207986 644.504838)scale(0.1 -0.1)">
       <use xlink:href="#DejaVuSans-53"/>
       <use x="63.623047" xlink:href="#DejaVuSans-48"/>
       <use x="127.246094" xlink:href="#DejaVuSans-48"/>
      </g>
     </g>
    </g>
    <g id="xtick_15">
     <g id="line2d_25">
      <g>
       <use style="stroke:#000000;stroke-width:0.8;" x="1148.239339" xlink:href="#mec8be47520" y="629.9064"/>
      </g>
     </g>
     <g id="text_22">
      <!-- 600 -->
      <g transform="translate(1138.695589 644.504838)scale(0.1 -0.1)">
       <use xlink:href="#DejaVuSans-54"/>
       <use x="63.623047" xlink:href="#DejaVuSans-48"/>
       <use x="127.246094" xlink:href="#DejaVuSans-48"/>
      </g>
     </g>
    </g>
    <g id="xtick_16">
     <g id="line2d_26">
      <g>
       <use style="stroke:#000000;stroke-width:0.8;" x="1209.726942" xlink:href="#mec8be47520" y="629.9064"/>
      </g>
     </g>
     <g id="text_23">
      <!-- 700 -->
      <g transform="translate(1200.183192 644.504838)scale(0.1 -0.1)">
       <use xlink:href="#DejaVuSans-55"/>
       <use x="63.623047" xlink:href="#DejaVuSans-48"/>
       <use x="127.246094" xlink:href="#DejaVuSans-48"/>
      </g>
     </g>
    </g>
   </g>
   <g id="matplotlib.axis_4">
    <g id="ytick_7">
     <g id="line2d_27">
      <g>
       <use style="stroke:#000000;stroke-width:0.8;" x="757.178182" xlink:href="#ma32692448e" y="586.730238"/>
      </g>
     </g>
     <g id="text_24">
      <!-- −2.0 -->
      <g transform="translate(725.895369 590.529457)scale(0.1 -0.1)">
       <use xlink:href="#DejaVuSans-8722"/>
       <use x="83.789062" xlink:href="#DejaVuSans-50"/>
       <use x="147.412109" xlink:href="#DejaVuSans-46"/>
       <use x="179.199219" xlink:href="#DejaVuSans-48"/>
      </g>
     </g>
    </g>
    <g id="ytick_8">
     <g id="line2d_28">
      <g>
       <use style="stroke:#000000;stroke-width:0.8;" x="757.178182" xlink:href="#ma32692448e" y="520.781546"/>
      </g>
     </g>
     <g id="text_25">
      <!-- −1.5 -->
      <g transform="translate(725.895369 524.580765)scale(0.1 -0.1)">
       <use xlink:href="#DejaVuSans-8722"/>
       <use x="83.789062" xlink:href="#DejaVuSans-49"/>
       <use x="147.412109" xlink:href="#DejaVuSans-46"/>
       <use x="179.199219" xlink:href="#DejaVuSans-53"/>
      </g>
     </g>
    </g>
    <g id="ytick_9">
     <g id="line2d_29">
      <g>
       <use style="stroke:#000000;stroke-width:0.8;" x="757.178182" xlink:href="#ma32692448e" y="454.832853"/>
      </g>
     </g>
     <g id="text_26">
      <!-- −1.0 -->
      <g transform="translate(725.895369 458.632072)scale(0.1 -0.1)">
       <use xlink:href="#DejaVuSans-8722"/>
       <use x="83.789062" xlink:href="#DejaVuSans-49"/>
       <use x="147.412109" xlink:href="#DejaVuSans-46"/>
       <use x="179.199219" xlink:href="#DejaVuSans-48"/>
      </g>
     </g>
    </g>
    <g id="ytick_10">
     <g id="line2d_30">
      <g>
       <use style="stroke:#000000;stroke-width:0.8;" x="757.178182" xlink:href="#ma32692448e" y="388.884161"/>
      </g>
     </g>
     <g id="text_27">
      <!-- −0.5 -->
      <g transform="translate(725.895369 392.68338)scale(0.1 -0.1)">
       <use xlink:href="#DejaVuSans-8722"/>
       <use x="83.789062" xlink:href="#DejaVuSans-48"/>
       <use x="147.412109" xlink:href="#DejaVuSans-46"/>
       <use x="179.199219" xlink:href="#DejaVuSans-53"/>
      </g>
     </g>
    </g>
    <g id="ytick_11">
     <g id="line2d_31">
      <g>
       <use style="stroke:#000000;stroke-width:0.8;" x="757.178182" xlink:href="#ma32692448e" y="322.935468"/>
      </g>
     </g>
     <g id="text_28">
      <!-- 0.0 -->
      <g transform="translate(734.275057 326.734687)scale(0.1 -0.1)">
       <use xlink:href="#DejaVuSans-48"/>
       <use x="63.623047" xlink:href="#DejaVuSans-46"/>
       <use x="95.410156" xlink:href="#DejaVuSans-48"/>
      </g>
     </g>
    </g>
    <g id="ytick_12">
     <g id="line2d_32">
      <g>
       <use style="stroke:#000000;stroke-width:0.8;" x="757.178182" xlink:href="#ma32692448e" y="256.986776"/>
      </g>
     </g>
     <g id="text_29">
      <!-- 0.5 -->
      <g transform="translate(734.275057 260.785995)scale(0.1 -0.1)">
       <use xlink:href="#DejaVuSans-48"/>
       <use x="63.623047" xlink:href="#DejaVuSans-46"/>
       <use x="95.410156" xlink:href="#DejaVuSans-53"/>
      </g>
     </g>
    </g>
    <g id="ytick_13">
     <g id="line2d_33">
      <g>
       <use style="stroke:#000000;stroke-width:0.8;" x="757.178182" xlink:href="#ma32692448e" y="191.038083"/>
      </g>
     </g>
     <g id="text_30">
      <!-- 1.0 -->
      <g transform="translate(734.275057 194.837302)scale(0.1 -0.1)">
       <use xlink:href="#DejaVuSans-49"/>
       <use x="63.623047" xlink:href="#DejaVuSans-46"/>
       <use x="95.410156" xlink:href="#DejaVuSans-48"/>
      </g>
     </g>
    </g>
    <g id="ytick_14">
     <g id="line2d_34">
      <g>
       <use style="stroke:#000000;stroke-width:0.8;" x="757.178182" xlink:href="#ma32692448e" y="125.089391"/>
      </g>
     </g>
     <g id="text_31">
      <!-- 1.5 -->
      <g transform="translate(734.275057 128.88861)scale(0.1 -0.1)">
       <use xlink:href="#DejaVuSans-49"/>
       <use x="63.623047" xlink:href="#DejaVuSans-46"/>
       <use x="95.410156" xlink:href="#DejaVuSans-53"/>
      </g>
     </g>
    </g>
   </g>
   <g id="line2d_35">
    <path clip-path="url(#p3e0373da8c)" d="M 779.313719 321.259472 
L 779.928595 322.888374 
L 780.543471 322.835702 
L 781.158347 321.096379 
L 782.388099 324.23145 
L 783.002975 322.955868 
L 783.617851 323.426706 
L 784.232727 325.430144 
L 785.462479 323.235285 
L 786.077355 324.617918 
L 786.692231 324.078357 
L 787.307107 322.135906 
L 787.921983 323.003248 
L 788.53686 323.647804 
L 789.151736 322.045029 
L 789.766612 322.4825 
L 790.381488 324.07876 
L 790.996364 323.087762 
L 791.61124 322.607991 
L 792.226116 324.110055 
L 792.840992 323.553221 
L 793.455868 322.059194 
L 794.070744 322.87155 
L 794.68562 322.969938 
L 795.300496 321.279085 
L 795.915372 321.566052 
L 796.530248 322.57178 
L 797.145124 321.521616 
L 797.76 321.390241 
L 798.374876 322.86634 
L 798.989752 322.554576 
L 799.604628 321.822073 
L 800.219504 322.964605 
L 800.83438 323.138991 
L 801.449256 321.9597 
L 802.064132 322.42684 
L 802.679008 323.059568 
L 803.293884 322.028164 
L 803.90876 322.012744 
L 804.523636 323.094307 
L 805.753388 322.329589 
L 806.368264 323.502512 
L 806.98314 323.614815 
L 807.598017 322.938694 
L 808.212893 323.715911 
L 808.827769 324.114091 
L 809.442645 323.192219 
L 810.057521 323.395336 
L 810.672397 323.988541 
L 811.287273 323.165469 
L 811.902149 322.96245 
L 812.517025 323.757671 
L 813.746777 322.882681 
L 814.361653 323.719737 
L 814.976529 323.66414 
L 815.591405 323.003501 
L 816.206281 323.596996 
L 816.821157 323.765675 
L 817.436033 322.930566 
L 818.665785 323.499537 
L 819.280661 322.69977 
L 819.895537 322.667993 
L 820.510413 323.212252 
L 821.125289 322.661792 
L 821.740165 322.488218 
L 822.355041 323.17441 
L 823.584793 322.56799 
L 824.199669 323.228639 
L 824.814545 323.109912 
L 825.429421 322.634062 
L 826.044298 323.140315 
L 826.659174 323.146156 
L 827.27405 322.597189 
L 827.888926 322.970706 
L 828.503802 323.128704 
L 829.118678 322.621184 
L 830.34843 323.221322 
L 830.963306 322.787587 
L 831.578182 322.993666 
L 832.193058 323.358914 
L 832.807934 322.955109 
L 833.42281 323.028297 
L 834.037686 323.375864 
L 834.652562 322.979867 
L 835.267438 322.932758 
L 835.882314 323.253935 
L 836.49719 322.905096 
L 837.112066 322.804318 
L 837.726942 323.145418 
L 838.341818 322.868446 
L 838.956694 322.765176 
L 839.57157 323.127852 
L 840.801322 322.798818 
L 841.416198 323.14442 
L 842.64595 322.806739 
L 843.260826 323.111039 
L 844.490579 322.778268 
L 845.105455 323.058491 
L 846.335207 322.787038 
L 846.950083 323.068662 
L 848.179835 322.881534 
L 848.794711 323.164517 
L 849.409587 323.019952 
L 850.024463 323.015603 
L 850.639339 323.265573 
L 851.254215 323.088229 
L 851.869091 323.113985 
L 852.483967 323.307717 
L 853.098843 323.099254 
L 854.328595 323.300272 
L 854.943471 323.092107 
L 856.173223 323.295717 
L 856.788099 323.10786 
L 857.402975 323.274707 
L 858.017851 323.292202 
L 858.632727 323.138903 
L 859.247603 323.322612 
L 860.477355 323.144637 
L 861.092231 323.308698 
L 862.321983 323.1181 
L 862.93686 323.233923 
L 863.551736 323.045755 
L 864.781488 323.141911 
L 865.396364 322.968554 
L 866.01124 323.084528 
L 869.08562 322.944046 
L 869.700496 323.049311 
L 870.315372 322.904667 
L 871.545124 322.988043 
L 872.16 322.858541 
L 872.774876 322.966123 
L 874.004628 322.866027 
L 874.619504 322.985601 
L 875.23438 322.89398 
L 878.30876 322.993906 
L 878.923636 322.936062 
L 879.538512 323.043598 
L 880.768264 322.986521 
L 881.38314 323.055962 
L 881.998017 322.969626 
L 883.227769 323.045562 
L 883.842645 322.991255 
L 884.457521 323.081263 
L 885.687273 323.033418 
L 886.302149 323.094624 
L 886.917025 323.021271 
L 888.146777 323.07508 
L 888.761653 323.017852 
L 889.991405 323.035369 
L 895.525289 322.964965 
L 896.755041 322.954803 
L 902.903802 322.936677 
L 905.363306 322.892102 
L 907.82281 322.925163 
L 912.126942 322.899995 
L 916.431074 322.927352 
L 921.350083 322.902813 
L 939.796364 322.859844 
L 944.715372 322.902855 
L 950.864132 322.957869 
L 966.236033 322.972413 
L 1032.027769 323.086229 
L 1040.636033 323.302576 
L 1042.480661 323.383047 
L 1043.095537 323.844728 
L 1043.710413 323.630688 
L 1044.325289 323.574195 
L 1044.940165 323.742935 
L 1045.555041 323.406401 
L 1046.169917 322.88705 
L 1046.784793 323.372924 
L 1047.399669 323.438496 
L 1048.014545 322.648267 
L 1048.629421 322.97231 
L 1049.244298 323.658323 
L 1049.859174 322.997358 
L 1050.47405 322.738339 
L 1051.088926 323.610192 
L 1051.703802 323.597108 
L 1052.318678 322.907804 
L 1053.54843 323.885859 
L 1054.163306 323.235049 
L 1054.778182 323.005472 
L 1055.393058 323.669876 
L 1056.007934 323.470253 
L 1056.62281 322.786524 
L 1057.852562 323.471078 
L 1058.467438 322.831366 
L 1059.082314 322.710907 
L 1059.69719 323.289224 
L 1060.312066 323.043317 
L 1060.926942 322.576367 
L 1061.541818 323.042211 
L 1062.156694 323.237348 
L 1062.77157 322.69526 
L 1063.386446 322.853763 
L 1064.001322 323.314253 
L 1064.616198 322.942593 
L 1065.231074 322.786109 
L 1065.84595 323.312005 
L 1066.460826 323.195933 
L 1067.075702 322.837508 
L 1067.690579 323.277196 
L 1068.305455 323.395725 
L 1068.920331 322.959962 
L 1070.150083 323.524385 
L 1070.764959 323.091297 
L 1071.379835 323.23429 
L 1071.994711 323.574149 
L 1072.609587 323.158787 
L 1073.224463 323.197124 
L 1073.839339 323.531015 
L 1074.454215 323.113494 
L 1075.069091 323.090047 
L 1075.683967 323.375033 
L 1076.298843 322.938747 
L 1076.913719 322.884738 
L 1077.528595 323.108872 
L 1078.143471 322.659275 
L 1078.758347 322.598004 
L 1079.373223 322.780488 
L 1079.988099 322.363979 
L 1080.602975 322.312531 
L 1081.217851 322.516863 
L 1081.832727 322.196256 
L 1082.447603 322.175172 
L 1083.062479 322.463054 
L 1083.677355 322.296088 
L 1084.292231 322.293453 
L 1084.907107 322.660273 
L 1086.13686 322.590689 
L 1086.751736 323.522404 
L 1087.366612 322.746697 
L 1087.981488 322.435806 
L 1088.596364 323.310694 
L 1089.21124 322.88 
L 1089.826116 321.945544 
L 1090.440992 322.497396 
L 1091.055868 322.710109 
L 1091.670744 321.79878 
L 1092.28562 321.988889 
L 1092.900496 322.760321 
L 1093.515372 324.582303 
L 1094.130248 322.047924 
L 1094.745124 321.896618 
L 1095.36 325.015696 
L 1096.589752 321.484284 
L 1097.204628 323.44385 
L 1097.819504 323.320501 
L 1098.43438 321.068785 
L 1099.664132 323.699384 
L 1100.279008 321.983864 
L 1100.893884 322.609429 
L 1101.50876 324.335178 
L 1102.123636 323.893086 
L 1102.738512 323.008457 
L 1103.353388 324.084618 
L 1103.968264 324.432184 
L 1104.58314 322.791721 
L 1105.198017 322.381536 
L 1105.812893 323.311064 
L 1106.427769 322.555333 
L 1107.042645 321.344008 
L 1107.657521 322.293616 
L 1108.272397 322.834779 
L 1108.887273 321.698766 
L 1109.502149 321.989679 
L 1110.117025 323.025379 
L 1110.731901 322.532791 
L 1111.346777 321.801533 
L 1111.961653 322.592452 
L 1112.576529 322.859393 
L 1113.191405 321.847632 
L 1113.806281 321.871926 
L 1114.421157 322.765687 
L 1115.036033 322.44409 
L 1115.650909 321.853249 
L 1116.880661 323.233583 
L 1117.495537 322.614635 
L 1118.110413 322.47891 
L 1118.725289 323.3194 
L 1119.955041 312.663906 
L 1120.569917 316.091721 
L 1121.184793 327.646171 
L 1121.799669 342.814346 
L 1122.414545 345.624988 
L 1123.029421 334.637903 
L 1123.644298 335.095185 
L 1124.259174 337.719426 
L 1125.488926 313.856887 
L 1126.103802 324.155159 
L 1126.718678 327.283895 
L 1127.333554 313.358735 
L 1127.94843 336.547716 
L 1128.563306 283.791041 
L 1129.178182 341.901341 
L 1129.793058 279.890789 
L 1130.407934 317.201033 
L 1131.02281 342.120845 
L 1131.637686 287.794059 
L 1132.252562 311.857643 
L 1132.867438 346.345498 
L 1133.482314 313.693205 
L 1134.09719 322.359631 
L 1134.712066 320.252168 
L 1135.326942 330.03216 
L 1135.941818 272.981693 
L 1136.556694 327.395886 
L 1137.17157 347.549087 
L 1137.786446 272.950199 
L 1138.401322 293.101101 
L 1139.631074 358.304324 
L 1140.24595 338.161126 
L 1140.860826 326.039338 
L 1141.475702 310.507201 
L 1142.705455 265.653523 
L 1143.935207 303.140258 
L 1144.550083 331.091058 
L 1145.164959 283.986962 
L 1145.779835 352.153851 
L 1147.009587 286.068797 
L 1147.624463 309.105403 
L 1148.239339 326.652535 
L 1148.854215 286.670891 
L 1149.469091 349.309308 
L 1150.083967 295.445314 
L 1150.698843 277.02252 
L 1151.313719 319.654136 
L 1151.928595 337.022298 
L 1152.543471 314.26596 
L 1153.158347 307.374515 
L 1153.773223 318.83149 
L 1154.388099 313.550171 
L 1155.002975 314.023004 
L 1155.617851 303.286008 
L 1156.232727 301.321762 
L 1156.847603 310.927285 
L 1157.462479 313.097947 
L 1158.077355 302.111845 
L 1158.692231 306.98798 
L 1159.307107 315.844706 
L 1159.921983 291.767688 
L 1160.53686 328.858067 
L 1161.151736 298.232203 
L 1161.766612 328.377815 
L 1162.381488 290.914444 
L 1162.996364 311.487208 
L 1163.61124 282.701603 
L 1164.226116 293.783384 
L 1164.840992 320.987491 
L 1165.455868 297.378198 
L 1166.070744 329.265992 
L 1166.68562 285.872706 
L 1167.300496 316.778808 
L 1167.915372 290.046326 
L 1168.530248 318.527576 
L 1169.145124 294.14964 
L 1169.76 299.55912 
L 1170.374876 330.0443 
L 1170.989752 286.613968 
L 1171.604628 309.249097 
L 1172.219504 326.312155 
L 1172.83438 301.31937 
L 1173.449256 310.755881 
L 1174.064132 326.607798 
L 1174.679008 312.032991 
L 1175.293884 327.626112 
L 1175.90876 312.487539 
L 1176.523636 325.935251 
L 1177.138512 309.385484 
L 1177.753388 323.8212 
L 1178.368264 308.167469 
L 1178.98314 323.022764 
L 1179.598017 302.405705 
L 1180.212893 321.429652 
L 1180.827769 290.584798 
L 1181.442645 317.2767 
L 1182.057521 268.339507 
L 1182.672397 319.644747 
L 1183.287273 279.76928 
L 1183.902149 330.525777 
L 1184.517025 279.733367 
L 1185.131901 325.956934 
L 1185.746777 272.430799 
L 1186.361653 320.958741 
L 1186.976529 286.805146 
L 1187.591405 337.655612 
L 1188.206281 283.328085 
L 1188.821157 292.335445 
L 1189.436033 327.456321 
L 1190.050909 284.402011 
L 1190.665785 327.739954 
L 1191.280661 274.654686 
L 1191.895537 322.720052 
L 1192.510413 277.482285 
L 1193.125289 332.729021 
L 1193.740165 288.473239 
L 1194.355041 335.690214 
L 1194.969917 276.069161 
L 1195.584793 339.472661 
L 1196.199669 274.416982 
L 1196.814545 310.878194 
L 1197.429421 325.095708 
L 1198.044298 290.994002 
L 1198.659174 307.945944 
L 1199.27405 328.479263 
L 1199.888926 280.60022 
L 1200.503802 349.145206 
L 1201.118678 278.411135 
L 1201.733554 310.378701 
L 1202.34843 325.486382 
L 1202.963306 283.554899 
L 1203.578182 347.203879 
L 1204.193058 289.318334 
L 1204.807934 316.688582 
L 1205.42281 251.687551 
L 1206.037686 308.034873 
L 1206.652562 353.555721 
L 1207.267438 283.67966 
L 1207.882314 294.890929 
L 1208.49719 350.67947 
L 1209.112066 305.725084 
L 1209.726942 292.55443 
L 1210.341818 356.193477 
L 1210.956694 300.920812 
L 1211.57157 329.380864 
L 1212.186446 282.110449 
L 1212.801322 345.391192 
L 1213.416198 330.81274 
L 1214.031074 298.007889 
L 1214.64595 341.617459 
L 1215.260826 313.152947 
L 1215.875702 359.64395 
L 1216.490579 303.390336 
L 1217.105455 328.229964 
L 1217.720331 340.295995 
L 1218.335207 316.843323 
L 1218.950083 354.400139 
L 1219.564959 320.100334 
L 1220.179835 356.940051 
L 1220.794711 328.207447 
L 1221.409587 364.85882 
L 1221.409587 364.85882 
" style="fill:none;stroke:#ff796c;stroke-linecap:square;stroke-width:1.5;"/>
   </g>
   <g id="line2d_36">
    <path clip-path="url(#p3e0373da8c)" d="M 779.313719 322.935468 
L 779.928595 322.896193 
L 781.773223 325.235872 
L 783.002975 328.311572 
L 784.232727 329.586351 
L 784.847603 329.737702 
L 785.462479 328.64101 
L 786.692231 325.112649 
L 788.53686 317.899908 
L 789.766612 314.025405 
L 790.381488 312.642245 
L 790.996364 311.566249 
L 795.300496 301.52615 
L 795.915372 300.581971 
L 796.530248 300.491757 
L 797.145124 301.063608 
L 797.76 301.847141 
L 798.374876 303.218193 
L 801.449256 312.612682 
L 802.679008 316.050973 
L 805.753388 325.818626 
L 807.598017 331.290051 
L 808.827769 333.375018 
L 809.442645 333.886707 
L 810.057521 333.874457 
L 810.672397 333.719914 
L 811.287273 333.380026 
L 813.746777 330.528532 
L 815.591405 327.914894 
L 817.436033 324.49505 
L 818.665785 321.865091 
L 820.510413 318.506132 
L 821.740165 317.132212 
L 822.355041 316.697362 
L 824.199669 316.204598 
L 825.429421 316.203772 
L 826.044298 316.113409 
L 827.27405 316.128705 
L 827.888926 316.049526 
L 830.34843 316.400468 
L 831.578182 316.644837 
L 832.807934 316.883223 
L 834.652562 316.696839 
L 837.112066 315.900589 
L 838.341818 315.710667 
L 839.57157 315.660009 
L 842.031074 316.260613 
L 843.260826 316.640035 
L 846.335207 318.159873 
L 848.179835 319.433142 
L 850.639339 321.048644 
L 851.254215 321.366312 
L 852.483967 321.708239 
L 853.098843 321.807695 
L 854.943471 321.640793 
L 856.788099 320.9984 
L 858.632727 319.941511 
L 860.477355 318.470578 
L 866.01124 313.317415 
L 867.855868 312.13653 
L 869.700496 311.343084 
L 871.545124 310.928145 
L 872.774876 310.853937 
L 874.619504 311.081145 
L 877.079008 311.829362 
L 881.998017 313.394749 
L 885.072397 313.895774 
L 886.917025 313.946739 
L 889.376529 313.693794 
L 891.836033 313.242714 
L 894.910413 312.671126 
L 897.369917 312.393507 
L 899.214545 312.362346 
L 901.059174 312.523903 
L 903.518678 313.070778 
L 905.363306 313.68619 
L 907.82281 314.703994 
L 913.356694 317.438533 
L 925.039339 323.52571 
L 928.113719 325.533919 
L 930.573223 327.406082 
L 933.647603 330.079779 
L 938.566612 334.755454 
L 942.255868 338.233608 
L 945.330248 340.805092 
L 947.789752 342.577282 
L 950.249256 344.019154 
L 952.70876 345.145817 
L 955.168264 346.005451 
L 957.627769 346.650677 
L 961.317025 347.36379 
L 968.080661 348.445322 
L 971.769917 348.832135 
L 974.844298 348.929502 
L 977.303802 348.754035 
L 980.378182 348.280011 
L 983.452562 347.557218 
L 986.526942 346.546975 
L 990.216198 345.049317 
L 993.290579 343.576331 
L 998.824463 340.613166 
L 1004.358347 337.443188 
L 1009.277355 334.358239 
L 1020.96 326.736914 
L 1024.03438 324.457751 
L 1026.493884 322.403748 
L 1028.953388 320.058735 
L 1031.412893 317.34058 
L 1033.257521 314.993602 
L 1035.102149 312.314375 
L 1036.946777 309.236224 
L 1038.791405 305.670294 
L 1040.636033 301.470853 
L 1042.480661 296.546823 
L 1043.095537 294.740958 
L 1043.710413 294.934421 
L 1044.325289 293.87406 
L 1045.555041 290.929249 
L 1046.784793 287.171364 
L 1048.629421 283.873758 
L 1049.859174 282.690267 
L 1051.088926 280.612045 
L 1051.703802 280.027069 
L 1052.318678 278.973603 
L 1052.933554 277.606351 
L 1054.163306 275.30076 
L 1055.393058 272.51676 
L 1056.007934 271.454952 
L 1057.237686 268.776107 
L 1059.082314 266.236434 
L 1059.69719 265.703294 
L 1060.926942 265.214349 
L 1061.541818 265.002101 
L 1062.77157 265.258879 
L 1063.386446 265.238793 
L 1067.075702 266.255184 
L 1067.690579 266.229469 
L 1068.305455 266.367711 
L 1068.920331 266.358499 
L 1069.535207 266.154193 
L 1070.764959 265.97269 
L 1071.994711 265.314163 
L 1072.609587 265.034293 
L 1073.839339 264.021526 
L 1074.454215 263.612267 
L 1075.683967 262.399286 
L 1076.298843 261.949144 
L 1076.913719 261.29026 
L 1077.528595 260.808854 
L 1078.143471 260.475216 
L 1078.758347 260.007604 
L 1079.373223 259.793843 
L 1080.602975 259.759316 
L 1081.217851 260.048802 
L 1082.447603 261.223156 
L 1083.062479 262.157154 
L 1084.907107 266.137314 
L 1086.751736 271.089656 
L 1087.366612 274.224288 
L 1089.21124 280.02177 
L 1090.440992 282.202873 
L 1092.900496 289.637198 
L 1093.515372 292.354985 
L 1094.130248 297.404788 
L 1094.745124 300.255808 
L 1095.974876 307.633553 
L 1097.204628 307.97893 
L 1097.819504 309.934572 
L 1098.43438 310.455822 
L 1099.049256 310.008178 
L 1100.279008 313.380374 
L 1100.893884 313.311281 
L 1102.123636 316.519887 
L 1102.738512 316.556246 
L 1103.353388 315.828486 
L 1103.968264 315.403993 
L 1104.58314 314.143497 
L 1105.198017 311.870092 
L 1105.812893 310.448425 
L 1106.427769 310.026483 
L 1107.042645 309.336775 
L 1107.657521 309.162387 
L 1108.887273 312.424392 
L 1109.502149 313.414281 
L 1113.191405 327.183908 
L 1113.806281 328.798746 
L 1118.110413 343.929434 
L 1119.340165 347.010572 
L 1119.955041 345.090089 
L 1120.569917 350.553336 
L 1121.184793 362.547419 
L 1121.799669 377.084671 
L 1122.414545 386.702105 
L 1123.029421 386.174818 
L 1123.644298 377.158543 
L 1124.259174 364.790004 
L 1124.87405 347.992544 
L 1126.103802 298.907691 
L 1127.333554 262.198994 
L 1127.94843 237.885006 
L 1128.563306 223.685894 
L 1129.793058 142.453265 
L 1130.407934 142.638461 
L 1131.02281 153.520981 
L 1131.637686 195.545254 
L 1132.252562 157.936375 
L 1132.867438 189.810778 
L 1133.482314 239.353935 
L 1134.09719 216.772413 
L 1134.712066 253.181259 
L 1135.326942 198.399537 
L 1135.941818 237.174323 
L 1136.556694 182.390457 
L 1137.17157 144.628061 
L 1137.786446 159.405651 
L 1142.090579 160.575459 
L 1142.705455 176.507292 
L 1143.320331 158.84008 
L 1144.550083 159.159415 
L 1145.164959 178.176438 
L 1145.779835 123.376081 
L 1146.394711 149.149038 
L 1147.009587 149.302475 
L 1147.624463 184.066824 
L 1148.239339 185.32476 
L 1148.854215 222.796198 
L 1149.469091 170.511614 
L 1150.083967 171.699004 
L 1150.698843 190.087603 
L 1151.313719 242.819829 
L 1151.928595 278.35505 
L 1153.158347 172.358781 
L 1153.773223 177.843838 
L 1154.388099 200.738115 
L 1155.002975 145.920595 
L 1155.617851 146.056777 
L 1156.232727 147.035049 
L 1159.921983 147.826319 
L 1160.53686 165.810246 
L 1161.766612 166.063155 
L 1162.996364 166.086963 
L 1163.61124 166.213021 
L 1164.226116 173.928486 
L 1165.455868 175.969159 
L 1166.070744 202.145184 
L 1166.68562 203.266624 
L 1167.300496 163.138269 
L 1167.915372 163.252794 
L 1168.530248 187.403783 
L 1169.145124 176.678248 
L 1169.76 224.518808 
L 1170.989752 277.77183 
L 1171.604628 222.921961 
L 1172.83438 308.15143 
L 1173.449256 253.297867 
L 1174.679008 351.18984 
L 1175.293884 296.332565 
L 1175.90876 349.388827 
L 1176.523636 294.529067 
L 1177.138512 346.591655 
L 1177.753388 291.729403 
L 1178.368264 344.798886 
L 1178.98314 289.934135 
L 1179.598017 343.351699 
L 1180.212893 288.484442 
L 1180.827769 341.301377 
L 1181.442645 292.850184 
L 1182.057521 335.621489 
L 1182.672397 280.749199 
L 1183.287273 311.304803 
L 1183.902149 256.429987 
L 1184.517025 298.048704 
L 1185.131901 243.171355 
L 1185.746777 293.100401 
L 1186.361653 238.509491 
L 1186.976529 282.569122 
L 1187.591405 227.686691 
L 1188.206281 275.402705 
L 1188.821157 220.517723 
L 1190.050909 319.038532 
L 1190.665785 264.149715 
L 1191.280661 315.192481 
L 1191.895537 260.3011 
L 1192.510413 309.572077 
L 1193.125289 254.678127 
L 1193.740165 304.900953 
L 1194.355041 250.48762 
L 1194.969917 299.98221 
L 1195.584793 245.083109 
L 1196.199669 300.097205 
L 1196.814545 245.195522 
L 1197.429421 298.307221 
L 1198.044298 330.294397 
L 1198.659174 275.388832 
L 1199.888926 379.1049 
L 1200.503802 324.37726 
L 1201.118678 379.380994 
L 1201.733554 324.46894 
L 1202.963306 426.613001 
L 1203.578182 371.762992 
L 1204.193058 420.75354 
L 1204.807934 365.834977 
L 1205.42281 413.050966 
L 1206.037686 358.129794 
L 1206.652562 399.595111 
L 1207.267438 454.405141 
L 1207.882314 399.480049 
L 1209.112066 506.928573 
L 1209.726942 451.999556 
L 1210.956694 558.758441 
L 1211.57157 503.825495 
L 1212.186446 556.192078 
L 1212.801322 501.25651 
L 1213.416198 553.546162 
L 1214.031074 498.607971 
L 1215.260826 605.1348 
L 1215.875702 550.19267 
L 1216.490579 603.383121 
L 1217.105455 548.60613 
L 1217.720331 601.171671 
L 1218.950083 491.834474 
L 1219.564959 546.798949 
L 1220.179835 491.847622 
L 1220.794711 546.809467 
L 1221.409587 491.952964 
L 1222.024463 546.861629 
L 1222.024463 546.861629 
" style="fill:none;stroke:#e50000;stroke-linecap:square;stroke-width:1.5;"/>
   </g>
   <g id="line2d_37">
    <path clip-path="url(#p3e0373da8c)" d="M 779.313719 253.874159 
L 787.307107 253.985233 
L 795.300496 254.318095 
L 803.293884 254.871677 
L 811.287273 255.644196 
L 819.280661 256.633169 
L 827.27405 257.835413 
L 835.882314 259.364198 
L 844.490579 261.13013 
L 853.098843 263.12662 
L 861.707107 265.346222 
L 870.930248 267.962528 
L 880.153388 270.814237 
L 889.991405 274.101748 
L 899.829421 277.627173 
L 910.282314 281.614388 
L 921.350083 286.083351 
L 933.032727 291.046505 
L 945.945124 296.785499 
L 960.087273 303.320997 
L 977.303802 311.537065 
L 1003.743471 324.442033 
L 1032.027769 338.177122 
L 1048.629421 345.988607 
L 1062.77157 352.394864 
L 1075.069091 357.726759 
L 1086.751736 362.547408 
L 1097.204628 366.630927 
L 1107.657521 370.474137 
L 1117.495537 373.852807 
L 1126.718678 376.795312 
L 1135.941818 379.507181 
L 1145.164959 381.976802 
L 1153.773223 384.053873 
L 1162.381488 385.902949 
L 1170.989752 387.51713 
L 1178.98314 388.80041 
L 1186.976529 389.871824 
L 1194.969917 390.727927 
L 1202.963306 391.365965 
L 1210.956694 391.783885 
L 1218.950083 391.980343 
L 1221.409587 391.99612 
L 1221.409587 391.99612 
" style="fill:none;stroke:#014d4e;stroke-linecap:square;stroke-width:1.5;"/>
   </g>
   <g id="line2d_38">
    <path clip-path="url(#p3e0373da8c)" d="M 779.313719 253.913434 
L 781.158347 251.579672 
L 782.388099 248.514491 
L 783.617851 247.255487 
L 784.232727 247.113996 
L 784.847603 248.221862 
L 786.077355 251.77651 
L 787.921983 259.038533 
L 789.151736 262.952452 
L 789.766612 264.357288 
L 790.381488 265.456271 
L 794.68562 275.693954 
L 795.300496 276.671592 
L 795.915372 276.796572 
L 796.530248 276.260792 
L 797.145124 275.514635 
L 797.76 274.182264 
L 800.83438 265.000715 
L 802.064132 261.656703 
L 805.138512 252.147439 
L 806.98314 246.84657 
L 808.212893 244.881757 
L 808.827769 244.432075 
L 809.442645 244.507621 
L 810.057521 244.726743 
L 810.672397 245.132494 
L 813.131901 248.26025 
L 814.976529 251.0945 
L 816.821157 254.746411 
L 818.050909 257.537427 
L 819.895537 261.147458 
L 821.125289 262.695067 
L 821.740165 263.218647 
L 823.584793 263.98513 
L 824.814545 264.174691 
L 825.429421 264.361294 
L 826.659174 264.542208 
L 827.27405 264.721356 
L 829.733554 264.782661 
L 830.963306 264.751813 
L 832.193058 264.731858 
L 834.037686 265.255059 
L 836.49719 266.517424 
L 837.726942 266.94766 
L 838.956694 267.243447 
L 842.031074 267.100469 
L 843.260826 266.874538 
L 844.490579 266.619321 
L 846.950083 265.601383 
L 850.024463 264.274395 
L 850.639339 264.102243 
L 851.869091 264.054794 
L 852.483967 264.104295 
L 854.328595 264.724906 
L 856.173223 265.831203 
L 858.017851 267.362114 
L 859.862479 269.317104 
L 865.396364 275.98181 
L 867.240992 277.686045 
L 869.08562 279.012446 
L 870.930248 279.969851 
L 872.774876 280.544569 
L 874.004628 280.741848 
L 876.464132 280.752171 
L 881.38314 280.752325 
L 883.842645 281.133552 
L 885.687273 281.625762 
L 887.531901 282.329871 
L 889.991405 283.556246 
L 895.525289 286.492062 
L 898.599669 287.747183 
L 901.059174 288.385895 
L 902.903802 288.639664 
L 904.74843 288.723057 
L 907.207934 288.648556 
L 913.356694 288.012246 
L 924.424463 286.776023 
L 927.498843 286.067656 
L 929.958347 285.247141 
L 933.032727 283.902194 
L 937.951736 281.383823 
L 941.026116 279.827263 
L 943.48562 278.790274 
L 945.945124 277.991838 
L 947.789752 277.5918 
L 949.63438 277.38398 
L 951.479008 277.360995 
L 953.938512 277.572977 
L 956.398017 278.024165 
L 959.472397 278.824865 
L 966.236033 280.887109 
L 970.540165 282.436231 
L 973.614545 283.758304 
L 976.07405 285.059236 
L 979.14843 286.972624 
L 982.22281 289.132146 
L 985.29719 291.582983 
L 988.986446 294.837836 
L 992.675702 298.379328 
L 998.824463 304.692365 
L 1004.973223 311.283626 
L 1012.351736 319.604839 
L 1021.574876 330.225475 
L 1024.649256 334.104499 
L 1027.723636 338.371338 
L 1030.18314 342.169391 
L 1032.642645 346.41275 
L 1034.487273 349.971461 
L 1036.331901 353.926284 
L 1038.176529 358.365923 
L 1040.021157 363.43596 
L 1041.865785 369.227325 
L 1042.480661 371.321552 
L 1043.095537 371.416065 
L 1043.710413 372.764013 
L 1044.940165 376.282806 
L 1046.169917 380.613048 
L 1048.629421 385.644131 
L 1049.244298 386.517641 
L 1050.47405 389.162189 
L 1051.088926 390.029648 
L 1051.703802 391.365137 
L 1052.933554 394.387432 
L 1054.163306 397.617193 
L 1056.62281 403.801596 
L 1058.467438 407.172636 
L 1059.082314 407.981857 
L 1060.926942 409.508094 
L 1062.156694 409.798628 
L 1062.77157 410.091539 
L 1066.460826 410.70014 
L 1067.075702 410.994646 
L 1067.690579 411.124598 
L 1068.305455 411.401402 
L 1068.920331 411.872692 
L 1070.150083 412.586323 
L 1071.379835 413.774488 
L 1071.994711 414.318231 
L 1073.224463 415.856827 
L 1073.839339 416.528031 
L 1075.069091 418.262941 
L 1075.683967 418.973056 
L 1076.913719 420.631287 
L 1078.758347 422.418116 
L 1079.988099 422.963738 
L 1080.602975 422.928749 
L 1081.832727 422.261266 
L 1082.447603 421.579631 
L 1083.677355 419.582013 
L 1084.292231 418.352217 
L 1086.13686 414.146004 
L 1086.751736 411.258588 
L 1088.596364 406.198214 
L 1089.21124 405.246154 
L 1089.826116 404.504683 
L 1091.055868 401.378274 
L 1091.670744 400.110614 
L 1092.28562 398.036134 
L 1092.900496 395.557813 
L 1093.515372 390.746676 
L 1094.130248 388.133517 
L 1094.745124 384.990194 
L 1095.36 381.22906 
L 1096.589752 381.353697 
L 1097.204628 379.631823 
L 1097.819504 379.34351 
L 1098.43438 380.023253 
L 1099.664132 377.112731 
L 1100.279008 377.411388 
L 1101.50876 374.659345 
L 1102.123636 374.849976 
L 1102.738512 375.803858 
L 1103.353388 376.453603 
L 1103.968264 377.938475 
L 1104.58314 380.435377 
L 1105.198017 382.079656 
L 1105.812893 382.723322 
L 1106.427769 383.633861 
L 1107.042645 384.028184 
L 1108.272397 381.203342 
L 1108.887273 380.430673 
L 1112.576529 367.945038 
L 1113.191405 366.540941 
L 1113.806281 364.531534 
L 1114.421157 362.10874 
L 1115.650909 358.482311 
L 1116.880661 354.133791 
L 1118.725289 350.18292 
L 1119.340165 352.304547 
L 1119.955041 347.041464 
L 1120.569917 335.246559 
L 1121.184793 320.907498 
L 1121.799669 311.487262 
L 1122.414545 312.210751 
L 1123.029421 321.422227 
L 1123.644298 333.984965 
L 1124.259174 350.975616 
L 1125.488926 400.443815 
L 1126.718678 437.531786 
L 1127.333554 462.033875 
L 1127.94843 476.420058 
L 1129.178182 558.023729 
L 1129.793058 558.022496 
L 1130.407934 547.322896 
L 1131.02281 505.480497 
L 1131.637686 543.270199 
L 1132.252562 511.575567 
L 1132.867438 462.211122 
L 1133.482314 484.970297 
L 1134.09719 448.73804 
L 1134.712066 503.695283 
L 1135.326942 465.094949 
L 1135.941818 520.052193 
L 1136.556694 557.986889 
L 1137.17157 543.380519 
L 1141.475702 543.378733 
L 1142.090579 527.609362 
L 1142.705455 545.437928 
L 1143.935207 545.437959 
L 1144.550083 526.578945 
L 1145.164959 581.536189 
L 1145.779835 555.918995 
L 1146.394711 555.920193 
L 1147.009587 521.309351 
L 1147.624463 520.203788 
L 1148.239339 482.883588 
L 1148.854215 535.31827 
L 1149.469091 534.279837 
L 1150.083967 516.03905 
L 1150.698843 463.45349 
L 1151.313719 428.063784 
L 1152.543471 534.347624 
L 1153.158347 529.004615 
L 1153.773223 506.251227 
L 1154.388099 561.208471 
L 1155.002975 561.210847 
L 1155.617851 560.369965 
L 1159.307107 560.378339 
L 1159.921983 542.523548 
L 1161.151736 542.525338 
L 1162.381488 542.751455 
L 1162.996364 542.748561 
L 1163.61124 535.15506 
L 1164.840992 533.354702 
L 1165.455868 507.297023 
L 1166.070744 506.292719 
L 1166.68562 546.536998 
L 1167.300496 546.537182 
L 1167.915372 522.499685 
L 1168.530248 533.337493 
L 1169.145124 485.607984 
L 1170.374876 432.573394 
L 1170.989752 487.530637 
L 1172.219504 402.512229 
L 1172.83438 457.469473 
L 1174.064132 359.781152 
L 1174.679008 414.738396 
L 1175.293884 361.780861 
L 1175.90876 416.738105 
L 1176.523636 364.771755 
L 1177.138512 419.728999 
L 1177.753388 366.753259 
L 1178.368264 421.710503 
L 1178.98314 368.384179 
L 1179.598017 423.341423 
L 1180.212893 370.613218 
L 1180.827769 419.151884 
L 1181.442645 376.466794 
L 1182.057521 431.424038 
L 1182.672397 400.952125 
L 1183.287273 455.909368 
L 1183.902149 414.371813 
L 1184.517025 469.329057 
L 1185.131901 419.478638 
L 1185.746777 474.146904 
L 1186.361653 430.163358 
L 1186.976529 485.120602 
L 1187.591405 437.478125 
L 1188.206281 492.435368 
L 1189.436033 394.055251 
L 1190.050909 449.012494 
L 1190.665785 398.036874 
L 1191.280661 452.994117 
L 1191.895537 403.78772 
L 1192.510413 458.744964 
L 1193.125289 408.584146 
L 1193.740165 463.0582 
L 1194.355041 413.623042 
L 1194.969917 468.580286 
L 1195.584793 413.623042 
L 1196.199669 468.580286 
L 1196.814545 415.522855 
L 1197.429421 383.588653 
L 1198.044298 438.545896 
L 1199.27405 334.929299 
L 1199.888926 389.704727 
L 1200.503802 334.747483 
L 1201.118678 389.704727 
L 1202.34843 287.647145 
L 1202.963306 342.538441 
L 1203.578182 293.587877 
L 1204.193058 348.545121 
L 1204.807934 301.366507 
L 1205.42281 356.323751 
L 1206.037686 314.893199 
L 1206.652562 260.116628 
L 1207.267438 315.073872 
L 1208.49719 207.685729 
L 1209.112066 262.642973 
L 1210.341818 155.936615 
L 1210.956694 210.893858 
L 1211.57157 158.550262 
L 1212.186446 213.507506 
L 1212.801322 161.238219 
L 1213.416198 216.195462 
L 1214.64595 109.7028 
L 1215.260826 164.660044 
L 1215.875702 111.483394 
L 1216.490579 166.272872 
L 1217.105455 113.718505 
L 1218.335207 223.074106 
L 1218.950083 168.116862 
L 1219.564959 223.074106 
L 1220.179835 168.116862 
L 1220.794711 222.976653 
L 1221.409587 168.06996 
L 1221.409587 168.06996 
" style="fill:none;stroke:#ffff14;stroke-linecap:square;stroke-width:1.5;"/>
   </g>
   <g id="patch_8">
    <path d="M 757.178182 629.9064 
L 757.178182 84.9312 
" style="fill:none;stroke:#000000;stroke-linecap:square;stroke-linejoin:miter;stroke-width:0.8;"/>
   </g>
   <g id="patch_9">
    <path d="M 1244.16 629.9064 
L 1244.16 84.9312 
" style="fill:none;stroke:#000000;stroke-linecap:square;stroke-linejoin:miter;stroke-width:0.8;"/>
   </g>
   <g id="patch_10">
    <path d="M 757.178182 629.9064 
L 1244.16 629.9064 
" style="fill:none;stroke:#000000;stroke-linecap:square;stroke-linejoin:miter;stroke-width:0.8;"/>
   </g>
   <g id="patch_11">
    <path d="M 757.178182 84.9312 
L 1244.16 84.9312 
" style="fill:none;stroke:#000000;stroke-linecap:square;stroke-linejoin:miter;stroke-width:0.8;"/>
   </g>
   <g id="text_32">
    <!-- Left abduction -->
    <defs>
     <path d="M 9.8125 72.90625 
L 19.671875 72.90625 
L 19.671875 8.296875 
L 55.171875 8.296875 
L 55.171875 0 
L 9.8125 0 
z
" id="DejaVuSans-76"/>
     <path d="M 56.203125 29.59375 
L 56.203125 25.203125 
L 14.890625 25.203125 
Q 15.484375 15.921875 20.484375 11.0625 
Q 25.484375 6.203125 34.421875 6.203125 
Q 39.59375 6.203125 44.453125 7.46875 
Q 49.3125 8.734375 54.109375 11.28125 
L 54.109375 2.78125 
Q 49.265625 0.734375 44.1875 -0.34375 
Q 39.109375 -1.421875 33.890625 -1.421875 
Q 20.796875 -1.421875 13.15625 6.1875 
Q 5.515625 13.8125 5.515625 26.8125 
Q 5.515625 40.234375 12.765625 48.109375 
Q 20.015625 56 32.328125 56 
Q 43.359375 56 49.78125 48.890625 
Q 56.203125 41.796875 56.203125 29.59375 
z
M 47.21875 32.234375 
Q 47.125 39.59375 43.09375 43.984375 
Q 39.0625 48.390625 32.421875 48.390625 
Q 24.90625 48.390625 20.390625 44.140625 
Q 15.875 39.890625 15.1875 32.171875 
z
" id="DejaVuSans-101"/>
     <path d="M 37.109375 75.984375 
L 37.109375 68.5 
L 28.515625 68.5 
Q 23.6875 68.5 21.796875 66.546875 
Q 19.921875 64.59375 19.921875 59.515625 
L 19.921875 54.6875 
L 34.71875 54.6875 
L 34.71875 47.703125 
L 19.921875 47.703125 
L 19.921875 0 
L 10.890625 0 
L 10.890625 47.703125 
L 2.296875 47.703125 
L 2.296875 54.6875 
L 10.890625 54.6875 
L 10.890625 58.5 
Q 10.890625 67.625 15.140625 71.796875 
Q 19.390625 75.984375 28.609375 75.984375 
z
" id="DejaVuSans-102"/>
    </defs>
    <g transform="translate(957.375341 78.9312)scale(0.12 -0.12)">
     <use xlink:href="#DejaVuSans-76"/>
     <use x="55.697266" xlink:href="#DejaVuSans-101"/>
     <use x="117.220703" xlink:href="#DejaVuSans-102"/>
     <use x="152.410156" xlink:href="#DejaVuSans-116"/>
     <use x="191.619141" xlink:href="#DejaVuSans-32"/>
     <use x="223.40625" xlink:href="#DejaVuSans-97"/>
     <use x="284.685547" xlink:href="#DejaVuSans-98"/>
     <use x="348.162109" xlink:href="#DejaVuSans-100"/>
     <use x="411.638672" xlink:href="#DejaVuSans-117"/>
     <use x="475.017578" xlink:href="#DejaVuSans-99"/>
     <use x="529.998047" xlink:href="#DejaVuSans-116"/>
     <use x="569.207031" xlink:href="#DejaVuSans-105"/>
     <use x="596.990234" xlink:href="#DejaVuSans-111"/>
     <use x="658.171875" xlink:href="#DejaVuSans-110"/>
    </g>
   </g>
  </g>
 </g>
 <defs>
  <clipPath id="p410d584441">
   <rect height="544.9752" width="486.981818" x="172.8" y="84.9312"/>
  </clipPath>
  <clipPath id="p3e0373da8c">
   <rect height="544.9752" width="486.981818" x="757.178182" y="84.9312"/>
  </clipPath>
 </defs>
</svg>
