<?xml version="1.0" encoding="utf-8" standalone="no"?>
<!DOCTYPE svg PUBLIC "-//W3C//DTD SVG 1.1//EN"
  "http://www.w3.org/Graphics/SVG/1.1/DTD/svg11.dtd">
<!-- Created with matplotlib (https://matplotlib.org/) -->
<svg height="707.76pt" version="1.1" viewBox="0 0 1382.4 707.76" width="1382.4pt" xmlns="http://www.w3.org/2000/svg" xmlns:xlink="http://www.w3.org/1999/xlink">
 <defs>
  <style type="text/css">
*{stroke-linecap:butt;stroke-linejoin:round;}
  </style>
 </defs>
 <g id="figure_1">
  <g id="patch_1">
   <path d="M 0 707.76 
L 1382.4 707.76 
L 1382.4 0 
L 0 0 
z
" style="fill:#ffffff;"/>
  </g>
  <g id="axes_1">
   <g id="patch_2">
    <path d="M 172.8 629.9064 
L 659.781818 629.9064 
L 659.781818 84.9312 
L 172.8 84.9312 
z
" style="fill:#ffffff;"/>
   </g>
   <g id="matplotlib.axis_1">
    <g id="xtick_1">
     <g id="line2d_1">
      <defs>
       <path d="M 0 0 
L 0 3.5 
" id="m7a676f000c" style="stroke:#000000;stroke-width:0.8;"/>
      </defs>
      <g>
       <use style="stroke:#000000;stroke-width:0.8;" x="194.935537" xlink:href="#m7a676f000c" y="629.9064"/>
      </g>
     </g>
     <g id="text_1">
      <!-- 0 -->
      <defs>
       <path d="M 31.78125 66.40625 
Q 24.171875 66.40625 20.328125 58.90625 
Q 16.5 51.421875 16.5 36.375 
Q 16.5 21.390625 20.328125 13.890625 
Q 24.171875 6.390625 31.78125 6.390625 
Q 39.453125 6.390625 43.28125 13.890625 
Q 47.125 21.390625 47.125 36.375 
Q 47.125 51.421875 43.28125 58.90625 
Q 39.453125 66.40625 31.78125 66.40625 
z
M 31.78125 74.21875 
Q 44.046875 74.21875 50.515625 64.515625 
Q 56.984375 54.828125 56.984375 36.375 
Q 56.984375 17.96875 50.515625 8.265625 
Q 44.046875 -1.421875 31.78125 -1.421875 
Q 19.53125 -1.421875 13.0625 8.265625 
Q 6.59375 17.96875 6.59375 36.375 
Q 6.59375 54.828125 13.0625 64.515625 
Q 19.53125 74.21875 31.78125 74.21875 
z
" id="DejaVuSans-48"/>
      </defs>
      <g transform="translate(191.754287 644.504838)scale(0.1 -0.1)">
       <use xlink:href="#DejaVuSans-48"/>
      </g>
     </g>
    </g>
    <g id="xtick_2">
     <g id="line2d_2">
      <g>
       <use style="stroke:#000000;stroke-width:0.8;" x="256.42314" xlink:href="#m7a676f000c" y="629.9064"/>
      </g>
     </g>
     <g id="text_2">
      <!-- 100 -->
      <defs>
       <path d="M 12.40625 8.296875 
L 28.515625 8.296875 
L 28.515625 63.921875 
L 10.984375 60.40625 
L 10.984375 69.390625 
L 28.421875 72.90625 
L 38.28125 72.90625 
L 38.28125 8.296875 
L 54.390625 8.296875 
L 54.390625 0 
L 12.40625 0 
z
" id="DejaVuSans-49"/>
      </defs>
      <g transform="translate(246.87939 644.504838)scale(0.1 -0.1)">
       <use xlink:href="#DejaVuSans-49"/>
       <use x="63.623047" xlink:href="#DejaVuSans-48"/>
       <use x="127.246094" xlink:href="#DejaVuSans-48"/>
      </g>
     </g>
    </g>
    <g id="xtick_3">
     <g id="line2d_3">
      <g>
       <use style="stroke:#000000;stroke-width:0.8;" x="317.910744" xlink:href="#m7a676f000c" y="629.9064"/>
      </g>
     </g>
     <g id="text_3">
      <!-- 200 -->
      <defs>
       <path d="M 19.1875 8.296875 
L 53.609375 8.296875 
L 53.609375 0 
L 7.328125 0 
L 7.328125 8.296875 
Q 12.9375 14.109375 22.625 23.890625 
Q 32.328125 33.6875 34.8125 36.53125 
Q 39.546875 41.84375 41.421875 45.53125 
Q 43.3125 49.21875 43.3125 52.78125 
Q 43.3125 58.59375 39.234375 62.25 
Q 35.15625 65.921875 28.609375 65.921875 
Q 23.96875 65.921875 18.8125 64.3125 
Q 13.671875 62.703125 7.8125 59.421875 
L 7.8125 69.390625 
Q 13.765625 71.78125 18.9375 73 
Q 24.125 74.21875 28.421875 74.21875 
Q 39.75 74.21875 46.484375 68.546875 
Q 53.21875 62.890625 53.21875 53.421875 
Q 53.21875 48.921875 51.53125 44.890625 
Q 49.859375 40.875 45.40625 35.40625 
Q 44.1875 33.984375 37.640625 27.21875 
Q 31.109375 20.453125 19.1875 8.296875 
z
" id="DejaVuSans-50"/>
      </defs>
      <g transform="translate(308.366994 644.504838)scale(0.1 -0.1)">
       <use xlink:href="#DejaVuSans-50"/>
       <use x="63.623047" xlink:href="#DejaVuSans-48"/>
       <use x="127.246094" xlink:href="#DejaVuSans-48"/>
      </g>
     </g>
    </g>
    <g id="xtick_4">
     <g id="line2d_4">
      <g>
       <use style="stroke:#000000;stroke-width:0.8;" x="379.398347" xlink:href="#m7a676f000c" y="629.9064"/>
      </g>
     </g>
     <g id="text_4">
      <!-- 300 -->
      <defs>
       <path d="M 40.578125 39.3125 
Q 47.65625 37.796875 51.625 33 
Q 55.609375 28.21875 55.609375 21.1875 
Q 55.609375 10.40625 48.1875 4.484375 
Q 40.765625 -1.421875 27.09375 -1.421875 
Q 22.515625 -1.421875 17.65625 -0.515625 
Q 12.796875 0.390625 7.625 2.203125 
L 7.625 11.71875 
Q 11.71875 9.328125 16.59375 8.109375 
Q 21.484375 6.890625 26.8125 6.890625 
Q 36.078125 6.890625 40.9375 10.546875 
Q 45.796875 14.203125 45.796875 21.1875 
Q 45.796875 27.640625 41.28125 31.265625 
Q 36.765625 34.90625 28.71875 34.90625 
L 20.21875 34.90625 
L 20.21875 43.015625 
L 29.109375 43.015625 
Q 36.375 43.015625 40.234375 45.921875 
Q 44.09375 48.828125 44.09375 54.296875 
Q 44.09375 59.90625 40.109375 62.90625 
Q 36.140625 65.921875 28.71875 65.921875 
Q 24.65625 65.921875 20.015625 65.03125 
Q 15.375 64.15625 9.8125 62.3125 
L 9.8125 71.09375 
Q 15.4375 72.65625 20.34375 73.4375 
Q 25.25 74.21875 29.59375 74.21875 
Q 40.828125 74.21875 47.359375 69.109375 
Q 53.90625 64.015625 53.90625 55.328125 
Q 53.90625 49.265625 50.4375 45.09375 
Q 46.96875 40.921875 40.578125 39.3125 
z
" id="DejaVuSans-51"/>
      </defs>
      <g transform="translate(369.854597 644.504838)scale(0.1 -0.1)">
       <use xlink:href="#DejaVuSans-51"/>
       <use x="63.623047" xlink:href="#DejaVuSans-48"/>
       <use x="127.246094" xlink:href="#DejaVuSans-48"/>
      </g>
     </g>
    </g>
    <g id="xtick_5">
     <g id="line2d_5">
      <g>
       <use style="stroke:#000000;stroke-width:0.8;" x="440.88595" xlink:href="#m7a676f000c" y="629.9064"/>
      </g>
     </g>
     <g id="text_5">
      <!-- 400 -->
      <defs>
       <path d="M 37.796875 64.3125 
L 12.890625 25.390625 
L 37.796875 25.390625 
z
M 35.203125 72.90625 
L 47.609375 72.90625 
L 47.609375 25.390625 
L 58.015625 25.390625 
L 58.015625 17.1875 
L 47.609375 17.1875 
L 47.609375 0 
L 37.796875 0 
L 37.796875 17.1875 
L 4.890625 17.1875 
L 4.890625 26.703125 
z
" id="DejaVuSans-52"/>
      </defs>
      <g transform="translate(431.3422 644.504838)scale(0.1 -0.1)">
       <use xlink:href="#DejaVuSans-52"/>
       <use x="63.623047" xlink:href="#DejaVuSans-48"/>
       <use x="127.246094" xlink:href="#DejaVuSans-48"/>
      </g>
     </g>
    </g>
    <g id="xtick_6">
     <g id="line2d_6">
      <g>
       <use style="stroke:#000000;stroke-width:0.8;" x="502.373554" xlink:href="#m7a676f000c" y="629.9064"/>
      </g>
     </g>
     <g id="text_6">
      <!-- 500 -->
      <defs>
       <path d="M 10.796875 72.90625 
L 49.515625 72.90625 
L 49.515625 64.59375 
L 19.828125 64.59375 
L 19.828125 46.734375 
Q 21.96875 47.46875 24.109375 47.828125 
Q 26.265625 48.1875 28.421875 48.1875 
Q 40.625 48.1875 47.75 41.5 
Q 54.890625 34.8125 54.890625 23.390625 
Q 54.890625 11.625 47.5625 5.09375 
Q 40.234375 -1.421875 26.90625 -1.421875 
Q 22.3125 -1.421875 17.546875 -0.640625 
Q 12.796875 0.140625 7.71875 1.703125 
L 7.71875 11.625 
Q 12.109375 9.234375 16.796875 8.0625 
Q 21.484375 6.890625 26.703125 6.890625 
Q 35.15625 6.890625 40.078125 11.328125 
Q 45.015625 15.765625 45.015625 23.390625 
Q 45.015625 31 40.078125 35.4375 
Q 35.15625 39.890625 26.703125 39.890625 
Q 22.75 39.890625 18.8125 39.015625 
Q 14.890625 38.140625 10.796875 36.28125 
z
" id="DejaVuSans-53"/>
      </defs>
      <g transform="translate(492.829804 644.504838)scale(0.1 -0.1)">
       <use xlink:href="#DejaVuSans-53"/>
       <use x="63.623047" xlink:href="#DejaVuSans-48"/>
       <use x="127.246094" xlink:href="#DejaVuSans-48"/>
      </g>
     </g>
    </g>
    <g id="xtick_7">
     <g id="line2d_7">
      <g>
       <use style="stroke:#000000;stroke-width:0.8;" x="563.861157" xlink:href="#m7a676f000c" y="629.9064"/>
      </g>
     </g>
     <g id="text_7">
      <!-- 600 -->
      <defs>
       <path d="M 33.015625 40.375 
Q 26.375 40.375 22.484375 35.828125 
Q 18.609375 31.296875 18.609375 23.390625 
Q 18.609375 15.53125 22.484375 10.953125 
Q 26.375 6.390625 33.015625 6.390625 
Q 39.65625 6.390625 43.53125 10.953125 
Q 47.40625 15.53125 47.40625 23.390625 
Q 47.40625 31.296875 43.53125 35.828125 
Q 39.65625 40.375 33.015625 40.375 
z
M 52.59375 71.296875 
L 52.59375 62.3125 
Q 48.875 64.0625 45.09375 64.984375 
Q 41.3125 65.921875 37.59375 65.921875 
Q 27.828125 65.921875 22.671875 59.328125 
Q 17.53125 52.734375 16.796875 39.40625 
Q 19.671875 43.65625 24.015625 45.921875 
Q 28.375 48.1875 33.59375 48.1875 
Q 44.578125 48.1875 50.953125 41.515625 
Q 57.328125 34.859375 57.328125 23.390625 
Q 57.328125 12.15625 50.6875 5.359375 
Q 44.046875 -1.421875 33.015625 -1.421875 
Q 20.359375 -1.421875 13.671875 8.265625 
Q 6.984375 17.96875 6.984375 36.375 
Q 6.984375 53.65625 15.1875 63.9375 
Q 23.390625 74.21875 37.203125 74.21875 
Q 40.921875 74.21875 44.703125 73.484375 
Q 48.484375 72.75 52.59375 71.296875 
z
" id="DejaVuSans-54"/>
      </defs>
      <g transform="translate(554.317407 644.504838)scale(0.1 -0.1)">
       <use xlink:href="#DejaVuSans-54"/>
       <use x="63.623047" xlink:href="#DejaVuSans-48"/>
       <use x="127.246094" xlink:href="#DejaVuSans-48"/>
      </g>
     </g>
    </g>
    <g id="xtick_8">
     <g id="line2d_8">
      <g>
       <use style="stroke:#000000;stroke-width:0.8;" x="625.34876" xlink:href="#m7a676f000c" y="629.9064"/>
      </g>
     </g>
     <g id="text_8">
      <!-- 700 -->
      <defs>
       <path d="M 8.203125 72.90625 
L 55.078125 72.90625 
L 55.078125 68.703125 
L 28.609375 0 
L 18.3125 0 
L 43.21875 64.59375 
L 8.203125 64.59375 
z
" id="DejaVuSans-55"/>
      </defs>
      <g transform="translate(615.80501 644.504838)scale(0.1 -0.1)">
       <use xlink:href="#DejaVuSans-55"/>
       <use x="63.623047" xlink:href="#DejaVuSans-48"/>
       <use x="127.246094" xlink:href="#DejaVuSans-48"/>
      </g>
     </g>
    </g>
   </g>
   <g id="matplotlib.axis_2">
    <g id="ytick_1">
     <g id="line2d_9">
      <defs>
       <path d="M 0 0 
L -3.5 0 
" id="m8486ffe902" style="stroke:#000000;stroke-width:0.8;"/>
      </defs>
      <g>
       <use style="stroke:#000000;stroke-width:0.8;" x="172.8" xlink:href="#m8486ffe902" y="626.046567"/>
      </g>
     </g>
     <g id="text_9">
      <!-- −0.6 -->
      <defs>
       <path d="M 10.59375 35.5 
L 73.1875 35.5 
L 73.1875 27.203125 
L 10.59375 27.203125 
z
" id="DejaVuSans-8722"/>
       <path d="M 10.6875 12.40625 
L 21 12.40625 
L 21 0 
L 10.6875 0 
z
" id="DejaVuSans-46"/>
      </defs>
      <g transform="translate(141.517187 629.845786)scale(0.1 -0.1)">
       <use xlink:href="#DejaVuSans-8722"/>
       <use x="83.789062" xlink:href="#DejaVuSans-48"/>
       <use x="147.412109" xlink:href="#DejaVuSans-46"/>
       <use x="179.199219" xlink:href="#DejaVuSans-54"/>
      </g>
     </g>
    </g>
    <g id="ytick_2">
     <g id="line2d_10">
      <g>
       <use style="stroke:#000000;stroke-width:0.8;" x="172.8" xlink:href="#m8486ffe902" y="538.488574"/>
      </g>
     </g>
     <g id="text_10">
      <!-- −0.4 -->
      <g transform="translate(141.517187 542.287793)scale(0.1 -0.1)">
       <use xlink:href="#DejaVuSans-8722"/>
       <use x="83.789062" xlink:href="#DejaVuSans-48"/>
       <use x="147.412109" xlink:href="#DejaVuSans-46"/>
       <use x="179.199219" xlink:href="#DejaVuSans-52"/>
      </g>
     </g>
    </g>
    <g id="ytick_3">
     <g id="line2d_11">
      <g>
       <use style="stroke:#000000;stroke-width:0.8;" x="172.8" xlink:href="#m8486ffe902" y="450.930581"/>
      </g>
     </g>
     <g id="text_11">
      <!-- −0.2 -->
      <g transform="translate(141.517187 454.7298)scale(0.1 -0.1)">
       <use xlink:href="#DejaVuSans-8722"/>
       <use x="83.789062" xlink:href="#DejaVuSans-48"/>
       <use x="147.412109" xlink:href="#DejaVuSans-46"/>
       <use x="179.199219" xlink:href="#DejaVuSans-50"/>
      </g>
     </g>
    </g>
    <g id="ytick_4">
     <g id="line2d_12">
      <g>
       <use style="stroke:#000000;stroke-width:0.8;" x="172.8" xlink:href="#m8486ffe902" y="363.372588"/>
      </g>
     </g>
     <g id="text_12">
      <!-- 0.0 -->
      <g transform="translate(149.896875 367.171807)scale(0.1 -0.1)">
       <use xlink:href="#DejaVuSans-48"/>
       <use x="63.623047" xlink:href="#DejaVuSans-46"/>
       <use x="95.410156" xlink:href="#DejaVuSans-48"/>
      </g>
     </g>
    </g>
    <g id="ytick_5">
     <g id="line2d_13">
      <g>
       <use style="stroke:#000000;stroke-width:0.8;" x="172.8" xlink:href="#m8486ffe902" y="275.814595"/>
      </g>
     </g>
     <g id="text_13">
      <!-- 0.2 -->
      <g transform="translate(149.896875 279.613814)scale(0.1 -0.1)">
       <use xlink:href="#DejaVuSans-48"/>
       <use x="63.623047" xlink:href="#DejaVuSans-46"/>
       <use x="95.410156" xlink:href="#DejaVuSans-50"/>
      </g>
     </g>
    </g>
    <g id="ytick_6">
     <g id="line2d_14">
      <g>
       <use style="stroke:#000000;stroke-width:0.8;" x="172.8" xlink:href="#m8486ffe902" y="188.256602"/>
      </g>
     </g>
     <g id="text_14">
      <!-- 0.4 -->
      <g transform="translate(149.896875 192.055821)scale(0.1 -0.1)">
       <use xlink:href="#DejaVuSans-48"/>
       <use x="63.623047" xlink:href="#DejaVuSans-46"/>
       <use x="95.410156" xlink:href="#DejaVuSans-52"/>
      </g>
     </g>
    </g>
    <g id="ytick_7">
     <g id="line2d_15">
      <g>
       <use style="stroke:#000000;stroke-width:0.8;" x="172.8" xlink:href="#m8486ffe902" y="100.698609"/>
      </g>
     </g>
     <g id="text_15">
      <!-- 0.6 -->
      <g transform="translate(149.896875 104.497828)scale(0.1 -0.1)">
       <use xlink:href="#DejaVuSans-48"/>
       <use x="63.623047" xlink:href="#DejaVuSans-46"/>
       <use x="95.410156" xlink:href="#DejaVuSans-54"/>
      </g>
     </g>
    </g>
   </g>
   <g id="line2d_16">
    <path clip-path="url(#pd1bd3d3cc3)" d="M 194.935537 343.833437 
L 195.550413 350.537571 
L 196.165289 372.457498 
L 196.780165 378.37104 
L 198.009917 345.317878 
L 198.624793 353.70088 
L 199.239669 373.788686 
L 199.854545 377.923008 
L 200.469421 362.095887 
L 201.084298 350.375947 
L 201.699174 359.35261 
L 202.31405 375.311263 
L 202.928926 375.22892 
L 203.543802 360.201294 
L 204.158678 352.955803 
L 204.773554 364.019742 
L 205.38843 377.090473 
L 206.003306 373.522811 
L 206.618182 359.45441 
L 207.233058 355.670925 
L 207.847934 366.766384 
L 208.46281 375.360216 
L 209.077686 368.572453 
L 209.692562 356.862856 
L 210.307438 357.431909 
L 210.922314 368.636167 
L 211.53719 373.158263 
L 212.766942 355.54416 
L 213.381818 359.218264 
L 213.996694 368.702137 
L 214.61157 369.06572 
L 215.226446 359.981328 
L 215.841322 355.428043 
L 217.071074 368.883322 
L 217.68595 365.870915 
L 218.300826 357.861805 
L 218.915702 357.300268 
L 219.530579 364.541886 
L 220.145455 367.989258 
L 221.375207 357.322423 
L 221.990083 360.651271 
L 222.604959 367.089777 
L 223.219835 366.487083 
L 223.834711 360.358479 
L 224.449587 358.839391 
L 225.064463 364.170508 
L 225.679339 367.484461 
L 226.909091 359.341261 
L 227.523967 361.732619 
L 228.138843 366.644749 
L 228.753719 365.923221 
L 229.368595 361.166162 
L 229.983471 360.435668 
L 230.598347 364.674081 
L 231.213223 366.473254 
L 231.828099 362.913039 
L 232.442975 360.262055 
L 233.057851 362.874545 
L 233.672727 365.988012 
L 234.287603 364.266622 
L 234.902479 360.88234 
L 235.517355 361.646941 
L 236.132231 364.965327 
L 236.747107 364.868463 
L 237.361983 361.706646 
L 237.97686 361.089274 
L 238.591736 363.939928 
L 239.206612 365.040778 
L 239.821488 362.569551 
L 240.436364 361.155026 
L 241.05124 363.27947 
L 241.666116 365.00072 
L 242.895868 361.495964 
L 243.510744 362.923672 
L 244.12562 364.89472 
L 244.740496 363.839117 
L 245.355372 361.987172 
L 245.970248 362.922471 
L 246.585124 364.905988 
L 247.2 364.314326 
L 247.814876 362.622011 
L 248.429752 363.112373 
L 249.044628 364.874971 
L 249.659504 364.634593 
L 250.27438 363.198327 
L 250.889256 363.5556 
L 251.504132 364.973353 
L 252.119008 364.905196 
L 252.733884 363.734556 
L 253.34876 363.964211 
L 253.963636 365.25416 
L 254.578512 365.127442 
L 255.193388 364.107154 
L 255.808264 364.450454 
L 256.42314 365.572533 
L 257.038017 365.362283 
L 257.652893 364.497364 
L 258.267769 364.956562 
L 258.882645 365.896482 
L 259.497521 365.510662 
L 260.112397 364.85123 
L 261.342149 366.171771 
L 262.571901 365.266736 
L 263.186777 365.995482 
L 263.801653 366.451573 
L 264.416529 365.861344 
L 265.031405 365.725838 
L 265.646281 366.476623 
L 266.261157 366.590856 
L 266.876033 366.025102 
L 267.490909 366.217297 
L 268.105785 366.875544 
L 268.720661 366.708767 
L 269.335537 366.325338 
L 270.565289 367.21045 
L 271.180165 366.850178 
L 271.795041 366.736938 
L 272.409917 367.30605 
L 273.024793 367.405788 
L 273.639669 367.020926 
L 274.254545 367.230627 
L 274.869421 367.708238 
L 276.099174 367.334936 
L 276.71405 367.759116 
L 277.328926 367.992084 
L 277.943802 367.703654 
L 278.558678 367.770032 
L 279.173554 368.197759 
L 279.78843 368.15448 
L 280.403306 367.935748 
L 281.633058 368.473777 
L 282.247934 368.271487 
L 282.86281 368.255575 
L 283.477686 368.590843 
L 284.092562 368.62082 
L 284.707438 368.429241 
L 285.93719 368.818967 
L 287.166942 368.611163 
L 287.781818 368.832401 
L 288.396694 368.894628 
L 289.01157 368.721288 
L 289.626446 368.762575 
L 290.241322 368.934237 
L 291.471074 368.722518 
L 292.700826 368.884263 
L 293.930579 368.66402 
L 294.545455 368.75464 
L 295.160331 368.700373 
L 295.775207 368.53349 
L 297.619835 368.413093 
L 298.234711 368.270255 
L 299.464463 368.223399 
L 300.694215 367.945178 
L 301.923967 367.815263 
L 302.538843 367.613411 
L 303.768595 367.513708 
L 304.998347 367.191749 
L 305.613223 367.150123 
L 307.457851 366.710326 
L 308.072727 366.638665 
L 308.687603 366.395448 
L 314.836364 365.094983 
L 316.066116 364.776668 
L 317.295868 364.483127 
L 318.52562 364.218198 
L 328.363636 361.858491 
L 329.593388 361.59398 
L 330.82314 361.397222 
L 332.052893 361.189875 
L 335.127273 360.624987 
L 336.357025 360.425624 
L 344.965289 359.356571 
L 349.269421 359.014709 
L 352.958678 358.800663 
L 356.647934 358.742676 
L 357.26281 358.788155 
L 358.492562 358.662594 
L 359.722314 358.679071 
L 360.952066 358.659765 
L 364.026446 358.703676 
L 366.48595 358.728662 
L 383.087603 359.848141 
L 409.527273 362.676624 
L 411.371901 362.811166 
L 415.061157 363.033254 
L 415.676033 363.161578 
L 417.520661 363.146666 
L 418.135537 363.188852 
L 419.365289 363.141876 
L 419.980165 363.244016 
L 422.439669 363.287283 
L 467.940496 362.978195 
L 477.163636 363.336538 
L 480.852893 363.672548 
L 482.082645 363.748444 
L 489.461157 364.502646 
L 490.076033 364.661518 
L 491.920661 364.879205 
L 493.150413 364.989216 
L 498.069421 365.574863 
L 499.299174 365.790874 
L 500.528926 365.917994 
L 501.758678 366.08381 
L 504.218182 366.384026 
L 507.907438 366.934105 
L 510.366942 367.263589 
L 515.28595 367.924225 
L 518.975207 368.407451 
L 529.428099 369.292961 
L 536.191736 369.659946 
L 565.090909 370.05354 
L 565.705785 370.895995 
L 566.320661 370.60351 
L 566.935537 370.150805 
L 568.165289 371.353506 
L 568.780165 371.006593 
L 569.395041 370.373792 
L 570.009917 370.581724 
L 570.624793 371.106855 
L 571.239669 370.911275 
L 571.854545 370.477152 
L 572.469421 370.680893 
L 573.084298 371.25749 
L 573.699174 371.350542 
L 574.31405 371.137107 
L 574.928926 371.14292 
L 575.543802 371.514052 
L 576.158678 371.704356 
L 577.38843 371.42056 
L 579.233058 371.761107 
L 579.847934 371.691686 
L 580.46281 371.846744 
L 581.077686 372.150721 
L 581.692562 372.299603 
L 582.922314 372.3067 
L 584.152066 372.638575 
L 585.381818 372.54256 
L 590.300826 373.365097 
L 591.530579 373.397853 
L 592.760331 373.59154 
L 593.990083 373.604509 
L 595.834711 373.898974 
L 597.064463 373.936353 
L 598.294215 374.083596 
L 600.138843 374.14364 
L 601.983471 374.309239 
L 605.672727 374.40255 
L 606.902479 374.556775 
L 608.747107 374.447628 
L 609.97686 374.535333 
L 611.206612 374.406008 
L 613.05124 374.5095 
L 614.895868 374.313314 
L 616.12562 374.361136 
L 618.585124 374.20049 
L 619.814876 374.162307 
L 621.659504 373.967778 
L 623.504132 373.887635 
L 625.34876 373.76596 
L 627.193388 373.657025 
L 628.42314 373.539312 
L 630.267769 373.5775 
L 631.497521 373.375114 
L 632.727273 373.441987 
L 633.957025 373.606836 
L 636.416529 373.658728 
L 637.031405 373.780446 
L 637.031405 373.780446 
" style="fill:none;stroke:#ff796c;stroke-linecap:square;stroke-width:1.5;"/>
   </g>
   <g id="line2d_17">
    <path clip-path="url(#pd1bd3d3cc3)" d="M 194.935537 363.372588 
L 195.550413 363.022246 
L 196.165289 366.354875 
L 196.780165 371.508979 
L 197.395041 374.449477 
L 198.009917 374.299343 
L 198.624793 374.554762 
L 199.239669 377.938018 
L 199.854545 382.662028 
L 200.469421 384.894992 
L 201.084298 384.112228 
L 201.699174 383.615913 
L 202.31405 385.586157 
L 202.928926 388.130233 
L 203.543802 388.141071 
L 204.158678 385.90831 
L 204.773554 384.606896 
L 206.003306 386.420589 
L 206.618182 384.59203 
L 207.233058 381.074618 
L 207.847934 378.839561 
L 208.46281 378.494322 
L 209.077686 377.612489 
L 209.692562 374.490565 
L 210.307438 370.727771 
L 210.922314 368.713633 
L 211.53719 368.145657 
L 212.152066 366.562587 
L 213.381818 359.795206 
L 213.996694 358.343465 
L 214.61157 357.81764 
L 215.226446 356.120098 
L 215.841322 353.295472 
L 216.456198 351.33456 
L 217.071074 351.075874 
L 217.68595 351.012576 
L 218.300826 349.660552 
L 218.915702 347.773567 
L 219.530579 347.107431 
L 220.145455 347.651518 
L 220.760331 347.754993 
L 221.990083 345.903115 
L 222.604959 346.348248 
L 223.219835 347.254743 
L 223.834711 347.189521 
L 224.449587 346.391405 
L 225.064463 346.293517 
L 225.679339 347.154893 
L 226.294215 347.717407 
L 227.523967 346.853382 
L 228.138843 347.352151 
L 228.753719 348.174866 
L 229.368595 348.181443 
L 229.983471 347.633629 
L 230.598347 347.667859 
L 231.213223 348.37658 
L 231.828099 348.735222 
L 232.442975 348.387279 
L 233.057851 348.220197 
L 234.287603 349.387751 
L 234.902479 349.379481 
L 235.517355 349.209017 
L 236.132231 349.622459 
L 236.747107 350.383845 
L 237.361983 350.705855 
L 237.97686 350.693367 
L 238.591736 351.074611 
L 239.206612 351.943525 
L 239.821488 352.607752 
L 240.436364 352.856594 
L 241.05124 353.299365 
L 242.280992 355.132246 
L 243.510744 356.163001 
L 245.355372 358.896906 
L 245.970248 359.543505 
L 247.814876 362.558102 
L 248.429752 363.279295 
L 252.733884 370.104784 
L 253.963636 371.804681 
L 255.193388 373.690817 
L 256.42314 375.336384 
L 257.652893 377.090792 
L 258.882645 378.628811 
L 260.112397 380.173849 
L 261.342149 381.594614 
L 262.571901 382.987126 
L 266.876033 387.250686 
L 271.180165 390.330292 
L 273.639669 391.468123 
L 276.099174 392.127773 
L 277.943802 392.330446 
L 280.403306 392.108604 
L 282.247934 391.605083 
L 284.092562 390.793271 
L 285.93719 389.672312 
L 287.166942 388.756923 
L 289.01157 387.124115 
L 290.856198 385.149808 
L 292.700826 382.816989 
L 294.545455 380.101502 
L 296.390083 376.98487 
L 298.234711 373.446125 
L 300.079339 369.478256 
L 302.538843 363.541577 
L 305.613223 355.189461 
L 308.687603 346.031402 
L 318.52562 315.7098 
L 320.985124 309.013241 
L 323.444628 303.035295 
L 325.289256 299.117711 
L 327.133884 295.728784 
L 328.978512 292.844902 
L 330.208264 291.257212 
L 331.438017 289.931266 
L 332.667769 288.84492 
L 333.897521 287.968916 
L 335.127273 287.312041 
L 336.357025 286.872187 
L 337.586777 286.657647 
L 338.816529 286.644796 
L 340.046281 286.822864 
L 341.276033 287.177326 
L 342.505785 287.695182 
L 344.350413 288.770804 
L 346.195041 290.170032 
L 348.039669 291.848287 
L 350.499174 294.452399 
L 352.958678 297.417244 
L 356.033058 301.535891 
L 359.107438 306.017569 
L 362.796694 311.796649 
L 381.242975 341.607566 
L 386.161983 348.881885 
L 389.85124 353.96194 
L 394.770248 360.518707 
L 397.844628 364.207515 
L 400.304132 366.950781 
L 402.14876 368.738304 
L 403.993388 370.267412 
L 406.452893 371.963837 
L 408.297521 372.952379 
L 410.142149 373.648565 
L 411.986777 374.057644 
L 413.831405 374.202208 
L 415.676033 374.084097 
L 417.520661 373.685377 
L 419.365289 373.087195 
L 421.824793 372.059356 
L 423.669421 371.051565 
L 426.128926 369.384894 
L 429.203306 366.983968 
L 432.892562 363.772493 
L 440.271074 357.238505 
L 443.345455 354.836757 
L 446.419835 352.690617 
L 449.494215 350.847719 
L 451.953719 349.631199 
L 454.413223 348.681016 
L 456.257851 348.166164 
L 458.102479 347.828023 
L 459.947107 347.671376 
L 461.791736 347.699911 
L 463.636364 347.911296 
L 465.480992 348.299096 
L 467.940496 349.077579 
L 470.4 350.136358 
L 472.859504 351.457565 
L 475.319008 353.070479 
L 477.778512 354.97066 
L 480.238017 357.107358 
L 483.312397 360.076916 
L 489.461157 366.503993 
L 495.609917 373.030086 
L 504.833058 382.263527 
L 509.13719 386.211422 
L 511.596694 388.224463 
L 514.056198 389.986759 
L 516.515702 391.449636 
L 518.360331 392.312291 
L 520.204959 392.968818 
L 522.049587 393.404822 
L 523.894215 393.612517 
L 525.738843 393.573293 
L 527.583471 393.21183 
L 529.428099 392.561439 
L 531.272727 391.672671 
L 533.117355 390.559344 
L 535.57686 388.768082 
L 538.65124 386.184189 
L 542.340496 382.787577 
L 549.104132 376.371689 
L 552.178512 373.806958 
L 554.638017 372.063922 
L 556.482645 370.974953 
L 558.327273 370.104525 
L 560.171901 369.47294 
L 562.016529 369.085782 
L 563.861157 368.942658 
L 565.705785 369.073469 
L 566.935537 370.219223 
L 568.165289 371.278752 
L 568.780165 371.860311 
L 570.624793 373.196254 
L 573.084298 375.636209 
L 577.38843 381.245996 
L 579.233058 383.672854 
L 584.152066 390.114058 
L 585.996694 391.961541 
L 587.841322 393.580865 
L 589.68595 394.821968 
L 590.915702 395.374591 
L 592.145455 395.680916 
L 593.375207 395.807403 
L 595.219835 395.62447 
L 596.449587 395.270741 
L 597.679339 394.676413 
L 598.909091 393.899727 
L 600.753719 392.399179 
L 602.598347 390.599156 
L 605.057851 387.752091 
L 609.361983 382.266729 
L 613.666116 376.95995 
L 616.740496 373.469113 
L 625.34876 363.931854 
L 628.42314 360.076824 
L 633.342149 353.847714 
L 634.571901 352.622179 
L 635.801653 351.623142 
L 637.031405 350.988907 
L 637.646281 350.834484 
L 637.646281 350.834484 
" style="fill:none;stroke:#e50000;stroke-linecap:square;stroke-width:1.5;"/>
   </g>
   <g id="line2d_18">
    <path clip-path="url(#pd1bd3d3cc3)" d="M 194.935537 134.146299 
L 199.239669 134.253212 
L 203.543802 134.573852 
L 207.847934 135.107919 
L 212.152066 135.854917 
L 216.456198 136.814146 
L 220.760331 137.984714 
L 225.064463 139.365528 
L 229.368595 140.955299 
L 234.287603 143.026136 
L 239.206612 145.365432 
L 244.12562 147.970335 
L 249.044628 150.837673 
L 253.963636 153.963953 
L 258.882645 157.345364 
L 263.801653 160.977788 
L 269.335537 165.35878 
L 274.869421 170.045096 
L 280.403306 175.029509 
L 285.93719 180.304333 
L 292.08595 186.495948 
L 298.234711 193.024257 
L 304.383471 199.876834 
L 311.147107 207.773612 
L 317.910744 216.028769 
L 324.67438 224.623293 
L 332.052893 234.362903 
L 340.046281 245.312321 
L 348.039669 256.641499 
L 356.647934 269.22503 
L 365.871074 283.09585 
L 376.323967 299.228422 
L 388.006612 317.672216 
L 402.763636 341.402222 
L 449.494215 416.884403 
L 461.17686 435.157966 
L 471.629752 451.093692 
L 480.852893 464.756784 
L 489.461157 477.118456 
L 497.454545 488.218173 
L 504.833058 498.108421 
L 512.21157 507.629366 
L 518.975207 516.010172 
L 525.738843 524.039418 
L 531.887603 531.018084 
L 538.036364 537.677626 
L 544.185124 544.005369 
L 550.333884 549.989268 
L 555.867769 555.071361 
L 561.401653 559.857868 
L 566.935537 564.341409 
L 572.469421 568.515071 
L 577.38843 571.959634 
L 582.307438 575.150066 
L 587.226446 578.082479 
L 592.145455 580.753301 
L 597.064463 583.159278 
L 601.983471 585.29748 
L 606.902479 587.1653 
L 611.206612 588.576048 
L 615.510744 589.776722 
L 619.814876 590.766202 
L 624.119008 591.543566 
L 628.42314 592.108087 
L 632.727273 592.459239 
L 637.031405 592.596696 
L 637.031405 592.596696 
" style="fill:none;stroke:#014d4e;stroke-linecap:square;stroke-width:1.5;"/>
   </g>
   <g id="line2d_19">
    <path clip-path="url(#pd1bd3d3cc3)" d="M 194.935537 134.49664 
L 195.550413 131.166194 
L 196.165289 126.018636 
L 196.780165 123.089048 
L 197.395041 123.254456 
L 198.009917 123.018674 
L 198.624793 119.659419 
L 199.239669 114.963771 
L 199.854545 112.763533 
L 200.469421 113.583384 
L 201.084298 114.121146 
L 201.699174 112.19671 
L 202.31405 109.7028 
L 202.928926 109.746487 
L 203.543802 112.03813 
L 204.158678 113.402781 
L 205.38843 111.728628 
L 206.003306 113.633485 
L 206.618182 117.231546 
L 207.233058 119.551601 
L 207.847934 119.986186 
L 208.46281 120.96171 
L 209.077686 124.181669 
L 209.692562 128.046841 
L 210.307438 130.167697 
L 210.922314 130.846729 
L 211.53719 132.545192 
L 212.766942 139.556356 
L 213.381818 141.136484 
L 213.996694 141.795023 
L 214.61157 143.629603 
L 215.226446 146.595589 
L 215.841322 148.70218 
L 216.456198 149.11086 
L 217.071074 149.328467 
L 217.68595 150.839109 
L 218.300826 152.88902 
L 218.915702 153.722386 
L 219.530579 153.349831 
L 220.145455 153.422185 
L 221.375207 155.638602 
L 221.990083 155.382171 
L 222.604959 154.668663 
L 223.219835 154.931152 
L 223.834711 155.93081 
L 224.449587 156.234515 
L 225.064463 155.583223 
L 225.679339 155.235058 
L 226.909091 156.540559 
L 227.523967 156.268909 
L 228.138843 155.677561 
L 228.753719 155.906594 
L 229.368595 156.694258 
L 229.983471 156.904112 
L 230.598347 156.443705 
L 231.213223 156.337602 
L 231.828099 156.942304 
L 232.442975 157.370361 
L 233.672727 156.737383 
L 234.287603 157.019244 
L 234.902479 157.467494 
L 235.517355 157.336027 
L 236.132231 156.860801 
L 236.747107 156.829131 
L 237.361983 157.136131 
L 237.97686 157.053567 
L 238.591736 156.487496 
L 239.206612 156.130268 
L 239.821488 156.192576 
L 240.436364 156.065099 
L 241.666116 154.875215 
L 242.895868 154.503964 
L 244.12562 153.15131 
L 245.355372 152.491781 
L 247.2 150.546369 
L 247.814876 150.189715 
L 249.659504 148.24851 
L 250.27438 147.858546 
L 252.119008 146.029293 
L 252.733884 145.648402 
L 254.578512 144.05453 
L 255.193388 143.715803 
L 257.038017 142.329488 
L 258.267769 141.65265 
L 258.882645 141.232764 
L 263.801653 139.35416 
L 267.490909 139.038423 
L 268.720661 139.09314 
L 271.180165 139.635475 
L 273.024793 140.353968 
L 275.484298 141.82915 
L 277.943802 143.848658 
L 279.78843 145.725184 
L 282.247934 148.776117 
L 284.092562 151.432556 
L 286.552066 155.523667 
L 289.01157 160.236479 
L 290.856198 164.192208 
L 293.315702 170.097245 
L 295.775207 176.76103 
L 298.234711 184.229777 
L 300.694215 192.503596 
L 303.153719 201.548415 
L 306.228099 213.769596 
L 310.532231 232.079177 
L 317.295868 261.155393 
L 320.370248 273.475157 
L 322.829752 282.584085 
L 325.289256 290.85967 
L 327.74876 298.253356 
L 329.593388 303.191114 
L 331.438017 307.551068 
L 333.282645 311.424958 
L 335.127273 314.835316 
L 336.971901 317.769054 
L 338.816529 320.262016 
L 340.661157 322.366034 
L 342.505785 324.115804 
L 344.350413 325.537224 
L 346.195041 326.668284 
L 348.039669 327.552808 
L 349.884298 328.226219 
L 352.343802 328.841741 
L 354.803306 329.189641 
L 357.26281 329.31065 
L 359.722314 329.285516 
L 362.181818 329.078848 
L 373.864463 327.81793 
L 378.168595 327.681581 
L 381.857851 327.81959 
L 384.932231 328.155041 
L 388.006612 328.733927 
L 393.540496 330.161358 
L 396 331.081859 
L 399.07438 332.509212 
L 400.919008 333.611516 
L 402.763636 334.988916 
L 405.22314 337.180727 
L 407.067769 339.096543 
L 408.912397 341.299014 
L 410.757025 343.796037 
L 413.216529 347.542423 
L 415.676033 351.75728 
L 418.750413 357.658532 
L 421.824793 363.995666 
L 424.899174 370.908549 
L 429.203306 381.248174 
L 443.960331 417.517799 
L 448.264463 427.12114 
L 451.953719 434.772204 
L 455.028099 440.647995 
L 458.102479 446.009316 
L 460.561983 449.910336 
L 463.021488 453.462661 
L 465.480992 456.67877 
L 467.940496 459.57559 
L 470.4 462.173685 
L 472.859504 464.479923 
L 475.319008 466.459819 
L 477.778512 468.138238 
L 480.238017 469.556752 
L 483.312397 470.997969 
L 487.001653 472.458335 
L 494.380165 474.972889 
L 507.292562 479.570062 
L 510.366942 480.91334 
L 512.826446 482.206174 
L 515.28595 483.740001 
L 517.745455 485.57228 
L 520.204959 487.729891 
L 522.664463 490.240071 
L 525.123967 493.123802 
L 526.968595 495.620811 
L 529.428099 499.346107 
L 531.887603 503.435809 
L 534.961983 508.993059 
L 539.880992 518.456571 
L 548.489256 535.231792 
L 551.563636 540.709403 
L 554.02314 544.718461 
L 556.482645 548.330008 
L 558.327273 550.737154 
L 560.171901 552.883943 
L 562.631405 555.295848 
L 564.476033 556.754942 
L 565.090909 557.180115 
L 565.705785 557.022441 
L 567.550413 556.91441 
L 568.165289 556.808181 
L 570.009917 556.875124 
L 572.469421 556.25145 
L 579.847934 551.638263 
L 582.307438 549.869401 
L 584.152066 548.86812 
L 586.61157 548.021875 
L 587.841322 547.775173 
L 589.071074 547.665494 
L 590.300826 547.780609 
L 592.145455 548.352852 
L 593.375207 548.976319 
L 595.219835 550.180017 
L 596.449587 551.247684 
L 598.294215 553.191901 
L 600.753719 556.322209 
L 603.213223 559.935208 
L 607.517355 566.867313 
L 610.591736 571.834261 
L 613.666116 576.428658 
L 616.12562 579.834505 
L 620.429752 585.430477 
L 625.963636 592.74745 
L 632.727273 601.984113 
L 633.957025 603.270737 
L 635.186777 604.313411 
L 636.416529 604.973831 
L 637.031405 605.1348 
L 637.031405 605.1348 
" style="fill:none;stroke:#ffff14;stroke-linecap:square;stroke-width:1.5;"/>
   </g>
   <g id="patch_3">
    <path d="M 172.8 629.9064 
L 172.8 84.9312 
" style="fill:none;stroke:#000000;stroke-linecap:square;stroke-linejoin:miter;stroke-width:0.8;"/>
   </g>
   <g id="patch_4">
    <path d="M 659.781818 629.9064 
L 659.781818 84.9312 
" style="fill:none;stroke:#000000;stroke-linecap:square;stroke-linejoin:miter;stroke-width:0.8;"/>
   </g>
   <g id="patch_5">
    <path d="M 172.8 629.9064 
L 659.781818 629.9064 
" style="fill:none;stroke:#000000;stroke-linecap:square;stroke-linejoin:miter;stroke-width:0.8;"/>
   </g>
   <g id="patch_6">
    <path d="M 172.8 84.9312 
L 659.781818 84.9312 
" style="fill:none;stroke:#000000;stroke-linecap:square;stroke-linejoin:miter;stroke-width:0.8;"/>
   </g>
   <g id="text_16">
    <!-- Right abduction -->
    <defs>
     <path d="M 44.390625 34.1875 
Q 47.5625 33.109375 50.5625 29.59375 
Q 53.5625 26.078125 56.59375 19.921875 
L 66.609375 0 
L 56 0 
L 46.6875 18.703125 
Q 43.0625 26.03125 39.671875 28.421875 
Q 36.28125 30.8125 30.421875 30.8125 
L 19.671875 30.8125 
L 19.671875 0 
L 9.8125 0 
L 9.8125 72.90625 
L 32.078125 72.90625 
Q 44.578125 72.90625 50.734375 67.671875 
Q 56.890625 62.453125 56.890625 51.90625 
Q 56.890625 45.015625 53.6875 40.46875 
Q 50.484375 35.9375 44.390625 34.1875 
z
M 19.671875 64.796875 
L 19.671875 38.921875 
L 32.078125 38.921875 
Q 39.203125 38.921875 42.84375 42.21875 
Q 46.484375 45.515625 46.484375 51.90625 
Q 46.484375 58.296875 42.84375 61.546875 
Q 39.203125 64.796875 32.078125 64.796875 
z
" id="DejaVuSans-82"/>
     <path d="M 9.421875 54.6875 
L 18.40625 54.6875 
L 18.40625 0 
L 9.421875 0 
z
M 9.421875 75.984375 
L 18.40625 75.984375 
L 18.40625 64.59375 
L 9.421875 64.59375 
z
" id="DejaVuSans-105"/>
     <path d="M 45.40625 27.984375 
Q 45.40625 37.75 41.375 43.109375 
Q 37.359375 48.484375 30.078125 48.484375 
Q 22.859375 48.484375 18.828125 43.109375 
Q 14.796875 37.75 14.796875 27.984375 
Q 14.796875 18.265625 18.828125 12.890625 
Q 22.859375 7.515625 30.078125 7.515625 
Q 37.359375 7.515625 41.375 12.890625 
Q 45.40625 18.265625 45.40625 27.984375 
z
M 54.390625 6.78125 
Q 54.390625 -7.171875 48.1875 -13.984375 
Q 42 -20.796875 29.203125 -20.796875 
Q 24.46875 -20.796875 20.265625 -20.09375 
Q 16.0625 -19.390625 12.109375 -17.921875 
L 12.109375 -9.1875 
Q 16.0625 -11.328125 19.921875 -12.34375 
Q 23.78125 -13.375 27.78125 -13.375 
Q 36.625 -13.375 41.015625 -8.765625 
Q 45.40625 -4.15625 45.40625 5.171875 
L 45.40625 9.625 
Q 42.625 4.78125 38.28125 2.390625 
Q 33.9375 0 27.875 0 
Q 17.828125 0 11.671875 7.65625 
Q 5.515625 15.328125 5.515625 27.984375 
Q 5.515625 40.671875 11.671875 48.328125 
Q 17.828125 56 27.875 56 
Q 33.9375 56 38.28125 53.609375 
Q 42.625 51.21875 45.40625 46.390625 
L 45.40625 54.6875 
L 54.390625 54.6875 
z
" id="DejaVuSans-103"/>
     <path d="M 54.890625 33.015625 
L 54.890625 0 
L 45.90625 0 
L 45.90625 32.71875 
Q 45.90625 40.484375 42.875 44.328125 
Q 39.84375 48.1875 33.796875 48.1875 
Q 26.515625 48.1875 22.3125 43.546875 
Q 18.109375 38.921875 18.109375 30.90625 
L 18.109375 0 
L 9.078125 0 
L 9.078125 75.984375 
L 18.109375 75.984375 
L 18.109375 46.1875 
Q 21.34375 51.125 25.703125 53.5625 
Q 30.078125 56 35.796875 56 
Q 45.21875 56 50.046875 50.171875 
Q 54.890625 44.34375 54.890625 33.015625 
z
" id="DejaVuSans-104"/>
     <path d="M 18.3125 70.21875 
L 18.3125 54.6875 
L 36.8125 54.6875 
L 36.8125 47.703125 
L 18.3125 47.703125 
L 18.3125 18.015625 
Q 18.3125 11.328125 20.140625 9.421875 
Q 21.96875 7.515625 27.59375 7.515625 
L 36.8125 7.515625 
L 36.8125 0 
L 27.59375 0 
Q 17.1875 0 13.234375 3.875 
Q 9.28125 7.765625 9.28125 18.015625 
L 9.28125 47.703125 
L 2.6875 47.703125 
L 2.6875 54.6875 
L 9.28125 54.6875 
L 9.28125 70.21875 
z
" id="DejaVuSans-116"/>
     <path id="DejaVuSans-32"/>
     <path d="M 34.28125 27.484375 
Q 23.390625 27.484375 19.1875 25 
Q 14.984375 22.515625 14.984375 16.5 
Q 14.984375 11.71875 18.140625 8.90625 
Q 21.296875 6.109375 26.703125 6.109375 
Q 34.1875 6.109375 38.703125 11.40625 
Q 43.21875 16.703125 43.21875 25.484375 
L 43.21875 27.484375 
z
M 52.203125 31.203125 
L 52.203125 0 
L 43.21875 0 
L 43.21875 8.296875 
Q 40.140625 3.328125 35.546875 0.953125 
Q 30.953125 -1.421875 24.3125 -1.421875 
Q 15.921875 -1.421875 10.953125 3.296875 
Q 6 8.015625 6 15.921875 
Q 6 25.140625 12.171875 29.828125 
Q 18.359375 34.515625 30.609375 34.515625 
L 43.21875 34.515625 
L 43.21875 35.40625 
Q 43.21875 41.609375 39.140625 45 
Q 35.0625 48.390625 27.6875 48.390625 
Q 23 48.390625 18.546875 47.265625 
Q 14.109375 46.140625 10.015625 43.890625 
L 10.015625 52.203125 
Q 14.9375 54.109375 19.578125 55.046875 
Q 24.21875 56 28.609375 56 
Q 40.484375 56 46.34375 49.84375 
Q 52.203125 43.703125 52.203125 31.203125 
z
" id="DejaVuSans-97"/>
     <path d="M 48.6875 27.296875 
Q 48.6875 37.203125 44.609375 42.84375 
Q 40.53125 48.484375 33.40625 48.484375 
Q 26.265625 48.484375 22.1875 42.84375 
Q 18.109375 37.203125 18.109375 27.296875 
Q 18.109375 17.390625 22.1875 11.75 
Q 26.265625 6.109375 33.40625 6.109375 
Q 40.53125 6.109375 44.609375 11.75 
Q 48.6875 17.390625 48.6875 27.296875 
z
M 18.109375 46.390625 
Q 20.953125 51.265625 25.265625 53.625 
Q 29.59375 56 35.59375 56 
Q 45.5625 56 51.78125 48.09375 
Q 58.015625 40.1875 58.015625 27.296875 
Q 58.015625 14.40625 51.78125 6.484375 
Q 45.5625 -1.421875 35.59375 -1.421875 
Q 29.59375 -1.421875 25.265625 0.953125 
Q 20.953125 3.328125 18.109375 8.203125 
L 18.109375 0 
L 9.078125 0 
L 9.078125 75.984375 
L 18.109375 75.984375 
z
" id="DejaVuSans-98"/>
     <path d="M 45.40625 46.390625 
L 45.40625 75.984375 
L 54.390625 75.984375 
L 54.390625 0 
L 45.40625 0 
L 45.40625 8.203125 
Q 42.578125 3.328125 38.25 0.953125 
Q 33.9375 -1.421875 27.875 -1.421875 
Q 17.96875 -1.421875 11.734375 6.484375 
Q 5.515625 14.40625 5.515625 27.296875 
Q 5.515625 40.1875 11.734375 48.09375 
Q 17.96875 56 27.875 56 
Q 33.9375 56 38.25 53.625 
Q 42.578125 51.265625 45.40625 46.390625 
z
M 14.796875 27.296875 
Q 14.796875 17.390625 18.875 11.75 
Q 22.953125 6.109375 30.078125 6.109375 
Q 37.203125 6.109375 41.296875 11.75 
Q 45.40625 17.390625 45.40625 27.296875 
Q 45.40625 37.203125 41.296875 42.84375 
Q 37.203125 48.484375 30.078125 48.484375 
Q 22.953125 48.484375 18.875 42.84375 
Q 14.796875 37.203125 14.796875 27.296875 
z
" id="DejaVuSans-100"/>
     <path d="M 8.5 21.578125 
L 8.5 54.6875 
L 17.484375 54.6875 
L 17.484375 21.921875 
Q 17.484375 14.15625 20.5 10.265625 
Q 23.53125 6.390625 29.59375 6.390625 
Q 36.859375 6.390625 41.078125 11.03125 
Q 45.3125 15.671875 45.3125 23.6875 
L 45.3125 54.6875 
L 54.296875 54.6875 
L 54.296875 0 
L 45.3125 0 
L 45.3125 8.40625 
Q 42.046875 3.421875 37.71875 1 
Q 33.40625 -1.421875 27.6875 -1.421875 
Q 18.265625 -1.421875 13.375 4.4375 
Q 8.5 10.296875 8.5 21.578125 
z
M 31.109375 56 
z
" id="DejaVuSans-117"/>
     <path d="M 48.78125 52.59375 
L 48.78125 44.1875 
Q 44.96875 46.296875 41.140625 47.34375 
Q 37.3125 48.390625 33.40625 48.390625 
Q 24.65625 48.390625 19.8125 42.84375 
Q 14.984375 37.3125 14.984375 27.296875 
Q 14.984375 17.28125 19.8125 11.734375 
Q 24.65625 6.203125 33.40625 6.203125 
Q 37.3125 6.203125 41.140625 7.25 
Q 44.96875 8.296875 48.78125 10.40625 
L 48.78125 2.09375 
Q 45.015625 0.34375 40.984375 -0.53125 
Q 36.96875 -1.421875 32.421875 -1.421875 
Q 20.0625 -1.421875 12.78125 6.34375 
Q 5.515625 14.109375 5.515625 27.296875 
Q 5.515625 40.671875 12.859375 48.328125 
Q 20.21875 56 33.015625 56 
Q 37.15625 56 41.109375 55.140625 
Q 45.0625 54.296875 48.78125 52.59375 
z
" id="DejaVuSans-99"/>
     <path d="M 30.609375 48.390625 
Q 23.390625 48.390625 19.1875 42.75 
Q 14.984375 37.109375 14.984375 27.296875 
Q 14.984375 17.484375 19.15625 11.84375 
Q 23.34375 6.203125 30.609375 6.203125 
Q 37.796875 6.203125 41.984375 11.859375 
Q 46.1875 17.53125 46.1875 27.296875 
Q 46.1875 37.015625 41.984375 42.703125 
Q 37.796875 48.390625 30.609375 48.390625 
z
M 30.609375 56 
Q 42.328125 56 49.015625 48.375 
Q 55.71875 40.765625 55.71875 27.296875 
Q 55.71875 13.875 49.015625 6.21875 
Q 42.328125 -1.421875 30.609375 -1.421875 
Q 18.84375 -1.421875 12.171875 6.21875 
Q 5.515625 13.875 5.515625 27.296875 
Q 5.515625 40.765625 12.171875 48.375 
Q 18.84375 56 30.609375 56 
z
" id="DejaVuSans-111"/>
     <path d="M 54.890625 33.015625 
L 54.890625 0 
L 45.90625 0 
L 45.90625 32.71875 
Q 45.90625 40.484375 42.875 44.328125 
Q 39.84375 48.1875 33.796875 48.1875 
Q 26.515625 48.1875 22.3125 43.546875 
Q 18.109375 38.921875 18.109375 30.90625 
L 18.109375 0 
L 9.078125 0 
L 9.078125 54.6875 
L 18.109375 54.6875 
L 18.109375 46.1875 
Q 21.34375 51.125 25.703125 53.5625 
Q 30.078125 56 35.796875 56 
Q 45.21875 56 50.046875 50.171875 
Q 54.890625 44.34375 54.890625 33.015625 
z
" id="DejaVuSans-110"/>
    </defs>
    <g transform="translate(368.694972 78.9312)scale(0.12 -0.12)">
     <use xlink:href="#DejaVuSans-82"/>
     <use x="69.482422" xlink:href="#DejaVuSans-105"/>
     <use x="97.265625" xlink:href="#DejaVuSans-103"/>
     <use x="160.742188" xlink:href="#DejaVuSans-104"/>
     <use x="224.121094" xlink:href="#DejaVuSans-116"/>
     <use x="263.330078" xlink:href="#DejaVuSans-32"/>
     <use x="295.117188" xlink:href="#DejaVuSans-97"/>
     <use x="356.396484" xlink:href="#DejaVuSans-98"/>
     <use x="419.873047" xlink:href="#DejaVuSans-100"/>
     <use x="483.349609" xlink:href="#DejaVuSans-117"/>
     <use x="546.728516" xlink:href="#DejaVuSans-99"/>
     <use x="601.708984" xlink:href="#DejaVuSans-116"/>
     <use x="640.917969" xlink:href="#DejaVuSans-105"/>
     <use x="668.701172" xlink:href="#DejaVuSans-111"/>
     <use x="729.882812" xlink:href="#DejaVuSans-110"/>
    </g>
   </g>
  </g>
  <g id="axes_2">
   <g id="patch_7">
    <path d="M 757.178182 629.9064 
L 1244.16 629.9064 
L 1244.16 84.9312 
L 757.178182 84.9312 
z
" style="fill:#ffffff;"/>
   </g>
   <g id="matplotlib.axis_3">
    <g id="xtick_9">
     <g id="line2d_20">
      <g>
       <use style="stroke:#000000;stroke-width:0.8;" x="779.313719" xlink:href="#m7a676f000c" y="629.9064"/>
      </g>
     </g>
     <g id="text_17">
      <!-- 0 -->
      <g transform="translate(776.132469 644.504838)scale(0.1 -0.1)">
       <use xlink:href="#DejaVuSans-48"/>
      </g>
     </g>
    </g>
    <g id="xtick_10">
     <g id="line2d_21">
      <g>
       <use style="stroke:#000000;stroke-width:0.8;" x="840.801322" xlink:href="#m7a676f000c" y="629.9064"/>
      </g>
     </g>
     <g id="text_18">
      <!-- 100 -->
      <g transform="translate(831.257572 644.504838)scale(0.1 -0.1)">
       <use xlink:href="#DejaVuSans-49"/>
       <use x="63.623047" xlink:href="#DejaVuSans-48"/>
       <use x="127.246094" xlink:href="#DejaVuSans-48"/>
      </g>
     </g>
    </g>
    <g id="xtick_11">
     <g id="line2d_22">
      <g>
       <use style="stroke:#000000;stroke-width:0.8;" x="902.288926" xlink:href="#m7a676f000c" y="629.9064"/>
      </g>
     </g>
     <g id="text_19">
      <!-- 200 -->
      <g transform="translate(892.745176 644.504838)scale(0.1 -0.1)">
       <use xlink:href="#DejaVuSans-50"/>
       <use x="63.623047" xlink:href="#DejaVuSans-48"/>
       <use x="127.246094" xlink:href="#DejaVuSans-48"/>
      </g>
     </g>
    </g>
    <g id="xtick_12">
     <g id="line2d_23">
      <g>
       <use style="stroke:#000000;stroke-width:0.8;" x="963.776529" xlink:href="#m7a676f000c" y="629.9064"/>
      </g>
     </g>
     <g id="text_20">
      <!-- 300 -->
      <g transform="translate(954.232779 644.504838)scale(0.1 -0.1)">
       <use xlink:href="#DejaVuSans-51"/>
       <use x="63.623047" xlink:href="#DejaVuSans-48"/>
       <use x="127.246094" xlink:href="#DejaVuSans-48"/>
      </g>
     </g>
    </g>
    <g id="xtick_13">
     <g id="line2d_24">
      <g>
       <use style="stroke:#000000;stroke-width:0.8;" x="1025.264132" xlink:href="#m7a676f000c" y="629.9064"/>
      </g>
     </g>
     <g id="text_21">
      <!-- 400 -->
      <g transform="translate(1015.720382 644.504838)scale(0.1 -0.1)">
       <use xlink:href="#DejaVuSans-52"/>
       <use x="63.623047" xlink:href="#DejaVuSans-48"/>
       <use x="127.246094" xlink:href="#DejaVuSans-48"/>
      </g>
     </g>
    </g>
    <g id="xtick_14">
     <g id="line2d_25">
      <g>
       <use style="stroke:#000000;stroke-width:0.8;" x="1086.751736" xlink:href="#m7a676f000c" y="629.9064"/>
      </g>
     </g>
     <g id="text_22">
      <!-- 500 -->
      <g transform="translate(1077.207986 644.504838)scale(0.1 -0.1)">
       <use xlink:href="#DejaVuSans-53"/>
       <use x="63.623047" xlink:href="#DejaVuSans-48"/>
       <use x="127.246094" xlink:href="#DejaVuSans-48"/>
      </g>
     </g>
    </g>
    <g id="xtick_15">
     <g id="line2d_26">
      <g>
       <use style="stroke:#000000;stroke-width:0.8;" x="1148.239339" xlink:href="#m7a676f000c" y="629.9064"/>
      </g>
     </g>
     <g id="text_23">
      <!-- 600 -->
      <g transform="translate(1138.695589 644.504838)scale(0.1 -0.1)">
       <use xlink:href="#DejaVuSans-54"/>
       <use x="63.623047" xlink:href="#DejaVuSans-48"/>
       <use x="127.246094" xlink:href="#DejaVuSans-48"/>
      </g>
     </g>
    </g>
    <g id="xtick_16">
     <g id="line2d_27">
      <g>
       <use style="stroke:#000000;stroke-width:0.8;" x="1209.726942" xlink:href="#m7a676f000c" y="629.9064"/>
      </g>
     </g>
     <g id="text_24">
      <!-- 700 -->
      <g transform="translate(1200.183192 644.504838)scale(0.1 -0.1)">
       <use xlink:href="#DejaVuSans-55"/>
       <use x="63.623047" xlink:href="#DejaVuSans-48"/>
       <use x="127.246094" xlink:href="#DejaVuSans-48"/>
      </g>
     </g>
    </g>
   </g>
   <g id="matplotlib.axis_4">
    <g id="ytick_8">
     <g id="line2d_28">
      <g>
       <use style="stroke:#000000;stroke-width:0.8;" x="757.178182" xlink:href="#m8486ffe902" y="595.223781"/>
      </g>
     </g>
     <g id="text_25">
      <!-- −0.6 -->
      <g transform="translate(725.895369 599.023)scale(0.1 -0.1)">
       <use xlink:href="#DejaVuSans-8722"/>
       <use x="83.789062" xlink:href="#DejaVuSans-48"/>
       <use x="147.412109" xlink:href="#DejaVuSans-46"/>
       <use x="179.199219" xlink:href="#DejaVuSans-54"/>
      </g>
     </g>
    </g>
    <g id="ytick_9">
     <g id="line2d_29">
      <g>
       <use style="stroke:#000000;stroke-width:0.8;" x="757.178182" xlink:href="#m8486ffe902" y="513.715209"/>
      </g>
     </g>
     <g id="text_26">
      <!-- −0.4 -->
      <g transform="translate(725.895369 517.514427)scale(0.1 -0.1)">
       <use xlink:href="#DejaVuSans-8722"/>
       <use x="83.789062" xlink:href="#DejaVuSans-48"/>
       <use x="147.412109" xlink:href="#DejaVuSans-46"/>
       <use x="179.199219" xlink:href="#DejaVuSans-52"/>
      </g>
     </g>
    </g>
    <g id="ytick_10">
     <g id="line2d_30">
      <g>
       <use style="stroke:#000000;stroke-width:0.8;" x="757.178182" xlink:href="#m8486ffe902" y="432.206637"/>
      </g>
     </g>
     <g id="text_27">
      <!-- −0.2 -->
      <g transform="translate(725.895369 436.005855)scale(0.1 -0.1)">
       <use xlink:href="#DejaVuSans-8722"/>
       <use x="83.789062" xlink:href="#DejaVuSans-48"/>
       <use x="147.412109" xlink:href="#DejaVuSans-46"/>
       <use x="179.199219" xlink:href="#DejaVuSans-50"/>
      </g>
     </g>
    </g>
    <g id="ytick_11">
     <g id="line2d_31">
      <g>
       <use style="stroke:#000000;stroke-width:0.8;" x="757.178182" xlink:href="#m8486ffe902" y="350.698064"/>
      </g>
     </g>
     <g id="text_28">
      <!-- 0.0 -->
      <g transform="translate(734.275057 354.497283)scale(0.1 -0.1)">
       <use xlink:href="#DejaVuSans-48"/>
       <use x="63.623047" xlink:href="#DejaVuSans-46"/>
       <use x="95.410156" xlink:href="#DejaVuSans-48"/>
      </g>
     </g>
    </g>
    <g id="ytick_12">
     <g id="line2d_32">
      <g>
       <use style="stroke:#000000;stroke-width:0.8;" x="757.178182" xlink:href="#m8486ffe902" y="269.189492"/>
      </g>
     </g>
     <g id="text_29">
      <!-- 0.2 -->
      <g transform="translate(734.275057 272.988711)scale(0.1 -0.1)">
       <use xlink:href="#DejaVuSans-48"/>
       <use x="63.623047" xlink:href="#DejaVuSans-46"/>
       <use x="95.410156" xlink:href="#DejaVuSans-50"/>
      </g>
     </g>
    </g>
    <g id="ytick_13">
     <g id="line2d_33">
      <g>
       <use style="stroke:#000000;stroke-width:0.8;" x="757.178182" xlink:href="#m8486ffe902" y="187.68092"/>
      </g>
     </g>
     <g id="text_30">
      <!-- 0.4 -->
      <g transform="translate(734.275057 191.480139)scale(0.1 -0.1)">
       <use xlink:href="#DejaVuSans-48"/>
       <use x="63.623047" xlink:href="#DejaVuSans-46"/>
       <use x="95.410156" xlink:href="#DejaVuSans-52"/>
      </g>
     </g>
    </g>
    <g id="ytick_14">
     <g id="line2d_34">
      <g>
       <use style="stroke:#000000;stroke-width:0.8;" x="757.178182" xlink:href="#m8486ffe902" y="106.172348"/>
      </g>
     </g>
     <g id="text_31">
      <!-- 0.6 -->
      <g transform="translate(734.275057 109.971567)scale(0.1 -0.1)">
       <use xlink:href="#DejaVuSans-48"/>
       <use x="63.623047" xlink:href="#DejaVuSans-46"/>
       <use x="95.410156" xlink:href="#DejaVuSans-54"/>
      </g>
     </g>
    </g>
   </g>
   <g id="line2d_35">
    <path clip-path="url(#pde16693a2c)" d="M 779.313719 345.00696 
L 779.928595 347.544019 
L 780.543471 354.744771 
L 781.158347 356.71994 
L 782.388099 346.486144 
L 783.002975 349.346304 
L 783.617851 355.833619 
L 784.232727 357.038605 
L 784.847603 351.731401 
L 785.462479 347.71756 
L 786.077355 350.347994 
L 786.692231 355.174148 
L 787.307107 354.735519 
L 787.921983 349.472252 
L 788.53686 346.841757 
L 789.766612 354.261879 
L 790.381488 352.759208 
L 790.996364 347.83602 
L 791.61124 346.38307 
L 792.226116 349.892077 
L 792.840992 352.588118 
L 793.455868 350.243375 
L 794.070744 346.379 
L 794.68562 346.669289 
L 795.300496 350.503047 
L 795.915372 352.105991 
L 797.145124 346.579304 
L 797.76 348.018292 
L 798.374876 351.384653 
L 798.989752 351.723191 
L 799.604628 348.959721 
L 800.219504 347.73097 
L 801.449256 352.696812 
L 802.064132 351.87884 
L 802.679008 349.385562 
L 803.293884 349.362986 
L 803.90876 351.910029 
L 804.523636 353.147042 
L 805.753388 349.701478 
L 806.368264 350.863498 
L 806.98314 353.030278 
L 807.598017 352.78615 
L 808.212893 350.659863 
L 808.827769 350.090059 
L 809.442645 351.828317 
L 810.057521 352.862847 
L 811.287273 349.913499 
L 811.902149 350.656296 
L 812.517025 352.253166 
L 813.131901 351.916327 
L 813.746777 350.20672 
L 814.361653 349.894071 
L 814.976529 351.291717 
L 815.591405 351.853504 
L 816.206281 350.58792 
L 816.821157 349.657163 
L 818.050909 351.601639 
L 818.665785 351.004168 
L 819.280661 349.852277 
L 819.895537 350.135294 
L 820.510413 351.293823 
L 821.125289 351.276915 
L 821.740165 350.220211 
L 822.355041 350.046653 
L 822.969917 351.062237 
L 823.584793 351.471055 
L 824.199669 350.656796 
L 824.814545 350.210227 
L 826.044298 351.586302 
L 827.27405 350.429118 
L 827.888926 350.936099 
L 828.503802 351.62092 
L 829.118678 351.264624 
L 829.733554 350.636196 
L 830.34843 350.957514 
L 830.963306 351.628711 
L 831.578182 351.412923 
L 832.193058 350.816945 
L 832.807934 350.964955 
L 833.42281 351.542433 
L 834.037686 351.432385 
L 834.652562 350.91218 
L 835.267438 351.003032 
L 835.882314 351.453906 
L 836.49719 351.393596 
L 837.112066 350.957051 
L 837.726942 350.998068 
L 838.341818 351.399274 
L 838.956694 351.315245 
L 839.57157 350.928897 
L 840.186446 351.009109 
L 840.801322 351.353222 
L 841.416198 351.242484 
L 842.031074 350.910214 
L 842.64595 351.029887 
L 843.260826 351.311963 
L 844.490579 350.882491 
L 845.720331 351.264571 
L 846.950083 350.895501 
L 848.179835 351.237643 
L 848.794711 351.005985 
L 849.409587 350.929809 
L 850.024463 351.154383 
L 850.639339 351.162333 
L 851.254215 350.941365 
L 851.869091 350.979681 
L 852.483967 351.176502 
L 853.713719 350.938712 
L 854.943471 351.186959 
L 856.173223 350.970789 
L 856.788099 351.134951 
L 857.402975 351.138744 
L 858.017851 350.978416 
L 859.862479 351.063289 
L 860.477355 350.96421 
L 861.707107 351.12502 
L 862.321983 350.995363 
L 862.93686 350.985749 
L 863.551736 351.097919 
L 865.396364 351.005714 
L 866.01124 351.059236 
L 867.240992 350.921744 
L 868.470744 350.984523 
L 869.08562 350.889954 
L 870.930248 350.895145 
L 872.16 350.894265 
L 875.23438 350.803082 
L 876.464132 350.767497 
L 878.923636 350.717982 
L 889.376529 350.495601 
L 892.450909 350.499932 
L 893.680661 350.460134 
L 895.525289 350.452509 
L 898.599669 350.500203 
L 906.593058 350.54708 
L 911.512066 350.664809 
L 916.431074 350.795743 
L 923.809587 350.93494 
L 952.093884 351.098322 
L 957.627769 351.092361 
L 969.925289 351.055178 
L 992.060826 350.962009 
L 999.439339 350.888535 
L 1000.669091 350.882225 
L 1003.128595 350.813729 
L 1061.541818 350.960501 
L 1072.609587 351.026635 
L 1074.454215 351.041549 
L 1083.062479 351.010747 
L 1110.731901 350.845708 
L 1116.880661 350.831962 
L 1139.631074 350.973254 
L 1145.779835 351.088644 
L 1149.469091 351.140869 
L 1150.083967 351.419691 
L 1151.313719 351.126265 
L 1152.543471 351.504087 
L 1154.388099 351.129872 
L 1155.002975 351.291016 
L 1156.847603 351.123567 
L 1157.462479 351.337069 
L 1158.077355 351.378803 
L 1159.307107 351.306627 
L 1160.53686 351.480482 
L 1162.381488 351.3482 
L 1163.61124 351.369559 
L 1164.840992 351.355791 
L 1166.070744 351.466544 
L 1167.915372 351.42725 
L 1169.145124 351.370728 
L 1170.374876 351.30743 
L 1172.219504 351.30185 
L 1190.050909 351.248073 
L 1191.895537 351.281709 
L 1193.740165 351.311589 
L 1201.118678 351.319409 
L 1221.409587 350.47258 
L 1221.409587 350.47258 
" style="fill:none;stroke:#ff796c;stroke-linecap:square;stroke-width:1.5;"/>
   </g>
   <g id="line2d_36">
    <path clip-path="url(#pde16693a2c)" d="M 779.313719 350.698064 
L 779.928595 350.373722 
L 780.543471 356.652715 
L 781.158347 364.767785 
L 781.773223 366.409593 
L 783.002975 356.810227 
L 783.617851 357.90316 
L 784.232727 360.02726 
L 784.847603 356.109869 
L 786.077355 337.931538 
L 786.692231 334.356083 
L 787.307107 331.745796 
L 787.921983 324.910902 
L 788.53686 315.349575 
L 789.151736 309.111561 
L 789.766612 308.111351 
L 790.381488 307.54361 
L 790.996364 303.194275 
L 791.61124 297.562028 
L 792.226116 295.980547 
L 793.455868 301.936373 
L 794.070744 302.10832 
L 794.68562 302.630525 
L 795.300496 307.383587 
L 795.915372 315.061138 
L 796.530248 321.091349 
L 797.145124 324.33664 
L 797.76 328.309458 
L 799.604628 349.754455 
L 800.219504 353.399059 
L 800.83438 358.116425 
L 802.064132 370.688813 
L 802.679008 373.416629 
L 803.293884 374.571106 
L 803.90876 376.934125 
L 804.523636 380.206209 
L 805.138512 381.709925 
L 805.753388 380.725861 
L 806.368264 379.509336 
L 807.598017 379.769789 
L 808.212893 377.770653 
L 808.827769 374.410346 
L 809.442645 372.008606 
L 810.057521 370.855454 
L 810.672397 369.011659 
L 811.902149 362.535366 
L 812.517025 360.963893 
L 813.131901 359.891098 
L 813.746777 357.696338 
L 814.361653 354.970627 
L 814.976529 353.447297 
L 815.591405 353.131181 
L 816.206281 352.425461 
L 816.821157 350.899191 
L 817.436033 349.945532 
L 818.050909 350.272217 
L 818.665785 350.740251 
L 819.895537 349.90683 
L 820.510413 350.451328 
L 821.125289 351.490452 
L 821.740165 351.81916 
L 822.355041 351.673425 
L 822.969917 352.125084 
L 823.584793 353.193585 
L 824.199669 353.774401 
L 824.814545 353.624007 
L 825.429421 353.691286 
L 826.044298 354.316701 
L 826.659174 354.670931 
L 827.888926 353.753775 
L 829.118678 353.704407 
L 829.733554 352.920711 
L 830.34843 351.92954 
L 831.578182 350.842841 
L 832.193058 349.699834 
L 832.807934 348.288439 
L 834.652562 344.985134 
L 835.267438 343.402289 
L 837.112066 339.62239 
L 838.341818 336.727614 
L 838.956694 335.604391 
L 840.801322 331.557581 
L 842.031074 329.257227 
L 842.64595 327.944529 
L 845.720331 322.955878 
L 846.950083 321.227656 
L 847.564959 320.344213 
L 848.794711 318.9959 
L 850.024463 317.431266 
L 851.254215 316.252666 
L 851.869091 315.546682 
L 854.328595 313.470531 
L 855.558347 312.658372 
L 856.788099 311.634917 
L 858.017851 310.832512 
L 859.247603 309.940075 
L 860.477355 309.172105 
L 861.707107 308.459688 
L 865.396364 306.55163 
L 867.855868 305.81911 
L 870.315372 305.659122 
L 872.16 305.925208 
L 874.004628 306.644148 
L 875.23438 307.42568 
L 876.464132 308.34565 
L 878.30876 310.244702 
L 879.538512 311.834296 
L 881.38314 314.620628 
L 883.227769 317.944143 
L 885.687273 323.15403 
L 888.146777 329.073504 
L 891.836033 338.758874 
L 903.518678 371.002507 
L 906.593058 378.674916 
L 909.052562 384.241416 
L 910.89719 387.979381 
L 912.741818 391.266757 
L 915.201322 395.019978 
L 916.431074 396.518013 
L 917.660826 397.71291 
L 918.890579 398.581057 
L 920.120331 399.242487 
L 921.964959 399.910355 
L 923.194711 400.098283 
L 924.424463 400.06316 
L 925.654215 399.803469 
L 926.883967 399.326992 
L 928.113719 398.684896 
L 929.958347 397.414074 
L 931.802975 395.807422 
L 933.647603 393.899406 
L 936.107107 390.99578 
L 939.181488 386.932018 
L 942.255868 382.474461 
L 950.249256 369.417717 
L 969.925289 335.567196 
L 973.614545 329.842999 
L 976.688926 325.472151 
L 982.22281 317.717665 
L 984.682314 315.048528 
L 988.986446 310.59854 
L 990.831074 309.162305 
L 993.290579 307.59387 
L 995.750083 306.345338 
L 997.594711 305.733549 
L 999.439339 305.422262 
L 1001.898843 305.305517 
L 1003.743471 305.560269 
L 1005.588099 306.206003 
L 1008.662479 307.532083 
L 1011.121983 308.812764 
L 1014.196364 310.847991 
L 1017.88562 313.55164 
L 1020.96 316.063967 
L 1028.338512 322.327685 
L 1030.18314 323.566471 
L 1032.642645 324.950534 
L 1035.102149 326.105362 
L 1038.176529 327.296859 
L 1041.865785 328.50869 
L 1044.325289 329.121847 
L 1046.784793 329.529969 
L 1049.244298 329.671749 
L 1051.088926 329.575305 
L 1052.933554 329.298819 
L 1054.778182 328.843361 
L 1057.237686 328.001321 
L 1060.926942 326.482543 
L 1062.77157 325.513523 
L 1064.616198 324.298717 
L 1066.460826 322.782194 
L 1068.920331 320.378987 
L 1077.528595 311.090779 
L 1080.602975 307.708693 
L 1083.677355 304.792664 
L 1089.21124 299.912416 
L 1095.974876 294.349954 
L 1099.049256 292.169283 
L 1101.50876 290.741205 
L 1103.353388 289.900192 
L 1105.198017 289.297531 
L 1107.042645 288.955726 
L 1108.887273 288.883712 
L 1110.731901 289.05808 
L 1111.961653 289.326946 
L 1113.191405 289.797552 
L 1114.421157 290.481313 
L 1116.265785 291.770519 
L 1119.340165 294.209677 
L 1121.799669 296.471415 
L 1124.259174 299.0689 
L 1127.94843 303.28896 
L 1136.556694 313.669149 
L 1139.631074 316.805918 
L 1142.090579 318.9613 
L 1143.935207 320.32859 
L 1145.779835 321.461425 
L 1147.624463 322.360115 
L 1149.469091 323.015771 
L 1150.083967 323.17007 
L 1151.313719 321.977041 
L 1152.543471 320.865016 
L 1153.158347 320.348218 
L 1154.388099 318.898597 
L 1155.002975 318.39508 
L 1156.847603 317.417828 
L 1158.692231 317.261127 
L 1159.921983 316.716836 
L 1160.53686 316.369115 
L 1161.151736 315.88066 
L 1164.226116 312.531433 
L 1167.300496 309.058207 
L 1170.989752 304.154941 
L 1172.83438 302.407068 
L 1174.679008 301.128112 
L 1175.90876 300.41995 
L 1177.138512 299.993028 
L 1178.368264 299.855645 
L 1179.598017 300.024389 
L 1181.442645 300.608763 
L 1182.672397 301.162887 
L 1183.902149 301.870293 
L 1185.131901 302.791556 
L 1186.976529 304.551647 
L 1188.821157 306.672965 
L 1190.665785 309.208976 
L 1194.355041 315.069368 
L 1199.27405 323.252553 
L 1201.733554 326.859857 
L 1203.578182 329.166134 
L 1205.42281 331.088226 
L 1208.49719 333.81313 
L 1214.031074 338.26609 
L 1215.875702 340.04834 
L 1218.335207 342.650045 
L 1219.564959 343.506299 
L 1220.794711 343.953642 
L 1221.409587 344.071836 
L 1222.024463 344.075844 
L 1222.024463 344.075844 
" style="fill:none;stroke:#e50000;stroke-linecap:square;stroke-width:1.5;"/>
   </g>
   <g id="line2d_37">
    <path clip-path="url(#pde16693a2c)" d="M 779.313719 137.309122 
L 783.617851 137.408648 
L 787.921983 137.707135 
L 792.226116 138.204304 
L 796.530248 138.899691 
L 801.449256 139.936294 
L 806.368264 141.229678 
L 811.287273 142.778266 
L 816.206281 144.580174 
L 821.125289 146.633204 
L 826.044298 148.934855 
L 830.963306 151.482324 
L 835.882314 154.272507 
L 840.801322 157.302004 
L 846.335207 160.991637 
L 851.869091 164.973783 
L 857.402975 169.242302 
L 862.93686 173.790613 
L 868.470744 178.611703 
L 874.619504 184.279339 
L 880.768264 190.263763 
L 886.917025 196.553582 
L 893.680661 203.810809 
L 900.444298 211.406351 
L 907.207934 219.322713 
L 914.586446 228.303195 
L 922.579835 238.409832 
L 930.573223 248.877661 
L 939.181488 260.516 
L 948.404628 273.357795 
L 958.857521 288.309176 
L 970.540165 305.421695 
L 985.29719 327.467077 
L 1036.331901 404.126389 
L 1048.014545 421.050403 
L 1057.852562 434.932039 
L 1067.075702 447.574617 
L 1075.683967 459.001139 
L 1083.677355 469.250609 
L 1091.055868 478.373918 
L 1098.43438 487.147277 
L 1105.198017 494.861545 
L 1111.961653 502.243771 
L 1118.725289 509.276953 
L 1124.87405 515.354219 
L 1131.02281 521.118052 
L 1137.17157 526.557481 
L 1142.705455 531.16703 
L 1148.239339 535.49831 
L 1153.773223 539.544641 
L 1159.307107 543.299784 
L 1164.226116 546.388544 
L 1169.145124 549.238886 
L 1174.064132 551.847336 
L 1178.98314 554.210716 
L 1183.902149 556.326148 
L 1188.821157 558.191054 
L 1193.740165 559.803161 
L 1198.659174 561.160506 
L 1203.578182 562.261435 
L 1208.49719 563.104607 
L 1212.801322 563.630125 
L 1217.105455 563.957016 
L 1221.409587 564.084976 
L 1221.409587 564.084976 
" style="fill:none;stroke:#014d4e;stroke-linecap:square;stroke-width:1.5;"/>
   </g>
   <g id="line2d_38">
    <path clip-path="url(#pde16693a2c)" d="M 779.313719 137.633464 
L 779.928595 131.356503 
L 780.543471 123.247527 
L 781.158347 121.615875 
L 782.388099 131.24774 
L 783.002975 130.177149 
L 783.617851 128.079453 
L 784.232727 132.027307 
L 785.462479 150.278747 
L 786.077355 153.896845 
L 786.692231 156.553833 
L 787.307107 163.439484 
L 787.921983 173.055624 
L 788.53686 179.352507 
L 789.151736 180.41564 
L 789.766612 181.050356 
L 790.381488 185.470718 
L 790.996364 191.178042 
L 791.61124 192.838649 
L 792.840992 187.053214 
L 793.455868 186.972529 
L 794.070744 186.545628 
L 794.68562 181.891911 
L 795.300496 174.317743 
L 795.915372 168.394952 
L 796.530248 165.261115 
L 797.145124 161.403784 
L 798.989752 140.329418 
L 799.604628 136.816407 
L 800.219504 132.234655 
L 801.449256 119.945546 
L 802.064132 117.365389 
L 802.679008 116.362581 
L 803.293884 114.155239 
L 803.90876 111.042835 
L 804.523636 109.7028 
L 805.138512 110.854543 
L 805.753388 112.242741 
L 806.98314 112.337606 
L 807.598017 114.520379 
L 808.212893 118.068305 
L 808.827769 120.661641 
L 809.442645 122.010363 
L 810.057521 124.053697 
L 811.287273 130.940965 
L 811.902149 132.723865 
L 812.517025 134.012042 
L 813.131901 136.426134 
L 813.746777 139.375123 
L 814.361653 141.125673 
L 814.976529 141.672946 
L 815.591405 142.613758 
L 816.206281 144.379047 
L 816.821157 145.57565 
L 817.436033 145.495828 
L 818.050909 145.278572 
L 819.280661 146.625276 
L 819.895537 146.343271 
L 820.510413 145.570537 
L 821.125289 145.512108 
L 821.740165 145.932008 
L 822.355041 145.758393 
L 822.969917 144.971811 
L 823.584793 144.676783 
L 824.199669 145.116829 
L 824.814545 145.34306 
L 825.429421 145.015009 
L 826.044298 144.961989 
L 827.27405 146.493082 
L 828.503802 147.171708 
L 830.34843 150.47658 
L 830.963306 151.337548 
L 834.037686 158.910886 
L 835.267438 162.470223 
L 835.882314 163.934934 
L 840.186446 176.050836 
L 841.416198 179.138175 
L 842.64595 182.278598 
L 843.875702 185.134839 
L 845.105455 187.888418 
L 846.335207 190.462045 
L 847.564959 192.859556 
L 851.869091 200.65482 
L 853.098843 202.564667 
L 854.328595 204.464028 
L 855.558347 206.369163 
L 858.632727 210.987088 
L 859.862479 212.755598 
L 861.092231 214.482223 
L 865.396364 220.237129 
L 868.470744 223.615176 
L 869.700496 224.758303 
L 872.16 226.517225 
L 874.004628 227.400999 
L 875.849256 227.803652 
L 877.693884 227.686013 
L 878.923636 227.299607 
L 880.153388 226.736525 
L 881.38314 225.881693 
L 882.612893 224.873097 
L 884.457521 222.919194 
L 886.302149 220.565284 
L 888.146777 217.902686 
L 890.606281 214.055558 
L 893.065785 209.963096 
L 899.214545 199.581876 
L 902.903802 193.944409 
L 905.363306 190.626329 
L 907.207934 188.480228 
L 909.052562 186.690769 
L 910.282314 185.740894 
L 911.512066 184.985688 
L 912.741818 184.468866 
L 914.586446 183.981281 
L 915.816198 184.013288 
L 917.04595 184.357637 
L 918.275702 185.037822 
L 919.505455 185.933694 
L 921.350083 187.618336 
L 923.194711 189.785008 
L 925.039339 192.488369 
L 926.883967 195.674359 
L 928.728595 199.258552 
L 931.188099 204.587524 
L 933.647603 210.48111 
L 936.721983 218.433159 
L 940.41124 228.599728 
L 942.870744 235.827251 
L 949.63438 256.376622 
L 961.931901 295.451069 
L 969.925289 320.627692 
L 974.229421 333.530161 
L 982.22281 356.525196 
L 989.601322 375.034393 
L 992.675702 381.704645 
L 995.750083 387.835371 
L 998.209587 392.169012 
L 1001.283967 397.021694 
L 1003.128595 399.560011 
L 1005.588099 402.392425 
L 1009.892231 406.892177 
L 1012.351736 409.080412 
L 1017.270744 412.92567 
L 1020.345124 415.030163 
L 1028.338512 420.261031 
L 1030.798017 422.380091 
L 1033.872397 425.373807 
L 1037.561653 429.328392 
L 1041.865785 434.214892 
L 1045.555041 438.771641 
L 1048.629421 442.955072 
L 1051.703802 447.587177 
L 1054.778182 452.680709 
L 1059.69719 461.426662 
L 1062.77157 467.27812 
L 1065.231074 472.459431 
L 1068.305455 479.54919 
L 1081.217851 510.322841 
L 1084.907107 518.366111 
L 1091.055868 531.219231 
L 1097.204628 543.422147 
L 1100.279008 548.914684 
L 1102.738512 552.891729 
L 1105.198017 556.402706 
L 1107.042645 558.702767 
L 1108.887273 560.70864 
L 1110.731901 562.454078 
L 1111.961653 563.408041 
L 1113.191405 564.130786 
L 1115.036033 564.865726 
L 1117.495537 565.524419 
L 1119.340165 565.855026 
L 1121.184793 565.971393 
L 1123.029421 565.864087 
L 1125.488926 565.51077 
L 1128.563306 564.742374 
L 1135.941818 562.524969 
L 1139.016198 562.016633 
L 1141.475702 561.903255 
L 1143.320331 562.031626 
L 1145.164959 562.363444 
L 1147.009587 562.89815 
L 1148.854215 563.644385 
L 1149.469091 563.950341 
L 1153.158347 570.178561 
L 1154.388099 572.279353 
L 1156.232727 574.530134 
L 1158.692231 576.579311 
L 1159.921983 578.027742 
L 1161.151736 579.945824 
L 1164.840992 586.240705 
L 1166.070744 588.326847 
L 1170.989752 597.41931 
L 1172.83438 599.981591 
L 1175.293884 602.739388 
L 1176.523636 603.764883 
L 1177.753388 604.485429 
L 1178.98314 604.884392 
L 1180.827769 605.122506 
L 1182.057521 605.097266 
L 1183.287273 604.903141 
L 1184.517025 604.47952 
L 1185.746777 603.825717 
L 1186.976529 603.005837 
L 1188.821157 601.42987 
L 1190.050909 600.106951 
L 1193.125289 596.290587 
L 1199.888926 587.031158 
L 1201.733554 584.919535 
L 1203.578182 583.098155 
L 1205.42281 581.643656 
L 1207.882314 579.89828 
L 1212.186446 577.066895 
L 1214.64595 575.158002 
L 1217.105455 572.602823 
L 1218.335207 571.570759 
L 1219.564959 570.986318 
L 1220.794711 570.705111 
L 1221.409587 570.707196 
L 1221.409587 570.707196 
" style="fill:none;stroke:#ffff14;stroke-linecap:square;stroke-width:1.5;"/>
   </g>
   <g id="patch_8">
    <path d="M 757.178182 629.9064 
L 757.178182 84.9312 
" style="fill:none;stroke:#000000;stroke-linecap:square;stroke-linejoin:miter;stroke-width:0.8;"/>
   </g>
   <g id="patch_9">
    <path d="M 1244.16 629.9064 
L 1244.16 84.9312 
" style="fill:none;stroke:#000000;stroke-linecap:square;stroke-linejoin:miter;stroke-width:0.8;"/>
   </g>
   <g id="patch_10">
    <path d="M 757.178182 629.9064 
L 1244.16 629.9064 
" style="fill:none;stroke:#000000;stroke-linecap:square;stroke-linejoin:miter;stroke-width:0.8;"/>
   </g>
   <g id="patch_11">
    <path d="M 757.178182 84.9312 
L 1244.16 84.9312 
" style="fill:none;stroke:#000000;stroke-linecap:square;stroke-linejoin:miter;stroke-width:0.8;"/>
   </g>
   <g id="text_32">
    <!-- Left abduction -->
    <defs>
     <path d="M 9.8125 72.90625 
L 19.671875 72.90625 
L 19.671875 8.296875 
L 55.171875 8.296875 
L 55.171875 0 
L 9.8125 0 
z
" id="DejaVuSans-76"/>
     <path d="M 56.203125 29.59375 
L 56.203125 25.203125 
L 14.890625 25.203125 
Q 15.484375 15.921875 20.484375 11.0625 
Q 25.484375 6.203125 34.421875 6.203125 
Q 39.59375 6.203125 44.453125 7.46875 
Q 49.3125 8.734375 54.109375 11.28125 
L 54.109375 2.78125 
Q 49.265625 0.734375 44.1875 -0.34375 
Q 39.109375 -1.421875 33.890625 -1.421875 
Q 20.796875 -1.421875 13.15625 6.1875 
Q 5.515625 13.8125 5.515625 26.8125 
Q 5.515625 40.234375 12.765625 48.109375 
Q 20.015625 56 32.328125 56 
Q 43.359375 56 49.78125 48.890625 
Q 56.203125 41.796875 56.203125 29.59375 
z
M 47.21875 32.234375 
Q 47.125 39.59375 43.09375 43.984375 
Q 39.0625 48.390625 32.421875 48.390625 
Q 24.90625 48.390625 20.390625 44.140625 
Q 15.875 39.890625 15.1875 32.171875 
z
" id="DejaVuSans-101"/>
     <path d="M 37.109375 75.984375 
L 37.109375 68.5 
L 28.515625 68.5 
Q 23.6875 68.5 21.796875 66.546875 
Q 19.921875 64.59375 19.921875 59.515625 
L 19.921875 54.6875 
L 34.71875 54.6875 
L 34.71875 47.703125 
L 19.921875 47.703125 
L 19.921875 0 
L 10.890625 0 
L 10.890625 47.703125 
L 2.296875 47.703125 
L 2.296875 54.6875 
L 10.890625 54.6875 
L 10.890625 58.5 
Q 10.890625 67.625 15.140625 71.796875 
Q 19.390625 75.984375 28.609375 75.984375 
z
" id="DejaVuSans-102"/>
    </defs>
    <g transform="translate(957.375341 78.9312)scale(0.12 -0.12)">
     <use xlink:href="#DejaVuSans-76"/>
     <use x="55.697266" xlink:href="#DejaVuSans-101"/>
     <use x="117.220703" xlink:href="#DejaVuSans-102"/>
     <use x="152.410156" xlink:href="#DejaVuSans-116"/>
     <use x="191.619141" xlink:href="#DejaVuSans-32"/>
     <use x="223.40625" xlink:href="#DejaVuSans-97"/>
     <use x="284.685547" xlink:href="#DejaVuSans-98"/>
     <use x="348.162109" xlink:href="#DejaVuSans-100"/>
     <use x="411.638672" xlink:href="#DejaVuSans-117"/>
     <use x="475.017578" xlink:href="#DejaVuSans-99"/>
     <use x="529.998047" xlink:href="#DejaVuSans-116"/>
     <use x="569.207031" xlink:href="#DejaVuSans-105"/>
     <use x="596.990234" xlink:href="#DejaVuSans-111"/>
     <use x="658.171875" xlink:href="#DejaVuSans-110"/>
    </g>
   </g>
  </g>
 </g>
 <defs>
  <clipPath id="pd1bd3d3cc3">
   <rect height="544.9752" width="486.981818" x="172.8" y="84.9312"/>
  </clipPath>
  <clipPath id="pde16693a2c">
   <rect height="544.9752" width="486.981818" x="757.178182" y="84.9312"/>
  </clipPath>
 </defs>
</svg>
