<?xml version="1.0" encoding="utf-8" standalone="no"?>
<!DOCTYPE svg PUBLIC "-//W3C//DTD SVG 1.1//EN"
  "http://www.w3.org/Graphics/SVG/1.1/DTD/svg11.dtd">
<!-- Created with matplotlib (https://matplotlib.org/) -->
<svg height="707.76pt" version="1.1" viewBox="0 0 1382.4 707.76" width="1382.4pt" xmlns="http://www.w3.org/2000/svg" xmlns:xlink="http://www.w3.org/1999/xlink">
 <defs>
  <style type="text/css">
*{stroke-linecap:butt;stroke-linejoin:round;}
  </style>
 </defs>
 <g id="figure_1">
  <g id="patch_1">
   <path d="M 0 707.76 
L 1382.4 707.76 
L 1382.4 0 
L 0 0 
z
" style="fill:#ffffff;"/>
  </g>
  <g id="axes_1">
   <g id="patch_2">
    <path d="M 172.8 332.6472 
L 659.781818 332.6472 
L 659.781818 84.9312 
L 172.8 84.9312 
z
" style="fill:#ffffff;"/>
   </g>
   <g id="matplotlib.axis_1">
    <g id="xtick_1">
     <g id="line2d_1">
      <defs>
       <path d="M 0 0 
L 0 3.5 
" id="m8ce807c0fc" style="stroke:#000000;stroke-width:0.8;"/>
      </defs>
      <g>
       <use style="stroke:#000000;stroke-width:0.8;" x="194.935537" xlink:href="#m8ce807c0fc" y="332.6472"/>
      </g>
     </g>
     <g id="text_1">
      <!-- 0 -->
      <defs>
       <path d="M 31.78125 66.40625 
Q 24.171875 66.40625 20.328125 58.90625 
Q 16.5 51.421875 16.5 36.375 
Q 16.5 21.390625 20.328125 13.890625 
Q 24.171875 6.390625 31.78125 6.390625 
Q 39.453125 6.390625 43.28125 13.890625 
Q 47.125 21.390625 47.125 36.375 
Q 47.125 51.421875 43.28125 58.90625 
Q 39.453125 66.40625 31.78125 66.40625 
z
M 31.78125 74.21875 
Q 44.046875 74.21875 50.515625 64.515625 
Q 56.984375 54.828125 56.984375 36.375 
Q 56.984375 17.96875 50.515625 8.265625 
Q 44.046875 -1.421875 31.78125 -1.421875 
Q 19.53125 -1.421875 13.0625 8.265625 
Q 6.59375 17.96875 6.59375 36.375 
Q 6.59375 54.828125 13.0625 64.515625 
Q 19.53125 74.21875 31.78125 74.21875 
z
" id="DejaVuSans-48"/>
      </defs>
      <g transform="translate(191.754287 347.245637)scale(0.1 -0.1)">
       <use xlink:href="#DejaVuSans-48"/>
      </g>
     </g>
    </g>
    <g id="xtick_2">
     <g id="line2d_2">
      <g>
       <use style="stroke:#000000;stroke-width:0.8;" x="289.937843" xlink:href="#m8ce807c0fc" y="332.6472"/>
      </g>
     </g>
     <g id="text_2">
      <!-- 50 -->
      <defs>
       <path d="M 10.796875 72.90625 
L 49.515625 72.90625 
L 49.515625 64.59375 
L 19.828125 64.59375 
L 19.828125 46.734375 
Q 21.96875 47.46875 24.109375 47.828125 
Q 26.265625 48.1875 28.421875 48.1875 
Q 40.625 48.1875 47.75 41.5 
Q 54.890625 34.8125 54.890625 23.390625 
Q 54.890625 11.625 47.5625 5.09375 
Q 40.234375 -1.421875 26.90625 -1.421875 
Q 22.3125 -1.421875 17.546875 -0.640625 
Q 12.796875 0.140625 7.71875 1.703125 
L 7.71875 11.625 
Q 12.109375 9.234375 16.796875 8.0625 
Q 21.484375 6.890625 26.703125 6.890625 
Q 35.15625 6.890625 40.078125 11.328125 
Q 45.015625 15.765625 45.015625 23.390625 
Q 45.015625 31 40.078125 35.4375 
Q 35.15625 39.890625 26.703125 39.890625 
Q 22.75 39.890625 18.8125 39.015625 
Q 14.890625 38.140625 10.796875 36.28125 
z
" id="DejaVuSans-53"/>
      </defs>
      <g transform="translate(283.575343 347.245637)scale(0.1 -0.1)">
       <use xlink:href="#DejaVuSans-53"/>
       <use x="63.623047" xlink:href="#DejaVuSans-48"/>
      </g>
     </g>
    </g>
    <g id="xtick_3">
     <g id="line2d_3">
      <g>
       <use style="stroke:#000000;stroke-width:0.8;" x="384.940148" xlink:href="#m8ce807c0fc" y="332.6472"/>
      </g>
     </g>
     <g id="text_3">
      <!-- 100 -->
      <defs>
       <path d="M 12.40625 8.296875 
L 28.515625 8.296875 
L 28.515625 63.921875 
L 10.984375 60.40625 
L 10.984375 69.390625 
L 28.421875 72.90625 
L 38.28125 72.90625 
L 38.28125 8.296875 
L 54.390625 8.296875 
L 54.390625 0 
L 12.40625 0 
z
" id="DejaVuSans-49"/>
      </defs>
      <g transform="translate(375.396398 347.245637)scale(0.1 -0.1)">
       <use xlink:href="#DejaVuSans-49"/>
       <use x="63.623047" xlink:href="#DejaVuSans-48"/>
       <use x="127.246094" xlink:href="#DejaVuSans-48"/>
      </g>
     </g>
    </g>
    <g id="xtick_4">
     <g id="line2d_4">
      <g>
       <use style="stroke:#000000;stroke-width:0.8;" x="479.942454" xlink:href="#m8ce807c0fc" y="332.6472"/>
      </g>
     </g>
     <g id="text_4">
      <!-- 150 -->
      <g transform="translate(470.398704 347.245637)scale(0.1 -0.1)">
       <use xlink:href="#DejaVuSans-49"/>
       <use x="63.623047" xlink:href="#DejaVuSans-53"/>
       <use x="127.246094" xlink:href="#DejaVuSans-48"/>
      </g>
     </g>
    </g>
    <g id="xtick_5">
     <g id="line2d_5">
      <g>
       <use style="stroke:#000000;stroke-width:0.8;" x="574.944759" xlink:href="#m8ce807c0fc" y="332.6472"/>
      </g>
     </g>
     <g id="text_5">
      <!-- 200 -->
      <defs>
       <path d="M 19.1875 8.296875 
L 53.609375 8.296875 
L 53.609375 0 
L 7.328125 0 
L 7.328125 8.296875 
Q 12.9375 14.109375 22.625 23.890625 
Q 32.328125 33.6875 34.8125 36.53125 
Q 39.546875 41.84375 41.421875 45.53125 
Q 43.3125 49.21875 43.3125 52.78125 
Q 43.3125 58.59375 39.234375 62.25 
Q 35.15625 65.921875 28.609375 65.921875 
Q 23.96875 65.921875 18.8125 64.3125 
Q 13.671875 62.703125 7.8125 59.421875 
L 7.8125 69.390625 
Q 13.765625 71.78125 18.9375 73 
Q 24.125 74.21875 28.421875 74.21875 
Q 39.75 74.21875 46.484375 68.546875 
Q 53.21875 62.890625 53.21875 53.421875 
Q 53.21875 48.921875 51.53125 44.890625 
Q 49.859375 40.875 45.40625 35.40625 
Q 44.1875 33.984375 37.640625 27.21875 
Q 31.109375 20.453125 19.1875 8.296875 
z
" id="DejaVuSans-50"/>
      </defs>
      <g transform="translate(565.401009 347.245637)scale(0.1 -0.1)">
       <use xlink:href="#DejaVuSans-50"/>
       <use x="63.623047" xlink:href="#DejaVuSans-48"/>
       <use x="127.246094" xlink:href="#DejaVuSans-48"/>
      </g>
     </g>
    </g>
   </g>
   <g id="matplotlib.axis_2">
    <g id="ytick_1">
     <g id="line2d_6">
      <defs>
       <path d="M 0 0 
L -3.5 0 
" id="m5fd47eb750" style="stroke:#000000;stroke-width:0.8;"/>
      </defs>
      <g>
       <use style="stroke:#000000;stroke-width:0.8;" x="172.8" xlink:href="#m5fd47eb750" y="309.486371"/>
      </g>
     </g>
     <g id="text_6">
      <!-- −10 -->
      <defs>
       <path d="M 10.59375 35.5 
L 73.1875 35.5 
L 73.1875 27.203125 
L 10.59375 27.203125 
z
" id="DejaVuSans-8722"/>
      </defs>
      <g transform="translate(144.695312 313.28559)scale(0.1 -0.1)">
       <use xlink:href="#DejaVuSans-8722"/>
       <use x="83.789062" xlink:href="#DejaVuSans-49"/>
       <use x="147.412109" xlink:href="#DejaVuSans-48"/>
      </g>
     </g>
    </g>
    <g id="ytick_2">
     <g id="line2d_7">
      <g>
       <use style="stroke:#000000;stroke-width:0.8;" x="172.8" xlink:href="#m5fd47eb750" y="276.703167"/>
      </g>
     </g>
     <g id="text_7">
      <!-- −8 -->
      <defs>
       <path d="M 31.78125 34.625 
Q 24.75 34.625 20.71875 30.859375 
Q 16.703125 27.09375 16.703125 20.515625 
Q 16.703125 13.921875 20.71875 10.15625 
Q 24.75 6.390625 31.78125 6.390625 
Q 38.8125 6.390625 42.859375 10.171875 
Q 46.921875 13.96875 46.921875 20.515625 
Q 46.921875 27.09375 42.890625 30.859375 
Q 38.875 34.625 31.78125 34.625 
z
M 21.921875 38.8125 
Q 15.578125 40.375 12.03125 44.71875 
Q 8.5 49.078125 8.5 55.328125 
Q 8.5 64.0625 14.71875 69.140625 
Q 20.953125 74.21875 31.78125 74.21875 
Q 42.671875 74.21875 48.875 69.140625 
Q 55.078125 64.0625 55.078125 55.328125 
Q 55.078125 49.078125 51.53125 44.71875 
Q 48 40.375 41.703125 38.8125 
Q 48.828125 37.15625 52.796875 32.3125 
Q 56.78125 27.484375 56.78125 20.515625 
Q 56.78125 9.90625 50.3125 4.234375 
Q 43.84375 -1.421875 31.78125 -1.421875 
Q 19.734375 -1.421875 13.25 4.234375 
Q 6.78125 9.90625 6.78125 20.515625 
Q 6.78125 27.484375 10.78125 32.3125 
Q 14.796875 37.15625 21.921875 38.8125 
z
M 18.3125 54.390625 
Q 18.3125 48.734375 21.84375 45.5625 
Q 25.390625 42.390625 31.78125 42.390625 
Q 38.140625 42.390625 41.71875 45.5625 
Q 45.3125 48.734375 45.3125 54.390625 
Q 45.3125 60.0625 41.71875 63.234375 
Q 38.140625 66.40625 31.78125 66.40625 
Q 25.390625 66.40625 21.84375 63.234375 
Q 18.3125 60.0625 18.3125 54.390625 
z
" id="DejaVuSans-56"/>
      </defs>
      <g transform="translate(151.057812 280.502386)scale(0.1 -0.1)">
       <use xlink:href="#DejaVuSans-8722"/>
       <use x="83.789062" xlink:href="#DejaVuSans-56"/>
      </g>
     </g>
    </g>
    <g id="ytick_3">
     <g id="line2d_8">
      <g>
       <use style="stroke:#000000;stroke-width:0.8;" x="172.8" xlink:href="#m5fd47eb750" y="243.919963"/>
      </g>
     </g>
     <g id="text_8">
      <!-- −6 -->
      <defs>
       <path d="M 33.015625 40.375 
Q 26.375 40.375 22.484375 35.828125 
Q 18.609375 31.296875 18.609375 23.390625 
Q 18.609375 15.53125 22.484375 10.953125 
Q 26.375 6.390625 33.015625 6.390625 
Q 39.65625 6.390625 43.53125 10.953125 
Q 47.40625 15.53125 47.40625 23.390625 
Q 47.40625 31.296875 43.53125 35.828125 
Q 39.65625 40.375 33.015625 40.375 
z
M 52.59375 71.296875 
L 52.59375 62.3125 
Q 48.875 64.0625 45.09375 64.984375 
Q 41.3125 65.921875 37.59375 65.921875 
Q 27.828125 65.921875 22.671875 59.328125 
Q 17.53125 52.734375 16.796875 39.40625 
Q 19.671875 43.65625 24.015625 45.921875 
Q 28.375 48.1875 33.59375 48.1875 
Q 44.578125 48.1875 50.953125 41.515625 
Q 57.328125 34.859375 57.328125 23.390625 
Q 57.328125 12.15625 50.6875 5.359375 
Q 44.046875 -1.421875 33.015625 -1.421875 
Q 20.359375 -1.421875 13.671875 8.265625 
Q 6.984375 17.96875 6.984375 36.375 
Q 6.984375 53.65625 15.1875 63.9375 
Q 23.390625 74.21875 37.203125 74.21875 
Q 40.921875 74.21875 44.703125 73.484375 
Q 48.484375 72.75 52.59375 71.296875 
z
" id="DejaVuSans-54"/>
      </defs>
      <g transform="translate(151.057812 247.719181)scale(0.1 -0.1)">
       <use xlink:href="#DejaVuSans-8722"/>
       <use x="83.789062" xlink:href="#DejaVuSans-54"/>
      </g>
     </g>
    </g>
    <g id="ytick_4">
     <g id="line2d_9">
      <g>
       <use style="stroke:#000000;stroke-width:0.8;" x="172.8" xlink:href="#m5fd47eb750" y="211.136758"/>
      </g>
     </g>
     <g id="text_9">
      <!-- −4 -->
      <defs>
       <path d="M 37.796875 64.3125 
L 12.890625 25.390625 
L 37.796875 25.390625 
z
M 35.203125 72.90625 
L 47.609375 72.90625 
L 47.609375 25.390625 
L 58.015625 25.390625 
L 58.015625 17.1875 
L 47.609375 17.1875 
L 47.609375 0 
L 37.796875 0 
L 37.796875 17.1875 
L 4.890625 17.1875 
L 4.890625 26.703125 
z
" id="DejaVuSans-52"/>
      </defs>
      <g transform="translate(151.057812 214.935977)scale(0.1 -0.1)">
       <use xlink:href="#DejaVuSans-8722"/>
       <use x="83.789062" xlink:href="#DejaVuSans-52"/>
      </g>
     </g>
    </g>
    <g id="ytick_5">
     <g id="line2d_10">
      <g>
       <use style="stroke:#000000;stroke-width:0.8;" x="172.8" xlink:href="#m5fd47eb750" y="178.353554"/>
      </g>
     </g>
     <g id="text_10">
      <!-- −2 -->
      <g transform="translate(151.057812 182.152773)scale(0.1 -0.1)">
       <use xlink:href="#DejaVuSans-8722"/>
       <use x="83.789062" xlink:href="#DejaVuSans-50"/>
      </g>
     </g>
    </g>
    <g id="ytick_6">
     <g id="line2d_11">
      <g>
       <use style="stroke:#000000;stroke-width:0.8;" x="172.8" xlink:href="#m5fd47eb750" y="145.57035"/>
      </g>
     </g>
     <g id="text_11">
      <!-- 0 -->
      <g transform="translate(159.4375 149.369569)scale(0.1 -0.1)">
       <use xlink:href="#DejaVuSans-48"/>
      </g>
     </g>
    </g>
    <g id="ytick_7">
     <g id="line2d_12">
      <g>
       <use style="stroke:#000000;stroke-width:0.8;" x="172.8" xlink:href="#m5fd47eb750" y="112.787146"/>
      </g>
     </g>
     <g id="text_12">
      <!-- 2 -->
      <g transform="translate(159.4375 116.586365)scale(0.1 -0.1)">
       <use xlink:href="#DejaVuSans-50"/>
      </g>
     </g>
    </g>
   </g>
   <g id="line2d_13">
    <path clip-path="url(#p67b5813953)" d="M 194.935537 145.539089 
L 198.735629 145.903117 
L 202.535722 146.308514 
L 204.435768 146.326812 
L 212.035952 145.845528 
L 213.935998 145.971717 
L 219.636137 146.68539 
L 221.536183 146.7497 
L 225.336275 146.493066 
L 229.136367 146.256149 
L 231.036413 146.342206 
L 238.636598 147.156255 
L 242.43669 146.979501 
L 246.236782 146.775273 
L 248.136828 146.868439 
L 255.737013 147.806851 
L 257.637059 147.810283 
L 263.337197 147.508755 
L 265.237243 147.593987 
L 269.037336 148.102754 
L 272.837428 148.531959 
L 274.737474 148.547524 
L 280.437612 148.303633 
L 282.337658 148.414175 
L 286.137751 148.979512 
L 289.937843 149.466381 
L 293.737935 149.44434 
L 297.538027 149.370402 
L 299.438073 149.509911 
L 307.038258 150.525385 
L 310.83835 150.459061 
L 314.638442 150.405754 
L 316.538488 150.562912 
L 324.138673 151.581637 
L 331.738857 151.707827 
L 335.538949 152.330621 
L 339.339042 153.0242 
L 341.239088 153.20481 
L 346.939226 153.396345 
L 348.839272 153.612719 
L 352.639364 154.345446 
L 356.439457 155.009582 
L 360.239549 155.225263 
L 364.039641 155.472186 
L 367.839733 156.168609 
L 371.639825 157.004245 
L 375.439918 157.469028 
L 379.24001 157.797312 
L 381.140056 158.100219 
L 384.940148 159.008732 
L 388.74024 159.922758 
L 392.540333 160.442618 
L 396.340425 160.95125 
L 400.140517 161.848321 
L 403.940609 162.907078 
L 407.740702 163.659594 
L 411.540794 164.258413 
L 415.340886 165.182597 
L 422.94107 167.432733 
L 428.641209 168.601954 
L 432.441301 169.666883 
L 438.141439 171.46173 
L 441.941532 172.292317 
L 445.741624 173.093368 
L 449.541716 174.152035 
L 455.241854 175.932156 
L 464.742085 178.306803 
L 474.242315 181.407707 
L 483.742546 183.900253 
L 489.442684 185.558915 
L 493.242777 186.418522 
L 498.942915 187.526994 
L 510.343192 190.089443 
L 527.443607 192.65216 
L 531.243699 192.822385 
L 535.043791 192.861218 
L 536.943837 192.43513 
L 538.843883 192.237613 
L 542.643975 192.270915 
L 548.344114 192.585719 
L 550.24416 192.25578 
L 554.044252 191.328562 
L 555.944298 164.671694 
L 557.844344 262.492267 
L 559.74439 321.387382 
L 561.644437 287.134731 
L 563.544483 245.946491 
L 567.344575 129.769872 
L 569.244621 185.841138 
L 571.144667 291.909534 
L 573.044713 269.647094 
L 574.944759 171.163338 
L 576.844805 149.38745 
L 578.744852 162.339322 
L 580.644898 178.960897 
L 582.544944 260.125979 
L 584.44499 289.731486 
L 586.345036 225.426678 
L 588.245082 139.969411 
L 590.145128 156.082984 
L 592.045174 185.383672 
L 593.94522 194.00207 
L 595.845267 235.507031 
L 597.745313 231.526255 
L 599.645359 157.033992 
L 601.545405 96.191018 
L 603.445451 158.07503 
L 605.345497 239.307344 
L 607.245543 231.309176 
L 609.145589 183.949114 
L 611.045635 179.566935 
L 612.945682 172.97913 
L 614.845728 175.869287 
L 616.745774 242.945928 
L 618.64582 286.596359 
L 620.545866 223.285479 
L 622.445912 145.659829 
L 624.345958 184.76285 
L 626.246004 194.380769 
L 628.14605 152.817729 
L 631.946143 272.538935 
L 633.846189 190.802205 
L 635.746235 164.022102 
L 637.646281 211.568045 
L 637.646281 211.568045 
" style="fill:none;stroke:#ff796c;stroke-linecap:square;stroke-width:1.5;"/>
   </g>
   <g id="line2d_14">
    <path clip-path="url(#p67b5813953)" d="M 194.935537 139.189062 
L 212.035952 139.289227 
L 227.236321 139.559257 
L 248.136828 140.194757 
L 267.137289 140.976201 
L 288.037797 142.018316 
L 308.938304 143.242284 
L 350.739318 146.062422 
L 375.439918 147.908567 
L 443.841578 153.143468 
L 466.642131 154.741994 
L 500.842961 156.819223 
L 531.243699 158.416816 
L 555.944298 159.654094 
L 557.844344 159.605646 
L 559.74439 159.904221 
L 561.644437 160.844531 
L 563.544483 162.205866 
L 565.444529 163.713611 
L 567.344575 164.945669 
L 573.044713 167.54094 
L 574.944759 168.662667 
L 576.844805 169.635005 
L 578.744852 170.311294 
L 582.544944 171.134085 
L 584.44499 171.801848 
L 590.145128 171.429017 
L 597.745313 170.306156 
L 601.545405 169.885908 
L 605.345497 169.220188 
L 607.245543 169.173581 
L 609.145589 169.479629 
L 612.945682 170.321448 
L 616.745774 171.101492 
L 618.64582 171.687519 
L 624.345958 171.509138 
L 626.246004 171.222509 
L 630.046097 170.409986 
L 633.846189 169.716583 
L 637.646281 168.758719 
L 637.646281 168.758719 
" style="fill:none;stroke:#ffff14;stroke-linecap:square;stroke-width:1.5;"/>
   </g>
   <g id="line2d_15">
    <path clip-path="url(#p67b5813953)" d="M 194.935537 139.133383 
L 212.035952 139.250715 
L 229.136367 139.600999 
L 246.236782 140.179129 
L 263.337197 140.976672 
L 280.437612 141.982 
L 299.438073 143.324802 
L 318.438534 144.881794 
L 339.339042 146.808327 
L 364.039641 149.31786 
L 394.440379 152.644395 
L 478.042408 161.928694 
L 502.743007 164.367336 
L 523.643514 166.216594 
L 542.643975 167.691067 
L 561.644437 168.941195 
L 578.744852 169.855809 
L 595.845267 170.557084 
L 612.945682 171.034795 
L 630.046097 171.281974 
L 637.646281 171.316768 
L 637.646281 171.316768 
" style="fill:none;stroke:#014d4e;stroke-linecap:square;stroke-width:1.5;"/>
   </g>
   <g id="line2d_16">
    <path clip-path="url(#p67b5813953)" d="M 194.935537 145.514671 
L 251.936921 145.661098 
L 289.937843 146.074681 
L 322.238627 146.68245 
L 350.739318 147.447181 
L 409.640748 149.37476 
L 459.041947 151.247041 
L 529.343653 153.930276 
L 546.444068 154.33168 
L 555.944298 154.507391 
L 557.844344 154.674963 
L 559.74439 154.493081 
L 561.644437 153.667014 
L 563.544483 152.417449 
L 565.444529 151.018983 
L 567.344575 149.893691 
L 573.044713 147.603456 
L 574.944759 146.578259 
L 576.844805 145.699847 
L 578.744852 145.114865 
L 582.544944 144.466759 
L 584.44499 143.882344 
L 590.145128 144.489059 
L 597.745313 145.885553 
L 601.545405 146.426016 
L 605.345497 147.200764 
L 607.245543 147.297665 
L 609.145589 147.039087 
L 612.945682 146.283696 
L 616.745774 145.578683 
L 618.64582 145.025882 
L 624.345958 145.2867 
L 626.246004 145.595046 
L 630.046097 146.442338 
L 633.846189 147.158935 
L 637.646281 148.128399 
L 637.646281 148.128399 
" style="fill:none;stroke:#e50000;stroke-linecap:square;stroke-width:1.5;"/>
   </g>
   <g id="patch_3">
    <path d="M 172.8 332.6472 
L 172.8 84.9312 
" style="fill:none;stroke:#000000;stroke-linecap:square;stroke-linejoin:miter;stroke-width:0.8;"/>
   </g>
   <g id="patch_4">
    <path d="M 659.781818 332.6472 
L 659.781818 84.9312 
" style="fill:none;stroke:#000000;stroke-linecap:square;stroke-linejoin:miter;stroke-width:0.8;"/>
   </g>
   <g id="patch_5">
    <path d="M 172.8 332.6472 
L 659.781818 332.6472 
" style="fill:none;stroke:#000000;stroke-linecap:square;stroke-linejoin:miter;stroke-width:0.8;"/>
   </g>
   <g id="patch_6">
    <path d="M 172.8 84.9312 
L 659.781818 84.9312 
" style="fill:none;stroke:#000000;stroke-linecap:square;stroke-linejoin:miter;stroke-width:0.8;"/>
   </g>
   <g id="text_13">
    <!-- Right abduction -->
    <defs>
     <path d="M 44.390625 34.1875 
Q 47.5625 33.109375 50.5625 29.59375 
Q 53.5625 26.078125 56.59375 19.921875 
L 66.609375 0 
L 56 0 
L 46.6875 18.703125 
Q 43.0625 26.03125 39.671875 28.421875 
Q 36.28125 30.8125 30.421875 30.8125 
L 19.671875 30.8125 
L 19.671875 0 
L 9.8125 0 
L 9.8125 72.90625 
L 32.078125 72.90625 
Q 44.578125 72.90625 50.734375 67.671875 
Q 56.890625 62.453125 56.890625 51.90625 
Q 56.890625 45.015625 53.6875 40.46875 
Q 50.484375 35.9375 44.390625 34.1875 
z
M 19.671875 64.796875 
L 19.671875 38.921875 
L 32.078125 38.921875 
Q 39.203125 38.921875 42.84375 42.21875 
Q 46.484375 45.515625 46.484375 51.90625 
Q 46.484375 58.296875 42.84375 61.546875 
Q 39.203125 64.796875 32.078125 64.796875 
z
" id="DejaVuSans-82"/>
     <path d="M 9.421875 54.6875 
L 18.40625 54.6875 
L 18.40625 0 
L 9.421875 0 
z
M 9.421875 75.984375 
L 18.40625 75.984375 
L 18.40625 64.59375 
L 9.421875 64.59375 
z
" id="DejaVuSans-105"/>
     <path d="M 45.40625 27.984375 
Q 45.40625 37.75 41.375 43.109375 
Q 37.359375 48.484375 30.078125 48.484375 
Q 22.859375 48.484375 18.828125 43.109375 
Q 14.796875 37.75 14.796875 27.984375 
Q 14.796875 18.265625 18.828125 12.890625 
Q 22.859375 7.515625 30.078125 7.515625 
Q 37.359375 7.515625 41.375 12.890625 
Q 45.40625 18.265625 45.40625 27.984375 
z
M 54.390625 6.78125 
Q 54.390625 -7.171875 48.1875 -13.984375 
Q 42 -20.796875 29.203125 -20.796875 
Q 24.46875 -20.796875 20.265625 -20.09375 
Q 16.0625 -19.390625 12.109375 -17.921875 
L 12.109375 -9.1875 
Q 16.0625 -11.328125 19.921875 -12.34375 
Q 23.78125 -13.375 27.78125 -13.375 
Q 36.625 -13.375 41.015625 -8.765625 
Q 45.40625 -4.15625 45.40625 5.171875 
L 45.40625 9.625 
Q 42.625 4.78125 38.28125 2.390625 
Q 33.9375 0 27.875 0 
Q 17.828125 0 11.671875 7.65625 
Q 5.515625 15.328125 5.515625 27.984375 
Q 5.515625 40.671875 11.671875 48.328125 
Q 17.828125 56 27.875 56 
Q 33.9375 56 38.28125 53.609375 
Q 42.625 51.21875 45.40625 46.390625 
L 45.40625 54.6875 
L 54.390625 54.6875 
z
" id="DejaVuSans-103"/>
     <path d="M 54.890625 33.015625 
L 54.890625 0 
L 45.90625 0 
L 45.90625 32.71875 
Q 45.90625 40.484375 42.875 44.328125 
Q 39.84375 48.1875 33.796875 48.1875 
Q 26.515625 48.1875 22.3125 43.546875 
Q 18.109375 38.921875 18.109375 30.90625 
L 18.109375 0 
L 9.078125 0 
L 9.078125 75.984375 
L 18.109375 75.984375 
L 18.109375 46.1875 
Q 21.34375 51.125 25.703125 53.5625 
Q 30.078125 56 35.796875 56 
Q 45.21875 56 50.046875 50.171875 
Q 54.890625 44.34375 54.890625 33.015625 
z
" id="DejaVuSans-104"/>
     <path d="M 18.3125 70.21875 
L 18.3125 54.6875 
L 36.8125 54.6875 
L 36.8125 47.703125 
L 18.3125 47.703125 
L 18.3125 18.015625 
Q 18.3125 11.328125 20.140625 9.421875 
Q 21.96875 7.515625 27.59375 7.515625 
L 36.8125 7.515625 
L 36.8125 0 
L 27.59375 0 
Q 17.1875 0 13.234375 3.875 
Q 9.28125 7.765625 9.28125 18.015625 
L 9.28125 47.703125 
L 2.6875 47.703125 
L 2.6875 54.6875 
L 9.28125 54.6875 
L 9.28125 70.21875 
z
" id="DejaVuSans-116"/>
     <path id="DejaVuSans-32"/>
     <path d="M 34.28125 27.484375 
Q 23.390625 27.484375 19.1875 25 
Q 14.984375 22.515625 14.984375 16.5 
Q 14.984375 11.71875 18.140625 8.90625 
Q 21.296875 6.109375 26.703125 6.109375 
Q 34.1875 6.109375 38.703125 11.40625 
Q 43.21875 16.703125 43.21875 25.484375 
L 43.21875 27.484375 
z
M 52.203125 31.203125 
L 52.203125 0 
L 43.21875 0 
L 43.21875 8.296875 
Q 40.140625 3.328125 35.546875 0.953125 
Q 30.953125 -1.421875 24.3125 -1.421875 
Q 15.921875 -1.421875 10.953125 3.296875 
Q 6 8.015625 6 15.921875 
Q 6 25.140625 12.171875 29.828125 
Q 18.359375 34.515625 30.609375 34.515625 
L 43.21875 34.515625 
L 43.21875 35.40625 
Q 43.21875 41.609375 39.140625 45 
Q 35.0625 48.390625 27.6875 48.390625 
Q 23 48.390625 18.546875 47.265625 
Q 14.109375 46.140625 10.015625 43.890625 
L 10.015625 52.203125 
Q 14.9375 54.109375 19.578125 55.046875 
Q 24.21875 56 28.609375 56 
Q 40.484375 56 46.34375 49.84375 
Q 52.203125 43.703125 52.203125 31.203125 
z
" id="DejaVuSans-97"/>
     <path d="M 48.6875 27.296875 
Q 48.6875 37.203125 44.609375 42.84375 
Q 40.53125 48.484375 33.40625 48.484375 
Q 26.265625 48.484375 22.1875 42.84375 
Q 18.109375 37.203125 18.109375 27.296875 
Q 18.109375 17.390625 22.1875 11.75 
Q 26.265625 6.109375 33.40625 6.109375 
Q 40.53125 6.109375 44.609375 11.75 
Q 48.6875 17.390625 48.6875 27.296875 
z
M 18.109375 46.390625 
Q 20.953125 51.265625 25.265625 53.625 
Q 29.59375 56 35.59375 56 
Q 45.5625 56 51.78125 48.09375 
Q 58.015625 40.1875 58.015625 27.296875 
Q 58.015625 14.40625 51.78125 6.484375 
Q 45.5625 -1.421875 35.59375 -1.421875 
Q 29.59375 -1.421875 25.265625 0.953125 
Q 20.953125 3.328125 18.109375 8.203125 
L 18.109375 0 
L 9.078125 0 
L 9.078125 75.984375 
L 18.109375 75.984375 
z
" id="DejaVuSans-98"/>
     <path d="M 45.40625 46.390625 
L 45.40625 75.984375 
L 54.390625 75.984375 
L 54.390625 0 
L 45.40625 0 
L 45.40625 8.203125 
Q 42.578125 3.328125 38.25 0.953125 
Q 33.9375 -1.421875 27.875 -1.421875 
Q 17.96875 -1.421875 11.734375 6.484375 
Q 5.515625 14.40625 5.515625 27.296875 
Q 5.515625 40.1875 11.734375 48.09375 
Q 17.96875 56 27.875 56 
Q 33.9375 56 38.25 53.625 
Q 42.578125 51.265625 45.40625 46.390625 
z
M 14.796875 27.296875 
Q 14.796875 17.390625 18.875 11.75 
Q 22.953125 6.109375 30.078125 6.109375 
Q 37.203125 6.109375 41.296875 11.75 
Q 45.40625 17.390625 45.40625 27.296875 
Q 45.40625 37.203125 41.296875 42.84375 
Q 37.203125 48.484375 30.078125 48.484375 
Q 22.953125 48.484375 18.875 42.84375 
Q 14.796875 37.203125 14.796875 27.296875 
z
" id="DejaVuSans-100"/>
     <path d="M 8.5 21.578125 
L 8.5 54.6875 
L 17.484375 54.6875 
L 17.484375 21.921875 
Q 17.484375 14.15625 20.5 10.265625 
Q 23.53125 6.390625 29.59375 6.390625 
Q 36.859375 6.390625 41.078125 11.03125 
Q 45.3125 15.671875 45.3125 23.6875 
L 45.3125 54.6875 
L 54.296875 54.6875 
L 54.296875 0 
L 45.3125 0 
L 45.3125 8.40625 
Q 42.046875 3.421875 37.71875 1 
Q 33.40625 -1.421875 27.6875 -1.421875 
Q 18.265625 -1.421875 13.375 4.4375 
Q 8.5 10.296875 8.5 21.578125 
z
M 31.109375 56 
z
" id="DejaVuSans-117"/>
     <path d="M 48.78125 52.59375 
L 48.78125 44.1875 
Q 44.96875 46.296875 41.140625 47.34375 
Q 37.3125 48.390625 33.40625 48.390625 
Q 24.65625 48.390625 19.8125 42.84375 
Q 14.984375 37.3125 14.984375 27.296875 
Q 14.984375 17.28125 19.8125 11.734375 
Q 24.65625 6.203125 33.40625 6.203125 
Q 37.3125 6.203125 41.140625 7.25 
Q 44.96875 8.296875 48.78125 10.40625 
L 48.78125 2.09375 
Q 45.015625 0.34375 40.984375 -0.53125 
Q 36.96875 -1.421875 32.421875 -1.421875 
Q 20.0625 -1.421875 12.78125 6.34375 
Q 5.515625 14.109375 5.515625 27.296875 
Q 5.515625 40.671875 12.859375 48.328125 
Q 20.21875 56 33.015625 56 
Q 37.15625 56 41.109375 55.140625 
Q 45.0625 54.296875 48.78125 52.59375 
z
" id="DejaVuSans-99"/>
     <path d="M 30.609375 48.390625 
Q 23.390625 48.390625 19.1875 42.75 
Q 14.984375 37.109375 14.984375 27.296875 
Q 14.984375 17.484375 19.15625 11.84375 
Q 23.34375 6.203125 30.609375 6.203125 
Q 37.796875 6.203125 41.984375 11.859375 
Q 46.1875 17.53125 46.1875 27.296875 
Q 46.1875 37.015625 41.984375 42.703125 
Q 37.796875 48.390625 30.609375 48.390625 
z
M 30.609375 56 
Q 42.328125 56 49.015625 48.375 
Q 55.71875 40.765625 55.71875 27.296875 
Q 55.71875 13.875 49.015625 6.21875 
Q 42.328125 -1.421875 30.609375 -1.421875 
Q 18.84375 -1.421875 12.171875 6.21875 
Q 5.515625 13.875 5.515625 27.296875 
Q 5.515625 40.765625 12.171875 48.375 
Q 18.84375 56 30.609375 56 
z
" id="DejaVuSans-111"/>
     <path d="M 54.890625 33.015625 
L 54.890625 0 
L 45.90625 0 
L 45.90625 32.71875 
Q 45.90625 40.484375 42.875 44.328125 
Q 39.84375 48.1875 33.796875 48.1875 
Q 26.515625 48.1875 22.3125 43.546875 
Q 18.109375 38.921875 18.109375 30.90625 
L 18.109375 0 
L 9.078125 0 
L 9.078125 54.6875 
L 18.109375 54.6875 
L 18.109375 46.1875 
Q 21.34375 51.125 25.703125 53.5625 
Q 30.078125 56 35.796875 56 
Q 45.21875 56 50.046875 50.171875 
Q 54.890625 44.34375 54.890625 33.015625 
z
" id="DejaVuSans-110"/>
    </defs>
    <g transform="translate(368.694972 78.9312)scale(0.12 -0.12)">
     <use xlink:href="#DejaVuSans-82"/>
     <use x="69.482422" xlink:href="#DejaVuSans-105"/>
     <use x="97.265625" xlink:href="#DejaVuSans-103"/>
     <use x="160.742188" xlink:href="#DejaVuSans-104"/>
     <use x="224.121094" xlink:href="#DejaVuSans-116"/>
     <use x="263.330078" xlink:href="#DejaVuSans-32"/>
     <use x="295.117188" xlink:href="#DejaVuSans-97"/>
     <use x="356.396484" xlink:href="#DejaVuSans-98"/>
     <use x="419.873047" xlink:href="#DejaVuSans-100"/>
     <use x="483.349609" xlink:href="#DejaVuSans-117"/>
     <use x="546.728516" xlink:href="#DejaVuSans-99"/>
     <use x="601.708984" xlink:href="#DejaVuSans-116"/>
     <use x="640.917969" xlink:href="#DejaVuSans-105"/>
     <use x="668.701172" xlink:href="#DejaVuSans-111"/>
     <use x="729.882812" xlink:href="#DejaVuSans-110"/>
    </g>
   </g>
  </g>
  <g id="axes_2">
   <g id="patch_7">
    <path d="M 757.178182 332.6472 
L 1244.16 332.6472 
L 1244.16 84.9312 
L 757.178182 84.9312 
z
" style="fill:#ffffff;"/>
   </g>
   <g id="matplotlib.axis_3">
    <g id="xtick_6">
     <g id="line2d_17">
      <g>
       <use style="stroke:#000000;stroke-width:0.8;" x="779.313719" xlink:href="#m8ce807c0fc" y="332.6472"/>
      </g>
     </g>
     <g id="text_14">
      <!-- 0 -->
      <g transform="translate(776.132469 347.245637)scale(0.1 -0.1)">
       <use xlink:href="#DejaVuSans-48"/>
      </g>
     </g>
    </g>
    <g id="xtick_7">
     <g id="line2d_18">
      <g>
       <use style="stroke:#000000;stroke-width:0.8;" x="874.316025" xlink:href="#m8ce807c0fc" y="332.6472"/>
      </g>
     </g>
     <g id="text_15">
      <!-- 50 -->
      <g transform="translate(867.953525 347.245637)scale(0.1 -0.1)">
       <use xlink:href="#DejaVuSans-53"/>
       <use x="63.623047" xlink:href="#DejaVuSans-48"/>
      </g>
     </g>
    </g>
    <g id="xtick_8">
     <g id="line2d_19">
      <g>
       <use style="stroke:#000000;stroke-width:0.8;" x="969.31833" xlink:href="#m8ce807c0fc" y="332.6472"/>
      </g>
     </g>
     <g id="text_16">
      <!-- 100 -->
      <g transform="translate(959.77458 347.245637)scale(0.1 -0.1)">
       <use xlink:href="#DejaVuSans-49"/>
       <use x="63.623047" xlink:href="#DejaVuSans-48"/>
       <use x="127.246094" xlink:href="#DejaVuSans-48"/>
      </g>
     </g>
    </g>
    <g id="xtick_9">
     <g id="line2d_20">
      <g>
       <use style="stroke:#000000;stroke-width:0.8;" x="1064.320636" xlink:href="#m8ce807c0fc" y="332.6472"/>
      </g>
     </g>
     <g id="text_17">
      <!-- 150 -->
      <g transform="translate(1054.776886 347.245637)scale(0.1 -0.1)">
       <use xlink:href="#DejaVuSans-49"/>
       <use x="63.623047" xlink:href="#DejaVuSans-53"/>
       <use x="127.246094" xlink:href="#DejaVuSans-48"/>
      </g>
     </g>
    </g>
    <g id="xtick_10">
     <g id="line2d_21">
      <g>
       <use style="stroke:#000000;stroke-width:0.8;" x="1159.322941" xlink:href="#m8ce807c0fc" y="332.6472"/>
      </g>
     </g>
     <g id="text_18">
      <!-- 200 -->
      <g transform="translate(1149.779191 347.245637)scale(0.1 -0.1)">
       <use xlink:href="#DejaVuSans-50"/>
       <use x="63.623047" xlink:href="#DejaVuSans-48"/>
       <use x="127.246094" xlink:href="#DejaVuSans-48"/>
      </g>
     </g>
    </g>
   </g>
   <g id="matplotlib.axis_4">
    <g id="ytick_8">
     <g id="line2d_22">
      <g>
       <use style="stroke:#000000;stroke-width:0.8;" x="757.178182" xlink:href="#m5fd47eb750" y="286.403634"/>
      </g>
     </g>
     <g id="text_19">
      <!-- −2 -->
      <g transform="translate(735.435994 290.202853)scale(0.1 -0.1)">
       <use xlink:href="#DejaVuSans-8722"/>
       <use x="83.789062" xlink:href="#DejaVuSans-50"/>
      </g>
     </g>
    </g>
    <g id="ytick_9">
     <g id="line2d_23">
      <g>
       <use style="stroke:#000000;stroke-width:0.8;" x="757.178182" xlink:href="#m5fd47eb750" y="238.081668"/>
      </g>
     </g>
     <g id="text_20">
      <!-- −1 -->
      <g transform="translate(735.435994 241.880887)scale(0.1 -0.1)">
       <use xlink:href="#DejaVuSans-8722"/>
       <use x="83.789062" xlink:href="#DejaVuSans-49"/>
      </g>
     </g>
    </g>
    <g id="ytick_10">
     <g id="line2d_24">
      <g>
       <use style="stroke:#000000;stroke-width:0.8;" x="757.178182" xlink:href="#m5fd47eb750" y="189.759703"/>
      </g>
     </g>
     <g id="text_21">
      <!-- 0 -->
      <g transform="translate(743.815682 193.558921)scale(0.1 -0.1)">
       <use xlink:href="#DejaVuSans-48"/>
      </g>
     </g>
    </g>
    <g id="ytick_11">
     <g id="line2d_25">
      <g>
       <use style="stroke:#000000;stroke-width:0.8;" x="757.178182" xlink:href="#m5fd47eb750" y="141.437737"/>
      </g>
     </g>
     <g id="text_22">
      <!-- 1 -->
      <g transform="translate(743.815682 145.236956)scale(0.1 -0.1)">
       <use xlink:href="#DejaVuSans-49"/>
      </g>
     </g>
    </g>
    <g id="ytick_12">
     <g id="line2d_26">
      <g>
       <use style="stroke:#000000;stroke-width:0.8;" x="757.178182" xlink:href="#m5fd47eb750" y="93.115771"/>
      </g>
     </g>
     <g id="text_23">
      <!-- 2 -->
      <g transform="translate(743.815682 96.91499)scale(0.1 -0.1)">
       <use xlink:href="#DejaVuSans-50"/>
      </g>
     </g>
    </g>
   </g>
   <g id="line2d_27">
    <path clip-path="url(#pa030b853ba)" d="M 779.313719 189.762372 
L 963.618192 189.939246 
L 1005.419206 189.940863 
L 1052.920359 190.059279 
L 1060.520543 190.356163 
L 1066.220682 190.852596 
L 1071.92082 191.697424 
L 1077.620958 192.642025 
L 1083.321097 193.88942 
L 1089.021235 195.440131 
L 1094.721373 197.258579 
L 1102.321558 199.950915 
L 1113.721834 203.968237 
L 1117.521927 205.374202 
L 1119.421973 206.204558 
L 1123.222065 211.342096 
L 1125.122111 214.129598 
L 1128.922203 220.496218 
L 1132.722296 227.179038 
L 1138.422434 238.441015 
L 1140.32248 240.298789 
L 1142.222526 212.851233 
L 1144.122572 227.262379 
L 1146.022618 248.681439 
L 1149.822711 123.297813 
L 1151.722757 145.354752 
L 1153.622803 151.171607 
L 1155.522849 121.364302 
L 1157.422895 146.260416 
L 1159.322941 158.43244 
L 1161.222987 106.191855 
L 1163.123033 120.377982 
L 1165.023079 224.546789 
L 1166.923126 271.11865 
L 1168.823172 270.971642 
L 1170.723218 299.542371 
L 1172.623264 307.834946 
L 1174.52331 255.671141 
L 1176.423356 261.410153 
L 1178.323402 321.387382 
L 1180.223448 286.63378 
L 1182.123494 189.372125 
L 1184.023541 148.281589 
L 1185.923587 145.071569 
L 1187.823633 113.286031 
L 1189.723679 131.45288 
L 1191.623725 202.427141 
L 1193.523771 197.003662 
L 1195.423817 167.276937 
L 1197.323863 171.392405 
L 1199.223909 186.221072 
L 1203.024002 177.456086 
L 1204.924048 145.228371 
L 1206.824094 133.997178 
L 1208.72414 178.174338 
L 1210.624186 163.667299 
L 1212.524232 96.191018 
L 1214.424278 105.756927 
L 1216.324324 171.007659 
L 1218.224371 178.463971 
L 1220.124417 185.452396 
L 1222.024463 244.557429 
L 1222.024463 244.557429 
" style="fill:none;stroke:#ff796c;stroke-linecap:square;stroke-width:1.5;"/>
   </g>
   <g id="line2d_28">
    <path clip-path="url(#pa030b853ba)" d="M 779.313719 170.287079 
L 1068.120728 170.174464 
L 1083.321097 169.795626 
L 1094.721373 169.277469 
L 1106.12165 168.534384 
L 1117.521927 167.547793 
L 1121.322019 167.084652 
L 1128.922203 165.892462 
L 1138.422434 164.153141 
L 1147.922664 164.365303 
L 1168.823172 164.571494 
L 1170.723218 165.101588 
L 1172.623264 165.895816 
L 1174.52331 166.884981 
L 1176.423356 167.702982 
L 1178.323402 168.214221 
L 1184.023541 170.092013 
L 1185.923587 169.904012 
L 1187.823633 168.572416 
L 1189.723679 166.021528 
L 1191.623725 162.667474 
L 1195.423817 163.312208 
L 1203.024002 164.293342 
L 1204.924048 165.239102 
L 1206.824094 164.594361 
L 1208.72414 163.72479 
L 1216.324324 164.234608 
L 1218.224371 164.277231 
L 1220.124417 164.640171 
L 1222.024463 165.293694 
L 1222.024463 165.293694 
" style="fill:none;stroke:#ffff14;stroke-linecap:square;stroke-width:1.5;"/>
   </g>
   <g id="line2d_29">
    <path clip-path="url(#pa030b853ba)" d="M 779.313719 170.317733 
L 1222.024463 170.317733 
L 1222.024463 170.317733 
" style="fill:none;stroke:#014d4e;stroke-linecap:square;stroke-width:1.5;"/>
   </g>
   <g id="line2d_30">
    <path clip-path="url(#pa030b853ba)" d="M 779.313719 189.790356 
L 1068.120728 189.902971 
L 1083.321097 190.281809 
L 1094.721373 190.799967 
L 1106.12165 191.543052 
L 1117.521927 192.529642 
L 1121.322019 192.992783 
L 1128.922203 194.184973 
L 1138.422434 195.924294 
L 1147.922664 195.712132 
L 1168.823172 195.505942 
L 1170.723218 194.975847 
L 1172.623264 194.18162 
L 1174.52331 193.192454 
L 1176.423356 192.374453 
L 1178.323402 191.863214 
L 1184.023541 189.985422 
L 1185.923587 190.173424 
L 1187.823633 191.505019 
L 1189.723679 194.055907 
L 1191.623725 197.409961 
L 1195.423817 196.765227 
L 1203.024002 195.784093 
L 1204.924048 194.838333 
L 1206.824094 195.483074 
L 1208.72414 196.352646 
L 1216.324324 195.842827 
L 1218.224371 195.800204 
L 1220.124417 195.437265 
L 1222.024463 194.783741 
L 1222.024463 194.783741 
" style="fill:none;stroke:#e50000;stroke-linecap:square;stroke-width:1.5;"/>
   </g>
   <g id="patch_8">
    <path d="M 757.178182 332.6472 
L 757.178182 84.9312 
" style="fill:none;stroke:#000000;stroke-linecap:square;stroke-linejoin:miter;stroke-width:0.8;"/>
   </g>
   <g id="patch_9">
    <path d="M 1244.16 332.6472 
L 1244.16 84.9312 
" style="fill:none;stroke:#000000;stroke-linecap:square;stroke-linejoin:miter;stroke-width:0.8;"/>
   </g>
   <g id="patch_10">
    <path d="M 757.178182 332.6472 
L 1244.16 332.6472 
" style="fill:none;stroke:#000000;stroke-linecap:square;stroke-linejoin:miter;stroke-width:0.8;"/>
   </g>
   <g id="patch_11">
    <path d="M 757.178182 84.9312 
L 1244.16 84.9312 
" style="fill:none;stroke:#000000;stroke-linecap:square;stroke-linejoin:miter;stroke-width:0.8;"/>
   </g>
   <g id="text_24">
    <!-- Right flexion -->
    <defs>
     <path d="M 37.109375 75.984375 
L 37.109375 68.5 
L 28.515625 68.5 
Q 23.6875 68.5 21.796875 66.546875 
Q 19.921875 64.59375 19.921875 59.515625 
L 19.921875 54.6875 
L 34.71875 54.6875 
L 34.71875 47.703125 
L 19.921875 47.703125 
L 19.921875 0 
L 10.890625 0 
L 10.890625 47.703125 
L 2.296875 47.703125 
L 2.296875 54.6875 
L 10.890625 54.6875 
L 10.890625 58.5 
Q 10.890625 67.625 15.140625 71.796875 
Q 19.390625 75.984375 28.609375 75.984375 
z
" id="DejaVuSans-102"/>
     <path d="M 9.421875 75.984375 
L 18.40625 75.984375 
L 18.40625 0 
L 9.421875 0 
z
" id="DejaVuSans-108"/>
     <path d="M 56.203125 29.59375 
L 56.203125 25.203125 
L 14.890625 25.203125 
Q 15.484375 15.921875 20.484375 11.0625 
Q 25.484375 6.203125 34.421875 6.203125 
Q 39.59375 6.203125 44.453125 7.46875 
Q 49.3125 8.734375 54.109375 11.28125 
L 54.109375 2.78125 
Q 49.265625 0.734375 44.1875 -0.34375 
Q 39.109375 -1.421875 33.890625 -1.421875 
Q 20.796875 -1.421875 13.15625 6.1875 
Q 5.515625 13.8125 5.515625 26.8125 
Q 5.515625 40.234375 12.765625 48.109375 
Q 20.015625 56 32.328125 56 
Q 43.359375 56 49.78125 48.890625 
Q 56.203125 41.796875 56.203125 29.59375 
z
M 47.21875 32.234375 
Q 47.125 39.59375 43.09375 43.984375 
Q 39.0625 48.390625 32.421875 48.390625 
Q 24.90625 48.390625 20.390625 44.140625 
Q 15.875 39.890625 15.1875 32.171875 
z
" id="DejaVuSans-101"/>
     <path d="M 54.890625 54.6875 
L 35.109375 28.078125 
L 55.90625 0 
L 45.3125 0 
L 29.390625 21.484375 
L 13.484375 0 
L 2.875 0 
L 24.125 28.609375 
L 4.6875 54.6875 
L 15.28125 54.6875 
L 29.78125 35.203125 
L 44.28125 54.6875 
z
" id="DejaVuSans-120"/>
    </defs>
    <g transform="translate(962.800653 78.9312)scale(0.12 -0.12)">
     <use xlink:href="#DejaVuSans-82"/>
     <use x="69.482422" xlink:href="#DejaVuSans-105"/>
     <use x="97.265625" xlink:href="#DejaVuSans-103"/>
     <use x="160.742188" xlink:href="#DejaVuSans-104"/>
     <use x="224.121094" xlink:href="#DejaVuSans-116"/>
     <use x="263.330078" xlink:href="#DejaVuSans-32"/>
     <use x="295.117188" xlink:href="#DejaVuSans-102"/>
     <use x="330.322266" xlink:href="#DejaVuSans-108"/>
     <use x="358.105469" xlink:href="#DejaVuSans-101"/>
     <use x="419.613281" xlink:href="#DejaVuSans-120"/>
     <use x="478.792969" xlink:href="#DejaVuSans-105"/>
     <use x="506.576172" xlink:href="#DejaVuSans-111"/>
     <use x="567.757812" xlink:href="#DejaVuSans-110"/>
    </g>
   </g>
  </g>
  <g id="axes_3">
   <g id="patch_12">
    <path d="M 172.8 629.9064 
L 659.781818 629.9064 
L 659.781818 382.1904 
L 172.8 382.1904 
z
" style="fill:#ffffff;"/>
   </g>
   <g id="matplotlib.axis_5">
    <g id="xtick_11">
     <g id="line2d_31">
      <g>
       <use style="stroke:#000000;stroke-width:0.8;" x="194.935537" xlink:href="#m8ce807c0fc" y="629.9064"/>
      </g>
     </g>
     <g id="text_25">
      <!-- 0 -->
      <g transform="translate(191.754287 644.504838)scale(0.1 -0.1)">
       <use xlink:href="#DejaVuSans-48"/>
      </g>
     </g>
    </g>
    <g id="xtick_12">
     <g id="line2d_32">
      <g>
       <use style="stroke:#000000;stroke-width:0.8;" x="289.937843" xlink:href="#m8ce807c0fc" y="629.9064"/>
      </g>
     </g>
     <g id="text_26">
      <!-- 50 -->
      <g transform="translate(283.575343 644.504838)scale(0.1 -0.1)">
       <use xlink:href="#DejaVuSans-53"/>
       <use x="63.623047" xlink:href="#DejaVuSans-48"/>
      </g>
     </g>
    </g>
    <g id="xtick_13">
     <g id="line2d_33">
      <g>
       <use style="stroke:#000000;stroke-width:0.8;" x="384.940148" xlink:href="#m8ce807c0fc" y="629.9064"/>
      </g>
     </g>
     <g id="text_27">
      <!-- 100 -->
      <g transform="translate(375.396398 644.504838)scale(0.1 -0.1)">
       <use xlink:href="#DejaVuSans-49"/>
       <use x="63.623047" xlink:href="#DejaVuSans-48"/>
       <use x="127.246094" xlink:href="#DejaVuSans-48"/>
      </g>
     </g>
    </g>
    <g id="xtick_14">
     <g id="line2d_34">
      <g>
       <use style="stroke:#000000;stroke-width:0.8;" x="479.942454" xlink:href="#m8ce807c0fc" y="629.9064"/>
      </g>
     </g>
     <g id="text_28">
      <!-- 150 -->
      <g transform="translate(470.398704 644.504838)scale(0.1 -0.1)">
       <use xlink:href="#DejaVuSans-49"/>
       <use x="63.623047" xlink:href="#DejaVuSans-53"/>
       <use x="127.246094" xlink:href="#DejaVuSans-48"/>
      </g>
     </g>
    </g>
    <g id="xtick_15">
     <g id="line2d_35">
      <g>
       <use style="stroke:#000000;stroke-width:0.8;" x="574.944759" xlink:href="#m8ce807c0fc" y="629.9064"/>
      </g>
     </g>
     <g id="text_29">
      <!-- 200 -->
      <g transform="translate(565.401009 644.504838)scale(0.1 -0.1)">
       <use xlink:href="#DejaVuSans-50"/>
       <use x="63.623047" xlink:href="#DejaVuSans-48"/>
       <use x="127.246094" xlink:href="#DejaVuSans-48"/>
      </g>
     </g>
    </g>
   </g>
   <g id="matplotlib.axis_6">
    <g id="ytick_13">
     <g id="line2d_36">
      <g>
       <use style="stroke:#000000;stroke-width:0.8;" x="172.8" xlink:href="#m5fd47eb750" y="607.101381"/>
      </g>
     </g>
     <g id="text_30">
      <!-- −3 -->
      <defs>
       <path d="M 40.578125 39.3125 
Q 47.65625 37.796875 51.625 33 
Q 55.609375 28.21875 55.609375 21.1875 
Q 55.609375 10.40625 48.1875 4.484375 
Q 40.765625 -1.421875 27.09375 -1.421875 
Q 22.515625 -1.421875 17.65625 -0.515625 
Q 12.796875 0.390625 7.625 2.203125 
L 7.625 11.71875 
Q 11.71875 9.328125 16.59375 8.109375 
Q 21.484375 6.890625 26.8125 6.890625 
Q 36.078125 6.890625 40.9375 10.546875 
Q 45.796875 14.203125 45.796875 21.1875 
Q 45.796875 27.640625 41.28125 31.265625 
Q 36.765625 34.90625 28.71875 34.90625 
L 20.21875 34.90625 
L 20.21875 43.015625 
L 29.109375 43.015625 
Q 36.375 43.015625 40.234375 45.921875 
Q 44.09375 48.828125 44.09375 54.296875 
Q 44.09375 59.90625 40.109375 62.90625 
Q 36.140625 65.921875 28.71875 65.921875 
Q 24.65625 65.921875 20.015625 65.03125 
Q 15.375 64.15625 9.8125 62.3125 
L 9.8125 71.09375 
Q 15.4375 72.65625 20.34375 73.4375 
Q 25.25 74.21875 29.59375 74.21875 
Q 40.828125 74.21875 47.359375 69.109375 
Q 53.90625 64.015625 53.90625 55.328125 
Q 53.90625 49.265625 50.4375 45.09375 
Q 46.96875 40.921875 40.578125 39.3125 
z
" id="DejaVuSans-51"/>
      </defs>
      <g transform="translate(151.057812 610.900599)scale(0.1 -0.1)">
       <use xlink:href="#DejaVuSans-8722"/>
       <use x="83.789062" xlink:href="#DejaVuSans-51"/>
      </g>
     </g>
    </g>
    <g id="ytick_14">
     <g id="line2d_37">
      <g>
       <use style="stroke:#000000;stroke-width:0.8;" x="172.8" xlink:href="#m5fd47eb750" y="572.311608"/>
      </g>
     </g>
     <g id="text_31">
      <!-- −2 -->
      <g transform="translate(151.057812 576.110827)scale(0.1 -0.1)">
       <use xlink:href="#DejaVuSans-8722"/>
       <use x="83.789062" xlink:href="#DejaVuSans-50"/>
      </g>
     </g>
    </g>
    <g id="ytick_15">
     <g id="line2d_38">
      <g>
       <use style="stroke:#000000;stroke-width:0.8;" x="172.8" xlink:href="#m5fd47eb750" y="537.521835"/>
      </g>
     </g>
     <g id="text_32">
      <!-- −1 -->
      <g transform="translate(151.057812 541.321054)scale(0.1 -0.1)">
       <use xlink:href="#DejaVuSans-8722"/>
       <use x="83.789062" xlink:href="#DejaVuSans-49"/>
      </g>
     </g>
    </g>
    <g id="ytick_16">
     <g id="line2d_39">
      <g>
       <use style="stroke:#000000;stroke-width:0.8;" x="172.8" xlink:href="#m5fd47eb750" y="502.732063"/>
      </g>
     </g>
     <g id="text_33">
      <!-- 0 -->
      <g transform="translate(159.4375 506.531281)scale(0.1 -0.1)">
       <use xlink:href="#DejaVuSans-48"/>
      </g>
     </g>
    </g>
    <g id="ytick_17">
     <g id="line2d_40">
      <g>
       <use style="stroke:#000000;stroke-width:0.8;" x="172.8" xlink:href="#m5fd47eb750" y="467.94229"/>
      </g>
     </g>
     <g id="text_34">
      <!-- 1 -->
      <g transform="translate(159.4375 471.741509)scale(0.1 -0.1)">
       <use xlink:href="#DejaVuSans-49"/>
      </g>
     </g>
    </g>
    <g id="ytick_18">
     <g id="line2d_41">
      <g>
       <use style="stroke:#000000;stroke-width:0.8;" x="172.8" xlink:href="#m5fd47eb750" y="433.152517"/>
      </g>
     </g>
     <g id="text_35">
      <!-- 2 -->
      <g transform="translate(159.4375 436.951736)scale(0.1 -0.1)">
       <use xlink:href="#DejaVuSans-50"/>
      </g>
     </g>
    </g>
    <g id="ytick_19">
     <g id="line2d_42">
      <g>
       <use style="stroke:#000000;stroke-width:0.8;" x="172.8" xlink:href="#m5fd47eb750" y="398.362744"/>
      </g>
     </g>
     <g id="text_36">
      <!-- 3 -->
      <g transform="translate(159.4375 402.161963)scale(0.1 -0.1)">
       <use xlink:href="#DejaVuSans-51"/>
      </g>
     </g>
    </g>
   </g>
   <g id="line2d_43">
    <path clip-path="url(#pf513b93a2a)" d="M 194.935537 502.709297 
L 198.735629 502.94344 
L 202.535722 503.175922 
L 206.335814 503.01023 
L 210.135906 502.660891 
L 212.035952 502.587625 
L 215.836044 502.764201 
L 219.636137 503.043751 
L 223.436229 502.986086 
L 229.136367 502.647406 
L 232.936459 502.838069 
L 236.736552 503.157472 
L 238.636598 503.203396 
L 242.43669 502.989814 
L 246.236782 502.729402 
L 250.036874 502.832428 
L 253.836967 503.108711 
L 257.637059 503.091985 
L 263.337197 502.704806 
L 267.137289 502.830365 
L 270.937382 503.150217 
L 274.737474 503.176708 
L 280.437612 502.798754 
L 284.237704 502.886733 
L 288.037797 503.140691 
L 291.837889 503.090713 
L 297.538027 502.659037 
L 301.338119 502.75779 
L 305.138212 503.031743 
L 308.938304 503.021699 
L 314.638442 502.734478 
L 318.438534 502.918865 
L 322.238627 503.190192 
L 326.038719 503.111352 
L 331.738857 502.758041 
L 335.538949 502.889104 
L 339.339042 503.039355 
L 343.139134 502.849871 
L 346.939226 502.572844 
L 350.739318 502.63253 
L 356.439457 502.93101 
L 360.239549 502.76791 
L 364.039641 502.603065 
L 367.839733 502.75977 
L 371.639825 502.978082 
L 375.439918 502.872892 
L 379.24001 502.621393 
L 383.040102 502.640701 
L 388.74024 502.89552 
L 392.540333 502.743946 
L 396.340425 502.569526 
L 400.140517 502.697657 
L 403.940609 502.927695 
L 407.740702 502.887092 
L 413.44084 502.637055 
L 419.140978 502.852099 
L 422.94107 502.859074 
L 430.541255 502.519853 
L 441.941532 502.76522 
L 445.741624 502.668398 
L 449.541716 502.798269 
L 455.241854 503.074809 
L 459.041947 502.974958 
L 464.742085 502.798125 
L 474.242315 502.896779 
L 481.8425 502.64319 
L 495.142823 502.884677 
L 500.842961 502.867599 
L 508.443145 503.066337 
L 521.743468 502.890052 
L 527.443607 503.014848 
L 535.043791 502.969676 
L 536.943837 502.779057 
L 538.843883 502.716657 
L 540.743929 502.843575 
L 546.444068 503.761052 
L 548.344114 503.869682 
L 550.24416 503.773961 
L 554.044252 503.155107 
L 555.944298 495.018646 
L 557.844344 531.235382 
L 559.74439 555.814271 
L 561.644437 530.972709 
L 563.544483 485.805179 
L 565.444529 436.379569 
L 567.344575 407.816662 
L 569.244621 441.302438 
L 571.144667 504.86265 
L 573.044713 508.925792 
L 574.944759 476.572715 
L 576.844805 478.095374 
L 578.744852 504.816407 
L 580.644898 542.352062 
L 582.544944 600.054999 
L 584.44499 618.646582 
L 586.345036 594.887432 
L 588.245082 552.196026 
L 590.145128 540.325982 
L 592.045174 539.467814 
L 593.94522 533.33223 
L 595.845267 530.721695 
L 597.745313 499.642869 
L 599.645359 439.405279 
L 601.545405 393.450218 
L 603.445451 415.028687 
L 605.345497 461.0863 
L 607.245543 473.850542 
L 609.145589 466.159847 
L 611.045635 478.184917 
L 612.945682 496.555007 
L 614.845728 524.86961 
L 616.745774 571.341978 
L 618.64582 595.208787 
L 620.545866 574.396448 
L 622.445912 540.261023 
L 624.345958 533.508583 
L 626.246004 524.598566 
L 628.14605 507.430249 
L 630.046097 516.926004 
L 631.946143 523.213882 
L 633.846189 475.335112 
L 635.746235 453.227069 
L 637.646281 463.551919 
L 637.646281 463.551919 
" style="fill:none;stroke:#ff796c;stroke-linecap:square;stroke-width:1.5;"/>
   </g>
   <g id="line2d_44">
    <path clip-path="url(#pf513b93a2a)" d="M 194.935537 448.301361 
L 204.435768 448.380269 
L 221.536183 449.027272 
L 236.736552 449.95213 
L 244.336736 450.617611 
L 259.537105 452.21641 
L 276.63752 454.480352 
L 291.837889 456.969684 
L 312.738396 460.949418 
L 326.038719 463.73752 
L 341.239088 467.375358 
L 373.539872 475.785157 
L 400.140517 483.364594 
L 409.640748 486.140872 
L 436.241393 494.085634 
L 481.8425 507.202109 
L 493.242777 510.160016 
L 504.643053 512.948185 
L 519.843422 516.418463 
L 531.243699 518.673498 
L 538.843883 519.972604 
L 546.444068 520.934836 
L 554.044252 522.02858 
L 555.944298 522.448388 
L 557.844344 522.339759 
L 559.74439 523.71539 
L 561.644437 527.809327 
L 563.544483 533.174636 
L 565.444529 537.591742 
L 567.344575 539.021699 
L 569.244621 536.409901 
L 571.144667 531.195115 
L 573.044713 526.385849 
L 574.944759 521.89361 
L 576.844805 516.10579 
L 582.544944 495.067668 
L 584.44499 492.017905 
L 586.345036 491.508541 
L 588.245082 493.881516 
L 590.145128 497.618696 
L 592.045174 502.296661 
L 593.94522 507.964947 
L 595.845267 514.757336 
L 597.745313 523.026174 
L 599.645359 531.990642 
L 601.545405 538.95822 
L 603.445451 541.223341 
L 605.345497 539.143571 
L 609.145589 530.243044 
L 611.045635 524.27504 
L 614.845728 510.556354 
L 616.745774 504.71827 
L 618.64582 501.359934 
L 620.545866 500.738726 
L 622.445912 501.9904 
L 624.345958 504.526466 
L 626.246004 508.189867 
L 630.046097 517.01374 
L 631.946143 521.989537 
L 633.846189 527.779651 
L 635.746235 532.402068 
L 637.646281 535.262391 
L 637.646281 535.262391 
" style="fill:none;stroke:#ffff14;stroke-linecap:square;stroke-width:1.5;"/>
   </g>
   <g id="line2d_45">
    <path clip-path="url(#pf513b93a2a)" d="M 194.935537 448.084415 
L 206.335814 448.195169 
L 217.736091 448.526711 
L 229.136367 449.076891 
L 240.536644 449.842142 
L 251.936921 450.8175 
L 263.337197 451.99664 
L 274.737474 453.371914 
L 288.037797 455.212326 
L 301.338119 457.291266 
L 314.638442 459.590387 
L 329.838811 462.46145 
L 345.03918 465.560447 
L 362.139595 469.274711 
L 383.040102 474.065421 
L 411.540794 480.863921 
L 455.241854 491.300363 
L 476.142362 496.047364 
L 493.242777 499.712148 
L 508.443145 502.757414 
L 523.643514 505.566214 
L 536.943837 507.804414 
L 550.24416 509.816987 
L 563.544483 511.586168 
L 574.944759 512.896994 
L 586.345036 514.008992 
L 597.745313 514.91495 
L 609.145589 515.608994 
L 620.545866 516.086622 
L 631.946143 516.344736 
L 637.646281 516.390896 
L 637.646281 516.390896 
" style="fill:none;stroke:#014d4e;stroke-linecap:square;stroke-width:1.5;"/>
   </g>
   <g id="line2d_46">
    <path clip-path="url(#pf513b93a2a)" d="M 194.935537 502.515116 
L 208.23586 502.455082 
L 217.736091 502.396878 
L 240.536644 502.317891 
L 295.637981 501.419998 
L 307.038258 501.183294 
L 331.738857 500.482817 
L 360.239549 499.33585 
L 409.640748 496.997072 
L 438.141439 495.361229 
L 472.342269 493.430953 
L 485.642592 492.634636 
L 517.943376 491.262201 
L 531.243699 490.93027 
L 538.843883 490.865634 
L 554.044252 491.051509 
L 555.944298 490.889646 
L 557.844344 491.251106 
L 559.74439 490.123149 
L 561.644437 486.271681 
L 563.544483 481.143595 
L 565.444529 476.958422 
L 567.344575 475.755067 
L 569.244621 478.588095 
L 571.144667 484.018697 
L 573.044713 489.03833 
L 574.944759 493.735447 
L 576.844805 499.722617 
L 582.544944 521.325284 
L 584.44499 524.551946 
L 586.345036 525.232514 
L 588.245082 523.025015 
L 590.145128 519.447556 
L 592.045174 514.923527 
L 593.94522 509.403363 
L 595.845267 502.753258 
L 597.745313 494.620839 
L 599.645359 485.7869 
L 601.545405 478.943938 
L 603.445451 476.797497 
L 605.345497 478.98999 
L 609.145589 488.098012 
L 611.045635 494.160751 
L 614.845728 508.050795 
L 616.745774 513.965472 
L 618.64582 517.394323 
L 620.545866 518.079958 
L 622.445912 516.88661 
L 624.345958 514.402759 
L 626.246004 510.785452 
L 630.046097 502.035372 
L 631.946143 497.087262 
L 633.846189 491.318686 
L 635.746235 486.711657 
L 637.646281 483.860568 
L 637.646281 483.860568 
" style="fill:none;stroke:#e50000;stroke-linecap:square;stroke-width:1.5;"/>
   </g>
   <g id="patch_13">
    <path d="M 172.8 629.9064 
L 172.8 382.1904 
" style="fill:none;stroke:#000000;stroke-linecap:square;stroke-linejoin:miter;stroke-width:0.8;"/>
   </g>
   <g id="patch_14">
    <path d="M 659.781818 629.9064 
L 659.781818 382.1904 
" style="fill:none;stroke:#000000;stroke-linecap:square;stroke-linejoin:miter;stroke-width:0.8;"/>
   </g>
   <g id="patch_15">
    <path d="M 172.8 629.9064 
L 659.781818 629.9064 
" style="fill:none;stroke:#000000;stroke-linecap:square;stroke-linejoin:miter;stroke-width:0.8;"/>
   </g>
   <g id="patch_16">
    <path d="M 172.8 382.1904 
L 659.781818 382.1904 
" style="fill:none;stroke:#000000;stroke-linecap:square;stroke-linejoin:miter;stroke-width:0.8;"/>
   </g>
   <g id="text_37">
    <!-- Left abduction -->
    <defs>
     <path d="M 9.8125 72.90625 
L 19.671875 72.90625 
L 19.671875 8.296875 
L 55.171875 8.296875 
L 55.171875 0 
L 9.8125 0 
z
" id="DejaVuSans-76"/>
    </defs>
    <g transform="translate(372.997159 376.1904)scale(0.12 -0.12)">
     <use xlink:href="#DejaVuSans-76"/>
     <use x="55.697266" xlink:href="#DejaVuSans-101"/>
     <use x="117.220703" xlink:href="#DejaVuSans-102"/>
     <use x="152.410156" xlink:href="#DejaVuSans-116"/>
     <use x="191.619141" xlink:href="#DejaVuSans-32"/>
     <use x="223.40625" xlink:href="#DejaVuSans-97"/>
     <use x="284.685547" xlink:href="#DejaVuSans-98"/>
     <use x="348.162109" xlink:href="#DejaVuSans-100"/>
     <use x="411.638672" xlink:href="#DejaVuSans-117"/>
     <use x="475.017578" xlink:href="#DejaVuSans-99"/>
     <use x="529.998047" xlink:href="#DejaVuSans-116"/>
     <use x="569.207031" xlink:href="#DejaVuSans-105"/>
     <use x="596.990234" xlink:href="#DejaVuSans-111"/>
     <use x="658.171875" xlink:href="#DejaVuSans-110"/>
    </g>
   </g>
  </g>
  <g id="axes_4">
   <g id="patch_17">
    <path d="M 757.178182 629.9064 
L 1244.16 629.9064 
L 1244.16 382.1904 
L 757.178182 382.1904 
z
" style="fill:#ffffff;"/>
   </g>
   <g id="matplotlib.axis_7">
    <g id="xtick_16">
     <g id="line2d_47">
      <g>
       <use style="stroke:#000000;stroke-width:0.8;" x="779.313719" xlink:href="#m8ce807c0fc" y="629.9064"/>
      </g>
     </g>
     <g id="text_38">
      <!-- 0 -->
      <g transform="translate(776.132469 644.504838)scale(0.1 -0.1)">
       <use xlink:href="#DejaVuSans-48"/>
      </g>
     </g>
    </g>
    <g id="xtick_17">
     <g id="line2d_48">
      <g>
       <use style="stroke:#000000;stroke-width:0.8;" x="874.316025" xlink:href="#m8ce807c0fc" y="629.9064"/>
      </g>
     </g>
     <g id="text_39">
      <!-- 50 -->
      <g transform="translate(867.953525 644.504838)scale(0.1 -0.1)">
       <use xlink:href="#DejaVuSans-53"/>
       <use x="63.623047" xlink:href="#DejaVuSans-48"/>
      </g>
     </g>
    </g>
    <g id="xtick_18">
     <g id="line2d_49">
      <g>
       <use style="stroke:#000000;stroke-width:0.8;" x="969.31833" xlink:href="#m8ce807c0fc" y="629.9064"/>
      </g>
     </g>
     <g id="text_40">
      <!-- 100 -->
      <g transform="translate(959.77458 644.504838)scale(0.1 -0.1)">
       <use xlink:href="#DejaVuSans-49"/>
       <use x="63.623047" xlink:href="#DejaVuSans-48"/>
       <use x="127.246094" xlink:href="#DejaVuSans-48"/>
      </g>
     </g>
    </g>
    <g id="xtick_19">
     <g id="line2d_50">
      <g>
       <use style="stroke:#000000;stroke-width:0.8;" x="1064.320636" xlink:href="#m8ce807c0fc" y="629.9064"/>
      </g>
     </g>
     <g id="text_41">
      <!-- 150 -->
      <g transform="translate(1054.776886 644.504838)scale(0.1 -0.1)">
       <use xlink:href="#DejaVuSans-49"/>
       <use x="63.623047" xlink:href="#DejaVuSans-53"/>
       <use x="127.246094" xlink:href="#DejaVuSans-48"/>
      </g>
     </g>
    </g>
    <g id="xtick_20">
     <g id="line2d_51">
      <g>
       <use style="stroke:#000000;stroke-width:0.8;" x="1159.322941" xlink:href="#m8ce807c0fc" y="629.9064"/>
      </g>
     </g>
     <g id="text_42">
      <!-- 200 -->
      <g transform="translate(1149.779191 644.504838)scale(0.1 -0.1)">
       <use xlink:href="#DejaVuSans-50"/>
       <use x="63.623047" xlink:href="#DejaVuSans-48"/>
       <use x="127.246094" xlink:href="#DejaVuSans-48"/>
      </g>
     </g>
    </g>
   </g>
   <g id="matplotlib.axis_8">
    <g id="ytick_20">
     <g id="line2d_52">
      <g>
       <use style="stroke:#000000;stroke-width:0.8;" x="757.178182" xlink:href="#m5fd47eb750" y="615.625055"/>
      </g>
     </g>
     <g id="text_43">
      <!-- −1.0 -->
      <defs>
       <path d="M 10.6875 12.40625 
L 21 12.40625 
L 21 0 
L 10.6875 0 
z
" id="DejaVuSans-46"/>
      </defs>
      <g transform="translate(725.895369 619.424274)scale(0.1 -0.1)">
       <use xlink:href="#DejaVuSans-8722"/>
       <use x="83.789062" xlink:href="#DejaVuSans-49"/>
       <use x="147.412109" xlink:href="#DejaVuSans-46"/>
       <use x="179.199219" xlink:href="#DejaVuSans-48"/>
      </g>
     </g>
    </g>
    <g id="ytick_21">
     <g id="line2d_53">
      <g>
       <use style="stroke:#000000;stroke-width:0.8;" x="757.178182" xlink:href="#m5fd47eb750" y="584.435169"/>
      </g>
     </g>
     <g id="text_44">
      <!-- −0.8 -->
      <g transform="translate(725.895369 588.234388)scale(0.1 -0.1)">
       <use xlink:href="#DejaVuSans-8722"/>
       <use x="83.789062" xlink:href="#DejaVuSans-48"/>
       <use x="147.412109" xlink:href="#DejaVuSans-46"/>
       <use x="179.199219" xlink:href="#DejaVuSans-56"/>
      </g>
     </g>
    </g>
    <g id="ytick_22">
     <g id="line2d_54">
      <g>
       <use style="stroke:#000000;stroke-width:0.8;" x="757.178182" xlink:href="#m5fd47eb750" y="553.245283"/>
      </g>
     </g>
     <g id="text_45">
      <!-- −0.6 -->
      <g transform="translate(725.895369 557.044501)scale(0.1 -0.1)">
       <use xlink:href="#DejaVuSans-8722"/>
       <use x="83.789062" xlink:href="#DejaVuSans-48"/>
       <use x="147.412109" xlink:href="#DejaVuSans-46"/>
       <use x="179.199219" xlink:href="#DejaVuSans-54"/>
      </g>
     </g>
    </g>
    <g id="ytick_23">
     <g id="line2d_55">
      <g>
       <use style="stroke:#000000;stroke-width:0.8;" x="757.178182" xlink:href="#m5fd47eb750" y="522.055396"/>
      </g>
     </g>
     <g id="text_46">
      <!-- −0.4 -->
      <g transform="translate(725.895369 525.854615)scale(0.1 -0.1)">
       <use xlink:href="#DejaVuSans-8722"/>
       <use x="83.789062" xlink:href="#DejaVuSans-48"/>
       <use x="147.412109" xlink:href="#DejaVuSans-46"/>
       <use x="179.199219" xlink:href="#DejaVuSans-52"/>
      </g>
     </g>
    </g>
    <g id="ytick_24">
     <g id="line2d_56">
      <g>
       <use style="stroke:#000000;stroke-width:0.8;" x="757.178182" xlink:href="#m5fd47eb750" y="490.86551"/>
      </g>
     </g>
     <g id="text_47">
      <!-- −0.2 -->
      <g transform="translate(725.895369 494.664729)scale(0.1 -0.1)">
       <use xlink:href="#DejaVuSans-8722"/>
       <use x="83.789062" xlink:href="#DejaVuSans-48"/>
       <use x="147.412109" xlink:href="#DejaVuSans-46"/>
       <use x="179.199219" xlink:href="#DejaVuSans-50"/>
      </g>
     </g>
    </g>
    <g id="ytick_25">
     <g id="line2d_57">
      <g>
       <use style="stroke:#000000;stroke-width:0.8;" x="757.178182" xlink:href="#m5fd47eb750" y="459.675624"/>
      </g>
     </g>
     <g id="text_48">
      <!-- 0.0 -->
      <g transform="translate(734.275057 463.474843)scale(0.1 -0.1)">
       <use xlink:href="#DejaVuSans-48"/>
       <use x="63.623047" xlink:href="#DejaVuSans-46"/>
       <use x="95.410156" xlink:href="#DejaVuSans-48"/>
      </g>
     </g>
    </g>
    <g id="ytick_26">
     <g id="line2d_58">
      <g>
       <use style="stroke:#000000;stroke-width:0.8;" x="757.178182" xlink:href="#m5fd47eb750" y="428.485738"/>
      </g>
     </g>
     <g id="text_49">
      <!-- 0.2 -->
      <g transform="translate(734.275057 432.284956)scale(0.1 -0.1)">
       <use xlink:href="#DejaVuSans-48"/>
       <use x="63.623047" xlink:href="#DejaVuSans-46"/>
       <use x="95.410156" xlink:href="#DejaVuSans-50"/>
      </g>
     </g>
    </g>
    <g id="ytick_27">
     <g id="line2d_59">
      <g>
       <use style="stroke:#000000;stroke-width:0.8;" x="757.178182" xlink:href="#m5fd47eb750" y="397.295851"/>
      </g>
     </g>
     <g id="text_50">
      <!-- 0.4 -->
      <g transform="translate(734.275057 401.09507)scale(0.1 -0.1)">
       <use xlink:href="#DejaVuSans-48"/>
       <use x="63.623047" xlink:href="#DejaVuSans-46"/>
       <use x="95.410156" xlink:href="#DejaVuSans-52"/>
      </g>
     </g>
    </g>
   </g>
   <g id="line2d_60">
    <path clip-path="url(#pff00634160)" d="M 779.313719 459.673945 
L 1022.519621 459.37584 
L 1052.920359 459.431339 
L 1060.520543 459.65629 
L 1066.220682 459.99123 
L 1079.521005 461.0491 
L 1089.021235 461.634662 
L 1094.721373 461.753846 
L 1098.521466 461.628025 
L 1102.321558 461.270419 
L 1106.12165 460.605448 
L 1109.921742 459.56978 
L 1113.721834 458.068301 
L 1119.421973 455.40582 
L 1123.222065 459.459333 
L 1125.122111 461.658766 
L 1128.922203 466.648816 
L 1132.722296 471.926554 
L 1138.422434 480.738574 
L 1140.32248 480.234121 
L 1142.222526 468.579095 
L 1144.122572 481.130633 
L 1146.022618 492.901853 
L 1149.822711 412.178486 
L 1151.722757 424.816075 
L 1153.622803 434.81541 
L 1155.522849 425.734381 
L 1157.422895 447.552348 
L 1159.322941 459.232298 
L 1161.222987 435.292428 
L 1163.123033 458.763652 
L 1165.023079 543.485579 
L 1166.923126 590.719451 
L 1168.823172 601.350096 
L 1170.723218 618.646582 
L 1172.623264 616.268486 
L 1174.52331 571.418146 
L 1176.423356 563.16556 
L 1178.323402 589.18168 
L 1180.223448 547.542148 
L 1182.123494 463.403234 
L 1184.023541 420.692431 
L 1185.923587 413.029284 
L 1187.823633 393.450218 
L 1189.723679 414.658267 
L 1191.623725 481.606953 
L 1193.523771 484.590291 
L 1195.423817 467.70175 
L 1197.323863 482.28532 
L 1199.223909 512.102258 
L 1203.024002 528.48684 
L 1204.924048 522.80842 
L 1206.824094 524.46525 
L 1208.72414 544.72154 
L 1210.624186 525.599787 
L 1212.524232 476.821884 
L 1214.424278 470.247807 
L 1216.324324 499.063029 
L 1218.224371 499.347084 
L 1220.124417 495.416633 
L 1222.024463 517.268149 
L 1222.024463 517.268149 
" style="fill:none;stroke:#ff796c;stroke-linecap:square;stroke-width:1.5;"/>
   </g>
   <g id="line2d_61">
    <path clip-path="url(#pff00634160)" d="M 779.313719 522.39945 
L 1068.120728 522.478224 
L 1071.92082 522.608893 
L 1077.620958 523.036981 
L 1083.321097 523.737899 
L 1087.121189 524.4013 
L 1090.921281 525.256464 
L 1094.721373 526.339633 
L 1098.521466 527.690856 
L 1102.321558 529.351967 
L 1106.12165 531.364341 
L 1109.921742 533.773868 
L 1113.721834 536.629846 
L 1117.521927 539.902803 
L 1119.421973 541.652305 
L 1128.922203 541.438078 
L 1142.222526 541.35462 
L 1144.122572 540.769765 
L 1146.022618 539.018192 
L 1147.922664 536.4737 
L 1153.622803 521.872249 
L 1155.522849 516.229831 
L 1157.422895 506.991672 
L 1159.322941 494.641631 
L 1161.222987 481.259247 
L 1165.023079 450.408967 
L 1166.923126 437.441197 
L 1168.823172 428.036019 
L 1170.723218 427.372932 
L 1172.623264 432.092439 
L 1174.52331 442.925099 
L 1176.423356 457.389974 
L 1178.323402 474.726025 
L 1182.123494 516.259236 
L 1184.023541 532.974382 
L 1185.923587 540.324321 
L 1187.823633 540.769798 
L 1189.723679 534.927311 
L 1191.623725 522.779808 
L 1193.523771 516.559617 
L 1195.423817 507.634645 
L 1197.323863 495.463607 
L 1199.223909 480.61421 
L 1201.123956 462.696221 
L 1203.024002 441.902351 
L 1204.924048 431.894771 
L 1206.824094 429.246779 
L 1208.72414 428.454162 
L 1210.624186 436.388554 
L 1212.524232 449.372669 
L 1214.424278 459.387095 
L 1218.224371 478.448334 
L 1220.124417 490.157103 
L 1222.024463 503.364338 
L 1222.024463 503.364338 
" style="fill:none;stroke:#ffff14;stroke-linecap:square;stroke-width:1.5;"/>
   </g>
   <g id="line2d_62">
    <path clip-path="url(#pff00634160)" d="M 779.313719 522.420673 
L 1222.024463 522.420673 
L 1222.024463 522.420673 
" style="fill:none;stroke:#014d4e;stroke-linecap:square;stroke-width:1.5;"/>
   </g>
   <g id="line2d_63">
    <path clip-path="url(#pff00634160)" d="M 779.313719 459.696848 
L 1068.120728 459.618073 
L 1071.92082 459.487404 
L 1077.620958 459.059317 
L 1083.321097 458.358398 
L 1087.121189 457.694997 
L 1090.921281 456.839833 
L 1094.721373 455.756664 
L 1098.521466 454.405441 
L 1102.321558 452.74433 
L 1106.12165 450.731956 
L 1109.921742 448.322429 
L 1113.721834 445.466452 
L 1117.521927 442.193494 
L 1119.421973 440.443992 
L 1128.922203 440.658219 
L 1142.222526 440.741678 
L 1144.122572 441.326532 
L 1146.022618 443.078105 
L 1147.922664 445.622597 
L 1153.622803 460.224049 
L 1155.522849 465.866467 
L 1157.422895 475.104625 
L 1159.322941 487.454666 
L 1161.222987 500.837051 
L 1165.023079 531.687331 
L 1166.923126 544.6551 
L 1168.823172 554.060278 
L 1170.723218 554.723365 
L 1172.623264 550.003858 
L 1174.52331 539.171199 
L 1176.423356 524.706323 
L 1178.323402 507.370272 
L 1182.123494 465.837061 
L 1184.023541 449.121915 
L 1185.923587 441.771976 
L 1187.823633 441.326499 
L 1189.723679 447.168986 
L 1191.623725 459.316489 
L 1193.523771 465.53668 
L 1195.423817 474.461653 
L 1197.323863 486.63269 
L 1199.223909 501.482087 
L 1201.123956 519.400076 
L 1203.024002 540.193946 
L 1204.924048 550.201526 
L 1206.824094 552.849518 
L 1208.72414 553.642135 
L 1210.624186 545.707743 
L 1212.524232 532.723628 
L 1214.424278 522.709203 
L 1218.224371 503.647963 
L 1220.124417 491.939194 
L 1222.024463 478.73196 
L 1222.024463 478.73196 
" style="fill:none;stroke:#e50000;stroke-linecap:square;stroke-width:1.5;"/>
   </g>
   <g id="patch_18">
    <path d="M 757.178182 629.9064 
L 757.178182 382.1904 
" style="fill:none;stroke:#000000;stroke-linecap:square;stroke-linejoin:miter;stroke-width:0.8;"/>
   </g>
   <g id="patch_19">
    <path d="M 1244.16 629.9064 
L 1244.16 382.1904 
" style="fill:none;stroke:#000000;stroke-linecap:square;stroke-linejoin:miter;stroke-width:0.8;"/>
   </g>
   <g id="patch_20">
    <path d="M 757.178182 629.9064 
L 1244.16 629.9064 
" style="fill:none;stroke:#000000;stroke-linecap:square;stroke-linejoin:miter;stroke-width:0.8;"/>
   </g>
   <g id="patch_21">
    <path d="M 757.178182 382.1904 
L 1244.16 382.1904 
" style="fill:none;stroke:#000000;stroke-linecap:square;stroke-linejoin:miter;stroke-width:0.8;"/>
   </g>
   <g id="text_51">
    <!-- Left flexion -->
    <g transform="translate(967.102841 376.1904)scale(0.12 -0.12)">
     <use xlink:href="#DejaVuSans-76"/>
     <use x="55.697266" xlink:href="#DejaVuSans-101"/>
     <use x="117.220703" xlink:href="#DejaVuSans-102"/>
     <use x="152.410156" xlink:href="#DejaVuSans-116"/>
     <use x="191.619141" xlink:href="#DejaVuSans-32"/>
     <use x="223.40625" xlink:href="#DejaVuSans-102"/>
     <use x="258.611328" xlink:href="#DejaVuSans-108"/>
     <use x="286.394531" xlink:href="#DejaVuSans-101"/>
     <use x="347.902344" xlink:href="#DejaVuSans-120"/>
     <use x="407.082031" xlink:href="#DejaVuSans-105"/>
     <use x="434.865234" xlink:href="#DejaVuSans-111"/>
     <use x="496.046875" xlink:href="#DejaVuSans-110"/>
    </g>
   </g>
  </g>
  <g id="legend_1">
   <g id="patch_22">
    <path d="M 1308.251562 384.875313 
L 1375.4 384.875313 
Q 1377.4 384.875313 1377.4 382.875313 
L 1377.4 324.884687 
Q 1377.4 322.884687 1375.4 322.884687 
L 1308.251562 322.884687 
Q 1306.251562 322.884687 1306.251562 324.884687 
L 1306.251562 382.875313 
Q 1306.251562 384.875313 1308.251562 384.875313 
z
" style="fill:#ffffff;opacity:0.8;stroke:#cccccc;stroke-linejoin:miter;"/>
   </g>
   <g id="line2d_64">
    <path d="M 1310.251562 330.983125 
L 1330.251562 330.983125 
" style="fill:none;stroke:#ff796c;stroke-linecap:square;stroke-width:1.5;"/>
   </g>
   <g id="line2d_65"/>
   <g id="text_52">
    <!-- Torque -->
    <defs>
     <path d="M -0.296875 72.90625 
L 61.375 72.90625 
L 61.375 64.59375 
L 35.5 64.59375 
L 35.5 0 
L 25.59375 0 
L 25.59375 64.59375 
L -0.296875 64.59375 
z
" id="DejaVuSans-84"/>
     <path d="M 41.109375 46.296875 
Q 39.59375 47.171875 37.8125 47.578125 
Q 36.03125 48 33.890625 48 
Q 26.265625 48 22.1875 43.046875 
Q 18.109375 38.09375 18.109375 28.8125 
L 18.109375 0 
L 9.078125 0 
L 9.078125 54.6875 
L 18.109375 54.6875 
L 18.109375 46.1875 
Q 20.953125 51.171875 25.484375 53.578125 
Q 30.03125 56 36.53125 56 
Q 37.453125 56 38.578125 55.875 
Q 39.703125 55.765625 41.0625 55.515625 
z
" id="DejaVuSans-114"/>
     <path d="M 14.796875 27.296875 
Q 14.796875 17.390625 18.875 11.75 
Q 22.953125 6.109375 30.078125 6.109375 
Q 37.203125 6.109375 41.296875 11.75 
Q 45.40625 17.390625 45.40625 27.296875 
Q 45.40625 37.203125 41.296875 42.84375 
Q 37.203125 48.484375 30.078125 48.484375 
Q 22.953125 48.484375 18.875 42.84375 
Q 14.796875 37.203125 14.796875 27.296875 
z
M 45.40625 8.203125 
Q 42.578125 3.328125 38.25 0.953125 
Q 33.9375 -1.421875 27.875 -1.421875 
Q 17.96875 -1.421875 11.734375 6.484375 
Q 5.515625 14.40625 5.515625 27.296875 
Q 5.515625 40.1875 11.734375 48.09375 
Q 17.96875 56 27.875 56 
Q 33.9375 56 38.25 53.625 
Q 42.578125 51.265625 45.40625 46.390625 
L 45.40625 54.6875 
L 54.390625 54.6875 
L 54.390625 -20.796875 
L 45.40625 -20.796875 
z
" id="DejaVuSans-113"/>
    </defs>
    <g transform="translate(1338.251562 334.483125)scale(0.1 -0.1)">
     <use xlink:href="#DejaVuSans-84"/>
     <use x="60.818359" xlink:href="#DejaVuSans-111"/>
     <use x="122" xlink:href="#DejaVuSans-114"/>
     <use x="163.097656" xlink:href="#DejaVuSans-113"/>
     <use x="226.574219" xlink:href="#DejaVuSans-117"/>
     <use x="289.953125" xlink:href="#DejaVuSans-101"/>
    </g>
   </g>
   <g id="line2d_66">
    <path d="M 1310.251562 345.66125 
L 1330.251562 345.66125 
" style="fill:none;stroke:#ffff14;stroke-linecap:square;stroke-width:1.5;"/>
   </g>
   <g id="line2d_67"/>
   <g id="text_53">
    <!-- q -->
    <g transform="translate(1338.251562 349.16125)scale(0.1 -0.1)">
     <use xlink:href="#DejaVuSans-113"/>
    </g>
   </g>
   <g id="line2d_68">
    <path d="M 1310.251562 360.339375 
L 1330.251562 360.339375 
" style="fill:none;stroke:#014d4e;stroke-linecap:square;stroke-width:1.5;"/>
   </g>
   <g id="line2d_69"/>
   <g id="text_54">
    <!-- q_des -->
    <defs>
     <path d="M 50.984375 -16.609375 
L 50.984375 -23.578125 
L -0.984375 -23.578125 
L -0.984375 -16.609375 
z
" id="DejaVuSans-95"/>
     <path d="M 44.28125 53.078125 
L 44.28125 44.578125 
Q 40.484375 46.53125 36.375 47.5 
Q 32.28125 48.484375 27.875 48.484375 
Q 21.1875 48.484375 17.84375 46.4375 
Q 14.5 44.390625 14.5 40.28125 
Q 14.5 37.15625 16.890625 35.375 
Q 19.28125 33.59375 26.515625 31.984375 
L 29.59375 31.296875 
Q 39.15625 29.25 43.1875 25.515625 
Q 47.21875 21.78125 47.21875 15.09375 
Q 47.21875 7.46875 41.1875 3.015625 
Q 35.15625 -1.421875 24.609375 -1.421875 
Q 20.21875 -1.421875 15.453125 -0.5625 
Q 10.6875 0.296875 5.421875 2 
L 5.421875 11.28125 
Q 10.40625 8.6875 15.234375 7.390625 
Q 20.0625 6.109375 24.8125 6.109375 
Q 31.15625 6.109375 34.5625 8.28125 
Q 37.984375 10.453125 37.984375 14.40625 
Q 37.984375 18.0625 35.515625 20.015625 
Q 33.0625 21.96875 24.703125 23.78125 
L 21.578125 24.515625 
Q 13.234375 26.265625 9.515625 29.90625 
Q 5.8125 33.546875 5.8125 39.890625 
Q 5.8125 47.609375 11.28125 51.796875 
Q 16.75 56 26.8125 56 
Q 31.78125 56 36.171875 55.265625 
Q 40.578125 54.546875 44.28125 53.078125 
z
" id="DejaVuSans-115"/>
    </defs>
    <g transform="translate(1338.251562 363.839375)scale(0.1 -0.1)">
     <use xlink:href="#DejaVuSans-113"/>
     <use x="63.476562" xlink:href="#DejaVuSans-95"/>
     <use x="113.476562" xlink:href="#DejaVuSans-100"/>
     <use x="176.953125" xlink:href="#DejaVuSans-101"/>
     <use x="238.476562" xlink:href="#DejaVuSans-115"/>
    </g>
   </g>
   <g id="line2d_70">
    <path d="M 1310.251562 375.295625 
L 1330.251562 375.295625 
" style="fill:none;stroke:#e50000;stroke-linecap:square;stroke-width:1.5;"/>
   </g>
   <g id="line2d_71"/>
   <g id="text_55">
    <!-- error -->
    <g transform="translate(1338.251562 378.795625)scale(0.1 -0.1)">
     <use xlink:href="#DejaVuSans-101"/>
     <use x="61.523438" xlink:href="#DejaVuSans-114"/>
     <use x="102.621094" xlink:href="#DejaVuSans-114"/>
     <use x="143.703125" xlink:href="#DejaVuSans-111"/>
     <use x="204.884766" xlink:href="#DejaVuSans-114"/>
    </g>
   </g>
  </g>
 </g>
 <defs>
  <clipPath id="p67b5813953">
   <rect height="247.716" width="486.981818" x="172.8" y="84.9312"/>
  </clipPath>
  <clipPath id="pa030b853ba">
   <rect height="247.716" width="486.981818" x="757.178182" y="84.9312"/>
  </clipPath>
  <clipPath id="pf513b93a2a">
   <rect height="247.716" width="486.981818" x="172.8" y="382.1904"/>
  </clipPath>
  <clipPath id="pff00634160">
   <rect height="247.716" width="486.981818" x="757.178182" y="382.1904"/>
  </clipPath>
 </defs>
</svg>
