<?xml version="1.0" encoding="utf-8" standalone="no"?>
<!DOCTYPE svg PUBLIC "-//W3C//DTD SVG 1.1//EN"
  "http://www.w3.org/Graphics/SVG/1.1/DTD/svg11.dtd">
<!-- Created with matplotlib (https://matplotlib.org/) -->
<svg height="707.76pt" version="1.1" viewBox="0 0 1382.4 707.76" width="1382.4pt" xmlns="http://www.w3.org/2000/svg" xmlns:xlink="http://www.w3.org/1999/xlink">
 <defs>
  <style type="text/css">
*{stroke-linecap:butt;stroke-linejoin:round;}
  </style>
 </defs>
 <g id="figure_1">
  <g id="patch_1">
   <path d="M 0 707.76 
L 1382.4 707.76 
L 1382.4 0 
L 0 0 
z
" style="fill:#ffffff;"/>
  </g>
  <g id="axes_1">
   <g id="patch_2">
    <path d="M 172.8 332.6472 
L 487.905882 332.6472 
L 487.905882 84.9312 
L 172.8 84.9312 
z
" style="fill:#ffffff;"/>
   </g>
   <g id="matplotlib.axis_1">
    <g id="xtick_1">
     <g id="line2d_1">
      <defs>
       <path d="M 0 0 
L 0 3.5 
" id="m1a41e27255" style="stroke:#000000;stroke-width:0.8;"/>
      </defs>
      <g>
       <use style="stroke:#000000;stroke-width:0.8;" x="187.122995" xlink:href="#m1a41e27255" y="332.6472"/>
      </g>
     </g>
     <g id="text_1">
      <!-- 0 -->
      <defs>
       <path d="M 31.78125 66.40625 
Q 24.171875 66.40625 20.328125 58.90625 
Q 16.5 51.421875 16.5 36.375 
Q 16.5 21.390625 20.328125 13.890625 
Q 24.171875 6.390625 31.78125 6.390625 
Q 39.453125 6.390625 43.28125 13.890625 
Q 47.125 21.390625 47.125 36.375 
Q 47.125 51.421875 43.28125 58.90625 
Q 39.453125 66.40625 31.78125 66.40625 
z
M 31.78125 74.21875 
Q 44.046875 74.21875 50.515625 64.515625 
Q 56.984375 54.828125 56.984375 36.375 
Q 56.984375 17.96875 50.515625 8.265625 
Q 44.046875 -1.421875 31.78125 -1.421875 
Q 19.53125 -1.421875 13.0625 8.265625 
Q 6.59375 17.96875 6.59375 36.375 
Q 6.59375 54.828125 13.0625 64.515625 
Q 19.53125 74.21875 31.78125 74.21875 
z
" id="DejaVuSans-48"/>
      </defs>
      <g transform="translate(183.941745 347.245637)scale(0.1 -0.1)">
       <use xlink:href="#DejaVuSans-48"/>
      </g>
     </g>
    </g>
    <g id="xtick_2">
     <g id="line2d_2">
      <g>
       <use style="stroke:#000000;stroke-width:0.8;" x="248.595075" xlink:href="#m1a41e27255" y="332.6472"/>
      </g>
     </g>
     <g id="text_2">
      <!-- 50 -->
      <defs>
       <path d="M 10.796875 72.90625 
L 49.515625 72.90625 
L 49.515625 64.59375 
L 19.828125 64.59375 
L 19.828125 46.734375 
Q 21.96875 47.46875 24.109375 47.828125 
Q 26.265625 48.1875 28.421875 48.1875 
Q 40.625 48.1875 47.75 41.5 
Q 54.890625 34.8125 54.890625 23.390625 
Q 54.890625 11.625 47.5625 5.09375 
Q 40.234375 -1.421875 26.90625 -1.421875 
Q 22.3125 -1.421875 17.546875 -0.640625 
Q 12.796875 0.140625 7.71875 1.703125 
L 7.71875 11.625 
Q 12.109375 9.234375 16.796875 8.0625 
Q 21.484375 6.890625 26.703125 6.890625 
Q 35.15625 6.890625 40.078125 11.328125 
Q 45.015625 15.765625 45.015625 23.390625 
Q 45.015625 31 40.078125 35.4375 
Q 35.15625 39.890625 26.703125 39.890625 
Q 22.75 39.890625 18.8125 39.015625 
Q 14.890625 38.140625 10.796875 36.28125 
z
" id="DejaVuSans-53"/>
      </defs>
      <g transform="translate(242.232575 347.245637)scale(0.1 -0.1)">
       <use xlink:href="#DejaVuSans-53"/>
       <use x="63.623047" xlink:href="#DejaVuSans-48"/>
      </g>
     </g>
    </g>
    <g id="xtick_3">
     <g id="line2d_3">
      <g>
       <use style="stroke:#000000;stroke-width:0.8;" x="310.067155" xlink:href="#m1a41e27255" y="332.6472"/>
      </g>
     </g>
     <g id="text_3">
      <!-- 100 -->
      <defs>
       <path d="M 12.40625 8.296875 
L 28.515625 8.296875 
L 28.515625 63.921875 
L 10.984375 60.40625 
L 10.984375 69.390625 
L 28.421875 72.90625 
L 38.28125 72.90625 
L 38.28125 8.296875 
L 54.390625 8.296875 
L 54.390625 0 
L 12.40625 0 
z
" id="DejaVuSans-49"/>
      </defs>
      <g transform="translate(300.523405 347.245637)scale(0.1 -0.1)">
       <use xlink:href="#DejaVuSans-49"/>
       <use x="63.623047" xlink:href="#DejaVuSans-48"/>
       <use x="127.246094" xlink:href="#DejaVuSans-48"/>
      </g>
     </g>
    </g>
    <g id="xtick_4">
     <g id="line2d_4">
      <g>
       <use style="stroke:#000000;stroke-width:0.8;" x="371.539235" xlink:href="#m1a41e27255" y="332.6472"/>
      </g>
     </g>
     <g id="text_4">
      <!-- 150 -->
      <g transform="translate(361.995485 347.245637)scale(0.1 -0.1)">
       <use xlink:href="#DejaVuSans-49"/>
       <use x="63.623047" xlink:href="#DejaVuSans-53"/>
       <use x="127.246094" xlink:href="#DejaVuSans-48"/>
      </g>
     </g>
    </g>
    <g id="xtick_5">
     <g id="line2d_5">
      <g>
       <use style="stroke:#000000;stroke-width:0.8;" x="433.011315" xlink:href="#m1a41e27255" y="332.6472"/>
      </g>
     </g>
     <g id="text_5">
      <!-- 200 -->
      <defs>
       <path d="M 19.1875 8.296875 
L 53.609375 8.296875 
L 53.609375 0 
L 7.328125 0 
L 7.328125 8.296875 
Q 12.9375 14.109375 22.625 23.890625 
Q 32.328125 33.6875 34.8125 36.53125 
Q 39.546875 41.84375 41.421875 45.53125 
Q 43.3125 49.21875 43.3125 52.78125 
Q 43.3125 58.59375 39.234375 62.25 
Q 35.15625 65.921875 28.609375 65.921875 
Q 23.96875 65.921875 18.8125 64.3125 
Q 13.671875 62.703125 7.8125 59.421875 
L 7.8125 69.390625 
Q 13.765625 71.78125 18.9375 73 
Q 24.125 74.21875 28.421875 74.21875 
Q 39.75 74.21875 46.484375 68.546875 
Q 53.21875 62.890625 53.21875 53.421875 
Q 53.21875 48.921875 51.53125 44.890625 
Q 49.859375 40.875 45.40625 35.40625 
Q 44.1875 33.984375 37.640625 27.21875 
Q 31.109375 20.453125 19.1875 8.296875 
z
" id="DejaVuSans-50"/>
      </defs>
      <g transform="translate(423.467565 347.245637)scale(0.1 -0.1)">
       <use xlink:href="#DejaVuSans-50"/>
       <use x="63.623047" xlink:href="#DejaVuSans-48"/>
       <use x="127.246094" xlink:href="#DejaVuSans-48"/>
      </g>
     </g>
    </g>
   </g>
   <g id="matplotlib.axis_2">
    <g id="ytick_1">
     <g id="line2d_6">
      <defs>
       <path d="M 0 0 
L -3.5 0 
" id="m195e3bfca6" style="stroke:#000000;stroke-width:0.8;"/>
      </defs>
      <g>
       <use style="stroke:#000000;stroke-width:0.8;" x="172.8" xlink:href="#m195e3bfca6" y="303.478131"/>
      </g>
     </g>
     <g id="text_6">
      <!-- 0 -->
      <g transform="translate(159.4375 307.277349)scale(0.1 -0.1)">
       <use xlink:href="#DejaVuSans-48"/>
      </g>
     </g>
    </g>
    <g id="ytick_2">
     <g id="line2d_7">
      <g>
       <use style="stroke:#000000;stroke-width:0.8;" x="172.8" xlink:href="#m195e3bfca6" y="256.004928"/>
      </g>
     </g>
     <g id="text_7">
      <!-- 1 -->
      <g transform="translate(159.4375 259.804147)scale(0.1 -0.1)">
       <use xlink:href="#DejaVuSans-49"/>
      </g>
     </g>
    </g>
    <g id="ytick_3">
     <g id="line2d_8">
      <g>
       <use style="stroke:#000000;stroke-width:0.8;" x="172.8" xlink:href="#m195e3bfca6" y="208.531725"/>
      </g>
     </g>
     <g id="text_8">
      <!-- 2 -->
      <g transform="translate(159.4375 212.330944)scale(0.1 -0.1)">
       <use xlink:href="#DejaVuSans-50"/>
      </g>
     </g>
    </g>
    <g id="ytick_4">
     <g id="line2d_9">
      <g>
       <use style="stroke:#000000;stroke-width:0.8;" x="172.8" xlink:href="#m195e3bfca6" y="161.058523"/>
      </g>
     </g>
     <g id="text_9">
      <!-- 3 -->
      <defs>
       <path d="M 40.578125 39.3125 
Q 47.65625 37.796875 51.625 33 
Q 55.609375 28.21875 55.609375 21.1875 
Q 55.609375 10.40625 48.1875 4.484375 
Q 40.765625 -1.421875 27.09375 -1.421875 
Q 22.515625 -1.421875 17.65625 -0.515625 
Q 12.796875 0.390625 7.625 2.203125 
L 7.625 11.71875 
Q 11.71875 9.328125 16.59375 8.109375 
Q 21.484375 6.890625 26.8125 6.890625 
Q 36.078125 6.890625 40.9375 10.546875 
Q 45.796875 14.203125 45.796875 21.1875 
Q 45.796875 27.640625 41.28125 31.265625 
Q 36.765625 34.90625 28.71875 34.90625 
L 20.21875 34.90625 
L 20.21875 43.015625 
L 29.109375 43.015625 
Q 36.375 43.015625 40.234375 45.921875 
Q 44.09375 48.828125 44.09375 54.296875 
Q 44.09375 59.90625 40.109375 62.90625 
Q 36.140625 65.921875 28.71875 65.921875 
Q 24.65625 65.921875 20.015625 65.03125 
Q 15.375 64.15625 9.8125 62.3125 
L 9.8125 71.09375 
Q 15.4375 72.65625 20.34375 73.4375 
Q 25.25 74.21875 29.59375 74.21875 
Q 40.828125 74.21875 47.359375 69.109375 
Q 53.90625 64.015625 53.90625 55.328125 
Q 53.90625 49.265625 50.4375 45.09375 
Q 46.96875 40.921875 40.578125 39.3125 
z
" id="DejaVuSans-51"/>
      </defs>
      <g transform="translate(159.4375 164.857741)scale(0.1 -0.1)">
       <use xlink:href="#DejaVuSans-51"/>
      </g>
     </g>
    </g>
    <g id="ytick_5">
     <g id="line2d_10">
      <g>
       <use style="stroke:#000000;stroke-width:0.8;" x="172.8" xlink:href="#m195e3bfca6" y="113.58532"/>
      </g>
     </g>
     <g id="text_10">
      <!-- 4 -->
      <defs>
       <path d="M 37.796875 64.3125 
L 12.890625 25.390625 
L 37.796875 25.390625 
z
M 35.203125 72.90625 
L 47.609375 72.90625 
L 47.609375 25.390625 
L 58.015625 25.390625 
L 58.015625 17.1875 
L 47.609375 17.1875 
L 47.609375 0 
L 37.796875 0 
L 37.796875 17.1875 
L 4.890625 17.1875 
L 4.890625 26.703125 
z
" id="DejaVuSans-52"/>
      </defs>
      <g transform="translate(159.4375 117.384539)scale(0.1 -0.1)">
       <use xlink:href="#DejaVuSans-52"/>
      </g>
     </g>
    </g>
   </g>
   <g id="line2d_11">
    <path clip-path="url(#p702e3d4752)" d="M 187.122995 303.478083 
L 190.811319 303.412631 
L 194.499644 302.988938 
L 198.187969 302.551512 
L 201.876294 302.13867 
L 205.564619 301.375498 
L 209.252943 300.595393 
L 214.17071 299.653738 
L 221.547359 297.835233 
L 225.235684 297.037502 
L 232.612334 295.085741 
L 236.300659 294.255506 
L 243.677308 292.32376 
L 247.365633 291.530779 
L 254.742283 289.623643 
L 258.430608 288.774921 
L 265.807257 286.739457 
L 269.495582 285.809118 
L 276.872232 283.620971 
L 279.331115 282.914326 
L 283.01944 281.541267 
L 291.625531 278.144764 
L 302.690505 272.51264 
L 312.526038 266.455815 
L 322.361571 259.219883 
L 330.967662 252.007873 
L 334.655987 248.669144 
L 344.49152 239.202296 
L 359.244819 223.59558 
L 367.85091 214.232187 
L 394.898625 183.558451 
L 405.9636 171.695138 
L 410.881366 166.806525 
L 415.799132 162.362372 
L 419.487457 158.967916 
L 420.716899 155.734329 
L 421.94634 158.832044 
L 423.175782 148.91598 
L 424.405224 129.427219 
L 425.634665 114.288276 
L 426.864107 105.077331 
L 428.093548 102.074992 
L 429.32299 106.398139 
L 430.552432 109.382777 
L 431.781873 101.856999 
L 433.011315 96.191018 
L 434.240756 101.990639 
L 435.470198 111.545183 
L 436.69964 119.211087 
L 437.929081 124.872378 
L 439.158523 123.06002 
L 440.387964 128.334953 
L 441.617406 130.565817 
L 442.846848 136.168367 
L 445.305731 151.223073 
L 446.535172 155.774891 
L 447.764614 162.299798 
L 448.994056 165.168777 
L 450.223497 183.097918 
L 452.68238 227.784915 
L 453.911822 244.675967 
L 455.141264 229.177431 
L 456.370705 240.514644 
L 457.600147 250.703462 
L 458.829588 259.430526 
L 460.05903 269.979455 
L 461.288472 278.831107 
L 462.517913 272.352785 
L 463.747355 277.981999 
L 464.976796 288.743176 
L 466.206238 284.444968 
L 467.43568 284.860248 
L 468.665121 294.530956 
L 469.894563 302.138607 
L 471.124004 304.036998 
L 473.582888 316.309199 
L 473.582888 316.309199 
" style="fill:none;stroke:#ff796c;stroke-linecap:square;stroke-width:1.5;"/>
   </g>
   <g id="line2d_12">
    <path clip-path="url(#p702e3d4752)" d="M 187.122995 303.768295 
L 195.729086 303.872519 
L 206.79406 304.326161 
L 226.465126 305.654261 
L 246.136192 307.061719 
L 276.872232 308.705105 
L 289.166648 309.31943 
L 299.00218 309.961367 
L 308.837713 310.713125 
L 318.673246 311.583418 
L 356.785936 314.95763 
L 364.162585 315.320777 
L 373.998118 315.514132 
L 382.604209 315.389762 
L 388.751417 315.059368 
L 394.898625 314.515841 
L 401.045833 313.72155 
L 407.193041 312.702528 
L 410.881366 311.964928 
L 414.569691 311.003006 
L 420.716899 309.140847 
L 421.94634 308.167451 
L 423.175782 308.524514 
L 424.405224 310.664199 
L 428.093548 318.460596 
L 429.32299 319.495477 
L 430.552432 319.523791 
L 433.011315 321.387382 
L 434.240756 320.944641 
L 435.470198 319.638504 
L 436.69964 317.973364 
L 437.929081 315.571346 
L 439.158523 313.630577 
L 441.617406 308.476824 
L 444.076289 302.404932 
L 445.305731 299.704961 
L 447.764614 293.560951 
L 448.994056 291.089323 
L 450.223497 287.81485 
L 451.452939 283.031338 
L 453.911822 272.681706 
L 455.141264 269.447316 
L 457.600147 262.281788 
L 458.829588 259.103317 
L 461.288472 252.019535 
L 462.517913 249.477597 
L 463.747355 246.569411 
L 464.976796 242.868545 
L 466.206238 240.273717 
L 467.43568 238.346246 
L 469.894563 233.027842 
L 472.353446 229.162117 
L 473.582888 226.752179 
L 473.582888 226.752179 
" style="fill:none;stroke:#ffff14;stroke-linecap:square;stroke-width:1.5;"/>
   </g>
   <g id="line2d_13">
    <path clip-path="url(#p702e3d4752)" d="M 187.122995 303.768311 
L 252.2834 303.658917 
L 271.954465 303.406668 
L 286.707764 303.020307 
L 300.231622 302.444291 
L 311.296596 301.768564 
L 322.361571 300.87033 
L 332.197104 299.856375 
L 342.032636 298.614134 
L 350.638728 297.321072 
L 359.244819 295.818914 
L 367.85091 294.091648 
L 376.457001 292.123214 
L 385.063092 289.897766 
L 392.439742 287.774187 
L 399.816392 285.441894 
L 407.193041 282.893124 
L 414.569691 280.121525 
L 421.94634 277.122653 
L 429.32299 273.890803 
L 436.69964 270.42295 
L 444.076289 266.720446 
L 451.452939 262.770877 
L 458.829588 258.551707 
L 466.206238 254.046067 
L 473.582888 249.267513 
L 473.582888 249.267513 
" style="fill:none;stroke:#014d4e;stroke-linecap:square;stroke-width:1.5;"/>
   </g>
   <g id="patch_3">
    <path d="M 172.8 332.6472 
L 172.8 84.9312 
" style="fill:none;stroke:#000000;stroke-linecap:square;stroke-linejoin:miter;stroke-width:0.8;"/>
   </g>
   <g id="patch_4">
    <path d="M 487.905882 332.6472 
L 487.905882 84.9312 
" style="fill:none;stroke:#000000;stroke-linecap:square;stroke-linejoin:miter;stroke-width:0.8;"/>
   </g>
   <g id="patch_5">
    <path d="M 172.8 332.6472 
L 487.905882 332.6472 
" style="fill:none;stroke:#000000;stroke-linecap:square;stroke-linejoin:miter;stroke-width:0.8;"/>
   </g>
   <g id="patch_6">
    <path d="M 172.8 84.9312 
L 487.905882 84.9312 
" style="fill:none;stroke:#000000;stroke-linecap:square;stroke-linejoin:miter;stroke-width:0.8;"/>
   </g>
   <g id="text_11">
    <!-- Lateral joint 0 -->
    <defs>
     <path d="M 9.8125 72.90625 
L 19.671875 72.90625 
L 19.671875 8.296875 
L 55.171875 8.296875 
L 55.171875 0 
L 9.8125 0 
z
" id="DejaVuSans-76"/>
     <path d="M 34.28125 27.484375 
Q 23.390625 27.484375 19.1875 25 
Q 14.984375 22.515625 14.984375 16.5 
Q 14.984375 11.71875 18.140625 8.90625 
Q 21.296875 6.109375 26.703125 6.109375 
Q 34.1875 6.109375 38.703125 11.40625 
Q 43.21875 16.703125 43.21875 25.484375 
L 43.21875 27.484375 
z
M 52.203125 31.203125 
L 52.203125 0 
L 43.21875 0 
L 43.21875 8.296875 
Q 40.140625 3.328125 35.546875 0.953125 
Q 30.953125 -1.421875 24.3125 -1.421875 
Q 15.921875 -1.421875 10.953125 3.296875 
Q 6 8.015625 6 15.921875 
Q 6 25.140625 12.171875 29.828125 
Q 18.359375 34.515625 30.609375 34.515625 
L 43.21875 34.515625 
L 43.21875 35.40625 
Q 43.21875 41.609375 39.140625 45 
Q 35.0625 48.390625 27.6875 48.390625 
Q 23 48.390625 18.546875 47.265625 
Q 14.109375 46.140625 10.015625 43.890625 
L 10.015625 52.203125 
Q 14.9375 54.109375 19.578125 55.046875 
Q 24.21875 56 28.609375 56 
Q 40.484375 56 46.34375 49.84375 
Q 52.203125 43.703125 52.203125 31.203125 
z
" id="DejaVuSans-97"/>
     <path d="M 18.3125 70.21875 
L 18.3125 54.6875 
L 36.8125 54.6875 
L 36.8125 47.703125 
L 18.3125 47.703125 
L 18.3125 18.015625 
Q 18.3125 11.328125 20.140625 9.421875 
Q 21.96875 7.515625 27.59375 7.515625 
L 36.8125 7.515625 
L 36.8125 0 
L 27.59375 0 
Q 17.1875 0 13.234375 3.875 
Q 9.28125 7.765625 9.28125 18.015625 
L 9.28125 47.703125 
L 2.6875 47.703125 
L 2.6875 54.6875 
L 9.28125 54.6875 
L 9.28125 70.21875 
z
" id="DejaVuSans-116"/>
     <path d="M 56.203125 29.59375 
L 56.203125 25.203125 
L 14.890625 25.203125 
Q 15.484375 15.921875 20.484375 11.0625 
Q 25.484375 6.203125 34.421875 6.203125 
Q 39.59375 6.203125 44.453125 7.46875 
Q 49.3125 8.734375 54.109375 11.28125 
L 54.109375 2.78125 
Q 49.265625 0.734375 44.1875 -0.34375 
Q 39.109375 -1.421875 33.890625 -1.421875 
Q 20.796875 -1.421875 13.15625 6.1875 
Q 5.515625 13.8125 5.515625 26.8125 
Q 5.515625 40.234375 12.765625 48.109375 
Q 20.015625 56 32.328125 56 
Q 43.359375 56 49.78125 48.890625 
Q 56.203125 41.796875 56.203125 29.59375 
z
M 47.21875 32.234375 
Q 47.125 39.59375 43.09375 43.984375 
Q 39.0625 48.390625 32.421875 48.390625 
Q 24.90625 48.390625 20.390625 44.140625 
Q 15.875 39.890625 15.1875 32.171875 
z
" id="DejaVuSans-101"/>
     <path d="M 41.109375 46.296875 
Q 39.59375 47.171875 37.8125 47.578125 
Q 36.03125 48 33.890625 48 
Q 26.265625 48 22.1875 43.046875 
Q 18.109375 38.09375 18.109375 28.8125 
L 18.109375 0 
L 9.078125 0 
L 9.078125 54.6875 
L 18.109375 54.6875 
L 18.109375 46.1875 
Q 20.953125 51.171875 25.484375 53.578125 
Q 30.03125 56 36.53125 56 
Q 37.453125 56 38.578125 55.875 
Q 39.703125 55.765625 41.0625 55.515625 
z
" id="DejaVuSans-114"/>
     <path d="M 9.421875 75.984375 
L 18.40625 75.984375 
L 18.40625 0 
L 9.421875 0 
z
" id="DejaVuSans-108"/>
     <path id="DejaVuSans-32"/>
     <path d="M 9.421875 54.6875 
L 18.40625 54.6875 
L 18.40625 -0.984375 
Q 18.40625 -11.421875 14.421875 -16.109375 
Q 10.453125 -20.796875 1.609375 -20.796875 
L -1.8125 -20.796875 
L -1.8125 -13.1875 
L 0.59375 -13.1875 
Q 5.71875 -13.1875 7.5625 -10.8125 
Q 9.421875 -8.453125 9.421875 -0.984375 
z
M 9.421875 75.984375 
L 18.40625 75.984375 
L 18.40625 64.59375 
L 9.421875 64.59375 
z
" id="DejaVuSans-106"/>
     <path d="M 30.609375 48.390625 
Q 23.390625 48.390625 19.1875 42.75 
Q 14.984375 37.109375 14.984375 27.296875 
Q 14.984375 17.484375 19.15625 11.84375 
Q 23.34375 6.203125 30.609375 6.203125 
Q 37.796875 6.203125 41.984375 11.859375 
Q 46.1875 17.53125 46.1875 27.296875 
Q 46.1875 37.015625 41.984375 42.703125 
Q 37.796875 48.390625 30.609375 48.390625 
z
M 30.609375 56 
Q 42.328125 56 49.015625 48.375 
Q 55.71875 40.765625 55.71875 27.296875 
Q 55.71875 13.875 49.015625 6.21875 
Q 42.328125 -1.421875 30.609375 -1.421875 
Q 18.84375 -1.421875 12.171875 6.21875 
Q 5.515625 13.875 5.515625 27.296875 
Q 5.515625 40.765625 12.171875 48.375 
Q 18.84375 56 30.609375 56 
z
" id="DejaVuSans-111"/>
     <path d="M 9.421875 54.6875 
L 18.40625 54.6875 
L 18.40625 0 
L 9.421875 0 
z
M 9.421875 75.984375 
L 18.40625 75.984375 
L 18.40625 64.59375 
L 9.421875 64.59375 
z
" id="DejaVuSans-105"/>
     <path d="M 54.890625 33.015625 
L 54.890625 0 
L 45.90625 0 
L 45.90625 32.71875 
Q 45.90625 40.484375 42.875 44.328125 
Q 39.84375 48.1875 33.796875 48.1875 
Q 26.515625 48.1875 22.3125 43.546875 
Q 18.109375 38.921875 18.109375 30.90625 
L 18.109375 0 
L 9.078125 0 
L 9.078125 54.6875 
L 18.109375 54.6875 
L 18.109375 46.1875 
Q 21.34375 51.125 25.703125 53.5625 
Q 30.078125 56 35.796875 56 
Q 45.21875 56 50.046875 50.171875 
Q 54.890625 44.34375 54.890625 33.015625 
z
" id="DejaVuSans-110"/>
    </defs>
    <g transform="translate(288.687629 78.9312)scale(0.12 -0.12)">
     <use xlink:href="#DejaVuSans-76"/>
     <use x="55.712891" xlink:href="#DejaVuSans-97"/>
     <use x="116.992188" xlink:href="#DejaVuSans-116"/>
     <use x="156.201172" xlink:href="#DejaVuSans-101"/>
     <use x="217.724609" xlink:href="#DejaVuSans-114"/>
     <use x="258.837891" xlink:href="#DejaVuSans-97"/>
     <use x="320.117188" xlink:href="#DejaVuSans-108"/>
     <use x="347.900391" xlink:href="#DejaVuSans-32"/>
     <use x="379.6875" xlink:href="#DejaVuSans-106"/>
     <use x="407.470703" xlink:href="#DejaVuSans-111"/>
     <use x="468.652344" xlink:href="#DejaVuSans-105"/>
     <use x="496.435547" xlink:href="#DejaVuSans-110"/>
     <use x="559.814453" xlink:href="#DejaVuSans-116"/>
     <use x="599.023438" xlink:href="#DejaVuSans-32"/>
     <use x="630.810547" xlink:href="#DejaVuSans-48"/>
    </g>
   </g>
  </g>
  <g id="axes_2">
   <g id="patch_7">
    <path d="M 550.927059 332.6472 
L 866.032941 332.6472 
L 866.032941 84.9312 
L 550.927059 84.9312 
z
" style="fill:#ffffff;"/>
   </g>
   <g id="matplotlib.axis_3">
    <g id="xtick_6">
     <g id="line2d_14">
      <g>
       <use style="stroke:#000000;stroke-width:0.8;" x="565.250053" xlink:href="#m1a41e27255" y="332.6472"/>
      </g>
     </g>
     <g id="text_12">
      <!-- 0 -->
      <g transform="translate(562.068803 347.245637)scale(0.1 -0.1)">
       <use xlink:href="#DejaVuSans-48"/>
      </g>
     </g>
    </g>
    <g id="xtick_7">
     <g id="line2d_15">
      <g>
       <use style="stroke:#000000;stroke-width:0.8;" x="626.722134" xlink:href="#m1a41e27255" y="332.6472"/>
      </g>
     </g>
     <g id="text_13">
      <!-- 50 -->
      <g transform="translate(620.359634 347.245637)scale(0.1 -0.1)">
       <use xlink:href="#DejaVuSans-53"/>
       <use x="63.623047" xlink:href="#DejaVuSans-48"/>
      </g>
     </g>
    </g>
    <g id="xtick_8">
     <g id="line2d_16">
      <g>
       <use style="stroke:#000000;stroke-width:0.8;" x="688.194214" xlink:href="#m1a41e27255" y="332.6472"/>
      </g>
     </g>
     <g id="text_14">
      <!-- 100 -->
      <g transform="translate(678.650464 347.245637)scale(0.1 -0.1)">
       <use xlink:href="#DejaVuSans-49"/>
       <use x="63.623047" xlink:href="#DejaVuSans-48"/>
       <use x="127.246094" xlink:href="#DejaVuSans-48"/>
      </g>
     </g>
    </g>
    <g id="xtick_9">
     <g id="line2d_17">
      <g>
       <use style="stroke:#000000;stroke-width:0.8;" x="749.666294" xlink:href="#m1a41e27255" y="332.6472"/>
      </g>
     </g>
     <g id="text_15">
      <!-- 150 -->
      <g transform="translate(740.122544 347.245637)scale(0.1 -0.1)">
       <use xlink:href="#DejaVuSans-49"/>
       <use x="63.623047" xlink:href="#DejaVuSans-53"/>
       <use x="127.246094" xlink:href="#DejaVuSans-48"/>
      </g>
     </g>
    </g>
    <g id="xtick_10">
     <g id="line2d_18">
      <g>
       <use style="stroke:#000000;stroke-width:0.8;" x="811.138374" xlink:href="#m1a41e27255" y="332.6472"/>
      </g>
     </g>
     <g id="text_16">
      <!-- 200 -->
      <g transform="translate(801.594624 347.245637)scale(0.1 -0.1)">
       <use xlink:href="#DejaVuSans-50"/>
       <use x="63.623047" xlink:href="#DejaVuSans-48"/>
       <use x="127.246094" xlink:href="#DejaVuSans-48"/>
      </g>
     </g>
    </g>
   </g>
   <g id="matplotlib.axis_4">
    <g id="ytick_6">
     <g id="line2d_19">
      <g>
       <use style="stroke:#000000;stroke-width:0.8;" x="550.927059" xlink:href="#m195e3bfca6" y="309.878209"/>
      </g>
     </g>
     <g id="text_17">
      <!-- −0.5 -->
      <defs>
       <path d="M 10.59375 35.5 
L 73.1875 35.5 
L 73.1875 27.203125 
L 10.59375 27.203125 
z
" id="DejaVuSans-8722"/>
       <path d="M 10.6875 12.40625 
L 21 12.40625 
L 21 0 
L 10.6875 0 
z
" id="DejaVuSans-46"/>
      </defs>
      <g transform="translate(519.644246 313.677428)scale(0.1 -0.1)">
       <use xlink:href="#DejaVuSans-8722"/>
       <use x="83.789062" xlink:href="#DejaVuSans-48"/>
       <use x="147.412109" xlink:href="#DejaVuSans-46"/>
       <use x="179.199219" xlink:href="#DejaVuSans-53"/>
      </g>
     </g>
    </g>
    <g id="ytick_7">
     <g id="line2d_20">
      <g>
       <use style="stroke:#000000;stroke-width:0.8;" x="550.927059" xlink:href="#m195e3bfca6" y="265.538937"/>
      </g>
     </g>
     <g id="text_18">
      <!-- 0.0 -->
      <g transform="translate(528.023934 269.338156)scale(0.1 -0.1)">
       <use xlink:href="#DejaVuSans-48"/>
       <use x="63.623047" xlink:href="#DejaVuSans-46"/>
       <use x="95.410156" xlink:href="#DejaVuSans-48"/>
      </g>
     </g>
    </g>
    <g id="ytick_8">
     <g id="line2d_21">
      <g>
       <use style="stroke:#000000;stroke-width:0.8;" x="550.927059" xlink:href="#m195e3bfca6" y="221.199665"/>
      </g>
     </g>
     <g id="text_19">
      <!-- 0.5 -->
      <g transform="translate(528.023934 224.998883)scale(0.1 -0.1)">
       <use xlink:href="#DejaVuSans-48"/>
       <use x="63.623047" xlink:href="#DejaVuSans-46"/>
       <use x="95.410156" xlink:href="#DejaVuSans-53"/>
      </g>
     </g>
    </g>
    <g id="ytick_9">
     <g id="line2d_22">
      <g>
       <use style="stroke:#000000;stroke-width:0.8;" x="550.927059" xlink:href="#m195e3bfca6" y="176.860392"/>
      </g>
     </g>
     <g id="text_20">
      <!-- 1.0 -->
      <g transform="translate(528.023934 180.659611)scale(0.1 -0.1)">
       <use xlink:href="#DejaVuSans-49"/>
       <use x="63.623047" xlink:href="#DejaVuSans-46"/>
       <use x="95.410156" xlink:href="#DejaVuSans-48"/>
      </g>
     </g>
    </g>
    <g id="ytick_10">
     <g id="line2d_23">
      <g>
       <use style="stroke:#000000;stroke-width:0.8;" x="550.927059" xlink:href="#m195e3bfca6" y="132.52112"/>
      </g>
     </g>
     <g id="text_21">
      <!-- 1.5 -->
      <g transform="translate(528.023934 136.320339)scale(0.1 -0.1)">
       <use xlink:href="#DejaVuSans-49"/>
       <use x="63.623047" xlink:href="#DejaVuSans-46"/>
       <use x="95.410156" xlink:href="#DejaVuSans-53"/>
      </g>
     </g>
    </g>
    <g id="ytick_11">
     <g id="line2d_24">
      <g>
       <use style="stroke:#000000;stroke-width:0.8;" x="550.927059" xlink:href="#m195e3bfca6" y="88.181848"/>
      </g>
     </g>
     <g id="text_22">
      <!-- 2.0 -->
      <g transform="translate(528.023934 91.981067)scale(0.1 -0.1)">
       <use xlink:href="#DejaVuSans-50"/>
       <use x="63.623047" xlink:href="#DejaVuSans-46"/>
       <use x="95.410156" xlink:href="#DejaVuSans-48"/>
      </g>
     </g>
    </g>
   </g>
   <g id="line2d_25">
    <path clip-path="url(#paa0b3ddd64)" d="M 565.250053 265.538853 
L 568.938378 265.492517 
L 575.085586 265.283986 
L 581.232794 265.434457 
L 584.921119 265.423969 
L 588.609444 265.695372 
L 592.297769 265.950034 
L 597.215535 266.228115 
L 610.739393 267.915215 
L 614.427718 268.542759 
L 619.345484 269.279574 
L 626.722134 270.696594 
L 630.410458 271.305463 
L 637.787108 272.778345 
L 641.475433 273.494095 
L 648.852082 275.209777 
L 652.540407 276.05786 
L 657.458174 277.341922 
L 663.605382 278.74273 
L 668.523148 280.024138 
L 673.440914 281.160296 
L 679.588122 282.754617 
L 684.505889 283.883661 
L 689.423655 285.115228 
L 694.341422 286.169798 
L 700.48863 287.621813 
L 711.553604 289.589162 
L 721.389137 290.462501 
L 729.995228 290.535176 
L 733.683553 290.284571 
L 739.830761 289.502168 
L 742.289644 289.017887 
L 745.977969 288.005804 
L 750.895735 286.395813 
L 753.354618 285.441011 
L 757.042943 283.688304 
L 760.731268 281.701446 
L 764.419593 279.447228 
L 766.878476 277.699019 
L 770.566801 274.746513 
L 774.255126 271.489797 
L 776.714009 269.095262 
L 779.172892 266.481612 
L 782.861217 262.217757 
L 786.549542 257.652978 
L 790.237866 252.914932 
L 792.69675 249.273246 
L 796.385074 243.163367 
L 797.614516 241.012846 
L 798.843958 236.142791 
L 800.073399 233.715766 
L 801.302841 228.03261 
L 803.761724 215.411602 
L 804.991166 217.059903 
L 806.220607 231.285818 
L 807.450049 244.064609 
L 808.67949 248.680628 
L 809.908932 251.752596 
L 811.138374 255.525033 
L 812.367815 258.840688 
L 813.597257 265.027416 
L 814.826698 272.362302 
L 816.05614 269.081062 
L 817.285582 258.604509 
L 818.515023 250.407515 
L 819.744465 239.314885 
L 820.973906 224.511707 
L 822.203348 218.078295 
L 823.43279 216.871956 
L 825.891673 192.9969 
L 827.121115 184.673128 
L 828.350556 193.362201 
L 829.579998 197.462446 
L 830.809439 202.324651 
L 832.038881 206.72012 
L 833.268323 177.358213 
L 834.497764 173.280734 
L 835.727206 173.076103 
L 836.956647 176.421336 
L 838.186089 175.6881 
L 839.415531 170.737701 
L 840.644972 156.247866 
L 841.874414 148.234708 
L 843.103855 136.153772 
L 844.333297 118.363236 
L 845.562739 115.0211 
L 846.79218 113.177612 
L 848.021622 104.081482 
L 849.251063 99.763804 
L 850.480505 101.64923 
L 851.709947 96.191018 
L 851.709947 96.191018 
" style="fill:none;stroke:#ff796c;stroke-linecap:square;stroke-width:1.5;"/>
   </g>
   <g id="line2d_26">
    <path clip-path="url(#paa0b3ddd64)" d="M 565.250053 312.101468 
L 576.315028 312.002283 
L 588.609444 311.689967 
L 604.592185 311.102605 
L 618.116042 310.370194 
L 641.475433 308.777287 
L 653.769849 307.654626 
L 663.605382 306.573043 
L 674.670356 305.130098 
L 689.423655 302.980244 
L 700.48863 301.162255 
L 720.159695 297.935042 
L 737.371878 295.444282 
L 744.748527 294.597357 
L 754.58406 293.666673 
L 763.190151 293.105018 
L 770.566801 292.909855 
L 777.94345 292.955914 
L 786.549542 293.256065 
L 791.467308 293.638754 
L 797.614516 294.474768 
L 798.843958 294.758816 
L 800.073399 296.416266 
L 801.302841 295.000528 
L 802.532282 291.71355 
L 803.761724 290.864465 
L 804.991166 289.553429 
L 806.220607 285.502069 
L 807.450049 283.315299 
L 808.67949 283.182546 
L 809.908932 280.99272 
L 811.138374 279.087181 
L 812.367815 280.608645 
L 813.597257 281.24776 
L 814.826698 279.817136 
L 816.05614 281.095341 
L 817.285582 283.271034 
L 818.515023 285.204419 
L 819.744465 287.67149 
L 820.973906 292.362369 
L 822.203348 294.966536 
L 823.43279 295.557825 
L 824.662231 298.758849 
L 825.891673 303.229326 
L 827.121115 305.256179 
L 828.350556 306.751997 
L 829.579998 310.544041 
L 830.809439 313.487411 
L 832.038881 313.881049 
L 833.268323 314.392254 
L 834.497764 316.934208 
L 835.727206 316.789449 
L 836.956647 314.294548 
L 838.186089 314.110489 
L 839.415531 314.950755 
L 840.644972 313.00162 
L 841.874414 313.344591 
L 843.103855 318.077576 
L 844.333297 319.247559 
L 845.562739 317.06788 
L 846.79218 318.411499 
L 848.021622 321.387382 
L 849.251063 320.556011 
L 850.480505 319.321409 
L 851.709947 320.433244 
L 851.709947 320.433244 
" style="fill:none;stroke:#ffff14;stroke-linecap:square;stroke-width:1.5;"/>
   </g>
   <g id="line2d_27">
    <path clip-path="url(#paa0b3ddd64)" d="M 565.250053 312.101422 
L 629.181017 311.999274 
L 647.622641 311.750916 
L 662.37594 311.335545 
L 674.670356 310.769922 
L 685.73533 310.039071 
L 695.570863 309.177158 
L 705.406396 308.084872 
L 714.012487 306.917621 
L 722.618578 305.533398 
L 731.22467 303.913912 
L 739.830761 302.040844 
L 747.20741 300.219443 
L 754.58406 298.186335 
L 761.96071 295.929841 
L 769.337359 293.438498 
L 776.714009 290.701247 
L 784.090658 287.707607 
L 791.467308 284.44769 
L 798.843958 280.911289 
L 806.220607 277.096197 
L 813.597257 273.015713 
L 819.744465 269.393406 
L 825.891673 265.539799 
L 832.038881 261.421788 
L 838.186089 257.023206 
L 844.333297 252.341796 
L 850.480505 247.386034 
L 851.709947 246.364521 
L 851.709947 246.364521 
" style="fill:none;stroke:#014d4e;stroke-linecap:square;stroke-width:1.5;"/>
   </g>
   <g id="patch_8">
    <path d="M 550.927059 332.6472 
L 550.927059 84.9312 
" style="fill:none;stroke:#000000;stroke-linecap:square;stroke-linejoin:miter;stroke-width:0.8;"/>
   </g>
   <g id="patch_9">
    <path d="M 866.032941 332.6472 
L 866.032941 84.9312 
" style="fill:none;stroke:#000000;stroke-linecap:square;stroke-linejoin:miter;stroke-width:0.8;"/>
   </g>
   <g id="patch_10">
    <path d="M 550.927059 332.6472 
L 866.032941 332.6472 
" style="fill:none;stroke:#000000;stroke-linecap:square;stroke-linejoin:miter;stroke-width:0.8;"/>
   </g>
   <g id="patch_11">
    <path d="M 550.927059 84.9312 
L 866.032941 84.9312 
" style="fill:none;stroke:#000000;stroke-linecap:square;stroke-linejoin:miter;stroke-width:0.8;"/>
   </g>
   <g id="text_23">
    <!-- Lateral joint 1 -->
    <g transform="translate(666.814687 78.9312)scale(0.12 -0.12)">
     <use xlink:href="#DejaVuSans-76"/>
     <use x="55.712891" xlink:href="#DejaVuSans-97"/>
     <use x="116.992188" xlink:href="#DejaVuSans-116"/>
     <use x="156.201172" xlink:href="#DejaVuSans-101"/>
     <use x="217.724609" xlink:href="#DejaVuSans-114"/>
     <use x="258.837891" xlink:href="#DejaVuSans-97"/>
     <use x="320.117188" xlink:href="#DejaVuSans-108"/>
     <use x="347.900391" xlink:href="#DejaVuSans-32"/>
     <use x="379.6875" xlink:href="#DejaVuSans-106"/>
     <use x="407.470703" xlink:href="#DejaVuSans-111"/>
     <use x="468.652344" xlink:href="#DejaVuSans-105"/>
     <use x="496.435547" xlink:href="#DejaVuSans-110"/>
     <use x="559.814453" xlink:href="#DejaVuSans-116"/>
     <use x="599.023438" xlink:href="#DejaVuSans-32"/>
     <use x="630.810547" xlink:href="#DejaVuSans-49"/>
    </g>
   </g>
  </g>
  <g id="axes_3">
   <g id="patch_12">
    <path d="M 929.054118 332.6472 
L 1244.16 332.6472 
L 1244.16 84.9312 
L 929.054118 84.9312 
z
" style="fill:#ffffff;"/>
   </g>
   <g id="matplotlib.axis_5">
    <g id="xtick_11">
     <g id="line2d_28">
      <g>
       <use style="stroke:#000000;stroke-width:0.8;" x="943.377112" xlink:href="#m1a41e27255" y="332.6472"/>
      </g>
     </g>
     <g id="text_24">
      <!-- 0 -->
      <g transform="translate(940.195862 347.245637)scale(0.1 -0.1)">
       <use xlink:href="#DejaVuSans-48"/>
      </g>
     </g>
    </g>
    <g id="xtick_12">
     <g id="line2d_29">
      <g>
       <use style="stroke:#000000;stroke-width:0.8;" x="1004.849192" xlink:href="#m1a41e27255" y="332.6472"/>
      </g>
     </g>
     <g id="text_25">
      <!-- 50 -->
      <g transform="translate(998.486692 347.245637)scale(0.1 -0.1)">
       <use xlink:href="#DejaVuSans-53"/>
       <use x="63.623047" xlink:href="#DejaVuSans-48"/>
      </g>
     </g>
    </g>
    <g id="xtick_13">
     <g id="line2d_30">
      <g>
       <use style="stroke:#000000;stroke-width:0.8;" x="1066.321272" xlink:href="#m1a41e27255" y="332.6472"/>
      </g>
     </g>
     <g id="text_26">
      <!-- 100 -->
      <g transform="translate(1056.777522 347.245637)scale(0.1 -0.1)">
       <use xlink:href="#DejaVuSans-49"/>
       <use x="63.623047" xlink:href="#DejaVuSans-48"/>
       <use x="127.246094" xlink:href="#DejaVuSans-48"/>
      </g>
     </g>
    </g>
    <g id="xtick_14">
     <g id="line2d_31">
      <g>
       <use style="stroke:#000000;stroke-width:0.8;" x="1127.793352" xlink:href="#m1a41e27255" y="332.6472"/>
      </g>
     </g>
     <g id="text_27">
      <!-- 150 -->
      <g transform="translate(1118.249602 347.245637)scale(0.1 -0.1)">
       <use xlink:href="#DejaVuSans-49"/>
       <use x="63.623047" xlink:href="#DejaVuSans-53"/>
       <use x="127.246094" xlink:href="#DejaVuSans-48"/>
      </g>
     </g>
    </g>
    <g id="xtick_15">
     <g id="line2d_32">
      <g>
       <use style="stroke:#000000;stroke-width:0.8;" x="1189.265433" xlink:href="#m1a41e27255" y="332.6472"/>
      </g>
     </g>
     <g id="text_28">
      <!-- 200 -->
      <g transform="translate(1179.721683 347.245637)scale(0.1 -0.1)">
       <use xlink:href="#DejaVuSans-50"/>
       <use x="63.623047" xlink:href="#DejaVuSans-48"/>
       <use x="127.246094" xlink:href="#DejaVuSans-48"/>
      </g>
     </g>
    </g>
   </g>
   <g id="matplotlib.axis_6">
    <g id="ytick_12">
     <g id="line2d_33">
      <g>
       <use style="stroke:#000000;stroke-width:0.8;" x="929.054118" xlink:href="#m195e3bfca6" y="300.646863"/>
      </g>
     </g>
     <g id="text_29">
      <!-- −20 -->
      <g transform="translate(900.94943 304.446082)scale(0.1 -0.1)">
       <use xlink:href="#DejaVuSans-8722"/>
       <use x="83.789062" xlink:href="#DejaVuSans-50"/>
       <use x="147.412109" xlink:href="#DejaVuSans-48"/>
      </g>
     </g>
    </g>
    <g id="ytick_13">
     <g id="line2d_34">
      <g>
       <use style="stroke:#000000;stroke-width:0.8;" x="929.054118" xlink:href="#m195e3bfca6" y="256.909911"/>
      </g>
     </g>
     <g id="text_30">
      <!-- −10 -->
      <g transform="translate(900.94943 260.709129)scale(0.1 -0.1)">
       <use xlink:href="#DejaVuSans-8722"/>
       <use x="83.789062" xlink:href="#DejaVuSans-49"/>
       <use x="147.412109" xlink:href="#DejaVuSans-48"/>
      </g>
     </g>
    </g>
    <g id="ytick_14">
     <g id="line2d_35">
      <g>
       <use style="stroke:#000000;stroke-width:0.8;" x="929.054118" xlink:href="#m195e3bfca6" y="213.172958"/>
      </g>
     </g>
     <g id="text_31">
      <!-- 0 -->
      <g transform="translate(915.691618 216.972177)scale(0.1 -0.1)">
       <use xlink:href="#DejaVuSans-48"/>
      </g>
     </g>
    </g>
    <g id="ytick_15">
     <g id="line2d_36">
      <g>
       <use style="stroke:#000000;stroke-width:0.8;" x="929.054118" xlink:href="#m195e3bfca6" y="169.436006"/>
      </g>
     </g>
     <g id="text_32">
      <!-- 10 -->
      <g transform="translate(909.329118 173.235224)scale(0.1 -0.1)">
       <use xlink:href="#DejaVuSans-49"/>
       <use x="63.623047" xlink:href="#DejaVuSans-48"/>
      </g>
     </g>
    </g>
    <g id="ytick_16">
     <g id="line2d_37">
      <g>
       <use style="stroke:#000000;stroke-width:0.8;" x="929.054118" xlink:href="#m195e3bfca6" y="125.699053"/>
      </g>
     </g>
     <g id="text_33">
      <!-- 20 -->
      <g transform="translate(909.329118 129.498272)scale(0.1 -0.1)">
       <use xlink:href="#DejaVuSans-50"/>
       <use x="63.623047" xlink:href="#DejaVuSans-48"/>
      </g>
     </g>
    </g>
   </g>
   <g id="line2d_38">
    <path clip-path="url(#p0d67b91f77)" d="M 943.377112 213.167331 
L 951.983204 213.230934 
L 955.671528 213.226617 
L 961.818736 213.305212 
L 967.965944 213.368302 
L 977.801477 213.611084 
L 985.178127 213.826504 
L 988.866452 213.891545 
L 1039.273557 214.698314 
L 1041.73244 214.729582 
L 1049.10909 214.890035 
L 1051.567973 214.888875 
L 1055.256298 215.0219 
L 1062.632948 215.359266 
L 1065.091831 215.509996 
L 1067.550714 215.63215 
L 1070.009597 215.799036 
L 1072.46848 215.844614 
L 1076.156805 216.030606 
L 1083.533455 216.360615 
L 1085.992338 216.50278 
L 1088.451221 216.632467 
L 1090.910104 216.82381 
L 1093.368988 216.917363 
L 1095.827871 217.134202 
L 1098.286754 217.257709 
L 1100.745637 217.511562 
L 1104.433962 217.711633 
L 1106.892845 217.847334 
L 1109.351728 218.019127 
L 1111.810612 218.169913 
L 1114.269495 218.279621 
L 1116.728378 218.402562 
L 1119.187261 218.494411 
L 1121.646144 218.632934 
L 1124.105028 218.678332 
L 1126.563911 218.765435 
L 1129.022794 218.76201 
L 1131.481677 218.842618 
L 1133.94056 218.840202 
L 1136.399444 218.869267 
L 1138.858327 218.835192 
L 1141.31721 218.856313 
L 1143.776093 218.825079 
L 1146.234976 218.825345 
L 1158.529392 218.060367 
L 1160.988276 217.757275 
L 1163.447159 217.349472 
L 1164.6766 216.847067 
L 1167.135484 217.009728 
L 1169.594367 216.061786 
L 1172.05325 216.274257 
L 1174.512133 215.27482 
L 1175.741575 215.401679 
L 1176.971017 183.43301 
L 1178.200458 275.16917 
L 1179.4299 236.890741 
L 1180.659341 140.885746 
L 1181.888783 223.187293 
L 1183.118225 293.236543 
L 1184.347666 189.132672 
L 1185.577108 176.304683 
L 1186.806549 263.295492 
L 1188.035991 207.562499 
L 1189.265433 145.581451 
L 1190.494874 255.605668 
L 1191.724316 281.285638 
L 1192.953757 159.231512 
L 1194.183199 188.688782 
L 1195.412641 273.379659 
L 1196.642082 216.931481 
L 1197.871524 170.094924 
L 1199.100965 272.55477 
L 1200.330407 272.438173 
L 1201.559849 159.231393 
L 1202.78929 190.208423 
L 1204.018732 275.162206 
L 1205.248173 227.88363 
L 1206.477615 150.165255 
L 1207.707057 223.947668 
L 1208.936498 268.500575 
L 1210.16594 167.470714 
L 1211.395381 144.137632 
L 1212.624823 263.232544 
L 1213.854265 255.154019 
L 1215.083706 139.031117 
L 1216.313148 189.752209 
L 1217.542589 290.246905 
L 1218.772031 174.876826 
L 1220.001473 96.191018 
L 1221.230914 294.527262 
L 1222.460356 309.798842 
L 1223.689797 108.776006 
L 1224.919239 169.890096 
L 1226.148681 321.387382 
L 1227.378122 195.463545 
L 1228.607564 131.960409 
L 1229.837005 255.608082 
L 1229.837005 255.608082 
" style="fill:none;stroke:#ff796c;stroke-linecap:square;stroke-width:1.5;"/>
   </g>
   <g id="line2d_39">
    <path clip-path="url(#p0d67b91f77)" d="M 943.377112 216.905671 
L 1110.58117 216.797268 
L 1158.529392 216.510084 
L 1180.659341 216.310747 
L 1183.118225 215.979148 
L 1185.577108 215.997592 
L 1188.035991 215.943455 
L 1189.265433 215.936464 
L 1190.494874 215.802964 
L 1191.724316 215.799043 
L 1192.953757 215.974722 
L 1196.642082 216.064711 
L 1202.78929 216.106376 
L 1205.248173 215.874429 
L 1207.707057 215.708121 
L 1208.936498 215.627132 
L 1211.395381 215.627454 
L 1212.624823 215.465701 
L 1213.854265 215.481462 
L 1215.083706 215.660012 
L 1220.001473 215.943713 
L 1221.230914 215.757226 
L 1222.460356 215.746058 
L 1223.689797 215.925474 
L 1224.919239 215.8411 
L 1226.148681 215.628282 
L 1228.607564 215.578999 
L 1229.837005 215.380308 
L 1229.837005 215.380308 
" style="fill:none;stroke:#ffff14;stroke-linecap:square;stroke-width:1.5;"/>
   </g>
   <g id="line2d_40">
    <path clip-path="url(#p0d67b91f77)" d="M 943.377112 216.905671 
L 1090.910104 216.798221 
L 1145.005535 216.517332 
L 1190.494874 216.060139 
L 1229.837005 215.454759 
L 1229.837005 215.454759 
" style="fill:none;stroke:#014d4e;stroke-linecap:square;stroke-width:1.5;"/>
   </g>
   <g id="patch_13">
    <path d="M 929.054118 332.6472 
L 929.054118 84.9312 
" style="fill:none;stroke:#000000;stroke-linecap:square;stroke-linejoin:miter;stroke-width:0.8;"/>
   </g>
   <g id="patch_14">
    <path d="M 1244.16 332.6472 
L 1244.16 84.9312 
" style="fill:none;stroke:#000000;stroke-linecap:square;stroke-linejoin:miter;stroke-width:0.8;"/>
   </g>
   <g id="patch_15">
    <path d="M 929.054118 332.6472 
L 1244.16 332.6472 
" style="fill:none;stroke:#000000;stroke-linecap:square;stroke-linejoin:miter;stroke-width:0.8;"/>
   </g>
   <g id="patch_16">
    <path d="M 929.054118 84.9312 
L 1244.16 84.9312 
" style="fill:none;stroke:#000000;stroke-linecap:square;stroke-linejoin:miter;stroke-width:0.8;"/>
   </g>
   <g id="text_34">
    <!-- Lateral joint 2 -->
    <g transform="translate(1044.941746 78.9312)scale(0.12 -0.12)">
     <use xlink:href="#DejaVuSans-76"/>
     <use x="55.712891" xlink:href="#DejaVuSans-97"/>
     <use x="116.992188" xlink:href="#DejaVuSans-116"/>
     <use x="156.201172" xlink:href="#DejaVuSans-101"/>
     <use x="217.724609" xlink:href="#DejaVuSans-114"/>
     <use x="258.837891" xlink:href="#DejaVuSans-97"/>
     <use x="320.117188" xlink:href="#DejaVuSans-108"/>
     <use x="347.900391" xlink:href="#DejaVuSans-32"/>
     <use x="379.6875" xlink:href="#DejaVuSans-106"/>
     <use x="407.470703" xlink:href="#DejaVuSans-111"/>
     <use x="468.652344" xlink:href="#DejaVuSans-105"/>
     <use x="496.435547" xlink:href="#DejaVuSans-110"/>
     <use x="559.814453" xlink:href="#DejaVuSans-116"/>
     <use x="599.023438" xlink:href="#DejaVuSans-32"/>
     <use x="630.810547" xlink:href="#DejaVuSans-50"/>
    </g>
   </g>
  </g>
  <g id="axes_4">
   <g id="patch_17">
    <path d="M 172.8 629.9064 
L 487.905882 629.9064 
L 487.905882 382.1904 
L 172.8 382.1904 
z
" style="fill:#ffffff;"/>
   </g>
   <g id="matplotlib.axis_7">
    <g id="xtick_16">
     <g id="line2d_41">
      <g>
       <use style="stroke:#000000;stroke-width:0.8;" x="187.122995" xlink:href="#m1a41e27255" y="629.9064"/>
      </g>
     </g>
     <g id="text_35">
      <!-- 0 -->
      <g transform="translate(183.941745 644.504838)scale(0.1 -0.1)">
       <use xlink:href="#DejaVuSans-48"/>
      </g>
     </g>
    </g>
    <g id="xtick_17">
     <g id="line2d_42">
      <g>
       <use style="stroke:#000000;stroke-width:0.8;" x="248.595075" xlink:href="#m1a41e27255" y="629.9064"/>
      </g>
     </g>
     <g id="text_36">
      <!-- 50 -->
      <g transform="translate(242.232575 644.504838)scale(0.1 -0.1)">
       <use xlink:href="#DejaVuSans-53"/>
       <use x="63.623047" xlink:href="#DejaVuSans-48"/>
      </g>
     </g>
    </g>
    <g id="xtick_18">
     <g id="line2d_43">
      <g>
       <use style="stroke:#000000;stroke-width:0.8;" x="310.067155" xlink:href="#m1a41e27255" y="629.9064"/>
      </g>
     </g>
     <g id="text_37">
      <!-- 100 -->
      <g transform="translate(300.523405 644.504838)scale(0.1 -0.1)">
       <use xlink:href="#DejaVuSans-49"/>
       <use x="63.623047" xlink:href="#DejaVuSans-48"/>
       <use x="127.246094" xlink:href="#DejaVuSans-48"/>
      </g>
     </g>
    </g>
    <g id="xtick_19">
     <g id="line2d_44">
      <g>
       <use style="stroke:#000000;stroke-width:0.8;" x="371.539235" xlink:href="#m1a41e27255" y="629.9064"/>
      </g>
     </g>
     <g id="text_38">
      <!-- 150 -->
      <g transform="translate(361.995485 644.504838)scale(0.1 -0.1)">
       <use xlink:href="#DejaVuSans-49"/>
       <use x="63.623047" xlink:href="#DejaVuSans-53"/>
       <use x="127.246094" xlink:href="#DejaVuSans-48"/>
      </g>
     </g>
    </g>
    <g id="xtick_20">
     <g id="line2d_45">
      <g>
       <use style="stroke:#000000;stroke-width:0.8;" x="433.011315" xlink:href="#m1a41e27255" y="629.9064"/>
      </g>
     </g>
     <g id="text_39">
      <!-- 200 -->
      <g transform="translate(423.467565 644.504838)scale(0.1 -0.1)">
       <use xlink:href="#DejaVuSans-50"/>
       <use x="63.623047" xlink:href="#DejaVuSans-48"/>
       <use x="127.246094" xlink:href="#DejaVuSans-48"/>
      </g>
     </g>
    </g>
   </g>
   <g id="matplotlib.axis_8">
    <g id="ytick_17">
     <g id="line2d_46">
      <g>
       <use style="stroke:#000000;stroke-width:0.8;" x="172.8" xlink:href="#m195e3bfca6" y="609.356197"/>
      </g>
     </g>
     <g id="text_40">
      <!-- −20 -->
      <g transform="translate(144.695312 613.155416)scale(0.1 -0.1)">
       <use xlink:href="#DejaVuSans-8722"/>
       <use x="83.789062" xlink:href="#DejaVuSans-50"/>
       <use x="147.412109" xlink:href="#DejaVuSans-48"/>
      </g>
     </g>
    </g>
    <g id="ytick_18">
     <g id="line2d_47">
      <g>
       <use style="stroke:#000000;stroke-width:0.8;" x="172.8" xlink:href="#m195e3bfca6" y="578.781409"/>
      </g>
     </g>
     <g id="text_41">
      <!-- −15 -->
      <g transform="translate(144.695312 582.580628)scale(0.1 -0.1)">
       <use xlink:href="#DejaVuSans-8722"/>
       <use x="83.789062" xlink:href="#DejaVuSans-49"/>
       <use x="147.412109" xlink:href="#DejaVuSans-53"/>
      </g>
     </g>
    </g>
    <g id="ytick_19">
     <g id="line2d_48">
      <g>
       <use style="stroke:#000000;stroke-width:0.8;" x="172.8" xlink:href="#m195e3bfca6" y="548.206621"/>
      </g>
     </g>
     <g id="text_42">
      <!-- −10 -->
      <g transform="translate(144.695312 552.005839)scale(0.1 -0.1)">
       <use xlink:href="#DejaVuSans-8722"/>
       <use x="83.789062" xlink:href="#DejaVuSans-49"/>
       <use x="147.412109" xlink:href="#DejaVuSans-48"/>
      </g>
     </g>
    </g>
    <g id="ytick_20">
     <g id="line2d_49">
      <g>
       <use style="stroke:#000000;stroke-width:0.8;" x="172.8" xlink:href="#m195e3bfca6" y="517.631832"/>
      </g>
     </g>
     <g id="text_43">
      <!-- −5 -->
      <g transform="translate(151.057812 521.431051)scale(0.1 -0.1)">
       <use xlink:href="#DejaVuSans-8722"/>
       <use x="83.789062" xlink:href="#DejaVuSans-53"/>
      </g>
     </g>
    </g>
    <g id="ytick_21">
     <g id="line2d_50">
      <g>
       <use style="stroke:#000000;stroke-width:0.8;" x="172.8" xlink:href="#m195e3bfca6" y="487.057044"/>
      </g>
     </g>
     <g id="text_44">
      <!-- 0 -->
      <g transform="translate(159.4375 490.856263)scale(0.1 -0.1)">
       <use xlink:href="#DejaVuSans-48"/>
      </g>
     </g>
    </g>
    <g id="ytick_22">
     <g id="line2d_51">
      <g>
       <use style="stroke:#000000;stroke-width:0.8;" x="172.8" xlink:href="#m195e3bfca6" y="456.482256"/>
      </g>
     </g>
     <g id="text_45">
      <!-- 5 -->
      <g transform="translate(159.4375 460.281474)scale(0.1 -0.1)">
       <use xlink:href="#DejaVuSans-53"/>
      </g>
     </g>
    </g>
    <g id="ytick_23">
     <g id="line2d_52">
      <g>
       <use style="stroke:#000000;stroke-width:0.8;" x="172.8" xlink:href="#m195e3bfca6" y="425.907467"/>
      </g>
     </g>
     <g id="text_46">
      <!-- 10 -->
      <g transform="translate(153.075 429.706686)scale(0.1 -0.1)">
       <use xlink:href="#DejaVuSans-49"/>
       <use x="63.623047" xlink:href="#DejaVuSans-48"/>
      </g>
     </g>
    </g>
    <g id="ytick_24">
     <g id="line2d_53">
      <g>
       <use style="stroke:#000000;stroke-width:0.8;" x="172.8" xlink:href="#m195e3bfca6" y="395.332679"/>
      </g>
     </g>
     <g id="text_47">
      <!-- 15 -->
      <g transform="translate(153.075 399.131898)scale(0.1 -0.1)">
       <use xlink:href="#DejaVuSans-49"/>
       <use x="63.623047" xlink:href="#DejaVuSans-53"/>
      </g>
     </g>
    </g>
   </g>
   <g id="line2d_54">
    <path clip-path="url(#pfdd374c948)" d="M 187.122995 487.043693 
L 194.499644 487.290653 
L 198.187969 487.121584 
L 205.564619 487.373221 
L 209.252943 487.195965 
L 212.941268 487.435508 
L 216.629593 487.630364 
L 220.317918 487.592872 
L 227.694567 488.114563 
L 232.612334 487.956996 
L 238.759542 487.990709 
L 242.447867 487.66209 
L 246.136192 487.661629 
L 248.595075 487.719098 
L 257.201166 487.44168 
L 259.660049 487.481526 
L 268.26614 486.949001 
L 270.725024 486.89376 
L 275.64279 486.38696 
L 283.01944 485.931166 
L 285.478323 485.62983 
L 300.231622 484.619405 
L 302.690505 484.62888 
L 306.37883 484.390803 
L 313.75548 484.417242 
L 317.443804 484.149426 
L 324.820454 483.859377 
L 327.279337 483.651027 
L 332.197104 483.601411 
L 334.655987 483.636562 
L 337.11487 483.530843 
L 348.179844 483.652766 
L 358.015377 483.493811 
L 366.621468 483.130388 
L 370.309793 482.83545 
L 372.768676 482.539882 
L 375.22756 482.341265 
L 391.2103 480.268473 
L 394.898625 479.599676 
L 401.045833 478.089582 
L 403.504716 477.284686 
L 407.193041 475.714954 
L 408.422483 474.833704 
L 410.881366 474.151544 
L 413.340249 472.768658 
L 415.799132 472.366577 
L 418.258016 470.850866 
L 419.487457 470.598804 
L 420.716899 431.752418 
L 421.94634 542.854202 
L 423.175782 538.667226 
L 424.405224 452.61397 
L 425.634665 502.970371 
L 426.864107 536.534245 
L 428.093548 432.094129 
L 429.32299 441.924751 
L 430.552432 549.717046 
L 431.781873 495.499293 
L 433.011315 408.629863 
L 434.240756 488.330527 
L 435.470198 515.001736 
L 436.69964 427.296185 
L 437.929081 487.555804 
L 439.158523 574.317006 
L 441.617406 438.106157 
L 442.846848 530.025478 
L 444.076289 548.001894 
L 445.305731 467.558552 
L 446.535172 511.242584 
L 447.764614 573.312244 
L 448.994056 497.22773 
L 450.223497 401.570135 
L 451.452939 481.067095 
L 452.68238 545.037025 
L 453.911822 451.99459 
L 455.141264 405.601159 
L 456.370705 493.973164 
L 457.600147 483.655739 
L 458.829588 397.463574 
L 460.05903 474.395544 
L 461.288472 581.73131 
L 462.517913 477.981841 
L 463.747355 393.450218 
L 464.976796 558.809513 
L 466.206238 579.445332 
L 467.43568 420.996201 
L 468.665121 489.51416 
L 469.894563 618.646582 
L 471.124004 481.056616 
L 472.353446 413.947953 
L 473.582888 514.321705 
L 473.582888 514.321705 
" style="fill:none;stroke:#ff796c;stroke-linecap:square;stroke-width:1.5;"/>
   </g>
   <g id="line2d_55">
    <path clip-path="url(#pfdd374c948)" d="M 187.122995 492.277036 
L 262.118932 492.170239 
L 342.032636 491.748842 
L 420.716899 491.244589 
L 425.634665 492.138945 
L 429.32299 492.836494 
L 430.552432 493.078485 
L 431.781873 493.095962 
L 436.69964 492.515628 
L 439.158523 492.155386 
L 441.617406 491.585417 
L 444.076289 491.479051 
L 445.305731 491.51361 
L 448.994056 492.178171 
L 451.452939 492.71831 
L 452.68238 492.969156 
L 455.141264 493.005962 
L 456.370705 492.967343 
L 457.600147 492.775177 
L 461.288472 491.84454 
L 463.747355 491.039665 
L 467.43568 490.881785 
L 468.665121 491.111151 
L 469.894563 491.477119 
L 472.353446 491.946234 
L 473.582888 492.290906 
L 473.582888 492.290906 
" style="fill:none;stroke:#ffff14;stroke-linecap:square;stroke-width:1.5;"/>
   </g>
   <g id="line2d_56">
    <path clip-path="url(#pfdd374c948)" d="M 187.122995 492.277016 
L 402.275275 492.16812 
L 473.582888 491.917046 
L 473.582888 491.917046 
" style="fill:none;stroke:#014d4e;stroke-linecap:square;stroke-width:1.5;"/>
   </g>
   <g id="patch_18">
    <path d="M 172.8 629.9064 
L 172.8 382.1904 
" style="fill:none;stroke:#000000;stroke-linecap:square;stroke-linejoin:miter;stroke-width:0.8;"/>
   </g>
   <g id="patch_19">
    <path d="M 487.905882 629.9064 
L 487.905882 382.1904 
" style="fill:none;stroke:#000000;stroke-linecap:square;stroke-linejoin:miter;stroke-width:0.8;"/>
   </g>
   <g id="patch_20">
    <path d="M 172.8 629.9064 
L 487.905882 629.9064 
" style="fill:none;stroke:#000000;stroke-linecap:square;stroke-linejoin:miter;stroke-width:0.8;"/>
   </g>
   <g id="patch_21">
    <path d="M 172.8 382.1904 
L 487.905882 382.1904 
" style="fill:none;stroke:#000000;stroke-linecap:square;stroke-linejoin:miter;stroke-width:0.8;"/>
   </g>
   <g id="text_48">
    <!-- Lateral joint 3 -->
    <g transform="translate(288.687629 376.1904)scale(0.12 -0.12)">
     <use xlink:href="#DejaVuSans-76"/>
     <use x="55.712891" xlink:href="#DejaVuSans-97"/>
     <use x="116.992188" xlink:href="#DejaVuSans-116"/>
     <use x="156.201172" xlink:href="#DejaVuSans-101"/>
     <use x="217.724609" xlink:href="#DejaVuSans-114"/>
     <use x="258.837891" xlink:href="#DejaVuSans-97"/>
     <use x="320.117188" xlink:href="#DejaVuSans-108"/>
     <use x="347.900391" xlink:href="#DejaVuSans-32"/>
     <use x="379.6875" xlink:href="#DejaVuSans-106"/>
     <use x="407.470703" xlink:href="#DejaVuSans-111"/>
     <use x="468.652344" xlink:href="#DejaVuSans-105"/>
     <use x="496.435547" xlink:href="#DejaVuSans-110"/>
     <use x="559.814453" xlink:href="#DejaVuSans-116"/>
     <use x="599.023438" xlink:href="#DejaVuSans-32"/>
     <use x="630.810547" xlink:href="#DejaVuSans-51"/>
    </g>
   </g>
  </g>
  <g id="axes_5">
   <g id="patch_22">
    <path d="M 550.927059 629.9064 
L 866.032941 629.9064 
L 866.032941 382.1904 
L 550.927059 382.1904 
z
" style="fill:#ffffff;"/>
   </g>
   <g id="matplotlib.axis_9">
    <g id="xtick_21">
     <g id="line2d_57">
      <g>
       <use style="stroke:#000000;stroke-width:0.8;" x="565.250053" xlink:href="#m1a41e27255" y="629.9064"/>
      </g>
     </g>
     <g id="text_49">
      <!-- 0 -->
      <g transform="translate(562.068803 644.504838)scale(0.1 -0.1)">
       <use xlink:href="#DejaVuSans-48"/>
      </g>
     </g>
    </g>
    <g id="xtick_22">
     <g id="line2d_58">
      <g>
       <use style="stroke:#000000;stroke-width:0.8;" x="626.722134" xlink:href="#m1a41e27255" y="629.9064"/>
      </g>
     </g>
     <g id="text_50">
      <!-- 50 -->
      <g transform="translate(620.359634 644.504838)scale(0.1 -0.1)">
       <use xlink:href="#DejaVuSans-53"/>
       <use x="63.623047" xlink:href="#DejaVuSans-48"/>
      </g>
     </g>
    </g>
    <g id="xtick_23">
     <g id="line2d_59">
      <g>
       <use style="stroke:#000000;stroke-width:0.8;" x="688.194214" xlink:href="#m1a41e27255" y="629.9064"/>
      </g>
     </g>
     <g id="text_51">
      <!-- 100 -->
      <g transform="translate(678.650464 644.504838)scale(0.1 -0.1)">
       <use xlink:href="#DejaVuSans-49"/>
       <use x="63.623047" xlink:href="#DejaVuSans-48"/>
       <use x="127.246094" xlink:href="#DejaVuSans-48"/>
      </g>
     </g>
    </g>
    <g id="xtick_24">
     <g id="line2d_60">
      <g>
       <use style="stroke:#000000;stroke-width:0.8;" x="749.666294" xlink:href="#m1a41e27255" y="629.9064"/>
      </g>
     </g>
     <g id="text_52">
      <!-- 150 -->
      <g transform="translate(740.122544 644.504838)scale(0.1 -0.1)">
       <use xlink:href="#DejaVuSans-49"/>
       <use x="63.623047" xlink:href="#DejaVuSans-53"/>
       <use x="127.246094" xlink:href="#DejaVuSans-48"/>
      </g>
     </g>
    </g>
    <g id="xtick_25">
     <g id="line2d_61">
      <g>
       <use style="stroke:#000000;stroke-width:0.8;" x="811.138374" xlink:href="#m1a41e27255" y="629.9064"/>
      </g>
     </g>
     <g id="text_53">
      <!-- 200 -->
      <g transform="translate(801.594624 644.504838)scale(0.1 -0.1)">
       <use xlink:href="#DejaVuSans-50"/>
       <use x="63.623047" xlink:href="#DejaVuSans-48"/>
       <use x="127.246094" xlink:href="#DejaVuSans-48"/>
      </g>
     </g>
    </g>
   </g>
   <g id="matplotlib.axis_10">
    <g id="ytick_25">
     <g id="line2d_62">
      <g>
       <use style="stroke:#000000;stroke-width:0.8;" x="550.927059" xlink:href="#m195e3bfca6" y="591.302093"/>
      </g>
     </g>
     <g id="text_54">
      <!-- −10 -->
      <g transform="translate(522.822371 595.101312)scale(0.1 -0.1)">
       <use xlink:href="#DejaVuSans-8722"/>
       <use x="83.789062" xlink:href="#DejaVuSans-49"/>
       <use x="147.412109" xlink:href="#DejaVuSans-48"/>
      </g>
     </g>
    </g>
    <g id="ytick_26">
     <g id="line2d_63">
      <g>
       <use style="stroke:#000000;stroke-width:0.8;" x="550.927059" xlink:href="#m195e3bfca6" y="547.602601"/>
      </g>
     </g>
     <g id="text_55">
      <!-- −5 -->
      <g transform="translate(529.184871 551.40182)scale(0.1 -0.1)">
       <use xlink:href="#DejaVuSans-8722"/>
       <use x="83.789062" xlink:href="#DejaVuSans-53"/>
      </g>
     </g>
    </g>
    <g id="ytick_27">
     <g id="line2d_64">
      <g>
       <use style="stroke:#000000;stroke-width:0.8;" x="550.927059" xlink:href="#m195e3bfca6" y="503.90311"/>
      </g>
     </g>
     <g id="text_56">
      <!-- 0 -->
      <g transform="translate(537.564559 507.702329)scale(0.1 -0.1)">
       <use xlink:href="#DejaVuSans-48"/>
      </g>
     </g>
    </g>
    <g id="ytick_28">
     <g id="line2d_65">
      <g>
       <use style="stroke:#000000;stroke-width:0.8;" x="550.927059" xlink:href="#m195e3bfca6" y="460.203618"/>
      </g>
     </g>
     <g id="text_57">
      <!-- 5 -->
      <g transform="translate(537.564559 464.002837)scale(0.1 -0.1)">
       <use xlink:href="#DejaVuSans-53"/>
      </g>
     </g>
    </g>
    <g id="ytick_29">
     <g id="line2d_66">
      <g>
       <use style="stroke:#000000;stroke-width:0.8;" x="550.927059" xlink:href="#m195e3bfca6" y="416.504127"/>
      </g>
     </g>
     <g id="text_58">
      <!-- 10 -->
      <g transform="translate(531.202059 420.303346)scale(0.1 -0.1)">
       <use xlink:href="#DejaVuSans-49"/>
       <use x="63.623047" xlink:href="#DejaVuSans-48"/>
      </g>
     </g>
    </g>
   </g>
   <g id="line2d_67">
    <path clip-path="url(#pf7b91947c8)" d="M 565.250053 503.880916 
L 567.708937 504.142818 
L 570.16782 504.411467 
L 572.626703 504.349617 
L 576.315028 504.067634 
L 578.773911 504.303836 
L 581.232794 504.574076 
L 583.691677 504.519797 
L 587.380002 504.136094 
L 589.838885 504.292378 
L 592.297769 504.559362 
L 594.756652 504.559707 
L 598.444977 504.214285 
L 600.90386 504.356317 
L 603.362743 504.609598 
L 604.592185 504.646023 
L 607.051068 504.384695 
L 609.509951 504.013011 
L 611.968834 503.936629 
L 614.427718 503.96985 
L 615.657159 503.902233 
L 618.116042 503.441428 
L 620.574926 502.912284 
L 623.033809 502.707206 
L 626.722134 502.546006 
L 629.181017 502.013826 
L 631.6399 501.431156 
L 634.098783 501.12364 
L 636.557666 500.910536 
L 637.787108 500.703582 
L 640.245991 499.947637 
L 642.704874 499.185807 
L 645.163758 498.685136 
L 647.622641 498.274922 
L 650.081524 497.541661 
L 652.540407 496.630094 
L 654.99929 495.980838 
L 658.687615 495.252419 
L 661.146498 494.395432 
L 663.605382 493.436941 
L 666.064265 492.724676 
L 669.75259 491.778324 
L 672.211473 490.764369 
L 674.670356 489.800483 
L 677.129239 489.113384 
L 680.817564 488.176634 
L 685.73533 486.421316 
L 691.882538 484.853446 
L 695.570863 483.428859 
L 699.259188 482.389161 
L 701.718071 481.691591 
L 706.635838 479.843162 
L 709.094721 479.188851 
L 711.553604 478.642657 
L 714.012487 477.829094 
L 716.47137 477.001191 
L 720.159695 476.023235 
L 722.618578 475.405036 
L 731.22467 472.359123 
L 733.683553 471.561862 
L 741.060202 468.69728 
L 743.519086 467.910257 
L 747.20741 466.403532 
L 752.125177 464.132297 
L 757.042943 461.805109 
L 770.566801 454.230136 
L 776.714009 450.268889 
L 779.172892 448.528006 
L 781.631775 446.601093 
L 785.3201 443.322234 
L 786.549542 441.812828 
L 791.467308 437.306856 
L 793.926191 435.495243 
L 796.385074 432.697426 
L 797.614516 431.535627 
L 798.843958 393.450218 
L 800.073399 514.151418 
L 801.302841 561.191931 
L 802.532282 510.80868 
L 803.761724 519.686146 
L 804.991166 509.321937 
L 806.220607 431.677175 
L 807.450049 480.148913 
L 808.67949 604.683575 
L 809.908932 564.377313 
L 811.138374 455.8606 
L 812.367815 475.799815 
L 813.597257 492.189861 
L 814.826698 458.049065 
L 816.05614 538.030254 
L 817.285582 598.068847 
L 818.515023 518.06251 
L 819.744465 425.349041 
L 820.973906 478.560281 
L 822.203348 512.071972 
L 823.43279 490.786061 
L 824.662231 546.794662 
L 825.891673 578.629914 
L 828.350556 420.611492 
L 830.809439 581.445165 
L 833.268323 467.263482 
L 834.497764 500.193493 
L 835.727206 484.356783 
L 836.956647 440.685589 
L 839.415531 599.832003 
L 841.874414 411.833727 
L 843.103855 513.243183 
L 844.333297 531.832039 
L 845.562739 437.771929 
L 846.79218 513.962177 
L 848.021622 618.646582 
L 849.251063 502.707113 
L 850.480505 455.815441 
L 851.709947 535.27139 
L 851.709947 535.27139 
" style="fill:none;stroke:#ff796c;stroke-linecap:square;stroke-width:1.5;"/>
   </g>
   <g id="line2d_68">
    <path clip-path="url(#pf7b91947c8)" d="M 565.250053 508.512498 
L 613.198276 508.618705 
L 642.704874 508.900041 
L 682.047006 509.532483 
L 759.501826 511.09123 
L 798.843958 512.009073 
L 801.302841 510.103612 
L 802.532282 509.541794 
L 803.761724 509.153231 
L 806.220607 508.553723 
L 808.67949 506.437346 
L 809.908932 506.434378 
L 811.138374 507.231484 
L 812.367815 507.746503 
L 813.597257 507.943496 
L 814.826698 507.9254 
L 816.05614 507.571846 
L 817.285582 507.641356 
L 819.744465 509.519388 
L 820.973906 509.672754 
L 822.203348 509.323778 
L 823.43279 508.789825 
L 824.662231 508.102132 
L 825.891673 507.792399 
L 828.350556 507.75561 
L 830.809439 506.257795 
L 832.038881 506.311367 
L 834.497764 507.321942 
L 835.727206 507.771908 
L 836.956647 508.047942 
L 838.186089 507.921681 
L 839.415531 508.047775 
L 841.874414 509.952903 
L 843.103855 510.091642 
L 845.562739 509.912197 
L 848.021622 508.416426 
L 849.251063 508.546381 
L 850.480505 508.332184 
L 851.709947 507.803397 
L 851.709947 507.803397 
" style="fill:none;stroke:#ffff14;stroke-linecap:square;stroke-width:1.5;"/>
   </g>
   <g id="line2d_69">
    <path clip-path="url(#pf7b91947c8)" d="M 565.250053 508.51254 
L 851.709947 508.500617 
L 851.709947 508.500617 
" style="fill:none;stroke:#014d4e;stroke-linecap:square;stroke-width:1.5;"/>
   </g>
   <g id="patch_23">
    <path d="M 550.927059 629.9064 
L 550.927059 382.1904 
" style="fill:none;stroke:#000000;stroke-linecap:square;stroke-linejoin:miter;stroke-width:0.8;"/>
   </g>
   <g id="patch_24">
    <path d="M 866.032941 629.9064 
L 866.032941 382.1904 
" style="fill:none;stroke:#000000;stroke-linecap:square;stroke-linejoin:miter;stroke-width:0.8;"/>
   </g>
   <g id="patch_25">
    <path d="M 550.927059 629.9064 
L 866.032941 629.9064 
" style="fill:none;stroke:#000000;stroke-linecap:square;stroke-linejoin:miter;stroke-width:0.8;"/>
   </g>
   <g id="patch_26">
    <path d="M 550.927059 382.1904 
L 866.032941 382.1904 
" style="fill:none;stroke:#000000;stroke-linecap:square;stroke-linejoin:miter;stroke-width:0.8;"/>
   </g>
   <g id="text_59">
    <!-- Lateral joint 4 -->
    <g transform="translate(666.814687 376.1904)scale(0.12 -0.12)">
     <use xlink:href="#DejaVuSans-76"/>
     <use x="55.712891" xlink:href="#DejaVuSans-97"/>
     <use x="116.992188" xlink:href="#DejaVuSans-116"/>
     <use x="156.201172" xlink:href="#DejaVuSans-101"/>
     <use x="217.724609" xlink:href="#DejaVuSans-114"/>
     <use x="258.837891" xlink:href="#DejaVuSans-97"/>
     <use x="320.117188" xlink:href="#DejaVuSans-108"/>
     <use x="347.900391" xlink:href="#DejaVuSans-32"/>
     <use x="379.6875" xlink:href="#DejaVuSans-106"/>
     <use x="407.470703" xlink:href="#DejaVuSans-111"/>
     <use x="468.652344" xlink:href="#DejaVuSans-105"/>
     <use x="496.435547" xlink:href="#DejaVuSans-110"/>
     <use x="559.814453" xlink:href="#DejaVuSans-116"/>
     <use x="599.023438" xlink:href="#DejaVuSans-32"/>
     <use x="630.810547" xlink:href="#DejaVuSans-52"/>
    </g>
   </g>
  </g>
  <g id="axes_6">
   <g id="patch_27">
    <path d="M 929.054118 629.9064 
L 1244.16 629.9064 
L 1244.16 382.1904 
L 929.054118 382.1904 
z
" style="fill:#ffffff;"/>
   </g>
   <g id="matplotlib.axis_11">
    <g id="xtick_26">
     <g id="line2d_70">
      <g>
       <use style="stroke:#000000;stroke-width:0.8;" x="929.054118" xlink:href="#m1a41e27255" y="629.9064"/>
      </g>
     </g>
     <g id="text_60">
      <!-- 0.0 -->
      <g transform="translate(921.102555 644.504838)scale(0.1 -0.1)">
       <use xlink:href="#DejaVuSans-48"/>
       <use x="63.623047" xlink:href="#DejaVuSans-46"/>
       <use x="95.410156" xlink:href="#DejaVuSans-48"/>
      </g>
     </g>
    </g>
    <g id="xtick_27">
     <g id="line2d_71">
      <g>
       <use style="stroke:#000000;stroke-width:0.8;" x="992.075294" xlink:href="#m1a41e27255" y="629.9064"/>
      </g>
     </g>
     <g id="text_61">
      <!-- 0.2 -->
      <g transform="translate(984.123732 644.504838)scale(0.1 -0.1)">
       <use xlink:href="#DejaVuSans-48"/>
       <use x="63.623047" xlink:href="#DejaVuSans-46"/>
       <use x="95.410156" xlink:href="#DejaVuSans-50"/>
      </g>
     </g>
    </g>
    <g id="xtick_28">
     <g id="line2d_72">
      <g>
       <use style="stroke:#000000;stroke-width:0.8;" x="1055.096471" xlink:href="#m1a41e27255" y="629.9064"/>
      </g>
     </g>
     <g id="text_62">
      <!-- 0.4 -->
      <g transform="translate(1047.144908 644.504838)scale(0.1 -0.1)">
       <use xlink:href="#DejaVuSans-48"/>
       <use x="63.623047" xlink:href="#DejaVuSans-46"/>
       <use x="95.410156" xlink:href="#DejaVuSans-52"/>
      </g>
     </g>
    </g>
    <g id="xtick_29">
     <g id="line2d_73">
      <g>
       <use style="stroke:#000000;stroke-width:0.8;" x="1118.117647" xlink:href="#m1a41e27255" y="629.9064"/>
      </g>
     </g>
     <g id="text_63">
      <!-- 0.6 -->
      <defs>
       <path d="M 33.015625 40.375 
Q 26.375 40.375 22.484375 35.828125 
Q 18.609375 31.296875 18.609375 23.390625 
Q 18.609375 15.53125 22.484375 10.953125 
Q 26.375 6.390625 33.015625 6.390625 
Q 39.65625 6.390625 43.53125 10.953125 
Q 47.40625 15.53125 47.40625 23.390625 
Q 47.40625 31.296875 43.53125 35.828125 
Q 39.65625 40.375 33.015625 40.375 
z
M 52.59375 71.296875 
L 52.59375 62.3125 
Q 48.875 64.0625 45.09375 64.984375 
Q 41.3125 65.921875 37.59375 65.921875 
Q 27.828125 65.921875 22.671875 59.328125 
Q 17.53125 52.734375 16.796875 39.40625 
Q 19.671875 43.65625 24.015625 45.921875 
Q 28.375 48.1875 33.59375 48.1875 
Q 44.578125 48.1875 50.953125 41.515625 
Q 57.328125 34.859375 57.328125 23.390625 
Q 57.328125 12.15625 50.6875 5.359375 
Q 44.046875 -1.421875 33.015625 -1.421875 
Q 20.359375 -1.421875 13.671875 8.265625 
Q 6.984375 17.96875 6.984375 36.375 
Q 6.984375 53.65625 15.1875 63.9375 
Q 23.390625 74.21875 37.203125 74.21875 
Q 40.921875 74.21875 44.703125 73.484375 
Q 48.484375 72.75 52.59375 71.296875 
z
" id="DejaVuSans-54"/>
      </defs>
      <g transform="translate(1110.166085 644.504838)scale(0.1 -0.1)">
       <use xlink:href="#DejaVuSans-48"/>
       <use x="63.623047" xlink:href="#DejaVuSans-46"/>
       <use x="95.410156" xlink:href="#DejaVuSans-54"/>
      </g>
     </g>
    </g>
    <g id="xtick_30">
     <g id="line2d_74">
      <g>
       <use style="stroke:#000000;stroke-width:0.8;" x="1181.138824" xlink:href="#m1a41e27255" y="629.9064"/>
      </g>
     </g>
     <g id="text_64">
      <!-- 0.8 -->
      <defs>
       <path d="M 31.78125 34.625 
Q 24.75 34.625 20.71875 30.859375 
Q 16.703125 27.09375 16.703125 20.515625 
Q 16.703125 13.921875 20.71875 10.15625 
Q 24.75 6.390625 31.78125 6.390625 
Q 38.8125 6.390625 42.859375 10.171875 
Q 46.921875 13.96875 46.921875 20.515625 
Q 46.921875 27.09375 42.890625 30.859375 
Q 38.875 34.625 31.78125 34.625 
z
M 21.921875 38.8125 
Q 15.578125 40.375 12.03125 44.71875 
Q 8.5 49.078125 8.5 55.328125 
Q 8.5 64.0625 14.71875 69.140625 
Q 20.953125 74.21875 31.78125 74.21875 
Q 42.671875 74.21875 48.875 69.140625 
Q 55.078125 64.0625 55.078125 55.328125 
Q 55.078125 49.078125 51.53125 44.71875 
Q 48 40.375 41.703125 38.8125 
Q 48.828125 37.15625 52.796875 32.3125 
Q 56.78125 27.484375 56.78125 20.515625 
Q 56.78125 9.90625 50.3125 4.234375 
Q 43.84375 -1.421875 31.78125 -1.421875 
Q 19.734375 -1.421875 13.25 4.234375 
Q 6.78125 9.90625 6.78125 20.515625 
Q 6.78125 27.484375 10.78125 32.3125 
Q 14.796875 37.15625 21.921875 38.8125 
z
M 18.3125 54.390625 
Q 18.3125 48.734375 21.84375 45.5625 
Q 25.390625 42.390625 31.78125 42.390625 
Q 38.140625 42.390625 41.71875 45.5625 
Q 45.3125 48.734375 45.3125 54.390625 
Q 45.3125 60.0625 41.71875 63.234375 
Q 38.140625 66.40625 31.78125 66.40625 
Q 25.390625 66.40625 21.84375 63.234375 
Q 18.3125 60.0625 18.3125 54.390625 
z
" id="DejaVuSans-56"/>
      </defs>
      <g transform="translate(1173.187261 644.504838)scale(0.1 -0.1)">
       <use xlink:href="#DejaVuSans-48"/>
       <use x="63.623047" xlink:href="#DejaVuSans-46"/>
       <use x="95.410156" xlink:href="#DejaVuSans-56"/>
      </g>
     </g>
    </g>
    <g id="xtick_31">
     <g id="line2d_75">
      <g>
       <use style="stroke:#000000;stroke-width:0.8;" x="1244.16" xlink:href="#m1a41e27255" y="629.9064"/>
      </g>
     </g>
     <g id="text_65">
      <!-- 1.0 -->
      <g transform="translate(1236.208438 644.504838)scale(0.1 -0.1)">
       <use xlink:href="#DejaVuSans-49"/>
       <use x="63.623047" xlink:href="#DejaVuSans-46"/>
       <use x="95.410156" xlink:href="#DejaVuSans-48"/>
      </g>
     </g>
    </g>
   </g>
   <g id="matplotlib.axis_12">
    <g id="ytick_30">
     <g id="line2d_76">
      <g>
       <use style="stroke:#000000;stroke-width:0.8;" x="929.054118" xlink:href="#m195e3bfca6" y="629.9064"/>
      </g>
     </g>
     <g id="text_66">
      <!-- 0.0 -->
      <g transform="translate(906.150993 633.705619)scale(0.1 -0.1)">
       <use xlink:href="#DejaVuSans-48"/>
       <use x="63.623047" xlink:href="#DejaVuSans-46"/>
       <use x="95.410156" xlink:href="#DejaVuSans-48"/>
      </g>
     </g>
    </g>
    <g id="ytick_31">
     <g id="line2d_77">
      <g>
       <use style="stroke:#000000;stroke-width:0.8;" x="929.054118" xlink:href="#m195e3bfca6" y="580.3632"/>
      </g>
     </g>
     <g id="text_67">
      <!-- 0.2 -->
      <g transform="translate(906.150993 584.162419)scale(0.1 -0.1)">
       <use xlink:href="#DejaVuSans-48"/>
       <use x="63.623047" xlink:href="#DejaVuSans-46"/>
       <use x="95.410156" xlink:href="#DejaVuSans-50"/>
      </g>
     </g>
    </g>
    <g id="ytick_32">
     <g id="line2d_78">
      <g>
       <use style="stroke:#000000;stroke-width:0.8;" x="929.054118" xlink:href="#m195e3bfca6" y="530.82"/>
      </g>
     </g>
     <g id="text_68">
      <!-- 0.4 -->
      <g transform="translate(906.150993 534.619219)scale(0.1 -0.1)">
       <use xlink:href="#DejaVuSans-48"/>
       <use x="63.623047" xlink:href="#DejaVuSans-46"/>
       <use x="95.410156" xlink:href="#DejaVuSans-52"/>
      </g>
     </g>
    </g>
    <g id="ytick_33">
     <g id="line2d_79">
      <g>
       <use style="stroke:#000000;stroke-width:0.8;" x="929.054118" xlink:href="#m195e3bfca6" y="481.2768"/>
      </g>
     </g>
     <g id="text_69">
      <!-- 0.6 -->
      <g transform="translate(906.150993 485.076019)scale(0.1 -0.1)">
       <use xlink:href="#DejaVuSans-48"/>
       <use x="63.623047" xlink:href="#DejaVuSans-46"/>
       <use x="95.410156" xlink:href="#DejaVuSans-54"/>
      </g>
     </g>
    </g>
    <g id="ytick_34">
     <g id="line2d_80">
      <g>
       <use style="stroke:#000000;stroke-width:0.8;" x="929.054118" xlink:href="#m195e3bfca6" y="431.7336"/>
      </g>
     </g>
     <g id="text_70">
      <!-- 0.8 -->
      <g transform="translate(906.150993 435.532819)scale(0.1 -0.1)">
       <use xlink:href="#DejaVuSans-48"/>
       <use x="63.623047" xlink:href="#DejaVuSans-46"/>
       <use x="95.410156" xlink:href="#DejaVuSans-56"/>
      </g>
     </g>
    </g>
    <g id="ytick_35">
     <g id="line2d_81">
      <g>
       <use style="stroke:#000000;stroke-width:0.8;" x="929.054118" xlink:href="#m195e3bfca6" y="382.1904"/>
      </g>
     </g>
     <g id="text_71">
      <!-- 1.0 -->
      <g transform="translate(906.150993 385.989619)scale(0.1 -0.1)">
       <use xlink:href="#DejaVuSans-49"/>
       <use x="63.623047" xlink:href="#DejaVuSans-46"/>
       <use x="95.410156" xlink:href="#DejaVuSans-48"/>
      </g>
     </g>
    </g>
   </g>
   <g id="patch_28">
    <path d="M 929.054118 629.9064 
L 929.054118 382.1904 
" style="fill:none;stroke:#000000;stroke-linecap:square;stroke-linejoin:miter;stroke-width:0.8;"/>
   </g>
   <g id="patch_29">
    <path d="M 1244.16 629.9064 
L 1244.16 382.1904 
" style="fill:none;stroke:#000000;stroke-linecap:square;stroke-linejoin:miter;stroke-width:0.8;"/>
   </g>
   <g id="patch_30">
    <path d="M 929.054118 629.9064 
L 1244.16 629.9064 
" style="fill:none;stroke:#000000;stroke-linecap:square;stroke-linejoin:miter;stroke-width:0.8;"/>
   </g>
   <g id="patch_31">
    <path d="M 929.054118 382.1904 
L 1244.16 382.1904 
" style="fill:none;stroke:#000000;stroke-linecap:square;stroke-linejoin:miter;stroke-width:0.8;"/>
   </g>
  </g>
  <g id="legend_1">
   <g id="patch_32">
    <path d="M 1308.251562 377.53625 
L 1375.4 377.53625 
Q 1377.4 377.53625 1377.4 375.53625 
L 1377.4 332.22375 
Q 1377.4 330.22375 1375.4 330.22375 
L 1308.251562 330.22375 
Q 1306.251562 330.22375 1306.251562 332.22375 
L 1306.251562 375.53625 
Q 1306.251562 377.53625 1308.251562 377.53625 
z
" style="fill:#ffffff;opacity:0.8;stroke:#cccccc;stroke-linejoin:miter;"/>
   </g>
   <g id="line2d_82">
    <path d="M 1310.251562 338.322187 
L 1330.251562 338.322187 
" style="fill:none;stroke:#ff796c;stroke-linecap:square;stroke-width:1.5;"/>
   </g>
   <g id="line2d_83"/>
   <g id="text_72">
    <!-- Torque -->
    <defs>
     <path d="M -0.296875 72.90625 
L 61.375 72.90625 
L 61.375 64.59375 
L 35.5 64.59375 
L 35.5 0 
L 25.59375 0 
L 25.59375 64.59375 
L -0.296875 64.59375 
z
" id="DejaVuSans-84"/>
     <path d="M 14.796875 27.296875 
Q 14.796875 17.390625 18.875 11.75 
Q 22.953125 6.109375 30.078125 6.109375 
Q 37.203125 6.109375 41.296875 11.75 
Q 45.40625 17.390625 45.40625 27.296875 
Q 45.40625 37.203125 41.296875 42.84375 
Q 37.203125 48.484375 30.078125 48.484375 
Q 22.953125 48.484375 18.875 42.84375 
Q 14.796875 37.203125 14.796875 27.296875 
z
M 45.40625 8.203125 
Q 42.578125 3.328125 38.25 0.953125 
Q 33.9375 -1.421875 27.875 -1.421875 
Q 17.96875 -1.421875 11.734375 6.484375 
Q 5.515625 14.40625 5.515625 27.296875 
Q 5.515625 40.1875 11.734375 48.09375 
Q 17.96875 56 27.875 56 
Q 33.9375 56 38.25 53.625 
Q 42.578125 51.265625 45.40625 46.390625 
L 45.40625 54.6875 
L 54.390625 54.6875 
L 54.390625 -20.796875 
L 45.40625 -20.796875 
z
" id="DejaVuSans-113"/>
     <path d="M 8.5 21.578125 
L 8.5 54.6875 
L 17.484375 54.6875 
L 17.484375 21.921875 
Q 17.484375 14.15625 20.5 10.265625 
Q 23.53125 6.390625 29.59375 6.390625 
Q 36.859375 6.390625 41.078125 11.03125 
Q 45.3125 15.671875 45.3125 23.6875 
L 45.3125 54.6875 
L 54.296875 54.6875 
L 54.296875 0 
L 45.3125 0 
L 45.3125 8.40625 
Q 42.046875 3.421875 37.71875 1 
Q 33.40625 -1.421875 27.6875 -1.421875 
Q 18.265625 -1.421875 13.375 4.4375 
Q 8.5 10.296875 8.5 21.578125 
z
M 31.109375 56 
z
" id="DejaVuSans-117"/>
    </defs>
    <g transform="translate(1338.251562 341.822187)scale(0.1 -0.1)">
     <use xlink:href="#DejaVuSans-84"/>
     <use x="60.818359" xlink:href="#DejaVuSans-111"/>
     <use x="122" xlink:href="#DejaVuSans-114"/>
     <use x="163.097656" xlink:href="#DejaVuSans-113"/>
     <use x="226.574219" xlink:href="#DejaVuSans-117"/>
     <use x="289.953125" xlink:href="#DejaVuSans-101"/>
    </g>
   </g>
   <g id="line2d_84">
    <path d="M 1310.251562 353.000313 
L 1330.251562 353.000313 
" style="fill:none;stroke:#ffff14;stroke-linecap:square;stroke-width:1.5;"/>
   </g>
   <g id="line2d_85"/>
   <g id="text_73">
    <!-- q -->
    <g transform="translate(1338.251562 356.500313)scale(0.1 -0.1)">
     <use xlink:href="#DejaVuSans-113"/>
    </g>
   </g>
   <g id="line2d_86">
    <path d="M 1310.251562 367.678437 
L 1330.251562 367.678437 
" style="fill:none;stroke:#014d4e;stroke-linecap:square;stroke-width:1.5;"/>
   </g>
   <g id="line2d_87"/>
   <g id="text_74">
    <!-- q_des -->
    <defs>
     <path d="M 50.984375 -16.609375 
L 50.984375 -23.578125 
L -0.984375 -23.578125 
L -0.984375 -16.609375 
z
" id="DejaVuSans-95"/>
     <path d="M 45.40625 46.390625 
L 45.40625 75.984375 
L 54.390625 75.984375 
L 54.390625 0 
L 45.40625 0 
L 45.40625 8.203125 
Q 42.578125 3.328125 38.25 0.953125 
Q 33.9375 -1.421875 27.875 -1.421875 
Q 17.96875 -1.421875 11.734375 6.484375 
Q 5.515625 14.40625 5.515625 27.296875 
Q 5.515625 40.1875 11.734375 48.09375 
Q 17.96875 56 27.875 56 
Q 33.9375 56 38.25 53.625 
Q 42.578125 51.265625 45.40625 46.390625 
z
M 14.796875 27.296875 
Q 14.796875 17.390625 18.875 11.75 
Q 22.953125 6.109375 30.078125 6.109375 
Q 37.203125 6.109375 41.296875 11.75 
Q 45.40625 17.390625 45.40625 27.296875 
Q 45.40625 37.203125 41.296875 42.84375 
Q 37.203125 48.484375 30.078125 48.484375 
Q 22.953125 48.484375 18.875 42.84375 
Q 14.796875 37.203125 14.796875 27.296875 
z
" id="DejaVuSans-100"/>
     <path d="M 44.28125 53.078125 
L 44.28125 44.578125 
Q 40.484375 46.53125 36.375 47.5 
Q 32.28125 48.484375 27.875 48.484375 
Q 21.1875 48.484375 17.84375 46.4375 
Q 14.5 44.390625 14.5 40.28125 
Q 14.5 37.15625 16.890625 35.375 
Q 19.28125 33.59375 26.515625 31.984375 
L 29.59375 31.296875 
Q 39.15625 29.25 43.1875 25.515625 
Q 47.21875 21.78125 47.21875 15.09375 
Q 47.21875 7.46875 41.1875 3.015625 
Q 35.15625 -1.421875 24.609375 -1.421875 
Q 20.21875 -1.421875 15.453125 -0.5625 
Q 10.6875 0.296875 5.421875 2 
L 5.421875 11.28125 
Q 10.40625 8.6875 15.234375 7.390625 
Q 20.0625 6.109375 24.8125 6.109375 
Q 31.15625 6.109375 34.5625 8.28125 
Q 37.984375 10.453125 37.984375 14.40625 
Q 37.984375 18.0625 35.515625 20.015625 
Q 33.0625 21.96875 24.703125 23.78125 
L 21.578125 24.515625 
Q 13.234375 26.265625 9.515625 29.90625 
Q 5.8125 33.546875 5.8125 39.890625 
Q 5.8125 47.609375 11.28125 51.796875 
Q 16.75 56 26.8125 56 
Q 31.78125 56 36.171875 55.265625 
Q 40.578125 54.546875 44.28125 53.078125 
z
" id="DejaVuSans-115"/>
    </defs>
    <g transform="translate(1338.251562 371.178437)scale(0.1 -0.1)">
     <use xlink:href="#DejaVuSans-113"/>
     <use x="63.476562" xlink:href="#DejaVuSans-95"/>
     <use x="113.476562" xlink:href="#DejaVuSans-100"/>
     <use x="176.953125" xlink:href="#DejaVuSans-101"/>
     <use x="238.476562" xlink:href="#DejaVuSans-115"/>
    </g>
   </g>
  </g>
 </g>
 <defs>
  <clipPath id="p702e3d4752">
   <rect height="247.716" width="315.105882" x="172.8" y="84.9312"/>
  </clipPath>
  <clipPath id="paa0b3ddd64">
   <rect height="247.716" width="315.105882" x="550.927059" y="84.9312"/>
  </clipPath>
  <clipPath id="p0d67b91f77">
   <rect height="247.716" width="315.105882" x="929.054118" y="84.9312"/>
  </clipPath>
  <clipPath id="pfdd374c948">
   <rect height="247.716" width="315.105882" x="172.8" y="382.1904"/>
  </clipPath>
  <clipPath id="pf7b91947c8">
   <rect height="247.716" width="315.105882" x="550.927059" y="382.1904"/>
  </clipPath>
 </defs>
</svg>
