<?xml version="1.0" encoding="utf-8" standalone="no"?>
<!DOCTYPE svg PUBLIC "-//W3C//DTD SVG 1.1//EN"
  "http://www.w3.org/Graphics/SVG/1.1/DTD/svg11.dtd">
<!-- Created with matplotlib (https://matplotlib.org/) -->
<svg height="707.76pt" version="1.1" viewBox="0 0 1382.4 707.76" width="1382.4pt" xmlns="http://www.w3.org/2000/svg" xmlns:xlink="http://www.w3.org/1999/xlink">
 <defs>
  <style type="text/css">
*{stroke-linecap:butt;stroke-linejoin:round;}
  </style>
 </defs>
 <g id="figure_1">
  <g id="patch_1">
   <path d="M 0 707.76 
L 1382.4 707.76 
L 1382.4 0 
L 0 0 
z
" style="fill:#ffffff;"/>
  </g>
  <g id="axes_1">
   <g id="patch_2">
    <path d="M 172.8 332.6472 
L 487.905882 332.6472 
L 487.905882 84.9312 
L 172.8 84.9312 
z
" style="fill:#ffffff;"/>
   </g>
   <g id="matplotlib.axis_1">
    <g id="xtick_1">
     <g id="line2d_1">
      <defs>
       <path d="M 0 0 
L 0 3.5 
" id="m1c47c0af57" style="stroke:#000000;stroke-width:0.8;"/>
      </defs>
      <g>
       <use style="stroke:#000000;stroke-width:0.8;" x="187.122995" xlink:href="#m1c47c0af57" y="332.6472"/>
      </g>
     </g>
     <g id="text_1">
      <!-- 0 -->
      <defs>
       <path d="M 31.78125 66.40625 
Q 24.171875 66.40625 20.328125 58.90625 
Q 16.5 51.421875 16.5 36.375 
Q 16.5 21.390625 20.328125 13.890625 
Q 24.171875 6.390625 31.78125 6.390625 
Q 39.453125 6.390625 43.28125 13.890625 
Q 47.125 21.390625 47.125 36.375 
Q 47.125 51.421875 43.28125 58.90625 
Q 39.453125 66.40625 31.78125 66.40625 
z
M 31.78125 74.21875 
Q 44.046875 74.21875 50.515625 64.515625 
Q 56.984375 54.828125 56.984375 36.375 
Q 56.984375 17.96875 50.515625 8.265625 
Q 44.046875 -1.421875 31.78125 -1.421875 
Q 19.53125 -1.421875 13.0625 8.265625 
Q 6.59375 17.96875 6.59375 36.375 
Q 6.59375 54.828125 13.0625 64.515625 
Q 19.53125 74.21875 31.78125 74.21875 
z
" id="DejaVuSans-48"/>
      </defs>
      <g transform="translate(183.941745 347.245637)scale(0.1 -0.1)">
       <use xlink:href="#DejaVuSans-48"/>
      </g>
     </g>
    </g>
    <g id="xtick_2">
     <g id="line2d_2">
      <g>
       <use style="stroke:#000000;stroke-width:0.8;" x="248.595075" xlink:href="#m1c47c0af57" y="332.6472"/>
      </g>
     </g>
     <g id="text_2">
      <!-- 50 -->
      <defs>
       <path d="M 10.796875 72.90625 
L 49.515625 72.90625 
L 49.515625 64.59375 
L 19.828125 64.59375 
L 19.828125 46.734375 
Q 21.96875 47.46875 24.109375 47.828125 
Q 26.265625 48.1875 28.421875 48.1875 
Q 40.625 48.1875 47.75 41.5 
Q 54.890625 34.8125 54.890625 23.390625 
Q 54.890625 11.625 47.5625 5.09375 
Q 40.234375 -1.421875 26.90625 -1.421875 
Q 22.3125 -1.421875 17.546875 -0.640625 
Q 12.796875 0.140625 7.71875 1.703125 
L 7.71875 11.625 
Q 12.109375 9.234375 16.796875 8.0625 
Q 21.484375 6.890625 26.703125 6.890625 
Q 35.15625 6.890625 40.078125 11.328125 
Q 45.015625 15.765625 45.015625 23.390625 
Q 45.015625 31 40.078125 35.4375 
Q 35.15625 39.890625 26.703125 39.890625 
Q 22.75 39.890625 18.8125 39.015625 
Q 14.890625 38.140625 10.796875 36.28125 
z
" id="DejaVuSans-53"/>
      </defs>
      <g transform="translate(242.232575 347.245637)scale(0.1 -0.1)">
       <use xlink:href="#DejaVuSans-53"/>
       <use x="63.623047" xlink:href="#DejaVuSans-48"/>
      </g>
     </g>
    </g>
    <g id="xtick_3">
     <g id="line2d_3">
      <g>
       <use style="stroke:#000000;stroke-width:0.8;" x="310.067155" xlink:href="#m1c47c0af57" y="332.6472"/>
      </g>
     </g>
     <g id="text_3">
      <!-- 100 -->
      <defs>
       <path d="M 12.40625 8.296875 
L 28.515625 8.296875 
L 28.515625 63.921875 
L 10.984375 60.40625 
L 10.984375 69.390625 
L 28.421875 72.90625 
L 38.28125 72.90625 
L 38.28125 8.296875 
L 54.390625 8.296875 
L 54.390625 0 
L 12.40625 0 
z
" id="DejaVuSans-49"/>
      </defs>
      <g transform="translate(300.523405 347.245637)scale(0.1 -0.1)">
       <use xlink:href="#DejaVuSans-49"/>
       <use x="63.623047" xlink:href="#DejaVuSans-48"/>
       <use x="127.246094" xlink:href="#DejaVuSans-48"/>
      </g>
     </g>
    </g>
    <g id="xtick_4">
     <g id="line2d_4">
      <g>
       <use style="stroke:#000000;stroke-width:0.8;" x="371.539235" xlink:href="#m1c47c0af57" y="332.6472"/>
      </g>
     </g>
     <g id="text_4">
      <!-- 150 -->
      <g transform="translate(361.995485 347.245637)scale(0.1 -0.1)">
       <use xlink:href="#DejaVuSans-49"/>
       <use x="63.623047" xlink:href="#DejaVuSans-53"/>
       <use x="127.246094" xlink:href="#DejaVuSans-48"/>
      </g>
     </g>
    </g>
    <g id="xtick_5">
     <g id="line2d_5">
      <g>
       <use style="stroke:#000000;stroke-width:0.8;" x="433.011315" xlink:href="#m1c47c0af57" y="332.6472"/>
      </g>
     </g>
     <g id="text_5">
      <!-- 200 -->
      <defs>
       <path d="M 19.1875 8.296875 
L 53.609375 8.296875 
L 53.609375 0 
L 7.328125 0 
L 7.328125 8.296875 
Q 12.9375 14.109375 22.625 23.890625 
Q 32.328125 33.6875 34.8125 36.53125 
Q 39.546875 41.84375 41.421875 45.53125 
Q 43.3125 49.21875 43.3125 52.78125 
Q 43.3125 58.59375 39.234375 62.25 
Q 35.15625 65.921875 28.609375 65.921875 
Q 23.96875 65.921875 18.8125 64.3125 
Q 13.671875 62.703125 7.8125 59.421875 
L 7.8125 69.390625 
Q 13.765625 71.78125 18.9375 73 
Q 24.125 74.21875 28.421875 74.21875 
Q 39.75 74.21875 46.484375 68.546875 
Q 53.21875 62.890625 53.21875 53.421875 
Q 53.21875 48.921875 51.53125 44.890625 
Q 49.859375 40.875 45.40625 35.40625 
Q 44.1875 33.984375 37.640625 27.21875 
Q 31.109375 20.453125 19.1875 8.296875 
z
" id="DejaVuSans-50"/>
      </defs>
      <g transform="translate(423.467565 347.245637)scale(0.1 -0.1)">
       <use xlink:href="#DejaVuSans-50"/>
       <use x="63.623047" xlink:href="#DejaVuSans-48"/>
       <use x="127.246094" xlink:href="#DejaVuSans-48"/>
      </g>
     </g>
    </g>
   </g>
   <g id="matplotlib.axis_2">
    <g id="ytick_1">
     <g id="line2d_6">
      <defs>
       <path d="M 0 0 
L -3.5 0 
" id="m66abdaa170" style="stroke:#000000;stroke-width:0.8;"/>
      </defs>
      <g>
       <use style="stroke:#000000;stroke-width:0.8;" x="172.8" xlink:href="#m66abdaa170" y="305.568998"/>
      </g>
     </g>
     <g id="text_6">
      <!-- 0.00 -->
      <defs>
       <path d="M 10.6875 12.40625 
L 21 12.40625 
L 21 0 
L 10.6875 0 
z
" id="DejaVuSans-46"/>
      </defs>
      <g transform="translate(143.534375 309.368217)scale(0.1 -0.1)">
       <use xlink:href="#DejaVuSans-48"/>
       <use x="63.623047" xlink:href="#DejaVuSans-46"/>
       <use x="95.410156" xlink:href="#DejaVuSans-48"/>
       <use x="159.033203" xlink:href="#DejaVuSans-48"/>
      </g>
     </g>
    </g>
    <g id="ytick_2">
     <g id="line2d_7">
      <g>
       <use style="stroke:#000000;stroke-width:0.8;" x="172.8" xlink:href="#m66abdaa170" y="276.307635"/>
      </g>
     </g>
     <g id="text_7">
      <!-- 0.25 -->
      <g transform="translate(143.534375 280.106853)scale(0.1 -0.1)">
       <use xlink:href="#DejaVuSans-48"/>
       <use x="63.623047" xlink:href="#DejaVuSans-46"/>
       <use x="95.410156" xlink:href="#DejaVuSans-50"/>
       <use x="159.033203" xlink:href="#DejaVuSans-53"/>
      </g>
     </g>
    </g>
    <g id="ytick_3">
     <g id="line2d_8">
      <g>
       <use style="stroke:#000000;stroke-width:0.8;" x="172.8" xlink:href="#m66abdaa170" y="247.046271"/>
      </g>
     </g>
     <g id="text_8">
      <!-- 0.50 -->
      <g transform="translate(143.534375 250.84549)scale(0.1 -0.1)">
       <use xlink:href="#DejaVuSans-48"/>
       <use x="63.623047" xlink:href="#DejaVuSans-46"/>
       <use x="95.410156" xlink:href="#DejaVuSans-53"/>
       <use x="159.033203" xlink:href="#DejaVuSans-48"/>
      </g>
     </g>
    </g>
    <g id="ytick_4">
     <g id="line2d_9">
      <g>
       <use style="stroke:#000000;stroke-width:0.8;" x="172.8" xlink:href="#m66abdaa170" y="217.784907"/>
      </g>
     </g>
     <g id="text_9">
      <!-- 0.75 -->
      <defs>
       <path d="M 8.203125 72.90625 
L 55.078125 72.90625 
L 55.078125 68.703125 
L 28.609375 0 
L 18.3125 0 
L 43.21875 64.59375 
L 8.203125 64.59375 
z
" id="DejaVuSans-55"/>
      </defs>
      <g transform="translate(143.534375 221.584126)scale(0.1 -0.1)">
       <use xlink:href="#DejaVuSans-48"/>
       <use x="63.623047" xlink:href="#DejaVuSans-46"/>
       <use x="95.410156" xlink:href="#DejaVuSans-55"/>
       <use x="159.033203" xlink:href="#DejaVuSans-53"/>
      </g>
     </g>
    </g>
    <g id="ytick_5">
     <g id="line2d_10">
      <g>
       <use style="stroke:#000000;stroke-width:0.8;" x="172.8" xlink:href="#m66abdaa170" y="188.523543"/>
      </g>
     </g>
     <g id="text_10">
      <!-- 1.00 -->
      <g transform="translate(143.534375 192.322762)scale(0.1 -0.1)">
       <use xlink:href="#DejaVuSans-49"/>
       <use x="63.623047" xlink:href="#DejaVuSans-46"/>
       <use x="95.410156" xlink:href="#DejaVuSans-48"/>
       <use x="159.033203" xlink:href="#DejaVuSans-48"/>
      </g>
     </g>
    </g>
    <g id="ytick_6">
     <g id="line2d_11">
      <g>
       <use style="stroke:#000000;stroke-width:0.8;" x="172.8" xlink:href="#m66abdaa170" y="159.26218"/>
      </g>
     </g>
     <g id="text_11">
      <!-- 1.25 -->
      <g transform="translate(143.534375 163.061398)scale(0.1 -0.1)">
       <use xlink:href="#DejaVuSans-49"/>
       <use x="63.623047" xlink:href="#DejaVuSans-46"/>
       <use x="95.410156" xlink:href="#DejaVuSans-50"/>
       <use x="159.033203" xlink:href="#DejaVuSans-53"/>
      </g>
     </g>
    </g>
    <g id="ytick_7">
     <g id="line2d_12">
      <g>
       <use style="stroke:#000000;stroke-width:0.8;" x="172.8" xlink:href="#m66abdaa170" y="130.000816"/>
      </g>
     </g>
     <g id="text_12">
      <!-- 1.50 -->
      <g transform="translate(143.534375 133.800035)scale(0.1 -0.1)">
       <use xlink:href="#DejaVuSans-49"/>
       <use x="63.623047" xlink:href="#DejaVuSans-46"/>
       <use x="95.410156" xlink:href="#DejaVuSans-53"/>
       <use x="159.033203" xlink:href="#DejaVuSans-48"/>
      </g>
     </g>
    </g>
    <g id="ytick_8">
     <g id="line2d_13">
      <g>
       <use style="stroke:#000000;stroke-width:0.8;" x="172.8" xlink:href="#m66abdaa170" y="100.739452"/>
      </g>
     </g>
     <g id="text_13">
      <!-- 1.75 -->
      <g transform="translate(143.534375 104.538671)scale(0.1 -0.1)">
       <use xlink:href="#DejaVuSans-49"/>
       <use x="63.623047" xlink:href="#DejaVuSans-46"/>
       <use x="95.410156" xlink:href="#DejaVuSans-55"/>
       <use x="159.033203" xlink:href="#DejaVuSans-53"/>
      </g>
     </g>
    </g>
   </g>
   <g id="line2d_14">
    <path clip-path="url(#p019944f292)" d="M 187.122995 305.568897 
L 189.581878 305.547259 
L 192.040761 305.183097 
L 196.958527 303.992934 
L 200.646852 303.306205 
L 203.105735 302.427974 
L 208.023502 300.291275 
L 211.711827 298.88963 
L 214.17071 297.557841 
L 217.859035 295.39151 
L 222.776801 292.949466 
L 225.235684 291.334792 
L 227.694567 289.639634 
L 230.153451 288.184626 
L 232.612334 286.790041 
L 235.071217 285.094302 
L 238.759542 282.343099 
L 241.218425 280.85194 
L 243.677308 279.398565 
L 247.365633 276.800157 
L 249.824516 275.229467 
L 257.201166 271.287205 
L 259.660049 269.915274 
L 262.118932 268.890717 
L 264.577816 267.907602 
L 268.26614 266.001001 
L 270.725024 264.906481 
L 275.64279 263.223692 
L 279.331115 261.611994 
L 281.789998 260.869521 
L 285.478323 259.984387 
L 290.396089 258.32415 
L 296.543297 256.950569 
L 300.231622 255.673841 
L 302.690505 255.119766 
L 305.149388 254.592645 
L 307.608272 253.787783 
L 310.067155 252.950545 
L 312.526038 252.41213 
L 314.984921 251.987129 
L 317.443804 251.331619 
L 319.902688 250.598873 
L 322.361571 250.11862 
L 324.820454 249.746679 
L 327.279337 249.130896 
L 330.967662 247.982633 
L 335.885428 246.797076 
L 338.344312 245.872161 
L 342.032636 244.4416 
L 346.950403 242.743048 
L 358.015377 237.707915 
L 361.703702 235.360706 
L 366.621468 232.112831 
L 369.080352 230.097957 
L 372.768676 226.526912 
L 377.686443 221.500503 
L 380.145326 218.691232 
L 383.833651 214.005588 
L 388.751417 207.490017 
L 391.2103 204.001102 
L 394.898625 198.212729 
L 399.816392 189.962568 
L 403.504716 183.419429 
L 407.193041 176.36195 
L 414.569691 161.586554 
L 428.093548 134.177201 
L 433.011315 125.017016 
L 434.240756 122.838322 
L 435.470198 119.875711 
L 439.158523 114.073944 
L 440.387964 112.297485 
L 442.846848 109.272219 
L 445.305731 106.602563 
L 447.764614 104.630158 
L 448.994056 103.782984 
L 450.223497 103.091399 
L 451.452939 102.639364 
L 453.911822 102.145664 
L 455.141264 98.907284 
L 456.370705 96.821031 
L 458.829588 98.211253 
L 460.05903 96.924109 
L 461.288472 96.191018 
L 463.747355 99.949635 
L 464.976796 99.950851 
L 466.206238 100.101784 
L 467.43568 102.091585 
L 468.665121 103.661623 
L 471.124004 102.278934 
L 472.353446 103.192981 
L 473.582888 103.826584 
L 473.582888 103.826584 
" style="fill:none;stroke:#ff796c;stroke-linecap:square;stroke-width:1.5;"/>
   </g>
   <g id="line2d_15">
    <path clip-path="url(#p019944f292)" d="M 187.122995 306.289981 
L 193.270203 306.386572 
L 200.646852 306.913292 
L 204.335177 307.317886 
L 212.941268 308.663641 
L 219.088476 309.91167 
L 226.465126 311.496018 
L 253.512841 317.986657 
L 262.118932 319.508599 
L 271.954465 320.728045 
L 279.331115 321.254456 
L 283.01944 321.385985 
L 291.625531 321.28706 
L 300.231622 320.775468 
L 305.149388 320.346452 
L 313.75548 319.36758 
L 321.132129 318.096043 
L 326.049896 316.987443 
L 333.426545 315.129219 
L 342.032636 312.547828 
L 346.950403 310.795506 
L 353.097611 308.343722 
L 358.015377 306.047087 
L 364.162585 302.955766 
L 370.309793 299.549921 
L 376.457001 295.969534 
L 382.604209 292.058825 
L 387.521976 288.702178 
L 392.439742 285.065331 
L 398.58695 280.247603 
L 403.504716 276.118833 
L 408.422483 271.750637 
L 413.340249 267.087903 
L 417.028574 263.326926 
L 421.94634 257.929941 
L 425.634665 253.565577 
L 429.32299 248.887108 
L 433.011315 243.88769 
L 437.929081 236.839729 
L 441.617406 231.10606 
L 445.305731 224.908554 
L 448.994056 218.225068 
L 452.68238 211.03785 
L 455.141264 205.892775 
L 457.600147 200.890897 
L 460.05903 195.620542 
L 462.517913 190.425499 
L 464.976796 184.886422 
L 467.43568 179.416282 
L 469.894563 173.766603 
L 472.353446 168.313997 
L 473.582888 165.472405 
L 473.582888 165.472405 
" style="fill:none;stroke:#ffff14;stroke-linecap:square;stroke-width:1.5;"/>
   </g>
   <g id="line2d_16">
    <path clip-path="url(#p019944f292)" d="M 187.122995 306.290574 
L 239.988983 306.186222 
L 257.201166 305.944679 
L 269.495582 305.581851 
L 280.560556 305.029987 
L 289.166648 304.39086 
L 296.543297 303.652557 
L 303.919947 302.697921 
L 310.067155 301.706487 
L 316.214363 300.508528 
L 322.361571 299.075562 
L 328.508779 297.377461 
L 333.426545 295.806869 
L 338.344312 294.029578 
L 343.262078 292.028392 
L 348.179844 289.785882 
L 353.097611 287.284552 
L 358.015377 284.507068 
L 362.933144 281.436453 
L 367.85091 278.056312 
L 372.768676 274.351024 
L 377.686443 270.305962 
L 382.604209 265.907666 
L 387.521976 261.144029 
L 392.439742 256.004463 
L 397.357508 250.480017 
L 402.275275 244.563565 
L 407.193041 238.249908 
L 412.110808 231.535918 
L 417.028574 224.420643 
L 421.94634 216.905336 
L 426.864107 208.99357 
L 431.781873 200.691354 
L 436.69964 192.007276 
L 442.846848 180.632943 
L 448.994056 168.708654 
L 455.141264 156.269534 
L 461.288472 143.355505 
L 468.665121 127.290232 
L 473.582888 116.269564 
L 473.582888 116.269564 
" style="fill:none;stroke:#014d4e;stroke-linecap:square;stroke-width:1.5;"/>
   </g>
   <g id="patch_3">
    <path d="M 172.8 332.6472 
L 172.8 84.9312 
" style="fill:none;stroke:#000000;stroke-linecap:square;stroke-linejoin:miter;stroke-width:0.8;"/>
   </g>
   <g id="patch_4">
    <path d="M 487.905882 332.6472 
L 487.905882 84.9312 
" style="fill:none;stroke:#000000;stroke-linecap:square;stroke-linejoin:miter;stroke-width:0.8;"/>
   </g>
   <g id="patch_5">
    <path d="M 172.8 332.6472 
L 487.905882 332.6472 
" style="fill:none;stroke:#000000;stroke-linecap:square;stroke-linejoin:miter;stroke-width:0.8;"/>
   </g>
   <g id="patch_6">
    <path d="M 172.8 84.9312 
L 487.905882 84.9312 
" style="fill:none;stroke:#000000;stroke-linecap:square;stroke-linejoin:miter;stroke-width:0.8;"/>
   </g>
   <g id="text_14">
    <!-- Lateral joint 0 -->
    <defs>
     <path d="M 9.8125 72.90625 
L 19.671875 72.90625 
L 19.671875 8.296875 
L 55.171875 8.296875 
L 55.171875 0 
L 9.8125 0 
z
" id="DejaVuSans-76"/>
     <path d="M 34.28125 27.484375 
Q 23.390625 27.484375 19.1875 25 
Q 14.984375 22.515625 14.984375 16.5 
Q 14.984375 11.71875 18.140625 8.90625 
Q 21.296875 6.109375 26.703125 6.109375 
Q 34.1875 6.109375 38.703125 11.40625 
Q 43.21875 16.703125 43.21875 25.484375 
L 43.21875 27.484375 
z
M 52.203125 31.203125 
L 52.203125 0 
L 43.21875 0 
L 43.21875 8.296875 
Q 40.140625 3.328125 35.546875 0.953125 
Q 30.953125 -1.421875 24.3125 -1.421875 
Q 15.921875 -1.421875 10.953125 3.296875 
Q 6 8.015625 6 15.921875 
Q 6 25.140625 12.171875 29.828125 
Q 18.359375 34.515625 30.609375 34.515625 
L 43.21875 34.515625 
L 43.21875 35.40625 
Q 43.21875 41.609375 39.140625 45 
Q 35.0625 48.390625 27.6875 48.390625 
Q 23 48.390625 18.546875 47.265625 
Q 14.109375 46.140625 10.015625 43.890625 
L 10.015625 52.203125 
Q 14.9375 54.109375 19.578125 55.046875 
Q 24.21875 56 28.609375 56 
Q 40.484375 56 46.34375 49.84375 
Q 52.203125 43.703125 52.203125 31.203125 
z
" id="DejaVuSans-97"/>
     <path d="M 18.3125 70.21875 
L 18.3125 54.6875 
L 36.8125 54.6875 
L 36.8125 47.703125 
L 18.3125 47.703125 
L 18.3125 18.015625 
Q 18.3125 11.328125 20.140625 9.421875 
Q 21.96875 7.515625 27.59375 7.515625 
L 36.8125 7.515625 
L 36.8125 0 
L 27.59375 0 
Q 17.1875 0 13.234375 3.875 
Q 9.28125 7.765625 9.28125 18.015625 
L 9.28125 47.703125 
L 2.6875 47.703125 
L 2.6875 54.6875 
L 9.28125 54.6875 
L 9.28125 70.21875 
z
" id="DejaVuSans-116"/>
     <path d="M 56.203125 29.59375 
L 56.203125 25.203125 
L 14.890625 25.203125 
Q 15.484375 15.921875 20.484375 11.0625 
Q 25.484375 6.203125 34.421875 6.203125 
Q 39.59375 6.203125 44.453125 7.46875 
Q 49.3125 8.734375 54.109375 11.28125 
L 54.109375 2.78125 
Q 49.265625 0.734375 44.1875 -0.34375 
Q 39.109375 -1.421875 33.890625 -1.421875 
Q 20.796875 -1.421875 13.15625 6.1875 
Q 5.515625 13.8125 5.515625 26.8125 
Q 5.515625 40.234375 12.765625 48.109375 
Q 20.015625 56 32.328125 56 
Q 43.359375 56 49.78125 48.890625 
Q 56.203125 41.796875 56.203125 29.59375 
z
M 47.21875 32.234375 
Q 47.125 39.59375 43.09375 43.984375 
Q 39.0625 48.390625 32.421875 48.390625 
Q 24.90625 48.390625 20.390625 44.140625 
Q 15.875 39.890625 15.1875 32.171875 
z
" id="DejaVuSans-101"/>
     <path d="M 41.109375 46.296875 
Q 39.59375 47.171875 37.8125 47.578125 
Q 36.03125 48 33.890625 48 
Q 26.265625 48 22.1875 43.046875 
Q 18.109375 38.09375 18.109375 28.8125 
L 18.109375 0 
L 9.078125 0 
L 9.078125 54.6875 
L 18.109375 54.6875 
L 18.109375 46.1875 
Q 20.953125 51.171875 25.484375 53.578125 
Q 30.03125 56 36.53125 56 
Q 37.453125 56 38.578125 55.875 
Q 39.703125 55.765625 41.0625 55.515625 
z
" id="DejaVuSans-114"/>
     <path d="M 9.421875 75.984375 
L 18.40625 75.984375 
L 18.40625 0 
L 9.421875 0 
z
" id="DejaVuSans-108"/>
     <path id="DejaVuSans-32"/>
     <path d="M 9.421875 54.6875 
L 18.40625 54.6875 
L 18.40625 -0.984375 
Q 18.40625 -11.421875 14.421875 -16.109375 
Q 10.453125 -20.796875 1.609375 -20.796875 
L -1.8125 -20.796875 
L -1.8125 -13.1875 
L 0.59375 -13.1875 
Q 5.71875 -13.1875 7.5625 -10.8125 
Q 9.421875 -8.453125 9.421875 -0.984375 
z
M 9.421875 75.984375 
L 18.40625 75.984375 
L 18.40625 64.59375 
L 9.421875 64.59375 
z
" id="DejaVuSans-106"/>
     <path d="M 30.609375 48.390625 
Q 23.390625 48.390625 19.1875 42.75 
Q 14.984375 37.109375 14.984375 27.296875 
Q 14.984375 17.484375 19.15625 11.84375 
Q 23.34375 6.203125 30.609375 6.203125 
Q 37.796875 6.203125 41.984375 11.859375 
Q 46.1875 17.53125 46.1875 27.296875 
Q 46.1875 37.015625 41.984375 42.703125 
Q 37.796875 48.390625 30.609375 48.390625 
z
M 30.609375 56 
Q 42.328125 56 49.015625 48.375 
Q 55.71875 40.765625 55.71875 27.296875 
Q 55.71875 13.875 49.015625 6.21875 
Q 42.328125 -1.421875 30.609375 -1.421875 
Q 18.84375 -1.421875 12.171875 6.21875 
Q 5.515625 13.875 5.515625 27.296875 
Q 5.515625 40.765625 12.171875 48.375 
Q 18.84375 56 30.609375 56 
z
" id="DejaVuSans-111"/>
     <path d="M 9.421875 54.6875 
L 18.40625 54.6875 
L 18.40625 0 
L 9.421875 0 
z
M 9.421875 75.984375 
L 18.40625 75.984375 
L 18.40625 64.59375 
L 9.421875 64.59375 
z
" id="DejaVuSans-105"/>
     <path d="M 54.890625 33.015625 
L 54.890625 0 
L 45.90625 0 
L 45.90625 32.71875 
Q 45.90625 40.484375 42.875 44.328125 
Q 39.84375 48.1875 33.796875 48.1875 
Q 26.515625 48.1875 22.3125 43.546875 
Q 18.109375 38.921875 18.109375 30.90625 
L 18.109375 0 
L 9.078125 0 
L 9.078125 54.6875 
L 18.109375 54.6875 
L 18.109375 46.1875 
Q 21.34375 51.125 25.703125 53.5625 
Q 30.078125 56 35.796875 56 
Q 45.21875 56 50.046875 50.171875 
Q 54.890625 44.34375 54.890625 33.015625 
z
" id="DejaVuSans-110"/>
    </defs>
    <g transform="translate(288.687629 78.9312)scale(0.12 -0.12)">
     <use xlink:href="#DejaVuSans-76"/>
     <use x="55.712891" xlink:href="#DejaVuSans-97"/>
     <use x="116.992188" xlink:href="#DejaVuSans-116"/>
     <use x="156.201172" xlink:href="#DejaVuSans-101"/>
     <use x="217.724609" xlink:href="#DejaVuSans-114"/>
     <use x="258.837891" xlink:href="#DejaVuSans-97"/>
     <use x="320.117188" xlink:href="#DejaVuSans-108"/>
     <use x="347.900391" xlink:href="#DejaVuSans-32"/>
     <use x="379.6875" xlink:href="#DejaVuSans-106"/>
     <use x="407.470703" xlink:href="#DejaVuSans-111"/>
     <use x="468.652344" xlink:href="#DejaVuSans-105"/>
     <use x="496.435547" xlink:href="#DejaVuSans-110"/>
     <use x="559.814453" xlink:href="#DejaVuSans-116"/>
     <use x="599.023438" xlink:href="#DejaVuSans-32"/>
     <use x="630.810547" xlink:href="#DejaVuSans-48"/>
    </g>
   </g>
  </g>
  <g id="axes_2">
   <g id="patch_7">
    <path d="M 550.927059 332.6472 
L 866.032941 332.6472 
L 866.032941 84.9312 
L 550.927059 84.9312 
z
" style="fill:#ffffff;"/>
   </g>
   <g id="matplotlib.axis_3">
    <g id="xtick_6">
     <g id="line2d_17">
      <g>
       <use style="stroke:#000000;stroke-width:0.8;" x="565.250053" xlink:href="#m1c47c0af57" y="332.6472"/>
      </g>
     </g>
     <g id="text_15">
      <!-- 0 -->
      <g transform="translate(562.068803 347.245637)scale(0.1 -0.1)">
       <use xlink:href="#DejaVuSans-48"/>
      </g>
     </g>
    </g>
    <g id="xtick_7">
     <g id="line2d_18">
      <g>
       <use style="stroke:#000000;stroke-width:0.8;" x="626.722134" xlink:href="#m1c47c0af57" y="332.6472"/>
      </g>
     </g>
     <g id="text_16">
      <!-- 50 -->
      <g transform="translate(620.359634 347.245637)scale(0.1 -0.1)">
       <use xlink:href="#DejaVuSans-53"/>
       <use x="63.623047" xlink:href="#DejaVuSans-48"/>
      </g>
     </g>
    </g>
    <g id="xtick_8">
     <g id="line2d_19">
      <g>
       <use style="stroke:#000000;stroke-width:0.8;" x="688.194214" xlink:href="#m1c47c0af57" y="332.6472"/>
      </g>
     </g>
     <g id="text_17">
      <!-- 100 -->
      <g transform="translate(678.650464 347.245637)scale(0.1 -0.1)">
       <use xlink:href="#DejaVuSans-49"/>
       <use x="63.623047" xlink:href="#DejaVuSans-48"/>
       <use x="127.246094" xlink:href="#DejaVuSans-48"/>
      </g>
     </g>
    </g>
    <g id="xtick_9">
     <g id="line2d_20">
      <g>
       <use style="stroke:#000000;stroke-width:0.8;" x="749.666294" xlink:href="#m1c47c0af57" y="332.6472"/>
      </g>
     </g>
     <g id="text_18">
      <!-- 150 -->
      <g transform="translate(740.122544 347.245637)scale(0.1 -0.1)">
       <use xlink:href="#DejaVuSans-49"/>
       <use x="63.623047" xlink:href="#DejaVuSans-53"/>
       <use x="127.246094" xlink:href="#DejaVuSans-48"/>
      </g>
     </g>
    </g>
    <g id="xtick_10">
     <g id="line2d_21">
      <g>
       <use style="stroke:#000000;stroke-width:0.8;" x="811.138374" xlink:href="#m1c47c0af57" y="332.6472"/>
      </g>
     </g>
     <g id="text_19">
      <!-- 200 -->
      <g transform="translate(801.594624 347.245637)scale(0.1 -0.1)">
       <use xlink:href="#DejaVuSans-50"/>
       <use x="63.623047" xlink:href="#DejaVuSans-48"/>
       <use x="127.246094" xlink:href="#DejaVuSans-48"/>
      </g>
     </g>
    </g>
   </g>
   <g id="matplotlib.axis_4">
    <g id="ytick_9">
     <g id="line2d_22">
      <g>
       <use style="stroke:#000000;stroke-width:0.8;" x="550.927059" xlink:href="#m66abdaa170" y="292.454661"/>
      </g>
     </g>
     <g id="text_20">
      <!-- −0.4 -->
      <defs>
       <path d="M 10.59375 35.5 
L 73.1875 35.5 
L 73.1875 27.203125 
L 10.59375 27.203125 
z
" id="DejaVuSans-8722"/>
       <path d="M 37.796875 64.3125 
L 12.890625 25.390625 
L 37.796875 25.390625 
z
M 35.203125 72.90625 
L 47.609375 72.90625 
L 47.609375 25.390625 
L 58.015625 25.390625 
L 58.015625 17.1875 
L 47.609375 17.1875 
L 47.609375 0 
L 37.796875 0 
L 37.796875 17.1875 
L 4.890625 17.1875 
L 4.890625 26.703125 
z
" id="DejaVuSans-52"/>
      </defs>
      <g transform="translate(519.644246 296.253879)scale(0.1 -0.1)">
       <use xlink:href="#DejaVuSans-8722"/>
       <use x="83.789062" xlink:href="#DejaVuSans-48"/>
       <use x="147.412109" xlink:href="#DejaVuSans-46"/>
       <use x="179.199219" xlink:href="#DejaVuSans-52"/>
      </g>
     </g>
    </g>
    <g id="ytick_10">
     <g id="line2d_23">
      <g>
       <use style="stroke:#000000;stroke-width:0.8;" x="550.927059" xlink:href="#m66abdaa170" y="247.79356"/>
      </g>
     </g>
     <g id="text_21">
      <!-- −0.2 -->
      <g transform="translate(519.644246 251.592779)scale(0.1 -0.1)">
       <use xlink:href="#DejaVuSans-8722"/>
       <use x="83.789062" xlink:href="#DejaVuSans-48"/>
       <use x="147.412109" xlink:href="#DejaVuSans-46"/>
       <use x="179.199219" xlink:href="#DejaVuSans-50"/>
      </g>
     </g>
    </g>
    <g id="ytick_11">
     <g id="line2d_24">
      <g>
       <use style="stroke:#000000;stroke-width:0.8;" x="550.927059" xlink:href="#m66abdaa170" y="203.13246"/>
      </g>
     </g>
     <g id="text_22">
      <!-- 0.0 -->
      <g transform="translate(528.023934 206.931679)scale(0.1 -0.1)">
       <use xlink:href="#DejaVuSans-48"/>
       <use x="63.623047" xlink:href="#DejaVuSans-46"/>
       <use x="95.410156" xlink:href="#DejaVuSans-48"/>
      </g>
     </g>
    </g>
    <g id="ytick_12">
     <g id="line2d_25">
      <g>
       <use style="stroke:#000000;stroke-width:0.8;" x="550.927059" xlink:href="#m66abdaa170" y="158.47136"/>
      </g>
     </g>
     <g id="text_23">
      <!-- 0.2 -->
      <g transform="translate(528.023934 162.270579)scale(0.1 -0.1)">
       <use xlink:href="#DejaVuSans-48"/>
       <use x="63.623047" xlink:href="#DejaVuSans-46"/>
       <use x="95.410156" xlink:href="#DejaVuSans-50"/>
      </g>
     </g>
    </g>
    <g id="ytick_13">
     <g id="line2d_26">
      <g>
       <use style="stroke:#000000;stroke-width:0.8;" x="550.927059" xlink:href="#m66abdaa170" y="113.81026"/>
      </g>
     </g>
     <g id="text_24">
      <!-- 0.4 -->
      <g transform="translate(528.023934 117.609479)scale(0.1 -0.1)">
       <use xlink:href="#DejaVuSans-48"/>
       <use x="63.623047" xlink:href="#DejaVuSans-46"/>
       <use x="95.410156" xlink:href="#DejaVuSans-52"/>
      </g>
     </g>
    </g>
   </g>
   <g id="line2d_27">
    <path clip-path="url(#pc337a1288f)" d="M 565.250053 203.132246 
L 567.708937 203.11042 
L 570.16782 202.847368 
L 572.626703 202.537786 
L 575.085586 202.531221 
L 578.773911 202.797104 
L 584.921119 202.766947 
L 591.068327 203.686075 
L 594.756652 203.946238 
L 597.215535 204.468398 
L 599.674418 205.058647 
L 602.133302 205.395518 
L 604.592185 205.620441 
L 607.051068 206.101473 
L 610.739393 207.111271 
L 616.886601 208.306109 
L 623.033809 210.4219 
L 625.492692 211.048277 
L 627.951575 211.9375 
L 631.6399 213.529184 
L 634.098783 214.312338 
L 636.557666 215.059184 
L 639.01655 216.091894 
L 641.475433 217.243378 
L 643.934316 218.160385 
L 646.393199 219.009958 
L 648.852082 220.147774 
L 652.540407 222.080964 
L 658.687615 224.844061 
L 662.37594 226.907499 
L 664.834823 227.991498 
L 667.293706 229.040787 
L 669.75259 230.342226 
L 672.211473 231.729616 
L 675.899798 233.441352 
L 678.358681 234.725315 
L 688.194214 240.937266 
L 699.259188 249.373523 
L 705.406396 254.657915 
L 707.865279 256.763179 
L 710.324162 259.193494 
L 720.159695 269.544548 
L 725.077462 275.292261 
L 729.995228 280.909591 
L 734.912994 286.734367 
L 745.977969 298.591255 
L 754.58406 306.696531 
L 757.042943 308.842599 
L 760.731268 311.619732 
L 764.419593 314.215001 
L 766.878476 315.779475 
L 769.337359 317.100293 
L 771.796242 318.143094 
L 775.484567 319.460587 
L 779.172892 320.562448 
L 781.631775 321.05029 
L 784.090658 321.316773 
L 786.549542 321.387382 
L 790.237866 321.216043 
L 792.69675 320.830157 
L 795.155633 320.16406 
L 797.614516 319.131983 
L 800.073399 317.777237 
L 802.532282 316.128122 
L 804.991166 314.190363 
L 807.450049 311.941206 
L 809.908932 309.341026 
L 812.367815 306.436138 
L 813.597257 304.174479 
L 816.05614 301.292085 
L 820.973906 294.732345 
L 825.891673 287.394331 
L 830.809439 279.341162 
L 832.038881 275.854347 
L 833.268323 270.535233 
L 834.497764 267.106758 
L 835.727206 265.000574 
L 836.956647 261.927439 
L 838.186089 258.003985 
L 839.415531 255.480884 
L 840.644972 254.319853 
L 841.874414 252.470264 
L 843.103855 249.846443 
L 844.333297 248.282959 
L 845.562739 247.528824 
L 846.79218 245.626241 
L 848.021622 242.616348 
L 849.251063 240.232436 
L 850.480505 238.413219 
L 851.709947 235.678947 
L 851.709947 235.678947 
" style="fill:none;stroke:#ff796c;stroke-linecap:square;stroke-width:1.5;"/>
   </g>
   <g id="line2d_28">
    <path clip-path="url(#pc337a1288f)" d="M 565.250053 320.363068 
L 572.626703 320.260639 
L 581.232794 319.805847 
L 588.609444 319.089554 
L 598.444977 317.9392 
L 611.968834 316.336876 
L 620.574926 315.137906 
L 642.704874 311.964177 
L 647.622641 311.10531 
L 657.458174 309.107446 
L 669.75259 306.1825 
L 675.899798 304.453323 
L 680.817564 302.751255 
L 685.73533 300.840607 
L 690.653097 298.619179 
L 695.570863 296.226928 
L 700.48863 293.510926 
L 705.406396 290.529084 
L 709.094721 287.974316 
L 714.012487 284.227244 
L 717.700812 281.091278 
L 722.618578 276.531824 
L 726.306903 272.90179 
L 731.22467 267.720206 
L 736.142436 262.275407 
L 741.060202 256.431383 
L 745.977969 250.257009 
L 750.895735 243.687647 
L 757.042943 235.072821 
L 763.190151 226.123167 
L 771.796242 213.232643 
L 780.402334 199.822981 
L 798.843958 170.745354 
L 803.761724 163.662164 
L 807.450049 158.701722 
L 811.138374 154.049224 
L 816.05614 148.243782 
L 819.744465 144.255969 
L 824.662231 139.502018 
L 828.350556 136.329865 
L 830.809439 134.44259 
L 832.038881 134.038735 
L 833.268323 132.919074 
L 834.497764 131.561482 
L 835.727206 131.021784 
L 836.956647 130.868618 
L 838.186089 130.011955 
L 839.415531 128.779921 
L 840.644972 128.183034 
L 841.874414 127.86015 
L 843.103855 126.775665 
L 844.333297 125.235919 
L 845.562739 124.228765 
L 846.79218 123.445422 
L 848.021622 121.967173 
L 849.251063 120.175903 
L 850.480505 118.990286 
L 851.709947 118.035035 
L 851.709947 118.035035 
" style="fill:none;stroke:#ffff14;stroke-linecap:square;stroke-width:1.5;"/>
   </g>
   <g id="line2d_29">
    <path clip-path="url(#pc337a1288f)" d="M 565.250053 320.36209 
L 619.345484 320.258771 
L 635.328225 320.006963 
L 647.622641 319.587697 
L 657.458174 319.020242 
L 666.064265 318.283315 
L 673.440914 317.419335 
L 679.588122 316.498621 
L 685.73533 315.362647 
L 691.882538 313.978215 
L 696.800305 312.667976 
L 701.718071 311.157042 
L 706.635838 309.425692 
L 711.553604 307.453902 
L 716.47137 305.221307 
L 721.389137 302.707611 
L 726.306903 299.892605 
L 731.22467 296.756581 
L 736.142436 293.280562 
L 741.060202 289.446709 
L 745.977969 285.238687 
L 750.895735 280.641824 
L 755.813502 275.643429 
L 760.731268 270.23266 
L 765.649034 264.400783 
L 770.566801 258.141104 
L 775.484567 251.44912 
L 780.402334 244.322642 
L 785.3201 236.76166 
L 790.237866 228.768345 
L 795.155633 220.346804 
L 800.073399 211.502866 
L 804.991166 202.244057 
L 809.908932 192.579601 
L 816.05614 179.945855 
L 822.203348 166.722905 
L 828.350556 152.942723 
L 834.497764 138.642369 
L 841.874414 120.853351 
L 849.251063 102.449087 
L 851.709947 96.191018 
L 851.709947 96.191018 
" style="fill:none;stroke:#014d4e;stroke-linecap:square;stroke-width:1.5;"/>
   </g>
   <g id="patch_8">
    <path d="M 550.927059 332.6472 
L 550.927059 84.9312 
" style="fill:none;stroke:#000000;stroke-linecap:square;stroke-linejoin:miter;stroke-width:0.8;"/>
   </g>
   <g id="patch_9">
    <path d="M 866.032941 332.6472 
L 866.032941 84.9312 
" style="fill:none;stroke:#000000;stroke-linecap:square;stroke-linejoin:miter;stroke-width:0.8;"/>
   </g>
   <g id="patch_10">
    <path d="M 550.927059 332.6472 
L 866.032941 332.6472 
" style="fill:none;stroke:#000000;stroke-linecap:square;stroke-linejoin:miter;stroke-width:0.8;"/>
   </g>
   <g id="patch_11">
    <path d="M 550.927059 84.9312 
L 866.032941 84.9312 
" style="fill:none;stroke:#000000;stroke-linecap:square;stroke-linejoin:miter;stroke-width:0.8;"/>
   </g>
   <g id="text_25">
    <!-- Lateral joint 1 -->
    <g transform="translate(666.814687 78.9312)scale(0.12 -0.12)">
     <use xlink:href="#DejaVuSans-76"/>
     <use x="55.712891" xlink:href="#DejaVuSans-97"/>
     <use x="116.992188" xlink:href="#DejaVuSans-116"/>
     <use x="156.201172" xlink:href="#DejaVuSans-101"/>
     <use x="217.724609" xlink:href="#DejaVuSans-114"/>
     <use x="258.837891" xlink:href="#DejaVuSans-97"/>
     <use x="320.117188" xlink:href="#DejaVuSans-108"/>
     <use x="347.900391" xlink:href="#DejaVuSans-32"/>
     <use x="379.6875" xlink:href="#DejaVuSans-106"/>
     <use x="407.470703" xlink:href="#DejaVuSans-111"/>
     <use x="468.652344" xlink:href="#DejaVuSans-105"/>
     <use x="496.435547" xlink:href="#DejaVuSans-110"/>
     <use x="559.814453" xlink:href="#DejaVuSans-116"/>
     <use x="599.023438" xlink:href="#DejaVuSans-32"/>
     <use x="630.810547" xlink:href="#DejaVuSans-49"/>
    </g>
   </g>
  </g>
  <g id="axes_3">
   <g id="patch_12">
    <path d="M 929.054118 332.6472 
L 1244.16 332.6472 
L 1244.16 84.9312 
L 929.054118 84.9312 
z
" style="fill:#ffffff;"/>
   </g>
   <g id="matplotlib.axis_5">
    <g id="xtick_11">
     <g id="line2d_30">
      <g>
       <use style="stroke:#000000;stroke-width:0.8;" x="943.377112" xlink:href="#m1c47c0af57" y="332.6472"/>
      </g>
     </g>
     <g id="text_26">
      <!-- 0 -->
      <g transform="translate(940.195862 347.245637)scale(0.1 -0.1)">
       <use xlink:href="#DejaVuSans-48"/>
      </g>
     </g>
    </g>
    <g id="xtick_12">
     <g id="line2d_31">
      <g>
       <use style="stroke:#000000;stroke-width:0.8;" x="1004.849192" xlink:href="#m1c47c0af57" y="332.6472"/>
      </g>
     </g>
     <g id="text_27">
      <!-- 50 -->
      <g transform="translate(998.486692 347.245637)scale(0.1 -0.1)">
       <use xlink:href="#DejaVuSans-53"/>
       <use x="63.623047" xlink:href="#DejaVuSans-48"/>
      </g>
     </g>
    </g>
    <g id="xtick_13">
     <g id="line2d_32">
      <g>
       <use style="stroke:#000000;stroke-width:0.8;" x="1066.321272" xlink:href="#m1c47c0af57" y="332.6472"/>
      </g>
     </g>
     <g id="text_28">
      <!-- 100 -->
      <g transform="translate(1056.777522 347.245637)scale(0.1 -0.1)">
       <use xlink:href="#DejaVuSans-49"/>
       <use x="63.623047" xlink:href="#DejaVuSans-48"/>
       <use x="127.246094" xlink:href="#DejaVuSans-48"/>
      </g>
     </g>
    </g>
    <g id="xtick_14">
     <g id="line2d_33">
      <g>
       <use style="stroke:#000000;stroke-width:0.8;" x="1127.793352" xlink:href="#m1c47c0af57" y="332.6472"/>
      </g>
     </g>
     <g id="text_29">
      <!-- 150 -->
      <g transform="translate(1118.249602 347.245637)scale(0.1 -0.1)">
       <use xlink:href="#DejaVuSans-49"/>
       <use x="63.623047" xlink:href="#DejaVuSans-53"/>
       <use x="127.246094" xlink:href="#DejaVuSans-48"/>
      </g>
     </g>
    </g>
    <g id="xtick_15">
     <g id="line2d_34">
      <g>
       <use style="stroke:#000000;stroke-width:0.8;" x="1189.265433" xlink:href="#m1c47c0af57" y="332.6472"/>
      </g>
     </g>
     <g id="text_30">
      <!-- 200 -->
      <g transform="translate(1179.721683 347.245637)scale(0.1 -0.1)">
       <use xlink:href="#DejaVuSans-50"/>
       <use x="63.623047" xlink:href="#DejaVuSans-48"/>
       <use x="127.246094" xlink:href="#DejaVuSans-48"/>
      </g>
     </g>
    </g>
   </g>
   <g id="matplotlib.axis_6">
    <g id="ytick_14">
     <g id="line2d_35">
      <g>
       <use style="stroke:#000000;stroke-width:0.8;" x="929.054118" xlink:href="#m66abdaa170" y="331.28289"/>
      </g>
     </g>
     <g id="text_31">
      <!-- −5 -->
      <g transform="translate(907.31193 335.082109)scale(0.1 -0.1)">
       <use xlink:href="#DejaVuSans-8722"/>
       <use x="83.789062" xlink:href="#DejaVuSans-53"/>
      </g>
     </g>
    </g>
    <g id="ytick_15">
     <g id="line2d_36">
      <g>
       <use style="stroke:#000000;stroke-width:0.8;" x="929.054118" xlink:href="#m66abdaa170" y="284.277085"/>
      </g>
     </g>
     <g id="text_32">
      <!-- −4 -->
      <g transform="translate(907.31193 288.076303)scale(0.1 -0.1)">
       <use xlink:href="#DejaVuSans-8722"/>
       <use x="83.789062" xlink:href="#DejaVuSans-52"/>
      </g>
     </g>
    </g>
    <g id="ytick_16">
     <g id="line2d_37">
      <g>
       <use style="stroke:#000000;stroke-width:0.8;" x="929.054118" xlink:href="#m66abdaa170" y="237.271279"/>
      </g>
     </g>
     <g id="text_33">
      <!-- −3 -->
      <defs>
       <path d="M 40.578125 39.3125 
Q 47.65625 37.796875 51.625 33 
Q 55.609375 28.21875 55.609375 21.1875 
Q 55.609375 10.40625 48.1875 4.484375 
Q 40.765625 -1.421875 27.09375 -1.421875 
Q 22.515625 -1.421875 17.65625 -0.515625 
Q 12.796875 0.390625 7.625 2.203125 
L 7.625 11.71875 
Q 11.71875 9.328125 16.59375 8.109375 
Q 21.484375 6.890625 26.8125 6.890625 
Q 36.078125 6.890625 40.9375 10.546875 
Q 45.796875 14.203125 45.796875 21.1875 
Q 45.796875 27.640625 41.28125 31.265625 
Q 36.765625 34.90625 28.71875 34.90625 
L 20.21875 34.90625 
L 20.21875 43.015625 
L 29.109375 43.015625 
Q 36.375 43.015625 40.234375 45.921875 
Q 44.09375 48.828125 44.09375 54.296875 
Q 44.09375 59.90625 40.109375 62.90625 
Q 36.140625 65.921875 28.71875 65.921875 
Q 24.65625 65.921875 20.015625 65.03125 
Q 15.375 64.15625 9.8125 62.3125 
L 9.8125 71.09375 
Q 15.4375 72.65625 20.34375 73.4375 
Q 25.25 74.21875 29.59375 74.21875 
Q 40.828125 74.21875 47.359375 69.109375 
Q 53.90625 64.015625 53.90625 55.328125 
Q 53.90625 49.265625 50.4375 45.09375 
Q 46.96875 40.921875 40.578125 39.3125 
z
" id="DejaVuSans-51"/>
      </defs>
      <g transform="translate(907.31193 241.070498)scale(0.1 -0.1)">
       <use xlink:href="#DejaVuSans-8722"/>
       <use x="83.789062" xlink:href="#DejaVuSans-51"/>
      </g>
     </g>
    </g>
    <g id="ytick_17">
     <g id="line2d_38">
      <g>
       <use style="stroke:#000000;stroke-width:0.8;" x="929.054118" xlink:href="#m66abdaa170" y="190.265474"/>
      </g>
     </g>
     <g id="text_34">
      <!-- −2 -->
      <g transform="translate(907.31193 194.064693)scale(0.1 -0.1)">
       <use xlink:href="#DejaVuSans-8722"/>
       <use x="83.789062" xlink:href="#DejaVuSans-50"/>
      </g>
     </g>
    </g>
    <g id="ytick_18">
     <g id="line2d_39">
      <g>
       <use style="stroke:#000000;stroke-width:0.8;" x="929.054118" xlink:href="#m66abdaa170" y="143.259669"/>
      </g>
     </g>
     <g id="text_35">
      <!-- −1 -->
      <g transform="translate(907.31193 147.058888)scale(0.1 -0.1)">
       <use xlink:href="#DejaVuSans-8722"/>
       <use x="83.789062" xlink:href="#DejaVuSans-49"/>
      </g>
     </g>
    </g>
    <g id="ytick_19">
     <g id="line2d_40">
      <g>
       <use style="stroke:#000000;stroke-width:0.8;" x="929.054118" xlink:href="#m66abdaa170" y="96.253864"/>
      </g>
     </g>
     <g id="text_36">
      <!-- 0 -->
      <g transform="translate(915.691618 100.053083)scale(0.1 -0.1)">
       <use xlink:href="#DejaVuSans-48"/>
      </g>
     </g>
    </g>
   </g>
   <g id="line2d_41">
    <path clip-path="url(#pca43be974f)" d="M 943.377112 96.191018 
L 944.606554 96.413333 
L 945.835996 96.880339 
L 947.065437 97.227135 
L 948.294879 97.264722 
L 950.753762 97.067838 
L 955.671528 97.205823 
L 956.90097 97.490493 
L 958.130412 97.925791 
L 959.359853 98.159396 
L 960.589295 97.956364 
L 961.818736 97.485742 
L 963.048178 97.149397 
L 964.27762 97.150114 
L 966.736503 97.394923 
L 969.195386 97.364672 
L 971.654269 97.575219 
L 972.883711 97.391838 
L 974.113152 97.077466 
L 975.342594 97.008322 
L 976.572036 97.41007 
L 977.801477 98.077068 
L 979.030919 98.604265 
L 982.719244 99.271112 
L 985.178127 100.018548 
L 986.407568 100.23475 
L 987.63701 100.582777 
L 988.866452 101.25743 
L 990.095893 102.079997 
L 991.325335 102.634943 
L 992.554776 102.735954 
L 993.784218 102.646694 
L 995.01366 102.771079 
L 998.701984 104.048511 
L 999.931426 104.31945 
L 1001.160868 104.736422 
L 1002.390309 105.276781 
L 1003.619751 105.655285 
L 1004.849192 105.70914 
L 1006.078634 105.643292 
L 1007.308076 105.934515 
L 1008.537517 106.730089 
L 1009.766959 107.660715 
L 1010.9964 108.27414 
L 1013.455284 108.8271 
L 1017.143608 110.323743 
L 1018.37305 110.551669 
L 1019.602492 110.981094 
L 1022.061375 112.541499 
L 1023.290816 112.860749 
L 1025.7497 112.512789 
L 1026.979141 112.727416 
L 1028.208583 113.230573 
L 1029.438024 113.601115 
L 1031.896908 113.71441 
L 1035.585232 114.44777 
L 1036.814674 114.229874 
L 1038.044116 114.144782 
L 1039.273557 114.599533 
L 1040.502999 115.440676 
L 1041.73244 116.115341 
L 1042.961882 116.325463 
L 1044.191324 116.3555 
L 1045.420765 116.661358 
L 1047.879648 117.871621 
L 1050.338532 118.569216 
L 1051.567973 119.278126 
L 1052.797415 120.215887 
L 1054.026856 120.867667 
L 1055.256298 120.969015 
L 1056.48574 120.896783 
L 1057.715181 121.230625 
L 1060.174064 122.896393 
L 1061.403506 123.353374 
L 1062.632948 123.586605 
L 1063.862389 124.019812 
L 1066.321272 125.27254 
L 1068.780156 125.698559 
L 1070.009597 126.418038 
L 1072.46848 128.728968 
L 1073.697922 129.326143 
L 1074.927364 129.625014 
L 1076.156805 130.185862 
L 1078.615688 132.257383 
L 1082.304013 134.70895 
L 1083.533455 135.961276 
L 1084.762896 136.96731 
L 1085.992338 137.413559 
L 1087.22178 137.668281 
L 1088.451221 138.343641 
L 1090.910104 140.584628 
L 1092.139546 141.180524 
L 1093.368988 141.541802 
L 1094.598429 142.161053 
L 1095.827871 143.026233 
L 1097.057312 143.653476 
L 1099.516196 144.094225 
L 1100.745637 144.912074 
L 1101.975079 146.096957 
L 1103.20452 146.963603 
L 1105.663404 147.547635 
L 1106.892845 148.323808 
L 1108.122287 149.379113 
L 1109.351728 150.119207 
L 1110.58117 150.537567 
L 1111.810612 151.228123 
L 1114.269495 153.804559 
L 1115.498936 154.504224 
L 1116.728378 154.812463 
L 1117.95782 155.489954 
L 1120.416703 157.886178 
L 1122.875586 159.012019 
L 1124.105028 160.041953 
L 1125.334469 161.409515 
L 1126.563911 162.346447 
L 1127.793352 162.691853 
L 1129.022794 163.181864 
L 1130.252236 164.341632 
L 1131.481677 165.682636 
L 1132.711119 166.483418 
L 1133.94056 166.928357 
L 1135.170002 167.92821 
L 1136.399444 169.661319 
L 1137.628885 170.944232 
L 1138.858327 171.343894 
L 1140.087768 171.879903 
L 1141.31721 173.499955 
L 1142.546652 175.407227 
L 1143.776093 176.406582 
L 1145.005535 176.801686 
L 1146.234976 177.949032 
L 1147.464418 179.994854 
L 1148.69386 181.595366 
L 1151.152743 182.785313 
L 1152.382184 184.565059 
L 1153.611626 186.607028 
L 1154.841068 187.568893 
L 1156.070509 187.887932 
L 1157.299951 188.977269 
L 1158.529392 190.931064 
L 1159.758834 192.259255 
L 1160.988276 192.446765 
L 1162.217717 192.896908 
L 1164.6766 196.244299 
L 1165.906042 196.721107 
L 1167.135484 196.843108 
L 1168.364925 198.087451 
L 1169.594367 199.896025 
L 1170.823808 200.60614 
L 1172.05325 200.41124 
L 1173.282692 201.066443 
L 1174.512133 202.764883 
L 1175.741575 203.785074 
L 1176.971017 203.637219 
L 1178.200458 204.019826 
L 1179.4299 205.736332 
L 1180.659341 207.166516 
L 1183.118225 207.275715 
L 1185.577108 210.203802 
L 1186.806549 210.210668 
L 1188.035991 209.960577 
L 1189.265433 211.160399 
L 1190.494874 212.756086 
L 1191.724316 209.969978 
L 1192.953757 211.304646 
L 1194.183199 215.456223 
L 1195.412641 215.625964 
L 1196.642082 212.680968 
L 1197.871524 213.609538 
L 1199.100965 217.630734 
L 1200.330407 217.479645 
L 1201.559849 213.865769 
L 1202.78929 214.217113 
L 1204.018732 217.672473 
L 1205.248173 216.630215 
L 1206.477615 212.294705 
L 1207.707057 212.463749 
L 1208.936498 215.75309 
L 1210.16594 321.387382 
L 1211.395381 262.475091 
L 1212.624823 139.937113 
L 1213.854265 186.105436 
L 1215.083706 310.849993 
L 1216.313148 277.173566 
L 1217.542589 162.579847 
L 1218.772031 201.266723 
L 1220.001473 319.773608 
L 1221.230914 287.402418 
L 1222.460356 175.249675 
L 1223.689797 209.661467 
L 1224.919239 316.023994 
L 1226.148681 274.568579 
L 1227.378122 168.373389 
L 1228.607564 208.722764 
L 1229.837005 303.108681 
L 1229.837005 303.108681 
" style="fill:none;stroke:#ff796c;stroke-linecap:square;stroke-width:1.5;"/>
   </g>
   <g id="line2d_42">
    <path clip-path="url(#pca43be974f)" d="M 943.377112 136.373484 
L 1040.502999 136.269516 
L 1063.862389 136.017222 
L 1087.22178 135.470554 
L 1099.516196 134.937051 
L 1114.269495 134.058496 
L 1125.334469 133.209392 
L 1136.399444 132.136094 
L 1149.923301 130.60682 
L 1159.758834 129.268518 
L 1169.594367 127.704547 
L 1181.888783 125.510141 
L 1194.183199 123.093637 
L 1204.018732 120.960981 
L 1208.936498 119.780201 
L 1210.16594 119.40224 
L 1213.854265 118.850245 
L 1215.083706 118.480644 
L 1218.772031 117.912852 
L 1220.001473 117.523232 
L 1223.689797 116.767758 
L 1224.919239 116.311702 
L 1228.607564 115.331054 
L 1229.837005 114.831354 
L 1229.837005 114.831354 
" style="fill:none;stroke:#ffff14;stroke-linecap:square;stroke-width:1.5;"/>
   </g>
   <g id="line2d_43">
    <path clip-path="url(#pca43be974f)" d="M 943.377112 136.373465 
L 1033.126349 136.265845 
L 1058.944623 136.002745 
L 1077.386247 135.601281 
L 1092.139546 135.078628 
L 1105.663404 134.388264 
L 1117.95782 133.544631 
L 1129.022794 132.58129 
L 1140.087768 131.404163 
L 1151.152743 129.999165 
L 1162.217717 128.358758 
L 1173.282692 126.482588 
L 1184.347666 124.37702 
L 1195.412641 122.05453 
L 1207.707057 119.242933 
L 1221.230914 115.909538 
L 1229.837005 113.679783 
L 1229.837005 113.679783 
" style="fill:none;stroke:#014d4e;stroke-linecap:square;stroke-width:1.5;"/>
   </g>
   <g id="patch_13">
    <path d="M 929.054118 332.6472 
L 929.054118 84.9312 
" style="fill:none;stroke:#000000;stroke-linecap:square;stroke-linejoin:miter;stroke-width:0.8;"/>
   </g>
   <g id="patch_14">
    <path d="M 1244.16 332.6472 
L 1244.16 84.9312 
" style="fill:none;stroke:#000000;stroke-linecap:square;stroke-linejoin:miter;stroke-width:0.8;"/>
   </g>
   <g id="patch_15">
    <path d="M 929.054118 332.6472 
L 1244.16 332.6472 
" style="fill:none;stroke:#000000;stroke-linecap:square;stroke-linejoin:miter;stroke-width:0.8;"/>
   </g>
   <g id="patch_16">
    <path d="M 929.054118 84.9312 
L 1244.16 84.9312 
" style="fill:none;stroke:#000000;stroke-linecap:square;stroke-linejoin:miter;stroke-width:0.8;"/>
   </g>
   <g id="text_37">
    <!-- Lateral joint 2 -->
    <g transform="translate(1044.941746 78.9312)scale(0.12 -0.12)">
     <use xlink:href="#DejaVuSans-76"/>
     <use x="55.712891" xlink:href="#DejaVuSans-97"/>
     <use x="116.992188" xlink:href="#DejaVuSans-116"/>
     <use x="156.201172" xlink:href="#DejaVuSans-101"/>
     <use x="217.724609" xlink:href="#DejaVuSans-114"/>
     <use x="258.837891" xlink:href="#DejaVuSans-97"/>
     <use x="320.117188" xlink:href="#DejaVuSans-108"/>
     <use x="347.900391" xlink:href="#DejaVuSans-32"/>
     <use x="379.6875" xlink:href="#DejaVuSans-106"/>
     <use x="407.470703" xlink:href="#DejaVuSans-111"/>
     <use x="468.652344" xlink:href="#DejaVuSans-105"/>
     <use x="496.435547" xlink:href="#DejaVuSans-110"/>
     <use x="559.814453" xlink:href="#DejaVuSans-116"/>
     <use x="599.023438" xlink:href="#DejaVuSans-32"/>
     <use x="630.810547" xlink:href="#DejaVuSans-50"/>
    </g>
   </g>
  </g>
  <g id="axes_4">
   <g id="patch_17">
    <path d="M 172.8 629.9064 
L 487.905882 629.9064 
L 487.905882 382.1904 
L 172.8 382.1904 
z
" style="fill:#ffffff;"/>
   </g>
   <g id="matplotlib.axis_7">
    <g id="xtick_16">
     <g id="line2d_44">
      <g>
       <use style="stroke:#000000;stroke-width:0.8;" x="187.122995" xlink:href="#m1c47c0af57" y="629.9064"/>
      </g>
     </g>
     <g id="text_38">
      <!-- 0 -->
      <g transform="translate(183.941745 644.504838)scale(0.1 -0.1)">
       <use xlink:href="#DejaVuSans-48"/>
      </g>
     </g>
    </g>
    <g id="xtick_17">
     <g id="line2d_45">
      <g>
       <use style="stroke:#000000;stroke-width:0.8;" x="248.595075" xlink:href="#m1c47c0af57" y="629.9064"/>
      </g>
     </g>
     <g id="text_39">
      <!-- 50 -->
      <g transform="translate(242.232575 644.504838)scale(0.1 -0.1)">
       <use xlink:href="#DejaVuSans-53"/>
       <use x="63.623047" xlink:href="#DejaVuSans-48"/>
      </g>
     </g>
    </g>
    <g id="xtick_18">
     <g id="line2d_46">
      <g>
       <use style="stroke:#000000;stroke-width:0.8;" x="310.067155" xlink:href="#m1c47c0af57" y="629.9064"/>
      </g>
     </g>
     <g id="text_40">
      <!-- 100 -->
      <g transform="translate(300.523405 644.504838)scale(0.1 -0.1)">
       <use xlink:href="#DejaVuSans-49"/>
       <use x="63.623047" xlink:href="#DejaVuSans-48"/>
       <use x="127.246094" xlink:href="#DejaVuSans-48"/>
      </g>
     </g>
    </g>
    <g id="xtick_19">
     <g id="line2d_47">
      <g>
       <use style="stroke:#000000;stroke-width:0.8;" x="371.539235" xlink:href="#m1c47c0af57" y="629.9064"/>
      </g>
     </g>
     <g id="text_41">
      <!-- 150 -->
      <g transform="translate(361.995485 644.504838)scale(0.1 -0.1)">
       <use xlink:href="#DejaVuSans-49"/>
       <use x="63.623047" xlink:href="#DejaVuSans-53"/>
       <use x="127.246094" xlink:href="#DejaVuSans-48"/>
      </g>
     </g>
    </g>
    <g id="xtick_20">
     <g id="line2d_48">
      <g>
       <use style="stroke:#000000;stroke-width:0.8;" x="433.011315" xlink:href="#m1c47c0af57" y="629.9064"/>
      </g>
     </g>
     <g id="text_42">
      <!-- 200 -->
      <g transform="translate(423.467565 644.504838)scale(0.1 -0.1)">
       <use xlink:href="#DejaVuSans-50"/>
       <use x="63.623047" xlink:href="#DejaVuSans-48"/>
       <use x="127.246094" xlink:href="#DejaVuSans-48"/>
      </g>
     </g>
    </g>
   </g>
   <g id="matplotlib.axis_8">
    <g id="ytick_20">
     <g id="line2d_49">
      <g>
       <use style="stroke:#000000;stroke-width:0.8;" x="172.8" xlink:href="#m66abdaa170" y="621.972981"/>
      </g>
     </g>
     <g id="text_43">
      <!-- −6 -->
      <defs>
       <path d="M 33.015625 40.375 
Q 26.375 40.375 22.484375 35.828125 
Q 18.609375 31.296875 18.609375 23.390625 
Q 18.609375 15.53125 22.484375 10.953125 
Q 26.375 6.390625 33.015625 6.390625 
Q 39.65625 6.390625 43.53125 10.953125 
Q 47.40625 15.53125 47.40625 23.390625 
Q 47.40625 31.296875 43.53125 35.828125 
Q 39.65625 40.375 33.015625 40.375 
z
M 52.59375 71.296875 
L 52.59375 62.3125 
Q 48.875 64.0625 45.09375 64.984375 
Q 41.3125 65.921875 37.59375 65.921875 
Q 27.828125 65.921875 22.671875 59.328125 
Q 17.53125 52.734375 16.796875 39.40625 
Q 19.671875 43.65625 24.015625 45.921875 
Q 28.375 48.1875 33.59375 48.1875 
Q 44.578125 48.1875 50.953125 41.515625 
Q 57.328125 34.859375 57.328125 23.390625 
Q 57.328125 12.15625 50.6875 5.359375 
Q 44.046875 -1.421875 33.015625 -1.421875 
Q 20.359375 -1.421875 13.671875 8.265625 
Q 6.984375 17.96875 6.984375 36.375 
Q 6.984375 53.65625 15.1875 63.9375 
Q 23.390625 74.21875 37.203125 74.21875 
Q 40.921875 74.21875 44.703125 73.484375 
Q 48.484375 72.75 52.59375 71.296875 
z
" id="DejaVuSans-54"/>
      </defs>
      <g transform="translate(151.057812 625.7722)scale(0.1 -0.1)">
       <use xlink:href="#DejaVuSans-8722"/>
       <use x="83.789062" xlink:href="#DejaVuSans-54"/>
      </g>
     </g>
    </g>
    <g id="ytick_21">
     <g id="line2d_50">
      <g>
       <use style="stroke:#000000;stroke-width:0.8;" x="172.8" xlink:href="#m66abdaa170" y="584.051644"/>
      </g>
     </g>
     <g id="text_44">
      <!-- −5 -->
      <g transform="translate(151.057812 587.850863)scale(0.1 -0.1)">
       <use xlink:href="#DejaVuSans-8722"/>
       <use x="83.789062" xlink:href="#DejaVuSans-53"/>
      </g>
     </g>
    </g>
    <g id="ytick_22">
     <g id="line2d_51">
      <g>
       <use style="stroke:#000000;stroke-width:0.8;" x="172.8" xlink:href="#m66abdaa170" y="546.130307"/>
      </g>
     </g>
     <g id="text_45">
      <!-- −4 -->
      <g transform="translate(151.057812 549.929526)scale(0.1 -0.1)">
       <use xlink:href="#DejaVuSans-8722"/>
       <use x="83.789062" xlink:href="#DejaVuSans-52"/>
      </g>
     </g>
    </g>
    <g id="ytick_23">
     <g id="line2d_52">
      <g>
       <use style="stroke:#000000;stroke-width:0.8;" x="172.8" xlink:href="#m66abdaa170" y="508.208971"/>
      </g>
     </g>
     <g id="text_46">
      <!-- −3 -->
      <g transform="translate(151.057812 512.008189)scale(0.1 -0.1)">
       <use xlink:href="#DejaVuSans-8722"/>
       <use x="83.789062" xlink:href="#DejaVuSans-51"/>
      </g>
     </g>
    </g>
    <g id="ytick_24">
     <g id="line2d_53">
      <g>
       <use style="stroke:#000000;stroke-width:0.8;" x="172.8" xlink:href="#m66abdaa170" y="470.287634"/>
      </g>
     </g>
     <g id="text_47">
      <!-- −2 -->
      <g transform="translate(151.057812 474.086852)scale(0.1 -0.1)">
       <use xlink:href="#DejaVuSans-8722"/>
       <use x="83.789062" xlink:href="#DejaVuSans-50"/>
      </g>
     </g>
    </g>
    <g id="ytick_25">
     <g id="line2d_54">
      <g>
       <use style="stroke:#000000;stroke-width:0.8;" x="172.8" xlink:href="#m66abdaa170" y="432.366297"/>
      </g>
     </g>
     <g id="text_48">
      <!-- −1 -->
      <g transform="translate(151.057812 436.165515)scale(0.1 -0.1)">
       <use xlink:href="#DejaVuSans-8722"/>
       <use x="83.789062" xlink:href="#DejaVuSans-49"/>
      </g>
     </g>
    </g>
    <g id="ytick_26">
     <g id="line2d_55">
      <g>
       <use style="stroke:#000000;stroke-width:0.8;" x="172.8" xlink:href="#m66abdaa170" y="394.44496"/>
      </g>
     </g>
     <g id="text_49">
      <!-- 0 -->
      <g transform="translate(159.4375 398.244178)scale(0.1 -0.1)">
       <use xlink:href="#DejaVuSans-48"/>
      </g>
     </g>
    </g>
   </g>
   <g id="line2d_56">
    <path clip-path="url(#p3c870f5ec8)" d="M 187.122995 394.358759 
L 188.352436 394.691209 
L 190.811319 395.936685 
L 192.040761 396.224843 
L 193.270203 396.173978 
L 196.958527 395.550455 
L 198.187969 395.611352 
L 199.417411 395.924771 
L 201.876294 396.949187 
L 203.105735 397.103611 
L 204.335177 396.749917 
L 206.79406 395.354462 
L 208.023502 394.950444 
L 209.252943 394.866139 
L 212.941268 395.153822 
L 214.17071 395.069326 
L 215.400151 394.733638 
L 217.859035 393.631092 
L 219.088476 393.450218 
L 220.317918 393.799891 
L 222.776801 395.264273 
L 224.006243 395.770029 
L 225.235684 396.022311 
L 228.924009 396.41885 
L 230.153451 396.759591 
L 231.382892 397.402698 
L 233.841775 399.26187 
L 235.071217 399.852104 
L 236.300659 399.9454 
L 238.759542 399.569879 
L 239.988983 399.685719 
L 241.218425 400.067686 
L 246.136192 402.043028 
L 247.365633 402.118755 
L 249.824516 401.837135 
L 251.053958 402.12973 
L 252.2834 402.938451 
L 254.742283 404.904764 
L 255.971724 405.489688 
L 258.430608 406.125089 
L 260.889491 406.74924 
L 262.118932 407.228652 
L 263.348374 407.966427 
L 264.577816 408.871566 
L 265.807257 409.603291 
L 267.036699 409.831933 
L 268.26614 409.567594 
L 269.495582 409.167206 
L 270.725024 409.005409 
L 271.954465 409.164311 
L 274.413348 409.708957 
L 276.872232 409.929344 
L 278.101673 409.820068 
L 280.560556 409.078941 
L 281.789998 408.97088 
L 283.01944 409.391674 
L 285.478323 410.933811 
L 286.707764 411.340095 
L 289.166648 411.610727 
L 290.396089 411.918908 
L 291.625531 412.382953 
L 292.854972 412.971943 
L 294.084414 413.744129 
L 296.543297 415.62067 
L 297.772739 416.173407 
L 299.00218 416.263587 
L 300.231622 416.205988 
L 301.461064 416.435818 
L 302.690505 417.093536 
L 305.149388 418.668551 
L 307.608272 419.61898 
L 310.067155 420.236618 
L 311.296596 420.442225 
L 312.526038 420.877542 
L 313.75548 421.787574 
L 316.214363 424.271309 
L 317.443804 425.117543 
L 319.902688 426.27808 
L 321.132129 427.152219 
L 323.591012 429.388552 
L 326.049896 431.941805 
L 327.279337 433.234546 
L 328.508779 434.197882 
L 329.73822 434.737164 
L 330.967662 435.142937 
L 332.197104 435.818541 
L 335.885428 438.756582 
L 338.344312 439.837899 
L 339.573753 440.280368 
L 340.803195 440.545782 
L 342.032636 440.674514 
L 343.262078 440.95438 
L 344.49152 441.661279 
L 345.720961 442.622733 
L 346.950403 443.41845 
L 348.179844 443.841578 
L 349.409286 444.137839 
L 350.638728 444.598676 
L 354.327052 446.5023 
L 355.556494 447.408579 
L 358.015377 449.828533 
L 359.244819 450.612418 
L 361.703702 451.672664 
L 366.621468 455.203788 
L 369.080352 457.480712 
L 370.309793 458.33473 
L 372.768676 459.30484 
L 373.998118 460.163052 
L 376.457001 462.144812 
L 377.686443 463.01667 
L 378.915884 464.215116 
L 380.145326 465.742687 
L 381.374768 467.006179 
L 383.833651 468.631732 
L 385.063092 470.030758 
L 386.292534 471.649459 
L 387.521976 472.945695 
L 388.751417 474.065526 
L 389.980859 475.622657 
L 391.2103 477.634563 
L 392.439742 479.405553 
L 394.898625 481.775455 
L 397.357508 485.171819 
L 398.58695 486.403645 
L 399.816392 487.353863 
L 401.045833 488.704627 
L 402.275275 490.484316 
L 403.504716 491.944735 
L 405.9636 493.703612 
L 408.422483 496.422967 
L 409.651924 497.111388 
L 410.881366 497.610473 
L 412.110808 498.668835 
L 413.340249 500.043232 
L 414.569691 500.940478 
L 415.799132 501.448287 
L 417.028574 502.39942 
L 418.258016 503.867361 
L 419.487457 505.000538 
L 420.716899 505.5516 
L 421.94634 506.348363 
L 424.405224 509.145595 
L 426.864107 510.684227 
L 429.32299 513.892238 
L 431.781873 515.756443 
L 434.240756 519.109913 
L 435.470198 518.776451 
L 436.69964 520.411305 
L 437.929081 523.381844 
L 439.158523 524.361442 
L 440.387964 523.769771 
L 441.617406 525.0281 
L 442.846848 527.757923 
L 444.076289 528.394962 
L 445.305731 527.270174 
L 446.535172 528.006293 
L 447.764614 530.159778 
L 448.994056 529.972773 
L 450.223497 528.012774 
L 451.452939 528.102117 
L 452.68238 529.558925 
L 453.911822 586.46426 
L 455.141264 563.185239 
L 456.370705 508.278564 
L 457.600147 534.641597 
L 458.829588 598.381757 
L 460.05903 584.213511 
L 461.288472 530.261181 
L 462.517913 551.072869 
L 463.747355 611.069259 
L 464.976796 597.701834 
L 466.206238 545.542499 
L 467.43568 564.823454 
L 468.665121 618.646582 
L 469.894563 599.102038 
L 471.124004 546.445897 
L 472.353446 563.836728 
L 473.582888 606.042544 
L 473.582888 606.042544 
" style="fill:none;stroke:#ff796c;stroke-linecap:square;stroke-width:1.5;"/>
   </g>
   <g id="line2d_57">
    <path clip-path="url(#p3c870f5ec8)" d="M 187.122995 426.81284 
L 228.924009 426.706341 
L 243.677308 426.665781 
L 257.201166 426.603975 
L 271.954465 426.527402 
L 289.166648 426.488782 
L 306.37883 426.392816 
L 321.132129 426.27134 
L 346.950403 425.975887 
L 360.47426 425.708103 
L 394.898625 424.688357 
L 409.651924 424.148926 
L 436.69964 423.128023 
L 450.223497 422.60086 
L 455.141264 422.445011 
L 466.206238 420.742132 
L 471.124004 420.782571 
L 473.582888 420.919745 
L 473.582888 420.919745 
" style="fill:none;stroke:#ffff14;stroke-linecap:square;stroke-width:1.5;"/>
   </g>
   <g id="line2d_58">
    <path clip-path="url(#p3c870f5ec8)" d="M 187.122995 426.812773 
L 326.049896 426.705052 
L 361.703702 426.44207 
L 388.751417 426.021994 
L 413.340249 425.413258 
L 436.69964 424.61589 
L 462.517913 423.508116 
L 473.582888 422.976349 
L 473.582888 422.976349 
" style="fill:none;stroke:#014d4e;stroke-linecap:square;stroke-width:1.5;"/>
   </g>
   <g id="patch_18">
    <path d="M 172.8 629.9064 
L 172.8 382.1904 
" style="fill:none;stroke:#000000;stroke-linecap:square;stroke-linejoin:miter;stroke-width:0.8;"/>
   </g>
   <g id="patch_19">
    <path d="M 487.905882 629.9064 
L 487.905882 382.1904 
" style="fill:none;stroke:#000000;stroke-linecap:square;stroke-linejoin:miter;stroke-width:0.8;"/>
   </g>
   <g id="patch_20">
    <path d="M 172.8 629.9064 
L 487.905882 629.9064 
" style="fill:none;stroke:#000000;stroke-linecap:square;stroke-linejoin:miter;stroke-width:0.8;"/>
   </g>
   <g id="patch_21">
    <path d="M 172.8 382.1904 
L 487.905882 382.1904 
" style="fill:none;stroke:#000000;stroke-linecap:square;stroke-linejoin:miter;stroke-width:0.8;"/>
   </g>
   <g id="text_50">
    <!-- Lateral joint 3 -->
    <g transform="translate(288.687629 376.1904)scale(0.12 -0.12)">
     <use xlink:href="#DejaVuSans-76"/>
     <use x="55.712891" xlink:href="#DejaVuSans-97"/>
     <use x="116.992188" xlink:href="#DejaVuSans-116"/>
     <use x="156.201172" xlink:href="#DejaVuSans-101"/>
     <use x="217.724609" xlink:href="#DejaVuSans-114"/>
     <use x="258.837891" xlink:href="#DejaVuSans-97"/>
     <use x="320.117188" xlink:href="#DejaVuSans-108"/>
     <use x="347.900391" xlink:href="#DejaVuSans-32"/>
     <use x="379.6875" xlink:href="#DejaVuSans-106"/>
     <use x="407.470703" xlink:href="#DejaVuSans-111"/>
     <use x="468.652344" xlink:href="#DejaVuSans-105"/>
     <use x="496.435547" xlink:href="#DejaVuSans-110"/>
     <use x="559.814453" xlink:href="#DejaVuSans-116"/>
     <use x="599.023438" xlink:href="#DejaVuSans-32"/>
     <use x="630.810547" xlink:href="#DejaVuSans-51"/>
    </g>
   </g>
  </g>
  <g id="axes_5">
   <g id="patch_22">
    <path d="M 550.927059 629.9064 
L 866.032941 629.9064 
L 866.032941 382.1904 
L 550.927059 382.1904 
z
" style="fill:#ffffff;"/>
   </g>
   <g id="matplotlib.axis_9">
    <g id="xtick_21">
     <g id="line2d_59">
      <g>
       <use style="stroke:#000000;stroke-width:0.8;" x="565.250053" xlink:href="#m1c47c0af57" y="629.9064"/>
      </g>
     </g>
     <g id="text_51">
      <!-- 0 -->
      <g transform="translate(562.068803 644.504838)scale(0.1 -0.1)">
       <use xlink:href="#DejaVuSans-48"/>
      </g>
     </g>
    </g>
    <g id="xtick_22">
     <g id="line2d_60">
      <g>
       <use style="stroke:#000000;stroke-width:0.8;" x="626.722134" xlink:href="#m1c47c0af57" y="629.9064"/>
      </g>
     </g>
     <g id="text_52">
      <!-- 50 -->
      <g transform="translate(620.359634 644.504838)scale(0.1 -0.1)">
       <use xlink:href="#DejaVuSans-53"/>
       <use x="63.623047" xlink:href="#DejaVuSans-48"/>
      </g>
     </g>
    </g>
    <g id="xtick_23">
     <g id="line2d_61">
      <g>
       <use style="stroke:#000000;stroke-width:0.8;" x="688.194214" xlink:href="#m1c47c0af57" y="629.9064"/>
      </g>
     </g>
     <g id="text_53">
      <!-- 100 -->
      <g transform="translate(678.650464 644.504838)scale(0.1 -0.1)">
       <use xlink:href="#DejaVuSans-49"/>
       <use x="63.623047" xlink:href="#DejaVuSans-48"/>
       <use x="127.246094" xlink:href="#DejaVuSans-48"/>
      </g>
     </g>
    </g>
    <g id="xtick_24">
     <g id="line2d_62">
      <g>
       <use style="stroke:#000000;stroke-width:0.8;" x="749.666294" xlink:href="#m1c47c0af57" y="629.9064"/>
      </g>
     </g>
     <g id="text_54">
      <!-- 150 -->
      <g transform="translate(740.122544 644.504838)scale(0.1 -0.1)">
       <use xlink:href="#DejaVuSans-49"/>
       <use x="63.623047" xlink:href="#DejaVuSans-53"/>
       <use x="127.246094" xlink:href="#DejaVuSans-48"/>
      </g>
     </g>
    </g>
    <g id="xtick_25">
     <g id="line2d_63">
      <g>
       <use style="stroke:#000000;stroke-width:0.8;" x="811.138374" xlink:href="#m1c47c0af57" y="629.9064"/>
      </g>
     </g>
     <g id="text_55">
      <!-- 200 -->
      <g transform="translate(801.594624 644.504838)scale(0.1 -0.1)">
       <use xlink:href="#DejaVuSans-50"/>
       <use x="63.623047" xlink:href="#DejaVuSans-48"/>
       <use x="127.246094" xlink:href="#DejaVuSans-48"/>
      </g>
     </g>
    </g>
   </g>
   <g id="matplotlib.axis_10">
    <g id="ytick_27">
     <g id="line2d_64">
      <g>
       <use style="stroke:#000000;stroke-width:0.8;" x="550.927059" xlink:href="#m66abdaa170" y="619.988164"/>
      </g>
     </g>
     <g id="text_56">
      <!-- −4.0 -->
      <g transform="translate(519.644246 623.787382)scale(0.1 -0.1)">
       <use xlink:href="#DejaVuSans-8722"/>
       <use x="83.789062" xlink:href="#DejaVuSans-52"/>
       <use x="147.412109" xlink:href="#DejaVuSans-46"/>
       <use x="179.199219" xlink:href="#DejaVuSans-48"/>
      </g>
     </g>
    </g>
    <g id="ytick_28">
     <g id="line2d_65">
      <g>
       <use style="stroke:#000000;stroke-width:0.8;" x="550.927059" xlink:href="#m66abdaa170" y="591.891455"/>
      </g>
     </g>
     <g id="text_57">
      <!-- −3.5 -->
      <g transform="translate(519.644246 595.690674)scale(0.1 -0.1)">
       <use xlink:href="#DejaVuSans-8722"/>
       <use x="83.789062" xlink:href="#DejaVuSans-51"/>
       <use x="147.412109" xlink:href="#DejaVuSans-46"/>
       <use x="179.199219" xlink:href="#DejaVuSans-53"/>
      </g>
     </g>
    </g>
    <g id="ytick_29">
     <g id="line2d_66">
      <g>
       <use style="stroke:#000000;stroke-width:0.8;" x="550.927059" xlink:href="#m66abdaa170" y="563.794747"/>
      </g>
     </g>
     <g id="text_58">
      <!-- −3.0 -->
      <g transform="translate(519.644246 567.593966)scale(0.1 -0.1)">
       <use xlink:href="#DejaVuSans-8722"/>
       <use x="83.789062" xlink:href="#DejaVuSans-51"/>
       <use x="147.412109" xlink:href="#DejaVuSans-46"/>
       <use x="179.199219" xlink:href="#DejaVuSans-48"/>
      </g>
     </g>
    </g>
    <g id="ytick_30">
     <g id="line2d_67">
      <g>
       <use style="stroke:#000000;stroke-width:0.8;" x="550.927059" xlink:href="#m66abdaa170" y="535.698038"/>
      </g>
     </g>
     <g id="text_59">
      <!-- −2.5 -->
      <g transform="translate(519.644246 539.497257)scale(0.1 -0.1)">
       <use xlink:href="#DejaVuSans-8722"/>
       <use x="83.789062" xlink:href="#DejaVuSans-50"/>
       <use x="147.412109" xlink:href="#DejaVuSans-46"/>
       <use x="179.199219" xlink:href="#DejaVuSans-53"/>
      </g>
     </g>
    </g>
    <g id="ytick_31">
     <g id="line2d_68">
      <g>
       <use style="stroke:#000000;stroke-width:0.8;" x="550.927059" xlink:href="#m66abdaa170" y="507.60133"/>
      </g>
     </g>
     <g id="text_60">
      <!-- −2.0 -->
      <g transform="translate(519.644246 511.400549)scale(0.1 -0.1)">
       <use xlink:href="#DejaVuSans-8722"/>
       <use x="83.789062" xlink:href="#DejaVuSans-50"/>
       <use x="147.412109" xlink:href="#DejaVuSans-46"/>
       <use x="179.199219" xlink:href="#DejaVuSans-48"/>
      </g>
     </g>
    </g>
    <g id="ytick_32">
     <g id="line2d_69">
      <g>
       <use style="stroke:#000000;stroke-width:0.8;" x="550.927059" xlink:href="#m66abdaa170" y="479.504622"/>
      </g>
     </g>
     <g id="text_61">
      <!-- −1.5 -->
      <g transform="translate(519.644246 483.303841)scale(0.1 -0.1)">
       <use xlink:href="#DejaVuSans-8722"/>
       <use x="83.789062" xlink:href="#DejaVuSans-49"/>
       <use x="147.412109" xlink:href="#DejaVuSans-46"/>
       <use x="179.199219" xlink:href="#DejaVuSans-53"/>
      </g>
     </g>
    </g>
    <g id="ytick_33">
     <g id="line2d_70">
      <g>
       <use style="stroke:#000000;stroke-width:0.8;" x="550.927059" xlink:href="#m66abdaa170" y="451.407913"/>
      </g>
     </g>
     <g id="text_62">
      <!-- −1.0 -->
      <g transform="translate(519.644246 455.207132)scale(0.1 -0.1)">
       <use xlink:href="#DejaVuSans-8722"/>
       <use x="83.789062" xlink:href="#DejaVuSans-49"/>
       <use x="147.412109" xlink:href="#DejaVuSans-46"/>
       <use x="179.199219" xlink:href="#DejaVuSans-48"/>
      </g>
     </g>
    </g>
    <g id="ytick_34">
     <g id="line2d_71">
      <g>
       <use style="stroke:#000000;stroke-width:0.8;" x="550.927059" xlink:href="#m66abdaa170" y="423.311205"/>
      </g>
     </g>
     <g id="text_63">
      <!-- −0.5 -->
      <g transform="translate(519.644246 427.110424)scale(0.1 -0.1)">
       <use xlink:href="#DejaVuSans-8722"/>
       <use x="83.789062" xlink:href="#DejaVuSans-48"/>
       <use x="147.412109" xlink:href="#DejaVuSans-46"/>
       <use x="179.199219" xlink:href="#DejaVuSans-53"/>
      </g>
     </g>
    </g>
    <g id="ytick_35">
     <g id="line2d_72">
      <g>
       <use style="stroke:#000000;stroke-width:0.8;" x="550.927059" xlink:href="#m66abdaa170" y="395.214497"/>
      </g>
     </g>
     <g id="text_64">
      <!-- 0.0 -->
      <g transform="translate(528.023934 399.013716)scale(0.1 -0.1)">
       <use xlink:href="#DejaVuSans-48"/>
       <use x="63.623047" xlink:href="#DejaVuSans-46"/>
       <use x="95.410156" xlink:href="#DejaVuSans-48"/>
      </g>
     </g>
    </g>
   </g>
   <g id="line2d_73">
    <path clip-path="url(#p3323283909)" d="M 565.250053 395.065786 
L 566.479495 395.656241 
L 568.938378 397.79741 
L 570.16782 398.287905 
L 571.397261 398.044107 
L 572.626703 397.250327 
L 573.856145 396.318604 
L 575.085586 395.686629 
L 576.315028 395.661131 
L 577.544469 396.27237 
L 580.003353 398.097715 
L 581.232794 398.323204 
L 582.462236 397.737187 
L 584.921119 395.403459 
L 586.150561 394.698917 
L 587.380002 394.690033 
L 588.609444 395.243965 
L 589.838885 395.98882 
L 591.068327 396.510034 
L 592.297769 396.489293 
L 593.52721 395.836494 
L 595.986094 393.814659 
L 597.215535 393.450218 
L 598.444977 393.901348 
L 600.90386 396.096676 
L 602.133302 396.829464 
L 603.362743 396.934647 
L 604.592185 396.522817 
L 605.821626 395.926466 
L 607.051068 395.556297 
L 608.28051 395.747313 
L 609.509951 396.613301 
L 611.968834 399.202325 
L 613.198276 399.908286 
L 614.427718 399.844058 
L 616.886601 398.651344 
L 618.116042 398.524438 
L 619.345484 399.052813 
L 620.574926 400.097629 
L 621.804367 401.311423 
L 623.033809 402.285086 
L 624.26325 402.696878 
L 625.492692 402.471685 
L 626.722134 401.881563 
L 627.951575 401.436266 
L 629.181017 401.630971 
L 630.410458 402.590379 
L 632.869342 405.224116 
L 634.098783 405.913239 
L 635.328225 405.96971 
L 637.787108 405.253219 
L 639.01655 405.214929 
L 640.245991 405.743553 
L 641.475433 406.810855 
L 642.704874 408.064446 
L 643.934316 408.964032 
L 645.163758 409.114423 
L 646.393199 408.561143 
L 647.622641 407.769159 
L 648.852082 407.297412 
L 650.081524 407.436466 
L 651.310966 408.090034 
L 652.540407 408.916652 
L 653.769849 409.540434 
L 654.99929 409.687799 
L 656.228732 409.27173 
L 658.687615 407.719434 
L 659.917057 407.511496 
L 661.146498 408.058364 
L 663.605382 410.100209 
L 664.834823 410.577252 
L 666.064265 410.463553 
L 668.523148 409.747177 
L 669.75259 409.86189 
L 670.982031 410.521382 
L 672.211473 411.650284 
L 673.440914 412.95304 
L 674.670356 413.984457 
L 675.899798 414.395052 
L 677.129239 414.189733 
L 678.358681 413.821853 
L 679.588122 413.859216 
L 680.817564 414.572357 
L 683.276447 417.053427 
L 684.505889 418.014321 
L 685.73533 418.505531 
L 686.964772 418.571138 
L 688.194214 418.422433 
L 689.423655 418.417941 
L 690.653097 418.939637 
L 691.882538 420.131065 
L 694.341422 423.168455 
L 695.570863 424.075414 
L 696.800305 424.443895 
L 698.029746 424.639966 
L 699.259188 425.074552 
L 700.48863 425.961781 
L 701.718071 427.284897 
L 704.176954 430.514623 
L 705.406396 431.818587 
L 706.635838 432.547123 
L 709.094721 432.882741 
L 710.324162 433.384641 
L 711.553604 434.426193 
L 714.012487 436.970032 
L 715.241929 437.818227 
L 716.47137 438.259183 
L 717.700812 438.356489 
L 720.159695 438.207187 
L 721.389137 438.543799 
L 722.618578 439.444032 
L 723.84802 440.641916 
L 725.077462 441.668259 
L 726.306903 442.20112 
L 729.995228 442.57729 
L 731.22467 442.964173 
L 732.454111 443.678286 
L 733.683553 444.773583 
L 736.142436 447.289812 
L 737.371878 447.926924 
L 739.830761 448.208554 
L 741.060202 448.595348 
L 742.289644 449.295583 
L 743.519086 450.220836 
L 744.748527 451.37459 
L 747.20741 453.965253 
L 748.436852 454.785973 
L 750.895735 455.489193 
L 752.125177 456.13295 
L 753.354618 457.127702 
L 754.58406 458.306437 
L 755.813502 459.650137 
L 758.272385 462.979342 
L 759.501826 464.299799 
L 760.731268 465.087534 
L 761.96071 465.737931 
L 763.190151 466.753147 
L 766.878476 470.480673 
L 768.107918 472.174645 
L 769.337359 474.196934 
L 770.566801 475.978974 
L 771.796242 477.228376 
L 773.025684 478.303728 
L 776.714009 482.04512 
L 777.94345 483.101484 
L 779.172892 484.603505 
L 781.631775 488.278242 
L 785.3201 492.051422 
L 786.549542 493.171146 
L 787.778983 493.726066 
L 789.008425 494.112851 
L 790.237866 494.942549 
L 791.467308 496.102703 
L 792.69675 497.049172 
L 793.926191 497.823348 
L 795.155633 498.971537 
L 796.385074 500.485245 
L 797.614516 501.695648 
L 800.073399 503.178667 
L 802.532282 505.574071 
L 803.761724 506.377786 
L 804.991166 507.386475 
L 806.220607 509.08894 
L 807.450049 510.982071 
L 809.908932 513.857885 
L 812.367815 517.58103 
L 813.597257 517.996281 
L 814.826698 519.723967 
L 816.05614 522.261678 
L 817.285582 523.145904 
L 818.515023 522.734859 
L 819.744465 523.662661 
L 820.973906 525.719289 
L 822.203348 526.278205 
L 823.43279 525.613219 
L 824.662231 526.455178 
L 825.891673 528.440874 
L 827.121115 528.675586 
L 828.350556 527.530965 
L 829.579998 527.862483 
L 830.809439 529.133892 
L 832.038881 582.289117 
L 833.268323 574.195321 
L 834.497764 539.077234 
L 835.727206 559.996838 
L 836.956647 604.793653 
L 838.186089 588.960918 
L 839.415531 542.48247 
L 840.644972 552.699914 
L 841.874414 594.738857 
L 843.103855 585.348649 
L 844.333297 550.225058 
L 845.562739 571.057783 
L 846.79218 618.646582 
L 848.021622 610.084466 
L 849.251063 573.871832 
L 850.480505 586.713782 
L 851.709947 614.419278 
L 851.709947 614.419278 
" style="fill:none;stroke:#ff796c;stroke-linecap:square;stroke-width:1.5;"/>
   </g>
   <g id="line2d_74">
    <path clip-path="url(#p3323283909)" d="M 565.250053 424.855892 
L 575.085586 424.949883 
L 593.52721 425.114316 
L 624.26325 425.419659 
L 636.557666 425.559313 
L 648.852082 425.725073 
L 667.293706 425.902869 
L 677.129239 426.007122 
L 690.653097 425.937163 
L 702.947513 425.976636 
L 728.765786 426.242743 
L 753.354618 426.793697 
L 766.878476 426.946836 
L 780.402334 427.076313 
L 792.69675 426.823258 
L 802.532282 426.371435 
L 811.138374 425.767628 
L 827.121115 424.461449 
L 833.268323 423.787595 
L 835.727206 423.828848 
L 838.186089 424.180717 
L 840.644972 424.653921 
L 843.103855 424.922184 
L 845.562739 424.917464 
L 849.251063 424.712004 
L 851.709947 424.72961 
L 851.709947 424.72961 
" style="fill:none;stroke:#ffff14;stroke-linecap:square;stroke-width:1.5;"/>
   </g>
   <g id="line2d_75">
    <path clip-path="url(#p3323283909)" d="M 565.250053 424.855846 
L 809.908932 424.747308 
L 851.709947 424.589501 
L 851.709947 424.589501 
" style="fill:none;stroke:#014d4e;stroke-linecap:square;stroke-width:1.5;"/>
   </g>
   <g id="patch_23">
    <path d="M 550.927059 629.9064 
L 550.927059 382.1904 
" style="fill:none;stroke:#000000;stroke-linecap:square;stroke-linejoin:miter;stroke-width:0.8;"/>
   </g>
   <g id="patch_24">
    <path d="M 866.032941 629.9064 
L 866.032941 382.1904 
" style="fill:none;stroke:#000000;stroke-linecap:square;stroke-linejoin:miter;stroke-width:0.8;"/>
   </g>
   <g id="patch_25">
    <path d="M 550.927059 629.9064 
L 866.032941 629.9064 
" style="fill:none;stroke:#000000;stroke-linecap:square;stroke-linejoin:miter;stroke-width:0.8;"/>
   </g>
   <g id="patch_26">
    <path d="M 550.927059 382.1904 
L 866.032941 382.1904 
" style="fill:none;stroke:#000000;stroke-linecap:square;stroke-linejoin:miter;stroke-width:0.8;"/>
   </g>
   <g id="text_65">
    <!-- Lateral joint 4 -->
    <g transform="translate(666.814687 376.1904)scale(0.12 -0.12)">
     <use xlink:href="#DejaVuSans-76"/>
     <use x="55.712891" xlink:href="#DejaVuSans-97"/>
     <use x="116.992188" xlink:href="#DejaVuSans-116"/>
     <use x="156.201172" xlink:href="#DejaVuSans-101"/>
     <use x="217.724609" xlink:href="#DejaVuSans-114"/>
     <use x="258.837891" xlink:href="#DejaVuSans-97"/>
     <use x="320.117188" xlink:href="#DejaVuSans-108"/>
     <use x="347.900391" xlink:href="#DejaVuSans-32"/>
     <use x="379.6875" xlink:href="#DejaVuSans-106"/>
     <use x="407.470703" xlink:href="#DejaVuSans-111"/>
     <use x="468.652344" xlink:href="#DejaVuSans-105"/>
     <use x="496.435547" xlink:href="#DejaVuSans-110"/>
     <use x="559.814453" xlink:href="#DejaVuSans-116"/>
     <use x="599.023438" xlink:href="#DejaVuSans-32"/>
     <use x="630.810547" xlink:href="#DejaVuSans-52"/>
    </g>
   </g>
  </g>
  <g id="axes_6">
   <g id="patch_27">
    <path d="M 929.054118 629.9064 
L 1244.16 629.9064 
L 1244.16 382.1904 
L 929.054118 382.1904 
z
" style="fill:#ffffff;"/>
   </g>
   <g id="matplotlib.axis_11">
    <g id="xtick_26">
     <g id="line2d_76">
      <g>
       <use style="stroke:#000000;stroke-width:0.8;" x="929.054118" xlink:href="#m1c47c0af57" y="629.9064"/>
      </g>
     </g>
     <g id="text_66">
      <!-- 0.0 -->
      <g transform="translate(921.102555 644.504838)scale(0.1 -0.1)">
       <use xlink:href="#DejaVuSans-48"/>
       <use x="63.623047" xlink:href="#DejaVuSans-46"/>
       <use x="95.410156" xlink:href="#DejaVuSans-48"/>
      </g>
     </g>
    </g>
    <g id="xtick_27">
     <g id="line2d_77">
      <g>
       <use style="stroke:#000000;stroke-width:0.8;" x="992.075294" xlink:href="#m1c47c0af57" y="629.9064"/>
      </g>
     </g>
     <g id="text_67">
      <!-- 0.2 -->
      <g transform="translate(984.123732 644.504838)scale(0.1 -0.1)">
       <use xlink:href="#DejaVuSans-48"/>
       <use x="63.623047" xlink:href="#DejaVuSans-46"/>
       <use x="95.410156" xlink:href="#DejaVuSans-50"/>
      </g>
     </g>
    </g>
    <g id="xtick_28">
     <g id="line2d_78">
      <g>
       <use style="stroke:#000000;stroke-width:0.8;" x="1055.096471" xlink:href="#m1c47c0af57" y="629.9064"/>
      </g>
     </g>
     <g id="text_68">
      <!-- 0.4 -->
      <g transform="translate(1047.144908 644.504838)scale(0.1 -0.1)">
       <use xlink:href="#DejaVuSans-48"/>
       <use x="63.623047" xlink:href="#DejaVuSans-46"/>
       <use x="95.410156" xlink:href="#DejaVuSans-52"/>
      </g>
     </g>
    </g>
    <g id="xtick_29">
     <g id="line2d_79">
      <g>
       <use style="stroke:#000000;stroke-width:0.8;" x="1118.117647" xlink:href="#m1c47c0af57" y="629.9064"/>
      </g>
     </g>
     <g id="text_69">
      <!-- 0.6 -->
      <g transform="translate(1110.166085 644.504838)scale(0.1 -0.1)">
       <use xlink:href="#DejaVuSans-48"/>
       <use x="63.623047" xlink:href="#DejaVuSans-46"/>
       <use x="95.410156" xlink:href="#DejaVuSans-54"/>
      </g>
     </g>
    </g>
    <g id="xtick_30">
     <g id="line2d_80">
      <g>
       <use style="stroke:#000000;stroke-width:0.8;" x="1181.138824" xlink:href="#m1c47c0af57" y="629.9064"/>
      </g>
     </g>
     <g id="text_70">
      <!-- 0.8 -->
      <defs>
       <path d="M 31.78125 34.625 
Q 24.75 34.625 20.71875 30.859375 
Q 16.703125 27.09375 16.703125 20.515625 
Q 16.703125 13.921875 20.71875 10.15625 
Q 24.75 6.390625 31.78125 6.390625 
Q 38.8125 6.390625 42.859375 10.171875 
Q 46.921875 13.96875 46.921875 20.515625 
Q 46.921875 27.09375 42.890625 30.859375 
Q 38.875 34.625 31.78125 34.625 
z
M 21.921875 38.8125 
Q 15.578125 40.375 12.03125 44.71875 
Q 8.5 49.078125 8.5 55.328125 
Q 8.5 64.0625 14.71875 69.140625 
Q 20.953125 74.21875 31.78125 74.21875 
Q 42.671875 74.21875 48.875 69.140625 
Q 55.078125 64.0625 55.078125 55.328125 
Q 55.078125 49.078125 51.53125 44.71875 
Q 48 40.375 41.703125 38.8125 
Q 48.828125 37.15625 52.796875 32.3125 
Q 56.78125 27.484375 56.78125 20.515625 
Q 56.78125 9.90625 50.3125 4.234375 
Q 43.84375 -1.421875 31.78125 -1.421875 
Q 19.734375 -1.421875 13.25 4.234375 
Q 6.78125 9.90625 6.78125 20.515625 
Q 6.78125 27.484375 10.78125 32.3125 
Q 14.796875 37.15625 21.921875 38.8125 
z
M 18.3125 54.390625 
Q 18.3125 48.734375 21.84375 45.5625 
Q 25.390625 42.390625 31.78125 42.390625 
Q 38.140625 42.390625 41.71875 45.5625 
Q 45.3125 48.734375 45.3125 54.390625 
Q 45.3125 60.0625 41.71875 63.234375 
Q 38.140625 66.40625 31.78125 66.40625 
Q 25.390625 66.40625 21.84375 63.234375 
Q 18.3125 60.0625 18.3125 54.390625 
z
" id="DejaVuSans-56"/>
      </defs>
      <g transform="translate(1173.187261 644.504838)scale(0.1 -0.1)">
       <use xlink:href="#DejaVuSans-48"/>
       <use x="63.623047" xlink:href="#DejaVuSans-46"/>
       <use x="95.410156" xlink:href="#DejaVuSans-56"/>
      </g>
     </g>
    </g>
    <g id="xtick_31">
     <g id="line2d_81">
      <g>
       <use style="stroke:#000000;stroke-width:0.8;" x="1244.16" xlink:href="#m1c47c0af57" y="629.9064"/>
      </g>
     </g>
     <g id="text_71">
      <!-- 1.0 -->
      <g transform="translate(1236.208438 644.504838)scale(0.1 -0.1)">
       <use xlink:href="#DejaVuSans-49"/>
       <use x="63.623047" xlink:href="#DejaVuSans-46"/>
       <use x="95.410156" xlink:href="#DejaVuSans-48"/>
      </g>
     </g>
    </g>
   </g>
   <g id="matplotlib.axis_12">
    <g id="ytick_36">
     <g id="line2d_82">
      <g>
       <use style="stroke:#000000;stroke-width:0.8;" x="929.054118" xlink:href="#m66abdaa170" y="629.9064"/>
      </g>
     </g>
     <g id="text_72">
      <!-- 0.0 -->
      <g transform="translate(906.150993 633.705619)scale(0.1 -0.1)">
       <use xlink:href="#DejaVuSans-48"/>
       <use x="63.623047" xlink:href="#DejaVuSans-46"/>
       <use x="95.410156" xlink:href="#DejaVuSans-48"/>
      </g>
     </g>
    </g>
    <g id="ytick_37">
     <g id="line2d_83">
      <g>
       <use style="stroke:#000000;stroke-width:0.8;" x="929.054118" xlink:href="#m66abdaa170" y="580.3632"/>
      </g>
     </g>
     <g id="text_73">
      <!-- 0.2 -->
      <g transform="translate(906.150993 584.162419)scale(0.1 -0.1)">
       <use xlink:href="#DejaVuSans-48"/>
       <use x="63.623047" xlink:href="#DejaVuSans-46"/>
       <use x="95.410156" xlink:href="#DejaVuSans-50"/>
      </g>
     </g>
    </g>
    <g id="ytick_38">
     <g id="line2d_84">
      <g>
       <use style="stroke:#000000;stroke-width:0.8;" x="929.054118" xlink:href="#m66abdaa170" y="530.82"/>
      </g>
     </g>
     <g id="text_74">
      <!-- 0.4 -->
      <g transform="translate(906.150993 534.619219)scale(0.1 -0.1)">
       <use xlink:href="#DejaVuSans-48"/>
       <use x="63.623047" xlink:href="#DejaVuSans-46"/>
       <use x="95.410156" xlink:href="#DejaVuSans-52"/>
      </g>
     </g>
    </g>
    <g id="ytick_39">
     <g id="line2d_85">
      <g>
       <use style="stroke:#000000;stroke-width:0.8;" x="929.054118" xlink:href="#m66abdaa170" y="481.2768"/>
      </g>
     </g>
     <g id="text_75">
      <!-- 0.6 -->
      <g transform="translate(906.150993 485.076019)scale(0.1 -0.1)">
       <use xlink:href="#DejaVuSans-48"/>
       <use x="63.623047" xlink:href="#DejaVuSans-46"/>
       <use x="95.410156" xlink:href="#DejaVuSans-54"/>
      </g>
     </g>
    </g>
    <g id="ytick_40">
     <g id="line2d_86">
      <g>
       <use style="stroke:#000000;stroke-width:0.8;" x="929.054118" xlink:href="#m66abdaa170" y="431.7336"/>
      </g>
     </g>
     <g id="text_76">
      <!-- 0.8 -->
      <g transform="translate(906.150993 435.532819)scale(0.1 -0.1)">
       <use xlink:href="#DejaVuSans-48"/>
       <use x="63.623047" xlink:href="#DejaVuSans-46"/>
       <use x="95.410156" xlink:href="#DejaVuSans-56"/>
      </g>
     </g>
    </g>
    <g id="ytick_41">
     <g id="line2d_87">
      <g>
       <use style="stroke:#000000;stroke-width:0.8;" x="929.054118" xlink:href="#m66abdaa170" y="382.1904"/>
      </g>
     </g>
     <g id="text_77">
      <!-- 1.0 -->
      <g transform="translate(906.150993 385.989619)scale(0.1 -0.1)">
       <use xlink:href="#DejaVuSans-49"/>
       <use x="63.623047" xlink:href="#DejaVuSans-46"/>
       <use x="95.410156" xlink:href="#DejaVuSans-48"/>
      </g>
     </g>
    </g>
   </g>
   <g id="patch_28">
    <path d="M 929.054118 629.9064 
L 929.054118 382.1904 
" style="fill:none;stroke:#000000;stroke-linecap:square;stroke-linejoin:miter;stroke-width:0.8;"/>
   </g>
   <g id="patch_29">
    <path d="M 1244.16 629.9064 
L 1244.16 382.1904 
" style="fill:none;stroke:#000000;stroke-linecap:square;stroke-linejoin:miter;stroke-width:0.8;"/>
   </g>
   <g id="patch_30">
    <path d="M 929.054118 629.9064 
L 1244.16 629.9064 
" style="fill:none;stroke:#000000;stroke-linecap:square;stroke-linejoin:miter;stroke-width:0.8;"/>
   </g>
   <g id="patch_31">
    <path d="M 929.054118 382.1904 
L 1244.16 382.1904 
" style="fill:none;stroke:#000000;stroke-linecap:square;stroke-linejoin:miter;stroke-width:0.8;"/>
   </g>
  </g>
  <g id="legend_1">
   <g id="patch_32">
    <path d="M 1308.251562 377.53625 
L 1375.4 377.53625 
Q 1377.4 377.53625 1377.4 375.53625 
L 1377.4 332.22375 
Q 1377.4 330.22375 1375.4 330.22375 
L 1308.251562 330.22375 
Q 1306.251562 330.22375 1306.251562 332.22375 
L 1306.251562 375.53625 
Q 1306.251562 377.53625 1308.251562 377.53625 
z
" style="fill:#ffffff;opacity:0.8;stroke:#cccccc;stroke-linejoin:miter;"/>
   </g>
   <g id="line2d_88">
    <path d="M 1310.251562 338.322187 
L 1330.251562 338.322187 
" style="fill:none;stroke:#ff796c;stroke-linecap:square;stroke-width:1.5;"/>
   </g>
   <g id="line2d_89"/>
   <g id="text_78">
    <!-- Torque -->
    <defs>
     <path d="M -0.296875 72.90625 
L 61.375 72.90625 
L 61.375 64.59375 
L 35.5 64.59375 
L 35.5 0 
L 25.59375 0 
L 25.59375 64.59375 
L -0.296875 64.59375 
z
" id="DejaVuSans-84"/>
     <path d="M 14.796875 27.296875 
Q 14.796875 17.390625 18.875 11.75 
Q 22.953125 6.109375 30.078125 6.109375 
Q 37.203125 6.109375 41.296875 11.75 
Q 45.40625 17.390625 45.40625 27.296875 
Q 45.40625 37.203125 41.296875 42.84375 
Q 37.203125 48.484375 30.078125 48.484375 
Q 22.953125 48.484375 18.875 42.84375 
Q 14.796875 37.203125 14.796875 27.296875 
z
M 45.40625 8.203125 
Q 42.578125 3.328125 38.25 0.953125 
Q 33.9375 -1.421875 27.875 -1.421875 
Q 17.96875 -1.421875 11.734375 6.484375 
Q 5.515625 14.40625 5.515625 27.296875 
Q 5.515625 40.1875 11.734375 48.09375 
Q 17.96875 56 27.875 56 
Q 33.9375 56 38.25 53.625 
Q 42.578125 51.265625 45.40625 46.390625 
L 45.40625 54.6875 
L 54.390625 54.6875 
L 54.390625 -20.796875 
L 45.40625 -20.796875 
z
" id="DejaVuSans-113"/>
     <path d="M 8.5 21.578125 
L 8.5 54.6875 
L 17.484375 54.6875 
L 17.484375 21.921875 
Q 17.484375 14.15625 20.5 10.265625 
Q 23.53125 6.390625 29.59375 6.390625 
Q 36.859375 6.390625 41.078125 11.03125 
Q 45.3125 15.671875 45.3125 23.6875 
L 45.3125 54.6875 
L 54.296875 54.6875 
L 54.296875 0 
L 45.3125 0 
L 45.3125 8.40625 
Q 42.046875 3.421875 37.71875 1 
Q 33.40625 -1.421875 27.6875 -1.421875 
Q 18.265625 -1.421875 13.375 4.4375 
Q 8.5 10.296875 8.5 21.578125 
z
M 31.109375 56 
z
" id="DejaVuSans-117"/>
    </defs>
    <g transform="translate(1338.251562 341.822187)scale(0.1 -0.1)">
     <use xlink:href="#DejaVuSans-84"/>
     <use x="60.818359" xlink:href="#DejaVuSans-111"/>
     <use x="122" xlink:href="#DejaVuSans-114"/>
     <use x="163.097656" xlink:href="#DejaVuSans-113"/>
     <use x="226.574219" xlink:href="#DejaVuSans-117"/>
     <use x="289.953125" xlink:href="#DejaVuSans-101"/>
    </g>
   </g>
   <g id="line2d_90">
    <path d="M 1310.251562 353.000313 
L 1330.251562 353.000313 
" style="fill:none;stroke:#ffff14;stroke-linecap:square;stroke-width:1.5;"/>
   </g>
   <g id="line2d_91"/>
   <g id="text_79">
    <!-- q -->
    <g transform="translate(1338.251562 356.500313)scale(0.1 -0.1)">
     <use xlink:href="#DejaVuSans-113"/>
    </g>
   </g>
   <g id="line2d_92">
    <path d="M 1310.251562 367.678437 
L 1330.251562 367.678437 
" style="fill:none;stroke:#014d4e;stroke-linecap:square;stroke-width:1.5;"/>
   </g>
   <g id="line2d_93"/>
   <g id="text_80">
    <!-- q_des -->
    <defs>
     <path d="M 50.984375 -16.609375 
L 50.984375 -23.578125 
L -0.984375 -23.578125 
L -0.984375 -16.609375 
z
" id="DejaVuSans-95"/>
     <path d="M 45.40625 46.390625 
L 45.40625 75.984375 
L 54.390625 75.984375 
L 54.390625 0 
L 45.40625 0 
L 45.40625 8.203125 
Q 42.578125 3.328125 38.25 0.953125 
Q 33.9375 -1.421875 27.875 -1.421875 
Q 17.96875 -1.421875 11.734375 6.484375 
Q 5.515625 14.40625 5.515625 27.296875 
Q 5.515625 40.1875 11.734375 48.09375 
Q 17.96875 56 27.875 56 
Q 33.9375 56 38.25 53.625 
Q 42.578125 51.265625 45.40625 46.390625 
z
M 14.796875 27.296875 
Q 14.796875 17.390625 18.875 11.75 
Q 22.953125 6.109375 30.078125 6.109375 
Q 37.203125 6.109375 41.296875 11.75 
Q 45.40625 17.390625 45.40625 27.296875 
Q 45.40625 37.203125 41.296875 42.84375 
Q 37.203125 48.484375 30.078125 48.484375 
Q 22.953125 48.484375 18.875 42.84375 
Q 14.796875 37.203125 14.796875 27.296875 
z
" id="DejaVuSans-100"/>
     <path d="M 44.28125 53.078125 
L 44.28125 44.578125 
Q 40.484375 46.53125 36.375 47.5 
Q 32.28125 48.484375 27.875 48.484375 
Q 21.1875 48.484375 17.84375 46.4375 
Q 14.5 44.390625 14.5 40.28125 
Q 14.5 37.15625 16.890625 35.375 
Q 19.28125 33.59375 26.515625 31.984375 
L 29.59375 31.296875 
Q 39.15625 29.25 43.1875 25.515625 
Q 47.21875 21.78125 47.21875 15.09375 
Q 47.21875 7.46875 41.1875 3.015625 
Q 35.15625 -1.421875 24.609375 -1.421875 
Q 20.21875 -1.421875 15.453125 -0.5625 
Q 10.6875 0.296875 5.421875 2 
L 5.421875 11.28125 
Q 10.40625 8.6875 15.234375 7.390625 
Q 20.0625 6.109375 24.8125 6.109375 
Q 31.15625 6.109375 34.5625 8.28125 
Q 37.984375 10.453125 37.984375 14.40625 
Q 37.984375 18.0625 35.515625 20.015625 
Q 33.0625 21.96875 24.703125 23.78125 
L 21.578125 24.515625 
Q 13.234375 26.265625 9.515625 29.90625 
Q 5.8125 33.546875 5.8125 39.890625 
Q 5.8125 47.609375 11.28125 51.796875 
Q 16.75 56 26.8125 56 
Q 31.78125 56 36.171875 55.265625 
Q 40.578125 54.546875 44.28125 53.078125 
z
" id="DejaVuSans-115"/>
    </defs>
    <g transform="translate(1338.251562 371.178437)scale(0.1 -0.1)">
     <use xlink:href="#DejaVuSans-113"/>
     <use x="63.476562" xlink:href="#DejaVuSans-95"/>
     <use x="113.476562" xlink:href="#DejaVuSans-100"/>
     <use x="176.953125" xlink:href="#DejaVuSans-101"/>
     <use x="238.476562" xlink:href="#DejaVuSans-115"/>
    </g>
   </g>
  </g>
 </g>
 <defs>
  <clipPath id="p019944f292">
   <rect height="247.716" width="315.105882" x="172.8" y="84.9312"/>
  </clipPath>
  <clipPath id="pc337a1288f">
   <rect height="247.716" width="315.105882" x="550.927059" y="84.9312"/>
  </clipPath>
  <clipPath id="pca43be974f">
   <rect height="247.716" width="315.105882" x="929.054118" y="84.9312"/>
  </clipPath>
  <clipPath id="p3c870f5ec8">
   <rect height="247.716" width="315.105882" x="172.8" y="382.1904"/>
  </clipPath>
  <clipPath id="p3323283909">
   <rect height="247.716" width="315.105882" x="550.927059" y="382.1904"/>
  </clipPath>
 </defs>
</svg>
