<?xml version="1.0" encoding="utf-8" standalone="no"?>
<!DOCTYPE svg PUBLIC "-//W3C//DTD SVG 1.1//EN"
  "http://www.w3.org/Graphics/SVG/1.1/DTD/svg11.dtd">
<!-- Created with matplotlib (https://matplotlib.org/) -->
<svg height="707.76pt" version="1.1" viewBox="0 0 1382.4 707.76" width="1382.4pt" xmlns="http://www.w3.org/2000/svg" xmlns:xlink="http://www.w3.org/1999/xlink">
 <defs>
  <style type="text/css">
*{stroke-linecap:butt;stroke-linejoin:round;}
  </style>
 </defs>
 <g id="figure_1">
  <g id="patch_1">
   <path d="M 0 707.76 
L 1382.4 707.76 
L 1382.4 0 
L 0 0 
z
" style="fill:#ffffff;"/>
  </g>
  <g id="axes_1">
   <g id="patch_2">
    <path d="M 172.8 332.6472 
L 487.905882 332.6472 
L 487.905882 84.9312 
L 172.8 84.9312 
z
" style="fill:#ffffff;"/>
   </g>
   <g id="matplotlib.axis_1">
    <g id="xtick_1">
     <g id="line2d_1">
      <defs>
       <path d="M 0 0 
L 0 3.5 
" id="m7e84231d51" style="stroke:#000000;stroke-width:0.8;"/>
      </defs>
      <g>
       <use style="stroke:#000000;stroke-width:0.8;" x="187.122995" xlink:href="#m7e84231d51" y="332.6472"/>
      </g>
     </g>
     <g id="text_1">
      <!-- 0 -->
      <defs>
       <path d="M 31.78125 66.40625 
Q 24.171875 66.40625 20.328125 58.90625 
Q 16.5 51.421875 16.5 36.375 
Q 16.5 21.390625 20.328125 13.890625 
Q 24.171875 6.390625 31.78125 6.390625 
Q 39.453125 6.390625 43.28125 13.890625 
Q 47.125 21.390625 47.125 36.375 
Q 47.125 51.421875 43.28125 58.90625 
Q 39.453125 66.40625 31.78125 66.40625 
z
M 31.78125 74.21875 
Q 44.046875 74.21875 50.515625 64.515625 
Q 56.984375 54.828125 56.984375 36.375 
Q 56.984375 17.96875 50.515625 8.265625 
Q 44.046875 -1.421875 31.78125 -1.421875 
Q 19.53125 -1.421875 13.0625 8.265625 
Q 6.59375 17.96875 6.59375 36.375 
Q 6.59375 54.828125 13.0625 64.515625 
Q 19.53125 74.21875 31.78125 74.21875 
z
" id="DejaVuSans-48"/>
      </defs>
      <g transform="translate(183.941745 347.245637)scale(0.1 -0.1)">
       <use xlink:href="#DejaVuSans-48"/>
      </g>
     </g>
    </g>
    <g id="xtick_2">
     <g id="line2d_2">
      <g>
       <use style="stroke:#000000;stroke-width:0.8;" x="248.595075" xlink:href="#m7e84231d51" y="332.6472"/>
      </g>
     </g>
     <g id="text_2">
      <!-- 50 -->
      <defs>
       <path d="M 10.796875 72.90625 
L 49.515625 72.90625 
L 49.515625 64.59375 
L 19.828125 64.59375 
L 19.828125 46.734375 
Q 21.96875 47.46875 24.109375 47.828125 
Q 26.265625 48.1875 28.421875 48.1875 
Q 40.625 48.1875 47.75 41.5 
Q 54.890625 34.8125 54.890625 23.390625 
Q 54.890625 11.625 47.5625 5.09375 
Q 40.234375 -1.421875 26.90625 -1.421875 
Q 22.3125 -1.421875 17.546875 -0.640625 
Q 12.796875 0.140625 7.71875 1.703125 
L 7.71875 11.625 
Q 12.109375 9.234375 16.796875 8.0625 
Q 21.484375 6.890625 26.703125 6.890625 
Q 35.15625 6.890625 40.078125 11.328125 
Q 45.015625 15.765625 45.015625 23.390625 
Q 45.015625 31 40.078125 35.4375 
Q 35.15625 39.890625 26.703125 39.890625 
Q 22.75 39.890625 18.8125 39.015625 
Q 14.890625 38.140625 10.796875 36.28125 
z
" id="DejaVuSans-53"/>
      </defs>
      <g transform="translate(242.232575 347.245637)scale(0.1 -0.1)">
       <use xlink:href="#DejaVuSans-53"/>
       <use x="63.623047" xlink:href="#DejaVuSans-48"/>
      </g>
     </g>
    </g>
    <g id="xtick_3">
     <g id="line2d_3">
      <g>
       <use style="stroke:#000000;stroke-width:0.8;" x="310.067155" xlink:href="#m7e84231d51" y="332.6472"/>
      </g>
     </g>
     <g id="text_3">
      <!-- 100 -->
      <defs>
       <path d="M 12.40625 8.296875 
L 28.515625 8.296875 
L 28.515625 63.921875 
L 10.984375 60.40625 
L 10.984375 69.390625 
L 28.421875 72.90625 
L 38.28125 72.90625 
L 38.28125 8.296875 
L 54.390625 8.296875 
L 54.390625 0 
L 12.40625 0 
z
" id="DejaVuSans-49"/>
      </defs>
      <g transform="translate(300.523405 347.245637)scale(0.1 -0.1)">
       <use xlink:href="#DejaVuSans-49"/>
       <use x="63.623047" xlink:href="#DejaVuSans-48"/>
       <use x="127.246094" xlink:href="#DejaVuSans-48"/>
      </g>
     </g>
    </g>
    <g id="xtick_4">
     <g id="line2d_4">
      <g>
       <use style="stroke:#000000;stroke-width:0.8;" x="371.539235" xlink:href="#m7e84231d51" y="332.6472"/>
      </g>
     </g>
     <g id="text_4">
      <!-- 150 -->
      <g transform="translate(361.995485 347.245637)scale(0.1 -0.1)">
       <use xlink:href="#DejaVuSans-49"/>
       <use x="63.623047" xlink:href="#DejaVuSans-53"/>
       <use x="127.246094" xlink:href="#DejaVuSans-48"/>
      </g>
     </g>
    </g>
    <g id="xtick_5">
     <g id="line2d_5">
      <g>
       <use style="stroke:#000000;stroke-width:0.8;" x="433.011315" xlink:href="#m7e84231d51" y="332.6472"/>
      </g>
     </g>
     <g id="text_5">
      <!-- 200 -->
      <defs>
       <path d="M 19.1875 8.296875 
L 53.609375 8.296875 
L 53.609375 0 
L 7.328125 0 
L 7.328125 8.296875 
Q 12.9375 14.109375 22.625 23.890625 
Q 32.328125 33.6875 34.8125 36.53125 
Q 39.546875 41.84375 41.421875 45.53125 
Q 43.3125 49.21875 43.3125 52.78125 
Q 43.3125 58.59375 39.234375 62.25 
Q 35.15625 65.921875 28.609375 65.921875 
Q 23.96875 65.921875 18.8125 64.3125 
Q 13.671875 62.703125 7.8125 59.421875 
L 7.8125 69.390625 
Q 13.765625 71.78125 18.9375 73 
Q 24.125 74.21875 28.421875 74.21875 
Q 39.75 74.21875 46.484375 68.546875 
Q 53.21875 62.890625 53.21875 53.421875 
Q 53.21875 48.921875 51.53125 44.890625 
Q 49.859375 40.875 45.40625 35.40625 
Q 44.1875 33.984375 37.640625 27.21875 
Q 31.109375 20.453125 19.1875 8.296875 
z
" id="DejaVuSans-50"/>
      </defs>
      <g transform="translate(423.467565 347.245637)scale(0.1 -0.1)">
       <use xlink:href="#DejaVuSans-50"/>
       <use x="63.623047" xlink:href="#DejaVuSans-48"/>
       <use x="127.246094" xlink:href="#DejaVuSans-48"/>
      </g>
     </g>
    </g>
   </g>
   <g id="matplotlib.axis_2">
    <g id="ytick_1">
     <g id="line2d_6">
      <defs>
       <path d="M 0 0 
L -3.5 0 
" id="m7bf2d729a7" style="stroke:#000000;stroke-width:0.8;"/>
      </defs>
      <g>
       <use style="stroke:#000000;stroke-width:0.8;" x="172.8" xlink:href="#m7bf2d729a7" y="309.968149"/>
      </g>
     </g>
     <g id="text_6">
      <!-- 0 -->
      <g transform="translate(159.4375 313.767368)scale(0.1 -0.1)">
       <use xlink:href="#DejaVuSans-48"/>
      </g>
     </g>
    </g>
    <g id="ytick_2">
     <g id="line2d_7">
      <g>
       <use style="stroke:#000000;stroke-width:0.8;" x="172.8" xlink:href="#m7bf2d729a7" y="264.871655"/>
      </g>
     </g>
     <g id="text_7">
      <!-- 1 -->
      <g transform="translate(159.4375 268.670873)scale(0.1 -0.1)">
       <use xlink:href="#DejaVuSans-49"/>
      </g>
     </g>
    </g>
    <g id="ytick_3">
     <g id="line2d_8">
      <g>
       <use style="stroke:#000000;stroke-width:0.8;" x="172.8" xlink:href="#m7bf2d729a7" y="219.77516"/>
      </g>
     </g>
     <g id="text_8">
      <!-- 2 -->
      <g transform="translate(159.4375 223.574379)scale(0.1 -0.1)">
       <use xlink:href="#DejaVuSans-50"/>
      </g>
     </g>
    </g>
    <g id="ytick_4">
     <g id="line2d_9">
      <g>
       <use style="stroke:#000000;stroke-width:0.8;" x="172.8" xlink:href="#m7bf2d729a7" y="174.678666"/>
      </g>
     </g>
     <g id="text_9">
      <!-- 3 -->
      <defs>
       <path d="M 40.578125 39.3125 
Q 47.65625 37.796875 51.625 33 
Q 55.609375 28.21875 55.609375 21.1875 
Q 55.609375 10.40625 48.1875 4.484375 
Q 40.765625 -1.421875 27.09375 -1.421875 
Q 22.515625 -1.421875 17.65625 -0.515625 
Q 12.796875 0.390625 7.625 2.203125 
L 7.625 11.71875 
Q 11.71875 9.328125 16.59375 8.109375 
Q 21.484375 6.890625 26.8125 6.890625 
Q 36.078125 6.890625 40.9375 10.546875 
Q 45.796875 14.203125 45.796875 21.1875 
Q 45.796875 27.640625 41.28125 31.265625 
Q 36.765625 34.90625 28.71875 34.90625 
L 20.21875 34.90625 
L 20.21875 43.015625 
L 29.109375 43.015625 
Q 36.375 43.015625 40.234375 45.921875 
Q 44.09375 48.828125 44.09375 54.296875 
Q 44.09375 59.90625 40.109375 62.90625 
Q 36.140625 65.921875 28.71875 65.921875 
Q 24.65625 65.921875 20.015625 65.03125 
Q 15.375 64.15625 9.8125 62.3125 
L 9.8125 71.09375 
Q 15.4375 72.65625 20.34375 73.4375 
Q 25.25 74.21875 29.59375 74.21875 
Q 40.828125 74.21875 47.359375 69.109375 
Q 53.90625 64.015625 53.90625 55.328125 
Q 53.90625 49.265625 50.4375 45.09375 
Q 46.96875 40.921875 40.578125 39.3125 
z
" id="DejaVuSans-51"/>
      </defs>
      <g transform="translate(159.4375 178.477885)scale(0.1 -0.1)">
       <use xlink:href="#DejaVuSans-51"/>
      </g>
     </g>
    </g>
    <g id="ytick_5">
     <g id="line2d_10">
      <g>
       <use style="stroke:#000000;stroke-width:0.8;" x="172.8" xlink:href="#m7bf2d729a7" y="129.582172"/>
      </g>
     </g>
     <g id="text_10">
      <!-- 4 -->
      <defs>
       <path d="M 37.796875 64.3125 
L 12.890625 25.390625 
L 37.796875 25.390625 
z
M 35.203125 72.90625 
L 47.609375 72.90625 
L 47.609375 25.390625 
L 58.015625 25.390625 
L 58.015625 17.1875 
L 47.609375 17.1875 
L 47.609375 0 
L 37.796875 0 
L 37.796875 17.1875 
L 4.890625 17.1875 
L 4.890625 26.703125 
z
" id="DejaVuSans-52"/>
      </defs>
      <g transform="translate(159.4375 133.381391)scale(0.1 -0.1)">
       <use xlink:href="#DejaVuSans-52"/>
      </g>
     </g>
    </g>
   </g>
   <g id="line2d_11">
    <path clip-path="url(#p49af4ef08e)" d="M 187.122995 309.968053 
L 190.811319 309.899946 
L 200.646852 308.995058 
L 203.105735 308.624986 
L 210.482385 307.314536 
L 212.941268 306.828925 
L 226.465126 303.42256 
L 230.153451 302.35919 
L 233.841775 301.369054 
L 252.2834 295.587761 
L 255.971724 294.566058 
L 262.118932 292.659537 
L 267.036699 291.265075 
L 273.183907 289.323903 
L 276.872232 288.270905 
L 283.01944 286.319727 
L 287.937206 284.923274 
L 294.084414 282.955199 
L 297.772739 281.83103 
L 312.526038 276.534917 
L 321.132129 273.247127 
L 329.73822 269.404233 
L 333.426545 267.381971 
L 338.344312 264.450698 
L 342.032636 261.908484 
L 348.179844 257.190185 
L 351.868169 254.049017 
L 355.556494 250.512645 
L 359.244819 246.740503 
L 362.933144 242.573434 
L 366.621468 237.9321 
L 370.309793 233.025495 
L 373.998118 227.776035 
L 378.915884 220.20559 
L 386.292534 208.414578 
L 392.439742 198.583252 
L 397.357508 191.297588 
L 401.045833 186.322768 
L 403.504716 183.435809 
L 405.9636 180.997394 
L 407.193041 176.580803 
L 408.422483 174.420288 
L 409.651924 172.775461 
L 412.110808 169.839009 
L 413.340249 168.004863 
L 414.569691 166.412899 
L 417.028574 164.582083 
L 419.487457 161.793348 
L 420.716899 158.283746 
L 423.175782 153.321962 
L 424.405224 151.193715 
L 425.634665 149.661052 
L 426.864107 148.495299 
L 428.093548 147.133622 
L 430.552432 144.061308 
L 431.781873 142.784297 
L 433.011315 141.276428 
L 435.470198 137.761625 
L 436.69964 136.56202 
L 439.158523 134.565687 
L 440.387964 133.887675 
L 441.617406 135.853305 
L 442.846848 140.425429 
L 444.076289 136.594772 
L 445.305731 134.63756 
L 448.994056 127.499439 
L 450.223497 126.398012 
L 451.452939 126.047089 
L 452.68238 125.557068 
L 453.911822 124.613295 
L 455.141264 123.42556 
L 456.370705 121.820441 
L 457.600147 119.267745 
L 461.288472 109.329389 
L 462.517913 106.49418 
L 463.747355 103.941699 
L 464.976796 102.200657 
L 466.206238 101.490996 
L 467.43568 101.100164 
L 468.665121 100.501085 
L 471.124004 98.999807 
L 472.353446 97.920503 
L 473.582888 96.191018 
L 473.582888 96.191018 
" style="fill:none;stroke:#ff796c;stroke-linecap:square;stroke-width:1.5;"/>
   </g>
   <g id="line2d_12">
    <path clip-path="url(#p49af4ef08e)" d="M 187.122995 310.245686 
L 195.729086 310.345741 
L 205.564619 310.734393 
L 216.629593 311.533018 
L 230.153451 312.859957 
L 241.218425 314.16236 
L 262.118932 316.596131 
L 278.101673 318.139586 
L 287.937206 318.895086 
L 302.690505 319.77116 
L 313.75548 320.266349 
L 323.591012 320.495651 
L 339.573753 320.647851 
L 366.621468 321.02784 
L 383.833651 321.381464 
L 388.751417 321.240613 
L 392.439742 320.957668 
L 396.128067 320.449376 
L 399.816392 319.671674 
L 402.275275 318.97453 
L 404.734158 318.09861 
L 407.193041 317.132714 
L 410.881366 315.727765 
L 415.799132 313.496631 
L 420.716899 310.748527 
L 423.175782 309.6765 
L 425.634665 308.730934 
L 440.387964 302.004115 
L 441.617406 300.628125 
L 442.846848 299.033372 
L 445.305731 296.429853 
L 446.535172 295.287694 
L 447.764614 294.381862 
L 451.452939 292.018739 
L 453.911822 290.501377 
L 456.370705 289.051898 
L 457.600147 288.482828 
L 460.05903 287.902419 
L 462.517913 287.510822 
L 464.976796 287.249228 
L 466.206238 286.867648 
L 468.665121 285.760977 
L 469.894563 285.090371 
L 473.582888 282.507991 
L 473.582888 282.507991 
" style="fill:none;stroke:#ffff14;stroke-linecap:square;stroke-width:1.5;"/>
   </g>
   <g id="line2d_13">
    <path clip-path="url(#p49af4ef08e)" d="M 187.122995 310.245937 
L 254.742283 310.135498 
L 274.413348 309.879046 
L 289.166648 309.465007 
L 300.231622 308.953496 
L 310.067155 308.298634 
L 318.673246 307.529226 
L 327.279337 306.536486 
L 334.655987 305.476535 
L 342.032636 304.194795 
L 349.409286 302.663158 
L 355.556494 301.175507 
L 361.703702 299.478594 
L 367.85091 297.556838 
L 373.998118 295.395451 
L 380.145326 292.980797 
L 386.292534 290.300799 
L 392.439742 287.345348 
L 398.58695 284.106704 
L 404.734158 280.579759 
L 410.881366 276.762186 
L 417.028574 272.654433 
L 423.175782 268.259827 
L 429.32299 263.588 
L 435.470198 258.652171 
L 441.617406 253.467352 
L 448.994056 246.935763 
L 456.370705 240.075876 
L 463.747355 232.889089 
L 471.124004 225.369063 
L 473.582888 222.786611 
L 473.582888 222.786611 
" style="fill:none;stroke:#014d4e;stroke-linecap:square;stroke-width:1.5;"/>
   </g>
   <g id="patch_3">
    <path d="M 172.8 332.6472 
L 172.8 84.9312 
" style="fill:none;stroke:#000000;stroke-linecap:square;stroke-linejoin:miter;stroke-width:0.8;"/>
   </g>
   <g id="patch_4">
    <path d="M 487.905882 332.6472 
L 487.905882 84.9312 
" style="fill:none;stroke:#000000;stroke-linecap:square;stroke-linejoin:miter;stroke-width:0.8;"/>
   </g>
   <g id="patch_5">
    <path d="M 172.8 332.6472 
L 487.905882 332.6472 
" style="fill:none;stroke:#000000;stroke-linecap:square;stroke-linejoin:miter;stroke-width:0.8;"/>
   </g>
   <g id="patch_6">
    <path d="M 172.8 84.9312 
L 487.905882 84.9312 
" style="fill:none;stroke:#000000;stroke-linecap:square;stroke-linejoin:miter;stroke-width:0.8;"/>
   </g>
   <g id="text_11">
    <!-- Lateral joint 0 -->
    <defs>
     <path d="M 9.8125 72.90625 
L 19.671875 72.90625 
L 19.671875 8.296875 
L 55.171875 8.296875 
L 55.171875 0 
L 9.8125 0 
z
" id="DejaVuSans-76"/>
     <path d="M 34.28125 27.484375 
Q 23.390625 27.484375 19.1875 25 
Q 14.984375 22.515625 14.984375 16.5 
Q 14.984375 11.71875 18.140625 8.90625 
Q 21.296875 6.109375 26.703125 6.109375 
Q 34.1875 6.109375 38.703125 11.40625 
Q 43.21875 16.703125 43.21875 25.484375 
L 43.21875 27.484375 
z
M 52.203125 31.203125 
L 52.203125 0 
L 43.21875 0 
L 43.21875 8.296875 
Q 40.140625 3.328125 35.546875 0.953125 
Q 30.953125 -1.421875 24.3125 -1.421875 
Q 15.921875 -1.421875 10.953125 3.296875 
Q 6 8.015625 6 15.921875 
Q 6 25.140625 12.171875 29.828125 
Q 18.359375 34.515625 30.609375 34.515625 
L 43.21875 34.515625 
L 43.21875 35.40625 
Q 43.21875 41.609375 39.140625 45 
Q 35.0625 48.390625 27.6875 48.390625 
Q 23 48.390625 18.546875 47.265625 
Q 14.109375 46.140625 10.015625 43.890625 
L 10.015625 52.203125 
Q 14.9375 54.109375 19.578125 55.046875 
Q 24.21875 56 28.609375 56 
Q 40.484375 56 46.34375 49.84375 
Q 52.203125 43.703125 52.203125 31.203125 
z
" id="DejaVuSans-97"/>
     <path d="M 18.3125 70.21875 
L 18.3125 54.6875 
L 36.8125 54.6875 
L 36.8125 47.703125 
L 18.3125 47.703125 
L 18.3125 18.015625 
Q 18.3125 11.328125 20.140625 9.421875 
Q 21.96875 7.515625 27.59375 7.515625 
L 36.8125 7.515625 
L 36.8125 0 
L 27.59375 0 
Q 17.1875 0 13.234375 3.875 
Q 9.28125 7.765625 9.28125 18.015625 
L 9.28125 47.703125 
L 2.6875 47.703125 
L 2.6875 54.6875 
L 9.28125 54.6875 
L 9.28125 70.21875 
z
" id="DejaVuSans-116"/>
     <path d="M 56.203125 29.59375 
L 56.203125 25.203125 
L 14.890625 25.203125 
Q 15.484375 15.921875 20.484375 11.0625 
Q 25.484375 6.203125 34.421875 6.203125 
Q 39.59375 6.203125 44.453125 7.46875 
Q 49.3125 8.734375 54.109375 11.28125 
L 54.109375 2.78125 
Q 49.265625 0.734375 44.1875 -0.34375 
Q 39.109375 -1.421875 33.890625 -1.421875 
Q 20.796875 -1.421875 13.15625 6.1875 
Q 5.515625 13.8125 5.515625 26.8125 
Q 5.515625 40.234375 12.765625 48.109375 
Q 20.015625 56 32.328125 56 
Q 43.359375 56 49.78125 48.890625 
Q 56.203125 41.796875 56.203125 29.59375 
z
M 47.21875 32.234375 
Q 47.125 39.59375 43.09375 43.984375 
Q 39.0625 48.390625 32.421875 48.390625 
Q 24.90625 48.390625 20.390625 44.140625 
Q 15.875 39.890625 15.1875 32.171875 
z
" id="DejaVuSans-101"/>
     <path d="M 41.109375 46.296875 
Q 39.59375 47.171875 37.8125 47.578125 
Q 36.03125 48 33.890625 48 
Q 26.265625 48 22.1875 43.046875 
Q 18.109375 38.09375 18.109375 28.8125 
L 18.109375 0 
L 9.078125 0 
L 9.078125 54.6875 
L 18.109375 54.6875 
L 18.109375 46.1875 
Q 20.953125 51.171875 25.484375 53.578125 
Q 30.03125 56 36.53125 56 
Q 37.453125 56 38.578125 55.875 
Q 39.703125 55.765625 41.0625 55.515625 
z
" id="DejaVuSans-114"/>
     <path d="M 9.421875 75.984375 
L 18.40625 75.984375 
L 18.40625 0 
L 9.421875 0 
z
" id="DejaVuSans-108"/>
     <path id="DejaVuSans-32"/>
     <path d="M 9.421875 54.6875 
L 18.40625 54.6875 
L 18.40625 -0.984375 
Q 18.40625 -11.421875 14.421875 -16.109375 
Q 10.453125 -20.796875 1.609375 -20.796875 
L -1.8125 -20.796875 
L -1.8125 -13.1875 
L 0.59375 -13.1875 
Q 5.71875 -13.1875 7.5625 -10.8125 
Q 9.421875 -8.453125 9.421875 -0.984375 
z
M 9.421875 75.984375 
L 18.40625 75.984375 
L 18.40625 64.59375 
L 9.421875 64.59375 
z
" id="DejaVuSans-106"/>
     <path d="M 30.609375 48.390625 
Q 23.390625 48.390625 19.1875 42.75 
Q 14.984375 37.109375 14.984375 27.296875 
Q 14.984375 17.484375 19.15625 11.84375 
Q 23.34375 6.203125 30.609375 6.203125 
Q 37.796875 6.203125 41.984375 11.859375 
Q 46.1875 17.53125 46.1875 27.296875 
Q 46.1875 37.015625 41.984375 42.703125 
Q 37.796875 48.390625 30.609375 48.390625 
z
M 30.609375 56 
Q 42.328125 56 49.015625 48.375 
Q 55.71875 40.765625 55.71875 27.296875 
Q 55.71875 13.875 49.015625 6.21875 
Q 42.328125 -1.421875 30.609375 -1.421875 
Q 18.84375 -1.421875 12.171875 6.21875 
Q 5.515625 13.875 5.515625 27.296875 
Q 5.515625 40.765625 12.171875 48.375 
Q 18.84375 56 30.609375 56 
z
" id="DejaVuSans-111"/>
     <path d="M 9.421875 54.6875 
L 18.40625 54.6875 
L 18.40625 0 
L 9.421875 0 
z
M 9.421875 75.984375 
L 18.40625 75.984375 
L 18.40625 64.59375 
L 9.421875 64.59375 
z
" id="DejaVuSans-105"/>
     <path d="M 54.890625 33.015625 
L 54.890625 0 
L 45.90625 0 
L 45.90625 32.71875 
Q 45.90625 40.484375 42.875 44.328125 
Q 39.84375 48.1875 33.796875 48.1875 
Q 26.515625 48.1875 22.3125 43.546875 
Q 18.109375 38.921875 18.109375 30.90625 
L 18.109375 0 
L 9.078125 0 
L 9.078125 54.6875 
L 18.109375 54.6875 
L 18.109375 46.1875 
Q 21.34375 51.125 25.703125 53.5625 
Q 30.078125 56 35.796875 56 
Q 45.21875 56 50.046875 50.171875 
Q 54.890625 44.34375 54.890625 33.015625 
z
" id="DejaVuSans-110"/>
    </defs>
    <g transform="translate(288.687629 78.9312)scale(0.12 -0.12)">
     <use xlink:href="#DejaVuSans-76"/>
     <use x="55.712891" xlink:href="#DejaVuSans-97"/>
     <use x="116.992188" xlink:href="#DejaVuSans-116"/>
     <use x="156.201172" xlink:href="#DejaVuSans-101"/>
     <use x="217.724609" xlink:href="#DejaVuSans-114"/>
     <use x="258.837891" xlink:href="#DejaVuSans-97"/>
     <use x="320.117188" xlink:href="#DejaVuSans-108"/>
     <use x="347.900391" xlink:href="#DejaVuSans-32"/>
     <use x="379.6875" xlink:href="#DejaVuSans-106"/>
     <use x="407.470703" xlink:href="#DejaVuSans-111"/>
     <use x="468.652344" xlink:href="#DejaVuSans-105"/>
     <use x="496.435547" xlink:href="#DejaVuSans-110"/>
     <use x="559.814453" xlink:href="#DejaVuSans-116"/>
     <use x="599.023438" xlink:href="#DejaVuSans-32"/>
     <use x="630.810547" xlink:href="#DejaVuSans-48"/>
    </g>
   </g>
  </g>
  <g id="axes_2">
   <g id="patch_7">
    <path d="M 550.927059 332.6472 
L 866.032941 332.6472 
L 866.032941 84.9312 
L 550.927059 84.9312 
z
" style="fill:#ffffff;"/>
   </g>
   <g id="matplotlib.axis_3">
    <g id="xtick_6">
     <g id="line2d_14">
      <g>
       <use style="stroke:#000000;stroke-width:0.8;" x="565.250053" xlink:href="#m7e84231d51" y="332.6472"/>
      </g>
     </g>
     <g id="text_12">
      <!-- 0 -->
      <g transform="translate(562.068803 347.245637)scale(0.1 -0.1)">
       <use xlink:href="#DejaVuSans-48"/>
      </g>
     </g>
    </g>
    <g id="xtick_7">
     <g id="line2d_15">
      <g>
       <use style="stroke:#000000;stroke-width:0.8;" x="626.722134" xlink:href="#m7e84231d51" y="332.6472"/>
      </g>
     </g>
     <g id="text_13">
      <!-- 50 -->
      <g transform="translate(620.359634 347.245637)scale(0.1 -0.1)">
       <use xlink:href="#DejaVuSans-53"/>
       <use x="63.623047" xlink:href="#DejaVuSans-48"/>
      </g>
     </g>
    </g>
    <g id="xtick_8">
     <g id="line2d_16">
      <g>
       <use style="stroke:#000000;stroke-width:0.8;" x="688.194214" xlink:href="#m7e84231d51" y="332.6472"/>
      </g>
     </g>
     <g id="text_14">
      <!-- 100 -->
      <g transform="translate(678.650464 347.245637)scale(0.1 -0.1)">
       <use xlink:href="#DejaVuSans-49"/>
       <use x="63.623047" xlink:href="#DejaVuSans-48"/>
       <use x="127.246094" xlink:href="#DejaVuSans-48"/>
      </g>
     </g>
    </g>
    <g id="xtick_9">
     <g id="line2d_17">
      <g>
       <use style="stroke:#000000;stroke-width:0.8;" x="749.666294" xlink:href="#m7e84231d51" y="332.6472"/>
      </g>
     </g>
     <g id="text_15">
      <!-- 150 -->
      <g transform="translate(740.122544 347.245637)scale(0.1 -0.1)">
       <use xlink:href="#DejaVuSans-49"/>
       <use x="63.623047" xlink:href="#DejaVuSans-53"/>
       <use x="127.246094" xlink:href="#DejaVuSans-48"/>
      </g>
     </g>
    </g>
    <g id="xtick_10">
     <g id="line2d_18">
      <g>
       <use style="stroke:#000000;stroke-width:0.8;" x="811.138374" xlink:href="#m7e84231d51" y="332.6472"/>
      </g>
     </g>
     <g id="text_16">
      <!-- 200 -->
      <g transform="translate(801.594624 347.245637)scale(0.1 -0.1)">
       <use xlink:href="#DejaVuSans-50"/>
       <use x="63.623047" xlink:href="#DejaVuSans-48"/>
       <use x="127.246094" xlink:href="#DejaVuSans-48"/>
      </g>
     </g>
    </g>
   </g>
   <g id="matplotlib.axis_4">
    <g id="ytick_6">
     <g id="line2d_19">
      <g>
       <use style="stroke:#000000;stroke-width:0.8;" x="550.927059" xlink:href="#m7bf2d729a7" y="325.955773"/>
      </g>
     </g>
     <g id="text_17">
      <!-- −1.00 -->
      <defs>
       <path d="M 10.59375 35.5 
L 73.1875 35.5 
L 73.1875 27.203125 
L 10.59375 27.203125 
z
" id="DejaVuSans-8722"/>
       <path d="M 10.6875 12.40625 
L 21 12.40625 
L 21 0 
L 10.6875 0 
z
" id="DejaVuSans-46"/>
      </defs>
      <g transform="translate(513.281746 329.754991)scale(0.1 -0.1)">
       <use xlink:href="#DejaVuSans-8722"/>
       <use x="83.789062" xlink:href="#DejaVuSans-49"/>
       <use x="147.412109" xlink:href="#DejaVuSans-46"/>
       <use x="179.199219" xlink:href="#DejaVuSans-48"/>
       <use x="242.822266" xlink:href="#DejaVuSans-48"/>
      </g>
     </g>
    </g>
    <g id="ytick_7">
     <g id="line2d_20">
      <g>
       <use style="stroke:#000000;stroke-width:0.8;" x="550.927059" xlink:href="#m7bf2d729a7" y="295.16775"/>
      </g>
     </g>
     <g id="text_18">
      <!-- −0.75 -->
      <defs>
       <path d="M 8.203125 72.90625 
L 55.078125 72.90625 
L 55.078125 68.703125 
L 28.609375 0 
L 18.3125 0 
L 43.21875 64.59375 
L 8.203125 64.59375 
z
" id="DejaVuSans-55"/>
      </defs>
      <g transform="translate(513.281746 298.966969)scale(0.1 -0.1)">
       <use xlink:href="#DejaVuSans-8722"/>
       <use x="83.789062" xlink:href="#DejaVuSans-48"/>
       <use x="147.412109" xlink:href="#DejaVuSans-46"/>
       <use x="179.199219" xlink:href="#DejaVuSans-55"/>
       <use x="242.822266" xlink:href="#DejaVuSans-53"/>
      </g>
     </g>
    </g>
    <g id="ytick_8">
     <g id="line2d_21">
      <g>
       <use style="stroke:#000000;stroke-width:0.8;" x="550.927059" xlink:href="#m7bf2d729a7" y="264.379728"/>
      </g>
     </g>
     <g id="text_19">
      <!-- −0.50 -->
      <g transform="translate(513.281746 268.178947)scale(0.1 -0.1)">
       <use xlink:href="#DejaVuSans-8722"/>
       <use x="83.789062" xlink:href="#DejaVuSans-48"/>
       <use x="147.412109" xlink:href="#DejaVuSans-46"/>
       <use x="179.199219" xlink:href="#DejaVuSans-53"/>
       <use x="242.822266" xlink:href="#DejaVuSans-48"/>
      </g>
     </g>
    </g>
    <g id="ytick_9">
     <g id="line2d_22">
      <g>
       <use style="stroke:#000000;stroke-width:0.8;" x="550.927059" xlink:href="#m7bf2d729a7" y="233.591706"/>
      </g>
     </g>
     <g id="text_20">
      <!-- −0.25 -->
      <g transform="translate(513.281746 237.390924)scale(0.1 -0.1)">
       <use xlink:href="#DejaVuSans-8722"/>
       <use x="83.789062" xlink:href="#DejaVuSans-48"/>
       <use x="147.412109" xlink:href="#DejaVuSans-46"/>
       <use x="179.199219" xlink:href="#DejaVuSans-50"/>
       <use x="242.822266" xlink:href="#DejaVuSans-53"/>
      </g>
     </g>
    </g>
    <g id="ytick_10">
     <g id="line2d_23">
      <g>
       <use style="stroke:#000000;stroke-width:0.8;" x="550.927059" xlink:href="#m7bf2d729a7" y="202.803683"/>
      </g>
     </g>
     <g id="text_21">
      <!-- 0.00 -->
      <g transform="translate(521.661434 206.602902)scale(0.1 -0.1)">
       <use xlink:href="#DejaVuSans-48"/>
       <use x="63.623047" xlink:href="#DejaVuSans-46"/>
       <use x="95.410156" xlink:href="#DejaVuSans-48"/>
       <use x="159.033203" xlink:href="#DejaVuSans-48"/>
      </g>
     </g>
    </g>
    <g id="ytick_11">
     <g id="line2d_24">
      <g>
       <use style="stroke:#000000;stroke-width:0.8;" x="550.927059" xlink:href="#m7bf2d729a7" y="172.015661"/>
      </g>
     </g>
     <g id="text_22">
      <!-- 0.25 -->
      <g transform="translate(521.661434 175.81488)scale(0.1 -0.1)">
       <use xlink:href="#DejaVuSans-48"/>
       <use x="63.623047" xlink:href="#DejaVuSans-46"/>
       <use x="95.410156" xlink:href="#DejaVuSans-50"/>
       <use x="159.033203" xlink:href="#DejaVuSans-53"/>
      </g>
     </g>
    </g>
    <g id="ytick_12">
     <g id="line2d_25">
      <g>
       <use style="stroke:#000000;stroke-width:0.8;" x="550.927059" xlink:href="#m7bf2d729a7" y="141.227638"/>
      </g>
     </g>
     <g id="text_23">
      <!-- 0.50 -->
      <g transform="translate(521.661434 145.026857)scale(0.1 -0.1)">
       <use xlink:href="#DejaVuSans-48"/>
       <use x="63.623047" xlink:href="#DejaVuSans-46"/>
       <use x="95.410156" xlink:href="#DejaVuSans-53"/>
       <use x="159.033203" xlink:href="#DejaVuSans-48"/>
      </g>
     </g>
    </g>
    <g id="ytick_13">
     <g id="line2d_26">
      <g>
       <use style="stroke:#000000;stroke-width:0.8;" x="550.927059" xlink:href="#m7bf2d729a7" y="110.439616"/>
      </g>
     </g>
     <g id="text_24">
      <!-- 0.75 -->
      <g transform="translate(521.661434 114.238835)scale(0.1 -0.1)">
       <use xlink:href="#DejaVuSans-48"/>
       <use x="63.623047" xlink:href="#DejaVuSans-46"/>
       <use x="95.410156" xlink:href="#DejaVuSans-55"/>
       <use x="159.033203" xlink:href="#DejaVuSans-53"/>
      </g>
     </g>
    </g>
   </g>
   <g id="line2d_27">
    <path clip-path="url(#p3acd213d16)" d="M 565.250053 202.803486 
L 568.938378 202.727221 
L 573.856145 202.375503 
L 586.150561 202.622063 
L 591.068327 203.09924 
L 595.986094 203.393666 
L 602.133302 204.273009 
L 605.821626 204.606574 
L 608.28051 205.054747 
L 613.198276 206.043093 
L 616.886601 206.734893 
L 619.345484 207.476794 
L 624.26325 209.046232 
L 626.722134 209.799855 
L 629.181017 210.763692 
L 634.098783 212.878163 
L 637.787108 214.346798 
L 640.245991 215.553964 
L 645.163758 218.061009 
L 648.852082 219.927892 
L 658.687615 225.855687 
L 662.37594 228.359538 
L 666.064265 230.831404 
L 669.75259 233.264735 
L 674.670356 237.003318 
L 679.588122 240.762306 
L 682.047006 242.888559 
L 690.653097 250.896449 
L 694.341422 254.753676 
L 702.947513 263.924043 
L 716.47137 279.72693 
L 732.454111 298.67153 
L 737.371878 304.015478 
L 739.830761 306.478899 
L 743.519086 309.783912 
L 748.436852 313.871936 
L 750.895735 315.690506 
L 753.354618 317.239933 
L 757.042943 319.196346 
L 759.501826 320.259185 
L 761.96071 321.018104 
L 764.419593 321.362929 
L 766.878476 321.314004 
L 769.337359 320.888299 
L 770.566801 320.534677 
L 771.796242 320.063697 
L 773.025684 319.458177 
L 774.255126 318.715768 
L 775.484567 317.838277 
L 777.94345 315.678807 
L 780.402334 313.066398 
L 782.861217 310.057866 
L 784.090658 308.404703 
L 785.3201 300.883968 
L 786.549542 297.467001 
L 789.008425 292.05711 
L 792.69675 281.947322 
L 793.926191 279.218213 
L 795.155633 276.028574 
L 797.614516 268.393691 
L 798.843958 260.404334 
L 800.073399 253.985998 
L 801.302841 248.502139 
L 802.532282 243.744464 
L 806.220607 231.236802 
L 813.597257 204.630889 
L 816.05614 197.279623 
L 817.285582 193.959905 
L 818.515023 191.149618 
L 819.744465 187.421261 
L 820.973906 189.567265 
L 822.203348 177.241445 
L 825.891673 148.756629 
L 827.121115 142.295189 
L 828.350556 137.405541 
L 829.579998 133.441346 
L 830.809439 130.449965 
L 832.038881 128.147998 
L 833.268323 125.301615 
L 834.497764 121.180608 
L 836.956647 112.208522 
L 839.415531 103.869699 
L 840.644972 100.616208 
L 841.874414 99.294792 
L 843.103855 99.350974 
L 844.333297 99.776582 
L 845.562739 100.354007 
L 846.79218 101.471409 
L 848.021622 102.146328 
L 849.251063 101.202697 
L 850.480505 98.858949 
L 851.709947 96.191018 
L 851.709947 96.191018 
" style="fill:none;stroke:#ff796c;stroke-linecap:square;stroke-width:1.5;"/>
   </g>
   <g id="line2d_28">
    <path clip-path="url(#p3acd213d16)" d="M 565.250053 253.003705 
L 573.856145 252.902578 
L 583.691677 252.491053 
L 595.986094 251.586534 
L 613.198276 250.016532 
L 620.574926 249.093362 
L 627.951575 248.003272 
L 637.787108 246.292624 
L 645.163758 244.742055 
L 651.310966 243.217453 
L 658.687615 241.193685 
L 668.523148 238.170524 
L 674.670356 236.0148 
L 679.588122 234.072989 
L 685.73533 231.332554 
L 690.653097 228.886823 
L 696.800305 225.535526 
L 701.718071 222.592577 
L 706.635838 219.399558 
L 711.553604 215.915983 
L 716.47137 212.145833 
L 721.389137 208.129109 
L 728.765786 201.734209 
L 737.371878 193.948658 
L 754.58406 178.320175 
L 759.501826 174.211082 
L 763.190151 171.435728 
L 766.878476 169.00568 
L 769.337359 167.621798 
L 771.796242 166.465839 
L 774.255126 165.552517 
L 776.714009 164.89827 
L 779.172892 164.511521 
L 781.631775 164.410114 
L 784.090658 164.607571 
L 785.3201 164.968403 
L 787.778983 165.475166 
L 789.008425 165.956642 
L 790.237866 166.588447 
L 792.69675 167.479641 
L 793.926191 168.147137 
L 796.385074 169.797223 
L 797.614516 170.385455 
L 798.843958 171.379296 
L 801.302841 173.595186 
L 802.532282 174.531716 
L 803.761724 175.644691 
L 806.220607 178.269444 
L 808.67949 180.491928 
L 811.138374 183.116301 
L 814.826698 186.172189 
L 816.05614 187.340804 
L 818.515023 189.160265 
L 819.744465 191.539569 
L 820.973906 193.310222 
L 822.203348 194.883525 
L 824.662231 199.239829 
L 825.891673 200.800794 
L 827.121115 201.780629 
L 828.350556 202.975708 
L 829.579998 204.331513 
L 830.809439 204.977323 
L 833.268323 204.650106 
L 834.497764 204.806264 
L 835.727206 204.495989 
L 838.186089 202.420215 
L 839.415531 201.96655 
L 840.644972 201.350256 
L 843.103855 198.69148 
L 845.562739 197.129851 
L 848.021622 194.013906 
L 849.251063 193.088356 
L 850.480505 192.466209 
L 851.709947 191.38542 
L 851.709947 191.38542 
" style="fill:none;stroke:#ffff14;stroke-linecap:square;stroke-width:1.5;"/>
   </g>
   <g id="line2d_29">
    <path clip-path="url(#p3acd213d16)" d="M 565.250053 253.00309 
L 627.951575 252.900174 
L 645.163758 252.640941 
L 657.458174 252.247353 
L 667.293706 251.733758 
L 675.899798 251.085798 
L 684.505889 250.20099 
L 691.882538 249.212495 
L 699.259188 247.972144 
L 705.406396 246.717769 
L 711.553604 245.237908 
L 717.700812 243.509365 
L 723.84802 241.509247 
L 728.765786 239.698656 
L 733.683553 237.689048 
L 738.601319 235.470011 
L 743.519086 233.031697 
L 748.436852 230.364972 
L 753.354618 227.461399 
L 758.272385 224.313333 
L 763.190151 220.913872 
L 768.107918 217.256788 
L 773.025684 213.336478 
L 777.94345 209.147739 
L 782.861217 204.6855 
L 787.778983 199.944383 
L 792.69675 194.918575 
L 797.614516 189.600376 
L 802.532282 183.985195 
L 807.450049 178.078775 
L 813.597257 170.298037 
L 819.744465 162.094338 
L 825.891673 153.478915 
L 832.038881 144.458924 
L 838.186089 135.042321 
L 844.333297 125.233165 
L 850.480505 115.025972 
L 851.709947 112.935844 
L 851.709947 112.935844 
" style="fill:none;stroke:#014d4e;stroke-linecap:square;stroke-width:1.5;"/>
   </g>
   <g id="patch_8">
    <path d="M 550.927059 332.6472 
L 550.927059 84.9312 
" style="fill:none;stroke:#000000;stroke-linecap:square;stroke-linejoin:miter;stroke-width:0.8;"/>
   </g>
   <g id="patch_9">
    <path d="M 866.032941 332.6472 
L 866.032941 84.9312 
" style="fill:none;stroke:#000000;stroke-linecap:square;stroke-linejoin:miter;stroke-width:0.8;"/>
   </g>
   <g id="patch_10">
    <path d="M 550.927059 332.6472 
L 866.032941 332.6472 
" style="fill:none;stroke:#000000;stroke-linecap:square;stroke-linejoin:miter;stroke-width:0.8;"/>
   </g>
   <g id="patch_11">
    <path d="M 550.927059 84.9312 
L 866.032941 84.9312 
" style="fill:none;stroke:#000000;stroke-linecap:square;stroke-linejoin:miter;stroke-width:0.8;"/>
   </g>
   <g id="text_25">
    <!-- Lateral joint 1 -->
    <g transform="translate(666.814687 78.9312)scale(0.12 -0.12)">
     <use xlink:href="#DejaVuSans-76"/>
     <use x="55.712891" xlink:href="#DejaVuSans-97"/>
     <use x="116.992188" xlink:href="#DejaVuSans-116"/>
     <use x="156.201172" xlink:href="#DejaVuSans-101"/>
     <use x="217.724609" xlink:href="#DejaVuSans-114"/>
     <use x="258.837891" xlink:href="#DejaVuSans-97"/>
     <use x="320.117188" xlink:href="#DejaVuSans-108"/>
     <use x="347.900391" xlink:href="#DejaVuSans-32"/>
     <use x="379.6875" xlink:href="#DejaVuSans-106"/>
     <use x="407.470703" xlink:href="#DejaVuSans-111"/>
     <use x="468.652344" xlink:href="#DejaVuSans-105"/>
     <use x="496.435547" xlink:href="#DejaVuSans-110"/>
     <use x="559.814453" xlink:href="#DejaVuSans-116"/>
     <use x="599.023438" xlink:href="#DejaVuSans-32"/>
     <use x="630.810547" xlink:href="#DejaVuSans-49"/>
    </g>
   </g>
  </g>
  <g id="axes_3">
   <g id="patch_12">
    <path d="M 929.054118 332.6472 
L 1244.16 332.6472 
L 1244.16 84.9312 
L 929.054118 84.9312 
z
" style="fill:#ffffff;"/>
   </g>
   <g id="matplotlib.axis_5">
    <g id="xtick_11">
     <g id="line2d_30">
      <g>
       <use style="stroke:#000000;stroke-width:0.8;" x="943.377112" xlink:href="#m7e84231d51" y="332.6472"/>
      </g>
     </g>
     <g id="text_26">
      <!-- 0 -->
      <g transform="translate(940.195862 347.245637)scale(0.1 -0.1)">
       <use xlink:href="#DejaVuSans-48"/>
      </g>
     </g>
    </g>
    <g id="xtick_12">
     <g id="line2d_31">
      <g>
       <use style="stroke:#000000;stroke-width:0.8;" x="1004.849192" xlink:href="#m7e84231d51" y="332.6472"/>
      </g>
     </g>
     <g id="text_27">
      <!-- 50 -->
      <g transform="translate(998.486692 347.245637)scale(0.1 -0.1)">
       <use xlink:href="#DejaVuSans-53"/>
       <use x="63.623047" xlink:href="#DejaVuSans-48"/>
      </g>
     </g>
    </g>
    <g id="xtick_13">
     <g id="line2d_32">
      <g>
       <use style="stroke:#000000;stroke-width:0.8;" x="1066.321272" xlink:href="#m7e84231d51" y="332.6472"/>
      </g>
     </g>
     <g id="text_28">
      <!-- 100 -->
      <g transform="translate(1056.777522 347.245637)scale(0.1 -0.1)">
       <use xlink:href="#DejaVuSans-49"/>
       <use x="63.623047" xlink:href="#DejaVuSans-48"/>
       <use x="127.246094" xlink:href="#DejaVuSans-48"/>
      </g>
     </g>
    </g>
    <g id="xtick_14">
     <g id="line2d_33">
      <g>
       <use style="stroke:#000000;stroke-width:0.8;" x="1127.793352" xlink:href="#m7e84231d51" y="332.6472"/>
      </g>
     </g>
     <g id="text_29">
      <!-- 150 -->
      <g transform="translate(1118.249602 347.245637)scale(0.1 -0.1)">
       <use xlink:href="#DejaVuSans-49"/>
       <use x="63.623047" xlink:href="#DejaVuSans-53"/>
       <use x="127.246094" xlink:href="#DejaVuSans-48"/>
      </g>
     </g>
    </g>
    <g id="xtick_15">
     <g id="line2d_34">
      <g>
       <use style="stroke:#000000;stroke-width:0.8;" x="1189.265433" xlink:href="#m7e84231d51" y="332.6472"/>
      </g>
     </g>
     <g id="text_30">
      <!-- 200 -->
      <g transform="translate(1179.721683 347.245637)scale(0.1 -0.1)">
       <use xlink:href="#DejaVuSans-50"/>
       <use x="63.623047" xlink:href="#DejaVuSans-48"/>
       <use x="127.246094" xlink:href="#DejaVuSans-48"/>
      </g>
     </g>
    </g>
   </g>
   <g id="matplotlib.axis_6">
    <g id="ytick_14">
     <g id="line2d_35">
      <g>
       <use style="stroke:#000000;stroke-width:0.8;" x="929.054118" xlink:href="#m7bf2d729a7" y="318.071219"/>
      </g>
     </g>
     <g id="text_31">
      <!-- −8 -->
      <defs>
       <path d="M 31.78125 34.625 
Q 24.75 34.625 20.71875 30.859375 
Q 16.703125 27.09375 16.703125 20.515625 
Q 16.703125 13.921875 20.71875 10.15625 
Q 24.75 6.390625 31.78125 6.390625 
Q 38.8125 6.390625 42.859375 10.171875 
Q 46.921875 13.96875 46.921875 20.515625 
Q 46.921875 27.09375 42.890625 30.859375 
Q 38.875 34.625 31.78125 34.625 
z
M 21.921875 38.8125 
Q 15.578125 40.375 12.03125 44.71875 
Q 8.5 49.078125 8.5 55.328125 
Q 8.5 64.0625 14.71875 69.140625 
Q 20.953125 74.21875 31.78125 74.21875 
Q 42.671875 74.21875 48.875 69.140625 
Q 55.078125 64.0625 55.078125 55.328125 
Q 55.078125 49.078125 51.53125 44.71875 
Q 48 40.375 41.703125 38.8125 
Q 48.828125 37.15625 52.796875 32.3125 
Q 56.78125 27.484375 56.78125 20.515625 
Q 56.78125 9.90625 50.3125 4.234375 
Q 43.84375 -1.421875 31.78125 -1.421875 
Q 19.734375 -1.421875 13.25 4.234375 
Q 6.78125 9.90625 6.78125 20.515625 
Q 6.78125 27.484375 10.78125 32.3125 
Q 14.796875 37.15625 21.921875 38.8125 
z
M 18.3125 54.390625 
Q 18.3125 48.734375 21.84375 45.5625 
Q 25.390625 42.390625 31.78125 42.390625 
Q 38.140625 42.390625 41.71875 45.5625 
Q 45.3125 48.734375 45.3125 54.390625 
Q 45.3125 60.0625 41.71875 63.234375 
Q 38.140625 66.40625 31.78125 66.40625 
Q 25.390625 66.40625 21.84375 63.234375 
Q 18.3125 60.0625 18.3125 54.390625 
z
" id="DejaVuSans-56"/>
      </defs>
      <g transform="translate(907.31193 321.870438)scale(0.1 -0.1)">
       <use xlink:href="#DejaVuSans-8722"/>
       <use x="83.789062" xlink:href="#DejaVuSans-56"/>
      </g>
     </g>
    </g>
    <g id="ytick_15">
     <g id="line2d_36">
      <g>
       <use style="stroke:#000000;stroke-width:0.8;" x="929.054118" xlink:href="#m7bf2d729a7" y="290.345808"/>
      </g>
     </g>
     <g id="text_32">
      <!-- −7 -->
      <g transform="translate(907.31193 294.145027)scale(0.1 -0.1)">
       <use xlink:href="#DejaVuSans-8722"/>
       <use x="83.789062" xlink:href="#DejaVuSans-55"/>
      </g>
     </g>
    </g>
    <g id="ytick_16">
     <g id="line2d_37">
      <g>
       <use style="stroke:#000000;stroke-width:0.8;" x="929.054118" xlink:href="#m7bf2d729a7" y="262.620397"/>
      </g>
     </g>
     <g id="text_33">
      <!-- −6 -->
      <defs>
       <path d="M 33.015625 40.375 
Q 26.375 40.375 22.484375 35.828125 
Q 18.609375 31.296875 18.609375 23.390625 
Q 18.609375 15.53125 22.484375 10.953125 
Q 26.375 6.390625 33.015625 6.390625 
Q 39.65625 6.390625 43.53125 10.953125 
Q 47.40625 15.53125 47.40625 23.390625 
Q 47.40625 31.296875 43.53125 35.828125 
Q 39.65625 40.375 33.015625 40.375 
z
M 52.59375 71.296875 
L 52.59375 62.3125 
Q 48.875 64.0625 45.09375 64.984375 
Q 41.3125 65.921875 37.59375 65.921875 
Q 27.828125 65.921875 22.671875 59.328125 
Q 17.53125 52.734375 16.796875 39.40625 
Q 19.671875 43.65625 24.015625 45.921875 
Q 28.375 48.1875 33.59375 48.1875 
Q 44.578125 48.1875 50.953125 41.515625 
Q 57.328125 34.859375 57.328125 23.390625 
Q 57.328125 12.15625 50.6875 5.359375 
Q 44.046875 -1.421875 33.015625 -1.421875 
Q 20.359375 -1.421875 13.671875 8.265625 
Q 6.984375 17.96875 6.984375 36.375 
Q 6.984375 53.65625 15.1875 63.9375 
Q 23.390625 74.21875 37.203125 74.21875 
Q 40.921875 74.21875 44.703125 73.484375 
Q 48.484375 72.75 52.59375 71.296875 
z
" id="DejaVuSans-54"/>
      </defs>
      <g transform="translate(907.31193 266.419616)scale(0.1 -0.1)">
       <use xlink:href="#DejaVuSans-8722"/>
       <use x="83.789062" xlink:href="#DejaVuSans-54"/>
      </g>
     </g>
    </g>
    <g id="ytick_17">
     <g id="line2d_38">
      <g>
       <use style="stroke:#000000;stroke-width:0.8;" x="929.054118" xlink:href="#m7bf2d729a7" y="234.894986"/>
      </g>
     </g>
     <g id="text_34">
      <!-- −5 -->
      <g transform="translate(907.31193 238.694204)scale(0.1 -0.1)">
       <use xlink:href="#DejaVuSans-8722"/>
       <use x="83.789062" xlink:href="#DejaVuSans-53"/>
      </g>
     </g>
    </g>
    <g id="ytick_18">
     <g id="line2d_39">
      <g>
       <use style="stroke:#000000;stroke-width:0.8;" x="929.054118" xlink:href="#m7bf2d729a7" y="207.169574"/>
      </g>
     </g>
     <g id="text_35">
      <!-- −4 -->
      <g transform="translate(907.31193 210.968793)scale(0.1 -0.1)">
       <use xlink:href="#DejaVuSans-8722"/>
       <use x="83.789062" xlink:href="#DejaVuSans-52"/>
      </g>
     </g>
    </g>
    <g id="ytick_19">
     <g id="line2d_40">
      <g>
       <use style="stroke:#000000;stroke-width:0.8;" x="929.054118" xlink:href="#m7bf2d729a7" y="179.444163"/>
      </g>
     </g>
     <g id="text_36">
      <!-- −3 -->
      <g transform="translate(907.31193 183.243382)scale(0.1 -0.1)">
       <use xlink:href="#DejaVuSans-8722"/>
       <use x="83.789062" xlink:href="#DejaVuSans-51"/>
      </g>
     </g>
    </g>
    <g id="ytick_20">
     <g id="line2d_41">
      <g>
       <use style="stroke:#000000;stroke-width:0.8;" x="929.054118" xlink:href="#m7bf2d729a7" y="151.718752"/>
      </g>
     </g>
     <g id="text_37">
      <!-- −2 -->
      <g transform="translate(907.31193 155.517971)scale(0.1 -0.1)">
       <use xlink:href="#DejaVuSans-8722"/>
       <use x="83.789062" xlink:href="#DejaVuSans-50"/>
      </g>
     </g>
    </g>
    <g id="ytick_21">
     <g id="line2d_42">
      <g>
       <use style="stroke:#000000;stroke-width:0.8;" x="929.054118" xlink:href="#m7bf2d729a7" y="123.993341"/>
      </g>
     </g>
     <g id="text_38">
      <!-- −1 -->
      <g transform="translate(907.31193 127.79256)scale(0.1 -0.1)">
       <use xlink:href="#DejaVuSans-8722"/>
       <use x="83.789062" xlink:href="#DejaVuSans-49"/>
      </g>
     </g>
    </g>
    <g id="ytick_22">
     <g id="line2d_43">
      <g>
       <use style="stroke:#000000;stroke-width:0.8;" x="929.054118" xlink:href="#m7bf2d729a7" y="96.26793"/>
      </g>
     </g>
     <g id="text_39">
      <!-- 0 -->
      <g transform="translate(915.691618 100.067148)scale(0.1 -0.1)">
       <use xlink:href="#DejaVuSans-48"/>
      </g>
     </g>
    </g>
   </g>
   <g id="line2d_44">
    <path clip-path="url(#pb60811493e)" d="M 943.377112 96.191018 
L 945.835996 96.886963 
L 947.065437 96.843188 
L 948.294879 96.648711 
L 949.52432 96.790447 
L 950.753762 97.083503 
L 951.983204 97.013238 
L 953.212645 96.660127 
L 954.442087 96.627651 
L 956.90097 97.427393 
L 959.359853 97.11378 
L 961.818736 97.547498 
L 963.048178 97.329139 
L 964.27762 96.916058 
L 965.507061 96.960517 
L 966.736503 97.415236 
L 967.965944 97.614695 
L 969.195386 97.3879 
L 970.424828 97.302549 
L 972.883711 97.895376 
L 975.342594 97.46748 
L 976.572036 97.837833 
L 977.801477 98.500595 
L 979.030919 98.78025 
L 980.26036 98.741411 
L 981.489802 99.016492 
L 982.719244 99.657483 
L 983.948685 100.027646 
L 985.178127 99.934998 
L 986.407568 100.013153 
L 988.866452 101.436987 
L 990.095893 101.674461 
L 991.325335 101.711173 
L 992.554776 102.163069 
L 993.784218 102.82205 
L 995.01366 103.037671 
L 996.243101 102.876636 
L 997.472543 103.081255 
L 998.701984 103.82817 
L 999.931426 104.429938 
L 1002.390309 104.601736 
L 1004.849192 105.829153 
L 1006.078634 105.936381 
L 1007.308076 105.873876 
L 1008.537517 106.371512 
L 1009.766959 107.285989 
L 1010.9964 107.838195 
L 1012.225842 107.93198 
L 1013.455284 108.267796 
L 1014.684725 109.067536 
L 1015.914167 109.663749 
L 1018.37305 109.781331 
L 1019.602492 110.506918 
L 1020.831933 111.386189 
L 1022.061375 111.701487 
L 1023.290816 111.712747 
L 1024.520258 112.154043 
L 1025.7497 112.911153 
L 1026.979141 113.225592 
L 1028.208583 113.077796 
L 1029.438024 113.291435 
L 1031.896908 114.834066 
L 1034.355791 115.04014 
L 1036.814674 116.521317 
L 1038.044116 116.73191 
L 1039.273557 116.764472 
L 1040.502999 117.4425 
L 1041.73244 118.575215 
L 1042.961882 119.27289 
L 1044.191324 119.482692 
L 1045.420765 120.035897 
L 1046.650207 121.131265 
L 1047.879648 121.968823 
L 1049.10909 122.204761 
L 1050.338532 122.611375 
L 1052.797415 124.965917 
L 1054.026856 125.5038 
L 1055.256298 125.832818 
L 1056.48574 126.754129 
L 1057.715181 127.942403 
L 1058.944623 128.537279 
L 1060.174064 128.738875 
L 1061.403506 129.508319 
L 1062.632948 130.87115 
L 1063.862389 131.854375 
L 1065.091831 132.207566 
L 1066.321272 132.822834 
L 1067.550714 134.094655 
L 1068.780156 135.194499 
L 1071.239039 136.107729 
L 1073.697922 138.914707 
L 1074.927364 139.690837 
L 1076.156805 140.227936 
L 1077.386247 141.43916 
L 1078.615688 142.983873 
L 1079.84513 143.886663 
L 1081.074572 144.349484 
L 1082.304013 145.454703 
L 1083.533455 147.194106 
L 1084.762896 148.467599 
L 1085.992338 149.081461 
L 1087.22178 150.076008 
L 1088.451221 151.773358 
L 1089.680663 153.15411 
L 1090.910104 153.766359 
L 1092.139546 154.598015 
L 1094.598429 157.990653 
L 1097.057312 159.71213 
L 1099.516196 163.193265 
L 1100.745637 164.225442 
L 1101.975079 165.029324 
L 1103.20452 166.684003 
L 1104.433962 168.808253 
L 1105.663404 170.25315 
L 1106.892845 171.264628 
L 1108.122287 173.015942 
L 1109.351728 175.355205 
L 1110.58117 177.079074 
L 1111.810612 178.194446 
L 1113.040053 179.998229 
L 1114.269495 182.435819 
L 1115.498936 184.551696 
L 1116.728378 186.047804 
L 1117.95782 187.898053 
L 1120.416703 192.884993 
L 1122.875586 196.335772 
L 1125.334469 201.43507 
L 1127.793352 205.204813 
L 1131.481677 212.373542 
L 1132.711119 214.067992 
L 1133.94056 216.309834 
L 1135.170002 218.924098 
L 1136.399444 220.863621 
L 1137.628885 222.458119 
L 1138.858327 224.567996 
L 1140.087768 227.007263 
L 1141.31721 228.875101 
L 1142.546652 230.23584 
L 1143.776093 231.976048 
L 1145.005535 234.12782 
L 1146.234976 235.789007 
L 1147.464418 236.806864 
L 1148.69386 238.061661 
L 1149.923301 239.793319 
L 1151.152743 241.113365 
L 1153.611626 242.214833 
L 1154.841068 243.264331 
L 1156.070509 243.981702 
L 1157.299951 243.809126 
L 1158.529392 243.490395 
L 1159.758834 243.649147 
L 1160.988276 243.583251 
L 1162.217717 242.643255 
L 1163.447159 269.574677 
L 1164.6766 251.438656 
L 1165.906042 219.14485 
L 1167.135484 235.448209 
L 1168.364925 270.29302 
L 1169.594367 258.829663 
L 1170.823808 221.278278 
L 1172.05325 224.143964 
L 1173.282692 261.019463 
L 1174.512133 266.452123 
L 1175.741575 230.793441 
L 1176.971017 235.574985 
L 1178.200458 264.498075 
L 1179.4299 262.262969 
L 1180.659341 231.717503 
L 1181.888783 226.634105 
L 1183.118225 256.835565 
L 1184.347666 269.736713 
L 1185.577108 242.096315 
L 1186.806549 221.919217 
L 1189.265433 265.169037 
L 1190.494874 244.598495 
L 1191.724316 215.455328 
L 1192.953757 227.410083 
L 1194.183199 254.117109 
L 1195.412641 241.040197 
L 1196.642082 206.671085 
L 1197.871524 321.387382 
L 1199.100965 262.143715 
L 1200.330407 191.105601 
L 1201.559849 222.122439 
L 1202.78929 308.661202 
L 1204.018732 290.795536 
L 1205.248173 197.068713 
L 1206.477615 195.189992 
L 1207.707057 284.181046 
L 1208.936498 296.460227 
L 1210.16594 207.783043 
L 1211.395381 183.698971 
L 1212.624823 269.832469 
L 1213.854265 304.143226 
L 1215.083706 216.447829 
L 1216.313148 161.743124 
L 1217.542589 230.220495 
L 1218.772031 278.279195 
L 1220.001473 198.532312 
L 1221.230914 126.291854 
L 1222.460356 185.682049 
L 1223.689797 256.408532 
L 1224.919239 199.01066 
L 1226.148681 118.373245 
L 1227.378122 165.117117 
L 1228.607564 251.248826 
L 1229.837005 214.683755 
L 1229.837005 214.683755 
" style="fill:none;stroke:#ff796c;stroke-linecap:square;stroke-width:1.5;"/>
   </g>
   <g id="line2d_45">
    <path clip-path="url(#pb60811493e)" d="M 943.377112 114.673652 
L 1056.48574 114.568243 
L 1082.304013 114.221218 
L 1099.516196 113.762752 
L 1117.95782 113.051595 
L 1132.711119 112.278654 
L 1145.005535 111.395997 
L 1156.070509 110.37291 
L 1167.135484 109.098146 
L 1169.594367 108.781607 
L 1172.05325 108.538039 
L 1174.512133 108.192078 
L 1176.971017 107.935414 
L 1180.659341 107.477847 
L 1188.035991 106.445564 
L 1197.871524 104.870174 
L 1201.559849 104.660044 
L 1202.78929 104.426892 
L 1206.477615 104.13372 
L 1208.936498 103.590131 
L 1211.395381 103.225187 
L 1213.854265 102.489468 
L 1216.313148 102.071011 
L 1218.772031 101.29795 
L 1221.230914 100.865887 
L 1223.689797 100.053851 
L 1227.378122 99.269375 
L 1228.607564 98.893724 
L 1229.837005 98.70905 
L 1229.837005 98.70905 
" style="fill:none;stroke:#ffff14;stroke-linecap:square;stroke-width:1.5;"/>
   </g>
   <g id="line2d_46">
    <path clip-path="url(#pb60811493e)" d="M 943.377112 114.673648 
L 1039.273557 114.566006 
L 1065.091831 114.31615 
L 1084.762896 113.917654 
L 1101.975079 113.343501 
L 1116.728378 112.633597 
L 1130.252236 111.773464 
L 1143.776093 110.69017 
L 1157.299951 109.36898 
L 1169.594367 107.954468 
L 1181.888783 106.331464 
L 1195.412641 104.315094 
L 1208.936498 102.081429 
L 1223.689797 99.411474 
L 1229.837005 98.227748 
L 1229.837005 98.227748 
" style="fill:none;stroke:#014d4e;stroke-linecap:square;stroke-width:1.5;"/>
   </g>
   <g id="patch_13">
    <path d="M 929.054118 332.6472 
L 929.054118 84.9312 
" style="fill:none;stroke:#000000;stroke-linecap:square;stroke-linejoin:miter;stroke-width:0.8;"/>
   </g>
   <g id="patch_14">
    <path d="M 1244.16 332.6472 
L 1244.16 84.9312 
" style="fill:none;stroke:#000000;stroke-linecap:square;stroke-linejoin:miter;stroke-width:0.8;"/>
   </g>
   <g id="patch_15">
    <path d="M 929.054118 332.6472 
L 1244.16 332.6472 
" style="fill:none;stroke:#000000;stroke-linecap:square;stroke-linejoin:miter;stroke-width:0.8;"/>
   </g>
   <g id="patch_16">
    <path d="M 929.054118 84.9312 
L 1244.16 84.9312 
" style="fill:none;stroke:#000000;stroke-linecap:square;stroke-linejoin:miter;stroke-width:0.8;"/>
   </g>
   <g id="text_40">
    <!-- Lateral joint 2 -->
    <g transform="translate(1044.941746 78.9312)scale(0.12 -0.12)">
     <use xlink:href="#DejaVuSans-76"/>
     <use x="55.712891" xlink:href="#DejaVuSans-97"/>
     <use x="116.992188" xlink:href="#DejaVuSans-116"/>
     <use x="156.201172" xlink:href="#DejaVuSans-101"/>
     <use x="217.724609" xlink:href="#DejaVuSans-114"/>
     <use x="258.837891" xlink:href="#DejaVuSans-97"/>
     <use x="320.117188" xlink:href="#DejaVuSans-108"/>
     <use x="347.900391" xlink:href="#DejaVuSans-32"/>
     <use x="379.6875" xlink:href="#DejaVuSans-106"/>
     <use x="407.470703" xlink:href="#DejaVuSans-111"/>
     <use x="468.652344" xlink:href="#DejaVuSans-105"/>
     <use x="496.435547" xlink:href="#DejaVuSans-110"/>
     <use x="559.814453" xlink:href="#DejaVuSans-116"/>
     <use x="599.023438" xlink:href="#DejaVuSans-32"/>
     <use x="630.810547" xlink:href="#DejaVuSans-50"/>
    </g>
   </g>
  </g>
  <g id="axes_4">
   <g id="patch_17">
    <path d="M 172.8 629.9064 
L 487.905882 629.9064 
L 487.905882 382.1904 
L 172.8 382.1904 
z
" style="fill:#ffffff;"/>
   </g>
   <g id="matplotlib.axis_7">
    <g id="xtick_16">
     <g id="line2d_47">
      <g>
       <use style="stroke:#000000;stroke-width:0.8;" x="187.122995" xlink:href="#m7e84231d51" y="629.9064"/>
      </g>
     </g>
     <g id="text_41">
      <!-- 0 -->
      <g transform="translate(183.941745 644.504838)scale(0.1 -0.1)">
       <use xlink:href="#DejaVuSans-48"/>
      </g>
     </g>
    </g>
    <g id="xtick_17">
     <g id="line2d_48">
      <g>
       <use style="stroke:#000000;stroke-width:0.8;" x="248.595075" xlink:href="#m7e84231d51" y="629.9064"/>
      </g>
     </g>
     <g id="text_42">
      <!-- 50 -->
      <g transform="translate(242.232575 644.504838)scale(0.1 -0.1)">
       <use xlink:href="#DejaVuSans-53"/>
       <use x="63.623047" xlink:href="#DejaVuSans-48"/>
      </g>
     </g>
    </g>
    <g id="xtick_18">
     <g id="line2d_49">
      <g>
       <use style="stroke:#000000;stroke-width:0.8;" x="310.067155" xlink:href="#m7e84231d51" y="629.9064"/>
      </g>
     </g>
     <g id="text_43">
      <!-- 100 -->
      <g transform="translate(300.523405 644.504838)scale(0.1 -0.1)">
       <use xlink:href="#DejaVuSans-49"/>
       <use x="63.623047" xlink:href="#DejaVuSans-48"/>
       <use x="127.246094" xlink:href="#DejaVuSans-48"/>
      </g>
     </g>
    </g>
    <g id="xtick_19">
     <g id="line2d_50">
      <g>
       <use style="stroke:#000000;stroke-width:0.8;" x="371.539235" xlink:href="#m7e84231d51" y="629.9064"/>
      </g>
     </g>
     <g id="text_44">
      <!-- 150 -->
      <g transform="translate(361.995485 644.504838)scale(0.1 -0.1)">
       <use xlink:href="#DejaVuSans-49"/>
       <use x="63.623047" xlink:href="#DejaVuSans-53"/>
       <use x="127.246094" xlink:href="#DejaVuSans-48"/>
      </g>
     </g>
    </g>
    <g id="xtick_20">
     <g id="line2d_51">
      <g>
       <use style="stroke:#000000;stroke-width:0.8;" x="433.011315" xlink:href="#m7e84231d51" y="629.9064"/>
      </g>
     </g>
     <g id="text_45">
      <!-- 200 -->
      <g transform="translate(423.467565 644.504838)scale(0.1 -0.1)">
       <use xlink:href="#DejaVuSans-50"/>
       <use x="63.623047" xlink:href="#DejaVuSans-48"/>
       <use x="127.246094" xlink:href="#DejaVuSans-48"/>
      </g>
     </g>
    </g>
   </g>
   <g id="matplotlib.axis_8">
    <g id="ytick_23">
     <g id="line2d_52">
      <g>
       <use style="stroke:#000000;stroke-width:0.8;" x="172.8" xlink:href="#m7bf2d729a7" y="593.093423"/>
      </g>
     </g>
     <g id="text_46">
      <!-- −10 -->
      <g transform="translate(144.695312 596.892642)scale(0.1 -0.1)">
       <use xlink:href="#DejaVuSans-8722"/>
       <use x="83.789062" xlink:href="#DejaVuSans-49"/>
       <use x="147.412109" xlink:href="#DejaVuSans-48"/>
      </g>
     </g>
    </g>
    <g id="ytick_24">
     <g id="line2d_53">
      <g>
       <use style="stroke:#000000;stroke-width:0.8;" x="172.8" xlink:href="#m7bf2d729a7" y="553.177402"/>
      </g>
     </g>
     <g id="text_47">
      <!-- −8 -->
      <g transform="translate(151.057812 556.976621)scale(0.1 -0.1)">
       <use xlink:href="#DejaVuSans-8722"/>
       <use x="83.789062" xlink:href="#DejaVuSans-56"/>
      </g>
     </g>
    </g>
    <g id="ytick_25">
     <g id="line2d_54">
      <g>
       <use style="stroke:#000000;stroke-width:0.8;" x="172.8" xlink:href="#m7bf2d729a7" y="513.261381"/>
      </g>
     </g>
     <g id="text_48">
      <!-- −6 -->
      <g transform="translate(151.057812 517.060599)scale(0.1 -0.1)">
       <use xlink:href="#DejaVuSans-8722"/>
       <use x="83.789062" xlink:href="#DejaVuSans-54"/>
      </g>
     </g>
    </g>
    <g id="ytick_26">
     <g id="line2d_55">
      <g>
       <use style="stroke:#000000;stroke-width:0.8;" x="172.8" xlink:href="#m7bf2d729a7" y="473.345359"/>
      </g>
     </g>
     <g id="text_49">
      <!-- −4 -->
      <g transform="translate(151.057812 477.144578)scale(0.1 -0.1)">
       <use xlink:href="#DejaVuSans-8722"/>
       <use x="83.789062" xlink:href="#DejaVuSans-52"/>
      </g>
     </g>
    </g>
    <g id="ytick_27">
     <g id="line2d_56">
      <g>
       <use style="stroke:#000000;stroke-width:0.8;" x="172.8" xlink:href="#m7bf2d729a7" y="433.429338"/>
      </g>
     </g>
     <g id="text_50">
      <!-- −2 -->
      <g transform="translate(151.057812 437.228557)scale(0.1 -0.1)">
       <use xlink:href="#DejaVuSans-8722"/>
       <use x="83.789062" xlink:href="#DejaVuSans-50"/>
      </g>
     </g>
    </g>
    <g id="ytick_28">
     <g id="line2d_57">
      <g>
       <use style="stroke:#000000;stroke-width:0.8;" x="172.8" xlink:href="#m7bf2d729a7" y="393.513317"/>
      </g>
     </g>
     <g id="text_51">
      <!-- 0 -->
      <g transform="translate(159.4375 397.312536)scale(0.1 -0.1)">
       <use xlink:href="#DejaVuSans-48"/>
      </g>
     </g>
    </g>
   </g>
   <g id="line2d_58">
    <path clip-path="url(#p9e0de336c7)" d="M 187.122995 393.450218 
L 188.352436 393.705731 
L 189.581878 394.081429 
L 190.811319 394.28499 
L 194.499644 394.446251 
L 198.187969 394.070071 
L 200.646852 394.762014 
L 201.876294 394.876929 
L 205.564619 394.77548 
L 208.023502 394.092898 
L 209.252943 394.043367 
L 211.711827 394.478593 
L 216.629593 394.455993 
L 219.088476 394.088435 
L 220.317918 394.349816 
L 222.776801 395.296707 
L 225.235684 395.900106 
L 226.465126 396.290759 
L 227.694567 396.503438 
L 228.924009 396.527429 
L 230.153451 396.706709 
L 233.841775 398.388258 
L 237.5301 399.404394 
L 238.759542 399.482981 
L 239.988983 399.412514 
L 241.218425 399.582994 
L 243.677308 400.612281 
L 248.595075 401.793005 
L 251.053958 401.895847 
L 252.2834 402.299514 
L 254.742283 403.588885 
L 257.201166 404.358273 
L 258.430608 404.851372 
L 259.660049 405.185997 
L 262.118932 405.438143 
L 263.348374 405.967054 
L 264.577816 406.622467 
L 265.807257 407.02993 
L 268.26614 407.509211 
L 269.495582 407.819329 
L 270.725024 407.889231 
L 271.954465 407.783655 
L 273.183907 407.915298 
L 275.64279 408.904271 
L 279.331115 409.671029 
L 280.560556 410.034427 
L 283.01944 410.31644 
L 284.248881 410.857943 
L 285.478323 411.697555 
L 286.707764 412.396342 
L 289.166648 413.427277 
L 290.396089 414.160724 
L 291.625531 414.75901 
L 292.854972 415.128817 
L 294.084414 415.642734 
L 296.543297 417.540396 
L 297.772739 418.226031 
L 299.00218 418.759769 
L 301.461064 420.222265 
L 302.690505 420.703811 
L 303.919947 421.051075 
L 305.149388 421.711842 
L 307.608272 423.541139 
L 310.067155 424.713417 
L 312.526038 426.307205 
L 314.984921 427.367164 
L 318.673246 430.40808 
L 319.902688 431.145737 
L 323.591012 434.000154 
L 324.820454 434.629829 
L 326.049896 435.590631 
L 327.279337 436.87973 
L 328.508779 437.995605 
L 330.967662 439.755273 
L 332.197104 440.944237 
L 333.426545 441.955621 
L 335.885428 443.429996 
L 338.344312 445.930026 
L 340.803195 447.801152 
L 343.262078 450.342622 
L 345.720961 452.171414 
L 346.950403 453.483658 
L 348.179844 455.07698 
L 351.868169 459.197536 
L 353.097611 460.99698 
L 354.327052 462.528834 
L 355.556494 463.814794 
L 356.785936 465.452343 
L 359.244819 469.322699 
L 360.47426 471.014571 
L 361.703702 472.897793 
L 364.162585 477.243922 
L 366.621468 480.91902 
L 370.309793 487.398764 
L 371.539235 489.38964 
L 375.22756 496.086624 
L 376.457001 497.955444 
L 380.145326 504.197195 
L 381.374768 505.990638 
L 385.063092 512.092931 
L 387.521976 515.510414 
L 388.751417 517.415855 
L 389.980859 519.068212 
L 392.439742 521.826125 
L 393.669184 523.424146 
L 394.898625 524.800816 
L 398.58695 527.688745 
L 399.816392 528.441917 
L 401.045833 528.683191 
L 404.734158 528.86511 
L 405.9636 528.329245 
L 407.193041 540.853367 
L 408.422483 533.113179 
L 409.651924 518.95965 
L 410.881366 526.546094 
L 412.110808 542.842292 
L 413.340249 538.120432 
L 414.569691 521.424919 
L 415.799132 523.531997 
L 417.028574 541.587835 
L 418.258016 544.651448 
L 419.487457 527.739096 
L 420.716899 532.402961 
L 421.94634 547.938117 
L 423.175782 547.689528 
L 424.405224 533.217438 
L 425.634665 530.889159 
L 426.864107 545.911277 
L 428.093548 553.072303 
L 429.32299 541.053046 
L 430.552432 532.926659 
L 433.011315 556.628656 
L 434.240756 546.724206 
L 435.470198 531.658063 
L 436.69964 535.938681 
L 437.929081 547.050535 
L 439.158523 538.615131 
L 440.387964 519.998526 
L 441.617406 588.16578 
L 442.846848 571.030138 
L 444.076289 545.321125 
L 445.305731 565.041561 
L 446.535172 607.739475 
L 447.764614 596.223519 
L 448.994056 546.334186 
L 450.223497 542.457548 
L 451.452939 585.729704 
L 452.68238 594.338603 
L 453.911822 555.820014 
L 455.141264 550.431939 
L 456.370705 598.772746 
L 457.600147 618.646582 
L 458.829588 573.657785 
L 460.05903 540.218087 
L 461.288472 564.090429 
L 462.517913 575.788342 
L 463.747355 523.949131 
L 464.976796 478.040794 
L 466.206238 501.5665 
L 467.43568 535.001681 
L 468.665121 508.097315 
L 469.894563 472.348911 
L 471.124004 501.874535 
L 472.353446 550.766666 
L 473.582888 536.022518 
L 473.582888 536.022518 
" style="fill:none;stroke:#ff796c;stroke-linecap:square;stroke-width:1.5;"/>
   </g>
   <g id="line2d_59">
    <path clip-path="url(#p9e0de336c7)" d="M 187.122995 406.765343 
L 238.759542 406.657296 
L 289.166648 406.448733 
L 340.803195 405.789104 
L 358.015377 405.34856 
L 405.9636 403.864779 
L 412.110808 403.801472 
L 429.32299 403.330224 
L 442.846848 403.073145 
L 446.535172 402.646546 
L 450.223497 401.942242 
L 452.68238 401.886456 
L 455.141264 402.087833 
L 457.600147 402.416847 
L 460.05903 402.397087 
L 462.517913 402.22789 
L 464.976796 402.004107 
L 467.43568 402.156282 
L 473.582888 402.793768 
L 473.582888 402.793768 
" style="fill:none;stroke:#ffff14;stroke-linecap:square;stroke-width:1.5;"/>
   </g>
   <g id="line2d_60">
    <path clip-path="url(#p9e0de336c7)" d="M 187.122995 406.765337 
L 321.132129 406.655828 
L 358.015377 406.38946 
L 387.521976 405.955105 
L 414.569691 405.330877 
L 441.617406 404.473704 
L 471.124004 403.306415 
L 473.582888 403.198318 
L 473.582888 403.198318 
" style="fill:none;stroke:#014d4e;stroke-linecap:square;stroke-width:1.5;"/>
   </g>
   <g id="patch_18">
    <path d="M 172.8 629.9064 
L 172.8 382.1904 
" style="fill:none;stroke:#000000;stroke-linecap:square;stroke-linejoin:miter;stroke-width:0.8;"/>
   </g>
   <g id="patch_19">
    <path d="M 487.905882 629.9064 
L 487.905882 382.1904 
" style="fill:none;stroke:#000000;stroke-linecap:square;stroke-linejoin:miter;stroke-width:0.8;"/>
   </g>
   <g id="patch_20">
    <path d="M 172.8 629.9064 
L 487.905882 629.9064 
" style="fill:none;stroke:#000000;stroke-linecap:square;stroke-linejoin:miter;stroke-width:0.8;"/>
   </g>
   <g id="patch_21">
    <path d="M 172.8 382.1904 
L 487.905882 382.1904 
" style="fill:none;stroke:#000000;stroke-linecap:square;stroke-linejoin:miter;stroke-width:0.8;"/>
   </g>
   <g id="text_52">
    <!-- Lateral joint 3 -->
    <g transform="translate(288.687629 376.1904)scale(0.12 -0.12)">
     <use xlink:href="#DejaVuSans-76"/>
     <use x="55.712891" xlink:href="#DejaVuSans-97"/>
     <use x="116.992188" xlink:href="#DejaVuSans-116"/>
     <use x="156.201172" xlink:href="#DejaVuSans-101"/>
     <use x="217.724609" xlink:href="#DejaVuSans-114"/>
     <use x="258.837891" xlink:href="#DejaVuSans-97"/>
     <use x="320.117188" xlink:href="#DejaVuSans-108"/>
     <use x="347.900391" xlink:href="#DejaVuSans-32"/>
     <use x="379.6875" xlink:href="#DejaVuSans-106"/>
     <use x="407.470703" xlink:href="#DejaVuSans-111"/>
     <use x="468.652344" xlink:href="#DejaVuSans-105"/>
     <use x="496.435547" xlink:href="#DejaVuSans-110"/>
     <use x="559.814453" xlink:href="#DejaVuSans-116"/>
     <use x="599.023438" xlink:href="#DejaVuSans-32"/>
     <use x="630.810547" xlink:href="#DejaVuSans-51"/>
    </g>
   </g>
  </g>
  <g id="axes_5">
   <g id="patch_22">
    <path d="M 550.927059 629.9064 
L 866.032941 629.9064 
L 866.032941 382.1904 
L 550.927059 382.1904 
z
" style="fill:#ffffff;"/>
   </g>
   <g id="matplotlib.axis_9">
    <g id="xtick_21">
     <g id="line2d_61">
      <g>
       <use style="stroke:#000000;stroke-width:0.8;" x="565.250053" xlink:href="#m7e84231d51" y="629.9064"/>
      </g>
     </g>
     <g id="text_53">
      <!-- 0 -->
      <g transform="translate(562.068803 644.504838)scale(0.1 -0.1)">
       <use xlink:href="#DejaVuSans-48"/>
      </g>
     </g>
    </g>
    <g id="xtick_22">
     <g id="line2d_62">
      <g>
       <use style="stroke:#000000;stroke-width:0.8;" x="626.722134" xlink:href="#m7e84231d51" y="629.9064"/>
      </g>
     </g>
     <g id="text_54">
      <!-- 50 -->
      <g transform="translate(620.359634 644.504838)scale(0.1 -0.1)">
       <use xlink:href="#DejaVuSans-53"/>
       <use x="63.623047" xlink:href="#DejaVuSans-48"/>
      </g>
     </g>
    </g>
    <g id="xtick_23">
     <g id="line2d_63">
      <g>
       <use style="stroke:#000000;stroke-width:0.8;" x="688.194214" xlink:href="#m7e84231d51" y="629.9064"/>
      </g>
     </g>
     <g id="text_55">
      <!-- 100 -->
      <g transform="translate(678.650464 644.504838)scale(0.1 -0.1)">
       <use xlink:href="#DejaVuSans-49"/>
       <use x="63.623047" xlink:href="#DejaVuSans-48"/>
       <use x="127.246094" xlink:href="#DejaVuSans-48"/>
      </g>
     </g>
    </g>
    <g id="xtick_24">
     <g id="line2d_64">
      <g>
       <use style="stroke:#000000;stroke-width:0.8;" x="749.666294" xlink:href="#m7e84231d51" y="629.9064"/>
      </g>
     </g>
     <g id="text_56">
      <!-- 150 -->
      <g transform="translate(740.122544 644.504838)scale(0.1 -0.1)">
       <use xlink:href="#DejaVuSans-49"/>
       <use x="63.623047" xlink:href="#DejaVuSans-53"/>
       <use x="127.246094" xlink:href="#DejaVuSans-48"/>
      </g>
     </g>
    </g>
    <g id="xtick_25">
     <g id="line2d_65">
      <g>
       <use style="stroke:#000000;stroke-width:0.8;" x="811.138374" xlink:href="#m7e84231d51" y="629.9064"/>
      </g>
     </g>
     <g id="text_57">
      <!-- 200 -->
      <g transform="translate(801.594624 644.504838)scale(0.1 -0.1)">
       <use xlink:href="#DejaVuSans-50"/>
       <use x="63.623047" xlink:href="#DejaVuSans-48"/>
       <use x="127.246094" xlink:href="#DejaVuSans-48"/>
      </g>
     </g>
    </g>
   </g>
   <g id="matplotlib.axis_10">
    <g id="ytick_29">
     <g id="line2d_66">
      <g>
       <use style="stroke:#000000;stroke-width:0.8;" x="550.927059" xlink:href="#m7bf2d729a7" y="590.874623"/>
      </g>
     </g>
     <g id="text_58">
      <!-- −8 -->
      <g transform="translate(529.184871 594.673841)scale(0.1 -0.1)">
       <use xlink:href="#DejaVuSans-8722"/>
       <use x="83.789062" xlink:href="#DejaVuSans-56"/>
      </g>
     </g>
    </g>
    <g id="ytick_30">
     <g id="line2d_67">
      <g>
       <use style="stroke:#000000;stroke-width:0.8;" x="550.927059" xlink:href="#m7bf2d729a7" y="541.537046"/>
      </g>
     </g>
     <g id="text_59">
      <!-- −6 -->
      <g transform="translate(529.184871 545.336265)scale(0.1 -0.1)">
       <use xlink:href="#DejaVuSans-8722"/>
       <use x="83.789062" xlink:href="#DejaVuSans-54"/>
      </g>
     </g>
    </g>
    <g id="ytick_31">
     <g id="line2d_68">
      <g>
       <use style="stroke:#000000;stroke-width:0.8;" x="550.927059" xlink:href="#m7bf2d729a7" y="492.199469"/>
      </g>
     </g>
     <g id="text_60">
      <!-- −4 -->
      <g transform="translate(529.184871 495.998688)scale(0.1 -0.1)">
       <use xlink:href="#DejaVuSans-8722"/>
       <use x="83.789062" xlink:href="#DejaVuSans-52"/>
      </g>
     </g>
    </g>
    <g id="ytick_32">
     <g id="line2d_69">
      <g>
       <use style="stroke:#000000;stroke-width:0.8;" x="550.927059" xlink:href="#m7bf2d729a7" y="442.861893"/>
      </g>
     </g>
     <g id="text_61">
      <!-- −2 -->
      <g transform="translate(529.184871 446.661111)scale(0.1 -0.1)">
       <use xlink:href="#DejaVuSans-8722"/>
       <use x="83.789062" xlink:href="#DejaVuSans-50"/>
      </g>
     </g>
    </g>
    <g id="ytick_33">
     <g id="line2d_70">
      <g>
       <use style="stroke:#000000;stroke-width:0.8;" x="550.927059" xlink:href="#m7bf2d729a7" y="393.524316"/>
      </g>
     </g>
     <g id="text_62">
      <!-- 0 -->
      <g transform="translate(537.564559 397.323535)scale(0.1 -0.1)">
       <use xlink:href="#DejaVuSans-48"/>
      </g>
     </g>
    </g>
   </g>
   <g id="line2d_71">
    <path clip-path="url(#p237f912e2a)" d="M 565.250053 393.450218 
L 566.479495 393.743395 
L 568.938378 394.612576 
L 570.16782 394.770314 
L 571.397261 394.732929 
L 572.626703 394.501769 
L 575.085586 393.765511 
L 576.315028 393.731714 
L 577.544469 394.062564 
L 578.773911 394.509391 
L 580.003353 394.806451 
L 581.232794 394.891694 
L 582.462236 394.799192 
L 583.691677 394.512847 
L 586.150561 393.688761 
L 587.380002 393.661499 
L 591.068327 394.568264 
L 592.297769 394.641258 
L 593.52721 394.580775 
L 594.756652 394.339259 
L 595.986094 393.983137 
L 597.215535 393.790283 
L 598.444977 393.99241 
L 602.133302 395.420898 
L 603.362743 395.696034 
L 604.592185 395.836208 
L 608.28051 395.698145 
L 609.509951 396.148606 
L 611.968834 397.405368 
L 613.198276 397.836564 
L 614.427718 398.144366 
L 615.657159 398.271168 
L 618.116042 398.045914 
L 619.345484 398.18466 
L 624.26325 400.108257 
L 625.492692 400.346182 
L 626.722134 400.415604 
L 629.181017 400.280333 
L 630.410458 400.591499 
L 632.869342 401.834196 
L 634.098783 402.292406 
L 636.557666 402.842325 
L 637.787108 402.873028 
L 639.01655 402.771834 
L 640.245991 402.826478 
L 641.475433 403.2327 
L 643.934316 404.316152 
L 646.393199 404.80233 
L 647.622641 404.88073 
L 650.081524 404.634738 
L 651.310966 404.757807 
L 654.99929 406.155294 
L 657.458174 406.59797 
L 658.687615 406.702857 
L 661.146498 406.753564 
L 662.37594 407.186088 
L 664.834823 408.576894 
L 667.293706 409.492526 
L 668.523148 409.896316 
L 672.211473 410.792239 
L 673.440914 411.553104 
L 674.670356 412.446524 
L 675.899798 413.177412 
L 679.588122 414.781532 
L 682.047006 415.415862 
L 683.276447 416.016658 
L 685.73533 417.742188 
L 688.194214 418.943124 
L 690.653097 419.979173 
L 691.882538 420.301307 
L 693.11198 420.771591 
L 694.341422 421.596619 
L 695.570863 422.57611 
L 698.029746 424.10968 
L 700.48863 425.573547 
L 702.947513 426.610592 
L 704.176954 427.390704 
L 706.635838 429.483872 
L 711.553604 432.822547 
L 712.783046 433.358991 
L 714.012487 434.017293 
L 721.389137 439.872495 
L 723.84802 441.307824 
L 725.077462 442.353873 
L 727.536345 444.936398 
L 728.765786 446.143128 
L 732.454111 450.290214 
L 733.683553 451.407071 
L 734.912994 452.778303 
L 739.830761 459.477846 
L 742.289644 463.265479 
L 744.748527 466.494008 
L 749.666294 473.979776 
L 753.354618 480.090472 
L 755.813502 483.616548 
L 758.272385 487.264755 
L 759.501826 488.976168 
L 763.190151 494.742439 
L 768.107918 501.07958 
L 770.566801 503.568624 
L 773.025684 506.224036 
L 775.484567 508.076576 
L 776.714009 508.934475 
L 777.94345 509.529174 
L 779.172892 509.708539 
L 781.631775 509.720144 
L 782.861217 509.582192 
L 784.090658 509.107393 
L 785.3201 518.11763 
L 786.549542 514.398219 
L 787.778983 506.584281 
L 789.008425 511.311388 
L 790.237866 521.581162 
L 791.467308 518.54089 
L 792.69675 507.921439 
L 793.926191 509.277122 
L 795.155633 520.61846 
L 796.385074 522.034295 
L 797.614516 510.333574 
L 798.843958 515.963066 
L 800.073399 527.251582 
L 801.302841 527.195369 
L 802.532282 517.250328 
L 803.761724 514.98862 
L 804.991166 524.444507 
L 806.220607 529.941072 
L 807.450049 524.190441 
L 808.67949 521.364435 
L 809.908932 531.015836 
L 811.138374 539.322249 
L 812.367815 532.267635 
L 813.597257 520.296278 
L 814.826698 519.495256 
L 816.05614 522.713372 
L 817.285582 514.014456 
L 818.515023 499.986147 
L 819.744465 559.820523 
L 820.973906 565.041871 
L 822.203348 559.341702 
L 823.43279 573.455083 
L 824.662231 594.090029 
L 825.891673 576.222224 
L 827.121115 533.564933 
L 828.350556 522.35165 
L 829.579998 546.285594 
L 830.809439 555.925987 
L 832.038881 542.645436 
L 833.268323 553.436796 
L 834.497764 597.143305 
L 835.727206 618.646582 
L 838.186089 564.547104 
L 839.415531 565.744773 
L 840.644972 555.694049 
L 841.874414 506.13851 
L 843.103855 464.466566 
L 844.333297 473.37572 
L 845.562739 496.319598 
L 846.79218 488.047662 
L 848.021622 478.766933 
L 849.251063 512.067431 
L 850.480505 555.095743 
L 851.709947 552.028354 
L 851.709947 552.028354 
" style="fill:none;stroke:#ff796c;stroke-linecap:square;stroke-width:1.5;"/>
   </g>
   <g id="line2d_72">
    <path clip-path="url(#p237f912e2a)" d="M 565.250053 403.642364 
L 586.150561 403.748862 
L 639.01655 404.022862 
L 674.670356 404.390463 
L 702.947513 404.682208 
L 736.142436 405.398525 
L 758.272385 405.804844 
L 774.255126 405.847377 
L 782.861217 405.683592 
L 791.467308 405.251039 
L 800.073399 404.746484 
L 804.991166 404.269885 
L 816.05614 402.946155 
L 818.515023 402.612409 
L 820.973906 402.084443 
L 822.203348 401.915396 
L 823.43279 401.906616 
L 825.891673 402.275481 
L 828.350556 402.694105 
L 829.579998 402.767795 
L 830.809439 402.697672 
L 835.727206 401.913149 
L 836.956647 401.957466 
L 838.186089 402.185644 
L 843.103855 403.674406 
L 844.333297 403.796249 
L 845.562739 403.737151 
L 846.79218 403.510155 
L 850.480505 402.47062 
L 851.709947 402.26716 
L 851.709947 402.26716 
" style="fill:none;stroke:#ffff14;stroke-linecap:square;stroke-width:1.5;"/>
   </g>
   <g id="line2d_73">
    <path clip-path="url(#p237f912e2a)" d="M 565.250053 403.64224 
L 754.58406 403.532532 
L 820.973906 403.243966 
L 851.709947 403.038621 
L 851.709947 403.038621 
" style="fill:none;stroke:#014d4e;stroke-linecap:square;stroke-width:1.5;"/>
   </g>
   <g id="patch_23">
    <path d="M 550.927059 629.9064 
L 550.927059 382.1904 
" style="fill:none;stroke:#000000;stroke-linecap:square;stroke-linejoin:miter;stroke-width:0.8;"/>
   </g>
   <g id="patch_24">
    <path d="M 866.032941 629.9064 
L 866.032941 382.1904 
" style="fill:none;stroke:#000000;stroke-linecap:square;stroke-linejoin:miter;stroke-width:0.8;"/>
   </g>
   <g id="patch_25">
    <path d="M 550.927059 629.9064 
L 866.032941 629.9064 
" style="fill:none;stroke:#000000;stroke-linecap:square;stroke-linejoin:miter;stroke-width:0.8;"/>
   </g>
   <g id="patch_26">
    <path d="M 550.927059 382.1904 
L 866.032941 382.1904 
" style="fill:none;stroke:#000000;stroke-linecap:square;stroke-linejoin:miter;stroke-width:0.8;"/>
   </g>
   <g id="text_63">
    <!-- Lateral joint 4 -->
    <g transform="translate(666.814687 376.1904)scale(0.12 -0.12)">
     <use xlink:href="#DejaVuSans-76"/>
     <use x="55.712891" xlink:href="#DejaVuSans-97"/>
     <use x="116.992188" xlink:href="#DejaVuSans-116"/>
     <use x="156.201172" xlink:href="#DejaVuSans-101"/>
     <use x="217.724609" xlink:href="#DejaVuSans-114"/>
     <use x="258.837891" xlink:href="#DejaVuSans-97"/>
     <use x="320.117188" xlink:href="#DejaVuSans-108"/>
     <use x="347.900391" xlink:href="#DejaVuSans-32"/>
     <use x="379.6875" xlink:href="#DejaVuSans-106"/>
     <use x="407.470703" xlink:href="#DejaVuSans-111"/>
     <use x="468.652344" xlink:href="#DejaVuSans-105"/>
     <use x="496.435547" xlink:href="#DejaVuSans-110"/>
     <use x="559.814453" xlink:href="#DejaVuSans-116"/>
     <use x="599.023438" xlink:href="#DejaVuSans-32"/>
     <use x="630.810547" xlink:href="#DejaVuSans-52"/>
    </g>
   </g>
  </g>
  <g id="axes_6">
   <g id="patch_27">
    <path d="M 929.054118 629.9064 
L 1244.16 629.9064 
L 1244.16 382.1904 
L 929.054118 382.1904 
z
" style="fill:#ffffff;"/>
   </g>
   <g id="matplotlib.axis_11">
    <g id="xtick_26">
     <g id="line2d_74">
      <g>
       <use style="stroke:#000000;stroke-width:0.8;" x="929.054118" xlink:href="#m7e84231d51" y="629.9064"/>
      </g>
     </g>
     <g id="text_64">
      <!-- 0.0 -->
      <g transform="translate(921.102555 644.504838)scale(0.1 -0.1)">
       <use xlink:href="#DejaVuSans-48"/>
       <use x="63.623047" xlink:href="#DejaVuSans-46"/>
       <use x="95.410156" xlink:href="#DejaVuSans-48"/>
      </g>
     </g>
    </g>
    <g id="xtick_27">
     <g id="line2d_75">
      <g>
       <use style="stroke:#000000;stroke-width:0.8;" x="992.075294" xlink:href="#m7e84231d51" y="629.9064"/>
      </g>
     </g>
     <g id="text_65">
      <!-- 0.2 -->
      <g transform="translate(984.123732 644.504838)scale(0.1 -0.1)">
       <use xlink:href="#DejaVuSans-48"/>
       <use x="63.623047" xlink:href="#DejaVuSans-46"/>
       <use x="95.410156" xlink:href="#DejaVuSans-50"/>
      </g>
     </g>
    </g>
    <g id="xtick_28">
     <g id="line2d_76">
      <g>
       <use style="stroke:#000000;stroke-width:0.8;" x="1055.096471" xlink:href="#m7e84231d51" y="629.9064"/>
      </g>
     </g>
     <g id="text_66">
      <!-- 0.4 -->
      <g transform="translate(1047.144908 644.504838)scale(0.1 -0.1)">
       <use xlink:href="#DejaVuSans-48"/>
       <use x="63.623047" xlink:href="#DejaVuSans-46"/>
       <use x="95.410156" xlink:href="#DejaVuSans-52"/>
      </g>
     </g>
    </g>
    <g id="xtick_29">
     <g id="line2d_77">
      <g>
       <use style="stroke:#000000;stroke-width:0.8;" x="1118.117647" xlink:href="#m7e84231d51" y="629.9064"/>
      </g>
     </g>
     <g id="text_67">
      <!-- 0.6 -->
      <g transform="translate(1110.166085 644.504838)scale(0.1 -0.1)">
       <use xlink:href="#DejaVuSans-48"/>
       <use x="63.623047" xlink:href="#DejaVuSans-46"/>
       <use x="95.410156" xlink:href="#DejaVuSans-54"/>
      </g>
     </g>
    </g>
    <g id="xtick_30">
     <g id="line2d_78">
      <g>
       <use style="stroke:#000000;stroke-width:0.8;" x="1181.138824" xlink:href="#m7e84231d51" y="629.9064"/>
      </g>
     </g>
     <g id="text_68">
      <!-- 0.8 -->
      <g transform="translate(1173.187261 644.504838)scale(0.1 -0.1)">
       <use xlink:href="#DejaVuSans-48"/>
       <use x="63.623047" xlink:href="#DejaVuSans-46"/>
       <use x="95.410156" xlink:href="#DejaVuSans-56"/>
      </g>
     </g>
    </g>
    <g id="xtick_31">
     <g id="line2d_79">
      <g>
       <use style="stroke:#000000;stroke-width:0.8;" x="1244.16" xlink:href="#m7e84231d51" y="629.9064"/>
      </g>
     </g>
     <g id="text_69">
      <!-- 1.0 -->
      <g transform="translate(1236.208438 644.504838)scale(0.1 -0.1)">
       <use xlink:href="#DejaVuSans-49"/>
       <use x="63.623047" xlink:href="#DejaVuSans-46"/>
       <use x="95.410156" xlink:href="#DejaVuSans-48"/>
      </g>
     </g>
    </g>
   </g>
   <g id="matplotlib.axis_12">
    <g id="ytick_34">
     <g id="line2d_80">
      <g>
       <use style="stroke:#000000;stroke-width:0.8;" x="929.054118" xlink:href="#m7bf2d729a7" y="629.9064"/>
      </g>
     </g>
     <g id="text_70">
      <!-- 0.0 -->
      <g transform="translate(906.150993 633.705619)scale(0.1 -0.1)">
       <use xlink:href="#DejaVuSans-48"/>
       <use x="63.623047" xlink:href="#DejaVuSans-46"/>
       <use x="95.410156" xlink:href="#DejaVuSans-48"/>
      </g>
     </g>
    </g>
    <g id="ytick_35">
     <g id="line2d_81">
      <g>
       <use style="stroke:#000000;stroke-width:0.8;" x="929.054118" xlink:href="#m7bf2d729a7" y="580.3632"/>
      </g>
     </g>
     <g id="text_71">
      <!-- 0.2 -->
      <g transform="translate(906.150993 584.162419)scale(0.1 -0.1)">
       <use xlink:href="#DejaVuSans-48"/>
       <use x="63.623047" xlink:href="#DejaVuSans-46"/>
       <use x="95.410156" xlink:href="#DejaVuSans-50"/>
      </g>
     </g>
    </g>
    <g id="ytick_36">
     <g id="line2d_82">
      <g>
       <use style="stroke:#000000;stroke-width:0.8;" x="929.054118" xlink:href="#m7bf2d729a7" y="530.82"/>
      </g>
     </g>
     <g id="text_72">
      <!-- 0.4 -->
      <g transform="translate(906.150993 534.619219)scale(0.1 -0.1)">
       <use xlink:href="#DejaVuSans-48"/>
       <use x="63.623047" xlink:href="#DejaVuSans-46"/>
       <use x="95.410156" xlink:href="#DejaVuSans-52"/>
      </g>
     </g>
    </g>
    <g id="ytick_37">
     <g id="line2d_83">
      <g>
       <use style="stroke:#000000;stroke-width:0.8;" x="929.054118" xlink:href="#m7bf2d729a7" y="481.2768"/>
      </g>
     </g>
     <g id="text_73">
      <!-- 0.6 -->
      <g transform="translate(906.150993 485.076019)scale(0.1 -0.1)">
       <use xlink:href="#DejaVuSans-48"/>
       <use x="63.623047" xlink:href="#DejaVuSans-46"/>
       <use x="95.410156" xlink:href="#DejaVuSans-54"/>
      </g>
     </g>
    </g>
    <g id="ytick_38">
     <g id="line2d_84">
      <g>
       <use style="stroke:#000000;stroke-width:0.8;" x="929.054118" xlink:href="#m7bf2d729a7" y="431.7336"/>
      </g>
     </g>
     <g id="text_74">
      <!-- 0.8 -->
      <g transform="translate(906.150993 435.532819)scale(0.1 -0.1)">
       <use xlink:href="#DejaVuSans-48"/>
       <use x="63.623047" xlink:href="#DejaVuSans-46"/>
       <use x="95.410156" xlink:href="#DejaVuSans-56"/>
      </g>
     </g>
    </g>
    <g id="ytick_39">
     <g id="line2d_85">
      <g>
       <use style="stroke:#000000;stroke-width:0.8;" x="929.054118" xlink:href="#m7bf2d729a7" y="382.1904"/>
      </g>
     </g>
     <g id="text_75">
      <!-- 1.0 -->
      <g transform="translate(906.150993 385.989619)scale(0.1 -0.1)">
       <use xlink:href="#DejaVuSans-49"/>
       <use x="63.623047" xlink:href="#DejaVuSans-46"/>
       <use x="95.410156" xlink:href="#DejaVuSans-48"/>
      </g>
     </g>
    </g>
   </g>
   <g id="patch_28">
    <path d="M 929.054118 629.9064 
L 929.054118 382.1904 
" style="fill:none;stroke:#000000;stroke-linecap:square;stroke-linejoin:miter;stroke-width:0.8;"/>
   </g>
   <g id="patch_29">
    <path d="M 1244.16 629.9064 
L 1244.16 382.1904 
" style="fill:none;stroke:#000000;stroke-linecap:square;stroke-linejoin:miter;stroke-width:0.8;"/>
   </g>
   <g id="patch_30">
    <path d="M 929.054118 629.9064 
L 1244.16 629.9064 
" style="fill:none;stroke:#000000;stroke-linecap:square;stroke-linejoin:miter;stroke-width:0.8;"/>
   </g>
   <g id="patch_31">
    <path d="M 929.054118 382.1904 
L 1244.16 382.1904 
" style="fill:none;stroke:#000000;stroke-linecap:square;stroke-linejoin:miter;stroke-width:0.8;"/>
   </g>
  </g>
  <g id="legend_1">
   <g id="patch_32">
    <path d="M 1308.251562 377.53625 
L 1375.4 377.53625 
Q 1377.4 377.53625 1377.4 375.53625 
L 1377.4 332.22375 
Q 1377.4 330.22375 1375.4 330.22375 
L 1308.251562 330.22375 
Q 1306.251562 330.22375 1306.251562 332.22375 
L 1306.251562 375.53625 
Q 1306.251562 377.53625 1308.251562 377.53625 
z
" style="fill:#ffffff;opacity:0.8;stroke:#cccccc;stroke-linejoin:miter;"/>
   </g>
   <g id="line2d_86">
    <path d="M 1310.251562 338.322187 
L 1330.251562 338.322187 
" style="fill:none;stroke:#ff796c;stroke-linecap:square;stroke-width:1.5;"/>
   </g>
   <g id="line2d_87"/>
   <g id="text_76">
    <!-- Torque -->
    <defs>
     <path d="M -0.296875 72.90625 
L 61.375 72.90625 
L 61.375 64.59375 
L 35.5 64.59375 
L 35.5 0 
L 25.59375 0 
L 25.59375 64.59375 
L -0.296875 64.59375 
z
" id="DejaVuSans-84"/>
     <path d="M 14.796875 27.296875 
Q 14.796875 17.390625 18.875 11.75 
Q 22.953125 6.109375 30.078125 6.109375 
Q 37.203125 6.109375 41.296875 11.75 
Q 45.40625 17.390625 45.40625 27.296875 
Q 45.40625 37.203125 41.296875 42.84375 
Q 37.203125 48.484375 30.078125 48.484375 
Q 22.953125 48.484375 18.875 42.84375 
Q 14.796875 37.203125 14.796875 27.296875 
z
M 45.40625 8.203125 
Q 42.578125 3.328125 38.25 0.953125 
Q 33.9375 -1.421875 27.875 -1.421875 
Q 17.96875 -1.421875 11.734375 6.484375 
Q 5.515625 14.40625 5.515625 27.296875 
Q 5.515625 40.1875 11.734375 48.09375 
Q 17.96875 56 27.875 56 
Q 33.9375 56 38.25 53.625 
Q 42.578125 51.265625 45.40625 46.390625 
L 45.40625 54.6875 
L 54.390625 54.6875 
L 54.390625 -20.796875 
L 45.40625 -20.796875 
z
" id="DejaVuSans-113"/>
     <path d="M 8.5 21.578125 
L 8.5 54.6875 
L 17.484375 54.6875 
L 17.484375 21.921875 
Q 17.484375 14.15625 20.5 10.265625 
Q 23.53125 6.390625 29.59375 6.390625 
Q 36.859375 6.390625 41.078125 11.03125 
Q 45.3125 15.671875 45.3125 23.6875 
L 45.3125 54.6875 
L 54.296875 54.6875 
L 54.296875 0 
L 45.3125 0 
L 45.3125 8.40625 
Q 42.046875 3.421875 37.71875 1 
Q 33.40625 -1.421875 27.6875 -1.421875 
Q 18.265625 -1.421875 13.375 4.4375 
Q 8.5 10.296875 8.5 21.578125 
z
M 31.109375 56 
z
" id="DejaVuSans-117"/>
    </defs>
    <g transform="translate(1338.251562 341.822187)scale(0.1 -0.1)">
     <use xlink:href="#DejaVuSans-84"/>
     <use x="60.818359" xlink:href="#DejaVuSans-111"/>
     <use x="122" xlink:href="#DejaVuSans-114"/>
     <use x="163.097656" xlink:href="#DejaVuSans-113"/>
     <use x="226.574219" xlink:href="#DejaVuSans-117"/>
     <use x="289.953125" xlink:href="#DejaVuSans-101"/>
    </g>
   </g>
   <g id="line2d_88">
    <path d="M 1310.251562 353.000313 
L 1330.251562 353.000313 
" style="fill:none;stroke:#ffff14;stroke-linecap:square;stroke-width:1.5;"/>
   </g>
   <g id="line2d_89"/>
   <g id="text_77">
    <!-- q -->
    <g transform="translate(1338.251562 356.500313)scale(0.1 -0.1)">
     <use xlink:href="#DejaVuSans-113"/>
    </g>
   </g>
   <g id="line2d_90">
    <path d="M 1310.251562 367.678437 
L 1330.251562 367.678437 
" style="fill:none;stroke:#014d4e;stroke-linecap:square;stroke-width:1.5;"/>
   </g>
   <g id="line2d_91"/>
   <g id="text_78">
    <!-- q_des -->
    <defs>
     <path d="M 50.984375 -16.609375 
L 50.984375 -23.578125 
L -0.984375 -23.578125 
L -0.984375 -16.609375 
z
" id="DejaVuSans-95"/>
     <path d="M 45.40625 46.390625 
L 45.40625 75.984375 
L 54.390625 75.984375 
L 54.390625 0 
L 45.40625 0 
L 45.40625 8.203125 
Q 42.578125 3.328125 38.25 0.953125 
Q 33.9375 -1.421875 27.875 -1.421875 
Q 17.96875 -1.421875 11.734375 6.484375 
Q 5.515625 14.40625 5.515625 27.296875 
Q 5.515625 40.1875 11.734375 48.09375 
Q 17.96875 56 27.875 56 
Q 33.9375 56 38.25 53.625 
Q 42.578125 51.265625 45.40625 46.390625 
z
M 14.796875 27.296875 
Q 14.796875 17.390625 18.875 11.75 
Q 22.953125 6.109375 30.078125 6.109375 
Q 37.203125 6.109375 41.296875 11.75 
Q 45.40625 17.390625 45.40625 27.296875 
Q 45.40625 37.203125 41.296875 42.84375 
Q 37.203125 48.484375 30.078125 48.484375 
Q 22.953125 48.484375 18.875 42.84375 
Q 14.796875 37.203125 14.796875 27.296875 
z
" id="DejaVuSans-100"/>
     <path d="M 44.28125 53.078125 
L 44.28125 44.578125 
Q 40.484375 46.53125 36.375 47.5 
Q 32.28125 48.484375 27.875 48.484375 
Q 21.1875 48.484375 17.84375 46.4375 
Q 14.5 44.390625 14.5 40.28125 
Q 14.5 37.15625 16.890625 35.375 
Q 19.28125 33.59375 26.515625 31.984375 
L 29.59375 31.296875 
Q 39.15625 29.25 43.1875 25.515625 
Q 47.21875 21.78125 47.21875 15.09375 
Q 47.21875 7.46875 41.1875 3.015625 
Q 35.15625 -1.421875 24.609375 -1.421875 
Q 20.21875 -1.421875 15.453125 -0.5625 
Q 10.6875 0.296875 5.421875 2 
L 5.421875 11.28125 
Q 10.40625 8.6875 15.234375 7.390625 
Q 20.0625 6.109375 24.8125 6.109375 
Q 31.15625 6.109375 34.5625 8.28125 
Q 37.984375 10.453125 37.984375 14.40625 
Q 37.984375 18.0625 35.515625 20.015625 
Q 33.0625 21.96875 24.703125 23.78125 
L 21.578125 24.515625 
Q 13.234375 26.265625 9.515625 29.90625 
Q 5.8125 33.546875 5.8125 39.890625 
Q 5.8125 47.609375 11.28125 51.796875 
Q 16.75 56 26.8125 56 
Q 31.78125 56 36.171875 55.265625 
Q 40.578125 54.546875 44.28125 53.078125 
z
" id="DejaVuSans-115"/>
    </defs>
    <g transform="translate(1338.251562 371.178437)scale(0.1 -0.1)">
     <use xlink:href="#DejaVuSans-113"/>
     <use x="63.476562" xlink:href="#DejaVuSans-95"/>
     <use x="113.476562" xlink:href="#DejaVuSans-100"/>
     <use x="176.953125" xlink:href="#DejaVuSans-101"/>
     <use x="238.476562" xlink:href="#DejaVuSans-115"/>
    </g>
   </g>
  </g>
 </g>
 <defs>
  <clipPath id="p49af4ef08e">
   <rect height="247.716" width="315.105882" x="172.8" y="84.9312"/>
  </clipPath>
  <clipPath id="p3acd213d16">
   <rect height="247.716" width="315.105882" x="550.927059" y="84.9312"/>
  </clipPath>
  <clipPath id="pb60811493e">
   <rect height="247.716" width="315.105882" x="929.054118" y="84.9312"/>
  </clipPath>
  <clipPath id="p9e0de336c7">
   <rect height="247.716" width="315.105882" x="172.8" y="382.1904"/>
  </clipPath>
  <clipPath id="p237f912e2a">
   <rect height="247.716" width="315.105882" x="550.927059" y="382.1904"/>
  </clipPath>
 </defs>
</svg>
