<?xml version="1.0" encoding="utf-8" standalone="no"?>
<!DOCTYPE svg PUBLIC "-//W3C//DTD SVG 1.1//EN"
  "http://www.w3.org/Graphics/SVG/1.1/DTD/svg11.dtd">
<!-- Created with matplotlib (https://matplotlib.org/) -->
<svg height="707.76pt" version="1.1" viewBox="0 0 1382.4 707.76" width="1382.4pt" xmlns="http://www.w3.org/2000/svg" xmlns:xlink="http://www.w3.org/1999/xlink">
 <defs>
  <style type="text/css">
*{stroke-linecap:butt;stroke-linejoin:round;}
  </style>
 </defs>
 <g id="figure_1">
  <g id="patch_1">
   <path d="M 0 707.76 
L 1382.4 707.76 
L 1382.4 0 
L 0 0 
z
" style="fill:#ffffff;"/>
  </g>
  <g id="axes_1">
   <g id="patch_2">
    <path d="M 172.8 332.6472 
L 659.781818 332.6472 
L 659.781818 84.9312 
L 172.8 84.9312 
z
" style="fill:#ffffff;"/>
   </g>
   <g id="matplotlib.axis_1">
    <g id="xtick_1">
     <g id="line2d_1">
      <defs>
       <path d="M 0 0 
L 0 3.5 
" id="meb2454e570" style="stroke:#000000;stroke-width:0.8;"/>
      </defs>
      <g>
       <use style="stroke:#000000;stroke-width:0.8;" x="194.935537" xlink:href="#meb2454e570" y="332.6472"/>
      </g>
     </g>
     <g id="text_1">
      <!-- 0 -->
      <defs>
       <path d="M 31.78125 66.40625 
Q 24.171875 66.40625 20.328125 58.90625 
Q 16.5 51.421875 16.5 36.375 
Q 16.5 21.390625 20.328125 13.890625 
Q 24.171875 6.390625 31.78125 6.390625 
Q 39.453125 6.390625 43.28125 13.890625 
Q 47.125 21.390625 47.125 36.375 
Q 47.125 51.421875 43.28125 58.90625 
Q 39.453125 66.40625 31.78125 66.40625 
z
M 31.78125 74.21875 
Q 44.046875 74.21875 50.515625 64.515625 
Q 56.984375 54.828125 56.984375 36.375 
Q 56.984375 17.96875 50.515625 8.265625 
Q 44.046875 -1.421875 31.78125 -1.421875 
Q 19.53125 -1.421875 13.0625 8.265625 
Q 6.59375 17.96875 6.59375 36.375 
Q 6.59375 54.828125 13.0625 64.515625 
Q 19.53125 74.21875 31.78125 74.21875 
z
" id="DejaVuSans-48"/>
      </defs>
      <g transform="translate(191.754287 347.245637)scale(0.1 -0.1)">
       <use xlink:href="#DejaVuSans-48"/>
      </g>
     </g>
    </g>
    <g id="xtick_2">
     <g id="line2d_2">
      <g>
       <use style="stroke:#000000;stroke-width:0.8;" x="289.937843" xlink:href="#meb2454e570" y="332.6472"/>
      </g>
     </g>
     <g id="text_2">
      <!-- 50 -->
      <defs>
       <path d="M 10.796875 72.90625 
L 49.515625 72.90625 
L 49.515625 64.59375 
L 19.828125 64.59375 
L 19.828125 46.734375 
Q 21.96875 47.46875 24.109375 47.828125 
Q 26.265625 48.1875 28.421875 48.1875 
Q 40.625 48.1875 47.75 41.5 
Q 54.890625 34.8125 54.890625 23.390625 
Q 54.890625 11.625 47.5625 5.09375 
Q 40.234375 -1.421875 26.90625 -1.421875 
Q 22.3125 -1.421875 17.546875 -0.640625 
Q 12.796875 0.140625 7.71875 1.703125 
L 7.71875 11.625 
Q 12.109375 9.234375 16.796875 8.0625 
Q 21.484375 6.890625 26.703125 6.890625 
Q 35.15625 6.890625 40.078125 11.328125 
Q 45.015625 15.765625 45.015625 23.390625 
Q 45.015625 31 40.078125 35.4375 
Q 35.15625 39.890625 26.703125 39.890625 
Q 22.75 39.890625 18.8125 39.015625 
Q 14.890625 38.140625 10.796875 36.28125 
z
" id="DejaVuSans-53"/>
      </defs>
      <g transform="translate(283.575343 347.245637)scale(0.1 -0.1)">
       <use xlink:href="#DejaVuSans-53"/>
       <use x="63.623047" xlink:href="#DejaVuSans-48"/>
      </g>
     </g>
    </g>
    <g id="xtick_3">
     <g id="line2d_3">
      <g>
       <use style="stroke:#000000;stroke-width:0.8;" x="384.940148" xlink:href="#meb2454e570" y="332.6472"/>
      </g>
     </g>
     <g id="text_3">
      <!-- 100 -->
      <defs>
       <path d="M 12.40625 8.296875 
L 28.515625 8.296875 
L 28.515625 63.921875 
L 10.984375 60.40625 
L 10.984375 69.390625 
L 28.421875 72.90625 
L 38.28125 72.90625 
L 38.28125 8.296875 
L 54.390625 8.296875 
L 54.390625 0 
L 12.40625 0 
z
" id="DejaVuSans-49"/>
      </defs>
      <g transform="translate(375.396398 347.245637)scale(0.1 -0.1)">
       <use xlink:href="#DejaVuSans-49"/>
       <use x="63.623047" xlink:href="#DejaVuSans-48"/>
       <use x="127.246094" xlink:href="#DejaVuSans-48"/>
      </g>
     </g>
    </g>
    <g id="xtick_4">
     <g id="line2d_4">
      <g>
       <use style="stroke:#000000;stroke-width:0.8;" x="479.942454" xlink:href="#meb2454e570" y="332.6472"/>
      </g>
     </g>
     <g id="text_4">
      <!-- 150 -->
      <g transform="translate(470.398704 347.245637)scale(0.1 -0.1)">
       <use xlink:href="#DejaVuSans-49"/>
       <use x="63.623047" xlink:href="#DejaVuSans-53"/>
       <use x="127.246094" xlink:href="#DejaVuSans-48"/>
      </g>
     </g>
    </g>
    <g id="xtick_5">
     <g id="line2d_5">
      <g>
       <use style="stroke:#000000;stroke-width:0.8;" x="574.944759" xlink:href="#meb2454e570" y="332.6472"/>
      </g>
     </g>
     <g id="text_5">
      <!-- 200 -->
      <defs>
       <path d="M 19.1875 8.296875 
L 53.609375 8.296875 
L 53.609375 0 
L 7.328125 0 
L 7.328125 8.296875 
Q 12.9375 14.109375 22.625 23.890625 
Q 32.328125 33.6875 34.8125 36.53125 
Q 39.546875 41.84375 41.421875 45.53125 
Q 43.3125 49.21875 43.3125 52.78125 
Q 43.3125 58.59375 39.234375 62.25 
Q 35.15625 65.921875 28.609375 65.921875 
Q 23.96875 65.921875 18.8125 64.3125 
Q 13.671875 62.703125 7.8125 59.421875 
L 7.8125 69.390625 
Q 13.765625 71.78125 18.9375 73 
Q 24.125 74.21875 28.421875 74.21875 
Q 39.75 74.21875 46.484375 68.546875 
Q 53.21875 62.890625 53.21875 53.421875 
Q 53.21875 48.921875 51.53125 44.890625 
Q 49.859375 40.875 45.40625 35.40625 
Q 44.1875 33.984375 37.640625 27.21875 
Q 31.109375 20.453125 19.1875 8.296875 
z
" id="DejaVuSans-50"/>
      </defs>
      <g transform="translate(565.401009 347.245637)scale(0.1 -0.1)">
       <use xlink:href="#DejaVuSans-50"/>
       <use x="63.623047" xlink:href="#DejaVuSans-48"/>
       <use x="127.246094" xlink:href="#DejaVuSans-48"/>
      </g>
     </g>
    </g>
   </g>
   <g id="matplotlib.axis_2">
    <g id="ytick_1">
     <g id="line2d_6">
      <defs>
       <path d="M 0 0 
L -3.5 0 
" id="m6039cb54b3" style="stroke:#000000;stroke-width:0.8;"/>
      </defs>
      <g>
       <use style="stroke:#000000;stroke-width:0.8;" x="172.8" xlink:href="#m6039cb54b3" y="291.430668"/>
      </g>
     </g>
     <g id="text_6">
      <!-- −4 -->
      <defs>
       <path d="M 10.59375 35.5 
L 73.1875 35.5 
L 73.1875 27.203125 
L 10.59375 27.203125 
z
" id="DejaVuSans-8722"/>
       <path d="M 37.796875 64.3125 
L 12.890625 25.390625 
L 37.796875 25.390625 
z
M 35.203125 72.90625 
L 47.609375 72.90625 
L 47.609375 25.390625 
L 58.015625 25.390625 
L 58.015625 17.1875 
L 47.609375 17.1875 
L 47.609375 0 
L 37.796875 0 
L 37.796875 17.1875 
L 4.890625 17.1875 
L 4.890625 26.703125 
z
" id="DejaVuSans-52"/>
      </defs>
      <g transform="translate(151.057812 295.229887)scale(0.1 -0.1)">
       <use xlink:href="#DejaVuSans-8722"/>
       <use x="83.789062" xlink:href="#DejaVuSans-52"/>
      </g>
     </g>
    </g>
    <g id="ytick_2">
     <g id="line2d_7">
      <g>
       <use style="stroke:#000000;stroke-width:0.8;" x="172.8" xlink:href="#m6039cb54b3" y="246.98427"/>
      </g>
     </g>
     <g id="text_7">
      <!-- −3 -->
      <defs>
       <path d="M 40.578125 39.3125 
Q 47.65625 37.796875 51.625 33 
Q 55.609375 28.21875 55.609375 21.1875 
Q 55.609375 10.40625 48.1875 4.484375 
Q 40.765625 -1.421875 27.09375 -1.421875 
Q 22.515625 -1.421875 17.65625 -0.515625 
Q 12.796875 0.390625 7.625 2.203125 
L 7.625 11.71875 
Q 11.71875 9.328125 16.59375 8.109375 
Q 21.484375 6.890625 26.8125 6.890625 
Q 36.078125 6.890625 40.9375 10.546875 
Q 45.796875 14.203125 45.796875 21.1875 
Q 45.796875 27.640625 41.28125 31.265625 
Q 36.765625 34.90625 28.71875 34.90625 
L 20.21875 34.90625 
L 20.21875 43.015625 
L 29.109375 43.015625 
Q 36.375 43.015625 40.234375 45.921875 
Q 44.09375 48.828125 44.09375 54.296875 
Q 44.09375 59.90625 40.109375 62.90625 
Q 36.140625 65.921875 28.71875 65.921875 
Q 24.65625 65.921875 20.015625 65.03125 
Q 15.375 64.15625 9.8125 62.3125 
L 9.8125 71.09375 
Q 15.4375 72.65625 20.34375 73.4375 
Q 25.25 74.21875 29.59375 74.21875 
Q 40.828125 74.21875 47.359375 69.109375 
Q 53.90625 64.015625 53.90625 55.328125 
Q 53.90625 49.265625 50.4375 45.09375 
Q 46.96875 40.921875 40.578125 39.3125 
z
" id="DejaVuSans-51"/>
      </defs>
      <g transform="translate(151.057812 250.783489)scale(0.1 -0.1)">
       <use xlink:href="#DejaVuSans-8722"/>
       <use x="83.789062" xlink:href="#DejaVuSans-51"/>
      </g>
     </g>
    </g>
    <g id="ytick_3">
     <g id="line2d_8">
      <g>
       <use style="stroke:#000000;stroke-width:0.8;" x="172.8" xlink:href="#m6039cb54b3" y="202.537873"/>
      </g>
     </g>
     <g id="text_8">
      <!-- −2 -->
      <g transform="translate(151.057812 206.337091)scale(0.1 -0.1)">
       <use xlink:href="#DejaVuSans-8722"/>
       <use x="83.789062" xlink:href="#DejaVuSans-50"/>
      </g>
     </g>
    </g>
    <g id="ytick_4">
     <g id="line2d_9">
      <g>
       <use style="stroke:#000000;stroke-width:0.8;" x="172.8" xlink:href="#m6039cb54b3" y="158.091475"/>
      </g>
     </g>
     <g id="text_9">
      <!-- −1 -->
      <g transform="translate(151.057812 161.890694)scale(0.1 -0.1)">
       <use xlink:href="#DejaVuSans-8722"/>
       <use x="83.789062" xlink:href="#DejaVuSans-49"/>
      </g>
     </g>
    </g>
    <g id="ytick_5">
     <g id="line2d_10">
      <g>
       <use style="stroke:#000000;stroke-width:0.8;" x="172.8" xlink:href="#m6039cb54b3" y="113.645078"/>
      </g>
     </g>
     <g id="text_10">
      <!-- 0 -->
      <g transform="translate(159.4375 117.444296)scale(0.1 -0.1)">
       <use xlink:href="#DejaVuSans-48"/>
      </g>
     </g>
    </g>
   </g>
   <g id="line2d_11">
    <path clip-path="url(#p836510ece9)" d="M 194.935537 113.554036 
L 196.835583 113.906126 
L 200.635676 115.114231 
L 202.535722 115.425449 
L 204.435768 115.400826 
L 206.335814 115.082256 
L 208.23586 114.630571 
L 210.135906 114.312531 
L 212.035952 114.383023 
L 213.935998 114.878994 
L 217.736091 116.182135 
L 219.636137 116.513847 
L 221.536183 116.525128 
L 223.436229 116.260239 
L 225.336275 115.872403 
L 227.236321 115.640508 
L 229.136367 115.802294 
L 231.036413 116.347645 
L 232.936459 117.036783 
L 234.836506 117.606045 
L 236.736552 117.915638 
L 238.636598 117.929806 
L 244.336736 117.264929 
L 246.236782 117.569954 
L 251.936921 119.563439 
L 253.836967 119.907124 
L 255.737013 119.962038 
L 259.537105 119.560073 
L 261.437151 119.597902 
L 263.337197 120.043011 
L 267.137289 121.506231 
L 269.037336 122.057225 
L 270.937382 122.345315 
L 272.837428 122.336599 
L 276.63752 121.940425 
L 278.537566 122.074818 
L 280.437612 122.600475 
L 284.237704 124.006147 
L 286.137751 124.479902 
L 288.037797 124.704658 
L 289.937843 124.686635 
L 291.837889 124.54877 
L 293.737935 124.557947 
L 295.637981 124.945095 
L 301.338119 127.260344 
L 303.238166 127.761596 
L 305.138212 128.021892 
L 308.938304 128.082904 
L 310.83835 128.320495 
L 312.738396 128.939489 
L 316.538488 130.673625 
L 318.438534 131.339084 
L 320.33858 131.772794 
L 322.238627 131.984382 
L 326.038719 132.152816 
L 327.938765 132.567555 
L 329.838811 133.336742 
L 333.638903 135.048071 
L 335.538949 135.633199 
L 337.438995 136.016043 
L 343.139134 136.65947 
L 345.03918 137.311897 
L 348.839272 139.206421 
L 350.739318 139.987383 
L 352.639364 140.567181 
L 354.53941 140.975725 
L 358.339503 141.533404 
L 360.239549 142.051248 
L 362.139595 142.905158 
L 365.939687 144.854782 
L 367.839733 145.589724 
L 369.739779 146.156717 
L 373.539872 146.88533 
L 375.439918 147.284227 
L 377.339964 147.97927 
L 383.040102 150.848592 
L 384.940148 151.563165 
L 386.840194 152.155064 
L 390.640287 153.064137 
L 392.540333 153.710581 
L 394.440379 154.698093 
L 398.240471 157.029335 
L 402.040563 158.97143 
L 405.840655 160.514984 
L 407.740702 161.286383 
L 409.640748 162.34015 
L 417.240932 167.676371 
L 419.140978 168.857501 
L 424.841117 171.904671 
L 426.741163 173.290317 
L 432.441301 177.826299 
L 436.241393 180.57437 
L 440.041485 182.897375 
L 441.941532 184.349075 
L 447.64167 189.653449 
L 451.441762 193.313465 
L 457.1419 198.116375 
L 460.941993 202.035821 
L 464.742085 206.283756 
L 468.542177 210.625877 
L 474.242315 216.397281 
L 478.042408 220.640325 
L 481.8425 225.259299 
L 483.742546 227.624994 
L 485.642592 229.78004 
L 497.042869 241.711726 
L 500.842961 246.017563 
L 504.643053 249.707842 
L 506.543099 251.420455 
L 508.443145 252.941927 
L 512.243238 255.694658 
L 516.04333 258.541451 
L 517.943376 259.689463 
L 519.843422 260.669216 
L 521.743468 261.488642 
L 523.643514 261.974788 
L 525.54356 262.034895 
L 527.443607 261.829322 
L 529.343653 261.508992 
L 531.243699 260.980175 
L 533.143745 260.12333 
L 535.043791 266.051017 
L 536.943837 264.170665 
L 538.843883 259.717219 
L 540.743929 261.413033 
L 542.643975 266.649098 
L 544.544022 263.716683 
L 546.444068 256.145378 
L 548.344114 256.152322 
L 550.24416 262.191953 
L 552.144206 261.285705 
L 554.044252 251.275488 
L 555.944298 256.768088 
L 557.844344 263.510853 
L 559.74439 260.841717 
L 561.644437 250.415776 
L 563.544483 244.630003 
L 565.444529 247.141584 
L 567.344575 248.455721 
L 569.244621 243.825571 
L 571.144667 241.771498 
L 573.044713 247.512075 
L 574.944759 251.137118 
L 576.844805 242.919798 
L 578.744852 229.542086 
L 580.644898 221.973991 
L 582.544944 216.512515 
L 584.44499 203.75591 
L 586.345036 188.642204 
L 588.245082 245.776432 
L 590.145128 266.815218 
L 592.045174 272.893647 
L 593.94522 280.371233 
L 595.845267 282.022142 
L 597.745313 253.74284 
L 599.645359 209.235533 
L 601.545405 188.724458 
L 603.445451 198.667949 
L 605.345497 210.145058 
L 607.245543 216.695841 
L 609.145589 243.909862 
L 611.045635 292.061929 
L 612.945682 321.387382 
L 614.845728 311.659648 
L 616.745774 290.394006 
L 618.64582 277.973969 
L 620.545866 253.200266 
L 622.445912 203.383336 
L 624.345958 163.44892 
L 626.246004 164.199661 
L 628.14605 183.894365 
L 630.046097 192.535123 
L 631.946143 205.951779 
L 635.746235 290.059679 
L 637.646281 294.526377 
L 637.646281 294.526377 
" style="fill:none;stroke:#ff796c;stroke-linecap:square;stroke-width:1.5;"/>
   </g>
   <g id="line2d_12">
    <path clip-path="url(#p836510ece9)" d="M 194.935537 96.34607 
L 206.335814 96.434472 
L 219.636137 96.827023 
L 229.136367 97.358703 
L 238.636598 98.049133 
L 251.936921 99.360006 
L 261.437151 100.549985 
L 270.937382 101.902975 
L 284.237704 104.128274 
L 297.538027 106.594613 
L 308.938304 108.845035 
L 324.138673 112.092135 
L 339.339042 115.649958 
L 356.439457 119.988194 
L 371.639825 124.130337 
L 411.540794 135.347111 
L 440.041485 142.911678 
L 457.1419 147.224146 
L 476.142362 151.807776 
L 500.842961 157.542564 
L 525.54356 163.225529 
L 540.743929 167.138625 
L 546.444068 168.937849 
L 552.144206 170.937243 
L 554.044252 171.690381 
L 557.844344 172.47155 
L 561.644437 173.501743 
L 569.244621 175.861113 
L 573.044713 177.224257 
L 576.844805 178.86526 
L 580.644898 180.815336 
L 586.345036 184.02228 
L 592.045174 183.748508 
L 601.545405 183.555452 
L 620.545866 183.471466 
L 637.646281 183.462581 
L 637.646281 183.462581 
" style="fill:none;stroke:#ffff14;stroke-linecap:square;stroke-width:1.5;"/>
   </g>
   <g id="line2d_13">
    <path clip-path="url(#p836510ece9)" d="M 194.935537 96.191018 
L 204.435768 96.289295 
L 213.935998 96.583683 
L 223.436229 97.072856 
L 232.936459 97.754611 
L 242.43669 98.625876 
L 253.836967 99.915963 
L 265.237243 101.464883 
L 276.63752 103.262591 
L 288.037797 105.297428 
L 299.438073 107.556197 
L 310.83835 110.024249 
L 324.138673 113.146729 
L 337.438995 116.504671 
L 352.639364 120.592538 
L 369.739779 125.453894 
L 388.74024 131.098016 
L 417.240932 139.826167 
L 451.441762 150.268742 
L 470.442223 155.845752 
L 485.642592 160.104432 
L 500.842961 164.12941 
L 514.143284 167.423015 
L 527.443607 170.473061 
L 538.843883 172.873066 
L 550.24416 175.058748 
L 561.644437 177.015934 
L 573.044713 178.73193 
L 584.44499 180.195607 
L 595.845267 181.397473 
L 605.345497 182.193358 
L 614.845728 182.7984 
L 624.345958 183.209874 
L 633.846189 183.425927 
L 637.646281 183.457383 
L 637.646281 183.457383 
" style="fill:none;stroke:#014d4e;stroke-linecap:square;stroke-width:1.5;"/>
   </g>
   <g id="line2d_14">
    <path clip-path="url(#p836510ece9)" d="M 194.935537 113.490026 
L 217.736091 113.649929 
L 255.737013 113.994454 
L 299.438073 114.247777 
L 407.740702 116.231043 
L 428.641209 117.053582 
L 466.642131 118.862368 
L 487.542638 119.786566 
L 506.543099 120.383889 
L 517.943376 120.554576 
L 525.54356 120.472846 
L 531.243699 120.232649 
L 535.043791 120.068584 
L 538.843883 119.932688 
L 544.544022 119.33042 
L 550.24416 118.469231 
L 554.044252 117.691887 
L 557.844344 117.56327 
L 561.644437 117.159269 
L 567.344575 116.320186 
L 571.144667 115.583235 
L 574.944759 114.644055 
L 578.744852 113.323381 
L 582.544944 111.764729 
L 586.345036 110.03713 
L 592.045174 110.923028 
L 599.645359 111.804606 
L 607.245543 112.465294 
L 616.745774 113.064181 
L 626.246004 113.447346 
L 635.746235 113.627751 
L 637.646281 113.63988 
L 637.646281 113.63988 
" style="fill:none;stroke:#e50000;stroke-linecap:square;stroke-width:1.5;"/>
   </g>
   <g id="patch_3">
    <path d="M 172.8 332.6472 
L 172.8 84.9312 
" style="fill:none;stroke:#000000;stroke-linecap:square;stroke-linejoin:miter;stroke-width:0.8;"/>
   </g>
   <g id="patch_4">
    <path d="M 659.781818 332.6472 
L 659.781818 84.9312 
" style="fill:none;stroke:#000000;stroke-linecap:square;stroke-linejoin:miter;stroke-width:0.8;"/>
   </g>
   <g id="patch_5">
    <path d="M 172.8 332.6472 
L 659.781818 332.6472 
" style="fill:none;stroke:#000000;stroke-linecap:square;stroke-linejoin:miter;stroke-width:0.8;"/>
   </g>
   <g id="patch_6">
    <path d="M 172.8 84.9312 
L 659.781818 84.9312 
" style="fill:none;stroke:#000000;stroke-linecap:square;stroke-linejoin:miter;stroke-width:0.8;"/>
   </g>
   <g id="text_11">
    <!-- Right abduction -->
    <defs>
     <path d="M 44.390625 34.1875 
Q 47.5625 33.109375 50.5625 29.59375 
Q 53.5625 26.078125 56.59375 19.921875 
L 66.609375 0 
L 56 0 
L 46.6875 18.703125 
Q 43.0625 26.03125 39.671875 28.421875 
Q 36.28125 30.8125 30.421875 30.8125 
L 19.671875 30.8125 
L 19.671875 0 
L 9.8125 0 
L 9.8125 72.90625 
L 32.078125 72.90625 
Q 44.578125 72.90625 50.734375 67.671875 
Q 56.890625 62.453125 56.890625 51.90625 
Q 56.890625 45.015625 53.6875 40.46875 
Q 50.484375 35.9375 44.390625 34.1875 
z
M 19.671875 64.796875 
L 19.671875 38.921875 
L 32.078125 38.921875 
Q 39.203125 38.921875 42.84375 42.21875 
Q 46.484375 45.515625 46.484375 51.90625 
Q 46.484375 58.296875 42.84375 61.546875 
Q 39.203125 64.796875 32.078125 64.796875 
z
" id="DejaVuSans-82"/>
     <path d="M 9.421875 54.6875 
L 18.40625 54.6875 
L 18.40625 0 
L 9.421875 0 
z
M 9.421875 75.984375 
L 18.40625 75.984375 
L 18.40625 64.59375 
L 9.421875 64.59375 
z
" id="DejaVuSans-105"/>
     <path d="M 45.40625 27.984375 
Q 45.40625 37.75 41.375 43.109375 
Q 37.359375 48.484375 30.078125 48.484375 
Q 22.859375 48.484375 18.828125 43.109375 
Q 14.796875 37.75 14.796875 27.984375 
Q 14.796875 18.265625 18.828125 12.890625 
Q 22.859375 7.515625 30.078125 7.515625 
Q 37.359375 7.515625 41.375 12.890625 
Q 45.40625 18.265625 45.40625 27.984375 
z
M 54.390625 6.78125 
Q 54.390625 -7.171875 48.1875 -13.984375 
Q 42 -20.796875 29.203125 -20.796875 
Q 24.46875 -20.796875 20.265625 -20.09375 
Q 16.0625 -19.390625 12.109375 -17.921875 
L 12.109375 -9.1875 
Q 16.0625 -11.328125 19.921875 -12.34375 
Q 23.78125 -13.375 27.78125 -13.375 
Q 36.625 -13.375 41.015625 -8.765625 
Q 45.40625 -4.15625 45.40625 5.171875 
L 45.40625 9.625 
Q 42.625 4.78125 38.28125 2.390625 
Q 33.9375 0 27.875 0 
Q 17.828125 0 11.671875 7.65625 
Q 5.515625 15.328125 5.515625 27.984375 
Q 5.515625 40.671875 11.671875 48.328125 
Q 17.828125 56 27.875 56 
Q 33.9375 56 38.28125 53.609375 
Q 42.625 51.21875 45.40625 46.390625 
L 45.40625 54.6875 
L 54.390625 54.6875 
z
" id="DejaVuSans-103"/>
     <path d="M 54.890625 33.015625 
L 54.890625 0 
L 45.90625 0 
L 45.90625 32.71875 
Q 45.90625 40.484375 42.875 44.328125 
Q 39.84375 48.1875 33.796875 48.1875 
Q 26.515625 48.1875 22.3125 43.546875 
Q 18.109375 38.921875 18.109375 30.90625 
L 18.109375 0 
L 9.078125 0 
L 9.078125 75.984375 
L 18.109375 75.984375 
L 18.109375 46.1875 
Q 21.34375 51.125 25.703125 53.5625 
Q 30.078125 56 35.796875 56 
Q 45.21875 56 50.046875 50.171875 
Q 54.890625 44.34375 54.890625 33.015625 
z
" id="DejaVuSans-104"/>
     <path d="M 18.3125 70.21875 
L 18.3125 54.6875 
L 36.8125 54.6875 
L 36.8125 47.703125 
L 18.3125 47.703125 
L 18.3125 18.015625 
Q 18.3125 11.328125 20.140625 9.421875 
Q 21.96875 7.515625 27.59375 7.515625 
L 36.8125 7.515625 
L 36.8125 0 
L 27.59375 0 
Q 17.1875 0 13.234375 3.875 
Q 9.28125 7.765625 9.28125 18.015625 
L 9.28125 47.703125 
L 2.6875 47.703125 
L 2.6875 54.6875 
L 9.28125 54.6875 
L 9.28125 70.21875 
z
" id="DejaVuSans-116"/>
     <path id="DejaVuSans-32"/>
     <path d="M 34.28125 27.484375 
Q 23.390625 27.484375 19.1875 25 
Q 14.984375 22.515625 14.984375 16.5 
Q 14.984375 11.71875 18.140625 8.90625 
Q 21.296875 6.109375 26.703125 6.109375 
Q 34.1875 6.109375 38.703125 11.40625 
Q 43.21875 16.703125 43.21875 25.484375 
L 43.21875 27.484375 
z
M 52.203125 31.203125 
L 52.203125 0 
L 43.21875 0 
L 43.21875 8.296875 
Q 40.140625 3.328125 35.546875 0.953125 
Q 30.953125 -1.421875 24.3125 -1.421875 
Q 15.921875 -1.421875 10.953125 3.296875 
Q 6 8.015625 6 15.921875 
Q 6 25.140625 12.171875 29.828125 
Q 18.359375 34.515625 30.609375 34.515625 
L 43.21875 34.515625 
L 43.21875 35.40625 
Q 43.21875 41.609375 39.140625 45 
Q 35.0625 48.390625 27.6875 48.390625 
Q 23 48.390625 18.546875 47.265625 
Q 14.109375 46.140625 10.015625 43.890625 
L 10.015625 52.203125 
Q 14.9375 54.109375 19.578125 55.046875 
Q 24.21875 56 28.609375 56 
Q 40.484375 56 46.34375 49.84375 
Q 52.203125 43.703125 52.203125 31.203125 
z
" id="DejaVuSans-97"/>
     <path d="M 48.6875 27.296875 
Q 48.6875 37.203125 44.609375 42.84375 
Q 40.53125 48.484375 33.40625 48.484375 
Q 26.265625 48.484375 22.1875 42.84375 
Q 18.109375 37.203125 18.109375 27.296875 
Q 18.109375 17.390625 22.1875 11.75 
Q 26.265625 6.109375 33.40625 6.109375 
Q 40.53125 6.109375 44.609375 11.75 
Q 48.6875 17.390625 48.6875 27.296875 
z
M 18.109375 46.390625 
Q 20.953125 51.265625 25.265625 53.625 
Q 29.59375 56 35.59375 56 
Q 45.5625 56 51.78125 48.09375 
Q 58.015625 40.1875 58.015625 27.296875 
Q 58.015625 14.40625 51.78125 6.484375 
Q 45.5625 -1.421875 35.59375 -1.421875 
Q 29.59375 -1.421875 25.265625 0.953125 
Q 20.953125 3.328125 18.109375 8.203125 
L 18.109375 0 
L 9.078125 0 
L 9.078125 75.984375 
L 18.109375 75.984375 
z
" id="DejaVuSans-98"/>
     <path d="M 45.40625 46.390625 
L 45.40625 75.984375 
L 54.390625 75.984375 
L 54.390625 0 
L 45.40625 0 
L 45.40625 8.203125 
Q 42.578125 3.328125 38.25 0.953125 
Q 33.9375 -1.421875 27.875 -1.421875 
Q 17.96875 -1.421875 11.734375 6.484375 
Q 5.515625 14.40625 5.515625 27.296875 
Q 5.515625 40.1875 11.734375 48.09375 
Q 17.96875 56 27.875 56 
Q 33.9375 56 38.25 53.625 
Q 42.578125 51.265625 45.40625 46.390625 
z
M 14.796875 27.296875 
Q 14.796875 17.390625 18.875 11.75 
Q 22.953125 6.109375 30.078125 6.109375 
Q 37.203125 6.109375 41.296875 11.75 
Q 45.40625 17.390625 45.40625 27.296875 
Q 45.40625 37.203125 41.296875 42.84375 
Q 37.203125 48.484375 30.078125 48.484375 
Q 22.953125 48.484375 18.875 42.84375 
Q 14.796875 37.203125 14.796875 27.296875 
z
" id="DejaVuSans-100"/>
     <path d="M 8.5 21.578125 
L 8.5 54.6875 
L 17.484375 54.6875 
L 17.484375 21.921875 
Q 17.484375 14.15625 20.5 10.265625 
Q 23.53125 6.390625 29.59375 6.390625 
Q 36.859375 6.390625 41.078125 11.03125 
Q 45.3125 15.671875 45.3125 23.6875 
L 45.3125 54.6875 
L 54.296875 54.6875 
L 54.296875 0 
L 45.3125 0 
L 45.3125 8.40625 
Q 42.046875 3.421875 37.71875 1 
Q 33.40625 -1.421875 27.6875 -1.421875 
Q 18.265625 -1.421875 13.375 4.4375 
Q 8.5 10.296875 8.5 21.578125 
z
M 31.109375 56 
z
" id="DejaVuSans-117"/>
     <path d="M 48.78125 52.59375 
L 48.78125 44.1875 
Q 44.96875 46.296875 41.140625 47.34375 
Q 37.3125 48.390625 33.40625 48.390625 
Q 24.65625 48.390625 19.8125 42.84375 
Q 14.984375 37.3125 14.984375 27.296875 
Q 14.984375 17.28125 19.8125 11.734375 
Q 24.65625 6.203125 33.40625 6.203125 
Q 37.3125 6.203125 41.140625 7.25 
Q 44.96875 8.296875 48.78125 10.40625 
L 48.78125 2.09375 
Q 45.015625 0.34375 40.984375 -0.53125 
Q 36.96875 -1.421875 32.421875 -1.421875 
Q 20.0625 -1.421875 12.78125 6.34375 
Q 5.515625 14.109375 5.515625 27.296875 
Q 5.515625 40.671875 12.859375 48.328125 
Q 20.21875 56 33.015625 56 
Q 37.15625 56 41.109375 55.140625 
Q 45.0625 54.296875 48.78125 52.59375 
z
" id="DejaVuSans-99"/>
     <path d="M 30.609375 48.390625 
Q 23.390625 48.390625 19.1875 42.75 
Q 14.984375 37.109375 14.984375 27.296875 
Q 14.984375 17.484375 19.15625 11.84375 
Q 23.34375 6.203125 30.609375 6.203125 
Q 37.796875 6.203125 41.984375 11.859375 
Q 46.1875 17.53125 46.1875 27.296875 
Q 46.1875 37.015625 41.984375 42.703125 
Q 37.796875 48.390625 30.609375 48.390625 
z
M 30.609375 56 
Q 42.328125 56 49.015625 48.375 
Q 55.71875 40.765625 55.71875 27.296875 
Q 55.71875 13.875 49.015625 6.21875 
Q 42.328125 -1.421875 30.609375 -1.421875 
Q 18.84375 -1.421875 12.171875 6.21875 
Q 5.515625 13.875 5.515625 27.296875 
Q 5.515625 40.765625 12.171875 48.375 
Q 18.84375 56 30.609375 56 
z
" id="DejaVuSans-111"/>
     <path d="M 54.890625 33.015625 
L 54.890625 0 
L 45.90625 0 
L 45.90625 32.71875 
Q 45.90625 40.484375 42.875 44.328125 
Q 39.84375 48.1875 33.796875 48.1875 
Q 26.515625 48.1875 22.3125 43.546875 
Q 18.109375 38.921875 18.109375 30.90625 
L 18.109375 0 
L 9.078125 0 
L 9.078125 54.6875 
L 18.109375 54.6875 
L 18.109375 46.1875 
Q 21.34375 51.125 25.703125 53.5625 
Q 30.078125 56 35.796875 56 
Q 45.21875 56 50.046875 50.171875 
Q 54.890625 44.34375 54.890625 33.015625 
z
" id="DejaVuSans-110"/>
    </defs>
    <g transform="translate(368.694972 78.9312)scale(0.12 -0.12)">
     <use xlink:href="#DejaVuSans-82"/>
     <use x="69.482422" xlink:href="#DejaVuSans-105"/>
     <use x="97.265625" xlink:href="#DejaVuSans-103"/>
     <use x="160.742188" xlink:href="#DejaVuSans-104"/>
     <use x="224.121094" xlink:href="#DejaVuSans-116"/>
     <use x="263.330078" xlink:href="#DejaVuSans-32"/>
     <use x="295.117188" xlink:href="#DejaVuSans-97"/>
     <use x="356.396484" xlink:href="#DejaVuSans-98"/>
     <use x="419.873047" xlink:href="#DejaVuSans-100"/>
     <use x="483.349609" xlink:href="#DejaVuSans-117"/>
     <use x="546.728516" xlink:href="#DejaVuSans-99"/>
     <use x="601.708984" xlink:href="#DejaVuSans-116"/>
     <use x="640.917969" xlink:href="#DejaVuSans-105"/>
     <use x="668.701172" xlink:href="#DejaVuSans-111"/>
     <use x="729.882812" xlink:href="#DejaVuSans-110"/>
    </g>
   </g>
  </g>
  <g id="axes_2">
   <g id="patch_7">
    <path d="M 757.178182 332.6472 
L 1244.16 332.6472 
L 1244.16 84.9312 
L 757.178182 84.9312 
z
" style="fill:#ffffff;"/>
   </g>
   <g id="matplotlib.axis_3">
    <g id="xtick_6">
     <g id="line2d_15">
      <g>
       <use style="stroke:#000000;stroke-width:0.8;" x="779.313719" xlink:href="#meb2454e570" y="332.6472"/>
      </g>
     </g>
     <g id="text_12">
      <!-- 0 -->
      <g transform="translate(776.132469 347.245637)scale(0.1 -0.1)">
       <use xlink:href="#DejaVuSans-48"/>
      </g>
     </g>
    </g>
    <g id="xtick_7">
     <g id="line2d_16">
      <g>
       <use style="stroke:#000000;stroke-width:0.8;" x="874.316025" xlink:href="#meb2454e570" y="332.6472"/>
      </g>
     </g>
     <g id="text_13">
      <!-- 50 -->
      <g transform="translate(867.953525 347.245637)scale(0.1 -0.1)">
       <use xlink:href="#DejaVuSans-53"/>
       <use x="63.623047" xlink:href="#DejaVuSans-48"/>
      </g>
     </g>
    </g>
    <g id="xtick_8">
     <g id="line2d_17">
      <g>
       <use style="stroke:#000000;stroke-width:0.8;" x="969.31833" xlink:href="#meb2454e570" y="332.6472"/>
      </g>
     </g>
     <g id="text_14">
      <!-- 100 -->
      <g transform="translate(959.77458 347.245637)scale(0.1 -0.1)">
       <use xlink:href="#DejaVuSans-49"/>
       <use x="63.623047" xlink:href="#DejaVuSans-48"/>
       <use x="127.246094" xlink:href="#DejaVuSans-48"/>
      </g>
     </g>
    </g>
    <g id="xtick_9">
     <g id="line2d_18">
      <g>
       <use style="stroke:#000000;stroke-width:0.8;" x="1064.320636" xlink:href="#meb2454e570" y="332.6472"/>
      </g>
     </g>
     <g id="text_15">
      <!-- 150 -->
      <g transform="translate(1054.776886 347.245637)scale(0.1 -0.1)">
       <use xlink:href="#DejaVuSans-49"/>
       <use x="63.623047" xlink:href="#DejaVuSans-53"/>
       <use x="127.246094" xlink:href="#DejaVuSans-48"/>
      </g>
     </g>
    </g>
    <g id="xtick_10">
     <g id="line2d_19">
      <g>
       <use style="stroke:#000000;stroke-width:0.8;" x="1159.322941" xlink:href="#meb2454e570" y="332.6472"/>
      </g>
     </g>
     <g id="text_16">
      <!-- 200 -->
      <g transform="translate(1149.779191 347.245637)scale(0.1 -0.1)">
       <use xlink:href="#DejaVuSans-50"/>
       <use x="63.623047" xlink:href="#DejaVuSans-48"/>
       <use x="127.246094" xlink:href="#DejaVuSans-48"/>
      </g>
     </g>
    </g>
   </g>
   <g id="matplotlib.axis_4">
    <g id="ytick_6">
     <g id="line2d_20">
      <g>
       <use style="stroke:#000000;stroke-width:0.8;" x="757.178182" xlink:href="#m6039cb54b3" y="289.707344"/>
      </g>
     </g>
     <g id="text_17">
      <!-- −1.5 -->
      <defs>
       <path d="M 10.6875 12.40625 
L 21 12.40625 
L 21 0 
L 10.6875 0 
z
" id="DejaVuSans-46"/>
      </defs>
      <g transform="translate(725.895369 293.506562)scale(0.1 -0.1)">
       <use xlink:href="#DejaVuSans-8722"/>
       <use x="83.789062" xlink:href="#DejaVuSans-49"/>
       <use x="147.412109" xlink:href="#DejaVuSans-46"/>
       <use x="179.199219" xlink:href="#DejaVuSans-53"/>
      </g>
     </g>
    </g>
    <g id="ytick_7">
     <g id="line2d_21">
      <g>
       <use style="stroke:#000000;stroke-width:0.8;" x="757.178182" xlink:href="#m6039cb54b3" y="242.229593"/>
      </g>
     </g>
     <g id="text_18">
      <!-- −1.0 -->
      <g transform="translate(725.895369 246.028811)scale(0.1 -0.1)">
       <use xlink:href="#DejaVuSans-8722"/>
       <use x="83.789062" xlink:href="#DejaVuSans-49"/>
       <use x="147.412109" xlink:href="#DejaVuSans-46"/>
       <use x="179.199219" xlink:href="#DejaVuSans-48"/>
      </g>
     </g>
    </g>
    <g id="ytick_8">
     <g id="line2d_22">
      <g>
       <use style="stroke:#000000;stroke-width:0.8;" x="757.178182" xlink:href="#m6039cb54b3" y="194.751842"/>
      </g>
     </g>
     <g id="text_19">
      <!-- −0.5 -->
      <g transform="translate(725.895369 198.55106)scale(0.1 -0.1)">
       <use xlink:href="#DejaVuSans-8722"/>
       <use x="83.789062" xlink:href="#DejaVuSans-48"/>
       <use x="147.412109" xlink:href="#DejaVuSans-46"/>
       <use x="179.199219" xlink:href="#DejaVuSans-53"/>
      </g>
     </g>
    </g>
    <g id="ytick_9">
     <g id="line2d_23">
      <g>
       <use style="stroke:#000000;stroke-width:0.8;" x="757.178182" xlink:href="#m6039cb54b3" y="147.274091"/>
      </g>
     </g>
     <g id="text_20">
      <!-- 0.0 -->
      <g transform="translate(734.275057 151.073309)scale(0.1 -0.1)">
       <use xlink:href="#DejaVuSans-48"/>
       <use x="63.623047" xlink:href="#DejaVuSans-46"/>
       <use x="95.410156" xlink:href="#DejaVuSans-48"/>
      </g>
     </g>
    </g>
    <g id="ytick_10">
     <g id="line2d_24">
      <g>
       <use style="stroke:#000000;stroke-width:0.8;" x="757.178182" xlink:href="#m6039cb54b3" y="99.796339"/>
      </g>
     </g>
     <g id="text_21">
      <!-- 0.5 -->
      <g transform="translate(734.275057 103.595558)scale(0.1 -0.1)">
       <use xlink:href="#DejaVuSans-48"/>
       <use x="63.623047" xlink:href="#DejaVuSans-46"/>
       <use x="95.410156" xlink:href="#DejaVuSans-53"/>
      </g>
     </g>
    </g>
   </g>
   <g id="line2d_25">
    <path clip-path="url(#pe196b6e6b0)" d="M 779.313719 147.274147 
L 857.21561 147.20551 
L 861.015702 147.008356 
L 876.216071 145.786581 
L 906.616808 144.452877 
L 925.61727 143.984008 
L 980.718607 143.156207 
L 990.218837 143.106763 
L 994.01893 143.341231 
L 995.918976 143.634402 
L 997.819022 144.074643 
L 999.719068 144.665114 
L 1003.51916 146.212903 
L 1009.219298 148.812008 
L 1013.019391 150.198878 
L 1016.819483 151.184985 
L 1022.519621 152.503409 
L 1026.319713 153.613304 
L 1030.119806 155.093855 
L 1033.919898 157.039178 
L 1037.71999 159.383249 
L 1049.120267 166.936667 
L 1056.720451 171.821623 
L 1060.520543 174.549914 
L 1064.320636 177.629167 
L 1068.120728 181.116242 
L 1071.92082 185.068697 
L 1075.720912 189.426627 
L 1079.521005 194.108622 
L 1083.321097 199.047301 
L 1087.121189 204.356011 
L 1090.921281 210.1065 
L 1094.721373 216.438819 
L 1098.521466 223.447342 
L 1102.321558 231.239315 
L 1106.12165 239.843472 
L 1109.921742 249.218288 
L 1115.621881 264.317521 
L 1117.521927 269.515901 
L 1123.222065 248.644524 
L 1125.122111 248.519342 
L 1127.022157 248.038049 
L 1128.922203 248.930042 
L 1130.822249 250.85581 
L 1132.722296 251.687748 
L 1134.622342 251.337618 
L 1136.522388 252.170845 
L 1138.422434 254.744977 
L 1140.32248 255.893537 
L 1142.222526 255.783337 
L 1144.122572 257.137025 
L 1146.022618 259.945726 
L 1147.922664 261.2954 
L 1149.822711 260.535387 
L 1151.722757 260.877472 
L 1153.622803 263.982855 
L 1155.522849 266.79993 
L 1157.422895 266.832821 
L 1159.322941 266.697536 
L 1161.222987 269.36609 
L 1163.123033 272.365211 
L 1165.023079 271.990193 
L 1166.923126 270.211712 
L 1168.823172 271.232893 
L 1170.723218 273.767835 
L 1172.623264 271.270298 
L 1174.52331 296.769135 
L 1176.423356 306.849307 
L 1178.323402 307.48025 
L 1180.223448 302.098495 
L 1182.123494 305.483717 
L 1184.023541 315.450941 
L 1185.923587 316.419015 
L 1187.823633 308.572242 
L 1189.723679 308.300546 
L 1191.623725 318.03272 
L 1193.523771 321.387382 
L 1195.423817 313.389319 
L 1197.323863 309.068635 
L 1199.223909 314.366524 
L 1201.123956 314.382783 
L 1203.024002 301.548533 
L 1204.924048 289.890968 
L 1206.824094 289.406567 
L 1208.72414 289.415169 
L 1210.624186 280.999459 
L 1212.524232 274.247257 
L 1214.424278 279.198482 
L 1216.324324 287.370639 
L 1218.224371 287.788999 
L 1220.124417 285.775155 
L 1222.024463 290.447317 
L 1222.024463 290.447317 
" style="fill:none;stroke:#ff796c;stroke-linecap:square;stroke-width:1.5;"/>
   </g>
   <g id="line2d_26">
    <path clip-path="url(#pe196b6e6b0)" d="M 779.313719 109.066131 
L 872.415978 109.183127 
L 927.517316 109.325797 
L 995.918976 109.294602 
L 1005.419206 109.015375 
L 1016.819483 108.701523 
L 1032.019852 108.353838 
L 1051.020313 107.499342 
L 1064.320636 106.859573 
L 1073.820866 106.155159 
L 1083.321097 105.177085 
L 1090.921281 104.144661 
L 1096.62142 103.150082 
L 1102.321558 101.90126 
L 1108.021696 100.345196 
L 1113.721834 98.449222 
L 1117.521927 96.991169 
L 1125.122111 97.297168 
L 1138.422434 97.492273 
L 1163.123033 97.551938 
L 1172.623264 97.55738 
L 1174.52331 96.191018 
L 1178.323402 96.682902 
L 1184.023541 97.108813 
L 1191.623725 97.372823 
L 1203.024002 97.508748 
L 1222.024463 97.551851 
L 1222.024463 97.551851 
" style="fill:none;stroke:#ffff14;stroke-linecap:square;stroke-width:1.5;"/>
   </g>
   <g id="line2d_27">
    <path clip-path="url(#pe196b6e6b0)" d="M 779.313719 109.069477 
L 1222.024463 109.069477 
L 1222.024463 109.069477 
" style="fill:none;stroke:#014d4e;stroke-linecap:square;stroke-width:1.5;"/>
   </g>
   <g id="line2d_28">
    <path clip-path="url(#pe196b6e6b0)" d="M 779.313719 147.277437 
L 872.415978 147.160441 
L 927.517316 147.017771 
L 995.918976 147.048966 
L 1005.419206 147.328193 
L 1016.819483 147.642044 
L 1032.019852 147.98973 
L 1051.020313 148.844226 
L 1064.320636 149.483995 
L 1073.820866 150.188409 
L 1083.321097 151.166483 
L 1090.921281 152.198907 
L 1096.62142 153.193486 
L 1102.321558 154.442308 
L 1108.021696 155.998372 
L 1113.721834 157.894346 
L 1117.521927 159.352399 
L 1125.122111 159.0464 
L 1138.422434 158.851295 
L 1163.123033 158.79163 
L 1172.623264 158.786187 
L 1174.52331 160.15255 
L 1178.323402 159.660666 
L 1184.023541 159.234754 
L 1191.623725 158.970745 
L 1203.024002 158.834819 
L 1222.024463 158.791717 
L 1222.024463 158.791717 
" style="fill:none;stroke:#e50000;stroke-linecap:square;stroke-width:1.5;"/>
   </g>
   <g id="patch_8">
    <path d="M 757.178182 332.6472 
L 757.178182 84.9312 
" style="fill:none;stroke:#000000;stroke-linecap:square;stroke-linejoin:miter;stroke-width:0.8;"/>
   </g>
   <g id="patch_9">
    <path d="M 1244.16 332.6472 
L 1244.16 84.9312 
" style="fill:none;stroke:#000000;stroke-linecap:square;stroke-linejoin:miter;stroke-width:0.8;"/>
   </g>
   <g id="patch_10">
    <path d="M 757.178182 332.6472 
L 1244.16 332.6472 
" style="fill:none;stroke:#000000;stroke-linecap:square;stroke-linejoin:miter;stroke-width:0.8;"/>
   </g>
   <g id="patch_11">
    <path d="M 757.178182 84.9312 
L 1244.16 84.9312 
" style="fill:none;stroke:#000000;stroke-linecap:square;stroke-linejoin:miter;stroke-width:0.8;"/>
   </g>
   <g id="text_22">
    <!-- Right flexion -->
    <defs>
     <path d="M 37.109375 75.984375 
L 37.109375 68.5 
L 28.515625 68.5 
Q 23.6875 68.5 21.796875 66.546875 
Q 19.921875 64.59375 19.921875 59.515625 
L 19.921875 54.6875 
L 34.71875 54.6875 
L 34.71875 47.703125 
L 19.921875 47.703125 
L 19.921875 0 
L 10.890625 0 
L 10.890625 47.703125 
L 2.296875 47.703125 
L 2.296875 54.6875 
L 10.890625 54.6875 
L 10.890625 58.5 
Q 10.890625 67.625 15.140625 71.796875 
Q 19.390625 75.984375 28.609375 75.984375 
z
" id="DejaVuSans-102"/>
     <path d="M 9.421875 75.984375 
L 18.40625 75.984375 
L 18.40625 0 
L 9.421875 0 
z
" id="DejaVuSans-108"/>
     <path d="M 56.203125 29.59375 
L 56.203125 25.203125 
L 14.890625 25.203125 
Q 15.484375 15.921875 20.484375 11.0625 
Q 25.484375 6.203125 34.421875 6.203125 
Q 39.59375 6.203125 44.453125 7.46875 
Q 49.3125 8.734375 54.109375 11.28125 
L 54.109375 2.78125 
Q 49.265625 0.734375 44.1875 -0.34375 
Q 39.109375 -1.421875 33.890625 -1.421875 
Q 20.796875 -1.421875 13.15625 6.1875 
Q 5.515625 13.8125 5.515625 26.8125 
Q 5.515625 40.234375 12.765625 48.109375 
Q 20.015625 56 32.328125 56 
Q 43.359375 56 49.78125 48.890625 
Q 56.203125 41.796875 56.203125 29.59375 
z
M 47.21875 32.234375 
Q 47.125 39.59375 43.09375 43.984375 
Q 39.0625 48.390625 32.421875 48.390625 
Q 24.90625 48.390625 20.390625 44.140625 
Q 15.875 39.890625 15.1875 32.171875 
z
" id="DejaVuSans-101"/>
     <path d="M 54.890625 54.6875 
L 35.109375 28.078125 
L 55.90625 0 
L 45.3125 0 
L 29.390625 21.484375 
L 13.484375 0 
L 2.875 0 
L 24.125 28.609375 
L 4.6875 54.6875 
L 15.28125 54.6875 
L 29.78125 35.203125 
L 44.28125 54.6875 
z
" id="DejaVuSans-120"/>
    </defs>
    <g transform="translate(962.800653 78.9312)scale(0.12 -0.12)">
     <use xlink:href="#DejaVuSans-82"/>
     <use x="69.482422" xlink:href="#DejaVuSans-105"/>
     <use x="97.265625" xlink:href="#DejaVuSans-103"/>
     <use x="160.742188" xlink:href="#DejaVuSans-104"/>
     <use x="224.121094" xlink:href="#DejaVuSans-116"/>
     <use x="263.330078" xlink:href="#DejaVuSans-32"/>
     <use x="295.117188" xlink:href="#DejaVuSans-102"/>
     <use x="330.322266" xlink:href="#DejaVuSans-108"/>
     <use x="358.105469" xlink:href="#DejaVuSans-101"/>
     <use x="419.613281" xlink:href="#DejaVuSans-120"/>
     <use x="478.792969" xlink:href="#DejaVuSans-105"/>
     <use x="506.576172" xlink:href="#DejaVuSans-111"/>
     <use x="567.757812" xlink:href="#DejaVuSans-110"/>
    </g>
   </g>
  </g>
  <g id="axes_3">
   <g id="patch_12">
    <path d="M 172.8 629.9064 
L 659.781818 629.9064 
L 659.781818 382.1904 
L 172.8 382.1904 
z
" style="fill:#ffffff;"/>
   </g>
   <g id="matplotlib.axis_5">
    <g id="xtick_11">
     <g id="line2d_29">
      <g>
       <use style="stroke:#000000;stroke-width:0.8;" x="194.935537" xlink:href="#meb2454e570" y="629.9064"/>
      </g>
     </g>
     <g id="text_23">
      <!-- 0 -->
      <g transform="translate(191.754287 644.504838)scale(0.1 -0.1)">
       <use xlink:href="#DejaVuSans-48"/>
      </g>
     </g>
    </g>
    <g id="xtick_12">
     <g id="line2d_30">
      <g>
       <use style="stroke:#000000;stroke-width:0.8;" x="289.937843" xlink:href="#meb2454e570" y="629.9064"/>
      </g>
     </g>
     <g id="text_24">
      <!-- 50 -->
      <g transform="translate(283.575343 644.504838)scale(0.1 -0.1)">
       <use xlink:href="#DejaVuSans-53"/>
       <use x="63.623047" xlink:href="#DejaVuSans-48"/>
      </g>
     </g>
    </g>
    <g id="xtick_13">
     <g id="line2d_31">
      <g>
       <use style="stroke:#000000;stroke-width:0.8;" x="384.940148" xlink:href="#meb2454e570" y="629.9064"/>
      </g>
     </g>
     <g id="text_25">
      <!-- 100 -->
      <g transform="translate(375.396398 644.504838)scale(0.1 -0.1)">
       <use xlink:href="#DejaVuSans-49"/>
       <use x="63.623047" xlink:href="#DejaVuSans-48"/>
       <use x="127.246094" xlink:href="#DejaVuSans-48"/>
      </g>
     </g>
    </g>
    <g id="xtick_14">
     <g id="line2d_32">
      <g>
       <use style="stroke:#000000;stroke-width:0.8;" x="479.942454" xlink:href="#meb2454e570" y="629.9064"/>
      </g>
     </g>
     <g id="text_26">
      <!-- 150 -->
      <g transform="translate(470.398704 644.504838)scale(0.1 -0.1)">
       <use xlink:href="#DejaVuSans-49"/>
       <use x="63.623047" xlink:href="#DejaVuSans-53"/>
       <use x="127.246094" xlink:href="#DejaVuSans-48"/>
      </g>
     </g>
    </g>
    <g id="xtick_15">
     <g id="line2d_33">
      <g>
       <use style="stroke:#000000;stroke-width:0.8;" x="574.944759" xlink:href="#meb2454e570" y="629.9064"/>
      </g>
     </g>
     <g id="text_27">
      <!-- 200 -->
      <g transform="translate(565.401009 644.504838)scale(0.1 -0.1)">
       <use xlink:href="#DejaVuSans-50"/>
       <use x="63.623047" xlink:href="#DejaVuSans-48"/>
       <use x="127.246094" xlink:href="#DejaVuSans-48"/>
      </g>
     </g>
    </g>
   </g>
   <g id="matplotlib.axis_6">
    <g id="ytick_11">
     <g id="line2d_34">
      <g>
       <use style="stroke:#000000;stroke-width:0.8;" x="172.8" xlink:href="#m6039cb54b3" y="627.41473"/>
      </g>
     </g>
     <g id="text_28">
      <!-- −1.0 -->
      <g transform="translate(141.517187 631.213949)scale(0.1 -0.1)">
       <use xlink:href="#DejaVuSans-8722"/>
       <use x="83.789062" xlink:href="#DejaVuSans-49"/>
       <use x="147.412109" xlink:href="#DejaVuSans-46"/>
       <use x="179.199219" xlink:href="#DejaVuSans-48"/>
      </g>
     </g>
    </g>
    <g id="ytick_12">
     <g id="line2d_35">
      <g>
       <use style="stroke:#000000;stroke-width:0.8;" x="172.8" xlink:href="#m6039cb54b3" y="581.910442"/>
      </g>
     </g>
     <g id="text_29">
      <!-- −0.5 -->
      <g transform="translate(141.517187 585.709661)scale(0.1 -0.1)">
       <use xlink:href="#DejaVuSans-8722"/>
       <use x="83.789062" xlink:href="#DejaVuSans-48"/>
       <use x="147.412109" xlink:href="#DejaVuSans-46"/>
       <use x="179.199219" xlink:href="#DejaVuSans-53"/>
      </g>
     </g>
    </g>
    <g id="ytick_13">
     <g id="line2d_36">
      <g>
       <use style="stroke:#000000;stroke-width:0.8;" x="172.8" xlink:href="#m6039cb54b3" y="536.406155"/>
      </g>
     </g>
     <g id="text_30">
      <!-- 0.0 -->
      <g transform="translate(149.896875 540.205373)scale(0.1 -0.1)">
       <use xlink:href="#DejaVuSans-48"/>
       <use x="63.623047" xlink:href="#DejaVuSans-46"/>
       <use x="95.410156" xlink:href="#DejaVuSans-48"/>
      </g>
     </g>
    </g>
    <g id="ytick_14">
     <g id="line2d_37">
      <g>
       <use style="stroke:#000000;stroke-width:0.8;" x="172.8" xlink:href="#m6039cb54b3" y="490.901867"/>
      </g>
     </g>
     <g id="text_31">
      <!-- 0.5 -->
      <g transform="translate(149.896875 494.701085)scale(0.1 -0.1)">
       <use xlink:href="#DejaVuSans-48"/>
       <use x="63.623047" xlink:href="#DejaVuSans-46"/>
       <use x="95.410156" xlink:href="#DejaVuSans-53"/>
      </g>
     </g>
    </g>
    <g id="ytick_15">
     <g id="line2d_38">
      <g>
       <use style="stroke:#000000;stroke-width:0.8;" x="172.8" xlink:href="#m6039cb54b3" y="445.397579"/>
      </g>
     </g>
     <g id="text_32">
      <!-- 1.0 -->
      <g transform="translate(149.896875 449.196798)scale(0.1 -0.1)">
       <use xlink:href="#DejaVuSans-49"/>
       <use x="63.623047" xlink:href="#DejaVuSans-46"/>
       <use x="95.410156" xlink:href="#DejaVuSans-48"/>
      </g>
     </g>
    </g>
    <g id="ytick_16">
     <g id="line2d_39">
      <g>
       <use style="stroke:#000000;stroke-width:0.8;" x="172.8" xlink:href="#m6039cb54b3" y="399.893291"/>
      </g>
     </g>
     <g id="text_33">
      <!-- 1.5 -->
      <g transform="translate(149.896875 403.69251)scale(0.1 -0.1)">
       <use xlink:href="#DejaVuSans-49"/>
       <use x="63.623047" xlink:href="#DejaVuSans-46"/>
       <use x="95.410156" xlink:href="#DejaVuSans-53"/>
      </g>
     </g>
    </g>
   </g>
   <g id="line2d_40">
    <path clip-path="url(#p3d6783d247)" d="M 194.935537 536.343542 
L 196.835583 536.562442 
L 200.635676 537.324953 
L 202.535722 537.493493 
L 204.435768 537.394971 
L 210.135906 536.32216 
L 212.035952 536.252689 
L 213.935998 536.460833 
L 217.736091 537.130871 
L 219.636137 537.256642 
L 221.536183 537.142343 
L 227.236321 536.204472 
L 229.136367 536.213479 
L 231.036413 536.478819 
L 234.836506 537.170112 
L 236.736552 537.287535 
L 238.636598 537.169382 
L 244.336736 536.303923 
L 246.236782 536.349844 
L 251.936921 537.209588 
L 253.836967 537.254315 
L 255.737013 537.071867 
L 259.537105 536.377177 
L 261.437151 536.204441 
L 263.337197 536.301221 
L 269.037336 537.17059 
L 270.937382 537.199183 
L 272.837428 537.01586 
L 276.63752 536.45893 
L 278.537566 536.419051 
L 280.437612 536.636155 
L 284.237704 537.342717 
L 286.137751 537.522151 
L 288.037797 537.481221 
L 293.737935 536.695723 
L 295.637981 536.70003 
L 303.238166 537.500398 
L 305.138212 537.33639 
L 308.938304 536.703499 
L 310.83835 536.545789 
L 312.738396 536.637724 
L 318.438534 537.366697 
L 320.33858 537.341278 
L 324.138673 536.84117 
L 326.038719 536.605464 
L 327.938765 536.575315 
L 331.738857 537.083235 
L 333.638903 537.332958 
L 335.538949 537.417485 
L 337.438995 537.316204 
L 343.139134 536.635486 
L 345.03918 536.699621 
L 350.739318 537.374648 
L 352.639364 537.354499 
L 356.439457 536.888978 
L 358.339503 536.640497 
L 360.239549 536.556639 
L 362.139595 536.688175 
L 365.939687 537.167379 
L 367.839733 537.258647 
L 369.739779 537.195596 
L 375.439918 536.635354 
L 377.339964 536.693753 
L 383.040102 537.448494 
L 384.940148 537.518093 
L 388.74024 537.26704 
L 390.640287 537.083315 
L 392.540333 537.026552 
L 394.440379 537.158713 
L 398.240471 537.618165 
L 400.140517 537.70849 
L 402.040563 537.650842 
L 405.840655 537.174828 
L 407.740702 536.9259 
L 409.640748 536.831051 
L 417.240932 537.122239 
L 421.041024 536.808728 
L 424.841117 536.441075 
L 426.741163 536.493061 
L 432.441301 537.00033 
L 434.341347 537.044585 
L 438.141439 536.735217 
L 440.041485 536.528163 
L 441.941532 536.451155 
L 451.441762 536.80602 
L 455.241854 536.332384 
L 459.041947 535.98492 
L 462.842039 535.997865 
L 466.642131 536.123381 
L 468.542177 536.064352 
L 476.142362 535.346061 
L 479.942454 535.425867 
L 483.742546 535.754435 
L 485.642592 535.79824 
L 495.142823 535.393852 
L 502.743007 535.765741 
L 506.543099 535.564656 
L 512.243238 534.948601 
L 521.743468 534.643888 
L 523.643514 534.41723 
L 531.243699 533.113677 
L 533.143745 532.902979 
L 535.043791 534.69607 
L 536.943837 533.685763 
L 538.843883 531.919545 
L 540.743929 532.269829 
L 542.643975 534.542005 
L 544.544022 534.373579 
L 546.444068 533.085388 
L 548.344114 535.27077 
L 550.24416 540.020002 
L 552.144206 541.891234 
L 554.044252 539.845337 
L 555.944298 542.999862 
L 557.844344 544.481339 
L 559.74439 540.46104 
L 561.644437 532.381605 
L 563.544483 526.298209 
L 565.444529 524.753092 
L 567.344575 524.615809 
L 569.244621 524.075328 
L 571.144667 526.154574 
L 573.044713 532.258723 
L 574.944759 537.595713 
L 576.844805 537.626372 
L 578.744852 534.904395 
L 580.644898 534.220457 
L 582.544944 534.686509 
L 584.44499 533.089826 
L 586.345036 531.821129 
L 588.245082 569.10206 
L 590.145128 590.15945 
L 592.045174 596.003514 
L 593.94522 591.018188 
L 595.845267 573.371272 
L 597.745313 537.722625 
L 599.645359 495.363552 
L 601.545405 467.93636 
L 603.445451 462.785902 
L 605.345497 471.094586 
L 607.245543 489.129333 
L 609.145589 522.40036 
L 611.045635 565.093405 
L 612.945682 595.733408 
L 614.845728 601.790219 
L 616.745774 591.919968 
L 618.64582 575.14281 
L 620.545866 547.312133 
L 622.445912 509.39159 
L 624.345958 480.495495 
L 626.246004 476.654017 
L 628.14605 491.389198 
L 630.046097 511.854379 
L 631.946143 539.777679 
L 633.846189 578.249939 
L 635.746235 611.260669 
L 637.646281 618.646582 
L 637.646281 618.646582 
" style="fill:none;stroke:#ff796c;stroke-linecap:square;stroke-width:1.5;"/>
   </g>
   <g id="line2d_41">
    <path clip-path="url(#p3d6783d247)" d="M 194.935537 394.016728 
L 202.535722 394.10911 
L 208.23586 394.542978 
L 219.636137 395.707317 
L 225.336275 396.599592 
L 238.636598 398.98276 
L 250.036874 401.71658 
L 255.737013 403.276214 
L 270.937382 408.024281 
L 282.337658 412.109519 
L 288.037797 414.30296 
L 297.538027 418.43696 
L 303.238166 421.032397 
L 310.83835 424.845895 
L 320.33858 429.684934 
L 335.538949 438.04748 
L 346.939226 444.755143 
L 352.639364 448.156228 
L 373.539872 461.282658 
L 394.440379 474.880534 
L 402.040563 480.060751 
L 419.140978 492.421449 
L 430.541255 500.716634 
L 438.141439 506.266087 
L 478.042408 535.822169 
L 487.542638 542.362528 
L 495.142823 547.430601 
L 502.743007 552.190747 
L 510.343192 556.771412 
L 516.04333 559.901773 
L 521.743468 562.698879 
L 525.54356 564.381151 
L 529.343653 565.850726 
L 535.043791 567.762672 
L 538.843883 569.381503 
L 540.743929 569.888934 
L 544.544022 570.288547 
L 546.444068 570.300277 
L 548.344114 569.981357 
L 552.144206 568.973453 
L 554.044252 568.691613 
L 555.944298 569.062728 
L 557.844344 569.857987 
L 559.74439 571.147621 
L 561.644437 572.711529 
L 563.544483 574.078026 
L 565.444529 574.944383 
L 567.344575 575.321014 
L 569.244621 575.24692 
L 571.144667 574.639497 
L 573.044713 573.545261 
L 576.844805 571.152886 
L 578.744852 570.074251 
L 580.644898 568.830163 
L 582.544944 567.380217 
L 584.44499 565.768448 
L 586.345036 563.864371 
L 588.245082 560.769773 
L 590.145128 558.664972 
L 592.045174 559.078005 
L 593.94522 562.167081 
L 595.845267 567.748498 
L 599.645359 582.688736 
L 601.545405 588.386326 
L 603.445451 590.969766 
L 605.345497 590.280437 
L 607.245543 586.711881 
L 609.145589 581.013463 
L 611.045635 574.656484 
L 612.945682 569.617124 
L 614.845728 567.275706 
L 616.745774 567.810764 
L 618.64582 570.707717 
L 620.545866 575.244864 
L 622.445912 580.189579 
L 624.345958 583.753249 
L 626.246004 584.541199 
L 628.14605 582.399662 
L 630.046097 578.036458 
L 633.846189 566.476607 
L 635.746235 562.223895 
L 637.646281 561.112357 
L 637.646281 561.112357 
" style="fill:none;stroke:#ffff14;stroke-linecap:square;stroke-width:1.5;"/>
   </g>
   <g id="line2d_42">
    <path clip-path="url(#p3d6783d247)" d="M 194.935537 393.450218 
L 202.535722 393.579024 
L 210.135906 393.965071 
L 217.736091 394.607244 
L 225.336275 395.503694 
L 232.936459 396.651835 
L 240.536644 398.048356 
L 248.136828 399.689232 
L 255.737013 401.569731 
L 263.337197 403.684431 
L 270.937382 406.027236 
L 278.537566 408.591389 
L 286.137751 411.369498 
L 293.737935 414.353553 
L 301.338119 417.53495 
L 310.83835 421.775183 
L 320.33858 426.29029 
L 329.838811 431.059934 
L 339.339042 436.06263 
L 350.739318 442.341697 
L 362.139595 448.883136 
L 375.439918 456.789746 
L 390.640287 466.102768 
L 411.540794 479.200019 
L 445.741624 500.669466 
L 460.941993 509.950832 
L 474.242315 517.818899 
L 485.642592 524.319514 
L 497.042869 530.550843 
L 506.543099 535.508699 
L 516.04333 540.229119 
L 525.54356 544.69084 
L 535.043791 548.873765 
L 542.643975 552.006664 
L 550.24416 554.940017 
L 557.844344 557.665364 
L 565.444529 560.174849 
L 573.044713 562.461235 
L 580.644898 564.51793 
L 588.245082 566.339005 
L 595.845267 567.919208 
L 603.445451 569.253985 
L 611.045635 570.339485 
L 618.64582 571.172579 
L 626.246004 571.750866 
L 633.846189 572.072678 
L 637.646281 572.137086 
L 637.646281 572.137086 
" style="fill:none;stroke:#014d4e;stroke-linecap:square;stroke-width:1.5;"/>
   </g>
   <g id="line2d_43">
    <path clip-path="url(#p3d6783d247)" d="M 194.935537 535.839644 
L 204.435768 535.839971 
L 215.836044 535.555033 
L 223.436229 535.383531 
L 231.036413 535.193083 
L 238.636598 535.099543 
L 248.136828 534.841878 
L 255.737013 534.699671 
L 263.337197 534.463186 
L 274.737474 534.314606 
L 280.437612 534.242479 
L 288.037797 534.199725 
L 320.33858 533.011511 
L 331.738857 532.516798 
L 339.339042 532.201042 
L 346.939226 531.868485 
L 354.53941 531.563561 
L 362.139595 531.19487 
L 373.539872 530.768021 
L 381.140056 530.552771 
L 388.74024 530.270146 
L 403.940609 529.400247 
L 440.041485 525.857601 
L 453.341808 524.235549 
L 478.042408 520.597107 
L 495.142823 518.50828 
L 508.443145 517.224585 
L 514.143284 516.813509 
L 519.843422 516.650299 
L 525.54356 516.715843 
L 529.343653 516.953978 
L 535.043791 517.517247 
L 538.843883 517.489258 
L 540.743929 517.759025 
L 544.544022 518.876658 
L 546.444068 519.604704 
L 548.344114 520.650657 
L 552.144206 523.073873 
L 554.044252 524.043738 
L 555.944298 524.347394 
L 557.844344 524.213531 
L 559.74439 523.571799 
L 561.644437 522.642182 
L 563.544483 521.89625 
L 565.444529 521.63662 
L 567.344575 521.85277 
L 569.244621 522.505591 
L 571.144667 523.677583 
L 573.044713 525.322128 
L 576.844805 528.771948 
L 578.744852 530.357529 
L 580.644898 532.093922 
L 584.44499 536.095971 
L 586.345036 538.447908 
L 588.245082 541.975387 
L 590.145128 544.49801 
L 592.045174 544.487666 
L 593.94522 541.786074 
L 595.845267 536.576865 
L 599.645359 522.334951 
L 601.545405 516.963351 
L 603.445451 514.690374 
L 605.345497 515.674581 
L 607.245543 519.52238 
L 609.145589 525.484354 
L 611.045635 532.089155 
L 612.945682 537.360558 
L 614.845728 539.918199 
L 616.745774 539.583503 
L 618.64582 536.871017 
L 620.545866 532.502407 
L 622.445912 527.710271 
L 624.345958 524.283192 
L 626.246004 523.615822 
L 628.14605 525.861905 
L 630.046097 530.313603 
L 633.846189 542.002225 
L 635.746235 546.295191 
L 637.646281 547.430883 
L 637.646281 547.430883 
" style="fill:none;stroke:#e50000;stroke-linecap:square;stroke-width:1.5;"/>
   </g>
   <g id="patch_13">
    <path d="M 172.8 629.9064 
L 172.8 382.1904 
" style="fill:none;stroke:#000000;stroke-linecap:square;stroke-linejoin:miter;stroke-width:0.8;"/>
   </g>
   <g id="patch_14">
    <path d="M 659.781818 629.9064 
L 659.781818 382.1904 
" style="fill:none;stroke:#000000;stroke-linecap:square;stroke-linejoin:miter;stroke-width:0.8;"/>
   </g>
   <g id="patch_15">
    <path d="M 172.8 629.9064 
L 659.781818 629.9064 
" style="fill:none;stroke:#000000;stroke-linecap:square;stroke-linejoin:miter;stroke-width:0.8;"/>
   </g>
   <g id="patch_16">
    <path d="M 172.8 382.1904 
L 659.781818 382.1904 
" style="fill:none;stroke:#000000;stroke-linecap:square;stroke-linejoin:miter;stroke-width:0.8;"/>
   </g>
   <g id="text_34">
    <!-- Left abduction -->
    <defs>
     <path d="M 9.8125 72.90625 
L 19.671875 72.90625 
L 19.671875 8.296875 
L 55.171875 8.296875 
L 55.171875 0 
L 9.8125 0 
z
" id="DejaVuSans-76"/>
    </defs>
    <g transform="translate(372.997159 376.1904)scale(0.12 -0.12)">
     <use xlink:href="#DejaVuSans-76"/>
     <use x="55.697266" xlink:href="#DejaVuSans-101"/>
     <use x="117.220703" xlink:href="#DejaVuSans-102"/>
     <use x="152.410156" xlink:href="#DejaVuSans-116"/>
     <use x="191.619141" xlink:href="#DejaVuSans-32"/>
     <use x="223.40625" xlink:href="#DejaVuSans-97"/>
     <use x="284.685547" xlink:href="#DejaVuSans-98"/>
     <use x="348.162109" xlink:href="#DejaVuSans-100"/>
     <use x="411.638672" xlink:href="#DejaVuSans-117"/>
     <use x="475.017578" xlink:href="#DejaVuSans-99"/>
     <use x="529.998047" xlink:href="#DejaVuSans-116"/>
     <use x="569.207031" xlink:href="#DejaVuSans-105"/>
     <use x="596.990234" xlink:href="#DejaVuSans-111"/>
     <use x="658.171875" xlink:href="#DejaVuSans-110"/>
    </g>
   </g>
  </g>
  <g id="axes_4">
   <g id="patch_17">
    <path d="M 757.178182 629.9064 
L 1244.16 629.9064 
L 1244.16 382.1904 
L 757.178182 382.1904 
z
" style="fill:#ffffff;"/>
   </g>
   <g id="matplotlib.axis_7">
    <g id="xtick_16">
     <g id="line2d_44">
      <g>
       <use style="stroke:#000000;stroke-width:0.8;" x="779.313719" xlink:href="#meb2454e570" y="629.9064"/>
      </g>
     </g>
     <g id="text_35">
      <!-- 0 -->
      <g transform="translate(776.132469 644.504838)scale(0.1 -0.1)">
       <use xlink:href="#DejaVuSans-48"/>
      </g>
     </g>
    </g>
    <g id="xtick_17">
     <g id="line2d_45">
      <g>
       <use style="stroke:#000000;stroke-width:0.8;" x="874.316025" xlink:href="#meb2454e570" y="629.9064"/>
      </g>
     </g>
     <g id="text_36">
      <!-- 50 -->
      <g transform="translate(867.953525 644.504838)scale(0.1 -0.1)">
       <use xlink:href="#DejaVuSans-53"/>
       <use x="63.623047" xlink:href="#DejaVuSans-48"/>
      </g>
     </g>
    </g>
    <g id="xtick_18">
     <g id="line2d_46">
      <g>
       <use style="stroke:#000000;stroke-width:0.8;" x="969.31833" xlink:href="#meb2454e570" y="629.9064"/>
      </g>
     </g>
     <g id="text_37">
      <!-- 100 -->
      <g transform="translate(959.77458 644.504838)scale(0.1 -0.1)">
       <use xlink:href="#DejaVuSans-49"/>
       <use x="63.623047" xlink:href="#DejaVuSans-48"/>
       <use x="127.246094" xlink:href="#DejaVuSans-48"/>
      </g>
     </g>
    </g>
    <g id="xtick_19">
     <g id="line2d_47">
      <g>
       <use style="stroke:#000000;stroke-width:0.8;" x="1064.320636" xlink:href="#meb2454e570" y="629.9064"/>
      </g>
     </g>
     <g id="text_38">
      <!-- 150 -->
      <g transform="translate(1054.776886 644.504838)scale(0.1 -0.1)">
       <use xlink:href="#DejaVuSans-49"/>
       <use x="63.623047" xlink:href="#DejaVuSans-53"/>
       <use x="127.246094" xlink:href="#DejaVuSans-48"/>
      </g>
     </g>
    </g>
    <g id="xtick_20">
     <g id="line2d_48">
      <g>
       <use style="stroke:#000000;stroke-width:0.8;" x="1159.322941" xlink:href="#meb2454e570" y="629.9064"/>
      </g>
     </g>
     <g id="text_39">
      <!-- 200 -->
      <g transform="translate(1149.779191 644.504838)scale(0.1 -0.1)">
       <use xlink:href="#DejaVuSans-50"/>
       <use x="63.623047" xlink:href="#DejaVuSans-48"/>
       <use x="127.246094" xlink:href="#DejaVuSans-48"/>
      </g>
     </g>
    </g>
   </g>
   <g id="matplotlib.axis_8">
    <g id="ytick_17">
     <g id="line2d_49">
      <g>
       <use style="stroke:#000000;stroke-width:0.8;" x="757.178182" xlink:href="#m6039cb54b3" y="609.062512"/>
      </g>
     </g>
     <g id="text_40">
      <!-- −0.5 -->
      <g transform="translate(725.895369 612.861731)scale(0.1 -0.1)">
       <use xlink:href="#DejaVuSans-8722"/>
       <use x="83.789062" xlink:href="#DejaVuSans-48"/>
       <use x="147.412109" xlink:href="#DejaVuSans-46"/>
       <use x="179.199219" xlink:href="#DejaVuSans-53"/>
      </g>
     </g>
    </g>
    <g id="ytick_18">
     <g id="line2d_50">
      <g>
       <use style="stroke:#000000;stroke-width:0.8;" x="757.178182" xlink:href="#m6039cb54b3" y="574.589901"/>
      </g>
     </g>
     <g id="text_41">
      <!-- −0.4 -->
      <g transform="translate(725.895369 578.389119)scale(0.1 -0.1)">
       <use xlink:href="#DejaVuSans-8722"/>
       <use x="83.789062" xlink:href="#DejaVuSans-48"/>
       <use x="147.412109" xlink:href="#DejaVuSans-46"/>
       <use x="179.199219" xlink:href="#DejaVuSans-52"/>
      </g>
     </g>
    </g>
    <g id="ytick_19">
     <g id="line2d_51">
      <g>
       <use style="stroke:#000000;stroke-width:0.8;" x="757.178182" xlink:href="#m6039cb54b3" y="540.117289"/>
      </g>
     </g>
     <g id="text_42">
      <!-- −0.3 -->
      <g transform="translate(725.895369 543.916508)scale(0.1 -0.1)">
       <use xlink:href="#DejaVuSans-8722"/>
       <use x="83.789062" xlink:href="#DejaVuSans-48"/>
       <use x="147.412109" xlink:href="#DejaVuSans-46"/>
       <use x="179.199219" xlink:href="#DejaVuSans-51"/>
      </g>
     </g>
    </g>
    <g id="ytick_20">
     <g id="line2d_52">
      <g>
       <use style="stroke:#000000;stroke-width:0.8;" x="757.178182" xlink:href="#m6039cb54b3" y="505.644678"/>
      </g>
     </g>
     <g id="text_43">
      <!-- −0.2 -->
      <g transform="translate(725.895369 509.443896)scale(0.1 -0.1)">
       <use xlink:href="#DejaVuSans-8722"/>
       <use x="83.789062" xlink:href="#DejaVuSans-48"/>
       <use x="147.412109" xlink:href="#DejaVuSans-46"/>
       <use x="179.199219" xlink:href="#DejaVuSans-50"/>
      </g>
     </g>
    </g>
    <g id="ytick_21">
     <g id="line2d_53">
      <g>
       <use style="stroke:#000000;stroke-width:0.8;" x="757.178182" xlink:href="#m6039cb54b3" y="471.172066"/>
      </g>
     </g>
     <g id="text_44">
      <!-- −0.1 -->
      <g transform="translate(725.895369 474.971285)scale(0.1 -0.1)">
       <use xlink:href="#DejaVuSans-8722"/>
       <use x="83.789062" xlink:href="#DejaVuSans-48"/>
       <use x="147.412109" xlink:href="#DejaVuSans-46"/>
       <use x="179.199219" xlink:href="#DejaVuSans-49"/>
      </g>
     </g>
    </g>
    <g id="ytick_22">
     <g id="line2d_54">
      <g>
       <use style="stroke:#000000;stroke-width:0.8;" x="757.178182" xlink:href="#m6039cb54b3" y="436.699455"/>
      </g>
     </g>
     <g id="text_45">
      <!-- 0.0 -->
      <g transform="translate(734.275057 440.498673)scale(0.1 -0.1)">
       <use xlink:href="#DejaVuSans-48"/>
       <use x="63.623047" xlink:href="#DejaVuSans-46"/>
       <use x="95.410156" xlink:href="#DejaVuSans-48"/>
      </g>
     </g>
    </g>
    <g id="ytick_23">
     <g id="line2d_55">
      <g>
       <use style="stroke:#000000;stroke-width:0.8;" x="757.178182" xlink:href="#m6039cb54b3" y="402.226843"/>
      </g>
     </g>
     <g id="text_46">
      <!-- 0.1 -->
      <g transform="translate(734.275057 406.026062)scale(0.1 -0.1)">
       <use xlink:href="#DejaVuSans-48"/>
       <use x="63.623047" xlink:href="#DejaVuSans-46"/>
       <use x="95.410156" xlink:href="#DejaVuSans-49"/>
      </g>
     </g>
    </g>
   </g>
   <g id="line2d_56">
    <path clip-path="url(#p459c21429c)" d="M 779.313719 436.690393 
L 857.21561 436.242585 
L 861.015702 436.016856 
L 876.216071 434.652404 
L 906.616808 433.060788 
L 925.61727 432.440487 
L 980.718607 431.187986 
L 990.218837 431.075699 
L 992.118883 431.14195 
L 994.01893 431.32015 
L 995.918976 431.642973 
L 997.819022 432.133922 
L 999.719068 432.797144 
L 1003.51916 434.546981 
L 1009.219298 437.503908 
L 1013.019391 439.088687 
L 1016.819483 440.219565 
L 1022.519621 441.74013 
L 1026.319713 443.026766 
L 1028.21976 443.821637 
L 1030.119806 444.748916 
L 1032.019852 445.817506 
L 1035.819944 448.339368 
L 1039.620036 451.248009 
L 1047.220221 457.219336 
L 1056.720451 464.43479 
L 1060.520543 467.650636 
L 1064.320636 471.228858 
L 1068.120728 475.197367 
L 1071.92082 479.574307 
L 1077.620958 486.622762 
L 1092.821327 506.023141 
L 1098.521466 513.752338 
L 1104.221604 521.896549 
L 1109.921742 530.093951 
L 1113.721834 535.127849 
L 1115.621881 537.35296 
L 1117.521927 539.327651 
L 1121.322019 512.574942 
L 1123.222065 498.598714 
L 1125.122111 498.425634 
L 1127.022157 497.799111 
L 1128.922203 498.739363 
L 1130.822249 500.834254 
L 1132.722296 501.646944 
L 1134.622342 501.09795 
L 1136.522388 501.862948 
L 1138.422434 504.555478 
L 1140.32248 505.658839 
L 1142.222526 505.384962 
L 1144.122572 506.65547 
L 1146.022618 509.432201 
L 1147.922664 510.644208 
L 1149.822711 509.661924 
L 1151.722757 509.835383 
L 1153.622803 512.836956 
L 1155.522849 515.531056 
L 1157.422895 515.414682 
L 1159.322941 515.139417 
L 1161.222987 517.655801 
L 1163.123033 520.485733 
L 1165.023079 519.96992 
L 1166.923126 518.071594 
L 1168.823172 518.913974 
L 1170.723218 521.220265 
L 1172.623264 518.453655 
L 1174.52331 542.475792 
L 1176.423356 551.994572 
L 1178.323402 552.479086 
L 1180.223448 547.254403 
L 1182.123494 550.169176 
L 1184.023541 559.197668 
L 1185.923587 559.84183 
L 1187.823633 552.31193 
L 1189.723679 551.915529 
L 1191.623725 560.930714 
L 1193.523771 564.030604 
L 1195.423817 556.483122 
L 1197.323863 552.317921 
L 1199.223909 557.185428 
L 1201.123956 556.99349 
L 1203.024002 544.311233 
L 1204.924048 532.61902 
L 1206.824094 531.967672 
L 1208.72414 531.819407 
L 1210.624186 522.924987 
L 1212.524232 515.582629 
L 1214.424278 520.421307 
L 1216.324324 528.647483 
L 1218.224371 528.648688 
L 1220.124417 526.106035 
L 1222.024463 530.90257 
L 1222.024463 530.90257 
" style="fill:none;stroke:#ff796c;stroke-linecap:square;stroke-width:1.5;"/>
   </g>
   <g id="line2d_57">
    <path clip-path="url(#p459c21429c)" d="M 779.313719 575.441966 
L 864.815794 575.561375 
L 881.916209 575.772997 
L 933.217454 576.155637 
L 992.118883 576.396779 
L 995.918976 576.270997 
L 999.719068 575.978968 
L 1005.419206 575.273985 
L 1011.119345 574.542048 
L 1016.819483 574.048424 
L 1026.319713 573.293779 
L 1030.119806 572.825956 
L 1035.819944 571.84209 
L 1047.220221 569.381941 
L 1060.520543 566.50558 
L 1073.820866 563.38858 
L 1077.620958 562.741018 
L 1081.421051 562.382388 
L 1085.221143 562.401409 
L 1087.121189 562.572053 
L 1089.021235 562.862465 
L 1090.921281 563.280827 
L 1092.821327 563.833855 
L 1094.721373 564.530221 
L 1096.62142 565.381211 
L 1098.521466 566.397583 
L 1100.421512 567.589274 
L 1102.321558 568.969724 
L 1104.221604 570.557902 
L 1106.12165 572.37519 
L 1108.021696 574.443603 
L 1109.921742 576.788683 
L 1111.821788 579.440913 
L 1113.721834 582.432232 
L 1115.621881 585.794078 
L 1117.521927 589.560345 
L 1119.421973 598.26448 
L 1121.322019 607.95767 
L 1123.222065 618.373825 
L 1128.922203 617.868821 
L 1134.622342 617.619283 
L 1140.32248 617.585054 
L 1163.123033 617.679645 
L 1170.723218 617.725121 
L 1172.623264 617.901244 
L 1174.52331 617.808334 
L 1187.823633 618.126202 
L 1206.824094 618.564765 
L 1222.024463 618.646582 
L 1222.024463 618.646582 
" style="fill:none;stroke:#ffff14;stroke-linecap:square;stroke-width:1.5;"/>
   </g>
   <g id="line2d_58">
    <path clip-path="url(#p459c21429c)" d="M 779.313719 575.397345 
L 1222.024463 575.397345 
L 1222.024463 575.397345 
" style="fill:none;stroke:#014d4e;stroke-linecap:square;stroke-width:1.5;"/>
   </g>
   <g id="line2d_59">
    <path clip-path="url(#p459c21429c)" d="M 779.313719 436.654834 
L 864.815794 436.535425 
L 881.916209 436.323803 
L 933.217454 435.941163 
L 992.118883 435.700021 
L 995.918976 435.825803 
L 999.719068 436.117832 
L 1005.419206 436.822815 
L 1011.119345 437.554752 
L 1016.819483 438.048376 
L 1026.319713 438.803021 
L 1030.119806 439.270844 
L 1035.819944 440.25471 
L 1047.220221 442.714859 
L 1060.520543 445.59122 
L 1073.820866 448.70822 
L 1077.620958 449.355782 
L 1081.421051 449.714412 
L 1085.221143 449.695391 
L 1087.121189 449.524747 
L 1089.021235 449.234335 
L 1090.921281 448.815973 
L 1092.821327 448.262945 
L 1094.721373 447.566579 
L 1096.62142 446.715589 
L 1098.521466 445.699217 
L 1100.421512 444.507526 
L 1102.321558 443.127076 
L 1104.221604 441.538898 
L 1106.12165 439.72161 
L 1108.021696 437.653197 
L 1109.921742 435.308117 
L 1111.821788 432.655887 
L 1113.721834 429.664568 
L 1115.621881 426.302722 
L 1117.521927 422.536455 
L 1119.421973 413.83232 
L 1121.322019 404.13913 
L 1123.222065 393.722975 
L 1128.922203 394.227979 
L 1134.622342 394.477517 
L 1140.32248 394.511746 
L 1163.123033 394.417155 
L 1170.723218 394.371679 
L 1172.623264 394.195556 
L 1174.52331 394.288466 
L 1187.823633 393.970598 
L 1206.824094 393.532035 
L 1222.024463 393.450218 
L 1222.024463 393.450218 
" style="fill:none;stroke:#e50000;stroke-linecap:square;stroke-width:1.5;"/>
   </g>
   <g id="patch_18">
    <path d="M 757.178182 629.9064 
L 757.178182 382.1904 
" style="fill:none;stroke:#000000;stroke-linecap:square;stroke-linejoin:miter;stroke-width:0.8;"/>
   </g>
   <g id="patch_19">
    <path d="M 1244.16 629.9064 
L 1244.16 382.1904 
" style="fill:none;stroke:#000000;stroke-linecap:square;stroke-linejoin:miter;stroke-width:0.8;"/>
   </g>
   <g id="patch_20">
    <path d="M 757.178182 629.9064 
L 1244.16 629.9064 
" style="fill:none;stroke:#000000;stroke-linecap:square;stroke-linejoin:miter;stroke-width:0.8;"/>
   </g>
   <g id="patch_21">
    <path d="M 757.178182 382.1904 
L 1244.16 382.1904 
" style="fill:none;stroke:#000000;stroke-linecap:square;stroke-linejoin:miter;stroke-width:0.8;"/>
   </g>
   <g id="text_47">
    <!-- Left flexion -->
    <g transform="translate(967.102841 376.1904)scale(0.12 -0.12)">
     <use xlink:href="#DejaVuSans-76"/>
     <use x="55.697266" xlink:href="#DejaVuSans-101"/>
     <use x="117.220703" xlink:href="#DejaVuSans-102"/>
     <use x="152.410156" xlink:href="#DejaVuSans-116"/>
     <use x="191.619141" xlink:href="#DejaVuSans-32"/>
     <use x="223.40625" xlink:href="#DejaVuSans-102"/>
     <use x="258.611328" xlink:href="#DejaVuSans-108"/>
     <use x="286.394531" xlink:href="#DejaVuSans-101"/>
     <use x="347.902344" xlink:href="#DejaVuSans-120"/>
     <use x="407.082031" xlink:href="#DejaVuSans-105"/>
     <use x="434.865234" xlink:href="#DejaVuSans-111"/>
     <use x="496.046875" xlink:href="#DejaVuSans-110"/>
    </g>
   </g>
  </g>
  <g id="legend_1">
   <g id="patch_22">
    <path d="M 1308.251562 384.875313 
L 1375.4 384.875313 
Q 1377.4 384.875313 1377.4 382.875313 
L 1377.4 324.884687 
Q 1377.4 322.884687 1375.4 322.884687 
L 1308.251562 322.884687 
Q 1306.251562 322.884687 1306.251562 324.884687 
L 1306.251562 382.875313 
Q 1306.251562 384.875313 1308.251562 384.875313 
z
" style="fill:#ffffff;opacity:0.8;stroke:#cccccc;stroke-linejoin:miter;"/>
   </g>
   <g id="line2d_60">
    <path d="M 1310.251562 330.983125 
L 1330.251562 330.983125 
" style="fill:none;stroke:#ff796c;stroke-linecap:square;stroke-width:1.5;"/>
   </g>
   <g id="line2d_61"/>
   <g id="text_48">
    <!-- Torque -->
    <defs>
     <path d="M -0.296875 72.90625 
L 61.375 72.90625 
L 61.375 64.59375 
L 35.5 64.59375 
L 35.5 0 
L 25.59375 0 
L 25.59375 64.59375 
L -0.296875 64.59375 
z
" id="DejaVuSans-84"/>
     <path d="M 41.109375 46.296875 
Q 39.59375 47.171875 37.8125 47.578125 
Q 36.03125 48 33.890625 48 
Q 26.265625 48 22.1875 43.046875 
Q 18.109375 38.09375 18.109375 28.8125 
L 18.109375 0 
L 9.078125 0 
L 9.078125 54.6875 
L 18.109375 54.6875 
L 18.109375 46.1875 
Q 20.953125 51.171875 25.484375 53.578125 
Q 30.03125 56 36.53125 56 
Q 37.453125 56 38.578125 55.875 
Q 39.703125 55.765625 41.0625 55.515625 
z
" id="DejaVuSans-114"/>
     <path d="M 14.796875 27.296875 
Q 14.796875 17.390625 18.875 11.75 
Q 22.953125 6.109375 30.078125 6.109375 
Q 37.203125 6.109375 41.296875 11.75 
Q 45.40625 17.390625 45.40625 27.296875 
Q 45.40625 37.203125 41.296875 42.84375 
Q 37.203125 48.484375 30.078125 48.484375 
Q 22.953125 48.484375 18.875 42.84375 
Q 14.796875 37.203125 14.796875 27.296875 
z
M 45.40625 8.203125 
Q 42.578125 3.328125 38.25 0.953125 
Q 33.9375 -1.421875 27.875 -1.421875 
Q 17.96875 -1.421875 11.734375 6.484375 
Q 5.515625 14.40625 5.515625 27.296875 
Q 5.515625 40.1875 11.734375 48.09375 
Q 17.96875 56 27.875 56 
Q 33.9375 56 38.25 53.625 
Q 42.578125 51.265625 45.40625 46.390625 
L 45.40625 54.6875 
L 54.390625 54.6875 
L 54.390625 -20.796875 
L 45.40625 -20.796875 
z
" id="DejaVuSans-113"/>
    </defs>
    <g transform="translate(1338.251562 334.483125)scale(0.1 -0.1)">
     <use xlink:href="#DejaVuSans-84"/>
     <use x="60.818359" xlink:href="#DejaVuSans-111"/>
     <use x="122" xlink:href="#DejaVuSans-114"/>
     <use x="163.097656" xlink:href="#DejaVuSans-113"/>
     <use x="226.574219" xlink:href="#DejaVuSans-117"/>
     <use x="289.953125" xlink:href="#DejaVuSans-101"/>
    </g>
   </g>
   <g id="line2d_62">
    <path d="M 1310.251562 345.66125 
L 1330.251562 345.66125 
" style="fill:none;stroke:#ffff14;stroke-linecap:square;stroke-width:1.5;"/>
   </g>
   <g id="line2d_63"/>
   <g id="text_49">
    <!-- q -->
    <g transform="translate(1338.251562 349.16125)scale(0.1 -0.1)">
     <use xlink:href="#DejaVuSans-113"/>
    </g>
   </g>
   <g id="line2d_64">
    <path d="M 1310.251562 360.339375 
L 1330.251562 360.339375 
" style="fill:none;stroke:#014d4e;stroke-linecap:square;stroke-width:1.5;"/>
   </g>
   <g id="line2d_65"/>
   <g id="text_50">
    <!-- q_des -->
    <defs>
     <path d="M 50.984375 -16.609375 
L 50.984375 -23.578125 
L -0.984375 -23.578125 
L -0.984375 -16.609375 
z
" id="DejaVuSans-95"/>
     <path d="M 44.28125 53.078125 
L 44.28125 44.578125 
Q 40.484375 46.53125 36.375 47.5 
Q 32.28125 48.484375 27.875 48.484375 
Q 21.1875 48.484375 17.84375 46.4375 
Q 14.5 44.390625 14.5 40.28125 
Q 14.5 37.15625 16.890625 35.375 
Q 19.28125 33.59375 26.515625 31.984375 
L 29.59375 31.296875 
Q 39.15625 29.25 43.1875 25.515625 
Q 47.21875 21.78125 47.21875 15.09375 
Q 47.21875 7.46875 41.1875 3.015625 
Q 35.15625 -1.421875 24.609375 -1.421875 
Q 20.21875 -1.421875 15.453125 -0.5625 
Q 10.6875 0.296875 5.421875 2 
L 5.421875 11.28125 
Q 10.40625 8.6875 15.234375 7.390625 
Q 20.0625 6.109375 24.8125 6.109375 
Q 31.15625 6.109375 34.5625 8.28125 
Q 37.984375 10.453125 37.984375 14.40625 
Q 37.984375 18.0625 35.515625 20.015625 
Q 33.0625 21.96875 24.703125 23.78125 
L 21.578125 24.515625 
Q 13.234375 26.265625 9.515625 29.90625 
Q 5.8125 33.546875 5.8125 39.890625 
Q 5.8125 47.609375 11.28125 51.796875 
Q 16.75 56 26.8125 56 
Q 31.78125 56 36.171875 55.265625 
Q 40.578125 54.546875 44.28125 53.078125 
z
" id="DejaVuSans-115"/>
    </defs>
    <g transform="translate(1338.251562 363.839375)scale(0.1 -0.1)">
     <use xlink:href="#DejaVuSans-113"/>
     <use x="63.476562" xlink:href="#DejaVuSans-95"/>
     <use x="113.476562" xlink:href="#DejaVuSans-100"/>
     <use x="176.953125" xlink:href="#DejaVuSans-101"/>
     <use x="238.476562" xlink:href="#DejaVuSans-115"/>
    </g>
   </g>
   <g id="line2d_66">
    <path d="M 1310.251562 375.295625 
L 1330.251562 375.295625 
" style="fill:none;stroke:#e50000;stroke-linecap:square;stroke-width:1.5;"/>
   </g>
   <g id="line2d_67"/>
   <g id="text_51">
    <!-- error -->
    <g transform="translate(1338.251562 378.795625)scale(0.1 -0.1)">
     <use xlink:href="#DejaVuSans-101"/>
     <use x="61.523438" xlink:href="#DejaVuSans-114"/>
     <use x="102.621094" xlink:href="#DejaVuSans-114"/>
     <use x="143.703125" xlink:href="#DejaVuSans-111"/>
     <use x="204.884766" xlink:href="#DejaVuSans-114"/>
    </g>
   </g>
  </g>
 </g>
 <defs>
  <clipPath id="p836510ece9">
   <rect height="247.716" width="486.981818" x="172.8" y="84.9312"/>
  </clipPath>
  <clipPath id="pe196b6e6b0">
   <rect height="247.716" width="486.981818" x="757.178182" y="84.9312"/>
  </clipPath>
  <clipPath id="p3d6783d247">
   <rect height="247.716" width="486.981818" x="172.8" y="382.1904"/>
  </clipPath>
  <clipPath id="p459c21429c">
   <rect height="247.716" width="486.981818" x="757.178182" y="382.1904"/>
  </clipPath>
 </defs>
</svg>
