<?xml version="1.0" encoding="utf-8" standalone="no"?>
<!DOCTYPE svg PUBLIC "-//W3C//DTD SVG 1.1//EN"
  "http://www.w3.org/Graphics/SVG/1.1/DTD/svg11.dtd">
<!-- Created with matplotlib (https://matplotlib.org/) -->
<svg height="707.76pt" version="1.1" viewBox="0 0 1382.4 707.76" width="1382.4pt" xmlns="http://www.w3.org/2000/svg" xmlns:xlink="http://www.w3.org/1999/xlink">
 <defs>
  <style type="text/css">
*{stroke-linecap:butt;stroke-linejoin:round;}
  </style>
 </defs>
 <g id="figure_1">
  <g id="patch_1">
   <path d="M 0 707.76 
L 1382.4 707.76 
L 1382.4 0 
L 0 0 
z
" style="fill:#ffffff;"/>
  </g>
  <g id="axes_1">
   <g id="patch_2">
    <path d="M 172.8 332.6472 
L 487.905882 332.6472 
L 487.905882 84.9312 
L 172.8 84.9312 
z
" style="fill:#ffffff;"/>
   </g>
   <g id="matplotlib.axis_1">
    <g id="xtick_1">
     <g id="line2d_1">
      <defs>
       <path d="M 0 0 
L 0 3.5 
" id="m53ba7c0c5c" style="stroke:#000000;stroke-width:0.8;"/>
      </defs>
      <g>
       <use style="stroke:#000000;stroke-width:0.8;" x="187.122995" xlink:href="#m53ba7c0c5c" y="332.6472"/>
      </g>
     </g>
     <g id="text_1">
      <!-- 0 -->
      <defs>
       <path d="M 31.78125 66.40625 
Q 24.171875 66.40625 20.328125 58.90625 
Q 16.5 51.421875 16.5 36.375 
Q 16.5 21.390625 20.328125 13.890625 
Q 24.171875 6.390625 31.78125 6.390625 
Q 39.453125 6.390625 43.28125 13.890625 
Q 47.125 21.390625 47.125 36.375 
Q 47.125 51.421875 43.28125 58.90625 
Q 39.453125 66.40625 31.78125 66.40625 
z
M 31.78125 74.21875 
Q 44.046875 74.21875 50.515625 64.515625 
Q 56.984375 54.828125 56.984375 36.375 
Q 56.984375 17.96875 50.515625 8.265625 
Q 44.046875 -1.421875 31.78125 -1.421875 
Q 19.53125 -1.421875 13.0625 8.265625 
Q 6.59375 17.96875 6.59375 36.375 
Q 6.59375 54.828125 13.0625 64.515625 
Q 19.53125 74.21875 31.78125 74.21875 
z
" id="DejaVuSans-48"/>
      </defs>
      <g transform="translate(183.941745 347.245637)scale(0.1 -0.1)">
       <use xlink:href="#DejaVuSans-48"/>
      </g>
     </g>
    </g>
    <g id="xtick_2">
     <g id="line2d_2">
      <g>
       <use style="stroke:#000000;stroke-width:0.8;" x="248.595075" xlink:href="#m53ba7c0c5c" y="332.6472"/>
      </g>
     </g>
     <g id="text_2">
      <!-- 50 -->
      <defs>
       <path d="M 10.796875 72.90625 
L 49.515625 72.90625 
L 49.515625 64.59375 
L 19.828125 64.59375 
L 19.828125 46.734375 
Q 21.96875 47.46875 24.109375 47.828125 
Q 26.265625 48.1875 28.421875 48.1875 
Q 40.625 48.1875 47.75 41.5 
Q 54.890625 34.8125 54.890625 23.390625 
Q 54.890625 11.625 47.5625 5.09375 
Q 40.234375 -1.421875 26.90625 -1.421875 
Q 22.3125 -1.421875 17.546875 -0.640625 
Q 12.796875 0.140625 7.71875 1.703125 
L 7.71875 11.625 
Q 12.109375 9.234375 16.796875 8.0625 
Q 21.484375 6.890625 26.703125 6.890625 
Q 35.15625 6.890625 40.078125 11.328125 
Q 45.015625 15.765625 45.015625 23.390625 
Q 45.015625 31 40.078125 35.4375 
Q 35.15625 39.890625 26.703125 39.890625 
Q 22.75 39.890625 18.8125 39.015625 
Q 14.890625 38.140625 10.796875 36.28125 
z
" id="DejaVuSans-53"/>
      </defs>
      <g transform="translate(242.232575 347.245637)scale(0.1 -0.1)">
       <use xlink:href="#DejaVuSans-53"/>
       <use x="63.623047" xlink:href="#DejaVuSans-48"/>
      </g>
     </g>
    </g>
    <g id="xtick_3">
     <g id="line2d_3">
      <g>
       <use style="stroke:#000000;stroke-width:0.8;" x="310.067155" xlink:href="#m53ba7c0c5c" y="332.6472"/>
      </g>
     </g>
     <g id="text_3">
      <!-- 100 -->
      <defs>
       <path d="M 12.40625 8.296875 
L 28.515625 8.296875 
L 28.515625 63.921875 
L 10.984375 60.40625 
L 10.984375 69.390625 
L 28.421875 72.90625 
L 38.28125 72.90625 
L 38.28125 8.296875 
L 54.390625 8.296875 
L 54.390625 0 
L 12.40625 0 
z
" id="DejaVuSans-49"/>
      </defs>
      <g transform="translate(300.523405 347.245637)scale(0.1 -0.1)">
       <use xlink:href="#DejaVuSans-49"/>
       <use x="63.623047" xlink:href="#DejaVuSans-48"/>
       <use x="127.246094" xlink:href="#DejaVuSans-48"/>
      </g>
     </g>
    </g>
    <g id="xtick_4">
     <g id="line2d_4">
      <g>
       <use style="stroke:#000000;stroke-width:0.8;" x="371.539235" xlink:href="#m53ba7c0c5c" y="332.6472"/>
      </g>
     </g>
     <g id="text_4">
      <!-- 150 -->
      <g transform="translate(361.995485 347.245637)scale(0.1 -0.1)">
       <use xlink:href="#DejaVuSans-49"/>
       <use x="63.623047" xlink:href="#DejaVuSans-53"/>
       <use x="127.246094" xlink:href="#DejaVuSans-48"/>
      </g>
     </g>
    </g>
    <g id="xtick_5">
     <g id="line2d_5">
      <g>
       <use style="stroke:#000000;stroke-width:0.8;" x="433.011315" xlink:href="#m53ba7c0c5c" y="332.6472"/>
      </g>
     </g>
     <g id="text_5">
      <!-- 200 -->
      <defs>
       <path d="M 19.1875 8.296875 
L 53.609375 8.296875 
L 53.609375 0 
L 7.328125 0 
L 7.328125 8.296875 
Q 12.9375 14.109375 22.625 23.890625 
Q 32.328125 33.6875 34.8125 36.53125 
Q 39.546875 41.84375 41.421875 45.53125 
Q 43.3125 49.21875 43.3125 52.78125 
Q 43.3125 58.59375 39.234375 62.25 
Q 35.15625 65.921875 28.609375 65.921875 
Q 23.96875 65.921875 18.8125 64.3125 
Q 13.671875 62.703125 7.8125 59.421875 
L 7.8125 69.390625 
Q 13.765625 71.78125 18.9375 73 
Q 24.125 74.21875 28.421875 74.21875 
Q 39.75 74.21875 46.484375 68.546875 
Q 53.21875 62.890625 53.21875 53.421875 
Q 53.21875 48.921875 51.53125 44.890625 
Q 49.859375 40.875 45.40625 35.40625 
Q 44.1875 33.984375 37.640625 27.21875 
Q 31.109375 20.453125 19.1875 8.296875 
z
" id="DejaVuSans-50"/>
      </defs>
      <g transform="translate(423.467565 347.245637)scale(0.1 -0.1)">
       <use xlink:href="#DejaVuSans-50"/>
       <use x="63.623047" xlink:href="#DejaVuSans-48"/>
       <use x="127.246094" xlink:href="#DejaVuSans-48"/>
      </g>
     </g>
    </g>
   </g>
   <g id="matplotlib.axis_2">
    <g id="ytick_1">
     <g id="line2d_6">
      <defs>
       <path d="M 0 0 
L -3.5 0 
" id="m141408a878" style="stroke:#000000;stroke-width:0.8;"/>
      </defs>
      <g>
       <use style="stroke:#000000;stroke-width:0.8;" x="172.8" xlink:href="#m141408a878" y="312.627234"/>
      </g>
     </g>
     <g id="text_6">
      <!-- 0 -->
      <g transform="translate(159.4375 316.426453)scale(0.1 -0.1)">
       <use xlink:href="#DejaVuSans-48"/>
      </g>
     </g>
    </g>
    <g id="ytick_2">
     <g id="line2d_7">
      <g>
       <use style="stroke:#000000;stroke-width:0.8;" x="172.8" xlink:href="#m141408a878" y="266.689535"/>
      </g>
     </g>
     <g id="text_7">
      <!-- 2 -->
      <g transform="translate(159.4375 270.488754)scale(0.1 -0.1)">
       <use xlink:href="#DejaVuSans-50"/>
      </g>
     </g>
    </g>
    <g id="ytick_3">
     <g id="line2d_8">
      <g>
       <use style="stroke:#000000;stroke-width:0.8;" x="172.8" xlink:href="#m141408a878" y="220.751836"/>
      </g>
     </g>
     <g id="text_8">
      <!-- 4 -->
      <defs>
       <path d="M 37.796875 64.3125 
L 12.890625 25.390625 
L 37.796875 25.390625 
z
M 35.203125 72.90625 
L 47.609375 72.90625 
L 47.609375 25.390625 
L 58.015625 25.390625 
L 58.015625 17.1875 
L 47.609375 17.1875 
L 47.609375 0 
L 37.796875 0 
L 37.796875 17.1875 
L 4.890625 17.1875 
L 4.890625 26.703125 
z
" id="DejaVuSans-52"/>
      </defs>
      <g transform="translate(159.4375 224.551055)scale(0.1 -0.1)">
       <use xlink:href="#DejaVuSans-52"/>
      </g>
     </g>
    </g>
    <g id="ytick_4">
     <g id="line2d_9">
      <g>
       <use style="stroke:#000000;stroke-width:0.8;" x="172.8" xlink:href="#m141408a878" y="174.814137"/>
      </g>
     </g>
     <g id="text_9">
      <!-- 6 -->
      <defs>
       <path d="M 33.015625 40.375 
Q 26.375 40.375 22.484375 35.828125 
Q 18.609375 31.296875 18.609375 23.390625 
Q 18.609375 15.53125 22.484375 10.953125 
Q 26.375 6.390625 33.015625 6.390625 
Q 39.65625 6.390625 43.53125 10.953125 
Q 47.40625 15.53125 47.40625 23.390625 
Q 47.40625 31.296875 43.53125 35.828125 
Q 39.65625 40.375 33.015625 40.375 
z
M 52.59375 71.296875 
L 52.59375 62.3125 
Q 48.875 64.0625 45.09375 64.984375 
Q 41.3125 65.921875 37.59375 65.921875 
Q 27.828125 65.921875 22.671875 59.328125 
Q 17.53125 52.734375 16.796875 39.40625 
Q 19.671875 43.65625 24.015625 45.921875 
Q 28.375 48.1875 33.59375 48.1875 
Q 44.578125 48.1875 50.953125 41.515625 
Q 57.328125 34.859375 57.328125 23.390625 
Q 57.328125 12.15625 50.6875 5.359375 
Q 44.046875 -1.421875 33.015625 -1.421875 
Q 20.359375 -1.421875 13.671875 8.265625 
Q 6.984375 17.96875 6.984375 36.375 
Q 6.984375 53.65625 15.1875 63.9375 
Q 23.390625 74.21875 37.203125 74.21875 
Q 40.921875 74.21875 44.703125 73.484375 
Q 48.484375 72.75 52.59375 71.296875 
z
" id="DejaVuSans-54"/>
      </defs>
      <g transform="translate(159.4375 178.613356)scale(0.1 -0.1)">
       <use xlink:href="#DejaVuSans-54"/>
      </g>
     </g>
    </g>
    <g id="ytick_5">
     <g id="line2d_10">
      <g>
       <use style="stroke:#000000;stroke-width:0.8;" x="172.8" xlink:href="#m141408a878" y="128.876438"/>
      </g>
     </g>
     <g id="text_10">
      <!-- 8 -->
      <defs>
       <path d="M 31.78125 34.625 
Q 24.75 34.625 20.71875 30.859375 
Q 16.703125 27.09375 16.703125 20.515625 
Q 16.703125 13.921875 20.71875 10.15625 
Q 24.75 6.390625 31.78125 6.390625 
Q 38.8125 6.390625 42.859375 10.171875 
Q 46.921875 13.96875 46.921875 20.515625 
Q 46.921875 27.09375 42.890625 30.859375 
Q 38.875 34.625 31.78125 34.625 
z
M 21.921875 38.8125 
Q 15.578125 40.375 12.03125 44.71875 
Q 8.5 49.078125 8.5 55.328125 
Q 8.5 64.0625 14.71875 69.140625 
Q 20.953125 74.21875 31.78125 74.21875 
Q 42.671875 74.21875 48.875 69.140625 
Q 55.078125 64.0625 55.078125 55.328125 
Q 55.078125 49.078125 51.53125 44.71875 
Q 48 40.375 41.703125 38.8125 
Q 48.828125 37.15625 52.796875 32.3125 
Q 56.78125 27.484375 56.78125 20.515625 
Q 56.78125 9.90625 50.3125 4.234375 
Q 43.84375 -1.421875 31.78125 -1.421875 
Q 19.734375 -1.421875 13.25 4.234375 
Q 6.78125 9.90625 6.78125 20.515625 
Q 6.78125 27.484375 10.78125 32.3125 
Q 14.796875 37.15625 21.921875 38.8125 
z
M 18.3125 54.390625 
Q 18.3125 48.734375 21.84375 45.5625 
Q 25.390625 42.390625 31.78125 42.390625 
Q 38.140625 42.390625 41.71875 45.5625 
Q 45.3125 48.734375 45.3125 54.390625 
Q 45.3125 60.0625 41.71875 63.234375 
Q 38.140625 66.40625 31.78125 66.40625 
Q 25.390625 66.40625 21.84375 63.234375 
Q 18.3125 60.0625 18.3125 54.390625 
z
" id="DejaVuSans-56"/>
      </defs>
      <g transform="translate(159.4375 132.675657)scale(0.1 -0.1)">
       <use xlink:href="#DejaVuSans-56"/>
      </g>
     </g>
    </g>
   </g>
   <g id="line2d_11">
    <path clip-path="url(#p67942277fc)" d="M 187.122995 312.627215 
L 208.023502 312.553705 
L 216.629593 312.169176 
L 227.694567 311.782885 
L 241.218425 311.370774 
L 247.365633 310.950476 
L 254.742283 310.225893 
L 263.348374 309.090408 
L 269.495582 307.99555 
L 274.413348 306.887511 
L 283.01944 304.584376 
L 286.707764 303.32611 
L 287.937206 302.748197 
L 290.396089 302.010361 
L 292.854972 300.669195 
L 297.772739 298.330033 
L 299.00218 297.501508 
L 300.231622 296.889053 
L 301.461064 296.4021 
L 306.37883 293.892135 
L 311.296596 291.533126 
L 314.984921 289.629053 
L 316.214363 289.157134 
L 317.443804 288.546582 
L 318.673246 287.736683 
L 319.902688 284.273626 
L 321.132129 285.592049 
L 329.73822 278.99321 
L 332.197104 277.214369 
L 343.262078 269.745736 
L 346.950403 267.004525 
L 350.638728 263.911078 
L 355.556494 259.413632 
L 359.244819 255.685575 
L 364.162585 250.346879 
L 377.686443 235.451581 
L 385.063092 227.514215 
L 389.980859 221.938234 
L 394.898625 216.023492 
L 401.045833 208.267398 
L 408.422483 198.343484 
L 413.340249 191.432373 
L 419.487457 182.32329 
L 424.405224 174.583374 
L 431.781873 162.412411 
L 435.470198 155.671404 
L 437.929081 151.421022 
L 439.158523 150.462208 
L 440.387964 149.697661 
L 441.617406 148.662637 
L 442.846848 146.960364 
L 445.305731 142.421606 
L 446.535172 140.777739 
L 448.994056 138.223783 
L 450.223497 136.117966 
L 453.911822 128.695403 
L 458.829588 120.64198 
L 460.05903 118.490514 
L 461.288472 116.094439 
L 462.517913 113.431976 
L 464.976796 109.04999 
L 466.206238 107.412198 
L 467.43568 105.107917 
L 468.665121 103.311728 
L 469.894563 100.984989 
L 471.124004 98.985507 
L 472.353446 97.37618 
L 473.582888 96.191018 
L 473.582888 96.191018 
" style="fill:none;stroke:#ff796c;stroke-linecap:square;stroke-width:1.5;"/>
   </g>
   <g id="line2d_12">
    <path clip-path="url(#p67942277fc)" d="M 187.122995 312.627447 
L 211.711827 312.730484 
L 232.612334 313.017199 
L 248.595075 313.227103 
L 267.036699 313.653084 
L 283.01944 314.308834 
L 292.854972 314.891739 
L 318.673246 316.93003 
L 319.902688 317.2311 
L 326.049896 317.947387 
L 329.73822 318.344828 
L 333.426545 318.623917 
L 344.49152 319.095887 
L 351.868169 319.496651 
L 360.47426 320.148036 
L 370.309793 320.946268 
L 375.22756 321.17141 
L 382.604209 321.248664 
L 403.504716 321.355022 
L 418.258016 321.386189 
L 437.929081 321.327781 
L 440.387964 321.060268 
L 445.305731 320.299381 
L 460.05903 318.45795 
L 469.894563 317.275637 
L 472.353446 316.898438 
L 473.582888 316.633791 
L 473.582888 316.633791 
" style="fill:none;stroke:#ffff14;stroke-linecap:square;stroke-width:1.5;"/>
   </g>
   <g id="line2d_13">
    <path clip-path="url(#p67942277fc)" d="M 187.122995 312.627446 
L 253.512841 312.52593 
L 273.183907 312.257875 
L 289.166648 311.814782 
L 302.690505 311.228292 
L 314.984921 310.493864 
L 327.279337 309.539972 
L 338.344312 308.466636 
L 349.409286 307.161237 
L 359.244819 305.781263 
L 369.080352 304.173062 
L 378.915884 302.320794 
L 388.751417 300.215594 
L 398.58695 297.852909 
L 407.193041 295.571255 
L 415.799132 293.085454 
L 424.405224 290.389606 
L 433.011315 287.476033 
L 441.617406 284.336892 
L 450.223497 280.96485 
L 458.829588 277.351713 
L 467.43568 273.489803 
L 473.582888 270.574937 
L 473.582888 270.574937 
" style="fill:none;stroke:#014d4e;stroke-linecap:square;stroke-width:1.5;"/>
   </g>
   <g id="patch_3">
    <path d="M 172.8 332.6472 
L 172.8 84.9312 
" style="fill:none;stroke:#000000;stroke-linecap:square;stroke-linejoin:miter;stroke-width:0.8;"/>
   </g>
   <g id="patch_4">
    <path d="M 487.905882 332.6472 
L 487.905882 84.9312 
" style="fill:none;stroke:#000000;stroke-linecap:square;stroke-linejoin:miter;stroke-width:0.8;"/>
   </g>
   <g id="patch_5">
    <path d="M 172.8 332.6472 
L 487.905882 332.6472 
" style="fill:none;stroke:#000000;stroke-linecap:square;stroke-linejoin:miter;stroke-width:0.8;"/>
   </g>
   <g id="patch_6">
    <path d="M 172.8 84.9312 
L 487.905882 84.9312 
" style="fill:none;stroke:#000000;stroke-linecap:square;stroke-linejoin:miter;stroke-width:0.8;"/>
   </g>
   <g id="text_11">
    <!-- Lateral joint 0 -->
    <defs>
     <path d="M 9.8125 72.90625 
L 19.671875 72.90625 
L 19.671875 8.296875 
L 55.171875 8.296875 
L 55.171875 0 
L 9.8125 0 
z
" id="DejaVuSans-76"/>
     <path d="M 34.28125 27.484375 
Q 23.390625 27.484375 19.1875 25 
Q 14.984375 22.515625 14.984375 16.5 
Q 14.984375 11.71875 18.140625 8.90625 
Q 21.296875 6.109375 26.703125 6.109375 
Q 34.1875 6.109375 38.703125 11.40625 
Q 43.21875 16.703125 43.21875 25.484375 
L 43.21875 27.484375 
z
M 52.203125 31.203125 
L 52.203125 0 
L 43.21875 0 
L 43.21875 8.296875 
Q 40.140625 3.328125 35.546875 0.953125 
Q 30.953125 -1.421875 24.3125 -1.421875 
Q 15.921875 -1.421875 10.953125 3.296875 
Q 6 8.015625 6 15.921875 
Q 6 25.140625 12.171875 29.828125 
Q 18.359375 34.515625 30.609375 34.515625 
L 43.21875 34.515625 
L 43.21875 35.40625 
Q 43.21875 41.609375 39.140625 45 
Q 35.0625 48.390625 27.6875 48.390625 
Q 23 48.390625 18.546875 47.265625 
Q 14.109375 46.140625 10.015625 43.890625 
L 10.015625 52.203125 
Q 14.9375 54.109375 19.578125 55.046875 
Q 24.21875 56 28.609375 56 
Q 40.484375 56 46.34375 49.84375 
Q 52.203125 43.703125 52.203125 31.203125 
z
" id="DejaVuSans-97"/>
     <path d="M 18.3125 70.21875 
L 18.3125 54.6875 
L 36.8125 54.6875 
L 36.8125 47.703125 
L 18.3125 47.703125 
L 18.3125 18.015625 
Q 18.3125 11.328125 20.140625 9.421875 
Q 21.96875 7.515625 27.59375 7.515625 
L 36.8125 7.515625 
L 36.8125 0 
L 27.59375 0 
Q 17.1875 0 13.234375 3.875 
Q 9.28125 7.765625 9.28125 18.015625 
L 9.28125 47.703125 
L 2.6875 47.703125 
L 2.6875 54.6875 
L 9.28125 54.6875 
L 9.28125 70.21875 
z
" id="DejaVuSans-116"/>
     <path d="M 56.203125 29.59375 
L 56.203125 25.203125 
L 14.890625 25.203125 
Q 15.484375 15.921875 20.484375 11.0625 
Q 25.484375 6.203125 34.421875 6.203125 
Q 39.59375 6.203125 44.453125 7.46875 
Q 49.3125 8.734375 54.109375 11.28125 
L 54.109375 2.78125 
Q 49.265625 0.734375 44.1875 -0.34375 
Q 39.109375 -1.421875 33.890625 -1.421875 
Q 20.796875 -1.421875 13.15625 6.1875 
Q 5.515625 13.8125 5.515625 26.8125 
Q 5.515625 40.234375 12.765625 48.109375 
Q 20.015625 56 32.328125 56 
Q 43.359375 56 49.78125 48.890625 
Q 56.203125 41.796875 56.203125 29.59375 
z
M 47.21875 32.234375 
Q 47.125 39.59375 43.09375 43.984375 
Q 39.0625 48.390625 32.421875 48.390625 
Q 24.90625 48.390625 20.390625 44.140625 
Q 15.875 39.890625 15.1875 32.171875 
z
" id="DejaVuSans-101"/>
     <path d="M 41.109375 46.296875 
Q 39.59375 47.171875 37.8125 47.578125 
Q 36.03125 48 33.890625 48 
Q 26.265625 48 22.1875 43.046875 
Q 18.109375 38.09375 18.109375 28.8125 
L 18.109375 0 
L 9.078125 0 
L 9.078125 54.6875 
L 18.109375 54.6875 
L 18.109375 46.1875 
Q 20.953125 51.171875 25.484375 53.578125 
Q 30.03125 56 36.53125 56 
Q 37.453125 56 38.578125 55.875 
Q 39.703125 55.765625 41.0625 55.515625 
z
" id="DejaVuSans-114"/>
     <path d="M 9.421875 75.984375 
L 18.40625 75.984375 
L 18.40625 0 
L 9.421875 0 
z
" id="DejaVuSans-108"/>
     <path id="DejaVuSans-32"/>
     <path d="M 9.421875 54.6875 
L 18.40625 54.6875 
L 18.40625 -0.984375 
Q 18.40625 -11.421875 14.421875 -16.109375 
Q 10.453125 -20.796875 1.609375 -20.796875 
L -1.8125 -20.796875 
L -1.8125 -13.1875 
L 0.59375 -13.1875 
Q 5.71875 -13.1875 7.5625 -10.8125 
Q 9.421875 -8.453125 9.421875 -0.984375 
z
M 9.421875 75.984375 
L 18.40625 75.984375 
L 18.40625 64.59375 
L 9.421875 64.59375 
z
" id="DejaVuSans-106"/>
     <path d="M 30.609375 48.390625 
Q 23.390625 48.390625 19.1875 42.75 
Q 14.984375 37.109375 14.984375 27.296875 
Q 14.984375 17.484375 19.15625 11.84375 
Q 23.34375 6.203125 30.609375 6.203125 
Q 37.796875 6.203125 41.984375 11.859375 
Q 46.1875 17.53125 46.1875 27.296875 
Q 46.1875 37.015625 41.984375 42.703125 
Q 37.796875 48.390625 30.609375 48.390625 
z
M 30.609375 56 
Q 42.328125 56 49.015625 48.375 
Q 55.71875 40.765625 55.71875 27.296875 
Q 55.71875 13.875 49.015625 6.21875 
Q 42.328125 -1.421875 30.609375 -1.421875 
Q 18.84375 -1.421875 12.171875 6.21875 
Q 5.515625 13.875 5.515625 27.296875 
Q 5.515625 40.765625 12.171875 48.375 
Q 18.84375 56 30.609375 56 
z
" id="DejaVuSans-111"/>
     <path d="M 9.421875 54.6875 
L 18.40625 54.6875 
L 18.40625 0 
L 9.421875 0 
z
M 9.421875 75.984375 
L 18.40625 75.984375 
L 18.40625 64.59375 
L 9.421875 64.59375 
z
" id="DejaVuSans-105"/>
     <path d="M 54.890625 33.015625 
L 54.890625 0 
L 45.90625 0 
L 45.90625 32.71875 
Q 45.90625 40.484375 42.875 44.328125 
Q 39.84375 48.1875 33.796875 48.1875 
Q 26.515625 48.1875 22.3125 43.546875 
Q 18.109375 38.921875 18.109375 30.90625 
L 18.109375 0 
L 9.078125 0 
L 9.078125 54.6875 
L 18.109375 54.6875 
L 18.109375 46.1875 
Q 21.34375 51.125 25.703125 53.5625 
Q 30.078125 56 35.796875 56 
Q 45.21875 56 50.046875 50.171875 
Q 54.890625 44.34375 54.890625 33.015625 
z
" id="DejaVuSans-110"/>
    </defs>
    <g transform="translate(288.687629 78.9312)scale(0.12 -0.12)">
     <use xlink:href="#DejaVuSans-76"/>
     <use x="55.712891" xlink:href="#DejaVuSans-97"/>
     <use x="116.992188" xlink:href="#DejaVuSans-116"/>
     <use x="156.201172" xlink:href="#DejaVuSans-101"/>
     <use x="217.724609" xlink:href="#DejaVuSans-114"/>
     <use x="258.837891" xlink:href="#DejaVuSans-97"/>
     <use x="320.117188" xlink:href="#DejaVuSans-108"/>
     <use x="347.900391" xlink:href="#DejaVuSans-32"/>
     <use x="379.6875" xlink:href="#DejaVuSans-106"/>
     <use x="407.470703" xlink:href="#DejaVuSans-111"/>
     <use x="468.652344" xlink:href="#DejaVuSans-105"/>
     <use x="496.435547" xlink:href="#DejaVuSans-110"/>
     <use x="559.814453" xlink:href="#DejaVuSans-116"/>
     <use x="599.023438" xlink:href="#DejaVuSans-32"/>
     <use x="630.810547" xlink:href="#DejaVuSans-48"/>
    </g>
   </g>
  </g>
  <g id="axes_2">
   <g id="patch_7">
    <path d="M 550.927059 332.6472 
L 866.032941 332.6472 
L 866.032941 84.9312 
L 550.927059 84.9312 
z
" style="fill:#ffffff;"/>
   </g>
   <g id="matplotlib.axis_3">
    <g id="xtick_6">
     <g id="line2d_14">
      <g>
       <use style="stroke:#000000;stroke-width:0.8;" x="565.250053" xlink:href="#m53ba7c0c5c" y="332.6472"/>
      </g>
     </g>
     <g id="text_12">
      <!-- 0 -->
      <g transform="translate(562.068803 347.245637)scale(0.1 -0.1)">
       <use xlink:href="#DejaVuSans-48"/>
      </g>
     </g>
    </g>
    <g id="xtick_7">
     <g id="line2d_15">
      <g>
       <use style="stroke:#000000;stroke-width:0.8;" x="626.722134" xlink:href="#m53ba7c0c5c" y="332.6472"/>
      </g>
     </g>
     <g id="text_13">
      <!-- 50 -->
      <g transform="translate(620.359634 347.245637)scale(0.1 -0.1)">
       <use xlink:href="#DejaVuSans-53"/>
       <use x="63.623047" xlink:href="#DejaVuSans-48"/>
      </g>
     </g>
    </g>
    <g id="xtick_8">
     <g id="line2d_16">
      <g>
       <use style="stroke:#000000;stroke-width:0.8;" x="688.194214" xlink:href="#m53ba7c0c5c" y="332.6472"/>
      </g>
     </g>
     <g id="text_14">
      <!-- 100 -->
      <g transform="translate(678.650464 347.245637)scale(0.1 -0.1)">
       <use xlink:href="#DejaVuSans-49"/>
       <use x="63.623047" xlink:href="#DejaVuSans-48"/>
       <use x="127.246094" xlink:href="#DejaVuSans-48"/>
      </g>
     </g>
    </g>
    <g id="xtick_9">
     <g id="line2d_17">
      <g>
       <use style="stroke:#000000;stroke-width:0.8;" x="749.666294" xlink:href="#m53ba7c0c5c" y="332.6472"/>
      </g>
     </g>
     <g id="text_15">
      <!-- 150 -->
      <g transform="translate(740.122544 347.245637)scale(0.1 -0.1)">
       <use xlink:href="#DejaVuSans-49"/>
       <use x="63.623047" xlink:href="#DejaVuSans-53"/>
       <use x="127.246094" xlink:href="#DejaVuSans-48"/>
      </g>
     </g>
    </g>
    <g id="xtick_10">
     <g id="line2d_18">
      <g>
       <use style="stroke:#000000;stroke-width:0.8;" x="811.138374" xlink:href="#m53ba7c0c5c" y="332.6472"/>
      </g>
     </g>
     <g id="text_16">
      <!-- 200 -->
      <g transform="translate(801.594624 347.245637)scale(0.1 -0.1)">
       <use xlink:href="#DejaVuSans-50"/>
       <use x="63.623047" xlink:href="#DejaVuSans-48"/>
       <use x="127.246094" xlink:href="#DejaVuSans-48"/>
      </g>
     </g>
    </g>
   </g>
   <g id="matplotlib.axis_4">
    <g id="ytick_6">
     <g id="line2d_19">
      <g>
       <use style="stroke:#000000;stroke-width:0.8;" x="550.927059" xlink:href="#m141408a878" y="314.149889"/>
      </g>
     </g>
     <g id="text_17">
      <!-- −0.5 -->
      <defs>
       <path d="M 10.59375 35.5 
L 73.1875 35.5 
L 73.1875 27.203125 
L 10.59375 27.203125 
z
" id="DejaVuSans-8722"/>
       <path d="M 10.6875 12.40625 
L 21 12.40625 
L 21 0 
L 10.6875 0 
z
" id="DejaVuSans-46"/>
      </defs>
      <g transform="translate(519.644246 317.949108)scale(0.1 -0.1)">
       <use xlink:href="#DejaVuSans-8722"/>
       <use x="83.789062" xlink:href="#DejaVuSans-48"/>
       <use x="147.412109" xlink:href="#DejaVuSans-46"/>
       <use x="179.199219" xlink:href="#DejaVuSans-53"/>
      </g>
     </g>
    </g>
    <g id="ytick_7">
     <g id="line2d_20">
      <g>
       <use style="stroke:#000000;stroke-width:0.8;" x="550.927059" xlink:href="#m141408a878" y="284.344062"/>
      </g>
     </g>
     <g id="text_18">
      <!-- 0.0 -->
      <g transform="translate(528.023934 288.143281)scale(0.1 -0.1)">
       <use xlink:href="#DejaVuSans-48"/>
       <use x="63.623047" xlink:href="#DejaVuSans-46"/>
       <use x="95.410156" xlink:href="#DejaVuSans-48"/>
      </g>
     </g>
    </g>
    <g id="ytick_8">
     <g id="line2d_21">
      <g>
       <use style="stroke:#000000;stroke-width:0.8;" x="550.927059" xlink:href="#m141408a878" y="254.538236"/>
      </g>
     </g>
     <g id="text_19">
      <!-- 0.5 -->
      <g transform="translate(528.023934 258.337454)scale(0.1 -0.1)">
       <use xlink:href="#DejaVuSans-48"/>
       <use x="63.623047" xlink:href="#DejaVuSans-46"/>
       <use x="95.410156" xlink:href="#DejaVuSans-53"/>
      </g>
     </g>
    </g>
    <g id="ytick_9">
     <g id="line2d_22">
      <g>
       <use style="stroke:#000000;stroke-width:0.8;" x="550.927059" xlink:href="#m141408a878" y="224.732409"/>
      </g>
     </g>
     <g id="text_20">
      <!-- 1.0 -->
      <g transform="translate(528.023934 228.531628)scale(0.1 -0.1)">
       <use xlink:href="#DejaVuSans-49"/>
       <use x="63.623047" xlink:href="#DejaVuSans-46"/>
       <use x="95.410156" xlink:href="#DejaVuSans-48"/>
      </g>
     </g>
    </g>
    <g id="ytick_10">
     <g id="line2d_23">
      <g>
       <use style="stroke:#000000;stroke-width:0.8;" x="550.927059" xlink:href="#m141408a878" y="194.926582"/>
      </g>
     </g>
     <g id="text_21">
      <!-- 1.5 -->
      <g transform="translate(528.023934 198.725801)scale(0.1 -0.1)">
       <use xlink:href="#DejaVuSans-49"/>
       <use x="63.623047" xlink:href="#DejaVuSans-46"/>
       <use x="95.410156" xlink:href="#DejaVuSans-53"/>
      </g>
     </g>
    </g>
    <g id="ytick_11">
     <g id="line2d_24">
      <g>
       <use style="stroke:#000000;stroke-width:0.8;" x="550.927059" xlink:href="#m141408a878" y="165.120755"/>
      </g>
     </g>
     <g id="text_22">
      <!-- 2.0 -->
      <g transform="translate(528.023934 168.919974)scale(0.1 -0.1)">
       <use xlink:href="#DejaVuSans-50"/>
       <use x="63.623047" xlink:href="#DejaVuSans-46"/>
       <use x="95.410156" xlink:href="#DejaVuSans-48"/>
      </g>
     </g>
    </g>
    <g id="ytick_12">
     <g id="line2d_25">
      <g>
       <use style="stroke:#000000;stroke-width:0.8;" x="550.927059" xlink:href="#m141408a878" y="135.314928"/>
      </g>
     </g>
     <g id="text_23">
      <!-- 2.5 -->
      <g transform="translate(528.023934 139.114147)scale(0.1 -0.1)">
       <use xlink:href="#DejaVuSans-50"/>
       <use x="63.623047" xlink:href="#DejaVuSans-46"/>
       <use x="95.410156" xlink:href="#DejaVuSans-53"/>
      </g>
     </g>
    </g>
    <g id="ytick_13">
     <g id="line2d_26">
      <g>
       <use style="stroke:#000000;stroke-width:0.8;" x="550.927059" xlink:href="#m141408a878" y="105.509102"/>
      </g>
     </g>
     <g id="text_24">
      <!-- 3.0 -->
      <defs>
       <path d="M 40.578125 39.3125 
Q 47.65625 37.796875 51.625 33 
Q 55.609375 28.21875 55.609375 21.1875 
Q 55.609375 10.40625 48.1875 4.484375 
Q 40.765625 -1.421875 27.09375 -1.421875 
Q 22.515625 -1.421875 17.65625 -0.515625 
Q 12.796875 0.390625 7.625 2.203125 
L 7.625 11.71875 
Q 11.71875 9.328125 16.59375 8.109375 
Q 21.484375 6.890625 26.8125 6.890625 
Q 36.078125 6.890625 40.9375 10.546875 
Q 45.796875 14.203125 45.796875 21.1875 
Q 45.796875 27.640625 41.28125 31.265625 
Q 36.765625 34.90625 28.71875 34.90625 
L 20.21875 34.90625 
L 20.21875 43.015625 
L 29.109375 43.015625 
Q 36.375 43.015625 40.234375 45.921875 
Q 44.09375 48.828125 44.09375 54.296875 
Q 44.09375 59.90625 40.109375 62.90625 
Q 36.140625 65.921875 28.71875 65.921875 
Q 24.65625 65.921875 20.015625 65.03125 
Q 15.375 64.15625 9.8125 62.3125 
L 9.8125 71.09375 
Q 15.4375 72.65625 20.34375 73.4375 
Q 25.25 74.21875 29.59375 74.21875 
Q 40.828125 74.21875 47.359375 69.109375 
Q 53.90625 64.015625 53.90625 55.328125 
Q 53.90625 49.265625 50.4375 45.09375 
Q 46.96875 40.921875 40.578125 39.3125 
z
" id="DejaVuSans-51"/>
      </defs>
      <g transform="translate(528.023934 109.30832)scale(0.1 -0.1)">
       <use xlink:href="#DejaVuSans-51"/>
       <use x="63.623047" xlink:href="#DejaVuSans-46"/>
       <use x="95.410156" xlink:href="#DejaVuSans-48"/>
      </g>
     </g>
    </g>
   </g>
   <g id="line2d_27">
    <path clip-path="url(#pff6c01bbec)" d="M 565.250053 284.344094 
L 581.232794 284.395121 
L 586.150561 284.822948 
L 591.068327 285.737919 
L 598.444977 287.281835 
L 608.28051 289.007518 
L 610.739393 289.451111 
L 613.198276 289.810472 
L 614.427718 290.1097 
L 616.886601 290.535735 
L 627.951575 293.161168 
L 634.098783 294.801421 
L 640.245991 296.268847 
L 650.081524 299.159594 
L 657.458174 301.642322 
L 659.917057 302.469635 
L 664.834823 303.906103 
L 666.064265 304.20656 
L 667.293706 304.777753 
L 668.523148 305.176638 
L 669.75259 305.327369 
L 672.211473 305.897372 
L 675.899798 306.93144 
L 677.129239 307.016234 
L 680.817564 307.908662 
L 690.653097 309.444024 
L 691.882538 309.774012 
L 693.11198 310.334122 
L 694.341422 311.274632 
L 696.800305 312.686946 
L 698.029746 310.41966 
L 699.259188 314.396362 
L 701.718071 316.523027 
L 702.947513 317.121104 
L 704.176954 317.981413 
L 705.406396 319.022205 
L 709.094721 320.660931 
L 710.324162 321.01726 
L 712.783046 321.311265 
L 714.012487 321.387382 
L 715.241929 321.344543 
L 721.389137 320.38647 
L 725.077462 319.533925 
L 728.765786 318.77916 
L 744.748527 316.257872 
L 747.20741 315.511052 
L 749.666294 314.316865 
L 750.895735 313.608085 
L 753.354618 311.820083 
L 755.813502 309.704658 
L 759.501826 305.841231 
L 768.107918 295.503447 
L 774.255126 287.32221 
L 779.172892 280.393515 
L 782.861217 274.759055 
L 786.549542 268.725158 
L 789.008425 264.485028 
L 792.69675 257.520858 
L 797.614516 247.503195 
L 801.302841 239.536676 
L 804.991166 230.855776 
L 809.908932 218.863432 
L 812.367815 212.288438 
L 816.05614 202.383205 
L 818.515023 198.463574 
L 819.744465 195.786882 
L 820.973906 191.941642 
L 823.43279 183.23835 
L 824.662231 179.925907 
L 827.121115 174.39668 
L 828.350556 170.658491 
L 830.809439 162.395876 
L 833.268323 155.034274 
L 835.727206 148.517331 
L 839.415531 136.606262 
L 840.644972 131.840521 
L 843.103855 123.995909 
L 844.333297 120.26565 
L 849.251063 103.342954 
L 851.709947 96.191018 
L 851.709947 96.191018 
" style="fill:none;stroke:#ff796c;stroke-linecap:square;stroke-width:1.5;"/>
   </g>
   <g id="line2d_28">
    <path clip-path="url(#pff6c01bbec)" d="M 565.250053 302.693211 
L 583.691677 302.608277 
L 587.380002 302.438641 
L 607.051068 301.067362 
L 618.116042 300.391975 
L 623.033809 299.983883 
L 629.181017 299.366503 
L 639.01655 298.319145 
L 643.934316 297.765144 
L 652.540407 296.505455 
L 658.687615 295.455552 
L 664.834823 294.460563 
L 670.982031 293.325078 
L 683.276447 291.436542 
L 690.653097 290.576981 
L 693.11198 290.122574 
L 696.800305 289.101164 
L 698.029746 288.520753 
L 699.259188 288.195627 
L 701.718071 287.070674 
L 702.947513 286.732417 
L 706.635838 285.372025 
L 711.553604 284.243174 
L 715.241929 283.805603 
L 725.077462 283.236611 
L 728.765786 282.901553 
L 736.142436 281.873435 
L 748.436852 279.831493 
L 752.125177 279.683275 
L 755.813502 279.822219 
L 760.731268 280.393069 
L 769.337359 281.49492 
L 775.484567 282.317457 
L 785.3201 283.730957 
L 793.926191 285.517663 
L 807.450049 289.069326 
L 811.138374 290.139985 
L 814.826698 291.225856 
L 819.744465 293.082334 
L 822.203348 294.062867 
L 825.891673 295.290983 
L 827.121115 295.663884 
L 839.415531 298.205477 
L 846.79218 300.587016 
L 851.709947 302.452143 
L 851.709947 302.452143 
" style="fill:none;stroke:#ffff14;stroke-linecap:square;stroke-width:1.5;"/>
   </g>
   <g id="line2d_29">
    <path clip-path="url(#pff6c01bbec)" d="M 565.250053 302.693215 
L 626.722134 302.586194 
L 642.704874 302.331634 
L 656.228732 301.89974 
L 668.523148 301.274498 
L 679.588122 300.483615 
L 689.423655 299.573709 
L 699.259188 298.449512 
L 709.094721 297.093871 
L 717.700812 295.698043 
L 726.306903 294.084914 
L 734.912994 292.233837 
L 743.519086 290.126488 
L 750.895735 288.104741 
L 758.272385 285.875698 
L 765.649034 283.433604 
L 773.025684 280.774989 
L 780.402334 277.897087 
L 787.778983 274.796351 
L 795.155633 271.46731 
L 802.532282 267.902552 
L 809.908932 264.093127 
L 817.285582 260.029812 
L 824.662231 255.702266 
L 832.038881 251.100649 
L 839.415531 246.216997 
L 846.79218 241.042881 
L 851.709947 237.42687 
L 851.709947 237.42687 
" style="fill:none;stroke:#014d4e;stroke-linecap:square;stroke-width:1.5;"/>
   </g>
   <g id="patch_8">
    <path d="M 550.927059 332.6472 
L 550.927059 84.9312 
" style="fill:none;stroke:#000000;stroke-linecap:square;stroke-linejoin:miter;stroke-width:0.8;"/>
   </g>
   <g id="patch_9">
    <path d="M 866.032941 332.6472 
L 866.032941 84.9312 
" style="fill:none;stroke:#000000;stroke-linecap:square;stroke-linejoin:miter;stroke-width:0.8;"/>
   </g>
   <g id="patch_10">
    <path d="M 550.927059 332.6472 
L 866.032941 332.6472 
" style="fill:none;stroke:#000000;stroke-linecap:square;stroke-linejoin:miter;stroke-width:0.8;"/>
   </g>
   <g id="patch_11">
    <path d="M 550.927059 84.9312 
L 866.032941 84.9312 
" style="fill:none;stroke:#000000;stroke-linecap:square;stroke-linejoin:miter;stroke-width:0.8;"/>
   </g>
   <g id="text_25">
    <!-- Lateral joint 1 -->
    <g transform="translate(666.814687 78.9312)scale(0.12 -0.12)">
     <use xlink:href="#DejaVuSans-76"/>
     <use x="55.712891" xlink:href="#DejaVuSans-97"/>
     <use x="116.992188" xlink:href="#DejaVuSans-116"/>
     <use x="156.201172" xlink:href="#DejaVuSans-101"/>
     <use x="217.724609" xlink:href="#DejaVuSans-114"/>
     <use x="258.837891" xlink:href="#DejaVuSans-97"/>
     <use x="320.117188" xlink:href="#DejaVuSans-108"/>
     <use x="347.900391" xlink:href="#DejaVuSans-32"/>
     <use x="379.6875" xlink:href="#DejaVuSans-106"/>
     <use x="407.470703" xlink:href="#DejaVuSans-111"/>
     <use x="468.652344" xlink:href="#DejaVuSans-105"/>
     <use x="496.435547" xlink:href="#DejaVuSans-110"/>
     <use x="559.814453" xlink:href="#DejaVuSans-116"/>
     <use x="599.023438" xlink:href="#DejaVuSans-32"/>
     <use x="630.810547" xlink:href="#DejaVuSans-49"/>
    </g>
   </g>
  </g>
  <g id="axes_3">
   <g id="patch_12">
    <path d="M 929.054118 332.6472 
L 1244.16 332.6472 
L 1244.16 84.9312 
L 929.054118 84.9312 
z
" style="fill:#ffffff;"/>
   </g>
   <g id="matplotlib.axis_5">
    <g id="xtick_11">
     <g id="line2d_30">
      <g>
       <use style="stroke:#000000;stroke-width:0.8;" x="943.377112" xlink:href="#m53ba7c0c5c" y="332.6472"/>
      </g>
     </g>
     <g id="text_26">
      <!-- 0 -->
      <g transform="translate(940.195862 347.245637)scale(0.1 -0.1)">
       <use xlink:href="#DejaVuSans-48"/>
      </g>
     </g>
    </g>
    <g id="xtick_12">
     <g id="line2d_31">
      <g>
       <use style="stroke:#000000;stroke-width:0.8;" x="1004.849192" xlink:href="#m53ba7c0c5c" y="332.6472"/>
      </g>
     </g>
     <g id="text_27">
      <!-- 50 -->
      <g transform="translate(998.486692 347.245637)scale(0.1 -0.1)">
       <use xlink:href="#DejaVuSans-53"/>
       <use x="63.623047" xlink:href="#DejaVuSans-48"/>
      </g>
     </g>
    </g>
    <g id="xtick_13">
     <g id="line2d_32">
      <g>
       <use style="stroke:#000000;stroke-width:0.8;" x="1066.321272" xlink:href="#m53ba7c0c5c" y="332.6472"/>
      </g>
     </g>
     <g id="text_28">
      <!-- 100 -->
      <g transform="translate(1056.777522 347.245637)scale(0.1 -0.1)">
       <use xlink:href="#DejaVuSans-49"/>
       <use x="63.623047" xlink:href="#DejaVuSans-48"/>
       <use x="127.246094" xlink:href="#DejaVuSans-48"/>
      </g>
     </g>
    </g>
    <g id="xtick_14">
     <g id="line2d_33">
      <g>
       <use style="stroke:#000000;stroke-width:0.8;" x="1127.793352" xlink:href="#m53ba7c0c5c" y="332.6472"/>
      </g>
     </g>
     <g id="text_29">
      <!-- 150 -->
      <g transform="translate(1118.249602 347.245637)scale(0.1 -0.1)">
       <use xlink:href="#DejaVuSans-49"/>
       <use x="63.623047" xlink:href="#DejaVuSans-53"/>
       <use x="127.246094" xlink:href="#DejaVuSans-48"/>
      </g>
     </g>
    </g>
    <g id="xtick_15">
     <g id="line2d_34">
      <g>
       <use style="stroke:#000000;stroke-width:0.8;" x="1189.265433" xlink:href="#m53ba7c0c5c" y="332.6472"/>
      </g>
     </g>
     <g id="text_30">
      <!-- 200 -->
      <g transform="translate(1179.721683 347.245637)scale(0.1 -0.1)">
       <use xlink:href="#DejaVuSans-50"/>
       <use x="63.623047" xlink:href="#DejaVuSans-48"/>
       <use x="127.246094" xlink:href="#DejaVuSans-48"/>
      </g>
     </g>
    </g>
   </g>
   <g id="matplotlib.axis_6">
    <g id="ytick_14">
     <g id="line2d_35">
      <g>
       <use style="stroke:#000000;stroke-width:0.8;" x="929.054118" xlink:href="#m141408a878" y="326.57131"/>
      </g>
     </g>
     <g id="text_31">
      <!-- −5 -->
      <g transform="translate(907.31193 330.370528)scale(0.1 -0.1)">
       <use xlink:href="#DejaVuSans-8722"/>
       <use x="83.789062" xlink:href="#DejaVuSans-53"/>
      </g>
     </g>
    </g>
    <g id="ytick_15">
     <g id="line2d_36">
      <g>
       <use style="stroke:#000000;stroke-width:0.8;" x="929.054118" xlink:href="#m141408a878" y="294.221973"/>
      </g>
     </g>
     <g id="text_32">
      <!-- −4 -->
      <g transform="translate(907.31193 298.021192)scale(0.1 -0.1)">
       <use xlink:href="#DejaVuSans-8722"/>
       <use x="83.789062" xlink:href="#DejaVuSans-52"/>
      </g>
     </g>
    </g>
    <g id="ytick_16">
     <g id="line2d_37">
      <g>
       <use style="stroke:#000000;stroke-width:0.8;" x="929.054118" xlink:href="#m141408a878" y="261.872636"/>
      </g>
     </g>
     <g id="text_33">
      <!-- −3 -->
      <g transform="translate(907.31193 265.671855)scale(0.1 -0.1)">
       <use xlink:href="#DejaVuSans-8722"/>
       <use x="83.789062" xlink:href="#DejaVuSans-51"/>
      </g>
     </g>
    </g>
    <g id="ytick_17">
     <g id="line2d_38">
      <g>
       <use style="stroke:#000000;stroke-width:0.8;" x="929.054118" xlink:href="#m141408a878" y="229.523299"/>
      </g>
     </g>
     <g id="text_34">
      <!-- −2 -->
      <g transform="translate(907.31193 233.322518)scale(0.1 -0.1)">
       <use xlink:href="#DejaVuSans-8722"/>
       <use x="83.789062" xlink:href="#DejaVuSans-50"/>
      </g>
     </g>
    </g>
    <g id="ytick_18">
     <g id="line2d_39">
      <g>
       <use style="stroke:#000000;stroke-width:0.8;" x="929.054118" xlink:href="#m141408a878" y="197.173963"/>
      </g>
     </g>
     <g id="text_35">
      <!-- −1 -->
      <g transform="translate(907.31193 200.973181)scale(0.1 -0.1)">
       <use xlink:href="#DejaVuSans-8722"/>
       <use x="83.789062" xlink:href="#DejaVuSans-49"/>
      </g>
     </g>
    </g>
    <g id="ytick_19">
     <g id="line2d_40">
      <g>
       <use style="stroke:#000000;stroke-width:0.8;" x="929.054118" xlink:href="#m141408a878" y="164.824626"/>
      </g>
     </g>
     <g id="text_36">
      <!-- 0 -->
      <g transform="translate(915.691618 168.623844)scale(0.1 -0.1)">
       <use xlink:href="#DejaVuSans-48"/>
      </g>
     </g>
    </g>
    <g id="ytick_20">
     <g id="line2d_41">
      <g>
       <use style="stroke:#000000;stroke-width:0.8;" x="929.054118" xlink:href="#m141408a878" y="132.475289"/>
      </g>
     </g>
     <g id="text_37">
      <!-- 1 -->
      <g transform="translate(915.691618 136.274508)scale(0.1 -0.1)">
       <use xlink:href="#DejaVuSans-49"/>
      </g>
     </g>
    </g>
    <g id="ytick_21">
     <g id="line2d_42">
      <g>
       <use style="stroke:#000000;stroke-width:0.8;" x="929.054118" xlink:href="#m141408a878" y="100.125952"/>
      </g>
     </g>
     <g id="text_38">
      <!-- 2 -->
      <g transform="translate(915.691618 103.925171)scale(0.1 -0.1)">
       <use xlink:href="#DejaVuSans-50"/>
      </g>
     </g>
    </g>
   </g>
   <g id="line2d_43">
    <path clip-path="url(#pd506bbdc53)" d="M 943.377112 164.827411 
L 944.606554 165.915414 
L 945.835996 167.871404 
L 948.294879 173.084123 
L 950.753762 179.040171 
L 951.983204 182.701329 
L 953.212645 187.25657 
L 954.442087 192.923356 
L 956.90097 206.697837 
L 958.130412 213.911415 
L 959.359853 214.978895 
L 960.589295 211.537983 
L 961.818736 211.572436 
L 963.048178 216.820664 
L 964.27762 219.773511 
L 965.507061 216.058783 
L 966.736503 211.308505 
L 967.965944 212.210607 
L 969.195386 215.808095 
L 970.424828 214.065838 
L 971.654269 206.822073 
L 972.883711 208.376098 
L 974.113152 214.734023 
L 975.342594 209.589533 
L 976.572036 208.421911 
L 977.801477 217.21114 
L 979.030919 214.338451 
L 980.26036 209.873094 
L 981.489802 218.273242 
L 982.719244 219.39751 
L 983.948685 212.585963 
L 986.407568 224.67853 
L 987.63701 214.119819 
L 988.866452 219.661272 
L 990.095893 230.659327 
L 991.325335 220.86092 
L 992.554776 216.678781 
L 993.784218 230.680136 
L 995.01366 227.951855 
L 996.243101 217.215655 
L 997.472543 227.845478 
L 998.701984 232.222077 
L 999.931426 218.767793 
L 1001.160868 222.303596 
L 1002.390309 232.55813 
L 1003.619751 221.21604 
L 1004.849192 217.671644 
L 1006.078634 231.102409 
L 1007.308076 225.119601 
L 1008.537517 216.228614 
L 1009.766959 229.339919 
L 1010.9964 229.846768 
L 1012.225842 217.404074 
L 1013.455284 227.14209 
L 1014.684725 234.365199 
L 1015.914167 221.712142 
L 1017.143608 226.596905 
L 1018.37305 239.492404 
L 1019.602492 229.444698 
L 1020.831933 224.083854 
L 1022.061375 243.464965 
L 1023.290816 239.619915 
L 1024.520258 227.07397 
L 1025.7497 243.908086 
L 1026.979141 249.545161 
L 1028.208583 233.860379 
L 1029.438024 242.432549 
L 1030.667466 260.440344 
L 1031.896908 245.751365 
L 1033.126349 239.022912 
L 1034.355791 264.832594 
L 1035.585232 258.84859 
L 1036.814674 243.117177 
L 1038.044116 263.521852 
L 1039.273557 272.183314 
L 1040.502999 252.323514 
L 1041.73244 262.935004 
L 1042.961882 280.732826 
L 1044.191324 259.424325 
L 1045.420765 267.171937 
L 1046.650207 283.526986 
L 1047.879648 265.361695 
L 1049.10909 266.955895 
L 1050.338532 288.604429 
L 1051.567973 268.764654 
L 1052.797415 268.205936 
L 1054.026856 290.330619 
L 1055.256298 272.055871 
L 1056.48574 270.767522 
L 1057.715181 291.629694 
L 1058.944623 280.222197 
L 1060.174064 272.78671 
L 1061.403506 275.14499 
L 1062.632948 273.070844 
L 1063.862389 270.454365 
L 1065.091831 268.958538 
L 1066.321272 269.793457 
L 1067.550714 274.272791 
L 1068.780156 284.405606 
L 1070.009597 302.241219 
L 1071.239039 287.784562 
L 1072.46848 270.674206 
L 1073.697922 289.01662 
L 1074.927364 290.676486 
L 1076.156805 212.526099 
L 1077.386247 321.387382 
L 1078.615688 280.6658 
L 1079.84513 207.092781 
L 1081.074572 310.428183 
L 1082.304013 291.61539 
L 1083.533455 195.35691 
L 1084.762896 245.769443 
L 1085.992338 288.157212 
L 1087.22178 232.570485 
L 1088.451221 237.62768 
L 1089.680663 256.743207 
L 1090.910104 256.574772 
L 1092.139546 234.667744 
L 1093.368988 234.294104 
L 1094.598429 255.870839 
L 1095.827871 249.962473 
L 1097.057312 235.279493 
L 1098.286754 233.746718 
L 1099.516196 254.585191 
L 1100.745637 269.489517 
L 1101.975079 270.646294 
L 1103.20452 269.350375 
L 1105.663404 279.20819 
L 1108.122287 255.913171 
L 1109.351728 278.103047 
L 1110.58117 270.849271 
L 1111.810612 278.173947 
L 1113.040053 287.237448 
L 1114.269495 277.970744 
L 1115.498936 279.802381 
L 1116.728378 284.668819 
L 1117.95782 271.86014 
L 1119.187261 271.53446 
L 1120.416703 282.413878 
L 1121.646144 279.913257 
L 1122.875586 285.087594 
L 1124.105028 291.539369 
L 1125.334469 280.103633 
L 1126.563911 286.171966 
L 1127.793352 294.486257 
L 1129.022794 283.525129 
L 1130.252236 289.012625 
L 1131.481677 297.896573 
L 1132.711119 287.679566 
L 1133.94056 292.040648 
L 1135.170002 307.177974 
L 1136.399444 302.018367 
L 1137.628885 293.025015 
L 1138.858327 308.711109 
L 1140.087768 303.884782 
L 1141.31721 291.30003 
L 1142.546652 301.635575 
L 1143.776093 316.038597 
L 1145.005535 305.299089 
L 1146.234976 309.470919 
L 1147.464418 319.794736 
L 1148.69386 301.757712 
L 1149.923301 305.726423 
L 1151.152743 313.220313 
L 1152.382184 295.750712 
L 1153.611626 305.923747 
L 1154.841068 313.00984 
L 1156.070509 297.742654 
L 1157.299951 310.336669 
L 1158.529392 308.430225 
L 1159.758834 291.252817 
L 1160.988276 304.416726 
L 1163.447159 283.116906 
L 1164.6766 298.767452 
L 1165.906042 285.555354 
L 1167.135484 273.949913 
L 1168.364925 290.138355 
L 1169.594367 289.034938 
L 1170.823808 265.797382 
L 1172.05325 268.207405 
L 1173.282692 277.785824 
L 1174.512133 264.698177 
L 1175.741575 253.027277 
L 1176.971017 266.967585 
L 1178.200458 266.860178 
L 1179.4299 260.971459 
L 1180.659341 258.85551 
L 1181.888783 258.817384 
L 1183.118225 254.667544 
L 1185.577108 234.648539 
L 1186.806549 259.461136 
L 1188.035991 258.630218 
L 1189.265433 256.466463 
L 1190.494874 242.6352 
L 1191.724316 222.484659 
L 1192.953757 226.910953 
L 1194.183199 243.336391 
L 1195.412641 254.383523 
L 1196.642082 231.423795 
L 1197.871524 214.057908 
L 1199.100965 224.922977 
L 1200.330407 215.386648 
L 1201.559849 216.78569 
L 1202.78929 232.503997 
L 1204.018732 208.842683 
L 1205.248173 226.345366 
L 1206.477615 196.171728 
L 1207.707057 232.01719 
L 1208.936498 234.374579 
L 1210.16594 177.593767 
L 1211.395381 245.734232 
L 1212.624823 189.755267 
L 1213.854265 147.55412 
L 1215.083706 218.262587 
L 1216.313148 185.085493 
L 1217.542589 123.300839 
L 1218.772031 182.484078 
L 1220.001473 171.765618 
L 1221.230914 96.191018 
L 1222.460356 189.56443 
L 1223.689797 99.595792 
L 1224.919239 128.840371 
L 1226.148681 141.447854 
L 1227.378122 120.774546 
L 1228.607564 110.614132 
L 1229.837005 138.670728 
L 1229.837005 138.670728 
" style="fill:none;stroke:#ff796c;stroke-linecap:square;stroke-width:1.5;"/>
   </g>
   <g id="line2d_44">
    <path clip-path="url(#pd506bbdc53)" d="M 943.377112 180.934219 
L 969.195386 181.042246 
L 977.801477 181.097545 
L 992.554776 181.116962 
L 1004.849192 181.06281 
L 1012.225842 180.987421 
L 1022.061375 181.04074 
L 1029.438024 180.999311 
L 1035.585232 180.939018 
L 1044.191324 180.952064 
L 1052.797415 180.745214 
L 1057.715181 180.583491 
L 1073.697922 180.326091 
L 1076.156805 180.153601 
L 1077.386247 179.954846 
L 1081.074572 179.620956 
L 1087.22178 179.218428 
L 1092.139546 179.087147 
L 1104.433962 178.784504 
L 1116.728378 178.246019 
L 1121.646144 177.80984 
L 1129.022794 177.15443 
L 1143.776093 175.982568 
L 1154.841068 174.779806 
L 1159.758834 174.188911 
L 1169.594367 172.814056 
L 1179.4299 171.480582 
L 1192.953757 169.39758 
L 1196.642082 168.827967 
L 1202.78929 167.961442 
L 1206.477615 167.447013 
L 1213.854265 165.840332 
L 1216.313148 165.201256 
L 1218.772031 164.603111 
L 1222.460356 163.798058 
L 1224.919239 163.371327 
L 1229.837005 162.39289 
L 1229.837005 162.39289 
" style="fill:none;stroke:#ffff14;stroke-linecap:square;stroke-width:1.5;"/>
   </g>
   <g id="line2d_45">
    <path clip-path="url(#pd506bbdc53)" d="M 943.377112 180.934217 
L 1020.831933 180.825212 
L 1044.191324 180.557002 
L 1063.862389 180.12217 
L 1082.304013 179.495114 
L 1099.516196 178.683601 
L 1115.498936 177.695381 
L 1130.252236 176.553981 
L 1145.005535 175.176713 
L 1159.758834 173.558721 
L 1173.282692 171.862247 
L 1186.806549 169.95575 
L 1200.330407 167.829946 
L 1213.854265 165.473967 
L 1227.378122 162.880486 
L 1229.837005 162.382703 
L 1229.837005 162.382703 
" style="fill:none;stroke:#014d4e;stroke-linecap:square;stroke-width:1.5;"/>
   </g>
   <g id="patch_13">
    <path d="M 929.054118 332.6472 
L 929.054118 84.9312 
" style="fill:none;stroke:#000000;stroke-linecap:square;stroke-linejoin:miter;stroke-width:0.8;"/>
   </g>
   <g id="patch_14">
    <path d="M 1244.16 332.6472 
L 1244.16 84.9312 
" style="fill:none;stroke:#000000;stroke-linecap:square;stroke-linejoin:miter;stroke-width:0.8;"/>
   </g>
   <g id="patch_15">
    <path d="M 929.054118 332.6472 
L 1244.16 332.6472 
" style="fill:none;stroke:#000000;stroke-linecap:square;stroke-linejoin:miter;stroke-width:0.8;"/>
   </g>
   <g id="patch_16">
    <path d="M 929.054118 84.9312 
L 1244.16 84.9312 
" style="fill:none;stroke:#000000;stroke-linecap:square;stroke-linejoin:miter;stroke-width:0.8;"/>
   </g>
   <g id="text_39">
    <!-- Lateral joint 2 -->
    <g transform="translate(1044.941746 78.9312)scale(0.12 -0.12)">
     <use xlink:href="#DejaVuSans-76"/>
     <use x="55.712891" xlink:href="#DejaVuSans-97"/>
     <use x="116.992188" xlink:href="#DejaVuSans-116"/>
     <use x="156.201172" xlink:href="#DejaVuSans-101"/>
     <use x="217.724609" xlink:href="#DejaVuSans-114"/>
     <use x="258.837891" xlink:href="#DejaVuSans-97"/>
     <use x="320.117188" xlink:href="#DejaVuSans-108"/>
     <use x="347.900391" xlink:href="#DejaVuSans-32"/>
     <use x="379.6875" xlink:href="#DejaVuSans-106"/>
     <use x="407.470703" xlink:href="#DejaVuSans-111"/>
     <use x="468.652344" xlink:href="#DejaVuSans-105"/>
     <use x="496.435547" xlink:href="#DejaVuSans-110"/>
     <use x="559.814453" xlink:href="#DejaVuSans-116"/>
     <use x="599.023438" xlink:href="#DejaVuSans-32"/>
     <use x="630.810547" xlink:href="#DejaVuSans-50"/>
    </g>
   </g>
  </g>
  <g id="axes_4">
   <g id="patch_17">
    <path d="M 172.8 629.9064 
L 487.905882 629.9064 
L 487.905882 382.1904 
L 172.8 382.1904 
z
" style="fill:#ffffff;"/>
   </g>
   <g id="matplotlib.axis_7">
    <g id="xtick_16">
     <g id="line2d_46">
      <g>
       <use style="stroke:#000000;stroke-width:0.8;" x="187.122995" xlink:href="#m53ba7c0c5c" y="629.9064"/>
      </g>
     </g>
     <g id="text_40">
      <!-- 0 -->
      <g transform="translate(183.941745 644.504838)scale(0.1 -0.1)">
       <use xlink:href="#DejaVuSans-48"/>
      </g>
     </g>
    </g>
    <g id="xtick_17">
     <g id="line2d_47">
      <g>
       <use style="stroke:#000000;stroke-width:0.8;" x="248.595075" xlink:href="#m53ba7c0c5c" y="629.9064"/>
      </g>
     </g>
     <g id="text_41">
      <!-- 50 -->
      <g transform="translate(242.232575 644.504838)scale(0.1 -0.1)">
       <use xlink:href="#DejaVuSans-53"/>
       <use x="63.623047" xlink:href="#DejaVuSans-48"/>
      </g>
     </g>
    </g>
    <g id="xtick_18">
     <g id="line2d_48">
      <g>
       <use style="stroke:#000000;stroke-width:0.8;" x="310.067155" xlink:href="#m53ba7c0c5c" y="629.9064"/>
      </g>
     </g>
     <g id="text_42">
      <!-- 100 -->
      <g transform="translate(300.523405 644.504838)scale(0.1 -0.1)">
       <use xlink:href="#DejaVuSans-49"/>
       <use x="63.623047" xlink:href="#DejaVuSans-48"/>
       <use x="127.246094" xlink:href="#DejaVuSans-48"/>
      </g>
     </g>
    </g>
    <g id="xtick_19">
     <g id="line2d_49">
      <g>
       <use style="stroke:#000000;stroke-width:0.8;" x="371.539235" xlink:href="#m53ba7c0c5c" y="629.9064"/>
      </g>
     </g>
     <g id="text_43">
      <!-- 150 -->
      <g transform="translate(361.995485 644.504838)scale(0.1 -0.1)">
       <use xlink:href="#DejaVuSans-49"/>
       <use x="63.623047" xlink:href="#DejaVuSans-53"/>
       <use x="127.246094" xlink:href="#DejaVuSans-48"/>
      </g>
     </g>
    </g>
    <g id="xtick_20">
     <g id="line2d_50">
      <g>
       <use style="stroke:#000000;stroke-width:0.8;" x="433.011315" xlink:href="#m53ba7c0c5c" y="629.9064"/>
      </g>
     </g>
     <g id="text_44">
      <!-- 200 -->
      <g transform="translate(423.467565 644.504838)scale(0.1 -0.1)">
       <use xlink:href="#DejaVuSans-50"/>
       <use x="63.623047" xlink:href="#DejaVuSans-48"/>
       <use x="127.246094" xlink:href="#DejaVuSans-48"/>
      </g>
     </g>
    </g>
   </g>
   <g id="matplotlib.axis_8">
    <g id="ytick_22">
     <g id="line2d_51">
      <g>
       <use style="stroke:#000000;stroke-width:0.8;" x="172.8" xlink:href="#m141408a878" y="607.392943"/>
      </g>
     </g>
     <g id="text_45">
      <!-- −7 -->
      <defs>
       <path d="M 8.203125 72.90625 
L 55.078125 72.90625 
L 55.078125 68.703125 
L 28.609375 0 
L 18.3125 0 
L 43.21875 64.59375 
L 8.203125 64.59375 
z
" id="DejaVuSans-55"/>
      </defs>
      <g transform="translate(151.057812 611.192161)scale(0.1 -0.1)">
       <use xlink:href="#DejaVuSans-8722"/>
       <use x="83.789062" xlink:href="#DejaVuSans-55"/>
      </g>
     </g>
    </g>
    <g id="ytick_23">
     <g id="line2d_52">
      <g>
       <use style="stroke:#000000;stroke-width:0.8;" x="172.8" xlink:href="#m141408a878" y="576.829232"/>
      </g>
     </g>
     <g id="text_46">
      <!-- −6 -->
      <g transform="translate(151.057812 580.628451)scale(0.1 -0.1)">
       <use xlink:href="#DejaVuSans-8722"/>
       <use x="83.789062" xlink:href="#DejaVuSans-54"/>
      </g>
     </g>
    </g>
    <g id="ytick_24">
     <g id="line2d_53">
      <g>
       <use style="stroke:#000000;stroke-width:0.8;" x="172.8" xlink:href="#m141408a878" y="546.265522"/>
      </g>
     </g>
     <g id="text_47">
      <!-- −5 -->
      <g transform="translate(151.057812 550.064741)scale(0.1 -0.1)">
       <use xlink:href="#DejaVuSans-8722"/>
       <use x="83.789062" xlink:href="#DejaVuSans-53"/>
      </g>
     </g>
    </g>
    <g id="ytick_25">
     <g id="line2d_54">
      <g>
       <use style="stroke:#000000;stroke-width:0.8;" x="172.8" xlink:href="#m141408a878" y="515.701812"/>
      </g>
     </g>
     <g id="text_48">
      <!-- −4 -->
      <g transform="translate(151.057812 519.501031)scale(0.1 -0.1)">
       <use xlink:href="#DejaVuSans-8722"/>
       <use x="83.789062" xlink:href="#DejaVuSans-52"/>
      </g>
     </g>
    </g>
    <g id="ytick_26">
     <g id="line2d_55">
      <g>
       <use style="stroke:#000000;stroke-width:0.8;" x="172.8" xlink:href="#m141408a878" y="485.138102"/>
      </g>
     </g>
     <g id="text_49">
      <!-- −3 -->
      <g transform="translate(151.057812 488.937321)scale(0.1 -0.1)">
       <use xlink:href="#DejaVuSans-8722"/>
       <use x="83.789062" xlink:href="#DejaVuSans-51"/>
      </g>
     </g>
    </g>
    <g id="ytick_27">
     <g id="line2d_56">
      <g>
       <use style="stroke:#000000;stroke-width:0.8;" x="172.8" xlink:href="#m141408a878" y="454.574392"/>
      </g>
     </g>
     <g id="text_50">
      <!-- −2 -->
      <g transform="translate(151.057812 458.373611)scale(0.1 -0.1)">
       <use xlink:href="#DejaVuSans-8722"/>
       <use x="83.789062" xlink:href="#DejaVuSans-50"/>
      </g>
     </g>
    </g>
    <g id="ytick_28">
     <g id="line2d_57">
      <g>
       <use style="stroke:#000000;stroke-width:0.8;" x="172.8" xlink:href="#m141408a878" y="424.010682"/>
      </g>
     </g>
     <g id="text_51">
      <!-- −1 -->
      <g transform="translate(151.057812 427.809901)scale(0.1 -0.1)">
       <use xlink:href="#DejaVuSans-8722"/>
       <use x="83.789062" xlink:href="#DejaVuSans-49"/>
      </g>
     </g>
    </g>
    <g id="ytick_29">
     <g id="line2d_58">
      <g>
       <use style="stroke:#000000;stroke-width:0.8;" x="172.8" xlink:href="#m141408a878" y="393.446972"/>
      </g>
     </g>
     <g id="text_52">
      <!-- 0 -->
      <g transform="translate(159.4375 397.246191)scale(0.1 -0.1)">
       <use xlink:href="#DejaVuSans-48"/>
      </g>
     </g>
    </g>
   </g>
   <g id="line2d_59">
    <path clip-path="url(#pe9b163976a)" d="M 187.122995 393.450218 
L 188.352436 394.417957 
L 189.581878 396.141877 
L 192.040761 400.60905 
L 194.499644 405.483526 
L 195.729086 408.459944 
L 196.958527 412.217779 
L 198.187969 416.963338 
L 200.646852 428.769618 
L 201.876294 435.059094 
L 203.105735 437.485391 
L 204.335177 436.87114 
L 205.564619 437.993315 
L 206.79406 442.0112 
L 208.023502 444.562162 
L 209.252943 443.120088 
L 210.482385 441.067811 
L 211.711827 442.324968 
L 212.941268 444.990141 
L 214.17071 444.185567 
L 215.400151 439.905713 
L 216.629593 440.612786 
L 217.859035 444.162258 
L 219.088476 441.239465 
L 220.317918 440.820077 
L 221.547359 446.277029 
L 222.776801 444.98673 
L 224.006243 442.708152 
L 225.235684 447.779578 
L 226.465126 448.64055 
L 227.694567 444.991119 
L 230.153451 453.120488 
L 231.382892 447.973037 
L 232.612334 452.250187 
L 233.841775 459.666145 
L 235.071217 454.582026 
L 236.300659 453.110613 
L 237.5301 462.032695 
L 238.759542 461.128976 
L 239.988983 455.376874 
L 241.218425 461.678566 
L 242.447867 464.072598 
L 243.677308 455.888003 
L 244.90675 457.244472 
L 246.136192 462.330682 
L 247.365633 454.937775 
L 248.595075 452.15822 
L 249.824516 459.378266 
L 251.053958 455.624057 
L 252.2834 450.3604 
L 253.512841 457.905037 
L 254.742283 458.25832 
L 255.971724 451.264956 
L 257.201166 457.294862 
L 258.430608 462.191308 
L 259.660049 455.979395 
L 260.889491 460.204283 
L 262.118932 469.230633 
L 263.348374 465.017591 
L 264.577816 463.409253 
L 265.807257 475.864778 
L 267.036699 474.703646 
L 268.26614 468.371445 
L 269.495582 478.914635 
L 270.725024 483.010893 
L 271.954465 474.83772 
L 273.183907 480.624952 
L 274.413348 491.82326 
L 275.64279 484.150555 
L 276.872232 481.109838 
L 278.101673 496.913079 
L 279.331115 494.584215 
L 280.560556 486.931043 
L 281.789998 500.454712 
L 283.01944 507.443322 
L 284.248881 497.918342 
L 285.478323 506.02605 
L 286.707764 517.13371 
L 287.937206 504.718422 
L 289.166648 510.484438 
L 290.396089 521.823108 
L 291.625531 511.487219 
L 292.854972 511.81255 
L 294.084414 523.839065 
L 295.313856 511.983585 
L 296.543297 512.222806 
L 297.772739 525.504567 
L 299.00218 514.061726 
L 300.231622 512.966796 
L 301.461064 526.25289 
L 302.690505 521.255764 
L 303.919947 518.808135 
L 305.149388 522.292736 
L 306.37883 523.414581 
L 307.608272 524.779903 
L 308.837713 527.028398 
L 310.067155 530.353564 
L 311.296596 535.155923 
L 312.526038 542.533322 
L 313.75548 553.799369 
L 314.984921 546.034735 
L 316.214363 537.320636 
L 317.443804 547.667082 
L 318.673246 546.06652 
L 319.902688 478.430647 
L 321.132129 539.596144 
L 322.361571 517.256144 
L 323.591012 475.788524 
L 324.820454 533.548381 
L 326.049896 516.951961 
L 327.279337 452.738547 
L 329.73822 491.258693 
L 330.967662 458.093908 
L 332.197104 464.995412 
L 333.426545 483.208145 
L 334.655987 490.622632 
L 335.885428 482.950036 
L 337.11487 483.878856 
L 338.344312 494.697378 
L 339.573753 489.102187 
L 340.803195 480.551522 
L 342.032636 483.783835 
L 344.49152 522.509708 
L 345.720961 531.639257 
L 346.950403 535.670967 
L 348.179844 539.213332 
L 349.409286 539.553471 
L 350.638728 530.340207 
L 351.868169 523.382238 
L 353.097611 540.097339 
L 354.327052 542.982772 
L 356.785936 566.307514 
L 358.015377 562.777186 
L 359.244819 561.339558 
L 360.47426 559.009207 
L 361.703702 546.553105 
L 362.933144 543.885063 
L 364.162585 551.33018 
L 365.392027 553.909359 
L 366.621468 561.657015 
L 367.85091 568.401667 
L 369.080352 561.478858 
L 371.539235 561.747487 
L 372.768676 552.2177 
L 373.998118 555.830407 
L 375.22756 565.655961 
L 376.457001 567.497258 
L 377.686443 578.387035 
L 378.915884 593.459149 
L 380.145326 592.998099 
L 381.374768 586.785249 
L 382.604209 593.085049 
L 383.833651 588.293827 
L 385.063092 581.729068 
L 386.292534 591.656197 
L 387.521976 606.13044 
L 388.751417 606.069017 
L 391.2103 618.646582 
L 392.439742 605.067069 
L 393.669184 602.81957 
L 394.898625 603.676631 
L 396.128067 593.000015 
L 398.58695 611.371084 
L 399.816392 607.658278 
L 401.045833 617.715301 
L 402.275275 615.417337 
L 403.504716 600.623093 
L 404.734158 601.904129 
L 405.9636 590.087512 
L 407.193041 581.551606 
L 408.422483 591.960469 
L 409.651924 588.175126 
L 410.881366 585.649615 
L 412.110808 597.195366 
L 413.340249 595.220134 
L 414.569691 577.162934 
L 415.799132 572.583677 
L 417.028574 573.19534 
L 418.258016 563.661624 
L 419.487457 558.746078 
L 420.716899 571.492819 
L 421.94634 576.416812 
L 423.175782 575.786638 
L 424.405224 573.644869 
L 425.634665 569.101777 
L 426.864107 560.241974 
L 428.093548 548.59262 
L 429.32299 540.197368 
L 430.552432 557.616512 
L 431.781873 561.873559 
L 433.011315 564.919076 
L 434.240756 558.816225 
L 435.470198 545.563383 
L 436.69964 543.947278 
L 437.929081 548.785887 
L 439.158523 556.027066 
L 440.387964 548.88406 
L 441.617406 548.20399 
L 442.846848 562.285995 
L 444.076289 558.109683 
L 445.305731 556.447593 
L 446.535172 564.416255 
L 447.764614 553.272059 
L 448.994056 570.769964 
L 450.223497 557.997837 
L 451.452939 580.0841 
L 452.68238 577.951772 
L 453.911822 536.9035 
L 455.141264 570.613382 
L 456.370705 532.493884 
L 457.600147 503.842276 
L 458.829588 541.953245 
L 460.05903 518.897581 
L 461.288472 477.768828 
L 462.517913 506.069013 
L 463.747355 493.163245 
L 464.976796 443.546872 
L 466.206238 499.310112 
L 467.43568 444.895741 
L 468.665121 463.691154 
L 469.894563 470.291385 
L 471.124004 455.4629 
L 472.353446 447.772484 
L 473.582888 466.004765 
L 473.582888 466.004765 
" style="fill:none;stroke:#ff796c;stroke-linecap:square;stroke-width:1.5;"/>
   </g>
   <g id="line2d_60">
    <path clip-path="url(#pe9b163976a)" d="M 187.122995 408.666188 
L 208.023502 408.566129 
L 215.400151 408.162558 
L 219.088476 408.027726 
L 225.235684 408.141338 
L 231.382892 408.202343 
L 237.5301 407.98229 
L 241.218425 407.902991 
L 246.136192 408.050088 
L 255.971724 408.332373 
L 262.118932 408.154372 
L 268.26614 407.954871 
L 280.560556 407.845799 
L 291.625531 407.382881 
L 305.149388 407.417239 
L 314.984921 406.854871 
L 318.673246 406.905441 
L 321.132129 407.131806 
L 326.049896 407.67869 
L 334.655987 407.695292 
L 345.720961 406.962304 
L 349.409286 406.667346 
L 353.097611 406.326105 
L 362.933144 405.831973 
L 370.309793 406.059969 
L 385.063092 404.865748 
L 392.439742 404.790552 
L 397.357508 404.437803 
L 408.422483 404.175109 
L 413.340249 404.215415 
L 420.716899 403.939978 
L 428.093548 403.834572 
L 436.69964 403.752309 
L 444.076289 403.265837 
L 450.223497 402.410895 
L 453.911822 402.253694 
L 458.829588 402.509014 
L 462.517913 402.66417 
L 466.206238 402.519978 
L 472.353446 401.970754 
L 473.582888 401.904906 
L 473.582888 401.904906 
" style="fill:none;stroke:#ffff14;stroke-linecap:square;stroke-width:1.5;"/>
   </g>
   <g id="line2d_61">
    <path clip-path="url(#pe9b163976a)" d="M 187.122995 408.666188 
L 287.937206 408.555192 
L 322.361571 408.272289 
L 351.868169 407.812758 
L 377.686443 407.194024 
L 402.275275 406.385517 
L 426.864107 405.352919 
L 450.223497 404.150501 
L 472.353446 402.796919 
L 473.582888 402.715284 
L 473.582888 402.715284 
" style="fill:none;stroke:#014d4e;stroke-linecap:square;stroke-width:1.5;"/>
   </g>
   <g id="patch_18">
    <path d="M 172.8 629.9064 
L 172.8 382.1904 
" style="fill:none;stroke:#000000;stroke-linecap:square;stroke-linejoin:miter;stroke-width:0.8;"/>
   </g>
   <g id="patch_19">
    <path d="M 487.905882 629.9064 
L 487.905882 382.1904 
" style="fill:none;stroke:#000000;stroke-linecap:square;stroke-linejoin:miter;stroke-width:0.8;"/>
   </g>
   <g id="patch_20">
    <path d="M 172.8 629.9064 
L 487.905882 629.9064 
" style="fill:none;stroke:#000000;stroke-linecap:square;stroke-linejoin:miter;stroke-width:0.8;"/>
   </g>
   <g id="patch_21">
    <path d="M 172.8 382.1904 
L 487.905882 382.1904 
" style="fill:none;stroke:#000000;stroke-linecap:square;stroke-linejoin:miter;stroke-width:0.8;"/>
   </g>
   <g id="text_53">
    <!-- Lateral joint 3 -->
    <g transform="translate(288.687629 376.1904)scale(0.12 -0.12)">
     <use xlink:href="#DejaVuSans-76"/>
     <use x="55.712891" xlink:href="#DejaVuSans-97"/>
     <use x="116.992188" xlink:href="#DejaVuSans-116"/>
     <use x="156.201172" xlink:href="#DejaVuSans-101"/>
     <use x="217.724609" xlink:href="#DejaVuSans-114"/>
     <use x="258.837891" xlink:href="#DejaVuSans-97"/>
     <use x="320.117188" xlink:href="#DejaVuSans-108"/>
     <use x="347.900391" xlink:href="#DejaVuSans-32"/>
     <use x="379.6875" xlink:href="#DejaVuSans-106"/>
     <use x="407.470703" xlink:href="#DejaVuSans-111"/>
     <use x="468.652344" xlink:href="#DejaVuSans-105"/>
     <use x="496.435547" xlink:href="#DejaVuSans-110"/>
     <use x="559.814453" xlink:href="#DejaVuSans-116"/>
     <use x="599.023438" xlink:href="#DejaVuSans-32"/>
     <use x="630.810547" xlink:href="#DejaVuSans-51"/>
    </g>
   </g>
  </g>
  <g id="axes_5">
   <g id="patch_22">
    <path d="M 550.927059 629.9064 
L 866.032941 629.9064 
L 866.032941 382.1904 
L 550.927059 382.1904 
z
" style="fill:#ffffff;"/>
   </g>
   <g id="matplotlib.axis_9">
    <g id="xtick_21">
     <g id="line2d_62">
      <g>
       <use style="stroke:#000000;stroke-width:0.8;" x="565.250053" xlink:href="#m53ba7c0c5c" y="629.9064"/>
      </g>
     </g>
     <g id="text_54">
      <!-- 0 -->
      <g transform="translate(562.068803 644.504838)scale(0.1 -0.1)">
       <use xlink:href="#DejaVuSans-48"/>
      </g>
     </g>
    </g>
    <g id="xtick_22">
     <g id="line2d_63">
      <g>
       <use style="stroke:#000000;stroke-width:0.8;" x="626.722134" xlink:href="#m53ba7c0c5c" y="629.9064"/>
      </g>
     </g>
     <g id="text_55">
      <!-- 50 -->
      <g transform="translate(620.359634 644.504838)scale(0.1 -0.1)">
       <use xlink:href="#DejaVuSans-53"/>
       <use x="63.623047" xlink:href="#DejaVuSans-48"/>
      </g>
     </g>
    </g>
    <g id="xtick_23">
     <g id="line2d_64">
      <g>
       <use style="stroke:#000000;stroke-width:0.8;" x="688.194214" xlink:href="#m53ba7c0c5c" y="629.9064"/>
      </g>
     </g>
     <g id="text_56">
      <!-- 100 -->
      <g transform="translate(678.650464 644.504838)scale(0.1 -0.1)">
       <use xlink:href="#DejaVuSans-49"/>
       <use x="63.623047" xlink:href="#DejaVuSans-48"/>
       <use x="127.246094" xlink:href="#DejaVuSans-48"/>
      </g>
     </g>
    </g>
    <g id="xtick_24">
     <g id="line2d_65">
      <g>
       <use style="stroke:#000000;stroke-width:0.8;" x="749.666294" xlink:href="#m53ba7c0c5c" y="629.9064"/>
      </g>
     </g>
     <g id="text_57">
      <!-- 150 -->
      <g transform="translate(740.122544 644.504838)scale(0.1 -0.1)">
       <use xlink:href="#DejaVuSans-49"/>
       <use x="63.623047" xlink:href="#DejaVuSans-53"/>
       <use x="127.246094" xlink:href="#DejaVuSans-48"/>
      </g>
     </g>
    </g>
    <g id="xtick_25">
     <g id="line2d_66">
      <g>
       <use style="stroke:#000000;stroke-width:0.8;" x="811.138374" xlink:href="#m53ba7c0c5c" y="629.9064"/>
      </g>
     </g>
     <g id="text_58">
      <!-- 200 -->
      <g transform="translate(801.594624 644.504838)scale(0.1 -0.1)">
       <use xlink:href="#DejaVuSans-50"/>
       <use x="63.623047" xlink:href="#DejaVuSans-48"/>
       <use x="127.246094" xlink:href="#DejaVuSans-48"/>
      </g>
     </g>
    </g>
   </g>
   <g id="matplotlib.axis_10">
    <g id="ytick_30">
     <g id="line2d_67">
      <g>
       <use style="stroke:#000000;stroke-width:0.8;" x="550.927059" xlink:href="#m141408a878" y="604.848248"/>
      </g>
     </g>
     <g id="text_59">
      <!-- −6 -->
      <g transform="translate(529.184871 608.647467)scale(0.1 -0.1)">
       <use xlink:href="#DejaVuSans-8722"/>
       <use x="83.789062" xlink:href="#DejaVuSans-54"/>
      </g>
     </g>
    </g>
    <g id="ytick_31">
     <g id="line2d_68">
      <g>
       <use style="stroke:#000000;stroke-width:0.8;" x="550.927059" xlink:href="#m141408a878" y="569.614628"/>
      </g>
     </g>
     <g id="text_60">
      <!-- −5 -->
      <g transform="translate(529.184871 573.413847)scale(0.1 -0.1)">
       <use xlink:href="#DejaVuSans-8722"/>
       <use x="83.789062" xlink:href="#DejaVuSans-53"/>
      </g>
     </g>
    </g>
    <g id="ytick_32">
     <g id="line2d_69">
      <g>
       <use style="stroke:#000000;stroke-width:0.8;" x="550.927059" xlink:href="#m141408a878" y="534.381009"/>
      </g>
     </g>
     <g id="text_61">
      <!-- −4 -->
      <g transform="translate(529.184871 538.180228)scale(0.1 -0.1)">
       <use xlink:href="#DejaVuSans-8722"/>
       <use x="83.789062" xlink:href="#DejaVuSans-52"/>
      </g>
     </g>
    </g>
    <g id="ytick_33">
     <g id="line2d_70">
      <g>
       <use style="stroke:#000000;stroke-width:0.8;" x="550.927059" xlink:href="#m141408a878" y="499.14739"/>
      </g>
     </g>
     <g id="text_62">
      <!-- −3 -->
      <g transform="translate(529.184871 502.946609)scale(0.1 -0.1)">
       <use xlink:href="#DejaVuSans-8722"/>
       <use x="83.789062" xlink:href="#DejaVuSans-51"/>
      </g>
     </g>
    </g>
    <g id="ytick_34">
     <g id="line2d_71">
      <g>
       <use style="stroke:#000000;stroke-width:0.8;" x="550.927059" xlink:href="#m141408a878" y="463.913771"/>
      </g>
     </g>
     <g id="text_63">
      <!-- −2 -->
      <g transform="translate(529.184871 467.712989)scale(0.1 -0.1)">
       <use xlink:href="#DejaVuSans-8722"/>
       <use x="83.789062" xlink:href="#DejaVuSans-50"/>
      </g>
     </g>
    </g>
    <g id="ytick_35">
     <g id="line2d_72">
      <g>
       <use style="stroke:#000000;stroke-width:0.8;" x="550.927059" xlink:href="#m141408a878" y="428.680151"/>
      </g>
     </g>
     <g id="text_64">
      <!-- −1 -->
      <g transform="translate(529.184871 432.47937)scale(0.1 -0.1)">
       <use xlink:href="#DejaVuSans-8722"/>
       <use x="83.789062" xlink:href="#DejaVuSans-49"/>
      </g>
     </g>
    </g>
    <g id="ytick_36">
     <g id="line2d_73">
      <g>
       <use style="stroke:#000000;stroke-width:0.8;" x="550.927059" xlink:href="#m141408a878" y="393.446532"/>
      </g>
     </g>
     <g id="text_65">
      <!-- 0 -->
      <g transform="translate(537.564559 397.245751)scale(0.1 -0.1)">
       <use xlink:href="#DejaVuSans-48"/>
      </g>
     </g>
    </g>
   </g>
   <g id="line2d_74">
    <path clip-path="url(#p9adb33846a)" d="M 565.250053 393.450218 
L 566.479495 394.379844 
L 567.708937 396.016358 
L 571.397261 402.132757 
L 572.626703 404.252838 
L 573.856145 406.764211 
L 575.085586 410.008805 
L 576.315028 414.202002 
L 577.544469 419.292524 
L 580.003353 430.713331 
L 581.232794 434.077842 
L 582.462236 435.180719 
L 583.691677 436.544566 
L 584.921119 438.931406 
L 586.150561 440.164793 
L 587.380002 439.01505 
L 588.609444 437.337538 
L 589.838885 437.156114 
L 591.068327 437.300243 
L 592.297769 435.09075 
L 593.52721 430.706713 
L 594.756652 429.067595 
L 595.986094 429.503623 
L 597.215535 427.340403 
L 598.444977 427.558424 
L 599.674418 431.660887 
L 600.90386 432.292466 
L 602.133302 432.254149 
L 603.362743 436.032646 
L 604.592185 437.500463 
L 605.821626 436.478744 
L 608.28051 442.628343 
L 609.509951 440.506563 
L 610.739393 443.138562 
L 611.968834 447.008281 
L 613.198276 443.167854 
L 614.427718 441.580368 
L 615.657159 445.549022 
L 616.886601 444.282305 
L 618.116042 440.581659 
L 619.345484 443.653853 
L 620.574926 444.90915 
L 621.804367 440.741955 
L 623.033809 441.820624 
L 624.26325 444.781905 
L 625.492692 441.029722 
L 626.722134 439.934936 
L 627.951575 444.503506 
L 629.181017 443.36962 
L 630.410458 441.410729 
L 631.6399 446.15672 
L 632.869342 446.631885 
L 634.098783 442.76262 
L 635.328225 445.74005 
L 636.557666 448.088663 
L 637.787108 444.558918 
L 639.01655 446.896376 
L 640.245991 451.981984 
L 641.475433 449.899319 
L 642.704874 449.142663 
L 643.934316 455.931221 
L 645.163758 455.347484 
L 646.393199 452.153248 
L 647.622641 458.477818 
L 648.852082 461.719934 
L 650.081524 458.627097 
L 651.310966 463.215082 
L 652.540407 470.630191 
L 653.769849 467.496011 
L 654.99929 466.488919 
L 656.228732 475.407202 
L 657.458174 474.298039 
L 658.687615 470.329298 
L 659.917057 478.029821 
L 661.146498 482.287352 
L 662.37594 477.374665 
L 664.834823 487.391314 
L 666.064265 478.756169 
L 667.293706 482.538761 
L 668.523148 490.734576 
L 669.75259 485.221385 
L 670.982031 484.995199 
L 672.211473 491.782395 
L 673.440914 485.810272 
L 674.670356 487.923569 
L 675.899798 497.045156 
L 677.129239 490.302461 
L 678.358681 489.580182 
L 679.588122 498.412509 
L 680.817564 497.029485 
L 682.047006 496.703376 
L 683.276447 499.439509 
L 684.505889 500.628943 
L 685.73533 502.4615 
L 686.964772 505.0026 
L 689.423655 511.061209 
L 690.653097 515.19647 
L 691.882538 521.313965 
L 693.11198 517.132455 
L 694.341422 514.344861 
L 695.570863 521.242185 
L 696.800305 519.230484 
L 698.029746 454.425141 
L 699.259188 492.202675 
L 700.48863 488.569263 
L 701.718071 474.186881 
L 702.947513 510.029608 
L 704.176954 497.301984 
L 705.406396 452.065731 
L 706.635838 452.38269 
L 707.865279 455.330262 
L 709.094721 436.510698 
L 710.324162 447.151382 
L 711.553604 468.15373 
L 712.783046 482.063992 
L 714.012487 482.289464 
L 715.241929 480.554626 
L 716.47137 479.302926 
L 717.700812 468.333726 
L 718.930254 459.996336 
L 720.159695 465.185419 
L 721.389137 486.266754 
L 722.618578 509.314895 
L 723.84802 524.962346 
L 725.077462 531.509736 
L 726.306903 530.332051 
L 727.536345 522.220678 
L 728.765786 508.43234 
L 729.995228 500.175077 
L 731.22467 511.995462 
L 732.454111 521.790192 
L 733.683553 538.680182 
L 734.912994 551.967036 
L 736.142436 550.423736 
L 737.371878 543.233241 
L 738.601319 531.820005 
L 739.830761 515.933357 
L 741.060202 511.237428 
L 742.289644 519.688481 
L 743.519086 531.121382 
L 744.748527 546.864999 
L 745.977969 558.395237 
L 747.20741 555.238837 
L 748.436852 549.237836 
L 749.666294 539.927974 
L 750.895735 526.703707 
L 752.125177 526.692255 
L 754.58406 547.995762 
L 757.042943 580.217713 
L 758.272385 580.761676 
L 759.501826 572.322798 
L 760.731268 568.546116 
L 761.96071 560.676557 
L 763.190151 557.520423 
L 764.419593 570.176879 
L 765.649034 589.68404 
L 768.107918 611.87191 
L 769.337359 616.079603 
L 770.566801 602.78555 
L 771.796242 593.068293 
L 773.025684 586.6763 
L 774.255126 578.734193 
L 775.484567 588.076013 
L 776.714009 601.782176 
L 777.94345 608.148468 
L 779.172892 618.646582 
L 780.402334 616.037608 
L 781.631775 600.819052 
L 782.861217 592.585384 
L 784.090658 578.631462 
L 785.3201 571.705403 
L 786.549542 581.695331 
L 787.778983 587.699221 
L 789.008425 594.739354 
L 790.237866 606.12825 
L 791.467308 603.720847 
L 792.69675 586.486912 
L 793.926191 574.362345 
L 795.155633 566.6819 
L 796.385074 558.058561 
L 797.614516 558.084571 
L 798.843958 572.590294 
L 800.073399 583.207329 
L 801.302841 587.445473 
L 802.532282 585.215468 
L 803.761724 576.230418 
L 806.220607 547.94687 
L 807.450049 540.350209 
L 808.67949 554.713583 
L 809.908932 564.23441 
L 811.138374 572.593969 
L 812.367815 572.996664 
L 813.597257 564.304393 
L 814.826698 557.519526 
L 816.05614 553.125829 
L 818.515023 561.773986 
L 819.744465 573.190054 
L 820.973906 589.264433 
L 822.203348 585.659328 
L 823.43279 577.755536 
L 824.662231 576.762518 
L 825.891673 570.333235 
L 827.121115 586.938026 
L 828.350556 584.816879 
L 829.579998 599.317826 
L 830.809439 595.316293 
L 832.038881 564.98063 
L 833.268323 580.602247 
L 834.497764 557.193181 
L 835.727206 541.873607 
L 836.956647 566.271135 
L 838.186089 554.735017 
L 839.415531 530.303584 
L 840.644972 543.030218 
L 841.874414 530.410431 
L 843.103855 496.993404 
L 844.333297 530.291842 
L 845.562739 496.626381 
L 846.79218 507.951497 
L 848.021622 509.107847 
L 849.251063 496.358486 
L 850.480505 489.113488 
L 851.709947 500.881528 
L 851.709947 500.881528 
" style="fill:none;stroke:#ff796c;stroke-linecap:square;stroke-width:1.5;"/>
   </g>
   <g id="line2d_75">
    <path clip-path="url(#p9adb33846a)" d="M 565.250053 404.289503 
L 583.691677 404.34661 
L 587.380002 404.601275 
L 593.52721 405.314126 
L 597.215535 405.617086 
L 600.90386 405.618287 
L 610.739393 405.491347 
L 619.345484 405.700452 
L 623.033809 405.51101 
L 634.098783 404.822663 
L 639.01655 404.845943 
L 648.852082 404.97269 
L 654.99929 404.973051 
L 659.917057 405.28223 
L 668.523148 405.945864 
L 673.440914 405.955009 
L 680.817564 405.825628 
L 685.73533 406.010082 
L 695.570863 406.725637 
L 699.259188 406.949111 
L 702.947513 406.866813 
L 705.406396 407.018591 
L 707.865279 407.225755 
L 710.324162 407.238957 
L 714.012487 407.164416 
L 718.930254 407.276413 
L 721.389137 407.044945 
L 725.077462 406.626949 
L 727.536345 406.638752 
L 731.22467 406.703612 
L 736.142436 406.606368 
L 741.060202 406.915953 
L 744.748527 406.653227 
L 747.20741 406.635703 
L 749.666294 406.960219 
L 753.354618 407.445007 
L 758.272385 407.91279 
L 761.96071 408.462318 
L 764.419593 408.604653 
L 768.107918 408.699816 
L 770.566801 409.023954 
L 774.255126 409.664761 
L 777.94345 409.984255 
L 785.3201 410.500453 
L 789.008425 410.263269 
L 792.69675 410.091377 
L 796.385074 409.936405 
L 798.843958 409.585186 
L 804.991166 408.588414 
L 808.67949 407.903967 
L 813.597257 407.012088 
L 818.515023 406.64853 
L 820.973906 406.632693 
L 823.43279 407.00432 
L 830.809439 408.54161 
L 833.268323 408.904684 
L 835.727206 409.085154 
L 848.021622 409.360618 
L 850.480505 409.152286 
L 851.709947 408.961744 
L 851.709947 408.961744 
" style="fill:none;stroke:#ffff14;stroke-linecap:square;stroke-width:1.5;"/>
   </g>
   <g id="line2d_76">
    <path clip-path="url(#p9adb33846a)" d="M 565.250053 404.289503 
L 707.865279 404.178757 
L 770.566801 403.887615 
L 827.121115 403.382323 
L 851.709947 403.081177 
L 851.709947 403.081177 
" style="fill:none;stroke:#014d4e;stroke-linecap:square;stroke-width:1.5;"/>
   </g>
   <g id="patch_23">
    <path d="M 550.927059 629.9064 
L 550.927059 382.1904 
" style="fill:none;stroke:#000000;stroke-linecap:square;stroke-linejoin:miter;stroke-width:0.8;"/>
   </g>
   <g id="patch_24">
    <path d="M 866.032941 629.9064 
L 866.032941 382.1904 
" style="fill:none;stroke:#000000;stroke-linecap:square;stroke-linejoin:miter;stroke-width:0.8;"/>
   </g>
   <g id="patch_25">
    <path d="M 550.927059 629.9064 
L 866.032941 629.9064 
" style="fill:none;stroke:#000000;stroke-linecap:square;stroke-linejoin:miter;stroke-width:0.8;"/>
   </g>
   <g id="patch_26">
    <path d="M 550.927059 382.1904 
L 866.032941 382.1904 
" style="fill:none;stroke:#000000;stroke-linecap:square;stroke-linejoin:miter;stroke-width:0.8;"/>
   </g>
   <g id="text_66">
    <!-- Lateral joint 4 -->
    <g transform="translate(666.814687 376.1904)scale(0.12 -0.12)">
     <use xlink:href="#DejaVuSans-76"/>
     <use x="55.712891" xlink:href="#DejaVuSans-97"/>
     <use x="116.992188" xlink:href="#DejaVuSans-116"/>
     <use x="156.201172" xlink:href="#DejaVuSans-101"/>
     <use x="217.724609" xlink:href="#DejaVuSans-114"/>
     <use x="258.837891" xlink:href="#DejaVuSans-97"/>
     <use x="320.117188" xlink:href="#DejaVuSans-108"/>
     <use x="347.900391" xlink:href="#DejaVuSans-32"/>
     <use x="379.6875" xlink:href="#DejaVuSans-106"/>
     <use x="407.470703" xlink:href="#DejaVuSans-111"/>
     <use x="468.652344" xlink:href="#DejaVuSans-105"/>
     <use x="496.435547" xlink:href="#DejaVuSans-110"/>
     <use x="559.814453" xlink:href="#DejaVuSans-116"/>
     <use x="599.023438" xlink:href="#DejaVuSans-32"/>
     <use x="630.810547" xlink:href="#DejaVuSans-52"/>
    </g>
   </g>
  </g>
  <g id="axes_6">
   <g id="patch_27">
    <path d="M 929.054118 629.9064 
L 1244.16 629.9064 
L 1244.16 382.1904 
L 929.054118 382.1904 
z
" style="fill:#ffffff;"/>
   </g>
   <g id="matplotlib.axis_11">
    <g id="xtick_26">
     <g id="line2d_77">
      <g>
       <use style="stroke:#000000;stroke-width:0.8;" x="929.054118" xlink:href="#m53ba7c0c5c" y="629.9064"/>
      </g>
     </g>
     <g id="text_67">
      <!-- 0.0 -->
      <g transform="translate(921.102555 644.504838)scale(0.1 -0.1)">
       <use xlink:href="#DejaVuSans-48"/>
       <use x="63.623047" xlink:href="#DejaVuSans-46"/>
       <use x="95.410156" xlink:href="#DejaVuSans-48"/>
      </g>
     </g>
    </g>
    <g id="xtick_27">
     <g id="line2d_78">
      <g>
       <use style="stroke:#000000;stroke-width:0.8;" x="992.075294" xlink:href="#m53ba7c0c5c" y="629.9064"/>
      </g>
     </g>
     <g id="text_68">
      <!-- 0.2 -->
      <g transform="translate(984.123732 644.504838)scale(0.1 -0.1)">
       <use xlink:href="#DejaVuSans-48"/>
       <use x="63.623047" xlink:href="#DejaVuSans-46"/>
       <use x="95.410156" xlink:href="#DejaVuSans-50"/>
      </g>
     </g>
    </g>
    <g id="xtick_28">
     <g id="line2d_79">
      <g>
       <use style="stroke:#000000;stroke-width:0.8;" x="1055.096471" xlink:href="#m53ba7c0c5c" y="629.9064"/>
      </g>
     </g>
     <g id="text_69">
      <!-- 0.4 -->
      <g transform="translate(1047.144908 644.504838)scale(0.1 -0.1)">
       <use xlink:href="#DejaVuSans-48"/>
       <use x="63.623047" xlink:href="#DejaVuSans-46"/>
       <use x="95.410156" xlink:href="#DejaVuSans-52"/>
      </g>
     </g>
    </g>
    <g id="xtick_29">
     <g id="line2d_80">
      <g>
       <use style="stroke:#000000;stroke-width:0.8;" x="1118.117647" xlink:href="#m53ba7c0c5c" y="629.9064"/>
      </g>
     </g>
     <g id="text_70">
      <!-- 0.6 -->
      <g transform="translate(1110.166085 644.504838)scale(0.1 -0.1)">
       <use xlink:href="#DejaVuSans-48"/>
       <use x="63.623047" xlink:href="#DejaVuSans-46"/>
       <use x="95.410156" xlink:href="#DejaVuSans-54"/>
      </g>
     </g>
    </g>
    <g id="xtick_30">
     <g id="line2d_81">
      <g>
       <use style="stroke:#000000;stroke-width:0.8;" x="1181.138824" xlink:href="#m53ba7c0c5c" y="629.9064"/>
      </g>
     </g>
     <g id="text_71">
      <!-- 0.8 -->
      <g transform="translate(1173.187261 644.504838)scale(0.1 -0.1)">
       <use xlink:href="#DejaVuSans-48"/>
       <use x="63.623047" xlink:href="#DejaVuSans-46"/>
       <use x="95.410156" xlink:href="#DejaVuSans-56"/>
      </g>
     </g>
    </g>
    <g id="xtick_31">
     <g id="line2d_82">
      <g>
       <use style="stroke:#000000;stroke-width:0.8;" x="1244.16" xlink:href="#m53ba7c0c5c" y="629.9064"/>
      </g>
     </g>
     <g id="text_72">
      <!-- 1.0 -->
      <g transform="translate(1236.208438 644.504838)scale(0.1 -0.1)">
       <use xlink:href="#DejaVuSans-49"/>
       <use x="63.623047" xlink:href="#DejaVuSans-46"/>
       <use x="95.410156" xlink:href="#DejaVuSans-48"/>
      </g>
     </g>
    </g>
   </g>
   <g id="matplotlib.axis_12">
    <g id="ytick_37">
     <g id="line2d_83">
      <g>
       <use style="stroke:#000000;stroke-width:0.8;" x="929.054118" xlink:href="#m141408a878" y="629.9064"/>
      </g>
     </g>
     <g id="text_73">
      <!-- 0.0 -->
      <g transform="translate(906.150993 633.705619)scale(0.1 -0.1)">
       <use xlink:href="#DejaVuSans-48"/>
       <use x="63.623047" xlink:href="#DejaVuSans-46"/>
       <use x="95.410156" xlink:href="#DejaVuSans-48"/>
      </g>
     </g>
    </g>
    <g id="ytick_38">
     <g id="line2d_84">
      <g>
       <use style="stroke:#000000;stroke-width:0.8;" x="929.054118" xlink:href="#m141408a878" y="580.3632"/>
      </g>
     </g>
     <g id="text_74">
      <!-- 0.2 -->
      <g transform="translate(906.150993 584.162419)scale(0.1 -0.1)">
       <use xlink:href="#DejaVuSans-48"/>
       <use x="63.623047" xlink:href="#DejaVuSans-46"/>
       <use x="95.410156" xlink:href="#DejaVuSans-50"/>
      </g>
     </g>
    </g>
    <g id="ytick_39">
     <g id="line2d_85">
      <g>
       <use style="stroke:#000000;stroke-width:0.8;" x="929.054118" xlink:href="#m141408a878" y="530.82"/>
      </g>
     </g>
     <g id="text_75">
      <!-- 0.4 -->
      <g transform="translate(906.150993 534.619219)scale(0.1 -0.1)">
       <use xlink:href="#DejaVuSans-48"/>
       <use x="63.623047" xlink:href="#DejaVuSans-46"/>
       <use x="95.410156" xlink:href="#DejaVuSans-52"/>
      </g>
     </g>
    </g>
    <g id="ytick_40">
     <g id="line2d_86">
      <g>
       <use style="stroke:#000000;stroke-width:0.8;" x="929.054118" xlink:href="#m141408a878" y="481.2768"/>
      </g>
     </g>
     <g id="text_76">
      <!-- 0.6 -->
      <g transform="translate(906.150993 485.076019)scale(0.1 -0.1)">
       <use xlink:href="#DejaVuSans-48"/>
       <use x="63.623047" xlink:href="#DejaVuSans-46"/>
       <use x="95.410156" xlink:href="#DejaVuSans-54"/>
      </g>
     </g>
    </g>
    <g id="ytick_41">
     <g id="line2d_87">
      <g>
       <use style="stroke:#000000;stroke-width:0.8;" x="929.054118" xlink:href="#m141408a878" y="431.7336"/>
      </g>
     </g>
     <g id="text_77">
      <!-- 0.8 -->
      <g transform="translate(906.150993 435.532819)scale(0.1 -0.1)">
       <use xlink:href="#DejaVuSans-48"/>
       <use x="63.623047" xlink:href="#DejaVuSans-46"/>
       <use x="95.410156" xlink:href="#DejaVuSans-56"/>
      </g>
     </g>
    </g>
    <g id="ytick_42">
     <g id="line2d_88">
      <g>
       <use style="stroke:#000000;stroke-width:0.8;" x="929.054118" xlink:href="#m141408a878" y="382.1904"/>
      </g>
     </g>
     <g id="text_78">
      <!-- 1.0 -->
      <g transform="translate(906.150993 385.989619)scale(0.1 -0.1)">
       <use xlink:href="#DejaVuSans-49"/>
       <use x="63.623047" xlink:href="#DejaVuSans-46"/>
       <use x="95.410156" xlink:href="#DejaVuSans-48"/>
      </g>
     </g>
    </g>
   </g>
   <g id="patch_28">
    <path d="M 929.054118 629.9064 
L 929.054118 382.1904 
" style="fill:none;stroke:#000000;stroke-linecap:square;stroke-linejoin:miter;stroke-width:0.8;"/>
   </g>
   <g id="patch_29">
    <path d="M 1244.16 629.9064 
L 1244.16 382.1904 
" style="fill:none;stroke:#000000;stroke-linecap:square;stroke-linejoin:miter;stroke-width:0.8;"/>
   </g>
   <g id="patch_30">
    <path d="M 929.054118 629.9064 
L 1244.16 629.9064 
" style="fill:none;stroke:#000000;stroke-linecap:square;stroke-linejoin:miter;stroke-width:0.8;"/>
   </g>
   <g id="patch_31">
    <path d="M 929.054118 382.1904 
L 1244.16 382.1904 
" style="fill:none;stroke:#000000;stroke-linecap:square;stroke-linejoin:miter;stroke-width:0.8;"/>
   </g>
  </g>
  <g id="legend_1">
   <g id="patch_32">
    <path d="M 1308.251562 377.53625 
L 1375.4 377.53625 
Q 1377.4 377.53625 1377.4 375.53625 
L 1377.4 332.22375 
Q 1377.4 330.22375 1375.4 330.22375 
L 1308.251562 330.22375 
Q 1306.251562 330.22375 1306.251562 332.22375 
L 1306.251562 375.53625 
Q 1306.251562 377.53625 1308.251562 377.53625 
z
" style="fill:#ffffff;opacity:0.8;stroke:#cccccc;stroke-linejoin:miter;"/>
   </g>
   <g id="line2d_89">
    <path d="M 1310.251562 338.322187 
L 1330.251562 338.322187 
" style="fill:none;stroke:#ff796c;stroke-linecap:square;stroke-width:1.5;"/>
   </g>
   <g id="line2d_90"/>
   <g id="text_79">
    <!-- Torque -->
    <defs>
     <path d="M -0.296875 72.90625 
L 61.375 72.90625 
L 61.375 64.59375 
L 35.5 64.59375 
L 35.5 0 
L 25.59375 0 
L 25.59375 64.59375 
L -0.296875 64.59375 
z
" id="DejaVuSans-84"/>
     <path d="M 14.796875 27.296875 
Q 14.796875 17.390625 18.875 11.75 
Q 22.953125 6.109375 30.078125 6.109375 
Q 37.203125 6.109375 41.296875 11.75 
Q 45.40625 17.390625 45.40625 27.296875 
Q 45.40625 37.203125 41.296875 42.84375 
Q 37.203125 48.484375 30.078125 48.484375 
Q 22.953125 48.484375 18.875 42.84375 
Q 14.796875 37.203125 14.796875 27.296875 
z
M 45.40625 8.203125 
Q 42.578125 3.328125 38.25 0.953125 
Q 33.9375 -1.421875 27.875 -1.421875 
Q 17.96875 -1.421875 11.734375 6.484375 
Q 5.515625 14.40625 5.515625 27.296875 
Q 5.515625 40.1875 11.734375 48.09375 
Q 17.96875 56 27.875 56 
Q 33.9375 56 38.25 53.625 
Q 42.578125 51.265625 45.40625 46.390625 
L 45.40625 54.6875 
L 54.390625 54.6875 
L 54.390625 -20.796875 
L 45.40625 -20.796875 
z
" id="DejaVuSans-113"/>
     <path d="M 8.5 21.578125 
L 8.5 54.6875 
L 17.484375 54.6875 
L 17.484375 21.921875 
Q 17.484375 14.15625 20.5 10.265625 
Q 23.53125 6.390625 29.59375 6.390625 
Q 36.859375 6.390625 41.078125 11.03125 
Q 45.3125 15.671875 45.3125 23.6875 
L 45.3125 54.6875 
L 54.296875 54.6875 
L 54.296875 0 
L 45.3125 0 
L 45.3125 8.40625 
Q 42.046875 3.421875 37.71875 1 
Q 33.40625 -1.421875 27.6875 -1.421875 
Q 18.265625 -1.421875 13.375 4.4375 
Q 8.5 10.296875 8.5 21.578125 
z
M 31.109375 56 
z
" id="DejaVuSans-117"/>
    </defs>
    <g transform="translate(1338.251562 341.822187)scale(0.1 -0.1)">
     <use xlink:href="#DejaVuSans-84"/>
     <use x="60.818359" xlink:href="#DejaVuSans-111"/>
     <use x="122" xlink:href="#DejaVuSans-114"/>
     <use x="163.097656" xlink:href="#DejaVuSans-113"/>
     <use x="226.574219" xlink:href="#DejaVuSans-117"/>
     <use x="289.953125" xlink:href="#DejaVuSans-101"/>
    </g>
   </g>
   <g id="line2d_91">
    <path d="M 1310.251562 353.000313 
L 1330.251562 353.000313 
" style="fill:none;stroke:#ffff14;stroke-linecap:square;stroke-width:1.5;"/>
   </g>
   <g id="line2d_92"/>
   <g id="text_80">
    <!-- q -->
    <g transform="translate(1338.251562 356.500313)scale(0.1 -0.1)">
     <use xlink:href="#DejaVuSans-113"/>
    </g>
   </g>
   <g id="line2d_93">
    <path d="M 1310.251562 367.678437 
L 1330.251562 367.678437 
" style="fill:none;stroke:#014d4e;stroke-linecap:square;stroke-width:1.5;"/>
   </g>
   <g id="line2d_94"/>
   <g id="text_81">
    <!-- q_des -->
    <defs>
     <path d="M 50.984375 -16.609375 
L 50.984375 -23.578125 
L -0.984375 -23.578125 
L -0.984375 -16.609375 
z
" id="DejaVuSans-95"/>
     <path d="M 45.40625 46.390625 
L 45.40625 75.984375 
L 54.390625 75.984375 
L 54.390625 0 
L 45.40625 0 
L 45.40625 8.203125 
Q 42.578125 3.328125 38.25 0.953125 
Q 33.9375 -1.421875 27.875 -1.421875 
Q 17.96875 -1.421875 11.734375 6.484375 
Q 5.515625 14.40625 5.515625 27.296875 
Q 5.515625 40.1875 11.734375 48.09375 
Q 17.96875 56 27.875 56 
Q 33.9375 56 38.25 53.625 
Q 42.578125 51.265625 45.40625 46.390625 
z
M 14.796875 27.296875 
Q 14.796875 17.390625 18.875 11.75 
Q 22.953125 6.109375 30.078125 6.109375 
Q 37.203125 6.109375 41.296875 11.75 
Q 45.40625 17.390625 45.40625 27.296875 
Q 45.40625 37.203125 41.296875 42.84375 
Q 37.203125 48.484375 30.078125 48.484375 
Q 22.953125 48.484375 18.875 42.84375 
Q 14.796875 37.203125 14.796875 27.296875 
z
" id="DejaVuSans-100"/>
     <path d="M 44.28125 53.078125 
L 44.28125 44.578125 
Q 40.484375 46.53125 36.375 47.5 
Q 32.28125 48.484375 27.875 48.484375 
Q 21.1875 48.484375 17.84375 46.4375 
Q 14.5 44.390625 14.5 40.28125 
Q 14.5 37.15625 16.890625 35.375 
Q 19.28125 33.59375 26.515625 31.984375 
L 29.59375 31.296875 
Q 39.15625 29.25 43.1875 25.515625 
Q 47.21875 21.78125 47.21875 15.09375 
Q 47.21875 7.46875 41.1875 3.015625 
Q 35.15625 -1.421875 24.609375 -1.421875 
Q 20.21875 -1.421875 15.453125 -0.5625 
Q 10.6875 0.296875 5.421875 2 
L 5.421875 11.28125 
Q 10.40625 8.6875 15.234375 7.390625 
Q 20.0625 6.109375 24.8125 6.109375 
Q 31.15625 6.109375 34.5625 8.28125 
Q 37.984375 10.453125 37.984375 14.40625 
Q 37.984375 18.0625 35.515625 20.015625 
Q 33.0625 21.96875 24.703125 23.78125 
L 21.578125 24.515625 
Q 13.234375 26.265625 9.515625 29.90625 
Q 5.8125 33.546875 5.8125 39.890625 
Q 5.8125 47.609375 11.28125 51.796875 
Q 16.75 56 26.8125 56 
Q 31.78125 56 36.171875 55.265625 
Q 40.578125 54.546875 44.28125 53.078125 
z
" id="DejaVuSans-115"/>
    </defs>
    <g transform="translate(1338.251562 371.178437)scale(0.1 -0.1)">
     <use xlink:href="#DejaVuSans-113"/>
     <use x="63.476562" xlink:href="#DejaVuSans-95"/>
     <use x="113.476562" xlink:href="#DejaVuSans-100"/>
     <use x="176.953125" xlink:href="#DejaVuSans-101"/>
     <use x="238.476562" xlink:href="#DejaVuSans-115"/>
    </g>
   </g>
  </g>
 </g>
 <defs>
  <clipPath id="p67942277fc">
   <rect height="247.716" width="315.105882" x="172.8" y="84.9312"/>
  </clipPath>
  <clipPath id="pff6c01bbec">
   <rect height="247.716" width="315.105882" x="550.927059" y="84.9312"/>
  </clipPath>
  <clipPath id="pd506bbdc53">
   <rect height="247.716" width="315.105882" x="929.054118" y="84.9312"/>
  </clipPath>
  <clipPath id="pe9b163976a">
   <rect height="247.716" width="315.105882" x="172.8" y="382.1904"/>
  </clipPath>
  <clipPath id="p9adb33846a">
   <rect height="247.716" width="315.105882" x="550.927059" y="382.1904"/>
  </clipPath>
 </defs>
</svg>
