<?xml version="1.0" encoding="utf-8" standalone="no"?>
<!DOCTYPE svg PUBLIC "-//W3C//DTD SVG 1.1//EN"
  "http://www.w3.org/Graphics/SVG/1.1/DTD/svg11.dtd">
<!-- Created with matplotlib (https://matplotlib.org/) -->
<svg height="707.76pt" version="1.1" viewBox="0 0 1382.4 707.76" width="1382.4pt" xmlns="http://www.w3.org/2000/svg" xmlns:xlink="http://www.w3.org/1999/xlink">
 <defs>
  <style type="text/css">
*{stroke-linecap:butt;stroke-linejoin:round;}
  </style>
 </defs>
 <g id="figure_1">
  <g id="patch_1">
   <path d="M 0 707.76 
L 1382.4 707.76 
L 1382.4 0 
L 0 0 
z
" style="fill:#ffffff;"/>
  </g>
  <g id="axes_1">
   <g id="patch_2">
    <path d="M 172.8 332.6472 
L 487.905882 332.6472 
L 487.905882 84.9312 
L 172.8 84.9312 
z
" style="fill:#ffffff;"/>
   </g>
   <g id="matplotlib.axis_1">
    <g id="xtick_1">
     <g id="line2d_1">
      <defs>
       <path d="M 0 0 
L 0 3.5 
" id="m14e5415d1a" style="stroke:#000000;stroke-width:0.8;"/>
      </defs>
      <g>
       <use style="stroke:#000000;stroke-width:0.8;" x="187.122995" xlink:href="#m14e5415d1a" y="332.6472"/>
      </g>
     </g>
     <g id="text_1">
      <!-- 0 -->
      <defs>
       <path d="M 31.78125 66.40625 
Q 24.171875 66.40625 20.328125 58.90625 
Q 16.5 51.421875 16.5 36.375 
Q 16.5 21.390625 20.328125 13.890625 
Q 24.171875 6.390625 31.78125 6.390625 
Q 39.453125 6.390625 43.28125 13.890625 
Q 47.125 21.390625 47.125 36.375 
Q 47.125 51.421875 43.28125 58.90625 
Q 39.453125 66.40625 31.78125 66.40625 
z
M 31.78125 74.21875 
Q 44.046875 74.21875 50.515625 64.515625 
Q 56.984375 54.828125 56.984375 36.375 
Q 56.984375 17.96875 50.515625 8.265625 
Q 44.046875 -1.421875 31.78125 -1.421875 
Q 19.53125 -1.421875 13.0625 8.265625 
Q 6.59375 17.96875 6.59375 36.375 
Q 6.59375 54.828125 13.0625 64.515625 
Q 19.53125 74.21875 31.78125 74.21875 
z
" id="DejaVuSans-48"/>
      </defs>
      <g transform="translate(183.941745 347.245637)scale(0.1 -0.1)">
       <use xlink:href="#DejaVuSans-48"/>
      </g>
     </g>
    </g>
    <g id="xtick_2">
     <g id="line2d_2">
      <g>
       <use style="stroke:#000000;stroke-width:0.8;" x="248.595075" xlink:href="#m14e5415d1a" y="332.6472"/>
      </g>
     </g>
     <g id="text_2">
      <!-- 50 -->
      <defs>
       <path d="M 10.796875 72.90625 
L 49.515625 72.90625 
L 49.515625 64.59375 
L 19.828125 64.59375 
L 19.828125 46.734375 
Q 21.96875 47.46875 24.109375 47.828125 
Q 26.265625 48.1875 28.421875 48.1875 
Q 40.625 48.1875 47.75 41.5 
Q 54.890625 34.8125 54.890625 23.390625 
Q 54.890625 11.625 47.5625 5.09375 
Q 40.234375 -1.421875 26.90625 -1.421875 
Q 22.3125 -1.421875 17.546875 -0.640625 
Q 12.796875 0.140625 7.71875 1.703125 
L 7.71875 11.625 
Q 12.109375 9.234375 16.796875 8.0625 
Q 21.484375 6.890625 26.703125 6.890625 
Q 35.15625 6.890625 40.078125 11.328125 
Q 45.015625 15.765625 45.015625 23.390625 
Q 45.015625 31 40.078125 35.4375 
Q 35.15625 39.890625 26.703125 39.890625 
Q 22.75 39.890625 18.8125 39.015625 
Q 14.890625 38.140625 10.796875 36.28125 
z
" id="DejaVuSans-53"/>
      </defs>
      <g transform="translate(242.232575 347.245637)scale(0.1 -0.1)">
       <use xlink:href="#DejaVuSans-53"/>
       <use x="63.623047" xlink:href="#DejaVuSans-48"/>
      </g>
     </g>
    </g>
    <g id="xtick_3">
     <g id="line2d_3">
      <g>
       <use style="stroke:#000000;stroke-width:0.8;" x="310.067155" xlink:href="#m14e5415d1a" y="332.6472"/>
      </g>
     </g>
     <g id="text_3">
      <!-- 100 -->
      <defs>
       <path d="M 12.40625 8.296875 
L 28.515625 8.296875 
L 28.515625 63.921875 
L 10.984375 60.40625 
L 10.984375 69.390625 
L 28.421875 72.90625 
L 38.28125 72.90625 
L 38.28125 8.296875 
L 54.390625 8.296875 
L 54.390625 0 
L 12.40625 0 
z
" id="DejaVuSans-49"/>
      </defs>
      <g transform="translate(300.523405 347.245637)scale(0.1 -0.1)">
       <use xlink:href="#DejaVuSans-49"/>
       <use x="63.623047" xlink:href="#DejaVuSans-48"/>
       <use x="127.246094" xlink:href="#DejaVuSans-48"/>
      </g>
     </g>
    </g>
    <g id="xtick_4">
     <g id="line2d_4">
      <g>
       <use style="stroke:#000000;stroke-width:0.8;" x="371.539235" xlink:href="#m14e5415d1a" y="332.6472"/>
      </g>
     </g>
     <g id="text_4">
      <!-- 150 -->
      <g transform="translate(361.995485 347.245637)scale(0.1 -0.1)">
       <use xlink:href="#DejaVuSans-49"/>
       <use x="63.623047" xlink:href="#DejaVuSans-53"/>
       <use x="127.246094" xlink:href="#DejaVuSans-48"/>
      </g>
     </g>
    </g>
    <g id="xtick_5">
     <g id="line2d_5">
      <g>
       <use style="stroke:#000000;stroke-width:0.8;" x="433.011315" xlink:href="#m14e5415d1a" y="332.6472"/>
      </g>
     </g>
     <g id="text_5">
      <!-- 200 -->
      <defs>
       <path d="M 19.1875 8.296875 
L 53.609375 8.296875 
L 53.609375 0 
L 7.328125 0 
L 7.328125 8.296875 
Q 12.9375 14.109375 22.625 23.890625 
Q 32.328125 33.6875 34.8125 36.53125 
Q 39.546875 41.84375 41.421875 45.53125 
Q 43.3125 49.21875 43.3125 52.78125 
Q 43.3125 58.59375 39.234375 62.25 
Q 35.15625 65.921875 28.609375 65.921875 
Q 23.96875 65.921875 18.8125 64.3125 
Q 13.671875 62.703125 7.8125 59.421875 
L 7.8125 69.390625 
Q 13.765625 71.78125 18.9375 73 
Q 24.125 74.21875 28.421875 74.21875 
Q 39.75 74.21875 46.484375 68.546875 
Q 53.21875 62.890625 53.21875 53.421875 
Q 53.21875 48.921875 51.53125 44.890625 
Q 49.859375 40.875 45.40625 35.40625 
Q 44.1875 33.984375 37.640625 27.21875 
Q 31.109375 20.453125 19.1875 8.296875 
z
" id="DejaVuSans-50"/>
      </defs>
      <g transform="translate(423.467565 347.245637)scale(0.1 -0.1)">
       <use xlink:href="#DejaVuSans-50"/>
       <use x="63.623047" xlink:href="#DejaVuSans-48"/>
       <use x="127.246094" xlink:href="#DejaVuSans-48"/>
      </g>
     </g>
    </g>
   </g>
   <g id="matplotlib.axis_2">
    <g id="ytick_1">
     <g id="line2d_6">
      <defs>
       <path d="M 0 0 
L -3.5 0 
" id="m879c06dc74" style="stroke:#000000;stroke-width:0.8;"/>
      </defs>
      <g>
       <use style="stroke:#000000;stroke-width:0.8;" x="172.8" xlink:href="#m879c06dc74" y="300.542506"/>
      </g>
     </g>
     <g id="text_6">
      <!-- 0.0 -->
      <defs>
       <path d="M 10.6875 12.40625 
L 21 12.40625 
L 21 0 
L 10.6875 0 
z
" id="DejaVuSans-46"/>
      </defs>
      <g transform="translate(149.896875 304.341725)scale(0.1 -0.1)">
       <use xlink:href="#DejaVuSans-48"/>
       <use x="63.623047" xlink:href="#DejaVuSans-46"/>
       <use x="95.410156" xlink:href="#DejaVuSans-48"/>
      </g>
     </g>
    </g>
    <g id="ytick_2">
     <g id="line2d_7">
      <g>
       <use style="stroke:#000000;stroke-width:0.8;" x="172.8" xlink:href="#m879c06dc74" y="266.293474"/>
      </g>
     </g>
     <g id="text_7">
      <!-- 0.2 -->
      <g transform="translate(149.896875 270.092693)scale(0.1 -0.1)">
       <use xlink:href="#DejaVuSans-48"/>
       <use x="63.623047" xlink:href="#DejaVuSans-46"/>
       <use x="95.410156" xlink:href="#DejaVuSans-50"/>
      </g>
     </g>
    </g>
    <g id="ytick_3">
     <g id="line2d_8">
      <g>
       <use style="stroke:#000000;stroke-width:0.8;" x="172.8" xlink:href="#m879c06dc74" y="232.044442"/>
      </g>
     </g>
     <g id="text_8">
      <!-- 0.4 -->
      <defs>
       <path d="M 37.796875 64.3125 
L 12.890625 25.390625 
L 37.796875 25.390625 
z
M 35.203125 72.90625 
L 47.609375 72.90625 
L 47.609375 25.390625 
L 58.015625 25.390625 
L 58.015625 17.1875 
L 47.609375 17.1875 
L 47.609375 0 
L 37.796875 0 
L 37.796875 17.1875 
L 4.890625 17.1875 
L 4.890625 26.703125 
z
" id="DejaVuSans-52"/>
      </defs>
      <g transform="translate(149.896875 235.843661)scale(0.1 -0.1)">
       <use xlink:href="#DejaVuSans-48"/>
       <use x="63.623047" xlink:href="#DejaVuSans-46"/>
       <use x="95.410156" xlink:href="#DejaVuSans-52"/>
      </g>
     </g>
    </g>
    <g id="ytick_4">
     <g id="line2d_9">
      <g>
       <use style="stroke:#000000;stroke-width:0.8;" x="172.8" xlink:href="#m879c06dc74" y="197.79541"/>
      </g>
     </g>
     <g id="text_9">
      <!-- 0.6 -->
      <defs>
       <path d="M 33.015625 40.375 
Q 26.375 40.375 22.484375 35.828125 
Q 18.609375 31.296875 18.609375 23.390625 
Q 18.609375 15.53125 22.484375 10.953125 
Q 26.375 6.390625 33.015625 6.390625 
Q 39.65625 6.390625 43.53125 10.953125 
Q 47.40625 15.53125 47.40625 23.390625 
Q 47.40625 31.296875 43.53125 35.828125 
Q 39.65625 40.375 33.015625 40.375 
z
M 52.59375 71.296875 
L 52.59375 62.3125 
Q 48.875 64.0625 45.09375 64.984375 
Q 41.3125 65.921875 37.59375 65.921875 
Q 27.828125 65.921875 22.671875 59.328125 
Q 17.53125 52.734375 16.796875 39.40625 
Q 19.671875 43.65625 24.015625 45.921875 
Q 28.375 48.1875 33.59375 48.1875 
Q 44.578125 48.1875 50.953125 41.515625 
Q 57.328125 34.859375 57.328125 23.390625 
Q 57.328125 12.15625 50.6875 5.359375 
Q 44.046875 -1.421875 33.015625 -1.421875 
Q 20.359375 -1.421875 13.671875 8.265625 
Q 6.984375 17.96875 6.984375 36.375 
Q 6.984375 53.65625 15.1875 63.9375 
Q 23.390625 74.21875 37.203125 74.21875 
Q 40.921875 74.21875 44.703125 73.484375 
Q 48.484375 72.75 52.59375 71.296875 
z
" id="DejaVuSans-54"/>
      </defs>
      <g transform="translate(149.896875 201.594629)scale(0.1 -0.1)">
       <use xlink:href="#DejaVuSans-48"/>
       <use x="63.623047" xlink:href="#DejaVuSans-46"/>
       <use x="95.410156" xlink:href="#DejaVuSans-54"/>
      </g>
     </g>
    </g>
    <g id="ytick_5">
     <g id="line2d_10">
      <g>
       <use style="stroke:#000000;stroke-width:0.8;" x="172.8" xlink:href="#m879c06dc74" y="163.546378"/>
      </g>
     </g>
     <g id="text_10">
      <!-- 0.8 -->
      <defs>
       <path d="M 31.78125 34.625 
Q 24.75 34.625 20.71875 30.859375 
Q 16.703125 27.09375 16.703125 20.515625 
Q 16.703125 13.921875 20.71875 10.15625 
Q 24.75 6.390625 31.78125 6.390625 
Q 38.8125 6.390625 42.859375 10.171875 
Q 46.921875 13.96875 46.921875 20.515625 
Q 46.921875 27.09375 42.890625 30.859375 
Q 38.875 34.625 31.78125 34.625 
z
M 21.921875 38.8125 
Q 15.578125 40.375 12.03125 44.71875 
Q 8.5 49.078125 8.5 55.328125 
Q 8.5 64.0625 14.71875 69.140625 
Q 20.953125 74.21875 31.78125 74.21875 
Q 42.671875 74.21875 48.875 69.140625 
Q 55.078125 64.0625 55.078125 55.328125 
Q 55.078125 49.078125 51.53125 44.71875 
Q 48 40.375 41.703125 38.8125 
Q 48.828125 37.15625 52.796875 32.3125 
Q 56.78125 27.484375 56.78125 20.515625 
Q 56.78125 9.90625 50.3125 4.234375 
Q 43.84375 -1.421875 31.78125 -1.421875 
Q 19.734375 -1.421875 13.25 4.234375 
Q 6.78125 9.90625 6.78125 20.515625 
Q 6.78125 27.484375 10.78125 32.3125 
Q 14.796875 37.15625 21.921875 38.8125 
z
M 18.3125 54.390625 
Q 18.3125 48.734375 21.84375 45.5625 
Q 25.390625 42.390625 31.78125 42.390625 
Q 38.140625 42.390625 41.71875 45.5625 
Q 45.3125 48.734375 45.3125 54.390625 
Q 45.3125 60.0625 41.71875 63.234375 
Q 38.140625 66.40625 31.78125 66.40625 
Q 25.390625 66.40625 21.84375 63.234375 
Q 18.3125 60.0625 18.3125 54.390625 
z
" id="DejaVuSans-56"/>
      </defs>
      <g transform="translate(149.896875 167.345596)scale(0.1 -0.1)">
       <use xlink:href="#DejaVuSans-48"/>
       <use x="63.623047" xlink:href="#DejaVuSans-46"/>
       <use x="95.410156" xlink:href="#DejaVuSans-56"/>
      </g>
     </g>
    </g>
    <g id="ytick_6">
     <g id="line2d_11">
      <g>
       <use style="stroke:#000000;stroke-width:0.8;" x="172.8" xlink:href="#m879c06dc74" y="129.297345"/>
      </g>
     </g>
     <g id="text_11">
      <!-- 1.0 -->
      <g transform="translate(149.896875 133.096564)scale(0.1 -0.1)">
       <use xlink:href="#DejaVuSans-49"/>
       <use x="63.623047" xlink:href="#DejaVuSans-46"/>
       <use x="95.410156" xlink:href="#DejaVuSans-48"/>
      </g>
     </g>
    </g>
    <g id="ytick_7">
     <g id="line2d_12">
      <g>
       <use style="stroke:#000000;stroke-width:0.8;" x="172.8" xlink:href="#m879c06dc74" y="95.048313"/>
      </g>
     </g>
     <g id="text_12">
      <!-- 1.2 -->
      <g transform="translate(149.896875 98.847532)scale(0.1 -0.1)">
       <use xlink:href="#DejaVuSans-49"/>
       <use x="63.623047" xlink:href="#DejaVuSans-46"/>
       <use x="95.410156" xlink:href="#DejaVuSans-50"/>
      </g>
     </g>
    </g>
   </g>
   <g id="line2d_13">
    <path clip-path="url(#pcda94e2661)" d="M 187.122995 300.54234 
L 189.581878 300.5146 
L 190.811319 300.35178 
L 193.270203 299.632477 
L 195.729086 298.767227 
L 201.876294 296.968639 
L 204.335177 295.552643 
L 206.79406 294.021908 
L 212.941268 290.611045 
L 215.400151 288.629468 
L 217.859035 286.643035 
L 224.006243 282.241077 
L 230.153451 276.654183 
L 232.612334 274.736571 
L 235.071217 272.471071 
L 238.759542 268.617299 
L 241.218425 266.436013 
L 243.677308 264.433161 
L 246.136192 262.121957 
L 248.595075 259.653253 
L 251.053958 257.595703 
L 255.971724 254.125574 
L 259.660049 251.126169 
L 262.118932 249.635452 
L 265.807257 247.686016 
L 270.725024 244.518423 
L 273.183907 243.523467 
L 275.64279 242.616019 
L 280.560556 240.300681 
L 281.789998 239.950652 
L 287.937206 238.749378 
L 290.396089 238.085671 
L 291.625531 237.918163 
L 296.543297 237.796168 
L 301.461064 236.986414 
L 303.919947 237.059148 
L 306.37883 237.11208 
L 311.296596 236.642678 
L 313.75548 236.909932 
L 316.214363 237.291021 
L 318.673246 237.407208 
L 321.132129 237.548346 
L 323.591012 238.109763 
L 326.049896 238.821895 
L 328.508779 239.249905 
L 330.967662 239.575857 
L 333.426545 240.205307 
L 337.11487 241.344055 
L 343.262078 242.659561 
L 348.179844 244.452638 
L 353.097611 245.907507 
L 359.244819 248.441324 
L 369.080352 251.19185 
L 371.539235 251.517837 
L 378.915884 251.848589 
L 381.374768 251.819416 
L 383.833651 251.550289 
L 393.669184 249.98035 
L 396.128067 249.299775 
L 401.045833 247.564574 
L 405.9636 245.653987 
L 409.651924 243.906432 
L 430.552432 232.908169 
L 433.011315 232.043307 
L 435.470198 231.350752 
L 437.929081 230.863413 
L 440.387964 230.578432 
L 442.846848 230.548718 
L 445.305731 230.841736 
L 447.764614 231.436596 
L 450.223497 232.345449 
L 452.68238 233.477742 
L 455.141264 234.992873 
L 457.600147 236.806867 
L 460.05903 238.890804 
L 462.517913 241.19838 
L 464.976796 243.942235 
L 468.665121 248.599617 
L 471.124004 252.016319 
L 473.582888 255.700099 
L 473.582888 255.700099 
" style="fill:none;stroke:#ff796c;stroke-linecap:square;stroke-width:1.5;"/>
   </g>
   <g id="line2d_14">
    <path clip-path="url(#pcda94e2661)" d="M 187.122995 301.597958 
L 192.040761 301.658597 
L 195.729086 301.951196 
L 203.105735 302.820838 
L 206.79406 303.551103 
L 214.17071 305.236311 
L 222.776801 307.701798 
L 227.694567 309.246938 
L 249.824516 316.600227 
L 253.512841 317.624132 
L 262.118932 319.571864 
L 268.26614 320.477374 
L 271.954465 320.953852 
L 275.64279 321.190865 
L 281.789998 321.387382 
L 285.478323 321.197651 
L 292.854972 320.457396 
L 300.231622 319.153029 
L 303.919947 318.409453 
L 312.526038 316.275048 
L 316.214363 315.091561 
L 322.361571 312.899354 
L 326.049896 311.31722 
L 334.655987 307.276143 
L 342.032636 303.275876 
L 345.720961 301.035626 
L 350.638728 297.713691 
L 354.327052 295.026631 
L 358.015377 292.049335 
L 364.162585 286.786035 
L 369.080352 282.252705 
L 376.457001 275.113702 
L 381.374768 269.989534 
L 386.292534 264.568448 
L 389.980859 260.260458 
L 394.898625 254.123232 
L 399.816392 247.654685 
L 404.734158 240.83766 
L 409.651924 233.66047 
L 414.569691 226.158719 
L 419.487457 218.249268 
L 424.405224 209.900594 
L 429.32299 201.123497 
L 434.240756 191.803024 
L 439.158523 181.881028 
L 444.076289 171.361679 
L 448.994056 160.233936 
L 453.911822 148.529641 
L 458.829588 136.275799 
L 464.976796 120.286113 
L 471.124004 103.547162 
L 473.582888 96.65911 
L 473.582888 96.65911 
" style="fill:none;stroke:#ffff14;stroke-linecap:square;stroke-width:1.5;"/>
   </g>
   <g id="line2d_15">
    <path clip-path="url(#pcda94e2661)" d="M 187.122995 301.59877 
L 235.071217 301.491788 
L 252.2834 301.238268 
L 265.807257 300.82346 
L 276.872232 300.255983 
L 285.478323 299.613209 
L 294.084414 298.738994 
L 301.461064 297.76084 
L 307.608272 296.752528 
L 313.75548 295.540326 
L 319.902688 294.095624 
L 326.049896 292.387842 
L 330.967662 290.810389 
L 335.885428 289.026156 
L 340.803195 287.01678 
L 345.720961 284.763221 
L 350.638728 282.245944 
L 355.556494 279.445049 
L 360.47426 276.340489 
L 365.392027 272.912274 
L 370.309793 269.140807 
L 375.22756 265.007233 
L 380.145326 260.49386 
L 385.063092 255.584504 
L 389.980859 250.264834 
L 394.898625 244.52268 
L 399.816392 238.348243 
L 404.734158 231.734396 
L 409.651924 224.67687 
L 414.569691 217.174441 
L 419.487457 209.229097 
L 424.405224 200.846018 
L 429.32299 192.033556 
L 434.240756 182.803186 
L 439.158523 173.169351 
L 445.305731 160.586261 
L 451.452939 147.439492 
L 457.600147 133.774394 
L 464.976796 116.763211 
L 472.353446 99.172301 
L 473.582888 96.191018 
L 473.582888 96.191018 
" style="fill:none;stroke:#014d4e;stroke-linecap:square;stroke-width:1.5;"/>
   </g>
   <g id="patch_3">
    <path d="M 172.8 332.6472 
L 172.8 84.9312 
" style="fill:none;stroke:#000000;stroke-linecap:square;stroke-linejoin:miter;stroke-width:0.8;"/>
   </g>
   <g id="patch_4">
    <path d="M 487.905882 332.6472 
L 487.905882 84.9312 
" style="fill:none;stroke:#000000;stroke-linecap:square;stroke-linejoin:miter;stroke-width:0.8;"/>
   </g>
   <g id="patch_5">
    <path d="M 172.8 332.6472 
L 487.905882 332.6472 
" style="fill:none;stroke:#000000;stroke-linecap:square;stroke-linejoin:miter;stroke-width:0.8;"/>
   </g>
   <g id="patch_6">
    <path d="M 172.8 84.9312 
L 487.905882 84.9312 
" style="fill:none;stroke:#000000;stroke-linecap:square;stroke-linejoin:miter;stroke-width:0.8;"/>
   </g>
   <g id="text_13">
    <!-- Lateral joint 0 -->
    <defs>
     <path d="M 9.8125 72.90625 
L 19.671875 72.90625 
L 19.671875 8.296875 
L 55.171875 8.296875 
L 55.171875 0 
L 9.8125 0 
z
" id="DejaVuSans-76"/>
     <path d="M 34.28125 27.484375 
Q 23.390625 27.484375 19.1875 25 
Q 14.984375 22.515625 14.984375 16.5 
Q 14.984375 11.71875 18.140625 8.90625 
Q 21.296875 6.109375 26.703125 6.109375 
Q 34.1875 6.109375 38.703125 11.40625 
Q 43.21875 16.703125 43.21875 25.484375 
L 43.21875 27.484375 
z
M 52.203125 31.203125 
L 52.203125 0 
L 43.21875 0 
L 43.21875 8.296875 
Q 40.140625 3.328125 35.546875 0.953125 
Q 30.953125 -1.421875 24.3125 -1.421875 
Q 15.921875 -1.421875 10.953125 3.296875 
Q 6 8.015625 6 15.921875 
Q 6 25.140625 12.171875 29.828125 
Q 18.359375 34.515625 30.609375 34.515625 
L 43.21875 34.515625 
L 43.21875 35.40625 
Q 43.21875 41.609375 39.140625 45 
Q 35.0625 48.390625 27.6875 48.390625 
Q 23 48.390625 18.546875 47.265625 
Q 14.109375 46.140625 10.015625 43.890625 
L 10.015625 52.203125 
Q 14.9375 54.109375 19.578125 55.046875 
Q 24.21875 56 28.609375 56 
Q 40.484375 56 46.34375 49.84375 
Q 52.203125 43.703125 52.203125 31.203125 
z
" id="DejaVuSans-97"/>
     <path d="M 18.3125 70.21875 
L 18.3125 54.6875 
L 36.8125 54.6875 
L 36.8125 47.703125 
L 18.3125 47.703125 
L 18.3125 18.015625 
Q 18.3125 11.328125 20.140625 9.421875 
Q 21.96875 7.515625 27.59375 7.515625 
L 36.8125 7.515625 
L 36.8125 0 
L 27.59375 0 
Q 17.1875 0 13.234375 3.875 
Q 9.28125 7.765625 9.28125 18.015625 
L 9.28125 47.703125 
L 2.6875 47.703125 
L 2.6875 54.6875 
L 9.28125 54.6875 
L 9.28125 70.21875 
z
" id="DejaVuSans-116"/>
     <path d="M 56.203125 29.59375 
L 56.203125 25.203125 
L 14.890625 25.203125 
Q 15.484375 15.921875 20.484375 11.0625 
Q 25.484375 6.203125 34.421875 6.203125 
Q 39.59375 6.203125 44.453125 7.46875 
Q 49.3125 8.734375 54.109375 11.28125 
L 54.109375 2.78125 
Q 49.265625 0.734375 44.1875 -0.34375 
Q 39.109375 -1.421875 33.890625 -1.421875 
Q 20.796875 -1.421875 13.15625 6.1875 
Q 5.515625 13.8125 5.515625 26.8125 
Q 5.515625 40.234375 12.765625 48.109375 
Q 20.015625 56 32.328125 56 
Q 43.359375 56 49.78125 48.890625 
Q 56.203125 41.796875 56.203125 29.59375 
z
M 47.21875 32.234375 
Q 47.125 39.59375 43.09375 43.984375 
Q 39.0625 48.390625 32.421875 48.390625 
Q 24.90625 48.390625 20.390625 44.140625 
Q 15.875 39.890625 15.1875 32.171875 
z
" id="DejaVuSans-101"/>
     <path d="M 41.109375 46.296875 
Q 39.59375 47.171875 37.8125 47.578125 
Q 36.03125 48 33.890625 48 
Q 26.265625 48 22.1875 43.046875 
Q 18.109375 38.09375 18.109375 28.8125 
L 18.109375 0 
L 9.078125 0 
L 9.078125 54.6875 
L 18.109375 54.6875 
L 18.109375 46.1875 
Q 20.953125 51.171875 25.484375 53.578125 
Q 30.03125 56 36.53125 56 
Q 37.453125 56 38.578125 55.875 
Q 39.703125 55.765625 41.0625 55.515625 
z
" id="DejaVuSans-114"/>
     <path d="M 9.421875 75.984375 
L 18.40625 75.984375 
L 18.40625 0 
L 9.421875 0 
z
" id="DejaVuSans-108"/>
     <path id="DejaVuSans-32"/>
     <path d="M 9.421875 54.6875 
L 18.40625 54.6875 
L 18.40625 -0.984375 
Q 18.40625 -11.421875 14.421875 -16.109375 
Q 10.453125 -20.796875 1.609375 -20.796875 
L -1.8125 -20.796875 
L -1.8125 -13.1875 
L 0.59375 -13.1875 
Q 5.71875 -13.1875 7.5625 -10.8125 
Q 9.421875 -8.453125 9.421875 -0.984375 
z
M 9.421875 75.984375 
L 18.40625 75.984375 
L 18.40625 64.59375 
L 9.421875 64.59375 
z
" id="DejaVuSans-106"/>
     <path d="M 30.609375 48.390625 
Q 23.390625 48.390625 19.1875 42.75 
Q 14.984375 37.109375 14.984375 27.296875 
Q 14.984375 17.484375 19.15625 11.84375 
Q 23.34375 6.203125 30.609375 6.203125 
Q 37.796875 6.203125 41.984375 11.859375 
Q 46.1875 17.53125 46.1875 27.296875 
Q 46.1875 37.015625 41.984375 42.703125 
Q 37.796875 48.390625 30.609375 48.390625 
z
M 30.609375 56 
Q 42.328125 56 49.015625 48.375 
Q 55.71875 40.765625 55.71875 27.296875 
Q 55.71875 13.875 49.015625 6.21875 
Q 42.328125 -1.421875 30.609375 -1.421875 
Q 18.84375 -1.421875 12.171875 6.21875 
Q 5.515625 13.875 5.515625 27.296875 
Q 5.515625 40.765625 12.171875 48.375 
Q 18.84375 56 30.609375 56 
z
" id="DejaVuSans-111"/>
     <path d="M 9.421875 54.6875 
L 18.40625 54.6875 
L 18.40625 0 
L 9.421875 0 
z
M 9.421875 75.984375 
L 18.40625 75.984375 
L 18.40625 64.59375 
L 9.421875 64.59375 
z
" id="DejaVuSans-105"/>
     <path d="M 54.890625 33.015625 
L 54.890625 0 
L 45.90625 0 
L 45.90625 32.71875 
Q 45.90625 40.484375 42.875 44.328125 
Q 39.84375 48.1875 33.796875 48.1875 
Q 26.515625 48.1875 22.3125 43.546875 
Q 18.109375 38.921875 18.109375 30.90625 
L 18.109375 0 
L 9.078125 0 
L 9.078125 54.6875 
L 18.109375 54.6875 
L 18.109375 46.1875 
Q 21.34375 51.125 25.703125 53.5625 
Q 30.078125 56 35.796875 56 
Q 45.21875 56 50.046875 50.171875 
Q 54.890625 44.34375 54.890625 33.015625 
z
" id="DejaVuSans-110"/>
    </defs>
    <g transform="translate(288.687629 78.9312)scale(0.12 -0.12)">
     <use xlink:href="#DejaVuSans-76"/>
     <use x="55.712891" xlink:href="#DejaVuSans-97"/>
     <use x="116.992188" xlink:href="#DejaVuSans-116"/>
     <use x="156.201172" xlink:href="#DejaVuSans-101"/>
     <use x="217.724609" xlink:href="#DejaVuSans-114"/>
     <use x="258.837891" xlink:href="#DejaVuSans-97"/>
     <use x="320.117188" xlink:href="#DejaVuSans-108"/>
     <use x="347.900391" xlink:href="#DejaVuSans-32"/>
     <use x="379.6875" xlink:href="#DejaVuSans-106"/>
     <use x="407.470703" xlink:href="#DejaVuSans-111"/>
     <use x="468.652344" xlink:href="#DejaVuSans-105"/>
     <use x="496.435547" xlink:href="#DejaVuSans-110"/>
     <use x="559.814453" xlink:href="#DejaVuSans-116"/>
     <use x="599.023438" xlink:href="#DejaVuSans-32"/>
     <use x="630.810547" xlink:href="#DejaVuSans-48"/>
    </g>
   </g>
  </g>
  <g id="axes_2">
   <g id="patch_7">
    <path d="M 550.927059 332.6472 
L 866.032941 332.6472 
L 866.032941 84.9312 
L 550.927059 84.9312 
z
" style="fill:#ffffff;"/>
   </g>
   <g id="matplotlib.axis_3">
    <g id="xtick_6">
     <g id="line2d_16">
      <g>
       <use style="stroke:#000000;stroke-width:0.8;" x="565.250053" xlink:href="#m14e5415d1a" y="332.6472"/>
      </g>
     </g>
     <g id="text_14">
      <!-- 0 -->
      <g transform="translate(562.068803 347.245637)scale(0.1 -0.1)">
       <use xlink:href="#DejaVuSans-48"/>
      </g>
     </g>
    </g>
    <g id="xtick_7">
     <g id="line2d_17">
      <g>
       <use style="stroke:#000000;stroke-width:0.8;" x="626.722134" xlink:href="#m14e5415d1a" y="332.6472"/>
      </g>
     </g>
     <g id="text_15">
      <!-- 50 -->
      <g transform="translate(620.359634 347.245637)scale(0.1 -0.1)">
       <use xlink:href="#DejaVuSans-53"/>
       <use x="63.623047" xlink:href="#DejaVuSans-48"/>
      </g>
     </g>
    </g>
    <g id="xtick_8">
     <g id="line2d_18">
      <g>
       <use style="stroke:#000000;stroke-width:0.8;" x="688.194214" xlink:href="#m14e5415d1a" y="332.6472"/>
      </g>
     </g>
     <g id="text_16">
      <!-- 100 -->
      <g transform="translate(678.650464 347.245637)scale(0.1 -0.1)">
       <use xlink:href="#DejaVuSans-49"/>
       <use x="63.623047" xlink:href="#DejaVuSans-48"/>
       <use x="127.246094" xlink:href="#DejaVuSans-48"/>
      </g>
     </g>
    </g>
    <g id="xtick_9">
     <g id="line2d_19">
      <g>
       <use style="stroke:#000000;stroke-width:0.8;" x="749.666294" xlink:href="#m14e5415d1a" y="332.6472"/>
      </g>
     </g>
     <g id="text_17">
      <!-- 150 -->
      <g transform="translate(740.122544 347.245637)scale(0.1 -0.1)">
       <use xlink:href="#DejaVuSans-49"/>
       <use x="63.623047" xlink:href="#DejaVuSans-53"/>
       <use x="127.246094" xlink:href="#DejaVuSans-48"/>
      </g>
     </g>
    </g>
    <g id="xtick_10">
     <g id="line2d_20">
      <g>
       <use style="stroke:#000000;stroke-width:0.8;" x="811.138374" xlink:href="#m14e5415d1a" y="332.6472"/>
      </g>
     </g>
     <g id="text_18">
      <!-- 200 -->
      <g transform="translate(801.594624 347.245637)scale(0.1 -0.1)">
       <use xlink:href="#DejaVuSans-50"/>
       <use x="63.623047" xlink:href="#DejaVuSans-48"/>
       <use x="127.246094" xlink:href="#DejaVuSans-48"/>
      </g>
     </g>
    </g>
   </g>
   <g id="matplotlib.axis_4">
    <g id="ytick_8">
     <g id="line2d_21">
      <g>
       <use style="stroke:#000000;stroke-width:0.8;" x="550.927059" xlink:href="#m879c06dc74" y="317.67022"/>
      </g>
     </g>
     <g id="text_19">
      <!-- −0.6 -->
      <defs>
       <path d="M 10.59375 35.5 
L 73.1875 35.5 
L 73.1875 27.203125 
L 10.59375 27.203125 
z
" id="DejaVuSans-8722"/>
      </defs>
      <g transform="translate(519.644246 321.469439)scale(0.1 -0.1)">
       <use xlink:href="#DejaVuSans-8722"/>
       <use x="83.789062" xlink:href="#DejaVuSans-48"/>
       <use x="147.412109" xlink:href="#DejaVuSans-46"/>
       <use x="179.199219" xlink:href="#DejaVuSans-54"/>
      </g>
     </g>
    </g>
    <g id="ytick_9">
     <g id="line2d_22">
      <g>
       <use style="stroke:#000000;stroke-width:0.8;" x="550.927059" xlink:href="#m879c06dc74" y="289.034184"/>
      </g>
     </g>
     <g id="text_20">
      <!-- −0.5 -->
      <g transform="translate(519.644246 292.833403)scale(0.1 -0.1)">
       <use xlink:href="#DejaVuSans-8722"/>
       <use x="83.789062" xlink:href="#DejaVuSans-48"/>
       <use x="147.412109" xlink:href="#DejaVuSans-46"/>
       <use x="179.199219" xlink:href="#DejaVuSans-53"/>
      </g>
     </g>
    </g>
    <g id="ytick_10">
     <g id="line2d_23">
      <g>
       <use style="stroke:#000000;stroke-width:0.8;" x="550.927059" xlink:href="#m879c06dc74" y="260.398148"/>
      </g>
     </g>
     <g id="text_21">
      <!-- −0.4 -->
      <g transform="translate(519.644246 264.197366)scale(0.1 -0.1)">
       <use xlink:href="#DejaVuSans-8722"/>
       <use x="83.789062" xlink:href="#DejaVuSans-48"/>
       <use x="147.412109" xlink:href="#DejaVuSans-46"/>
       <use x="179.199219" xlink:href="#DejaVuSans-52"/>
      </g>
     </g>
    </g>
    <g id="ytick_11">
     <g id="line2d_24">
      <g>
       <use style="stroke:#000000;stroke-width:0.8;" x="550.927059" xlink:href="#m879c06dc74" y="231.762111"/>
      </g>
     </g>
     <g id="text_22">
      <!-- −0.3 -->
      <defs>
       <path d="M 40.578125 39.3125 
Q 47.65625 37.796875 51.625 33 
Q 55.609375 28.21875 55.609375 21.1875 
Q 55.609375 10.40625 48.1875 4.484375 
Q 40.765625 -1.421875 27.09375 -1.421875 
Q 22.515625 -1.421875 17.65625 -0.515625 
Q 12.796875 0.390625 7.625 2.203125 
L 7.625 11.71875 
Q 11.71875 9.328125 16.59375 8.109375 
Q 21.484375 6.890625 26.8125 6.890625 
Q 36.078125 6.890625 40.9375 10.546875 
Q 45.796875 14.203125 45.796875 21.1875 
Q 45.796875 27.640625 41.28125 31.265625 
Q 36.765625 34.90625 28.71875 34.90625 
L 20.21875 34.90625 
L 20.21875 43.015625 
L 29.109375 43.015625 
Q 36.375 43.015625 40.234375 45.921875 
Q 44.09375 48.828125 44.09375 54.296875 
Q 44.09375 59.90625 40.109375 62.90625 
Q 36.140625 65.921875 28.71875 65.921875 
Q 24.65625 65.921875 20.015625 65.03125 
Q 15.375 64.15625 9.8125 62.3125 
L 9.8125 71.09375 
Q 15.4375 72.65625 20.34375 73.4375 
Q 25.25 74.21875 29.59375 74.21875 
Q 40.828125 74.21875 47.359375 69.109375 
Q 53.90625 64.015625 53.90625 55.328125 
Q 53.90625 49.265625 50.4375 45.09375 
Q 46.96875 40.921875 40.578125 39.3125 
z
" id="DejaVuSans-51"/>
      </defs>
      <g transform="translate(519.644246 235.56133)scale(0.1 -0.1)">
       <use xlink:href="#DejaVuSans-8722"/>
       <use x="83.789062" xlink:href="#DejaVuSans-48"/>
       <use x="147.412109" xlink:href="#DejaVuSans-46"/>
       <use x="179.199219" xlink:href="#DejaVuSans-51"/>
      </g>
     </g>
    </g>
    <g id="ytick_12">
     <g id="line2d_25">
      <g>
       <use style="stroke:#000000;stroke-width:0.8;" x="550.927059" xlink:href="#m879c06dc74" y="203.126075"/>
      </g>
     </g>
     <g id="text_23">
      <!-- −0.2 -->
      <g transform="translate(519.644246 206.925294)scale(0.1 -0.1)">
       <use xlink:href="#DejaVuSans-8722"/>
       <use x="83.789062" xlink:href="#DejaVuSans-48"/>
       <use x="147.412109" xlink:href="#DejaVuSans-46"/>
       <use x="179.199219" xlink:href="#DejaVuSans-50"/>
      </g>
     </g>
    </g>
    <g id="ytick_13">
     <g id="line2d_26">
      <g>
       <use style="stroke:#000000;stroke-width:0.8;" x="550.927059" xlink:href="#m879c06dc74" y="174.490038"/>
      </g>
     </g>
     <g id="text_24">
      <!-- −0.1 -->
      <g transform="translate(519.644246 178.289257)scale(0.1 -0.1)">
       <use xlink:href="#DejaVuSans-8722"/>
       <use x="83.789062" xlink:href="#DejaVuSans-48"/>
       <use x="147.412109" xlink:href="#DejaVuSans-46"/>
       <use x="179.199219" xlink:href="#DejaVuSans-49"/>
      </g>
     </g>
    </g>
    <g id="ytick_14">
     <g id="line2d_27">
      <g>
       <use style="stroke:#000000;stroke-width:0.8;" x="550.927059" xlink:href="#m879c06dc74" y="145.854002"/>
      </g>
     </g>
     <g id="text_25">
      <!-- 0.0 -->
      <g transform="translate(528.023934 149.653221)scale(0.1 -0.1)">
       <use xlink:href="#DejaVuSans-48"/>
       <use x="63.623047" xlink:href="#DejaVuSans-46"/>
       <use x="95.410156" xlink:href="#DejaVuSans-48"/>
      </g>
     </g>
    </g>
    <g id="ytick_15">
     <g id="line2d_28">
      <g>
       <use style="stroke:#000000;stroke-width:0.8;" x="550.927059" xlink:href="#m879c06dc74" y="117.217966"/>
      </g>
     </g>
     <g id="text_26">
      <!-- 0.1 -->
      <g transform="translate(528.023934 121.017184)scale(0.1 -0.1)">
       <use xlink:href="#DejaVuSans-48"/>
       <use x="63.623047" xlink:href="#DejaVuSans-46"/>
       <use x="95.410156" xlink:href="#DejaVuSans-49"/>
      </g>
     </g>
    </g>
    <g id="ytick_16">
     <g id="line2d_29">
      <g>
       <use style="stroke:#000000;stroke-width:0.8;" x="550.927059" xlink:href="#m879c06dc74" y="88.581929"/>
      </g>
     </g>
     <g id="text_27">
      <!-- 0.2 -->
      <g transform="translate(528.023934 92.381148)scale(0.1 -0.1)">
       <use xlink:href="#DejaVuSans-48"/>
       <use x="63.623047" xlink:href="#DejaVuSans-46"/>
       <use x="95.410156" xlink:href="#DejaVuSans-50"/>
      </g>
     </g>
    </g>
   </g>
   <g id="line2d_30">
    <path clip-path="url(#p7b30492dec)" d="M 565.250053 145.853752 
L 567.708937 145.82957 
L 570.16782 145.535947 
L 572.626703 145.194255 
L 575.085586 145.189399 
L 578.773911 145.470314 
L 584.921119 145.450847 
L 587.380002 145.921514 
L 589.838885 146.392423 
L 595.986094 147.064889 
L 600.90386 148.296245 
L 607.051068 149.141293 
L 611.968834 150.438385 
L 616.886601 151.243191 
L 619.345484 152.072831 
L 621.804367 152.897607 
L 624.26325 153.436544 
L 626.722134 153.947347 
L 629.181017 154.746634 
L 631.6399 155.626353 
L 634.098783 156.186862 
L 637.787108 156.836307 
L 643.934316 158.552134 
L 647.622641 159.166748 
L 650.081524 159.919616 
L 652.540407 160.753097 
L 654.99929 161.312513 
L 657.458174 161.773472 
L 659.917057 162.513337 
L 662.37594 163.357023 
L 664.834823 163.889869 
L 668.523148 164.517205 
L 674.670356 166.177206 
L 677.129239 166.609203 
L 679.588122 167.315042 
L 684.505889 169.230375 
L 688.194214 170.495974 
L 690.653097 171.73349 
L 694.341422 173.651075 
L 698.029746 175.337669 
L 700.48863 176.751341 
L 705.406396 179.798251 
L 707.865279 181.266896 
L 710.324162 183.087503 
L 717.700812 189.410174 
L 720.159695 191.825912 
L 729.995228 202.462364 
L 739.830761 213.676826 
L 743.519086 218.046452 
L 748.436852 223.971236 
L 753.354618 229.890047 
L 759.501826 237.410351 
L 764.419593 242.751569 
L 768.107918 246.494861 
L 770.566801 248.716007 
L 773.025684 250.638992 
L 775.484567 252.277448 
L 779.172892 254.444375 
L 781.631775 255.682718 
L 784.090658 256.736547 
L 786.549542 257.54288 
L 789.008425 258.113063 
L 791.467308 258.518495 
L 793.926191 258.756049 
L 796.385074 258.813632 
L 798.843958 258.621209 
L 801.302841 258.105902 
L 803.761724 257.301905 
L 806.220607 256.223988 
L 808.67949 254.967177 
L 811.138374 253.452533 
L 813.597257 251.619643 
L 816.05614 249.451949 
L 818.515023 246.920114 
L 820.973906 244.09751 
L 823.43279 240.992374 
L 827.121115 235.884781 
L 830.809439 230.112717 
L 833.268323 226.002812 
L 836.956647 219.348827 
L 840.644972 212.170154 
L 844.333297 204.775984 
L 848.021622 196.838309 
L 851.709947 188.400582 
L 851.709947 188.400582 
" style="fill:none;stroke:#ff796c;stroke-linecap:square;stroke-width:1.5;"/>
   </g>
   <g id="line2d_31">
    <path clip-path="url(#p7b30492dec)" d="M 565.250053 321.386863 
L 572.626703 321.284849 
L 581.232794 320.792542 
L 587.380002 320.13369 
L 594.756652 319.207639 
L 602.133302 318.252648 
L 634.098783 314.2156 
L 656.228732 312.176915 
L 675.899798 309.737505 
L 679.588122 308.968048 
L 684.505889 307.7696 
L 688.194214 306.646399 
L 695.570863 304.02894 
L 699.259188 302.471155 
L 704.176954 300.199618 
L 707.865279 298.228679 
L 711.553604 295.933223 
L 715.241929 293.422087 
L 718.930254 290.543653 
L 723.84802 286.29005 
L 727.536345 282.854326 
L 731.22467 279.139419 
L 736.142436 273.918553 
L 739.830761 269.688604 
L 743.519086 265.151649 
L 747.20741 260.348382 
L 750.895735 255.222823 
L 755.813502 247.912925 
L 761.96071 238.302246 
L 770.566801 224.256365 
L 780.402334 207.787785 
L 789.008425 192.98232 
L 806.220607 163.070674 
L 811.138374 154.912596 
L 816.05614 147.142134 
L 820.973906 139.837592 
L 825.891673 133.0038 
L 830.809439 126.598165 
L 834.497764 122.083078 
L 839.415531 116.405 
L 844.333297 111.028796 
L 849.251063 105.989844 
L 851.709947 103.588489 
L 851.709947 103.588489 
" style="fill:none;stroke:#ffff14;stroke-linecap:square;stroke-width:1.5;"/>
   </g>
   <g id="line2d_32">
    <path clip-path="url(#p7b30492dec)" d="M 565.250053 321.385693 
L 615.657159 321.285368 
L 632.869342 321.020415 
L 645.163758 320.620807 
L 654.99929 320.097749 
L 663.605382 319.431727 
L 670.982031 318.659493 
L 678.358681 317.656015 
L 684.505889 316.608377 
L 690.653097 315.33562 
L 696.800305 313.804007 
L 701.718071 312.36799 
L 706.635838 310.723253 
L 711.553604 308.849206 
L 716.47137 306.724399 
L 721.389137 304.326822 
L 726.306903 301.633972 
L 731.22467 298.623104 
L 736.142436 295.271636 
L 739.830761 292.521148 
L 743.519086 289.557696 
L 747.20741 286.372772 
L 750.895735 282.958449 
L 754.58406 279.307572 
L 758.272385 275.413696 
L 761.96071 271.271172 
L 766.878476 265.353003 
L 771.796242 258.975854 
L 776.714009 252.134095 
L 781.631775 244.825458 
L 786.549542 237.05101 
L 791.467308 228.81521 
L 796.385074 220.125866 
L 801.302841 210.993817 
L 806.220607 201.432697 
L 811.138374 191.458631 
L 817.285582 178.438294 
L 823.43279 164.84109 
L 829.579998 150.71093 
L 836.956647 133.118389 
L 844.333297 114.91459 
L 851.709947 96.191018 
L 851.709947 96.191018 
" style="fill:none;stroke:#014d4e;stroke-linecap:square;stroke-width:1.5;"/>
   </g>
   <g id="patch_8">
    <path d="M 550.927059 332.6472 
L 550.927059 84.9312 
" style="fill:none;stroke:#000000;stroke-linecap:square;stroke-linejoin:miter;stroke-width:0.8;"/>
   </g>
   <g id="patch_9">
    <path d="M 866.032941 332.6472 
L 866.032941 84.9312 
" style="fill:none;stroke:#000000;stroke-linecap:square;stroke-linejoin:miter;stroke-width:0.8;"/>
   </g>
   <g id="patch_10">
    <path d="M 550.927059 332.6472 
L 866.032941 332.6472 
" style="fill:none;stroke:#000000;stroke-linecap:square;stroke-linejoin:miter;stroke-width:0.8;"/>
   </g>
   <g id="patch_11">
    <path d="M 550.927059 84.9312 
L 866.032941 84.9312 
" style="fill:none;stroke:#000000;stroke-linecap:square;stroke-linejoin:miter;stroke-width:0.8;"/>
   </g>
   <g id="text_28">
    <!-- Lateral joint 1 -->
    <g transform="translate(666.814687 78.9312)scale(0.12 -0.12)">
     <use xlink:href="#DejaVuSans-76"/>
     <use x="55.712891" xlink:href="#DejaVuSans-97"/>
     <use x="116.992188" xlink:href="#DejaVuSans-116"/>
     <use x="156.201172" xlink:href="#DejaVuSans-101"/>
     <use x="217.724609" xlink:href="#DejaVuSans-114"/>
     <use x="258.837891" xlink:href="#DejaVuSans-97"/>
     <use x="320.117188" xlink:href="#DejaVuSans-108"/>
     <use x="347.900391" xlink:href="#DejaVuSans-32"/>
     <use x="379.6875" xlink:href="#DejaVuSans-106"/>
     <use x="407.470703" xlink:href="#DejaVuSans-111"/>
     <use x="468.652344" xlink:href="#DejaVuSans-105"/>
     <use x="496.435547" xlink:href="#DejaVuSans-110"/>
     <use x="559.814453" xlink:href="#DejaVuSans-116"/>
     <use x="599.023438" xlink:href="#DejaVuSans-32"/>
     <use x="630.810547" xlink:href="#DejaVuSans-49"/>
    </g>
   </g>
  </g>
  <g id="axes_3">
   <g id="patch_12">
    <path d="M 929.054118 332.6472 
L 1244.16 332.6472 
L 1244.16 84.9312 
L 929.054118 84.9312 
z
" style="fill:#ffffff;"/>
   </g>
   <g id="matplotlib.axis_5">
    <g id="xtick_11">
     <g id="line2d_33">
      <g>
       <use style="stroke:#000000;stroke-width:0.8;" x="943.377112" xlink:href="#m14e5415d1a" y="332.6472"/>
      </g>
     </g>
     <g id="text_29">
      <!-- 0 -->
      <g transform="translate(940.195862 347.245637)scale(0.1 -0.1)">
       <use xlink:href="#DejaVuSans-48"/>
      </g>
     </g>
    </g>
    <g id="xtick_12">
     <g id="line2d_34">
      <g>
       <use style="stroke:#000000;stroke-width:0.8;" x="1004.849192" xlink:href="#m14e5415d1a" y="332.6472"/>
      </g>
     </g>
     <g id="text_30">
      <!-- 50 -->
      <g transform="translate(998.486692 347.245637)scale(0.1 -0.1)">
       <use xlink:href="#DejaVuSans-53"/>
       <use x="63.623047" xlink:href="#DejaVuSans-48"/>
      </g>
     </g>
    </g>
    <g id="xtick_13">
     <g id="line2d_35">
      <g>
       <use style="stroke:#000000;stroke-width:0.8;" x="1066.321272" xlink:href="#m14e5415d1a" y="332.6472"/>
      </g>
     </g>
     <g id="text_31">
      <!-- 100 -->
      <g transform="translate(1056.777522 347.245637)scale(0.1 -0.1)">
       <use xlink:href="#DejaVuSans-49"/>
       <use x="63.623047" xlink:href="#DejaVuSans-48"/>
       <use x="127.246094" xlink:href="#DejaVuSans-48"/>
      </g>
     </g>
    </g>
    <g id="xtick_14">
     <g id="line2d_36">
      <g>
       <use style="stroke:#000000;stroke-width:0.8;" x="1127.793352" xlink:href="#m14e5415d1a" y="332.6472"/>
      </g>
     </g>
     <g id="text_32">
      <!-- 150 -->
      <g transform="translate(1118.249602 347.245637)scale(0.1 -0.1)">
       <use xlink:href="#DejaVuSans-49"/>
       <use x="63.623047" xlink:href="#DejaVuSans-53"/>
       <use x="127.246094" xlink:href="#DejaVuSans-48"/>
      </g>
     </g>
    </g>
    <g id="xtick_15">
     <g id="line2d_37">
      <g>
       <use style="stroke:#000000;stroke-width:0.8;" x="1189.265433" xlink:href="#m14e5415d1a" y="332.6472"/>
      </g>
     </g>
     <g id="text_33">
      <!-- 200 -->
      <g transform="translate(1179.721683 347.245637)scale(0.1 -0.1)">
       <use xlink:href="#DejaVuSans-50"/>
       <use x="63.623047" xlink:href="#DejaVuSans-48"/>
       <use x="127.246094" xlink:href="#DejaVuSans-48"/>
      </g>
     </g>
    </g>
   </g>
   <g id="matplotlib.axis_6">
    <g id="ytick_17">
     <g id="line2d_38">
      <g>
       <use style="stroke:#000000;stroke-width:0.8;" x="929.054118" xlink:href="#m879c06dc74" y="301.239143"/>
      </g>
     </g>
     <g id="text_34">
      <!-- −1.0 -->
      <g transform="translate(897.771305 305.038361)scale(0.1 -0.1)">
       <use xlink:href="#DejaVuSans-8722"/>
       <use x="83.789062" xlink:href="#DejaVuSans-49"/>
       <use x="147.412109" xlink:href="#DejaVuSans-46"/>
       <use x="179.199219" xlink:href="#DejaVuSans-48"/>
      </g>
     </g>
    </g>
    <g id="ytick_18">
     <g id="line2d_39">
      <g>
       <use style="stroke:#000000;stroke-width:0.8;" x="929.054118" xlink:href="#m879c06dc74" y="260.600294"/>
      </g>
     </g>
     <g id="text_35">
      <!-- −0.8 -->
      <g transform="translate(897.771305 264.399513)scale(0.1 -0.1)">
       <use xlink:href="#DejaVuSans-8722"/>
       <use x="83.789062" xlink:href="#DejaVuSans-48"/>
       <use x="147.412109" xlink:href="#DejaVuSans-46"/>
       <use x="179.199219" xlink:href="#DejaVuSans-56"/>
      </g>
     </g>
    </g>
    <g id="ytick_19">
     <g id="line2d_40">
      <g>
       <use style="stroke:#000000;stroke-width:0.8;" x="929.054118" xlink:href="#m879c06dc74" y="219.961445"/>
      </g>
     </g>
     <g id="text_36">
      <!-- −0.6 -->
      <g transform="translate(897.771305 223.760664)scale(0.1 -0.1)">
       <use xlink:href="#DejaVuSans-8722"/>
       <use x="83.789062" xlink:href="#DejaVuSans-48"/>
       <use x="147.412109" xlink:href="#DejaVuSans-46"/>
       <use x="179.199219" xlink:href="#DejaVuSans-54"/>
      </g>
     </g>
    </g>
    <g id="ytick_20">
     <g id="line2d_41">
      <g>
       <use style="stroke:#000000;stroke-width:0.8;" x="929.054118" xlink:href="#m879c06dc74" y="179.322596"/>
      </g>
     </g>
     <g id="text_37">
      <!-- −0.4 -->
      <g transform="translate(897.771305 183.121815)scale(0.1 -0.1)">
       <use xlink:href="#DejaVuSans-8722"/>
       <use x="83.789062" xlink:href="#DejaVuSans-48"/>
       <use x="147.412109" xlink:href="#DejaVuSans-46"/>
       <use x="179.199219" xlink:href="#DejaVuSans-52"/>
      </g>
     </g>
    </g>
    <g id="ytick_21">
     <g id="line2d_42">
      <g>
       <use style="stroke:#000000;stroke-width:0.8;" x="929.054118" xlink:href="#m879c06dc74" y="138.683748"/>
      </g>
     </g>
     <g id="text_38">
      <!-- −0.2 -->
      <g transform="translate(897.771305 142.482966)scale(0.1 -0.1)">
       <use xlink:href="#DejaVuSans-8722"/>
       <use x="83.789062" xlink:href="#DejaVuSans-48"/>
       <use x="147.412109" xlink:href="#DejaVuSans-46"/>
       <use x="179.199219" xlink:href="#DejaVuSans-50"/>
      </g>
     </g>
    </g>
    <g id="ytick_22">
     <g id="line2d_43">
      <g>
       <use style="stroke:#000000;stroke-width:0.8;" x="929.054118" xlink:href="#m879c06dc74" y="98.044899"/>
      </g>
     </g>
     <g id="text_39">
      <!-- 0.0 -->
      <g transform="translate(906.150993 101.844118)scale(0.1 -0.1)">
       <use xlink:href="#DejaVuSans-48"/>
       <use x="63.623047" xlink:href="#DejaVuSans-46"/>
       <use x="95.410156" xlink:href="#DejaVuSans-48"/>
      </g>
     </g>
    </g>
   </g>
   <g id="line2d_44">
    <path clip-path="url(#p96c052f04e)" d="M 943.377112 97.932262 
L 944.606554 98.21825 
L 945.835996 99.080939 
L 948.294879 101.805625 
L 949.52432 102.529388 
L 950.753762 102.074811 
L 951.983204 100.880125 
L 953.212645 100.055375 
L 954.442087 100.490421 
L 955.671528 102.031516 
L 956.90097 103.791814 
L 958.130412 104.757758 
L 959.359853 104.535134 
L 963.048178 101.449565 
L 965.507061 100.203621 
L 966.736503 99.814444 
L 967.965944 99.864604 
L 969.195386 100.289423 
L 970.424828 100.523892 
L 971.654269 99.956196 
L 974.113152 96.901458 
L 975.342594 96.191018 
L 976.572036 97.010306 
L 979.030919 100.95216 
L 980.26036 102.162695 
L 981.489802 102.547598 
L 982.719244 102.719049 
L 983.948685 103.274222 
L 985.178127 104.317839 
L 987.63701 106.873751 
L 988.866452 108.342853 
L 991.325335 112.083224 
L 992.554776 113.424942 
L 993.784218 113.618219 
L 996.243101 111.960075 
L 997.472543 112.135339 
L 998.701984 113.72413 
L 999.931426 115.926035 
L 1001.160868 117.479238 
L 1002.390309 117.74122 
L 1003.619751 117.171623 
L 1004.849192 116.823222 
L 1006.078634 117.395528 
L 1007.308076 118.763615 
L 1010.9964 123.702465 
L 1014.684725 129.98639 
L 1015.914167 130.867708 
L 1017.143608 131.23379 
L 1018.37305 132.148707 
L 1019.602492 134.362199 
L 1020.831933 137.513623 
L 1022.061375 140.305374 
L 1023.290816 141.563838 
L 1024.520258 141.227681 
L 1025.7497 140.347885 
L 1026.979141 140.124151 
L 1028.208583 140.906963 
L 1029.438024 142.082123 
L 1030.667466 142.838039 
L 1031.896908 142.963305 
L 1033.126349 142.881615 
L 1035.585232 143.190573 
L 1036.814674 143.004713 
L 1038.044116 142.405925 
L 1039.273557 142.104324 
L 1040.502999 143.012088 
L 1041.73244 145.276991 
L 1042.961882 147.92402 
L 1044.191324 149.603542 
L 1045.420765 149.79711 
L 1046.650207 149.337781 
L 1047.879648 149.696525 
L 1049.10909 151.678888 
L 1051.567973 157.603124 
L 1052.797415 159.323308 
L 1054.026856 160.070103 
L 1055.256298 160.643912 
L 1056.48574 161.556907 
L 1057.715181 162.61539 
L 1058.944623 163.391504 
L 1060.174064 163.945634 
L 1061.403506 164.890111 
L 1062.632948 166.657426 
L 1063.862389 168.796638 
L 1065.091831 170.197143 
L 1066.321272 170.168148 
L 1067.550714 169.311039 
L 1068.780156 169.198499 
L 1070.009597 171.036657 
L 1072.46848 178.203853 
L 1073.697922 180.627175 
L 1076.156805 182.759295 
L 1077.386247 184.778915 
L 1078.615688 187.937661 
L 1081.074572 194.687771 
L 1082.304013 197.763311 
L 1083.533455 201.227043 
L 1084.762896 205.075916 
L 1085.992338 208.472034 
L 1087.22178 210.554347 
L 1088.451221 211.544356 
L 1089.680663 212.81528 
L 1090.910104 215.633477 
L 1093.368988 223.938249 
L 1094.598429 226.230379 
L 1095.827871 226.644846 
L 1097.057312 226.558633 
L 1098.286754 227.589694 
L 1101.975079 234.248922 
L 1103.20452 235.752167 
L 1104.433962 237.613666 
L 1106.892845 242.604861 
L 1108.122287 244.007699 
L 1109.351728 244.425289 
L 1110.58117 245.210245 
L 1111.810612 247.703016 
L 1114.269495 255.776272 
L 1115.498936 258.262383 
L 1117.95782 260.327816 
L 1119.187261 262.387497 
L 1120.416703 265.095437 
L 1121.646144 267.226787 
L 1124.105028 269.441953 
L 1125.334469 271.601289 
L 1126.563911 274.593152 
L 1127.793352 276.854034 
L 1129.022794 277.29228 
L 1130.252236 276.510279 
L 1131.481677 276.436634 
L 1132.711119 277.987697 
L 1133.94056 280.190433 
L 1135.170002 281.419201 
L 1136.399444 281.407919 
L 1137.628885 281.550251 
L 1138.858327 283.088973 
L 1140.087768 285.446542 
L 1141.31721 286.895858 
L 1142.546652 286.793362 
L 1143.776093 286.525532 
L 1145.005535 287.879486 
L 1147.464418 293.485852 
L 1148.69386 294.571523 
L 1149.923301 294.936364 
L 1151.152743 296.491398 
L 1153.611626 302.644148 
L 1154.841068 303.870775 
L 1156.070509 304.102035 
L 1157.299951 305.502369 
L 1159.758834 311.680743 
L 1160.988276 312.850838 
L 1162.217717 312.677033 
L 1163.447159 313.389347 
L 1165.906042 318.220055 
L 1167.135484 318.63196 
L 1168.364925 317.665746 
L 1169.594367 317.714644 
L 1172.05325 321.387382 
L 1173.282692 320.663504 
L 1174.512133 318.642453 
L 1175.741575 317.938949 
L 1176.971017 319.067414 
L 1178.200458 319.481209 
L 1179.4299 317.511053 
L 1180.659341 314.68756 
L 1181.888783 313.733144 
L 1183.118225 314.61161 
L 1184.347666 314.527579 
L 1185.577108 311.98129 
L 1186.806549 308.742267 
L 1188.035991 307.89794 
L 1189.265433 308.797319 
L 1190.494874 307.868832 
L 1192.953757 300.550813 
L 1194.183199 300.025632 
L 1195.412641 300.526036 
L 1196.642082 298.459139 
L 1197.871524 294.232432 
L 1199.100965 291.704722 
L 1200.330407 292.056856 
L 1201.559849 291.727552 
L 1202.78929 287.907242 
L 1204.018732 282.968562 
L 1205.248173 280.708671 
L 1206.477615 280.309073 
L 1207.707057 277.425003 
L 1208.936498 271.375879 
L 1210.16594 266.256931 
L 1211.395381 264.771057 
L 1212.624823 263.49255 
L 1213.854265 258.517253 
L 1215.083706 252.192322 
L 1216.313148 248.905102 
L 1217.542589 247.666107 
L 1218.772031 243.418446 
L 1220.001473 235.237449 
L 1221.230914 228.796824 
L 1222.460356 226.404811 
L 1223.689797 223.000531 
L 1226.148681 206.729804 
L 1227.378122 203.026253 
L 1228.607564 200.241021 
L 1229.837005 193.038992 
L 1229.837005 193.038992 
" style="fill:none;stroke:#ff796c;stroke-linecap:square;stroke-width:1.5;"/>
   </g>
   <g id="line2d_45">
    <path clip-path="url(#p96c052f04e)" d="M 943.377112 300.374278 
L 1029.438024 300.266231 
L 1045.420765 299.934563 
L 1055.256298 299.756973 
L 1062.632948 299.435207 
L 1087.22178 297.957704 
L 1093.368988 297.331827 
L 1100.745637 296.34925 
L 1110.58117 294.759141 
L 1117.95782 293.356521 
L 1124.105028 291.961356 
L 1130.252236 290.2737 
L 1135.170002 288.73172 
L 1142.546652 286.165758 
L 1148.69386 283.851087 
L 1154.841068 281.34896 
L 1159.758834 279.183035 
L 1164.6766 276.822236 
L 1170.823808 273.591185 
L 1175.741575 270.76236 
L 1181.888783 266.938535 
L 1189.265433 262.061796 
L 1197.871524 256.080644 
L 1204.018732 251.589474 
L 1211.395381 245.888142 
L 1220.001473 238.883466 
L 1227.378122 232.575392 
L 1229.837005 230.406335 
L 1229.837005 230.406335 
" style="fill:none;stroke:#ffff14;stroke-linecap:square;stroke-width:1.5;"/>
   </g>
   <g id="line2d_46">
    <path clip-path="url(#p96c052f04e)" d="M 943.377112 300.374188 
L 1013.455284 300.266409 
L 1035.585232 300.013252 
L 1051.567973 299.620835 
L 1063.862389 299.119193 
L 1074.927364 298.455625 
L 1084.762896 297.643561 
L 1093.368988 296.71833 
L 1101.975079 295.551286 
L 1109.351728 294.325927 
L 1116.728378 292.862925 
L 1122.875586 291.441714 
L 1129.022794 289.82004 
L 1135.170002 287.983537 
L 1141.31721 285.919674 
L 1147.464418 283.618168 
L 1153.611626 281.07136 
L 1159.758834 278.274556 
L 1165.906042 275.226321 
L 1172.05325 271.92857 
L 1178.200458 268.386533 
L 1184.347666 264.608443 
L 1191.724316 259.778601 
L 1199.100965 254.647532 
L 1206.477615 249.242047 
L 1215.083706 242.628955 
L 1223.689797 235.734583 
L 1229.837005 230.667324 
L 1229.837005 230.667324 
" style="fill:none;stroke:#014d4e;stroke-linecap:square;stroke-width:1.5;"/>
   </g>
   <g id="patch_13">
    <path d="M 929.054118 332.6472 
L 929.054118 84.9312 
" style="fill:none;stroke:#000000;stroke-linecap:square;stroke-linejoin:miter;stroke-width:0.8;"/>
   </g>
   <g id="patch_14">
    <path d="M 1244.16 332.6472 
L 1244.16 84.9312 
" style="fill:none;stroke:#000000;stroke-linecap:square;stroke-linejoin:miter;stroke-width:0.8;"/>
   </g>
   <g id="patch_15">
    <path d="M 929.054118 332.6472 
L 1244.16 332.6472 
" style="fill:none;stroke:#000000;stroke-linecap:square;stroke-linejoin:miter;stroke-width:0.8;"/>
   </g>
   <g id="patch_16">
    <path d="M 929.054118 84.9312 
L 1244.16 84.9312 
" style="fill:none;stroke:#000000;stroke-linecap:square;stroke-linejoin:miter;stroke-width:0.8;"/>
   </g>
   <g id="text_40">
    <!-- Lateral joint 2 -->
    <g transform="translate(1044.941746 78.9312)scale(0.12 -0.12)">
     <use xlink:href="#DejaVuSans-76"/>
     <use x="55.712891" xlink:href="#DejaVuSans-97"/>
     <use x="116.992188" xlink:href="#DejaVuSans-116"/>
     <use x="156.201172" xlink:href="#DejaVuSans-101"/>
     <use x="217.724609" xlink:href="#DejaVuSans-114"/>
     <use x="258.837891" xlink:href="#DejaVuSans-97"/>
     <use x="320.117188" xlink:href="#DejaVuSans-108"/>
     <use x="347.900391" xlink:href="#DejaVuSans-32"/>
     <use x="379.6875" xlink:href="#DejaVuSans-106"/>
     <use x="407.470703" xlink:href="#DejaVuSans-111"/>
     <use x="468.652344" xlink:href="#DejaVuSans-105"/>
     <use x="496.435547" xlink:href="#DejaVuSans-110"/>
     <use x="559.814453" xlink:href="#DejaVuSans-116"/>
     <use x="599.023438" xlink:href="#DejaVuSans-32"/>
     <use x="630.810547" xlink:href="#DejaVuSans-50"/>
    </g>
   </g>
  </g>
  <g id="axes_4">
   <g id="patch_17">
    <path d="M 172.8 629.9064 
L 487.905882 629.9064 
L 487.905882 382.1904 
L 172.8 382.1904 
z
" style="fill:#ffffff;"/>
   </g>
   <g id="matplotlib.axis_7">
    <g id="xtick_16">
     <g id="line2d_47">
      <g>
       <use style="stroke:#000000;stroke-width:0.8;" x="187.122995" xlink:href="#m14e5415d1a" y="629.9064"/>
      </g>
     </g>
     <g id="text_41">
      <!-- 0 -->
      <g transform="translate(183.941745 644.504838)scale(0.1 -0.1)">
       <use xlink:href="#DejaVuSans-48"/>
      </g>
     </g>
    </g>
    <g id="xtick_17">
     <g id="line2d_48">
      <g>
       <use style="stroke:#000000;stroke-width:0.8;" x="248.595075" xlink:href="#m14e5415d1a" y="629.9064"/>
      </g>
     </g>
     <g id="text_42">
      <!-- 50 -->
      <g transform="translate(242.232575 644.504838)scale(0.1 -0.1)">
       <use xlink:href="#DejaVuSans-53"/>
       <use x="63.623047" xlink:href="#DejaVuSans-48"/>
      </g>
     </g>
    </g>
    <g id="xtick_18">
     <g id="line2d_49">
      <g>
       <use style="stroke:#000000;stroke-width:0.8;" x="310.067155" xlink:href="#m14e5415d1a" y="629.9064"/>
      </g>
     </g>
     <g id="text_43">
      <!-- 100 -->
      <g transform="translate(300.523405 644.504838)scale(0.1 -0.1)">
       <use xlink:href="#DejaVuSans-49"/>
       <use x="63.623047" xlink:href="#DejaVuSans-48"/>
       <use x="127.246094" xlink:href="#DejaVuSans-48"/>
      </g>
     </g>
    </g>
    <g id="xtick_19">
     <g id="line2d_50">
      <g>
       <use style="stroke:#000000;stroke-width:0.8;" x="371.539235" xlink:href="#m14e5415d1a" y="629.9064"/>
      </g>
     </g>
     <g id="text_44">
      <!-- 150 -->
      <g transform="translate(361.995485 644.504838)scale(0.1 -0.1)">
       <use xlink:href="#DejaVuSans-49"/>
       <use x="63.623047" xlink:href="#DejaVuSans-53"/>
       <use x="127.246094" xlink:href="#DejaVuSans-48"/>
      </g>
     </g>
    </g>
    <g id="xtick_20">
     <g id="line2d_51">
      <g>
       <use style="stroke:#000000;stroke-width:0.8;" x="433.011315" xlink:href="#m14e5415d1a" y="629.9064"/>
      </g>
     </g>
     <g id="text_45">
      <!-- 200 -->
      <g transform="translate(423.467565 644.504838)scale(0.1 -0.1)">
       <use xlink:href="#DejaVuSans-50"/>
       <use x="63.623047" xlink:href="#DejaVuSans-48"/>
       <use x="127.246094" xlink:href="#DejaVuSans-48"/>
      </g>
     </g>
    </g>
   </g>
   <g id="matplotlib.axis_8">
    <g id="ytick_23">
     <g id="line2d_52">
      <g>
       <use style="stroke:#000000;stroke-width:0.8;" x="172.8" xlink:href="#m879c06dc74" y="618.258049"/>
      </g>
     </g>
     <g id="text_46">
      <!-- −1.4 -->
      <g transform="translate(141.517187 622.057267)scale(0.1 -0.1)">
       <use xlink:href="#DejaVuSans-8722"/>
       <use x="83.789062" xlink:href="#DejaVuSans-49"/>
       <use x="147.412109" xlink:href="#DejaVuSans-46"/>
       <use x="179.199219" xlink:href="#DejaVuSans-52"/>
      </g>
     </g>
    </g>
    <g id="ytick_24">
     <g id="line2d_53">
      <g>
       <use style="stroke:#000000;stroke-width:0.8;" x="172.8" xlink:href="#m879c06dc74" y="587.782764"/>
      </g>
     </g>
     <g id="text_47">
      <!-- −1.2 -->
      <g transform="translate(141.517187 591.581983)scale(0.1 -0.1)">
       <use xlink:href="#DejaVuSans-8722"/>
       <use x="83.789062" xlink:href="#DejaVuSans-49"/>
       <use x="147.412109" xlink:href="#DejaVuSans-46"/>
       <use x="179.199219" xlink:href="#DejaVuSans-50"/>
      </g>
     </g>
    </g>
    <g id="ytick_25">
     <g id="line2d_54">
      <g>
       <use style="stroke:#000000;stroke-width:0.8;" x="172.8" xlink:href="#m879c06dc74" y="557.30748"/>
      </g>
     </g>
     <g id="text_48">
      <!-- −1.0 -->
      <g transform="translate(141.517187 561.106699)scale(0.1 -0.1)">
       <use xlink:href="#DejaVuSans-8722"/>
       <use x="83.789062" xlink:href="#DejaVuSans-49"/>
       <use x="147.412109" xlink:href="#DejaVuSans-46"/>
       <use x="179.199219" xlink:href="#DejaVuSans-48"/>
      </g>
     </g>
    </g>
    <g id="ytick_26">
     <g id="line2d_55">
      <g>
       <use style="stroke:#000000;stroke-width:0.8;" x="172.8" xlink:href="#m879c06dc74" y="526.832195"/>
      </g>
     </g>
     <g id="text_49">
      <!-- −0.8 -->
      <g transform="translate(141.517187 530.631414)scale(0.1 -0.1)">
       <use xlink:href="#DejaVuSans-8722"/>
       <use x="83.789062" xlink:href="#DejaVuSans-48"/>
       <use x="147.412109" xlink:href="#DejaVuSans-46"/>
       <use x="179.199219" xlink:href="#DejaVuSans-56"/>
      </g>
     </g>
    </g>
    <g id="ytick_27">
     <g id="line2d_56">
      <g>
       <use style="stroke:#000000;stroke-width:0.8;" x="172.8" xlink:href="#m879c06dc74" y="496.356911"/>
      </g>
     </g>
     <g id="text_50">
      <!-- −0.6 -->
      <g transform="translate(141.517187 500.15613)scale(0.1 -0.1)">
       <use xlink:href="#DejaVuSans-8722"/>
       <use x="83.789062" xlink:href="#DejaVuSans-48"/>
       <use x="147.412109" xlink:href="#DejaVuSans-46"/>
       <use x="179.199219" xlink:href="#DejaVuSans-54"/>
      </g>
     </g>
    </g>
    <g id="ytick_28">
     <g id="line2d_57">
      <g>
       <use style="stroke:#000000;stroke-width:0.8;" x="172.8" xlink:href="#m879c06dc74" y="465.881626"/>
      </g>
     </g>
     <g id="text_51">
      <!-- −0.4 -->
      <g transform="translate(141.517187 469.680845)scale(0.1 -0.1)">
       <use xlink:href="#DejaVuSans-8722"/>
       <use x="83.789062" xlink:href="#DejaVuSans-48"/>
       <use x="147.412109" xlink:href="#DejaVuSans-46"/>
       <use x="179.199219" xlink:href="#DejaVuSans-52"/>
      </g>
     </g>
    </g>
    <g id="ytick_29">
     <g id="line2d_58">
      <g>
       <use style="stroke:#000000;stroke-width:0.8;" x="172.8" xlink:href="#m879c06dc74" y="435.406342"/>
      </g>
     </g>
     <g id="text_52">
      <!-- −0.2 -->
      <g transform="translate(141.517187 439.205561)scale(0.1 -0.1)">
       <use xlink:href="#DejaVuSans-8722"/>
       <use x="83.789062" xlink:href="#DejaVuSans-48"/>
       <use x="147.412109" xlink:href="#DejaVuSans-46"/>
       <use x="179.199219" xlink:href="#DejaVuSans-50"/>
      </g>
     </g>
    </g>
    <g id="ytick_30">
     <g id="line2d_59">
      <g>
       <use style="stroke:#000000;stroke-width:0.8;" x="172.8" xlink:href="#m879c06dc74" y="404.931057"/>
      </g>
     </g>
     <g id="text_53">
      <!-- 0.0 -->
      <g transform="translate(149.896875 408.730276)scale(0.1 -0.1)">
       <use xlink:href="#DejaVuSans-48"/>
       <use x="63.623047" xlink:href="#DejaVuSans-46"/>
       <use x="95.410156" xlink:href="#DejaVuSans-48"/>
      </g>
     </g>
    </g>
   </g>
   <g id="line2d_60">
    <path clip-path="url(#p96b191f7ae)" d="M 187.122995 404.674694 
L 188.352436 405.659533 
L 189.581878 407.643281 
L 190.811319 409.868998 
L 192.040761 411.530774 
L 193.270203 411.933614 
L 194.499644 411.018283 
L 195.729086 409.50007 
L 196.958527 408.4871 
L 198.187969 408.810873 
L 199.417411 410.430335 
L 200.646852 412.537846 
L 201.876294 414.013723 
L 203.105735 414.062532 
L 204.335177 412.579597 
L 208.023502 405.078593 
L 209.252943 403.701767 
L 210.482385 403.262587 
L 212.941268 403.477963 
L 214.17071 402.720127 
L 215.400151 400.746095 
L 217.859035 395.069669 
L 219.088476 393.450218 
L 220.317918 393.621832 
L 221.547359 395.314189 
L 222.776801 397.543062 
L 224.006243 399.249237 
L 225.235684 399.884688 
L 226.465126 399.599876 
L 227.694567 399.009432 
L 228.924009 398.793965 
L 230.153451 399.418633 
L 231.382892 401.015362 
L 233.841775 405.834174 
L 235.071217 407.666131 
L 236.300659 408.156915 
L 237.5301 407.163658 
L 239.988983 403.660374 
L 241.218425 403.239966 
L 242.447867 404.320715 
L 243.677308 406.204782 
L 244.90675 407.720853 
L 246.136192 408.018048 
L 247.365633 407.083902 
L 248.595075 405.658953 
L 249.824516 404.707835 
L 251.053958 404.892848 
L 252.2834 406.365922 
L 253.512841 408.856077 
L 255.971724 414.674511 
L 257.201166 416.753306 
L 258.430608 417.780549 
L 260.889491 418.41606 
L 262.118932 419.796985 
L 263.348374 422.571168 
L 264.577816 426.135515 
L 265.807257 429.218307 
L 267.036699 430.691687 
L 268.26614 430.316473 
L 270.725024 427.4314 
L 271.954465 426.926751 
L 273.183907 427.410348 
L 274.413348 428.367957 
L 275.64279 429.128745 
L 276.872232 429.217866 
L 278.101673 428.466481 
L 279.331115 427.004553 
L 280.560556 425.277102 
L 281.789998 424.017792 
L 283.01944 423.998494 
L 284.248881 425.559362 
L 286.707764 430.93875 
L 287.937206 432.577666 
L 289.166648 432.893795 
L 290.396089 432.655534 
L 291.625531 433.120539 
L 292.854972 435.123387 
L 294.084414 438.503094 
L 295.313856 442.279079 
L 296.543297 445.361154 
L 297.772739 447.19656 
L 299.00218 447.922117 
L 301.461064 448.231016 
L 302.690505 448.829086 
L 303.919947 450.131307 
L 305.149388 452.130409 
L 306.37883 454.413525 
L 307.608272 456.22377 
L 308.837713 456.888928 
L 310.067155 456.399761 
L 311.296596 455.63123 
L 312.526038 455.881657 
L 313.75548 457.960103 
L 314.984921 461.635225 
L 316.214363 465.789553 
L 317.443804 469.267344 
L 318.673246 471.686021 
L 319.902688 473.579738 
L 321.132129 475.856673 
L 322.361571 479.119894 
L 323.591012 483.402544 
L 328.508779 503.312943 
L 329.73822 506.843032 
L 330.967662 509.293419 
L 332.197104 511.264966 
L 333.426545 513.735981 
L 334.655987 517.317379 
L 337.11487 525.782159 
L 338.344312 528.447432 
L 339.573753 529.502684 
L 340.803195 529.680083 
L 342.032636 530.158148 
L 343.262078 531.407997 
L 344.49152 533.318305 
L 349.409286 542.502204 
L 350.638728 544.183456 
L 351.868169 545.196034 
L 353.097611 545.961405 
L 354.327052 547.375986 
L 355.556494 550.117482 
L 358.015377 557.972284 
L 359.244819 561.079447 
L 360.47426 563.074407 
L 362.933144 565.979004 
L 367.85091 572.557929 
L 370.309793 576.820122 
L 371.539235 578.120823 
L 372.768676 578.113836 
L 373.998118 577.122449 
L 375.22756 576.29588 
L 376.457001 576.257235 
L 378.915884 577.312596 
L 380.145326 577.575821 
L 381.374768 577.979302 
L 383.833651 579.797745 
L 385.063092 580.192623 
L 387.521976 579.595401 
L 388.751417 580.321955 
L 389.980859 582.156193 
L 391.2103 584.341417 
L 393.669184 588.009873 
L 394.898625 590.32998 
L 397.357508 595.910013 
L 398.58695 597.679301 
L 399.816392 598.956615 
L 401.045833 600.785611 
L 403.504716 606.268991 
L 404.734158 608.437725 
L 405.9636 610.079214 
L 407.193041 612.029777 
L 408.422483 614.505324 
L 409.651924 616.63907 
L 410.881366 617.536074 
L 412.110808 617.462745 
L 413.340249 617.514055 
L 414.569691 618.155734 
L 415.799132 618.646582 
L 417.028574 618.05294 
L 418.258016 616.911003 
L 419.487457 616.370999 
L 420.716899 616.601494 
L 421.94634 616.391703 
L 423.175782 614.990824 
L 424.405224 613.016059 
L 425.634665 611.64702 
L 426.864107 610.915887 
L 428.093548 609.693439 
L 430.552432 604.996843 
L 431.781873 603.726508 
L 433.011315 603.400692 
L 434.240756 602.461684 
L 436.69964 598.54565 
L 437.929081 597.980894 
L 439.158523 597.794061 
L 440.387964 596.380177 
L 441.617406 593.916687 
L 442.846848 592.125233 
L 444.076289 591.582359 
L 445.305731 590.788879 
L 446.535172 588.558844 
L 447.764614 585.944228 
L 448.994056 584.589483 
L 450.223497 584.084749 
L 451.452939 582.476214 
L 453.911822 576.437547 
L 455.141264 574.81496 
L 456.370705 572.974412 
L 457.600147 569.223314 
L 458.829588 564.706197 
L 460.05903 561.449858 
L 461.288472 559.116278 
L 462.517913 555.522912 
L 463.747355 550.136357 
L 464.976796 545.416304 
L 466.206238 542.309069 
L 467.43568 538.510068 
L 469.894563 525.831438 
L 472.353446 516.325124 
L 473.582888 509.509295 
L 473.582888 509.509295 
" style="fill:none;stroke:#ff796c;stroke-linecap:square;stroke-width:1.5;"/>
   </g>
   <g id="line2d_61">
    <path clip-path="url(#p96b191f7ae)" d="M 187.122995 556.655302 
L 194.499644 556.575094 
L 201.876294 556.452679 
L 211.711827 556.522778 
L 217.859035 556.578618 
L 226.465126 556.425821 
L 233.841775 556.186425 
L 242.447867 556.165714 
L 249.824516 556.225027 
L 257.201166 556.056322 
L 265.807257 555.75283 
L 273.183907 555.763872 
L 281.789998 555.90618 
L 289.166648 555.789282 
L 297.772739 555.551747 
L 303.919947 555.549313 
L 314.984921 555.697225 
L 321.132129 555.568909 
L 334.655987 555.154632 
L 355.556494 555.035573 
L 375.22756 554.419114 
L 387.521976 554.283612 
L 396.128067 553.824688 
L 412.110808 552.759668 
L 418.258016 552.546302 
L 439.158523 552.217307 
L 451.452939 551.711044 
L 467.43568 551.496415 
L 473.582888 551.538242 
L 473.582888 551.538242 
" style="fill:none;stroke:#ffff14;stroke-linecap:square;stroke-width:1.5;"/>
   </g>
   <g id="line2d_62">
    <path clip-path="url(#p96b191f7ae)" d="M 187.122995 556.654648 
L 362.933144 556.552903 
L 383.833651 556.262089 
L 402.275275 555.781958 
L 419.487457 555.09924 
L 435.470198 554.24885 
L 452.68238 553.11611 
L 472.353446 551.597586 
L 473.582888 551.496464 
L 473.582888 551.496464 
" style="fill:none;stroke:#014d4e;stroke-linecap:square;stroke-width:1.5;"/>
   </g>
   <g id="patch_18">
    <path d="M 172.8 629.9064 
L 172.8 382.1904 
" style="fill:none;stroke:#000000;stroke-linecap:square;stroke-linejoin:miter;stroke-width:0.8;"/>
   </g>
   <g id="patch_19">
    <path d="M 487.905882 629.9064 
L 487.905882 382.1904 
" style="fill:none;stroke:#000000;stroke-linecap:square;stroke-linejoin:miter;stroke-width:0.8;"/>
   </g>
   <g id="patch_20">
    <path d="M 172.8 629.9064 
L 487.905882 629.9064 
" style="fill:none;stroke:#000000;stroke-linecap:square;stroke-linejoin:miter;stroke-width:0.8;"/>
   </g>
   <g id="patch_21">
    <path d="M 172.8 382.1904 
L 487.905882 382.1904 
" style="fill:none;stroke:#000000;stroke-linecap:square;stroke-linejoin:miter;stroke-width:0.8;"/>
   </g>
   <g id="text_54">
    <!-- Lateral joint 3 -->
    <g transform="translate(288.687629 376.1904)scale(0.12 -0.12)">
     <use xlink:href="#DejaVuSans-76"/>
     <use x="55.712891" xlink:href="#DejaVuSans-97"/>
     <use x="116.992188" xlink:href="#DejaVuSans-116"/>
     <use x="156.201172" xlink:href="#DejaVuSans-101"/>
     <use x="217.724609" xlink:href="#DejaVuSans-114"/>
     <use x="258.837891" xlink:href="#DejaVuSans-97"/>
     <use x="320.117188" xlink:href="#DejaVuSans-108"/>
     <use x="347.900391" xlink:href="#DejaVuSans-32"/>
     <use x="379.6875" xlink:href="#DejaVuSans-106"/>
     <use x="407.470703" xlink:href="#DejaVuSans-111"/>
     <use x="468.652344" xlink:href="#DejaVuSans-105"/>
     <use x="496.435547" xlink:href="#DejaVuSans-110"/>
     <use x="559.814453" xlink:href="#DejaVuSans-116"/>
     <use x="599.023438" xlink:href="#DejaVuSans-32"/>
     <use x="630.810547" xlink:href="#DejaVuSans-51"/>
    </g>
   </g>
  </g>
  <g id="axes_5">
   <g id="patch_22">
    <path d="M 550.927059 629.9064 
L 866.032941 629.9064 
L 866.032941 382.1904 
L 550.927059 382.1904 
z
" style="fill:#ffffff;"/>
   </g>
   <g id="matplotlib.axis_9">
    <g id="xtick_21">
     <g id="line2d_63">
      <g>
       <use style="stroke:#000000;stroke-width:0.8;" x="565.250053" xlink:href="#m14e5415d1a" y="629.9064"/>
      </g>
     </g>
     <g id="text_55">
      <!-- 0 -->
      <g transform="translate(562.068803 644.504838)scale(0.1 -0.1)">
       <use xlink:href="#DejaVuSans-48"/>
      </g>
     </g>
    </g>
    <g id="xtick_22">
     <g id="line2d_64">
      <g>
       <use style="stroke:#000000;stroke-width:0.8;" x="626.722134" xlink:href="#m14e5415d1a" y="629.9064"/>
      </g>
     </g>
     <g id="text_56">
      <!-- 50 -->
      <g transform="translate(620.359634 644.504838)scale(0.1 -0.1)">
       <use xlink:href="#DejaVuSans-53"/>
       <use x="63.623047" xlink:href="#DejaVuSans-48"/>
      </g>
     </g>
    </g>
    <g id="xtick_23">
     <g id="line2d_65">
      <g>
       <use style="stroke:#000000;stroke-width:0.8;" x="688.194214" xlink:href="#m14e5415d1a" y="629.9064"/>
      </g>
     </g>
     <g id="text_57">
      <!-- 100 -->
      <g transform="translate(678.650464 644.504838)scale(0.1 -0.1)">
       <use xlink:href="#DejaVuSans-49"/>
       <use x="63.623047" xlink:href="#DejaVuSans-48"/>
       <use x="127.246094" xlink:href="#DejaVuSans-48"/>
      </g>
     </g>
    </g>
    <g id="xtick_24">
     <g id="line2d_66">
      <g>
       <use style="stroke:#000000;stroke-width:0.8;" x="749.666294" xlink:href="#m14e5415d1a" y="629.9064"/>
      </g>
     </g>
     <g id="text_58">
      <!-- 150 -->
      <g transform="translate(740.122544 644.504838)scale(0.1 -0.1)">
       <use xlink:href="#DejaVuSans-49"/>
       <use x="63.623047" xlink:href="#DejaVuSans-53"/>
       <use x="127.246094" xlink:href="#DejaVuSans-48"/>
      </g>
     </g>
    </g>
    <g id="xtick_25">
     <g id="line2d_67">
      <g>
       <use style="stroke:#000000;stroke-width:0.8;" x="811.138374" xlink:href="#m14e5415d1a" y="629.9064"/>
      </g>
     </g>
     <g id="text_59">
      <!-- 200 -->
      <g transform="translate(801.594624 644.504838)scale(0.1 -0.1)">
       <use xlink:href="#DejaVuSans-50"/>
       <use x="63.623047" xlink:href="#DejaVuSans-48"/>
       <use x="127.246094" xlink:href="#DejaVuSans-48"/>
      </g>
     </g>
    </g>
   </g>
   <g id="matplotlib.axis_10">
    <g id="ytick_31">
     <g id="line2d_68">
      <g>
       <use style="stroke:#000000;stroke-width:0.8;" x="550.927059" xlink:href="#m879c06dc74" y="601.214456"/>
      </g>
     </g>
     <g id="text_60">
      <!-- −0.8 -->
      <g transform="translate(519.644246 605.013675)scale(0.1 -0.1)">
       <use xlink:href="#DejaVuSans-8722"/>
       <use x="83.789062" xlink:href="#DejaVuSans-48"/>
       <use x="147.412109" xlink:href="#DejaVuSans-46"/>
       <use x="179.199219" xlink:href="#DejaVuSans-56"/>
      </g>
     </g>
    </g>
    <g id="ytick_32">
     <g id="line2d_69">
      <g>
       <use style="stroke:#000000;stroke-width:0.8;" x="550.927059" xlink:href="#m879c06dc74" y="553.256712"/>
      </g>
     </g>
     <g id="text_61">
      <!-- −0.6 -->
      <g transform="translate(519.644246 557.055931)scale(0.1 -0.1)">
       <use xlink:href="#DejaVuSans-8722"/>
       <use x="83.789062" xlink:href="#DejaVuSans-48"/>
       <use x="147.412109" xlink:href="#DejaVuSans-46"/>
       <use x="179.199219" xlink:href="#DejaVuSans-54"/>
      </g>
     </g>
    </g>
    <g id="ytick_33">
     <g id="line2d_70">
      <g>
       <use style="stroke:#000000;stroke-width:0.8;" x="550.927059" xlink:href="#m879c06dc74" y="505.298969"/>
      </g>
     </g>
     <g id="text_62">
      <!-- −0.4 -->
      <g transform="translate(519.644246 509.098187)scale(0.1 -0.1)">
       <use xlink:href="#DejaVuSans-8722"/>
       <use x="83.789062" xlink:href="#DejaVuSans-48"/>
       <use x="147.412109" xlink:href="#DejaVuSans-46"/>
       <use x="179.199219" xlink:href="#DejaVuSans-52"/>
      </g>
     </g>
    </g>
    <g id="ytick_34">
     <g id="line2d_71">
      <g>
       <use style="stroke:#000000;stroke-width:0.8;" x="550.927059" xlink:href="#m879c06dc74" y="457.341225"/>
      </g>
     </g>
     <g id="text_63">
      <!-- −0.2 -->
      <g transform="translate(519.644246 461.140444)scale(0.1 -0.1)">
       <use xlink:href="#DejaVuSans-8722"/>
       <use x="83.789062" xlink:href="#DejaVuSans-48"/>
       <use x="147.412109" xlink:href="#DejaVuSans-46"/>
       <use x="179.199219" xlink:href="#DejaVuSans-50"/>
      </g>
     </g>
    </g>
    <g id="ytick_35">
     <g id="line2d_72">
      <g>
       <use style="stroke:#000000;stroke-width:0.8;" x="550.927059" xlink:href="#m879c06dc74" y="409.383481"/>
      </g>
     </g>
     <g id="text_64">
      <!-- 0.0 -->
      <g transform="translate(528.023934 413.1827)scale(0.1 -0.1)">
       <use xlink:href="#DejaVuSans-48"/>
       <use x="63.623047" xlink:href="#DejaVuSans-46"/>
       <use x="95.410156" xlink:href="#DejaVuSans-48"/>
      </g>
     </g>
    </g>
   </g>
   <g id="line2d_73">
    <path clip-path="url(#p935d0d794d)" d="M 565.250053 408.817527 
L 566.479495 411.122241 
L 568.938378 419.781833 
L 570.16782 422.183735 
L 571.397261 421.552872 
L 572.626703 418.258097 
L 573.856145 413.991328 
L 575.085586 410.910413 
L 576.315028 410.585905 
L 577.544469 413.104741 
L 578.773911 417.087393 
L 580.003353 420.380014 
L 581.232794 421.136649 
L 582.462236 418.706025 
L 583.691677 413.895127 
L 584.921119 408.539418 
L 586.150561 404.606357 
L 587.380002 403.373321 
L 588.609444 404.798345 
L 589.838885 407.523611 
L 591.068327 409.610494 
L 592.297769 409.415239 
L 593.52721 406.349865 
L 595.986094 396.328882 
L 597.215535 393.450218 
L 598.444977 393.730235 
L 599.674418 396.77058 
L 600.90386 400.822741 
L 602.133302 403.74279 
L 603.362743 404.07698 
L 604.592185 401.744302 
L 605.821626 398.007274 
L 607.051068 394.796503 
L 608.28051 393.79077 
L 609.509951 395.628427 
L 611.968834 403.910375 
L 613.198276 406.609653 
L 614.427718 406.443785 
L 615.657159 403.573679 
L 616.886601 399.573884 
L 618.116042 396.582463 
L 619.345484 396.287039 
L 620.574926 399.014337 
L 621.804367 403.463377 
L 623.033809 407.442344 
L 624.26325 409.072411 
L 625.492692 407.786354 
L 627.951575 401.434805 
L 629.181017 400.292702 
L 630.410458 402.072092 
L 631.6399 406.29495 
L 632.869342 411.321847 
L 634.098783 415.153175 
L 635.328225 416.401281 
L 636.557666 414.999688 
L 637.787108 412.341696 
L 639.01655 410.405939 
L 640.245991 411.00216 
L 641.475433 414.52088 
L 642.704874 419.700025 
L 643.934316 424.286068 
L 645.163758 426.293075 
L 646.393199 425.139397 
L 648.852082 418.720883 
L 650.081524 417.502704 
L 651.310966 418.99826 
L 653.769849 426.022512 
L 654.99929 427.901658 
L 656.228732 427.098374 
L 657.458174 424.003007 
L 658.687615 420.201478 
L 659.917057 417.713414 
L 661.146498 417.966371 
L 662.37594 421.006127 
L 663.605382 425.399908 
L 664.834823 428.998781 
L 666.064265 430.144201 
L 667.293706 428.666273 
L 668.523148 426.014396 
L 669.75259 424.406943 
L 670.982031 425.514451 
L 672.211473 429.492725 
L 673.440914 434.938747 
L 674.670356 439.740291 
L 675.899798 442.257741 
L 677.129239 442.152914 
L 678.358681 440.46833 
L 679.588122 439.007394 
L 680.817564 439.389871 
L 682.047006 442.241829 
L 684.505889 451.632084 
L 685.73533 454.705495 
L 686.964772 455.175821 
L 688.194214 453.588637 
L 689.423655 451.745969 
L 690.653097 451.718835 
L 691.882538 454.568499 
L 693.11198 459.862458 
L 694.341422 465.880194 
L 695.570863 470.678816 
L 696.800305 473.242484 
L 698.029746 474.003823 
L 699.259188 474.482086 
L 700.48863 476.355186 
L 701.718071 480.562425 
L 702.947513 486.891032 
L 705.406396 500.757011 
L 706.635838 505.456797 
L 707.865279 507.914945 
L 710.324162 509.918543 
L 711.553604 512.529718 
L 712.783046 517.248963 
L 715.241929 529.075053 
L 716.47137 532.87095 
L 717.700812 534.176446 
L 720.159695 533.115998 
L 721.389137 533.678458 
L 722.618578 535.988135 
L 723.84802 539.829364 
L 725.077462 544.260295 
L 726.306903 548.150752 
L 727.536345 550.623476 
L 728.765786 551.403762 
L 731.22467 550.617438 
L 732.454111 551.533754 
L 733.683553 554.441086 
L 736.142436 563.732599 
L 737.371878 567.426546 
L 738.601319 569.297781 
L 739.830761 569.58252 
L 741.060202 569.140426 
L 742.289644 568.870425 
L 743.519086 569.409395 
L 744.748527 571.044729 
L 745.977969 573.716058 
L 747.20741 576.887038 
L 748.436852 579.62747 
L 749.666294 580.953168 
L 750.895735 580.514705 
L 753.354618 576.778953 
L 754.58406 575.773448 
L 755.813502 575.996655 
L 757.042943 577.188189 
L 760.731268 582.368043 
L 761.96071 583.188591 
L 763.190151 582.856242 
L 765.649034 580.301867 
L 766.878476 580.022365 
L 768.107918 581.158475 
L 769.337359 583.359161 
L 771.796242 588.904686 
L 774.255126 594.781954 
L 775.484567 596.858194 
L 776.714009 597.89974 
L 777.94345 598.405581 
L 779.172892 599.382506 
L 780.402334 601.269038 
L 781.631775 603.770856 
L 784.090658 609.329438 
L 786.549542 615.489939 
L 787.778983 617.806643 
L 789.008425 618.646582 
L 790.237866 618.21293 
L 791.467308 617.395202 
L 793.926191 616.260078 
L 796.385074 614.732616 
L 797.614516 614.909475 
L 798.843958 615.882592 
L 800.073399 616.523821 
L 801.302841 616.170639 
L 803.761724 613.802162 
L 804.991166 612.572851 
L 806.220607 610.760146 
L 808.67949 605.787465 
L 809.908932 604.325 
L 812.367815 603.215898 
L 814.826698 600.902248 
L 817.285582 599.915228 
L 818.515023 598.093308 
L 820.973906 592.538306 
L 823.43279 589.207133 
L 824.662231 587.070695 
L 825.891673 585.235264 
L 827.121115 584.835564 
L 828.350556 585.444715 
L 829.579998 585.52261 
L 830.809439 584.486301 
L 832.038881 583.184962 
L 833.268323 582.220425 
L 834.497764 580.434929 
L 835.727206 576.697443 
L 836.956647 572.135771 
L 838.186089 568.495243 
L 839.415531 565.811648 
L 840.644972 562.651872 
L 841.874414 558.36167 
L 843.103855 554.611247 
L 844.333297 551.893106 
L 845.562739 548.345615 
L 846.79218 542.62597 
L 848.021622 536.1856 
L 850.480505 524.90728 
L 851.709947 517.6275 
L 851.709947 517.6275 
" style="fill:none;stroke:#ff796c;stroke-linecap:square;stroke-width:1.5;"/>
   </g>
   <g id="line2d_74">
    <path clip-path="url(#p935d0d794d)" d="M 565.250053 556.973861 
L 570.16782 557.026052 
L 589.838885 557.912301 
L 594.756652 558.06788 
L 603.362743 558.644463 
L 610.739393 559.368397 
L 618.116042 559.71025 
L 632.869342 559.955516 
L 637.787108 560.349725 
L 642.704874 560.683006 
L 650.081524 560.84861 
L 661.146498 560.738528 
L 666.064265 560.874177 
L 673.440914 561.213373 
L 679.588122 561.192923 
L 683.276447 560.984116 
L 691.882538 560.411811 
L 696.800305 560.175266 
L 712.783046 559.866123 
L 725.077462 559.250041 
L 728.765786 559.224347 
L 734.912994 559.515339 
L 739.830761 559.929766 
L 745.977969 560.503528 
L 755.813502 561.058064 
L 764.419593 561.473916 
L 775.484567 562.486089 
L 782.861217 563.212345 
L 790.237866 563.632655 
L 795.155633 563.768721 
L 800.073399 563.655494 
L 812.367815 563.246004 
L 828.350556 562.837468 
L 840.644972 561.891394 
L 849.251063 561.434597 
L 851.709947 561.343349 
L 851.709947 561.343349 
" style="fill:none;stroke:#ffff14;stroke-linecap:square;stroke-width:1.5;"/>
   </g>
   <g id="line2d_75">
    <path clip-path="url(#p935d0d794d)" d="M 565.250053 556.974893 
L 704.176954 557.082181 
L 745.977969 557.377301 
L 792.69675 557.942184 
L 851.709947 558.819842 
L 851.709947 558.819842 
" style="fill:none;stroke:#014d4e;stroke-linecap:square;stroke-width:1.5;"/>
   </g>
   <g id="patch_23">
    <path d="M 550.927059 629.9064 
L 550.927059 382.1904 
" style="fill:none;stroke:#000000;stroke-linecap:square;stroke-linejoin:miter;stroke-width:0.8;"/>
   </g>
   <g id="patch_24">
    <path d="M 866.032941 629.9064 
L 866.032941 382.1904 
" style="fill:none;stroke:#000000;stroke-linecap:square;stroke-linejoin:miter;stroke-width:0.8;"/>
   </g>
   <g id="patch_25">
    <path d="M 550.927059 629.9064 
L 866.032941 629.9064 
" style="fill:none;stroke:#000000;stroke-linecap:square;stroke-linejoin:miter;stroke-width:0.8;"/>
   </g>
   <g id="patch_26">
    <path d="M 550.927059 382.1904 
L 866.032941 382.1904 
" style="fill:none;stroke:#000000;stroke-linecap:square;stroke-linejoin:miter;stroke-width:0.8;"/>
   </g>
   <g id="text_65">
    <!-- Lateral joint 4 -->
    <g transform="translate(666.814687 376.1904)scale(0.12 -0.12)">
     <use xlink:href="#DejaVuSans-76"/>
     <use x="55.712891" xlink:href="#DejaVuSans-97"/>
     <use x="116.992188" xlink:href="#DejaVuSans-116"/>
     <use x="156.201172" xlink:href="#DejaVuSans-101"/>
     <use x="217.724609" xlink:href="#DejaVuSans-114"/>
     <use x="258.837891" xlink:href="#DejaVuSans-97"/>
     <use x="320.117188" xlink:href="#DejaVuSans-108"/>
     <use x="347.900391" xlink:href="#DejaVuSans-32"/>
     <use x="379.6875" xlink:href="#DejaVuSans-106"/>
     <use x="407.470703" xlink:href="#DejaVuSans-111"/>
     <use x="468.652344" xlink:href="#DejaVuSans-105"/>
     <use x="496.435547" xlink:href="#DejaVuSans-110"/>
     <use x="559.814453" xlink:href="#DejaVuSans-116"/>
     <use x="599.023438" xlink:href="#DejaVuSans-32"/>
     <use x="630.810547" xlink:href="#DejaVuSans-52"/>
    </g>
   </g>
  </g>
  <g id="axes_6">
   <g id="patch_27">
    <path d="M 929.054118 629.9064 
L 1244.16 629.9064 
L 1244.16 382.1904 
L 929.054118 382.1904 
z
" style="fill:#ffffff;"/>
   </g>
   <g id="matplotlib.axis_11">
    <g id="xtick_26">
     <g id="line2d_76">
      <g>
       <use style="stroke:#000000;stroke-width:0.8;" x="929.054118" xlink:href="#m14e5415d1a" y="629.9064"/>
      </g>
     </g>
     <g id="text_66">
      <!-- 0.0 -->
      <g transform="translate(921.102555 644.504838)scale(0.1 -0.1)">
       <use xlink:href="#DejaVuSans-48"/>
       <use x="63.623047" xlink:href="#DejaVuSans-46"/>
       <use x="95.410156" xlink:href="#DejaVuSans-48"/>
      </g>
     </g>
    </g>
    <g id="xtick_27">
     <g id="line2d_77">
      <g>
       <use style="stroke:#000000;stroke-width:0.8;" x="992.075294" xlink:href="#m14e5415d1a" y="629.9064"/>
      </g>
     </g>
     <g id="text_67">
      <!-- 0.2 -->
      <g transform="translate(984.123732 644.504838)scale(0.1 -0.1)">
       <use xlink:href="#DejaVuSans-48"/>
       <use x="63.623047" xlink:href="#DejaVuSans-46"/>
       <use x="95.410156" xlink:href="#DejaVuSans-50"/>
      </g>
     </g>
    </g>
    <g id="xtick_28">
     <g id="line2d_78">
      <g>
       <use style="stroke:#000000;stroke-width:0.8;" x="1055.096471" xlink:href="#m14e5415d1a" y="629.9064"/>
      </g>
     </g>
     <g id="text_68">
      <!-- 0.4 -->
      <g transform="translate(1047.144908 644.504838)scale(0.1 -0.1)">
       <use xlink:href="#DejaVuSans-48"/>
       <use x="63.623047" xlink:href="#DejaVuSans-46"/>
       <use x="95.410156" xlink:href="#DejaVuSans-52"/>
      </g>
     </g>
    </g>
    <g id="xtick_29">
     <g id="line2d_79">
      <g>
       <use style="stroke:#000000;stroke-width:0.8;" x="1118.117647" xlink:href="#m14e5415d1a" y="629.9064"/>
      </g>
     </g>
     <g id="text_69">
      <!-- 0.6 -->
      <g transform="translate(1110.166085 644.504838)scale(0.1 -0.1)">
       <use xlink:href="#DejaVuSans-48"/>
       <use x="63.623047" xlink:href="#DejaVuSans-46"/>
       <use x="95.410156" xlink:href="#DejaVuSans-54"/>
      </g>
     </g>
    </g>
    <g id="xtick_30">
     <g id="line2d_80">
      <g>
       <use style="stroke:#000000;stroke-width:0.8;" x="1181.138824" xlink:href="#m14e5415d1a" y="629.9064"/>
      </g>
     </g>
     <g id="text_70">
      <!-- 0.8 -->
      <g transform="translate(1173.187261 644.504838)scale(0.1 -0.1)">
       <use xlink:href="#DejaVuSans-48"/>
       <use x="63.623047" xlink:href="#DejaVuSans-46"/>
       <use x="95.410156" xlink:href="#DejaVuSans-56"/>
      </g>
     </g>
    </g>
    <g id="xtick_31">
     <g id="line2d_81">
      <g>
       <use style="stroke:#000000;stroke-width:0.8;" x="1244.16" xlink:href="#m14e5415d1a" y="629.9064"/>
      </g>
     </g>
     <g id="text_71">
      <!-- 1.0 -->
      <g transform="translate(1236.208438 644.504838)scale(0.1 -0.1)">
       <use xlink:href="#DejaVuSans-49"/>
       <use x="63.623047" xlink:href="#DejaVuSans-46"/>
       <use x="95.410156" xlink:href="#DejaVuSans-48"/>
      </g>
     </g>
    </g>
   </g>
   <g id="matplotlib.axis_12">
    <g id="ytick_36">
     <g id="line2d_82">
      <g>
       <use style="stroke:#000000;stroke-width:0.8;" x="929.054118" xlink:href="#m879c06dc74" y="629.9064"/>
      </g>
     </g>
     <g id="text_72">
      <!-- 0.0 -->
      <g transform="translate(906.150993 633.705619)scale(0.1 -0.1)">
       <use xlink:href="#DejaVuSans-48"/>
       <use x="63.623047" xlink:href="#DejaVuSans-46"/>
       <use x="95.410156" xlink:href="#DejaVuSans-48"/>
      </g>
     </g>
    </g>
    <g id="ytick_37">
     <g id="line2d_83">
      <g>
       <use style="stroke:#000000;stroke-width:0.8;" x="929.054118" xlink:href="#m879c06dc74" y="580.3632"/>
      </g>
     </g>
     <g id="text_73">
      <!-- 0.2 -->
      <g transform="translate(906.150993 584.162419)scale(0.1 -0.1)">
       <use xlink:href="#DejaVuSans-48"/>
       <use x="63.623047" xlink:href="#DejaVuSans-46"/>
       <use x="95.410156" xlink:href="#DejaVuSans-50"/>
      </g>
     </g>
    </g>
    <g id="ytick_38">
     <g id="line2d_84">
      <g>
       <use style="stroke:#000000;stroke-width:0.8;" x="929.054118" xlink:href="#m879c06dc74" y="530.82"/>
      </g>
     </g>
     <g id="text_74">
      <!-- 0.4 -->
      <g transform="translate(906.150993 534.619219)scale(0.1 -0.1)">
       <use xlink:href="#DejaVuSans-48"/>
       <use x="63.623047" xlink:href="#DejaVuSans-46"/>
       <use x="95.410156" xlink:href="#DejaVuSans-52"/>
      </g>
     </g>
    </g>
    <g id="ytick_39">
     <g id="line2d_85">
      <g>
       <use style="stroke:#000000;stroke-width:0.8;" x="929.054118" xlink:href="#m879c06dc74" y="481.2768"/>
      </g>
     </g>
     <g id="text_75">
      <!-- 0.6 -->
      <g transform="translate(906.150993 485.076019)scale(0.1 -0.1)">
       <use xlink:href="#DejaVuSans-48"/>
       <use x="63.623047" xlink:href="#DejaVuSans-46"/>
       <use x="95.410156" xlink:href="#DejaVuSans-54"/>
      </g>
     </g>
    </g>
    <g id="ytick_40">
     <g id="line2d_86">
      <g>
       <use style="stroke:#000000;stroke-width:0.8;" x="929.054118" xlink:href="#m879c06dc74" y="431.7336"/>
      </g>
     </g>
     <g id="text_76">
      <!-- 0.8 -->
      <g transform="translate(906.150993 435.532819)scale(0.1 -0.1)">
       <use xlink:href="#DejaVuSans-48"/>
       <use x="63.623047" xlink:href="#DejaVuSans-46"/>
       <use x="95.410156" xlink:href="#DejaVuSans-56"/>
      </g>
     </g>
    </g>
    <g id="ytick_41">
     <g id="line2d_87">
      <g>
       <use style="stroke:#000000;stroke-width:0.8;" x="929.054118" xlink:href="#m879c06dc74" y="382.1904"/>
      </g>
     </g>
     <g id="text_77">
      <!-- 1.0 -->
      <g transform="translate(906.150993 385.989619)scale(0.1 -0.1)">
       <use xlink:href="#DejaVuSans-49"/>
       <use x="63.623047" xlink:href="#DejaVuSans-46"/>
       <use x="95.410156" xlink:href="#DejaVuSans-48"/>
      </g>
     </g>
    </g>
   </g>
   <g id="patch_28">
    <path d="M 929.054118 629.9064 
L 929.054118 382.1904 
" style="fill:none;stroke:#000000;stroke-linecap:square;stroke-linejoin:miter;stroke-width:0.8;"/>
   </g>
   <g id="patch_29">
    <path d="M 1244.16 629.9064 
L 1244.16 382.1904 
" style="fill:none;stroke:#000000;stroke-linecap:square;stroke-linejoin:miter;stroke-width:0.8;"/>
   </g>
   <g id="patch_30">
    <path d="M 929.054118 629.9064 
L 1244.16 629.9064 
" style="fill:none;stroke:#000000;stroke-linecap:square;stroke-linejoin:miter;stroke-width:0.8;"/>
   </g>
   <g id="patch_31">
    <path d="M 929.054118 382.1904 
L 1244.16 382.1904 
" style="fill:none;stroke:#000000;stroke-linecap:square;stroke-linejoin:miter;stroke-width:0.8;"/>
   </g>
  </g>
  <g id="legend_1">
   <g id="patch_32">
    <path d="M 1308.251562 377.53625 
L 1375.4 377.53625 
Q 1377.4 377.53625 1377.4 375.53625 
L 1377.4 332.22375 
Q 1377.4 330.22375 1375.4 330.22375 
L 1308.251562 330.22375 
Q 1306.251562 330.22375 1306.251562 332.22375 
L 1306.251562 375.53625 
Q 1306.251562 377.53625 1308.251562 377.53625 
z
" style="fill:#ffffff;opacity:0.8;stroke:#cccccc;stroke-linejoin:miter;"/>
   </g>
   <g id="line2d_88">
    <path d="M 1310.251562 338.322187 
L 1330.251562 338.322187 
" style="fill:none;stroke:#ff796c;stroke-linecap:square;stroke-width:1.5;"/>
   </g>
   <g id="line2d_89"/>
   <g id="text_78">
    <!-- Torque -->
    <defs>
     <path d="M -0.296875 72.90625 
L 61.375 72.90625 
L 61.375 64.59375 
L 35.5 64.59375 
L 35.5 0 
L 25.59375 0 
L 25.59375 64.59375 
L -0.296875 64.59375 
z
" id="DejaVuSans-84"/>
     <path d="M 14.796875 27.296875 
Q 14.796875 17.390625 18.875 11.75 
Q 22.953125 6.109375 30.078125 6.109375 
Q 37.203125 6.109375 41.296875 11.75 
Q 45.40625 17.390625 45.40625 27.296875 
Q 45.40625 37.203125 41.296875 42.84375 
Q 37.203125 48.484375 30.078125 48.484375 
Q 22.953125 48.484375 18.875 42.84375 
Q 14.796875 37.203125 14.796875 27.296875 
z
M 45.40625 8.203125 
Q 42.578125 3.328125 38.25 0.953125 
Q 33.9375 -1.421875 27.875 -1.421875 
Q 17.96875 -1.421875 11.734375 6.484375 
Q 5.515625 14.40625 5.515625 27.296875 
Q 5.515625 40.1875 11.734375 48.09375 
Q 17.96875 56 27.875 56 
Q 33.9375 56 38.25 53.625 
Q 42.578125 51.265625 45.40625 46.390625 
L 45.40625 54.6875 
L 54.390625 54.6875 
L 54.390625 -20.796875 
L 45.40625 -20.796875 
z
" id="DejaVuSans-113"/>
     <path d="M 8.5 21.578125 
L 8.5 54.6875 
L 17.484375 54.6875 
L 17.484375 21.921875 
Q 17.484375 14.15625 20.5 10.265625 
Q 23.53125 6.390625 29.59375 6.390625 
Q 36.859375 6.390625 41.078125 11.03125 
Q 45.3125 15.671875 45.3125 23.6875 
L 45.3125 54.6875 
L 54.296875 54.6875 
L 54.296875 0 
L 45.3125 0 
L 45.3125 8.40625 
Q 42.046875 3.421875 37.71875 1 
Q 33.40625 -1.421875 27.6875 -1.421875 
Q 18.265625 -1.421875 13.375 4.4375 
Q 8.5 10.296875 8.5 21.578125 
z
M 31.109375 56 
z
" id="DejaVuSans-117"/>
    </defs>
    <g transform="translate(1338.251562 341.822187)scale(0.1 -0.1)">
     <use xlink:href="#DejaVuSans-84"/>
     <use x="60.818359" xlink:href="#DejaVuSans-111"/>
     <use x="122" xlink:href="#DejaVuSans-114"/>
     <use x="163.097656" xlink:href="#DejaVuSans-113"/>
     <use x="226.574219" xlink:href="#DejaVuSans-117"/>
     <use x="289.953125" xlink:href="#DejaVuSans-101"/>
    </g>
   </g>
   <g id="line2d_90">
    <path d="M 1310.251562 353.000313 
L 1330.251562 353.000313 
" style="fill:none;stroke:#ffff14;stroke-linecap:square;stroke-width:1.5;"/>
   </g>
   <g id="line2d_91"/>
   <g id="text_79">
    <!-- q -->
    <g transform="translate(1338.251562 356.500313)scale(0.1 -0.1)">
     <use xlink:href="#DejaVuSans-113"/>
    </g>
   </g>
   <g id="line2d_92">
    <path d="M 1310.251562 367.678437 
L 1330.251562 367.678437 
" style="fill:none;stroke:#014d4e;stroke-linecap:square;stroke-width:1.5;"/>
   </g>
   <g id="line2d_93"/>
   <g id="text_80">
    <!-- q_des -->
    <defs>
     <path d="M 50.984375 -16.609375 
L 50.984375 -23.578125 
L -0.984375 -23.578125 
L -0.984375 -16.609375 
z
" id="DejaVuSans-95"/>
     <path d="M 45.40625 46.390625 
L 45.40625 75.984375 
L 54.390625 75.984375 
L 54.390625 0 
L 45.40625 0 
L 45.40625 8.203125 
Q 42.578125 3.328125 38.25 0.953125 
Q 33.9375 -1.421875 27.875 -1.421875 
Q 17.96875 -1.421875 11.734375 6.484375 
Q 5.515625 14.40625 5.515625 27.296875 
Q 5.515625 40.1875 11.734375 48.09375 
Q 17.96875 56 27.875 56 
Q 33.9375 56 38.25 53.625 
Q 42.578125 51.265625 45.40625 46.390625 
z
M 14.796875 27.296875 
Q 14.796875 17.390625 18.875 11.75 
Q 22.953125 6.109375 30.078125 6.109375 
Q 37.203125 6.109375 41.296875 11.75 
Q 45.40625 17.390625 45.40625 27.296875 
Q 45.40625 37.203125 41.296875 42.84375 
Q 37.203125 48.484375 30.078125 48.484375 
Q 22.953125 48.484375 18.875 42.84375 
Q 14.796875 37.203125 14.796875 27.296875 
z
" id="DejaVuSans-100"/>
     <path d="M 44.28125 53.078125 
L 44.28125 44.578125 
Q 40.484375 46.53125 36.375 47.5 
Q 32.28125 48.484375 27.875 48.484375 
Q 21.1875 48.484375 17.84375 46.4375 
Q 14.5 44.390625 14.5 40.28125 
Q 14.5 37.15625 16.890625 35.375 
Q 19.28125 33.59375 26.515625 31.984375 
L 29.59375 31.296875 
Q 39.15625 29.25 43.1875 25.515625 
Q 47.21875 21.78125 47.21875 15.09375 
Q 47.21875 7.46875 41.1875 3.015625 
Q 35.15625 -1.421875 24.609375 -1.421875 
Q 20.21875 -1.421875 15.453125 -0.5625 
Q 10.6875 0.296875 5.421875 2 
L 5.421875 11.28125 
Q 10.40625 8.6875 15.234375 7.390625 
Q 20.0625 6.109375 24.8125 6.109375 
Q 31.15625 6.109375 34.5625 8.28125 
Q 37.984375 10.453125 37.984375 14.40625 
Q 37.984375 18.0625 35.515625 20.015625 
Q 33.0625 21.96875 24.703125 23.78125 
L 21.578125 24.515625 
Q 13.234375 26.265625 9.515625 29.90625 
Q 5.8125 33.546875 5.8125 39.890625 
Q 5.8125 47.609375 11.28125 51.796875 
Q 16.75 56 26.8125 56 
Q 31.78125 56 36.171875 55.265625 
Q 40.578125 54.546875 44.28125 53.078125 
z
" id="DejaVuSans-115"/>
    </defs>
    <g transform="translate(1338.251562 371.178437)scale(0.1 -0.1)">
     <use xlink:href="#DejaVuSans-113"/>
     <use x="63.476562" xlink:href="#DejaVuSans-95"/>
     <use x="113.476562" xlink:href="#DejaVuSans-100"/>
     <use x="176.953125" xlink:href="#DejaVuSans-101"/>
     <use x="238.476562" xlink:href="#DejaVuSans-115"/>
    </g>
   </g>
  </g>
 </g>
 <defs>
  <clipPath id="pcda94e2661">
   <rect height="247.716" width="315.105882" x="172.8" y="84.9312"/>
  </clipPath>
  <clipPath id="p7b30492dec">
   <rect height="247.716" width="315.105882" x="550.927059" y="84.9312"/>
  </clipPath>
  <clipPath id="p96c052f04e">
   <rect height="247.716" width="315.105882" x="929.054118" y="84.9312"/>
  </clipPath>
  <clipPath id="p96b191f7ae">
   <rect height="247.716" width="315.105882" x="172.8" y="382.1904"/>
  </clipPath>
  <clipPath id="p935d0d794d">
   <rect height="247.716" width="315.105882" x="550.927059" y="382.1904"/>
  </clipPath>
 </defs>
</svg>
