<?xml version="1.0" encoding="utf-8" standalone="no"?>
<!DOCTYPE svg PUBLIC "-//W3C//DTD SVG 1.1//EN"
  "http://www.w3.org/Graphics/SVG/1.1/DTD/svg11.dtd">
<!-- Created with matplotlib (https://matplotlib.org/) -->
<svg height="707.76pt" version="1.1" viewBox="0 0 1382.4 707.76" width="1382.4pt" xmlns="http://www.w3.org/2000/svg" xmlns:xlink="http://www.w3.org/1999/xlink">
 <defs>
  <style type="text/css">
*{stroke-linecap:butt;stroke-linejoin:round;}
  </style>
 </defs>
 <g id="figure_1">
  <g id="patch_1">
   <path d="M 0 707.76 
L 1382.4 707.76 
L 1382.4 0 
L 0 0 
z
" style="fill:#ffffff;"/>
  </g>
  <g id="axes_1">
   <g id="patch_2">
    <path d="M 172.8 332.6472 
L 487.905882 332.6472 
L 487.905882 84.9312 
L 172.8 84.9312 
z
" style="fill:#ffffff;"/>
   </g>
   <g id="matplotlib.axis_1">
    <g id="xtick_1">
     <g id="line2d_1">
      <defs>
       <path d="M 0 0 
L 0 3.5 
" id="ma743739a6a" style="stroke:#000000;stroke-width:0.8;"/>
      </defs>
      <g>
       <use style="stroke:#000000;stroke-width:0.8;" x="187.122995" xlink:href="#ma743739a6a" y="332.6472"/>
      </g>
     </g>
     <g id="text_1">
      <!-- 0 -->
      <defs>
       <path d="M 31.78125 66.40625 
Q 24.171875 66.40625 20.328125 58.90625 
Q 16.5 51.421875 16.5 36.375 
Q 16.5 21.390625 20.328125 13.890625 
Q 24.171875 6.390625 31.78125 6.390625 
Q 39.453125 6.390625 43.28125 13.890625 
Q 47.125 21.390625 47.125 36.375 
Q 47.125 51.421875 43.28125 58.90625 
Q 39.453125 66.40625 31.78125 66.40625 
z
M 31.78125 74.21875 
Q 44.046875 74.21875 50.515625 64.515625 
Q 56.984375 54.828125 56.984375 36.375 
Q 56.984375 17.96875 50.515625 8.265625 
Q 44.046875 -1.421875 31.78125 -1.421875 
Q 19.53125 -1.421875 13.0625 8.265625 
Q 6.59375 17.96875 6.59375 36.375 
Q 6.59375 54.828125 13.0625 64.515625 
Q 19.53125 74.21875 31.78125 74.21875 
z
" id="DejaVuSans-48"/>
      </defs>
      <g transform="translate(183.941745 347.245637)scale(0.1 -0.1)">
       <use xlink:href="#DejaVuSans-48"/>
      </g>
     </g>
    </g>
    <g id="xtick_2">
     <g id="line2d_2">
      <g>
       <use style="stroke:#000000;stroke-width:0.8;" x="248.595075" xlink:href="#ma743739a6a" y="332.6472"/>
      </g>
     </g>
     <g id="text_2">
      <!-- 50 -->
      <defs>
       <path d="M 10.796875 72.90625 
L 49.515625 72.90625 
L 49.515625 64.59375 
L 19.828125 64.59375 
L 19.828125 46.734375 
Q 21.96875 47.46875 24.109375 47.828125 
Q 26.265625 48.1875 28.421875 48.1875 
Q 40.625 48.1875 47.75 41.5 
Q 54.890625 34.8125 54.890625 23.390625 
Q 54.890625 11.625 47.5625 5.09375 
Q 40.234375 -1.421875 26.90625 -1.421875 
Q 22.3125 -1.421875 17.546875 -0.640625 
Q 12.796875 0.140625 7.71875 1.703125 
L 7.71875 11.625 
Q 12.109375 9.234375 16.796875 8.0625 
Q 21.484375 6.890625 26.703125 6.890625 
Q 35.15625 6.890625 40.078125 11.328125 
Q 45.015625 15.765625 45.015625 23.390625 
Q 45.015625 31 40.078125 35.4375 
Q 35.15625 39.890625 26.703125 39.890625 
Q 22.75 39.890625 18.8125 39.015625 
Q 14.890625 38.140625 10.796875 36.28125 
z
" id="DejaVuSans-53"/>
      </defs>
      <g transform="translate(242.232575 347.245637)scale(0.1 -0.1)">
       <use xlink:href="#DejaVuSans-53"/>
       <use x="63.623047" xlink:href="#DejaVuSans-48"/>
      </g>
     </g>
    </g>
    <g id="xtick_3">
     <g id="line2d_3">
      <g>
       <use style="stroke:#000000;stroke-width:0.8;" x="310.067155" xlink:href="#ma743739a6a" y="332.6472"/>
      </g>
     </g>
     <g id="text_3">
      <!-- 100 -->
      <defs>
       <path d="M 12.40625 8.296875 
L 28.515625 8.296875 
L 28.515625 63.921875 
L 10.984375 60.40625 
L 10.984375 69.390625 
L 28.421875 72.90625 
L 38.28125 72.90625 
L 38.28125 8.296875 
L 54.390625 8.296875 
L 54.390625 0 
L 12.40625 0 
z
" id="DejaVuSans-49"/>
      </defs>
      <g transform="translate(300.523405 347.245637)scale(0.1 -0.1)">
       <use xlink:href="#DejaVuSans-49"/>
       <use x="63.623047" xlink:href="#DejaVuSans-48"/>
       <use x="127.246094" xlink:href="#DejaVuSans-48"/>
      </g>
     </g>
    </g>
    <g id="xtick_4">
     <g id="line2d_4">
      <g>
       <use style="stroke:#000000;stroke-width:0.8;" x="371.539235" xlink:href="#ma743739a6a" y="332.6472"/>
      </g>
     </g>
     <g id="text_4">
      <!-- 150 -->
      <g transform="translate(361.995485 347.245637)scale(0.1 -0.1)">
       <use xlink:href="#DejaVuSans-49"/>
       <use x="63.623047" xlink:href="#DejaVuSans-53"/>
       <use x="127.246094" xlink:href="#DejaVuSans-48"/>
      </g>
     </g>
    </g>
    <g id="xtick_5">
     <g id="line2d_5">
      <g>
       <use style="stroke:#000000;stroke-width:0.8;" x="433.011315" xlink:href="#ma743739a6a" y="332.6472"/>
      </g>
     </g>
     <g id="text_5">
      <!-- 200 -->
      <defs>
       <path d="M 19.1875 8.296875 
L 53.609375 8.296875 
L 53.609375 0 
L 7.328125 0 
L 7.328125 8.296875 
Q 12.9375 14.109375 22.625 23.890625 
Q 32.328125 33.6875 34.8125 36.53125 
Q 39.546875 41.84375 41.421875 45.53125 
Q 43.3125 49.21875 43.3125 52.78125 
Q 43.3125 58.59375 39.234375 62.25 
Q 35.15625 65.921875 28.609375 65.921875 
Q 23.96875 65.921875 18.8125 64.3125 
Q 13.671875 62.703125 7.8125 59.421875 
L 7.8125 69.390625 
Q 13.765625 71.78125 18.9375 73 
Q 24.125 74.21875 28.421875 74.21875 
Q 39.75 74.21875 46.484375 68.546875 
Q 53.21875 62.890625 53.21875 53.421875 
Q 53.21875 48.921875 51.53125 44.890625 
Q 49.859375 40.875 45.40625 35.40625 
Q 44.1875 33.984375 37.640625 27.21875 
Q 31.109375 20.453125 19.1875 8.296875 
z
" id="DejaVuSans-50"/>
      </defs>
      <g transform="translate(423.467565 347.245637)scale(0.1 -0.1)">
       <use xlink:href="#DejaVuSans-50"/>
       <use x="63.623047" xlink:href="#DejaVuSans-48"/>
       <use x="127.246094" xlink:href="#DejaVuSans-48"/>
      </g>
     </g>
    </g>
   </g>
   <g id="matplotlib.axis_2">
    <g id="ytick_1">
     <g id="line2d_6">
      <defs>
       <path d="M 0 0 
L -3.5 0 
" id="m809fede57c" style="stroke:#000000;stroke-width:0.8;"/>
      </defs>
      <g>
       <use style="stroke:#000000;stroke-width:0.8;" x="172.8" xlink:href="#m809fede57c" y="308.860077"/>
      </g>
     </g>
     <g id="text_6">
      <!-- 0 -->
      <g transform="translate(159.4375 312.659296)scale(0.1 -0.1)">
       <use xlink:href="#DejaVuSans-48"/>
      </g>
     </g>
    </g>
    <g id="ytick_2">
     <g id="line2d_7">
      <g>
       <use style="stroke:#000000;stroke-width:0.8;" x="172.8" xlink:href="#m809fede57c" y="270.853849"/>
      </g>
     </g>
     <g id="text_7">
      <!-- 1 -->
      <g transform="translate(159.4375 274.653068)scale(0.1 -0.1)">
       <use xlink:href="#DejaVuSans-49"/>
      </g>
     </g>
    </g>
    <g id="ytick_3">
     <g id="line2d_8">
      <g>
       <use style="stroke:#000000;stroke-width:0.8;" x="172.8" xlink:href="#m809fede57c" y="232.847622"/>
      </g>
     </g>
     <g id="text_8">
      <!-- 2 -->
      <g transform="translate(159.4375 236.646841)scale(0.1 -0.1)">
       <use xlink:href="#DejaVuSans-50"/>
      </g>
     </g>
    </g>
    <g id="ytick_4">
     <g id="line2d_9">
      <g>
       <use style="stroke:#000000;stroke-width:0.8;" x="172.8" xlink:href="#m809fede57c" y="194.841395"/>
      </g>
     </g>
     <g id="text_9">
      <!-- 3 -->
      <defs>
       <path d="M 40.578125 39.3125 
Q 47.65625 37.796875 51.625 33 
Q 55.609375 28.21875 55.609375 21.1875 
Q 55.609375 10.40625 48.1875 4.484375 
Q 40.765625 -1.421875 27.09375 -1.421875 
Q 22.515625 -1.421875 17.65625 -0.515625 
Q 12.796875 0.390625 7.625 2.203125 
L 7.625 11.71875 
Q 11.71875 9.328125 16.59375 8.109375 
Q 21.484375 6.890625 26.8125 6.890625 
Q 36.078125 6.890625 40.9375 10.546875 
Q 45.796875 14.203125 45.796875 21.1875 
Q 45.796875 27.640625 41.28125 31.265625 
Q 36.765625 34.90625 28.71875 34.90625 
L 20.21875 34.90625 
L 20.21875 43.015625 
L 29.109375 43.015625 
Q 36.375 43.015625 40.234375 45.921875 
Q 44.09375 48.828125 44.09375 54.296875 
Q 44.09375 59.90625 40.109375 62.90625 
Q 36.140625 65.921875 28.71875 65.921875 
Q 24.65625 65.921875 20.015625 65.03125 
Q 15.375 64.15625 9.8125 62.3125 
L 9.8125 71.09375 
Q 15.4375 72.65625 20.34375 73.4375 
Q 25.25 74.21875 29.59375 74.21875 
Q 40.828125 74.21875 47.359375 69.109375 
Q 53.90625 64.015625 53.90625 55.328125 
Q 53.90625 49.265625 50.4375 45.09375 
Q 46.96875 40.921875 40.578125 39.3125 
z
" id="DejaVuSans-51"/>
      </defs>
      <g transform="translate(159.4375 198.640613)scale(0.1 -0.1)">
       <use xlink:href="#DejaVuSans-51"/>
      </g>
     </g>
    </g>
    <g id="ytick_5">
     <g id="line2d_10">
      <g>
       <use style="stroke:#000000;stroke-width:0.8;" x="172.8" xlink:href="#m809fede57c" y="156.835167"/>
      </g>
     </g>
     <g id="text_10">
      <!-- 4 -->
      <defs>
       <path d="M 37.796875 64.3125 
L 12.890625 25.390625 
L 37.796875 25.390625 
z
M 35.203125 72.90625 
L 47.609375 72.90625 
L 47.609375 25.390625 
L 58.015625 25.390625 
L 58.015625 17.1875 
L 47.609375 17.1875 
L 47.609375 0 
L 37.796875 0 
L 37.796875 17.1875 
L 4.890625 17.1875 
L 4.890625 26.703125 
z
" id="DejaVuSans-52"/>
      </defs>
      <g transform="translate(159.4375 160.634386)scale(0.1 -0.1)">
       <use xlink:href="#DejaVuSans-52"/>
      </g>
     </g>
    </g>
    <g id="ytick_6">
     <g id="line2d_11">
      <g>
       <use style="stroke:#000000;stroke-width:0.8;" x="172.8" xlink:href="#m809fede57c" y="118.82894"/>
      </g>
     </g>
     <g id="text_11">
      <!-- 5 -->
      <g transform="translate(159.4375 122.628158)scale(0.1 -0.1)">
       <use xlink:href="#DejaVuSans-53"/>
      </g>
     </g>
    </g>
   </g>
   <g id="line2d_12">
    <path clip-path="url(#pa5129923fc)" d="M 187.122995 308.860097 
L 190.811319 308.802764 
L 200.646852 308.002988 
L 204.335177 307.453427 
L 209.252943 306.670066 
L 212.941268 306.037577 
L 226.465126 302.888779 
L 231.382892 301.641152 
L 235.071217 300.629953 
L 239.988983 299.164696 
L 246.136192 297.511173 
L 249.824516 296.451184 
L 257.201166 294.564032 
L 260.889491 293.559972 
L 265.807257 292.349391 
L 271.954465 290.656556 
L 276.872232 289.428661 
L 281.789998 288.09762 
L 286.707764 286.903551 
L 294.084414 284.889263 
L 297.772739 283.856139 
L 302.690505 282.368718 
L 307.608272 280.978792 
L 314.984921 278.668829 
L 318.673246 277.429637 
L 327.279337 274.066645 
L 330.967662 272.273819 
L 337.11487 268.957926 
L 340.803195 266.576685 
L 346.950403 262.213581 
L 350.638728 259.234298 
L 354.327052 255.918829 
L 358.015377 252.353818 
L 360.47426 249.736206 
L 364.162585 245.467293 
L 369.080352 239.453211 
L 372.768676 234.610898 
L 389.980859 211.44377 
L 393.669184 207.173703 
L 396.128067 204.616976 
L 398.58695 202.398174 
L 399.816392 198.714474 
L 401.045833 196.954625 
L 407.193041 189.312494 
L 409.651924 187.08899 
L 410.881366 185.545304 
L 412.110808 183.733535 
L 413.340249 182.211582 
L 414.569691 178.60795 
L 415.799132 176.830883 
L 418.258016 172.721521 
L 419.487457 171.031418 
L 420.716899 169.677513 
L 421.94634 168.131145 
L 425.634665 162.331101 
L 426.864107 160.539883 
L 430.552432 154.027157 
L 434.240756 148.843807 
L 435.470198 146.997648 
L 440.387964 140.569782 
L 441.617406 139.176673 
L 445.305731 136.268545 
L 446.535172 135.370848 
L 447.764614 134.678366 
L 448.994056 139.921788 
L 450.223497 134.310847 
L 451.452939 132.275518 
L 452.68238 129.708095 
L 453.911822 128.291026 
L 455.141264 127.781874 
L 456.370705 126.663423 
L 457.600147 124.759893 
L 458.829588 123.417235 
L 460.05903 122.623138 
L 461.288472 120.853346 
L 462.517913 118.164497 
L 463.747355 116.213713 
L 464.976796 112.301522 
L 467.43568 105.330097 
L 468.665121 103.172274 
L 469.894563 101.744801 
L 472.353446 97.043159 
L 473.582888 96.191018 
L 473.582888 96.191018 
" style="fill:none;stroke:#ff796c;stroke-linecap:square;stroke-width:1.5;"/>
   </g>
   <g id="line2d_13">
    <path clip-path="url(#pa5129923fc)" d="M 187.122995 309.09364 
L 195.729086 309.177344 
L 205.564619 309.499003 
L 217.859035 310.246212 
L 231.382892 311.357916 
L 246.136192 312.777006 
L 259.660049 313.987598 
L 273.183907 315.022984 
L 289.166648 315.956027 
L 305.149388 316.702179 
L 322.361571 317.225479 
L 339.573753 317.784015 
L 351.868169 318.451798 
L 361.703702 319.201445 
L 385.063092 321.305161 
L 389.980859 321.375501 
L 393.669184 321.200523 
L 397.357508 320.786118 
L 401.045833 320.279307 
L 407.193041 319.439713 
L 414.569691 318.210671 
L 417.028574 318.061335 
L 420.716899 317.996743 
L 423.175782 317.941086 
L 428.093548 318.141229 
L 434.240756 318.849754 
L 436.69964 319.065288 
L 441.617406 319.196332 
L 444.076289 318.952787 
L 446.535172 318.534877 
L 447.764614 318.217569 
L 450.223497 317.137692 
L 451.452939 316.810559 
L 453.911822 316.422659 
L 456.370705 315.7568 
L 458.829588 315.335985 
L 461.288472 314.717544 
L 466.206238 314.311885 
L 468.665121 314.454453 
L 471.124004 314.280209 
L 472.353446 314.239651 
L 473.582888 313.983909 
L 473.582888 313.983909 
" style="fill:none;stroke:#ffff14;stroke-linecap:square;stroke-width:1.5;"/>
   </g>
   <g id="line2d_14">
    <path clip-path="url(#pa5129923fc)" d="M 187.122995 309.094146 
L 258.430608 308.987163 
L 280.560556 308.725516 
L 296.543297 308.318838 
L 310.067155 307.746553 
L 321.132129 307.066194 
L 330.967662 306.260405 
L 340.803195 305.229084 
L 349.409286 304.113889 
L 358.015377 302.775881 
L 366.621468 301.193339 
L 373.998118 299.627306 
L 381.374768 297.856703 
L 388.751417 295.873645 
L 396.128067 293.673692 
L 403.504716 291.256686 
L 410.881366 288.626996 
L 419.487457 285.302043 
L 428.093548 281.721716 
L 436.69964 277.908896 
L 446.535172 273.288279 
L 456.370705 268.396758 
L 464.976796 263.888054 
L 473.582888 259.152567 
L 473.582888 259.152567 
" style="fill:none;stroke:#014d4e;stroke-linecap:square;stroke-width:1.5;"/>
   </g>
   <g id="patch_3">
    <path d="M 172.8 332.6472 
L 172.8 84.9312 
" style="fill:none;stroke:#000000;stroke-linecap:square;stroke-linejoin:miter;stroke-width:0.8;"/>
   </g>
   <g id="patch_4">
    <path d="M 487.905882 332.6472 
L 487.905882 84.9312 
" style="fill:none;stroke:#000000;stroke-linecap:square;stroke-linejoin:miter;stroke-width:0.8;"/>
   </g>
   <g id="patch_5">
    <path d="M 172.8 332.6472 
L 487.905882 332.6472 
" style="fill:none;stroke:#000000;stroke-linecap:square;stroke-linejoin:miter;stroke-width:0.8;"/>
   </g>
   <g id="patch_6">
    <path d="M 172.8 84.9312 
L 487.905882 84.9312 
" style="fill:none;stroke:#000000;stroke-linecap:square;stroke-linejoin:miter;stroke-width:0.8;"/>
   </g>
   <g id="text_12">
    <!-- Lateral joint 0 -->
    <defs>
     <path d="M 9.8125 72.90625 
L 19.671875 72.90625 
L 19.671875 8.296875 
L 55.171875 8.296875 
L 55.171875 0 
L 9.8125 0 
z
" id="DejaVuSans-76"/>
     <path d="M 34.28125 27.484375 
Q 23.390625 27.484375 19.1875 25 
Q 14.984375 22.515625 14.984375 16.5 
Q 14.984375 11.71875 18.140625 8.90625 
Q 21.296875 6.109375 26.703125 6.109375 
Q 34.1875 6.109375 38.703125 11.40625 
Q 43.21875 16.703125 43.21875 25.484375 
L 43.21875 27.484375 
z
M 52.203125 31.203125 
L 52.203125 0 
L 43.21875 0 
L 43.21875 8.296875 
Q 40.140625 3.328125 35.546875 0.953125 
Q 30.953125 -1.421875 24.3125 -1.421875 
Q 15.921875 -1.421875 10.953125 3.296875 
Q 6 8.015625 6 15.921875 
Q 6 25.140625 12.171875 29.828125 
Q 18.359375 34.515625 30.609375 34.515625 
L 43.21875 34.515625 
L 43.21875 35.40625 
Q 43.21875 41.609375 39.140625 45 
Q 35.0625 48.390625 27.6875 48.390625 
Q 23 48.390625 18.546875 47.265625 
Q 14.109375 46.140625 10.015625 43.890625 
L 10.015625 52.203125 
Q 14.9375 54.109375 19.578125 55.046875 
Q 24.21875 56 28.609375 56 
Q 40.484375 56 46.34375 49.84375 
Q 52.203125 43.703125 52.203125 31.203125 
z
" id="DejaVuSans-97"/>
     <path d="M 18.3125 70.21875 
L 18.3125 54.6875 
L 36.8125 54.6875 
L 36.8125 47.703125 
L 18.3125 47.703125 
L 18.3125 18.015625 
Q 18.3125 11.328125 20.140625 9.421875 
Q 21.96875 7.515625 27.59375 7.515625 
L 36.8125 7.515625 
L 36.8125 0 
L 27.59375 0 
Q 17.1875 0 13.234375 3.875 
Q 9.28125 7.765625 9.28125 18.015625 
L 9.28125 47.703125 
L 2.6875 47.703125 
L 2.6875 54.6875 
L 9.28125 54.6875 
L 9.28125 70.21875 
z
" id="DejaVuSans-116"/>
     <path d="M 56.203125 29.59375 
L 56.203125 25.203125 
L 14.890625 25.203125 
Q 15.484375 15.921875 20.484375 11.0625 
Q 25.484375 6.203125 34.421875 6.203125 
Q 39.59375 6.203125 44.453125 7.46875 
Q 49.3125 8.734375 54.109375 11.28125 
L 54.109375 2.78125 
Q 49.265625 0.734375 44.1875 -0.34375 
Q 39.109375 -1.421875 33.890625 -1.421875 
Q 20.796875 -1.421875 13.15625 6.1875 
Q 5.515625 13.8125 5.515625 26.8125 
Q 5.515625 40.234375 12.765625 48.109375 
Q 20.015625 56 32.328125 56 
Q 43.359375 56 49.78125 48.890625 
Q 56.203125 41.796875 56.203125 29.59375 
z
M 47.21875 32.234375 
Q 47.125 39.59375 43.09375 43.984375 
Q 39.0625 48.390625 32.421875 48.390625 
Q 24.90625 48.390625 20.390625 44.140625 
Q 15.875 39.890625 15.1875 32.171875 
z
" id="DejaVuSans-101"/>
     <path d="M 41.109375 46.296875 
Q 39.59375 47.171875 37.8125 47.578125 
Q 36.03125 48 33.890625 48 
Q 26.265625 48 22.1875 43.046875 
Q 18.109375 38.09375 18.109375 28.8125 
L 18.109375 0 
L 9.078125 0 
L 9.078125 54.6875 
L 18.109375 54.6875 
L 18.109375 46.1875 
Q 20.953125 51.171875 25.484375 53.578125 
Q 30.03125 56 36.53125 56 
Q 37.453125 56 38.578125 55.875 
Q 39.703125 55.765625 41.0625 55.515625 
z
" id="DejaVuSans-114"/>
     <path d="M 9.421875 75.984375 
L 18.40625 75.984375 
L 18.40625 0 
L 9.421875 0 
z
" id="DejaVuSans-108"/>
     <path id="DejaVuSans-32"/>
     <path d="M 9.421875 54.6875 
L 18.40625 54.6875 
L 18.40625 -0.984375 
Q 18.40625 -11.421875 14.421875 -16.109375 
Q 10.453125 -20.796875 1.609375 -20.796875 
L -1.8125 -20.796875 
L -1.8125 -13.1875 
L 0.59375 -13.1875 
Q 5.71875 -13.1875 7.5625 -10.8125 
Q 9.421875 -8.453125 9.421875 -0.984375 
z
M 9.421875 75.984375 
L 18.40625 75.984375 
L 18.40625 64.59375 
L 9.421875 64.59375 
z
" id="DejaVuSans-106"/>
     <path d="M 30.609375 48.390625 
Q 23.390625 48.390625 19.1875 42.75 
Q 14.984375 37.109375 14.984375 27.296875 
Q 14.984375 17.484375 19.15625 11.84375 
Q 23.34375 6.203125 30.609375 6.203125 
Q 37.796875 6.203125 41.984375 11.859375 
Q 46.1875 17.53125 46.1875 27.296875 
Q 46.1875 37.015625 41.984375 42.703125 
Q 37.796875 48.390625 30.609375 48.390625 
z
M 30.609375 56 
Q 42.328125 56 49.015625 48.375 
Q 55.71875 40.765625 55.71875 27.296875 
Q 55.71875 13.875 49.015625 6.21875 
Q 42.328125 -1.421875 30.609375 -1.421875 
Q 18.84375 -1.421875 12.171875 6.21875 
Q 5.515625 13.875 5.515625 27.296875 
Q 5.515625 40.765625 12.171875 48.375 
Q 18.84375 56 30.609375 56 
z
" id="DejaVuSans-111"/>
     <path d="M 9.421875 54.6875 
L 18.40625 54.6875 
L 18.40625 0 
L 9.421875 0 
z
M 9.421875 75.984375 
L 18.40625 75.984375 
L 18.40625 64.59375 
L 9.421875 64.59375 
z
" id="DejaVuSans-105"/>
     <path d="M 54.890625 33.015625 
L 54.890625 0 
L 45.90625 0 
L 45.90625 32.71875 
Q 45.90625 40.484375 42.875 44.328125 
Q 39.84375 48.1875 33.796875 48.1875 
Q 26.515625 48.1875 22.3125 43.546875 
Q 18.109375 38.921875 18.109375 30.90625 
L 18.109375 0 
L 9.078125 0 
L 9.078125 54.6875 
L 18.109375 54.6875 
L 18.109375 46.1875 
Q 21.34375 51.125 25.703125 53.5625 
Q 30.078125 56 35.796875 56 
Q 45.21875 56 50.046875 50.171875 
Q 54.890625 44.34375 54.890625 33.015625 
z
" id="DejaVuSans-110"/>
    </defs>
    <g transform="translate(288.687629 78.9312)scale(0.12 -0.12)">
     <use xlink:href="#DejaVuSans-76"/>
     <use x="55.712891" xlink:href="#DejaVuSans-97"/>
     <use x="116.992188" xlink:href="#DejaVuSans-116"/>
     <use x="156.201172" xlink:href="#DejaVuSans-101"/>
     <use x="217.724609" xlink:href="#DejaVuSans-114"/>
     <use x="258.837891" xlink:href="#DejaVuSans-97"/>
     <use x="320.117188" xlink:href="#DejaVuSans-108"/>
     <use x="347.900391" xlink:href="#DejaVuSans-32"/>
     <use x="379.6875" xlink:href="#DejaVuSans-106"/>
     <use x="407.470703" xlink:href="#DejaVuSans-111"/>
     <use x="468.652344" xlink:href="#DejaVuSans-105"/>
     <use x="496.435547" xlink:href="#DejaVuSans-110"/>
     <use x="559.814453" xlink:href="#DejaVuSans-116"/>
     <use x="599.023438" xlink:href="#DejaVuSans-32"/>
     <use x="630.810547" xlink:href="#DejaVuSans-48"/>
    </g>
   </g>
  </g>
  <g id="axes_2">
   <g id="patch_7">
    <path d="M 550.927059 332.6472 
L 866.032941 332.6472 
L 866.032941 84.9312 
L 550.927059 84.9312 
z
" style="fill:#ffffff;"/>
   </g>
   <g id="matplotlib.axis_3">
    <g id="xtick_6">
     <g id="line2d_15">
      <g>
       <use style="stroke:#000000;stroke-width:0.8;" x="565.250053" xlink:href="#ma743739a6a" y="332.6472"/>
      </g>
     </g>
     <g id="text_13">
      <!-- 0 -->
      <g transform="translate(562.068803 347.245637)scale(0.1 -0.1)">
       <use xlink:href="#DejaVuSans-48"/>
      </g>
     </g>
    </g>
    <g id="xtick_7">
     <g id="line2d_16">
      <g>
       <use style="stroke:#000000;stroke-width:0.8;" x="626.722134" xlink:href="#ma743739a6a" y="332.6472"/>
      </g>
     </g>
     <g id="text_14">
      <!-- 50 -->
      <g transform="translate(620.359634 347.245637)scale(0.1 -0.1)">
       <use xlink:href="#DejaVuSans-53"/>
       <use x="63.623047" xlink:href="#DejaVuSans-48"/>
      </g>
     </g>
    </g>
    <g id="xtick_8">
     <g id="line2d_17">
      <g>
       <use style="stroke:#000000;stroke-width:0.8;" x="688.194214" xlink:href="#ma743739a6a" y="332.6472"/>
      </g>
     </g>
     <g id="text_15">
      <!-- 100 -->
      <g transform="translate(678.650464 347.245637)scale(0.1 -0.1)">
       <use xlink:href="#DejaVuSans-49"/>
       <use x="63.623047" xlink:href="#DejaVuSans-48"/>
       <use x="127.246094" xlink:href="#DejaVuSans-48"/>
      </g>
     </g>
    </g>
    <g id="xtick_9">
     <g id="line2d_18">
      <g>
       <use style="stroke:#000000;stroke-width:0.8;" x="749.666294" xlink:href="#ma743739a6a" y="332.6472"/>
      </g>
     </g>
     <g id="text_16">
      <!-- 150 -->
      <g transform="translate(740.122544 347.245637)scale(0.1 -0.1)">
       <use xlink:href="#DejaVuSans-49"/>
       <use x="63.623047" xlink:href="#DejaVuSans-53"/>
       <use x="127.246094" xlink:href="#DejaVuSans-48"/>
      </g>
     </g>
    </g>
    <g id="xtick_10">
     <g id="line2d_19">
      <g>
       <use style="stroke:#000000;stroke-width:0.8;" x="811.138374" xlink:href="#ma743739a6a" y="332.6472"/>
      </g>
     </g>
     <g id="text_17">
      <!-- 200 -->
      <g transform="translate(801.594624 347.245637)scale(0.1 -0.1)">
       <use xlink:href="#DejaVuSans-50"/>
       <use x="63.623047" xlink:href="#DejaVuSans-48"/>
       <use x="127.246094" xlink:href="#DejaVuSans-48"/>
      </g>
     </g>
    </g>
   </g>
   <g id="matplotlib.axis_4">
    <g id="ytick_7">
     <g id="line2d_20">
      <g>
       <use style="stroke:#000000;stroke-width:0.8;" x="550.927059" xlink:href="#m809fede57c" y="302.281722"/>
      </g>
     </g>
     <g id="text_18">
      <!-- −1.5 -->
      <defs>
       <path d="M 10.59375 35.5 
L 73.1875 35.5 
L 73.1875 27.203125 
L 10.59375 27.203125 
z
" id="DejaVuSans-8722"/>
       <path d="M 10.6875 12.40625 
L 21 12.40625 
L 21 0 
L 10.6875 0 
z
" id="DejaVuSans-46"/>
      </defs>
      <g transform="translate(519.644246 306.080941)scale(0.1 -0.1)">
       <use xlink:href="#DejaVuSans-8722"/>
       <use x="83.789062" xlink:href="#DejaVuSans-49"/>
       <use x="147.412109" xlink:href="#DejaVuSans-46"/>
       <use x="179.199219" xlink:href="#DejaVuSans-53"/>
      </g>
     </g>
    </g>
    <g id="ytick_8">
     <g id="line2d_21">
      <g>
       <use style="stroke:#000000;stroke-width:0.8;" x="550.927059" xlink:href="#m809fede57c" y="248.08426"/>
      </g>
     </g>
     <g id="text_19">
      <!-- −1.0 -->
      <g transform="translate(519.644246 251.883479)scale(0.1 -0.1)">
       <use xlink:href="#DejaVuSans-8722"/>
       <use x="83.789062" xlink:href="#DejaVuSans-49"/>
       <use x="147.412109" xlink:href="#DejaVuSans-46"/>
       <use x="179.199219" xlink:href="#DejaVuSans-48"/>
      </g>
     </g>
    </g>
    <g id="ytick_9">
     <g id="line2d_22">
      <g>
       <use style="stroke:#000000;stroke-width:0.8;" x="550.927059" xlink:href="#m809fede57c" y="193.886798"/>
      </g>
     </g>
     <g id="text_20">
      <!-- −0.5 -->
      <g transform="translate(519.644246 197.686017)scale(0.1 -0.1)">
       <use xlink:href="#DejaVuSans-8722"/>
       <use x="83.789062" xlink:href="#DejaVuSans-48"/>
       <use x="147.412109" xlink:href="#DejaVuSans-46"/>
       <use x="179.199219" xlink:href="#DejaVuSans-53"/>
      </g>
     </g>
    </g>
    <g id="ytick_10">
     <g id="line2d_23">
      <g>
       <use style="stroke:#000000;stroke-width:0.8;" x="550.927059" xlink:href="#m809fede57c" y="139.689336"/>
      </g>
     </g>
     <g id="text_21">
      <!-- 0.0 -->
      <g transform="translate(528.023934 143.488555)scale(0.1 -0.1)">
       <use xlink:href="#DejaVuSans-48"/>
       <use x="63.623047" xlink:href="#DejaVuSans-46"/>
       <use x="95.410156" xlink:href="#DejaVuSans-48"/>
      </g>
     </g>
    </g>
    <g id="ytick_11">
     <g id="line2d_24">
      <g>
       <use style="stroke:#000000;stroke-width:0.8;" x="550.927059" xlink:href="#m809fede57c" y="85.491874"/>
      </g>
     </g>
     <g id="text_22">
      <!-- 0.5 -->
      <g transform="translate(528.023934 89.291093)scale(0.1 -0.1)">
       <use xlink:href="#DejaVuSans-48"/>
       <use x="63.623047" xlink:href="#DejaVuSans-46"/>
       <use x="95.410156" xlink:href="#DejaVuSans-53"/>
      </g>
     </g>
    </g>
   </g>
   <g id="line2d_25">
    <path clip-path="url(#p7a77b6f2e7)" d="M 565.250053 139.689206 
L 568.938378 139.625808 
L 573.856145 139.354108 
L 586.150561 139.709667 
L 591.068327 140.169979 
L 594.756652 140.371136 
L 598.444977 140.902458 
L 602.133302 141.362143 
L 605.821626 141.767938 
L 609.509951 142.547512 
L 613.198276 143.275235 
L 615.657159 143.776195 
L 618.116042 144.48566 
L 624.26325 146.490074 
L 626.722134 147.321578 
L 630.410458 148.910544 
L 634.098783 150.45352 
L 637.787108 152.051112 
L 646.393199 156.581508 
L 648.852082 158.030025 
L 659.917057 165.322037 
L 669.75259 172.909205 
L 675.899798 178.566175 
L 678.358681 180.96568 
L 680.817564 183.628463 
L 686.964772 190.759844 
L 689.423655 193.793899 
L 693.11198 198.747183 
L 699.259188 207.294517 
L 702.947513 212.95647 
L 709.094721 222.849403 
L 712.783046 229.226434 
L 721.389137 244.706107 
L 739.830761 279.426041 
L 748.436852 294.763153 
L 752.125177 300.785562 
L 755.813502 306.412506 
L 758.272385 309.824046 
L 760.731268 312.807951 
L 763.190151 315.358049 
L 765.649034 317.511754 
L 768.107918 319.259528 
L 769.337359 319.945943 
L 770.566801 320.49855 
L 771.796242 320.914298 
L 773.025684 321.192648 
L 775.484567 321.387382 
L 776.714009 321.33241 
L 777.94345 316.19247 
L 779.172892 314.738734 
L 780.402334 313.606408 
L 781.631775 312.155221 
L 785.3201 306.620744 
L 786.549542 305.114599 
L 787.778983 303.116813 
L 791.467308 295.445456 
L 792.69675 289.247741 
L 795.155633 283.167555 
L 796.385074 280.50588 
L 798.843958 275.963641 
L 807.450049 257.79936 
L 809.908932 254.080145 
L 812.367815 250.815081 
L 814.826698 247.700402 
L 818.515023 242.693922 
L 822.203348 237.976706 
L 823.43279 236.323942 
L 824.662231 234.459124 
L 825.891673 232.232714 
L 827.121115 241.209584 
L 828.350556 227.668083 
L 829.579998 223.18664 
L 830.809439 219.500809 
L 834.497764 211.875597 
L 838.186089 205.344478 
L 839.415531 202.37499 
L 840.644972 199.853502 
L 841.874414 197.917625 
L 843.103855 190.773499 
L 844.333297 186.376817 
L 845.562739 183.832617 
L 848.021622 181.207831 
L 849.251063 179.594091 
L 850.480505 178.874711 
L 851.709947 178.623655 
L 851.709947 178.623655 
" style="fill:none;stroke:#ff796c;stroke-linecap:square;stroke-width:1.5;"/>
   </g>
   <g id="line2d_26">
    <path clip-path="url(#p7a77b6f2e7)" d="M 565.250053 183.87395 
L 573.856145 183.785329 
L 583.691677 183.432648 
L 598.444977 182.511778 
L 609.509951 181.658439 
L 616.886601 180.926751 
L 626.722134 179.719862 
L 636.557666 178.232636 
L 643.934316 176.861445 
L 651.310966 175.227565 
L 657.458174 173.707201 
L 664.834823 171.656911 
L 669.75259 170.086131 
L 674.670356 168.333259 
L 679.588122 166.330832 
L 684.505889 164.106125 
L 689.423655 161.630905 
L 694.341422 158.916374 
L 698.029746 156.703024 
L 702.947513 153.478593 
L 707.865279 149.947485 
L 712.783046 146.077221 
L 717.700812 141.945003 
L 723.84802 136.440669 
L 729.995228 130.678768 
L 741.060202 119.89298 
L 748.436852 112.759885 
L 753.354618 108.266364 
L 757.042943 105.163915 
L 760.731268 102.401437 
L 763.190151 100.784669 
L 765.649034 99.374714 
L 768.107918 98.205453 
L 770.566801 97.291621 
L 773.025684 96.645938 
L 775.484567 96.27257 
L 776.714009 96.191018 
L 777.94345 96.378978 
L 780.402334 96.537531 
L 781.631775 96.875491 
L 782.861217 97.354365 
L 785.3201 98.001563 
L 786.549542 98.536645 
L 789.008425 99.964353 
L 791.467308 101.055488 
L 792.69675 101.849163 
L 793.926191 102.804052 
L 795.155633 103.593185 
L 796.385074 104.222172 
L 797.614516 105.002091 
L 800.073399 107.077468 
L 803.761724 109.475658 
L 804.991166 110.475601 
L 806.220607 111.269185 
L 808.67949 112.414183 
L 811.138374 113.993312 
L 814.826698 115.720396 
L 816.05614 116.533711 
L 817.285582 117.200582 
L 818.515023 117.724983 
L 819.744465 118.399718 
L 822.203348 120.221574 
L 824.662231 121.833004 
L 825.891673 122.913395 
L 827.121115 123.660301 
L 828.350556 125.235446 
L 829.579998 126.175612 
L 830.809439 126.421209 
L 832.038881 127.087812 
L 833.268323 128.386184 
L 834.497764 129.200686 
L 835.727206 129.225565 
L 836.956647 129.569681 
L 838.186089 130.539175 
L 839.415531 130.999902 
L 840.644972 130.626453 
L 841.874414 130.586035 
L 843.103855 131.152455 
L 844.333297 131.14759 
L 845.562739 130.361341 
L 846.79218 130.052122 
L 848.021622 130.262627 
L 849.251063 129.801537 
L 850.480505 128.901925 
L 851.709947 128.790187 
L 851.709947 128.790187 
" style="fill:none;stroke:#ffff14;stroke-linecap:square;stroke-width:1.5;"/>
   </g>
   <g id="line2d_27">
    <path clip-path="url(#p7a77b6f2e7)" d="M 565.250053 183.87257 
L 634.098783 183.761549 
L 652.540407 183.504781 
L 666.064265 183.114652 
L 677.129239 182.598786 
L 686.964772 181.94082 
L 696.800305 181.046975 
L 705.406396 180.032386 
L 712.783046 178.962957 
L 720.159695 177.686644 
L 727.536345 176.18264 
L 734.912994 174.431021 
L 742.289644 172.413228 
L 748.436852 170.516086 
L 754.58406 168.413292 
L 760.731268 166.096867 
L 766.878476 163.559983 
L 773.025684 160.797142 
L 779.172892 157.804132 
L 785.3201 154.578423 
L 791.467308 151.118181 
L 797.614516 147.426056 
L 804.991166 142.706293 
L 812.367815 137.693326 
L 819.744465 132.406456 
L 827.121115 126.854763 
L 834.497764 121.037411 
L 841.874414 114.949542 
L 849.251063 108.583939 
L 851.709947 106.399559 
L 851.709947 106.399559 
" style="fill:none;stroke:#014d4e;stroke-linecap:square;stroke-width:1.5;"/>
   </g>
   <g id="patch_8">
    <path d="M 550.927059 332.6472 
L 550.927059 84.9312 
" style="fill:none;stroke:#000000;stroke-linecap:square;stroke-linejoin:miter;stroke-width:0.8;"/>
   </g>
   <g id="patch_9">
    <path d="M 866.032941 332.6472 
L 866.032941 84.9312 
" style="fill:none;stroke:#000000;stroke-linecap:square;stroke-linejoin:miter;stroke-width:0.8;"/>
   </g>
   <g id="patch_10">
    <path d="M 550.927059 332.6472 
L 866.032941 332.6472 
" style="fill:none;stroke:#000000;stroke-linecap:square;stroke-linejoin:miter;stroke-width:0.8;"/>
   </g>
   <g id="patch_11">
    <path d="M 550.927059 84.9312 
L 866.032941 84.9312 
" style="fill:none;stroke:#000000;stroke-linecap:square;stroke-linejoin:miter;stroke-width:0.8;"/>
   </g>
   <g id="text_23">
    <!-- Lateral joint 1 -->
    <g transform="translate(666.814687 78.9312)scale(0.12 -0.12)">
     <use xlink:href="#DejaVuSans-76"/>
     <use x="55.712891" xlink:href="#DejaVuSans-97"/>
     <use x="116.992188" xlink:href="#DejaVuSans-116"/>
     <use x="156.201172" xlink:href="#DejaVuSans-101"/>
     <use x="217.724609" xlink:href="#DejaVuSans-114"/>
     <use x="258.837891" xlink:href="#DejaVuSans-97"/>
     <use x="320.117188" xlink:href="#DejaVuSans-108"/>
     <use x="347.900391" xlink:href="#DejaVuSans-32"/>
     <use x="379.6875" xlink:href="#DejaVuSans-106"/>
     <use x="407.470703" xlink:href="#DejaVuSans-111"/>
     <use x="468.652344" xlink:href="#DejaVuSans-105"/>
     <use x="496.435547" xlink:href="#DejaVuSans-110"/>
     <use x="559.814453" xlink:href="#DejaVuSans-116"/>
     <use x="599.023438" xlink:href="#DejaVuSans-32"/>
     <use x="630.810547" xlink:href="#DejaVuSans-49"/>
    </g>
   </g>
  </g>
  <g id="axes_3">
   <g id="patch_12">
    <path d="M 929.054118 332.6472 
L 1244.16 332.6472 
L 1244.16 84.9312 
L 929.054118 84.9312 
z
" style="fill:#ffffff;"/>
   </g>
   <g id="matplotlib.axis_5">
    <g id="xtick_11">
     <g id="line2d_28">
      <g>
       <use style="stroke:#000000;stroke-width:0.8;" x="943.377112" xlink:href="#ma743739a6a" y="332.6472"/>
      </g>
     </g>
     <g id="text_24">
      <!-- 0 -->
      <g transform="translate(940.195862 347.245637)scale(0.1 -0.1)">
       <use xlink:href="#DejaVuSans-48"/>
      </g>
     </g>
    </g>
    <g id="xtick_12">
     <g id="line2d_29">
      <g>
       <use style="stroke:#000000;stroke-width:0.8;" x="1004.849192" xlink:href="#ma743739a6a" y="332.6472"/>
      </g>
     </g>
     <g id="text_25">
      <!-- 50 -->
      <g transform="translate(998.486692 347.245637)scale(0.1 -0.1)">
       <use xlink:href="#DejaVuSans-53"/>
       <use x="63.623047" xlink:href="#DejaVuSans-48"/>
      </g>
     </g>
    </g>
    <g id="xtick_13">
     <g id="line2d_30">
      <g>
       <use style="stroke:#000000;stroke-width:0.8;" x="1066.321272" xlink:href="#ma743739a6a" y="332.6472"/>
      </g>
     </g>
     <g id="text_26">
      <!-- 100 -->
      <g transform="translate(1056.777522 347.245637)scale(0.1 -0.1)">
       <use xlink:href="#DejaVuSans-49"/>
       <use x="63.623047" xlink:href="#DejaVuSans-48"/>
       <use x="127.246094" xlink:href="#DejaVuSans-48"/>
      </g>
     </g>
    </g>
    <g id="xtick_14">
     <g id="line2d_31">
      <g>
       <use style="stroke:#000000;stroke-width:0.8;" x="1127.793352" xlink:href="#ma743739a6a" y="332.6472"/>
      </g>
     </g>
     <g id="text_27">
      <!-- 150 -->
      <g transform="translate(1118.249602 347.245637)scale(0.1 -0.1)">
       <use xlink:href="#DejaVuSans-49"/>
       <use x="63.623047" xlink:href="#DejaVuSans-53"/>
       <use x="127.246094" xlink:href="#DejaVuSans-48"/>
      </g>
     </g>
    </g>
    <g id="xtick_15">
     <g id="line2d_32">
      <g>
       <use style="stroke:#000000;stroke-width:0.8;" x="1189.265433" xlink:href="#ma743739a6a" y="332.6472"/>
      </g>
     </g>
     <g id="text_28">
      <!-- 200 -->
      <g transform="translate(1179.721683 347.245637)scale(0.1 -0.1)">
       <use xlink:href="#DejaVuSans-50"/>
       <use x="63.623047" xlink:href="#DejaVuSans-48"/>
       <use x="127.246094" xlink:href="#DejaVuSans-48"/>
      </g>
     </g>
    </g>
   </g>
   <g id="matplotlib.axis_6">
    <g id="ytick_12">
     <g id="line2d_33">
      <g>
       <use style="stroke:#000000;stroke-width:0.8;" x="929.054118" xlink:href="#m809fede57c" y="328.446619"/>
      </g>
     </g>
     <g id="text_29">
      <!-- −12 -->
      <g transform="translate(900.94943 332.245837)scale(0.1 -0.1)">
       <use xlink:href="#DejaVuSans-8722"/>
       <use x="83.789062" xlink:href="#DejaVuSans-49"/>
       <use x="147.412109" xlink:href="#DejaVuSans-50"/>
      </g>
     </g>
    </g>
    <g id="ytick_13">
     <g id="line2d_34">
      <g>
       <use style="stroke:#000000;stroke-width:0.8;" x="929.054118" xlink:href="#m809fede57c" y="289.746353"/>
      </g>
     </g>
     <g id="text_30">
      <!-- −10 -->
      <g transform="translate(900.94943 293.545572)scale(0.1 -0.1)">
       <use xlink:href="#DejaVuSans-8722"/>
       <use x="83.789062" xlink:href="#DejaVuSans-49"/>
       <use x="147.412109" xlink:href="#DejaVuSans-48"/>
      </g>
     </g>
    </g>
    <g id="ytick_14">
     <g id="line2d_35">
      <g>
       <use style="stroke:#000000;stroke-width:0.8;" x="929.054118" xlink:href="#m809fede57c" y="251.046087"/>
      </g>
     </g>
     <g id="text_31">
      <!-- −8 -->
      <defs>
       <path d="M 31.78125 34.625 
Q 24.75 34.625 20.71875 30.859375 
Q 16.703125 27.09375 16.703125 20.515625 
Q 16.703125 13.921875 20.71875 10.15625 
Q 24.75 6.390625 31.78125 6.390625 
Q 38.8125 6.390625 42.859375 10.171875 
Q 46.921875 13.96875 46.921875 20.515625 
Q 46.921875 27.09375 42.890625 30.859375 
Q 38.875 34.625 31.78125 34.625 
z
M 21.921875 38.8125 
Q 15.578125 40.375 12.03125 44.71875 
Q 8.5 49.078125 8.5 55.328125 
Q 8.5 64.0625 14.71875 69.140625 
Q 20.953125 74.21875 31.78125 74.21875 
Q 42.671875 74.21875 48.875 69.140625 
Q 55.078125 64.0625 55.078125 55.328125 
Q 55.078125 49.078125 51.53125 44.71875 
Q 48 40.375 41.703125 38.8125 
Q 48.828125 37.15625 52.796875 32.3125 
Q 56.78125 27.484375 56.78125 20.515625 
Q 56.78125 9.90625 50.3125 4.234375 
Q 43.84375 -1.421875 31.78125 -1.421875 
Q 19.734375 -1.421875 13.25 4.234375 
Q 6.78125 9.90625 6.78125 20.515625 
Q 6.78125 27.484375 10.78125 32.3125 
Q 14.796875 37.15625 21.921875 38.8125 
z
M 18.3125 54.390625 
Q 18.3125 48.734375 21.84375 45.5625 
Q 25.390625 42.390625 31.78125 42.390625 
Q 38.140625 42.390625 41.71875 45.5625 
Q 45.3125 48.734375 45.3125 54.390625 
Q 45.3125 60.0625 41.71875 63.234375 
Q 38.140625 66.40625 31.78125 66.40625 
Q 25.390625 66.40625 21.84375 63.234375 
Q 18.3125 60.0625 18.3125 54.390625 
z
" id="DejaVuSans-56"/>
      </defs>
      <g transform="translate(907.31193 254.845306)scale(0.1 -0.1)">
       <use xlink:href="#DejaVuSans-8722"/>
       <use x="83.789062" xlink:href="#DejaVuSans-56"/>
      </g>
     </g>
    </g>
    <g id="ytick_15">
     <g id="line2d_36">
      <g>
       <use style="stroke:#000000;stroke-width:0.8;" x="929.054118" xlink:href="#m809fede57c" y="212.345821"/>
      </g>
     </g>
     <g id="text_32">
      <!-- −6 -->
      <defs>
       <path d="M 33.015625 40.375 
Q 26.375 40.375 22.484375 35.828125 
Q 18.609375 31.296875 18.609375 23.390625 
Q 18.609375 15.53125 22.484375 10.953125 
Q 26.375 6.390625 33.015625 6.390625 
Q 39.65625 6.390625 43.53125 10.953125 
Q 47.40625 15.53125 47.40625 23.390625 
Q 47.40625 31.296875 43.53125 35.828125 
Q 39.65625 40.375 33.015625 40.375 
z
M 52.59375 71.296875 
L 52.59375 62.3125 
Q 48.875 64.0625 45.09375 64.984375 
Q 41.3125 65.921875 37.59375 65.921875 
Q 27.828125 65.921875 22.671875 59.328125 
Q 17.53125 52.734375 16.796875 39.40625 
Q 19.671875 43.65625 24.015625 45.921875 
Q 28.375 48.1875 33.59375 48.1875 
Q 44.578125 48.1875 50.953125 41.515625 
Q 57.328125 34.859375 57.328125 23.390625 
Q 57.328125 12.15625 50.6875 5.359375 
Q 44.046875 -1.421875 33.015625 -1.421875 
Q 20.359375 -1.421875 13.671875 8.265625 
Q 6.984375 17.96875 6.984375 36.375 
Q 6.984375 53.65625 15.1875 63.9375 
Q 23.390625 74.21875 37.203125 74.21875 
Q 40.921875 74.21875 44.703125 73.484375 
Q 48.484375 72.75 52.59375 71.296875 
z
" id="DejaVuSans-54"/>
      </defs>
      <g transform="translate(907.31193 216.14504)scale(0.1 -0.1)">
       <use xlink:href="#DejaVuSans-8722"/>
       <use x="83.789062" xlink:href="#DejaVuSans-54"/>
      </g>
     </g>
    </g>
    <g id="ytick_16">
     <g id="line2d_37">
      <g>
       <use style="stroke:#000000;stroke-width:0.8;" x="929.054118" xlink:href="#m809fede57c" y="173.645555"/>
      </g>
     </g>
     <g id="text_33">
      <!-- −4 -->
      <g transform="translate(907.31193 177.444774)scale(0.1 -0.1)">
       <use xlink:href="#DejaVuSans-8722"/>
       <use x="83.789062" xlink:href="#DejaVuSans-52"/>
      </g>
     </g>
    </g>
    <g id="ytick_17">
     <g id="line2d_38">
      <g>
       <use style="stroke:#000000;stroke-width:0.8;" x="929.054118" xlink:href="#m809fede57c" y="134.945289"/>
      </g>
     </g>
     <g id="text_34">
      <!-- −2 -->
      <g transform="translate(907.31193 138.744508)scale(0.1 -0.1)">
       <use xlink:href="#DejaVuSans-8722"/>
       <use x="83.789062" xlink:href="#DejaVuSans-50"/>
      </g>
     </g>
    </g>
    <g id="ytick_18">
     <g id="line2d_39">
      <g>
       <use style="stroke:#000000;stroke-width:0.8;" x="929.054118" xlink:href="#m809fede57c" y="96.245023"/>
      </g>
     </g>
     <g id="text_35">
      <!-- 0 -->
      <g transform="translate(915.691618 100.044242)scale(0.1 -0.1)">
       <use xlink:href="#DejaVuSans-48"/>
      </g>
     </g>
    </g>
   </g>
   <g id="line2d_40">
    <path clip-path="url(#pd2558ded2e)" d="M 943.377112 96.191018 
L 945.835996 96.65824 
L 948.294879 96.534673 
L 950.753762 96.830125 
L 953.212645 96.461043 
L 956.90097 96.908245 
L 958.130412 96.839334 
L 960.589295 97.162317 
L 963.048178 96.720918 
L 964.27762 96.797871 
L 965.507061 97.025326 
L 967.965944 96.949669 
L 970.424828 97.420224 
L 971.654269 97.365783 
L 972.883711 97.19044 
L 974.113152 97.326364 
L 975.342594 97.652104 
L 977.801477 97.845684 
L 979.030919 98.193857 
L 980.26036 98.672428 
L 981.489802 98.843723 
L 982.719244 98.813842 
L 983.948685 99.030646 
L 985.178127 99.438648 
L 986.407568 99.645754 
L 987.63701 99.731596 
L 988.866452 100.109861 
L 990.095893 100.628607 
L 991.325335 100.874951 
L 992.554776 100.884977 
L 993.784218 101.075066 
L 995.01366 101.447264 
L 996.243101 101.637067 
L 997.472543 101.691056 
L 998.701984 102.012826 
L 999.931426 102.559767 
L 1001.160868 102.880266 
L 1002.390309 102.950865 
L 1003.619751 103.190008 
L 1004.849192 103.632149 
L 1006.078634 103.892734 
L 1007.308076 103.982557 
L 1008.537517 104.333656 
L 1009.766959 104.953187 
L 1010.9964 105.372485 
L 1012.225842 105.516382 
L 1013.455284 105.801474 
L 1014.684725 106.285635 
L 1015.914167 106.563719 
L 1017.143608 106.616604 
L 1018.37305 106.906049 
L 1019.602492 107.488844 
L 1020.831933 107.891166 
L 1022.061375 108.007986 
L 1023.290816 108.265232 
L 1024.520258 108.739564 
L 1025.7497 109.00676 
L 1026.979141 109.026956 
L 1028.208583 109.286919 
L 1029.438024 109.881295 
L 1030.667466 110.334191 
L 1031.896908 110.525265 
L 1033.126349 110.888116 
L 1034.355791 111.500356 
L 1035.585232 111.908412 
L 1036.814674 112.055532 
L 1038.044116 112.44995 
L 1039.273557 113.197285 
L 1040.502999 113.808211 
L 1041.73244 114.165456 
L 1042.961882 114.717948 
L 1044.191324 115.523386 
L 1045.420765 116.089905 
L 1046.650207 116.363885 
L 1047.879648 116.872024 
L 1049.10909 117.719413 
L 1050.338532 118.402852 
L 1051.567973 118.832506 
L 1052.797415 119.489158 
L 1054.026856 120.402009 
L 1055.256298 121.038879 
L 1056.48574 121.370372 
L 1057.715181 121.952695 
L 1058.944623 122.867266 
L 1060.174064 123.585562 
L 1061.403506 124.077019 
L 1062.632948 124.86643 
L 1063.862389 125.925045 
L 1065.091831 126.674362 
L 1066.321272 127.138795 
L 1067.550714 127.910803 
L 1068.780156 128.9795 
L 1070.009597 129.797623 
L 1071.239039 130.439344 
L 1072.46848 131.457 
L 1073.697922 132.71361 
L 1074.927364 133.606209 
L 1076.156805 134.264297 
L 1077.386247 135.278424 
L 1078.615688 136.49226 
L 1081.074572 138.180451 
L 1082.304013 139.402827 
L 1083.533455 140.794796 
L 1087.22178 143.903312 
L 1088.451221 145.26957 
L 1090.910104 147.255454 
L 1093.368988 150.305416 
L 1095.827871 152.655814 
L 1098.286754 155.87773 
L 1100.745637 158.497149 
L 1103.20452 162.243555 
L 1105.663404 165.433138 
L 1108.122287 169.552865 
L 1109.351728 171.201673 
L 1110.58117 173.053792 
L 1113.040053 177.602744 
L 1114.269495 179.492868 
L 1115.498936 181.617589 
L 1117.95782 186.45097 
L 1119.187261 188.377487 
L 1120.416703 190.604299 
L 1122.875586 195.608587 
L 1124.105028 197.654023 
L 1125.334469 200.030635 
L 1126.563911 202.77709 
L 1127.793352 205.17385 
L 1129.022794 207.221359 
L 1130.252236 209.574797 
L 1131.481677 212.258899 
L 1132.711119 214.583702 
L 1133.94056 216.538662 
L 1135.170002 218.798614 
L 1136.399444 221.392925 
L 1137.628885 223.626647 
L 1138.858327 225.403263 
L 1140.087768 227.38303 
L 1141.31721 229.682194 
L 1142.546652 231.634856 
L 1145.005535 234.609729 
L 1146.234976 236.560308 
L 1147.464418 238.187488 
L 1149.923301 240.201018 
L 1151.152743 241.567563 
L 1152.382184 242.63907 
L 1153.611626 242.989223 
L 1154.841068 243.195302 
L 1156.070509 270.044888 
L 1157.299951 255.741606 
L 1158.529392 227.686251 
L 1159.758834 245.55 
L 1160.988276 276.972985 
L 1162.217717 268.672271 
L 1163.447159 238.620067 
L 1164.6766 241.178072 
L 1165.906042 274.459161 
L 1167.135484 286.042237 
L 1168.364925 260.876197 
L 1169.594367 242.993101 
L 1170.823808 256.799822 
L 1172.05325 291.544693 
L 1173.282692 292.608135 
L 1174.512133 261.060397 
L 1175.741575 249.906457 
L 1176.971017 278.896205 
L 1178.200458 303.833275 
L 1179.4299 287.323645 
L 1180.659341 258.875116 
L 1181.888783 266.401892 
L 1183.118225 298.672147 
L 1184.347666 304.120144 
L 1185.577108 275.153456 
L 1186.806549 260.145899 
L 1189.265433 304.098185 
L 1190.494874 287.339353 
L 1191.724316 259.617687 
L 1192.953757 265.182736 
L 1194.183199 291.102199 
L 1195.412641 290.481566 
L 1196.642082 261.841141 
L 1197.871524 252.432178 
L 1199.100965 275.363439 
L 1200.330407 287.096585 
L 1201.559849 265.016872 
L 1202.78929 247.971989 
L 1204.018732 265.661371 
L 1205.248173 220.33128 
L 1206.477615 315.039962 
L 1207.707057 321.387382 
L 1208.936498 220.86772 
L 1210.16594 200.1951 
L 1211.395381 295.366631 
L 1212.624823 320.281716 
L 1213.854265 224.271836 
L 1215.083706 195.518771 
L 1216.313148 288.518 
L 1217.542589 314.127395 
L 1218.772031 216.250145 
L 1220.001473 191.178773 
L 1221.230914 282.278522 
L 1222.460356 297.575509 
L 1223.689797 194.675425 
L 1224.919239 190.925865 
L 1226.148681 289.339135 
L 1227.378122 271.203249 
L 1228.607564 171.86319 
L 1229.837005 207.313165 
L 1229.837005 207.313165 
" style="fill:none;stroke:#ff796c;stroke-linecap:square;stroke-width:1.5;"/>
   </g>
   <g id="line2d_41">
    <path clip-path="url(#pd2558ded2e)" d="M 943.377112 109.090815 
L 1083.533455 108.978896 
L 1122.875586 108.615595 
L 1141.31721 108.263384 
L 1154.841068 107.806169 
L 1158.529392 107.691221 
L 1167.135484 107.36129 
L 1170.823808 107.266409 
L 1174.512133 107.110547 
L 1181.888783 106.797236 
L 1185.577108 106.636588 
L 1188.035991 106.500848 
L 1201.559849 105.481198 
L 1205.248173 105.296958 
L 1207.707057 105.054248 
L 1210.16594 105.054589 
L 1212.624823 104.75116 
L 1215.083706 104.696239 
L 1217.542589 104.349651 
L 1220.001473 104.269987 
L 1222.460356 103.946404 
L 1224.919239 103.853122 
L 1226.148681 103.642984 
L 1229.837005 103.401655 
L 1229.837005 103.401655 
" style="fill:none;stroke:#ffff14;stroke-linecap:square;stroke-width:1.5;"/>
   </g>
   <g id="line2d_42">
    <path clip-path="url(#pd2558ded2e)" d="M 943.377112 109.090811 
L 1057.715181 108.981408 
L 1090.910104 108.711517 
L 1116.728378 108.275929 
L 1138.858327 107.681906 
L 1159.758834 106.901598 
L 1180.659341 105.90152 
L 1204.018732 104.558131 
L 1228.607564 102.919572 
L 1229.837005 102.831368 
L 1229.837005 102.831368 
" style="fill:none;stroke:#014d4e;stroke-linecap:square;stroke-width:1.5;"/>
   </g>
   <g id="patch_13">
    <path d="M 929.054118 332.6472 
L 929.054118 84.9312 
" style="fill:none;stroke:#000000;stroke-linecap:square;stroke-linejoin:miter;stroke-width:0.8;"/>
   </g>
   <g id="patch_14">
    <path d="M 1244.16 332.6472 
L 1244.16 84.9312 
" style="fill:none;stroke:#000000;stroke-linecap:square;stroke-linejoin:miter;stroke-width:0.8;"/>
   </g>
   <g id="patch_15">
    <path d="M 929.054118 332.6472 
L 1244.16 332.6472 
" style="fill:none;stroke:#000000;stroke-linecap:square;stroke-linejoin:miter;stroke-width:0.8;"/>
   </g>
   <g id="patch_16">
    <path d="M 929.054118 84.9312 
L 1244.16 84.9312 
" style="fill:none;stroke:#000000;stroke-linecap:square;stroke-linejoin:miter;stroke-width:0.8;"/>
   </g>
   <g id="text_36">
    <!-- Lateral joint 2 -->
    <g transform="translate(1044.941746 78.9312)scale(0.12 -0.12)">
     <use xlink:href="#DejaVuSans-76"/>
     <use x="55.712891" xlink:href="#DejaVuSans-97"/>
     <use x="116.992188" xlink:href="#DejaVuSans-116"/>
     <use x="156.201172" xlink:href="#DejaVuSans-101"/>
     <use x="217.724609" xlink:href="#DejaVuSans-114"/>
     <use x="258.837891" xlink:href="#DejaVuSans-97"/>
     <use x="320.117188" xlink:href="#DejaVuSans-108"/>
     <use x="347.900391" xlink:href="#DejaVuSans-32"/>
     <use x="379.6875" xlink:href="#DejaVuSans-106"/>
     <use x="407.470703" xlink:href="#DejaVuSans-111"/>
     <use x="468.652344" xlink:href="#DejaVuSans-105"/>
     <use x="496.435547" xlink:href="#DejaVuSans-110"/>
     <use x="559.814453" xlink:href="#DejaVuSans-116"/>
     <use x="599.023438" xlink:href="#DejaVuSans-32"/>
     <use x="630.810547" xlink:href="#DejaVuSans-50"/>
    </g>
   </g>
  </g>
  <g id="axes_4">
   <g id="patch_17">
    <path d="M 172.8 629.9064 
L 487.905882 629.9064 
L 487.905882 382.1904 
L 172.8 382.1904 
z
" style="fill:#ffffff;"/>
   </g>
   <g id="matplotlib.axis_7">
    <g id="xtick_16">
     <g id="line2d_43">
      <g>
       <use style="stroke:#000000;stroke-width:0.8;" x="187.122995" xlink:href="#ma743739a6a" y="629.9064"/>
      </g>
     </g>
     <g id="text_37">
      <!-- 0 -->
      <g transform="translate(183.941745 644.504838)scale(0.1 -0.1)">
       <use xlink:href="#DejaVuSans-48"/>
      </g>
     </g>
    </g>
    <g id="xtick_17">
     <g id="line2d_44">
      <g>
       <use style="stroke:#000000;stroke-width:0.8;" x="248.595075" xlink:href="#ma743739a6a" y="629.9064"/>
      </g>
     </g>
     <g id="text_38">
      <!-- 50 -->
      <g transform="translate(242.232575 644.504838)scale(0.1 -0.1)">
       <use xlink:href="#DejaVuSans-53"/>
       <use x="63.623047" xlink:href="#DejaVuSans-48"/>
      </g>
     </g>
    </g>
    <g id="xtick_18">
     <g id="line2d_45">
      <g>
       <use style="stroke:#000000;stroke-width:0.8;" x="310.067155" xlink:href="#ma743739a6a" y="629.9064"/>
      </g>
     </g>
     <g id="text_39">
      <!-- 100 -->
      <g transform="translate(300.523405 644.504838)scale(0.1 -0.1)">
       <use xlink:href="#DejaVuSans-49"/>
       <use x="63.623047" xlink:href="#DejaVuSans-48"/>
       <use x="127.246094" xlink:href="#DejaVuSans-48"/>
      </g>
     </g>
    </g>
    <g id="xtick_19">
     <g id="line2d_46">
      <g>
       <use style="stroke:#000000;stroke-width:0.8;" x="371.539235" xlink:href="#ma743739a6a" y="629.9064"/>
      </g>
     </g>
     <g id="text_40">
      <!-- 150 -->
      <g transform="translate(361.995485 644.504838)scale(0.1 -0.1)">
       <use xlink:href="#DejaVuSans-49"/>
       <use x="63.623047" xlink:href="#DejaVuSans-53"/>
       <use x="127.246094" xlink:href="#DejaVuSans-48"/>
      </g>
     </g>
    </g>
    <g id="xtick_20">
     <g id="line2d_47">
      <g>
       <use style="stroke:#000000;stroke-width:0.8;" x="433.011315" xlink:href="#ma743739a6a" y="629.9064"/>
      </g>
     </g>
     <g id="text_41">
      <!-- 200 -->
      <g transform="translate(423.467565 644.504838)scale(0.1 -0.1)">
       <use xlink:href="#DejaVuSans-50"/>
       <use x="63.623047" xlink:href="#DejaVuSans-48"/>
       <use x="127.246094" xlink:href="#DejaVuSans-48"/>
      </g>
     </g>
    </g>
   </g>
   <g id="matplotlib.axis_8">
    <g id="ytick_19">
     <g id="line2d_48">
      <g>
       <use style="stroke:#000000;stroke-width:0.8;" x="172.8" xlink:href="#m809fede57c" y="624.697767"/>
      </g>
     </g>
     <g id="text_42">
      <!-- −14 -->
      <g transform="translate(144.695312 628.496986)scale(0.1 -0.1)">
       <use xlink:href="#DejaVuSans-8722"/>
       <use x="83.789062" xlink:href="#DejaVuSans-49"/>
       <use x="147.412109" xlink:href="#DejaVuSans-52"/>
      </g>
     </g>
    </g>
    <g id="ytick_20">
     <g id="line2d_49">
      <g>
       <use style="stroke:#000000;stroke-width:0.8;" x="172.8" xlink:href="#m809fede57c" y="591.669879"/>
      </g>
     </g>
     <g id="text_43">
      <!-- −12 -->
      <g transform="translate(144.695312 595.469098)scale(0.1 -0.1)">
       <use xlink:href="#DejaVuSans-8722"/>
       <use x="83.789062" xlink:href="#DejaVuSans-49"/>
       <use x="147.412109" xlink:href="#DejaVuSans-50"/>
      </g>
     </g>
    </g>
    <g id="ytick_21">
     <g id="line2d_50">
      <g>
       <use style="stroke:#000000;stroke-width:0.8;" x="172.8" xlink:href="#m809fede57c" y="558.641991"/>
      </g>
     </g>
     <g id="text_44">
      <!-- −10 -->
      <g transform="translate(144.695312 562.44121)scale(0.1 -0.1)">
       <use xlink:href="#DejaVuSans-8722"/>
       <use x="83.789062" xlink:href="#DejaVuSans-49"/>
       <use x="147.412109" xlink:href="#DejaVuSans-48"/>
      </g>
     </g>
    </g>
    <g id="ytick_22">
     <g id="line2d_51">
      <g>
       <use style="stroke:#000000;stroke-width:0.8;" x="172.8" xlink:href="#m809fede57c" y="525.614103"/>
      </g>
     </g>
     <g id="text_45">
      <!-- −8 -->
      <g transform="translate(151.057812 529.413322)scale(0.1 -0.1)">
       <use xlink:href="#DejaVuSans-8722"/>
       <use x="83.789062" xlink:href="#DejaVuSans-56"/>
      </g>
     </g>
    </g>
    <g id="ytick_23">
     <g id="line2d_52">
      <g>
       <use style="stroke:#000000;stroke-width:0.8;" x="172.8" xlink:href="#m809fede57c" y="492.586216"/>
      </g>
     </g>
     <g id="text_46">
      <!-- −6 -->
      <g transform="translate(151.057812 496.385434)scale(0.1 -0.1)">
       <use xlink:href="#DejaVuSans-8722"/>
       <use x="83.789062" xlink:href="#DejaVuSans-54"/>
      </g>
     </g>
    </g>
    <g id="ytick_24">
     <g id="line2d_53">
      <g>
       <use style="stroke:#000000;stroke-width:0.8;" x="172.8" xlink:href="#m809fede57c" y="459.558328"/>
      </g>
     </g>
     <g id="text_47">
      <!-- −4 -->
      <g transform="translate(151.057812 463.357546)scale(0.1 -0.1)">
       <use xlink:href="#DejaVuSans-8722"/>
       <use x="83.789062" xlink:href="#DejaVuSans-52"/>
      </g>
     </g>
    </g>
    <g id="ytick_25">
     <g id="line2d_54">
      <g>
       <use style="stroke:#000000;stroke-width:0.8;" x="172.8" xlink:href="#m809fede57c" y="426.53044"/>
      </g>
     </g>
     <g id="text_48">
      <!-- −2 -->
      <g transform="translate(151.057812 430.329658)scale(0.1 -0.1)">
       <use xlink:href="#DejaVuSans-8722"/>
       <use x="83.789062" xlink:href="#DejaVuSans-50"/>
      </g>
     </g>
    </g>
    <g id="ytick_26">
     <g id="line2d_55">
      <g>
       <use style="stroke:#000000;stroke-width:0.8;" x="172.8" xlink:href="#m809fede57c" y="393.502552"/>
      </g>
     </g>
     <g id="text_49">
      <!-- 0 -->
      <g transform="translate(159.4375 397.301771)scale(0.1 -0.1)">
       <use xlink:href="#DejaVuSans-48"/>
      </g>
     </g>
    </g>
   </g>
   <g id="line2d_56">
    <path clip-path="url(#pf51dc0f123)" d="M 187.122995 393.450218 
L 192.040761 394.199317 
L 193.270203 394.298853 
L 194.499644 394.275667 
L 196.958527 393.908014 
L 198.187969 394.030529 
L 200.646852 394.455863 
L 204.335177 394.653571 
L 206.79406 394.049114 
L 208.023502 393.952867 
L 212.941268 394.375972 
L 214.17071 394.524214 
L 217.859035 394.22406 
L 220.317918 394.641557 
L 221.547359 394.925437 
L 224.006243 395.882764 
L 225.235684 396.128876 
L 227.694567 396.333049 
L 231.382892 397.152639 
L 233.841775 398.183106 
L 235.071217 398.496919 
L 238.759542 398.850179 
L 241.218425 399.138188 
L 242.447867 399.518853 
L 243.677308 400.052039 
L 244.90675 400.439943 
L 251.053958 401.456449 
L 252.2834 401.875769 
L 254.742283 403.009345 
L 258.430608 403.897982 
L 262.118932 404.438345 
L 264.577816 405.356471 
L 268.26614 406.047327 
L 271.954465 406.321474 
L 274.413348 407.225533 
L 276.872232 407.929068 
L 278.101673 408.374028 
L 279.331115 408.676841 
L 280.560556 408.860604 
L 281.789998 409.240674 
L 289.166648 413.069759 
L 290.396089 413.432038 
L 291.625531 413.93558 
L 297.772739 417.585402 
L 299.00218 418.185545 
L 300.231622 418.580026 
L 301.461064 419.099359 
L 306.37883 422.042953 
L 307.608272 422.994792 
L 308.837713 423.738894 
L 310.067155 424.293173 
L 311.296596 424.996098 
L 316.214363 428.591157 
L 317.443804 429.76466 
L 318.673246 430.713137 
L 319.902688 431.490813 
L 324.820454 435.273908 
L 328.508779 438.780132 
L 329.73822 439.711587 
L 335.885428 445.357205 
L 337.11487 446.807213 
L 339.573753 449.322659 
L 345.720961 456.8236 
L 353.097611 468.117195 
L 354.327052 470.096375 
L 360.47426 481.677543 
L 369.080352 498.728389 
L 371.539235 504.075548 
L 373.998118 508.953143 
L 376.457001 514.073531 
L 378.915884 518.789451 
L 381.374768 523.79266 
L 383.833651 528.106998 
L 386.292534 532.473853 
L 388.751417 536.014521 
L 389.980859 537.966971 
L 391.2103 539.707188 
L 394.898625 543.703024 
L 396.128067 544.795998 
L 397.357508 545.391507 
L 398.58695 545.786849 
L 399.816392 560.837689 
L 401.045833 554.405016 
L 402.275275 540.75387 
L 403.504716 551.165032 
L 404.734158 568.977052 
L 405.9636 565.940191 
L 407.193041 551.456595 
L 408.422483 554.539504 
L 409.651924 574.247798 
L 410.881366 582.13004 
L 412.110808 569.686796 
L 413.340249 560.944584 
L 414.569691 570.55788 
L 415.799132 591.382866 
L 417.028574 593.212298 
L 418.258016 576.750191 
L 419.487457 571.672371 
L 420.716899 589.165415 
L 421.94634 604.66595 
L 423.175782 597.222487 
L 424.405224 583.156396 
L 425.634665 589.08223 
L 426.864107 608.566039 
L 428.093548 612.634832 
L 429.32299 597.027919 
L 430.552432 588.948646 
L 433.011315 613.678354 
L 434.240756 604.039973 
L 435.470198 588.065087 
L 436.69964 590.556763 
L 437.929081 604.174793 
L 439.158523 602.582875 
L 440.387964 585.092994 
L 441.617406 578.487825 
L 442.846848 590.341995 
L 444.076289 596.35295 
L 445.305731 583.926459 
L 446.535172 574.900702 
L 447.764614 585.80549 
L 448.994056 558.850112 
L 450.223497 613.664248 
L 451.452939 618.066346 
L 452.68238 562.065153 
L 453.911822 550.779484 
L 455.141264 604.520132 
L 456.370705 618.646582 
L 457.600147 564.705124 
L 458.829588 548.571181 
L 460.05903 600.749212 
L 461.288472 614.662802 
L 462.517913 558.654684 
L 463.747355 543.259878 
L 464.976796 594.274908 
L 466.206238 602.186864 
L 467.43568 543.475593 
L 468.665121 539.568576 
L 469.894563 592.273097 
L 471.124004 580.126236 
L 472.353446 522.979076 
L 473.582888 541.198884 
L 473.582888 541.198884 
" style="fill:none;stroke:#ff796c;stroke-linecap:square;stroke-width:1.5;"/>
   </g>
   <g id="line2d_57">
    <path clip-path="url(#pf51dc0f123)" d="M 187.122995 404.46749 
L 249.824516 404.36294 
L 323.591012 403.940843 
L 350.638728 403.51001 
L 397.357508 402.445199 
L 405.9636 402.341364 
L 413.340249 402.110767 
L 428.093548 401.897479 
L 431.781873 401.781616 
L 436.69964 401.889025 
L 441.617406 402.088019 
L 445.305731 402.117961 
L 458.829588 401.850025 
L 461.288472 401.975866 
L 473.582888 401.94092 
L 473.582888 401.94092 
" style="fill:none;stroke:#ffff14;stroke-linecap:square;stroke-width:1.5;"/>
   </g>
   <g id="line2d_58">
    <path clip-path="url(#pf51dc0f123)" d="M 187.122995 404.467478 
L 351.868169 404.356561 
L 399.816392 404.084169 
L 445.305731 403.593369 
L 473.582888 403.19024 
L 473.582888 403.19024 
" style="fill:none;stroke:#014d4e;stroke-linecap:square;stroke-width:1.5;"/>
   </g>
   <g id="patch_18">
    <path d="M 172.8 629.9064 
L 172.8 382.1904 
" style="fill:none;stroke:#000000;stroke-linecap:square;stroke-linejoin:miter;stroke-width:0.8;"/>
   </g>
   <g id="patch_19">
    <path d="M 487.905882 629.9064 
L 487.905882 382.1904 
" style="fill:none;stroke:#000000;stroke-linecap:square;stroke-linejoin:miter;stroke-width:0.8;"/>
   </g>
   <g id="patch_20">
    <path d="M 172.8 629.9064 
L 487.905882 629.9064 
" style="fill:none;stroke:#000000;stroke-linecap:square;stroke-linejoin:miter;stroke-width:0.8;"/>
   </g>
   <g id="patch_21">
    <path d="M 172.8 382.1904 
L 487.905882 382.1904 
" style="fill:none;stroke:#000000;stroke-linecap:square;stroke-linejoin:miter;stroke-width:0.8;"/>
   </g>
   <g id="text_50">
    <!-- Lateral joint 3 -->
    <g transform="translate(288.687629 376.1904)scale(0.12 -0.12)">
     <use xlink:href="#DejaVuSans-76"/>
     <use x="55.712891" xlink:href="#DejaVuSans-97"/>
     <use x="116.992188" xlink:href="#DejaVuSans-116"/>
     <use x="156.201172" xlink:href="#DejaVuSans-101"/>
     <use x="217.724609" xlink:href="#DejaVuSans-114"/>
     <use x="258.837891" xlink:href="#DejaVuSans-97"/>
     <use x="320.117188" xlink:href="#DejaVuSans-108"/>
     <use x="347.900391" xlink:href="#DejaVuSans-32"/>
     <use x="379.6875" xlink:href="#DejaVuSans-106"/>
     <use x="407.470703" xlink:href="#DejaVuSans-111"/>
     <use x="468.652344" xlink:href="#DejaVuSans-105"/>
     <use x="496.435547" xlink:href="#DejaVuSans-110"/>
     <use x="559.814453" xlink:href="#DejaVuSans-116"/>
     <use x="599.023438" xlink:href="#DejaVuSans-32"/>
     <use x="630.810547" xlink:href="#DejaVuSans-51"/>
    </g>
   </g>
  </g>
  <g id="axes_5">
   <g id="patch_22">
    <path d="M 550.927059 629.9064 
L 866.032941 629.9064 
L 866.032941 382.1904 
L 550.927059 382.1904 
z
" style="fill:#ffffff;"/>
   </g>
   <g id="matplotlib.axis_9">
    <g id="xtick_21">
     <g id="line2d_59">
      <g>
       <use style="stroke:#000000;stroke-width:0.8;" x="565.250053" xlink:href="#ma743739a6a" y="629.9064"/>
      </g>
     </g>
     <g id="text_51">
      <!-- 0 -->
      <g transform="translate(562.068803 644.504838)scale(0.1 -0.1)">
       <use xlink:href="#DejaVuSans-48"/>
      </g>
     </g>
    </g>
    <g id="xtick_22">
     <g id="line2d_60">
      <g>
       <use style="stroke:#000000;stroke-width:0.8;" x="626.722134" xlink:href="#ma743739a6a" y="629.9064"/>
      </g>
     </g>
     <g id="text_52">
      <!-- 50 -->
      <g transform="translate(620.359634 644.504838)scale(0.1 -0.1)">
       <use xlink:href="#DejaVuSans-53"/>
       <use x="63.623047" xlink:href="#DejaVuSans-48"/>
      </g>
     </g>
    </g>
    <g id="xtick_23">
     <g id="line2d_61">
      <g>
       <use style="stroke:#000000;stroke-width:0.8;" x="688.194214" xlink:href="#ma743739a6a" y="629.9064"/>
      </g>
     </g>
     <g id="text_53">
      <!-- 100 -->
      <g transform="translate(678.650464 644.504838)scale(0.1 -0.1)">
       <use xlink:href="#DejaVuSans-49"/>
       <use x="63.623047" xlink:href="#DejaVuSans-48"/>
       <use x="127.246094" xlink:href="#DejaVuSans-48"/>
      </g>
     </g>
    </g>
    <g id="xtick_24">
     <g id="line2d_62">
      <g>
       <use style="stroke:#000000;stroke-width:0.8;" x="749.666294" xlink:href="#ma743739a6a" y="629.9064"/>
      </g>
     </g>
     <g id="text_54">
      <!-- 150 -->
      <g transform="translate(740.122544 644.504838)scale(0.1 -0.1)">
       <use xlink:href="#DejaVuSans-49"/>
       <use x="63.623047" xlink:href="#DejaVuSans-53"/>
       <use x="127.246094" xlink:href="#DejaVuSans-48"/>
      </g>
     </g>
    </g>
    <g id="xtick_25">
     <g id="line2d_63">
      <g>
       <use style="stroke:#000000;stroke-width:0.8;" x="811.138374" xlink:href="#ma743739a6a" y="629.9064"/>
      </g>
     </g>
     <g id="text_55">
      <!-- 200 -->
      <g transform="translate(801.594624 644.504838)scale(0.1 -0.1)">
       <use xlink:href="#DejaVuSans-50"/>
       <use x="63.623047" xlink:href="#DejaVuSans-48"/>
       <use x="127.246094" xlink:href="#DejaVuSans-48"/>
      </g>
     </g>
    </g>
   </g>
   <g id="matplotlib.axis_10">
    <g id="ytick_27">
     <g id="line2d_64">
      <g>
       <use style="stroke:#000000;stroke-width:0.8;" x="550.927059" xlink:href="#m809fede57c" y="586.408144"/>
      </g>
     </g>
     <g id="text_56">
      <!-- −8 -->
      <g transform="translate(529.184871 590.207362)scale(0.1 -0.1)">
       <use xlink:href="#DejaVuSans-8722"/>
       <use x="83.789062" xlink:href="#DejaVuSans-56"/>
      </g>
     </g>
    </g>
    <g id="ytick_28">
     <g id="line2d_65">
      <g>
       <use style="stroke:#000000;stroke-width:0.8;" x="550.927059" xlink:href="#m809fede57c" y="538.186771"/>
      </g>
     </g>
     <g id="text_57">
      <!-- −6 -->
      <g transform="translate(529.184871 541.98599)scale(0.1 -0.1)">
       <use xlink:href="#DejaVuSans-8722"/>
       <use x="83.789062" xlink:href="#DejaVuSans-54"/>
      </g>
     </g>
    </g>
    <g id="ytick_29">
     <g id="line2d_66">
      <g>
       <use style="stroke:#000000;stroke-width:0.8;" x="550.927059" xlink:href="#m809fede57c" y="489.965399"/>
      </g>
     </g>
     <g id="text_58">
      <!-- −4 -->
      <g transform="translate(529.184871 493.764618)scale(0.1 -0.1)">
       <use xlink:href="#DejaVuSans-8722"/>
       <use x="83.789062" xlink:href="#DejaVuSans-52"/>
      </g>
     </g>
    </g>
    <g id="ytick_30">
     <g id="line2d_67">
      <g>
       <use style="stroke:#000000;stroke-width:0.8;" x="550.927059" xlink:href="#m809fede57c" y="441.744027"/>
      </g>
     </g>
     <g id="text_59">
      <!-- −2 -->
      <g transform="translate(529.184871 445.543245)scale(0.1 -0.1)">
       <use xlink:href="#DejaVuSans-8722"/>
       <use x="83.789062" xlink:href="#DejaVuSans-50"/>
      </g>
     </g>
    </g>
    <g id="ytick_31">
     <g id="line2d_68">
      <g>
       <use style="stroke:#000000;stroke-width:0.8;" x="550.927059" xlink:href="#m809fede57c" y="393.522654"/>
      </g>
     </g>
     <g id="text_60">
      <!-- 0 -->
      <g transform="translate(537.564559 397.321873)scale(0.1 -0.1)">
       <use xlink:href="#DejaVuSans-48"/>
      </g>
     </g>
    </g>
   </g>
   <g id="line2d_69">
    <path clip-path="url(#p98ce261779)" d="M 565.250053 393.450218 
L 566.479495 393.737114 
L 568.938378 394.569427 
L 570.16782 394.739859 
L 571.397261 394.712951 
L 572.626703 394.437589 
L 573.856145 393.990743 
L 575.085586 393.678396 
L 576.315028 393.732061 
L 580.003353 394.741602 
L 581.232794 394.894151 
L 582.462236 394.768406 
L 584.921119 393.859501 
L 586.150561 393.652334 
L 587.380002 393.756873 
L 589.838885 394.357834 
L 591.068327 394.694995 
L 592.297769 394.833 
L 593.52721 394.628747 
L 594.756652 394.25416 
L 595.986094 394.029802 
L 597.215535 394.079395 
L 598.444977 394.341815 
L 599.674418 394.794559 
L 602.133302 395.926036 
L 603.362743 396.125889 
L 605.821626 395.962867 
L 607.051068 396.031369 
L 608.28051 396.25728 
L 609.509951 396.689642 
L 611.968834 398.063933 
L 613.198276 398.472897 
L 614.427718 398.553466 
L 616.886601 398.477902 
L 618.116042 398.524283 
L 619.345484 398.754158 
L 620.574926 399.27681 
L 621.804367 399.949621 
L 623.033809 400.457901 
L 624.26325 400.676299 
L 629.181017 400.9025 
L 630.410458 401.363382 
L 632.869342 402.690719 
L 634.098783 403.067952 
L 635.328225 403.260613 
L 636.557666 403.334249 
L 639.01655 403.289268 
L 640.245991 403.564926 
L 642.704874 404.679813 
L 643.934316 405.053233 
L 645.163758 405.271105 
L 646.393199 405.353246 
L 648.852082 405.145443 
L 650.081524 405.288597 
L 656.228732 407.541216 
L 659.917057 407.959177 
L 661.146498 408.558762 
L 664.834823 410.755018 
L 666.064265 411.393151 
L 667.293706 411.787844 
L 668.523148 412.017304 
L 669.75259 412.383144 
L 670.982031 413.027147 
L 674.670356 415.46258 
L 675.899798 416.265368 
L 677.129239 416.795419 
L 679.588122 417.473984 
L 682.047006 418.805541 
L 683.276447 419.607683 
L 685.73533 421.516557 
L 686.964772 422.221077 
L 689.423655 423.214973 
L 691.882538 424.69478 
L 693.11198 425.58862 
L 696.800305 428.829116 
L 700.48863 431.09481 
L 702.947513 432.853227 
L 706.635838 436.464065 
L 711.553604 440.179508 
L 712.783046 441.222649 
L 722.618578 451.979158 
L 725.077462 455.597815 
L 727.536345 459.334748 
L 729.995228 463.248091 
L 732.454111 466.937287 
L 736.142436 473.775096 
L 745.977969 493.506047 
L 750.895735 504.276088 
L 761.96071 526.665238 
L 764.419593 531.048033 
L 770.566801 539.908704 
L 773.025684 542.532909 
L 774.255126 543.479984 
L 775.484567 543.928392 
L 776.714009 544.128269 
L 777.94345 556.934184 
L 779.172892 553.906685 
L 780.402334 545.351007 
L 781.631775 553.452572 
L 782.861217 566.971175 
L 784.090658 565.081344 
L 785.3201 554.893923 
L 786.549542 557.910045 
L 787.778983 573.222978 
L 789.008425 579.55543 
L 790.237866 570.566208 
L 791.467308 564.175213 
L 792.69675 573.448776 
L 793.926191 590.450748 
L 795.155633 592.97999 
L 796.385074 581.85598 
L 797.614516 579.286937 
L 800.073399 607.06081 
L 801.302841 603.75917 
L 802.532282 595.307028 
L 803.761724 600.694863 
L 804.991166 614.955252 
L 806.220607 617.042313 
L 807.450049 604.219861 
L 808.67949 596.796716 
L 811.138374 613.256836 
L 812.367815 606.724132 
L 813.597257 596.189955 
L 814.826698 599.179727 
L 816.05614 609.908149 
L 817.285582 609.051571 
L 818.515023 596.097451 
L 819.744465 590.655162 
L 820.973906 598.528906 
L 822.203348 602.440679 
L 823.43279 593.4631 
L 824.662231 587.360987 
L 825.891673 595.82295 
L 827.121115 572.991546 
L 828.350556 613.85293 
L 829.579998 616.66752 
L 830.809439 575.300793 
L 832.038881 566.360927 
L 833.268323 604.992614 
L 834.497764 615.664512 
L 835.727206 577.745573 
L 836.956647 567.781182 
L 838.186089 607.388219 
L 839.415531 618.646582 
L 840.644972 578.084379 
L 841.874414 566.015689 
L 843.103855 604.296938 
L 844.333297 609.826897 
L 845.562739 565.171218 
L 846.79218 559.372509 
L 848.021622 594.464857 
L 849.251063 582.247929 
L 850.480505 537.739828 
L 851.709947 549.630929 
L 851.709947 549.630929 
" style="fill:none;stroke:#ff796c;stroke-linecap:square;stroke-width:1.5;"/>
   </g>
   <g id="line2d_70">
    <path clip-path="url(#p98ce261779)" d="M 565.250053 403.412195 
L 592.297769 403.517543 
L 689.423655 404.173593 
L 712.783046 404.593704 
L 771.796242 405.738702 
L 780.402334 405.613756 
L 793.926191 405.264177 
L 803.761724 404.708618 
L 812.367815 404.633534 
L 820.973906 404.129562 
L 824.662231 404.193614 
L 834.497764 404.698108 
L 843.103855 404.489866 
L 846.79218 404.70046 
L 850.480505 404.978553 
L 851.709947 405.026089 
L 851.709947 405.026089 
" style="fill:none;stroke:#ffff14;stroke-linecap:square;stroke-width:1.5;"/>
   </g>
   <g id="line2d_71">
    <path clip-path="url(#p98ce261779)" d="M 565.250053 403.412117 
L 806.220607 403.301093 
L 851.709947 403.209615 
L 851.709947 403.209615 
" style="fill:none;stroke:#014d4e;stroke-linecap:square;stroke-width:1.5;"/>
   </g>
   <g id="patch_23">
    <path d="M 550.927059 629.9064 
L 550.927059 382.1904 
" style="fill:none;stroke:#000000;stroke-linecap:square;stroke-linejoin:miter;stroke-width:0.8;"/>
   </g>
   <g id="patch_24">
    <path d="M 866.032941 629.9064 
L 866.032941 382.1904 
" style="fill:none;stroke:#000000;stroke-linecap:square;stroke-linejoin:miter;stroke-width:0.8;"/>
   </g>
   <g id="patch_25">
    <path d="M 550.927059 629.9064 
L 866.032941 629.9064 
" style="fill:none;stroke:#000000;stroke-linecap:square;stroke-linejoin:miter;stroke-width:0.8;"/>
   </g>
   <g id="patch_26">
    <path d="M 550.927059 382.1904 
L 866.032941 382.1904 
" style="fill:none;stroke:#000000;stroke-linecap:square;stroke-linejoin:miter;stroke-width:0.8;"/>
   </g>
   <g id="text_61">
    <!-- Lateral joint 4 -->
    <g transform="translate(666.814687 376.1904)scale(0.12 -0.12)">
     <use xlink:href="#DejaVuSans-76"/>
     <use x="55.712891" xlink:href="#DejaVuSans-97"/>
     <use x="116.992188" xlink:href="#DejaVuSans-116"/>
     <use x="156.201172" xlink:href="#DejaVuSans-101"/>
     <use x="217.724609" xlink:href="#DejaVuSans-114"/>
     <use x="258.837891" xlink:href="#DejaVuSans-97"/>
     <use x="320.117188" xlink:href="#DejaVuSans-108"/>
     <use x="347.900391" xlink:href="#DejaVuSans-32"/>
     <use x="379.6875" xlink:href="#DejaVuSans-106"/>
     <use x="407.470703" xlink:href="#DejaVuSans-111"/>
     <use x="468.652344" xlink:href="#DejaVuSans-105"/>
     <use x="496.435547" xlink:href="#DejaVuSans-110"/>
     <use x="559.814453" xlink:href="#DejaVuSans-116"/>
     <use x="599.023438" xlink:href="#DejaVuSans-32"/>
     <use x="630.810547" xlink:href="#DejaVuSans-52"/>
    </g>
   </g>
  </g>
  <g id="axes_6">
   <g id="patch_27">
    <path d="M 929.054118 629.9064 
L 1244.16 629.9064 
L 1244.16 382.1904 
L 929.054118 382.1904 
z
" style="fill:#ffffff;"/>
   </g>
   <g id="matplotlib.axis_11">
    <g id="xtick_26">
     <g id="line2d_72">
      <g>
       <use style="stroke:#000000;stroke-width:0.8;" x="929.054118" xlink:href="#ma743739a6a" y="629.9064"/>
      </g>
     </g>
     <g id="text_62">
      <!-- 0.0 -->
      <g transform="translate(921.102555 644.504838)scale(0.1 -0.1)">
       <use xlink:href="#DejaVuSans-48"/>
       <use x="63.623047" xlink:href="#DejaVuSans-46"/>
       <use x="95.410156" xlink:href="#DejaVuSans-48"/>
      </g>
     </g>
    </g>
    <g id="xtick_27">
     <g id="line2d_73">
      <g>
       <use style="stroke:#000000;stroke-width:0.8;" x="992.075294" xlink:href="#ma743739a6a" y="629.9064"/>
      </g>
     </g>
     <g id="text_63">
      <!-- 0.2 -->
      <g transform="translate(984.123732 644.504838)scale(0.1 -0.1)">
       <use xlink:href="#DejaVuSans-48"/>
       <use x="63.623047" xlink:href="#DejaVuSans-46"/>
       <use x="95.410156" xlink:href="#DejaVuSans-50"/>
      </g>
     </g>
    </g>
    <g id="xtick_28">
     <g id="line2d_74">
      <g>
       <use style="stroke:#000000;stroke-width:0.8;" x="1055.096471" xlink:href="#ma743739a6a" y="629.9064"/>
      </g>
     </g>
     <g id="text_64">
      <!-- 0.4 -->
      <g transform="translate(1047.144908 644.504838)scale(0.1 -0.1)">
       <use xlink:href="#DejaVuSans-48"/>
       <use x="63.623047" xlink:href="#DejaVuSans-46"/>
       <use x="95.410156" xlink:href="#DejaVuSans-52"/>
      </g>
     </g>
    </g>
    <g id="xtick_29">
     <g id="line2d_75">
      <g>
       <use style="stroke:#000000;stroke-width:0.8;" x="1118.117647" xlink:href="#ma743739a6a" y="629.9064"/>
      </g>
     </g>
     <g id="text_65">
      <!-- 0.6 -->
      <g transform="translate(1110.166085 644.504838)scale(0.1 -0.1)">
       <use xlink:href="#DejaVuSans-48"/>
       <use x="63.623047" xlink:href="#DejaVuSans-46"/>
       <use x="95.410156" xlink:href="#DejaVuSans-54"/>
      </g>
     </g>
    </g>
    <g id="xtick_30">
     <g id="line2d_76">
      <g>
       <use style="stroke:#000000;stroke-width:0.8;" x="1181.138824" xlink:href="#ma743739a6a" y="629.9064"/>
      </g>
     </g>
     <g id="text_66">
      <!-- 0.8 -->
      <g transform="translate(1173.187261 644.504838)scale(0.1 -0.1)">
       <use xlink:href="#DejaVuSans-48"/>
       <use x="63.623047" xlink:href="#DejaVuSans-46"/>
       <use x="95.410156" xlink:href="#DejaVuSans-56"/>
      </g>
     </g>
    </g>
    <g id="xtick_31">
     <g id="line2d_77">
      <g>
       <use style="stroke:#000000;stroke-width:0.8;" x="1244.16" xlink:href="#ma743739a6a" y="629.9064"/>
      </g>
     </g>
     <g id="text_67">
      <!-- 1.0 -->
      <g transform="translate(1236.208438 644.504838)scale(0.1 -0.1)">
       <use xlink:href="#DejaVuSans-49"/>
       <use x="63.623047" xlink:href="#DejaVuSans-46"/>
       <use x="95.410156" xlink:href="#DejaVuSans-48"/>
      </g>
     </g>
    </g>
   </g>
   <g id="matplotlib.axis_12">
    <g id="ytick_32">
     <g id="line2d_78">
      <g>
       <use style="stroke:#000000;stroke-width:0.8;" x="929.054118" xlink:href="#m809fede57c" y="629.9064"/>
      </g>
     </g>
     <g id="text_68">
      <!-- 0.0 -->
      <g transform="translate(906.150993 633.705619)scale(0.1 -0.1)">
       <use xlink:href="#DejaVuSans-48"/>
       <use x="63.623047" xlink:href="#DejaVuSans-46"/>
       <use x="95.410156" xlink:href="#DejaVuSans-48"/>
      </g>
     </g>
    </g>
    <g id="ytick_33">
     <g id="line2d_79">
      <g>
       <use style="stroke:#000000;stroke-width:0.8;" x="929.054118" xlink:href="#m809fede57c" y="580.3632"/>
      </g>
     </g>
     <g id="text_69">
      <!-- 0.2 -->
      <g transform="translate(906.150993 584.162419)scale(0.1 -0.1)">
       <use xlink:href="#DejaVuSans-48"/>
       <use x="63.623047" xlink:href="#DejaVuSans-46"/>
       <use x="95.410156" xlink:href="#DejaVuSans-50"/>
      </g>
     </g>
    </g>
    <g id="ytick_34">
     <g id="line2d_80">
      <g>
       <use style="stroke:#000000;stroke-width:0.8;" x="929.054118" xlink:href="#m809fede57c" y="530.82"/>
      </g>
     </g>
     <g id="text_70">
      <!-- 0.4 -->
      <g transform="translate(906.150993 534.619219)scale(0.1 -0.1)">
       <use xlink:href="#DejaVuSans-48"/>
       <use x="63.623047" xlink:href="#DejaVuSans-46"/>
       <use x="95.410156" xlink:href="#DejaVuSans-52"/>
      </g>
     </g>
    </g>
    <g id="ytick_35">
     <g id="line2d_81">
      <g>
       <use style="stroke:#000000;stroke-width:0.8;" x="929.054118" xlink:href="#m809fede57c" y="481.2768"/>
      </g>
     </g>
     <g id="text_71">
      <!-- 0.6 -->
      <g transform="translate(906.150993 485.076019)scale(0.1 -0.1)">
       <use xlink:href="#DejaVuSans-48"/>
       <use x="63.623047" xlink:href="#DejaVuSans-46"/>
       <use x="95.410156" xlink:href="#DejaVuSans-54"/>
      </g>
     </g>
    </g>
    <g id="ytick_36">
     <g id="line2d_82">
      <g>
       <use style="stroke:#000000;stroke-width:0.8;" x="929.054118" xlink:href="#m809fede57c" y="431.7336"/>
      </g>
     </g>
     <g id="text_72">
      <!-- 0.8 -->
      <g transform="translate(906.150993 435.532819)scale(0.1 -0.1)">
       <use xlink:href="#DejaVuSans-48"/>
       <use x="63.623047" xlink:href="#DejaVuSans-46"/>
       <use x="95.410156" xlink:href="#DejaVuSans-56"/>
      </g>
     </g>
    </g>
    <g id="ytick_37">
     <g id="line2d_83">
      <g>
       <use style="stroke:#000000;stroke-width:0.8;" x="929.054118" xlink:href="#m809fede57c" y="382.1904"/>
      </g>
     </g>
     <g id="text_73">
      <!-- 1.0 -->
      <g transform="translate(906.150993 385.989619)scale(0.1 -0.1)">
       <use xlink:href="#DejaVuSans-49"/>
       <use x="63.623047" xlink:href="#DejaVuSans-46"/>
       <use x="95.410156" xlink:href="#DejaVuSans-48"/>
      </g>
     </g>
    </g>
   </g>
   <g id="patch_28">
    <path d="M 929.054118 629.9064 
L 929.054118 382.1904 
" style="fill:none;stroke:#000000;stroke-linecap:square;stroke-linejoin:miter;stroke-width:0.8;"/>
   </g>
   <g id="patch_29">
    <path d="M 1244.16 629.9064 
L 1244.16 382.1904 
" style="fill:none;stroke:#000000;stroke-linecap:square;stroke-linejoin:miter;stroke-width:0.8;"/>
   </g>
   <g id="patch_30">
    <path d="M 929.054118 629.9064 
L 1244.16 629.9064 
" style="fill:none;stroke:#000000;stroke-linecap:square;stroke-linejoin:miter;stroke-width:0.8;"/>
   </g>
   <g id="patch_31">
    <path d="M 929.054118 382.1904 
L 1244.16 382.1904 
" style="fill:none;stroke:#000000;stroke-linecap:square;stroke-linejoin:miter;stroke-width:0.8;"/>
   </g>
  </g>
  <g id="legend_1">
   <g id="patch_32">
    <path d="M 1308.251562 377.53625 
L 1375.4 377.53625 
Q 1377.4 377.53625 1377.4 375.53625 
L 1377.4 332.22375 
Q 1377.4 330.22375 1375.4 330.22375 
L 1308.251562 330.22375 
Q 1306.251562 330.22375 1306.251562 332.22375 
L 1306.251562 375.53625 
Q 1306.251562 377.53625 1308.251562 377.53625 
z
" style="fill:#ffffff;opacity:0.8;stroke:#cccccc;stroke-linejoin:miter;"/>
   </g>
   <g id="line2d_84">
    <path d="M 1310.251562 338.322187 
L 1330.251562 338.322187 
" style="fill:none;stroke:#ff796c;stroke-linecap:square;stroke-width:1.5;"/>
   </g>
   <g id="line2d_85"/>
   <g id="text_74">
    <!-- Torque -->
    <defs>
     <path d="M -0.296875 72.90625 
L 61.375 72.90625 
L 61.375 64.59375 
L 35.5 64.59375 
L 35.5 0 
L 25.59375 0 
L 25.59375 64.59375 
L -0.296875 64.59375 
z
" id="DejaVuSans-84"/>
     <path d="M 14.796875 27.296875 
Q 14.796875 17.390625 18.875 11.75 
Q 22.953125 6.109375 30.078125 6.109375 
Q 37.203125 6.109375 41.296875 11.75 
Q 45.40625 17.390625 45.40625 27.296875 
Q 45.40625 37.203125 41.296875 42.84375 
Q 37.203125 48.484375 30.078125 48.484375 
Q 22.953125 48.484375 18.875 42.84375 
Q 14.796875 37.203125 14.796875 27.296875 
z
M 45.40625 8.203125 
Q 42.578125 3.328125 38.25 0.953125 
Q 33.9375 -1.421875 27.875 -1.421875 
Q 17.96875 -1.421875 11.734375 6.484375 
Q 5.515625 14.40625 5.515625 27.296875 
Q 5.515625 40.1875 11.734375 48.09375 
Q 17.96875 56 27.875 56 
Q 33.9375 56 38.25 53.625 
Q 42.578125 51.265625 45.40625 46.390625 
L 45.40625 54.6875 
L 54.390625 54.6875 
L 54.390625 -20.796875 
L 45.40625 -20.796875 
z
" id="DejaVuSans-113"/>
     <path d="M 8.5 21.578125 
L 8.5 54.6875 
L 17.484375 54.6875 
L 17.484375 21.921875 
Q 17.484375 14.15625 20.5 10.265625 
Q 23.53125 6.390625 29.59375 6.390625 
Q 36.859375 6.390625 41.078125 11.03125 
Q 45.3125 15.671875 45.3125 23.6875 
L 45.3125 54.6875 
L 54.296875 54.6875 
L 54.296875 0 
L 45.3125 0 
L 45.3125 8.40625 
Q 42.046875 3.421875 37.71875 1 
Q 33.40625 -1.421875 27.6875 -1.421875 
Q 18.265625 -1.421875 13.375 4.4375 
Q 8.5 10.296875 8.5 21.578125 
z
M 31.109375 56 
z
" id="DejaVuSans-117"/>
    </defs>
    <g transform="translate(1338.251562 341.822187)scale(0.1 -0.1)">
     <use xlink:href="#DejaVuSans-84"/>
     <use x="60.818359" xlink:href="#DejaVuSans-111"/>
     <use x="122" xlink:href="#DejaVuSans-114"/>
     <use x="163.097656" xlink:href="#DejaVuSans-113"/>
     <use x="226.574219" xlink:href="#DejaVuSans-117"/>
     <use x="289.953125" xlink:href="#DejaVuSans-101"/>
    </g>
   </g>
   <g id="line2d_86">
    <path d="M 1310.251562 353.000313 
L 1330.251562 353.000313 
" style="fill:none;stroke:#ffff14;stroke-linecap:square;stroke-width:1.5;"/>
   </g>
   <g id="line2d_87"/>
   <g id="text_75">
    <!-- q -->
    <g transform="translate(1338.251562 356.500313)scale(0.1 -0.1)">
     <use xlink:href="#DejaVuSans-113"/>
    </g>
   </g>
   <g id="line2d_88">
    <path d="M 1310.251562 367.678437 
L 1330.251562 367.678437 
" style="fill:none;stroke:#014d4e;stroke-linecap:square;stroke-width:1.5;"/>
   </g>
   <g id="line2d_89"/>
   <g id="text_76">
    <!-- q_des -->
    <defs>
     <path d="M 50.984375 -16.609375 
L 50.984375 -23.578125 
L -0.984375 -23.578125 
L -0.984375 -16.609375 
z
" id="DejaVuSans-95"/>
     <path d="M 45.40625 46.390625 
L 45.40625 75.984375 
L 54.390625 75.984375 
L 54.390625 0 
L 45.40625 0 
L 45.40625 8.203125 
Q 42.578125 3.328125 38.25 0.953125 
Q 33.9375 -1.421875 27.875 -1.421875 
Q 17.96875 -1.421875 11.734375 6.484375 
Q 5.515625 14.40625 5.515625 27.296875 
Q 5.515625 40.1875 11.734375 48.09375 
Q 17.96875 56 27.875 56 
Q 33.9375 56 38.25 53.625 
Q 42.578125 51.265625 45.40625 46.390625 
z
M 14.796875 27.296875 
Q 14.796875 17.390625 18.875 11.75 
Q 22.953125 6.109375 30.078125 6.109375 
Q 37.203125 6.109375 41.296875 11.75 
Q 45.40625 17.390625 45.40625 27.296875 
Q 45.40625 37.203125 41.296875 42.84375 
Q 37.203125 48.484375 30.078125 48.484375 
Q 22.953125 48.484375 18.875 42.84375 
Q 14.796875 37.203125 14.796875 27.296875 
z
" id="DejaVuSans-100"/>
     <path d="M 44.28125 53.078125 
L 44.28125 44.578125 
Q 40.484375 46.53125 36.375 47.5 
Q 32.28125 48.484375 27.875 48.484375 
Q 21.1875 48.484375 17.84375 46.4375 
Q 14.5 44.390625 14.5 40.28125 
Q 14.5 37.15625 16.890625 35.375 
Q 19.28125 33.59375 26.515625 31.984375 
L 29.59375 31.296875 
Q 39.15625 29.25 43.1875 25.515625 
Q 47.21875 21.78125 47.21875 15.09375 
Q 47.21875 7.46875 41.1875 3.015625 
Q 35.15625 -1.421875 24.609375 -1.421875 
Q 20.21875 -1.421875 15.453125 -0.5625 
Q 10.6875 0.296875 5.421875 2 
L 5.421875 11.28125 
Q 10.40625 8.6875 15.234375 7.390625 
Q 20.0625 6.109375 24.8125 6.109375 
Q 31.15625 6.109375 34.5625 8.28125 
Q 37.984375 10.453125 37.984375 14.40625 
Q 37.984375 18.0625 35.515625 20.015625 
Q 33.0625 21.96875 24.703125 23.78125 
L 21.578125 24.515625 
Q 13.234375 26.265625 9.515625 29.90625 
Q 5.8125 33.546875 5.8125 39.890625 
Q 5.8125 47.609375 11.28125 51.796875 
Q 16.75 56 26.8125 56 
Q 31.78125 56 36.171875 55.265625 
Q 40.578125 54.546875 44.28125 53.078125 
z
" id="DejaVuSans-115"/>
    </defs>
    <g transform="translate(1338.251562 371.178437)scale(0.1 -0.1)">
     <use xlink:href="#DejaVuSans-113"/>
     <use x="63.476562" xlink:href="#DejaVuSans-95"/>
     <use x="113.476562" xlink:href="#DejaVuSans-100"/>
     <use x="176.953125" xlink:href="#DejaVuSans-101"/>
     <use x="238.476562" xlink:href="#DejaVuSans-115"/>
    </g>
   </g>
  </g>
 </g>
 <defs>
  <clipPath id="pa5129923fc">
   <rect height="247.716" width="315.105882" x="172.8" y="84.9312"/>
  </clipPath>
  <clipPath id="p7a77b6f2e7">
   <rect height="247.716" width="315.105882" x="550.927059" y="84.9312"/>
  </clipPath>
  <clipPath id="pd2558ded2e">
   <rect height="247.716" width="315.105882" x="929.054118" y="84.9312"/>
  </clipPath>
  <clipPath id="pf51dc0f123">
   <rect height="247.716" width="315.105882" x="172.8" y="382.1904"/>
  </clipPath>
  <clipPath id="p98ce261779">
   <rect height="247.716" width="315.105882" x="550.927059" y="382.1904"/>
  </clipPath>
 </defs>
</svg>
