<?xml version="1.0" encoding="utf-8" standalone="no"?>
<!DOCTYPE svg PUBLIC "-//W3C//DTD SVG 1.1//EN"
  "http://www.w3.org/Graphics/SVG/1.1/DTD/svg11.dtd">
<!-- Created with matplotlib (https://matplotlib.org/) -->
<svg height="707.76pt" version="1.1" viewBox="0 0 1382.4 707.76" width="1382.4pt" xmlns="http://www.w3.org/2000/svg" xmlns:xlink="http://www.w3.org/1999/xlink">
 <defs>
  <style type="text/css">
*{stroke-linecap:butt;stroke-linejoin:round;}
  </style>
 </defs>
 <g id="figure_1">
  <g id="patch_1">
   <path d="M 0 707.76 
L 1382.4 707.76 
L 1382.4 0 
L 0 0 
z
" style="fill:#ffffff;"/>
  </g>
  <g id="axes_1">
   <g id="patch_2">
    <path d="M 172.8 332.6472 
L 659.781818 332.6472 
L 659.781818 84.9312 
L 172.8 84.9312 
z
" style="fill:#ffffff;"/>
   </g>
   <g id="matplotlib.axis_1">
    <g id="xtick_1">
     <g id="line2d_1">
      <defs>
       <path d="M 0 0 
L 0 3.5 
" id="m7d1ca6fc8d" style="stroke:#000000;stroke-width:0.8;"/>
      </defs>
      <g>
       <use style="stroke:#000000;stroke-width:0.8;" x="194.935537" xlink:href="#m7d1ca6fc8d" y="332.6472"/>
      </g>
     </g>
     <g id="text_1">
      <!-- 0 -->
      <defs>
       <path d="M 31.78125 66.40625 
Q 24.171875 66.40625 20.328125 58.90625 
Q 16.5 51.421875 16.5 36.375 
Q 16.5 21.390625 20.328125 13.890625 
Q 24.171875 6.390625 31.78125 6.390625 
Q 39.453125 6.390625 43.28125 13.890625 
Q 47.125 21.390625 47.125 36.375 
Q 47.125 51.421875 43.28125 58.90625 
Q 39.453125 66.40625 31.78125 66.40625 
z
M 31.78125 74.21875 
Q 44.046875 74.21875 50.515625 64.515625 
Q 56.984375 54.828125 56.984375 36.375 
Q 56.984375 17.96875 50.515625 8.265625 
Q 44.046875 -1.421875 31.78125 -1.421875 
Q 19.53125 -1.421875 13.0625 8.265625 
Q 6.59375 17.96875 6.59375 36.375 
Q 6.59375 54.828125 13.0625 64.515625 
Q 19.53125 74.21875 31.78125 74.21875 
z
" id="DejaVuSans-48"/>
      </defs>
      <g transform="translate(191.754287 347.245637)scale(0.1 -0.1)">
       <use xlink:href="#DejaVuSans-48"/>
      </g>
     </g>
    </g>
    <g id="xtick_2">
     <g id="line2d_2">
      <g>
       <use style="stroke:#000000;stroke-width:0.8;" x="289.937843" xlink:href="#m7d1ca6fc8d" y="332.6472"/>
      </g>
     </g>
     <g id="text_2">
      <!-- 50 -->
      <defs>
       <path d="M 10.796875 72.90625 
L 49.515625 72.90625 
L 49.515625 64.59375 
L 19.828125 64.59375 
L 19.828125 46.734375 
Q 21.96875 47.46875 24.109375 47.828125 
Q 26.265625 48.1875 28.421875 48.1875 
Q 40.625 48.1875 47.75 41.5 
Q 54.890625 34.8125 54.890625 23.390625 
Q 54.890625 11.625 47.5625 5.09375 
Q 40.234375 -1.421875 26.90625 -1.421875 
Q 22.3125 -1.421875 17.546875 -0.640625 
Q 12.796875 0.140625 7.71875 1.703125 
L 7.71875 11.625 
Q 12.109375 9.234375 16.796875 8.0625 
Q 21.484375 6.890625 26.703125 6.890625 
Q 35.15625 6.890625 40.078125 11.328125 
Q 45.015625 15.765625 45.015625 23.390625 
Q 45.015625 31 40.078125 35.4375 
Q 35.15625 39.890625 26.703125 39.890625 
Q 22.75 39.890625 18.8125 39.015625 
Q 14.890625 38.140625 10.796875 36.28125 
z
" id="DejaVuSans-53"/>
      </defs>
      <g transform="translate(283.575343 347.245637)scale(0.1 -0.1)">
       <use xlink:href="#DejaVuSans-53"/>
       <use x="63.623047" xlink:href="#DejaVuSans-48"/>
      </g>
     </g>
    </g>
    <g id="xtick_3">
     <g id="line2d_3">
      <g>
       <use style="stroke:#000000;stroke-width:0.8;" x="384.940148" xlink:href="#m7d1ca6fc8d" y="332.6472"/>
      </g>
     </g>
     <g id="text_3">
      <!-- 100 -->
      <defs>
       <path d="M 12.40625 8.296875 
L 28.515625 8.296875 
L 28.515625 63.921875 
L 10.984375 60.40625 
L 10.984375 69.390625 
L 28.421875 72.90625 
L 38.28125 72.90625 
L 38.28125 8.296875 
L 54.390625 8.296875 
L 54.390625 0 
L 12.40625 0 
z
" id="DejaVuSans-49"/>
      </defs>
      <g transform="translate(375.396398 347.245637)scale(0.1 -0.1)">
       <use xlink:href="#DejaVuSans-49"/>
       <use x="63.623047" xlink:href="#DejaVuSans-48"/>
       <use x="127.246094" xlink:href="#DejaVuSans-48"/>
      </g>
     </g>
    </g>
    <g id="xtick_4">
     <g id="line2d_4">
      <g>
       <use style="stroke:#000000;stroke-width:0.8;" x="479.942454" xlink:href="#m7d1ca6fc8d" y="332.6472"/>
      </g>
     </g>
     <g id="text_4">
      <!-- 150 -->
      <g transform="translate(470.398704 347.245637)scale(0.1 -0.1)">
       <use xlink:href="#DejaVuSans-49"/>
       <use x="63.623047" xlink:href="#DejaVuSans-53"/>
       <use x="127.246094" xlink:href="#DejaVuSans-48"/>
      </g>
     </g>
    </g>
    <g id="xtick_5">
     <g id="line2d_5">
      <g>
       <use style="stroke:#000000;stroke-width:0.8;" x="574.944759" xlink:href="#m7d1ca6fc8d" y="332.6472"/>
      </g>
     </g>
     <g id="text_5">
      <!-- 200 -->
      <defs>
       <path d="M 19.1875 8.296875 
L 53.609375 8.296875 
L 53.609375 0 
L 7.328125 0 
L 7.328125 8.296875 
Q 12.9375 14.109375 22.625 23.890625 
Q 32.328125 33.6875 34.8125 36.53125 
Q 39.546875 41.84375 41.421875 45.53125 
Q 43.3125 49.21875 43.3125 52.78125 
Q 43.3125 58.59375 39.234375 62.25 
Q 35.15625 65.921875 28.609375 65.921875 
Q 23.96875 65.921875 18.8125 64.3125 
Q 13.671875 62.703125 7.8125 59.421875 
L 7.8125 69.390625 
Q 13.765625 71.78125 18.9375 73 
Q 24.125 74.21875 28.421875 74.21875 
Q 39.75 74.21875 46.484375 68.546875 
Q 53.21875 62.890625 53.21875 53.421875 
Q 53.21875 48.921875 51.53125 44.890625 
Q 49.859375 40.875 45.40625 35.40625 
Q 44.1875 33.984375 37.640625 27.21875 
Q 31.109375 20.453125 19.1875 8.296875 
z
" id="DejaVuSans-50"/>
      </defs>
      <g transform="translate(565.401009 347.245637)scale(0.1 -0.1)">
       <use xlink:href="#DejaVuSans-50"/>
       <use x="63.623047" xlink:href="#DejaVuSans-48"/>
       <use x="127.246094" xlink:href="#DejaVuSans-48"/>
      </g>
     </g>
    </g>
   </g>
   <g id="matplotlib.axis_2">
    <g id="ytick_1">
     <g id="line2d_6">
      <defs>
       <path d="M 0 0 
L -3.5 0 
" id="m9c9fc5206c" style="stroke:#000000;stroke-width:0.8;"/>
      </defs>
      <g>
       <use style="stroke:#000000;stroke-width:0.8;" x="172.8" xlink:href="#m9c9fc5206c" y="308.96084"/>
      </g>
     </g>
     <g id="text_6">
      <!-- −5 -->
      <defs>
       <path d="M 10.59375 35.5 
L 73.1875 35.5 
L 73.1875 27.203125 
L 10.59375 27.203125 
z
" id="DejaVuSans-8722"/>
      </defs>
      <g transform="translate(151.057812 312.760059)scale(0.1 -0.1)">
       <use xlink:href="#DejaVuSans-8722"/>
       <use x="83.789062" xlink:href="#DejaVuSans-53"/>
      </g>
     </g>
    </g>
    <g id="ytick_2">
     <g id="line2d_7">
      <g>
       <use style="stroke:#000000;stroke-width:0.8;" x="172.8" xlink:href="#m9c9fc5206c" y="269.505677"/>
      </g>
     </g>
     <g id="text_7">
      <!-- −4 -->
      <defs>
       <path d="M 37.796875 64.3125 
L 12.890625 25.390625 
L 37.796875 25.390625 
z
M 35.203125 72.90625 
L 47.609375 72.90625 
L 47.609375 25.390625 
L 58.015625 25.390625 
L 58.015625 17.1875 
L 47.609375 17.1875 
L 47.609375 0 
L 37.796875 0 
L 37.796875 17.1875 
L 4.890625 17.1875 
L 4.890625 26.703125 
z
" id="DejaVuSans-52"/>
      </defs>
      <g transform="translate(151.057812 273.304896)scale(0.1 -0.1)">
       <use xlink:href="#DejaVuSans-8722"/>
       <use x="83.789062" xlink:href="#DejaVuSans-52"/>
      </g>
     </g>
    </g>
    <g id="ytick_3">
     <g id="line2d_8">
      <g>
       <use style="stroke:#000000;stroke-width:0.8;" x="172.8" xlink:href="#m9c9fc5206c" y="230.050514"/>
      </g>
     </g>
     <g id="text_8">
      <!-- −3 -->
      <defs>
       <path d="M 40.578125 39.3125 
Q 47.65625 37.796875 51.625 33 
Q 55.609375 28.21875 55.609375 21.1875 
Q 55.609375 10.40625 48.1875 4.484375 
Q 40.765625 -1.421875 27.09375 -1.421875 
Q 22.515625 -1.421875 17.65625 -0.515625 
Q 12.796875 0.390625 7.625 2.203125 
L 7.625 11.71875 
Q 11.71875 9.328125 16.59375 8.109375 
Q 21.484375 6.890625 26.8125 6.890625 
Q 36.078125 6.890625 40.9375 10.546875 
Q 45.796875 14.203125 45.796875 21.1875 
Q 45.796875 27.640625 41.28125 31.265625 
Q 36.765625 34.90625 28.71875 34.90625 
L 20.21875 34.90625 
L 20.21875 43.015625 
L 29.109375 43.015625 
Q 36.375 43.015625 40.234375 45.921875 
Q 44.09375 48.828125 44.09375 54.296875 
Q 44.09375 59.90625 40.109375 62.90625 
Q 36.140625 65.921875 28.71875 65.921875 
Q 24.65625 65.921875 20.015625 65.03125 
Q 15.375 64.15625 9.8125 62.3125 
L 9.8125 71.09375 
Q 15.4375 72.65625 20.34375 73.4375 
Q 25.25 74.21875 29.59375 74.21875 
Q 40.828125 74.21875 47.359375 69.109375 
Q 53.90625 64.015625 53.90625 55.328125 
Q 53.90625 49.265625 50.4375 45.09375 
Q 46.96875 40.921875 40.578125 39.3125 
z
" id="DejaVuSans-51"/>
      </defs>
      <g transform="translate(151.057812 233.849733)scale(0.1 -0.1)">
       <use xlink:href="#DejaVuSans-8722"/>
       <use x="83.789062" xlink:href="#DejaVuSans-51"/>
      </g>
     </g>
    </g>
    <g id="ytick_4">
     <g id="line2d_9">
      <g>
       <use style="stroke:#000000;stroke-width:0.8;" x="172.8" xlink:href="#m9c9fc5206c" y="190.595351"/>
      </g>
     </g>
     <g id="text_9">
      <!-- −2 -->
      <g transform="translate(151.057812 194.394569)scale(0.1 -0.1)">
       <use xlink:href="#DejaVuSans-8722"/>
       <use x="83.789062" xlink:href="#DejaVuSans-50"/>
      </g>
     </g>
    </g>
    <g id="ytick_5">
     <g id="line2d_10">
      <g>
       <use style="stroke:#000000;stroke-width:0.8;" x="172.8" xlink:href="#m9c9fc5206c" y="151.140188"/>
      </g>
     </g>
     <g id="text_10">
      <!-- −1 -->
      <g transform="translate(151.057812 154.939406)scale(0.1 -0.1)">
       <use xlink:href="#DejaVuSans-8722"/>
       <use x="83.789062" xlink:href="#DejaVuSans-49"/>
      </g>
     </g>
    </g>
    <g id="ytick_6">
     <g id="line2d_11">
      <g>
       <use style="stroke:#000000;stroke-width:0.8;" x="172.8" xlink:href="#m9c9fc5206c" y="111.685025"/>
      </g>
     </g>
     <g id="text_11">
      <!-- 0 -->
      <g transform="translate(159.4375 115.484243)scale(0.1 -0.1)">
       <use xlink:href="#DejaVuSans-48"/>
      </g>
     </g>
    </g>
   </g>
   <g id="line2d_12">
    <path clip-path="url(#p2c227f2ae7)" d="M 194.935537 111.604162 
L 196.835583 111.916388 
L 200.635676 112.980236 
L 202.535722 113.259259 
L 204.435768 113.232502 
L 206.335814 112.919651 
L 208.23586 112.489153 
L 210.135906 112.235111 
L 212.035952 112.366026 
L 213.935998 112.845796 
L 217.736091 114.009015 
L 219.636137 114.315875 
L 221.536183 114.279997 
L 225.336275 113.598118 
L 227.236321 113.498286 
L 229.136367 113.75573 
L 232.936459 114.905392 
L 234.836506 115.449421 
L 236.736552 115.709787 
L 238.636598 115.60683 
L 242.43669 115.088944 
L 244.336736 115.153197 
L 246.236782 115.522665 
L 251.936921 117.395563 
L 253.836967 117.597104 
L 259.537105 117.215841 
L 261.437151 117.400898 
L 263.337197 117.880675 
L 267.137289 119.294459 
L 269.037336 119.706451 
L 270.937382 119.769989 
L 274.737474 119.473308 
L 276.63752 119.474279 
L 278.537566 119.758326 
L 280.437612 120.352819 
L 282.337658 121.08489 
L 284.237704 121.674245 
L 286.137751 121.966006 
L 289.937843 121.950923 
L 291.837889 121.942448 
L 293.737935 122.164906 
L 295.637981 122.731968 
L 299.438073 124.328172 
L 301.338119 124.880755 
L 303.238166 125.170879 
L 308.938304 125.445611 
L 310.83835 125.910443 
L 316.538488 128.17562 
L 318.438534 128.620297 
L 320.33858 128.833215 
L 324.138673 128.96647 
L 326.038719 129.31541 
L 327.938765 129.986627 
L 331.738857 131.587103 
L 333.638903 132.200702 
L 335.538949 132.59264 
L 341.239088 133.20797 
L 343.139134 133.845878 
L 348.839272 136.359608 
L 350.739318 136.954473 
L 352.639364 137.286545 
L 356.439457 137.771449 
L 358.339503 138.328977 
L 362.139595 139.987668 
L 364.039641 140.877289 
L 365.939687 141.624286 
L 367.839733 142.096048 
L 371.639825 142.657314 
L 373.539872 143.166986 
L 375.439918 143.894783 
L 379.24001 145.810891 
L 381.140056 146.767681 
L 383.040102 147.481726 
L 386.840194 148.457287 
L 388.74024 149.093841 
L 390.640287 149.920358 
L 392.540333 150.960603 
L 396.340425 153.46216 
L 398.240471 154.525776 
L 405.840655 157.960829 
L 407.740702 159.130719 
L 413.44084 163.413721 
L 417.240932 165.684604 
L 421.041024 167.873814 
L 422.94107 169.189591 
L 426.741163 172.505383 
L 430.541255 175.692107 
L 434.341347 178.587591 
L 436.241393 179.975038 
L 438.141439 181.526948 
L 440.041485 183.36084 
L 449.541716 193.358427 
L 453.341808 197.06009 
L 457.1419 201.481994 
L 460.941993 206.336794 
L 464.742085 211.225715 
L 468.542177 215.691615 
L 472.342269 220.521217 
L 476.142362 225.753671 
L 479.942454 231.227093 
L 485.642592 238.567553 
L 489.442684 243.343725 
L 493.242777 248.595938 
L 497.042869 253.671951 
L 500.842961 258.262903 
L 502.743007 260.305243 
L 510.343192 267.785433 
L 512.243238 269.392183 
L 514.143284 270.812819 
L 516.04333 272.033761 
L 517.943376 272.874938 
L 519.843422 273.243183 
L 521.743468 273.287807 
L 523.643514 281.452766 
L 525.54356 281.272225 
L 527.443607 277.971797 
L 529.343653 282.116458 
L 531.243699 289.176314 
L 533.143745 288.162097 
L 535.043791 282.984031 
L 536.943837 285.123254 
L 538.843883 293.800726 
L 540.743929 297.21481 
L 542.643975 291.758847 
L 544.544022 287.221513 
L 546.444068 293.169949 
L 548.344114 302.315436 
L 550.24416 302.779275 
L 552.144206 295.425033 
L 554.044252 292.927036 
L 557.844344 307.95709 
L 559.74439 306.972958 
L 561.644437 303.183738 
L 563.544483 306.513181 
L 565.444529 313.965434 
L 567.344575 313.972312 
L 569.244621 305.2487 
L 571.144667 299.396497 
L 573.044713 302.559621 
L 574.944759 306.459726 
L 576.844805 302.957183 
L 578.744852 297.685752 
L 580.644898 299.851202 
L 582.544944 305.881978 
L 584.44499 304.952542 
L 586.345036 296.847491 
L 588.245082 292.673802 
L 590.145128 296.100759 
L 592.045174 298.091865 
L 593.94522 293.952931 
L 595.845267 292.19503 
L 597.745313 298.840015 
L 599.645359 285.572039 
L 601.545405 311.179416 
L 603.445451 313.507856 
L 605.345497 290.712804 
L 607.245543 285.325386 
L 609.145589 306.290379 
L 611.045635 312.764524 
L 612.945682 293.503336 
L 614.845728 290.05367 
L 616.745774 313.722475 
L 618.64582 321.387382 
L 620.545866 299.742224 
L 622.445912 292.601519 
L 624.345958 316.542356 
L 626.246004 321.341048 
L 628.14605 297.146488 
L 630.046097 293.20978 
L 631.946143 311.362397 
L 633.846189 303.592206 
L 635.746235 278.604045 
L 637.646281 285.792672 
L 637.646281 285.792672 
" style="fill:none;stroke:#ff796c;stroke-linecap:square;stroke-width:1.5;"/>
   </g>
   <g id="line2d_13">
    <path clip-path="url(#p2c227f2ae7)" d="M 194.935537 96.328977 
L 206.335814 96.407106 
L 221.536183 96.828182 
L 234.836506 97.551573 
L 244.336736 98.296564 
L 255.737013 99.386375 
L 269.037336 100.992851 
L 282.337658 102.919028 
L 295.637981 105.046732 
L 307.038258 106.997791 
L 322.238627 109.843135 
L 337.438995 112.977659 
L 354.53941 116.833561 
L 373.539872 121.472944 
L 403.940609 128.932899 
L 426.741163 134.273187 
L 447.64167 138.95177 
L 464.742085 142.579444 
L 481.8425 146.00304 
L 498.942915 149.237394 
L 516.04333 152.484244 
L 525.54356 154.375868 
L 529.343653 155.114676 
L 538.843883 157.30725 
L 546.444068 159.141565 
L 554.044252 160.569727 
L 563.544483 162.453546 
L 569.244621 163.790358 
L 576.844805 165.557219 
L 582.544944 166.643217 
L 588.245082 167.514819 
L 592.045174 167.874182 
L 595.845267 168.03802 
L 597.745313 168.047791 
L 599.645359 168.232723 
L 603.445451 168.104863 
L 614.845728 168.095867 
L 618.64582 168.129238 
L 622.445912 168.368935 
L 626.246004 168.257794 
L 633.846189 168.579488 
L 637.646281 168.766789 
L 637.646281 168.766789 
" style="fill:none;stroke:#ffff14;stroke-linecap:square;stroke-width:1.5;"/>
   </g>
   <g id="line2d_14">
    <path clip-path="url(#p2c227f2ae7)" d="M 194.935537 96.191018 
L 206.335814 96.316624 
L 217.736091 96.692626 
L 229.136367 97.316587 
L 240.536644 98.18446 
L 251.936921 99.290616 
L 263.337197 100.627881 
L 274.737474 102.187583 
L 286.137751 103.959606 
L 297.538027 105.932458 
L 310.83835 108.470807 
L 324.138673 111.242639 
L 339.339042 114.664878 
L 354.53941 118.320621 
L 371.639825 122.659894 
L 392.540333 128.199769 
L 432.441301 139.078369 
L 459.041947 146.201315 
L 478.042408 151.060133 
L 493.242777 154.742152 
L 508.443145 158.195795 
L 521.743468 160.99903 
L 535.043791 163.572156 
L 548.344114 165.892462 
L 559.74439 167.664485 
L 571.144667 169.224187 
L 582.544944 170.561452 
L 593.94522 171.667608 
L 605.345497 172.535481 
L 616.745774 173.159442 
L 628.14605 173.535444 
L 637.646281 173.657559 
L 637.646281 173.657559 
" style="fill:none;stroke:#014d4e;stroke-linecap:square;stroke-width:1.5;"/>
   </g>
   <g id="line2d_15">
    <path clip-path="url(#p2c227f2ae7)" d="M 194.935537 111.547066 
L 217.736091 111.694983 
L 257.637059 112.014174 
L 295.637981 112.228523 
L 365.939687 113.300249 
L 388.74024 113.611002 
L 405.840655 114.107198 
L 430.541255 115.104691 
L 455.241854 116.292787 
L 504.643053 118.746183 
L 514.143284 119.007981 
L 519.843422 119.004904 
L 523.643514 119.016618 
L 529.343653 119.069419 
L 536.943837 118.759207 
L 542.643975 118.316704 
L 544.544022 118.116918 
L 550.24416 118.057598 
L 561.644437 117.571669 
L 567.344575 117.091326 
L 578.744852 115.878668 
L 586.345036 115.383066 
L 590.145128 115.290549 
L 593.94522 115.371066 
L 605.345497 116.098763 
L 616.745774 116.756761 
L 620.545866 116.755756 
L 622.445912 116.694717 
L 626.246004 116.917351 
L 633.846189 116.735172 
L 637.646281 116.575794 
L 637.646281 116.575794 
" style="fill:none;stroke:#e50000;stroke-linecap:square;stroke-width:1.5;"/>
   </g>
   <g id="patch_3">
    <path d="M 172.8 332.6472 
L 172.8 84.9312 
" style="fill:none;stroke:#000000;stroke-linecap:square;stroke-linejoin:miter;stroke-width:0.8;"/>
   </g>
   <g id="patch_4">
    <path d="M 659.781818 332.6472 
L 659.781818 84.9312 
" style="fill:none;stroke:#000000;stroke-linecap:square;stroke-linejoin:miter;stroke-width:0.8;"/>
   </g>
   <g id="patch_5">
    <path d="M 172.8 332.6472 
L 659.781818 332.6472 
" style="fill:none;stroke:#000000;stroke-linecap:square;stroke-linejoin:miter;stroke-width:0.8;"/>
   </g>
   <g id="patch_6">
    <path d="M 172.8 84.9312 
L 659.781818 84.9312 
" style="fill:none;stroke:#000000;stroke-linecap:square;stroke-linejoin:miter;stroke-width:0.8;"/>
   </g>
   <g id="text_12">
    <!-- Right abduction -->
    <defs>
     <path d="M 44.390625 34.1875 
Q 47.5625 33.109375 50.5625 29.59375 
Q 53.5625 26.078125 56.59375 19.921875 
L 66.609375 0 
L 56 0 
L 46.6875 18.703125 
Q 43.0625 26.03125 39.671875 28.421875 
Q 36.28125 30.8125 30.421875 30.8125 
L 19.671875 30.8125 
L 19.671875 0 
L 9.8125 0 
L 9.8125 72.90625 
L 32.078125 72.90625 
Q 44.578125 72.90625 50.734375 67.671875 
Q 56.890625 62.453125 56.890625 51.90625 
Q 56.890625 45.015625 53.6875 40.46875 
Q 50.484375 35.9375 44.390625 34.1875 
z
M 19.671875 64.796875 
L 19.671875 38.921875 
L 32.078125 38.921875 
Q 39.203125 38.921875 42.84375 42.21875 
Q 46.484375 45.515625 46.484375 51.90625 
Q 46.484375 58.296875 42.84375 61.546875 
Q 39.203125 64.796875 32.078125 64.796875 
z
" id="DejaVuSans-82"/>
     <path d="M 9.421875 54.6875 
L 18.40625 54.6875 
L 18.40625 0 
L 9.421875 0 
z
M 9.421875 75.984375 
L 18.40625 75.984375 
L 18.40625 64.59375 
L 9.421875 64.59375 
z
" id="DejaVuSans-105"/>
     <path d="M 45.40625 27.984375 
Q 45.40625 37.75 41.375 43.109375 
Q 37.359375 48.484375 30.078125 48.484375 
Q 22.859375 48.484375 18.828125 43.109375 
Q 14.796875 37.75 14.796875 27.984375 
Q 14.796875 18.265625 18.828125 12.890625 
Q 22.859375 7.515625 30.078125 7.515625 
Q 37.359375 7.515625 41.375 12.890625 
Q 45.40625 18.265625 45.40625 27.984375 
z
M 54.390625 6.78125 
Q 54.390625 -7.171875 48.1875 -13.984375 
Q 42 -20.796875 29.203125 -20.796875 
Q 24.46875 -20.796875 20.265625 -20.09375 
Q 16.0625 -19.390625 12.109375 -17.921875 
L 12.109375 -9.1875 
Q 16.0625 -11.328125 19.921875 -12.34375 
Q 23.78125 -13.375 27.78125 -13.375 
Q 36.625 -13.375 41.015625 -8.765625 
Q 45.40625 -4.15625 45.40625 5.171875 
L 45.40625 9.625 
Q 42.625 4.78125 38.28125 2.390625 
Q 33.9375 0 27.875 0 
Q 17.828125 0 11.671875 7.65625 
Q 5.515625 15.328125 5.515625 27.984375 
Q 5.515625 40.671875 11.671875 48.328125 
Q 17.828125 56 27.875 56 
Q 33.9375 56 38.28125 53.609375 
Q 42.625 51.21875 45.40625 46.390625 
L 45.40625 54.6875 
L 54.390625 54.6875 
z
" id="DejaVuSans-103"/>
     <path d="M 54.890625 33.015625 
L 54.890625 0 
L 45.90625 0 
L 45.90625 32.71875 
Q 45.90625 40.484375 42.875 44.328125 
Q 39.84375 48.1875 33.796875 48.1875 
Q 26.515625 48.1875 22.3125 43.546875 
Q 18.109375 38.921875 18.109375 30.90625 
L 18.109375 0 
L 9.078125 0 
L 9.078125 75.984375 
L 18.109375 75.984375 
L 18.109375 46.1875 
Q 21.34375 51.125 25.703125 53.5625 
Q 30.078125 56 35.796875 56 
Q 45.21875 56 50.046875 50.171875 
Q 54.890625 44.34375 54.890625 33.015625 
z
" id="DejaVuSans-104"/>
     <path d="M 18.3125 70.21875 
L 18.3125 54.6875 
L 36.8125 54.6875 
L 36.8125 47.703125 
L 18.3125 47.703125 
L 18.3125 18.015625 
Q 18.3125 11.328125 20.140625 9.421875 
Q 21.96875 7.515625 27.59375 7.515625 
L 36.8125 7.515625 
L 36.8125 0 
L 27.59375 0 
Q 17.1875 0 13.234375 3.875 
Q 9.28125 7.765625 9.28125 18.015625 
L 9.28125 47.703125 
L 2.6875 47.703125 
L 2.6875 54.6875 
L 9.28125 54.6875 
L 9.28125 70.21875 
z
" id="DejaVuSans-116"/>
     <path id="DejaVuSans-32"/>
     <path d="M 34.28125 27.484375 
Q 23.390625 27.484375 19.1875 25 
Q 14.984375 22.515625 14.984375 16.5 
Q 14.984375 11.71875 18.140625 8.90625 
Q 21.296875 6.109375 26.703125 6.109375 
Q 34.1875 6.109375 38.703125 11.40625 
Q 43.21875 16.703125 43.21875 25.484375 
L 43.21875 27.484375 
z
M 52.203125 31.203125 
L 52.203125 0 
L 43.21875 0 
L 43.21875 8.296875 
Q 40.140625 3.328125 35.546875 0.953125 
Q 30.953125 -1.421875 24.3125 -1.421875 
Q 15.921875 -1.421875 10.953125 3.296875 
Q 6 8.015625 6 15.921875 
Q 6 25.140625 12.171875 29.828125 
Q 18.359375 34.515625 30.609375 34.515625 
L 43.21875 34.515625 
L 43.21875 35.40625 
Q 43.21875 41.609375 39.140625 45 
Q 35.0625 48.390625 27.6875 48.390625 
Q 23 48.390625 18.546875 47.265625 
Q 14.109375 46.140625 10.015625 43.890625 
L 10.015625 52.203125 
Q 14.9375 54.109375 19.578125 55.046875 
Q 24.21875 56 28.609375 56 
Q 40.484375 56 46.34375 49.84375 
Q 52.203125 43.703125 52.203125 31.203125 
z
" id="DejaVuSans-97"/>
     <path d="M 48.6875 27.296875 
Q 48.6875 37.203125 44.609375 42.84375 
Q 40.53125 48.484375 33.40625 48.484375 
Q 26.265625 48.484375 22.1875 42.84375 
Q 18.109375 37.203125 18.109375 27.296875 
Q 18.109375 17.390625 22.1875 11.75 
Q 26.265625 6.109375 33.40625 6.109375 
Q 40.53125 6.109375 44.609375 11.75 
Q 48.6875 17.390625 48.6875 27.296875 
z
M 18.109375 46.390625 
Q 20.953125 51.265625 25.265625 53.625 
Q 29.59375 56 35.59375 56 
Q 45.5625 56 51.78125 48.09375 
Q 58.015625 40.1875 58.015625 27.296875 
Q 58.015625 14.40625 51.78125 6.484375 
Q 45.5625 -1.421875 35.59375 -1.421875 
Q 29.59375 -1.421875 25.265625 0.953125 
Q 20.953125 3.328125 18.109375 8.203125 
L 18.109375 0 
L 9.078125 0 
L 9.078125 75.984375 
L 18.109375 75.984375 
z
" id="DejaVuSans-98"/>
     <path d="M 45.40625 46.390625 
L 45.40625 75.984375 
L 54.390625 75.984375 
L 54.390625 0 
L 45.40625 0 
L 45.40625 8.203125 
Q 42.578125 3.328125 38.25 0.953125 
Q 33.9375 -1.421875 27.875 -1.421875 
Q 17.96875 -1.421875 11.734375 6.484375 
Q 5.515625 14.40625 5.515625 27.296875 
Q 5.515625 40.1875 11.734375 48.09375 
Q 17.96875 56 27.875 56 
Q 33.9375 56 38.25 53.625 
Q 42.578125 51.265625 45.40625 46.390625 
z
M 14.796875 27.296875 
Q 14.796875 17.390625 18.875 11.75 
Q 22.953125 6.109375 30.078125 6.109375 
Q 37.203125 6.109375 41.296875 11.75 
Q 45.40625 17.390625 45.40625 27.296875 
Q 45.40625 37.203125 41.296875 42.84375 
Q 37.203125 48.484375 30.078125 48.484375 
Q 22.953125 48.484375 18.875 42.84375 
Q 14.796875 37.203125 14.796875 27.296875 
z
" id="DejaVuSans-100"/>
     <path d="M 8.5 21.578125 
L 8.5 54.6875 
L 17.484375 54.6875 
L 17.484375 21.921875 
Q 17.484375 14.15625 20.5 10.265625 
Q 23.53125 6.390625 29.59375 6.390625 
Q 36.859375 6.390625 41.078125 11.03125 
Q 45.3125 15.671875 45.3125 23.6875 
L 45.3125 54.6875 
L 54.296875 54.6875 
L 54.296875 0 
L 45.3125 0 
L 45.3125 8.40625 
Q 42.046875 3.421875 37.71875 1 
Q 33.40625 -1.421875 27.6875 -1.421875 
Q 18.265625 -1.421875 13.375 4.4375 
Q 8.5 10.296875 8.5 21.578125 
z
M 31.109375 56 
z
" id="DejaVuSans-117"/>
     <path d="M 48.78125 52.59375 
L 48.78125 44.1875 
Q 44.96875 46.296875 41.140625 47.34375 
Q 37.3125 48.390625 33.40625 48.390625 
Q 24.65625 48.390625 19.8125 42.84375 
Q 14.984375 37.3125 14.984375 27.296875 
Q 14.984375 17.28125 19.8125 11.734375 
Q 24.65625 6.203125 33.40625 6.203125 
Q 37.3125 6.203125 41.140625 7.25 
Q 44.96875 8.296875 48.78125 10.40625 
L 48.78125 2.09375 
Q 45.015625 0.34375 40.984375 -0.53125 
Q 36.96875 -1.421875 32.421875 -1.421875 
Q 20.0625 -1.421875 12.78125 6.34375 
Q 5.515625 14.109375 5.515625 27.296875 
Q 5.515625 40.671875 12.859375 48.328125 
Q 20.21875 56 33.015625 56 
Q 37.15625 56 41.109375 55.140625 
Q 45.0625 54.296875 48.78125 52.59375 
z
" id="DejaVuSans-99"/>
     <path d="M 30.609375 48.390625 
Q 23.390625 48.390625 19.1875 42.75 
Q 14.984375 37.109375 14.984375 27.296875 
Q 14.984375 17.484375 19.15625 11.84375 
Q 23.34375 6.203125 30.609375 6.203125 
Q 37.796875 6.203125 41.984375 11.859375 
Q 46.1875 17.53125 46.1875 27.296875 
Q 46.1875 37.015625 41.984375 42.703125 
Q 37.796875 48.390625 30.609375 48.390625 
z
M 30.609375 56 
Q 42.328125 56 49.015625 48.375 
Q 55.71875 40.765625 55.71875 27.296875 
Q 55.71875 13.875 49.015625 6.21875 
Q 42.328125 -1.421875 30.609375 -1.421875 
Q 18.84375 -1.421875 12.171875 6.21875 
Q 5.515625 13.875 5.515625 27.296875 
Q 5.515625 40.765625 12.171875 48.375 
Q 18.84375 56 30.609375 56 
z
" id="DejaVuSans-111"/>
     <path d="M 54.890625 33.015625 
L 54.890625 0 
L 45.90625 0 
L 45.90625 32.71875 
Q 45.90625 40.484375 42.875 44.328125 
Q 39.84375 48.1875 33.796875 48.1875 
Q 26.515625 48.1875 22.3125 43.546875 
Q 18.109375 38.921875 18.109375 30.90625 
L 18.109375 0 
L 9.078125 0 
L 9.078125 54.6875 
L 18.109375 54.6875 
L 18.109375 46.1875 
Q 21.34375 51.125 25.703125 53.5625 
Q 30.078125 56 35.796875 56 
Q 45.21875 56 50.046875 50.171875 
Q 54.890625 44.34375 54.890625 33.015625 
z
" id="DejaVuSans-110"/>
    </defs>
    <g transform="translate(368.694972 78.9312)scale(0.12 -0.12)">
     <use xlink:href="#DejaVuSans-82"/>
     <use x="69.482422" xlink:href="#DejaVuSans-105"/>
     <use x="97.265625" xlink:href="#DejaVuSans-103"/>
     <use x="160.742188" xlink:href="#DejaVuSans-104"/>
     <use x="224.121094" xlink:href="#DejaVuSans-116"/>
     <use x="263.330078" xlink:href="#DejaVuSans-32"/>
     <use x="295.117188" xlink:href="#DejaVuSans-97"/>
     <use x="356.396484" xlink:href="#DejaVuSans-98"/>
     <use x="419.873047" xlink:href="#DejaVuSans-100"/>
     <use x="483.349609" xlink:href="#DejaVuSans-117"/>
     <use x="546.728516" xlink:href="#DejaVuSans-99"/>
     <use x="601.708984" xlink:href="#DejaVuSans-116"/>
     <use x="640.917969" xlink:href="#DejaVuSans-105"/>
     <use x="668.701172" xlink:href="#DejaVuSans-111"/>
     <use x="729.882812" xlink:href="#DejaVuSans-110"/>
    </g>
   </g>
  </g>
  <g id="axes_2">
   <g id="patch_7">
    <path d="M 757.178182 332.6472 
L 1244.16 332.6472 
L 1244.16 84.9312 
L 757.178182 84.9312 
z
" style="fill:#ffffff;"/>
   </g>
   <g id="matplotlib.axis_3">
    <g id="xtick_6">
     <g id="line2d_16">
      <g>
       <use style="stroke:#000000;stroke-width:0.8;" x="779.313719" xlink:href="#m7d1ca6fc8d" y="332.6472"/>
      </g>
     </g>
     <g id="text_13">
      <!-- 0 -->
      <g transform="translate(776.132469 347.245637)scale(0.1 -0.1)">
       <use xlink:href="#DejaVuSans-48"/>
      </g>
     </g>
    </g>
    <g id="xtick_7">
     <g id="line2d_17">
      <g>
       <use style="stroke:#000000;stroke-width:0.8;" x="874.316025" xlink:href="#m7d1ca6fc8d" y="332.6472"/>
      </g>
     </g>
     <g id="text_14">
      <!-- 50 -->
      <g transform="translate(867.953525 347.245637)scale(0.1 -0.1)">
       <use xlink:href="#DejaVuSans-53"/>
       <use x="63.623047" xlink:href="#DejaVuSans-48"/>
      </g>
     </g>
    </g>
    <g id="xtick_8">
     <g id="line2d_18">
      <g>
       <use style="stroke:#000000;stroke-width:0.8;" x="969.31833" xlink:href="#m7d1ca6fc8d" y="332.6472"/>
      </g>
     </g>
     <g id="text_15">
      <!-- 100 -->
      <g transform="translate(959.77458 347.245637)scale(0.1 -0.1)">
       <use xlink:href="#DejaVuSans-49"/>
       <use x="63.623047" xlink:href="#DejaVuSans-48"/>
       <use x="127.246094" xlink:href="#DejaVuSans-48"/>
      </g>
     </g>
    </g>
    <g id="xtick_9">
     <g id="line2d_19">
      <g>
       <use style="stroke:#000000;stroke-width:0.8;" x="1064.320636" xlink:href="#m7d1ca6fc8d" y="332.6472"/>
      </g>
     </g>
     <g id="text_16">
      <!-- 150 -->
      <g transform="translate(1054.776886 347.245637)scale(0.1 -0.1)">
       <use xlink:href="#DejaVuSans-49"/>
       <use x="63.623047" xlink:href="#DejaVuSans-53"/>
       <use x="127.246094" xlink:href="#DejaVuSans-48"/>
      </g>
     </g>
    </g>
    <g id="xtick_10">
     <g id="line2d_20">
      <g>
       <use style="stroke:#000000;stroke-width:0.8;" x="1159.322941" xlink:href="#m7d1ca6fc8d" y="332.6472"/>
      </g>
     </g>
     <g id="text_17">
      <!-- 200 -->
      <g transform="translate(1149.779191 347.245637)scale(0.1 -0.1)">
       <use xlink:href="#DejaVuSans-50"/>
       <use x="63.623047" xlink:href="#DejaVuSans-48"/>
       <use x="127.246094" xlink:href="#DejaVuSans-48"/>
      </g>
     </g>
    </g>
   </g>
   <g id="matplotlib.axis_4">
    <g id="ytick_7">
     <g id="line2d_21">
      <g>
       <use style="stroke:#000000;stroke-width:0.8;" x="757.178182" xlink:href="#m9c9fc5206c" y="296.220893"/>
      </g>
     </g>
     <g id="text_18">
      <!-- −1.5 -->
      <defs>
       <path d="M 10.6875 12.40625 
L 21 12.40625 
L 21 0 
L 10.6875 0 
z
" id="DejaVuSans-46"/>
      </defs>
      <g transform="translate(725.895369 300.020112)scale(0.1 -0.1)">
       <use xlink:href="#DejaVuSans-8722"/>
       <use x="83.789062" xlink:href="#DejaVuSans-49"/>
       <use x="147.412109" xlink:href="#DejaVuSans-46"/>
       <use x="179.199219" xlink:href="#DejaVuSans-53"/>
      </g>
     </g>
    </g>
    <g id="ytick_8">
     <g id="line2d_22">
      <g>
       <use style="stroke:#000000;stroke-width:0.8;" x="757.178182" xlink:href="#m9c9fc5206c" y="247.208618"/>
      </g>
     </g>
     <g id="text_19">
      <!-- −1.0 -->
      <g transform="translate(725.895369 251.007837)scale(0.1 -0.1)">
       <use xlink:href="#DejaVuSans-8722"/>
       <use x="83.789062" xlink:href="#DejaVuSans-49"/>
       <use x="147.412109" xlink:href="#DejaVuSans-46"/>
       <use x="179.199219" xlink:href="#DejaVuSans-48"/>
      </g>
     </g>
    </g>
    <g id="ytick_9">
     <g id="line2d_23">
      <g>
       <use style="stroke:#000000;stroke-width:0.8;" x="757.178182" xlink:href="#m9c9fc5206c" y="198.196342"/>
      </g>
     </g>
     <g id="text_20">
      <!-- −0.5 -->
      <g transform="translate(725.895369 201.995561)scale(0.1 -0.1)">
       <use xlink:href="#DejaVuSans-8722"/>
       <use x="83.789062" xlink:href="#DejaVuSans-48"/>
       <use x="147.412109" xlink:href="#DejaVuSans-46"/>
       <use x="179.199219" xlink:href="#DejaVuSans-53"/>
      </g>
     </g>
    </g>
    <g id="ytick_10">
     <g id="line2d_24">
      <g>
       <use style="stroke:#000000;stroke-width:0.8;" x="757.178182" xlink:href="#m9c9fc5206c" y="149.184067"/>
      </g>
     </g>
     <g id="text_21">
      <!-- 0.0 -->
      <g transform="translate(734.275057 152.983286)scale(0.1 -0.1)">
       <use xlink:href="#DejaVuSans-48"/>
       <use x="63.623047" xlink:href="#DejaVuSans-46"/>
       <use x="95.410156" xlink:href="#DejaVuSans-48"/>
      </g>
     </g>
    </g>
    <g id="ytick_11">
     <g id="line2d_25">
      <g>
       <use style="stroke:#000000;stroke-width:0.8;" x="757.178182" xlink:href="#m9c9fc5206c" y="100.171792"/>
      </g>
     </g>
     <g id="text_22">
      <!-- 0.5 -->
      <g transform="translate(734.275057 103.97101)scale(0.1 -0.1)">
       <use xlink:href="#DejaVuSans-48"/>
       <use x="63.623047" xlink:href="#DejaVuSans-46"/>
       <use x="95.410156" xlink:href="#DejaVuSans-53"/>
      </g>
     </g>
    </g>
   </g>
   <g id="line2d_26">
    <path clip-path="url(#pe4cc570c62)" d="M 779.313719 149.184789 
L 851.515471 149.106317 
L 857.21561 148.835036 
L 862.915748 148.245318 
L 868.615886 147.594584 
L 874.316025 147.248452 
L 889.516393 146.573556 
L 897.116578 146.08073 
L 902.816716 145.74847 
L 923.717223 145.220827 
L 963.618192 144.346722 
L 990.218837 144.198259 
L 992.118883 144.340209 
L 994.01893 144.612748 
L 995.918976 145.047064 
L 997.819022 145.652237 
L 999.719068 146.417927 
L 1003.51916 148.262669 
L 1007.319252 150.158139 
L 1011.119345 151.742341 
L 1014.919437 152.985495 
L 1024.419667 155.498388 
L 1026.319713 156.173071 
L 1028.21976 156.99306 
L 1030.119806 157.978363 
L 1032.019852 159.133246 
L 1035.819944 161.892838 
L 1049.120267 172.601945 
L 1056.720451 178.298684 
L 1060.520543 181.52523 
L 1062.42059 183.367123 
L 1064.320636 185.409162 
L 1066.220682 187.669506 
L 1068.120728 190.14551 
L 1071.92082 195.708858 
L 1075.720912 201.93811 
L 1079.521005 208.67021 
L 1083.321097 215.895371 
L 1087.121189 223.681355 
L 1090.921281 232.23381 
L 1094.721373 241.759 
L 1096.62142 246.995099 
L 1100.421512 258.489113 
L 1104.221604 271.418149 
L 1106.12165 278.378061 
L 1108.021696 270.83812 
L 1111.821788 257.792002 
L 1113.721834 257.690885 
L 1115.621881 257.131374 
L 1117.521927 258.801992 
L 1119.421973 262.030509 
L 1121.322019 263.526319 
L 1123.222065 262.969118 
L 1125.122111 263.968633 
L 1127.022157 268.070717 
L 1128.922203 271.644501 
L 1130.822249 272.415793 
L 1132.722296 270.760674 
L 1134.622342 272.558376 
L 1136.522388 278.165806 
L 1138.422434 281.543595 
L 1140.32248 280.014294 
L 1142.222526 279.081102 
L 1144.122572 283.912433 
L 1146.022618 290.587255 
L 1147.922664 292.031537 
L 1149.822711 289.452174 
L 1151.722757 290.423772 
L 1153.622803 296.274615 
L 1155.522849 299.675378 
L 1159.322941 293.99043 
L 1161.222987 296.961545 
L 1163.123033 301.498963 
L 1165.023079 300.372161 
L 1166.923126 295.541246 
L 1168.823172 294.658691 
L 1170.723218 298.145621 
L 1172.623264 298.58548 
L 1174.52331 294.097485 
L 1176.423356 291.869485 
L 1180.223448 299.226083 
L 1182.123494 298.007518 
L 1184.023541 321.387382 
L 1185.923587 301.549921 
L 1187.823633 300.698353 
L 1189.723679 315.552636 
L 1191.623725 318.940452 
L 1193.523771 305.951162 
L 1195.423817 302.177074 
L 1197.323863 313.764142 
L 1199.223909 315.94388 
L 1201.123956 302.539823 
L 1203.024002 297.297877 
L 1204.924048 306.286743 
L 1206.824094 307.231941 
L 1208.72414 296.70331 
L 1210.624186 294.356056 
L 1212.524232 303.183886 
L 1214.424278 303.171612 
L 1216.324324 294.595063 
L 1218.224371 295.677328 
L 1220.124417 302.88555 
L 1222.024463 299.086695 
L 1222.024463 299.086695 
" style="fill:none;stroke:#ff796c;stroke-linecap:square;stroke-width:1.5;"/>
   </g>
   <g id="line2d_27">
    <path clip-path="url(#pe4cc570c62)" d="M 779.313719 109.740194 
L 864.815794 109.848567 
L 885.716301 109.949502 
L 959.8181 110.083703 
L 995.918976 109.991755 
L 1007.319252 109.5825 
L 1018.719529 109.296936 
L 1030.119806 109.010412 
L 1039.620036 108.502638 
L 1066.220682 106.875148 
L 1071.92082 106.21375 
L 1079.521005 105.056274 
L 1085.221143 103.975059 
L 1090.921281 102.646561 
L 1094.721373 101.576073 
L 1098.521466 100.3168 
L 1102.321558 98.842473 
L 1106.12165 97.133005 
L 1111.821788 97.475462 
L 1123.222065 97.736013 
L 1140.32248 97.841139 
L 1182.123494 97.858588 
L 1184.023541 96.191018 
L 1187.823633 96.791329 
L 1191.623725 97.175559 
L 1197.323863 97.508851 
L 1204.924048 97.715221 
L 1216.324324 97.798549 
L 1222.024463 97.810612 
L 1222.024463 97.810612 
" style="fill:none;stroke:#ffff14;stroke-linecap:square;stroke-width:1.5;"/>
   </g>
   <g id="line2d_28">
    <path clip-path="url(#pe4cc570c62)" d="M 779.313719 109.744646 
L 1222.024463 109.744646 
L 1222.024463 109.744646 
" style="fill:none;stroke:#014d4e;stroke-linecap:square;stroke-width:1.5;"/>
   </g>
   <g id="line2d_29">
    <path clip-path="url(#pe4cc570c62)" d="M 779.313719 149.188519 
L 864.815794 149.080146 
L 885.716301 148.979211 
L 959.8181 148.84501 
L 995.918976 148.936957 
L 1007.319252 149.346213 
L 1018.719529 149.631777 
L 1030.119806 149.918301 
L 1039.620036 150.426074 
L 1066.220682 152.053564 
L 1071.92082 152.714963 
L 1079.521005 153.872439 
L 1085.221143 154.953654 
L 1090.921281 156.282151 
L 1094.721373 157.35264 
L 1098.521466 158.611913 
L 1102.321558 160.08624 
L 1106.12165 161.795708 
L 1111.821788 161.453251 
L 1123.222065 161.1927 
L 1140.32248 161.087573 
L 1182.123494 161.070125 
L 1184.023541 162.737695 
L 1187.823633 162.137384 
L 1191.623725 161.753154 
L 1197.323863 161.419862 
L 1204.924048 161.213492 
L 1216.324324 161.130164 
L 1222.024463 161.1181 
L 1222.024463 161.1181 
" style="fill:none;stroke:#e50000;stroke-linecap:square;stroke-width:1.5;"/>
   </g>
   <g id="patch_8">
    <path d="M 757.178182 332.6472 
L 757.178182 84.9312 
" style="fill:none;stroke:#000000;stroke-linecap:square;stroke-linejoin:miter;stroke-width:0.8;"/>
   </g>
   <g id="patch_9">
    <path d="M 1244.16 332.6472 
L 1244.16 84.9312 
" style="fill:none;stroke:#000000;stroke-linecap:square;stroke-linejoin:miter;stroke-width:0.8;"/>
   </g>
   <g id="patch_10">
    <path d="M 757.178182 332.6472 
L 1244.16 332.6472 
" style="fill:none;stroke:#000000;stroke-linecap:square;stroke-linejoin:miter;stroke-width:0.8;"/>
   </g>
   <g id="patch_11">
    <path d="M 757.178182 84.9312 
L 1244.16 84.9312 
" style="fill:none;stroke:#000000;stroke-linecap:square;stroke-linejoin:miter;stroke-width:0.8;"/>
   </g>
   <g id="text_23">
    <!-- Right flexion -->
    <defs>
     <path d="M 37.109375 75.984375 
L 37.109375 68.5 
L 28.515625 68.5 
Q 23.6875 68.5 21.796875 66.546875 
Q 19.921875 64.59375 19.921875 59.515625 
L 19.921875 54.6875 
L 34.71875 54.6875 
L 34.71875 47.703125 
L 19.921875 47.703125 
L 19.921875 0 
L 10.890625 0 
L 10.890625 47.703125 
L 2.296875 47.703125 
L 2.296875 54.6875 
L 10.890625 54.6875 
L 10.890625 58.5 
Q 10.890625 67.625 15.140625 71.796875 
Q 19.390625 75.984375 28.609375 75.984375 
z
" id="DejaVuSans-102"/>
     <path d="M 9.421875 75.984375 
L 18.40625 75.984375 
L 18.40625 0 
L 9.421875 0 
z
" id="DejaVuSans-108"/>
     <path d="M 56.203125 29.59375 
L 56.203125 25.203125 
L 14.890625 25.203125 
Q 15.484375 15.921875 20.484375 11.0625 
Q 25.484375 6.203125 34.421875 6.203125 
Q 39.59375 6.203125 44.453125 7.46875 
Q 49.3125 8.734375 54.109375 11.28125 
L 54.109375 2.78125 
Q 49.265625 0.734375 44.1875 -0.34375 
Q 39.109375 -1.421875 33.890625 -1.421875 
Q 20.796875 -1.421875 13.15625 6.1875 
Q 5.515625 13.8125 5.515625 26.8125 
Q 5.515625 40.234375 12.765625 48.109375 
Q 20.015625 56 32.328125 56 
Q 43.359375 56 49.78125 48.890625 
Q 56.203125 41.796875 56.203125 29.59375 
z
M 47.21875 32.234375 
Q 47.125 39.59375 43.09375 43.984375 
Q 39.0625 48.390625 32.421875 48.390625 
Q 24.90625 48.390625 20.390625 44.140625 
Q 15.875 39.890625 15.1875 32.171875 
z
" id="DejaVuSans-101"/>
     <path d="M 54.890625 54.6875 
L 35.109375 28.078125 
L 55.90625 0 
L 45.3125 0 
L 29.390625 21.484375 
L 13.484375 0 
L 2.875 0 
L 24.125 28.609375 
L 4.6875 54.6875 
L 15.28125 54.6875 
L 29.78125 35.203125 
L 44.28125 54.6875 
z
" id="DejaVuSans-120"/>
    </defs>
    <g transform="translate(962.800653 78.9312)scale(0.12 -0.12)">
     <use xlink:href="#DejaVuSans-82"/>
     <use x="69.482422" xlink:href="#DejaVuSans-105"/>
     <use x="97.265625" xlink:href="#DejaVuSans-103"/>
     <use x="160.742188" xlink:href="#DejaVuSans-104"/>
     <use x="224.121094" xlink:href="#DejaVuSans-116"/>
     <use x="263.330078" xlink:href="#DejaVuSans-32"/>
     <use x="295.117188" xlink:href="#DejaVuSans-102"/>
     <use x="330.322266" xlink:href="#DejaVuSans-108"/>
     <use x="358.105469" xlink:href="#DejaVuSans-101"/>
     <use x="419.613281" xlink:href="#DejaVuSans-120"/>
     <use x="478.792969" xlink:href="#DejaVuSans-105"/>
     <use x="506.576172" xlink:href="#DejaVuSans-111"/>
     <use x="567.757812" xlink:href="#DejaVuSans-110"/>
    </g>
   </g>
  </g>
  <g id="axes_3">
   <g id="patch_12">
    <path d="M 172.8 629.9064 
L 659.781818 629.9064 
L 659.781818 382.1904 
L 172.8 382.1904 
z
" style="fill:#ffffff;"/>
   </g>
   <g id="matplotlib.axis_5">
    <g id="xtick_11">
     <g id="line2d_30">
      <g>
       <use style="stroke:#000000;stroke-width:0.8;" x="194.935537" xlink:href="#m7d1ca6fc8d" y="629.9064"/>
      </g>
     </g>
     <g id="text_24">
      <!-- 0 -->
      <g transform="translate(191.754287 644.504838)scale(0.1 -0.1)">
       <use xlink:href="#DejaVuSans-48"/>
      </g>
     </g>
    </g>
    <g id="xtick_12">
     <g id="line2d_31">
      <g>
       <use style="stroke:#000000;stroke-width:0.8;" x="289.937843" xlink:href="#m7d1ca6fc8d" y="629.9064"/>
      </g>
     </g>
     <g id="text_25">
      <!-- 50 -->
      <g transform="translate(283.575343 644.504838)scale(0.1 -0.1)">
       <use xlink:href="#DejaVuSans-53"/>
       <use x="63.623047" xlink:href="#DejaVuSans-48"/>
      </g>
     </g>
    </g>
    <g id="xtick_13">
     <g id="line2d_32">
      <g>
       <use style="stroke:#000000;stroke-width:0.8;" x="384.940148" xlink:href="#m7d1ca6fc8d" y="629.9064"/>
      </g>
     </g>
     <g id="text_26">
      <!-- 100 -->
      <g transform="translate(375.396398 644.504838)scale(0.1 -0.1)">
       <use xlink:href="#DejaVuSans-49"/>
       <use x="63.623047" xlink:href="#DejaVuSans-48"/>
       <use x="127.246094" xlink:href="#DejaVuSans-48"/>
      </g>
     </g>
    </g>
    <g id="xtick_14">
     <g id="line2d_33">
      <g>
       <use style="stroke:#000000;stroke-width:0.8;" x="479.942454" xlink:href="#m7d1ca6fc8d" y="629.9064"/>
      </g>
     </g>
     <g id="text_27">
      <!-- 150 -->
      <g transform="translate(470.398704 644.504838)scale(0.1 -0.1)">
       <use xlink:href="#DejaVuSans-49"/>
       <use x="63.623047" xlink:href="#DejaVuSans-53"/>
       <use x="127.246094" xlink:href="#DejaVuSans-48"/>
      </g>
     </g>
    </g>
    <g id="xtick_15">
     <g id="line2d_34">
      <g>
       <use style="stroke:#000000;stroke-width:0.8;" x="574.944759" xlink:href="#m7d1ca6fc8d" y="629.9064"/>
      </g>
     </g>
     <g id="text_28">
      <!-- 200 -->
      <g transform="translate(565.401009 644.504838)scale(0.1 -0.1)">
       <use xlink:href="#DejaVuSans-50"/>
       <use x="63.623047" xlink:href="#DejaVuSans-48"/>
       <use x="127.246094" xlink:href="#DejaVuSans-48"/>
      </g>
     </g>
    </g>
   </g>
   <g id="matplotlib.axis_6">
    <g id="ytick_12">
     <g id="line2d_35">
      <g>
       <use style="stroke:#000000;stroke-width:0.8;" x="172.8" xlink:href="#m9c9fc5206c" y="608.75663"/>
      </g>
     </g>
     <g id="text_29">
      <!-- −0.5 -->
      <g transform="translate(141.517187 612.555849)scale(0.1 -0.1)">
       <use xlink:href="#DejaVuSans-8722"/>
       <use x="83.789062" xlink:href="#DejaVuSans-48"/>
       <use x="147.412109" xlink:href="#DejaVuSans-46"/>
       <use x="179.199219" xlink:href="#DejaVuSans-53"/>
      </g>
     </g>
    </g>
    <g id="ytick_13">
     <g id="line2d_36">
      <g>
       <use style="stroke:#000000;stroke-width:0.8;" x="172.8" xlink:href="#m9c9fc5206c" y="556.770249"/>
      </g>
     </g>
     <g id="text_30">
      <!-- 0.0 -->
      <g transform="translate(149.896875 560.569468)scale(0.1 -0.1)">
       <use xlink:href="#DejaVuSans-48"/>
       <use x="63.623047" xlink:href="#DejaVuSans-46"/>
       <use x="95.410156" xlink:href="#DejaVuSans-48"/>
      </g>
     </g>
    </g>
    <g id="ytick_14">
     <g id="line2d_37">
      <g>
       <use style="stroke:#000000;stroke-width:0.8;" x="172.8" xlink:href="#m9c9fc5206c" y="504.783869"/>
      </g>
     </g>
     <g id="text_31">
      <!-- 0.5 -->
      <g transform="translate(149.896875 508.583088)scale(0.1 -0.1)">
       <use xlink:href="#DejaVuSans-48"/>
       <use x="63.623047" xlink:href="#DejaVuSans-46"/>
       <use x="95.410156" xlink:href="#DejaVuSans-53"/>
      </g>
     </g>
    </g>
    <g id="ytick_15">
     <g id="line2d_38">
      <g>
       <use style="stroke:#000000;stroke-width:0.8;" x="172.8" xlink:href="#m9c9fc5206c" y="452.797488"/>
      </g>
     </g>
     <g id="text_32">
      <!-- 1.0 -->
      <g transform="translate(149.896875 456.596707)scale(0.1 -0.1)">
       <use xlink:href="#DejaVuSans-49"/>
       <use x="63.623047" xlink:href="#DejaVuSans-46"/>
       <use x="95.410156" xlink:href="#DejaVuSans-48"/>
      </g>
     </g>
    </g>
    <g id="ytick_16">
     <g id="line2d_39">
      <g>
       <use style="stroke:#000000;stroke-width:0.8;" x="172.8" xlink:href="#m9c9fc5206c" y="400.811108"/>
      </g>
     </g>
     <g id="text_33">
      <!-- 1.5 -->
      <g transform="translate(149.896875 404.610327)scale(0.1 -0.1)">
       <use xlink:href="#DejaVuSans-49"/>
       <use x="63.623047" xlink:href="#DejaVuSans-46"/>
       <use x="95.410156" xlink:href="#DejaVuSans-53"/>
      </g>
     </g>
    </g>
   </g>
   <g id="line2d_40">
    <path clip-path="url(#p75f019d30c)" d="M 194.935537 556.6987 
L 196.835583 556.948548 
L 200.635676 557.816456 
L 202.535722 558.008449 
L 204.435768 557.89098 
L 210.135906 556.675555 
L 212.035952 556.647849 
L 213.935998 556.922161 
L 217.736091 557.685939 
L 219.636137 557.803082 
L 221.536183 557.611186 
L 225.336275 556.731648 
L 227.236321 556.493053 
L 229.136367 556.5706 
L 234.836506 557.693197 
L 236.736552 557.77472 
L 238.636598 557.544136 
L 242.43669 556.768254 
L 244.336736 556.632663 
L 246.236782 556.777325 
L 251.936921 557.808089 
L 253.836967 557.757131 
L 259.537105 556.665175 
L 261.437151 556.584838 
L 263.337197 556.787923 
L 267.137289 557.585848 
L 269.037336 557.751286 
L 270.937382 557.62824 
L 274.737474 556.988963 
L 276.63752 556.823973 
L 278.537566 556.92974 
L 284.237704 558.091124 
L 286.137751 558.142438 
L 288.037797 557.926866 
L 291.837889 557.249393 
L 293.737935 557.128472 
L 295.637981 557.285034 
L 299.438073 557.948632 
L 301.338119 558.061254 
L 303.238166 557.911471 
L 308.938304 556.902957 
L 310.83835 556.922612 
L 316.538488 557.82597 
L 318.438534 557.858257 
L 320.33858 557.660111 
L 324.138673 557.041806 
L 326.038719 556.984481 
L 327.938765 557.198089 
L 331.738857 557.880961 
L 333.638903 558.022771 
L 335.538949 557.91917 
L 341.239088 557.041059 
L 343.139134 557.093166 
L 348.839272 557.821312 
L 350.739318 557.799513 
L 354.53941 557.18302 
L 356.439457 556.907802 
L 358.339503 556.865835 
L 360.239549 557.057112 
L 364.039641 557.705119 
L 365.939687 557.87456 
L 367.839733 557.802892 
L 371.639825 557.308149 
L 373.539872 557.229656 
L 375.439918 557.363286 
L 381.140056 558.274123 
L 383.040102 558.278075 
L 390.640287 557.466267 
L 392.540333 557.594063 
L 396.340425 558.059961 
L 398.240471 558.074921 
L 400.140517 557.861862 
L 403.940609 557.201668 
L 405.840655 556.998491 
L 407.740702 556.990288 
L 413.44084 557.502739 
L 415.340886 557.417757 
L 421.041024 556.721573 
L 422.94107 556.687873 
L 430.541255 557.343973 
L 432.441301 557.227782 
L 438.141439 556.49891 
L 440.041485 556.485474 
L 445.741624 556.770149 
L 447.64167 556.707649 
L 451.441762 556.161807 
L 453.341808 555.871615 
L 455.241854 555.724349 
L 459.041947 555.788391 
L 462.842039 555.94696 
L 464.742085 555.851663 
L 470.442223 555.113836 
L 472.342269 555.001008 
L 474.242315 555.004208 
L 479.942454 555.459217 
L 483.742546 555.297226 
L 489.442684 554.878108 
L 493.242777 555.064106 
L 495.142823 555.186892 
L 497.042869 555.194486 
L 498.942915 555.085062 
L 500.842961 554.862203 
L 508.443145 553.589681 
L 516.04333 553.066543 
L 517.943376 552.754768 
L 521.743468 551.767663 
L 523.643514 554.453845 
L 525.54356 553.462082 
L 527.443607 551.046509 
L 529.343653 551.41025 
L 531.243699 553.570356 
L 533.143745 552.696271 
L 535.043791 550.650715 
L 536.943837 552.640572 
L 538.843883 557.941478 
L 540.743929 560.589757 
L 544.544022 556.519042 
L 546.444068 557.731364 
L 548.344114 559.13125 
L 550.24416 555.448998 
L 552.144206 547.703231 
L 554.044252 542.764527 
L 555.944298 543.781549 
L 557.844344 546.377804 
L 559.74439 546.11536 
L 561.644437 545.306326 
L 563.544483 548.278665 
L 565.444529 553.251358 
L 567.344575 554.450825 
L 569.244621 551.277033 
L 571.144667 549.590784 
L 573.044713 552.734515 
L 574.944759 556.9162 
L 576.844805 558.017631 
L 578.744852 558.279961 
L 580.644898 561.634749 
L 582.544944 566.007534 
L 584.44499 565.93579 
L 586.345036 561.370295 
L 588.245082 558.089626 
L 590.145128 558.49859 
L 592.045174 558.761836 
L 593.94522 556.80966 
L 595.845267 556.58847 
L 597.745313 560.613615 
L 599.645359 556.673868 
L 601.545405 570.20956 
L 603.445451 569.987545 
L 605.345497 556.375954 
L 607.245543 550.259073 
L 609.145589 556.862665 
L 611.045635 557.859768 
L 612.945682 548.111183 
L 614.845728 546.655544 
L 616.745774 558.460463 
L 618.64582 563.024331 
L 620.545866 553.614051 
L 622.445912 550.45381 
L 624.345958 564.376512 
L 626.246004 569.235951 
L 628.14605 560.247286 
L 630.046097 560.30535 
L 631.946143 570.720406 
L 633.846189 569.741046 
L 635.746235 561.562016 
L 637.646281 568.85009 
L 637.646281 568.85009 
" style="fill:none;stroke:#ff796c;stroke-linecap:square;stroke-width:1.5;"/>
   </g>
   <g id="line2d_41">
    <path clip-path="url(#p75f019d30c)" d="M 194.935537 394.096459 
L 200.635676 394.128598 
L 204.435768 394.325363 
L 212.035952 395.110886 
L 217.736091 395.758024 
L 221.536183 396.350785 
L 234.836506 398.932207 
L 238.636598 399.835938 
L 250.036874 402.938081 
L 253.836967 404.099914 
L 265.237243 408.067993 
L 270.937382 410.175146 
L 284.237704 415.638886 
L 288.037797 417.39829 
L 299.438073 423.142313 
L 305.138212 426.294715 
L 322.238627 436.322139 
L 337.438995 445.935173 
L 354.53941 457.632749 
L 362.139595 462.953618 
L 367.839733 466.965487 
L 384.940148 479.559884 
L 398.240471 490.10293 
L 415.340886 504.423933 
L 438.141439 524.11184 
L 451.441762 535.981005 
L 462.842039 546.229139 
L 476.142362 558.130135 
L 489.442684 569.473799 
L 497.042869 575.615427 
L 504.643053 581.606513 
L 508.443145 584.406791 
L 512.243238 586.982398 
L 516.04333 589.332574 
L 519.843422 591.450101 
L 521.743468 592.399051 
L 523.643514 593.591026 
L 527.443607 596.318287 
L 529.343653 597.450241 
L 533.143745 599.202285 
L 535.043791 599.938513 
L 536.943837 600.303585 
L 540.743929 600.584198 
L 544.544022 601.558226 
L 546.444068 602.765354 
L 548.344114 604.168395 
L 550.24416 605.952173 
L 552.144206 607.950656 
L 554.044252 609.668467 
L 555.944298 610.817211 
L 557.844344 611.559062 
L 559.74439 612.13094 
L 561.644437 612.471481 
L 563.544483 612.424707 
L 567.344575 611.9272 
L 569.244621 611.873419 
L 571.144667 611.687889 
L 573.044713 611.186943 
L 574.944759 610.552698 
L 578.744852 609.622919 
L 580.644898 609.212211 
L 582.544944 608.943599 
L 584.44499 609.094621 
L 593.94522 611.799336 
L 595.845267 612.164997 
L 597.745313 612.348344 
L 599.645359 611.869648 
L 601.545405 611.683004 
L 603.445451 612.467691 
L 605.345497 614.093253 
L 607.245543 615.545817 
L 612.945682 618.210362 
L 614.845728 618.646582 
L 618.64582 618.173841 
L 620.545866 618.40938 
L 622.445912 618.359686 
L 624.345958 617.478463 
L 626.246004 616.748546 
L 628.14605 616.363936 
L 630.046097 615.558856 
L 631.946143 614.248945 
L 633.846189 613.174752 
L 635.746235 612.229564 
L 637.646281 610.712767 
L 637.646281 610.712767 
" style="fill:none;stroke:#ffff14;stroke-linecap:square;stroke-width:1.5;"/>
   </g>
   <g id="line2d_42">
    <path clip-path="url(#p75f019d30c)" d="M 194.935537 393.450218 
L 202.535722 393.597373 
L 210.135906 394.038411 
L 217.736091 394.772063 
L 225.336275 395.796212 
L 232.936459 397.107906 
L 240.536644 398.703362 
L 248.136828 400.577981 
L 255.737013 402.726357 
L 263.337197 405.142297 
L 270.937382 407.818834 
L 278.537566 410.748251 
L 286.137751 413.922102 
L 293.737935 417.331236 
L 301.338119 420.965824 
L 308.938304 424.815386 
L 318.438534 429.91268 
L 327.938765 435.305525 
L 337.438995 440.969628 
L 346.939226 446.879476 
L 358.339503 454.258124 
L 369.739779 461.904405 
L 383.040102 471.097087 
L 400.140517 483.221454 
L 455.241854 522.605458 
L 468.542177 531.721538 
L 479.942454 539.284039 
L 491.34273 546.562747 
L 500.842961 552.377433 
L 510.343192 557.936029 
L 519.843422 563.213496 
L 529.343653 568.186063 
L 536.943837 571.929487 
L 544.544022 575.452618 
L 552.144206 578.745298 
L 559.74439 581.798032 
L 567.344575 584.60202 
L 574.944759 587.149176 
L 582.544944 589.432157 
L 590.145128 591.44438 
L 597.745313 593.180044 
L 605.345497 594.634143 
L 612.945682 595.802485 
L 620.545866 596.681702 
L 628.14605 597.269259 
L 635.746235 597.563462 
L 637.646281 597.591058 
L 637.646281 597.591058 
" style="fill:none;stroke:#014d4e;stroke-linecap:square;stroke-width:1.5;"/>
   </g>
   <g id="line2d_43">
    <path clip-path="url(#p75f019d30c)" d="M 194.935537 556.124009 
L 204.435768 556.125002 
L 215.836044 555.808355 
L 221.536183 555.667455 
L 229.136367 555.368577 
L 240.536644 555.131837 
L 246.236782 554.956835 
L 255.737013 554.754091 
L 263.337197 554.499526 
L 272.837428 554.35581 
L 278.537566 554.239357 
L 286.137751 554.196918 
L 303.238166 553.470414 
L 312.738396 552.920603 
L 320.33858 552.601102 
L 327.938765 552.21541 
L 335.538949 551.927227 
L 345.03918 551.39291 
L 352.639364 551.028422 
L 360.239549 550.640306 
L 369.739779 550.323256 
L 377.339964 550.021124 
L 383.040102 549.780332 
L 396.340425 548.715477 
L 402.040563 548.075447 
L 411.540794 546.964727 
L 419.140978 545.970273 
L 436.241393 543.534511 
L 449.541716 541.144707 
L 495.142823 531.591611 
L 508.443145 529.209475 
L 512.243238 528.802644 
L 516.04333 528.575471 
L 519.843422 528.533645 
L 521.743468 528.604337 
L 523.643514 528.41962 
L 527.443607 527.668999 
L 529.343653 527.506071 
L 533.143745 527.652616 
L 535.043791 527.845609 
L 536.943837 528.396151 
L 538.843883 529.211471 
L 540.743929 529.905291 
L 544.544022 530.664641 
L 546.444068 530.302671 
L 548.344114 529.730228 
L 550.24416 528.76234 
L 552.144206 527.564891 
L 554.044252 526.633115 
L 555.944298 526.255263 
L 557.844344 526.269025 
L 559.74439 526.437342 
L 561.644437 526.821446 
L 563.544483 527.577184 
L 567.344575 529.445069 
L 571.144667 530.990539 
L 578.744852 535.471449 
L 580.644898 536.44459 
L 582.544944 537.258808 
L 584.44499 537.636465 
L 595.845267 537.377595 
L 597.745313 537.601949 
L 599.645359 538.470745 
L 601.545405 539.029815 
L 603.445451 538.599816 
L 605.345497 537.311139 
L 607.245543 536.177596 
L 611.045635 535.077449 
L 612.945682 534.362372 
L 614.845728 534.173176 
L 618.64582 535.085565 
L 620.545866 535.042572 
L 622.445912 535.266579 
L 624.345958 536.30385 
L 626.246004 537.171524 
L 628.14605 537.675572 
L 630.046097 538.581753 
L 631.946143 539.974407 
L 633.846189 541.112972 
L 635.746235 542.104148 
L 637.646281 543.64854 
L 637.646281 543.64854 
" style="fill:none;stroke:#e50000;stroke-linecap:square;stroke-width:1.5;"/>
   </g>
   <g id="patch_13">
    <path d="M 172.8 629.9064 
L 172.8 382.1904 
" style="fill:none;stroke:#000000;stroke-linecap:square;stroke-linejoin:miter;stroke-width:0.8;"/>
   </g>
   <g id="patch_14">
    <path d="M 659.781818 629.9064 
L 659.781818 382.1904 
" style="fill:none;stroke:#000000;stroke-linecap:square;stroke-linejoin:miter;stroke-width:0.8;"/>
   </g>
   <g id="patch_15">
    <path d="M 172.8 629.9064 
L 659.781818 629.9064 
" style="fill:none;stroke:#000000;stroke-linecap:square;stroke-linejoin:miter;stroke-width:0.8;"/>
   </g>
   <g id="patch_16">
    <path d="M 172.8 382.1904 
L 659.781818 382.1904 
" style="fill:none;stroke:#000000;stroke-linecap:square;stroke-linejoin:miter;stroke-width:0.8;"/>
   </g>
   <g id="text_34">
    <!-- Left abduction -->
    <defs>
     <path d="M 9.8125 72.90625 
L 19.671875 72.90625 
L 19.671875 8.296875 
L 55.171875 8.296875 
L 55.171875 0 
L 9.8125 0 
z
" id="DejaVuSans-76"/>
    </defs>
    <g transform="translate(372.997159 376.1904)scale(0.12 -0.12)">
     <use xlink:href="#DejaVuSans-76"/>
     <use x="55.697266" xlink:href="#DejaVuSans-101"/>
     <use x="117.220703" xlink:href="#DejaVuSans-102"/>
     <use x="152.410156" xlink:href="#DejaVuSans-116"/>
     <use x="191.619141" xlink:href="#DejaVuSans-32"/>
     <use x="223.40625" xlink:href="#DejaVuSans-97"/>
     <use x="284.685547" xlink:href="#DejaVuSans-98"/>
     <use x="348.162109" xlink:href="#DejaVuSans-100"/>
     <use x="411.638672" xlink:href="#DejaVuSans-117"/>
     <use x="475.017578" xlink:href="#DejaVuSans-99"/>
     <use x="529.998047" xlink:href="#DejaVuSans-116"/>
     <use x="569.207031" xlink:href="#DejaVuSans-105"/>
     <use x="596.990234" xlink:href="#DejaVuSans-111"/>
     <use x="658.171875" xlink:href="#DejaVuSans-110"/>
    </g>
   </g>
  </g>
  <g id="axes_4">
   <g id="patch_17">
    <path d="M 757.178182 629.9064 
L 1244.16 629.9064 
L 1244.16 382.1904 
L 757.178182 382.1904 
z
" style="fill:#ffffff;"/>
   </g>
   <g id="matplotlib.axis_7">
    <g id="xtick_16">
     <g id="line2d_44">
      <g>
       <use style="stroke:#000000;stroke-width:0.8;" x="779.313719" xlink:href="#m7d1ca6fc8d" y="629.9064"/>
      </g>
     </g>
     <g id="text_35">
      <!-- 0 -->
      <g transform="translate(776.132469 644.504838)scale(0.1 -0.1)">
       <use xlink:href="#DejaVuSans-48"/>
      </g>
     </g>
    </g>
    <g id="xtick_17">
     <g id="line2d_45">
      <g>
       <use style="stroke:#000000;stroke-width:0.8;" x="874.316025" xlink:href="#m7d1ca6fc8d" y="629.9064"/>
      </g>
     </g>
     <g id="text_36">
      <!-- 50 -->
      <g transform="translate(867.953525 644.504838)scale(0.1 -0.1)">
       <use xlink:href="#DejaVuSans-53"/>
       <use x="63.623047" xlink:href="#DejaVuSans-48"/>
      </g>
     </g>
    </g>
    <g id="xtick_18">
     <g id="line2d_46">
      <g>
       <use style="stroke:#000000;stroke-width:0.8;" x="969.31833" xlink:href="#m7d1ca6fc8d" y="629.9064"/>
      </g>
     </g>
     <g id="text_37">
      <!-- 100 -->
      <g transform="translate(959.77458 644.504838)scale(0.1 -0.1)">
       <use xlink:href="#DejaVuSans-49"/>
       <use x="63.623047" xlink:href="#DejaVuSans-48"/>
       <use x="127.246094" xlink:href="#DejaVuSans-48"/>
      </g>
     </g>
    </g>
    <g id="xtick_19">
     <g id="line2d_47">
      <g>
       <use style="stroke:#000000;stroke-width:0.8;" x="1064.320636" xlink:href="#m7d1ca6fc8d" y="629.9064"/>
      </g>
     </g>
     <g id="text_38">
      <!-- 150 -->
      <g transform="translate(1054.776886 644.504838)scale(0.1 -0.1)">
       <use xlink:href="#DejaVuSans-49"/>
       <use x="63.623047" xlink:href="#DejaVuSans-53"/>
       <use x="127.246094" xlink:href="#DejaVuSans-48"/>
      </g>
     </g>
    </g>
    <g id="xtick_20">
     <g id="line2d_48">
      <g>
       <use style="stroke:#000000;stroke-width:0.8;" x="1159.322941" xlink:href="#m7d1ca6fc8d" y="629.9064"/>
      </g>
     </g>
     <g id="text_39">
      <!-- 200 -->
      <g transform="translate(1149.779191 644.504838)scale(0.1 -0.1)">
       <use xlink:href="#DejaVuSans-50"/>
       <use x="63.623047" xlink:href="#DejaVuSans-48"/>
       <use x="127.246094" xlink:href="#DejaVuSans-48"/>
      </g>
     </g>
    </g>
   </g>
   <g id="matplotlib.axis_8">
    <g id="ytick_17">
     <g id="line2d_49">
      <g>
       <use style="stroke:#000000;stroke-width:0.8;" x="757.178182" xlink:href="#m9c9fc5206c" y="606.042943"/>
      </g>
     </g>
     <g id="text_40">
      <!-- −0.5 -->
      <g transform="translate(725.895369 609.842162)scale(0.1 -0.1)">
       <use xlink:href="#DejaVuSans-8722"/>
       <use x="83.789062" xlink:href="#DejaVuSans-48"/>
       <use x="147.412109" xlink:href="#DejaVuSans-46"/>
       <use x="179.199219" xlink:href="#DejaVuSans-53"/>
      </g>
     </g>
    </g>
    <g id="ytick_18">
     <g id="line2d_50">
      <g>
       <use style="stroke:#000000;stroke-width:0.8;" x="757.178182" xlink:href="#m9c9fc5206c" y="572.580799"/>
      </g>
     </g>
     <g id="text_41">
      <!-- −0.4 -->
      <g transform="translate(725.895369 576.380018)scale(0.1 -0.1)">
       <use xlink:href="#DejaVuSans-8722"/>
       <use x="83.789062" xlink:href="#DejaVuSans-48"/>
       <use x="147.412109" xlink:href="#DejaVuSans-46"/>
       <use x="179.199219" xlink:href="#DejaVuSans-52"/>
      </g>
     </g>
    </g>
    <g id="ytick_19">
     <g id="line2d_51">
      <g>
       <use style="stroke:#000000;stroke-width:0.8;" x="757.178182" xlink:href="#m9c9fc5206c" y="539.118656"/>
      </g>
     </g>
     <g id="text_42">
      <!-- −0.3 -->
      <g transform="translate(725.895369 542.917874)scale(0.1 -0.1)">
       <use xlink:href="#DejaVuSans-8722"/>
       <use x="83.789062" xlink:href="#DejaVuSans-48"/>
       <use x="147.412109" xlink:href="#DejaVuSans-46"/>
       <use x="179.199219" xlink:href="#DejaVuSans-51"/>
      </g>
     </g>
    </g>
    <g id="ytick_20">
     <g id="line2d_52">
      <g>
       <use style="stroke:#000000;stroke-width:0.8;" x="757.178182" xlink:href="#m9c9fc5206c" y="505.656512"/>
      </g>
     </g>
     <g id="text_43">
      <!-- −0.2 -->
      <g transform="translate(725.895369 509.45573)scale(0.1 -0.1)">
       <use xlink:href="#DejaVuSans-8722"/>
       <use x="83.789062" xlink:href="#DejaVuSans-48"/>
       <use x="147.412109" xlink:href="#DejaVuSans-46"/>
       <use x="179.199219" xlink:href="#DejaVuSans-50"/>
      </g>
     </g>
    </g>
    <g id="ytick_21">
     <g id="line2d_53">
      <g>
       <use style="stroke:#000000;stroke-width:0.8;" x="757.178182" xlink:href="#m9c9fc5206c" y="472.194368"/>
      </g>
     </g>
     <g id="text_44">
      <!-- −0.1 -->
      <g transform="translate(725.895369 475.993586)scale(0.1 -0.1)">
       <use xlink:href="#DejaVuSans-8722"/>
       <use x="83.789062" xlink:href="#DejaVuSans-48"/>
       <use x="147.412109" xlink:href="#DejaVuSans-46"/>
       <use x="179.199219" xlink:href="#DejaVuSans-49"/>
      </g>
     </g>
    </g>
    <g id="ytick_22">
     <g id="line2d_54">
      <g>
       <use style="stroke:#000000;stroke-width:0.8;" x="757.178182" xlink:href="#m9c9fc5206c" y="438.732224"/>
      </g>
     </g>
     <g id="text_45">
      <!-- 0.0 -->
      <g transform="translate(734.275057 442.531442)scale(0.1 -0.1)">
       <use xlink:href="#DejaVuSans-48"/>
       <use x="63.623047" xlink:href="#DejaVuSans-46"/>
       <use x="95.410156" xlink:href="#DejaVuSans-48"/>
      </g>
     </g>
    </g>
    <g id="ytick_23">
     <g id="line2d_55">
      <g>
       <use style="stroke:#000000;stroke-width:0.8;" x="757.178182" xlink:href="#m9c9fc5206c" y="405.27008"/>
      </g>
     </g>
     <g id="text_46">
      <!-- 0.1 -->
      <g transform="translate(734.275057 409.069299)scale(0.1 -0.1)">
       <use xlink:href="#DejaVuSans-48"/>
       <use x="63.623047" xlink:href="#DejaVuSans-46"/>
       <use x="95.410156" xlink:href="#DejaVuSans-49"/>
      </g>
     </g>
    </g>
   </g>
   <g id="line2d_56">
    <path clip-path="url(#pe6d34e5fa2)" d="M 779.313719 438.724061 
L 851.515471 438.310913 
L 857.21561 438.016277 
L 862.915748 437.406233 
L 868.615886 436.733753 
L 874.316025 436.36093 
L 889.516393 435.605906 
L 897.116578 435.068437 
L 902.816716 434.700757 
L 923.717223 434.040449 
L 965.518238 432.859501 
L 990.218837 432.571443 
L 992.118883 432.712014 
L 994.01893 432.992501 
L 995.918976 433.446647 
L 997.819022 434.084651 
L 999.719068 434.896015 
L 1003.51916 436.860279 
L 1007.319252 438.88716 
L 1011.119345 440.586677 
L 1014.919437 441.928457 
L 1024.419667 444.662085 
L 1026.319713 445.398884 
L 1028.21976 446.295137 
L 1030.119806 447.372886 
L 1032.019852 448.637022 
L 1033.919898 450.076631 
L 1037.71999 453.34677 
L 1047.220221 461.869288 
L 1052.920359 466.526396 
L 1058.620497 471.191454 
L 1062.42059 474.759999 
L 1064.320636 476.785639 
L 1066.220682 478.995628 
L 1070.020774 483.921632 
L 1073.820866 489.363121 
L 1087.121189 509.289604 
L 1092.821327 518.036112 
L 1096.62142 524.254915 
L 1100.421512 530.915366 
L 1106.12165 541.506347 
L 1109.921742 515.611644 
L 1111.821788 502.862515 
L 1113.721834 502.672269 
L 1115.621881 501.943482 
L 1117.521927 503.626227 
L 1119.421973 506.97543 
L 1121.322019 508.431537 
L 1123.222065 507.674155 
L 1125.122111 508.556944 
L 1127.022157 512.687692 
L 1128.922203 516.234311 
L 1130.822249 516.807999 
L 1132.722296 514.96443 
L 1134.622342 516.609652 
L 1136.522388 522.013854 
L 1138.422434 525.168315 
L 1140.32248 523.508983 
L 1142.222526 522.430336 
L 1144.122572 526.886967 
L 1146.022618 533.101053 
L 1147.922664 534.37489 
L 1149.822711 531.894724 
L 1151.722757 532.796486 
L 1153.622803 538.286381 
L 1155.522849 541.442497 
L 1159.322941 535.847481 
L 1161.222987 538.346647 
L 1163.123033 542.232307 
L 1165.023079 540.831934 
L 1166.923126 536.023943 
L 1168.823172 534.907346 
L 1170.723218 537.861602 
L 1172.623264 538.052138 
L 1174.52331 533.752629 
L 1176.423356 531.548893 
L 1180.223448 537.973813 
L 1182.123494 536.726948 
L 1184.023541 558.817141 
L 1185.923587 536.307335 
L 1187.823633 536.081824 
L 1189.723679 549.92918 
L 1191.623725 553.281187 
L 1193.523771 541.802967 
L 1195.423817 538.547189 
L 1197.323863 548.9656 
L 1199.223909 550.922029 
L 1201.123956 539.020761 
L 1203.024002 534.348183 
L 1204.924048 542.213429 
L 1206.824094 542.932007 
L 1208.72414 533.449667 
L 1210.624186 531.249185 
L 1212.524232 538.881394 
L 1214.424278 538.685851 
L 1216.324324 530.907923 
L 1218.224371 531.667854 
L 1220.124417 537.889508 
L 1222.024463 534.29814 
L 1222.024463 534.29814 
" style="fill:none;stroke:#ff796c;stroke-linecap:square;stroke-width:1.5;"/>
   </g>
   <g id="line2d_57">
    <path clip-path="url(#pe6d34e5fa2)" d="M 779.313719 573.406301 
L 859.115656 573.500129 
L 883.816255 573.816142 
L 961.718146 574.401767 
L 992.118883 574.447937 
L 995.918976 574.263799 
L 999.719068 573.89722 
L 1014.919437 572.069379 
L 1026.319713 571.129478 
L 1030.119806 570.593991 
L 1033.919898 569.857795 
L 1039.620036 568.487468 
L 1049.120267 566.198881 
L 1054.820405 565.058199 
L 1062.42059 563.782211 
L 1070.020774 562.69366 
L 1073.820866 562.401485 
L 1075.720912 562.384757 
L 1077.620958 562.481047 
L 1079.521005 562.706274 
L 1081.421051 563.07626 
L 1083.321097 563.607311 
L 1085.221143 564.312536 
L 1087.121189 565.201015 
L 1089.021235 566.281472 
L 1090.921281 567.563784 
L 1092.821327 569.055383 
L 1094.721373 570.76127 
L 1096.62142 572.690062 
L 1098.521466 574.857309 
L 1100.421512 577.282354 
L 1102.321558 579.986717 
L 1104.221604 582.998147 
L 1106.12165 586.352549 
L 1108.021696 594.937273 
L 1109.921742 604.376611 
L 1111.821788 614.521376 
L 1119.421973 614.24229 
L 1128.922203 614.182655 
L 1182.123494 614.498927 
L 1184.023541 612.386226 
L 1185.923587 618.646582 
L 1187.823633 617.854637 
L 1191.623725 616.656919 
L 1195.423817 615.854866 
L 1199.223909 615.352358 
L 1203.024002 615.01312 
L 1208.72414 614.77061 
L 1222.024463 614.506674 
L 1222.024463 614.506674 
" style="fill:none;stroke:#ffff14;stroke-linecap:square;stroke-width:1.5;"/>
   </g>
   <g id="line2d_58">
    <path clip-path="url(#pe6d34e5fa2)" d="M 779.313719 573.364576 
L 1222.024463 573.364576 
L 1222.024463 573.364576 
" style="fill:none;stroke:#014d4e;stroke-linecap:square;stroke-width:1.5;"/>
   </g>
   <g id="line2d_59">
    <path clip-path="url(#pe6d34e5fa2)" d="M 779.313719 438.690499 
L 859.115656 438.596671 
L 883.816255 438.280658 
L 961.718146 437.695033 
L 992.118883 437.648863 
L 995.918976 437.833001 
L 999.719068 438.19958 
L 1014.919437 440.027421 
L 1026.319713 440.967322 
L 1030.119806 441.502809 
L 1033.919898 442.239005 
L 1039.620036 443.609332 
L 1049.120267 445.897919 
L 1054.820405 447.038601 
L 1062.42059 448.314589 
L 1070.020774 449.40314 
L 1073.820866 449.695315 
L 1075.720912 449.712043 
L 1077.620958 449.615753 
L 1079.521005 449.390526 
L 1081.421051 449.02054 
L 1083.321097 448.489489 
L 1085.221143 447.784264 
L 1087.121189 446.895785 
L 1089.021235 445.815328 
L 1090.921281 444.533016 
L 1092.821327 443.041417 
L 1094.721373 441.33553 
L 1096.62142 439.406738 
L 1098.521466 437.239491 
L 1100.421512 434.814446 
L 1102.321558 432.110083 
L 1104.221604 429.098653 
L 1106.12165 425.744251 
L 1108.021696 417.159527 
L 1109.921742 407.720189 
L 1111.821788 397.575424 
L 1119.421973 397.85451 
L 1128.922203 397.914145 
L 1182.123494 397.597873 
L 1184.023541 399.710574 
L 1185.923587 393.450218 
L 1187.823633 394.242163 
L 1191.623725 395.439881 
L 1195.423817 396.241934 
L 1199.223909 396.744442 
L 1203.024002 397.08368 
L 1208.72414 397.32619 
L 1222.024463 397.590126 
L 1222.024463 397.590126 
" style="fill:none;stroke:#e50000;stroke-linecap:square;stroke-width:1.5;"/>
   </g>
   <g id="patch_18">
    <path d="M 757.178182 629.9064 
L 757.178182 382.1904 
" style="fill:none;stroke:#000000;stroke-linecap:square;stroke-linejoin:miter;stroke-width:0.8;"/>
   </g>
   <g id="patch_19">
    <path d="M 1244.16 629.9064 
L 1244.16 382.1904 
" style="fill:none;stroke:#000000;stroke-linecap:square;stroke-linejoin:miter;stroke-width:0.8;"/>
   </g>
   <g id="patch_20">
    <path d="M 757.178182 629.9064 
L 1244.16 629.9064 
" style="fill:none;stroke:#000000;stroke-linecap:square;stroke-linejoin:miter;stroke-width:0.8;"/>
   </g>
   <g id="patch_21">
    <path d="M 757.178182 382.1904 
L 1244.16 382.1904 
" style="fill:none;stroke:#000000;stroke-linecap:square;stroke-linejoin:miter;stroke-width:0.8;"/>
   </g>
   <g id="text_47">
    <!-- Left flexion -->
    <g transform="translate(967.102841 376.1904)scale(0.12 -0.12)">
     <use xlink:href="#DejaVuSans-76"/>
     <use x="55.697266" xlink:href="#DejaVuSans-101"/>
     <use x="117.220703" xlink:href="#DejaVuSans-102"/>
     <use x="152.410156" xlink:href="#DejaVuSans-116"/>
     <use x="191.619141" xlink:href="#DejaVuSans-32"/>
     <use x="223.40625" xlink:href="#DejaVuSans-102"/>
     <use x="258.611328" xlink:href="#DejaVuSans-108"/>
     <use x="286.394531" xlink:href="#DejaVuSans-101"/>
     <use x="347.902344" xlink:href="#DejaVuSans-120"/>
     <use x="407.082031" xlink:href="#DejaVuSans-105"/>
     <use x="434.865234" xlink:href="#DejaVuSans-111"/>
     <use x="496.046875" xlink:href="#DejaVuSans-110"/>
    </g>
   </g>
  </g>
  <g id="legend_1">
   <g id="patch_22">
    <path d="M 1308.251562 384.875313 
L 1375.4 384.875313 
Q 1377.4 384.875313 1377.4 382.875313 
L 1377.4 324.884687 
Q 1377.4 322.884687 1375.4 322.884687 
L 1308.251562 322.884687 
Q 1306.251562 322.884687 1306.251562 324.884687 
L 1306.251562 382.875313 
Q 1306.251562 384.875313 1308.251562 384.875313 
z
" style="fill:#ffffff;opacity:0.8;stroke:#cccccc;stroke-linejoin:miter;"/>
   </g>
   <g id="line2d_60">
    <path d="M 1310.251562 330.983125 
L 1330.251562 330.983125 
" style="fill:none;stroke:#ff796c;stroke-linecap:square;stroke-width:1.5;"/>
   </g>
   <g id="line2d_61"/>
   <g id="text_48">
    <!-- Torque -->
    <defs>
     <path d="M -0.296875 72.90625 
L 61.375 72.90625 
L 61.375 64.59375 
L 35.5 64.59375 
L 35.5 0 
L 25.59375 0 
L 25.59375 64.59375 
L -0.296875 64.59375 
z
" id="DejaVuSans-84"/>
     <path d="M 41.109375 46.296875 
Q 39.59375 47.171875 37.8125 47.578125 
Q 36.03125 48 33.890625 48 
Q 26.265625 48 22.1875 43.046875 
Q 18.109375 38.09375 18.109375 28.8125 
L 18.109375 0 
L 9.078125 0 
L 9.078125 54.6875 
L 18.109375 54.6875 
L 18.109375 46.1875 
Q 20.953125 51.171875 25.484375 53.578125 
Q 30.03125 56 36.53125 56 
Q 37.453125 56 38.578125 55.875 
Q 39.703125 55.765625 41.0625 55.515625 
z
" id="DejaVuSans-114"/>
     <path d="M 14.796875 27.296875 
Q 14.796875 17.390625 18.875 11.75 
Q 22.953125 6.109375 30.078125 6.109375 
Q 37.203125 6.109375 41.296875 11.75 
Q 45.40625 17.390625 45.40625 27.296875 
Q 45.40625 37.203125 41.296875 42.84375 
Q 37.203125 48.484375 30.078125 48.484375 
Q 22.953125 48.484375 18.875 42.84375 
Q 14.796875 37.203125 14.796875 27.296875 
z
M 45.40625 8.203125 
Q 42.578125 3.328125 38.25 0.953125 
Q 33.9375 -1.421875 27.875 -1.421875 
Q 17.96875 -1.421875 11.734375 6.484375 
Q 5.515625 14.40625 5.515625 27.296875 
Q 5.515625 40.1875 11.734375 48.09375 
Q 17.96875 56 27.875 56 
Q 33.9375 56 38.25 53.625 
Q 42.578125 51.265625 45.40625 46.390625 
L 45.40625 54.6875 
L 54.390625 54.6875 
L 54.390625 -20.796875 
L 45.40625 -20.796875 
z
" id="DejaVuSans-113"/>
    </defs>
    <g transform="translate(1338.251562 334.483125)scale(0.1 -0.1)">
     <use xlink:href="#DejaVuSans-84"/>
     <use x="60.818359" xlink:href="#DejaVuSans-111"/>
     <use x="122" xlink:href="#DejaVuSans-114"/>
     <use x="163.097656" xlink:href="#DejaVuSans-113"/>
     <use x="226.574219" xlink:href="#DejaVuSans-117"/>
     <use x="289.953125" xlink:href="#DejaVuSans-101"/>
    </g>
   </g>
   <g id="line2d_62">
    <path d="M 1310.251562 345.66125 
L 1330.251562 345.66125 
" style="fill:none;stroke:#ffff14;stroke-linecap:square;stroke-width:1.5;"/>
   </g>
   <g id="line2d_63"/>
   <g id="text_49">
    <!-- q -->
    <g transform="translate(1338.251562 349.16125)scale(0.1 -0.1)">
     <use xlink:href="#DejaVuSans-113"/>
    </g>
   </g>
   <g id="line2d_64">
    <path d="M 1310.251562 360.339375 
L 1330.251562 360.339375 
" style="fill:none;stroke:#014d4e;stroke-linecap:square;stroke-width:1.5;"/>
   </g>
   <g id="line2d_65"/>
   <g id="text_50">
    <!-- q_des -->
    <defs>
     <path d="M 50.984375 -16.609375 
L 50.984375 -23.578125 
L -0.984375 -23.578125 
L -0.984375 -16.609375 
z
" id="DejaVuSans-95"/>
     <path d="M 44.28125 53.078125 
L 44.28125 44.578125 
Q 40.484375 46.53125 36.375 47.5 
Q 32.28125 48.484375 27.875 48.484375 
Q 21.1875 48.484375 17.84375 46.4375 
Q 14.5 44.390625 14.5 40.28125 
Q 14.5 37.15625 16.890625 35.375 
Q 19.28125 33.59375 26.515625 31.984375 
L 29.59375 31.296875 
Q 39.15625 29.25 43.1875 25.515625 
Q 47.21875 21.78125 47.21875 15.09375 
Q 47.21875 7.46875 41.1875 3.015625 
Q 35.15625 -1.421875 24.609375 -1.421875 
Q 20.21875 -1.421875 15.453125 -0.5625 
Q 10.6875 0.296875 5.421875 2 
L 5.421875 11.28125 
Q 10.40625 8.6875 15.234375 7.390625 
Q 20.0625 6.109375 24.8125 6.109375 
Q 31.15625 6.109375 34.5625 8.28125 
Q 37.984375 10.453125 37.984375 14.40625 
Q 37.984375 18.0625 35.515625 20.015625 
Q 33.0625 21.96875 24.703125 23.78125 
L 21.578125 24.515625 
Q 13.234375 26.265625 9.515625 29.90625 
Q 5.8125 33.546875 5.8125 39.890625 
Q 5.8125 47.609375 11.28125 51.796875 
Q 16.75 56 26.8125 56 
Q 31.78125 56 36.171875 55.265625 
Q 40.578125 54.546875 44.28125 53.078125 
z
" id="DejaVuSans-115"/>
    </defs>
    <g transform="translate(1338.251562 363.839375)scale(0.1 -0.1)">
     <use xlink:href="#DejaVuSans-113"/>
     <use x="63.476562" xlink:href="#DejaVuSans-95"/>
     <use x="113.476562" xlink:href="#DejaVuSans-100"/>
     <use x="176.953125" xlink:href="#DejaVuSans-101"/>
     <use x="238.476562" xlink:href="#DejaVuSans-115"/>
    </g>
   </g>
   <g id="line2d_66">
    <path d="M 1310.251562 375.295625 
L 1330.251562 375.295625 
" style="fill:none;stroke:#e50000;stroke-linecap:square;stroke-width:1.5;"/>
   </g>
   <g id="line2d_67"/>
   <g id="text_51">
    <!-- error -->
    <g transform="translate(1338.251562 378.795625)scale(0.1 -0.1)">
     <use xlink:href="#DejaVuSans-101"/>
     <use x="61.523438" xlink:href="#DejaVuSans-114"/>
     <use x="102.621094" xlink:href="#DejaVuSans-114"/>
     <use x="143.703125" xlink:href="#DejaVuSans-111"/>
     <use x="204.884766" xlink:href="#DejaVuSans-114"/>
    </g>
   </g>
  </g>
 </g>
 <defs>
  <clipPath id="p2c227f2ae7">
   <rect height="247.716" width="486.981818" x="172.8" y="84.9312"/>
  </clipPath>
  <clipPath id="pe4cc570c62">
   <rect height="247.716" width="486.981818" x="757.178182" y="84.9312"/>
  </clipPath>
  <clipPath id="p75f019d30c">
   <rect height="247.716" width="486.981818" x="172.8" y="382.1904"/>
  </clipPath>
  <clipPath id="pe6d34e5fa2">
   <rect height="247.716" width="486.981818" x="757.178182" y="382.1904"/>
  </clipPath>
 </defs>
</svg>
