<?xml version="1.0" encoding="utf-8" standalone="no"?>
<!DOCTYPE svg PUBLIC "-//W3C//DTD SVG 1.1//EN"
  "http://www.w3.org/Graphics/SVG/1.1/DTD/svg11.dtd">
<!-- Created with matplotlib (https://matplotlib.org/) -->
<svg height="707.76pt" version="1.1" viewBox="0 0 1382.4 707.76" width="1382.4pt" xmlns="http://www.w3.org/2000/svg" xmlns:xlink="http://www.w3.org/1999/xlink">
 <defs>
  <style type="text/css">
*{stroke-linecap:butt;stroke-linejoin:round;}
  </style>
 </defs>
 <g id="figure_1">
  <g id="patch_1">
   <path d="M 0 707.76 
L 1382.4 707.76 
L 1382.4 0 
L 0 0 
z
" style="fill:#ffffff;"/>
  </g>
  <g id="axes_1">
   <g id="patch_2">
    <path d="M 172.8 332.6472 
L 659.781818 332.6472 
L 659.781818 84.9312 
L 172.8 84.9312 
z
" style="fill:#ffffff;"/>
   </g>
   <g id="matplotlib.axis_1">
    <g id="xtick_1">
     <g id="line2d_1">
      <defs>
       <path d="M 0 0 
L 0 3.5 
" id="m49ba26c863" style="stroke:#000000;stroke-width:0.8;"/>
      </defs>
      <g>
       <use style="stroke:#000000;stroke-width:0.8;" x="194.935537" xlink:href="#m49ba26c863" y="332.6472"/>
      </g>
     </g>
     <g id="text_1">
      <!-- 0 -->
      <defs>
       <path d="M 31.78125 66.40625 
Q 24.171875 66.40625 20.328125 58.90625 
Q 16.5 51.421875 16.5 36.375 
Q 16.5 21.390625 20.328125 13.890625 
Q 24.171875 6.390625 31.78125 6.390625 
Q 39.453125 6.390625 43.28125 13.890625 
Q 47.125 21.390625 47.125 36.375 
Q 47.125 51.421875 43.28125 58.90625 
Q 39.453125 66.40625 31.78125 66.40625 
z
M 31.78125 74.21875 
Q 44.046875 74.21875 50.515625 64.515625 
Q 56.984375 54.828125 56.984375 36.375 
Q 56.984375 17.96875 50.515625 8.265625 
Q 44.046875 -1.421875 31.78125 -1.421875 
Q 19.53125 -1.421875 13.0625 8.265625 
Q 6.59375 17.96875 6.59375 36.375 
Q 6.59375 54.828125 13.0625 64.515625 
Q 19.53125 74.21875 31.78125 74.21875 
z
" id="DejaVuSans-48"/>
      </defs>
      <g transform="translate(191.754287 347.245637)scale(0.1 -0.1)">
       <use xlink:href="#DejaVuSans-48"/>
      </g>
     </g>
    </g>
    <g id="xtick_2">
     <g id="line2d_2">
      <g>
       <use style="stroke:#000000;stroke-width:0.8;" x="289.937843" xlink:href="#m49ba26c863" y="332.6472"/>
      </g>
     </g>
     <g id="text_2">
      <!-- 50 -->
      <defs>
       <path d="M 10.796875 72.90625 
L 49.515625 72.90625 
L 49.515625 64.59375 
L 19.828125 64.59375 
L 19.828125 46.734375 
Q 21.96875 47.46875 24.109375 47.828125 
Q 26.265625 48.1875 28.421875 48.1875 
Q 40.625 48.1875 47.75 41.5 
Q 54.890625 34.8125 54.890625 23.390625 
Q 54.890625 11.625 47.5625 5.09375 
Q 40.234375 -1.421875 26.90625 -1.421875 
Q 22.3125 -1.421875 17.546875 -0.640625 
Q 12.796875 0.140625 7.71875 1.703125 
L 7.71875 11.625 
Q 12.109375 9.234375 16.796875 8.0625 
Q 21.484375 6.890625 26.703125 6.890625 
Q 35.15625 6.890625 40.078125 11.328125 
Q 45.015625 15.765625 45.015625 23.390625 
Q 45.015625 31 40.078125 35.4375 
Q 35.15625 39.890625 26.703125 39.890625 
Q 22.75 39.890625 18.8125 39.015625 
Q 14.890625 38.140625 10.796875 36.28125 
z
" id="DejaVuSans-53"/>
      </defs>
      <g transform="translate(283.575343 347.245637)scale(0.1 -0.1)">
       <use xlink:href="#DejaVuSans-53"/>
       <use x="63.623047" xlink:href="#DejaVuSans-48"/>
      </g>
     </g>
    </g>
    <g id="xtick_3">
     <g id="line2d_3">
      <g>
       <use style="stroke:#000000;stroke-width:0.8;" x="384.940148" xlink:href="#m49ba26c863" y="332.6472"/>
      </g>
     </g>
     <g id="text_3">
      <!-- 100 -->
      <defs>
       <path d="M 12.40625 8.296875 
L 28.515625 8.296875 
L 28.515625 63.921875 
L 10.984375 60.40625 
L 10.984375 69.390625 
L 28.421875 72.90625 
L 38.28125 72.90625 
L 38.28125 8.296875 
L 54.390625 8.296875 
L 54.390625 0 
L 12.40625 0 
z
" id="DejaVuSans-49"/>
      </defs>
      <g transform="translate(375.396398 347.245637)scale(0.1 -0.1)">
       <use xlink:href="#DejaVuSans-49"/>
       <use x="63.623047" xlink:href="#DejaVuSans-48"/>
       <use x="127.246094" xlink:href="#DejaVuSans-48"/>
      </g>
     </g>
    </g>
    <g id="xtick_4">
     <g id="line2d_4">
      <g>
       <use style="stroke:#000000;stroke-width:0.8;" x="479.942454" xlink:href="#m49ba26c863" y="332.6472"/>
      </g>
     </g>
     <g id="text_4">
      <!-- 150 -->
      <g transform="translate(470.398704 347.245637)scale(0.1 -0.1)">
       <use xlink:href="#DejaVuSans-49"/>
       <use x="63.623047" xlink:href="#DejaVuSans-53"/>
       <use x="127.246094" xlink:href="#DejaVuSans-48"/>
      </g>
     </g>
    </g>
    <g id="xtick_5">
     <g id="line2d_5">
      <g>
       <use style="stroke:#000000;stroke-width:0.8;" x="574.944759" xlink:href="#m49ba26c863" y="332.6472"/>
      </g>
     </g>
     <g id="text_5">
      <!-- 200 -->
      <defs>
       <path d="M 19.1875 8.296875 
L 53.609375 8.296875 
L 53.609375 0 
L 7.328125 0 
L 7.328125 8.296875 
Q 12.9375 14.109375 22.625 23.890625 
Q 32.328125 33.6875 34.8125 36.53125 
Q 39.546875 41.84375 41.421875 45.53125 
Q 43.3125 49.21875 43.3125 52.78125 
Q 43.3125 58.59375 39.234375 62.25 
Q 35.15625 65.921875 28.609375 65.921875 
Q 23.96875 65.921875 18.8125 64.3125 
Q 13.671875 62.703125 7.8125 59.421875 
L 7.8125 69.390625 
Q 13.765625 71.78125 18.9375 73 
Q 24.125 74.21875 28.421875 74.21875 
Q 39.75 74.21875 46.484375 68.546875 
Q 53.21875 62.890625 53.21875 53.421875 
Q 53.21875 48.921875 51.53125 44.890625 
Q 49.859375 40.875 45.40625 35.40625 
Q 44.1875 33.984375 37.640625 27.21875 
Q 31.109375 20.453125 19.1875 8.296875 
z
" id="DejaVuSans-50"/>
      </defs>
      <g transform="translate(565.401009 347.245637)scale(0.1 -0.1)">
       <use xlink:href="#DejaVuSans-50"/>
       <use x="63.623047" xlink:href="#DejaVuSans-48"/>
       <use x="127.246094" xlink:href="#DejaVuSans-48"/>
      </g>
     </g>
    </g>
   </g>
   <g id="matplotlib.axis_2">
    <g id="ytick_1">
     <g id="line2d_6">
      <defs>
       <path d="M 0 0 
L -3.5 0 
" id="m90ec82f0f9" style="stroke:#000000;stroke-width:0.8;"/>
      </defs>
      <g>
       <use style="stroke:#000000;stroke-width:0.8;" x="172.8" xlink:href="#m90ec82f0f9" y="314.190564"/>
      </g>
     </g>
     <g id="text_6">
      <!-- −7 -->
      <defs>
       <path d="M 10.59375 35.5 
L 73.1875 35.5 
L 73.1875 27.203125 
L 10.59375 27.203125 
z
" id="DejaVuSans-8722"/>
       <path d="M 8.203125 72.90625 
L 55.078125 72.90625 
L 55.078125 68.703125 
L 28.609375 0 
L 18.3125 0 
L 43.21875 64.59375 
L 8.203125 64.59375 
z
" id="DejaVuSans-55"/>
      </defs>
      <g transform="translate(151.057812 317.989783)scale(0.1 -0.1)">
       <use xlink:href="#DejaVuSans-8722"/>
       <use x="83.789062" xlink:href="#DejaVuSans-55"/>
      </g>
     </g>
    </g>
    <g id="ytick_2">
     <g id="line2d_7">
      <g>
       <use style="stroke:#000000;stroke-width:0.8;" x="172.8" xlink:href="#m90ec82f0f9" y="284.702072"/>
      </g>
     </g>
     <g id="text_7">
      <!-- −6 -->
      <defs>
       <path d="M 33.015625 40.375 
Q 26.375 40.375 22.484375 35.828125 
Q 18.609375 31.296875 18.609375 23.390625 
Q 18.609375 15.53125 22.484375 10.953125 
Q 26.375 6.390625 33.015625 6.390625 
Q 39.65625 6.390625 43.53125 10.953125 
Q 47.40625 15.53125 47.40625 23.390625 
Q 47.40625 31.296875 43.53125 35.828125 
Q 39.65625 40.375 33.015625 40.375 
z
M 52.59375 71.296875 
L 52.59375 62.3125 
Q 48.875 64.0625 45.09375 64.984375 
Q 41.3125 65.921875 37.59375 65.921875 
Q 27.828125 65.921875 22.671875 59.328125 
Q 17.53125 52.734375 16.796875 39.40625 
Q 19.671875 43.65625 24.015625 45.921875 
Q 28.375 48.1875 33.59375 48.1875 
Q 44.578125 48.1875 50.953125 41.515625 
Q 57.328125 34.859375 57.328125 23.390625 
Q 57.328125 12.15625 50.6875 5.359375 
Q 44.046875 -1.421875 33.015625 -1.421875 
Q 20.359375 -1.421875 13.671875 8.265625 
Q 6.984375 17.96875 6.984375 36.375 
Q 6.984375 53.65625 15.1875 63.9375 
Q 23.390625 74.21875 37.203125 74.21875 
Q 40.921875 74.21875 44.703125 73.484375 
Q 48.484375 72.75 52.59375 71.296875 
z
" id="DejaVuSans-54"/>
      </defs>
      <g transform="translate(151.057812 288.501291)scale(0.1 -0.1)">
       <use xlink:href="#DejaVuSans-8722"/>
       <use x="83.789062" xlink:href="#DejaVuSans-54"/>
      </g>
     </g>
    </g>
    <g id="ytick_3">
     <g id="line2d_8">
      <g>
       <use style="stroke:#000000;stroke-width:0.8;" x="172.8" xlink:href="#m90ec82f0f9" y="255.213581"/>
      </g>
     </g>
     <g id="text_8">
      <!-- −5 -->
      <g transform="translate(151.057812 259.012799)scale(0.1 -0.1)">
       <use xlink:href="#DejaVuSans-8722"/>
       <use x="83.789062" xlink:href="#DejaVuSans-53"/>
      </g>
     </g>
    </g>
    <g id="ytick_4">
     <g id="line2d_9">
      <g>
       <use style="stroke:#000000;stroke-width:0.8;" x="172.8" xlink:href="#m90ec82f0f9" y="225.725089"/>
      </g>
     </g>
     <g id="text_9">
      <!-- −4 -->
      <defs>
       <path d="M 37.796875 64.3125 
L 12.890625 25.390625 
L 37.796875 25.390625 
z
M 35.203125 72.90625 
L 47.609375 72.90625 
L 47.609375 25.390625 
L 58.015625 25.390625 
L 58.015625 17.1875 
L 47.609375 17.1875 
L 47.609375 0 
L 37.796875 0 
L 37.796875 17.1875 
L 4.890625 17.1875 
L 4.890625 26.703125 
z
" id="DejaVuSans-52"/>
      </defs>
      <g transform="translate(151.057812 229.524308)scale(0.1 -0.1)">
       <use xlink:href="#DejaVuSans-8722"/>
       <use x="83.789062" xlink:href="#DejaVuSans-52"/>
      </g>
     </g>
    </g>
    <g id="ytick_5">
     <g id="line2d_10">
      <g>
       <use style="stroke:#000000;stroke-width:0.8;" x="172.8" xlink:href="#m90ec82f0f9" y="196.236597"/>
      </g>
     </g>
     <g id="text_10">
      <!-- −3 -->
      <defs>
       <path d="M 40.578125 39.3125 
Q 47.65625 37.796875 51.625 33 
Q 55.609375 28.21875 55.609375 21.1875 
Q 55.609375 10.40625 48.1875 4.484375 
Q 40.765625 -1.421875 27.09375 -1.421875 
Q 22.515625 -1.421875 17.65625 -0.515625 
Q 12.796875 0.390625 7.625 2.203125 
L 7.625 11.71875 
Q 11.71875 9.328125 16.59375 8.109375 
Q 21.484375 6.890625 26.8125 6.890625 
Q 36.078125 6.890625 40.9375 10.546875 
Q 45.796875 14.203125 45.796875 21.1875 
Q 45.796875 27.640625 41.28125 31.265625 
Q 36.765625 34.90625 28.71875 34.90625 
L 20.21875 34.90625 
L 20.21875 43.015625 
L 29.109375 43.015625 
Q 36.375 43.015625 40.234375 45.921875 
Q 44.09375 48.828125 44.09375 54.296875 
Q 44.09375 59.90625 40.109375 62.90625 
Q 36.140625 65.921875 28.71875 65.921875 
Q 24.65625 65.921875 20.015625 65.03125 
Q 15.375 64.15625 9.8125 62.3125 
L 9.8125 71.09375 
Q 15.4375 72.65625 20.34375 73.4375 
Q 25.25 74.21875 29.59375 74.21875 
Q 40.828125 74.21875 47.359375 69.109375 
Q 53.90625 64.015625 53.90625 55.328125 
Q 53.90625 49.265625 50.4375 45.09375 
Q 46.96875 40.921875 40.578125 39.3125 
z
" id="DejaVuSans-51"/>
      </defs>
      <g transform="translate(151.057812 200.035816)scale(0.1 -0.1)">
       <use xlink:href="#DejaVuSans-8722"/>
       <use x="83.789062" xlink:href="#DejaVuSans-51"/>
      </g>
     </g>
    </g>
    <g id="ytick_6">
     <g id="line2d_11">
      <g>
       <use style="stroke:#000000;stroke-width:0.8;" x="172.8" xlink:href="#m90ec82f0f9" y="166.748105"/>
      </g>
     </g>
     <g id="text_11">
      <!-- −2 -->
      <g transform="translate(151.057812 170.547324)scale(0.1 -0.1)">
       <use xlink:href="#DejaVuSans-8722"/>
       <use x="83.789062" xlink:href="#DejaVuSans-50"/>
      </g>
     </g>
    </g>
    <g id="ytick_7">
     <g id="line2d_12">
      <g>
       <use style="stroke:#000000;stroke-width:0.8;" x="172.8" xlink:href="#m90ec82f0f9" y="137.259614"/>
      </g>
     </g>
     <g id="text_12">
      <!-- −1 -->
      <g transform="translate(151.057812 141.058832)scale(0.1 -0.1)">
       <use xlink:href="#DejaVuSans-8722"/>
       <use x="83.789062" xlink:href="#DejaVuSans-49"/>
      </g>
     </g>
    </g>
    <g id="ytick_8">
     <g id="line2d_13">
      <g>
       <use style="stroke:#000000;stroke-width:0.8;" x="172.8" xlink:href="#m90ec82f0f9" y="107.771122"/>
      </g>
     </g>
     <g id="text_13">
      <!-- 0 -->
      <g transform="translate(159.4375 111.570341)scale(0.1 -0.1)">
       <use xlink:href="#DejaVuSans-48"/>
      </g>
     </g>
    </g>
   </g>
   <g id="line2d_14">
    <path clip-path="url(#pdc0c1f0d9a)" d="M 194.935537 107.710374 
L 196.835583 107.944884 
L 200.635676 108.725299 
L 202.535722 108.930029 
L 204.435768 108.896023 
L 210.135906 108.193343 
L 212.035952 108.343997 
L 215.836044 109.180209 
L 217.736091 109.595515 
L 219.636137 109.77105 
L 221.536183 109.659214 
L 225.336275 109.236046 
L 227.236321 109.23382 
L 229.136367 109.479397 
L 234.836506 110.786027 
L 236.736552 110.863814 
L 242.43669 110.470106 
L 244.336736 110.623947 
L 248.136828 111.57616 
L 250.036874 112.038095 
L 251.936921 112.336646 
L 253.836967 112.394404 
L 257.637059 112.117922 
L 259.537105 112.191626 
L 261.437151 112.495444 
L 267.137289 113.930732 
L 269.037336 114.084646 
L 274.737474 113.859123 
L 276.63752 114.01998 
L 278.537566 114.431412 
L 282.337658 115.518087 
L 284.237704 115.809843 
L 286.137751 115.909956 
L 289.937843 115.864546 
L 291.837889 116.013391 
L 293.737935 116.448891 
L 297.538027 117.639666 
L 299.438073 118.098901 
L 301.338119 118.364225 
L 307.038258 118.528062 
L 308.938304 118.900623 
L 316.538488 120.926531 
L 322.238627 121.183964 
L 324.138673 121.47521 
L 326.038719 121.967916 
L 329.838811 123.251737 
L 331.738857 123.662728 
L 335.538949 124.026939 
L 337.438995 124.160007 
L 339.339042 124.424806 
L 341.239088 124.943912 
L 345.03918 126.269989 
L 346.939226 126.779512 
L 348.839272 127.132021 
L 354.53941 127.680375 
L 356.439457 128.185684 
L 362.139595 130.131308 
L 364.039641 130.575322 
L 369.739779 131.356281 
L 371.639825 131.862572 
L 373.539872 132.543584 
L 377.339964 134.164965 
L 379.24001 134.755668 
L 384.940148 136.076277 
L 386.840194 136.668946 
L 388.74024 137.511627 
L 392.540333 139.429155 
L 396.340425 140.977564 
L 400.140517 142.158605 
L 402.040563 142.929264 
L 405.840655 144.986992 
L 409.640748 147.207221 
L 411.540794 148.151824 
L 415.340886 149.781538 
L 419.140978 151.85131 
L 421.041024 153.1091 
L 424.841117 155.874134 
L 430.541255 159.357453 
L 432.441301 160.517249 
L 434.341347 161.824598 
L 438.141439 165.042088 
L 443.841578 169.87954 
L 447.64167 172.797224 
L 449.541716 174.428872 
L 453.341808 178.087685 
L 459.041947 184.032197 
L 464.742085 189.530318 
L 468.542177 193.560435 
L 474.242315 200.31736 
L 478.042408 204.566516 
L 483.742546 210.678392 
L 491.34273 219.583142 
L 493.242777 221.651917 
L 498.942915 227.087979 
L 504.643053 232.262301 
L 506.543099 233.942608 
L 508.443145 235.378321 
L 510.343192 236.531143 
L 512.243238 237.492198 
L 514.143284 238.229972 
L 516.04333 238.671503 
L 517.943376 244.783731 
L 519.843422 244.279787 
L 521.743468 243.213815 
L 525.54356 253.68136 
L 529.343653 246.359786 
L 531.243699 252.736543 
L 533.143745 261.014923 
L 535.043791 260.380783 
L 536.943837 256.835184 
L 538.843883 260.417879 
L 540.743929 266.619865 
L 542.643975 265.599306 
L 544.544022 259.840441 
L 546.444068 263.472773 
L 548.344114 273.49532 
L 550.24416 275.926774 
L 552.144206 270.398406 
L 554.044252 270.73316 
L 555.944298 280.347373 
L 557.844344 286.394392 
L 559.74439 282.318993 
L 561.644437 279.122025 
L 565.444529 291.423047 
L 567.344575 288.109211 
L 569.244621 282.511706 
L 571.144667 285.531733 
L 573.044713 292.311992 
L 574.944759 291.4359 
L 576.844805 285.864744 
L 578.744852 286.917487 
L 580.644898 293.125254 
L 582.544944 293.326064 
L 584.44499 287.752004 
L 586.345036 287.706639 
L 588.245082 294.214461 
L 590.145128 296.398737 
L 592.045174 292.585034 
L 593.94522 293.49349 
L 595.845267 300.818292 
L 597.745313 303.455313 
L 599.645359 299.407189 
L 601.545405 299.880356 
L 603.445451 312.631782 
L 605.345497 318.173532 
L 607.245543 314.840513 
L 609.145589 316.939693 
L 611.045635 321.387382 
L 612.945682 314.529517 
L 614.845728 305.999353 
L 618.64582 313.545037 
L 620.545866 308.779871 
L 622.445912 310.646007 
L 624.345958 319.191513 
L 626.246004 316.079584 
L 628.14605 306.911321 
L 630.046097 306.956621 
L 631.946143 305.170471 
L 633.846189 294.121107 
L 635.746235 291.579515 
L 637.646281 299.668086 
L 637.646281 299.668086 
" style="fill:none;stroke:#ff796c;stroke-linecap:square;stroke-width:1.5;"/>
   </g>
   <g id="line2d_15">
    <path clip-path="url(#pdc0c1f0d9a)" d="M 194.935537 96.29419 
L 208.23586 96.380472 
L 223.436229 96.727049 
L 238.636598 97.39874 
L 253.836967 98.413458 
L 269.037336 99.771508 
L 286.137751 101.61769 
L 305.138212 103.950929 
L 322.238627 106.338334 
L 337.438995 108.708302 
L 354.53941 111.639834 
L 384.940148 117.172635 
L 415.340886 122.559366 
L 438.141439 126.443421 
L 459.041947 129.779619 
L 474.242315 131.994296 
L 495.142823 134.793564 
L 512.243238 137.158899 
L 519.843422 138.259581 
L 525.54356 139.079341 
L 538.843883 141.329824 
L 542.643975 142.057349 
L 559.74439 143.831468 
L 571.144667 144.848452 
L 576.844805 145.162501 
L 582.544944 145.261713 
L 588.245082 145.098259 
L 595.845267 144.587691 
L 603.445451 143.995576 
L 607.245543 143.66891 
L 611.045635 143.631669 
L 614.845728 143.837165 
L 620.545866 144.366077 
L 626.246004 145.121144 
L 635.746235 146.667796 
L 637.646281 146.886739 
L 637.646281 146.886739 
" style="fill:none;stroke:#ffff14;stroke-linecap:square;stroke-width:1.5;"/>
   </g>
   <g id="line2d_16">
    <path clip-path="url(#pdc0c1f0d9a)" d="M 194.935537 96.191018 
L 208.23586 96.31877 
L 221.536183 96.700898 
L 234.836506 97.334029 
L 248.136828 98.212576 
L 261.437151 99.328785 
L 274.737474 100.672805 
L 288.037797 102.232774 
L 303.238166 104.26228 
L 318.438534 106.532409 
L 333.638903 109.017001 
L 350.739318 112.032778 
L 369.739779 115.605822 
L 394.440379 120.497329 
L 472.342269 136.130227 
L 491.34273 139.616407 
L 508.443145 142.532921 
L 523.643514 144.913715 
L 538.843883 147.066636 
L 552.144206 148.74394 
L 565.444529 150.212937 
L 578.744852 151.460661 
L 592.045174 152.476101 
L 605.345497 153.250294 
L 618.64582 153.776409 
L 631.946143 154.049801 
L 637.646281 154.088927 
L 637.646281 154.088927 
" style="fill:none;stroke:#014d4e;stroke-linecap:square;stroke-width:1.5;"/>
   </g>
   <g id="line2d_17">
    <path clip-path="url(#pdc0c1f0d9a)" d="M 194.935537 107.66795 
L 223.436229 107.820157 
L 305.138212 108.35359 
L 365.939687 108.948436 
L 383.040102 109.157895 
L 402.040563 109.582457 
L 432.441301 110.521412 
L 459.041947 111.559839 
L 485.642592 112.819025 
L 502.743007 113.554031 
L 512.243238 113.760247 
L 519.843422 113.850391 
L 525.54356 113.887607 
L 536.943837 113.603288 
L 544.544022 113.315136 
L 574.944759 113.814924 
L 582.544944 114.28433 
L 588.245082 114.883103 
L 601.545405 116.598955 
L 605.345497 117.219389 
L 609.145589 117.584784 
L 612.945682 117.640984 
L 618.64582 117.375924 
L 624.345958 116.85985 
L 630.046097 116.028788 
L 635.746235 115.184426 
L 637.646281 114.97331 
L 637.646281 114.97331 
" style="fill:none;stroke:#e50000;stroke-linecap:square;stroke-width:1.5;"/>
   </g>
   <g id="patch_3">
    <path d="M 172.8 332.6472 
L 172.8 84.9312 
" style="fill:none;stroke:#000000;stroke-linecap:square;stroke-linejoin:miter;stroke-width:0.8;"/>
   </g>
   <g id="patch_4">
    <path d="M 659.781818 332.6472 
L 659.781818 84.9312 
" style="fill:none;stroke:#000000;stroke-linecap:square;stroke-linejoin:miter;stroke-width:0.8;"/>
   </g>
   <g id="patch_5">
    <path d="M 172.8 332.6472 
L 659.781818 332.6472 
" style="fill:none;stroke:#000000;stroke-linecap:square;stroke-linejoin:miter;stroke-width:0.8;"/>
   </g>
   <g id="patch_6">
    <path d="M 172.8 84.9312 
L 659.781818 84.9312 
" style="fill:none;stroke:#000000;stroke-linecap:square;stroke-linejoin:miter;stroke-width:0.8;"/>
   </g>
   <g id="text_14">
    <!-- Right abduction -->
    <defs>
     <path d="M 44.390625 34.1875 
Q 47.5625 33.109375 50.5625 29.59375 
Q 53.5625 26.078125 56.59375 19.921875 
L 66.609375 0 
L 56 0 
L 46.6875 18.703125 
Q 43.0625 26.03125 39.671875 28.421875 
Q 36.28125 30.8125 30.421875 30.8125 
L 19.671875 30.8125 
L 19.671875 0 
L 9.8125 0 
L 9.8125 72.90625 
L 32.078125 72.90625 
Q 44.578125 72.90625 50.734375 67.671875 
Q 56.890625 62.453125 56.890625 51.90625 
Q 56.890625 45.015625 53.6875 40.46875 
Q 50.484375 35.9375 44.390625 34.1875 
z
M 19.671875 64.796875 
L 19.671875 38.921875 
L 32.078125 38.921875 
Q 39.203125 38.921875 42.84375 42.21875 
Q 46.484375 45.515625 46.484375 51.90625 
Q 46.484375 58.296875 42.84375 61.546875 
Q 39.203125 64.796875 32.078125 64.796875 
z
" id="DejaVuSans-82"/>
     <path d="M 9.421875 54.6875 
L 18.40625 54.6875 
L 18.40625 0 
L 9.421875 0 
z
M 9.421875 75.984375 
L 18.40625 75.984375 
L 18.40625 64.59375 
L 9.421875 64.59375 
z
" id="DejaVuSans-105"/>
     <path d="M 45.40625 27.984375 
Q 45.40625 37.75 41.375 43.109375 
Q 37.359375 48.484375 30.078125 48.484375 
Q 22.859375 48.484375 18.828125 43.109375 
Q 14.796875 37.75 14.796875 27.984375 
Q 14.796875 18.265625 18.828125 12.890625 
Q 22.859375 7.515625 30.078125 7.515625 
Q 37.359375 7.515625 41.375 12.890625 
Q 45.40625 18.265625 45.40625 27.984375 
z
M 54.390625 6.78125 
Q 54.390625 -7.171875 48.1875 -13.984375 
Q 42 -20.796875 29.203125 -20.796875 
Q 24.46875 -20.796875 20.265625 -20.09375 
Q 16.0625 -19.390625 12.109375 -17.921875 
L 12.109375 -9.1875 
Q 16.0625 -11.328125 19.921875 -12.34375 
Q 23.78125 -13.375 27.78125 -13.375 
Q 36.625 -13.375 41.015625 -8.765625 
Q 45.40625 -4.15625 45.40625 5.171875 
L 45.40625 9.625 
Q 42.625 4.78125 38.28125 2.390625 
Q 33.9375 0 27.875 0 
Q 17.828125 0 11.671875 7.65625 
Q 5.515625 15.328125 5.515625 27.984375 
Q 5.515625 40.671875 11.671875 48.328125 
Q 17.828125 56 27.875 56 
Q 33.9375 56 38.28125 53.609375 
Q 42.625 51.21875 45.40625 46.390625 
L 45.40625 54.6875 
L 54.390625 54.6875 
z
" id="DejaVuSans-103"/>
     <path d="M 54.890625 33.015625 
L 54.890625 0 
L 45.90625 0 
L 45.90625 32.71875 
Q 45.90625 40.484375 42.875 44.328125 
Q 39.84375 48.1875 33.796875 48.1875 
Q 26.515625 48.1875 22.3125 43.546875 
Q 18.109375 38.921875 18.109375 30.90625 
L 18.109375 0 
L 9.078125 0 
L 9.078125 75.984375 
L 18.109375 75.984375 
L 18.109375 46.1875 
Q 21.34375 51.125 25.703125 53.5625 
Q 30.078125 56 35.796875 56 
Q 45.21875 56 50.046875 50.171875 
Q 54.890625 44.34375 54.890625 33.015625 
z
" id="DejaVuSans-104"/>
     <path d="M 18.3125 70.21875 
L 18.3125 54.6875 
L 36.8125 54.6875 
L 36.8125 47.703125 
L 18.3125 47.703125 
L 18.3125 18.015625 
Q 18.3125 11.328125 20.140625 9.421875 
Q 21.96875 7.515625 27.59375 7.515625 
L 36.8125 7.515625 
L 36.8125 0 
L 27.59375 0 
Q 17.1875 0 13.234375 3.875 
Q 9.28125 7.765625 9.28125 18.015625 
L 9.28125 47.703125 
L 2.6875 47.703125 
L 2.6875 54.6875 
L 9.28125 54.6875 
L 9.28125 70.21875 
z
" id="DejaVuSans-116"/>
     <path id="DejaVuSans-32"/>
     <path d="M 34.28125 27.484375 
Q 23.390625 27.484375 19.1875 25 
Q 14.984375 22.515625 14.984375 16.5 
Q 14.984375 11.71875 18.140625 8.90625 
Q 21.296875 6.109375 26.703125 6.109375 
Q 34.1875 6.109375 38.703125 11.40625 
Q 43.21875 16.703125 43.21875 25.484375 
L 43.21875 27.484375 
z
M 52.203125 31.203125 
L 52.203125 0 
L 43.21875 0 
L 43.21875 8.296875 
Q 40.140625 3.328125 35.546875 0.953125 
Q 30.953125 -1.421875 24.3125 -1.421875 
Q 15.921875 -1.421875 10.953125 3.296875 
Q 6 8.015625 6 15.921875 
Q 6 25.140625 12.171875 29.828125 
Q 18.359375 34.515625 30.609375 34.515625 
L 43.21875 34.515625 
L 43.21875 35.40625 
Q 43.21875 41.609375 39.140625 45 
Q 35.0625 48.390625 27.6875 48.390625 
Q 23 48.390625 18.546875 47.265625 
Q 14.109375 46.140625 10.015625 43.890625 
L 10.015625 52.203125 
Q 14.9375 54.109375 19.578125 55.046875 
Q 24.21875 56 28.609375 56 
Q 40.484375 56 46.34375 49.84375 
Q 52.203125 43.703125 52.203125 31.203125 
z
" id="DejaVuSans-97"/>
     <path d="M 48.6875 27.296875 
Q 48.6875 37.203125 44.609375 42.84375 
Q 40.53125 48.484375 33.40625 48.484375 
Q 26.265625 48.484375 22.1875 42.84375 
Q 18.109375 37.203125 18.109375 27.296875 
Q 18.109375 17.390625 22.1875 11.75 
Q 26.265625 6.109375 33.40625 6.109375 
Q 40.53125 6.109375 44.609375 11.75 
Q 48.6875 17.390625 48.6875 27.296875 
z
M 18.109375 46.390625 
Q 20.953125 51.265625 25.265625 53.625 
Q 29.59375 56 35.59375 56 
Q 45.5625 56 51.78125 48.09375 
Q 58.015625 40.1875 58.015625 27.296875 
Q 58.015625 14.40625 51.78125 6.484375 
Q 45.5625 -1.421875 35.59375 -1.421875 
Q 29.59375 -1.421875 25.265625 0.953125 
Q 20.953125 3.328125 18.109375 8.203125 
L 18.109375 0 
L 9.078125 0 
L 9.078125 75.984375 
L 18.109375 75.984375 
z
" id="DejaVuSans-98"/>
     <path d="M 45.40625 46.390625 
L 45.40625 75.984375 
L 54.390625 75.984375 
L 54.390625 0 
L 45.40625 0 
L 45.40625 8.203125 
Q 42.578125 3.328125 38.25 0.953125 
Q 33.9375 -1.421875 27.875 -1.421875 
Q 17.96875 -1.421875 11.734375 6.484375 
Q 5.515625 14.40625 5.515625 27.296875 
Q 5.515625 40.1875 11.734375 48.09375 
Q 17.96875 56 27.875 56 
Q 33.9375 56 38.25 53.625 
Q 42.578125 51.265625 45.40625 46.390625 
z
M 14.796875 27.296875 
Q 14.796875 17.390625 18.875 11.75 
Q 22.953125 6.109375 30.078125 6.109375 
Q 37.203125 6.109375 41.296875 11.75 
Q 45.40625 17.390625 45.40625 27.296875 
Q 45.40625 37.203125 41.296875 42.84375 
Q 37.203125 48.484375 30.078125 48.484375 
Q 22.953125 48.484375 18.875 42.84375 
Q 14.796875 37.203125 14.796875 27.296875 
z
" id="DejaVuSans-100"/>
     <path d="M 8.5 21.578125 
L 8.5 54.6875 
L 17.484375 54.6875 
L 17.484375 21.921875 
Q 17.484375 14.15625 20.5 10.265625 
Q 23.53125 6.390625 29.59375 6.390625 
Q 36.859375 6.390625 41.078125 11.03125 
Q 45.3125 15.671875 45.3125 23.6875 
L 45.3125 54.6875 
L 54.296875 54.6875 
L 54.296875 0 
L 45.3125 0 
L 45.3125 8.40625 
Q 42.046875 3.421875 37.71875 1 
Q 33.40625 -1.421875 27.6875 -1.421875 
Q 18.265625 -1.421875 13.375 4.4375 
Q 8.5 10.296875 8.5 21.578125 
z
M 31.109375 56 
z
" id="DejaVuSans-117"/>
     <path d="M 48.78125 52.59375 
L 48.78125 44.1875 
Q 44.96875 46.296875 41.140625 47.34375 
Q 37.3125 48.390625 33.40625 48.390625 
Q 24.65625 48.390625 19.8125 42.84375 
Q 14.984375 37.3125 14.984375 27.296875 
Q 14.984375 17.28125 19.8125 11.734375 
Q 24.65625 6.203125 33.40625 6.203125 
Q 37.3125 6.203125 41.140625 7.25 
Q 44.96875 8.296875 48.78125 10.40625 
L 48.78125 2.09375 
Q 45.015625 0.34375 40.984375 -0.53125 
Q 36.96875 -1.421875 32.421875 -1.421875 
Q 20.0625 -1.421875 12.78125 6.34375 
Q 5.515625 14.109375 5.515625 27.296875 
Q 5.515625 40.671875 12.859375 48.328125 
Q 20.21875 56 33.015625 56 
Q 37.15625 56 41.109375 55.140625 
Q 45.0625 54.296875 48.78125 52.59375 
z
" id="DejaVuSans-99"/>
     <path d="M 30.609375 48.390625 
Q 23.390625 48.390625 19.1875 42.75 
Q 14.984375 37.109375 14.984375 27.296875 
Q 14.984375 17.484375 19.15625 11.84375 
Q 23.34375 6.203125 30.609375 6.203125 
Q 37.796875 6.203125 41.984375 11.859375 
Q 46.1875 17.53125 46.1875 27.296875 
Q 46.1875 37.015625 41.984375 42.703125 
Q 37.796875 48.390625 30.609375 48.390625 
z
M 30.609375 56 
Q 42.328125 56 49.015625 48.375 
Q 55.71875 40.765625 55.71875 27.296875 
Q 55.71875 13.875 49.015625 6.21875 
Q 42.328125 -1.421875 30.609375 -1.421875 
Q 18.84375 -1.421875 12.171875 6.21875 
Q 5.515625 13.875 5.515625 27.296875 
Q 5.515625 40.765625 12.171875 48.375 
Q 18.84375 56 30.609375 56 
z
" id="DejaVuSans-111"/>
     <path d="M 54.890625 33.015625 
L 54.890625 0 
L 45.90625 0 
L 45.90625 32.71875 
Q 45.90625 40.484375 42.875 44.328125 
Q 39.84375 48.1875 33.796875 48.1875 
Q 26.515625 48.1875 22.3125 43.546875 
Q 18.109375 38.921875 18.109375 30.90625 
L 18.109375 0 
L 9.078125 0 
L 9.078125 54.6875 
L 18.109375 54.6875 
L 18.109375 46.1875 
Q 21.34375 51.125 25.703125 53.5625 
Q 30.078125 56 35.796875 56 
Q 45.21875 56 50.046875 50.171875 
Q 54.890625 44.34375 54.890625 33.015625 
z
" id="DejaVuSans-110"/>
    </defs>
    <g transform="translate(368.694972 78.9312)scale(0.12 -0.12)">
     <use xlink:href="#DejaVuSans-82"/>
     <use x="69.482422" xlink:href="#DejaVuSans-105"/>
     <use x="97.265625" xlink:href="#DejaVuSans-103"/>
     <use x="160.742188" xlink:href="#DejaVuSans-104"/>
     <use x="224.121094" xlink:href="#DejaVuSans-116"/>
     <use x="263.330078" xlink:href="#DejaVuSans-32"/>
     <use x="295.117188" xlink:href="#DejaVuSans-97"/>
     <use x="356.396484" xlink:href="#DejaVuSans-98"/>
     <use x="419.873047" xlink:href="#DejaVuSans-100"/>
     <use x="483.349609" xlink:href="#DejaVuSans-117"/>
     <use x="546.728516" xlink:href="#DejaVuSans-99"/>
     <use x="601.708984" xlink:href="#DejaVuSans-116"/>
     <use x="640.917969" xlink:href="#DejaVuSans-105"/>
     <use x="668.701172" xlink:href="#DejaVuSans-111"/>
     <use x="729.882812" xlink:href="#DejaVuSans-110"/>
    </g>
   </g>
  </g>
  <g id="axes_2">
   <g id="patch_7">
    <path d="M 757.178182 332.6472 
L 1244.16 332.6472 
L 1244.16 84.9312 
L 757.178182 84.9312 
z
" style="fill:#ffffff;"/>
   </g>
   <g id="matplotlib.axis_3">
    <g id="xtick_6">
     <g id="line2d_18">
      <g>
       <use style="stroke:#000000;stroke-width:0.8;" x="779.313719" xlink:href="#m49ba26c863" y="332.6472"/>
      </g>
     </g>
     <g id="text_15">
      <!-- 0 -->
      <g transform="translate(776.132469 347.245637)scale(0.1 -0.1)">
       <use xlink:href="#DejaVuSans-48"/>
      </g>
     </g>
    </g>
    <g id="xtick_7">
     <g id="line2d_19">
      <g>
       <use style="stroke:#000000;stroke-width:0.8;" x="874.316025" xlink:href="#m49ba26c863" y="332.6472"/>
      </g>
     </g>
     <g id="text_16">
      <!-- 50 -->
      <g transform="translate(867.953525 347.245637)scale(0.1 -0.1)">
       <use xlink:href="#DejaVuSans-53"/>
       <use x="63.623047" xlink:href="#DejaVuSans-48"/>
      </g>
     </g>
    </g>
    <g id="xtick_8">
     <g id="line2d_20">
      <g>
       <use style="stroke:#000000;stroke-width:0.8;" x="969.31833" xlink:href="#m49ba26c863" y="332.6472"/>
      </g>
     </g>
     <g id="text_17">
      <!-- 100 -->
      <g transform="translate(959.77458 347.245637)scale(0.1 -0.1)">
       <use xlink:href="#DejaVuSans-49"/>
       <use x="63.623047" xlink:href="#DejaVuSans-48"/>
       <use x="127.246094" xlink:href="#DejaVuSans-48"/>
      </g>
     </g>
    </g>
    <g id="xtick_9">
     <g id="line2d_21">
      <g>
       <use style="stroke:#000000;stroke-width:0.8;" x="1064.320636" xlink:href="#m49ba26c863" y="332.6472"/>
      </g>
     </g>
     <g id="text_18">
      <!-- 150 -->
      <g transform="translate(1054.776886 347.245637)scale(0.1 -0.1)">
       <use xlink:href="#DejaVuSans-49"/>
       <use x="63.623047" xlink:href="#DejaVuSans-53"/>
       <use x="127.246094" xlink:href="#DejaVuSans-48"/>
      </g>
     </g>
    </g>
    <g id="xtick_10">
     <g id="line2d_22">
      <g>
       <use style="stroke:#000000;stroke-width:0.8;" x="1159.322941" xlink:href="#m49ba26c863" y="332.6472"/>
      </g>
     </g>
     <g id="text_19">
      <!-- 200 -->
      <g transform="translate(1149.779191 347.245637)scale(0.1 -0.1)">
       <use xlink:href="#DejaVuSans-50"/>
       <use x="63.623047" xlink:href="#DejaVuSans-48"/>
       <use x="127.246094" xlink:href="#DejaVuSans-48"/>
      </g>
     </g>
    </g>
   </g>
   <g id="matplotlib.axis_4">
    <g id="ytick_9">
     <g id="line2d_23">
      <g>
       <use style="stroke:#000000;stroke-width:0.8;" x="757.178182" xlink:href="#m90ec82f0f9" y="309.613057"/>
      </g>
     </g>
     <g id="text_20">
      <!-- −1.5 -->
      <defs>
       <path d="M 10.6875 12.40625 
L 21 12.40625 
L 21 0 
L 10.6875 0 
z
" id="DejaVuSans-46"/>
      </defs>
      <g transform="translate(725.895369 313.412276)scale(0.1 -0.1)">
       <use xlink:href="#DejaVuSans-8722"/>
       <use x="83.789062" xlink:href="#DejaVuSans-49"/>
       <use x="147.412109" xlink:href="#DejaVuSans-46"/>
       <use x="179.199219" xlink:href="#DejaVuSans-53"/>
      </g>
     </g>
    </g>
    <g id="ytick_10">
     <g id="line2d_24">
      <g>
       <use style="stroke:#000000;stroke-width:0.8;" x="757.178182" xlink:href="#m90ec82f0f9" y="256.954103"/>
      </g>
     </g>
     <g id="text_21">
      <!-- −1.0 -->
      <g transform="translate(725.895369 260.753322)scale(0.1 -0.1)">
       <use xlink:href="#DejaVuSans-8722"/>
       <use x="83.789062" xlink:href="#DejaVuSans-49"/>
       <use x="147.412109" xlink:href="#DejaVuSans-46"/>
       <use x="179.199219" xlink:href="#DejaVuSans-48"/>
      </g>
     </g>
    </g>
    <g id="ytick_11">
     <g id="line2d_25">
      <g>
       <use style="stroke:#000000;stroke-width:0.8;" x="757.178182" xlink:href="#m90ec82f0f9" y="204.295149"/>
      </g>
     </g>
     <g id="text_22">
      <!-- −0.5 -->
      <g transform="translate(725.895369 208.094368)scale(0.1 -0.1)">
       <use xlink:href="#DejaVuSans-8722"/>
       <use x="83.789062" xlink:href="#DejaVuSans-48"/>
       <use x="147.412109" xlink:href="#DejaVuSans-46"/>
       <use x="179.199219" xlink:href="#DejaVuSans-53"/>
      </g>
     </g>
    </g>
    <g id="ytick_12">
     <g id="line2d_26">
      <g>
       <use style="stroke:#000000;stroke-width:0.8;" x="757.178182" xlink:href="#m90ec82f0f9" y="151.636195"/>
      </g>
     </g>
     <g id="text_23">
      <!-- 0.0 -->
      <g transform="translate(734.275057 155.435414)scale(0.1 -0.1)">
       <use xlink:href="#DejaVuSans-48"/>
       <use x="63.623047" xlink:href="#DejaVuSans-46"/>
       <use x="95.410156" xlink:href="#DejaVuSans-48"/>
      </g>
     </g>
    </g>
    <g id="ytick_13">
     <g id="line2d_27">
      <g>
       <use style="stroke:#000000;stroke-width:0.8;" x="757.178182" xlink:href="#m90ec82f0f9" y="98.977241"/>
      </g>
     </g>
     <g id="text_24">
      <!-- 0.5 -->
      <g transform="translate(734.275057 102.77646)scale(0.1 -0.1)">
       <use xlink:href="#DejaVuSans-48"/>
       <use x="63.623047" xlink:href="#DejaVuSans-46"/>
       <use x="95.410156" xlink:href="#DejaVuSans-53"/>
      </g>
     </g>
    </g>
   </g>
   <g id="line2d_28">
    <path clip-path="url(#p8a5458ea98)" d="M 779.313719 151.637228 
L 845.815333 151.593182 
L 851.515471 151.2872 
L 857.21561 150.723286 
L 868.615886 149.368218 
L 874.316025 149.145097 
L 880.016163 148.890245 
L 891.41644 148.088236 
L 899.016624 147.486492 
L 908.516855 147.206915 
L 965.518238 145.879543 
L 988.318791 145.709629 
L 990.218837 145.796027 
L 992.118883 146.020694 
L 994.01893 146.425131 
L 995.918976 147.022554 
L 997.819022 147.801483 
L 1001.619114 149.734462 
L 1007.319252 152.776654 
L 1011.119345 154.466547 
L 1014.919437 155.784422 
L 1022.519621 157.954699 
L 1024.419667 158.667962 
L 1026.319713 159.550349 
L 1028.21976 160.628615 
L 1030.119806 161.910232 
L 1032.019852 163.377089 
L 1035.819944 166.713634 
L 1045.320175 175.557761 
L 1049.120267 178.739264 
L 1054.820405 183.332192 
L 1056.720451 184.997464 
L 1058.620497 186.832837 
L 1060.520543 188.884413 
L 1062.42059 191.187433 
L 1064.320636 193.764393 
L 1066.220682 196.617166 
L 1068.120728 199.72356 
L 1071.92082 206.6262 
L 1075.720912 214.303532 
L 1079.521005 222.620392 
L 1083.321097 231.513011 
L 1087.121189 241.108065 
L 1090.921281 251.706528 
L 1092.821327 257.540674 
L 1094.721373 263.808194 
L 1096.62142 270.519406 
L 1098.521466 277.70238 
L 1100.421512 285.386776 
L 1102.321558 278.823963 
L 1106.12165 267.784902 
L 1108.021696 259.899195 
L 1109.921742 260.972635 
L 1111.821788 265.580453 
L 1113.721834 270.73285 
L 1115.621881 271.551513 
L 1117.521927 271.406668 
L 1119.421973 276.251109 
L 1121.322019 282.704227 
L 1123.222065 283.677634 
L 1125.122111 281.748839 
L 1127.022157 285.105952 
L 1128.922203 294.933756 
L 1130.822249 296.187695 
L 1132.722296 291.148059 
L 1134.622342 293.552466 
L 1136.522388 304.504258 
L 1138.422434 309.692629 
L 1140.32248 304.674137 
L 1142.222526 303.156622 
L 1144.122572 312.565103 
L 1146.022618 320.058629 
L 1147.922664 315.406048 
L 1149.822711 309.339224 
L 1151.722757 314.17684 
L 1153.622803 321.387382 
L 1155.522849 317.531363 
L 1157.422895 308.541205 
L 1159.322941 308.675678 
L 1161.222987 314.242154 
L 1163.123033 311.137693 
L 1165.023079 301.203679 
L 1166.923126 298.496849 
L 1168.823172 303.062085 
L 1170.723218 301.651947 
L 1172.623264 293.476282 
L 1174.52331 291.458502 
L 1176.423356 297.265832 
L 1178.323402 298.553943 
L 1180.223448 293.291469 
L 1182.123494 292.997211 
L 1184.023541 299.116098 
L 1185.923587 300.12711 
L 1187.823633 295.548362 
L 1189.723679 296.551959 
L 1191.623725 302.603705 
L 1193.523771 301.505838 
L 1195.423817 296.576698 
L 1197.323863 298.57342 
L 1199.223909 301.473966 
L 1201.123956 297.315035 
L 1203.024002 294.395391 
L 1204.924048 297.322866 
L 1206.824094 296.850078 
L 1208.72414 292.514284 
L 1210.624186 293.522119 
L 1212.524232 296.667317 
L 1214.424278 294.547305 
L 1216.324324 293.315851 
L 1218.224371 297.360727 
L 1220.124417 298.512468 
L 1222.024463 295.838426 
L 1222.024463 295.838426 
" style="fill:none;stroke:#ff796c;stroke-linecap:square;stroke-width:1.5;"/>
   </g>
   <g id="line2d_29">
    <path clip-path="url(#p8a5458ea98)" d="M 779.313719 109.256348 
L 859.115656 109.363689 
L 878.116117 109.484471 
L 944.617731 109.656641 
L 992.118883 109.612542 
L 999.719068 109.390172 
L 1014.919437 108.841433 
L 1028.21976 108.493719 
L 1037.71999 107.922442 
L 1052.920359 106.9965 
L 1060.520543 106.45773 
L 1066.220682 105.820881 
L 1071.92082 104.943695 
L 1077.620958 103.841686 
L 1083.321097 102.511551 
L 1087.121189 101.469148 
L 1090.921281 100.259183 
L 1094.721373 98.830969 
L 1098.521466 97.142842 
L 1100.421512 96.191018 
L 1109.921742 96.360915 
L 1140.32248 96.486601 
L 1222.024463 96.468742 
L 1222.024463 96.468742 
" style="fill:none;stroke:#ffff14;stroke-linecap:square;stroke-width:1.5;"/>
   </g>
   <g id="line2d_30">
    <path clip-path="url(#p8a5458ea98)" d="M 779.313719 109.262348 
L 1222.024463 109.262348 
L 1222.024463 109.262348 
" style="fill:none;stroke:#014d4e;stroke-linecap:square;stroke-width:1.5;"/>
   </g>
   <g id="line2d_31">
    <path clip-path="url(#p8a5458ea98)" d="M 779.313719 151.642196 
L 859.115656 151.534855 
L 878.116117 151.414073 
L 944.617731 151.241902 
L 992.118883 151.286002 
L 999.719068 151.508372 
L 1014.919437 152.057111 
L 1028.21976 152.404825 
L 1037.71999 152.976101 
L 1052.920359 153.902044 
L 1060.520543 154.440813 
L 1066.220682 155.077663 
L 1071.92082 155.954848 
L 1077.620958 157.056858 
L 1083.321097 158.386993 
L 1087.121189 159.429396 
L 1090.921281 160.639361 
L 1094.721373 162.067574 
L 1098.521466 163.755702 
L 1100.421512 164.707525 
L 1109.921742 164.537629 
L 1140.32248 164.411943 
L 1222.024463 164.429802 
L 1222.024463 164.429802 
" style="fill:none;stroke:#e50000;stroke-linecap:square;stroke-width:1.5;"/>
   </g>
   <g id="patch_8">
    <path d="M 757.178182 332.6472 
L 757.178182 84.9312 
" style="fill:none;stroke:#000000;stroke-linecap:square;stroke-linejoin:miter;stroke-width:0.8;"/>
   </g>
   <g id="patch_9">
    <path d="M 1244.16 332.6472 
L 1244.16 84.9312 
" style="fill:none;stroke:#000000;stroke-linecap:square;stroke-linejoin:miter;stroke-width:0.8;"/>
   </g>
   <g id="patch_10">
    <path d="M 757.178182 332.6472 
L 1244.16 332.6472 
" style="fill:none;stroke:#000000;stroke-linecap:square;stroke-linejoin:miter;stroke-width:0.8;"/>
   </g>
   <g id="patch_11">
    <path d="M 757.178182 84.9312 
L 1244.16 84.9312 
" style="fill:none;stroke:#000000;stroke-linecap:square;stroke-linejoin:miter;stroke-width:0.8;"/>
   </g>
   <g id="text_25">
    <!-- Right flexion -->
    <defs>
     <path d="M 37.109375 75.984375 
L 37.109375 68.5 
L 28.515625 68.5 
Q 23.6875 68.5 21.796875 66.546875 
Q 19.921875 64.59375 19.921875 59.515625 
L 19.921875 54.6875 
L 34.71875 54.6875 
L 34.71875 47.703125 
L 19.921875 47.703125 
L 19.921875 0 
L 10.890625 0 
L 10.890625 47.703125 
L 2.296875 47.703125 
L 2.296875 54.6875 
L 10.890625 54.6875 
L 10.890625 58.5 
Q 10.890625 67.625 15.140625 71.796875 
Q 19.390625 75.984375 28.609375 75.984375 
z
" id="DejaVuSans-102"/>
     <path d="M 9.421875 75.984375 
L 18.40625 75.984375 
L 18.40625 0 
L 9.421875 0 
z
" id="DejaVuSans-108"/>
     <path d="M 56.203125 29.59375 
L 56.203125 25.203125 
L 14.890625 25.203125 
Q 15.484375 15.921875 20.484375 11.0625 
Q 25.484375 6.203125 34.421875 6.203125 
Q 39.59375 6.203125 44.453125 7.46875 
Q 49.3125 8.734375 54.109375 11.28125 
L 54.109375 2.78125 
Q 49.265625 0.734375 44.1875 -0.34375 
Q 39.109375 -1.421875 33.890625 -1.421875 
Q 20.796875 -1.421875 13.15625 6.1875 
Q 5.515625 13.8125 5.515625 26.8125 
Q 5.515625 40.234375 12.765625 48.109375 
Q 20.015625 56 32.328125 56 
Q 43.359375 56 49.78125 48.890625 
Q 56.203125 41.796875 56.203125 29.59375 
z
M 47.21875 32.234375 
Q 47.125 39.59375 43.09375 43.984375 
Q 39.0625 48.390625 32.421875 48.390625 
Q 24.90625 48.390625 20.390625 44.140625 
Q 15.875 39.890625 15.1875 32.171875 
z
" id="DejaVuSans-101"/>
     <path d="M 54.890625 54.6875 
L 35.109375 28.078125 
L 55.90625 0 
L 45.3125 0 
L 29.390625 21.484375 
L 13.484375 0 
L 2.875 0 
L 24.125 28.609375 
L 4.6875 54.6875 
L 15.28125 54.6875 
L 29.78125 35.203125 
L 44.28125 54.6875 
z
" id="DejaVuSans-120"/>
    </defs>
    <g transform="translate(962.800653 78.9312)scale(0.12 -0.12)">
     <use xlink:href="#DejaVuSans-82"/>
     <use x="69.482422" xlink:href="#DejaVuSans-105"/>
     <use x="97.265625" xlink:href="#DejaVuSans-103"/>
     <use x="160.742188" xlink:href="#DejaVuSans-104"/>
     <use x="224.121094" xlink:href="#DejaVuSans-116"/>
     <use x="263.330078" xlink:href="#DejaVuSans-32"/>
     <use x="295.117188" xlink:href="#DejaVuSans-102"/>
     <use x="330.322266" xlink:href="#DejaVuSans-108"/>
     <use x="358.105469" xlink:href="#DejaVuSans-101"/>
     <use x="419.613281" xlink:href="#DejaVuSans-120"/>
     <use x="478.792969" xlink:href="#DejaVuSans-105"/>
     <use x="506.576172" xlink:href="#DejaVuSans-111"/>
     <use x="567.757812" xlink:href="#DejaVuSans-110"/>
    </g>
   </g>
  </g>
  <g id="axes_3">
   <g id="patch_12">
    <path d="M 172.8 629.9064 
L 659.781818 629.9064 
L 659.781818 382.1904 
L 172.8 382.1904 
z
" style="fill:#ffffff;"/>
   </g>
   <g id="matplotlib.axis_5">
    <g id="xtick_11">
     <g id="line2d_32">
      <g>
       <use style="stroke:#000000;stroke-width:0.8;" x="194.935537" xlink:href="#m49ba26c863" y="629.9064"/>
      </g>
     </g>
     <g id="text_26">
      <!-- 0 -->
      <g transform="translate(191.754287 644.504838)scale(0.1 -0.1)">
       <use xlink:href="#DejaVuSans-48"/>
      </g>
     </g>
    </g>
    <g id="xtick_12">
     <g id="line2d_33">
      <g>
       <use style="stroke:#000000;stroke-width:0.8;" x="289.937843" xlink:href="#m49ba26c863" y="629.9064"/>
      </g>
     </g>
     <g id="text_27">
      <!-- 50 -->
      <g transform="translate(283.575343 644.504838)scale(0.1 -0.1)">
       <use xlink:href="#DejaVuSans-53"/>
       <use x="63.623047" xlink:href="#DejaVuSans-48"/>
      </g>
     </g>
    </g>
    <g id="xtick_13">
     <g id="line2d_34">
      <g>
       <use style="stroke:#000000;stroke-width:0.8;" x="384.940148" xlink:href="#m49ba26c863" y="629.9064"/>
      </g>
     </g>
     <g id="text_28">
      <!-- 100 -->
      <g transform="translate(375.396398 644.504838)scale(0.1 -0.1)">
       <use xlink:href="#DejaVuSans-49"/>
       <use x="63.623047" xlink:href="#DejaVuSans-48"/>
       <use x="127.246094" xlink:href="#DejaVuSans-48"/>
      </g>
     </g>
    </g>
    <g id="xtick_14">
     <g id="line2d_35">
      <g>
       <use style="stroke:#000000;stroke-width:0.8;" x="479.942454" xlink:href="#m49ba26c863" y="629.9064"/>
      </g>
     </g>
     <g id="text_29">
      <!-- 150 -->
      <g transform="translate(470.398704 644.504838)scale(0.1 -0.1)">
       <use xlink:href="#DejaVuSans-49"/>
       <use x="63.623047" xlink:href="#DejaVuSans-53"/>
       <use x="127.246094" xlink:href="#DejaVuSans-48"/>
      </g>
     </g>
    </g>
    <g id="xtick_15">
     <g id="line2d_36">
      <g>
       <use style="stroke:#000000;stroke-width:0.8;" x="574.944759" xlink:href="#m49ba26c863" y="629.9064"/>
      </g>
     </g>
     <g id="text_30">
      <!-- 200 -->
      <g transform="translate(565.401009 644.504838)scale(0.1 -0.1)">
       <use xlink:href="#DejaVuSans-50"/>
       <use x="63.623047" xlink:href="#DejaVuSans-48"/>
       <use x="127.246094" xlink:href="#DejaVuSans-48"/>
      </g>
     </g>
    </g>
   </g>
   <g id="matplotlib.axis_6">
    <g id="ytick_14">
     <g id="line2d_37">
      <g>
       <use style="stroke:#000000;stroke-width:0.8;" x="172.8" xlink:href="#m90ec82f0f9" y="589.595158"/>
      </g>
     </g>
     <g id="text_31">
      <!-- −0.5 -->
      <g transform="translate(141.517187 593.394377)scale(0.1 -0.1)">
       <use xlink:href="#DejaVuSans-8722"/>
       <use x="83.789062" xlink:href="#DejaVuSans-48"/>
       <use x="147.412109" xlink:href="#DejaVuSans-46"/>
       <use x="179.199219" xlink:href="#DejaVuSans-53"/>
      </g>
     </g>
    </g>
    <g id="ytick_15">
     <g id="line2d_38">
      <g>
       <use style="stroke:#000000;stroke-width:0.8;" x="172.8" xlink:href="#m90ec82f0f9" y="542.235372"/>
      </g>
     </g>
     <g id="text_32">
      <!-- 0.0 -->
      <g transform="translate(149.896875 546.034591)scale(0.1 -0.1)">
       <use xlink:href="#DejaVuSans-48"/>
       <use x="63.623047" xlink:href="#DejaVuSans-46"/>
       <use x="95.410156" xlink:href="#DejaVuSans-48"/>
      </g>
     </g>
    </g>
    <g id="ytick_16">
     <g id="line2d_39">
      <g>
       <use style="stroke:#000000;stroke-width:0.8;" x="172.8" xlink:href="#m90ec82f0f9" y="494.875587"/>
      </g>
     </g>
     <g id="text_33">
      <!-- 0.5 -->
      <g transform="translate(149.896875 498.674806)scale(0.1 -0.1)">
       <use xlink:href="#DejaVuSans-48"/>
       <use x="63.623047" xlink:href="#DejaVuSans-46"/>
       <use x="95.410156" xlink:href="#DejaVuSans-53"/>
      </g>
     </g>
    </g>
    <g id="ytick_17">
     <g id="line2d_40">
      <g>
       <use style="stroke:#000000;stroke-width:0.8;" x="172.8" xlink:href="#m90ec82f0f9" y="447.515801"/>
      </g>
     </g>
     <g id="text_34">
      <!-- 1.0 -->
      <g transform="translate(149.896875 451.31502)scale(0.1 -0.1)">
       <use xlink:href="#DejaVuSans-49"/>
       <use x="63.623047" xlink:href="#DejaVuSans-46"/>
       <use x="95.410156" xlink:href="#DejaVuSans-48"/>
      </g>
     </g>
    </g>
    <g id="ytick_18">
     <g id="line2d_41">
      <g>
       <use style="stroke:#000000;stroke-width:0.8;" x="172.8" xlink:href="#m90ec82f0f9" y="400.156016"/>
      </g>
     </g>
     <g id="text_35">
      <!-- 1.5 -->
      <g transform="translate(149.896875 403.955235)scale(0.1 -0.1)">
       <use xlink:href="#DejaVuSans-49"/>
       <use x="63.623047" xlink:href="#DejaVuSans-46"/>
       <use x="95.410156" xlink:href="#DejaVuSans-53"/>
      </g>
     </g>
    </g>
   </g>
   <g id="line2d_42">
    <path clip-path="url(#p14af3528e6)" d="M 194.935537 542.169916 
L 196.835583 542.398658 
L 200.635676 543.179938 
L 202.535722 543.350417 
L 204.435768 543.235667 
L 210.135906 542.201928 
L 212.035952 542.227557 
L 215.836044 542.86111 
L 217.736091 543.145681 
L 219.636137 543.172621 
L 221.536183 542.906791 
L 225.336275 542.125703 
L 227.236321 541.970734 
L 229.136367 542.098245 
L 234.836506 543.076758 
L 236.736552 543.033143 
L 242.43669 542.160842 
L 244.336736 542.16005 
L 246.236782 542.425452 
L 250.036874 543.113865 
L 251.936921 543.212193 
L 253.836967 543.03711 
L 257.637059 542.284864 
L 259.537105 542.111739 
L 261.437151 542.203075 
L 267.137289 543.127481 
L 269.037336 543.117737 
L 274.737474 542.372503 
L 276.63752 542.400387 
L 278.537566 542.685991 
L 282.337658 543.463029 
L 284.237704 543.565131 
L 286.137751 543.408449 
L 289.937843 542.739945 
L 291.837889 542.572314 
L 293.737935 542.674344 
L 297.538027 543.227322 
L 299.438073 543.34702 
L 301.338119 543.233044 
L 307.038258 542.301998 
L 308.938304 542.346816 
L 316.538488 543.269365 
L 324.138673 542.521053 
L 326.038719 542.710099 
L 329.838811 543.310213 
L 331.738857 543.354844 
L 333.638903 543.163708 
L 337.438995 542.514017 
L 339.339042 542.351604 
L 341.239088 542.447344 
L 345.03918 542.989274 
L 346.939226 543.115329 
L 348.839272 543.045298 
L 354.53941 542.387318 
L 356.439457 542.519568 
L 362.139595 543.448183 
L 364.039641 543.481153 
L 369.739779 542.829898 
L 371.639825 542.834291 
L 375.439918 543.315381 
L 377.339964 543.530431 
L 379.24001 543.519848 
L 383.040102 543.000832 
L 384.940148 542.729636 
L 386.840194 542.620202 
L 388.74024 542.743723 
L 392.540333 543.20821 
L 394.440379 543.261103 
L 396.340425 543.134704 
L 402.040563 542.400747 
L 403.940609 542.452786 
L 409.640748 542.893833 
L 411.540794 542.786685 
L 417.240932 542.043125 
L 419.140978 542.0282 
L 422.94107 542.439816 
L 424.841117 542.621089 
L 426.741163 542.609757 
L 430.541255 542.210175 
L 432.441301 541.972676 
L 434.341347 541.855705 
L 441.941532 542.140033 
L 443.841578 541.9815 
L 449.541716 541.119746 
L 451.441762 541.062555 
L 455.241854 541.259521 
L 457.1419 541.395351 
L 459.041947 541.387243 
L 466.642131 540.672722 
L 468.542177 540.68872 
L 474.242315 541.045883 
L 478.042408 540.804659 
L 481.8425 540.262893 
L 483.742546 540.126405 
L 487.542638 540.201754 
L 491.34273 540.332902 
L 493.242777 540.253141 
L 502.743007 539.06551 
L 508.443145 538.900256 
L 512.243238 538.300019 
L 516.04333 537.414021 
L 517.943376 539.682838 
L 519.843422 538.584599 
L 521.743468 537.110862 
L 523.643514 538.818125 
L 525.54356 539.540173 
L 527.443607 536.161053 
L 529.343653 533.800466 
L 531.243699 537.769185 
L 533.143745 543.311956 
L 535.043791 544.01732 
L 536.943837 542.542258 
L 538.843883 544.055337 
L 540.743929 546.238379 
L 542.643975 544.090854 
L 544.544022 537.804259 
L 546.444068 536.114341 
L 548.344114 537.942727 
L 550.24416 536.079171 
L 552.144206 530.530083 
L 554.044252 528.969389 
L 555.944298 533.351265 
L 557.844344 536.602757 
L 559.74439 534.869542 
L 561.644437 533.800625 
L 565.444529 541.976149 
L 567.344575 541.071172 
L 569.244621 538.860228 
L 571.144667 541.139867 
L 573.044713 545.353578 
L 574.944759 545.406229 
L 576.844805 542.682792 
L 578.744852 543.108183 
L 580.644898 546.010334 
L 582.544944 545.674246 
L 584.44499 542.306427 
L 586.345036 541.865503 
L 588.245082 544.974544 
L 590.145128 546.056804 
L 592.045174 544.091205 
L 593.94522 544.235569 
L 595.845267 547.126523 
L 597.745313 547.117844 
L 599.645359 543.181288 
L 601.545405 540.930483 
L 603.445451 546.935823 
L 605.345497 549.093659 
L 607.245543 545.703811 
L 609.145589 543.40234 
L 611.045635 541.314889 
L 612.945682 534.110339 
L 614.845728 527.806752 
L 616.745774 530.230893 
L 618.64582 535.885705 
L 620.545866 539.969695 
L 622.445912 548.409106 
L 624.345958 559.613558 
L 626.246004 563.260959 
L 628.14605 561.295866 
L 630.046097 561.459882 
L 631.946143 559.369947 
L 633.846189 552.616535 
L 635.746235 551.023981 
L 637.646281 556.087423 
L 637.646281 556.087423 
" style="fill:none;stroke:#ff796c;stroke-linecap:square;stroke-width:1.5;"/>
   </g>
   <g id="line2d_43">
    <path clip-path="url(#p14af3528e6)" d="M 194.935537 394.038899 
L 202.535722 394.134052 
L 208.23586 394.57655 
L 217.736091 395.557418 
L 223.436229 396.455739 
L 236.736552 398.907336 
L 246.236782 401.188014 
L 251.936921 402.662294 
L 257.637059 404.425412 
L 270.937382 408.76989 
L 284.237704 413.774254 
L 289.937843 416.311926 
L 301.338119 421.689757 
L 318.438534 430.585696 
L 333.638903 439.188769 
L 360.239549 455.511648 
L 365.939687 459.172319 
L 379.24001 468.153391 
L 394.440379 479.143609 
L 407.740702 489.249237 
L 415.340886 495.217416 
L 438.141439 513.436113 
L 445.741624 519.78211 
L 455.241854 527.767606 
L 464.742085 535.779197 
L 481.8425 550.127747 
L 487.542638 554.760467 
L 497.042869 562.163165 
L 502.743007 566.335521 
L 508.443145 570.107642 
L 512.243238 572.404671 
L 517.943376 575.633797 
L 521.743468 578.238854 
L 527.443607 581.672352 
L 529.343653 582.615955 
L 531.243699 583.074698 
L 533.143745 583.340788 
L 535.043791 583.818001 
L 540.743929 585.72532 
L 542.643975 586.662457 
L 546.444068 590.374504 
L 552.144206 595.213342 
L 554.044252 596.444483 
L 555.944298 597.147393 
L 561.644437 598.680693 
L 567.344575 599.14833 
L 569.244621 599.526929 
L 573.044713 599.935618 
L 574.944759 600.355364 
L 578.744852 601.569683 
L 580.644898 602.098323 
L 582.544944 602.78799 
L 586.345036 604.352713 
L 590.145128 605.553228 
L 595.845267 607.914969 
L 597.745313 608.908935 
L 601.545405 611.430807 
L 605.345497 613.536311 
L 609.145589 616.125336 
L 611.045635 617.246337 
L 612.945682 618.221559 
L 614.845728 618.646582 
L 616.745774 618.10386 
L 618.64582 616.757219 
L 620.545866 614.910615 
L 624.345958 610.202959 
L 626.246004 608.284227 
L 628.14605 606.96277 
L 630.046097 605.988299 
L 631.946143 605.390353 
L 633.846189 605.095586 
L 635.746235 604.646621 
L 637.646281 603.932487 
L 637.646281 603.932487 
" style="fill:none;stroke:#ffff14;stroke-linecap:square;stroke-width:1.5;"/>
   </g>
   <g id="line2d_44">
    <path clip-path="url(#p14af3528e6)" d="M 194.935537 393.450218 
L 202.535722 393.584276 
L 210.135906 393.986064 
L 217.736091 394.654424 
L 225.336275 395.587427 
L 232.936459 396.782385 
L 240.536644 398.235852 
L 248.136828 399.943636 
L 255.737013 401.900815 
L 263.337197 404.101745 
L 270.937382 406.54008 
L 278.537566 409.20879 
L 286.137751 412.10018 
L 293.737935 415.205914 
L 301.338119 418.517037 
L 310.83835 422.930171 
L 320.33858 427.629388 
L 329.838811 432.59352 
L 339.339042 437.800208 
L 350.739318 444.335312 
L 362.139595 451.143487 
L 375.439918 459.372499 
L 390.640287 469.065272 
L 411.540794 482.696581 
L 445.741624 505.041473 
L 460.941993 514.701299 
L 474.242315 522.890197 
L 485.642592 529.655883 
L 497.042869 536.141302 
L 506.543099 541.301321 
L 516.04333 546.214223 
L 525.54356 550.857877 
L 535.043791 555.211366 
L 542.643975 558.472014 
L 550.24416 561.524977 
L 557.844344 564.361454 
L 565.444529 566.973267 
L 573.044713 569.352883 
L 580.644898 571.493443 
L 588.245082 573.388774 
L 595.845267 575.033413 
L 603.445451 576.422616 
L 611.045635 577.552379 
L 618.64582 578.419444 
L 626.246004 579.021311 
L 633.846189 579.356245 
L 637.646281 579.42328 
L 637.646281 579.42328 
" style="fill:none;stroke:#014d4e;stroke-linecap:square;stroke-width:1.5;"/>
   </g>
   <g id="line2d_45">
    <path clip-path="url(#p14af3528e6)" d="M 194.935537 541.646691 
L 204.435768 541.649375 
L 231.036413 540.894072 
L 238.636598 540.740451 
L 246.236782 540.540463 
L 253.836967 540.399749 
L 261.437151 540.134756 
L 284.237704 539.81802 
L 299.438073 539.166406 
L 312.738396 538.531219 
L 320.33858 538.21739 
L 327.938765 537.934829 
L 333.638903 537.694983 
L 341.239088 537.290751 
L 367.839733 536.426462 
L 383.040102 535.534331 
L 403.940609 533.579724 
L 411.540794 532.73581 
L 434.341347 529.537814 
L 441.941532 528.255972 
L 457.1419 525.202693 
L 464.742085 523.525818 
L 481.8425 519.537288 
L 489.442684 517.825762 
L 500.842961 515.482607 
L 506.543099 514.644008 
L 512.243238 514.11086 
L 517.943376 513.766756 
L 521.743468 513.03061 
L 529.343653 512.254638 
L 531.243699 512.66675 
L 533.143745 513.259426 
L 535.043791 513.628737 
L 540.743929 514.186018 
L 542.643975 514.044929 
L 544.544022 512.900099 
L 546.444068 511.885889 
L 550.24416 510.181852 
L 552.144206 509.276753 
L 554.044252 508.761692 
L 555.944298 508.761068 
L 561.644437 509.250609 
L 565.444529 510.341322 
L 573.044713 511.652637 
L 574.944759 511.790696 
L 582.544944 511.437874 
L 586.345036 510.820902 
L 590.145128 510.505779 
L 595.845267 509.353816 
L 597.745313 508.731267 
L 601.545405 506.90406 
L 603.445451 506.226324 
L 605.345497 505.428581 
L 609.145589 503.404488 
L 611.045635 502.541414 
L 612.945682 501.807697 
L 614.845728 501.607713 
L 616.745774 502.358968 
L 618.64582 503.897597 
L 620.545866 505.919612 
L 624.345958 510.928228 
L 626.246004 512.972456 
L 628.14605 514.402723 
L 630.046097 515.469297 
L 631.946143 516.142622 
L 633.846189 516.496031 
L 635.746235 516.986891 
L 637.646281 517.726166 
L 637.646281 517.726166 
" style="fill:none;stroke:#e50000;stroke-linecap:square;stroke-width:1.5;"/>
   </g>
   <g id="patch_13">
    <path d="M 172.8 629.9064 
L 172.8 382.1904 
" style="fill:none;stroke:#000000;stroke-linecap:square;stroke-linejoin:miter;stroke-width:0.8;"/>
   </g>
   <g id="patch_14">
    <path d="M 659.781818 629.9064 
L 659.781818 382.1904 
" style="fill:none;stroke:#000000;stroke-linecap:square;stroke-linejoin:miter;stroke-width:0.8;"/>
   </g>
   <g id="patch_15">
    <path d="M 172.8 629.9064 
L 659.781818 629.9064 
" style="fill:none;stroke:#000000;stroke-linecap:square;stroke-linejoin:miter;stroke-width:0.8;"/>
   </g>
   <g id="patch_16">
    <path d="M 172.8 382.1904 
L 659.781818 382.1904 
" style="fill:none;stroke:#000000;stroke-linecap:square;stroke-linejoin:miter;stroke-width:0.8;"/>
   </g>
   <g id="text_36">
    <!-- Left abduction -->
    <defs>
     <path d="M 9.8125 72.90625 
L 19.671875 72.90625 
L 19.671875 8.296875 
L 55.171875 8.296875 
L 55.171875 0 
L 9.8125 0 
z
" id="DejaVuSans-76"/>
    </defs>
    <g transform="translate(372.997159 376.1904)scale(0.12 -0.12)">
     <use xlink:href="#DejaVuSans-76"/>
     <use x="55.697266" xlink:href="#DejaVuSans-101"/>
     <use x="117.220703" xlink:href="#DejaVuSans-102"/>
     <use x="152.410156" xlink:href="#DejaVuSans-116"/>
     <use x="191.619141" xlink:href="#DejaVuSans-32"/>
     <use x="223.40625" xlink:href="#DejaVuSans-97"/>
     <use x="284.685547" xlink:href="#DejaVuSans-98"/>
     <use x="348.162109" xlink:href="#DejaVuSans-100"/>
     <use x="411.638672" xlink:href="#DejaVuSans-117"/>
     <use x="475.017578" xlink:href="#DejaVuSans-99"/>
     <use x="529.998047" xlink:href="#DejaVuSans-116"/>
     <use x="569.207031" xlink:href="#DejaVuSans-105"/>
     <use x="596.990234" xlink:href="#DejaVuSans-111"/>
     <use x="658.171875" xlink:href="#DejaVuSans-110"/>
    </g>
   </g>
  </g>
  <g id="axes_4">
   <g id="patch_17">
    <path d="M 757.178182 629.9064 
L 1244.16 629.9064 
L 1244.16 382.1904 
L 757.178182 382.1904 
z
" style="fill:#ffffff;"/>
   </g>
   <g id="matplotlib.axis_7">
    <g id="xtick_16">
     <g id="line2d_46">
      <g>
       <use style="stroke:#000000;stroke-width:0.8;" x="779.313719" xlink:href="#m49ba26c863" y="629.9064"/>
      </g>
     </g>
     <g id="text_37">
      <!-- 0 -->
      <g transform="translate(776.132469 644.504838)scale(0.1 -0.1)">
       <use xlink:href="#DejaVuSans-48"/>
      </g>
     </g>
    </g>
    <g id="xtick_17">
     <g id="line2d_47">
      <g>
       <use style="stroke:#000000;stroke-width:0.8;" x="874.316025" xlink:href="#m49ba26c863" y="629.9064"/>
      </g>
     </g>
     <g id="text_38">
      <!-- 50 -->
      <g transform="translate(867.953525 644.504838)scale(0.1 -0.1)">
       <use xlink:href="#DejaVuSans-53"/>
       <use x="63.623047" xlink:href="#DejaVuSans-48"/>
      </g>
     </g>
    </g>
    <g id="xtick_18">
     <g id="line2d_48">
      <g>
       <use style="stroke:#000000;stroke-width:0.8;" x="969.31833" xlink:href="#m49ba26c863" y="629.9064"/>
      </g>
     </g>
     <g id="text_39">
      <!-- 100 -->
      <g transform="translate(959.77458 644.504838)scale(0.1 -0.1)">
       <use xlink:href="#DejaVuSans-49"/>
       <use x="63.623047" xlink:href="#DejaVuSans-48"/>
       <use x="127.246094" xlink:href="#DejaVuSans-48"/>
      </g>
     </g>
    </g>
    <g id="xtick_19">
     <g id="line2d_49">
      <g>
       <use style="stroke:#000000;stroke-width:0.8;" x="1064.320636" xlink:href="#m49ba26c863" y="629.9064"/>
      </g>
     </g>
     <g id="text_40">
      <!-- 150 -->
      <g transform="translate(1054.776886 644.504838)scale(0.1 -0.1)">
       <use xlink:href="#DejaVuSans-49"/>
       <use x="63.623047" xlink:href="#DejaVuSans-53"/>
       <use x="127.246094" xlink:href="#DejaVuSans-48"/>
      </g>
     </g>
    </g>
    <g id="xtick_20">
     <g id="line2d_50">
      <g>
       <use style="stroke:#000000;stroke-width:0.8;" x="1159.322941" xlink:href="#m49ba26c863" y="629.9064"/>
      </g>
     </g>
     <g id="text_41">
      <!-- 200 -->
      <g transform="translate(1149.779191 644.504838)scale(0.1 -0.1)">
       <use xlink:href="#DejaVuSans-50"/>
       <use x="63.623047" xlink:href="#DejaVuSans-48"/>
       <use x="127.246094" xlink:href="#DejaVuSans-48"/>
      </g>
     </g>
    </g>
   </g>
   <g id="matplotlib.axis_8">
    <g id="ytick_19">
     <g id="line2d_51">
      <g>
       <use style="stroke:#000000;stroke-width:0.8;" x="757.178182" xlink:href="#m90ec82f0f9" y="602.741543"/>
      </g>
     </g>
     <g id="text_42">
      <!-- −0.5 -->
      <g transform="translate(725.895369 606.540762)scale(0.1 -0.1)">
       <use xlink:href="#DejaVuSans-8722"/>
       <use x="83.789062" xlink:href="#DejaVuSans-48"/>
       <use x="147.412109" xlink:href="#DejaVuSans-46"/>
       <use x="179.199219" xlink:href="#DejaVuSans-53"/>
      </g>
     </g>
    </g>
    <g id="ytick_20">
     <g id="line2d_52">
      <g>
       <use style="stroke:#000000;stroke-width:0.8;" x="757.178182" xlink:href="#m90ec82f0f9" y="570.384179"/>
      </g>
     </g>
     <g id="text_43">
      <!-- −0.4 -->
      <g transform="translate(725.895369 574.183397)scale(0.1 -0.1)">
       <use xlink:href="#DejaVuSans-8722"/>
       <use x="83.789062" xlink:href="#DejaVuSans-48"/>
       <use x="147.412109" xlink:href="#DejaVuSans-46"/>
       <use x="179.199219" xlink:href="#DejaVuSans-52"/>
      </g>
     </g>
    </g>
    <g id="ytick_21">
     <g id="line2d_53">
      <g>
       <use style="stroke:#000000;stroke-width:0.8;" x="757.178182" xlink:href="#m90ec82f0f9" y="538.026814"/>
      </g>
     </g>
     <g id="text_44">
      <!-- −0.3 -->
      <g transform="translate(725.895369 541.826033)scale(0.1 -0.1)">
       <use xlink:href="#DejaVuSans-8722"/>
       <use x="83.789062" xlink:href="#DejaVuSans-48"/>
       <use x="147.412109" xlink:href="#DejaVuSans-46"/>
       <use x="179.199219" xlink:href="#DejaVuSans-51"/>
      </g>
     </g>
    </g>
    <g id="ytick_22">
     <g id="line2d_54">
      <g>
       <use style="stroke:#000000;stroke-width:0.8;" x="757.178182" xlink:href="#m90ec82f0f9" y="505.66945"/>
      </g>
     </g>
     <g id="text_45">
      <!-- −0.2 -->
      <g transform="translate(725.895369 509.468669)scale(0.1 -0.1)">
       <use xlink:href="#DejaVuSans-8722"/>
       <use x="83.789062" xlink:href="#DejaVuSans-48"/>
       <use x="147.412109" xlink:href="#DejaVuSans-46"/>
       <use x="179.199219" xlink:href="#DejaVuSans-50"/>
      </g>
     </g>
    </g>
    <g id="ytick_23">
     <g id="line2d_55">
      <g>
       <use style="stroke:#000000;stroke-width:0.8;" x="757.178182" xlink:href="#m90ec82f0f9" y="473.312086"/>
      </g>
     </g>
     <g id="text_46">
      <!-- −0.1 -->
      <g transform="translate(725.895369 477.111305)scale(0.1 -0.1)">
       <use xlink:href="#DejaVuSans-8722"/>
       <use x="83.789062" xlink:href="#DejaVuSans-48"/>
       <use x="147.412109" xlink:href="#DejaVuSans-46"/>
       <use x="179.199219" xlink:href="#DejaVuSans-49"/>
      </g>
     </g>
    </g>
    <g id="ytick_24">
     <g id="line2d_56">
      <g>
       <use style="stroke:#000000;stroke-width:0.8;" x="757.178182" xlink:href="#m90ec82f0f9" y="440.954721"/>
      </g>
     </g>
     <g id="text_47">
      <!-- 0.0 -->
      <g transform="translate(734.275057 444.75394)scale(0.1 -0.1)">
       <use xlink:href="#DejaVuSans-48"/>
       <use x="63.623047" xlink:href="#DejaVuSans-46"/>
       <use x="95.410156" xlink:href="#DejaVuSans-48"/>
      </g>
     </g>
    </g>
    <g id="ytick_25">
     <g id="line2d_57">
      <g>
       <use style="stroke:#000000;stroke-width:0.8;" x="757.178182" xlink:href="#m90ec82f0f9" y="408.597357"/>
      </g>
     </g>
     <g id="text_48">
      <!-- 0.1 -->
      <g transform="translate(734.275057 412.396576)scale(0.1 -0.1)">
       <use xlink:href="#DejaVuSans-48"/>
       <use x="63.623047" xlink:href="#DejaVuSans-46"/>
       <use x="95.410156" xlink:href="#DejaVuSans-49"/>
      </g>
     </g>
    </g>
   </g>
   <g id="line2d_58">
    <path clip-path="url(#paa2336b696)" d="M 779.313719 440.947056 
L 845.815333 440.608792 
L 851.515471 440.312413 
L 857.21561 439.785595 
L 868.615886 438.524136 
L 876.216071 438.228913 
L 883.816255 437.797721 
L 893.316486 437.091717 
L 899.016624 436.666406 
L 908.516855 436.356639 
L 940.817638 435.322069 
L 957.918053 434.901502 
L 988.318791 434.480845 
L 990.218837 434.555301 
L 992.118883 434.762643 
L 994.01893 435.142044 
L 995.918976 435.70795 
L 997.819022 436.449822 
L 1001.619114 438.300096 
L 1007.319252 441.223978 
L 1011.119345 442.855192 
L 1014.919437 444.133408 
L 1022.519621 446.247901 
L 1024.419667 446.946996 
L 1026.319713 447.812433 
L 1028.21976 448.870722 
L 1030.119806 450.129789 
L 1032.019852 451.572191 
L 1035.819944 454.858831 
L 1045.320175 463.579637 
L 1049.120267 466.669808 
L 1056.720451 472.447904 
L 1058.620497 474.063483 
L 1060.520543 475.840842 
L 1062.42059 477.807491 
L 1064.320636 479.978383 
L 1068.120728 484.883283 
L 1071.92082 490.348598 
L 1090.921281 519.193657 
L 1094.721373 525.489908 
L 1098.521466 532.419959 
L 1100.421512 536.142057 
L 1104.221604 514.747671 
L 1106.12165 503.855439 
L 1108.021696 490.368005 
L 1109.921742 492.142354 
L 1111.821788 497.097586 
L 1113.721834 502.41101 
L 1115.621881 503.518286 
L 1117.521927 503.62239 
L 1119.421973 508.255727 
L 1121.322019 514.284922 
L 1123.222065 515.233762 
L 1125.122111 513.503653 
L 1127.022157 516.512304 
L 1128.922203 525.179344 
L 1130.822249 526.229842 
L 1132.722296 521.771153 
L 1134.622342 523.793581 
L 1136.522388 533.162114 
L 1138.422434 537.584327 
L 1140.32248 533.346877 
L 1142.222526 532.114618 
L 1144.122572 540.12967 
L 1146.022618 546.531858 
L 1147.922664 542.694829 
L 1149.822711 537.618424 
L 1151.722757 541.628835 
L 1153.622803 547.541432 
L 1155.522849 544.067818 
L 1157.422895 536.208258 
L 1159.322941 535.958282 
L 1161.222987 540.251518 
L 1163.123033 537.292828 
L 1165.023079 528.652823 
L 1166.923126 526.143288 
L 1168.823172 529.812312 
L 1170.723218 528.513104 
L 1172.623264 521.548542 
L 1174.52331 519.786059 
L 1176.423356 524.627119 
L 1178.323402 525.643205 
L 1180.223448 521.115174 
L 1182.123494 520.762768 
L 1184.023541 525.795303 
L 1185.923587 526.51473 
L 1187.823633 522.41425 
L 1189.723679 523.056483 
L 1191.623725 527.911463 
L 1193.523771 526.837004 
L 1195.423817 522.586179 
L 1197.323863 524.063572 
L 1199.223909 526.284187 
L 1201.123956 522.637166 
L 1203.024002 520.023259 
L 1204.924048 522.289836 
L 1206.824094 521.726256 
L 1208.72414 517.924188 
L 1210.624186 518.59253 
L 1212.524232 521.050611 
L 1214.424278 519.041773 
L 1216.324324 517.773105 
L 1218.224371 521.001662 
L 1220.124417 521.779098 
L 1222.024463 519.314019 
L 1222.024463 519.314019 
" style="fill:none;stroke:#ff796c;stroke-linecap:square;stroke-width:1.5;"/>
   </g>
   <g id="line2d_59">
    <path clip-path="url(#paa2336b696)" d="M 779.313719 571.180857 
L 855.315563 571.291075 
L 881.916209 571.623687 
L 929.417362 572.042334 
L 978.818561 572.291138 
L 992.118883 572.2373 
L 995.918976 571.998485 
L 1001.619114 571.337847 
L 1009.219298 570.363364 
L 1014.919437 569.820558 
L 1024.419667 569.069293 
L 1028.21976 568.551472 
L 1032.019852 567.821199 
L 1037.71999 566.447713 
L 1045.320175 564.576879 
L 1049.120267 563.807159 
L 1052.920359 563.19805 
L 1058.620497 562.51295 
L 1066.220682 561.813672 
L 1070.020774 561.679976 
L 1073.820866 561.878039 
L 1075.720912 562.156784 
L 1077.620958 562.583118 
L 1079.521005 563.176168 
L 1081.421051 563.955288 
L 1083.321097 564.935416 
L 1085.221143 566.124834 
L 1087.121189 567.529418 
L 1089.021235 569.154945 
L 1090.921281 571.004046 
L 1092.821327 573.0785 
L 1094.721373 575.385997 
L 1096.62142 577.940082 
L 1098.521466 580.75583 
L 1100.421512 583.852382 
L 1102.321558 591.489033 
L 1104.221604 599.933877 
L 1108.021696 618.646582 
L 1109.921742 617.01863 
L 1111.821788 615.708867 
L 1113.721834 614.663166 
L 1115.621881 613.829852 
L 1117.521927 613.170264 
L 1121.322019 612.237546 
L 1125.122111 611.637597 
L 1128.922203 611.287905 
L 1134.622342 610.969458 
L 1144.122572 610.799256 
L 1166.923126 610.789288 
L 1199.223909 610.718181 
L 1220.124417 610.762996 
L 1222.024463 610.768356 
L 1222.024463 610.768356 
" style="fill:none;stroke:#ffff14;stroke-linecap:square;stroke-width:1.5;"/>
   </g>
   <g id="line2d_60">
    <path clip-path="url(#paa2336b696)" d="M 779.313719 571.142079 
L 1222.024463 571.142079 
L 1222.024463 571.142079 
" style="fill:none;stroke:#014d4e;stroke-linecap:square;stroke-width:1.5;"/>
   </g>
   <g id="line2d_61">
    <path clip-path="url(#paa2336b696)" d="M 779.313719 440.915943 
L 855.315563 440.805725 
L 881.916209 440.473113 
L 929.417362 440.054466 
L 978.818561 439.805662 
L 992.118883 439.8595 
L 995.918976 440.098315 
L 1001.619114 440.758953 
L 1009.219298 441.733436 
L 1014.919437 442.276242 
L 1024.419667 443.027507 
L 1028.21976 443.545328 
L 1032.019852 444.275601 
L 1037.71999 445.649087 
L 1045.320175 447.519921 
L 1049.120267 448.289641 
L 1052.920359 448.89875 
L 1058.620497 449.58385 
L 1066.220682 450.283128 
L 1070.020774 450.416824 
L 1073.820866 450.218761 
L 1075.720912 449.940016 
L 1077.620958 449.513682 
L 1079.521005 448.920632 
L 1081.421051 448.141512 
L 1083.321097 447.161384 
L 1085.221143 445.971966 
L 1087.121189 444.567382 
L 1089.021235 442.941855 
L 1090.921281 441.092754 
L 1092.821327 439.0183 
L 1094.721373 436.710803 
L 1096.62142 434.156718 
L 1098.521466 431.34097 
L 1100.421512 428.244418 
L 1102.321558 420.607767 
L 1104.221604 412.162923 
L 1108.021696 393.450218 
L 1109.921742 395.07817 
L 1111.821788 396.387933 
L 1113.721834 397.433634 
L 1115.621881 398.266948 
L 1117.521927 398.926536 
L 1121.322019 399.859254 
L 1125.122111 400.459203 
L 1128.922203 400.808895 
L 1134.622342 401.127342 
L 1144.122572 401.297544 
L 1166.923126 401.307512 
L 1199.223909 401.378619 
L 1220.124417 401.333804 
L 1222.024463 401.328444 
L 1222.024463 401.328444 
" style="fill:none;stroke:#e50000;stroke-linecap:square;stroke-width:1.5;"/>
   </g>
   <g id="patch_18">
    <path d="M 757.178182 629.9064 
L 757.178182 382.1904 
" style="fill:none;stroke:#000000;stroke-linecap:square;stroke-linejoin:miter;stroke-width:0.8;"/>
   </g>
   <g id="patch_19">
    <path d="M 1244.16 629.9064 
L 1244.16 382.1904 
" style="fill:none;stroke:#000000;stroke-linecap:square;stroke-linejoin:miter;stroke-width:0.8;"/>
   </g>
   <g id="patch_20">
    <path d="M 757.178182 629.9064 
L 1244.16 629.9064 
" style="fill:none;stroke:#000000;stroke-linecap:square;stroke-linejoin:miter;stroke-width:0.8;"/>
   </g>
   <g id="patch_21">
    <path d="M 757.178182 382.1904 
L 1244.16 382.1904 
" style="fill:none;stroke:#000000;stroke-linecap:square;stroke-linejoin:miter;stroke-width:0.8;"/>
   </g>
   <g id="text_49">
    <!-- Left flexion -->
    <g transform="translate(967.102841 376.1904)scale(0.12 -0.12)">
     <use xlink:href="#DejaVuSans-76"/>
     <use x="55.697266" xlink:href="#DejaVuSans-101"/>
     <use x="117.220703" xlink:href="#DejaVuSans-102"/>
     <use x="152.410156" xlink:href="#DejaVuSans-116"/>
     <use x="191.619141" xlink:href="#DejaVuSans-32"/>
     <use x="223.40625" xlink:href="#DejaVuSans-102"/>
     <use x="258.611328" xlink:href="#DejaVuSans-108"/>
     <use x="286.394531" xlink:href="#DejaVuSans-101"/>
     <use x="347.902344" xlink:href="#DejaVuSans-120"/>
     <use x="407.082031" xlink:href="#DejaVuSans-105"/>
     <use x="434.865234" xlink:href="#DejaVuSans-111"/>
     <use x="496.046875" xlink:href="#DejaVuSans-110"/>
    </g>
   </g>
  </g>
  <g id="legend_1">
   <g id="patch_22">
    <path d="M 1308.251562 384.875313 
L 1375.4 384.875313 
Q 1377.4 384.875313 1377.4 382.875313 
L 1377.4 324.884687 
Q 1377.4 322.884687 1375.4 322.884687 
L 1308.251562 322.884687 
Q 1306.251562 322.884687 1306.251562 324.884687 
L 1306.251562 382.875313 
Q 1306.251562 384.875313 1308.251562 384.875313 
z
" style="fill:#ffffff;opacity:0.8;stroke:#cccccc;stroke-linejoin:miter;"/>
   </g>
   <g id="line2d_62">
    <path d="M 1310.251562 330.983125 
L 1330.251562 330.983125 
" style="fill:none;stroke:#ff796c;stroke-linecap:square;stroke-width:1.5;"/>
   </g>
   <g id="line2d_63"/>
   <g id="text_50">
    <!-- Torque -->
    <defs>
     <path d="M -0.296875 72.90625 
L 61.375 72.90625 
L 61.375 64.59375 
L 35.5 64.59375 
L 35.5 0 
L 25.59375 0 
L 25.59375 64.59375 
L -0.296875 64.59375 
z
" id="DejaVuSans-84"/>
     <path d="M 41.109375 46.296875 
Q 39.59375 47.171875 37.8125 47.578125 
Q 36.03125 48 33.890625 48 
Q 26.265625 48 22.1875 43.046875 
Q 18.109375 38.09375 18.109375 28.8125 
L 18.109375 0 
L 9.078125 0 
L 9.078125 54.6875 
L 18.109375 54.6875 
L 18.109375 46.1875 
Q 20.953125 51.171875 25.484375 53.578125 
Q 30.03125 56 36.53125 56 
Q 37.453125 56 38.578125 55.875 
Q 39.703125 55.765625 41.0625 55.515625 
z
" id="DejaVuSans-114"/>
     <path d="M 14.796875 27.296875 
Q 14.796875 17.390625 18.875 11.75 
Q 22.953125 6.109375 30.078125 6.109375 
Q 37.203125 6.109375 41.296875 11.75 
Q 45.40625 17.390625 45.40625 27.296875 
Q 45.40625 37.203125 41.296875 42.84375 
Q 37.203125 48.484375 30.078125 48.484375 
Q 22.953125 48.484375 18.875 42.84375 
Q 14.796875 37.203125 14.796875 27.296875 
z
M 45.40625 8.203125 
Q 42.578125 3.328125 38.25 0.953125 
Q 33.9375 -1.421875 27.875 -1.421875 
Q 17.96875 -1.421875 11.734375 6.484375 
Q 5.515625 14.40625 5.515625 27.296875 
Q 5.515625 40.1875 11.734375 48.09375 
Q 17.96875 56 27.875 56 
Q 33.9375 56 38.25 53.625 
Q 42.578125 51.265625 45.40625 46.390625 
L 45.40625 54.6875 
L 54.390625 54.6875 
L 54.390625 -20.796875 
L 45.40625 -20.796875 
z
" id="DejaVuSans-113"/>
    </defs>
    <g transform="translate(1338.251562 334.483125)scale(0.1 -0.1)">
     <use xlink:href="#DejaVuSans-84"/>
     <use x="60.818359" xlink:href="#DejaVuSans-111"/>
     <use x="122" xlink:href="#DejaVuSans-114"/>
     <use x="163.097656" xlink:href="#DejaVuSans-113"/>
     <use x="226.574219" xlink:href="#DejaVuSans-117"/>
     <use x="289.953125" xlink:href="#DejaVuSans-101"/>
    </g>
   </g>
   <g id="line2d_64">
    <path d="M 1310.251562 345.66125 
L 1330.251562 345.66125 
" style="fill:none;stroke:#ffff14;stroke-linecap:square;stroke-width:1.5;"/>
   </g>
   <g id="line2d_65"/>
   <g id="text_51">
    <!-- q -->
    <g transform="translate(1338.251562 349.16125)scale(0.1 -0.1)">
     <use xlink:href="#DejaVuSans-113"/>
    </g>
   </g>
   <g id="line2d_66">
    <path d="M 1310.251562 360.339375 
L 1330.251562 360.339375 
" style="fill:none;stroke:#014d4e;stroke-linecap:square;stroke-width:1.5;"/>
   </g>
   <g id="line2d_67"/>
   <g id="text_52">
    <!-- q_des -->
    <defs>
     <path d="M 50.984375 -16.609375 
L 50.984375 -23.578125 
L -0.984375 -23.578125 
L -0.984375 -16.609375 
z
" id="DejaVuSans-95"/>
     <path d="M 44.28125 53.078125 
L 44.28125 44.578125 
Q 40.484375 46.53125 36.375 47.5 
Q 32.28125 48.484375 27.875 48.484375 
Q 21.1875 48.484375 17.84375 46.4375 
Q 14.5 44.390625 14.5 40.28125 
Q 14.5 37.15625 16.890625 35.375 
Q 19.28125 33.59375 26.515625 31.984375 
L 29.59375 31.296875 
Q 39.15625 29.25 43.1875 25.515625 
Q 47.21875 21.78125 47.21875 15.09375 
Q 47.21875 7.46875 41.1875 3.015625 
Q 35.15625 -1.421875 24.609375 -1.421875 
Q 20.21875 -1.421875 15.453125 -0.5625 
Q 10.6875 0.296875 5.421875 2 
L 5.421875 11.28125 
Q 10.40625 8.6875 15.234375 7.390625 
Q 20.0625 6.109375 24.8125 6.109375 
Q 31.15625 6.109375 34.5625 8.28125 
Q 37.984375 10.453125 37.984375 14.40625 
Q 37.984375 18.0625 35.515625 20.015625 
Q 33.0625 21.96875 24.703125 23.78125 
L 21.578125 24.515625 
Q 13.234375 26.265625 9.515625 29.90625 
Q 5.8125 33.546875 5.8125 39.890625 
Q 5.8125 47.609375 11.28125 51.796875 
Q 16.75 56 26.8125 56 
Q 31.78125 56 36.171875 55.265625 
Q 40.578125 54.546875 44.28125 53.078125 
z
" id="DejaVuSans-115"/>
    </defs>
    <g transform="translate(1338.251562 363.839375)scale(0.1 -0.1)">
     <use xlink:href="#DejaVuSans-113"/>
     <use x="63.476562" xlink:href="#DejaVuSans-95"/>
     <use x="113.476562" xlink:href="#DejaVuSans-100"/>
     <use x="176.953125" xlink:href="#DejaVuSans-101"/>
     <use x="238.476562" xlink:href="#DejaVuSans-115"/>
    </g>
   </g>
   <g id="line2d_68">
    <path d="M 1310.251562 375.295625 
L 1330.251562 375.295625 
" style="fill:none;stroke:#e50000;stroke-linecap:square;stroke-width:1.5;"/>
   </g>
   <g id="line2d_69"/>
   <g id="text_53">
    <!-- error -->
    <g transform="translate(1338.251562 378.795625)scale(0.1 -0.1)">
     <use xlink:href="#DejaVuSans-101"/>
     <use x="61.523438" xlink:href="#DejaVuSans-114"/>
     <use x="102.621094" xlink:href="#DejaVuSans-114"/>
     <use x="143.703125" xlink:href="#DejaVuSans-111"/>
     <use x="204.884766" xlink:href="#DejaVuSans-114"/>
    </g>
   </g>
  </g>
 </g>
 <defs>
  <clipPath id="pdc0c1f0d9a">
   <rect height="247.716" width="486.981818" x="172.8" y="84.9312"/>
  </clipPath>
  <clipPath id="p8a5458ea98">
   <rect height="247.716" width="486.981818" x="757.178182" y="84.9312"/>
  </clipPath>
  <clipPath id="p14af3528e6">
   <rect height="247.716" width="486.981818" x="172.8" y="382.1904"/>
  </clipPath>
  <clipPath id="paa2336b696">
   <rect height="247.716" width="486.981818" x="757.178182" y="382.1904"/>
  </clipPath>
 </defs>
</svg>
