<?xml version="1.0" encoding="utf-8" standalone="no"?>
<!DOCTYPE svg PUBLIC "-//W3C//DTD SVG 1.1//EN"
  "http://www.w3.org/Graphics/SVG/1.1/DTD/svg11.dtd">
<!-- Created with matplotlib (https://matplotlib.org/) -->
<svg height="707.76pt" version="1.1" viewBox="0 0 1382.4 707.76" width="1382.4pt" xmlns="http://www.w3.org/2000/svg" xmlns:xlink="http://www.w3.org/1999/xlink">
 <defs>
  <style type="text/css">
*{stroke-linecap:butt;stroke-linejoin:round;}
  </style>
 </defs>
 <g id="figure_1">
  <g id="patch_1">
   <path d="M 0 707.76 
L 1382.4 707.76 
L 1382.4 0 
L 0 0 
z
" style="fill:#ffffff;"/>
  </g>
  <g id="axes_1">
   <g id="patch_2">
    <path d="M 172.8 332.6472 
L 487.905882 332.6472 
L 487.905882 84.9312 
L 172.8 84.9312 
z
" style="fill:#ffffff;"/>
   </g>
   <g id="matplotlib.axis_1">
    <g id="xtick_1">
     <g id="line2d_1">
      <defs>
       <path d="M 0 0 
L 0 3.5 
" id="m251a75ebb1" style="stroke:#000000;stroke-width:0.8;"/>
      </defs>
      <g>
       <use style="stroke:#000000;stroke-width:0.8;" x="187.122995" xlink:href="#m251a75ebb1" y="332.6472"/>
      </g>
     </g>
     <g id="text_1">
      <!-- 0 -->
      <defs>
       <path d="M 31.78125 66.40625 
Q 24.171875 66.40625 20.328125 58.90625 
Q 16.5 51.421875 16.5 36.375 
Q 16.5 21.390625 20.328125 13.890625 
Q 24.171875 6.390625 31.78125 6.390625 
Q 39.453125 6.390625 43.28125 13.890625 
Q 47.125 21.390625 47.125 36.375 
Q 47.125 51.421875 43.28125 58.90625 
Q 39.453125 66.40625 31.78125 66.40625 
z
M 31.78125 74.21875 
Q 44.046875 74.21875 50.515625 64.515625 
Q 56.984375 54.828125 56.984375 36.375 
Q 56.984375 17.96875 50.515625 8.265625 
Q 44.046875 -1.421875 31.78125 -1.421875 
Q 19.53125 -1.421875 13.0625 8.265625 
Q 6.59375 17.96875 6.59375 36.375 
Q 6.59375 54.828125 13.0625 64.515625 
Q 19.53125 74.21875 31.78125 74.21875 
z
" id="DejaVuSans-48"/>
      </defs>
      <g transform="translate(183.941745 347.245637)scale(0.1 -0.1)">
       <use xlink:href="#DejaVuSans-48"/>
      </g>
     </g>
    </g>
    <g id="xtick_2">
     <g id="line2d_2">
      <g>
       <use style="stroke:#000000;stroke-width:0.8;" x="248.595075" xlink:href="#m251a75ebb1" y="332.6472"/>
      </g>
     </g>
     <g id="text_2">
      <!-- 50 -->
      <defs>
       <path d="M 10.796875 72.90625 
L 49.515625 72.90625 
L 49.515625 64.59375 
L 19.828125 64.59375 
L 19.828125 46.734375 
Q 21.96875 47.46875 24.109375 47.828125 
Q 26.265625 48.1875 28.421875 48.1875 
Q 40.625 48.1875 47.75 41.5 
Q 54.890625 34.8125 54.890625 23.390625 
Q 54.890625 11.625 47.5625 5.09375 
Q 40.234375 -1.421875 26.90625 -1.421875 
Q 22.3125 -1.421875 17.546875 -0.640625 
Q 12.796875 0.140625 7.71875 1.703125 
L 7.71875 11.625 
Q 12.109375 9.234375 16.796875 8.0625 
Q 21.484375 6.890625 26.703125 6.890625 
Q 35.15625 6.890625 40.078125 11.328125 
Q 45.015625 15.765625 45.015625 23.390625 
Q 45.015625 31 40.078125 35.4375 
Q 35.15625 39.890625 26.703125 39.890625 
Q 22.75 39.890625 18.8125 39.015625 
Q 14.890625 38.140625 10.796875 36.28125 
z
" id="DejaVuSans-53"/>
      </defs>
      <g transform="translate(242.232575 347.245637)scale(0.1 -0.1)">
       <use xlink:href="#DejaVuSans-53"/>
       <use x="63.623047" xlink:href="#DejaVuSans-48"/>
      </g>
     </g>
    </g>
    <g id="xtick_3">
     <g id="line2d_3">
      <g>
       <use style="stroke:#000000;stroke-width:0.8;" x="310.067155" xlink:href="#m251a75ebb1" y="332.6472"/>
      </g>
     </g>
     <g id="text_3">
      <!-- 100 -->
      <defs>
       <path d="M 12.40625 8.296875 
L 28.515625 8.296875 
L 28.515625 63.921875 
L 10.984375 60.40625 
L 10.984375 69.390625 
L 28.421875 72.90625 
L 38.28125 72.90625 
L 38.28125 8.296875 
L 54.390625 8.296875 
L 54.390625 0 
L 12.40625 0 
z
" id="DejaVuSans-49"/>
      </defs>
      <g transform="translate(300.523405 347.245637)scale(0.1 -0.1)">
       <use xlink:href="#DejaVuSans-49"/>
       <use x="63.623047" xlink:href="#DejaVuSans-48"/>
       <use x="127.246094" xlink:href="#DejaVuSans-48"/>
      </g>
     </g>
    </g>
    <g id="xtick_4">
     <g id="line2d_4">
      <g>
       <use style="stroke:#000000;stroke-width:0.8;" x="371.539235" xlink:href="#m251a75ebb1" y="332.6472"/>
      </g>
     </g>
     <g id="text_4">
      <!-- 150 -->
      <g transform="translate(361.995485 347.245637)scale(0.1 -0.1)">
       <use xlink:href="#DejaVuSans-49"/>
       <use x="63.623047" xlink:href="#DejaVuSans-53"/>
       <use x="127.246094" xlink:href="#DejaVuSans-48"/>
      </g>
     </g>
    </g>
    <g id="xtick_5">
     <g id="line2d_5">
      <g>
       <use style="stroke:#000000;stroke-width:0.8;" x="433.011315" xlink:href="#m251a75ebb1" y="332.6472"/>
      </g>
     </g>
     <g id="text_5">
      <!-- 200 -->
      <defs>
       <path d="M 19.1875 8.296875 
L 53.609375 8.296875 
L 53.609375 0 
L 7.328125 0 
L 7.328125 8.296875 
Q 12.9375 14.109375 22.625 23.890625 
Q 32.328125 33.6875 34.8125 36.53125 
Q 39.546875 41.84375 41.421875 45.53125 
Q 43.3125 49.21875 43.3125 52.78125 
Q 43.3125 58.59375 39.234375 62.25 
Q 35.15625 65.921875 28.609375 65.921875 
Q 23.96875 65.921875 18.8125 64.3125 
Q 13.671875 62.703125 7.8125 59.421875 
L 7.8125 69.390625 
Q 13.765625 71.78125 18.9375 73 
Q 24.125 74.21875 28.421875 74.21875 
Q 39.75 74.21875 46.484375 68.546875 
Q 53.21875 62.890625 53.21875 53.421875 
Q 53.21875 48.921875 51.53125 44.890625 
Q 49.859375 40.875 45.40625 35.40625 
Q 44.1875 33.984375 37.640625 27.21875 
Q 31.109375 20.453125 19.1875 8.296875 
z
" id="DejaVuSans-50"/>
      </defs>
      <g transform="translate(423.467565 347.245637)scale(0.1 -0.1)">
       <use xlink:href="#DejaVuSans-50"/>
       <use x="63.623047" xlink:href="#DejaVuSans-48"/>
       <use x="127.246094" xlink:href="#DejaVuSans-48"/>
      </g>
     </g>
    </g>
   </g>
   <g id="matplotlib.axis_2">
    <g id="ytick_1">
     <g id="line2d_6">
      <defs>
       <path d="M 0 0 
L -3.5 0 
" id="md0523470c6" style="stroke:#000000;stroke-width:0.8;"/>
      </defs>
      <g>
       <use style="stroke:#000000;stroke-width:0.8;" x="172.8" xlink:href="#md0523470c6" y="298.853588"/>
      </g>
     </g>
     <g id="text_6">
      <!-- 0 -->
      <g transform="translate(159.4375 302.652807)scale(0.1 -0.1)">
       <use xlink:href="#DejaVuSans-48"/>
      </g>
     </g>
    </g>
    <g id="ytick_2">
     <g id="line2d_7">
      <g>
       <use style="stroke:#000000;stroke-width:0.8;" x="172.8" xlink:href="#md0523470c6" y="244.73942"/>
      </g>
     </g>
     <g id="text_7">
      <!-- 2 -->
      <g transform="translate(159.4375 248.538638)scale(0.1 -0.1)">
       <use xlink:href="#DejaVuSans-50"/>
      </g>
     </g>
    </g>
    <g id="ytick_3">
     <g id="line2d_8">
      <g>
       <use style="stroke:#000000;stroke-width:0.8;" x="172.8" xlink:href="#md0523470c6" y="190.625252"/>
      </g>
     </g>
     <g id="text_8">
      <!-- 4 -->
      <defs>
       <path d="M 37.796875 64.3125 
L 12.890625 25.390625 
L 37.796875 25.390625 
z
M 35.203125 72.90625 
L 47.609375 72.90625 
L 47.609375 25.390625 
L 58.015625 25.390625 
L 58.015625 17.1875 
L 47.609375 17.1875 
L 47.609375 0 
L 37.796875 0 
L 37.796875 17.1875 
L 4.890625 17.1875 
L 4.890625 26.703125 
z
" id="DejaVuSans-52"/>
      </defs>
      <g transform="translate(159.4375 194.42447)scale(0.1 -0.1)">
       <use xlink:href="#DejaVuSans-52"/>
      </g>
     </g>
    </g>
    <g id="ytick_4">
     <g id="line2d_9">
      <g>
       <use style="stroke:#000000;stroke-width:0.8;" x="172.8" xlink:href="#md0523470c6" y="136.511084"/>
      </g>
     </g>
     <g id="text_9">
      <!-- 6 -->
      <defs>
       <path d="M 33.015625 40.375 
Q 26.375 40.375 22.484375 35.828125 
Q 18.609375 31.296875 18.609375 23.390625 
Q 18.609375 15.53125 22.484375 10.953125 
Q 26.375 6.390625 33.015625 6.390625 
Q 39.65625 6.390625 43.53125 10.953125 
Q 47.40625 15.53125 47.40625 23.390625 
Q 47.40625 31.296875 43.53125 35.828125 
Q 39.65625 40.375 33.015625 40.375 
z
M 52.59375 71.296875 
L 52.59375 62.3125 
Q 48.875 64.0625 45.09375 64.984375 
Q 41.3125 65.921875 37.59375 65.921875 
Q 27.828125 65.921875 22.671875 59.328125 
Q 17.53125 52.734375 16.796875 39.40625 
Q 19.671875 43.65625 24.015625 45.921875 
Q 28.375 48.1875 33.59375 48.1875 
Q 44.578125 48.1875 50.953125 41.515625 
Q 57.328125 34.859375 57.328125 23.390625 
Q 57.328125 12.15625 50.6875 5.359375 
Q 44.046875 -1.421875 33.015625 -1.421875 
Q 20.359375 -1.421875 13.671875 8.265625 
Q 6.984375 17.96875 6.984375 36.375 
Q 6.984375 53.65625 15.1875 63.9375 
Q 23.390625 74.21875 37.203125 74.21875 
Q 40.921875 74.21875 44.703125 73.484375 
Q 48.484375 72.75 52.59375 71.296875 
z
" id="DejaVuSans-54"/>
      </defs>
      <g transform="translate(159.4375 140.310302)scale(0.1 -0.1)">
       <use xlink:href="#DejaVuSans-54"/>
      </g>
     </g>
    </g>
   </g>
   <g id="line2d_10">
    <path clip-path="url(#pea2fe49f47)" d="M 187.122995 298.853653 
L 190.811319 298.80904 
L 199.417411 298.266314 
L 203.105735 297.942628 
L 214.17071 296.431179 
L 226.465126 294.055262 
L 243.677308 289.805962 
L 247.365633 288.810034 
L 267.036699 282.823806 
L 271.954465 281.029953 
L 283.01944 276.80498 
L 292.854972 272.690792 
L 303.919947 267.514037 
L 312.526038 262.930508 
L 317.443804 259.951956 
L 323.591012 256.004163 
L 327.279337 253.326081 
L 332.197104 249.455085 
L 335.885428 246.342141 
L 340.803195 241.832462 
L 345.720961 237.048084 
L 350.638728 231.909546 
L 360.47426 221.175451 
L 370.309793 210.307821 
L 382.604209 196.870079 
L 383.833651 194.684956 
L 388.751417 189.406707 
L 392.439742 185.171608 
L 397.357508 179.288906 
L 405.9636 169.680012 
L 407.193041 169.788926 
L 408.422483 166.746783 
L 410.881366 164.152476 
L 417.028574 158.560415 
L 419.487457 156.013574 
L 425.634665 149.638997 
L 429.32299 145.8952 
L 431.781873 143.175072 
L 436.69964 137.12974 
L 437.929081 135.526537 
L 441.617406 131.622883 
L 442.846848 130.524445 
L 444.076289 130.322198 
L 445.305731 127.879364 
L 451.452939 122.002447 
L 453.911822 120.060605 
L 456.370705 118.285126 
L 458.829588 116.147571 
L 460.05903 114.890495 
L 462.517913 111.884825 
L 464.976796 108.6408 
L 471.124004 100.108867 
L 473.582888 96.191018 
L 473.582888 96.191018 
" style="fill:none;stroke:#ff796c;stroke-linecap:square;stroke-width:1.5;"/>
   </g>
   <g id="line2d_11">
    <path clip-path="url(#pea2fe49f47)" d="M 187.122995 299.020177 
L 198.187969 299.124563 
L 208.023502 299.416328 
L 219.088476 299.976339 
L 231.382892 300.835774 
L 243.677308 301.910013 
L 262.118932 303.702335 
L 284.248881 306.078985 
L 321.132129 310.369331 
L 333.426545 311.975914 
L 346.950403 313.97034 
L 360.47426 315.892878 
L 367.85091 316.697989 
L 375.22756 317.257302 
L 383.833651 317.686025 
L 393.669184 318.252154 
L 401.045833 319.043567 
L 414.569691 320.520452 
L 420.716899 320.823541 
L 441.617406 321.387382 
L 446.535172 321.195473 
L 450.223497 320.868338 
L 453.911822 320.331944 
L 457.600147 319.505801 
L 464.976796 317.687946 
L 472.353446 316.193279 
L 473.582888 315.997901 
L 473.582888 315.997901 
" style="fill:none;stroke:#ffff14;stroke-linecap:square;stroke-width:1.5;"/>
   </g>
   <g id="line2d_12">
    <path clip-path="url(#pea2fe49f47)" d="M 187.122995 299.020634 
L 265.807257 298.912652 
L 289.166648 298.652194 
L 306.37883 298.240383 
L 319.902688 297.708801 
L 332.197104 297.010163 
L 343.262078 296.16431 
L 353.097611 295.211695 
L 362.933144 294.050486 
L 372.768676 292.669925 
L 382.604209 291.070261 
L 393.669184 289.023743 
L 404.734158 286.741099 
L 417.028574 283.958142 
L 429.32299 280.931839 
L 440.387964 277.993077 
L 451.452939 274.825597 
L 461.288472 271.791784 
L 471.124004 268.530332 
L 473.582888 267.677586 
L 473.582888 267.677586 
" style="fill:none;stroke:#014d4e;stroke-linecap:square;stroke-width:1.5;"/>
   </g>
   <g id="patch_3">
    <path d="M 172.8 332.6472 
L 172.8 84.9312 
" style="fill:none;stroke:#000000;stroke-linecap:square;stroke-linejoin:miter;stroke-width:0.8;"/>
   </g>
   <g id="patch_4">
    <path d="M 487.905882 332.6472 
L 487.905882 84.9312 
" style="fill:none;stroke:#000000;stroke-linecap:square;stroke-linejoin:miter;stroke-width:0.8;"/>
   </g>
   <g id="patch_5">
    <path d="M 172.8 332.6472 
L 487.905882 332.6472 
" style="fill:none;stroke:#000000;stroke-linecap:square;stroke-linejoin:miter;stroke-width:0.8;"/>
   </g>
   <g id="patch_6">
    <path d="M 172.8 84.9312 
L 487.905882 84.9312 
" style="fill:none;stroke:#000000;stroke-linecap:square;stroke-linejoin:miter;stroke-width:0.8;"/>
   </g>
   <g id="text_10">
    <!-- Lateral joint 0 -->
    <defs>
     <path d="M 9.8125 72.90625 
L 19.671875 72.90625 
L 19.671875 8.296875 
L 55.171875 8.296875 
L 55.171875 0 
L 9.8125 0 
z
" id="DejaVuSans-76"/>
     <path d="M 34.28125 27.484375 
Q 23.390625 27.484375 19.1875 25 
Q 14.984375 22.515625 14.984375 16.5 
Q 14.984375 11.71875 18.140625 8.90625 
Q 21.296875 6.109375 26.703125 6.109375 
Q 34.1875 6.109375 38.703125 11.40625 
Q 43.21875 16.703125 43.21875 25.484375 
L 43.21875 27.484375 
z
M 52.203125 31.203125 
L 52.203125 0 
L 43.21875 0 
L 43.21875 8.296875 
Q 40.140625 3.328125 35.546875 0.953125 
Q 30.953125 -1.421875 24.3125 -1.421875 
Q 15.921875 -1.421875 10.953125 3.296875 
Q 6 8.015625 6 15.921875 
Q 6 25.140625 12.171875 29.828125 
Q 18.359375 34.515625 30.609375 34.515625 
L 43.21875 34.515625 
L 43.21875 35.40625 
Q 43.21875 41.609375 39.140625 45 
Q 35.0625 48.390625 27.6875 48.390625 
Q 23 48.390625 18.546875 47.265625 
Q 14.109375 46.140625 10.015625 43.890625 
L 10.015625 52.203125 
Q 14.9375 54.109375 19.578125 55.046875 
Q 24.21875 56 28.609375 56 
Q 40.484375 56 46.34375 49.84375 
Q 52.203125 43.703125 52.203125 31.203125 
z
" id="DejaVuSans-97"/>
     <path d="M 18.3125 70.21875 
L 18.3125 54.6875 
L 36.8125 54.6875 
L 36.8125 47.703125 
L 18.3125 47.703125 
L 18.3125 18.015625 
Q 18.3125 11.328125 20.140625 9.421875 
Q 21.96875 7.515625 27.59375 7.515625 
L 36.8125 7.515625 
L 36.8125 0 
L 27.59375 0 
Q 17.1875 0 13.234375 3.875 
Q 9.28125 7.765625 9.28125 18.015625 
L 9.28125 47.703125 
L 2.6875 47.703125 
L 2.6875 54.6875 
L 9.28125 54.6875 
L 9.28125 70.21875 
z
" id="DejaVuSans-116"/>
     <path d="M 56.203125 29.59375 
L 56.203125 25.203125 
L 14.890625 25.203125 
Q 15.484375 15.921875 20.484375 11.0625 
Q 25.484375 6.203125 34.421875 6.203125 
Q 39.59375 6.203125 44.453125 7.46875 
Q 49.3125 8.734375 54.109375 11.28125 
L 54.109375 2.78125 
Q 49.265625 0.734375 44.1875 -0.34375 
Q 39.109375 -1.421875 33.890625 -1.421875 
Q 20.796875 -1.421875 13.15625 6.1875 
Q 5.515625 13.8125 5.515625 26.8125 
Q 5.515625 40.234375 12.765625 48.109375 
Q 20.015625 56 32.328125 56 
Q 43.359375 56 49.78125 48.890625 
Q 56.203125 41.796875 56.203125 29.59375 
z
M 47.21875 32.234375 
Q 47.125 39.59375 43.09375 43.984375 
Q 39.0625 48.390625 32.421875 48.390625 
Q 24.90625 48.390625 20.390625 44.140625 
Q 15.875 39.890625 15.1875 32.171875 
z
" id="DejaVuSans-101"/>
     <path d="M 41.109375 46.296875 
Q 39.59375 47.171875 37.8125 47.578125 
Q 36.03125 48 33.890625 48 
Q 26.265625 48 22.1875 43.046875 
Q 18.109375 38.09375 18.109375 28.8125 
L 18.109375 0 
L 9.078125 0 
L 9.078125 54.6875 
L 18.109375 54.6875 
L 18.109375 46.1875 
Q 20.953125 51.171875 25.484375 53.578125 
Q 30.03125 56 36.53125 56 
Q 37.453125 56 38.578125 55.875 
Q 39.703125 55.765625 41.0625 55.515625 
z
" id="DejaVuSans-114"/>
     <path d="M 9.421875 75.984375 
L 18.40625 75.984375 
L 18.40625 0 
L 9.421875 0 
z
" id="DejaVuSans-108"/>
     <path id="DejaVuSans-32"/>
     <path d="M 9.421875 54.6875 
L 18.40625 54.6875 
L 18.40625 -0.984375 
Q 18.40625 -11.421875 14.421875 -16.109375 
Q 10.453125 -20.796875 1.609375 -20.796875 
L -1.8125 -20.796875 
L -1.8125 -13.1875 
L 0.59375 -13.1875 
Q 5.71875 -13.1875 7.5625 -10.8125 
Q 9.421875 -8.453125 9.421875 -0.984375 
z
M 9.421875 75.984375 
L 18.40625 75.984375 
L 18.40625 64.59375 
L 9.421875 64.59375 
z
" id="DejaVuSans-106"/>
     <path d="M 30.609375 48.390625 
Q 23.390625 48.390625 19.1875 42.75 
Q 14.984375 37.109375 14.984375 27.296875 
Q 14.984375 17.484375 19.15625 11.84375 
Q 23.34375 6.203125 30.609375 6.203125 
Q 37.796875 6.203125 41.984375 11.859375 
Q 46.1875 17.53125 46.1875 27.296875 
Q 46.1875 37.015625 41.984375 42.703125 
Q 37.796875 48.390625 30.609375 48.390625 
z
M 30.609375 56 
Q 42.328125 56 49.015625 48.375 
Q 55.71875 40.765625 55.71875 27.296875 
Q 55.71875 13.875 49.015625 6.21875 
Q 42.328125 -1.421875 30.609375 -1.421875 
Q 18.84375 -1.421875 12.171875 6.21875 
Q 5.515625 13.875 5.515625 27.296875 
Q 5.515625 40.765625 12.171875 48.375 
Q 18.84375 56 30.609375 56 
z
" id="DejaVuSans-111"/>
     <path d="M 9.421875 54.6875 
L 18.40625 54.6875 
L 18.40625 0 
L 9.421875 0 
z
M 9.421875 75.984375 
L 18.40625 75.984375 
L 18.40625 64.59375 
L 9.421875 64.59375 
z
" id="DejaVuSans-105"/>
     <path d="M 54.890625 33.015625 
L 54.890625 0 
L 45.90625 0 
L 45.90625 32.71875 
Q 45.90625 40.484375 42.875 44.328125 
Q 39.84375 48.1875 33.796875 48.1875 
Q 26.515625 48.1875 22.3125 43.546875 
Q 18.109375 38.921875 18.109375 30.90625 
L 18.109375 0 
L 9.078125 0 
L 9.078125 54.6875 
L 18.109375 54.6875 
L 18.109375 46.1875 
Q 21.34375 51.125 25.703125 53.5625 
Q 30.078125 56 35.796875 56 
Q 45.21875 56 50.046875 50.171875 
Q 54.890625 44.34375 54.890625 33.015625 
z
" id="DejaVuSans-110"/>
    </defs>
    <g transform="translate(288.687629 78.9312)scale(0.12 -0.12)">
     <use xlink:href="#DejaVuSans-76"/>
     <use x="55.712891" xlink:href="#DejaVuSans-97"/>
     <use x="116.992188" xlink:href="#DejaVuSans-116"/>
     <use x="156.201172" xlink:href="#DejaVuSans-101"/>
     <use x="217.724609" xlink:href="#DejaVuSans-114"/>
     <use x="258.837891" xlink:href="#DejaVuSans-97"/>
     <use x="320.117188" xlink:href="#DejaVuSans-108"/>
     <use x="347.900391" xlink:href="#DejaVuSans-32"/>
     <use x="379.6875" xlink:href="#DejaVuSans-106"/>
     <use x="407.470703" xlink:href="#DejaVuSans-111"/>
     <use x="468.652344" xlink:href="#DejaVuSans-105"/>
     <use x="496.435547" xlink:href="#DejaVuSans-110"/>
     <use x="559.814453" xlink:href="#DejaVuSans-116"/>
     <use x="599.023438" xlink:href="#DejaVuSans-32"/>
     <use x="630.810547" xlink:href="#DejaVuSans-48"/>
    </g>
   </g>
  </g>
  <g id="axes_2">
   <g id="patch_7">
    <path d="M 550.927059 332.6472 
L 866.032941 332.6472 
L 866.032941 84.9312 
L 550.927059 84.9312 
z
" style="fill:#ffffff;"/>
   </g>
   <g id="matplotlib.axis_3">
    <g id="xtick_6">
     <g id="line2d_13">
      <g>
       <use style="stroke:#000000;stroke-width:0.8;" x="565.250053" xlink:href="#m251a75ebb1" y="332.6472"/>
      </g>
     </g>
     <g id="text_11">
      <!-- 0 -->
      <g transform="translate(562.068803 347.245637)scale(0.1 -0.1)">
       <use xlink:href="#DejaVuSans-48"/>
      </g>
     </g>
    </g>
    <g id="xtick_7">
     <g id="line2d_14">
      <g>
       <use style="stroke:#000000;stroke-width:0.8;" x="626.722134" xlink:href="#m251a75ebb1" y="332.6472"/>
      </g>
     </g>
     <g id="text_12">
      <!-- 50 -->
      <g transform="translate(620.359634 347.245637)scale(0.1 -0.1)">
       <use xlink:href="#DejaVuSans-53"/>
       <use x="63.623047" xlink:href="#DejaVuSans-48"/>
      </g>
     </g>
    </g>
    <g id="xtick_8">
     <g id="line2d_15">
      <g>
       <use style="stroke:#000000;stroke-width:0.8;" x="688.194214" xlink:href="#m251a75ebb1" y="332.6472"/>
      </g>
     </g>
     <g id="text_13">
      <!-- 100 -->
      <g transform="translate(678.650464 347.245637)scale(0.1 -0.1)">
       <use xlink:href="#DejaVuSans-49"/>
       <use x="63.623047" xlink:href="#DejaVuSans-48"/>
       <use x="127.246094" xlink:href="#DejaVuSans-48"/>
      </g>
     </g>
    </g>
    <g id="xtick_9">
     <g id="line2d_16">
      <g>
       <use style="stroke:#000000;stroke-width:0.8;" x="749.666294" xlink:href="#m251a75ebb1" y="332.6472"/>
      </g>
     </g>
     <g id="text_14">
      <!-- 150 -->
      <g transform="translate(740.122544 347.245637)scale(0.1 -0.1)">
       <use xlink:href="#DejaVuSans-49"/>
       <use x="63.623047" xlink:href="#DejaVuSans-53"/>
       <use x="127.246094" xlink:href="#DejaVuSans-48"/>
      </g>
     </g>
    </g>
    <g id="xtick_10">
     <g id="line2d_17">
      <g>
       <use style="stroke:#000000;stroke-width:0.8;" x="811.138374" xlink:href="#m251a75ebb1" y="332.6472"/>
      </g>
     </g>
     <g id="text_15">
      <!-- 200 -->
      <g transform="translate(801.594624 347.245637)scale(0.1 -0.1)">
       <use xlink:href="#DejaVuSans-50"/>
       <use x="63.623047" xlink:href="#DejaVuSans-48"/>
       <use x="127.246094" xlink:href="#DejaVuSans-48"/>
      </g>
     </g>
    </g>
   </g>
   <g id="matplotlib.axis_4">
    <g id="ytick_5">
     <g id="line2d_18">
      <g>
       <use style="stroke:#000000;stroke-width:0.8;" x="550.927059" xlink:href="#md0523470c6" y="319.80242"/>
      </g>
     </g>
     <g id="text_16">
      <!-- −1.50 -->
      <defs>
       <path d="M 10.59375 35.5 
L 73.1875 35.5 
L 73.1875 27.203125 
L 10.59375 27.203125 
z
" id="DejaVuSans-8722"/>
       <path d="M 10.6875 12.40625 
L 21 12.40625 
L 21 0 
L 10.6875 0 
z
" id="DejaVuSans-46"/>
      </defs>
      <g transform="translate(513.281746 323.601639)scale(0.1 -0.1)">
       <use xlink:href="#DejaVuSans-8722"/>
       <use x="83.789062" xlink:href="#DejaVuSans-49"/>
       <use x="147.412109" xlink:href="#DejaVuSans-46"/>
       <use x="179.199219" xlink:href="#DejaVuSans-53"/>
       <use x="242.822266" xlink:href="#DejaVuSans-48"/>
      </g>
     </g>
    </g>
    <g id="ytick_6">
     <g id="line2d_19">
      <g>
       <use style="stroke:#000000;stroke-width:0.8;" x="550.927059" xlink:href="#md0523470c6" y="289.81925"/>
      </g>
     </g>
     <g id="text_17">
      <!-- −1.25 -->
      <g transform="translate(513.281746 293.618468)scale(0.1 -0.1)">
       <use xlink:href="#DejaVuSans-8722"/>
       <use x="83.789062" xlink:href="#DejaVuSans-49"/>
       <use x="147.412109" xlink:href="#DejaVuSans-46"/>
       <use x="179.199219" xlink:href="#DejaVuSans-50"/>
       <use x="242.822266" xlink:href="#DejaVuSans-53"/>
      </g>
     </g>
    </g>
    <g id="ytick_7">
     <g id="line2d_20">
      <g>
       <use style="stroke:#000000;stroke-width:0.8;" x="550.927059" xlink:href="#md0523470c6" y="259.836079"/>
      </g>
     </g>
     <g id="text_18">
      <!-- −1.00 -->
      <g transform="translate(513.281746 263.635298)scale(0.1 -0.1)">
       <use xlink:href="#DejaVuSans-8722"/>
       <use x="83.789062" xlink:href="#DejaVuSans-49"/>
       <use x="147.412109" xlink:href="#DejaVuSans-46"/>
       <use x="179.199219" xlink:href="#DejaVuSans-48"/>
       <use x="242.822266" xlink:href="#DejaVuSans-48"/>
      </g>
     </g>
    </g>
    <g id="ytick_8">
     <g id="line2d_21">
      <g>
       <use style="stroke:#000000;stroke-width:0.8;" x="550.927059" xlink:href="#md0523470c6" y="229.852909"/>
      </g>
     </g>
     <g id="text_19">
      <!-- −0.75 -->
      <defs>
       <path d="M 8.203125 72.90625 
L 55.078125 72.90625 
L 55.078125 68.703125 
L 28.609375 0 
L 18.3125 0 
L 43.21875 64.59375 
L 8.203125 64.59375 
z
" id="DejaVuSans-55"/>
      </defs>
      <g transform="translate(513.281746 233.652128)scale(0.1 -0.1)">
       <use xlink:href="#DejaVuSans-8722"/>
       <use x="83.789062" xlink:href="#DejaVuSans-48"/>
       <use x="147.412109" xlink:href="#DejaVuSans-46"/>
       <use x="179.199219" xlink:href="#DejaVuSans-55"/>
       <use x="242.822266" xlink:href="#DejaVuSans-53"/>
      </g>
     </g>
    </g>
    <g id="ytick_9">
     <g id="line2d_22">
      <g>
       <use style="stroke:#000000;stroke-width:0.8;" x="550.927059" xlink:href="#md0523470c6" y="199.869739"/>
      </g>
     </g>
     <g id="text_20">
      <!-- −0.50 -->
      <g transform="translate(513.281746 203.668958)scale(0.1 -0.1)">
       <use xlink:href="#DejaVuSans-8722"/>
       <use x="83.789062" xlink:href="#DejaVuSans-48"/>
       <use x="147.412109" xlink:href="#DejaVuSans-46"/>
       <use x="179.199219" xlink:href="#DejaVuSans-53"/>
       <use x="242.822266" xlink:href="#DejaVuSans-48"/>
      </g>
     </g>
    </g>
    <g id="ytick_10">
     <g id="line2d_23">
      <g>
       <use style="stroke:#000000;stroke-width:0.8;" x="550.927059" xlink:href="#md0523470c6" y="169.886569"/>
      </g>
     </g>
     <g id="text_21">
      <!-- −0.25 -->
      <g transform="translate(513.281746 173.685787)scale(0.1 -0.1)">
       <use xlink:href="#DejaVuSans-8722"/>
       <use x="83.789062" xlink:href="#DejaVuSans-48"/>
       <use x="147.412109" xlink:href="#DejaVuSans-46"/>
       <use x="179.199219" xlink:href="#DejaVuSans-50"/>
       <use x="242.822266" xlink:href="#DejaVuSans-53"/>
      </g>
     </g>
    </g>
    <g id="ytick_11">
     <g id="line2d_24">
      <g>
       <use style="stroke:#000000;stroke-width:0.8;" x="550.927059" xlink:href="#md0523470c6" y="139.903398"/>
      </g>
     </g>
     <g id="text_22">
      <!-- 0.00 -->
      <g transform="translate(521.661434 143.702617)scale(0.1 -0.1)">
       <use xlink:href="#DejaVuSans-48"/>
       <use x="63.623047" xlink:href="#DejaVuSans-46"/>
       <use x="95.410156" xlink:href="#DejaVuSans-48"/>
       <use x="159.033203" xlink:href="#DejaVuSans-48"/>
      </g>
     </g>
    </g>
    <g id="ytick_12">
     <g id="line2d_25">
      <g>
       <use style="stroke:#000000;stroke-width:0.8;" x="550.927059" xlink:href="#md0523470c6" y="109.920228"/>
      </g>
     </g>
     <g id="text_23">
      <!-- 0.25 -->
      <g transform="translate(521.661434 113.719447)scale(0.1 -0.1)">
       <use xlink:href="#DejaVuSans-48"/>
       <use x="63.623047" xlink:href="#DejaVuSans-46"/>
       <use x="95.410156" xlink:href="#DejaVuSans-50"/>
       <use x="159.033203" xlink:href="#DejaVuSans-53"/>
      </g>
     </g>
    </g>
   </g>
   <g id="line2d_26">
    <path clip-path="url(#pa136098f1b)" d="M 565.250053 139.903213 
L 568.938378 139.828922 
L 573.856145 139.471148 
L 577.544469 139.62582 
L 580.003353 139.699389 
L 584.921119 139.673219 
L 587.380002 139.925084 
L 591.068327 140.356875 
L 595.986094 140.72557 
L 599.674418 141.413301 
L 603.362743 142.050876 
L 607.051068 142.677669 
L 609.509951 143.381936 
L 618.116042 146.261792 
L 620.574926 147.465117 
L 629.181017 152.143819 
L 632.869342 154.705413 
L 640.245991 160.01557 
L 643.934316 163.239189 
L 651.310966 169.979859 
L 654.99929 173.985041 
L 661.146498 180.939618 
L 663.605382 184.060343 
L 669.75259 192.451702 
L 673.440914 197.864368 
L 677.129239 203.864787 
L 683.276447 214.323491 
L 686.964772 221.183318 
L 695.570863 238.08079 
L 707.865279 263.710233 
L 715.241929 279.049729 
L 722.618578 293.580549 
L 725.077462 298.036793 
L 728.765786 304.191934 
L 732.454111 309.781379 
L 734.912994 313.064892 
L 737.371878 315.847691 
L 739.830761 318.047743 
L 742.289644 319.708428 
L 743.519086 320.3357 
L 744.748527 320.831717 
L 745.977969 321.185622 
L 747.20741 321.374544 
L 748.436852 321.387382 
L 749.666294 321.224455 
L 750.895735 320.878877 
L 752.125177 320.34687 
L 753.354618 319.645911 
L 754.58406 318.798424 
L 757.042943 316.690629 
L 759.501826 314.115254 
L 760.731268 312.668219 
L 761.96071 308.298229 
L 763.190151 306.435746 
L 765.649034 302.032347 
L 768.107918 297.565796 
L 773.025684 287.90269 
L 775.484567 283.867202 
L 776.714009 282.233771 
L 780.402334 278.084459 
L 784.090658 274.567847 
L 785.3201 278.048907 
L 786.549542 271.791756 
L 787.778983 271.044774 
L 789.008425 270.895008 
L 791.467308 269.371159 
L 792.69675 269.155634 
L 793.926191 268.611528 
L 795.155633 267.248454 
L 796.385074 266.083113 
L 797.614516 265.319281 
L 798.843958 263.940928 
L 800.073399 262.21285 
L 801.302841 261.225453 
L 802.532282 260.4007 
L 803.761724 258.879009 
L 804.991166 257.563207 
L 806.220607 256.869311 
L 807.450049 255.598338 
L 808.67949 253.772916 
L 811.138374 251.478839 
L 812.367815 249.675966 
L 813.597257 248.236713 
L 814.826698 247.658207 
L 816.05614 246.455297 
L 817.285582 245.684746 
L 818.515023 245.99758 
L 819.744465 246.435141 
L 820.973906 246.179066 
L 822.203348 249.462459 
L 823.43279 246.140653 
L 824.662231 245.92556 
L 825.891673 245.54115 
L 827.121115 245.305462 
L 828.350556 244.914427 
L 829.579998 243.844961 
L 832.038881 242.949356 
L 833.268323 242.003374 
L 834.497764 240.751549 
L 835.727206 239.25871 
L 836.956647 237.072498 
L 839.415531 231.191188 
L 840.644972 227.840423 
L 846.79218 208.528108 
L 849.251063 200.045605 
L 851.709947 190.064706 
L 851.709947 190.064706 
" style="fill:none;stroke:#ff796c;stroke-linecap:square;stroke-width:1.5;"/>
   </g>
   <g id="line2d_27">
    <path clip-path="url(#pa136098f1b)" d="M 565.250053 176.475814 
L 572.626703 176.402464 
L 582.462236 176.011125 
L 591.068327 175.398566 
L 600.90386 174.505036 
L 608.28051 173.674974 
L 615.657159 172.618948 
L 621.804367 171.46817 
L 627.951575 170.107449 
L 635.328225 168.170918 
L 640.245991 166.677549 
L 646.393199 164.579263 
L 651.310966 162.682653 
L 657.458174 160.066622 
L 662.37594 157.739136 
L 667.293706 155.207585 
L 672.211473 152.432474 
L 677.129239 149.385023 
L 682.047006 146.058493 
L 686.964772 142.420417 
L 691.882538 138.530896 
L 696.800305 134.387017 
L 702.947513 128.96106 
L 711.553604 120.975741 
L 722.618578 110.741908 
L 727.536345 106.575861 
L 731.22467 103.731687 
L 734.912994 101.226123 
L 737.371878 99.790078 
L 739.830761 98.577141 
L 742.289644 97.595401 
L 744.748527 96.870051 
L 747.20741 96.402469 
L 749.666294 96.198985 
L 752.125177 96.250015 
L 754.58406 96.553068 
L 757.042943 97.104626 
L 759.501826 97.894196 
L 760.731268 98.373177 
L 765.649034 101.335826 
L 771.796242 105.581991 
L 776.714009 108.511646 
L 781.631775 110.79331 
L 784.090658 111.697263 
L 785.3201 111.891899 
L 786.549542 112.522706 
L 789.008425 112.984671 
L 791.467308 114.092569 
L 793.926191 114.564162 
L 795.155633 115.205836 
L 796.385074 115.630542 
L 797.614516 115.741604 
L 798.843958 116.155002 
L 800.073399 116.754652 
L 802.532282 117.08079 
L 803.761724 117.633348 
L 804.991166 118.053573 
L 806.220607 118.073945 
L 807.450049 118.36801 
L 808.67949 118.885308 
L 809.908932 118.931997 
L 811.138374 118.867095 
L 812.367815 119.200207 
L 813.597257 119.290576 
L 814.826698 118.934298 
L 816.05614 118.871566 
L 817.285582 118.94529 
L 819.744465 118.070371 
L 820.973906 118.072228 
L 822.203348 117.495988 
L 823.43279 117.090609 
L 825.891673 116.564563 
L 828.350556 115.8334 
L 830.809439 115.380123 
L 832.038881 115.122568 
L 836.956647 115.021995 
L 838.186089 115.191749 
L 840.644972 115.290248 
L 843.103855 115.760636 
L 844.333297 115.892072 
L 849.251063 117.392499 
L 851.709947 118.537677 
L 851.709947 118.537677 
" style="fill:none;stroke:#ffff14;stroke-linecap:square;stroke-width:1.5;"/>
   </g>
   <g id="line2d_28">
    <path clip-path="url(#pa136098f1b)" d="M 565.250053 176.47384 
L 635.328225 176.365066 
L 653.769849 176.09786 
L 667.293706 175.688291 
L 678.358681 175.143081 
L 688.194214 174.443079 
L 696.800305 173.621953 
L 705.406396 172.567273 
L 712.783046 171.448628 
L 720.159695 170.107078 
L 727.536345 168.520484 
L 734.912994 166.66908 
L 741.060202 164.912341 
L 747.20741 162.954245 
L 753.354618 160.791866 
L 759.501826 158.426242 
L 766.878476 155.32602 
L 774.255126 151.953884 
L 781.631775 148.328753 
L 789.008425 144.469484 
L 796.385074 140.389371 
L 804.991166 135.356665 
L 812.367815 130.805322 
L 819.744465 126.022737 
L 827.121115 120.98933 
L 834.497764 115.678991 
L 841.874414 110.062862 
L 848.021622 105.130932 
L 851.709947 102.056411 
L 851.709947 102.056411 
" style="fill:none;stroke:#014d4e;stroke-linecap:square;stroke-width:1.5;"/>
   </g>
   <g id="patch_8">
    <path d="M 550.927059 332.6472 
L 550.927059 84.9312 
" style="fill:none;stroke:#000000;stroke-linecap:square;stroke-linejoin:miter;stroke-width:0.8;"/>
   </g>
   <g id="patch_9">
    <path d="M 866.032941 332.6472 
L 866.032941 84.9312 
" style="fill:none;stroke:#000000;stroke-linecap:square;stroke-linejoin:miter;stroke-width:0.8;"/>
   </g>
   <g id="patch_10">
    <path d="M 550.927059 332.6472 
L 866.032941 332.6472 
" style="fill:none;stroke:#000000;stroke-linecap:square;stroke-linejoin:miter;stroke-width:0.8;"/>
   </g>
   <g id="patch_11">
    <path d="M 550.927059 84.9312 
L 866.032941 84.9312 
" style="fill:none;stroke:#000000;stroke-linecap:square;stroke-linejoin:miter;stroke-width:0.8;"/>
   </g>
   <g id="text_24">
    <!-- Lateral joint 1 -->
    <g transform="translate(666.814687 78.9312)scale(0.12 -0.12)">
     <use xlink:href="#DejaVuSans-76"/>
     <use x="55.712891" xlink:href="#DejaVuSans-97"/>
     <use x="116.992188" xlink:href="#DejaVuSans-116"/>
     <use x="156.201172" xlink:href="#DejaVuSans-101"/>
     <use x="217.724609" xlink:href="#DejaVuSans-114"/>
     <use x="258.837891" xlink:href="#DejaVuSans-97"/>
     <use x="320.117188" xlink:href="#DejaVuSans-108"/>
     <use x="347.900391" xlink:href="#DejaVuSans-32"/>
     <use x="379.6875" xlink:href="#DejaVuSans-106"/>
     <use x="407.470703" xlink:href="#DejaVuSans-111"/>
     <use x="468.652344" xlink:href="#DejaVuSans-105"/>
     <use x="496.435547" xlink:href="#DejaVuSans-110"/>
     <use x="559.814453" xlink:href="#DejaVuSans-116"/>
     <use x="599.023438" xlink:href="#DejaVuSans-32"/>
     <use x="630.810547" xlink:href="#DejaVuSans-49"/>
    </g>
   </g>
  </g>
  <g id="axes_3">
   <g id="patch_12">
    <path d="M 929.054118 332.6472 
L 1244.16 332.6472 
L 1244.16 84.9312 
L 929.054118 84.9312 
z
" style="fill:#ffffff;"/>
   </g>
   <g id="matplotlib.axis_5">
    <g id="xtick_11">
     <g id="line2d_29">
      <g>
       <use style="stroke:#000000;stroke-width:0.8;" x="943.377112" xlink:href="#m251a75ebb1" y="332.6472"/>
      </g>
     </g>
     <g id="text_25">
      <!-- 0 -->
      <g transform="translate(940.195862 347.245637)scale(0.1 -0.1)">
       <use xlink:href="#DejaVuSans-48"/>
      </g>
     </g>
    </g>
    <g id="xtick_12">
     <g id="line2d_30">
      <g>
       <use style="stroke:#000000;stroke-width:0.8;" x="1004.849192" xlink:href="#m251a75ebb1" y="332.6472"/>
      </g>
     </g>
     <g id="text_26">
      <!-- 50 -->
      <g transform="translate(998.486692 347.245637)scale(0.1 -0.1)">
       <use xlink:href="#DejaVuSans-53"/>
       <use x="63.623047" xlink:href="#DejaVuSans-48"/>
      </g>
     </g>
    </g>
    <g id="xtick_13">
     <g id="line2d_31">
      <g>
       <use style="stroke:#000000;stroke-width:0.8;" x="1066.321272" xlink:href="#m251a75ebb1" y="332.6472"/>
      </g>
     </g>
     <g id="text_27">
      <!-- 100 -->
      <g transform="translate(1056.777522 347.245637)scale(0.1 -0.1)">
       <use xlink:href="#DejaVuSans-49"/>
       <use x="63.623047" xlink:href="#DejaVuSans-48"/>
       <use x="127.246094" xlink:href="#DejaVuSans-48"/>
      </g>
     </g>
    </g>
    <g id="xtick_14">
     <g id="line2d_32">
      <g>
       <use style="stroke:#000000;stroke-width:0.8;" x="1127.793352" xlink:href="#m251a75ebb1" y="332.6472"/>
      </g>
     </g>
     <g id="text_28">
      <!-- 150 -->
      <g transform="translate(1118.249602 347.245637)scale(0.1 -0.1)">
       <use xlink:href="#DejaVuSans-49"/>
       <use x="63.623047" xlink:href="#DejaVuSans-53"/>
       <use x="127.246094" xlink:href="#DejaVuSans-48"/>
      </g>
     </g>
    </g>
    <g id="xtick_15">
     <g id="line2d_33">
      <g>
       <use style="stroke:#000000;stroke-width:0.8;" x="1189.265433" xlink:href="#m251a75ebb1" y="332.6472"/>
      </g>
     </g>
     <g id="text_29">
      <!-- 200 -->
      <g transform="translate(1179.721683 347.245637)scale(0.1 -0.1)">
       <use xlink:href="#DejaVuSans-50"/>
       <use x="63.623047" xlink:href="#DejaVuSans-48"/>
       <use x="127.246094" xlink:href="#DejaVuSans-48"/>
      </g>
     </g>
    </g>
   </g>
   <g id="matplotlib.axis_6">
    <g id="ytick_13">
     <g id="line2d_34">
      <g>
       <use style="stroke:#000000;stroke-width:0.8;" x="929.054118" xlink:href="#md0523470c6" y="317.421375"/>
      </g>
     </g>
     <g id="text_30">
      <!-- −14 -->
      <g transform="translate(900.94943 321.220594)scale(0.1 -0.1)">
       <use xlink:href="#DejaVuSans-8722"/>
       <use x="83.789062" xlink:href="#DejaVuSans-49"/>
       <use x="147.412109" xlink:href="#DejaVuSans-52"/>
      </g>
     </g>
    </g>
    <g id="ytick_14">
     <g id="line2d_35">
      <g>
       <use style="stroke:#000000;stroke-width:0.8;" x="929.054118" xlink:href="#md0523470c6" y="285.826413"/>
      </g>
     </g>
     <g id="text_31">
      <!-- −12 -->
      <g transform="translate(900.94943 289.625632)scale(0.1 -0.1)">
       <use xlink:href="#DejaVuSans-8722"/>
       <use x="83.789062" xlink:href="#DejaVuSans-49"/>
       <use x="147.412109" xlink:href="#DejaVuSans-50"/>
      </g>
     </g>
    </g>
    <g id="ytick_15">
     <g id="line2d_36">
      <g>
       <use style="stroke:#000000;stroke-width:0.8;" x="929.054118" xlink:href="#md0523470c6" y="254.231452"/>
      </g>
     </g>
     <g id="text_32">
      <!-- −10 -->
      <g transform="translate(900.94943 258.03067)scale(0.1 -0.1)">
       <use xlink:href="#DejaVuSans-8722"/>
       <use x="83.789062" xlink:href="#DejaVuSans-49"/>
       <use x="147.412109" xlink:href="#DejaVuSans-48"/>
      </g>
     </g>
    </g>
    <g id="ytick_16">
     <g id="line2d_37">
      <g>
       <use style="stroke:#000000;stroke-width:0.8;" x="929.054118" xlink:href="#md0523470c6" y="222.63649"/>
      </g>
     </g>
     <g id="text_33">
      <!-- −8 -->
      <defs>
       <path d="M 31.78125 34.625 
Q 24.75 34.625 20.71875 30.859375 
Q 16.703125 27.09375 16.703125 20.515625 
Q 16.703125 13.921875 20.71875 10.15625 
Q 24.75 6.390625 31.78125 6.390625 
Q 38.8125 6.390625 42.859375 10.171875 
Q 46.921875 13.96875 46.921875 20.515625 
Q 46.921875 27.09375 42.890625 30.859375 
Q 38.875 34.625 31.78125 34.625 
z
M 21.921875 38.8125 
Q 15.578125 40.375 12.03125 44.71875 
Q 8.5 49.078125 8.5 55.328125 
Q 8.5 64.0625 14.71875 69.140625 
Q 20.953125 74.21875 31.78125 74.21875 
Q 42.671875 74.21875 48.875 69.140625 
Q 55.078125 64.0625 55.078125 55.328125 
Q 55.078125 49.078125 51.53125 44.71875 
Q 48 40.375 41.703125 38.8125 
Q 48.828125 37.15625 52.796875 32.3125 
Q 56.78125 27.484375 56.78125 20.515625 
Q 56.78125 9.90625 50.3125 4.234375 
Q 43.84375 -1.421875 31.78125 -1.421875 
Q 19.734375 -1.421875 13.25 4.234375 
Q 6.78125 9.90625 6.78125 20.515625 
Q 6.78125 27.484375 10.78125 32.3125 
Q 14.796875 37.15625 21.921875 38.8125 
z
M 18.3125 54.390625 
Q 18.3125 48.734375 21.84375 45.5625 
Q 25.390625 42.390625 31.78125 42.390625 
Q 38.140625 42.390625 41.71875 45.5625 
Q 45.3125 48.734375 45.3125 54.390625 
Q 45.3125 60.0625 41.71875 63.234375 
Q 38.140625 66.40625 31.78125 66.40625 
Q 25.390625 66.40625 21.84375 63.234375 
Q 18.3125 60.0625 18.3125 54.390625 
z
" id="DejaVuSans-56"/>
      </defs>
      <g transform="translate(907.31193 226.435709)scale(0.1 -0.1)">
       <use xlink:href="#DejaVuSans-8722"/>
       <use x="83.789062" xlink:href="#DejaVuSans-56"/>
      </g>
     </g>
    </g>
    <g id="ytick_17">
     <g id="line2d_38">
      <g>
       <use style="stroke:#000000;stroke-width:0.8;" x="929.054118" xlink:href="#md0523470c6" y="191.041528"/>
      </g>
     </g>
     <g id="text_34">
      <!-- −6 -->
      <g transform="translate(907.31193 194.840747)scale(0.1 -0.1)">
       <use xlink:href="#DejaVuSans-8722"/>
       <use x="83.789062" xlink:href="#DejaVuSans-54"/>
      </g>
     </g>
    </g>
    <g id="ytick_18">
     <g id="line2d_39">
      <g>
       <use style="stroke:#000000;stroke-width:0.8;" x="929.054118" xlink:href="#md0523470c6" y="159.446567"/>
      </g>
     </g>
     <g id="text_35">
      <!-- −4 -->
      <g transform="translate(907.31193 163.245785)scale(0.1 -0.1)">
       <use xlink:href="#DejaVuSans-8722"/>
       <use x="83.789062" xlink:href="#DejaVuSans-52"/>
      </g>
     </g>
    </g>
    <g id="ytick_19">
     <g id="line2d_40">
      <g>
       <use style="stroke:#000000;stroke-width:0.8;" x="929.054118" xlink:href="#md0523470c6" y="127.851605"/>
      </g>
     </g>
     <g id="text_36">
      <!-- −2 -->
      <g transform="translate(907.31193 131.650824)scale(0.1 -0.1)">
       <use xlink:href="#DejaVuSans-8722"/>
       <use x="83.789062" xlink:href="#DejaVuSans-50"/>
      </g>
     </g>
    </g>
    <g id="ytick_20">
     <g id="line2d_41">
      <g>
       <use style="stroke:#000000;stroke-width:0.8;" x="929.054118" xlink:href="#md0523470c6" y="96.256643"/>
      </g>
     </g>
     <g id="text_37">
      <!-- 0 -->
      <g transform="translate(915.691618 100.055862)scale(0.1 -0.1)">
       <use xlink:href="#DejaVuSans-48"/>
      </g>
     </g>
    </g>
   </g>
   <g id="line2d_42">
    <path clip-path="url(#p84018bd364)" d="M 943.377112 96.191018 
L 944.606554 96.509959 
L 945.835996 96.610294 
L 947.065437 96.391414 
L 948.294879 96.527978 
L 949.52432 96.823341 
L 951.983204 96.403883 
L 953.212645 96.653381 
L 954.442087 96.787558 
L 955.671528 96.560575 
L 956.90097 96.659752 
L 958.130412 97.0446 
L 959.359853 96.983111 
L 960.589295 96.757834 
L 963.048178 97.105066 
L 964.27762 96.819297 
L 965.507061 96.777063 
L 966.736503 97.151901 
L 967.965944 97.209855 
L 969.195386 97.03993 
L 971.654269 97.634341 
L 974.113152 97.413368 
L 975.342594 97.828785 
L 976.572036 98.018299 
L 977.801477 97.909925 
L 979.030919 98.256278 
L 980.26036 98.814931 
L 982.719244 98.878546 
L 983.948685 99.393653 
L 985.178127 99.731548 
L 986.407568 99.596327 
L 987.63701 99.849692 
L 988.866452 100.511418 
L 990.095893 100.659369 
L 991.325335 100.657922 
L 992.554776 101.238681 
L 993.784218 101.688034 
L 995.01366 101.582447 
L 996.243101 101.756694 
L 997.472543 102.378115 
L 998.701984 102.585366 
L 999.931426 102.575169 
L 1002.390309 103.767435 
L 1003.619751 103.802061 
L 1004.849192 103.990906 
L 1006.078634 104.674498 
L 1007.308076 104.981616 
L 1008.537517 104.940518 
L 1009.766959 105.460679 
L 1010.9964 106.188276 
L 1013.455284 106.564282 
L 1014.684725 107.344961 
L 1015.914167 107.817356 
L 1017.143608 107.804528 
L 1018.37305 108.26788 
L 1019.602492 109.047304 
L 1022.061375 109.49193 
L 1023.290816 110.350649 
L 1024.520258 111.034533 
L 1025.7497 111.161727 
L 1026.979141 111.67502 
L 1028.208583 112.578609 
L 1029.438024 112.939046 
L 1030.667466 113.156158 
L 1033.126349 114.938481 
L 1034.355791 115.246367 
L 1035.585232 115.875555 
L 1036.814674 116.997854 
L 1038.044116 117.609199 
L 1039.273557 117.921319 
L 1041.73244 119.9305 
L 1042.961882 120.38489 
L 1044.191324 121.086775 
L 1045.420765 122.406012 
L 1046.650207 123.318353 
L 1047.879648 123.809536 
L 1049.10909 124.884077 
L 1050.338532 126.155595 
L 1052.797415 127.502771 
L 1054.026856 128.929416 
L 1055.256298 130.094697 
L 1056.48574 130.770758 
L 1057.715181 131.98131 
L 1058.944623 133.521884 
L 1061.403506 135.211803 
L 1063.862389 138.070171 
L 1065.091831 138.858415 
L 1066.321272 140.108675 
L 1067.550714 141.900557 
L 1068.780156 143.150275 
L 1070.009597 144.138243 
L 1072.46848 147.550203 
L 1073.697922 148.607416 
L 1074.927364 149.927266 
L 1076.156805 151.957564 
L 1077.386247 153.634552 
L 1078.615688 154.88805 
L 1079.84513 156.833351 
L 1081.074572 159.093776 
L 1083.533455 162.233692 
L 1085.992338 166.703329 
L 1087.22178 168.357162 
L 1088.451221 170.308324 
L 1089.680663 172.917645 
L 1090.910104 175.196545 
L 1092.139546 177.011058 
L 1093.368988 179.473667 
L 1094.598429 182.252429 
L 1097.057312 186.537889 
L 1099.516196 191.917615 
L 1100.745637 194.209324 
L 1101.975079 196.831998 
L 1103.20452 199.831116 
L 1104.433962 202.487093 
L 1105.663404 204.840021 
L 1109.351728 213.118664 
L 1110.58117 215.499429 
L 1113.040053 221.392311 
L 1115.498936 226.194679 
L 1116.728378 229.153608 
L 1117.95782 231.779244 
L 1119.187261 233.880837 
L 1120.416703 236.290116 
L 1121.646144 239.055165 
L 1122.875586 241.343444 
L 1124.105028 243.268086 
L 1127.793352 250.209296 
L 1129.022794 251.91376 
L 1131.481677 256.298816 
L 1133.94056 259.158822 
L 1135.170002 261.098004 
L 1136.399444 262.817638 
L 1137.628885 263.953615 
L 1138.858327 265.340384 
L 1140.087768 275.574186 
L 1141.31721 268.827687 
L 1142.546652 265.965804 
L 1143.776093 274.994976 
L 1145.005535 280.749939 
L 1146.234976 275.271179 
L 1147.464418 274.95979 
L 1148.69386 284.871334 
L 1149.923301 287.409865 
L 1151.152743 280.303505 
L 1152.382184 281.731001 
L 1153.611626 290.940497 
L 1154.841068 289.799886 
L 1156.070509 282.299789 
L 1157.299951 286.159975 
L 1158.529392 294.120476 
L 1159.758834 289.419325 
L 1160.988276 282.579247 
L 1162.217717 288.22306 
L 1163.447159 274.661628 
L 1164.6766 310.820984 
L 1165.906042 292.776035 
L 1167.135484 258.196117 
L 1169.594367 311.475295 
L 1170.823808 277.011631 
L 1172.05325 258.230044 
L 1173.282692 298.542274 
L 1174.512133 304.698053 
L 1175.741575 260.896187 
L 1176.971017 268.763939 
L 1178.200458 309.607491 
L 1179.4299 285.06354 
L 1180.659341 251.952023 
L 1181.888783 289.599326 
L 1183.118225 307.473449 
L 1184.347666 261.607189 
L 1185.577108 265.090673 
L 1186.806549 311.855355 
L 1188.035991 288.003171 
L 1189.265433 254.434963 
L 1190.494874 297.866426 
L 1191.724316 312.240555 
L 1192.953757 262.828183 
L 1194.183199 275.732845 
L 1195.412641 321.387382 
L 1196.642082 285.165248 
L 1197.871524 261.288606 
L 1199.100965 313.740481 
L 1200.330407 299.700873 
L 1201.559849 284.135963 
L 1202.78929 294.790845 
L 1204.018732 307.166271 
L 1205.248173 291.915235 
L 1206.477615 290.198965 
L 1207.707057 309.32758 
L 1208.936498 301.448205 
L 1210.16594 288.273415 
L 1211.395381 305.498313 
L 1212.624823 311.409152 
L 1213.854265 293.051802 
L 1215.083706 299.153825 
L 1216.313148 315.936658 
L 1217.542589 301.83184 
L 1218.772031 292.603302 
L 1220.001473 310.993918 
L 1221.230914 309.896368 
L 1222.460356 290.670294 
L 1223.689797 299.663901 
L 1224.919239 313.46884 
L 1226.148681 297.267517 
L 1227.378122 290.084227 
L 1228.607564 308.906251 
L 1229.837005 307.946339 
L 1229.837005 307.946339 
" style="fill:none;stroke:#ff796c;stroke-linecap:square;stroke-width:1.5;"/>
   </g>
   <g id="line2d_43">
    <path clip-path="url(#p84018bd364)" d="M 943.377112 104.122606 
L 1119.187261 104.0065 
L 1137.628885 103.67703 
L 1163.447159 102.992901 
L 1165.906042 102.874382 
L 1168.364925 102.782034 
L 1174.512133 102.499355 
L 1176.971017 102.425279 
L 1179.4299 102.301481 
L 1181.888783 102.193785 
L 1186.806549 101.992802 
L 1194.183199 101.802676 
L 1196.642082 101.708394 
L 1201.559849 101.506796 
L 1229.837005 100.168169 
L 1229.837005 100.168169 
" style="fill:none;stroke:#ffff14;stroke-linecap:square;stroke-width:1.5;"/>
   </g>
   <g id="line2d_44">
    <path clip-path="url(#p84018bd364)" d="M 943.377112 104.122604 
L 1061.403506 104.013538 
L 1094.598429 103.753715 
L 1121.646144 103.321944 
L 1147.464418 102.680957 
L 1175.741575 101.752196 
L 1205.248173 100.570528 
L 1229.837005 99.382728 
L 1229.837005 99.382728 
" style="fill:none;stroke:#014d4e;stroke-linecap:square;stroke-width:1.5;"/>
   </g>
   <g id="patch_13">
    <path d="M 929.054118 332.6472 
L 929.054118 84.9312 
" style="fill:none;stroke:#000000;stroke-linecap:square;stroke-linejoin:miter;stroke-width:0.8;"/>
   </g>
   <g id="patch_14">
    <path d="M 1244.16 332.6472 
L 1244.16 84.9312 
" style="fill:none;stroke:#000000;stroke-linecap:square;stroke-linejoin:miter;stroke-width:0.8;"/>
   </g>
   <g id="patch_15">
    <path d="M 929.054118 332.6472 
L 1244.16 332.6472 
" style="fill:none;stroke:#000000;stroke-linecap:square;stroke-linejoin:miter;stroke-width:0.8;"/>
   </g>
   <g id="patch_16">
    <path d="M 929.054118 84.9312 
L 1244.16 84.9312 
" style="fill:none;stroke:#000000;stroke-linecap:square;stroke-linejoin:miter;stroke-width:0.8;"/>
   </g>
   <g id="text_38">
    <!-- Lateral joint 2 -->
    <g transform="translate(1044.941746 78.9312)scale(0.12 -0.12)">
     <use xlink:href="#DejaVuSans-76"/>
     <use x="55.712891" xlink:href="#DejaVuSans-97"/>
     <use x="116.992188" xlink:href="#DejaVuSans-116"/>
     <use x="156.201172" xlink:href="#DejaVuSans-101"/>
     <use x="217.724609" xlink:href="#DejaVuSans-114"/>
     <use x="258.837891" xlink:href="#DejaVuSans-97"/>
     <use x="320.117188" xlink:href="#DejaVuSans-108"/>
     <use x="347.900391" xlink:href="#DejaVuSans-32"/>
     <use x="379.6875" xlink:href="#DejaVuSans-106"/>
     <use x="407.470703" xlink:href="#DejaVuSans-111"/>
     <use x="468.652344" xlink:href="#DejaVuSans-105"/>
     <use x="496.435547" xlink:href="#DejaVuSans-110"/>
     <use x="559.814453" xlink:href="#DejaVuSans-116"/>
     <use x="599.023438" xlink:href="#DejaVuSans-32"/>
     <use x="630.810547" xlink:href="#DejaVuSans-50"/>
    </g>
   </g>
  </g>
  <g id="axes_4">
   <g id="patch_17">
    <path d="M 172.8 629.9064 
L 487.905882 629.9064 
L 487.905882 382.1904 
L 172.8 382.1904 
z
" style="fill:#ffffff;"/>
   </g>
   <g id="matplotlib.axis_7">
    <g id="xtick_16">
     <g id="line2d_45">
      <g>
       <use style="stroke:#000000;stroke-width:0.8;" x="187.122995" xlink:href="#m251a75ebb1" y="629.9064"/>
      </g>
     </g>
     <g id="text_39">
      <!-- 0 -->
      <g transform="translate(183.941745 644.504838)scale(0.1 -0.1)">
       <use xlink:href="#DejaVuSans-48"/>
      </g>
     </g>
    </g>
    <g id="xtick_17">
     <g id="line2d_46">
      <g>
       <use style="stroke:#000000;stroke-width:0.8;" x="248.595075" xlink:href="#m251a75ebb1" y="629.9064"/>
      </g>
     </g>
     <g id="text_40">
      <!-- 50 -->
      <g transform="translate(242.232575 644.504838)scale(0.1 -0.1)">
       <use xlink:href="#DejaVuSans-53"/>
       <use x="63.623047" xlink:href="#DejaVuSans-48"/>
      </g>
     </g>
    </g>
    <g id="xtick_18">
     <g id="line2d_47">
      <g>
       <use style="stroke:#000000;stroke-width:0.8;" x="310.067155" xlink:href="#m251a75ebb1" y="629.9064"/>
      </g>
     </g>
     <g id="text_41">
      <!-- 100 -->
      <g transform="translate(300.523405 644.504838)scale(0.1 -0.1)">
       <use xlink:href="#DejaVuSans-49"/>
       <use x="63.623047" xlink:href="#DejaVuSans-48"/>
       <use x="127.246094" xlink:href="#DejaVuSans-48"/>
      </g>
     </g>
    </g>
    <g id="xtick_19">
     <g id="line2d_48">
      <g>
       <use style="stroke:#000000;stroke-width:0.8;" x="371.539235" xlink:href="#m251a75ebb1" y="629.9064"/>
      </g>
     </g>
     <g id="text_42">
      <!-- 150 -->
      <g transform="translate(361.995485 644.504838)scale(0.1 -0.1)">
       <use xlink:href="#DejaVuSans-49"/>
       <use x="63.623047" xlink:href="#DejaVuSans-53"/>
       <use x="127.246094" xlink:href="#DejaVuSans-48"/>
      </g>
     </g>
    </g>
    <g id="xtick_20">
     <g id="line2d_49">
      <g>
       <use style="stroke:#000000;stroke-width:0.8;" x="433.011315" xlink:href="#m251a75ebb1" y="629.9064"/>
      </g>
     </g>
     <g id="text_43">
      <!-- 200 -->
      <g transform="translate(423.467565 644.504838)scale(0.1 -0.1)">
       <use xlink:href="#DejaVuSans-50"/>
       <use x="63.623047" xlink:href="#DejaVuSans-48"/>
       <use x="127.246094" xlink:href="#DejaVuSans-48"/>
      </g>
     </g>
    </g>
   </g>
   <g id="matplotlib.axis_8">
    <g id="ytick_21">
     <g id="line2d_50">
      <g>
       <use style="stroke:#000000;stroke-width:0.8;" x="172.8" xlink:href="#md0523470c6" y="602.998546"/>
      </g>
     </g>
     <g id="text_44">
      <!-- −17.5 -->
      <g transform="translate(135.154687 606.797765)scale(0.1 -0.1)">
       <use xlink:href="#DejaVuSans-8722"/>
       <use x="83.789062" xlink:href="#DejaVuSans-49"/>
       <use x="147.412109" xlink:href="#DejaVuSans-55"/>
       <use x="211.035156" xlink:href="#DejaVuSans-46"/>
       <use x="242.822266" xlink:href="#DejaVuSans-53"/>
      </g>
     </g>
    </g>
    <g id="ytick_22">
     <g id="line2d_51">
      <g>
       <use style="stroke:#000000;stroke-width:0.8;" x="172.8" xlink:href="#md0523470c6" y="573.069754"/>
      </g>
     </g>
     <g id="text_45">
      <!-- −15.0 -->
      <g transform="translate(135.154687 576.868973)scale(0.1 -0.1)">
       <use xlink:href="#DejaVuSans-8722"/>
       <use x="83.789062" xlink:href="#DejaVuSans-49"/>
       <use x="147.412109" xlink:href="#DejaVuSans-53"/>
       <use x="211.035156" xlink:href="#DejaVuSans-46"/>
       <use x="242.822266" xlink:href="#DejaVuSans-48"/>
      </g>
     </g>
    </g>
    <g id="ytick_23">
     <g id="line2d_52">
      <g>
       <use style="stroke:#000000;stroke-width:0.8;" x="172.8" xlink:href="#md0523470c6" y="543.140963"/>
      </g>
     </g>
     <g id="text_46">
      <!-- −12.5 -->
      <g transform="translate(135.154687 546.940182)scale(0.1 -0.1)">
       <use xlink:href="#DejaVuSans-8722"/>
       <use x="83.789062" xlink:href="#DejaVuSans-49"/>
       <use x="147.412109" xlink:href="#DejaVuSans-50"/>
       <use x="211.035156" xlink:href="#DejaVuSans-46"/>
       <use x="242.822266" xlink:href="#DejaVuSans-53"/>
      </g>
     </g>
    </g>
    <g id="ytick_24">
     <g id="line2d_53">
      <g>
       <use style="stroke:#000000;stroke-width:0.8;" x="172.8" xlink:href="#md0523470c6" y="513.212172"/>
      </g>
     </g>
     <g id="text_47">
      <!-- −10.0 -->
      <g transform="translate(135.154687 517.01139)scale(0.1 -0.1)">
       <use xlink:href="#DejaVuSans-8722"/>
       <use x="83.789062" xlink:href="#DejaVuSans-49"/>
       <use x="147.412109" xlink:href="#DejaVuSans-48"/>
       <use x="211.035156" xlink:href="#DejaVuSans-46"/>
       <use x="242.822266" xlink:href="#DejaVuSans-48"/>
      </g>
     </g>
    </g>
    <g id="ytick_25">
     <g id="line2d_54">
      <g>
       <use style="stroke:#000000;stroke-width:0.8;" x="172.8" xlink:href="#md0523470c6" y="483.28338"/>
      </g>
     </g>
     <g id="text_48">
      <!-- −7.5 -->
      <g transform="translate(141.517187 487.082599)scale(0.1 -0.1)">
       <use xlink:href="#DejaVuSans-8722"/>
       <use x="83.789062" xlink:href="#DejaVuSans-55"/>
       <use x="147.412109" xlink:href="#DejaVuSans-46"/>
       <use x="179.199219" xlink:href="#DejaVuSans-53"/>
      </g>
     </g>
    </g>
    <g id="ytick_26">
     <g id="line2d_55">
      <g>
       <use style="stroke:#000000;stroke-width:0.8;" x="172.8" xlink:href="#md0523470c6" y="453.354589"/>
      </g>
     </g>
     <g id="text_49">
      <!-- −5.0 -->
      <g transform="translate(141.517187 457.153807)scale(0.1 -0.1)">
       <use xlink:href="#DejaVuSans-8722"/>
       <use x="83.789062" xlink:href="#DejaVuSans-53"/>
       <use x="147.412109" xlink:href="#DejaVuSans-46"/>
       <use x="179.199219" xlink:href="#DejaVuSans-48"/>
      </g>
     </g>
    </g>
    <g id="ytick_27">
     <g id="line2d_56">
      <g>
       <use style="stroke:#000000;stroke-width:0.8;" x="172.8" xlink:href="#md0523470c6" y="423.425797"/>
      </g>
     </g>
     <g id="text_50">
      <!-- −2.5 -->
      <g transform="translate(141.517187 427.225016)scale(0.1 -0.1)">
       <use xlink:href="#DejaVuSans-8722"/>
       <use x="83.789062" xlink:href="#DejaVuSans-50"/>
       <use x="147.412109" xlink:href="#DejaVuSans-46"/>
       <use x="179.199219" xlink:href="#DejaVuSans-53"/>
      </g>
     </g>
    </g>
    <g id="ytick_28">
     <g id="line2d_57">
      <g>
       <use style="stroke:#000000;stroke-width:0.8;" x="172.8" xlink:href="#md0523470c6" y="393.497006"/>
      </g>
     </g>
     <g id="text_51">
      <!-- 0.0 -->
      <g transform="translate(149.896875 397.296225)scale(0.1 -0.1)">
       <use xlink:href="#DejaVuSans-48"/>
       <use x="63.623047" xlink:href="#DejaVuSans-46"/>
       <use x="95.410156" xlink:href="#DejaVuSans-48"/>
      </g>
     </g>
    </g>
   </g>
   <g id="line2d_58">
    <path clip-path="url(#p8f70abf461)" d="M 187.122995 393.450218 
L 189.581878 393.82032 
L 190.811319 393.837551 
L 193.270203 394.139941 
L 195.729086 393.840086 
L 198.187969 393.982785 
L 199.417411 393.942225 
L 200.646852 394.091392 
L 201.876294 394.370577 
L 203.105735 394.394855 
L 204.335177 394.274505 
L 206.79406 394.251257 
L 208.023502 394.024587 
L 209.252943 393.963276 
L 211.711827 394.264164 
L 212.941268 394.275869 
L 215.400151 394.652277 
L 217.859035 394.516232 
L 220.317918 394.879779 
L 221.547359 394.974082 
L 222.776801 395.336728 
L 224.006243 395.816565 
L 228.924009 396.749891 
L 230.153451 396.766306 
L 231.382892 397.005984 
L 232.612334 397.491261 
L 236.300659 398.410782 
L 237.5301 398.728056 
L 238.759542 398.738876 
L 239.988983 398.863295 
L 241.218425 399.217044 
L 243.677308 399.586308 
L 246.136192 400.548974 
L 248.595075 400.956995 
L 249.824516 401.368358 
L 251.053958 401.593688 
L 252.2834 401.679028 
L 253.512841 402.07183 
L 254.742283 402.608342 
L 257.201166 403.2254 
L 258.430608 403.77392 
L 259.660049 404.132748 
L 260.889491 404.229962 
L 262.118932 404.542174 
L 263.348374 405.026564 
L 265.807257 405.614697 
L 268.26614 406.820846 
L 269.495582 407.098793 
L 270.725024 407.523097 
L 271.954465 408.107261 
L 274.413348 408.74536 
L 276.872232 410.131258 
L 278.101673 410.608654 
L 279.331115 411.238773 
L 280.560556 412.078516 
L 281.789998 412.65282 
L 283.01944 413.071336 
L 287.937206 415.894346 
L 289.166648 416.934663 
L 290.396089 417.788172 
L 291.625531 418.429247 
L 294.084414 420.286903 
L 296.543297 421.709497 
L 299.00218 423.853593 
L 300.231622 424.679111 
L 303.919947 427.852803 
L 305.149388 428.677901 
L 307.608272 430.916555 
L 308.837713 431.776779 
L 310.067155 432.887771 
L 311.296596 434.279668 
L 314.984921 437.824432 
L 316.214363 439.197408 
L 317.443804 440.267477 
L 318.673246 441.48821 
L 321.132129 444.57251 
L 322.361571 445.912322 
L 328.508779 454.482684 
L 329.73822 456.353858 
L 332.197104 459.8536 
L 334.655987 464.090435 
L 335.885428 465.952687 
L 342.032636 476.971361 
L 346.950403 486.68447 
L 358.015377 509.046704 
L 360.47426 514.01077 
L 361.703702 516.434858 
L 364.162585 520.902108 
L 366.621468 525.58207 
L 369.080352 529.883889 
L 370.309793 532.213742 
L 375.22756 540.093709 
L 378.915884 545.047703 
L 380.145326 546.725944 
L 382.604209 549.676893 
L 383.833651 555.653654 
L 385.063092 553.782825 
L 386.292534 553.831001 
L 387.521976 559.592308 
L 388.751417 563.95237 
L 389.980859 563.113675 
L 391.2103 564.679233 
L 392.439742 570.957283 
L 393.669184 573.635665 
L 394.898625 571.611431 
L 396.128067 573.435565 
L 397.357508 578.774765 
L 398.58695 579.097763 
L 399.816392 576.292348 
L 401.045833 578.727018 
L 402.275275 582.96999 
L 403.504716 581.087066 
L 404.734158 578.045088 
L 405.9636 580.77654 
L 407.193041 573.656993 
L 408.422483 590.852654 
L 409.651924 582.206127 
L 410.881366 565.74631 
L 413.340249 590.956424 
L 414.569691 574.775726 
L 415.799132 566.045803 
L 417.028574 585.227333 
L 418.258016 588.227788 
L 419.487457 567.574893 
L 420.716899 571.250362 
L 421.94634 590.460728 
L 423.175782 578.876126 
L 424.405224 563.368855 
L 425.634665 581.374335 
L 426.864107 590.278994 
L 428.093548 569.391677 
L 429.32299 571.935363 
L 430.552432 594.994664 
L 431.781873 584.911033 
L 433.011315 570.278704 
L 434.240756 591.82934 
L 435.470198 599.655852 
L 436.69964 577.42302 
L 437.929081 584.259591 
L 439.158523 606.474696 
L 440.387964 590.232101 
L 441.617406 579.858125 
L 442.846848 605.441581 
L 445.305731 592.927865 
L 446.535172 598.789528 
L 447.764614 605.344046 
L 448.994056 598.755782 
L 450.223497 598.470531 
L 451.452939 608.006232 
L 452.68238 604.857519 
L 453.911822 599.326157 
L 455.141264 608.330839 
L 456.370705 612.07059 
L 457.600147 604.301365 
L 458.829588 608.099528 
L 460.05903 616.853241 
L 461.288472 610.66929 
L 462.517913 606.604789 
L 463.747355 615.623073 
L 464.976796 615.217769 
L 466.206238 606.103135 
L 467.43568 610.725453 
L 468.665121 617.882397 
L 469.894563 610.687415 
L 471.124004 608.036592 
L 472.353446 618.181207 
L 473.582888 618.646582 
L 473.582888 618.646582 
" style="fill:none;stroke:#ff796c;stroke-linecap:square;stroke-width:1.5;"/>
   </g>
   <g id="line2d_59">
    <path clip-path="url(#p8f70abf461)" d="M 187.122995 399.459714 
L 249.824516 399.355293 
L 305.149388 398.994121 
L 334.655987 398.547275 
L 398.58695 397.439206 
L 420.716899 397.450195 
L 428.093548 397.440661 
L 439.158523 397.26709 
L 445.305731 397.224917 
L 452.68238 397.124039 
L 460.05903 397.033074 
L 473.582888 396.94173 
L 473.582888 396.94173 
" style="fill:none;stroke:#ffff14;stroke-linecap:square;stroke-width:1.5;"/>
   </g>
   <g id="line2d_60">
    <path clip-path="url(#p8f70abf461)" d="M 187.122995 399.459713 
L 349.409286 399.351927 
L 403.504716 399.064148 
L 463.747355 398.516349 
L 473.582888 398.40153 
L 473.582888 398.40153 
" style="fill:none;stroke:#014d4e;stroke-linecap:square;stroke-width:1.5;"/>
   </g>
   <g id="patch_18">
    <path d="M 172.8 629.9064 
L 172.8 382.1904 
" style="fill:none;stroke:#000000;stroke-linecap:square;stroke-linejoin:miter;stroke-width:0.8;"/>
   </g>
   <g id="patch_19">
    <path d="M 487.905882 629.9064 
L 487.905882 382.1904 
" style="fill:none;stroke:#000000;stroke-linecap:square;stroke-linejoin:miter;stroke-width:0.8;"/>
   </g>
   <g id="patch_20">
    <path d="M 172.8 629.9064 
L 487.905882 629.9064 
" style="fill:none;stroke:#000000;stroke-linecap:square;stroke-linejoin:miter;stroke-width:0.8;"/>
   </g>
   <g id="patch_21">
    <path d="M 172.8 382.1904 
L 487.905882 382.1904 
" style="fill:none;stroke:#000000;stroke-linecap:square;stroke-linejoin:miter;stroke-width:0.8;"/>
   </g>
   <g id="text_52">
    <!-- Lateral joint 3 -->
    <defs>
     <path d="M 40.578125 39.3125 
Q 47.65625 37.796875 51.625 33 
Q 55.609375 28.21875 55.609375 21.1875 
Q 55.609375 10.40625 48.1875 4.484375 
Q 40.765625 -1.421875 27.09375 -1.421875 
Q 22.515625 -1.421875 17.65625 -0.515625 
Q 12.796875 0.390625 7.625 2.203125 
L 7.625 11.71875 
Q 11.71875 9.328125 16.59375 8.109375 
Q 21.484375 6.890625 26.8125 6.890625 
Q 36.078125 6.890625 40.9375 10.546875 
Q 45.796875 14.203125 45.796875 21.1875 
Q 45.796875 27.640625 41.28125 31.265625 
Q 36.765625 34.90625 28.71875 34.90625 
L 20.21875 34.90625 
L 20.21875 43.015625 
L 29.109375 43.015625 
Q 36.375 43.015625 40.234375 45.921875 
Q 44.09375 48.828125 44.09375 54.296875 
Q 44.09375 59.90625 40.109375 62.90625 
Q 36.140625 65.921875 28.71875 65.921875 
Q 24.65625 65.921875 20.015625 65.03125 
Q 15.375 64.15625 9.8125 62.3125 
L 9.8125 71.09375 
Q 15.4375 72.65625 20.34375 73.4375 
Q 25.25 74.21875 29.59375 74.21875 
Q 40.828125 74.21875 47.359375 69.109375 
Q 53.90625 64.015625 53.90625 55.328125 
Q 53.90625 49.265625 50.4375 45.09375 
Q 46.96875 40.921875 40.578125 39.3125 
z
" id="DejaVuSans-51"/>
    </defs>
    <g transform="translate(288.687629 376.1904)scale(0.12 -0.12)">
     <use xlink:href="#DejaVuSans-76"/>
     <use x="55.712891" xlink:href="#DejaVuSans-97"/>
     <use x="116.992188" xlink:href="#DejaVuSans-116"/>
     <use x="156.201172" xlink:href="#DejaVuSans-101"/>
     <use x="217.724609" xlink:href="#DejaVuSans-114"/>
     <use x="258.837891" xlink:href="#DejaVuSans-97"/>
     <use x="320.117188" xlink:href="#DejaVuSans-108"/>
     <use x="347.900391" xlink:href="#DejaVuSans-32"/>
     <use x="379.6875" xlink:href="#DejaVuSans-106"/>
     <use x="407.470703" xlink:href="#DejaVuSans-111"/>
     <use x="468.652344" xlink:href="#DejaVuSans-105"/>
     <use x="496.435547" xlink:href="#DejaVuSans-110"/>
     <use x="559.814453" xlink:href="#DejaVuSans-116"/>
     <use x="599.023438" xlink:href="#DejaVuSans-32"/>
     <use x="630.810547" xlink:href="#DejaVuSans-51"/>
    </g>
   </g>
  </g>
  <g id="axes_5">
   <g id="patch_22">
    <path d="M 550.927059 629.9064 
L 866.032941 629.9064 
L 866.032941 382.1904 
L 550.927059 382.1904 
z
" style="fill:#ffffff;"/>
   </g>
   <g id="matplotlib.axis_9">
    <g id="xtick_21">
     <g id="line2d_61">
      <g>
       <use style="stroke:#000000;stroke-width:0.8;" x="565.250053" xlink:href="#m251a75ebb1" y="629.9064"/>
      </g>
     </g>
     <g id="text_53">
      <!-- 0 -->
      <g transform="translate(562.068803 644.504838)scale(0.1 -0.1)">
       <use xlink:href="#DejaVuSans-48"/>
      </g>
     </g>
    </g>
    <g id="xtick_22">
     <g id="line2d_62">
      <g>
       <use style="stroke:#000000;stroke-width:0.8;" x="626.722134" xlink:href="#m251a75ebb1" y="629.9064"/>
      </g>
     </g>
     <g id="text_54">
      <!-- 50 -->
      <g transform="translate(620.359634 644.504838)scale(0.1 -0.1)">
       <use xlink:href="#DejaVuSans-53"/>
       <use x="63.623047" xlink:href="#DejaVuSans-48"/>
      </g>
     </g>
    </g>
    <g id="xtick_23">
     <g id="line2d_63">
      <g>
       <use style="stroke:#000000;stroke-width:0.8;" x="688.194214" xlink:href="#m251a75ebb1" y="629.9064"/>
      </g>
     </g>
     <g id="text_55">
      <!-- 100 -->
      <g transform="translate(678.650464 644.504838)scale(0.1 -0.1)">
       <use xlink:href="#DejaVuSans-49"/>
       <use x="63.623047" xlink:href="#DejaVuSans-48"/>
       <use x="127.246094" xlink:href="#DejaVuSans-48"/>
      </g>
     </g>
    </g>
    <g id="xtick_24">
     <g id="line2d_64">
      <g>
       <use style="stroke:#000000;stroke-width:0.8;" x="749.666294" xlink:href="#m251a75ebb1" y="629.9064"/>
      </g>
     </g>
     <g id="text_56">
      <!-- 150 -->
      <g transform="translate(740.122544 644.504838)scale(0.1 -0.1)">
       <use xlink:href="#DejaVuSans-49"/>
       <use x="63.623047" xlink:href="#DejaVuSans-53"/>
       <use x="127.246094" xlink:href="#DejaVuSans-48"/>
      </g>
     </g>
    </g>
    <g id="xtick_25">
     <g id="line2d_65">
      <g>
       <use style="stroke:#000000;stroke-width:0.8;" x="811.138374" xlink:href="#m251a75ebb1" y="629.9064"/>
      </g>
     </g>
     <g id="text_57">
      <!-- 200 -->
      <g transform="translate(801.594624 644.504838)scale(0.1 -0.1)">
       <use xlink:href="#DejaVuSans-50"/>
       <use x="63.623047" xlink:href="#DejaVuSans-48"/>
       <use x="127.246094" xlink:href="#DejaVuSans-48"/>
      </g>
     </g>
    </g>
   </g>
   <g id="matplotlib.axis_10">
    <g id="ytick_29">
     <g id="line2d_66">
      <g>
       <use style="stroke:#000000;stroke-width:0.8;" x="550.927059" xlink:href="#md0523470c6" y="618.196412"/>
      </g>
     </g>
     <g id="text_58">
      <!-- −16 -->
      <g transform="translate(522.822371 621.995631)scale(0.1 -0.1)">
       <use xlink:href="#DejaVuSans-8722"/>
       <use x="83.789062" xlink:href="#DejaVuSans-49"/>
       <use x="147.412109" xlink:href="#DejaVuSans-54"/>
      </g>
     </g>
    </g>
    <g id="ytick_30">
     <g id="line2d_67">
      <g>
       <use style="stroke:#000000;stroke-width:0.8;" x="550.927059" xlink:href="#md0523470c6" y="590.108867"/>
      </g>
     </g>
     <g id="text_59">
      <!-- −14 -->
      <g transform="translate(522.822371 593.908086)scale(0.1 -0.1)">
       <use xlink:href="#DejaVuSans-8722"/>
       <use x="83.789062" xlink:href="#DejaVuSans-49"/>
       <use x="147.412109" xlink:href="#DejaVuSans-52"/>
      </g>
     </g>
    </g>
    <g id="ytick_31">
     <g id="line2d_68">
      <g>
       <use style="stroke:#000000;stroke-width:0.8;" x="550.927059" xlink:href="#md0523470c6" y="562.021323"/>
      </g>
     </g>
     <g id="text_60">
      <!-- −12 -->
      <g transform="translate(522.822371 565.820541)scale(0.1 -0.1)">
       <use xlink:href="#DejaVuSans-8722"/>
       <use x="83.789062" xlink:href="#DejaVuSans-49"/>
       <use x="147.412109" xlink:href="#DejaVuSans-50"/>
      </g>
     </g>
    </g>
    <g id="ytick_32">
     <g id="line2d_69">
      <g>
       <use style="stroke:#000000;stroke-width:0.8;" x="550.927059" xlink:href="#md0523470c6" y="533.933778"/>
      </g>
     </g>
     <g id="text_61">
      <!-- −10 -->
      <g transform="translate(522.822371 537.732996)scale(0.1 -0.1)">
       <use xlink:href="#DejaVuSans-8722"/>
       <use x="83.789062" xlink:href="#DejaVuSans-49"/>
       <use x="147.412109" xlink:href="#DejaVuSans-48"/>
      </g>
     </g>
    </g>
    <g id="ytick_33">
     <g id="line2d_70">
      <g>
       <use style="stroke:#000000;stroke-width:0.8;" x="550.927059" xlink:href="#md0523470c6" y="505.846233"/>
      </g>
     </g>
     <g id="text_62">
      <!-- −8 -->
      <g transform="translate(529.184871 509.645451)scale(0.1 -0.1)">
       <use xlink:href="#DejaVuSans-8722"/>
       <use x="83.789062" xlink:href="#DejaVuSans-56"/>
      </g>
     </g>
    </g>
    <g id="ytick_34">
     <g id="line2d_71">
      <g>
       <use style="stroke:#000000;stroke-width:0.8;" x="550.927059" xlink:href="#md0523470c6" y="477.758688"/>
      </g>
     </g>
     <g id="text_63">
      <!-- −6 -->
      <g transform="translate(529.184871 481.557906)scale(0.1 -0.1)">
       <use xlink:href="#DejaVuSans-8722"/>
       <use x="83.789062" xlink:href="#DejaVuSans-54"/>
      </g>
     </g>
    </g>
    <g id="ytick_35">
     <g id="line2d_72">
      <g>
       <use style="stroke:#000000;stroke-width:0.8;" x="550.927059" xlink:href="#md0523470c6" y="449.671143"/>
      </g>
     </g>
     <g id="text_64">
      <!-- −4 -->
      <g transform="translate(529.184871 453.470361)scale(0.1 -0.1)">
       <use xlink:href="#DejaVuSans-8722"/>
       <use x="83.789062" xlink:href="#DejaVuSans-52"/>
      </g>
     </g>
    </g>
    <g id="ytick_36">
     <g id="line2d_73">
      <g>
       <use style="stroke:#000000;stroke-width:0.8;" x="550.927059" xlink:href="#md0523470c6" y="421.583598"/>
      </g>
     </g>
     <g id="text_65">
      <!-- −2 -->
      <g transform="translate(529.184871 425.382817)scale(0.1 -0.1)">
       <use xlink:href="#DejaVuSans-8722"/>
       <use x="83.789062" xlink:href="#DejaVuSans-50"/>
      </g>
     </g>
    </g>
    <g id="ytick_37">
     <g id="line2d_74">
      <g>
       <use style="stroke:#000000;stroke-width:0.8;" x="550.927059" xlink:href="#md0523470c6" y="393.496053"/>
      </g>
     </g>
     <g id="text_66">
      <!-- 0 -->
      <g transform="translate(537.564559 397.295272)scale(0.1 -0.1)">
       <use xlink:href="#DejaVuSans-48"/>
      </g>
     </g>
    </g>
   </g>
   <g id="line2d_75">
    <path clip-path="url(#p5402f31391)" d="M 565.250053 393.450218 
L 570.16782 394.156407 
L 571.397261 394.214031 
L 575.085586 393.694942 
L 577.544469 393.72725 
L 581.232794 394.31375 
L 584.921119 394.025997 
L 586.150561 393.804726 
L 587.380002 393.749103 
L 593.52721 394.570651 
L 595.986094 394.320261 
L 598.444977 394.42926 
L 599.674418 394.559068 
L 603.362743 395.589831 
L 607.051068 395.947662 
L 608.28051 395.92472 
L 609.509951 396.096325 
L 611.968834 396.828735 
L 615.657159 397.740795 
L 618.116042 397.763666 
L 621.804367 398.323694 
L 624.26325 399.181233 
L 627.951575 399.733594 
L 630.410458 399.827341 
L 631.6399 400.089914 
L 634.098783 400.827704 
L 637.787108 401.828518 
L 639.01655 401.88239 
L 640.245991 402.049362 
L 643.934316 402.93508 
L 646.393199 403.98993 
L 653.769849 405.795662 
L 658.687615 408.021828 
L 659.917057 408.457707 
L 661.146498 408.774907 
L 664.834823 410.371231 
L 666.064265 411.037472 
L 668.523148 412.669433 
L 670.982031 413.949382 
L 672.211473 414.63889 
L 674.670356 415.743249 
L 682.047006 420.744315 
L 683.276447 421.393957 
L 688.194214 424.744122 
L 690.653097 426.948022 
L 691.882538 427.908974 
L 694.341422 430.098504 
L 696.800305 431.98308 
L 701.718071 437.120893 
L 702.947513 438.649792 
L 706.635838 442.819271 
L 710.324162 447.35752 
L 718.930254 460.374242 
L 723.84802 468.682975 
L 726.306903 473.233486 
L 728.765786 477.611466 
L 731.22467 482.047725 
L 733.683553 486.572039 
L 738.601319 495.947557 
L 741.060202 500.361364 
L 748.436852 513.180156 
L 753.354618 520.998658 
L 760.731268 531.238271 
L 761.96071 535.887863 
L 763.190151 536.005237 
L 764.419593 537.268017 
L 765.649034 542.038664 
L 766.878476 546.077638 
L 768.107918 547.051558 
L 769.337359 549.294281 
L 770.566801 554.080534 
L 771.796242 556.550113 
L 773.025684 556.115479 
L 774.255126 557.858396 
L 775.484567 561.690631 
L 776.714009 562.725621 
L 777.94345 562.085768 
L 779.172892 564.597967 
L 780.402334 568.17595 
L 781.631775 568.09156 
L 782.861217 567.121112 
L 784.090658 569.235206 
L 785.3201 564.719587 
L 786.549542 574.932938 
L 787.778983 569.805301 
L 789.008425 560.125724 
L 790.237866 567.161275 
L 791.467308 574.991558 
L 792.69675 565.960438 
L 793.926191 561.38201 
L 795.155633 573.079233 
L 796.385074 575.30342 
L 797.614516 563.620073 
L 798.843958 565.975236 
L 800.073399 577.303813 
L 801.302841 570.678161 
L 802.532282 561.863058 
L 803.761724 572.801861 
L 804.991166 578.670194 
L 806.220607 567.348107 
L 807.450049 569.872342 
L 808.67949 584.441401 
L 809.908932 579.551173 
L 811.138374 571.831908 
L 812.367815 585.106258 
L 813.597257 590.155948 
L 814.826698 577.453658 
L 816.05614 581.478516 
L 817.285582 594.673143 
L 818.515023 585.565925 
L 819.744465 580.248559 
L 820.973906 596.37487 
L 822.203348 593.331581 
L 823.43279 590.909825 
L 825.891673 600.021118 
L 827.121115 596.492759 
L 828.350556 596.369948 
L 829.579998 601.83092 
L 830.809439 599.885884 
L 832.038881 596.786063 
L 833.268323 602.630639 
L 834.497764 605.693177 
L 835.727206 602.17028 
L 836.956647 605.568714 
L 838.186089 611.800335 
L 839.415531 608.936456 
L 840.644972 607.025983 
L 841.874414 612.605853 
L 843.103855 612.43885 
L 844.333297 607.100324 
L 845.562739 610.062287 
L 846.79218 614.775214 
L 848.021622 611.226058 
L 849.251063 610.560145 
L 850.480505 617.538517 
L 851.709947 618.646582 
L 851.709947 618.646582 
" style="fill:none;stroke:#ff796c;stroke-linecap:square;stroke-width:1.5;"/>
   </g>
   <g id="line2d_76">
    <path clip-path="url(#p5402f31391)" d="M 565.250053 397.815028 
L 603.362743 397.921441 
L 647.622641 398.165927 
L 690.653097 398.69048 
L 714.012487 399.207029 
L 763.190151 400.174001 
L 773.025684 400.254898 
L 787.778983 400.624962 
L 800.073399 401.088349 
L 807.450049 401.078076 
L 818.515023 400.872621 
L 827.121115 400.655059 
L 851.709947 400.644325 
L 851.709947 400.644325 
" style="fill:none;stroke:#ffff14;stroke-linecap:square;stroke-width:1.5;"/>
   </g>
   <g id="line2d_77">
    <path clip-path="url(#p5402f31391)" d="M 565.250053 397.814952 
L 793.926191 397.703867 
L 851.709947 397.589853 
L 851.709947 397.589853 
" style="fill:none;stroke:#014d4e;stroke-linecap:square;stroke-width:1.5;"/>
   </g>
   <g id="patch_23">
    <path d="M 550.927059 629.9064 
L 550.927059 382.1904 
" style="fill:none;stroke:#000000;stroke-linecap:square;stroke-linejoin:miter;stroke-width:0.8;"/>
   </g>
   <g id="patch_24">
    <path d="M 866.032941 629.9064 
L 866.032941 382.1904 
" style="fill:none;stroke:#000000;stroke-linecap:square;stroke-linejoin:miter;stroke-width:0.8;"/>
   </g>
   <g id="patch_25">
    <path d="M 550.927059 629.9064 
L 866.032941 629.9064 
" style="fill:none;stroke:#000000;stroke-linecap:square;stroke-linejoin:miter;stroke-width:0.8;"/>
   </g>
   <g id="patch_26">
    <path d="M 550.927059 382.1904 
L 866.032941 382.1904 
" style="fill:none;stroke:#000000;stroke-linecap:square;stroke-linejoin:miter;stroke-width:0.8;"/>
   </g>
   <g id="text_67">
    <!-- Lateral joint 4 -->
    <g transform="translate(666.814687 376.1904)scale(0.12 -0.12)">
     <use xlink:href="#DejaVuSans-76"/>
     <use x="55.712891" xlink:href="#DejaVuSans-97"/>
     <use x="116.992188" xlink:href="#DejaVuSans-116"/>
     <use x="156.201172" xlink:href="#DejaVuSans-101"/>
     <use x="217.724609" xlink:href="#DejaVuSans-114"/>
     <use x="258.837891" xlink:href="#DejaVuSans-97"/>
     <use x="320.117188" xlink:href="#DejaVuSans-108"/>
     <use x="347.900391" xlink:href="#DejaVuSans-32"/>
     <use x="379.6875" xlink:href="#DejaVuSans-106"/>
     <use x="407.470703" xlink:href="#DejaVuSans-111"/>
     <use x="468.652344" xlink:href="#DejaVuSans-105"/>
     <use x="496.435547" xlink:href="#DejaVuSans-110"/>
     <use x="559.814453" xlink:href="#DejaVuSans-116"/>
     <use x="599.023438" xlink:href="#DejaVuSans-32"/>
     <use x="630.810547" xlink:href="#DejaVuSans-52"/>
    </g>
   </g>
  </g>
  <g id="axes_6">
   <g id="patch_27">
    <path d="M 929.054118 629.9064 
L 1244.16 629.9064 
L 1244.16 382.1904 
L 929.054118 382.1904 
z
" style="fill:#ffffff;"/>
   </g>
   <g id="matplotlib.axis_11">
    <g id="xtick_26">
     <g id="line2d_78">
      <g>
       <use style="stroke:#000000;stroke-width:0.8;" x="929.054118" xlink:href="#m251a75ebb1" y="629.9064"/>
      </g>
     </g>
     <g id="text_68">
      <!-- 0.0 -->
      <g transform="translate(921.102555 644.504838)scale(0.1 -0.1)">
       <use xlink:href="#DejaVuSans-48"/>
       <use x="63.623047" xlink:href="#DejaVuSans-46"/>
       <use x="95.410156" xlink:href="#DejaVuSans-48"/>
      </g>
     </g>
    </g>
    <g id="xtick_27">
     <g id="line2d_79">
      <g>
       <use style="stroke:#000000;stroke-width:0.8;" x="992.075294" xlink:href="#m251a75ebb1" y="629.9064"/>
      </g>
     </g>
     <g id="text_69">
      <!-- 0.2 -->
      <g transform="translate(984.123732 644.504838)scale(0.1 -0.1)">
       <use xlink:href="#DejaVuSans-48"/>
       <use x="63.623047" xlink:href="#DejaVuSans-46"/>
       <use x="95.410156" xlink:href="#DejaVuSans-50"/>
      </g>
     </g>
    </g>
    <g id="xtick_28">
     <g id="line2d_80">
      <g>
       <use style="stroke:#000000;stroke-width:0.8;" x="1055.096471" xlink:href="#m251a75ebb1" y="629.9064"/>
      </g>
     </g>
     <g id="text_70">
      <!-- 0.4 -->
      <g transform="translate(1047.144908 644.504838)scale(0.1 -0.1)">
       <use xlink:href="#DejaVuSans-48"/>
       <use x="63.623047" xlink:href="#DejaVuSans-46"/>
       <use x="95.410156" xlink:href="#DejaVuSans-52"/>
      </g>
     </g>
    </g>
    <g id="xtick_29">
     <g id="line2d_81">
      <g>
       <use style="stroke:#000000;stroke-width:0.8;" x="1118.117647" xlink:href="#m251a75ebb1" y="629.9064"/>
      </g>
     </g>
     <g id="text_71">
      <!-- 0.6 -->
      <g transform="translate(1110.166085 644.504838)scale(0.1 -0.1)">
       <use xlink:href="#DejaVuSans-48"/>
       <use x="63.623047" xlink:href="#DejaVuSans-46"/>
       <use x="95.410156" xlink:href="#DejaVuSans-54"/>
      </g>
     </g>
    </g>
    <g id="xtick_30">
     <g id="line2d_82">
      <g>
       <use style="stroke:#000000;stroke-width:0.8;" x="1181.138824" xlink:href="#m251a75ebb1" y="629.9064"/>
      </g>
     </g>
     <g id="text_72">
      <!-- 0.8 -->
      <g transform="translate(1173.187261 644.504838)scale(0.1 -0.1)">
       <use xlink:href="#DejaVuSans-48"/>
       <use x="63.623047" xlink:href="#DejaVuSans-46"/>
       <use x="95.410156" xlink:href="#DejaVuSans-56"/>
      </g>
     </g>
    </g>
    <g id="xtick_31">
     <g id="line2d_83">
      <g>
       <use style="stroke:#000000;stroke-width:0.8;" x="1244.16" xlink:href="#m251a75ebb1" y="629.9064"/>
      </g>
     </g>
     <g id="text_73">
      <!-- 1.0 -->
      <g transform="translate(1236.208438 644.504838)scale(0.1 -0.1)">
       <use xlink:href="#DejaVuSans-49"/>
       <use x="63.623047" xlink:href="#DejaVuSans-46"/>
       <use x="95.410156" xlink:href="#DejaVuSans-48"/>
      </g>
     </g>
    </g>
   </g>
   <g id="matplotlib.axis_12">
    <g id="ytick_38">
     <g id="line2d_84">
      <g>
       <use style="stroke:#000000;stroke-width:0.8;" x="929.054118" xlink:href="#md0523470c6" y="629.9064"/>
      </g>
     </g>
     <g id="text_74">
      <!-- 0.0 -->
      <g transform="translate(906.150993 633.705619)scale(0.1 -0.1)">
       <use xlink:href="#DejaVuSans-48"/>
       <use x="63.623047" xlink:href="#DejaVuSans-46"/>
       <use x="95.410156" xlink:href="#DejaVuSans-48"/>
      </g>
     </g>
    </g>
    <g id="ytick_39">
     <g id="line2d_85">
      <g>
       <use style="stroke:#000000;stroke-width:0.8;" x="929.054118" xlink:href="#md0523470c6" y="580.3632"/>
      </g>
     </g>
     <g id="text_75">
      <!-- 0.2 -->
      <g transform="translate(906.150993 584.162419)scale(0.1 -0.1)">
       <use xlink:href="#DejaVuSans-48"/>
       <use x="63.623047" xlink:href="#DejaVuSans-46"/>
       <use x="95.410156" xlink:href="#DejaVuSans-50"/>
      </g>
     </g>
    </g>
    <g id="ytick_40">
     <g id="line2d_86">
      <g>
       <use style="stroke:#000000;stroke-width:0.8;" x="929.054118" xlink:href="#md0523470c6" y="530.82"/>
      </g>
     </g>
     <g id="text_76">
      <!-- 0.4 -->
      <g transform="translate(906.150993 534.619219)scale(0.1 -0.1)">
       <use xlink:href="#DejaVuSans-48"/>
       <use x="63.623047" xlink:href="#DejaVuSans-46"/>
       <use x="95.410156" xlink:href="#DejaVuSans-52"/>
      </g>
     </g>
    </g>
    <g id="ytick_41">
     <g id="line2d_87">
      <g>
       <use style="stroke:#000000;stroke-width:0.8;" x="929.054118" xlink:href="#md0523470c6" y="481.2768"/>
      </g>
     </g>
     <g id="text_77">
      <!-- 0.6 -->
      <g transform="translate(906.150993 485.076019)scale(0.1 -0.1)">
       <use xlink:href="#DejaVuSans-48"/>
       <use x="63.623047" xlink:href="#DejaVuSans-46"/>
       <use x="95.410156" xlink:href="#DejaVuSans-54"/>
      </g>
     </g>
    </g>
    <g id="ytick_42">
     <g id="line2d_88">
      <g>
       <use style="stroke:#000000;stroke-width:0.8;" x="929.054118" xlink:href="#md0523470c6" y="431.7336"/>
      </g>
     </g>
     <g id="text_78">
      <!-- 0.8 -->
      <g transform="translate(906.150993 435.532819)scale(0.1 -0.1)">
       <use xlink:href="#DejaVuSans-48"/>
       <use x="63.623047" xlink:href="#DejaVuSans-46"/>
       <use x="95.410156" xlink:href="#DejaVuSans-56"/>
      </g>
     </g>
    </g>
    <g id="ytick_43">
     <g id="line2d_89">
      <g>
       <use style="stroke:#000000;stroke-width:0.8;" x="929.054118" xlink:href="#md0523470c6" y="382.1904"/>
      </g>
     </g>
     <g id="text_79">
      <!-- 1.0 -->
      <g transform="translate(906.150993 385.989619)scale(0.1 -0.1)">
       <use xlink:href="#DejaVuSans-49"/>
       <use x="63.623047" xlink:href="#DejaVuSans-46"/>
       <use x="95.410156" xlink:href="#DejaVuSans-48"/>
      </g>
     </g>
    </g>
   </g>
   <g id="patch_28">
    <path d="M 929.054118 629.9064 
L 929.054118 382.1904 
" style="fill:none;stroke:#000000;stroke-linecap:square;stroke-linejoin:miter;stroke-width:0.8;"/>
   </g>
   <g id="patch_29">
    <path d="M 1244.16 629.9064 
L 1244.16 382.1904 
" style="fill:none;stroke:#000000;stroke-linecap:square;stroke-linejoin:miter;stroke-width:0.8;"/>
   </g>
   <g id="patch_30">
    <path d="M 929.054118 629.9064 
L 1244.16 629.9064 
" style="fill:none;stroke:#000000;stroke-linecap:square;stroke-linejoin:miter;stroke-width:0.8;"/>
   </g>
   <g id="patch_31">
    <path d="M 929.054118 382.1904 
L 1244.16 382.1904 
" style="fill:none;stroke:#000000;stroke-linecap:square;stroke-linejoin:miter;stroke-width:0.8;"/>
   </g>
  </g>
  <g id="legend_1">
   <g id="patch_32">
    <path d="M 1308.251562 377.53625 
L 1375.4 377.53625 
Q 1377.4 377.53625 1377.4 375.53625 
L 1377.4 332.22375 
Q 1377.4 330.22375 1375.4 330.22375 
L 1308.251562 330.22375 
Q 1306.251562 330.22375 1306.251562 332.22375 
L 1306.251562 375.53625 
Q 1306.251562 377.53625 1308.251562 377.53625 
z
" style="fill:#ffffff;opacity:0.8;stroke:#cccccc;stroke-linejoin:miter;"/>
   </g>
   <g id="line2d_90">
    <path d="M 1310.251562 338.322187 
L 1330.251562 338.322187 
" style="fill:none;stroke:#ff796c;stroke-linecap:square;stroke-width:1.5;"/>
   </g>
   <g id="line2d_91"/>
   <g id="text_80">
    <!-- Torque -->
    <defs>
     <path d="M -0.296875 72.90625 
L 61.375 72.90625 
L 61.375 64.59375 
L 35.5 64.59375 
L 35.5 0 
L 25.59375 0 
L 25.59375 64.59375 
L -0.296875 64.59375 
z
" id="DejaVuSans-84"/>
     <path d="M 14.796875 27.296875 
Q 14.796875 17.390625 18.875 11.75 
Q 22.953125 6.109375 30.078125 6.109375 
Q 37.203125 6.109375 41.296875 11.75 
Q 45.40625 17.390625 45.40625 27.296875 
Q 45.40625 37.203125 41.296875 42.84375 
Q 37.203125 48.484375 30.078125 48.484375 
Q 22.953125 48.484375 18.875 42.84375 
Q 14.796875 37.203125 14.796875 27.296875 
z
M 45.40625 8.203125 
Q 42.578125 3.328125 38.25 0.953125 
Q 33.9375 -1.421875 27.875 -1.421875 
Q 17.96875 -1.421875 11.734375 6.484375 
Q 5.515625 14.40625 5.515625 27.296875 
Q 5.515625 40.1875 11.734375 48.09375 
Q 17.96875 56 27.875 56 
Q 33.9375 56 38.25 53.625 
Q 42.578125 51.265625 45.40625 46.390625 
L 45.40625 54.6875 
L 54.390625 54.6875 
L 54.390625 -20.796875 
L 45.40625 -20.796875 
z
" id="DejaVuSans-113"/>
     <path d="M 8.5 21.578125 
L 8.5 54.6875 
L 17.484375 54.6875 
L 17.484375 21.921875 
Q 17.484375 14.15625 20.5 10.265625 
Q 23.53125 6.390625 29.59375 6.390625 
Q 36.859375 6.390625 41.078125 11.03125 
Q 45.3125 15.671875 45.3125 23.6875 
L 45.3125 54.6875 
L 54.296875 54.6875 
L 54.296875 0 
L 45.3125 0 
L 45.3125 8.40625 
Q 42.046875 3.421875 37.71875 1 
Q 33.40625 -1.421875 27.6875 -1.421875 
Q 18.265625 -1.421875 13.375 4.4375 
Q 8.5 10.296875 8.5 21.578125 
z
M 31.109375 56 
z
" id="DejaVuSans-117"/>
    </defs>
    <g transform="translate(1338.251562 341.822187)scale(0.1 -0.1)">
     <use xlink:href="#DejaVuSans-84"/>
     <use x="60.818359" xlink:href="#DejaVuSans-111"/>
     <use x="122" xlink:href="#DejaVuSans-114"/>
     <use x="163.097656" xlink:href="#DejaVuSans-113"/>
     <use x="226.574219" xlink:href="#DejaVuSans-117"/>
     <use x="289.953125" xlink:href="#DejaVuSans-101"/>
    </g>
   </g>
   <g id="line2d_92">
    <path d="M 1310.251562 353.000313 
L 1330.251562 353.000313 
" style="fill:none;stroke:#ffff14;stroke-linecap:square;stroke-width:1.5;"/>
   </g>
   <g id="line2d_93"/>
   <g id="text_81">
    <!-- q -->
    <g transform="translate(1338.251562 356.500313)scale(0.1 -0.1)">
     <use xlink:href="#DejaVuSans-113"/>
    </g>
   </g>
   <g id="line2d_94">
    <path d="M 1310.251562 367.678437 
L 1330.251562 367.678437 
" style="fill:none;stroke:#014d4e;stroke-linecap:square;stroke-width:1.5;"/>
   </g>
   <g id="line2d_95"/>
   <g id="text_82">
    <!-- q_des -->
    <defs>
     <path d="M 50.984375 -16.609375 
L 50.984375 -23.578125 
L -0.984375 -23.578125 
L -0.984375 -16.609375 
z
" id="DejaVuSans-95"/>
     <path d="M 45.40625 46.390625 
L 45.40625 75.984375 
L 54.390625 75.984375 
L 54.390625 0 
L 45.40625 0 
L 45.40625 8.203125 
Q 42.578125 3.328125 38.25 0.953125 
Q 33.9375 -1.421875 27.875 -1.421875 
Q 17.96875 -1.421875 11.734375 6.484375 
Q 5.515625 14.40625 5.515625 27.296875 
Q 5.515625 40.1875 11.734375 48.09375 
Q 17.96875 56 27.875 56 
Q 33.9375 56 38.25 53.625 
Q 42.578125 51.265625 45.40625 46.390625 
z
M 14.796875 27.296875 
Q 14.796875 17.390625 18.875 11.75 
Q 22.953125 6.109375 30.078125 6.109375 
Q 37.203125 6.109375 41.296875 11.75 
Q 45.40625 17.390625 45.40625 27.296875 
Q 45.40625 37.203125 41.296875 42.84375 
Q 37.203125 48.484375 30.078125 48.484375 
Q 22.953125 48.484375 18.875 42.84375 
Q 14.796875 37.203125 14.796875 27.296875 
z
" id="DejaVuSans-100"/>
     <path d="M 44.28125 53.078125 
L 44.28125 44.578125 
Q 40.484375 46.53125 36.375 47.5 
Q 32.28125 48.484375 27.875 48.484375 
Q 21.1875 48.484375 17.84375 46.4375 
Q 14.5 44.390625 14.5 40.28125 
Q 14.5 37.15625 16.890625 35.375 
Q 19.28125 33.59375 26.515625 31.984375 
L 29.59375 31.296875 
Q 39.15625 29.25 43.1875 25.515625 
Q 47.21875 21.78125 47.21875 15.09375 
Q 47.21875 7.46875 41.1875 3.015625 
Q 35.15625 -1.421875 24.609375 -1.421875 
Q 20.21875 -1.421875 15.453125 -0.5625 
Q 10.6875 0.296875 5.421875 2 
L 5.421875 11.28125 
Q 10.40625 8.6875 15.234375 7.390625 
Q 20.0625 6.109375 24.8125 6.109375 
Q 31.15625 6.109375 34.5625 8.28125 
Q 37.984375 10.453125 37.984375 14.40625 
Q 37.984375 18.0625 35.515625 20.015625 
Q 33.0625 21.96875 24.703125 23.78125 
L 21.578125 24.515625 
Q 13.234375 26.265625 9.515625 29.90625 
Q 5.8125 33.546875 5.8125 39.890625 
Q 5.8125 47.609375 11.28125 51.796875 
Q 16.75 56 26.8125 56 
Q 31.78125 56 36.171875 55.265625 
Q 40.578125 54.546875 44.28125 53.078125 
z
" id="DejaVuSans-115"/>
    </defs>
    <g transform="translate(1338.251562 371.178437)scale(0.1 -0.1)">
     <use xlink:href="#DejaVuSans-113"/>
     <use x="63.476562" xlink:href="#DejaVuSans-95"/>
     <use x="113.476562" xlink:href="#DejaVuSans-100"/>
     <use x="176.953125" xlink:href="#DejaVuSans-101"/>
     <use x="238.476562" xlink:href="#DejaVuSans-115"/>
    </g>
   </g>
  </g>
 </g>
 <defs>
  <clipPath id="pea2fe49f47">
   <rect height="247.716" width="315.105882" x="172.8" y="84.9312"/>
  </clipPath>
  <clipPath id="pa136098f1b">
   <rect height="247.716" width="315.105882" x="550.927059" y="84.9312"/>
  </clipPath>
  <clipPath id="p84018bd364">
   <rect height="247.716" width="315.105882" x="929.054118" y="84.9312"/>
  </clipPath>
  <clipPath id="p8f70abf461">
   <rect height="247.716" width="315.105882" x="172.8" y="382.1904"/>
  </clipPath>
  <clipPath id="p5402f31391">
   <rect height="247.716" width="315.105882" x="550.927059" y="382.1904"/>
  </clipPath>
 </defs>
</svg>
