<?xml version="1.0" encoding="utf-8" standalone="no"?>
<!DOCTYPE svg PUBLIC "-//W3C//DTD SVG 1.1//EN"
  "http://www.w3.org/Graphics/SVG/1.1/DTD/svg11.dtd">
<!-- Created with matplotlib (https://matplotlib.org/) -->
<svg height="707.76pt" version="1.1" viewBox="0 0 1382.4 707.76" width="1382.4pt" xmlns="http://www.w3.org/2000/svg" xmlns:xlink="http://www.w3.org/1999/xlink">
 <defs>
  <style type="text/css">
*{stroke-linecap:butt;stroke-linejoin:round;}
  </style>
 </defs>
 <g id="figure_1">
  <g id="patch_1">
   <path d="M 0 707.76 
L 1382.4 707.76 
L 1382.4 0 
L 0 0 
z
" style="fill:#ffffff;"/>
  </g>
  <g id="axes_1">
   <g id="patch_2">
    <path d="M 172.8 332.6472 
L 659.781818 332.6472 
L 659.781818 84.9312 
L 172.8 84.9312 
z
" style="fill:#ffffff;"/>
   </g>
   <g id="matplotlib.axis_1">
    <g id="xtick_1">
     <g id="line2d_1">
      <defs>
       <path d="M 0 0 
L 0 3.5 
" id="m4e0af0372a" style="stroke:#000000;stroke-width:0.8;"/>
      </defs>
      <g>
       <use style="stroke:#000000;stroke-width:0.8;" x="194.935537" xlink:href="#m4e0af0372a" y="332.6472"/>
      </g>
     </g>
     <g id="text_1">
      <!-- 0 -->
      <defs>
       <path d="M 31.78125 66.40625 
Q 24.171875 66.40625 20.328125 58.90625 
Q 16.5 51.421875 16.5 36.375 
Q 16.5 21.390625 20.328125 13.890625 
Q 24.171875 6.390625 31.78125 6.390625 
Q 39.453125 6.390625 43.28125 13.890625 
Q 47.125 21.390625 47.125 36.375 
Q 47.125 51.421875 43.28125 58.90625 
Q 39.453125 66.40625 31.78125 66.40625 
z
M 31.78125 74.21875 
Q 44.046875 74.21875 50.515625 64.515625 
Q 56.984375 54.828125 56.984375 36.375 
Q 56.984375 17.96875 50.515625 8.265625 
Q 44.046875 -1.421875 31.78125 -1.421875 
Q 19.53125 -1.421875 13.0625 8.265625 
Q 6.59375 17.96875 6.59375 36.375 
Q 6.59375 54.828125 13.0625 64.515625 
Q 19.53125 74.21875 31.78125 74.21875 
z
" id="DejaVuSans-48"/>
      </defs>
      <g transform="translate(191.754287 347.245637)scale(0.1 -0.1)">
       <use xlink:href="#DejaVuSans-48"/>
      </g>
     </g>
    </g>
    <g id="xtick_2">
     <g id="line2d_2">
      <g>
       <use style="stroke:#000000;stroke-width:0.8;" x="289.937843" xlink:href="#m4e0af0372a" y="332.6472"/>
      </g>
     </g>
     <g id="text_2">
      <!-- 50 -->
      <defs>
       <path d="M 10.796875 72.90625 
L 49.515625 72.90625 
L 49.515625 64.59375 
L 19.828125 64.59375 
L 19.828125 46.734375 
Q 21.96875 47.46875 24.109375 47.828125 
Q 26.265625 48.1875 28.421875 48.1875 
Q 40.625 48.1875 47.75 41.5 
Q 54.890625 34.8125 54.890625 23.390625 
Q 54.890625 11.625 47.5625 5.09375 
Q 40.234375 -1.421875 26.90625 -1.421875 
Q 22.3125 -1.421875 17.546875 -0.640625 
Q 12.796875 0.140625 7.71875 1.703125 
L 7.71875 11.625 
Q 12.109375 9.234375 16.796875 8.0625 
Q 21.484375 6.890625 26.703125 6.890625 
Q 35.15625 6.890625 40.078125 11.328125 
Q 45.015625 15.765625 45.015625 23.390625 
Q 45.015625 31 40.078125 35.4375 
Q 35.15625 39.890625 26.703125 39.890625 
Q 22.75 39.890625 18.8125 39.015625 
Q 14.890625 38.140625 10.796875 36.28125 
z
" id="DejaVuSans-53"/>
      </defs>
      <g transform="translate(283.575343 347.245637)scale(0.1 -0.1)">
       <use xlink:href="#DejaVuSans-53"/>
       <use x="63.623047" xlink:href="#DejaVuSans-48"/>
      </g>
     </g>
    </g>
    <g id="xtick_3">
     <g id="line2d_3">
      <g>
       <use style="stroke:#000000;stroke-width:0.8;" x="384.940148" xlink:href="#m4e0af0372a" y="332.6472"/>
      </g>
     </g>
     <g id="text_3">
      <!-- 100 -->
      <defs>
       <path d="M 12.40625 8.296875 
L 28.515625 8.296875 
L 28.515625 63.921875 
L 10.984375 60.40625 
L 10.984375 69.390625 
L 28.421875 72.90625 
L 38.28125 72.90625 
L 38.28125 8.296875 
L 54.390625 8.296875 
L 54.390625 0 
L 12.40625 0 
z
" id="DejaVuSans-49"/>
      </defs>
      <g transform="translate(375.396398 347.245637)scale(0.1 -0.1)">
       <use xlink:href="#DejaVuSans-49"/>
       <use x="63.623047" xlink:href="#DejaVuSans-48"/>
       <use x="127.246094" xlink:href="#DejaVuSans-48"/>
      </g>
     </g>
    </g>
    <g id="xtick_4">
     <g id="line2d_4">
      <g>
       <use style="stroke:#000000;stroke-width:0.8;" x="479.942454" xlink:href="#m4e0af0372a" y="332.6472"/>
      </g>
     </g>
     <g id="text_4">
      <!-- 150 -->
      <g transform="translate(470.398704 347.245637)scale(0.1 -0.1)">
       <use xlink:href="#DejaVuSans-49"/>
       <use x="63.623047" xlink:href="#DejaVuSans-53"/>
       <use x="127.246094" xlink:href="#DejaVuSans-48"/>
      </g>
     </g>
    </g>
    <g id="xtick_5">
     <g id="line2d_5">
      <g>
       <use style="stroke:#000000;stroke-width:0.8;" x="574.944759" xlink:href="#m4e0af0372a" y="332.6472"/>
      </g>
     </g>
     <g id="text_5">
      <!-- 200 -->
      <defs>
       <path d="M 19.1875 8.296875 
L 53.609375 8.296875 
L 53.609375 0 
L 7.328125 0 
L 7.328125 8.296875 
Q 12.9375 14.109375 22.625 23.890625 
Q 32.328125 33.6875 34.8125 36.53125 
Q 39.546875 41.84375 41.421875 45.53125 
Q 43.3125 49.21875 43.3125 52.78125 
Q 43.3125 58.59375 39.234375 62.25 
Q 35.15625 65.921875 28.609375 65.921875 
Q 23.96875 65.921875 18.8125 64.3125 
Q 13.671875 62.703125 7.8125 59.421875 
L 7.8125 69.390625 
Q 13.765625 71.78125 18.9375 73 
Q 24.125 74.21875 28.421875 74.21875 
Q 39.75 74.21875 46.484375 68.546875 
Q 53.21875 62.890625 53.21875 53.421875 
Q 53.21875 48.921875 51.53125 44.890625 
Q 49.859375 40.875 45.40625 35.40625 
Q 44.1875 33.984375 37.640625 27.21875 
Q 31.109375 20.453125 19.1875 8.296875 
z
" id="DejaVuSans-50"/>
      </defs>
      <g transform="translate(565.401009 347.245637)scale(0.1 -0.1)">
       <use xlink:href="#DejaVuSans-50"/>
       <use x="63.623047" xlink:href="#DejaVuSans-48"/>
       <use x="127.246094" xlink:href="#DejaVuSans-48"/>
      </g>
     </g>
    </g>
   </g>
   <g id="matplotlib.axis_2">
    <g id="ytick_1">
     <g id="line2d_6">
      <defs>
       <path d="M 0 0 
L -3.5 0 
" id="mdfe3497f90" style="stroke:#000000;stroke-width:0.8;"/>
      </defs>
      <g>
       <use style="stroke:#000000;stroke-width:0.8;" x="172.8" xlink:href="#mdfe3497f90" y="298.493146"/>
      </g>
     </g>
     <g id="text_6">
      <!-- −80 -->
      <defs>
       <path d="M 10.59375 35.5 
L 73.1875 35.5 
L 73.1875 27.203125 
L 10.59375 27.203125 
z
" id="DejaVuSans-8722"/>
       <path d="M 31.78125 34.625 
Q 24.75 34.625 20.71875 30.859375 
Q 16.703125 27.09375 16.703125 20.515625 
Q 16.703125 13.921875 20.71875 10.15625 
Q 24.75 6.390625 31.78125 6.390625 
Q 38.8125 6.390625 42.859375 10.171875 
Q 46.921875 13.96875 46.921875 20.515625 
Q 46.921875 27.09375 42.890625 30.859375 
Q 38.875 34.625 31.78125 34.625 
z
M 21.921875 38.8125 
Q 15.578125 40.375 12.03125 44.71875 
Q 8.5 49.078125 8.5 55.328125 
Q 8.5 64.0625 14.71875 69.140625 
Q 20.953125 74.21875 31.78125 74.21875 
Q 42.671875 74.21875 48.875 69.140625 
Q 55.078125 64.0625 55.078125 55.328125 
Q 55.078125 49.078125 51.53125 44.71875 
Q 48 40.375 41.703125 38.8125 
Q 48.828125 37.15625 52.796875 32.3125 
Q 56.78125 27.484375 56.78125 20.515625 
Q 56.78125 9.90625 50.3125 4.234375 
Q 43.84375 -1.421875 31.78125 -1.421875 
Q 19.734375 -1.421875 13.25 4.234375 
Q 6.78125 9.90625 6.78125 20.515625 
Q 6.78125 27.484375 10.78125 32.3125 
Q 14.796875 37.15625 21.921875 38.8125 
z
M 18.3125 54.390625 
Q 18.3125 48.734375 21.84375 45.5625 
Q 25.390625 42.390625 31.78125 42.390625 
Q 38.140625 42.390625 41.71875 45.5625 
Q 45.3125 48.734375 45.3125 54.390625 
Q 45.3125 60.0625 41.71875 63.234375 
Q 38.140625 66.40625 31.78125 66.40625 
Q 25.390625 66.40625 21.84375 63.234375 
Q 18.3125 60.0625 18.3125 54.390625 
z
" id="DejaVuSans-56"/>
      </defs>
      <g transform="translate(144.695312 302.292365)scale(0.1 -0.1)">
       <use xlink:href="#DejaVuSans-8722"/>
       <use x="83.789062" xlink:href="#DejaVuSans-56"/>
       <use x="147.412109" xlink:href="#DejaVuSans-48"/>
      </g>
     </g>
    </g>
    <g id="ytick_2">
     <g id="line2d_7">
      <g>
       <use style="stroke:#000000;stroke-width:0.8;" x="172.8" xlink:href="#mdfe3497f90" y="248.164664"/>
      </g>
     </g>
     <g id="text_7">
      <!-- −60 -->
      <defs>
       <path d="M 33.015625 40.375 
Q 26.375 40.375 22.484375 35.828125 
Q 18.609375 31.296875 18.609375 23.390625 
Q 18.609375 15.53125 22.484375 10.953125 
Q 26.375 6.390625 33.015625 6.390625 
Q 39.65625 6.390625 43.53125 10.953125 
Q 47.40625 15.53125 47.40625 23.390625 
Q 47.40625 31.296875 43.53125 35.828125 
Q 39.65625 40.375 33.015625 40.375 
z
M 52.59375 71.296875 
L 52.59375 62.3125 
Q 48.875 64.0625 45.09375 64.984375 
Q 41.3125 65.921875 37.59375 65.921875 
Q 27.828125 65.921875 22.671875 59.328125 
Q 17.53125 52.734375 16.796875 39.40625 
Q 19.671875 43.65625 24.015625 45.921875 
Q 28.375 48.1875 33.59375 48.1875 
Q 44.578125 48.1875 50.953125 41.515625 
Q 57.328125 34.859375 57.328125 23.390625 
Q 57.328125 12.15625 50.6875 5.359375 
Q 44.046875 -1.421875 33.015625 -1.421875 
Q 20.359375 -1.421875 13.671875 8.265625 
Q 6.984375 17.96875 6.984375 36.375 
Q 6.984375 53.65625 15.1875 63.9375 
Q 23.390625 74.21875 37.203125 74.21875 
Q 40.921875 74.21875 44.703125 73.484375 
Q 48.484375 72.75 52.59375 71.296875 
z
" id="DejaVuSans-54"/>
      </defs>
      <g transform="translate(144.695312 251.963882)scale(0.1 -0.1)">
       <use xlink:href="#DejaVuSans-8722"/>
       <use x="83.789062" xlink:href="#DejaVuSans-54"/>
       <use x="147.412109" xlink:href="#DejaVuSans-48"/>
      </g>
     </g>
    </g>
    <g id="ytick_3">
     <g id="line2d_8">
      <g>
       <use style="stroke:#000000;stroke-width:0.8;" x="172.8" xlink:href="#mdfe3497f90" y="197.836181"/>
      </g>
     </g>
     <g id="text_8">
      <!-- −40 -->
      <defs>
       <path d="M 37.796875 64.3125 
L 12.890625 25.390625 
L 37.796875 25.390625 
z
M 35.203125 72.90625 
L 47.609375 72.90625 
L 47.609375 25.390625 
L 58.015625 25.390625 
L 58.015625 17.1875 
L 47.609375 17.1875 
L 47.609375 0 
L 37.796875 0 
L 37.796875 17.1875 
L 4.890625 17.1875 
L 4.890625 26.703125 
z
" id="DejaVuSans-52"/>
      </defs>
      <g transform="translate(144.695312 201.6354)scale(0.1 -0.1)">
       <use xlink:href="#DejaVuSans-8722"/>
       <use x="83.789062" xlink:href="#DejaVuSans-52"/>
       <use x="147.412109" xlink:href="#DejaVuSans-48"/>
      </g>
     </g>
    </g>
    <g id="ytick_4">
     <g id="line2d_9">
      <g>
       <use style="stroke:#000000;stroke-width:0.8;" x="172.8" xlink:href="#mdfe3497f90" y="147.507698"/>
      </g>
     </g>
     <g id="text_9">
      <!-- −20 -->
      <g transform="translate(144.695312 151.306917)scale(0.1 -0.1)">
       <use xlink:href="#DejaVuSans-8722"/>
       <use x="83.789062" xlink:href="#DejaVuSans-50"/>
       <use x="147.412109" xlink:href="#DejaVuSans-48"/>
      </g>
     </g>
    </g>
    <g id="ytick_5">
     <g id="line2d_10">
      <g>
       <use style="stroke:#000000;stroke-width:0.8;" x="172.8" xlink:href="#mdfe3497f90" y="97.179216"/>
      </g>
     </g>
     <g id="text_10">
      <!-- 0 -->
      <g transform="translate(159.4375 100.978434)scale(0.1 -0.1)">
       <use xlink:href="#DejaVuSans-48"/>
      </g>
     </g>
    </g>
   </g>
   <g id="line2d_11">
    <path clip-path="url(#p7df7a57bf8)" d="M 194.935537 97.174159 
L 202.535722 97.291013 
L 208.23586 97.193498 
L 213.935998 97.32923 
L 221.536183 97.201222 
L 227.236321 97.310148 
L 232.936459 97.163203 
L 240.536644 97.29521 
L 246.236782 97.176107 
L 253.836967 97.29294 
L 259.537105 97.192945 
L 265.237243 97.315026 
L 272.837428 97.192571 
L 276.63752 97.307242 
L 288.037797 97.298446 
L 291.837889 97.285842 
L 295.637981 97.174016 
L 305.138212 97.26035 
L 308.938304 97.163557 
L 316.538488 97.290774 
L 322.238627 97.162909 
L 329.838811 97.295979 
L 335.538949 97.201564 
L 341.239088 97.357396 
L 348.839272 97.215022 
L 354.53941 97.34652 
L 362.139595 97.199862 
L 369.739779 97.331947 
L 375.439918 97.22912 
L 384.940148 97.371538 
L 390.640287 97.287482 
L 398.240471 97.42466 
L 407.740702 97.322979 
L 413.44084 97.440124 
L 424.841117 97.412191 
L 430.541255 97.540988 
L 443.841578 97.566074 
L 449.541716 97.639401 
L 460.941993 97.603156 
L 470.442223 97.733983 
L 479.942454 97.766135 
L 491.34273 98.018426 
L 500.842961 98.121973 
L 504.643053 98.252243 
L 506.543099 100.086321 
L 508.443145 101.554833 
L 510.343192 102.427408 
L 512.243238 102.632215 
L 514.143284 102.290534 
L 517.943376 101.125324 
L 519.843422 100.989311 
L 521.743468 101.470752 
L 523.643514 102.518575 
L 525.54356 103.830667 
L 527.443607 104.947277 
L 529.343653 105.397903 
L 531.243699 104.873351 
L 533.143745 103.347137 
L 535.043791 101.117968 
L 538.843883 120.409595 
L 540.743929 128.516653 
L 542.643975 134.555105 
L 544.544022 138.089305 
L 546.444068 139.192125 
L 548.344114 139.706083 
L 552.144206 140.256603 
L 554.044252 141.462264 
L 555.944298 144.128388 
L 557.844344 148.373715 
L 559.74439 154.057754 
L 561.644437 160.940779 
L 565.444529 175.856795 
L 567.344575 182.490122 
L 569.244621 187.879631 
L 573.044713 195.755062 
L 574.944759 197.890086 
L 576.844805 199.104836 
L 578.744852 200.79071 
L 580.644898 203.537514 
L 582.544944 207.888136 
L 584.44499 213.587278 
L 586.345036 220.396241 
L 592.045174 243.213754 
L 593.94522 249.282662 
L 595.845267 253.936479 
L 597.745313 257.292196 
L 599.645359 258.69069 
L 601.545405 260.45795 
L 603.445451 261.156958 
L 605.345497 262.935121 
L 607.245543 266.16649 
L 609.145589 270.802772 
L 612.945682 282.073651 
L 614.845728 285.057972 
L 616.745774 287.559298 
L 618.64582 289.106499 
L 620.545866 289.57743 
L 624.345958 289.056914 
L 626.246004 289.483927 
L 628.14605 291.007757 
L 630.046097 294.421598 
L 631.946143 299.914935 
L 635.746235 314.925037 
L 637.646281 321.387382 
L 637.646281 321.387382 
" style="fill:none;stroke:#ff796c;stroke-linecap:square;stroke-width:1.5;"/>
   </g>
   <g id="line2d_12">
    <path clip-path="url(#p7df7a57bf8)" d="M 194.935537 96.199581 
L 236.736552 96.307909 
L 280.437612 96.63506 
L 333.638903 97.274743 
L 402.040563 98.337858 
L 512.243238 100.288376 
L 529.343653 100.8386 
L 536.943837 101.144361 
L 588.245082 101.185939 
L 607.245543 101.319852 
L 637.646281 101.758689 
L 637.646281 101.758689 
" style="fill:none;stroke:#ffff14;stroke-linecap:square;stroke-width:1.5;"/>
   </g>
   <g id="line2d_13">
    <path clip-path="url(#p7df7a57bf8)" d="M 194.935537 96.191018 
L 236.736552 96.297999 
L 280.437612 96.628335 
L 329.838811 97.230942 
L 394.440379 98.265217 
L 514.143284 100.223964 
L 563.544483 100.784246 
L 607.245543 101.067939 
L 637.646281 101.131783 
L 637.646281 101.131783 
" style="fill:none;stroke:#014d4e;stroke-linecap:square;stroke-width:1.5;"/>
   </g>
   <g id="line2d_14">
    <path clip-path="url(#p7df7a57bf8)" d="M 194.935537 97.170653 
L 510.343192 97.108664 
L 525.54356 96.861347 
L 533.143745 96.611876 
L 535.043791 96.520363 
L 571.144667 96.890059 
L 601.545405 96.978832 
L 635.746235 96.571917 
L 637.646281 96.552309 
L 637.646281 96.552309 
" style="fill:none;stroke:#e50000;stroke-linecap:square;stroke-width:1.5;"/>
   </g>
   <g id="patch_3">
    <path d="M 172.8 332.6472 
L 172.8 84.9312 
" style="fill:none;stroke:#000000;stroke-linecap:square;stroke-linejoin:miter;stroke-width:0.8;"/>
   </g>
   <g id="patch_4">
    <path d="M 659.781818 332.6472 
L 659.781818 84.9312 
" style="fill:none;stroke:#000000;stroke-linecap:square;stroke-linejoin:miter;stroke-width:0.8;"/>
   </g>
   <g id="patch_5">
    <path d="M 172.8 332.6472 
L 659.781818 332.6472 
" style="fill:none;stroke:#000000;stroke-linecap:square;stroke-linejoin:miter;stroke-width:0.8;"/>
   </g>
   <g id="patch_6">
    <path d="M 172.8 84.9312 
L 659.781818 84.9312 
" style="fill:none;stroke:#000000;stroke-linecap:square;stroke-linejoin:miter;stroke-width:0.8;"/>
   </g>
   <g id="text_11">
    <!-- Right abduction -->
    <defs>
     <path d="M 44.390625 34.1875 
Q 47.5625 33.109375 50.5625 29.59375 
Q 53.5625 26.078125 56.59375 19.921875 
L 66.609375 0 
L 56 0 
L 46.6875 18.703125 
Q 43.0625 26.03125 39.671875 28.421875 
Q 36.28125 30.8125 30.421875 30.8125 
L 19.671875 30.8125 
L 19.671875 0 
L 9.8125 0 
L 9.8125 72.90625 
L 32.078125 72.90625 
Q 44.578125 72.90625 50.734375 67.671875 
Q 56.890625 62.453125 56.890625 51.90625 
Q 56.890625 45.015625 53.6875 40.46875 
Q 50.484375 35.9375 44.390625 34.1875 
z
M 19.671875 64.796875 
L 19.671875 38.921875 
L 32.078125 38.921875 
Q 39.203125 38.921875 42.84375 42.21875 
Q 46.484375 45.515625 46.484375 51.90625 
Q 46.484375 58.296875 42.84375 61.546875 
Q 39.203125 64.796875 32.078125 64.796875 
z
" id="DejaVuSans-82"/>
     <path d="M 9.421875 54.6875 
L 18.40625 54.6875 
L 18.40625 0 
L 9.421875 0 
z
M 9.421875 75.984375 
L 18.40625 75.984375 
L 18.40625 64.59375 
L 9.421875 64.59375 
z
" id="DejaVuSans-105"/>
     <path d="M 45.40625 27.984375 
Q 45.40625 37.75 41.375 43.109375 
Q 37.359375 48.484375 30.078125 48.484375 
Q 22.859375 48.484375 18.828125 43.109375 
Q 14.796875 37.75 14.796875 27.984375 
Q 14.796875 18.265625 18.828125 12.890625 
Q 22.859375 7.515625 30.078125 7.515625 
Q 37.359375 7.515625 41.375 12.890625 
Q 45.40625 18.265625 45.40625 27.984375 
z
M 54.390625 6.78125 
Q 54.390625 -7.171875 48.1875 -13.984375 
Q 42 -20.796875 29.203125 -20.796875 
Q 24.46875 -20.796875 20.265625 -20.09375 
Q 16.0625 -19.390625 12.109375 -17.921875 
L 12.109375 -9.1875 
Q 16.0625 -11.328125 19.921875 -12.34375 
Q 23.78125 -13.375 27.78125 -13.375 
Q 36.625 -13.375 41.015625 -8.765625 
Q 45.40625 -4.15625 45.40625 5.171875 
L 45.40625 9.625 
Q 42.625 4.78125 38.28125 2.390625 
Q 33.9375 0 27.875 0 
Q 17.828125 0 11.671875 7.65625 
Q 5.515625 15.328125 5.515625 27.984375 
Q 5.515625 40.671875 11.671875 48.328125 
Q 17.828125 56 27.875 56 
Q 33.9375 56 38.28125 53.609375 
Q 42.625 51.21875 45.40625 46.390625 
L 45.40625 54.6875 
L 54.390625 54.6875 
z
" id="DejaVuSans-103"/>
     <path d="M 54.890625 33.015625 
L 54.890625 0 
L 45.90625 0 
L 45.90625 32.71875 
Q 45.90625 40.484375 42.875 44.328125 
Q 39.84375 48.1875 33.796875 48.1875 
Q 26.515625 48.1875 22.3125 43.546875 
Q 18.109375 38.921875 18.109375 30.90625 
L 18.109375 0 
L 9.078125 0 
L 9.078125 75.984375 
L 18.109375 75.984375 
L 18.109375 46.1875 
Q 21.34375 51.125 25.703125 53.5625 
Q 30.078125 56 35.796875 56 
Q 45.21875 56 50.046875 50.171875 
Q 54.890625 44.34375 54.890625 33.015625 
z
" id="DejaVuSans-104"/>
     <path d="M 18.3125 70.21875 
L 18.3125 54.6875 
L 36.8125 54.6875 
L 36.8125 47.703125 
L 18.3125 47.703125 
L 18.3125 18.015625 
Q 18.3125 11.328125 20.140625 9.421875 
Q 21.96875 7.515625 27.59375 7.515625 
L 36.8125 7.515625 
L 36.8125 0 
L 27.59375 0 
Q 17.1875 0 13.234375 3.875 
Q 9.28125 7.765625 9.28125 18.015625 
L 9.28125 47.703125 
L 2.6875 47.703125 
L 2.6875 54.6875 
L 9.28125 54.6875 
L 9.28125 70.21875 
z
" id="DejaVuSans-116"/>
     <path id="DejaVuSans-32"/>
     <path d="M 34.28125 27.484375 
Q 23.390625 27.484375 19.1875 25 
Q 14.984375 22.515625 14.984375 16.5 
Q 14.984375 11.71875 18.140625 8.90625 
Q 21.296875 6.109375 26.703125 6.109375 
Q 34.1875 6.109375 38.703125 11.40625 
Q 43.21875 16.703125 43.21875 25.484375 
L 43.21875 27.484375 
z
M 52.203125 31.203125 
L 52.203125 0 
L 43.21875 0 
L 43.21875 8.296875 
Q 40.140625 3.328125 35.546875 0.953125 
Q 30.953125 -1.421875 24.3125 -1.421875 
Q 15.921875 -1.421875 10.953125 3.296875 
Q 6 8.015625 6 15.921875 
Q 6 25.140625 12.171875 29.828125 
Q 18.359375 34.515625 30.609375 34.515625 
L 43.21875 34.515625 
L 43.21875 35.40625 
Q 43.21875 41.609375 39.140625 45 
Q 35.0625 48.390625 27.6875 48.390625 
Q 23 48.390625 18.546875 47.265625 
Q 14.109375 46.140625 10.015625 43.890625 
L 10.015625 52.203125 
Q 14.9375 54.109375 19.578125 55.046875 
Q 24.21875 56 28.609375 56 
Q 40.484375 56 46.34375 49.84375 
Q 52.203125 43.703125 52.203125 31.203125 
z
" id="DejaVuSans-97"/>
     <path d="M 48.6875 27.296875 
Q 48.6875 37.203125 44.609375 42.84375 
Q 40.53125 48.484375 33.40625 48.484375 
Q 26.265625 48.484375 22.1875 42.84375 
Q 18.109375 37.203125 18.109375 27.296875 
Q 18.109375 17.390625 22.1875 11.75 
Q 26.265625 6.109375 33.40625 6.109375 
Q 40.53125 6.109375 44.609375 11.75 
Q 48.6875 17.390625 48.6875 27.296875 
z
M 18.109375 46.390625 
Q 20.953125 51.265625 25.265625 53.625 
Q 29.59375 56 35.59375 56 
Q 45.5625 56 51.78125 48.09375 
Q 58.015625 40.1875 58.015625 27.296875 
Q 58.015625 14.40625 51.78125 6.484375 
Q 45.5625 -1.421875 35.59375 -1.421875 
Q 29.59375 -1.421875 25.265625 0.953125 
Q 20.953125 3.328125 18.109375 8.203125 
L 18.109375 0 
L 9.078125 0 
L 9.078125 75.984375 
L 18.109375 75.984375 
z
" id="DejaVuSans-98"/>
     <path d="M 45.40625 46.390625 
L 45.40625 75.984375 
L 54.390625 75.984375 
L 54.390625 0 
L 45.40625 0 
L 45.40625 8.203125 
Q 42.578125 3.328125 38.25 0.953125 
Q 33.9375 -1.421875 27.875 -1.421875 
Q 17.96875 -1.421875 11.734375 6.484375 
Q 5.515625 14.40625 5.515625 27.296875 
Q 5.515625 40.1875 11.734375 48.09375 
Q 17.96875 56 27.875 56 
Q 33.9375 56 38.25 53.625 
Q 42.578125 51.265625 45.40625 46.390625 
z
M 14.796875 27.296875 
Q 14.796875 17.390625 18.875 11.75 
Q 22.953125 6.109375 30.078125 6.109375 
Q 37.203125 6.109375 41.296875 11.75 
Q 45.40625 17.390625 45.40625 27.296875 
Q 45.40625 37.203125 41.296875 42.84375 
Q 37.203125 48.484375 30.078125 48.484375 
Q 22.953125 48.484375 18.875 42.84375 
Q 14.796875 37.203125 14.796875 27.296875 
z
" id="DejaVuSans-100"/>
     <path d="M 8.5 21.578125 
L 8.5 54.6875 
L 17.484375 54.6875 
L 17.484375 21.921875 
Q 17.484375 14.15625 20.5 10.265625 
Q 23.53125 6.390625 29.59375 6.390625 
Q 36.859375 6.390625 41.078125 11.03125 
Q 45.3125 15.671875 45.3125 23.6875 
L 45.3125 54.6875 
L 54.296875 54.6875 
L 54.296875 0 
L 45.3125 0 
L 45.3125 8.40625 
Q 42.046875 3.421875 37.71875 1 
Q 33.40625 -1.421875 27.6875 -1.421875 
Q 18.265625 -1.421875 13.375 4.4375 
Q 8.5 10.296875 8.5 21.578125 
z
M 31.109375 56 
z
" id="DejaVuSans-117"/>
     <path d="M 48.78125 52.59375 
L 48.78125 44.1875 
Q 44.96875 46.296875 41.140625 47.34375 
Q 37.3125 48.390625 33.40625 48.390625 
Q 24.65625 48.390625 19.8125 42.84375 
Q 14.984375 37.3125 14.984375 27.296875 
Q 14.984375 17.28125 19.8125 11.734375 
Q 24.65625 6.203125 33.40625 6.203125 
Q 37.3125 6.203125 41.140625 7.25 
Q 44.96875 8.296875 48.78125 10.40625 
L 48.78125 2.09375 
Q 45.015625 0.34375 40.984375 -0.53125 
Q 36.96875 -1.421875 32.421875 -1.421875 
Q 20.0625 -1.421875 12.78125 6.34375 
Q 5.515625 14.109375 5.515625 27.296875 
Q 5.515625 40.671875 12.859375 48.328125 
Q 20.21875 56 33.015625 56 
Q 37.15625 56 41.109375 55.140625 
Q 45.0625 54.296875 48.78125 52.59375 
z
" id="DejaVuSans-99"/>
     <path d="M 30.609375 48.390625 
Q 23.390625 48.390625 19.1875 42.75 
Q 14.984375 37.109375 14.984375 27.296875 
Q 14.984375 17.484375 19.15625 11.84375 
Q 23.34375 6.203125 30.609375 6.203125 
Q 37.796875 6.203125 41.984375 11.859375 
Q 46.1875 17.53125 46.1875 27.296875 
Q 46.1875 37.015625 41.984375 42.703125 
Q 37.796875 48.390625 30.609375 48.390625 
z
M 30.609375 56 
Q 42.328125 56 49.015625 48.375 
Q 55.71875 40.765625 55.71875 27.296875 
Q 55.71875 13.875 49.015625 6.21875 
Q 42.328125 -1.421875 30.609375 -1.421875 
Q 18.84375 -1.421875 12.171875 6.21875 
Q 5.515625 13.875 5.515625 27.296875 
Q 5.515625 40.765625 12.171875 48.375 
Q 18.84375 56 30.609375 56 
z
" id="DejaVuSans-111"/>
     <path d="M 54.890625 33.015625 
L 54.890625 0 
L 45.90625 0 
L 45.90625 32.71875 
Q 45.90625 40.484375 42.875 44.328125 
Q 39.84375 48.1875 33.796875 48.1875 
Q 26.515625 48.1875 22.3125 43.546875 
Q 18.109375 38.921875 18.109375 30.90625 
L 18.109375 0 
L 9.078125 0 
L 9.078125 54.6875 
L 18.109375 54.6875 
L 18.109375 46.1875 
Q 21.34375 51.125 25.703125 53.5625 
Q 30.078125 56 35.796875 56 
Q 45.21875 56 50.046875 50.171875 
Q 54.890625 44.34375 54.890625 33.015625 
z
" id="DejaVuSans-110"/>
    </defs>
    <g transform="translate(368.694972 78.9312)scale(0.12 -0.12)">
     <use xlink:href="#DejaVuSans-82"/>
     <use x="69.482422" xlink:href="#DejaVuSans-105"/>
     <use x="97.265625" xlink:href="#DejaVuSans-103"/>
     <use x="160.742188" xlink:href="#DejaVuSans-104"/>
     <use x="224.121094" xlink:href="#DejaVuSans-116"/>
     <use x="263.330078" xlink:href="#DejaVuSans-32"/>
     <use x="295.117188" xlink:href="#DejaVuSans-97"/>
     <use x="356.396484" xlink:href="#DejaVuSans-98"/>
     <use x="419.873047" xlink:href="#DejaVuSans-100"/>
     <use x="483.349609" xlink:href="#DejaVuSans-117"/>
     <use x="546.728516" xlink:href="#DejaVuSans-99"/>
     <use x="601.708984" xlink:href="#DejaVuSans-116"/>
     <use x="640.917969" xlink:href="#DejaVuSans-105"/>
     <use x="668.701172" xlink:href="#DejaVuSans-111"/>
     <use x="729.882812" xlink:href="#DejaVuSans-110"/>
    </g>
   </g>
  </g>
  <g id="axes_2">
   <g id="patch_7">
    <path d="M 757.178182 332.6472 
L 1244.16 332.6472 
L 1244.16 84.9312 
L 757.178182 84.9312 
z
" style="fill:#ffffff;"/>
   </g>
   <g id="matplotlib.axis_3">
    <g id="xtick_6">
     <g id="line2d_15">
      <g>
       <use style="stroke:#000000;stroke-width:0.8;" x="779.313719" xlink:href="#m4e0af0372a" y="332.6472"/>
      </g>
     </g>
     <g id="text_12">
      <!-- 0 -->
      <g transform="translate(776.132469 347.245637)scale(0.1 -0.1)">
       <use xlink:href="#DejaVuSans-48"/>
      </g>
     </g>
    </g>
    <g id="xtick_7">
     <g id="line2d_16">
      <g>
       <use style="stroke:#000000;stroke-width:0.8;" x="874.316025" xlink:href="#m4e0af0372a" y="332.6472"/>
      </g>
     </g>
     <g id="text_13">
      <!-- 50 -->
      <g transform="translate(867.953525 347.245637)scale(0.1 -0.1)">
       <use xlink:href="#DejaVuSans-53"/>
       <use x="63.623047" xlink:href="#DejaVuSans-48"/>
      </g>
     </g>
    </g>
    <g id="xtick_8">
     <g id="line2d_17">
      <g>
       <use style="stroke:#000000;stroke-width:0.8;" x="969.31833" xlink:href="#m4e0af0372a" y="332.6472"/>
      </g>
     </g>
     <g id="text_14">
      <!-- 100 -->
      <g transform="translate(959.77458 347.245637)scale(0.1 -0.1)">
       <use xlink:href="#DejaVuSans-49"/>
       <use x="63.623047" xlink:href="#DejaVuSans-48"/>
       <use x="127.246094" xlink:href="#DejaVuSans-48"/>
      </g>
     </g>
    </g>
    <g id="xtick_9">
     <g id="line2d_18">
      <g>
       <use style="stroke:#000000;stroke-width:0.8;" x="1064.320636" xlink:href="#m4e0af0372a" y="332.6472"/>
      </g>
     </g>
     <g id="text_15">
      <!-- 150 -->
      <g transform="translate(1054.776886 347.245637)scale(0.1 -0.1)">
       <use xlink:href="#DejaVuSans-49"/>
       <use x="63.623047" xlink:href="#DejaVuSans-53"/>
       <use x="127.246094" xlink:href="#DejaVuSans-48"/>
      </g>
     </g>
    </g>
    <g id="xtick_10">
     <g id="line2d_19">
      <g>
       <use style="stroke:#000000;stroke-width:0.8;" x="1159.322941" xlink:href="#m4e0af0372a" y="332.6472"/>
      </g>
     </g>
     <g id="text_16">
      <!-- 200 -->
      <g transform="translate(1149.779191 347.245637)scale(0.1 -0.1)">
       <use xlink:href="#DejaVuSans-50"/>
       <use x="63.623047" xlink:href="#DejaVuSans-48"/>
       <use x="127.246094" xlink:href="#DejaVuSans-48"/>
      </g>
     </g>
    </g>
   </g>
   <g id="matplotlib.axis_4">
    <g id="ytick_6">
     <g id="line2d_20">
      <g>
       <use style="stroke:#000000;stroke-width:0.8;" x="757.178182" xlink:href="#mdfe3497f90" y="287.945216"/>
      </g>
     </g>
     <g id="text_17">
      <!-- −40 -->
      <g transform="translate(729.073494 291.744435)scale(0.1 -0.1)">
       <use xlink:href="#DejaVuSans-8722"/>
       <use x="83.789062" xlink:href="#DejaVuSans-52"/>
       <use x="147.412109" xlink:href="#DejaVuSans-48"/>
      </g>
     </g>
    </g>
    <g id="ytick_7">
     <g id="line2d_21">
      <g>
       <use style="stroke:#000000;stroke-width:0.8;" x="757.178182" xlink:href="#mdfe3497f90" y="242.128209"/>
      </g>
     </g>
     <g id="text_18">
      <!-- −30 -->
      <defs>
       <path d="M 40.578125 39.3125 
Q 47.65625 37.796875 51.625 33 
Q 55.609375 28.21875 55.609375 21.1875 
Q 55.609375 10.40625 48.1875 4.484375 
Q 40.765625 -1.421875 27.09375 -1.421875 
Q 22.515625 -1.421875 17.65625 -0.515625 
Q 12.796875 0.390625 7.625 2.203125 
L 7.625 11.71875 
Q 11.71875 9.328125 16.59375 8.109375 
Q 21.484375 6.890625 26.8125 6.890625 
Q 36.078125 6.890625 40.9375 10.546875 
Q 45.796875 14.203125 45.796875 21.1875 
Q 45.796875 27.640625 41.28125 31.265625 
Q 36.765625 34.90625 28.71875 34.90625 
L 20.21875 34.90625 
L 20.21875 43.015625 
L 29.109375 43.015625 
Q 36.375 43.015625 40.234375 45.921875 
Q 44.09375 48.828125 44.09375 54.296875 
Q 44.09375 59.90625 40.109375 62.90625 
Q 36.140625 65.921875 28.71875 65.921875 
Q 24.65625 65.921875 20.015625 65.03125 
Q 15.375 64.15625 9.8125 62.3125 
L 9.8125 71.09375 
Q 15.4375 72.65625 20.34375 73.4375 
Q 25.25 74.21875 29.59375 74.21875 
Q 40.828125 74.21875 47.359375 69.109375 
Q 53.90625 64.015625 53.90625 55.328125 
Q 53.90625 49.265625 50.4375 45.09375 
Q 46.96875 40.921875 40.578125 39.3125 
z
" id="DejaVuSans-51"/>
      </defs>
      <g transform="translate(729.073494 245.927428)scale(0.1 -0.1)">
       <use xlink:href="#DejaVuSans-8722"/>
       <use x="83.789062" xlink:href="#DejaVuSans-51"/>
       <use x="147.412109" xlink:href="#DejaVuSans-48"/>
      </g>
     </g>
    </g>
    <g id="ytick_8">
     <g id="line2d_22">
      <g>
       <use style="stroke:#000000;stroke-width:0.8;" x="757.178182" xlink:href="#mdfe3497f90" y="196.311202"/>
      </g>
     </g>
     <g id="text_19">
      <!-- −20 -->
      <g transform="translate(729.073494 200.11042)scale(0.1 -0.1)">
       <use xlink:href="#DejaVuSans-8722"/>
       <use x="83.789062" xlink:href="#DejaVuSans-50"/>
       <use x="147.412109" xlink:href="#DejaVuSans-48"/>
      </g>
     </g>
    </g>
    <g id="ytick_9">
     <g id="line2d_23">
      <g>
       <use style="stroke:#000000;stroke-width:0.8;" x="757.178182" xlink:href="#mdfe3497f90" y="150.494194"/>
      </g>
     </g>
     <g id="text_20">
      <!-- −10 -->
      <g transform="translate(729.073494 154.293413)scale(0.1 -0.1)">
       <use xlink:href="#DejaVuSans-8722"/>
       <use x="83.789062" xlink:href="#DejaVuSans-49"/>
       <use x="147.412109" xlink:href="#DejaVuSans-48"/>
      </g>
     </g>
    </g>
    <g id="ytick_10">
     <g id="line2d_24">
      <g>
       <use style="stroke:#000000;stroke-width:0.8;" x="757.178182" xlink:href="#mdfe3497f90" y="104.677187"/>
      </g>
     </g>
     <g id="text_21">
      <!-- 0 -->
      <g transform="translate(743.815682 108.476406)scale(0.1 -0.1)">
       <use xlink:href="#DejaVuSans-48"/>
      </g>
     </g>
    </g>
   </g>
   <g id="line2d_25">
    <path clip-path="url(#p373e7a6c99)" d="M 779.313719 104.677245 
L 1087.121189 104.782132 
L 1089.021235 104.805127 
L 1092.821327 105.197596 
L 1096.62142 105.827394 
L 1100.421512 106.46047 
L 1102.321558 106.574914 
L 1104.221604 106.499586 
L 1108.021696 105.916067 
L 1111.821788 105.315749 
L 1117.521927 104.983661 
L 1119.421973 104.626953 
L 1123.222065 99.840952 
L 1125.122111 97.891593 
L 1127.022157 96.661693 
L 1128.922203 96.191018 
L 1130.822249 96.506859 
L 1132.722296 97.675579 
L 1134.622342 99.644159 
L 1136.522388 102.31563 
L 1138.422434 105.537951 
L 1142.222526 112.311679 
L 1144.122572 114.757969 
L 1146.022618 116.449963 
L 1147.922664 117.15341 
L 1149.822711 116.708573 
L 1151.722757 115.052426 
L 1153.622803 112.251607 
L 1155.522849 108.607222 
L 1157.422895 105.904202 
L 1159.322941 110.200812 
L 1166.923126 134.170997 
L 1168.823172 139.454011 
L 1170.723218 143.885195 
L 1172.623264 147.252899 
L 1176.423356 156.598993 
L 1178.323402 160.85199 
L 1182.123494 168.559681 
L 1184.023541 173.413808 
L 1197.323863 211.067794 
L 1199.223909 215.116541 
L 1206.824094 244.413637 
L 1208.72414 252.088397 
L 1210.624186 260.384869 
L 1218.224371 301.913003 
L 1222.024463 321.387382 
L 1222.024463 321.387382 
" style="fill:none;stroke:#ff796c;stroke-linecap:square;stroke-width:1.5;"/>
   </g>
   <g id="line2d_26">
    <path clip-path="url(#p373e7a6c99)" d="M 779.313719 102.83297 
L 1096.62142 102.732777 
L 1108.021696 102.595313 
L 1115.621881 102.470004 
L 1119.421973 102.317541 
L 1130.822249 102.679411 
L 1138.422434 102.404847 
L 1144.122572 102.276862 
L 1147.922664 102.450185 
L 1151.722757 102.909141 
L 1155.522849 103.700563 
L 1157.422895 104.181432 
L 1161.222987 104.221343 
L 1170.723218 104.245298 
L 1191.623725 104.636587 
L 1197.323863 104.665187 
L 1199.223909 104.913768 
L 1208.72414 104.741341 
L 1220.124417 104.59883 
L 1222.024463 104.561612 
L 1222.024463 104.561612 
" style="fill:none;stroke:#ffff14;stroke-linecap:square;stroke-width:1.5;"/>
   </g>
   <g id="line2d_27">
    <path clip-path="url(#p373e7a6c99)" d="M 779.313719 102.833775 
L 1222.024463 102.833775 
L 1222.024463 102.833775 
" style="fill:none;stroke:#014d4e;stroke-linecap:square;stroke-width:1.5;"/>
   </g>
   <g id="line2d_28">
    <path clip-path="url(#p373e7a6c99)" d="M 779.313719 104.677992 
L 1096.62142 104.778186 
L 1108.021696 104.915649 
L 1115.621881 105.040958 
L 1119.421973 105.193421 
L 1130.822249 104.831551 
L 1138.422434 105.106116 
L 1144.122572 105.234101 
L 1147.922664 105.060778 
L 1151.722757 104.601821 
L 1155.522849 103.8104 
L 1157.422895 103.32953 
L 1161.222987 103.28962 
L 1170.723218 103.265665 
L 1191.623725 102.874376 
L 1197.323863 102.845775 
L 1199.223909 102.597195 
L 1208.72414 102.769622 
L 1220.124417 102.912132 
L 1222.024463 102.94935 
L 1222.024463 102.94935 
" style="fill:none;stroke:#e50000;stroke-linecap:square;stroke-width:1.5;"/>
   </g>
   <g id="patch_8">
    <path d="M 757.178182 332.6472 
L 757.178182 84.9312 
" style="fill:none;stroke:#000000;stroke-linecap:square;stroke-linejoin:miter;stroke-width:0.8;"/>
   </g>
   <g id="patch_9">
    <path d="M 1244.16 332.6472 
L 1244.16 84.9312 
" style="fill:none;stroke:#000000;stroke-linecap:square;stroke-linejoin:miter;stroke-width:0.8;"/>
   </g>
   <g id="patch_10">
    <path d="M 757.178182 332.6472 
L 1244.16 332.6472 
" style="fill:none;stroke:#000000;stroke-linecap:square;stroke-linejoin:miter;stroke-width:0.8;"/>
   </g>
   <g id="patch_11">
    <path d="M 757.178182 84.9312 
L 1244.16 84.9312 
" style="fill:none;stroke:#000000;stroke-linecap:square;stroke-linejoin:miter;stroke-width:0.8;"/>
   </g>
   <g id="text_22">
    <!-- Right flexion -->
    <defs>
     <path d="M 37.109375 75.984375 
L 37.109375 68.5 
L 28.515625 68.5 
Q 23.6875 68.5 21.796875 66.546875 
Q 19.921875 64.59375 19.921875 59.515625 
L 19.921875 54.6875 
L 34.71875 54.6875 
L 34.71875 47.703125 
L 19.921875 47.703125 
L 19.921875 0 
L 10.890625 0 
L 10.890625 47.703125 
L 2.296875 47.703125 
L 2.296875 54.6875 
L 10.890625 54.6875 
L 10.890625 58.5 
Q 10.890625 67.625 15.140625 71.796875 
Q 19.390625 75.984375 28.609375 75.984375 
z
" id="DejaVuSans-102"/>
     <path d="M 9.421875 75.984375 
L 18.40625 75.984375 
L 18.40625 0 
L 9.421875 0 
z
" id="DejaVuSans-108"/>
     <path d="M 56.203125 29.59375 
L 56.203125 25.203125 
L 14.890625 25.203125 
Q 15.484375 15.921875 20.484375 11.0625 
Q 25.484375 6.203125 34.421875 6.203125 
Q 39.59375 6.203125 44.453125 7.46875 
Q 49.3125 8.734375 54.109375 11.28125 
L 54.109375 2.78125 
Q 49.265625 0.734375 44.1875 -0.34375 
Q 39.109375 -1.421875 33.890625 -1.421875 
Q 20.796875 -1.421875 13.15625 6.1875 
Q 5.515625 13.8125 5.515625 26.8125 
Q 5.515625 40.234375 12.765625 48.109375 
Q 20.015625 56 32.328125 56 
Q 43.359375 56 49.78125 48.890625 
Q 56.203125 41.796875 56.203125 29.59375 
z
M 47.21875 32.234375 
Q 47.125 39.59375 43.09375 43.984375 
Q 39.0625 48.390625 32.421875 48.390625 
Q 24.90625 48.390625 20.390625 44.140625 
Q 15.875 39.890625 15.1875 32.171875 
z
" id="DejaVuSans-101"/>
     <path d="M 54.890625 54.6875 
L 35.109375 28.078125 
L 55.90625 0 
L 45.3125 0 
L 29.390625 21.484375 
L 13.484375 0 
L 2.875 0 
L 24.125 28.609375 
L 4.6875 54.6875 
L 15.28125 54.6875 
L 29.78125 35.203125 
L 44.28125 54.6875 
z
" id="DejaVuSans-120"/>
    </defs>
    <g transform="translate(962.800653 78.9312)scale(0.12 -0.12)">
     <use xlink:href="#DejaVuSans-82"/>
     <use x="69.482422" xlink:href="#DejaVuSans-105"/>
     <use x="97.265625" xlink:href="#DejaVuSans-103"/>
     <use x="160.742188" xlink:href="#DejaVuSans-104"/>
     <use x="224.121094" xlink:href="#DejaVuSans-116"/>
     <use x="263.330078" xlink:href="#DejaVuSans-32"/>
     <use x="295.117188" xlink:href="#DejaVuSans-102"/>
     <use x="330.322266" xlink:href="#DejaVuSans-108"/>
     <use x="358.105469" xlink:href="#DejaVuSans-101"/>
     <use x="419.613281" xlink:href="#DejaVuSans-120"/>
     <use x="478.792969" xlink:href="#DejaVuSans-105"/>
     <use x="506.576172" xlink:href="#DejaVuSans-111"/>
     <use x="567.757812" xlink:href="#DejaVuSans-110"/>
    </g>
   </g>
  </g>
  <g id="axes_3">
   <g id="patch_12">
    <path d="M 172.8 629.9064 
L 659.781818 629.9064 
L 659.781818 382.1904 
L 172.8 382.1904 
z
" style="fill:#ffffff;"/>
   </g>
   <g id="matplotlib.axis_5">
    <g id="xtick_11">
     <g id="line2d_29">
      <g>
       <use style="stroke:#000000;stroke-width:0.8;" x="194.935537" xlink:href="#m4e0af0372a" y="629.9064"/>
      </g>
     </g>
     <g id="text_23">
      <!-- 0 -->
      <g transform="translate(191.754287 644.504838)scale(0.1 -0.1)">
       <use xlink:href="#DejaVuSans-48"/>
      </g>
     </g>
    </g>
    <g id="xtick_12">
     <g id="line2d_30">
      <g>
       <use style="stroke:#000000;stroke-width:0.8;" x="289.937843" xlink:href="#m4e0af0372a" y="629.9064"/>
      </g>
     </g>
     <g id="text_24">
      <!-- 50 -->
      <g transform="translate(283.575343 644.504838)scale(0.1 -0.1)">
       <use xlink:href="#DejaVuSans-53"/>
       <use x="63.623047" xlink:href="#DejaVuSans-48"/>
      </g>
     </g>
    </g>
    <g id="xtick_13">
     <g id="line2d_31">
      <g>
       <use style="stroke:#000000;stroke-width:0.8;" x="384.940148" xlink:href="#m4e0af0372a" y="629.9064"/>
      </g>
     </g>
     <g id="text_25">
      <!-- 100 -->
      <g transform="translate(375.396398 644.504838)scale(0.1 -0.1)">
       <use xlink:href="#DejaVuSans-49"/>
       <use x="63.623047" xlink:href="#DejaVuSans-48"/>
       <use x="127.246094" xlink:href="#DejaVuSans-48"/>
      </g>
     </g>
    </g>
    <g id="xtick_14">
     <g id="line2d_32">
      <g>
       <use style="stroke:#000000;stroke-width:0.8;" x="479.942454" xlink:href="#m4e0af0372a" y="629.9064"/>
      </g>
     </g>
     <g id="text_26">
      <!-- 150 -->
      <g transform="translate(470.398704 644.504838)scale(0.1 -0.1)">
       <use xlink:href="#DejaVuSans-49"/>
       <use x="63.623047" xlink:href="#DejaVuSans-53"/>
       <use x="127.246094" xlink:href="#DejaVuSans-48"/>
      </g>
     </g>
    </g>
    <g id="xtick_15">
     <g id="line2d_33">
      <g>
       <use style="stroke:#000000;stroke-width:0.8;" x="574.944759" xlink:href="#m4e0af0372a" y="629.9064"/>
      </g>
     </g>
     <g id="text_27">
      <!-- 200 -->
      <g transform="translate(565.401009 644.504838)scale(0.1 -0.1)">
       <use xlink:href="#DejaVuSans-50"/>
       <use x="63.623047" xlink:href="#DejaVuSans-48"/>
       <use x="127.246094" xlink:href="#DejaVuSans-48"/>
      </g>
     </g>
    </g>
   </g>
   <g id="matplotlib.axis_6">
    <g id="ytick_11">
     <g id="line2d_34">
      <g>
       <use style="stroke:#000000;stroke-width:0.8;" x="172.8" xlink:href="#mdfe3497f90" y="623.553843"/>
      </g>
     </g>
     <g id="text_28">
      <!-- −3 -->
      <g transform="translate(151.057812 627.353061)scale(0.1 -0.1)">
       <use xlink:href="#DejaVuSans-8722"/>
       <use x="83.789062" xlink:href="#DejaVuSans-51"/>
      </g>
     </g>
    </g>
    <g id="ytick_12">
     <g id="line2d_35">
      <g>
       <use style="stroke:#000000;stroke-width:0.8;" x="172.8" xlink:href="#mdfe3497f90" y="577.338135"/>
      </g>
     </g>
     <g id="text_29">
      <!-- −2 -->
      <g transform="translate(151.057812 581.137353)scale(0.1 -0.1)">
       <use xlink:href="#DejaVuSans-8722"/>
       <use x="83.789062" xlink:href="#DejaVuSans-50"/>
      </g>
     </g>
    </g>
    <g id="ytick_13">
     <g id="line2d_36">
      <g>
       <use style="stroke:#000000;stroke-width:0.8;" x="172.8" xlink:href="#mdfe3497f90" y="531.122426"/>
      </g>
     </g>
     <g id="text_30">
      <!-- −1 -->
      <g transform="translate(151.057812 534.921645)scale(0.1 -0.1)">
       <use xlink:href="#DejaVuSans-8722"/>
       <use x="83.789062" xlink:href="#DejaVuSans-49"/>
      </g>
     </g>
    </g>
    <g id="ytick_14">
     <g id="line2d_37">
      <g>
       <use style="stroke:#000000;stroke-width:0.8;" x="172.8" xlink:href="#mdfe3497f90" y="484.906718"/>
      </g>
     </g>
     <g id="text_31">
      <!-- 0 -->
      <g transform="translate(159.4375 488.705937)scale(0.1 -0.1)">
       <use xlink:href="#DejaVuSans-48"/>
      </g>
     </g>
    </g>
    <g id="ytick_15">
     <g id="line2d_38">
      <g>
       <use style="stroke:#000000;stroke-width:0.8;" x="172.8" xlink:href="#mdfe3497f90" y="438.69101"/>
      </g>
     </g>
     <g id="text_32">
      <!-- 1 -->
      <g transform="translate(159.4375 442.490229)scale(0.1 -0.1)">
       <use xlink:href="#DejaVuSans-49"/>
      </g>
     </g>
    </g>
    <g id="ytick_16">
     <g id="line2d_39">
      <g>
       <use style="stroke:#000000;stroke-width:0.8;" x="172.8" xlink:href="#mdfe3497f90" y="392.475302"/>
      </g>
     </g>
     <g id="text_33">
      <!-- 2 -->
      <g transform="translate(159.4375 396.274521)scale(0.1 -0.1)">
       <use xlink:href="#DejaVuSans-50"/>
      </g>
     </g>
    </g>
   </g>
   <g id="line2d_40">
    <path clip-path="url(#p626d7512d1)" d="M 194.935537 484.875392 
L 200.635676 485.546611 
L 202.535722 485.346718 
L 206.335814 484.647897 
L 208.23586 484.643484 
L 212.035952 485.215679 
L 213.935998 485.290031 
L 215.836044 485.066816 
L 217.736091 484.727917 
L 219.636137 484.557954 
L 221.536183 484.717547 
L 225.336275 485.445583 
L 227.236321 485.491689 
L 232.936459 484.82247 
L 234.836506 485.033235 
L 236.736552 485.390316 
L 238.636598 485.59676 
L 240.536644 485.4645 
L 244.336736 484.708248 
L 246.236782 484.630635 
L 251.936921 485.288217 
L 253.836967 485.066209 
L 255.737013 484.679217 
L 257.637059 484.439686 
L 259.537105 484.549337 
L 263.337197 485.301291 
L 265.237243 485.374969 
L 270.937382 484.69606 
L 272.837428 484.93557 
L 274.737474 485.341656 
L 276.63752 485.58925 
L 278.537566 485.471656 
L 282.337658 484.707515 
L 284.237704 484.646232 
L 288.037797 485.229587 
L 289.937843 485.303013 
L 291.837889 485.022046 
L 293.737935 484.582218 
L 295.637981 484.320044 
L 297.538027 484.434649 
L 301.338119 485.162168 
L 303.238166 485.185093 
L 307.038258 484.555742 
L 308.938304 484.486006 
L 310.83835 484.776794 
L 312.738396 485.223387 
L 314.638442 485.489388 
L 316.538488 485.3802 
L 320.33858 484.661029 
L 322.238627 484.632583 
L 326.038719 485.273434 
L 327.938765 485.366732 
L 329.838811 485.088191 
L 331.738857 484.616821 
L 333.638903 484.285366 
L 335.538949 484.315932 
L 339.339042 485.004216 
L 341.239088 485.078919 
L 343.139134 484.832181 
L 345.03918 484.43854 
L 346.939226 484.219338 
L 348.839272 484.364885 
L 352.639364 485.168497 
L 354.53941 485.290986 
L 356.439457 485.085438 
L 358.339503 484.727468 
L 360.239549 484.492257 
L 362.139595 484.556491 
L 365.939687 485.223631 
L 367.839733 485.348164 
L 369.739779 485.149557 
L 373.539872 484.374073 
L 375.439918 484.254766 
L 377.339964 484.428597 
L 381.140056 484.98435 
L 383.040102 484.961507 
L 388.74024 484.064912 
L 390.640287 484.089948 
L 396.340425 485.011634 
L 398.240471 485.031176 
L 403.940609 484.275631 
L 405.840655 484.275213 
L 409.640748 484.841687 
L 411.540794 485.107734 
L 413.44084 485.167149 
L 415.340886 484.987899 
L 419.140978 484.319738 
L 421.041024 484.131491 
L 422.94107 484.159582 
L 428.641209 484.832824 
L 430.541255 484.841928 
L 432.441301 484.652001 
L 436.241393 484.02059 
L 438.141439 483.83017 
L 440.041485 483.834088 
L 443.841578 484.305532 
L 445.741624 484.568446 
L 447.64167 484.702702 
L 449.541716 484.656944 
L 453.341808 484.168907 
L 455.241854 483.917264 
L 457.1419 483.789751 
L 459.041947 483.830811 
L 462.842039 484.287038 
L 464.742085 484.528619 
L 466.642131 484.656043 
L 468.542177 484.620403 
L 472.342269 484.141203 
L 476.142362 483.631175 
L 478.042408 483.555527 
L 481.8425 483.811577 
L 485.642592 484.191337 
L 487.542638 484.244384 
L 489.442684 484.147378 
L 493.242777 483.582919 
L 497.042869 483.017865 
L 498.942915 482.933964 
L 502.743007 483.150576 
L 504.643053 483.353711 
L 506.543099 492.985658 
L 508.443145 499.481213 
L 510.343192 500.793881 
L 512.243238 496.309101 
L 514.143284 487.094639 
L 517.943376 464.624958 
L 519.843422 457.288855 
L 521.743468 455.337035 
L 523.643514 458.696956 
L 527.443607 472.484016 
L 529.343653 476.637865 
L 531.243699 475.901077 
L 533.143745 470.283529 
L 535.043791 461.971009 
L 536.943837 515.293951 
L 538.843883 565.435386 
L 540.743929 602.653522 
L 542.643975 618.646582 
L 544.544022 608.92522 
L 546.444068 574.301161 
L 548.344114 533.690102 
L 552.144206 447.54292 
L 554.044252 413.888628 
L 555.944298 395.211841 
L 557.844344 393.450218 
L 559.74439 407.72565 
L 561.644437 435.447098 
L 565.444529 507.129507 
L 567.344575 536.883728 
L 569.244621 555.28785 
L 571.144667 559.546062 
L 573.044713 554.624402 
L 574.944759 529.590456 
L 578.744852 460.748555 
L 580.644898 435.921143 
L 582.544944 424.624458 
L 584.44499 426.528044 
L 586.345036 440.286724 
L 588.245082 463.411854 
L 590.145128 491.090933 
L 592.045174 515.489793 
L 593.94522 528.530528 
L 595.845267 527.53743 
L 597.745313 513.102522 
L 603.445451 433.042094 
L 605.345497 418.622198 
L 607.245543 421.093924 
L 609.145589 439.959226 
L 611.045635 470.302712 
L 612.945682 503.892091 
L 614.845728 513.125268 
L 616.745774 526.709576 
L 618.64582 529.012053 
L 620.545866 519.413506 
L 622.445912 501.203863 
L 624.345958 480.108718 
L 626.246004 462.868736 
L 628.14605 454.151315 
L 630.046097 457.695216 
L 631.946143 473.978552 
L 635.746235 525.750994 
L 637.646281 541.796502 
L 637.646281 541.796502 
" style="fill:none;stroke:#ff796c;stroke-linecap:square;stroke-width:1.5;"/>
   </g>
   <g id="line2d_41">
    <path clip-path="url(#p626d7512d1)" d="M 194.935537 412.60127 
L 202.535722 412.69351 
L 225.336275 413.706405 
L 232.936459 414.293408 
L 240.536644 415.015134 
L 255.737013 417.011853 
L 274.737474 419.861853 
L 280.437612 420.936693 
L 297.538027 424.625611 
L 305.138212 426.304165 
L 320.33858 430.009736 
L 329.838811 432.612927 
L 337.438995 434.843326 
L 345.03918 437.068653 
L 367.839733 443.921138 
L 394.440379 452.722057 
L 402.040563 455.162043 
L 409.640748 457.547967 
L 415.340886 459.360589 
L 422.94107 461.866614 
L 440.041485 467.000567 
L 447.64167 468.866629 
L 457.1419 471.105045 
L 462.842039 472.145566 
L 476.142362 474.205774 
L 479.942454 474.586508 
L 485.642592 474.893283 
L 493.242777 475.060988 
L 497.042869 474.963698 
L 500.842961 474.635496 
L 504.643053 474.076035 
L 506.543099 472.803779 
L 508.443145 471.857773 
L 510.343192 471.479096 
L 512.243238 471.712971 
L 517.943376 473.659767 
L 519.843422 473.453652 
L 521.743468 472.294253 
L 523.643514 470.131026 
L 525.54356 467.122263 
L 527.443607 463.563133 
L 533.143745 451.963789 
L 535.043791 447.719286 
L 536.943837 441.879922 
L 538.843883 436.562449 
L 540.743929 433.555362 
L 542.643975 434.347042 
L 544.544022 439.716064 
L 546.444068 449.480472 
L 552.144206 482.243732 
L 554.044252 491.413347 
L 555.944298 497.806123 
L 557.844344 501.064639 
L 559.74439 501.34353 
L 561.644437 499.139798 
L 565.444529 491.630095 
L 567.344575 488.873035 
L 569.244621 488.063103 
L 571.144667 489.680836 
L 573.044713 493.130561 
L 574.944759 499.965767 
L 578.744852 516.913102 
L 580.644898 523.824059 
L 582.544944 528.526464 
L 584.44499 530.875471 
L 586.345036 531.07428 
L 588.245082 529.541867 
L 590.145128 527.063896 
L 592.045174 525.136433 
L 593.94522 525.034344 
L 595.845267 527.440825 
L 597.745313 532.277341 
L 601.545405 544.622734 
L 603.445451 549.830873 
L 605.345497 552.573261 
L 607.245543 552.150125 
L 609.145589 548.677334 
L 611.045635 543.063627 
L 612.945682 536.811903 
L 614.845728 534.717599 
L 616.745774 530.955246 
L 618.64582 529.419825 
L 620.545866 530.205394 
L 622.445912 532.766266 
L 624.345958 536.10339 
L 626.246004 539.057316 
L 628.14605 539.829155 
L 630.046097 538.720288 
L 631.946143 535.822568 
L 633.846189 531.871563 
L 635.746235 528.224061 
L 637.646281 526.19213 
L 637.646281 526.19213 
" style="fill:none;stroke:#ffff14;stroke-linecap:square;stroke-width:1.5;"/>
   </g>
   <g id="line2d_42">
    <path clip-path="url(#p626d7512d1)" d="M 194.935537 412.311254 
L 204.435768 412.413443 
L 213.935998 412.71955 
L 223.436229 413.228196 
L 232.936459 413.937089 
L 242.43669 414.843038 
L 251.936921 415.94196 
L 263.337197 417.508362 
L 274.737474 419.335315 
L 286.137751 421.41097 
L 297.538027 423.721866 
L 308.938304 426.253015 
L 320.33858 428.988003 
L 333.638903 432.412719 
L 346.939226 436.060464 
L 362.139595 440.461036 
L 379.24001 445.646309 
L 402.040563 452.819591 
L 459.041947 470.890691 
L 476.142362 476.026578 
L 491.34273 480.369502 
L 504.643053 483.956729 
L 517.943376 487.312078 
L 529.343653 489.981027 
L 540.743929 492.440514 
L 552.144206 494.674588 
L 563.544483 496.66876 
L 574.944759 498.410098 
L 586.345036 499.887307 
L 595.845267 500.909585 
L 605.345497 501.737152 
L 614.845728 502.366279 
L 624.345958 502.794134 
L 633.846189 503.018788 
L 637.646281 503.051495 
L 637.646281 503.051495 
" style="fill:none;stroke:#014d4e;stroke-linecap:square;stroke-width:1.5;"/>
   </g>
   <g id="line2d_43">
    <path clip-path="url(#p626d7512d1)" d="M 194.935537 484.616702 
L 204.435768 484.550686 
L 212.035952 484.504156 
L 253.836967 484.360767 
L 261.437151 484.337935 
L 270.937382 484.352927 
L 280.437612 484.312885 
L 295.637981 484.017644 
L 312.738396 483.992151 
L 318.438534 483.931956 
L 346.939226 483.332154 
L 365.939687 483.184644 
L 371.639825 483.009684 
L 377.339964 482.832656 
L 386.840194 482.61931 
L 392.540333 482.567189 
L 400.140517 482.58939 
L 407.740702 482.574376 
L 415.340886 482.620418 
L 422.94107 482.550476 
L 440.041485 482.867778 
L 449.541716 483.528445 
L 457.1419 484.108422 
L 462.842039 484.812484 
L 478.042408 487.071297 
L 483.742546 488.318801 
L 493.242777 490.74071 
L 497.042869 491.876311 
L 500.842961 493.225341 
L 504.643053 494.787412 
L 506.543099 496.553915 
L 508.443145 497.989342 
L 510.343192 498.852528 
L 512.243238 499.098161 
L 514.143284 498.895853 
L 516.04333 498.580915 
L 517.943376 498.55903 
L 519.843422 499.223797 
L 521.743468 500.836425 
L 523.643514 503.447376 
L 525.54356 506.898279 
L 529.343653 515.126002 
L 533.143745 523.767875 
L 535.043791 528.425416 
L 536.943837 534.671769 
L 538.843883 540.39011 
L 540.743929 543.791871 
L 542.643975 543.3886 
L 544.544022 538.401653 
L 546.444068 529.012915 
L 552.144206 497.337574 
L 554.044252 488.51735 
L 555.944298 482.467235 
L 557.844344 479.544587 
L 559.74439 479.594712 
L 561.644437 482.120547 
L 565.444529 490.253491 
L 567.344575 493.311575 
L 569.244621 494.415394 
L 571.144667 493.084359 
L 573.044713 489.914091 
L 574.944759 483.351049 
L 578.744852 466.925973 
L 580.644898 460.265017 
L 582.544944 455.805133 
L 584.44499 453.691123 
L 586.345036 453.719745 
L 588.245082 455.471982 
L 590.145128 458.162131 
L 592.045174 460.294086 
L 593.94522 460.592945 
L 595.845267 458.375478 
L 597.745313 453.720185 
L 601.545405 441.713733 
L 603.445451 436.663252 
L 605.345497 434.070609 
L 607.245543 434.635549 
L 609.145589 438.242179 
L 611.045635 443.981734 
L 612.945682 450.351294 
L 614.845728 452.555399 
L 616.745774 456.419499 
L 618.64582 458.048595 
L 620.545866 457.348613 
L 622.445912 454.865222 
L 624.345958 451.597462 
L 626.246004 448.704768 
L 628.14605 447.98602 
L 630.046097 449.139826 
L 631.946143 452.074325 
L 633.846189 456.053943 
L 635.746235 459.721887 
L 637.646281 461.766084 
L 637.646281 461.766084 
" style="fill:none;stroke:#e50000;stroke-linecap:square;stroke-width:1.5;"/>
   </g>
   <g id="patch_13">
    <path d="M 172.8 629.9064 
L 172.8 382.1904 
" style="fill:none;stroke:#000000;stroke-linecap:square;stroke-linejoin:miter;stroke-width:0.8;"/>
   </g>
   <g id="patch_14">
    <path d="M 659.781818 629.9064 
L 659.781818 382.1904 
" style="fill:none;stroke:#000000;stroke-linecap:square;stroke-linejoin:miter;stroke-width:0.8;"/>
   </g>
   <g id="patch_15">
    <path d="M 172.8 629.9064 
L 659.781818 629.9064 
" style="fill:none;stroke:#000000;stroke-linecap:square;stroke-linejoin:miter;stroke-width:0.8;"/>
   </g>
   <g id="patch_16">
    <path d="M 172.8 382.1904 
L 659.781818 382.1904 
" style="fill:none;stroke:#000000;stroke-linecap:square;stroke-linejoin:miter;stroke-width:0.8;"/>
   </g>
   <g id="text_34">
    <!-- Left abduction -->
    <defs>
     <path d="M 9.8125 72.90625 
L 19.671875 72.90625 
L 19.671875 8.296875 
L 55.171875 8.296875 
L 55.171875 0 
L 9.8125 0 
z
" id="DejaVuSans-76"/>
    </defs>
    <g transform="translate(372.997159 376.1904)scale(0.12 -0.12)">
     <use xlink:href="#DejaVuSans-76"/>
     <use x="55.697266" xlink:href="#DejaVuSans-101"/>
     <use x="117.220703" xlink:href="#DejaVuSans-102"/>
     <use x="152.410156" xlink:href="#DejaVuSans-116"/>
     <use x="191.619141" xlink:href="#DejaVuSans-32"/>
     <use x="223.40625" xlink:href="#DejaVuSans-97"/>
     <use x="284.685547" xlink:href="#DejaVuSans-98"/>
     <use x="348.162109" xlink:href="#DejaVuSans-100"/>
     <use x="411.638672" xlink:href="#DejaVuSans-117"/>
     <use x="475.017578" xlink:href="#DejaVuSans-99"/>
     <use x="529.998047" xlink:href="#DejaVuSans-116"/>
     <use x="569.207031" xlink:href="#DejaVuSans-105"/>
     <use x="596.990234" xlink:href="#DejaVuSans-111"/>
     <use x="658.171875" xlink:href="#DejaVuSans-110"/>
    </g>
   </g>
  </g>
  <g id="axes_4">
   <g id="patch_17">
    <path d="M 757.178182 629.9064 
L 1244.16 629.9064 
L 1244.16 382.1904 
L 757.178182 382.1904 
z
" style="fill:#ffffff;"/>
   </g>
   <g id="matplotlib.axis_7">
    <g id="xtick_16">
     <g id="line2d_44">
      <g>
       <use style="stroke:#000000;stroke-width:0.8;" x="779.313719" xlink:href="#m4e0af0372a" y="629.9064"/>
      </g>
     </g>
     <g id="text_35">
      <!-- 0 -->
      <g transform="translate(776.132469 644.504838)scale(0.1 -0.1)">
       <use xlink:href="#DejaVuSans-48"/>
      </g>
     </g>
    </g>
    <g id="xtick_17">
     <g id="line2d_45">
      <g>
       <use style="stroke:#000000;stroke-width:0.8;" x="874.316025" xlink:href="#m4e0af0372a" y="629.9064"/>
      </g>
     </g>
     <g id="text_36">
      <!-- 50 -->
      <g transform="translate(867.953525 644.504838)scale(0.1 -0.1)">
       <use xlink:href="#DejaVuSans-53"/>
       <use x="63.623047" xlink:href="#DejaVuSans-48"/>
      </g>
     </g>
    </g>
    <g id="xtick_18">
     <g id="line2d_46">
      <g>
       <use style="stroke:#000000;stroke-width:0.8;" x="969.31833" xlink:href="#m4e0af0372a" y="629.9064"/>
      </g>
     </g>
     <g id="text_37">
      <!-- 100 -->
      <g transform="translate(959.77458 644.504838)scale(0.1 -0.1)">
       <use xlink:href="#DejaVuSans-49"/>
       <use x="63.623047" xlink:href="#DejaVuSans-48"/>
       <use x="127.246094" xlink:href="#DejaVuSans-48"/>
      </g>
     </g>
    </g>
    <g id="xtick_19">
     <g id="line2d_47">
      <g>
       <use style="stroke:#000000;stroke-width:0.8;" x="1064.320636" xlink:href="#m4e0af0372a" y="629.9064"/>
      </g>
     </g>
     <g id="text_38">
      <!-- 150 -->
      <g transform="translate(1054.776886 644.504838)scale(0.1 -0.1)">
       <use xlink:href="#DejaVuSans-49"/>
       <use x="63.623047" xlink:href="#DejaVuSans-53"/>
       <use x="127.246094" xlink:href="#DejaVuSans-48"/>
      </g>
     </g>
    </g>
    <g id="xtick_20">
     <g id="line2d_48">
      <g>
       <use style="stroke:#000000;stroke-width:0.8;" x="1159.322941" xlink:href="#m4e0af0372a" y="629.9064"/>
      </g>
     </g>
     <g id="text_39">
      <!-- 200 -->
      <g transform="translate(1149.779191 644.504838)scale(0.1 -0.1)">
       <use xlink:href="#DejaVuSans-50"/>
       <use x="63.623047" xlink:href="#DejaVuSans-48"/>
       <use x="127.246094" xlink:href="#DejaVuSans-48"/>
      </g>
     </g>
    </g>
   </g>
   <g id="matplotlib.axis_8">
    <g id="ytick_17">
     <g id="line2d_49">
      <g>
       <use style="stroke:#000000;stroke-width:0.8;" x="757.178182" xlink:href="#mdfe3497f90" y="598.265953"/>
      </g>
     </g>
     <g id="text_40">
      <!-- −10 -->
      <g transform="translate(729.073494 602.065172)scale(0.1 -0.1)">
       <use xlink:href="#DejaVuSans-8722"/>
       <use x="83.789062" xlink:href="#DejaVuSans-49"/>
       <use x="147.412109" xlink:href="#DejaVuSans-48"/>
      </g>
     </g>
    </g>
    <g id="ytick_18">
     <g id="line2d_50">
      <g>
       <use style="stroke:#000000;stroke-width:0.8;" x="757.178182" xlink:href="#mdfe3497f90" y="558.914542"/>
      </g>
     </g>
     <g id="text_41">
      <!-- −8 -->
      <g transform="translate(735.435994 562.713761)scale(0.1 -0.1)">
       <use xlink:href="#DejaVuSans-8722"/>
       <use x="83.789062" xlink:href="#DejaVuSans-56"/>
      </g>
     </g>
    </g>
    <g id="ytick_19">
     <g id="line2d_51">
      <g>
       <use style="stroke:#000000;stroke-width:0.8;" x="757.178182" xlink:href="#mdfe3497f90" y="519.56313"/>
      </g>
     </g>
     <g id="text_42">
      <!-- −6 -->
      <g transform="translate(735.435994 523.362349)scale(0.1 -0.1)">
       <use xlink:href="#DejaVuSans-8722"/>
       <use x="83.789062" xlink:href="#DejaVuSans-54"/>
      </g>
     </g>
    </g>
    <g id="ytick_20">
     <g id="line2d_52">
      <g>
       <use style="stroke:#000000;stroke-width:0.8;" x="757.178182" xlink:href="#mdfe3497f90" y="480.211719"/>
      </g>
     </g>
     <g id="text_43">
      <!-- −4 -->
      <g transform="translate(735.435994 484.010937)scale(0.1 -0.1)">
       <use xlink:href="#DejaVuSans-8722"/>
       <use x="83.789062" xlink:href="#DejaVuSans-52"/>
      </g>
     </g>
    </g>
    <g id="ytick_21">
     <g id="line2d_53">
      <g>
       <use style="stroke:#000000;stroke-width:0.8;" x="757.178182" xlink:href="#mdfe3497f90" y="440.860307"/>
      </g>
     </g>
     <g id="text_44">
      <!-- −2 -->
      <g transform="translate(735.435994 444.659526)scale(0.1 -0.1)">
       <use xlink:href="#DejaVuSans-8722"/>
       <use x="83.789062" xlink:href="#DejaVuSans-50"/>
      </g>
     </g>
    </g>
    <g id="ytick_22">
     <g id="line2d_54">
      <g>
       <use style="stroke:#000000;stroke-width:0.8;" x="757.178182" xlink:href="#mdfe3497f90" y="401.508895"/>
      </g>
     </g>
     <g id="text_45">
      <!-- 0 -->
      <g transform="translate(743.815682 405.308114)scale(0.1 -0.1)">
       <use xlink:href="#DejaVuSans-48"/>
      </g>
     </g>
    </g>
   </g>
   <g id="line2d_55">
    <path clip-path="url(#pba3422c7e9)" d="M 779.313719 401.508445 
L 1083.321097 401.524722 
L 1089.021235 401.618969 
L 1092.821327 402.237389 
L 1096.62142 403.216683 
L 1100.421512 404.35654 
L 1102.321558 404.684837 
L 1104.221604 404.761184 
L 1106.12165 404.60873 
L 1109.921742 404.063498 
L 1111.821788 403.963853 
L 1113.721834 404.107714 
L 1117.521927 404.851188 
L 1119.421973 405.038603 
L 1121.322019 401.975509 
L 1123.222065 398.633334 
L 1125.122111 395.945679 
L 1127.022157 394.214532 
L 1128.922203 393.450218 
L 1130.822249 393.713186 
L 1132.722296 395.214325 
L 1134.622342 397.920552 
L 1136.522388 401.699167 
L 1138.422434 406.297814 
L 1140.32248 411.203699 
L 1142.222526 415.654167 
L 1144.122572 418.800657 
L 1146.022618 420.673443 
L 1147.922664 420.92907 
L 1149.822711 419.337035 
L 1151.722757 415.808548 
L 1153.622803 410.405654 
L 1155.522849 403.450618 
L 1157.422895 397.071648 
L 1159.322941 401.177476 
L 1165.023079 421.507067 
L 1166.923126 427.464158 
L 1168.823172 432.167157 
L 1170.723218 435.161515 
L 1172.623264 436.151187 
L 1176.423356 445.553213 
L 1180.223448 454.142222 
L 1182.123494 458.214867 
L 1184.023541 463.386626 
L 1191.623725 485.700838 
L 1195.423817 496.260514 
L 1197.323863 501.358531 
L 1199.223909 505.007586 
L 1204.924048 526.33191 
L 1208.72414 541.123119 
L 1210.624186 549.164636 
L 1214.424278 570.587459 
L 1218.224371 593.853204 
L 1222.024463 618.646582 
L 1222.024463 618.646582 
" style="fill:none;stroke:#ff796c;stroke-linecap:square;stroke-width:1.5;"/>
   </g>
   <g id="line2d_56">
    <path clip-path="url(#pba3422c7e9)" d="M 779.313719 409.426586 
L 1089.021235 409.365042 
L 1094.721373 408.960143 
L 1098.521466 408.476229 
L 1102.321558 407.968859 
L 1106.12165 407.700406 
L 1109.921742 407.548894 
L 1111.821788 407.378677 
L 1113.721834 407.074822 
L 1117.521927 406.069183 
L 1119.421973 405.484949 
L 1121.322019 406.282581 
L 1123.222065 407.284294 
L 1125.122111 408.108744 
L 1127.022157 408.673497 
L 1128.922203 409.012825 
L 1130.822249 409.074297 
L 1132.722296 408.657234 
L 1134.622342 407.714762 
L 1136.522388 406.273197 
L 1142.222526 400.891285 
L 1144.122572 399.773757 
L 1146.022618 399.265525 
L 1147.922664 399.492763 
L 1149.822711 400.532491 
L 1151.722757 402.408837 
L 1153.622803 405.126366 
L 1155.522849 408.662538 
L 1157.422895 412.604961 
L 1159.322941 412.626315 
L 1163.123033 410.413529 
L 1165.023079 409.551519 
L 1166.923126 409.273379 
L 1168.823172 409.865857 
L 1170.723218 411.545856 
L 1172.623264 414.43791 
L 1195.423817 414.568432 
L 1222.024463 414.582155 
L 1222.024463 414.582155 
" style="fill:none;stroke:#ffff14;stroke-linecap:square;stroke-width:1.5;"/>
   </g>
   <g id="line2d_57">
    <path clip-path="url(#pba3422c7e9)" d="M 779.313719 409.425264 
L 1222.024463 409.425264 
L 1222.024463 409.425264 
" style="fill:none;stroke:#014d4e;stroke-linecap:square;stroke-width:1.5;"/>
   </g>
   <g id="line2d_58">
    <path clip-path="url(#pba3422c7e9)" d="M 779.313719 401.507573 
L 1089.021235 401.569116 
L 1094.721373 401.974015 
L 1098.521466 402.45793 
L 1102.321558 402.9653 
L 1106.12165 403.233752 
L 1109.921742 403.385265 
L 1111.821788 403.555482 
L 1113.721834 403.859337 
L 1117.521927 404.864976 
L 1119.421973 405.44921 
L 1121.322019 404.651578 
L 1123.222065 403.649865 
L 1125.122111 402.825415 
L 1127.022157 402.260661 
L 1128.922203 401.921334 
L 1130.822249 401.859862 
L 1132.722296 402.276925 
L 1134.622342 403.219397 
L 1136.522388 404.660962 
L 1142.222526 410.042874 
L 1144.122572 411.160402 
L 1146.022618 411.668634 
L 1147.922664 411.441396 
L 1149.822711 410.401668 
L 1151.722757 408.525322 
L 1153.622803 405.807793 
L 1155.522849 402.271621 
L 1157.422895 398.329198 
L 1159.322941 398.307843 
L 1163.123033 400.52063 
L 1165.023079 401.38264 
L 1166.923126 401.66078 
L 1168.823172 401.068302 
L 1170.723218 399.388303 
L 1172.623264 396.496248 
L 1195.423817 396.365727 
L 1222.024463 396.352004 
L 1222.024463 396.352004 
" style="fill:none;stroke:#e50000;stroke-linecap:square;stroke-width:1.5;"/>
   </g>
   <g id="patch_18">
    <path d="M 757.178182 629.9064 
L 757.178182 382.1904 
" style="fill:none;stroke:#000000;stroke-linecap:square;stroke-linejoin:miter;stroke-width:0.8;"/>
   </g>
   <g id="patch_19">
    <path d="M 1244.16 629.9064 
L 1244.16 382.1904 
" style="fill:none;stroke:#000000;stroke-linecap:square;stroke-linejoin:miter;stroke-width:0.8;"/>
   </g>
   <g id="patch_20">
    <path d="M 757.178182 629.9064 
L 1244.16 629.9064 
" style="fill:none;stroke:#000000;stroke-linecap:square;stroke-linejoin:miter;stroke-width:0.8;"/>
   </g>
   <g id="patch_21">
    <path d="M 757.178182 382.1904 
L 1244.16 382.1904 
" style="fill:none;stroke:#000000;stroke-linecap:square;stroke-linejoin:miter;stroke-width:0.8;"/>
   </g>
   <g id="text_46">
    <!-- Left flexion -->
    <g transform="translate(967.102841 376.1904)scale(0.12 -0.12)">
     <use xlink:href="#DejaVuSans-76"/>
     <use x="55.697266" xlink:href="#DejaVuSans-101"/>
     <use x="117.220703" xlink:href="#DejaVuSans-102"/>
     <use x="152.410156" xlink:href="#DejaVuSans-116"/>
     <use x="191.619141" xlink:href="#DejaVuSans-32"/>
     <use x="223.40625" xlink:href="#DejaVuSans-102"/>
     <use x="258.611328" xlink:href="#DejaVuSans-108"/>
     <use x="286.394531" xlink:href="#DejaVuSans-101"/>
     <use x="347.902344" xlink:href="#DejaVuSans-120"/>
     <use x="407.082031" xlink:href="#DejaVuSans-105"/>
     <use x="434.865234" xlink:href="#DejaVuSans-111"/>
     <use x="496.046875" xlink:href="#DejaVuSans-110"/>
    </g>
   </g>
  </g>
  <g id="legend_1">
   <g id="patch_22">
    <path d="M 1308.251562 384.875313 
L 1375.4 384.875313 
Q 1377.4 384.875313 1377.4 382.875313 
L 1377.4 324.884687 
Q 1377.4 322.884687 1375.4 322.884687 
L 1308.251562 322.884687 
Q 1306.251562 322.884687 1306.251562 324.884687 
L 1306.251562 382.875313 
Q 1306.251562 384.875313 1308.251562 384.875313 
z
" style="fill:#ffffff;opacity:0.8;stroke:#cccccc;stroke-linejoin:miter;"/>
   </g>
   <g id="line2d_59">
    <path d="M 1310.251562 330.983125 
L 1330.251562 330.983125 
" style="fill:none;stroke:#ff796c;stroke-linecap:square;stroke-width:1.5;"/>
   </g>
   <g id="line2d_60"/>
   <g id="text_47">
    <!-- Torque -->
    <defs>
     <path d="M -0.296875 72.90625 
L 61.375 72.90625 
L 61.375 64.59375 
L 35.5 64.59375 
L 35.5 0 
L 25.59375 0 
L 25.59375 64.59375 
L -0.296875 64.59375 
z
" id="DejaVuSans-84"/>
     <path d="M 41.109375 46.296875 
Q 39.59375 47.171875 37.8125 47.578125 
Q 36.03125 48 33.890625 48 
Q 26.265625 48 22.1875 43.046875 
Q 18.109375 38.09375 18.109375 28.8125 
L 18.109375 0 
L 9.078125 0 
L 9.078125 54.6875 
L 18.109375 54.6875 
L 18.109375 46.1875 
Q 20.953125 51.171875 25.484375 53.578125 
Q 30.03125 56 36.53125 56 
Q 37.453125 56 38.578125 55.875 
Q 39.703125 55.765625 41.0625 55.515625 
z
" id="DejaVuSans-114"/>
     <path d="M 14.796875 27.296875 
Q 14.796875 17.390625 18.875 11.75 
Q 22.953125 6.109375 30.078125 6.109375 
Q 37.203125 6.109375 41.296875 11.75 
Q 45.40625 17.390625 45.40625 27.296875 
Q 45.40625 37.203125 41.296875 42.84375 
Q 37.203125 48.484375 30.078125 48.484375 
Q 22.953125 48.484375 18.875 42.84375 
Q 14.796875 37.203125 14.796875 27.296875 
z
M 45.40625 8.203125 
Q 42.578125 3.328125 38.25 0.953125 
Q 33.9375 -1.421875 27.875 -1.421875 
Q 17.96875 -1.421875 11.734375 6.484375 
Q 5.515625 14.40625 5.515625 27.296875 
Q 5.515625 40.1875 11.734375 48.09375 
Q 17.96875 56 27.875 56 
Q 33.9375 56 38.25 53.625 
Q 42.578125 51.265625 45.40625 46.390625 
L 45.40625 54.6875 
L 54.390625 54.6875 
L 54.390625 -20.796875 
L 45.40625 -20.796875 
z
" id="DejaVuSans-113"/>
    </defs>
    <g transform="translate(1338.251562 334.483125)scale(0.1 -0.1)">
     <use xlink:href="#DejaVuSans-84"/>
     <use x="60.818359" xlink:href="#DejaVuSans-111"/>
     <use x="122" xlink:href="#DejaVuSans-114"/>
     <use x="163.097656" xlink:href="#DejaVuSans-113"/>
     <use x="226.574219" xlink:href="#DejaVuSans-117"/>
     <use x="289.953125" xlink:href="#DejaVuSans-101"/>
    </g>
   </g>
   <g id="line2d_61">
    <path d="M 1310.251562 345.66125 
L 1330.251562 345.66125 
" style="fill:none;stroke:#ffff14;stroke-linecap:square;stroke-width:1.5;"/>
   </g>
   <g id="line2d_62"/>
   <g id="text_48">
    <!-- q -->
    <g transform="translate(1338.251562 349.16125)scale(0.1 -0.1)">
     <use xlink:href="#DejaVuSans-113"/>
    </g>
   </g>
   <g id="line2d_63">
    <path d="M 1310.251562 360.339375 
L 1330.251562 360.339375 
" style="fill:none;stroke:#014d4e;stroke-linecap:square;stroke-width:1.5;"/>
   </g>
   <g id="line2d_64"/>
   <g id="text_49">
    <!-- q_des -->
    <defs>
     <path d="M 50.984375 -16.609375 
L 50.984375 -23.578125 
L -0.984375 -23.578125 
L -0.984375 -16.609375 
z
" id="DejaVuSans-95"/>
     <path d="M 44.28125 53.078125 
L 44.28125 44.578125 
Q 40.484375 46.53125 36.375 47.5 
Q 32.28125 48.484375 27.875 48.484375 
Q 21.1875 48.484375 17.84375 46.4375 
Q 14.5 44.390625 14.5 40.28125 
Q 14.5 37.15625 16.890625 35.375 
Q 19.28125 33.59375 26.515625 31.984375 
L 29.59375 31.296875 
Q 39.15625 29.25 43.1875 25.515625 
Q 47.21875 21.78125 47.21875 15.09375 
Q 47.21875 7.46875 41.1875 3.015625 
Q 35.15625 -1.421875 24.609375 -1.421875 
Q 20.21875 -1.421875 15.453125 -0.5625 
Q 10.6875 0.296875 5.421875 2 
L 5.421875 11.28125 
Q 10.40625 8.6875 15.234375 7.390625 
Q 20.0625 6.109375 24.8125 6.109375 
Q 31.15625 6.109375 34.5625 8.28125 
Q 37.984375 10.453125 37.984375 14.40625 
Q 37.984375 18.0625 35.515625 20.015625 
Q 33.0625 21.96875 24.703125 23.78125 
L 21.578125 24.515625 
Q 13.234375 26.265625 9.515625 29.90625 
Q 5.8125 33.546875 5.8125 39.890625 
Q 5.8125 47.609375 11.28125 51.796875 
Q 16.75 56 26.8125 56 
Q 31.78125 56 36.171875 55.265625 
Q 40.578125 54.546875 44.28125 53.078125 
z
" id="DejaVuSans-115"/>
    </defs>
    <g transform="translate(1338.251562 363.839375)scale(0.1 -0.1)">
     <use xlink:href="#DejaVuSans-113"/>
     <use x="63.476562" xlink:href="#DejaVuSans-95"/>
     <use x="113.476562" xlink:href="#DejaVuSans-100"/>
     <use x="176.953125" xlink:href="#DejaVuSans-101"/>
     <use x="238.476562" xlink:href="#DejaVuSans-115"/>
    </g>
   </g>
   <g id="line2d_65">
    <path d="M 1310.251562 375.295625 
L 1330.251562 375.295625 
" style="fill:none;stroke:#e50000;stroke-linecap:square;stroke-width:1.5;"/>
   </g>
   <g id="line2d_66"/>
   <g id="text_50">
    <!-- error -->
    <g transform="translate(1338.251562 378.795625)scale(0.1 -0.1)">
     <use xlink:href="#DejaVuSans-101"/>
     <use x="61.523438" xlink:href="#DejaVuSans-114"/>
     <use x="102.621094" xlink:href="#DejaVuSans-114"/>
     <use x="143.703125" xlink:href="#DejaVuSans-111"/>
     <use x="204.884766" xlink:href="#DejaVuSans-114"/>
    </g>
   </g>
  </g>
 </g>
 <defs>
  <clipPath id="p7df7a57bf8">
   <rect height="247.716" width="486.981818" x="172.8" y="84.9312"/>
  </clipPath>
  <clipPath id="p373e7a6c99">
   <rect height="247.716" width="486.981818" x="757.178182" y="84.9312"/>
  </clipPath>
  <clipPath id="p626d7512d1">
   <rect height="247.716" width="486.981818" x="172.8" y="382.1904"/>
  </clipPath>
  <clipPath id="pba3422c7e9">
   <rect height="247.716" width="486.981818" x="757.178182" y="382.1904"/>
  </clipPath>
 </defs>
</svg>
