<?xml version="1.0" encoding="utf-8" standalone="no"?>
<!DOCTYPE svg PUBLIC "-//W3C//DTD SVG 1.1//EN"
  "http://www.w3.org/Graphics/SVG/1.1/DTD/svg11.dtd">
<!-- Created with matplotlib (https://matplotlib.org/) -->
<svg height="707.76pt" version="1.1" viewBox="0 0 1382.4 707.76" width="1382.4pt" xmlns="http://www.w3.org/2000/svg" xmlns:xlink="http://www.w3.org/1999/xlink">
 <defs>
  <style type="text/css">
*{stroke-linecap:butt;stroke-linejoin:round;}
  </style>
 </defs>
 <g id="figure_1">
  <g id="patch_1">
   <path d="M 0 707.76 
L 1382.4 707.76 
L 1382.4 0 
L 0 0 
z
" style="fill:#ffffff;"/>
  </g>
  <g id="axes_1">
   <g id="patch_2">
    <path d="M 172.8 332.6472 
L 659.781818 332.6472 
L 659.781818 84.9312 
L 172.8 84.9312 
z
" style="fill:#ffffff;"/>
   </g>
   <g id="matplotlib.axis_1">
    <g id="xtick_1">
     <g id="line2d_1">
      <defs>
       <path d="M 0 0 
L 0 3.5 
" id="m385c4ca42a" style="stroke:#000000;stroke-width:0.8;"/>
      </defs>
      <g>
       <use style="stroke:#000000;stroke-width:0.8;" x="194.935537" xlink:href="#m385c4ca42a" y="332.6472"/>
      </g>
     </g>
     <g id="text_1">
      <!-- 0 -->
      <defs>
       <path d="M 31.78125 66.40625 
Q 24.171875 66.40625 20.328125 58.90625 
Q 16.5 51.421875 16.5 36.375 
Q 16.5 21.390625 20.328125 13.890625 
Q 24.171875 6.390625 31.78125 6.390625 
Q 39.453125 6.390625 43.28125 13.890625 
Q 47.125 21.390625 47.125 36.375 
Q 47.125 51.421875 43.28125 58.90625 
Q 39.453125 66.40625 31.78125 66.40625 
z
M 31.78125 74.21875 
Q 44.046875 74.21875 50.515625 64.515625 
Q 56.984375 54.828125 56.984375 36.375 
Q 56.984375 17.96875 50.515625 8.265625 
Q 44.046875 -1.421875 31.78125 -1.421875 
Q 19.53125 -1.421875 13.0625 8.265625 
Q 6.59375 17.96875 6.59375 36.375 
Q 6.59375 54.828125 13.0625 64.515625 
Q 19.53125 74.21875 31.78125 74.21875 
z
" id="DejaVuSans-48"/>
      </defs>
      <g transform="translate(191.754287 347.245637)scale(0.1 -0.1)">
       <use xlink:href="#DejaVuSans-48"/>
      </g>
     </g>
    </g>
    <g id="xtick_2">
     <g id="line2d_2">
      <g>
       <use style="stroke:#000000;stroke-width:0.8;" x="289.937843" xlink:href="#m385c4ca42a" y="332.6472"/>
      </g>
     </g>
     <g id="text_2">
      <!-- 50 -->
      <defs>
       <path d="M 10.796875 72.90625 
L 49.515625 72.90625 
L 49.515625 64.59375 
L 19.828125 64.59375 
L 19.828125 46.734375 
Q 21.96875 47.46875 24.109375 47.828125 
Q 26.265625 48.1875 28.421875 48.1875 
Q 40.625 48.1875 47.75 41.5 
Q 54.890625 34.8125 54.890625 23.390625 
Q 54.890625 11.625 47.5625 5.09375 
Q 40.234375 -1.421875 26.90625 -1.421875 
Q 22.3125 -1.421875 17.546875 -0.640625 
Q 12.796875 0.140625 7.71875 1.703125 
L 7.71875 11.625 
Q 12.109375 9.234375 16.796875 8.0625 
Q 21.484375 6.890625 26.703125 6.890625 
Q 35.15625 6.890625 40.078125 11.328125 
Q 45.015625 15.765625 45.015625 23.390625 
Q 45.015625 31 40.078125 35.4375 
Q 35.15625 39.890625 26.703125 39.890625 
Q 22.75 39.890625 18.8125 39.015625 
Q 14.890625 38.140625 10.796875 36.28125 
z
" id="DejaVuSans-53"/>
      </defs>
      <g transform="translate(283.575343 347.245637)scale(0.1 -0.1)">
       <use xlink:href="#DejaVuSans-53"/>
       <use x="63.623047" xlink:href="#DejaVuSans-48"/>
      </g>
     </g>
    </g>
    <g id="xtick_3">
     <g id="line2d_3">
      <g>
       <use style="stroke:#000000;stroke-width:0.8;" x="384.940148" xlink:href="#m385c4ca42a" y="332.6472"/>
      </g>
     </g>
     <g id="text_3">
      <!-- 100 -->
      <defs>
       <path d="M 12.40625 8.296875 
L 28.515625 8.296875 
L 28.515625 63.921875 
L 10.984375 60.40625 
L 10.984375 69.390625 
L 28.421875 72.90625 
L 38.28125 72.90625 
L 38.28125 8.296875 
L 54.390625 8.296875 
L 54.390625 0 
L 12.40625 0 
z
" id="DejaVuSans-49"/>
      </defs>
      <g transform="translate(375.396398 347.245637)scale(0.1 -0.1)">
       <use xlink:href="#DejaVuSans-49"/>
       <use x="63.623047" xlink:href="#DejaVuSans-48"/>
       <use x="127.246094" xlink:href="#DejaVuSans-48"/>
      </g>
     </g>
    </g>
    <g id="xtick_4">
     <g id="line2d_4">
      <g>
       <use style="stroke:#000000;stroke-width:0.8;" x="479.942454" xlink:href="#m385c4ca42a" y="332.6472"/>
      </g>
     </g>
     <g id="text_4">
      <!-- 150 -->
      <g transform="translate(470.398704 347.245637)scale(0.1 -0.1)">
       <use xlink:href="#DejaVuSans-49"/>
       <use x="63.623047" xlink:href="#DejaVuSans-53"/>
       <use x="127.246094" xlink:href="#DejaVuSans-48"/>
      </g>
     </g>
    </g>
    <g id="xtick_5">
     <g id="line2d_5">
      <g>
       <use style="stroke:#000000;stroke-width:0.8;" x="574.944759" xlink:href="#m385c4ca42a" y="332.6472"/>
      </g>
     </g>
     <g id="text_5">
      <!-- 200 -->
      <defs>
       <path d="M 19.1875 8.296875 
L 53.609375 8.296875 
L 53.609375 0 
L 7.328125 0 
L 7.328125 8.296875 
Q 12.9375 14.109375 22.625 23.890625 
Q 32.328125 33.6875 34.8125 36.53125 
Q 39.546875 41.84375 41.421875 45.53125 
Q 43.3125 49.21875 43.3125 52.78125 
Q 43.3125 58.59375 39.234375 62.25 
Q 35.15625 65.921875 28.609375 65.921875 
Q 23.96875 65.921875 18.8125 64.3125 
Q 13.671875 62.703125 7.8125 59.421875 
L 7.8125 69.390625 
Q 13.765625 71.78125 18.9375 73 
Q 24.125 74.21875 28.421875 74.21875 
Q 39.75 74.21875 46.484375 68.546875 
Q 53.21875 62.890625 53.21875 53.421875 
Q 53.21875 48.921875 51.53125 44.890625 
Q 49.859375 40.875 45.40625 35.40625 
Q 44.1875 33.984375 37.640625 27.21875 
Q 31.109375 20.453125 19.1875 8.296875 
z
" id="DejaVuSans-50"/>
      </defs>
      <g transform="translate(565.401009 347.245637)scale(0.1 -0.1)">
       <use xlink:href="#DejaVuSans-50"/>
       <use x="63.623047" xlink:href="#DejaVuSans-48"/>
       <use x="127.246094" xlink:href="#DejaVuSans-48"/>
      </g>
     </g>
    </g>
   </g>
   <g id="matplotlib.axis_2">
    <g id="ytick_1">
     <g id="line2d_6">
      <defs>
       <path d="M 0 0 
L -3.5 0 
" id="m3c149b6d1c" style="stroke:#000000;stroke-width:0.8;"/>
      </defs>
      <g>
       <use style="stroke:#000000;stroke-width:0.8;" x="172.8" xlink:href="#m3c149b6d1c" y="315.393948"/>
      </g>
     </g>
     <g id="text_6">
      <!-- −120 -->
      <defs>
       <path d="M 10.59375 35.5 
L 73.1875 35.5 
L 73.1875 27.203125 
L 10.59375 27.203125 
z
" id="DejaVuSans-8722"/>
      </defs>
      <g transform="translate(138.332812 319.193167)scale(0.1 -0.1)">
       <use xlink:href="#DejaVuSans-8722"/>
       <use x="83.789062" xlink:href="#DejaVuSans-49"/>
       <use x="147.412109" xlink:href="#DejaVuSans-50"/>
       <use x="211.035156" xlink:href="#DejaVuSans-48"/>
      </g>
     </g>
    </g>
    <g id="ytick_2">
     <g id="line2d_7">
      <g>
       <use style="stroke:#000000;stroke-width:0.8;" x="172.8" xlink:href="#m3c149b6d1c" y="279.012039"/>
      </g>
     </g>
     <g id="text_7">
      <!-- −100 -->
      <g transform="translate(138.332812 282.811258)scale(0.1 -0.1)">
       <use xlink:href="#DejaVuSans-8722"/>
       <use x="83.789062" xlink:href="#DejaVuSans-49"/>
       <use x="147.412109" xlink:href="#DejaVuSans-48"/>
       <use x="211.035156" xlink:href="#DejaVuSans-48"/>
      </g>
     </g>
    </g>
    <g id="ytick_3">
     <g id="line2d_8">
      <g>
       <use style="stroke:#000000;stroke-width:0.8;" x="172.8" xlink:href="#m3c149b6d1c" y="242.630131"/>
      </g>
     </g>
     <g id="text_8">
      <!-- −80 -->
      <defs>
       <path d="M 31.78125 34.625 
Q 24.75 34.625 20.71875 30.859375 
Q 16.703125 27.09375 16.703125 20.515625 
Q 16.703125 13.921875 20.71875 10.15625 
Q 24.75 6.390625 31.78125 6.390625 
Q 38.8125 6.390625 42.859375 10.171875 
Q 46.921875 13.96875 46.921875 20.515625 
Q 46.921875 27.09375 42.890625 30.859375 
Q 38.875 34.625 31.78125 34.625 
z
M 21.921875 38.8125 
Q 15.578125 40.375 12.03125 44.71875 
Q 8.5 49.078125 8.5 55.328125 
Q 8.5 64.0625 14.71875 69.140625 
Q 20.953125 74.21875 31.78125 74.21875 
Q 42.671875 74.21875 48.875 69.140625 
Q 55.078125 64.0625 55.078125 55.328125 
Q 55.078125 49.078125 51.53125 44.71875 
Q 48 40.375 41.703125 38.8125 
Q 48.828125 37.15625 52.796875 32.3125 
Q 56.78125 27.484375 56.78125 20.515625 
Q 56.78125 9.90625 50.3125 4.234375 
Q 43.84375 -1.421875 31.78125 -1.421875 
Q 19.734375 -1.421875 13.25 4.234375 
Q 6.78125 9.90625 6.78125 20.515625 
Q 6.78125 27.484375 10.78125 32.3125 
Q 14.796875 37.15625 21.921875 38.8125 
z
M 18.3125 54.390625 
Q 18.3125 48.734375 21.84375 45.5625 
Q 25.390625 42.390625 31.78125 42.390625 
Q 38.140625 42.390625 41.71875 45.5625 
Q 45.3125 48.734375 45.3125 54.390625 
Q 45.3125 60.0625 41.71875 63.234375 
Q 38.140625 66.40625 31.78125 66.40625 
Q 25.390625 66.40625 21.84375 63.234375 
Q 18.3125 60.0625 18.3125 54.390625 
z
" id="DejaVuSans-56"/>
      </defs>
      <g transform="translate(144.695312 246.429349)scale(0.1 -0.1)">
       <use xlink:href="#DejaVuSans-8722"/>
       <use x="83.789062" xlink:href="#DejaVuSans-56"/>
       <use x="147.412109" xlink:href="#DejaVuSans-48"/>
      </g>
     </g>
    </g>
    <g id="ytick_4">
     <g id="line2d_9">
      <g>
       <use style="stroke:#000000;stroke-width:0.8;" x="172.8" xlink:href="#m3c149b6d1c" y="206.248222"/>
      </g>
     </g>
     <g id="text_9">
      <!-- −60 -->
      <defs>
       <path d="M 33.015625 40.375 
Q 26.375 40.375 22.484375 35.828125 
Q 18.609375 31.296875 18.609375 23.390625 
Q 18.609375 15.53125 22.484375 10.953125 
Q 26.375 6.390625 33.015625 6.390625 
Q 39.65625 6.390625 43.53125 10.953125 
Q 47.40625 15.53125 47.40625 23.390625 
Q 47.40625 31.296875 43.53125 35.828125 
Q 39.65625 40.375 33.015625 40.375 
z
M 52.59375 71.296875 
L 52.59375 62.3125 
Q 48.875 64.0625 45.09375 64.984375 
Q 41.3125 65.921875 37.59375 65.921875 
Q 27.828125 65.921875 22.671875 59.328125 
Q 17.53125 52.734375 16.796875 39.40625 
Q 19.671875 43.65625 24.015625 45.921875 
Q 28.375 48.1875 33.59375 48.1875 
Q 44.578125 48.1875 50.953125 41.515625 
Q 57.328125 34.859375 57.328125 23.390625 
Q 57.328125 12.15625 50.6875 5.359375 
Q 44.046875 -1.421875 33.015625 -1.421875 
Q 20.359375 -1.421875 13.671875 8.265625 
Q 6.984375 17.96875 6.984375 36.375 
Q 6.984375 53.65625 15.1875 63.9375 
Q 23.390625 74.21875 37.203125 74.21875 
Q 40.921875 74.21875 44.703125 73.484375 
Q 48.484375 72.75 52.59375 71.296875 
z
" id="DejaVuSans-54"/>
      </defs>
      <g transform="translate(144.695312 210.04744)scale(0.1 -0.1)">
       <use xlink:href="#DejaVuSans-8722"/>
       <use x="83.789062" xlink:href="#DejaVuSans-54"/>
       <use x="147.412109" xlink:href="#DejaVuSans-48"/>
      </g>
     </g>
    </g>
    <g id="ytick_5">
     <g id="line2d_10">
      <g>
       <use style="stroke:#000000;stroke-width:0.8;" x="172.8" xlink:href="#m3c149b6d1c" y="169.866313"/>
      </g>
     </g>
     <g id="text_10">
      <!-- −40 -->
      <defs>
       <path d="M 37.796875 64.3125 
L 12.890625 25.390625 
L 37.796875 25.390625 
z
M 35.203125 72.90625 
L 47.609375 72.90625 
L 47.609375 25.390625 
L 58.015625 25.390625 
L 58.015625 17.1875 
L 47.609375 17.1875 
L 47.609375 0 
L 37.796875 0 
L 37.796875 17.1875 
L 4.890625 17.1875 
L 4.890625 26.703125 
z
" id="DejaVuSans-52"/>
      </defs>
      <g transform="translate(144.695312 173.665532)scale(0.1 -0.1)">
       <use xlink:href="#DejaVuSans-8722"/>
       <use x="83.789062" xlink:href="#DejaVuSans-52"/>
       <use x="147.412109" xlink:href="#DejaVuSans-48"/>
      </g>
     </g>
    </g>
    <g id="ytick_6">
     <g id="line2d_11">
      <g>
       <use style="stroke:#000000;stroke-width:0.8;" x="172.8" xlink:href="#m3c149b6d1c" y="133.484404"/>
      </g>
     </g>
     <g id="text_11">
      <!-- −20 -->
      <g transform="translate(144.695312 137.283623)scale(0.1 -0.1)">
       <use xlink:href="#DejaVuSans-8722"/>
       <use x="83.789062" xlink:href="#DejaVuSans-50"/>
       <use x="147.412109" xlink:href="#DejaVuSans-48"/>
      </g>
     </g>
    </g>
    <g id="ytick_7">
     <g id="line2d_12">
      <g>
       <use style="stroke:#000000;stroke-width:0.8;" x="172.8" xlink:href="#m3c149b6d1c" y="97.102495"/>
      </g>
     </g>
     <g id="text_12">
      <!-- 0 -->
      <g transform="translate(159.4375 100.901714)scale(0.1 -0.1)">
       <use xlink:href="#DejaVuSans-48"/>
      </g>
     </g>
    </g>
   </g>
   <g id="line2d_13">
    <path clip-path="url(#p857d561ac8)" d="M 194.935537 97.10292 
L 200.635676 97.303119 
L 212.035952 97.931195 
L 219.636137 97.928317 
L 225.336275 98.160287 
L 229.136367 98.064338 
L 234.836506 97.758359 
L 251.936921 97.628208 
L 261.437151 98.055822 
L 269.037336 98.077551 
L 274.737474 98.157365 
L 280.437612 97.88198 
L 284.237704 97.698271 
L 289.937843 97.701158 
L 305.138212 97.963996 
L 310.83835 98.263936 
L 316.538488 98.239026 
L 343.139134 97.667023 
L 369.739779 98.487637 
L 375.439918 98.381992 
L 386.840194 98.061441 
L 402.040563 97.921778 
L 407.740702 98.118336 
L 419.140978 98.578719 
L 440.041485 98.931599 
L 455.241854 98.739731 
L 474.242315 98.975413 
L 479.942454 99.210344 
L 483.742546 99.101244 
L 487.542638 98.894902 
L 491.34273 98.946044 
L 493.242777 99.102799 
L 495.142823 106.41471 
L 497.042869 112.940103 
L 498.942915 118.039489 
L 500.842961 121.286186 
L 504.643053 124.421207 
L 506.543099 126.004497 
L 508.443145 127.316692 
L 510.343192 128.341386 
L 514.143284 129.989623 
L 516.04333 131.088995 
L 517.943376 132.700167 
L 519.843422 135.102278 
L 521.743468 138.166843 
L 525.54356 145.846088 
L 529.343653 153.639681 
L 531.243699 156.924982 
L 533.143745 159.506803 
L 535.043791 161.18764 
L 536.943837 161.966231 
L 538.843883 162.003417 
L 542.643975 169.832571 
L 548.344114 181.018522 
L 552.144206 188.212968 
L 563.544483 208.015351 
L 571.144667 221.04735 
L 580.644898 236.855141 
L 582.544944 239.723356 
L 584.44499 240.962033 
L 586.345036 240.882758 
L 588.245082 240.668056 
L 590.145128 241.402007 
L 592.045174 243.801201 
L 593.94522 248.455567 
L 595.845267 255.17237 
L 597.745313 263.973673 
L 599.645359 276.535834 
L 601.545405 288.174058 
L 603.445451 297.070603 
L 605.345497 309.270094 
L 607.245543 316.166348 
L 609.145589 321.387382 
L 611.045635 318.925917 
L 612.945682 302.079374 
L 616.745774 284.927519 
L 618.64582 261.40601 
L 620.545866 258.03382 
L 624.345958 241.500993 
L 626.246004 221.754954 
L 628.14605 224.043262 
L 630.046097 228.505115 
L 631.946143 234.242374 
L 633.846189 241.010629 
L 635.746235 249.12095 
L 637.646281 258.177566 
L 637.646281 258.177566 
" style="fill:none;stroke:#ff796c;stroke-linecap:square;stroke-width:1.5;"/>
   </g>
   <g id="line2d_14">
    <path clip-path="url(#p857d561ac8)" d="M 194.935537 96.38665 
L 242.43669 96.488666 
L 303.238166 96.905047 
L 341.239088 97.315857 
L 398.240471 98.079952 
L 449.541716 98.965808 
L 491.34273 99.944228 
L 495.142823 99.991275 
L 535.043791 99.966853 
L 618.64582 99.967794 
L 622.445912 99.872573 
L 624.345958 99.951176 
L 626.246004 100.153535 
L 637.646281 100.226853 
L 637.646281 100.226853 
" style="fill:none;stroke:#ffff14;stroke-linecap:square;stroke-width:1.5;"/>
   </g>
   <g id="line2d_15">
    <path clip-path="url(#p857d561ac8)" d="M 194.935537 96.388138 
L 244.336736 96.495841 
L 297.538027 96.837271 
L 360.239549 97.474021 
L 557.844344 99.670499 
L 611.045635 99.923832 
L 637.646281 99.959763 
L 637.646281 99.959763 
" style="fill:none;stroke:#014d4e;stroke-linecap:square;stroke-width:1.5;"/>
   </g>
   <g id="line2d_16">
    <path clip-path="url(#p857d561ac8)" d="M 194.935537 97.103983 
L 379.24001 97.013695 
L 451.441762 96.698145 
L 489.442684 96.258028 
L 495.142823 96.219399 
L 527.443607 96.565243 
L 582.544944 96.934639 
L 624.345958 97.100952 
L 626.246004 96.901003 
L 637.646281 96.835405 
L 637.646281 96.835405 
" style="fill:none;stroke:#e50000;stroke-linecap:square;stroke-width:1.5;"/>
   </g>
   <g id="patch_3">
    <path d="M 172.8 332.6472 
L 172.8 84.9312 
" style="fill:none;stroke:#000000;stroke-linecap:square;stroke-linejoin:miter;stroke-width:0.8;"/>
   </g>
   <g id="patch_4">
    <path d="M 659.781818 332.6472 
L 659.781818 84.9312 
" style="fill:none;stroke:#000000;stroke-linecap:square;stroke-linejoin:miter;stroke-width:0.8;"/>
   </g>
   <g id="patch_5">
    <path d="M 172.8 332.6472 
L 659.781818 332.6472 
" style="fill:none;stroke:#000000;stroke-linecap:square;stroke-linejoin:miter;stroke-width:0.8;"/>
   </g>
   <g id="patch_6">
    <path d="M 172.8 84.9312 
L 659.781818 84.9312 
" style="fill:none;stroke:#000000;stroke-linecap:square;stroke-linejoin:miter;stroke-width:0.8;"/>
   </g>
   <g id="text_13">
    <!-- Right abduction -->
    <defs>
     <path d="M 44.390625 34.1875 
Q 47.5625 33.109375 50.5625 29.59375 
Q 53.5625 26.078125 56.59375 19.921875 
L 66.609375 0 
L 56 0 
L 46.6875 18.703125 
Q 43.0625 26.03125 39.671875 28.421875 
Q 36.28125 30.8125 30.421875 30.8125 
L 19.671875 30.8125 
L 19.671875 0 
L 9.8125 0 
L 9.8125 72.90625 
L 32.078125 72.90625 
Q 44.578125 72.90625 50.734375 67.671875 
Q 56.890625 62.453125 56.890625 51.90625 
Q 56.890625 45.015625 53.6875 40.46875 
Q 50.484375 35.9375 44.390625 34.1875 
z
M 19.671875 64.796875 
L 19.671875 38.921875 
L 32.078125 38.921875 
Q 39.203125 38.921875 42.84375 42.21875 
Q 46.484375 45.515625 46.484375 51.90625 
Q 46.484375 58.296875 42.84375 61.546875 
Q 39.203125 64.796875 32.078125 64.796875 
z
" id="DejaVuSans-82"/>
     <path d="M 9.421875 54.6875 
L 18.40625 54.6875 
L 18.40625 0 
L 9.421875 0 
z
M 9.421875 75.984375 
L 18.40625 75.984375 
L 18.40625 64.59375 
L 9.421875 64.59375 
z
" id="DejaVuSans-105"/>
     <path d="M 45.40625 27.984375 
Q 45.40625 37.75 41.375 43.109375 
Q 37.359375 48.484375 30.078125 48.484375 
Q 22.859375 48.484375 18.828125 43.109375 
Q 14.796875 37.75 14.796875 27.984375 
Q 14.796875 18.265625 18.828125 12.890625 
Q 22.859375 7.515625 30.078125 7.515625 
Q 37.359375 7.515625 41.375 12.890625 
Q 45.40625 18.265625 45.40625 27.984375 
z
M 54.390625 6.78125 
Q 54.390625 -7.171875 48.1875 -13.984375 
Q 42 -20.796875 29.203125 -20.796875 
Q 24.46875 -20.796875 20.265625 -20.09375 
Q 16.0625 -19.390625 12.109375 -17.921875 
L 12.109375 -9.1875 
Q 16.0625 -11.328125 19.921875 -12.34375 
Q 23.78125 -13.375 27.78125 -13.375 
Q 36.625 -13.375 41.015625 -8.765625 
Q 45.40625 -4.15625 45.40625 5.171875 
L 45.40625 9.625 
Q 42.625 4.78125 38.28125 2.390625 
Q 33.9375 0 27.875 0 
Q 17.828125 0 11.671875 7.65625 
Q 5.515625 15.328125 5.515625 27.984375 
Q 5.515625 40.671875 11.671875 48.328125 
Q 17.828125 56 27.875 56 
Q 33.9375 56 38.28125 53.609375 
Q 42.625 51.21875 45.40625 46.390625 
L 45.40625 54.6875 
L 54.390625 54.6875 
z
" id="DejaVuSans-103"/>
     <path d="M 54.890625 33.015625 
L 54.890625 0 
L 45.90625 0 
L 45.90625 32.71875 
Q 45.90625 40.484375 42.875 44.328125 
Q 39.84375 48.1875 33.796875 48.1875 
Q 26.515625 48.1875 22.3125 43.546875 
Q 18.109375 38.921875 18.109375 30.90625 
L 18.109375 0 
L 9.078125 0 
L 9.078125 75.984375 
L 18.109375 75.984375 
L 18.109375 46.1875 
Q 21.34375 51.125 25.703125 53.5625 
Q 30.078125 56 35.796875 56 
Q 45.21875 56 50.046875 50.171875 
Q 54.890625 44.34375 54.890625 33.015625 
z
" id="DejaVuSans-104"/>
     <path d="M 18.3125 70.21875 
L 18.3125 54.6875 
L 36.8125 54.6875 
L 36.8125 47.703125 
L 18.3125 47.703125 
L 18.3125 18.015625 
Q 18.3125 11.328125 20.140625 9.421875 
Q 21.96875 7.515625 27.59375 7.515625 
L 36.8125 7.515625 
L 36.8125 0 
L 27.59375 0 
Q 17.1875 0 13.234375 3.875 
Q 9.28125 7.765625 9.28125 18.015625 
L 9.28125 47.703125 
L 2.6875 47.703125 
L 2.6875 54.6875 
L 9.28125 54.6875 
L 9.28125 70.21875 
z
" id="DejaVuSans-116"/>
     <path id="DejaVuSans-32"/>
     <path d="M 34.28125 27.484375 
Q 23.390625 27.484375 19.1875 25 
Q 14.984375 22.515625 14.984375 16.5 
Q 14.984375 11.71875 18.140625 8.90625 
Q 21.296875 6.109375 26.703125 6.109375 
Q 34.1875 6.109375 38.703125 11.40625 
Q 43.21875 16.703125 43.21875 25.484375 
L 43.21875 27.484375 
z
M 52.203125 31.203125 
L 52.203125 0 
L 43.21875 0 
L 43.21875 8.296875 
Q 40.140625 3.328125 35.546875 0.953125 
Q 30.953125 -1.421875 24.3125 -1.421875 
Q 15.921875 -1.421875 10.953125 3.296875 
Q 6 8.015625 6 15.921875 
Q 6 25.140625 12.171875 29.828125 
Q 18.359375 34.515625 30.609375 34.515625 
L 43.21875 34.515625 
L 43.21875 35.40625 
Q 43.21875 41.609375 39.140625 45 
Q 35.0625 48.390625 27.6875 48.390625 
Q 23 48.390625 18.546875 47.265625 
Q 14.109375 46.140625 10.015625 43.890625 
L 10.015625 52.203125 
Q 14.9375 54.109375 19.578125 55.046875 
Q 24.21875 56 28.609375 56 
Q 40.484375 56 46.34375 49.84375 
Q 52.203125 43.703125 52.203125 31.203125 
z
" id="DejaVuSans-97"/>
     <path d="M 48.6875 27.296875 
Q 48.6875 37.203125 44.609375 42.84375 
Q 40.53125 48.484375 33.40625 48.484375 
Q 26.265625 48.484375 22.1875 42.84375 
Q 18.109375 37.203125 18.109375 27.296875 
Q 18.109375 17.390625 22.1875 11.75 
Q 26.265625 6.109375 33.40625 6.109375 
Q 40.53125 6.109375 44.609375 11.75 
Q 48.6875 17.390625 48.6875 27.296875 
z
M 18.109375 46.390625 
Q 20.953125 51.265625 25.265625 53.625 
Q 29.59375 56 35.59375 56 
Q 45.5625 56 51.78125 48.09375 
Q 58.015625 40.1875 58.015625 27.296875 
Q 58.015625 14.40625 51.78125 6.484375 
Q 45.5625 -1.421875 35.59375 -1.421875 
Q 29.59375 -1.421875 25.265625 0.953125 
Q 20.953125 3.328125 18.109375 8.203125 
L 18.109375 0 
L 9.078125 0 
L 9.078125 75.984375 
L 18.109375 75.984375 
z
" id="DejaVuSans-98"/>
     <path d="M 45.40625 46.390625 
L 45.40625 75.984375 
L 54.390625 75.984375 
L 54.390625 0 
L 45.40625 0 
L 45.40625 8.203125 
Q 42.578125 3.328125 38.25 0.953125 
Q 33.9375 -1.421875 27.875 -1.421875 
Q 17.96875 -1.421875 11.734375 6.484375 
Q 5.515625 14.40625 5.515625 27.296875 
Q 5.515625 40.1875 11.734375 48.09375 
Q 17.96875 56 27.875 56 
Q 33.9375 56 38.25 53.625 
Q 42.578125 51.265625 45.40625 46.390625 
z
M 14.796875 27.296875 
Q 14.796875 17.390625 18.875 11.75 
Q 22.953125 6.109375 30.078125 6.109375 
Q 37.203125 6.109375 41.296875 11.75 
Q 45.40625 17.390625 45.40625 27.296875 
Q 45.40625 37.203125 41.296875 42.84375 
Q 37.203125 48.484375 30.078125 48.484375 
Q 22.953125 48.484375 18.875 42.84375 
Q 14.796875 37.203125 14.796875 27.296875 
z
" id="DejaVuSans-100"/>
     <path d="M 8.5 21.578125 
L 8.5 54.6875 
L 17.484375 54.6875 
L 17.484375 21.921875 
Q 17.484375 14.15625 20.5 10.265625 
Q 23.53125 6.390625 29.59375 6.390625 
Q 36.859375 6.390625 41.078125 11.03125 
Q 45.3125 15.671875 45.3125 23.6875 
L 45.3125 54.6875 
L 54.296875 54.6875 
L 54.296875 0 
L 45.3125 0 
L 45.3125 8.40625 
Q 42.046875 3.421875 37.71875 1 
Q 33.40625 -1.421875 27.6875 -1.421875 
Q 18.265625 -1.421875 13.375 4.4375 
Q 8.5 10.296875 8.5 21.578125 
z
M 31.109375 56 
z
" id="DejaVuSans-117"/>
     <path d="M 48.78125 52.59375 
L 48.78125 44.1875 
Q 44.96875 46.296875 41.140625 47.34375 
Q 37.3125 48.390625 33.40625 48.390625 
Q 24.65625 48.390625 19.8125 42.84375 
Q 14.984375 37.3125 14.984375 27.296875 
Q 14.984375 17.28125 19.8125 11.734375 
Q 24.65625 6.203125 33.40625 6.203125 
Q 37.3125 6.203125 41.140625 7.25 
Q 44.96875 8.296875 48.78125 10.40625 
L 48.78125 2.09375 
Q 45.015625 0.34375 40.984375 -0.53125 
Q 36.96875 -1.421875 32.421875 -1.421875 
Q 20.0625 -1.421875 12.78125 6.34375 
Q 5.515625 14.109375 5.515625 27.296875 
Q 5.515625 40.671875 12.859375 48.328125 
Q 20.21875 56 33.015625 56 
Q 37.15625 56 41.109375 55.140625 
Q 45.0625 54.296875 48.78125 52.59375 
z
" id="DejaVuSans-99"/>
     <path d="M 30.609375 48.390625 
Q 23.390625 48.390625 19.1875 42.75 
Q 14.984375 37.109375 14.984375 27.296875 
Q 14.984375 17.484375 19.15625 11.84375 
Q 23.34375 6.203125 30.609375 6.203125 
Q 37.796875 6.203125 41.984375 11.859375 
Q 46.1875 17.53125 46.1875 27.296875 
Q 46.1875 37.015625 41.984375 42.703125 
Q 37.796875 48.390625 30.609375 48.390625 
z
M 30.609375 56 
Q 42.328125 56 49.015625 48.375 
Q 55.71875 40.765625 55.71875 27.296875 
Q 55.71875 13.875 49.015625 6.21875 
Q 42.328125 -1.421875 30.609375 -1.421875 
Q 18.84375 -1.421875 12.171875 6.21875 
Q 5.515625 13.875 5.515625 27.296875 
Q 5.515625 40.765625 12.171875 48.375 
Q 18.84375 56 30.609375 56 
z
" id="DejaVuSans-111"/>
     <path d="M 54.890625 33.015625 
L 54.890625 0 
L 45.90625 0 
L 45.90625 32.71875 
Q 45.90625 40.484375 42.875 44.328125 
Q 39.84375 48.1875 33.796875 48.1875 
Q 26.515625 48.1875 22.3125 43.546875 
Q 18.109375 38.921875 18.109375 30.90625 
L 18.109375 0 
L 9.078125 0 
L 9.078125 54.6875 
L 18.109375 54.6875 
L 18.109375 46.1875 
Q 21.34375 51.125 25.703125 53.5625 
Q 30.078125 56 35.796875 56 
Q 45.21875 56 50.046875 50.171875 
Q 54.890625 44.34375 54.890625 33.015625 
z
" id="DejaVuSans-110"/>
    </defs>
    <g transform="translate(368.694972 78.9312)scale(0.12 -0.12)">
     <use xlink:href="#DejaVuSans-82"/>
     <use x="69.482422" xlink:href="#DejaVuSans-105"/>
     <use x="97.265625" xlink:href="#DejaVuSans-103"/>
     <use x="160.742188" xlink:href="#DejaVuSans-104"/>
     <use x="224.121094" xlink:href="#DejaVuSans-116"/>
     <use x="263.330078" xlink:href="#DejaVuSans-32"/>
     <use x="295.117188" xlink:href="#DejaVuSans-97"/>
     <use x="356.396484" xlink:href="#DejaVuSans-98"/>
     <use x="419.873047" xlink:href="#DejaVuSans-100"/>
     <use x="483.349609" xlink:href="#DejaVuSans-117"/>
     <use x="546.728516" xlink:href="#DejaVuSans-99"/>
     <use x="601.708984" xlink:href="#DejaVuSans-116"/>
     <use x="640.917969" xlink:href="#DejaVuSans-105"/>
     <use x="668.701172" xlink:href="#DejaVuSans-111"/>
     <use x="729.882812" xlink:href="#DejaVuSans-110"/>
    </g>
   </g>
  </g>
  <g id="axes_2">
   <g id="patch_7">
    <path d="M 757.178182 332.6472 
L 1244.16 332.6472 
L 1244.16 84.9312 
L 757.178182 84.9312 
z
" style="fill:#ffffff;"/>
   </g>
   <g id="matplotlib.axis_3">
    <g id="xtick_6">
     <g id="line2d_17">
      <g>
       <use style="stroke:#000000;stroke-width:0.8;" x="779.313719" xlink:href="#m385c4ca42a" y="332.6472"/>
      </g>
     </g>
     <g id="text_14">
      <!-- 0 -->
      <g transform="translate(776.132469 347.245637)scale(0.1 -0.1)">
       <use xlink:href="#DejaVuSans-48"/>
      </g>
     </g>
    </g>
    <g id="xtick_7">
     <g id="line2d_18">
      <g>
       <use style="stroke:#000000;stroke-width:0.8;" x="874.316025" xlink:href="#m385c4ca42a" y="332.6472"/>
      </g>
     </g>
     <g id="text_15">
      <!-- 50 -->
      <g transform="translate(867.953525 347.245637)scale(0.1 -0.1)">
       <use xlink:href="#DejaVuSans-53"/>
       <use x="63.623047" xlink:href="#DejaVuSans-48"/>
      </g>
     </g>
    </g>
    <g id="xtick_8">
     <g id="line2d_19">
      <g>
       <use style="stroke:#000000;stroke-width:0.8;" x="969.31833" xlink:href="#m385c4ca42a" y="332.6472"/>
      </g>
     </g>
     <g id="text_16">
      <!-- 100 -->
      <g transform="translate(959.77458 347.245637)scale(0.1 -0.1)">
       <use xlink:href="#DejaVuSans-49"/>
       <use x="63.623047" xlink:href="#DejaVuSans-48"/>
       <use x="127.246094" xlink:href="#DejaVuSans-48"/>
      </g>
     </g>
    </g>
    <g id="xtick_9">
     <g id="line2d_20">
      <g>
       <use style="stroke:#000000;stroke-width:0.8;" x="1064.320636" xlink:href="#m385c4ca42a" y="332.6472"/>
      </g>
     </g>
     <g id="text_17">
      <!-- 150 -->
      <g transform="translate(1054.776886 347.245637)scale(0.1 -0.1)">
       <use xlink:href="#DejaVuSans-49"/>
       <use x="63.623047" xlink:href="#DejaVuSans-53"/>
       <use x="127.246094" xlink:href="#DejaVuSans-48"/>
      </g>
     </g>
    </g>
    <g id="xtick_10">
     <g id="line2d_21">
      <g>
       <use style="stroke:#000000;stroke-width:0.8;" x="1159.322941" xlink:href="#m385c4ca42a" y="332.6472"/>
      </g>
     </g>
     <g id="text_18">
      <!-- 200 -->
      <g transform="translate(1149.779191 347.245637)scale(0.1 -0.1)">
       <use xlink:href="#DejaVuSans-50"/>
       <use x="63.623047" xlink:href="#DejaVuSans-48"/>
       <use x="127.246094" xlink:href="#DejaVuSans-48"/>
      </g>
     </g>
    </g>
   </g>
   <g id="matplotlib.axis_4">
    <g id="ytick_8">
     <g id="line2d_22">
      <g>
       <use style="stroke:#000000;stroke-width:0.8;" x="757.178182" xlink:href="#m3c149b6d1c" y="316.386173"/>
      </g>
     </g>
     <g id="text_19">
      <!-- −40 -->
      <g transform="translate(729.073494 320.185392)scale(0.1 -0.1)">
       <use xlink:href="#DejaVuSans-8722"/>
       <use x="83.789062" xlink:href="#DejaVuSans-52"/>
       <use x="147.412109" xlink:href="#DejaVuSans-48"/>
      </g>
     </g>
    </g>
    <g id="ytick_9">
     <g id="line2d_23">
      <g>
       <use style="stroke:#000000;stroke-width:0.8;" x="757.178182" xlink:href="#m3c149b6d1c" y="265.176789"/>
      </g>
     </g>
     <g id="text_20">
      <!-- −30 -->
      <defs>
       <path d="M 40.578125 39.3125 
Q 47.65625 37.796875 51.625 33 
Q 55.609375 28.21875 55.609375 21.1875 
Q 55.609375 10.40625 48.1875 4.484375 
Q 40.765625 -1.421875 27.09375 -1.421875 
Q 22.515625 -1.421875 17.65625 -0.515625 
Q 12.796875 0.390625 7.625 2.203125 
L 7.625 11.71875 
Q 11.71875 9.328125 16.59375 8.109375 
Q 21.484375 6.890625 26.8125 6.890625 
Q 36.078125 6.890625 40.9375 10.546875 
Q 45.796875 14.203125 45.796875 21.1875 
Q 45.796875 27.640625 41.28125 31.265625 
Q 36.765625 34.90625 28.71875 34.90625 
L 20.21875 34.90625 
L 20.21875 43.015625 
L 29.109375 43.015625 
Q 36.375 43.015625 40.234375 45.921875 
Q 44.09375 48.828125 44.09375 54.296875 
Q 44.09375 59.90625 40.109375 62.90625 
Q 36.140625 65.921875 28.71875 65.921875 
Q 24.65625 65.921875 20.015625 65.03125 
Q 15.375 64.15625 9.8125 62.3125 
L 9.8125 71.09375 
Q 15.4375 72.65625 20.34375 73.4375 
Q 25.25 74.21875 29.59375 74.21875 
Q 40.828125 74.21875 47.359375 69.109375 
Q 53.90625 64.015625 53.90625 55.328125 
Q 53.90625 49.265625 50.4375 45.09375 
Q 46.96875 40.921875 40.578125 39.3125 
z
" id="DejaVuSans-51"/>
      </defs>
      <g transform="translate(729.073494 268.976008)scale(0.1 -0.1)">
       <use xlink:href="#DejaVuSans-8722"/>
       <use x="83.789062" xlink:href="#DejaVuSans-51"/>
       <use x="147.412109" xlink:href="#DejaVuSans-48"/>
      </g>
     </g>
    </g>
    <g id="ytick_10">
     <g id="line2d_24">
      <g>
       <use style="stroke:#000000;stroke-width:0.8;" x="757.178182" xlink:href="#m3c149b6d1c" y="213.967404"/>
      </g>
     </g>
     <g id="text_21">
      <!-- −20 -->
      <g transform="translate(729.073494 217.766623)scale(0.1 -0.1)">
       <use xlink:href="#DejaVuSans-8722"/>
       <use x="83.789062" xlink:href="#DejaVuSans-50"/>
       <use x="147.412109" xlink:href="#DejaVuSans-48"/>
      </g>
     </g>
    </g>
    <g id="ytick_11">
     <g id="line2d_25">
      <g>
       <use style="stroke:#000000;stroke-width:0.8;" x="757.178182" xlink:href="#m3c149b6d1c" y="162.75802"/>
      </g>
     </g>
     <g id="text_22">
      <!-- −10 -->
      <g transform="translate(729.073494 166.557239)scale(0.1 -0.1)">
       <use xlink:href="#DejaVuSans-8722"/>
       <use x="83.789062" xlink:href="#DejaVuSans-49"/>
       <use x="147.412109" xlink:href="#DejaVuSans-48"/>
      </g>
     </g>
    </g>
    <g id="ytick_12">
     <g id="line2d_26">
      <g>
       <use style="stroke:#000000;stroke-width:0.8;" x="757.178182" xlink:href="#m3c149b6d1c" y="111.548635"/>
      </g>
     </g>
     <g id="text_23">
      <!-- 0 -->
      <g transform="translate(743.815682 115.347854)scale(0.1 -0.1)">
       <use xlink:href="#DejaVuSans-48"/>
      </g>
     </g>
    </g>
   </g>
   <g id="line2d_27">
    <path clip-path="url(#pd815a45bc0)" d="M 779.313719 111.548821 
L 1077.620958 111.515502 
L 1079.521005 111.105693 
L 1081.421051 110.829441 
L 1087.121189 111.112241 
L 1089.021235 111.437948 
L 1090.921281 111.949852 
L 1094.721373 113.337019 
L 1098.521466 114.928773 
L 1100.421512 115.620217 
L 1102.321558 115.942738 
L 1104.221604 115.906267 
L 1106.12165 116.15573 
L 1108.021696 116.204658 
L 1109.921742 116.027233 
L 1111.821788 115.646826 
L 1113.721834 115.080792 
L 1115.621881 114.346604 
L 1119.421973 112.534208 
L 1123.222065 110.730008 
L 1125.122111 111.234871 
L 1128.922203 111.767693 
L 1132.722296 111.973727 
L 1138.422434 112.063304 
L 1144.122572 112.4085 
L 1149.822711 112.542778 
L 1155.522849 112.649131 
L 1168.823172 113.058543 
L 1172.623264 113.562163 
L 1176.423356 114.166073 
L 1178.323402 114.217134 
L 1180.223448 113.848839 
L 1182.123494 112.68145 
L 1184.023541 111.35824 
L 1185.923587 112.030071 
L 1187.823633 113.462497 
L 1189.723679 116.063962 
L 1191.623725 117.68543 
L 1193.523771 113.922338 
L 1195.423817 96.191018 
L 1197.323863 106.187734 
L 1199.223909 161.860788 
L 1201.123956 249.675607 
L 1203.024002 313.850383 
L 1204.924048 321.387382 
L 1206.824094 307.777864 
L 1208.72414 305.339482 
L 1210.624186 300.280019 
L 1212.524232 293.852919 
L 1216.324324 280.015048 
L 1218.224371 266.768473 
L 1220.124417 261.912489 
L 1222.024463 257.41416 
L 1222.024463 257.41416 
" style="fill:none;stroke:#ff796c;stroke-linecap:square;stroke-width:1.5;"/>
   </g>
   <g id="line2d_28">
    <path clip-path="url(#pd815a45bc0)" d="M 779.313719 109.485637 
L 1187.823633 109.412477 
L 1193.523771 109.018571 
L 1195.423817 109.130856 
L 1197.323863 109.003548 
L 1199.223909 108.731006 
L 1216.324324 108.979517 
L 1218.224371 109.691214 
L 1222.024463 109.596916 
L 1222.024463 109.596916 
" style="fill:none;stroke:#ffff14;stroke-linecap:square;stroke-width:1.5;"/>
   </g>
   <g id="line2d_29">
    <path clip-path="url(#pd815a45bc0)" d="M 779.313719 109.488265 
L 1222.024463 109.488265 
L 1222.024463 109.488265 
" style="fill:none;stroke:#014d4e;stroke-linecap:square;stroke-width:1.5;"/>
   </g>
   <g id="line2d_30">
    <path clip-path="url(#pd815a45bc0)" d="M 779.313719 111.551264 
L 1187.823633 111.624423 
L 1193.523771 112.018329 
L 1195.423817 111.906044 
L 1197.323863 112.033353 
L 1199.223909 112.305894 
L 1216.324324 112.057384 
L 1218.224371 111.345687 
L 1222.024463 111.439985 
L 1222.024463 111.439985 
" style="fill:none;stroke:#e50000;stroke-linecap:square;stroke-width:1.5;"/>
   </g>
   <g id="patch_8">
    <path d="M 757.178182 332.6472 
L 757.178182 84.9312 
" style="fill:none;stroke:#000000;stroke-linecap:square;stroke-linejoin:miter;stroke-width:0.8;"/>
   </g>
   <g id="patch_9">
    <path d="M 1244.16 332.6472 
L 1244.16 84.9312 
" style="fill:none;stroke:#000000;stroke-linecap:square;stroke-linejoin:miter;stroke-width:0.8;"/>
   </g>
   <g id="patch_10">
    <path d="M 757.178182 332.6472 
L 1244.16 332.6472 
" style="fill:none;stroke:#000000;stroke-linecap:square;stroke-linejoin:miter;stroke-width:0.8;"/>
   </g>
   <g id="patch_11">
    <path d="M 757.178182 84.9312 
L 1244.16 84.9312 
" style="fill:none;stroke:#000000;stroke-linecap:square;stroke-linejoin:miter;stroke-width:0.8;"/>
   </g>
   <g id="text_24">
    <!-- Right flexion -->
    <defs>
     <path d="M 37.109375 75.984375 
L 37.109375 68.5 
L 28.515625 68.5 
Q 23.6875 68.5 21.796875 66.546875 
Q 19.921875 64.59375 19.921875 59.515625 
L 19.921875 54.6875 
L 34.71875 54.6875 
L 34.71875 47.703125 
L 19.921875 47.703125 
L 19.921875 0 
L 10.890625 0 
L 10.890625 47.703125 
L 2.296875 47.703125 
L 2.296875 54.6875 
L 10.890625 54.6875 
L 10.890625 58.5 
Q 10.890625 67.625 15.140625 71.796875 
Q 19.390625 75.984375 28.609375 75.984375 
z
" id="DejaVuSans-102"/>
     <path d="M 9.421875 75.984375 
L 18.40625 75.984375 
L 18.40625 0 
L 9.421875 0 
z
" id="DejaVuSans-108"/>
     <path d="M 56.203125 29.59375 
L 56.203125 25.203125 
L 14.890625 25.203125 
Q 15.484375 15.921875 20.484375 11.0625 
Q 25.484375 6.203125 34.421875 6.203125 
Q 39.59375 6.203125 44.453125 7.46875 
Q 49.3125 8.734375 54.109375 11.28125 
L 54.109375 2.78125 
Q 49.265625 0.734375 44.1875 -0.34375 
Q 39.109375 -1.421875 33.890625 -1.421875 
Q 20.796875 -1.421875 13.15625 6.1875 
Q 5.515625 13.8125 5.515625 26.8125 
Q 5.515625 40.234375 12.765625 48.109375 
Q 20.015625 56 32.328125 56 
Q 43.359375 56 49.78125 48.890625 
Q 56.203125 41.796875 56.203125 29.59375 
z
M 47.21875 32.234375 
Q 47.125 39.59375 43.09375 43.984375 
Q 39.0625 48.390625 32.421875 48.390625 
Q 24.90625 48.390625 20.390625 44.140625 
Q 15.875 39.890625 15.1875 32.171875 
z
" id="DejaVuSans-101"/>
     <path d="M 54.890625 54.6875 
L 35.109375 28.078125 
L 55.90625 0 
L 45.3125 0 
L 29.390625 21.484375 
L 13.484375 0 
L 2.875 0 
L 24.125 28.609375 
L 4.6875 54.6875 
L 15.28125 54.6875 
L 29.78125 35.203125 
L 44.28125 54.6875 
z
" id="DejaVuSans-120"/>
    </defs>
    <g transform="translate(962.800653 78.9312)scale(0.12 -0.12)">
     <use xlink:href="#DejaVuSans-82"/>
     <use x="69.482422" xlink:href="#DejaVuSans-105"/>
     <use x="97.265625" xlink:href="#DejaVuSans-103"/>
     <use x="160.742188" xlink:href="#DejaVuSans-104"/>
     <use x="224.121094" xlink:href="#DejaVuSans-116"/>
     <use x="263.330078" xlink:href="#DejaVuSans-32"/>
     <use x="295.117188" xlink:href="#DejaVuSans-102"/>
     <use x="330.322266" xlink:href="#DejaVuSans-108"/>
     <use x="358.105469" xlink:href="#DejaVuSans-101"/>
     <use x="419.613281" xlink:href="#DejaVuSans-120"/>
     <use x="478.792969" xlink:href="#DejaVuSans-105"/>
     <use x="506.576172" xlink:href="#DejaVuSans-111"/>
     <use x="567.757812" xlink:href="#DejaVuSans-110"/>
    </g>
   </g>
  </g>
  <g id="axes_3">
   <g id="patch_12">
    <path d="M 172.8 629.9064 
L 659.781818 629.9064 
L 659.781818 382.1904 
L 172.8 382.1904 
z
" style="fill:#ffffff;"/>
   </g>
   <g id="matplotlib.axis_5">
    <g id="xtick_11">
     <g id="line2d_31">
      <g>
       <use style="stroke:#000000;stroke-width:0.8;" x="194.935537" xlink:href="#m385c4ca42a" y="629.9064"/>
      </g>
     </g>
     <g id="text_25">
      <!-- 0 -->
      <g transform="translate(191.754287 644.504838)scale(0.1 -0.1)">
       <use xlink:href="#DejaVuSans-48"/>
      </g>
     </g>
    </g>
    <g id="xtick_12">
     <g id="line2d_32">
      <g>
       <use style="stroke:#000000;stroke-width:0.8;" x="289.937843" xlink:href="#m385c4ca42a" y="629.9064"/>
      </g>
     </g>
     <g id="text_26">
      <!-- 50 -->
      <g transform="translate(283.575343 644.504838)scale(0.1 -0.1)">
       <use xlink:href="#DejaVuSans-53"/>
       <use x="63.623047" xlink:href="#DejaVuSans-48"/>
      </g>
     </g>
    </g>
    <g id="xtick_13">
     <g id="line2d_33">
      <g>
       <use style="stroke:#000000;stroke-width:0.8;" x="384.940148" xlink:href="#m385c4ca42a" y="629.9064"/>
      </g>
     </g>
     <g id="text_27">
      <!-- 100 -->
      <g transform="translate(375.396398 644.504838)scale(0.1 -0.1)">
       <use xlink:href="#DejaVuSans-49"/>
       <use x="63.623047" xlink:href="#DejaVuSans-48"/>
       <use x="127.246094" xlink:href="#DejaVuSans-48"/>
      </g>
     </g>
    </g>
    <g id="xtick_14">
     <g id="line2d_34">
      <g>
       <use style="stroke:#000000;stroke-width:0.8;" x="479.942454" xlink:href="#m385c4ca42a" y="629.9064"/>
      </g>
     </g>
     <g id="text_28">
      <!-- 150 -->
      <g transform="translate(470.398704 644.504838)scale(0.1 -0.1)">
       <use xlink:href="#DejaVuSans-49"/>
       <use x="63.623047" xlink:href="#DejaVuSans-53"/>
       <use x="127.246094" xlink:href="#DejaVuSans-48"/>
      </g>
     </g>
    </g>
    <g id="xtick_15">
     <g id="line2d_35">
      <g>
       <use style="stroke:#000000;stroke-width:0.8;" x="574.944759" xlink:href="#m385c4ca42a" y="629.9064"/>
      </g>
     </g>
     <g id="text_29">
      <!-- 200 -->
      <g transform="translate(565.401009 644.504838)scale(0.1 -0.1)">
       <use xlink:href="#DejaVuSans-50"/>
       <use x="63.623047" xlink:href="#DejaVuSans-48"/>
       <use x="127.246094" xlink:href="#DejaVuSans-48"/>
      </g>
     </g>
    </g>
   </g>
   <g id="matplotlib.axis_6">
    <g id="ytick_13">
     <g id="line2d_36">
      <g>
       <use style="stroke:#000000;stroke-width:0.8;" x="172.8" xlink:href="#m3c149b6d1c" y="615.217001"/>
      </g>
     </g>
     <g id="text_30">
      <!-- −17.5 -->
      <defs>
       <path d="M 8.203125 72.90625 
L 55.078125 72.90625 
L 55.078125 68.703125 
L 28.609375 0 
L 18.3125 0 
L 43.21875 64.59375 
L 8.203125 64.59375 
z
" id="DejaVuSans-55"/>
       <path d="M 10.6875 12.40625 
L 21 12.40625 
L 21 0 
L 10.6875 0 
z
" id="DejaVuSans-46"/>
      </defs>
      <g transform="translate(135.154687 619.01622)scale(0.1 -0.1)">
       <use xlink:href="#DejaVuSans-8722"/>
       <use x="83.789062" xlink:href="#DejaVuSans-49"/>
       <use x="147.412109" xlink:href="#DejaVuSans-55"/>
       <use x="211.035156" xlink:href="#DejaVuSans-46"/>
       <use x="242.822266" xlink:href="#DejaVuSans-53"/>
      </g>
     </g>
    </g>
    <g id="ytick_14">
     <g id="line2d_37">
      <g>
       <use style="stroke:#000000;stroke-width:0.8;" x="172.8" xlink:href="#m3c149b6d1c" y="586.145485"/>
      </g>
     </g>
     <g id="text_31">
      <!-- −15.0 -->
      <g transform="translate(135.154687 589.944704)scale(0.1 -0.1)">
       <use xlink:href="#DejaVuSans-8722"/>
       <use x="83.789062" xlink:href="#DejaVuSans-49"/>
       <use x="147.412109" xlink:href="#DejaVuSans-53"/>
       <use x="211.035156" xlink:href="#DejaVuSans-46"/>
       <use x="242.822266" xlink:href="#DejaVuSans-48"/>
      </g>
     </g>
    </g>
    <g id="ytick_15">
     <g id="line2d_38">
      <g>
       <use style="stroke:#000000;stroke-width:0.8;" x="172.8" xlink:href="#m3c149b6d1c" y="557.073969"/>
      </g>
     </g>
     <g id="text_32">
      <!-- −12.5 -->
      <g transform="translate(135.154687 560.873188)scale(0.1 -0.1)">
       <use xlink:href="#DejaVuSans-8722"/>
       <use x="83.789062" xlink:href="#DejaVuSans-49"/>
       <use x="147.412109" xlink:href="#DejaVuSans-50"/>
       <use x="211.035156" xlink:href="#DejaVuSans-46"/>
       <use x="242.822266" xlink:href="#DejaVuSans-53"/>
      </g>
     </g>
    </g>
    <g id="ytick_16">
     <g id="line2d_39">
      <g>
       <use style="stroke:#000000;stroke-width:0.8;" x="172.8" xlink:href="#m3c149b6d1c" y="528.002453"/>
      </g>
     </g>
     <g id="text_33">
      <!-- −10.0 -->
      <g transform="translate(135.154687 531.801672)scale(0.1 -0.1)">
       <use xlink:href="#DejaVuSans-8722"/>
       <use x="83.789062" xlink:href="#DejaVuSans-49"/>
       <use x="147.412109" xlink:href="#DejaVuSans-48"/>
       <use x="211.035156" xlink:href="#DejaVuSans-46"/>
       <use x="242.822266" xlink:href="#DejaVuSans-48"/>
      </g>
     </g>
    </g>
    <g id="ytick_17">
     <g id="line2d_40">
      <g>
       <use style="stroke:#000000;stroke-width:0.8;" x="172.8" xlink:href="#m3c149b6d1c" y="498.930938"/>
      </g>
     </g>
     <g id="text_34">
      <!-- −7.5 -->
      <g transform="translate(141.517187 502.730156)scale(0.1 -0.1)">
       <use xlink:href="#DejaVuSans-8722"/>
       <use x="83.789062" xlink:href="#DejaVuSans-55"/>
       <use x="147.412109" xlink:href="#DejaVuSans-46"/>
       <use x="179.199219" xlink:href="#DejaVuSans-53"/>
      </g>
     </g>
    </g>
    <g id="ytick_18">
     <g id="line2d_41">
      <g>
       <use style="stroke:#000000;stroke-width:0.8;" x="172.8" xlink:href="#m3c149b6d1c" y="469.859422"/>
      </g>
     </g>
     <g id="text_35">
      <!-- −5.0 -->
      <g transform="translate(141.517187 473.658641)scale(0.1 -0.1)">
       <use xlink:href="#DejaVuSans-8722"/>
       <use x="83.789062" xlink:href="#DejaVuSans-53"/>
       <use x="147.412109" xlink:href="#DejaVuSans-46"/>
       <use x="179.199219" xlink:href="#DejaVuSans-48"/>
      </g>
     </g>
    </g>
    <g id="ytick_19">
     <g id="line2d_42">
      <g>
       <use style="stroke:#000000;stroke-width:0.8;" x="172.8" xlink:href="#m3c149b6d1c" y="440.787906"/>
      </g>
     </g>
     <g id="text_36">
      <!-- −2.5 -->
      <g transform="translate(141.517187 444.587125)scale(0.1 -0.1)">
       <use xlink:href="#DejaVuSans-8722"/>
       <use x="83.789062" xlink:href="#DejaVuSans-50"/>
       <use x="147.412109" xlink:href="#DejaVuSans-46"/>
       <use x="179.199219" xlink:href="#DejaVuSans-53"/>
      </g>
     </g>
    </g>
    <g id="ytick_20">
     <g id="line2d_43">
      <g>
       <use style="stroke:#000000;stroke-width:0.8;" x="172.8" xlink:href="#m3c149b6d1c" y="411.71639"/>
      </g>
     </g>
     <g id="text_37">
      <!-- 0.0 -->
      <g transform="translate(149.896875 415.515609)scale(0.1 -0.1)">
       <use xlink:href="#DejaVuSans-48"/>
       <use x="63.623047" xlink:href="#DejaVuSans-46"/>
       <use x="95.410156" xlink:href="#DejaVuSans-48"/>
      </g>
     </g>
    </g>
    <g id="ytick_21">
     <g id="line2d_44">
      <g>
       <use style="stroke:#000000;stroke-width:0.8;" x="172.8" xlink:href="#m3c149b6d1c" y="382.644874"/>
      </g>
     </g>
     <g id="text_38">
      <!-- 2.5 -->
      <g transform="translate(149.896875 386.444093)scale(0.1 -0.1)">
       <use xlink:href="#DejaVuSans-50"/>
       <use x="63.623047" xlink:href="#DejaVuSans-46"/>
       <use x="95.410156" xlink:href="#DejaVuSans-53"/>
      </g>
     </g>
    </g>
   </g>
   <g id="line2d_45">
    <path clip-path="url(#pe0a12bde7e)" d="M 194.935537 411.716807 
L 198.735629 411.895134 
L 206.335814 412.374612 
L 208.23586 412.376913 
L 210.135906 412.263564 
L 212.035952 412.004231 
L 217.736091 410.934406 
L 219.636137 410.792792 
L 223.436229 410.949372 
L 227.236321 411.204703 
L 232.936459 411.382122 
L 236.736552 411.900514 
L 240.536644 412.569511 
L 242.43669 412.749372 
L 244.336736 412.764475 
L 248.136828 412.448093 
L 251.936921 412.128288 
L 257.637059 411.823095 
L 261.437151 411.314532 
L 265.237243 410.789231 
L 267.137289 410.690808 
L 269.037336 410.742989 
L 272.837428 411.153947 
L 276.63752 411.560614 
L 286.137751 412.241 
L 289.937843 412.621289 
L 291.837889 412.695321 
L 293.737935 412.644498 
L 297.538027 412.227648 
L 301.338119 411.722454 
L 305.138212 411.439872 
L 312.738396 411.110778 
L 316.538488 410.890072 
L 320.33858 410.945285 
L 324.138673 411.373371 
L 327.938765 411.892222 
L 331.738857 412.174172 
L 337.438995 412.163378 
L 350.739318 412.008163 
L 360.239549 411.108849 
L 364.039641 411.0854 
L 384.940148 411.762894 
L 390.640287 412.101867 
L 394.440379 412.109153 
L 407.740702 411.721105 
L 413.44084 411.70693 
L 419.140978 411.424826 
L 424.841117 411.144374 
L 428.641209 411.170048 
L 440.041485 411.579711 
L 451.441762 411.522303 
L 462.842039 411.992577 
L 468.542177 411.868216 
L 479.942454 411.513096 
L 481.8425 411.164754 
L 487.542638 409.730691 
L 489.442684 409.537792 
L 491.34273 409.622932 
L 493.242777 409.962372 
L 495.142823 423.33821 
L 497.042869 434.459349 
L 498.942915 440.86661 
L 500.842961 441.242358 
L 506.543099 426.302699 
L 508.443145 420.810291 
L 510.343192 414.644546 
L 512.243238 408.076591 
L 514.143284 402.164919 
L 516.04333 397.805577 
L 517.943376 395.708915 
L 519.843422 396.332443 
L 521.743468 399.140027 
L 523.643514 404.101067 
L 529.343653 421.560014 
L 531.243699 425.288768 
L 533.143745 426.637704 
L 535.043791 425.029437 
L 536.943837 420.452016 
L 538.843883 413.433687 
L 542.643975 425.017252 
L 548.344114 441.353078 
L 552.144206 451.732863 
L 567.344575 488.142591 
L 573.044713 501.046425 
L 578.744852 513.471076 
L 580.644898 517.572275 
L 582.544944 521.364771 
L 584.44499 523.005439 
L 586.345036 522.684245 
L 588.245082 521.760903 
L 590.145128 521.48739 
L 592.045174 522.699776 
L 593.94522 526.426155 
L 595.845267 533.249677 
L 597.745313 544.91883 
L 599.645359 564.48765 
L 601.545405 578.497762 
L 603.445451 586.723255 
L 605.345497 605.789224 
L 607.245543 613.293394 
L 609.145589 618.646582 
L 611.045635 618.095585 
L 612.945682 593.860109 
L 614.845728 585.504266 
L 616.745774 572.972693 
L 618.64582 540.361956 
L 620.545866 538.65289 
L 622.445912 520.937825 
L 624.345958 507.322369 
L 626.246004 474.551659 
L 628.14605 477.512147 
L 630.046097 483.724795 
L 631.946143 492.000775 
L 633.846189 502.087344 
L 635.746235 514.464834 
L 637.646281 528.630289 
L 637.646281 528.630289 
" style="fill:none;stroke:#ff796c;stroke-linecap:square;stroke-width:1.5;"/>
   </g>
   <g id="line2d_46">
    <path clip-path="url(#pe0a12bde7e)" d="M 194.935537 393.459865 
L 204.435768 393.52501 
L 210.135906 393.75963 
L 221.536183 394.394599 
L 227.236321 394.399065 
L 234.836506 394.173921 
L 242.43669 393.940108 
L 248.136828 394.077279 
L 255.737013 394.581792 
L 267.137289 395.410085 
L 272.837428 395.487481 
L 289.937843 395.34264 
L 295.637981 395.627166 
L 316.538488 397.273373 
L 322.238627 397.374609 
L 335.538949 397.356277 
L 343.139134 397.644556 
L 350.739318 398.184767 
L 362.139595 399.138358 
L 369.739779 399.458427 
L 379.24001 399.58017 
L 394.440379 399.618213 
L 405.840655 400.025117 
L 426.741163 400.800362 
L 434.341347 400.786442 
L 453.341808 400.443273 
L 464.742085 400.215404 
L 476.142362 400.283034 
L 487.542638 400.349302 
L 491.34273 400.093034 
L 493.242777 399.874169 
L 495.142823 399.164482 
L 497.042869 398.821314 
L 498.942915 399.308099 
L 500.842961 400.845533 
L 514.143284 418.01998 
L 516.04333 420.017962 
L 517.943376 421.542193 
L 519.843422 422.551364 
L 521.743468 423.148807 
L 523.643514 423.374691 
L 529.343653 423.46033 
L 531.243699 423.862598 
L 533.143745 424.69425 
L 535.043791 426.041238 
L 536.943837 427.902759 
L 538.843883 430.180933 
L 552.144206 430.023834 
L 584.44499 430.00701 
L 611.045635 430.017597 
L 620.545866 429.900729 
L 622.445912 431.834167 
L 630.046097 431.74543 
L 633.846189 431.765596 
L 637.646281 431.719386 
L 637.646281 431.719386 
" style="fill:none;stroke:#ffff14;stroke-linecap:square;stroke-width:1.5;"/>
   </g>
   <g id="line2d_47">
    <path clip-path="url(#pe0a12bde7e)" d="M 194.935537 393.450218 
L 213.935998 393.552952 
L 232.936459 393.859304 
L 253.836967 394.424784 
L 274.737474 395.217584 
L 297.538027 396.321309 
L 320.33858 397.646353 
L 346.939226 399.425897 
L 377.339964 401.690346 
L 426.741163 405.632358 
L 472.342269 409.200001 
L 502.743007 411.351806 
L 527.443607 412.884788 
L 550.24416 414.084552 
L 571.144667 414.975258 
L 592.045174 415.645896 
L 612.945682 416.081865 
L 631.946143 416.266475 
L 637.646281 416.281904 
L 637.646281 416.281904 
" style="fill:none;stroke:#014d4e;stroke-linecap:square;stroke-width:1.5;"/>
   </g>
   <g id="line2d_48">
    <path clip-path="url(#pe0a12bde7e)" d="M 194.935537 411.706744 
L 206.335814 411.62311 
L 213.935998 411.257615 
L 219.636137 411.000096 
L 225.336275 411.010227 
L 232.936459 411.326269 
L 242.43669 411.863537 
L 248.136828 411.886519 
L 255.737013 411.622286 
L 265.237243 411.226889 
L 270.937382 411.283847 
L 278.537566 411.695388 
L 289.937843 412.301023 
L 295.637981 412.309669 
L 314.638442 411.826236 
L 320.33858 411.995936 
L 327.938765 412.527482 
L 335.538949 412.996046 
L 343.139134 413.230231 
L 350.739318 413.228943 
L 362.139595 413.111183 
L 369.739779 413.36429 
L 379.24001 413.974068 
L 396.340425 415.23393 
L 413.44084 415.939402 
L 424.841117 416.427543 
L 432.441301 417.000852 
L 451.441762 418.819734 
L 464.742085 420.12781 
L 476.142362 420.915362 
L 487.542638 421.674343 
L 491.34273 422.198111 
L 493.242777 422.549195 
L 495.142823 423.390047 
L 497.042869 423.863305 
L 498.942915 423.505509 
L 500.842961 422.095942 
L 514.143284 405.783209 
L 516.04333 403.903297 
L 517.943376 402.495814 
L 519.843422 401.602047 
L 521.743468 401.118644 
L 523.643514 401.005415 
L 529.343653 401.249227 
L 531.243699 400.953873 
L 533.143745 400.22765 
L 535.043791 398.98459 
L 536.943837 397.225473 
L 538.843883 395.048164 
L 550.24416 395.765851 
L 561.644437 396.266998 
L 590.145128 397.317379 
L 607.245543 397.691705 
L 620.545866 397.995861 
L 622.445912 396.081919 
L 630.046097 396.228182 
L 631.946143 396.282128 
L 635.746235 396.253889 
L 637.646281 396.278909 
L 637.646281 396.278909 
" style="fill:none;stroke:#e50000;stroke-linecap:square;stroke-width:1.5;"/>
   </g>
   <g id="patch_13">
    <path d="M 172.8 629.9064 
L 172.8 382.1904 
" style="fill:none;stroke:#000000;stroke-linecap:square;stroke-linejoin:miter;stroke-width:0.8;"/>
   </g>
   <g id="patch_14">
    <path d="M 659.781818 629.9064 
L 659.781818 382.1904 
" style="fill:none;stroke:#000000;stroke-linecap:square;stroke-linejoin:miter;stroke-width:0.8;"/>
   </g>
   <g id="patch_15">
    <path d="M 172.8 629.9064 
L 659.781818 629.9064 
" style="fill:none;stroke:#000000;stroke-linecap:square;stroke-linejoin:miter;stroke-width:0.8;"/>
   </g>
   <g id="patch_16">
    <path d="M 172.8 382.1904 
L 659.781818 382.1904 
" style="fill:none;stroke:#000000;stroke-linecap:square;stroke-linejoin:miter;stroke-width:0.8;"/>
   </g>
   <g id="text_39">
    <!-- Left abduction -->
    <defs>
     <path d="M 9.8125 72.90625 
L 19.671875 72.90625 
L 19.671875 8.296875 
L 55.171875 8.296875 
L 55.171875 0 
L 9.8125 0 
z
" id="DejaVuSans-76"/>
    </defs>
    <g transform="translate(372.997159 376.1904)scale(0.12 -0.12)">
     <use xlink:href="#DejaVuSans-76"/>
     <use x="55.697266" xlink:href="#DejaVuSans-101"/>
     <use x="117.220703" xlink:href="#DejaVuSans-102"/>
     <use x="152.410156" xlink:href="#DejaVuSans-116"/>
     <use x="191.619141" xlink:href="#DejaVuSans-32"/>
     <use x="223.40625" xlink:href="#DejaVuSans-97"/>
     <use x="284.685547" xlink:href="#DejaVuSans-98"/>
     <use x="348.162109" xlink:href="#DejaVuSans-100"/>
     <use x="411.638672" xlink:href="#DejaVuSans-117"/>
     <use x="475.017578" xlink:href="#DejaVuSans-99"/>
     <use x="529.998047" xlink:href="#DejaVuSans-116"/>
     <use x="569.207031" xlink:href="#DejaVuSans-105"/>
     <use x="596.990234" xlink:href="#DejaVuSans-111"/>
     <use x="658.171875" xlink:href="#DejaVuSans-110"/>
    </g>
   </g>
  </g>
  <g id="axes_4">
   <g id="patch_17">
    <path d="M 757.178182 629.9064 
L 1244.16 629.9064 
L 1244.16 382.1904 
L 757.178182 382.1904 
z
" style="fill:#ffffff;"/>
   </g>
   <g id="matplotlib.axis_7">
    <g id="xtick_16">
     <g id="line2d_49">
      <g>
       <use style="stroke:#000000;stroke-width:0.8;" x="779.313719" xlink:href="#m385c4ca42a" y="629.9064"/>
      </g>
     </g>
     <g id="text_40">
      <!-- 0 -->
      <g transform="translate(776.132469 644.504838)scale(0.1 -0.1)">
       <use xlink:href="#DejaVuSans-48"/>
      </g>
     </g>
    </g>
    <g id="xtick_17">
     <g id="line2d_50">
      <g>
       <use style="stroke:#000000;stroke-width:0.8;" x="874.316025" xlink:href="#m385c4ca42a" y="629.9064"/>
      </g>
     </g>
     <g id="text_41">
      <!-- 50 -->
      <g transform="translate(867.953525 644.504838)scale(0.1 -0.1)">
       <use xlink:href="#DejaVuSans-53"/>
       <use x="63.623047" xlink:href="#DejaVuSans-48"/>
      </g>
     </g>
    </g>
    <g id="xtick_18">
     <g id="line2d_51">
      <g>
       <use style="stroke:#000000;stroke-width:0.8;" x="969.31833" xlink:href="#m385c4ca42a" y="629.9064"/>
      </g>
     </g>
     <g id="text_42">
      <!-- 100 -->
      <g transform="translate(959.77458 644.504838)scale(0.1 -0.1)">
       <use xlink:href="#DejaVuSans-49"/>
       <use x="63.623047" xlink:href="#DejaVuSans-48"/>
       <use x="127.246094" xlink:href="#DejaVuSans-48"/>
      </g>
     </g>
    </g>
    <g id="xtick_19">
     <g id="line2d_52">
      <g>
       <use style="stroke:#000000;stroke-width:0.8;" x="1064.320636" xlink:href="#m385c4ca42a" y="629.9064"/>
      </g>
     </g>
     <g id="text_43">
      <!-- 150 -->
      <g transform="translate(1054.776886 644.504838)scale(0.1 -0.1)">
       <use xlink:href="#DejaVuSans-49"/>
       <use x="63.623047" xlink:href="#DejaVuSans-53"/>
       <use x="127.246094" xlink:href="#DejaVuSans-48"/>
      </g>
     </g>
    </g>
    <g id="xtick_20">
     <g id="line2d_53">
      <g>
       <use style="stroke:#000000;stroke-width:0.8;" x="1159.322941" xlink:href="#m385c4ca42a" y="629.9064"/>
      </g>
     </g>
     <g id="text_44">
      <!-- 200 -->
      <g transform="translate(1149.779191 644.504838)scale(0.1 -0.1)">
       <use xlink:href="#DejaVuSans-50"/>
       <use x="63.623047" xlink:href="#DejaVuSans-48"/>
       <use x="127.246094" xlink:href="#DejaVuSans-48"/>
      </g>
     </g>
    </g>
   </g>
   <g id="matplotlib.axis_8">
    <g id="ytick_22">
     <g id="line2d_54">
      <g>
       <use style="stroke:#000000;stroke-width:0.8;" x="757.178182" xlink:href="#m3c149b6d1c" y="625.639217"/>
      </g>
     </g>
     <g id="text_45">
      <!-- −8 -->
      <g transform="translate(735.435994 629.438435)scale(0.1 -0.1)">
       <use xlink:href="#DejaVuSans-8722"/>
       <use x="83.789062" xlink:href="#DejaVuSans-56"/>
      </g>
     </g>
    </g>
    <g id="ytick_23">
     <g id="line2d_55">
      <g>
       <use style="stroke:#000000;stroke-width:0.8;" x="757.178182" xlink:href="#m3c149b6d1c" y="597.824292"/>
      </g>
     </g>
     <g id="text_46">
      <!-- −7 -->
      <g transform="translate(735.435994 601.623511)scale(0.1 -0.1)">
       <use xlink:href="#DejaVuSans-8722"/>
       <use x="83.789062" xlink:href="#DejaVuSans-55"/>
      </g>
     </g>
    </g>
    <g id="ytick_24">
     <g id="line2d_56">
      <g>
       <use style="stroke:#000000;stroke-width:0.8;" x="757.178182" xlink:href="#m3c149b6d1c" y="570.009368"/>
      </g>
     </g>
     <g id="text_47">
      <!-- −6 -->
      <g transform="translate(735.435994 573.808586)scale(0.1 -0.1)">
       <use xlink:href="#DejaVuSans-8722"/>
       <use x="83.789062" xlink:href="#DejaVuSans-54"/>
      </g>
     </g>
    </g>
    <g id="ytick_25">
     <g id="line2d_57">
      <g>
       <use style="stroke:#000000;stroke-width:0.8;" x="757.178182" xlink:href="#m3c149b6d1c" y="542.194443"/>
      </g>
     </g>
     <g id="text_48">
      <!-- −5 -->
      <g transform="translate(735.435994 545.993662)scale(0.1 -0.1)">
       <use xlink:href="#DejaVuSans-8722"/>
       <use x="83.789062" xlink:href="#DejaVuSans-53"/>
      </g>
     </g>
    </g>
    <g id="ytick_26">
     <g id="line2d_58">
      <g>
       <use style="stroke:#000000;stroke-width:0.8;" x="757.178182" xlink:href="#m3c149b6d1c" y="514.379519"/>
      </g>
     </g>
     <g id="text_49">
      <!-- −4 -->
      <g transform="translate(735.435994 518.178738)scale(0.1 -0.1)">
       <use xlink:href="#DejaVuSans-8722"/>
       <use x="83.789062" xlink:href="#DejaVuSans-52"/>
      </g>
     </g>
    </g>
    <g id="ytick_27">
     <g id="line2d_59">
      <g>
       <use style="stroke:#000000;stroke-width:0.8;" x="757.178182" xlink:href="#m3c149b6d1c" y="486.564594"/>
      </g>
     </g>
     <g id="text_50">
      <!-- −3 -->
      <g transform="translate(735.435994 490.363813)scale(0.1 -0.1)">
       <use xlink:href="#DejaVuSans-8722"/>
       <use x="83.789062" xlink:href="#DejaVuSans-51"/>
      </g>
     </g>
    </g>
    <g id="ytick_28">
     <g id="line2d_60">
      <g>
       <use style="stroke:#000000;stroke-width:0.8;" x="757.178182" xlink:href="#m3c149b6d1c" y="458.74967"/>
      </g>
     </g>
     <g id="text_51">
      <!-- −2 -->
      <g transform="translate(735.435994 462.548889)scale(0.1 -0.1)">
       <use xlink:href="#DejaVuSans-8722"/>
       <use x="83.789062" xlink:href="#DejaVuSans-50"/>
      </g>
     </g>
    </g>
    <g id="ytick_29">
     <g id="line2d_61">
      <g>
       <use style="stroke:#000000;stroke-width:0.8;" x="757.178182" xlink:href="#m3c149b6d1c" y="430.934745"/>
      </g>
     </g>
     <g id="text_52">
      <!-- −1 -->
      <g transform="translate(735.435994 434.733964)scale(0.1 -0.1)">
       <use xlink:href="#DejaVuSans-8722"/>
       <use x="83.789062" xlink:href="#DejaVuSans-49"/>
      </g>
     </g>
    </g>
    <g id="ytick_30">
     <g id="line2d_62">
      <g>
       <use style="stroke:#000000;stroke-width:0.8;" x="757.178182" xlink:href="#m3c149b6d1c" y="403.119821"/>
      </g>
     </g>
     <g id="text_53">
      <!-- 0 -->
      <g transform="translate(743.815682 406.91904)scale(0.1 -0.1)">
       <use xlink:href="#DejaVuSans-48"/>
      </g>
     </g>
    </g>
   </g>
   <g id="line2d_63">
    <path clip-path="url(#p0bed58e361)" d="M 779.313719 403.119282 
L 1077.620958 402.972738 
L 1079.521005 402.166338 
L 1081.421051 401.66248 
L 1085.221143 401.987387 
L 1087.121189 402.374969 
L 1089.021235 403.29643 
L 1090.921281 404.738103 
L 1092.821327 406.556857 
L 1096.62142 410.945204 
L 1098.521466 413.196934 
L 1100.421512 415.185985 
L 1102.321558 416.40175 
L 1104.221604 416.78595 
L 1106.12165 417.340393 
L 1108.021696 417.307027 
L 1109.921742 416.649431 
L 1111.821788 415.413359 
L 1113.721834 413.648211 
L 1115.621881 411.413386 
L 1117.521927 408.814035 
L 1121.322019 403.14935 
L 1123.222065 400.61002 
L 1125.122111 401.396535 
L 1128.922203 402.338622 
L 1132.722296 402.887307 
L 1138.422434 403.383667 
L 1142.222526 403.872079 
L 1146.022618 404.125263 
L 1149.822711 404.090033 
L 1151.722757 404.010827 
L 1168.823172 404.420819 
L 1172.623264 405.096052 
L 1176.423356 405.946711 
L 1178.323402 406.073828 
L 1180.223448 405.724296 
L 1184.023541 403.223631 
L 1185.923587 404.514251 
L 1187.823633 406.836621 
L 1189.723679 410.96385 
L 1191.623725 414.405838 
L 1193.523771 411.375842 
L 1195.423817 393.450218 
L 1197.323863 407.892499 
L 1199.223909 476.524681 
L 1201.123956 570.730859 
L 1203.024002 618.26971 
L 1204.924048 618.646582 
L 1206.824094 597.196923 
L 1208.72414 590.353594 
L 1210.624186 586.158406 
L 1212.524232 578.126042 
L 1216.324324 558.849578 
L 1218.224371 540.324916 
L 1222.024463 525.182019 
L 1222.024463 525.182019 
" style="fill:none;stroke:#ff796c;stroke-linecap:square;stroke-width:1.5;"/>
   </g>
   <g id="line2d_64">
    <path clip-path="url(#p0bed58e361)" d="M 779.313719 414.331593 
L 1077.620958 414.333238 
L 1079.521005 414.635535 
L 1081.421051 414.797436 
L 1085.221143 414.636288 
L 1087.121189 414.40105 
L 1089.021235 413.772978 
L 1090.921281 412.778102 
L 1092.821327 411.508022 
L 1096.62142 408.434597 
L 1098.521466 406.849951 
L 1100.421512 405.441048 
L 1102.321558 404.387825 
L 1104.221604 403.784554 
L 1106.12165 403.506907 
L 1108.021696 403.666428 
L 1109.921742 404.262935 
L 1111.821788 405.277687 
L 1113.721834 406.674839 
L 1115.621881 408.402704 
L 1119.421973 412.526055 
L 1121.322019 414.655763 
L 1123.222065 416.56263 
L 1132.722296 415.596339 
L 1138.422434 414.936294 
L 1142.222526 414.646287 
L 1146.022618 414.523759 
L 1149.822711 414.602309 
L 1153.622803 414.68104 
L 1180.223448 414.712707 
L 1184.023541 414.840991 
L 1185.923587 414.616131 
L 1187.823633 414.066524 
L 1189.723679 413.192148 
L 1191.623725 411.739074 
L 1195.423817 407.684323 
L 1199.223909 402.065848 
L 1201.123956 400.211859 
L 1203.024002 402.114256 
L 1204.924048 407.267352 
L 1208.72414 422.720088 
L 1214.424278 422.60105 
L 1216.324324 422.553708 
L 1220.124417 422.624883 
L 1222.024463 422.609555 
L 1222.024463 422.609555 
" style="fill:none;stroke:#ffff14;stroke-linecap:square;stroke-width:1.5;"/>
   </g>
   <g id="line2d_65">
    <path clip-path="url(#p0bed58e361)" d="M 779.313719 414.310941 
L 1222.024463 414.310941 
L 1222.024463 414.310941 
" style="fill:none;stroke:#014d4e;stroke-linecap:square;stroke-width:1.5;"/>
   </g>
   <g id="line2d_66">
    <path clip-path="url(#p0bed58e361)" d="M 779.313719 403.099169 
L 1077.620958 403.097524 
L 1079.521005 402.795227 
L 1081.421051 402.633326 
L 1085.221143 402.794474 
L 1087.121189 403.029712 
L 1089.021235 403.657784 
L 1090.921281 404.65266 
L 1092.821327 405.92274 
L 1096.62142 408.996165 
L 1098.521466 410.580811 
L 1100.421512 411.989714 
L 1102.321558 413.042937 
L 1104.221604 413.646208 
L 1106.12165 413.923855 
L 1108.021696 413.764334 
L 1109.921742 413.167827 
L 1111.821788 412.153075 
L 1113.721834 410.755923 
L 1115.621881 409.028058 
L 1119.421973 404.904707 
L 1121.322019 402.774999 
L 1123.222065 400.868132 
L 1132.722296 401.834423 
L 1138.422434 402.494468 
L 1142.222526 402.784475 
L 1146.022618 402.907003 
L 1149.822711 402.828453 
L 1153.622803 402.749722 
L 1180.223448 402.718055 
L 1184.023541 402.589771 
L 1185.923587 402.814631 
L 1187.823633 403.364238 
L 1189.723679 404.238614 
L 1191.623725 405.691688 
L 1195.423817 409.746439 
L 1199.223909 415.364914 
L 1201.123956 417.218903 
L 1203.024002 415.316506 
L 1204.924048 410.16341 
L 1208.72414 394.710674 
L 1214.424278 394.829712 
L 1216.324324 394.877054 
L 1220.124417 394.805879 
L 1222.024463 394.821207 
L 1222.024463 394.821207 
" style="fill:none;stroke:#e50000;stroke-linecap:square;stroke-width:1.5;"/>
   </g>
   <g id="patch_18">
    <path d="M 757.178182 629.9064 
L 757.178182 382.1904 
" style="fill:none;stroke:#000000;stroke-linecap:square;stroke-linejoin:miter;stroke-width:0.8;"/>
   </g>
   <g id="patch_19">
    <path d="M 1244.16 629.9064 
L 1244.16 382.1904 
" style="fill:none;stroke:#000000;stroke-linecap:square;stroke-linejoin:miter;stroke-width:0.8;"/>
   </g>
   <g id="patch_20">
    <path d="M 757.178182 629.9064 
L 1244.16 629.9064 
" style="fill:none;stroke:#000000;stroke-linecap:square;stroke-linejoin:miter;stroke-width:0.8;"/>
   </g>
   <g id="patch_21">
    <path d="M 757.178182 382.1904 
L 1244.16 382.1904 
" style="fill:none;stroke:#000000;stroke-linecap:square;stroke-linejoin:miter;stroke-width:0.8;"/>
   </g>
   <g id="text_54">
    <!-- Left flexion -->
    <g transform="translate(967.102841 376.1904)scale(0.12 -0.12)">
     <use xlink:href="#DejaVuSans-76"/>
     <use x="55.697266" xlink:href="#DejaVuSans-101"/>
     <use x="117.220703" xlink:href="#DejaVuSans-102"/>
     <use x="152.410156" xlink:href="#DejaVuSans-116"/>
     <use x="191.619141" xlink:href="#DejaVuSans-32"/>
     <use x="223.40625" xlink:href="#DejaVuSans-102"/>
     <use x="258.611328" xlink:href="#DejaVuSans-108"/>
     <use x="286.394531" xlink:href="#DejaVuSans-101"/>
     <use x="347.902344" xlink:href="#DejaVuSans-120"/>
     <use x="407.082031" xlink:href="#DejaVuSans-105"/>
     <use x="434.865234" xlink:href="#DejaVuSans-111"/>
     <use x="496.046875" xlink:href="#DejaVuSans-110"/>
    </g>
   </g>
  </g>
  <g id="legend_1">
   <g id="patch_22">
    <path d="M 1308.251562 384.875313 
L 1375.4 384.875313 
Q 1377.4 384.875313 1377.4 382.875313 
L 1377.4 324.884687 
Q 1377.4 322.884687 1375.4 322.884687 
L 1308.251562 322.884687 
Q 1306.251562 322.884687 1306.251562 324.884687 
L 1306.251562 382.875313 
Q 1306.251562 384.875313 1308.251562 384.875313 
z
" style="fill:#ffffff;opacity:0.8;stroke:#cccccc;stroke-linejoin:miter;"/>
   </g>
   <g id="line2d_67">
    <path d="M 1310.251562 330.983125 
L 1330.251562 330.983125 
" style="fill:none;stroke:#ff796c;stroke-linecap:square;stroke-width:1.5;"/>
   </g>
   <g id="line2d_68"/>
   <g id="text_55">
    <!-- Torque -->
    <defs>
     <path d="M -0.296875 72.90625 
L 61.375 72.90625 
L 61.375 64.59375 
L 35.5 64.59375 
L 35.5 0 
L 25.59375 0 
L 25.59375 64.59375 
L -0.296875 64.59375 
z
" id="DejaVuSans-84"/>
     <path d="M 41.109375 46.296875 
Q 39.59375 47.171875 37.8125 47.578125 
Q 36.03125 48 33.890625 48 
Q 26.265625 48 22.1875 43.046875 
Q 18.109375 38.09375 18.109375 28.8125 
L 18.109375 0 
L 9.078125 0 
L 9.078125 54.6875 
L 18.109375 54.6875 
L 18.109375 46.1875 
Q 20.953125 51.171875 25.484375 53.578125 
Q 30.03125 56 36.53125 56 
Q 37.453125 56 38.578125 55.875 
Q 39.703125 55.765625 41.0625 55.515625 
z
" id="DejaVuSans-114"/>
     <path d="M 14.796875 27.296875 
Q 14.796875 17.390625 18.875 11.75 
Q 22.953125 6.109375 30.078125 6.109375 
Q 37.203125 6.109375 41.296875 11.75 
Q 45.40625 17.390625 45.40625 27.296875 
Q 45.40625 37.203125 41.296875 42.84375 
Q 37.203125 48.484375 30.078125 48.484375 
Q 22.953125 48.484375 18.875 42.84375 
Q 14.796875 37.203125 14.796875 27.296875 
z
M 45.40625 8.203125 
Q 42.578125 3.328125 38.25 0.953125 
Q 33.9375 -1.421875 27.875 -1.421875 
Q 17.96875 -1.421875 11.734375 6.484375 
Q 5.515625 14.40625 5.515625 27.296875 
Q 5.515625 40.1875 11.734375 48.09375 
Q 17.96875 56 27.875 56 
Q 33.9375 56 38.25 53.625 
Q 42.578125 51.265625 45.40625 46.390625 
L 45.40625 54.6875 
L 54.390625 54.6875 
L 54.390625 -20.796875 
L 45.40625 -20.796875 
z
" id="DejaVuSans-113"/>
    </defs>
    <g transform="translate(1338.251562 334.483125)scale(0.1 -0.1)">
     <use xlink:href="#DejaVuSans-84"/>
     <use x="60.818359" xlink:href="#DejaVuSans-111"/>
     <use x="122" xlink:href="#DejaVuSans-114"/>
     <use x="163.097656" xlink:href="#DejaVuSans-113"/>
     <use x="226.574219" xlink:href="#DejaVuSans-117"/>
     <use x="289.953125" xlink:href="#DejaVuSans-101"/>
    </g>
   </g>
   <g id="line2d_69">
    <path d="M 1310.251562 345.66125 
L 1330.251562 345.66125 
" style="fill:none;stroke:#ffff14;stroke-linecap:square;stroke-width:1.5;"/>
   </g>
   <g id="line2d_70"/>
   <g id="text_56">
    <!-- q -->
    <g transform="translate(1338.251562 349.16125)scale(0.1 -0.1)">
     <use xlink:href="#DejaVuSans-113"/>
    </g>
   </g>
   <g id="line2d_71">
    <path d="M 1310.251562 360.339375 
L 1330.251562 360.339375 
" style="fill:none;stroke:#014d4e;stroke-linecap:square;stroke-width:1.5;"/>
   </g>
   <g id="line2d_72"/>
   <g id="text_57">
    <!-- q_des -->
    <defs>
     <path d="M 50.984375 -16.609375 
L 50.984375 -23.578125 
L -0.984375 -23.578125 
L -0.984375 -16.609375 
z
" id="DejaVuSans-95"/>
     <path d="M 44.28125 53.078125 
L 44.28125 44.578125 
Q 40.484375 46.53125 36.375 47.5 
Q 32.28125 48.484375 27.875 48.484375 
Q 21.1875 48.484375 17.84375 46.4375 
Q 14.5 44.390625 14.5 40.28125 
Q 14.5 37.15625 16.890625 35.375 
Q 19.28125 33.59375 26.515625 31.984375 
L 29.59375 31.296875 
Q 39.15625 29.25 43.1875 25.515625 
Q 47.21875 21.78125 47.21875 15.09375 
Q 47.21875 7.46875 41.1875 3.015625 
Q 35.15625 -1.421875 24.609375 -1.421875 
Q 20.21875 -1.421875 15.453125 -0.5625 
Q 10.6875 0.296875 5.421875 2 
L 5.421875 11.28125 
Q 10.40625 8.6875 15.234375 7.390625 
Q 20.0625 6.109375 24.8125 6.109375 
Q 31.15625 6.109375 34.5625 8.28125 
Q 37.984375 10.453125 37.984375 14.40625 
Q 37.984375 18.0625 35.515625 20.015625 
Q 33.0625 21.96875 24.703125 23.78125 
L 21.578125 24.515625 
Q 13.234375 26.265625 9.515625 29.90625 
Q 5.8125 33.546875 5.8125 39.890625 
Q 5.8125 47.609375 11.28125 51.796875 
Q 16.75 56 26.8125 56 
Q 31.78125 56 36.171875 55.265625 
Q 40.578125 54.546875 44.28125 53.078125 
z
" id="DejaVuSans-115"/>
    </defs>
    <g transform="translate(1338.251562 363.839375)scale(0.1 -0.1)">
     <use xlink:href="#DejaVuSans-113"/>
     <use x="63.476562" xlink:href="#DejaVuSans-95"/>
     <use x="113.476562" xlink:href="#DejaVuSans-100"/>
     <use x="176.953125" xlink:href="#DejaVuSans-101"/>
     <use x="238.476562" xlink:href="#DejaVuSans-115"/>
    </g>
   </g>
   <g id="line2d_73">
    <path d="M 1310.251562 375.295625 
L 1330.251562 375.295625 
" style="fill:none;stroke:#e50000;stroke-linecap:square;stroke-width:1.5;"/>
   </g>
   <g id="line2d_74"/>
   <g id="text_58">
    <!-- error -->
    <g transform="translate(1338.251562 378.795625)scale(0.1 -0.1)">
     <use xlink:href="#DejaVuSans-101"/>
     <use x="61.523438" xlink:href="#DejaVuSans-114"/>
     <use x="102.621094" xlink:href="#DejaVuSans-114"/>
     <use x="143.703125" xlink:href="#DejaVuSans-111"/>
     <use x="204.884766" xlink:href="#DejaVuSans-114"/>
    </g>
   </g>
  </g>
 </g>
 <defs>
  <clipPath id="p857d561ac8">
   <rect height="247.716" width="486.981818" x="172.8" y="84.9312"/>
  </clipPath>
  <clipPath id="pd815a45bc0">
   <rect height="247.716" width="486.981818" x="757.178182" y="84.9312"/>
  </clipPath>
  <clipPath id="pe0a12bde7e">
   <rect height="247.716" width="486.981818" x="172.8" y="382.1904"/>
  </clipPath>
  <clipPath id="p0bed58e361">
   <rect height="247.716" width="486.981818" x="757.178182" y="382.1904"/>
  </clipPath>
 </defs>
</svg>
