<?xml version="1.0" encoding="utf-8" standalone="no"?>
<!DOCTYPE svg PUBLIC "-//W3C//DTD SVG 1.1//EN"
  "http://www.w3.org/Graphics/SVG/1.1/DTD/svg11.dtd">
<!-- Created with matplotlib (https://matplotlib.org/) -->
<svg height="707.76pt" version="1.1" viewBox="0 0 1382.4 707.76" width="1382.4pt" xmlns="http://www.w3.org/2000/svg" xmlns:xlink="http://www.w3.org/1999/xlink">
 <defs>
  <style type="text/css">
*{stroke-linecap:butt;stroke-linejoin:round;}
  </style>
 </defs>
 <g id="figure_1">
  <g id="patch_1">
   <path d="M 0 707.76 
L 1382.4 707.76 
L 1382.4 0 
L 0 0 
z
" style="fill:#ffffff;"/>
  </g>
  <g id="axes_1">
   <g id="patch_2">
    <path d="M 172.8 332.6472 
L 659.781818 332.6472 
L 659.781818 84.9312 
L 172.8 84.9312 
z
" style="fill:#ffffff;"/>
   </g>
   <g id="matplotlib.axis_1">
    <g id="xtick_1">
     <g id="line2d_1">
      <defs>
       <path d="M 0 0 
L 0 3.5 
" id="ma549426282" style="stroke:#000000;stroke-width:0.8;"/>
      </defs>
      <g>
       <use style="stroke:#000000;stroke-width:0.8;" x="194.935537" xlink:href="#ma549426282" y="332.6472"/>
      </g>
     </g>
     <g id="text_1">
      <!-- 0 -->
      <defs>
       <path d="M 31.78125 66.40625 
Q 24.171875 66.40625 20.328125 58.90625 
Q 16.5 51.421875 16.5 36.375 
Q 16.5 21.390625 20.328125 13.890625 
Q 24.171875 6.390625 31.78125 6.390625 
Q 39.453125 6.390625 43.28125 13.890625 
Q 47.125 21.390625 47.125 36.375 
Q 47.125 51.421875 43.28125 58.90625 
Q 39.453125 66.40625 31.78125 66.40625 
z
M 31.78125 74.21875 
Q 44.046875 74.21875 50.515625 64.515625 
Q 56.984375 54.828125 56.984375 36.375 
Q 56.984375 17.96875 50.515625 8.265625 
Q 44.046875 -1.421875 31.78125 -1.421875 
Q 19.53125 -1.421875 13.0625 8.265625 
Q 6.59375 17.96875 6.59375 36.375 
Q 6.59375 54.828125 13.0625 64.515625 
Q 19.53125 74.21875 31.78125 74.21875 
z
" id="DejaVuSans-48"/>
      </defs>
      <g transform="translate(191.754287 347.245637)scale(0.1 -0.1)">
       <use xlink:href="#DejaVuSans-48"/>
      </g>
     </g>
    </g>
    <g id="xtick_2">
     <g id="line2d_2">
      <g>
       <use style="stroke:#000000;stroke-width:0.8;" x="289.937843" xlink:href="#ma549426282" y="332.6472"/>
      </g>
     </g>
     <g id="text_2">
      <!-- 50 -->
      <defs>
       <path d="M 10.796875 72.90625 
L 49.515625 72.90625 
L 49.515625 64.59375 
L 19.828125 64.59375 
L 19.828125 46.734375 
Q 21.96875 47.46875 24.109375 47.828125 
Q 26.265625 48.1875 28.421875 48.1875 
Q 40.625 48.1875 47.75 41.5 
Q 54.890625 34.8125 54.890625 23.390625 
Q 54.890625 11.625 47.5625 5.09375 
Q 40.234375 -1.421875 26.90625 -1.421875 
Q 22.3125 -1.421875 17.546875 -0.640625 
Q 12.796875 0.140625 7.71875 1.703125 
L 7.71875 11.625 
Q 12.109375 9.234375 16.796875 8.0625 
Q 21.484375 6.890625 26.703125 6.890625 
Q 35.15625 6.890625 40.078125 11.328125 
Q 45.015625 15.765625 45.015625 23.390625 
Q 45.015625 31 40.078125 35.4375 
Q 35.15625 39.890625 26.703125 39.890625 
Q 22.75 39.890625 18.8125 39.015625 
Q 14.890625 38.140625 10.796875 36.28125 
z
" id="DejaVuSans-53"/>
      </defs>
      <g transform="translate(283.575343 347.245637)scale(0.1 -0.1)">
       <use xlink:href="#DejaVuSans-53"/>
       <use x="63.623047" xlink:href="#DejaVuSans-48"/>
      </g>
     </g>
    </g>
    <g id="xtick_3">
     <g id="line2d_3">
      <g>
       <use style="stroke:#000000;stroke-width:0.8;" x="384.940148" xlink:href="#ma549426282" y="332.6472"/>
      </g>
     </g>
     <g id="text_3">
      <!-- 100 -->
      <defs>
       <path d="M 12.40625 8.296875 
L 28.515625 8.296875 
L 28.515625 63.921875 
L 10.984375 60.40625 
L 10.984375 69.390625 
L 28.421875 72.90625 
L 38.28125 72.90625 
L 38.28125 8.296875 
L 54.390625 8.296875 
L 54.390625 0 
L 12.40625 0 
z
" id="DejaVuSans-49"/>
      </defs>
      <g transform="translate(375.396398 347.245637)scale(0.1 -0.1)">
       <use xlink:href="#DejaVuSans-49"/>
       <use x="63.623047" xlink:href="#DejaVuSans-48"/>
       <use x="127.246094" xlink:href="#DejaVuSans-48"/>
      </g>
     </g>
    </g>
    <g id="xtick_4">
     <g id="line2d_4">
      <g>
       <use style="stroke:#000000;stroke-width:0.8;" x="479.942454" xlink:href="#ma549426282" y="332.6472"/>
      </g>
     </g>
     <g id="text_4">
      <!-- 150 -->
      <g transform="translate(470.398704 347.245637)scale(0.1 -0.1)">
       <use xlink:href="#DejaVuSans-49"/>
       <use x="63.623047" xlink:href="#DejaVuSans-53"/>
       <use x="127.246094" xlink:href="#DejaVuSans-48"/>
      </g>
     </g>
    </g>
    <g id="xtick_5">
     <g id="line2d_5">
      <g>
       <use style="stroke:#000000;stroke-width:0.8;" x="574.944759" xlink:href="#ma549426282" y="332.6472"/>
      </g>
     </g>
     <g id="text_5">
      <!-- 200 -->
      <defs>
       <path d="M 19.1875 8.296875 
L 53.609375 8.296875 
L 53.609375 0 
L 7.328125 0 
L 7.328125 8.296875 
Q 12.9375 14.109375 22.625 23.890625 
Q 32.328125 33.6875 34.8125 36.53125 
Q 39.546875 41.84375 41.421875 45.53125 
Q 43.3125 49.21875 43.3125 52.78125 
Q 43.3125 58.59375 39.234375 62.25 
Q 35.15625 65.921875 28.609375 65.921875 
Q 23.96875 65.921875 18.8125 64.3125 
Q 13.671875 62.703125 7.8125 59.421875 
L 7.8125 69.390625 
Q 13.765625 71.78125 18.9375 73 
Q 24.125 74.21875 28.421875 74.21875 
Q 39.75 74.21875 46.484375 68.546875 
Q 53.21875 62.890625 53.21875 53.421875 
Q 53.21875 48.921875 51.53125 44.890625 
Q 49.859375 40.875 45.40625 35.40625 
Q 44.1875 33.984375 37.640625 27.21875 
Q 31.109375 20.453125 19.1875 8.296875 
z
" id="DejaVuSans-50"/>
      </defs>
      <g transform="translate(565.401009 347.245637)scale(0.1 -0.1)">
       <use xlink:href="#DejaVuSans-50"/>
       <use x="63.623047" xlink:href="#DejaVuSans-48"/>
       <use x="127.246094" xlink:href="#DejaVuSans-48"/>
      </g>
     </g>
    </g>
   </g>
   <g id="matplotlib.axis_2">
    <g id="ytick_1">
     <g id="line2d_6">
      <defs>
       <path d="M 0 0 
L -3.5 0 
" id="m608cc2549b" style="stroke:#000000;stroke-width:0.8;"/>
      </defs>
      <g>
       <use style="stroke:#000000;stroke-width:0.8;" x="172.8" xlink:href="#m608cc2549b" y="304.410229"/>
      </g>
     </g>
     <g id="text_6">
      <!-- −14 -->
      <defs>
       <path d="M 10.59375 35.5 
L 73.1875 35.5 
L 73.1875 27.203125 
L 10.59375 27.203125 
z
" id="DejaVuSans-8722"/>
       <path d="M 37.796875 64.3125 
L 12.890625 25.390625 
L 37.796875 25.390625 
z
M 35.203125 72.90625 
L 47.609375 72.90625 
L 47.609375 25.390625 
L 58.015625 25.390625 
L 58.015625 17.1875 
L 47.609375 17.1875 
L 47.609375 0 
L 37.796875 0 
L 37.796875 17.1875 
L 4.890625 17.1875 
L 4.890625 26.703125 
z
" id="DejaVuSans-52"/>
      </defs>
      <g transform="translate(144.695312 308.209448)scale(0.1 -0.1)">
       <use xlink:href="#DejaVuSans-8722"/>
       <use x="83.789062" xlink:href="#DejaVuSans-49"/>
       <use x="147.412109" xlink:href="#DejaVuSans-52"/>
      </g>
     </g>
    </g>
    <g id="ytick_2">
     <g id="line2d_7">
      <g>
       <use style="stroke:#000000;stroke-width:0.8;" x="172.8" xlink:href="#m608cc2549b" y="275.476224"/>
      </g>
     </g>
     <g id="text_7">
      <!-- −12 -->
      <g transform="translate(144.695312 279.275443)scale(0.1 -0.1)">
       <use xlink:href="#DejaVuSans-8722"/>
       <use x="83.789062" xlink:href="#DejaVuSans-49"/>
       <use x="147.412109" xlink:href="#DejaVuSans-50"/>
      </g>
     </g>
    </g>
    <g id="ytick_3">
     <g id="line2d_8">
      <g>
       <use style="stroke:#000000;stroke-width:0.8;" x="172.8" xlink:href="#m608cc2549b" y="246.54222"/>
      </g>
     </g>
     <g id="text_8">
      <!-- −10 -->
      <g transform="translate(144.695312 250.341439)scale(0.1 -0.1)">
       <use xlink:href="#DejaVuSans-8722"/>
       <use x="83.789062" xlink:href="#DejaVuSans-49"/>
       <use x="147.412109" xlink:href="#DejaVuSans-48"/>
      </g>
     </g>
    </g>
    <g id="ytick_4">
     <g id="line2d_9">
      <g>
       <use style="stroke:#000000;stroke-width:0.8;" x="172.8" xlink:href="#m608cc2549b" y="217.608215"/>
      </g>
     </g>
     <g id="text_9">
      <!-- −8 -->
      <defs>
       <path d="M 31.78125 34.625 
Q 24.75 34.625 20.71875 30.859375 
Q 16.703125 27.09375 16.703125 20.515625 
Q 16.703125 13.921875 20.71875 10.15625 
Q 24.75 6.390625 31.78125 6.390625 
Q 38.8125 6.390625 42.859375 10.171875 
Q 46.921875 13.96875 46.921875 20.515625 
Q 46.921875 27.09375 42.890625 30.859375 
Q 38.875 34.625 31.78125 34.625 
z
M 21.921875 38.8125 
Q 15.578125 40.375 12.03125 44.71875 
Q 8.5 49.078125 8.5 55.328125 
Q 8.5 64.0625 14.71875 69.140625 
Q 20.953125 74.21875 31.78125 74.21875 
Q 42.671875 74.21875 48.875 69.140625 
Q 55.078125 64.0625 55.078125 55.328125 
Q 55.078125 49.078125 51.53125 44.71875 
Q 48 40.375 41.703125 38.8125 
Q 48.828125 37.15625 52.796875 32.3125 
Q 56.78125 27.484375 56.78125 20.515625 
Q 56.78125 9.90625 50.3125 4.234375 
Q 43.84375 -1.421875 31.78125 -1.421875 
Q 19.734375 -1.421875 13.25 4.234375 
Q 6.78125 9.90625 6.78125 20.515625 
Q 6.78125 27.484375 10.78125 32.3125 
Q 14.796875 37.15625 21.921875 38.8125 
z
M 18.3125 54.390625 
Q 18.3125 48.734375 21.84375 45.5625 
Q 25.390625 42.390625 31.78125 42.390625 
Q 38.140625 42.390625 41.71875 45.5625 
Q 45.3125 48.734375 45.3125 54.390625 
Q 45.3125 60.0625 41.71875 63.234375 
Q 38.140625 66.40625 31.78125 66.40625 
Q 25.390625 66.40625 21.84375 63.234375 
Q 18.3125 60.0625 18.3125 54.390625 
z
" id="DejaVuSans-56"/>
      </defs>
      <g transform="translate(151.057812 221.407434)scale(0.1 -0.1)">
       <use xlink:href="#DejaVuSans-8722"/>
       <use x="83.789062" xlink:href="#DejaVuSans-56"/>
      </g>
     </g>
    </g>
    <g id="ytick_5">
     <g id="line2d_10">
      <g>
       <use style="stroke:#000000;stroke-width:0.8;" x="172.8" xlink:href="#m608cc2549b" y="188.674211"/>
      </g>
     </g>
     <g id="text_10">
      <!-- −6 -->
      <defs>
       <path d="M 33.015625 40.375 
Q 26.375 40.375 22.484375 35.828125 
Q 18.609375 31.296875 18.609375 23.390625 
Q 18.609375 15.53125 22.484375 10.953125 
Q 26.375 6.390625 33.015625 6.390625 
Q 39.65625 6.390625 43.53125 10.953125 
Q 47.40625 15.53125 47.40625 23.390625 
Q 47.40625 31.296875 43.53125 35.828125 
Q 39.65625 40.375 33.015625 40.375 
z
M 52.59375 71.296875 
L 52.59375 62.3125 
Q 48.875 64.0625 45.09375 64.984375 
Q 41.3125 65.921875 37.59375 65.921875 
Q 27.828125 65.921875 22.671875 59.328125 
Q 17.53125 52.734375 16.796875 39.40625 
Q 19.671875 43.65625 24.015625 45.921875 
Q 28.375 48.1875 33.59375 48.1875 
Q 44.578125 48.1875 50.953125 41.515625 
Q 57.328125 34.859375 57.328125 23.390625 
Q 57.328125 12.15625 50.6875 5.359375 
Q 44.046875 -1.421875 33.015625 -1.421875 
Q 20.359375 -1.421875 13.671875 8.265625 
Q 6.984375 17.96875 6.984375 36.375 
Q 6.984375 53.65625 15.1875 63.9375 
Q 23.390625 74.21875 37.203125 74.21875 
Q 40.921875 74.21875 44.703125 73.484375 
Q 48.484375 72.75 52.59375 71.296875 
z
" id="DejaVuSans-54"/>
      </defs>
      <g transform="translate(151.057812 192.473429)scale(0.1 -0.1)">
       <use xlink:href="#DejaVuSans-8722"/>
       <use x="83.789062" xlink:href="#DejaVuSans-54"/>
      </g>
     </g>
    </g>
    <g id="ytick_6">
     <g id="line2d_11">
      <g>
       <use style="stroke:#000000;stroke-width:0.8;" x="172.8" xlink:href="#m608cc2549b" y="159.740206"/>
      </g>
     </g>
     <g id="text_11">
      <!-- −4 -->
      <g transform="translate(151.057812 163.539425)scale(0.1 -0.1)">
       <use xlink:href="#DejaVuSans-8722"/>
       <use x="83.789062" xlink:href="#DejaVuSans-52"/>
      </g>
     </g>
    </g>
    <g id="ytick_7">
     <g id="line2d_12">
      <g>
       <use style="stroke:#000000;stroke-width:0.8;" x="172.8" xlink:href="#m608cc2549b" y="130.806201"/>
      </g>
     </g>
     <g id="text_12">
      <!-- −2 -->
      <g transform="translate(151.057812 134.60542)scale(0.1 -0.1)">
       <use xlink:href="#DejaVuSans-8722"/>
       <use x="83.789062" xlink:href="#DejaVuSans-50"/>
      </g>
     </g>
    </g>
    <g id="ytick_8">
     <g id="line2d_13">
      <g>
       <use style="stroke:#000000;stroke-width:0.8;" x="172.8" xlink:href="#m608cc2549b" y="101.872197"/>
      </g>
     </g>
     <g id="text_13">
      <!-- 0 -->
      <g transform="translate(159.4375 105.671415)scale(0.1 -0.1)">
       <use xlink:href="#DejaVuSans-48"/>
      </g>
     </g>
    </g>
   </g>
   <g id="line2d_14">
    <path clip-path="url(#p87818c929c)" d="M 194.935537 101.841603 
L 204.435768 102.461295 
L 210.135906 102.141858 
L 213.935998 102.266931 
L 219.636137 102.865673 
L 223.436229 102.855127 
L 229.136367 102.699991 
L 234.836506 103.276006 
L 238.636598 103.549051 
L 246.236782 103.459825 
L 248.136828 103.59108 
L 253.836967 104.305436 
L 257.637059 104.429471 
L 263.337197 104.458796 
L 272.837428 105.524345 
L 278.537566 105.593184 
L 282.337658 105.907325 
L 288.037797 106.784505 
L 291.837889 107.070981 
L 295.637981 107.224886 
L 297.538027 107.432825 
L 307.038258 109.025527 
L 312.738396 109.537322 
L 316.538488 110.139972 
L 320.33858 111.022829 
L 324.138673 111.635513 
L 331.738857 112.664081 
L 341.239088 114.805121 
L 345.03918 115.39444 
L 348.839272 116.174958 
L 352.639364 117.267424 
L 356.439457 118.318298 
L 362.139595 119.639824 
L 364.039641 120.084728 
L 367.839733 121.301476 
L 384.940148 127.176909 
L 394.440379 131.502769 
L 398.240471 133.120479 
L 402.040563 135.074615 
L 405.840655 137.231418 
L 411.540794 140.618254 
L 419.140978 145.27442 
L 424.841117 149.442763 
L 438.141439 159.769365 
L 443.841578 164.933295 
L 453.341808 173.508784 
L 459.041947 179.034345 
L 470.442223 190.450273 
L 478.042408 197.87149 
L 485.642592 205.243916 
L 493.242777 211.850553 
L 497.042869 215.029107 
L 498.942915 217.505037 
L 500.842961 218.902287 
L 502.743007 220.514357 
L 506.543099 225.874042 
L 510.343192 229.953457 
L 512.243238 232.568992 
L 514.143284 234.621564 
L 516.04333 235.75837 
L 517.943376 237.210706 
L 519.843422 239.360389 
L 521.743468 241.139249 
L 523.643514 242.501433 
L 525.54356 244.628007 
L 527.443607 245.794856 
L 529.343653 250.737148 
L 531.243699 251.428156 
L 533.143745 250.484885 
L 535.043791 253.48486 
L 536.943837 257.117596 
L 538.843883 256.48757 
L 540.743929 256.021466 
L 542.643975 259.995409 
L 544.544022 263.047083 
L 546.444068 261.994023 
L 548.344114 263.039927 
L 550.24416 267.716935 
L 552.144206 269.095667 
L 554.044252 267.383319 
L 555.944298 269.627336 
L 557.844344 273.513276 
L 561.644437 271.672873 
L 563.544483 275.76403 
L 565.444529 278.416079 
L 567.344575 276.715237 
L 569.244621 278.399099 
L 571.144667 283.303838 
L 573.044713 282.757869 
L 574.944759 280.893115 
L 576.844805 284.418236 
L 578.744852 287.072421 
L 580.644898 284.834979 
L 582.544944 285.938711 
L 584.44499 290.86362 
L 586.345036 290.922253 
L 588.245082 288.3672 
L 590.145128 293.943373 
L 592.045174 295.720625 
L 593.94522 291.537633 
L 595.845267 293.483322 
L 597.745313 298.65194 
L 599.645359 296.358307 
L 601.545405 294.425666 
L 603.445451 300.292159 
L 605.345497 303.20633 
L 607.245543 300.203626 
L 609.145589 303.041103 
L 611.045635 309.423593 
L 612.945682 308.061997 
L 614.845728 305.505531 
L 616.745774 310.395558 
L 618.64582 313.018157 
L 620.545866 308.624452 
L 622.445912 309.150178 
L 624.345958 315.2948 
L 626.246004 315.04182 
L 628.14605 311.91175 
L 631.946143 321.387382 
L 633.846189 317.92159 
L 635.746235 316.121873 
L 637.646281 321.20361 
L 637.646281 321.20361 
" style="fill:none;stroke:#ff796c;stroke-linecap:square;stroke-width:1.5;"/>
   </g>
   <g id="line2d_15">
    <path clip-path="url(#p87818c929c)" d="M 194.935537 96.242761 
L 215.836044 96.34707 
L 231.036413 96.594873 
L 246.236782 97.010395 
L 263.337197 97.674017 
L 284.237704 98.711297 
L 308.938304 100.121702 
L 333.638903 101.767515 
L 360.239549 103.782429 
L 390.640287 106.063647 
L 417.240932 107.841414 
L 441.941532 109.28578 
L 462.842039 110.282538 
L 521.743468 112.640145 
L 535.043791 112.802721 
L 563.544483 113.032092 
L 573.044713 113.454686 
L 588.245082 114.412838 
L 597.745313 114.863752 
L 607.245543 115.005436 
L 620.545866 114.890074 
L 631.946143 114.868498 
L 637.646281 114.993249 
L 637.646281 114.993249 
" style="fill:none;stroke:#ffff14;stroke-linecap:square;stroke-width:1.5;"/>
   </g>
   <g id="line2d_16">
    <path clip-path="url(#p87818c929c)" d="M 194.935537 96.191018 
L 212.035952 96.294574 
L 229.136367 96.60373 
L 248.136828 97.182791 
L 267.137289 97.999622 
L 286.137751 99.039522 
L 307.038258 100.418607 
L 327.938765 102.014859 
L 352.639364 104.133548 
L 381.140056 106.810147 
L 430.541255 111.726783 
L 470.442223 115.608231 
L 497.042869 117.984954 
L 519.843422 119.81226 
L 540.743929 121.274053 
L 559.74439 122.398154 
L 578.744852 123.306208 
L 597.745313 123.981872 
L 614.845728 124.381136 
L 631.946143 124.576435 
L 637.646281 124.595631 
L 637.646281 124.595631 
" style="fill:none;stroke:#014d4e;stroke-linecap:square;stroke-width:1.5;"/>
   </g>
   <g id="line2d_17">
    <path clip-path="url(#p87818c929c)" d="M 194.935537 101.820454 
L 240.536644 101.963661 
L 295.637981 102.167536 
L 345.03918 102.718774 
L 373.539872 103.146012 
L 396.340425 103.711121 
L 419.140978 104.496284 
L 445.741624 105.623523 
L 472.342269 106.99253 
L 491.34273 107.926485 
L 525.54356 109.393709 
L 533.143745 109.847883 
L 555.944298 111.218061 
L 565.444529 111.464781 
L 573.044713 111.475039 
L 584.44499 111.240479 
L 599.645359 110.996043 
L 611.045635 111.182546 
L 626.246004 111.557639 
L 633.846189 111.567298 
L 637.646281 111.474579 
L 637.646281 111.474579 
" style="fill:none;stroke:#e50000;stroke-linecap:square;stroke-width:1.5;"/>
   </g>
   <g id="patch_3">
    <path d="M 172.8 332.6472 
L 172.8 84.9312 
" style="fill:none;stroke:#000000;stroke-linecap:square;stroke-linejoin:miter;stroke-width:0.8;"/>
   </g>
   <g id="patch_4">
    <path d="M 659.781818 332.6472 
L 659.781818 84.9312 
" style="fill:none;stroke:#000000;stroke-linecap:square;stroke-linejoin:miter;stroke-width:0.8;"/>
   </g>
   <g id="patch_5">
    <path d="M 172.8 332.6472 
L 659.781818 332.6472 
" style="fill:none;stroke:#000000;stroke-linecap:square;stroke-linejoin:miter;stroke-width:0.8;"/>
   </g>
   <g id="patch_6">
    <path d="M 172.8 84.9312 
L 659.781818 84.9312 
" style="fill:none;stroke:#000000;stroke-linecap:square;stroke-linejoin:miter;stroke-width:0.8;"/>
   </g>
   <g id="text_14">
    <!-- Right abduction -->
    <defs>
     <path d="M 44.390625 34.1875 
Q 47.5625 33.109375 50.5625 29.59375 
Q 53.5625 26.078125 56.59375 19.921875 
L 66.609375 0 
L 56 0 
L 46.6875 18.703125 
Q 43.0625 26.03125 39.671875 28.421875 
Q 36.28125 30.8125 30.421875 30.8125 
L 19.671875 30.8125 
L 19.671875 0 
L 9.8125 0 
L 9.8125 72.90625 
L 32.078125 72.90625 
Q 44.578125 72.90625 50.734375 67.671875 
Q 56.890625 62.453125 56.890625 51.90625 
Q 56.890625 45.015625 53.6875 40.46875 
Q 50.484375 35.9375 44.390625 34.1875 
z
M 19.671875 64.796875 
L 19.671875 38.921875 
L 32.078125 38.921875 
Q 39.203125 38.921875 42.84375 42.21875 
Q 46.484375 45.515625 46.484375 51.90625 
Q 46.484375 58.296875 42.84375 61.546875 
Q 39.203125 64.796875 32.078125 64.796875 
z
" id="DejaVuSans-82"/>
     <path d="M 9.421875 54.6875 
L 18.40625 54.6875 
L 18.40625 0 
L 9.421875 0 
z
M 9.421875 75.984375 
L 18.40625 75.984375 
L 18.40625 64.59375 
L 9.421875 64.59375 
z
" id="DejaVuSans-105"/>
     <path d="M 45.40625 27.984375 
Q 45.40625 37.75 41.375 43.109375 
Q 37.359375 48.484375 30.078125 48.484375 
Q 22.859375 48.484375 18.828125 43.109375 
Q 14.796875 37.75 14.796875 27.984375 
Q 14.796875 18.265625 18.828125 12.890625 
Q 22.859375 7.515625 30.078125 7.515625 
Q 37.359375 7.515625 41.375 12.890625 
Q 45.40625 18.265625 45.40625 27.984375 
z
M 54.390625 6.78125 
Q 54.390625 -7.171875 48.1875 -13.984375 
Q 42 -20.796875 29.203125 -20.796875 
Q 24.46875 -20.796875 20.265625 -20.09375 
Q 16.0625 -19.390625 12.109375 -17.921875 
L 12.109375 -9.1875 
Q 16.0625 -11.328125 19.921875 -12.34375 
Q 23.78125 -13.375 27.78125 -13.375 
Q 36.625 -13.375 41.015625 -8.765625 
Q 45.40625 -4.15625 45.40625 5.171875 
L 45.40625 9.625 
Q 42.625 4.78125 38.28125 2.390625 
Q 33.9375 0 27.875 0 
Q 17.828125 0 11.671875 7.65625 
Q 5.515625 15.328125 5.515625 27.984375 
Q 5.515625 40.671875 11.671875 48.328125 
Q 17.828125 56 27.875 56 
Q 33.9375 56 38.28125 53.609375 
Q 42.625 51.21875 45.40625 46.390625 
L 45.40625 54.6875 
L 54.390625 54.6875 
z
" id="DejaVuSans-103"/>
     <path d="M 54.890625 33.015625 
L 54.890625 0 
L 45.90625 0 
L 45.90625 32.71875 
Q 45.90625 40.484375 42.875 44.328125 
Q 39.84375 48.1875 33.796875 48.1875 
Q 26.515625 48.1875 22.3125 43.546875 
Q 18.109375 38.921875 18.109375 30.90625 
L 18.109375 0 
L 9.078125 0 
L 9.078125 75.984375 
L 18.109375 75.984375 
L 18.109375 46.1875 
Q 21.34375 51.125 25.703125 53.5625 
Q 30.078125 56 35.796875 56 
Q 45.21875 56 50.046875 50.171875 
Q 54.890625 44.34375 54.890625 33.015625 
z
" id="DejaVuSans-104"/>
     <path d="M 18.3125 70.21875 
L 18.3125 54.6875 
L 36.8125 54.6875 
L 36.8125 47.703125 
L 18.3125 47.703125 
L 18.3125 18.015625 
Q 18.3125 11.328125 20.140625 9.421875 
Q 21.96875 7.515625 27.59375 7.515625 
L 36.8125 7.515625 
L 36.8125 0 
L 27.59375 0 
Q 17.1875 0 13.234375 3.875 
Q 9.28125 7.765625 9.28125 18.015625 
L 9.28125 47.703125 
L 2.6875 47.703125 
L 2.6875 54.6875 
L 9.28125 54.6875 
L 9.28125 70.21875 
z
" id="DejaVuSans-116"/>
     <path id="DejaVuSans-32"/>
     <path d="M 34.28125 27.484375 
Q 23.390625 27.484375 19.1875 25 
Q 14.984375 22.515625 14.984375 16.5 
Q 14.984375 11.71875 18.140625 8.90625 
Q 21.296875 6.109375 26.703125 6.109375 
Q 34.1875 6.109375 38.703125 11.40625 
Q 43.21875 16.703125 43.21875 25.484375 
L 43.21875 27.484375 
z
M 52.203125 31.203125 
L 52.203125 0 
L 43.21875 0 
L 43.21875 8.296875 
Q 40.140625 3.328125 35.546875 0.953125 
Q 30.953125 -1.421875 24.3125 -1.421875 
Q 15.921875 -1.421875 10.953125 3.296875 
Q 6 8.015625 6 15.921875 
Q 6 25.140625 12.171875 29.828125 
Q 18.359375 34.515625 30.609375 34.515625 
L 43.21875 34.515625 
L 43.21875 35.40625 
Q 43.21875 41.609375 39.140625 45 
Q 35.0625 48.390625 27.6875 48.390625 
Q 23 48.390625 18.546875 47.265625 
Q 14.109375 46.140625 10.015625 43.890625 
L 10.015625 52.203125 
Q 14.9375 54.109375 19.578125 55.046875 
Q 24.21875 56 28.609375 56 
Q 40.484375 56 46.34375 49.84375 
Q 52.203125 43.703125 52.203125 31.203125 
z
" id="DejaVuSans-97"/>
     <path d="M 48.6875 27.296875 
Q 48.6875 37.203125 44.609375 42.84375 
Q 40.53125 48.484375 33.40625 48.484375 
Q 26.265625 48.484375 22.1875 42.84375 
Q 18.109375 37.203125 18.109375 27.296875 
Q 18.109375 17.390625 22.1875 11.75 
Q 26.265625 6.109375 33.40625 6.109375 
Q 40.53125 6.109375 44.609375 11.75 
Q 48.6875 17.390625 48.6875 27.296875 
z
M 18.109375 46.390625 
Q 20.953125 51.265625 25.265625 53.625 
Q 29.59375 56 35.59375 56 
Q 45.5625 56 51.78125 48.09375 
Q 58.015625 40.1875 58.015625 27.296875 
Q 58.015625 14.40625 51.78125 6.484375 
Q 45.5625 -1.421875 35.59375 -1.421875 
Q 29.59375 -1.421875 25.265625 0.953125 
Q 20.953125 3.328125 18.109375 8.203125 
L 18.109375 0 
L 9.078125 0 
L 9.078125 75.984375 
L 18.109375 75.984375 
z
" id="DejaVuSans-98"/>
     <path d="M 45.40625 46.390625 
L 45.40625 75.984375 
L 54.390625 75.984375 
L 54.390625 0 
L 45.40625 0 
L 45.40625 8.203125 
Q 42.578125 3.328125 38.25 0.953125 
Q 33.9375 -1.421875 27.875 -1.421875 
Q 17.96875 -1.421875 11.734375 6.484375 
Q 5.515625 14.40625 5.515625 27.296875 
Q 5.515625 40.1875 11.734375 48.09375 
Q 17.96875 56 27.875 56 
Q 33.9375 56 38.25 53.625 
Q 42.578125 51.265625 45.40625 46.390625 
z
M 14.796875 27.296875 
Q 14.796875 17.390625 18.875 11.75 
Q 22.953125 6.109375 30.078125 6.109375 
Q 37.203125 6.109375 41.296875 11.75 
Q 45.40625 17.390625 45.40625 27.296875 
Q 45.40625 37.203125 41.296875 42.84375 
Q 37.203125 48.484375 30.078125 48.484375 
Q 22.953125 48.484375 18.875 42.84375 
Q 14.796875 37.203125 14.796875 27.296875 
z
" id="DejaVuSans-100"/>
     <path d="M 8.5 21.578125 
L 8.5 54.6875 
L 17.484375 54.6875 
L 17.484375 21.921875 
Q 17.484375 14.15625 20.5 10.265625 
Q 23.53125 6.390625 29.59375 6.390625 
Q 36.859375 6.390625 41.078125 11.03125 
Q 45.3125 15.671875 45.3125 23.6875 
L 45.3125 54.6875 
L 54.296875 54.6875 
L 54.296875 0 
L 45.3125 0 
L 45.3125 8.40625 
Q 42.046875 3.421875 37.71875 1 
Q 33.40625 -1.421875 27.6875 -1.421875 
Q 18.265625 -1.421875 13.375 4.4375 
Q 8.5 10.296875 8.5 21.578125 
z
M 31.109375 56 
z
" id="DejaVuSans-117"/>
     <path d="M 48.78125 52.59375 
L 48.78125 44.1875 
Q 44.96875 46.296875 41.140625 47.34375 
Q 37.3125 48.390625 33.40625 48.390625 
Q 24.65625 48.390625 19.8125 42.84375 
Q 14.984375 37.3125 14.984375 27.296875 
Q 14.984375 17.28125 19.8125 11.734375 
Q 24.65625 6.203125 33.40625 6.203125 
Q 37.3125 6.203125 41.140625 7.25 
Q 44.96875 8.296875 48.78125 10.40625 
L 48.78125 2.09375 
Q 45.015625 0.34375 40.984375 -0.53125 
Q 36.96875 -1.421875 32.421875 -1.421875 
Q 20.0625 -1.421875 12.78125 6.34375 
Q 5.515625 14.109375 5.515625 27.296875 
Q 5.515625 40.671875 12.859375 48.328125 
Q 20.21875 56 33.015625 56 
Q 37.15625 56 41.109375 55.140625 
Q 45.0625 54.296875 48.78125 52.59375 
z
" id="DejaVuSans-99"/>
     <path d="M 30.609375 48.390625 
Q 23.390625 48.390625 19.1875 42.75 
Q 14.984375 37.109375 14.984375 27.296875 
Q 14.984375 17.484375 19.15625 11.84375 
Q 23.34375 6.203125 30.609375 6.203125 
Q 37.796875 6.203125 41.984375 11.859375 
Q 46.1875 17.53125 46.1875 27.296875 
Q 46.1875 37.015625 41.984375 42.703125 
Q 37.796875 48.390625 30.609375 48.390625 
z
M 30.609375 56 
Q 42.328125 56 49.015625 48.375 
Q 55.71875 40.765625 55.71875 27.296875 
Q 55.71875 13.875 49.015625 6.21875 
Q 42.328125 -1.421875 30.609375 -1.421875 
Q 18.84375 -1.421875 12.171875 6.21875 
Q 5.515625 13.875 5.515625 27.296875 
Q 5.515625 40.765625 12.171875 48.375 
Q 18.84375 56 30.609375 56 
z
" id="DejaVuSans-111"/>
     <path d="M 54.890625 33.015625 
L 54.890625 0 
L 45.90625 0 
L 45.90625 32.71875 
Q 45.90625 40.484375 42.875 44.328125 
Q 39.84375 48.1875 33.796875 48.1875 
Q 26.515625 48.1875 22.3125 43.546875 
Q 18.109375 38.921875 18.109375 30.90625 
L 18.109375 0 
L 9.078125 0 
L 9.078125 54.6875 
L 18.109375 54.6875 
L 18.109375 46.1875 
Q 21.34375 51.125 25.703125 53.5625 
Q 30.078125 56 35.796875 56 
Q 45.21875 56 50.046875 50.171875 
Q 54.890625 44.34375 54.890625 33.015625 
z
" id="DejaVuSans-110"/>
    </defs>
    <g transform="translate(368.694972 78.9312)scale(0.12 -0.12)">
     <use xlink:href="#DejaVuSans-82"/>
     <use x="69.482422" xlink:href="#DejaVuSans-105"/>
     <use x="97.265625" xlink:href="#DejaVuSans-103"/>
     <use x="160.742188" xlink:href="#DejaVuSans-104"/>
     <use x="224.121094" xlink:href="#DejaVuSans-116"/>
     <use x="263.330078" xlink:href="#DejaVuSans-32"/>
     <use x="295.117188" xlink:href="#DejaVuSans-97"/>
     <use x="356.396484" xlink:href="#DejaVuSans-98"/>
     <use x="419.873047" xlink:href="#DejaVuSans-100"/>
     <use x="483.349609" xlink:href="#DejaVuSans-117"/>
     <use x="546.728516" xlink:href="#DejaVuSans-99"/>
     <use x="601.708984" xlink:href="#DejaVuSans-116"/>
     <use x="640.917969" xlink:href="#DejaVuSans-105"/>
     <use x="668.701172" xlink:href="#DejaVuSans-111"/>
     <use x="729.882812" xlink:href="#DejaVuSans-110"/>
    </g>
   </g>
  </g>
  <g id="axes_2">
   <g id="patch_7">
    <path d="M 757.178182 332.6472 
L 1244.16 332.6472 
L 1244.16 84.9312 
L 757.178182 84.9312 
z
" style="fill:#ffffff;"/>
   </g>
   <g id="matplotlib.axis_3">
    <g id="xtick_6">
     <g id="line2d_18">
      <g>
       <use style="stroke:#000000;stroke-width:0.8;" x="779.313719" xlink:href="#ma549426282" y="332.6472"/>
      </g>
     </g>
     <g id="text_15">
      <!-- 0 -->
      <g transform="translate(776.132469 347.245637)scale(0.1 -0.1)">
       <use xlink:href="#DejaVuSans-48"/>
      </g>
     </g>
    </g>
    <g id="xtick_7">
     <g id="line2d_19">
      <g>
       <use style="stroke:#000000;stroke-width:0.8;" x="874.316025" xlink:href="#ma549426282" y="332.6472"/>
      </g>
     </g>
     <g id="text_16">
      <!-- 50 -->
      <g transform="translate(867.953525 347.245637)scale(0.1 -0.1)">
       <use xlink:href="#DejaVuSans-53"/>
       <use x="63.623047" xlink:href="#DejaVuSans-48"/>
      </g>
     </g>
    </g>
    <g id="xtick_8">
     <g id="line2d_20">
      <g>
       <use style="stroke:#000000;stroke-width:0.8;" x="969.31833" xlink:href="#ma549426282" y="332.6472"/>
      </g>
     </g>
     <g id="text_17">
      <!-- 100 -->
      <g transform="translate(959.77458 347.245637)scale(0.1 -0.1)">
       <use xlink:href="#DejaVuSans-49"/>
       <use x="63.623047" xlink:href="#DejaVuSans-48"/>
       <use x="127.246094" xlink:href="#DejaVuSans-48"/>
      </g>
     </g>
    </g>
    <g id="xtick_9">
     <g id="line2d_21">
      <g>
       <use style="stroke:#000000;stroke-width:0.8;" x="1064.320636" xlink:href="#ma549426282" y="332.6472"/>
      </g>
     </g>
     <g id="text_18">
      <!-- 150 -->
      <g transform="translate(1054.776886 347.245637)scale(0.1 -0.1)">
       <use xlink:href="#DejaVuSans-49"/>
       <use x="63.623047" xlink:href="#DejaVuSans-53"/>
       <use x="127.246094" xlink:href="#DejaVuSans-48"/>
      </g>
     </g>
    </g>
    <g id="xtick_10">
     <g id="line2d_22">
      <g>
       <use style="stroke:#000000;stroke-width:0.8;" x="1159.322941" xlink:href="#ma549426282" y="332.6472"/>
      </g>
     </g>
     <g id="text_19">
      <!-- 200 -->
      <g transform="translate(1149.779191 347.245637)scale(0.1 -0.1)">
       <use xlink:href="#DejaVuSans-50"/>
       <use x="63.623047" xlink:href="#DejaVuSans-48"/>
       <use x="127.246094" xlink:href="#DejaVuSans-48"/>
      </g>
     </g>
    </g>
   </g>
   <g id="matplotlib.axis_4">
    <g id="ytick_9">
     <g id="line2d_23">
      <g>
       <use style="stroke:#000000;stroke-width:0.8;" x="757.178182" xlink:href="#m608cc2549b" y="324.702603"/>
      </g>
     </g>
     <g id="text_20">
      <!-- −1.50 -->
      <defs>
       <path d="M 10.6875 12.40625 
L 21 12.40625 
L 21 0 
L 10.6875 0 
z
" id="DejaVuSans-46"/>
      </defs>
      <g transform="translate(719.532869 328.501822)scale(0.1 -0.1)">
       <use xlink:href="#DejaVuSans-8722"/>
       <use x="83.789062" xlink:href="#DejaVuSans-49"/>
       <use x="147.412109" xlink:href="#DejaVuSans-46"/>
       <use x="179.199219" xlink:href="#DejaVuSans-53"/>
       <use x="242.822266" xlink:href="#DejaVuSans-48"/>
      </g>
     </g>
    </g>
    <g id="ytick_10">
     <g id="line2d_24">
      <g>
       <use style="stroke:#000000;stroke-width:0.8;" x="757.178182" xlink:href="#m608cc2549b" y="296.61696"/>
      </g>
     </g>
     <g id="text_21">
      <!-- −1.25 -->
      <g transform="translate(719.532869 300.416178)scale(0.1 -0.1)">
       <use xlink:href="#DejaVuSans-8722"/>
       <use x="83.789062" xlink:href="#DejaVuSans-49"/>
       <use x="147.412109" xlink:href="#DejaVuSans-46"/>
       <use x="179.199219" xlink:href="#DejaVuSans-50"/>
       <use x="242.822266" xlink:href="#DejaVuSans-53"/>
      </g>
     </g>
    </g>
    <g id="ytick_11">
     <g id="line2d_25">
      <g>
       <use style="stroke:#000000;stroke-width:0.8;" x="757.178182" xlink:href="#m608cc2549b" y="268.531316"/>
      </g>
     </g>
     <g id="text_22">
      <!-- −1.00 -->
      <g transform="translate(719.532869 272.330535)scale(0.1 -0.1)">
       <use xlink:href="#DejaVuSans-8722"/>
       <use x="83.789062" xlink:href="#DejaVuSans-49"/>
       <use x="147.412109" xlink:href="#DejaVuSans-46"/>
       <use x="179.199219" xlink:href="#DejaVuSans-48"/>
       <use x="242.822266" xlink:href="#DejaVuSans-48"/>
      </g>
     </g>
    </g>
    <g id="ytick_12">
     <g id="line2d_26">
      <g>
       <use style="stroke:#000000;stroke-width:0.8;" x="757.178182" xlink:href="#m608cc2549b" y="240.445673"/>
      </g>
     </g>
     <g id="text_23">
      <!-- −0.75 -->
      <defs>
       <path d="M 8.203125 72.90625 
L 55.078125 72.90625 
L 55.078125 68.703125 
L 28.609375 0 
L 18.3125 0 
L 43.21875 64.59375 
L 8.203125 64.59375 
z
" id="DejaVuSans-55"/>
      </defs>
      <g transform="translate(719.532869 244.244892)scale(0.1 -0.1)">
       <use xlink:href="#DejaVuSans-8722"/>
       <use x="83.789062" xlink:href="#DejaVuSans-48"/>
       <use x="147.412109" xlink:href="#DejaVuSans-46"/>
       <use x="179.199219" xlink:href="#DejaVuSans-55"/>
       <use x="242.822266" xlink:href="#DejaVuSans-53"/>
      </g>
     </g>
    </g>
    <g id="ytick_13">
     <g id="line2d_27">
      <g>
       <use style="stroke:#000000;stroke-width:0.8;" x="757.178182" xlink:href="#m608cc2549b" y="212.36003"/>
      </g>
     </g>
     <g id="text_24">
      <!-- −0.50 -->
      <g transform="translate(719.532869 216.159248)scale(0.1 -0.1)">
       <use xlink:href="#DejaVuSans-8722"/>
       <use x="83.789062" xlink:href="#DejaVuSans-48"/>
       <use x="147.412109" xlink:href="#DejaVuSans-46"/>
       <use x="179.199219" xlink:href="#DejaVuSans-53"/>
       <use x="242.822266" xlink:href="#DejaVuSans-48"/>
      </g>
     </g>
    </g>
    <g id="ytick_14">
     <g id="line2d_28">
      <g>
       <use style="stroke:#000000;stroke-width:0.8;" x="757.178182" xlink:href="#m608cc2549b" y="184.274386"/>
      </g>
     </g>
     <g id="text_25">
      <!-- −0.25 -->
      <g transform="translate(719.532869 188.073605)scale(0.1 -0.1)">
       <use xlink:href="#DejaVuSans-8722"/>
       <use x="83.789062" xlink:href="#DejaVuSans-48"/>
       <use x="147.412109" xlink:href="#DejaVuSans-46"/>
       <use x="179.199219" xlink:href="#DejaVuSans-50"/>
       <use x="242.822266" xlink:href="#DejaVuSans-53"/>
      </g>
     </g>
    </g>
    <g id="ytick_15">
     <g id="line2d_29">
      <g>
       <use style="stroke:#000000;stroke-width:0.8;" x="757.178182" xlink:href="#m608cc2549b" y="156.188743"/>
      </g>
     </g>
     <g id="text_26">
      <!-- 0.00 -->
      <g transform="translate(727.912557 159.987962)scale(0.1 -0.1)">
       <use xlink:href="#DejaVuSans-48"/>
       <use x="63.623047" xlink:href="#DejaVuSans-46"/>
       <use x="95.410156" xlink:href="#DejaVuSans-48"/>
       <use x="159.033203" xlink:href="#DejaVuSans-48"/>
      </g>
     </g>
    </g>
    <g id="ytick_16">
     <g id="line2d_30">
      <g>
       <use style="stroke:#000000;stroke-width:0.8;" x="757.178182" xlink:href="#m608cc2549b" y="128.1031"/>
      </g>
     </g>
     <g id="text_27">
      <!-- 0.25 -->
      <g transform="translate(727.912557 131.902319)scale(0.1 -0.1)">
       <use xlink:href="#DejaVuSans-48"/>
       <use x="63.623047" xlink:href="#DejaVuSans-46"/>
       <use x="95.410156" xlink:href="#DejaVuSans-50"/>
       <use x="159.033203" xlink:href="#DejaVuSans-53"/>
      </g>
     </g>
    </g>
    <g id="ytick_17">
     <g id="line2d_31">
      <g>
       <use style="stroke:#000000;stroke-width:0.8;" x="757.178182" xlink:href="#m608cc2549b" y="100.017457"/>
      </g>
     </g>
     <g id="text_28">
      <!-- 0.50 -->
      <g transform="translate(727.912557 103.816675)scale(0.1 -0.1)">
       <use xlink:href="#DejaVuSans-48"/>
       <use x="63.623047" xlink:href="#DejaVuSans-46"/>
       <use x="95.410156" xlink:href="#DejaVuSans-53"/>
       <use x="159.033203" xlink:href="#DejaVuSans-48"/>
      </g>
     </g>
    </g>
   </g>
   <g id="line2d_32">
    <path clip-path="url(#pa6a82513ff)" d="M 779.313719 156.188168 
L 838.215148 156.077424 
L 842.015241 155.929725 
L 845.815333 155.538675 
L 849.615425 154.866569 
L 857.21561 153.255693 
L 861.015702 152.687573 
L 864.815794 152.328633 
L 870.515932 152.048353 
L 878.116117 151.693363 
L 881.916209 151.223813 
L 885.716301 150.491876 
L 893.316486 148.909934 
L 897.116578 148.343485 
L 918.017085 145.72978 
L 921.817177 145.506818 
L 925.61727 145.509199 
L 933.217454 145.605232 
L 937.017546 145.381864 
L 946.517777 144.504553 
L 950.317869 144.471729 
L 959.8181 144.92605 
L 965.518238 144.78606 
L 969.31833 144.52247 
L 975.018468 143.827339 
L 978.818561 143.279088 
L 980.718607 143.102682 
L 986.418745 143.001673 
L 988.318791 143.074308 
L 990.218837 143.279987 
L 992.118883 143.656608 
L 994.01893 144.215678 
L 1003.51916 147.828589 
L 1007.319252 148.763631 
L 1011.119345 149.543573 
L 1013.019391 150.031841 
L 1014.919437 150.680609 
L 1016.819483 151.71228 
L 1020.619575 155.869911 
L 1022.519621 157.960334 
L 1024.419667 159.837391 
L 1026.319713 161.384826 
L 1028.21976 162.767095 
L 1030.119806 164.303499 
L 1032.019852 166.010116 
L 1033.919898 167.990613 
L 1037.71999 172.510902 
L 1043.420128 179.435323 
L 1049.120267 185.697055 
L 1051.020313 187.837444 
L 1052.920359 190.159185 
L 1054.820405 192.769931 
L 1056.720451 195.779999 
L 1058.620497 199.259081 
L 1060.520543 203.225986 
L 1062.42059 207.6847 
L 1064.320636 212.619362 
L 1068.120728 223.623577 
L 1071.92082 235.73769 
L 1075.720912 248.739867 
L 1079.521005 262.917283 
L 1081.421051 270.66889 
L 1083.321097 265.508077 
L 1085.221143 260.67428 
L 1087.121189 262.297847 
L 1090.921281 264.696743 
L 1092.821327 266.286181 
L 1094.721373 267.692346 
L 1098.521466 269.474131 
L 1100.421512 270.806485 
L 1102.321558 271.752895 
L 1104.221604 272.118899 
L 1106.12165 272.8083 
L 1108.021696 273.915571 
L 1109.921742 274.463145 
L 1111.821788 287.881164 
L 1113.721834 280.161965 
L 1115.621881 280.080839 
L 1117.521927 281.285758 
L 1119.421973 279.083726 
L 1121.322019 276.383244 
L 1125.122111 278.148279 
L 1127.022157 275.71758 
L 1128.922203 274.26098 
L 1130.822249 276.049857 
L 1132.722296 276.342512 
L 1134.622342 274.109604 
L 1136.522388 274.153232 
L 1138.422434 276.139797 
L 1140.32248 275.599633 
L 1142.222526 274.186827 
L 1144.122572 275.612684 
L 1146.022618 277.191698 
L 1147.922664 276.410883 
L 1149.822711 276.571205 
L 1151.722757 278.787497 
L 1153.622803 279.652087 
L 1155.522849 279.371571 
L 1159.322941 290.998025 
L 1161.222987 294.636551 
L 1163.123033 298.007671 
L 1165.023079 302.057774 
L 1166.923126 304.561691 
L 1168.823172 305.40666 
L 1170.723218 306.646032 
L 1172.623264 321.387382 
L 1174.52331 317.003021 
L 1176.423356 313.171188 
L 1178.323402 310.423274 
L 1180.223448 305.743231 
L 1182.123494 299.805781 
L 1184.023541 295.568075 
L 1185.923587 296.745033 
L 1187.823633 295.708457 
L 1189.723679 295.789022 
L 1191.623725 298.015784 
L 1193.523771 298.228519 
L 1195.423817 297.011478 
L 1197.323863 298.590925 
L 1199.223909 300.489788 
L 1201.123956 299.123106 
L 1203.024002 298.604354 
L 1204.924048 301.26755 
L 1206.824094 301.84164 
L 1208.72414 299.922639 
L 1210.624186 301.349239 
L 1212.524232 304.427996 
L 1214.424278 303.522055 
L 1216.324324 302.301076 
L 1218.224371 305.385151 
L 1220.124417 307.216251 
L 1222.024463 304.76497 
L 1222.024463 304.76497 
" style="fill:none;stroke:#ff796c;stroke-linecap:square;stroke-width:1.5;"/>
   </g>
   <g id="line2d_33">
    <path clip-path="url(#pa6a82513ff)" d="M 779.313719 110.992597 
L 849.615425 111.110018 
L 866.71584 111.327346 
L 887.616347 111.48536 
L 904.716762 111.679665 
L 942.717685 112.117305 
L 954.117961 112.255986 
L 984.518699 112.263075 
L 994.01893 112.085574 
L 1014.919437 111.189228 
L 1032.019852 109.847322 
L 1039.620036 109.022073 
L 1051.020313 107.570983 
L 1054.820405 106.946076 
L 1058.620497 106.142106 
L 1062.42059 105.122686 
L 1066.220682 103.891654 
L 1070.020774 102.482721 
L 1075.720912 100.082334 
L 1079.521005 98.272828 
L 1081.421051 97.286785 
L 1102.321558 97.361062 
L 1109.921742 97.366776 
L 1111.821788 96.191018 
L 1115.621881 96.614155 
L 1121.322019 96.988263 
L 1128.922203 97.219564 
L 1142.222526 97.345531 
L 1170.723218 97.368303 
L 1172.623264 96.197218 
L 1176.423356 96.617885 
L 1182.123494 96.980759 
L 1189.723679 97.204292 
L 1203.024002 97.322714 
L 1222.024463 97.326515 
L 1222.024463 97.326515 
" style="fill:none;stroke:#ffff14;stroke-linecap:square;stroke-width:1.5;"/>
   </g>
   <g id="line2d_34">
    <path clip-path="url(#pa6a82513ff)" d="M 779.313719 110.988576 
L 1222.024463 110.988576 
L 1222.024463 110.988576 
" style="fill:none;stroke:#014d4e;stroke-linecap:square;stroke-width:1.5;"/>
   </g>
   <g id="line2d_35">
    <path clip-path="url(#pa6a82513ff)" d="M 779.313719 156.184722 
L 849.615425 156.067301 
L 866.71584 155.849973 
L 887.616347 155.691959 
L 904.716762 155.497654 
L 942.717685 155.060014 
L 954.117961 154.921333 
L 984.518699 154.914245 
L 994.01893 155.091745 
L 1014.919437 155.988092 
L 1032.019852 157.329997 
L 1039.620036 158.155247 
L 1051.020313 159.606337 
L 1054.820405 160.231243 
L 1058.620497 161.035213 
L 1062.42059 162.054634 
L 1066.220682 163.285666 
L 1070.020774 164.694599 
L 1075.720912 167.094986 
L 1079.521005 168.904492 
L 1081.421051 169.890534 
L 1102.321558 169.816257 
L 1109.921742 169.810544 
L 1111.821788 170.986301 
L 1115.621881 170.563164 
L 1121.322019 170.189056 
L 1128.922203 169.957756 
L 1142.222526 169.831788 
L 1170.723218 169.809017 
L 1172.623264 170.980101 
L 1176.423356 170.559434 
L 1182.123494 170.196561 
L 1189.723679 169.973027 
L 1203.024002 169.854605 
L 1222.024463 169.850804 
L 1222.024463 169.850804 
" style="fill:none;stroke:#e50000;stroke-linecap:square;stroke-width:1.5;"/>
   </g>
   <g id="patch_8">
    <path d="M 757.178182 332.6472 
L 757.178182 84.9312 
" style="fill:none;stroke:#000000;stroke-linecap:square;stroke-linejoin:miter;stroke-width:0.8;"/>
   </g>
   <g id="patch_9">
    <path d="M 1244.16 332.6472 
L 1244.16 84.9312 
" style="fill:none;stroke:#000000;stroke-linecap:square;stroke-linejoin:miter;stroke-width:0.8;"/>
   </g>
   <g id="patch_10">
    <path d="M 757.178182 332.6472 
L 1244.16 332.6472 
" style="fill:none;stroke:#000000;stroke-linecap:square;stroke-linejoin:miter;stroke-width:0.8;"/>
   </g>
   <g id="patch_11">
    <path d="M 757.178182 84.9312 
L 1244.16 84.9312 
" style="fill:none;stroke:#000000;stroke-linecap:square;stroke-linejoin:miter;stroke-width:0.8;"/>
   </g>
   <g id="text_29">
    <!-- Right flexion -->
    <defs>
     <path d="M 37.109375 75.984375 
L 37.109375 68.5 
L 28.515625 68.5 
Q 23.6875 68.5 21.796875 66.546875 
Q 19.921875 64.59375 19.921875 59.515625 
L 19.921875 54.6875 
L 34.71875 54.6875 
L 34.71875 47.703125 
L 19.921875 47.703125 
L 19.921875 0 
L 10.890625 0 
L 10.890625 47.703125 
L 2.296875 47.703125 
L 2.296875 54.6875 
L 10.890625 54.6875 
L 10.890625 58.5 
Q 10.890625 67.625 15.140625 71.796875 
Q 19.390625 75.984375 28.609375 75.984375 
z
" id="DejaVuSans-102"/>
     <path d="M 9.421875 75.984375 
L 18.40625 75.984375 
L 18.40625 0 
L 9.421875 0 
z
" id="DejaVuSans-108"/>
     <path d="M 56.203125 29.59375 
L 56.203125 25.203125 
L 14.890625 25.203125 
Q 15.484375 15.921875 20.484375 11.0625 
Q 25.484375 6.203125 34.421875 6.203125 
Q 39.59375 6.203125 44.453125 7.46875 
Q 49.3125 8.734375 54.109375 11.28125 
L 54.109375 2.78125 
Q 49.265625 0.734375 44.1875 -0.34375 
Q 39.109375 -1.421875 33.890625 -1.421875 
Q 20.796875 -1.421875 13.15625 6.1875 
Q 5.515625 13.8125 5.515625 26.8125 
Q 5.515625 40.234375 12.765625 48.109375 
Q 20.015625 56 32.328125 56 
Q 43.359375 56 49.78125 48.890625 
Q 56.203125 41.796875 56.203125 29.59375 
z
M 47.21875 32.234375 
Q 47.125 39.59375 43.09375 43.984375 
Q 39.0625 48.390625 32.421875 48.390625 
Q 24.90625 48.390625 20.390625 44.140625 
Q 15.875 39.890625 15.1875 32.171875 
z
" id="DejaVuSans-101"/>
     <path d="M 54.890625 54.6875 
L 35.109375 28.078125 
L 55.90625 0 
L 45.3125 0 
L 29.390625 21.484375 
L 13.484375 0 
L 2.875 0 
L 24.125 28.609375 
L 4.6875 54.6875 
L 15.28125 54.6875 
L 29.78125 35.203125 
L 44.28125 54.6875 
z
" id="DejaVuSans-120"/>
    </defs>
    <g transform="translate(962.800653 78.9312)scale(0.12 -0.12)">
     <use xlink:href="#DejaVuSans-82"/>
     <use x="69.482422" xlink:href="#DejaVuSans-105"/>
     <use x="97.265625" xlink:href="#DejaVuSans-103"/>
     <use x="160.742188" xlink:href="#DejaVuSans-104"/>
     <use x="224.121094" xlink:href="#DejaVuSans-116"/>
     <use x="263.330078" xlink:href="#DejaVuSans-32"/>
     <use x="295.117188" xlink:href="#DejaVuSans-102"/>
     <use x="330.322266" xlink:href="#DejaVuSans-108"/>
     <use x="358.105469" xlink:href="#DejaVuSans-101"/>
     <use x="419.613281" xlink:href="#DejaVuSans-120"/>
     <use x="478.792969" xlink:href="#DejaVuSans-105"/>
     <use x="506.576172" xlink:href="#DejaVuSans-111"/>
     <use x="567.757812" xlink:href="#DejaVuSans-110"/>
    </g>
   </g>
  </g>
  <g id="axes_3">
   <g id="patch_12">
    <path d="M 172.8 629.9064 
L 659.781818 629.9064 
L 659.781818 382.1904 
L 172.8 382.1904 
z
" style="fill:#ffffff;"/>
   </g>
   <g id="matplotlib.axis_5">
    <g id="xtick_11">
     <g id="line2d_36">
      <g>
       <use style="stroke:#000000;stroke-width:0.8;" x="194.935537" xlink:href="#ma549426282" y="629.9064"/>
      </g>
     </g>
     <g id="text_30">
      <!-- 0 -->
      <g transform="translate(191.754287 644.504838)scale(0.1 -0.1)">
       <use xlink:href="#DejaVuSans-48"/>
      </g>
     </g>
    </g>
    <g id="xtick_12">
     <g id="line2d_37">
      <g>
       <use style="stroke:#000000;stroke-width:0.8;" x="289.937843" xlink:href="#ma549426282" y="629.9064"/>
      </g>
     </g>
     <g id="text_31">
      <!-- 50 -->
      <g transform="translate(283.575343 644.504838)scale(0.1 -0.1)">
       <use xlink:href="#DejaVuSans-53"/>
       <use x="63.623047" xlink:href="#DejaVuSans-48"/>
      </g>
     </g>
    </g>
    <g id="xtick_13">
     <g id="line2d_38">
      <g>
       <use style="stroke:#000000;stroke-width:0.8;" x="384.940148" xlink:href="#ma549426282" y="629.9064"/>
      </g>
     </g>
     <g id="text_32">
      <!-- 100 -->
      <g transform="translate(375.396398 644.504838)scale(0.1 -0.1)">
       <use xlink:href="#DejaVuSans-49"/>
       <use x="63.623047" xlink:href="#DejaVuSans-48"/>
       <use x="127.246094" xlink:href="#DejaVuSans-48"/>
      </g>
     </g>
    </g>
    <g id="xtick_14">
     <g id="line2d_39">
      <g>
       <use style="stroke:#000000;stroke-width:0.8;" x="479.942454" xlink:href="#ma549426282" y="629.9064"/>
      </g>
     </g>
     <g id="text_33">
      <!-- 150 -->
      <g transform="translate(470.398704 644.504838)scale(0.1 -0.1)">
       <use xlink:href="#DejaVuSans-49"/>
       <use x="63.623047" xlink:href="#DejaVuSans-53"/>
       <use x="127.246094" xlink:href="#DejaVuSans-48"/>
      </g>
     </g>
    </g>
    <g id="xtick_15">
     <g id="line2d_40">
      <g>
       <use style="stroke:#000000;stroke-width:0.8;" x="574.944759" xlink:href="#ma549426282" y="629.9064"/>
      </g>
     </g>
     <g id="text_34">
      <!-- 200 -->
      <g transform="translate(565.401009 644.504838)scale(0.1 -0.1)">
       <use xlink:href="#DejaVuSans-50"/>
       <use x="63.623047" xlink:href="#DejaVuSans-48"/>
       <use x="127.246094" xlink:href="#DejaVuSans-48"/>
      </g>
     </g>
    </g>
   </g>
   <g id="matplotlib.axis_6">
    <g id="ytick_18">
     <g id="line2d_41">
      <g>
       <use style="stroke:#000000;stroke-width:0.8;" x="172.8" xlink:href="#m608cc2549b" y="598.379661"/>
      </g>
     </g>
     <g id="text_35">
      <!-- −1.0 -->
      <g transform="translate(141.517187 602.17888)scale(0.1 -0.1)">
       <use xlink:href="#DejaVuSans-8722"/>
       <use x="83.789062" xlink:href="#DejaVuSans-49"/>
       <use x="147.412109" xlink:href="#DejaVuSans-46"/>
       <use x="179.199219" xlink:href="#DejaVuSans-48"/>
      </g>
     </g>
    </g>
    <g id="ytick_19">
     <g id="line2d_42">
      <g>
       <use style="stroke:#000000;stroke-width:0.8;" x="172.8" xlink:href="#m608cc2549b" y="558.522469"/>
      </g>
     </g>
     <g id="text_36">
      <!-- −0.5 -->
      <g transform="translate(141.517187 562.321688)scale(0.1 -0.1)">
       <use xlink:href="#DejaVuSans-8722"/>
       <use x="83.789062" xlink:href="#DejaVuSans-48"/>
       <use x="147.412109" xlink:href="#DejaVuSans-46"/>
       <use x="179.199219" xlink:href="#DejaVuSans-53"/>
      </g>
     </g>
    </g>
    <g id="ytick_20">
     <g id="line2d_43">
      <g>
       <use style="stroke:#000000;stroke-width:0.8;" x="172.8" xlink:href="#m608cc2549b" y="518.665278"/>
      </g>
     </g>
     <g id="text_37">
      <!-- 0.0 -->
      <g transform="translate(149.896875 522.464497)scale(0.1 -0.1)">
       <use xlink:href="#DejaVuSans-48"/>
       <use x="63.623047" xlink:href="#DejaVuSans-46"/>
       <use x="95.410156" xlink:href="#DejaVuSans-48"/>
      </g>
     </g>
    </g>
    <g id="ytick_21">
     <g id="line2d_44">
      <g>
       <use style="stroke:#000000;stroke-width:0.8;" x="172.8" xlink:href="#m608cc2549b" y="478.808087"/>
      </g>
     </g>
     <g id="text_38">
      <!-- 0.5 -->
      <g transform="translate(149.896875 482.607305)scale(0.1 -0.1)">
       <use xlink:href="#DejaVuSans-48"/>
       <use x="63.623047" xlink:href="#DejaVuSans-46"/>
       <use x="95.410156" xlink:href="#DejaVuSans-53"/>
      </g>
     </g>
    </g>
    <g id="ytick_22">
     <g id="line2d_45">
      <g>
       <use style="stroke:#000000;stroke-width:0.8;" x="172.8" xlink:href="#m608cc2549b" y="438.950895"/>
      </g>
     </g>
     <g id="text_39">
      <!-- 1.0 -->
      <g transform="translate(149.896875 442.750114)scale(0.1 -0.1)">
       <use xlink:href="#DejaVuSans-49"/>
       <use x="63.623047" xlink:href="#DejaVuSans-46"/>
       <use x="95.410156" xlink:href="#DejaVuSans-48"/>
      </g>
     </g>
    </g>
    <g id="ytick_23">
     <g id="line2d_46">
      <g>
       <use style="stroke:#000000;stroke-width:0.8;" x="172.8" xlink:href="#m608cc2549b" y="399.093704"/>
      </g>
     </g>
     <g id="text_40">
      <!-- 1.5 -->
      <g transform="translate(149.896875 402.892922)scale(0.1 -0.1)">
       <use xlink:href="#DejaVuSans-49"/>
       <use x="63.623047" xlink:href="#DejaVuSans-46"/>
       <use x="95.410156" xlink:href="#DejaVuSans-53"/>
      </g>
     </g>
    </g>
   </g>
   <g id="line2d_47">
    <path clip-path="url(#p7d04b00487)" d="M 194.935537 518.609062 
L 196.835583 518.807736 
L 200.635676 519.431467 
L 202.535722 519.614145 
L 204.435768 519.585713 
L 212.035952 518.583413 
L 213.935998 518.6781 
L 219.636137 519.416083 
L 221.536183 519.342735 
L 225.336275 518.800258 
L 227.236321 518.505859 
L 229.136367 518.409423 
L 231.036413 518.568067 
L 236.736552 519.360307 
L 238.636598 519.382426 
L 246.236782 518.577455 
L 248.136828 518.675791 
L 253.836967 519.437611 
L 255.737013 519.394318 
L 259.537105 518.918013 
L 261.437151 518.638241 
L 263.337197 518.553192 
L 267.137289 518.955881 
L 270.937382 519.421592 
L 272.837428 519.432539 
L 278.537566 518.783957 
L 280.437612 518.740336 
L 282.337658 518.866557 
L 286.137751 519.490229 
L 288.037797 519.643961 
L 289.937843 519.619556 
L 293.737935 519.21604 
L 295.637981 518.985017 
L 297.538027 518.949467 
L 305.138212 519.64816 
L 307.038258 519.564745 
L 312.738396 518.775687 
L 314.638442 518.688422 
L 316.538488 518.773731 
L 320.33858 519.26044 
L 322.238627 519.337222 
L 326.038719 519.132114 
L 329.838811 518.749996 
L 331.738857 518.805298 
L 339.339042 519.682006 
L 341.239088 519.630289 
L 346.939226 519.086137 
L 348.839272 519.050201 
L 350.739318 519.17019 
L 354.53941 519.61022 
L 358.339503 519.588445 
L 365.939687 519.077962 
L 375.439918 519.781626 
L 383.040102 519.163824 
L 384.940148 519.205986 
L 388.74024 519.534677 
L 392.540333 519.560411 
L 394.440379 519.404334 
L 398.240471 518.862217 
L 402.040563 518.721588 
L 405.840655 518.893163 
L 407.740702 519.028826 
L 409.640748 519.034349 
L 413.44084 518.755997 
L 419.140978 518.180327 
L 428.641209 518.319679 
L 436.241393 517.523723 
L 438.141439 517.485334 
L 441.941532 517.806652 
L 445.741624 518.034302 
L 449.541716 517.94896 
L 455.241854 517.358275 
L 459.041947 517.271745 
L 464.742085 517.384827 
L 470.442223 516.853143 
L 474.242315 516.426005 
L 476.142362 516.371785 
L 483.742546 516.600756 
L 485.642592 516.552214 
L 489.442684 516.028098 
L 495.142823 515.264478 
L 497.042869 515.156033 
L 498.942915 515.292297 
L 500.842961 514.611283 
L 502.743007 514.088838 
L 504.643053 514.992716 
L 506.543099 516.323578 
L 512.243238 518.72874 
L 514.143284 518.675609 
L 516.04333 517.470477 
L 517.943376 516.411837 
L 523.643514 515.467824 
L 525.54356 516.279831 
L 527.443607 517.637663 
L 529.343653 521.192989 
L 531.243699 520.4105 
L 533.143745 517.986739 
L 535.043791 518.895253 
L 536.943837 520.349904 
L 538.843883 518.241704 
L 540.743929 516.561797 
L 542.643975 519.059935 
L 544.544022 521.06015 
L 546.444068 519.709566 
L 548.344114 520.146676 
L 550.24416 523.480371 
L 552.144206 523.677675 
L 554.044252 520.866705 
L 555.944298 521.066947 
L 557.844344 522.451998 
L 561.644437 517.228328 
L 563.544483 519.227271 
L 565.444529 520.365427 
L 567.344575 518.131048 
L 569.244621 518.955781 
L 571.144667 522.552072 
L 573.044713 520.221004 
L 574.944759 516.765602 
L 576.844805 518.099159 
L 578.744852 519.070086 
L 580.644898 516.320191 
L 582.544944 516.875422 
L 584.44499 521.048542 
L 586.345036 521.162631 
L 588.245082 520.150969 
L 590.145128 524.269085 
L 592.045174 524.663325 
L 593.94522 519.471151 
L 595.845267 519.476502 
L 597.745313 522.349478 
L 599.645359 518.801905 
L 601.545405 515.642026 
L 603.445451 520.096562 
L 605.345497 522.382531 
L 607.245543 519.497917 
L 609.145589 521.64396 
L 611.045635 526.391657 
L 612.945682 523.292416 
L 614.845728 518.247037 
L 616.745774 519.311902 
L 618.64582 518.033582 
L 620.545866 510.522185 
L 622.445912 508.099093 
L 624.345958 511.699429 
L 626.246004 510.390575 
L 628.14605 507.255003 
L 630.046097 511.773635 
L 631.946143 516.735722 
L 633.846189 513.80983 
L 635.746235 512.06933 
L 637.646281 516.355034 
L 637.646281 516.355034 
" style="fill:none;stroke:#ff796c;stroke-linecap:square;stroke-width:1.5;"/>
   </g>
   <g id="line2d_48">
    <path clip-path="url(#p7d04b00487)" d="M 194.935537 393.944597 
L 202.535722 394.023218 
L 208.23586 394.404931 
L 219.636137 395.473546 
L 225.336275 396.282795 
L 238.636598 398.42747 
L 246.236782 400.043407 
L 253.836967 401.740082 
L 259.537105 403.26792 
L 272.837428 407.103034 
L 282.337658 410.339169 
L 288.037797 412.363093 
L 293.737935 414.648812 
L 305.138212 419.537926 
L 310.83835 422.278594 
L 327.938765 430.845648 
L 341.239088 437.892945 
L 354.53941 445.607346 
L 360.239549 449.100154 
L 375.439918 458.818785 
L 383.040102 464.10115 
L 390.640287 469.523189 
L 396.340425 473.841397 
L 411.540794 485.789204 
L 422.94107 495.337726 
L 430.541255 501.905483 
L 455.241854 524.01212 
L 474.242315 541.363343 
L 479.942454 546.272291 
L 489.442684 554.115633 
L 495.142823 558.586906 
L 497.042869 559.986369 
L 502.743007 564.723569 
L 506.543099 567.448326 
L 512.243238 571.393112 
L 516.04333 574.367759 
L 519.843422 577.415965 
L 523.643514 580.209682 
L 525.54356 581.448967 
L 527.443607 582.200346 
L 529.343653 583.330684 
L 538.843883 589.90712 
L 540.743929 591.105836 
L 546.444068 594.005474 
L 552.144206 596.726742 
L 559.74439 601.008908 
L 561.644437 602.032287 
L 565.444529 603.56111 
L 567.344575 604.247741 
L 569.244621 604.774883 
L 571.144667 605.18159 
L 574.944759 606.663035 
L 578.744852 607.644372 
L 580.644898 608.039501 
L 582.544944 608.249065 
L 586.345036 608.386149 
L 588.245082 608.052812 
L 590.145128 608.2337 
L 592.045174 608.574759 
L 595.845267 609.56579 
L 597.745313 609.971516 
L 601.545405 611.012361 
L 607.245543 611.775681 
L 611.045635 612.396325 
L 612.945682 613.115284 
L 618.64582 615.96586 
L 620.545866 617.058445 
L 622.445912 617.858441 
L 624.345958 618.274357 
L 626.246004 618.558076 
L 628.14605 618.646582 
L 630.046097 618.34714 
L 631.946143 617.914676 
L 635.746235 617.297349 
L 637.646281 616.803002 
L 637.646281 616.803002 
" style="fill:none;stroke:#ffff14;stroke-linecap:square;stroke-width:1.5;"/>
   </g>
   <g id="line2d_49">
    <path clip-path="url(#p7d04b00487)" d="M 194.935537 393.450218 
L 202.535722 393.563039 
L 210.135906 393.901177 
L 217.736091 394.463657 
L 225.336275 395.248857 
L 232.936459 396.254513 
L 240.536644 397.477726 
L 248.136828 398.914969 
L 255.737013 400.562097 
L 263.337197 402.414362 
L 270.937382 404.466424 
L 278.537566 406.712365 
L 288.037797 409.782517 
L 297.538027 413.131619 
L 307.038258 416.744585 
L 316.538488 420.60514 
L 326.038719 424.695894 
L 335.538949 428.998421 
L 346.939226 434.413643 
L 358.339503 440.070743 
L 371.639825 446.927379 
L 386.840194 455.027732 
L 407.740702 466.460174 
L 449.541716 489.416527 
L 464.742085 497.486227 
L 478.042408 504.306626 
L 489.442684 509.925922 
L 500.842961 515.29737 
L 510.343192 519.559064 
L 519.843422 523.60522 
L 529.343653 527.417614 
L 538.843883 530.979072 
L 548.344114 534.273551 
L 557.844344 537.286213 
L 565.444529 539.48427 
L 573.044713 541.486915 
L 580.644898 543.288373 
L 588.245082 544.883452 
L 595.845267 546.267552 
L 603.445451 547.436682 
L 611.045635 548.387471 
L 618.64582 549.117178 
L 626.246004 549.6237 
L 633.846189 549.905574 
L 637.646281 549.96199 
L 637.646281 549.96199 
" style="fill:none;stroke:#014d4e;stroke-linecap:square;stroke-width:1.5;"/>
   </g>
   <g id="line2d_50">
    <path clip-path="url(#p7d04b00487)" d="M 194.935537 518.170899 
L 206.335814 518.12185 
L 215.836044 517.886378 
L 223.436229 517.707966 
L 231.036413 517.477082 
L 240.536644 517.33288 
L 250.036874 517.106597 
L 257.637059 516.936772 
L 265.237243 516.696741 
L 274.737474 516.502728 
L 284.237704 516.190885 
L 289.937843 516.000238 
L 307.038258 514.985149 
L 318.438534 514.06584 
L 327.938765 513.359694 
L 335.538949 512.85496 
L 341.239088 512.445896 
L 362.139595 510.366546 
L 377.339964 508.486174 
L 390.640287 506.228653 
L 396.340425 505.017993 
L 411.540794 501.434516 
L 421.041024 498.738386 
L 428.641209 496.442383 
L 445.741624 490.701457 
L 451.441762 488.597782 
L 479.942454 477.651845 
L 493.242777 473.274674 
L 498.942915 471.507209 
L 502.743007 470.107752 
L 506.543099 469.096149 
L 512.243238 467.658301 
L 516.04333 466.31133 
L 519.843422 464.854533 
L 523.643514 463.614812 
L 525.54356 463.138143 
L 527.443607 463.139608 
L 529.343653 462.752208 
L 540.743929 459.219261 
L 546.444068 458.296547 
L 552.144206 457.451759 
L 561.644437 455.042276 
L 565.444529 454.588438 
L 567.344575 454.421023 
L 571.144667 454.488587 
L 574.944759 453.958597 
L 578.744852 453.87807 
L 580.644898 453.914151 
L 582.544944 454.122894 
L 586.345036 454.783421 
L 588.245082 455.495918 
L 590.145128 455.681001 
L 592.045174 455.692657 
L 595.845267 455.36704 
L 597.745313 455.273893 
L 601.545405 454.817665 
L 605.345497 454.910231 
L 611.045635 454.656424 
L 612.945682 454.140712 
L 618.64582 451.816596 
L 620.545866 450.871633 
L 622.445912 450.20528 
L 624.345958 449.909005 
L 626.246004 449.730901 
L 628.14605 449.733968 
L 630.046097 450.110922 
L 631.946143 450.606824 
L 635.746235 451.308761 
L 637.646281 451.824266 
L 637.646281 451.824266 
" style="fill:none;stroke:#e50000;stroke-linecap:square;stroke-width:1.5;"/>
   </g>
   <g id="patch_13">
    <path d="M 172.8 629.9064 
L 172.8 382.1904 
" style="fill:none;stroke:#000000;stroke-linecap:square;stroke-linejoin:miter;stroke-width:0.8;"/>
   </g>
   <g id="patch_14">
    <path d="M 659.781818 629.9064 
L 659.781818 382.1904 
" style="fill:none;stroke:#000000;stroke-linecap:square;stroke-linejoin:miter;stroke-width:0.8;"/>
   </g>
   <g id="patch_15">
    <path d="M 172.8 629.9064 
L 659.781818 629.9064 
" style="fill:none;stroke:#000000;stroke-linecap:square;stroke-linejoin:miter;stroke-width:0.8;"/>
   </g>
   <g id="patch_16">
    <path d="M 172.8 382.1904 
L 659.781818 382.1904 
" style="fill:none;stroke:#000000;stroke-linecap:square;stroke-linejoin:miter;stroke-width:0.8;"/>
   </g>
   <g id="text_41">
    <!-- Left abduction -->
    <defs>
     <path d="M 9.8125 72.90625 
L 19.671875 72.90625 
L 19.671875 8.296875 
L 55.171875 8.296875 
L 55.171875 0 
L 9.8125 0 
z
" id="DejaVuSans-76"/>
    </defs>
    <g transform="translate(372.997159 376.1904)scale(0.12 -0.12)">
     <use xlink:href="#DejaVuSans-76"/>
     <use x="55.697266" xlink:href="#DejaVuSans-101"/>
     <use x="117.220703" xlink:href="#DejaVuSans-102"/>
     <use x="152.410156" xlink:href="#DejaVuSans-116"/>
     <use x="191.619141" xlink:href="#DejaVuSans-32"/>
     <use x="223.40625" xlink:href="#DejaVuSans-97"/>
     <use x="284.685547" xlink:href="#DejaVuSans-98"/>
     <use x="348.162109" xlink:href="#DejaVuSans-100"/>
     <use x="411.638672" xlink:href="#DejaVuSans-117"/>
     <use x="475.017578" xlink:href="#DejaVuSans-99"/>
     <use x="529.998047" xlink:href="#DejaVuSans-116"/>
     <use x="569.207031" xlink:href="#DejaVuSans-105"/>
     <use x="596.990234" xlink:href="#DejaVuSans-111"/>
     <use x="658.171875" xlink:href="#DejaVuSans-110"/>
    </g>
   </g>
  </g>
  <g id="axes_4">
   <g id="patch_17">
    <path d="M 757.178182 629.9064 
L 1244.16 629.9064 
L 1244.16 382.1904 
L 757.178182 382.1904 
z
" style="fill:#ffffff;"/>
   </g>
   <g id="matplotlib.axis_7">
    <g id="xtick_16">
     <g id="line2d_51">
      <g>
       <use style="stroke:#000000;stroke-width:0.8;" x="779.313719" xlink:href="#ma549426282" y="629.9064"/>
      </g>
     </g>
     <g id="text_42">
      <!-- 0 -->
      <g transform="translate(776.132469 644.504838)scale(0.1 -0.1)">
       <use xlink:href="#DejaVuSans-48"/>
      </g>
     </g>
    </g>
    <g id="xtick_17">
     <g id="line2d_52">
      <g>
       <use style="stroke:#000000;stroke-width:0.8;" x="874.316025" xlink:href="#ma549426282" y="629.9064"/>
      </g>
     </g>
     <g id="text_43">
      <!-- 50 -->
      <g transform="translate(867.953525 644.504838)scale(0.1 -0.1)">
       <use xlink:href="#DejaVuSans-53"/>
       <use x="63.623047" xlink:href="#DejaVuSans-48"/>
      </g>
     </g>
    </g>
    <g id="xtick_18">
     <g id="line2d_53">
      <g>
       <use style="stroke:#000000;stroke-width:0.8;" x="969.31833" xlink:href="#ma549426282" y="629.9064"/>
      </g>
     </g>
     <g id="text_44">
      <!-- 100 -->
      <g transform="translate(959.77458 644.504838)scale(0.1 -0.1)">
       <use xlink:href="#DejaVuSans-49"/>
       <use x="63.623047" xlink:href="#DejaVuSans-48"/>
       <use x="127.246094" xlink:href="#DejaVuSans-48"/>
      </g>
     </g>
    </g>
    <g id="xtick_19">
     <g id="line2d_54">
      <g>
       <use style="stroke:#000000;stroke-width:0.8;" x="1064.320636" xlink:href="#ma549426282" y="629.9064"/>
      </g>
     </g>
     <g id="text_45">
      <!-- 150 -->
      <g transform="translate(1054.776886 644.504838)scale(0.1 -0.1)">
       <use xlink:href="#DejaVuSans-49"/>
       <use x="63.623047" xlink:href="#DejaVuSans-53"/>
       <use x="127.246094" xlink:href="#DejaVuSans-48"/>
      </g>
     </g>
    </g>
    <g id="xtick_20">
     <g id="line2d_55">
      <g>
       <use style="stroke:#000000;stroke-width:0.8;" x="1159.322941" xlink:href="#ma549426282" y="629.9064"/>
      </g>
     </g>
     <g id="text_46">
      <!-- 200 -->
      <g transform="translate(1149.779191 644.504838)scale(0.1 -0.1)">
       <use xlink:href="#DejaVuSans-50"/>
       <use x="63.623047" xlink:href="#DejaVuSans-48"/>
       <use x="127.246094" xlink:href="#DejaVuSans-48"/>
      </g>
     </g>
    </g>
   </g>
   <g id="matplotlib.axis_8">
    <g id="ytick_24">
     <g id="line2d_56">
      <g>
       <use style="stroke:#000000;stroke-width:0.8;" x="757.178182" xlink:href="#m608cc2549b" y="606.506819"/>
      </g>
     </g>
     <g id="text_47">
      <!-- −0.5 -->
      <g transform="translate(725.895369 610.306038)scale(0.1 -0.1)">
       <use xlink:href="#DejaVuSans-8722"/>
       <use x="83.789062" xlink:href="#DejaVuSans-48"/>
       <use x="147.412109" xlink:href="#DejaVuSans-46"/>
       <use x="179.199219" xlink:href="#DejaVuSans-53"/>
      </g>
     </g>
    </g>
    <g id="ytick_25">
     <g id="line2d_57">
      <g>
       <use style="stroke:#000000;stroke-width:0.8;" x="757.178182" xlink:href="#m608cc2549b" y="572.889444"/>
      </g>
     </g>
     <g id="text_48">
      <!-- −0.4 -->
      <g transform="translate(725.895369 576.688663)scale(0.1 -0.1)">
       <use xlink:href="#DejaVuSans-8722"/>
       <use x="83.789062" xlink:href="#DejaVuSans-48"/>
       <use x="147.412109" xlink:href="#DejaVuSans-46"/>
       <use x="179.199219" xlink:href="#DejaVuSans-52"/>
      </g>
     </g>
    </g>
    <g id="ytick_26">
     <g id="line2d_58">
      <g>
       <use style="stroke:#000000;stroke-width:0.8;" x="757.178182" xlink:href="#m608cc2549b" y="539.272069"/>
      </g>
     </g>
     <g id="text_49">
      <!-- −0.3 -->
      <defs>
       <path d="M 40.578125 39.3125 
Q 47.65625 37.796875 51.625 33 
Q 55.609375 28.21875 55.609375 21.1875 
Q 55.609375 10.40625 48.1875 4.484375 
Q 40.765625 -1.421875 27.09375 -1.421875 
Q 22.515625 -1.421875 17.65625 -0.515625 
Q 12.796875 0.390625 7.625 2.203125 
L 7.625 11.71875 
Q 11.71875 9.328125 16.59375 8.109375 
Q 21.484375 6.890625 26.8125 6.890625 
Q 36.078125 6.890625 40.9375 10.546875 
Q 45.796875 14.203125 45.796875 21.1875 
Q 45.796875 27.640625 41.28125 31.265625 
Q 36.765625 34.90625 28.71875 34.90625 
L 20.21875 34.90625 
L 20.21875 43.015625 
L 29.109375 43.015625 
Q 36.375 43.015625 40.234375 45.921875 
Q 44.09375 48.828125 44.09375 54.296875 
Q 44.09375 59.90625 40.109375 62.90625 
Q 36.140625 65.921875 28.71875 65.921875 
Q 24.65625 65.921875 20.015625 65.03125 
Q 15.375 64.15625 9.8125 62.3125 
L 9.8125 71.09375 
Q 15.4375 72.65625 20.34375 73.4375 
Q 25.25 74.21875 29.59375 74.21875 
Q 40.828125 74.21875 47.359375 69.109375 
Q 53.90625 64.015625 53.90625 55.328125 
Q 53.90625 49.265625 50.4375 45.09375 
Q 46.96875 40.921875 40.578125 39.3125 
z
" id="DejaVuSans-51"/>
      </defs>
      <g transform="translate(725.895369 543.071288)scale(0.1 -0.1)">
       <use xlink:href="#DejaVuSans-8722"/>
       <use x="83.789062" xlink:href="#DejaVuSans-48"/>
       <use x="147.412109" xlink:href="#DejaVuSans-46"/>
       <use x="179.199219" xlink:href="#DejaVuSans-51"/>
      </g>
     </g>
    </g>
    <g id="ytick_27">
     <g id="line2d_59">
      <g>
       <use style="stroke:#000000;stroke-width:0.8;" x="757.178182" xlink:href="#m608cc2549b" y="505.654694"/>
      </g>
     </g>
     <g id="text_50">
      <!-- −0.2 -->
      <g transform="translate(725.895369 509.453912)scale(0.1 -0.1)">
       <use xlink:href="#DejaVuSans-8722"/>
       <use x="83.789062" xlink:href="#DejaVuSans-48"/>
       <use x="147.412109" xlink:href="#DejaVuSans-46"/>
       <use x="179.199219" xlink:href="#DejaVuSans-50"/>
      </g>
     </g>
    </g>
    <g id="ytick_28">
     <g id="line2d_60">
      <g>
       <use style="stroke:#000000;stroke-width:0.8;" x="757.178182" xlink:href="#m608cc2549b" y="472.037318"/>
      </g>
     </g>
     <g id="text_51">
      <!-- −0.1 -->
      <g transform="translate(725.895369 475.836537)scale(0.1 -0.1)">
       <use xlink:href="#DejaVuSans-8722"/>
       <use x="83.789062" xlink:href="#DejaVuSans-48"/>
       <use x="147.412109" xlink:href="#DejaVuSans-46"/>
       <use x="179.199219" xlink:href="#DejaVuSans-49"/>
      </g>
     </g>
    </g>
    <g id="ytick_29">
     <g id="line2d_61">
      <g>
       <use style="stroke:#000000;stroke-width:0.8;" x="757.178182" xlink:href="#m608cc2549b" y="438.419943"/>
      </g>
     </g>
     <g id="text_52">
      <!-- 0.0 -->
      <g transform="translate(734.275057 442.219162)scale(0.1 -0.1)">
       <use xlink:href="#DejaVuSans-48"/>
       <use x="63.623047" xlink:href="#DejaVuSans-46"/>
       <use x="95.410156" xlink:href="#DejaVuSans-48"/>
      </g>
     </g>
    </g>
    <g id="ytick_30">
     <g id="line2d_62">
      <g>
       <use style="stroke:#000000;stroke-width:0.8;" x="757.178182" xlink:href="#m608cc2549b" y="404.802568"/>
      </g>
     </g>
     <g id="text_53">
      <!-- 0.1 -->
      <g transform="translate(734.275057 408.601787)scale(0.1 -0.1)">
       <use xlink:href="#DejaVuSans-48"/>
       <use x="63.623047" xlink:href="#DejaVuSans-46"/>
       <use x="95.410156" xlink:href="#DejaVuSans-49"/>
      </g>
     </g>
    </g>
   </g>
   <g id="line2d_63">
    <path clip-path="url(#pb9d5c2a70c)" d="M 779.313719 438.41055 
L 838.215148 438.037188 
L 842.015241 437.892205 
L 845.815333 437.537733 
L 849.615425 436.940776 
L 859.115656 435.231021 
L 862.915748 434.815029 
L 868.615886 434.461348 
L 878.116117 434.036323 
L 881.916209 433.602641 
L 885.716301 432.937993 
L 893.316486 431.497042 
L 899.016624 430.744246 
L 916.117039 428.754289 
L 919.917131 428.594848 
L 923.717223 428.728787 
L 929.417362 429.335646 
L 935.1175 429.89188 
L 940.817638 430.114345 
L 946.517777 430.381233 
L 950.317869 430.82038 
L 957.918053 431.991252 
L 961.718146 432.245132 
L 965.518238 432.227502 
L 969.31833 431.95912 
L 973.118422 431.42888 
L 980.718607 430.056108 
L 986.418745 429.640428 
L 988.318791 429.622235 
L 990.218837 429.739357 
L 992.118883 430.024279 
L 994.01893 430.482237 
L 1001.619114 432.879051 
L 1003.51916 433.267819 
L 1005.419206 433.506662 
L 1009.219298 433.60964 
L 1013.019391 433.55088 
L 1014.919437 433.62071 
L 1016.819483 434.09948 
L 1024.419667 441.471347 
L 1026.319713 442.788279 
L 1030.119806 445.151693 
L 1032.019852 446.509622 
L 1033.919898 448.083685 
L 1041.520082 455.012867 
L 1043.420128 456.511116 
L 1045.320175 457.827304 
L 1049.120267 460.011411 
L 1052.920359 462.082245 
L 1054.820405 463.294572 
L 1056.720451 464.75399 
L 1058.620497 466.519075 
L 1060.520543 468.599307 
L 1062.42059 470.990507 
L 1064.320636 473.669861 
L 1068.120728 479.577349 
L 1077.620958 495.15969 
L 1081.421051 502.011941 
L 1085.221143 484.467377 
L 1087.121189 486.335173 
L 1090.921281 488.88668 
L 1092.821327 490.452071 
L 1094.721373 491.795034 
L 1098.521466 493.398493 
L 1100.421512 494.615062 
L 1102.321558 495.424378 
L 1104.221604 495.62241 
L 1106.12165 496.091405 
L 1108.021696 496.922586 
L 1109.921742 497.161774 
L 1111.821788 508.254325 
L 1113.721834 498.381417 
L 1115.621881 498.767009 
L 1117.521927 500.316056 
L 1119.421973 498.403337 
L 1121.322019 495.911983 
L 1125.122111 497.92486 
L 1127.022157 495.459181 
L 1128.922203 493.910825 
L 1130.822249 495.636943 
L 1132.722296 495.78099 
L 1134.622342 493.27867 
L 1136.522388 493.121581 
L 1138.422434 494.977788 
L 1140.32248 494.18728 
L 1142.222526 492.469575 
L 1146.022618 495.057265 
L 1147.922664 493.931498 
L 1149.822711 493.770069 
L 1151.722757 495.731987 
L 1153.622803 496.28721 
L 1155.522849 495.666517 
L 1159.322941 512.273565 
L 1161.222987 517.891356 
L 1165.023079 528.101205 
L 1166.923126 531.348412 
L 1170.723218 533.523733 
L 1172.623264 546.361223 
L 1176.423356 535.664862 
L 1178.323402 530.957865 
L 1180.223448 523.718187 
L 1182.123494 514.672175 
L 1184.023541 507.126944 
L 1185.923587 508.465556 
L 1187.823633 507.161118 
L 1189.723679 507.081149 
L 1191.623725 509.487973 
L 1193.523771 509.473088 
L 1195.423817 507.722377 
L 1197.323863 509.371148 
L 1199.223909 511.445716 
L 1201.123956 509.521068 
L 1203.024002 508.63808 
L 1204.924048 511.692741 
L 1206.824094 512.085997 
L 1208.72414 509.271555 
L 1210.624186 510.608687 
L 1212.524232 513.9933 
L 1214.424278 512.330045 
L 1216.324324 510.300556 
L 1218.224371 513.818757 
L 1220.124417 515.839101 
L 1222.024463 512.476846 
L 1222.024463 512.476846 
" style="fill:none;stroke:#ff796c;stroke-linecap:square;stroke-width:1.5;"/>
   </g>
   <g id="line2d_64">
    <path clip-path="url(#pb9d5c2a70c)" d="M 779.313719 573.73086 
L 845.815333 573.825144 
L 874.316025 574.336727 
L 883.816255 574.501705 
L 906.616808 575.141078 
L 914.216993 575.272037 
L 918.017085 575.187253 
L 921.817177 574.93981 
L 927.517316 574.275198 
L 938.917592 572.493592 
L 952.217915 570.336716 
L 957.918053 569.509839 
L 961.718146 569.204397 
L 965.518238 569.117606 
L 969.31833 569.236331 
L 973.118422 569.540963 
L 986.418745 570.921844 
L 990.218837 571.088886 
L 994.01893 571.060338 
L 999.719068 570.898888 
L 1003.51916 571.052387 
L 1007.319252 571.575955 
L 1011.119345 572.45415 
L 1016.819483 573.995145 
L 1022.519621 572.68929 
L 1024.419667 572.374822 
L 1028.21976 572.09349 
L 1035.819944 571.814245 
L 1039.620036 571.881053 
L 1041.520082 572.062961 
L 1043.420128 572.375005 
L 1045.320175 572.83119 
L 1047.220221 573.435738 
L 1049.120267 574.182931 
L 1052.920359 576.049502 
L 1056.720451 578.300567 
L 1060.520543 580.848821 
L 1064.320636 583.738799 
L 1066.220682 585.362917 
L 1068.120728 587.145196 
L 1070.020774 589.111539 
L 1071.92082 591.281688 
L 1073.820866 593.670405 
L 1075.720912 596.281077 
L 1079.521005 602.122019 
L 1081.421051 605.316998 
L 1085.221143 618.646582 
L 1087.121189 617.802417 
L 1089.021235 617.125985 
L 1092.821327 616.153514 
L 1096.62142 615.531376 
L 1100.421512 615.133205 
L 1106.12165 614.787944 
L 1109.921742 614.657807 
L 1111.821788 613.277663 
L 1113.721834 617.612437 
L 1115.621881 616.974748 
L 1119.421973 616.054854 
L 1123.222065 615.468644 
L 1127.022157 615.093073 
L 1132.722296 614.767324 
L 1140.32248 614.566162 
L 1155.522849 614.451398 
L 1157.422895 609.1633 
L 1159.322941 604.461786 
L 1161.222987 600.359817 
L 1163.123033 596.974504 
L 1165.023079 594.398524 
L 1166.923126 592.609941 
L 1168.823172 591.649285 
L 1170.723218 591.590741 
L 1172.623264 589.725049 
L 1174.52331 591.992295 
L 1176.423356 595.130552 
L 1178.323402 599.143994 
L 1180.223448 603.874007 
L 1182.123494 609.30157 
L 1184.023541 615.484418 
L 1187.823633 615.111787 
L 1193.523771 614.788639 
L 1201.123956 614.588958 
L 1216.324324 614.475279 
L 1222.024463 614.46647 
L 1222.024463 614.46647 
" style="fill:none;stroke:#ffff14;stroke-linecap:square;stroke-width:1.5;"/>
   </g>
   <g id="line2d_65">
    <path clip-path="url(#pb9d5c2a70c)" d="M 779.313719 573.676857 
L 1222.024463 573.676857 
L 1222.024463 573.676857 
" style="fill:none;stroke:#014d4e;stroke-linecap:square;stroke-width:1.5;"/>
   </g>
   <g id="line2d_66">
    <path clip-path="url(#pb9d5c2a70c)" d="M 779.313719 438.36594 
L 845.815333 438.271656 
L 874.316025 437.760073 
L 883.816255 437.595095 
L 906.616808 436.955722 
L 914.216993 436.824763 
L 918.017085 436.909547 
L 921.817177 437.15699 
L 927.517316 437.821602 
L 938.917592 439.603208 
L 952.217915 441.760084 
L 957.918053 442.586961 
L 961.718146 442.892403 
L 965.518238 442.979194 
L 969.31833 442.860469 
L 973.118422 442.555837 
L 986.418745 441.174956 
L 990.218837 441.007914 
L 994.01893 441.036462 
L 999.719068 441.197912 
L 1003.51916 441.044413 
L 1007.319252 440.520845 
L 1011.119345 439.64265 
L 1016.819483 438.101655 
L 1022.519621 439.40751 
L 1024.419667 439.721978 
L 1028.21976 440.00331 
L 1035.819944 440.282555 
L 1039.620036 440.215747 
L 1041.520082 440.033839 
L 1043.420128 439.721795 
L 1045.320175 439.26561 
L 1047.220221 438.661062 
L 1049.120267 437.913869 
L 1052.920359 436.047298 
L 1056.720451 433.796233 
L 1060.520543 431.247979 
L 1064.320636 428.358001 
L 1066.220682 426.733883 
L 1068.120728 424.951604 
L 1070.020774 422.985261 
L 1071.92082 420.815112 
L 1073.820866 418.426395 
L 1075.720912 415.815723 
L 1079.521005 409.974781 
L 1081.421051 406.779802 
L 1085.221143 393.450218 
L 1087.121189 394.294383 
L 1089.021235 394.970815 
L 1092.821327 395.943286 
L 1096.62142 396.565424 
L 1100.421512 396.963595 
L 1106.12165 397.308856 
L 1109.921742 397.438993 
L 1111.821788 398.819137 
L 1113.721834 394.484363 
L 1115.621881 395.122052 
L 1119.421973 396.041946 
L 1123.222065 396.628156 
L 1127.022157 397.003727 
L 1132.722296 397.329476 
L 1140.32248 397.530638 
L 1155.522849 397.645402 
L 1157.422895 402.9335 
L 1159.322941 407.635014 
L 1161.222987 411.736983 
L 1163.123033 415.122296 
L 1165.023079 417.698276 
L 1166.923126 419.486859 
L 1168.823172 420.447515 
L 1170.723218 420.506059 
L 1172.623264 422.371751 
L 1174.52331 420.104505 
L 1176.423356 416.966248 
L 1178.323402 412.952806 
L 1180.223448 408.222793 
L 1182.123494 402.79523 
L 1184.023541 396.612382 
L 1187.823633 396.985013 
L 1193.523771 397.308161 
L 1201.123956 397.507842 
L 1216.324324 397.621521 
L 1222.024463 397.63033 
L 1222.024463 397.63033 
" style="fill:none;stroke:#e50000;stroke-linecap:square;stroke-width:1.5;"/>
   </g>
   <g id="patch_18">
    <path d="M 757.178182 629.9064 
L 757.178182 382.1904 
" style="fill:none;stroke:#000000;stroke-linecap:square;stroke-linejoin:miter;stroke-width:0.8;"/>
   </g>
   <g id="patch_19">
    <path d="M 1244.16 629.9064 
L 1244.16 382.1904 
" style="fill:none;stroke:#000000;stroke-linecap:square;stroke-linejoin:miter;stroke-width:0.8;"/>
   </g>
   <g id="patch_20">
    <path d="M 757.178182 629.9064 
L 1244.16 629.9064 
" style="fill:none;stroke:#000000;stroke-linecap:square;stroke-linejoin:miter;stroke-width:0.8;"/>
   </g>
   <g id="patch_21">
    <path d="M 757.178182 382.1904 
L 1244.16 382.1904 
" style="fill:none;stroke:#000000;stroke-linecap:square;stroke-linejoin:miter;stroke-width:0.8;"/>
   </g>
   <g id="text_54">
    <!-- Left flexion -->
    <g transform="translate(967.102841 376.1904)scale(0.12 -0.12)">
     <use xlink:href="#DejaVuSans-76"/>
     <use x="55.697266" xlink:href="#DejaVuSans-101"/>
     <use x="117.220703" xlink:href="#DejaVuSans-102"/>
     <use x="152.410156" xlink:href="#DejaVuSans-116"/>
     <use x="191.619141" xlink:href="#DejaVuSans-32"/>
     <use x="223.40625" xlink:href="#DejaVuSans-102"/>
     <use x="258.611328" xlink:href="#DejaVuSans-108"/>
     <use x="286.394531" xlink:href="#DejaVuSans-101"/>
     <use x="347.902344" xlink:href="#DejaVuSans-120"/>
     <use x="407.082031" xlink:href="#DejaVuSans-105"/>
     <use x="434.865234" xlink:href="#DejaVuSans-111"/>
     <use x="496.046875" xlink:href="#DejaVuSans-110"/>
    </g>
   </g>
  </g>
  <g id="legend_1">
   <g id="patch_22">
    <path d="M 1308.251562 384.875313 
L 1375.4 384.875313 
Q 1377.4 384.875313 1377.4 382.875313 
L 1377.4 324.884687 
Q 1377.4 322.884687 1375.4 322.884687 
L 1308.251562 322.884687 
Q 1306.251562 322.884687 1306.251562 324.884687 
L 1306.251562 382.875313 
Q 1306.251562 384.875313 1308.251562 384.875313 
z
" style="fill:#ffffff;opacity:0.8;stroke:#cccccc;stroke-linejoin:miter;"/>
   </g>
   <g id="line2d_67">
    <path d="M 1310.251562 330.983125 
L 1330.251562 330.983125 
" style="fill:none;stroke:#ff796c;stroke-linecap:square;stroke-width:1.5;"/>
   </g>
   <g id="line2d_68"/>
   <g id="text_55">
    <!-- Torque -->
    <defs>
     <path d="M -0.296875 72.90625 
L 61.375 72.90625 
L 61.375 64.59375 
L 35.5 64.59375 
L 35.5 0 
L 25.59375 0 
L 25.59375 64.59375 
L -0.296875 64.59375 
z
" id="DejaVuSans-84"/>
     <path d="M 41.109375 46.296875 
Q 39.59375 47.171875 37.8125 47.578125 
Q 36.03125 48 33.890625 48 
Q 26.265625 48 22.1875 43.046875 
Q 18.109375 38.09375 18.109375 28.8125 
L 18.109375 0 
L 9.078125 0 
L 9.078125 54.6875 
L 18.109375 54.6875 
L 18.109375 46.1875 
Q 20.953125 51.171875 25.484375 53.578125 
Q 30.03125 56 36.53125 56 
Q 37.453125 56 38.578125 55.875 
Q 39.703125 55.765625 41.0625 55.515625 
z
" id="DejaVuSans-114"/>
     <path d="M 14.796875 27.296875 
Q 14.796875 17.390625 18.875 11.75 
Q 22.953125 6.109375 30.078125 6.109375 
Q 37.203125 6.109375 41.296875 11.75 
Q 45.40625 17.390625 45.40625 27.296875 
Q 45.40625 37.203125 41.296875 42.84375 
Q 37.203125 48.484375 30.078125 48.484375 
Q 22.953125 48.484375 18.875 42.84375 
Q 14.796875 37.203125 14.796875 27.296875 
z
M 45.40625 8.203125 
Q 42.578125 3.328125 38.25 0.953125 
Q 33.9375 -1.421875 27.875 -1.421875 
Q 17.96875 -1.421875 11.734375 6.484375 
Q 5.515625 14.40625 5.515625 27.296875 
Q 5.515625 40.1875 11.734375 48.09375 
Q 17.96875 56 27.875 56 
Q 33.9375 56 38.25 53.625 
Q 42.578125 51.265625 45.40625 46.390625 
L 45.40625 54.6875 
L 54.390625 54.6875 
L 54.390625 -20.796875 
L 45.40625 -20.796875 
z
" id="DejaVuSans-113"/>
    </defs>
    <g transform="translate(1338.251562 334.483125)scale(0.1 -0.1)">
     <use xlink:href="#DejaVuSans-84"/>
     <use x="60.818359" xlink:href="#DejaVuSans-111"/>
     <use x="122" xlink:href="#DejaVuSans-114"/>
     <use x="163.097656" xlink:href="#DejaVuSans-113"/>
     <use x="226.574219" xlink:href="#DejaVuSans-117"/>
     <use x="289.953125" xlink:href="#DejaVuSans-101"/>
    </g>
   </g>
   <g id="line2d_69">
    <path d="M 1310.251562 345.66125 
L 1330.251562 345.66125 
" style="fill:none;stroke:#ffff14;stroke-linecap:square;stroke-width:1.5;"/>
   </g>
   <g id="line2d_70"/>
   <g id="text_56">
    <!-- q -->
    <g transform="translate(1338.251562 349.16125)scale(0.1 -0.1)">
     <use xlink:href="#DejaVuSans-113"/>
    </g>
   </g>
   <g id="line2d_71">
    <path d="M 1310.251562 360.339375 
L 1330.251562 360.339375 
" style="fill:none;stroke:#014d4e;stroke-linecap:square;stroke-width:1.5;"/>
   </g>
   <g id="line2d_72"/>
   <g id="text_57">
    <!-- q_des -->
    <defs>
     <path d="M 50.984375 -16.609375 
L 50.984375 -23.578125 
L -0.984375 -23.578125 
L -0.984375 -16.609375 
z
" id="DejaVuSans-95"/>
     <path d="M 44.28125 53.078125 
L 44.28125 44.578125 
Q 40.484375 46.53125 36.375 47.5 
Q 32.28125 48.484375 27.875 48.484375 
Q 21.1875 48.484375 17.84375 46.4375 
Q 14.5 44.390625 14.5 40.28125 
Q 14.5 37.15625 16.890625 35.375 
Q 19.28125 33.59375 26.515625 31.984375 
L 29.59375 31.296875 
Q 39.15625 29.25 43.1875 25.515625 
Q 47.21875 21.78125 47.21875 15.09375 
Q 47.21875 7.46875 41.1875 3.015625 
Q 35.15625 -1.421875 24.609375 -1.421875 
Q 20.21875 -1.421875 15.453125 -0.5625 
Q 10.6875 0.296875 5.421875 2 
L 5.421875 11.28125 
Q 10.40625 8.6875 15.234375 7.390625 
Q 20.0625 6.109375 24.8125 6.109375 
Q 31.15625 6.109375 34.5625 8.28125 
Q 37.984375 10.453125 37.984375 14.40625 
Q 37.984375 18.0625 35.515625 20.015625 
Q 33.0625 21.96875 24.703125 23.78125 
L 21.578125 24.515625 
Q 13.234375 26.265625 9.515625 29.90625 
Q 5.8125 33.546875 5.8125 39.890625 
Q 5.8125 47.609375 11.28125 51.796875 
Q 16.75 56 26.8125 56 
Q 31.78125 56 36.171875 55.265625 
Q 40.578125 54.546875 44.28125 53.078125 
z
" id="DejaVuSans-115"/>
    </defs>
    <g transform="translate(1338.251562 363.839375)scale(0.1 -0.1)">
     <use xlink:href="#DejaVuSans-113"/>
     <use x="63.476562" xlink:href="#DejaVuSans-95"/>
     <use x="113.476562" xlink:href="#DejaVuSans-100"/>
     <use x="176.953125" xlink:href="#DejaVuSans-101"/>
     <use x="238.476562" xlink:href="#DejaVuSans-115"/>
    </g>
   </g>
   <g id="line2d_73">
    <path d="M 1310.251562 375.295625 
L 1330.251562 375.295625 
" style="fill:none;stroke:#e50000;stroke-linecap:square;stroke-width:1.5;"/>
   </g>
   <g id="line2d_74"/>
   <g id="text_58">
    <!-- error -->
    <g transform="translate(1338.251562 378.795625)scale(0.1 -0.1)">
     <use xlink:href="#DejaVuSans-101"/>
     <use x="61.523438" xlink:href="#DejaVuSans-114"/>
     <use x="102.621094" xlink:href="#DejaVuSans-114"/>
     <use x="143.703125" xlink:href="#DejaVuSans-111"/>
     <use x="204.884766" xlink:href="#DejaVuSans-114"/>
    </g>
   </g>
  </g>
 </g>
 <defs>
  <clipPath id="p87818c929c">
   <rect height="247.716" width="486.981818" x="172.8" y="84.9312"/>
  </clipPath>
  <clipPath id="pa6a82513ff">
   <rect height="247.716" width="486.981818" x="757.178182" y="84.9312"/>
  </clipPath>
  <clipPath id="p7d04b00487">
   <rect height="247.716" width="486.981818" x="172.8" y="382.1904"/>
  </clipPath>
  <clipPath id="pb9d5c2a70c">
   <rect height="247.716" width="486.981818" x="757.178182" y="382.1904"/>
  </clipPath>
 </defs>
</svg>
