<?xml version="1.0" encoding="utf-8" standalone="no"?>
<!DOCTYPE svg PUBLIC "-//W3C//DTD SVG 1.1//EN"
  "http://www.w3.org/Graphics/SVG/1.1/DTD/svg11.dtd">
<!-- Created with matplotlib (https://matplotlib.org/) -->
<svg height="707.76pt" version="1.1" viewBox="0 0 1382.4 707.76" width="1382.4pt" xmlns="http://www.w3.org/2000/svg" xmlns:xlink="http://www.w3.org/1999/xlink">
 <defs>
  <style type="text/css">
*{stroke-linecap:butt;stroke-linejoin:round;}
  </style>
 </defs>
 <g id="figure_1">
  <g id="patch_1">
   <path d="M 0 707.76 
L 1382.4 707.76 
L 1382.4 0 
L 0 0 
z
" style="fill:#ffffff;"/>
  </g>
  <g id="axes_1">
   <g id="patch_2">
    <path d="M 172.8 332.6472 
L 487.905882 332.6472 
L 487.905882 84.9312 
L 172.8 84.9312 
z
" style="fill:#ffffff;"/>
   </g>
   <g id="matplotlib.axis_1">
    <g id="xtick_1">
     <g id="line2d_1">
      <defs>
       <path d="M 0 0 
L 0 3.5 
" id="mf78ada5ad6" style="stroke:#000000;stroke-width:0.8;"/>
      </defs>
      <g>
       <use style="stroke:#000000;stroke-width:0.8;" x="187.122995" xlink:href="#mf78ada5ad6" y="332.6472"/>
      </g>
     </g>
     <g id="text_1">
      <!-- 0 -->
      <defs>
       <path d="M 31.78125 66.40625 
Q 24.171875 66.40625 20.328125 58.90625 
Q 16.5 51.421875 16.5 36.375 
Q 16.5 21.390625 20.328125 13.890625 
Q 24.171875 6.390625 31.78125 6.390625 
Q 39.453125 6.390625 43.28125 13.890625 
Q 47.125 21.390625 47.125 36.375 
Q 47.125 51.421875 43.28125 58.90625 
Q 39.453125 66.40625 31.78125 66.40625 
z
M 31.78125 74.21875 
Q 44.046875 74.21875 50.515625 64.515625 
Q 56.984375 54.828125 56.984375 36.375 
Q 56.984375 17.96875 50.515625 8.265625 
Q 44.046875 -1.421875 31.78125 -1.421875 
Q 19.53125 -1.421875 13.0625 8.265625 
Q 6.59375 17.96875 6.59375 36.375 
Q 6.59375 54.828125 13.0625 64.515625 
Q 19.53125 74.21875 31.78125 74.21875 
z
" id="DejaVuSans-48"/>
      </defs>
      <g transform="translate(183.941745 347.245637)scale(0.1 -0.1)">
       <use xlink:href="#DejaVuSans-48"/>
      </g>
     </g>
    </g>
    <g id="xtick_2">
     <g id="line2d_2">
      <g>
       <use style="stroke:#000000;stroke-width:0.8;" x="248.595075" xlink:href="#mf78ada5ad6" y="332.6472"/>
      </g>
     </g>
     <g id="text_2">
      <!-- 50 -->
      <defs>
       <path d="M 10.796875 72.90625 
L 49.515625 72.90625 
L 49.515625 64.59375 
L 19.828125 64.59375 
L 19.828125 46.734375 
Q 21.96875 47.46875 24.109375 47.828125 
Q 26.265625 48.1875 28.421875 48.1875 
Q 40.625 48.1875 47.75 41.5 
Q 54.890625 34.8125 54.890625 23.390625 
Q 54.890625 11.625 47.5625 5.09375 
Q 40.234375 -1.421875 26.90625 -1.421875 
Q 22.3125 -1.421875 17.546875 -0.640625 
Q 12.796875 0.140625 7.71875 1.703125 
L 7.71875 11.625 
Q 12.109375 9.234375 16.796875 8.0625 
Q 21.484375 6.890625 26.703125 6.890625 
Q 35.15625 6.890625 40.078125 11.328125 
Q 45.015625 15.765625 45.015625 23.390625 
Q 45.015625 31 40.078125 35.4375 
Q 35.15625 39.890625 26.703125 39.890625 
Q 22.75 39.890625 18.8125 39.015625 
Q 14.890625 38.140625 10.796875 36.28125 
z
" id="DejaVuSans-53"/>
      </defs>
      <g transform="translate(242.232575 347.245637)scale(0.1 -0.1)">
       <use xlink:href="#DejaVuSans-53"/>
       <use x="63.623047" xlink:href="#DejaVuSans-48"/>
      </g>
     </g>
    </g>
    <g id="xtick_3">
     <g id="line2d_3">
      <g>
       <use style="stroke:#000000;stroke-width:0.8;" x="310.067155" xlink:href="#mf78ada5ad6" y="332.6472"/>
      </g>
     </g>
     <g id="text_3">
      <!-- 100 -->
      <defs>
       <path d="M 12.40625 8.296875 
L 28.515625 8.296875 
L 28.515625 63.921875 
L 10.984375 60.40625 
L 10.984375 69.390625 
L 28.421875 72.90625 
L 38.28125 72.90625 
L 38.28125 8.296875 
L 54.390625 8.296875 
L 54.390625 0 
L 12.40625 0 
z
" id="DejaVuSans-49"/>
      </defs>
      <g transform="translate(300.523405 347.245637)scale(0.1 -0.1)">
       <use xlink:href="#DejaVuSans-49"/>
       <use x="63.623047" xlink:href="#DejaVuSans-48"/>
       <use x="127.246094" xlink:href="#DejaVuSans-48"/>
      </g>
     </g>
    </g>
    <g id="xtick_4">
     <g id="line2d_4">
      <g>
       <use style="stroke:#000000;stroke-width:0.8;" x="371.539235" xlink:href="#mf78ada5ad6" y="332.6472"/>
      </g>
     </g>
     <g id="text_4">
      <!-- 150 -->
      <g transform="translate(361.995485 347.245637)scale(0.1 -0.1)">
       <use xlink:href="#DejaVuSans-49"/>
       <use x="63.623047" xlink:href="#DejaVuSans-53"/>
       <use x="127.246094" xlink:href="#DejaVuSans-48"/>
      </g>
     </g>
    </g>
    <g id="xtick_5">
     <g id="line2d_5">
      <g>
       <use style="stroke:#000000;stroke-width:0.8;" x="433.011315" xlink:href="#mf78ada5ad6" y="332.6472"/>
      </g>
     </g>
     <g id="text_5">
      <!-- 200 -->
      <defs>
       <path d="M 19.1875 8.296875 
L 53.609375 8.296875 
L 53.609375 0 
L 7.328125 0 
L 7.328125 8.296875 
Q 12.9375 14.109375 22.625 23.890625 
Q 32.328125 33.6875 34.8125 36.53125 
Q 39.546875 41.84375 41.421875 45.53125 
Q 43.3125 49.21875 43.3125 52.78125 
Q 43.3125 58.59375 39.234375 62.25 
Q 35.15625 65.921875 28.609375 65.921875 
Q 23.96875 65.921875 18.8125 64.3125 
Q 13.671875 62.703125 7.8125 59.421875 
L 7.8125 69.390625 
Q 13.765625 71.78125 18.9375 73 
Q 24.125 74.21875 28.421875 74.21875 
Q 39.75 74.21875 46.484375 68.546875 
Q 53.21875 62.890625 53.21875 53.421875 
Q 53.21875 48.921875 51.53125 44.890625 
Q 49.859375 40.875 45.40625 35.40625 
Q 44.1875 33.984375 37.640625 27.21875 
Q 31.109375 20.453125 19.1875 8.296875 
z
" id="DejaVuSans-50"/>
      </defs>
      <g transform="translate(423.467565 347.245637)scale(0.1 -0.1)">
       <use xlink:href="#DejaVuSans-50"/>
       <use x="63.623047" xlink:href="#DejaVuSans-48"/>
       <use x="127.246094" xlink:href="#DejaVuSans-48"/>
      </g>
     </g>
    </g>
   </g>
   <g id="matplotlib.axis_2">
    <g id="ytick_1">
     <g id="line2d_6">
      <defs>
       <path d="M 0 0 
L -3.5 0 
" id="m18fcb08b98" style="stroke:#000000;stroke-width:0.8;"/>
      </defs>
      <g>
       <use style="stroke:#000000;stroke-width:0.8;" x="172.8" xlink:href="#m18fcb08b98" y="320.725584"/>
      </g>
     </g>
     <g id="text_6">
      <!-- −0.2 -->
      <defs>
       <path d="M 10.59375 35.5 
L 73.1875 35.5 
L 73.1875 27.203125 
L 10.59375 27.203125 
z
" id="DejaVuSans-8722"/>
       <path d="M 10.6875 12.40625 
L 21 12.40625 
L 21 0 
L 10.6875 0 
z
" id="DejaVuSans-46"/>
      </defs>
      <g transform="translate(141.517187 324.524803)scale(0.1 -0.1)">
       <use xlink:href="#DejaVuSans-8722"/>
       <use x="83.789062" xlink:href="#DejaVuSans-48"/>
       <use x="147.412109" xlink:href="#DejaVuSans-46"/>
       <use x="179.199219" xlink:href="#DejaVuSans-50"/>
      </g>
     </g>
    </g>
    <g id="ytick_2">
     <g id="line2d_7">
      <g>
       <use style="stroke:#000000;stroke-width:0.8;" x="172.8" xlink:href="#m18fcb08b98" y="279.649237"/>
      </g>
     </g>
     <g id="text_7">
      <!-- 0.0 -->
      <g transform="translate(149.896875 283.448456)scale(0.1 -0.1)">
       <use xlink:href="#DejaVuSans-48"/>
       <use x="63.623047" xlink:href="#DejaVuSans-46"/>
       <use x="95.410156" xlink:href="#DejaVuSans-48"/>
      </g>
     </g>
    </g>
    <g id="ytick_3">
     <g id="line2d_8">
      <g>
       <use style="stroke:#000000;stroke-width:0.8;" x="172.8" xlink:href="#m18fcb08b98" y="238.572889"/>
      </g>
     </g>
     <g id="text_8">
      <!-- 0.2 -->
      <g transform="translate(149.896875 242.372108)scale(0.1 -0.1)">
       <use xlink:href="#DejaVuSans-48"/>
       <use x="63.623047" xlink:href="#DejaVuSans-46"/>
       <use x="95.410156" xlink:href="#DejaVuSans-50"/>
      </g>
     </g>
    </g>
    <g id="ytick_4">
     <g id="line2d_9">
      <g>
       <use style="stroke:#000000;stroke-width:0.8;" x="172.8" xlink:href="#m18fcb08b98" y="197.496542"/>
      </g>
     </g>
     <g id="text_9">
      <!-- 0.4 -->
      <defs>
       <path d="M 37.796875 64.3125 
L 12.890625 25.390625 
L 37.796875 25.390625 
z
M 35.203125 72.90625 
L 47.609375 72.90625 
L 47.609375 25.390625 
L 58.015625 25.390625 
L 58.015625 17.1875 
L 47.609375 17.1875 
L 47.609375 0 
L 37.796875 0 
L 37.796875 17.1875 
L 4.890625 17.1875 
L 4.890625 26.703125 
z
" id="DejaVuSans-52"/>
      </defs>
      <g transform="translate(149.896875 201.295761)scale(0.1 -0.1)">
       <use xlink:href="#DejaVuSans-48"/>
       <use x="63.623047" xlink:href="#DejaVuSans-46"/>
       <use x="95.410156" xlink:href="#DejaVuSans-52"/>
      </g>
     </g>
    </g>
    <g id="ytick_5">
     <g id="line2d_10">
      <g>
       <use style="stroke:#000000;stroke-width:0.8;" x="172.8" xlink:href="#m18fcb08b98" y="156.420194"/>
      </g>
     </g>
     <g id="text_10">
      <!-- 0.6 -->
      <defs>
       <path d="M 33.015625 40.375 
Q 26.375 40.375 22.484375 35.828125 
Q 18.609375 31.296875 18.609375 23.390625 
Q 18.609375 15.53125 22.484375 10.953125 
Q 26.375 6.390625 33.015625 6.390625 
Q 39.65625 6.390625 43.53125 10.953125 
Q 47.40625 15.53125 47.40625 23.390625 
Q 47.40625 31.296875 43.53125 35.828125 
Q 39.65625 40.375 33.015625 40.375 
z
M 52.59375 71.296875 
L 52.59375 62.3125 
Q 48.875 64.0625 45.09375 64.984375 
Q 41.3125 65.921875 37.59375 65.921875 
Q 27.828125 65.921875 22.671875 59.328125 
Q 17.53125 52.734375 16.796875 39.40625 
Q 19.671875 43.65625 24.015625 45.921875 
Q 28.375 48.1875 33.59375 48.1875 
Q 44.578125 48.1875 50.953125 41.515625 
Q 57.328125 34.859375 57.328125 23.390625 
Q 57.328125 12.15625 50.6875 5.359375 
Q 44.046875 -1.421875 33.015625 -1.421875 
Q 20.359375 -1.421875 13.671875 8.265625 
Q 6.984375 17.96875 6.984375 36.375 
Q 6.984375 53.65625 15.1875 63.9375 
Q 23.390625 74.21875 37.203125 74.21875 
Q 40.921875 74.21875 44.703125 73.484375 
Q 48.484375 72.75 52.59375 71.296875 
z
" id="DejaVuSans-54"/>
      </defs>
      <g transform="translate(149.896875 160.219413)scale(0.1 -0.1)">
       <use xlink:href="#DejaVuSans-48"/>
       <use x="63.623047" xlink:href="#DejaVuSans-46"/>
       <use x="95.410156" xlink:href="#DejaVuSans-54"/>
      </g>
     </g>
    </g>
    <g id="ytick_6">
     <g id="line2d_11">
      <g>
       <use style="stroke:#000000;stroke-width:0.8;" x="172.8" xlink:href="#m18fcb08b98" y="115.343847"/>
      </g>
     </g>
     <g id="text_11">
      <!-- 0.8 -->
      <defs>
       <path d="M 31.78125 34.625 
Q 24.75 34.625 20.71875 30.859375 
Q 16.703125 27.09375 16.703125 20.515625 
Q 16.703125 13.921875 20.71875 10.15625 
Q 24.75 6.390625 31.78125 6.390625 
Q 38.8125 6.390625 42.859375 10.171875 
Q 46.921875 13.96875 46.921875 20.515625 
Q 46.921875 27.09375 42.890625 30.859375 
Q 38.875 34.625 31.78125 34.625 
z
M 21.921875 38.8125 
Q 15.578125 40.375 12.03125 44.71875 
Q 8.5 49.078125 8.5 55.328125 
Q 8.5 64.0625 14.71875 69.140625 
Q 20.953125 74.21875 31.78125 74.21875 
Q 42.671875 74.21875 48.875 69.140625 
Q 55.078125 64.0625 55.078125 55.328125 
Q 55.078125 49.078125 51.53125 44.71875 
Q 48 40.375 41.703125 38.8125 
Q 48.828125 37.15625 52.796875 32.3125 
Q 56.78125 27.484375 56.78125 20.515625 
Q 56.78125 9.90625 50.3125 4.234375 
Q 43.84375 -1.421875 31.78125 -1.421875 
Q 19.734375 -1.421875 13.25 4.234375 
Q 6.78125 9.90625 6.78125 20.515625 
Q 6.78125 27.484375 10.78125 32.3125 
Q 14.796875 37.15625 21.921875 38.8125 
z
M 18.3125 54.390625 
Q 18.3125 48.734375 21.84375 45.5625 
Q 25.390625 42.390625 31.78125 42.390625 
Q 38.140625 42.390625 41.71875 45.5625 
Q 45.3125 48.734375 45.3125 54.390625 
Q 45.3125 60.0625 41.71875 63.234375 
Q 38.140625 66.40625 31.78125 66.40625 
Q 25.390625 66.40625 21.84375 63.234375 
Q 18.3125 60.0625 18.3125 54.390625 
z
" id="DejaVuSans-56"/>
      </defs>
      <g transform="translate(149.896875 119.143066)scale(0.1 -0.1)">
       <use xlink:href="#DejaVuSans-48"/>
       <use x="63.623047" xlink:href="#DejaVuSans-46"/>
       <use x="95.410156" xlink:href="#DejaVuSans-56"/>
      </g>
     </g>
    </g>
   </g>
   <g id="line2d_12">
    <path clip-path="url(#pc09c6611c1)" d="M 187.122995 279.649323 
L 189.581878 279.60299 
L 190.811319 279.343556 
L 192.040761 278.847014 
L 194.499644 277.411094 
L 199.417411 274.366634 
L 200.646852 273.285252 
L 203.105735 270.557817 
L 205.564619 267.742585 
L 209.252943 263.778547 
L 210.482385 262.189483 
L 212.941268 258.508892 
L 215.400151 254.793525 
L 219.088476 249.406864 
L 221.547359 245.205472 
L 224.006243 241.019762 
L 226.465126 237.527153 
L 228.924009 234.257127 
L 233.841775 227.359718 
L 236.300659 224.745583 
L 238.759542 222.235545 
L 241.218425 219.550014 
L 242.447867 218.399045 
L 243.677308 217.514574 
L 244.90675 216.889146 
L 248.595075 215.436672 
L 251.053958 214.377822 
L 252.2834 214.048313 
L 253.512841 213.929337 
L 257.201166 213.939645 
L 260.889491 213.508692 
L 262.118932 213.663776 
L 263.348374 214.044714 
L 265.807257 215.039779 
L 268.26614 215.729111 
L 269.495582 216.062591 
L 270.725024 216.540748 
L 273.183907 217.971383 
L 274.413348 218.713598 
L 275.64279 219.312287 
L 279.331115 220.708385 
L 280.560556 221.4575 
L 286.707764 226.15721 
L 287.937206 227.041327 
L 289.166648 228.097948 
L 294.084414 232.916782 
L 297.772739 235.767994 
L 300.231622 238.402411 
L 302.690505 241.120405 
L 306.37883 244.663602 
L 308.837713 247.510502 
L 311.296596 250.262205 
L 313.75548 252.298834 
L 316.214363 254.281285 
L 321.132129 259.079253 
L 324.820454 262.182734 
L 329.73822 267.158616 
L 332.197104 268.976792 
L 334.655987 270.821462 
L 344.49152 279.727229 
L 348.179844 283.628483 
L 350.638728 285.64725 
L 353.097611 287.503414 
L 358.015377 291.64934 
L 360.47426 293.286681 
L 364.162585 295.66566 
L 366.621468 297.191499 
L 367.85091 297.760188 
L 369.080352 298.17222 
L 371.539235 298.634175 
L 377.686443 299.598528 
L 378.915884 299.554071 
L 381.374768 299.103134 
L 383.833651 298.424014 
L 386.292534 297.499355 
L 387.521976 296.826573 
L 388.751417 295.967839 
L 391.2103 293.807245 
L 397.357508 287.78997 
L 399.816392 284.962292 
L 402.275275 281.565771 
L 404.734158 277.736617 
L 407.193041 273.428445 
L 409.651924 268.3674 
L 412.110808 262.629363 
L 417.028574 250.238972 
L 419.487457 243.69925 
L 421.94634 236.622917 
L 425.634665 225.090555 
L 429.32299 212.980448 
L 433.011315 200.094708 
L 439.158523 178.407842 
L 444.076289 161.039494 
L 447.764614 148.054367 
L 450.223497 140.063763 
L 453.911822 129.045851 
L 456.370705 122.371666 
L 458.829588 116.560887 
L 461.288472 111.565961 
L 464.976796 104.906199 
L 467.43568 101.069521 
L 468.665121 99.526301 
L 469.894563 98.280898 
L 471.124004 97.319324 
L 472.353446 96.644494 
L 473.582888 96.191018 
L 473.582888 96.191018 
" style="fill:none;stroke:#ff796c;stroke-linecap:square;stroke-width:1.5;"/>
   </g>
   <g id="line2d_13">
    <path clip-path="url(#pc09c6611c1)" d="M 187.122995 280.911461 
L 192.040761 280.9832 
L 196.958527 281.392785 
L 201.876294 281.988067 
L 210.482385 283.557546 
L 215.400151 284.706724 
L 222.776801 286.569924 
L 226.465126 287.506428 
L 235.071217 289.335703 
L 241.218425 290.296156 
L 244.90675 290.718323 
L 249.824516 290.935835 
L 253.512841 290.997431 
L 262.118932 290.725766 
L 267.036699 290.276662 
L 273.183907 289.609355 
L 279.331115 288.85622 
L 283.01944 288.32005 
L 299.00218 285.507725 
L 316.214363 282.154306 
L 333.426545 279.334721 
L 342.032636 278.105294 
L 348.179844 277.122768 
L 353.097611 276.454311 
L 362.933144 275.312104 
L 369.080352 274.806147 
L 373.998118 274.703694 
L 380.145326 274.759147 
L 385.063092 275.085841 
L 388.751417 275.49608 
L 392.439742 276.134651 
L 398.58695 277.446854 
L 402.275275 278.411429 
L 405.9636 279.572657 
L 409.651924 280.961954 
L 413.340249 282.628218 
L 418.258016 285.125314 
L 421.94634 287.17519 
L 425.634665 289.442473 
L 430.552432 292.721508 
L 435.470198 296.280918 
L 446.535172 304.642734 
L 452.68238 309.260794 
L 457.600147 312.699792 
L 461.288472 315.025748 
L 466.206238 317.862056 
L 469.894563 319.788141 
L 473.582888 321.387382 
L 473.582888 321.387382 
" style="fill:none;stroke:#ffff14;stroke-linecap:square;stroke-width:1.5;"/>
   </g>
   <g id="line2d_14">
    <path clip-path="url(#pc09c6611c1)" d="M 187.122995 280.914418 
L 238.759542 280.806702 
L 262.118932 280.530543 
L 285.478323 280.031857 
L 354.327052 278.37058 
L 367.85091 278.36423 
L 378.915884 278.55855 
L 388.751417 278.934152 
L 397.357508 279.458229 
L 405.9636 280.198726 
L 414.569691 281.18647 
L 421.94634 282.250585 
L 429.32299 283.530103 
L 436.69964 285.035003 
L 444.076289 286.770984 
L 451.452939 288.739261 
L 458.829588 290.937674 
L 466.206238 293.362297 
L 473.582888 296.009409 
L 473.582888 296.009409 
" style="fill:none;stroke:#014d4e;stroke-linecap:square;stroke-width:1.5;"/>
   </g>
   <g id="patch_3">
    <path d="M 172.8 332.6472 
L 172.8 84.9312 
" style="fill:none;stroke:#000000;stroke-linecap:square;stroke-linejoin:miter;stroke-width:0.8;"/>
   </g>
   <g id="patch_4">
    <path d="M 487.905882 332.6472 
L 487.905882 84.9312 
" style="fill:none;stroke:#000000;stroke-linecap:square;stroke-linejoin:miter;stroke-width:0.8;"/>
   </g>
   <g id="patch_5">
    <path d="M 172.8 332.6472 
L 487.905882 332.6472 
" style="fill:none;stroke:#000000;stroke-linecap:square;stroke-linejoin:miter;stroke-width:0.8;"/>
   </g>
   <g id="patch_6">
    <path d="M 172.8 84.9312 
L 487.905882 84.9312 
" style="fill:none;stroke:#000000;stroke-linecap:square;stroke-linejoin:miter;stroke-width:0.8;"/>
   </g>
   <g id="text_12">
    <!-- Lateral joint 0 -->
    <defs>
     <path d="M 9.8125 72.90625 
L 19.671875 72.90625 
L 19.671875 8.296875 
L 55.171875 8.296875 
L 55.171875 0 
L 9.8125 0 
z
" id="DejaVuSans-76"/>
     <path d="M 34.28125 27.484375 
Q 23.390625 27.484375 19.1875 25 
Q 14.984375 22.515625 14.984375 16.5 
Q 14.984375 11.71875 18.140625 8.90625 
Q 21.296875 6.109375 26.703125 6.109375 
Q 34.1875 6.109375 38.703125 11.40625 
Q 43.21875 16.703125 43.21875 25.484375 
L 43.21875 27.484375 
z
M 52.203125 31.203125 
L 52.203125 0 
L 43.21875 0 
L 43.21875 8.296875 
Q 40.140625 3.328125 35.546875 0.953125 
Q 30.953125 -1.421875 24.3125 -1.421875 
Q 15.921875 -1.421875 10.953125 3.296875 
Q 6 8.015625 6 15.921875 
Q 6 25.140625 12.171875 29.828125 
Q 18.359375 34.515625 30.609375 34.515625 
L 43.21875 34.515625 
L 43.21875 35.40625 
Q 43.21875 41.609375 39.140625 45 
Q 35.0625 48.390625 27.6875 48.390625 
Q 23 48.390625 18.546875 47.265625 
Q 14.109375 46.140625 10.015625 43.890625 
L 10.015625 52.203125 
Q 14.9375 54.109375 19.578125 55.046875 
Q 24.21875 56 28.609375 56 
Q 40.484375 56 46.34375 49.84375 
Q 52.203125 43.703125 52.203125 31.203125 
z
" id="DejaVuSans-97"/>
     <path d="M 18.3125 70.21875 
L 18.3125 54.6875 
L 36.8125 54.6875 
L 36.8125 47.703125 
L 18.3125 47.703125 
L 18.3125 18.015625 
Q 18.3125 11.328125 20.140625 9.421875 
Q 21.96875 7.515625 27.59375 7.515625 
L 36.8125 7.515625 
L 36.8125 0 
L 27.59375 0 
Q 17.1875 0 13.234375 3.875 
Q 9.28125 7.765625 9.28125 18.015625 
L 9.28125 47.703125 
L 2.6875 47.703125 
L 2.6875 54.6875 
L 9.28125 54.6875 
L 9.28125 70.21875 
z
" id="DejaVuSans-116"/>
     <path d="M 56.203125 29.59375 
L 56.203125 25.203125 
L 14.890625 25.203125 
Q 15.484375 15.921875 20.484375 11.0625 
Q 25.484375 6.203125 34.421875 6.203125 
Q 39.59375 6.203125 44.453125 7.46875 
Q 49.3125 8.734375 54.109375 11.28125 
L 54.109375 2.78125 
Q 49.265625 0.734375 44.1875 -0.34375 
Q 39.109375 -1.421875 33.890625 -1.421875 
Q 20.796875 -1.421875 13.15625 6.1875 
Q 5.515625 13.8125 5.515625 26.8125 
Q 5.515625 40.234375 12.765625 48.109375 
Q 20.015625 56 32.328125 56 
Q 43.359375 56 49.78125 48.890625 
Q 56.203125 41.796875 56.203125 29.59375 
z
M 47.21875 32.234375 
Q 47.125 39.59375 43.09375 43.984375 
Q 39.0625 48.390625 32.421875 48.390625 
Q 24.90625 48.390625 20.390625 44.140625 
Q 15.875 39.890625 15.1875 32.171875 
z
" id="DejaVuSans-101"/>
     <path d="M 41.109375 46.296875 
Q 39.59375 47.171875 37.8125 47.578125 
Q 36.03125 48 33.890625 48 
Q 26.265625 48 22.1875 43.046875 
Q 18.109375 38.09375 18.109375 28.8125 
L 18.109375 0 
L 9.078125 0 
L 9.078125 54.6875 
L 18.109375 54.6875 
L 18.109375 46.1875 
Q 20.953125 51.171875 25.484375 53.578125 
Q 30.03125 56 36.53125 56 
Q 37.453125 56 38.578125 55.875 
Q 39.703125 55.765625 41.0625 55.515625 
z
" id="DejaVuSans-114"/>
     <path d="M 9.421875 75.984375 
L 18.40625 75.984375 
L 18.40625 0 
L 9.421875 0 
z
" id="DejaVuSans-108"/>
     <path id="DejaVuSans-32"/>
     <path d="M 9.421875 54.6875 
L 18.40625 54.6875 
L 18.40625 -0.984375 
Q 18.40625 -11.421875 14.421875 -16.109375 
Q 10.453125 -20.796875 1.609375 -20.796875 
L -1.8125 -20.796875 
L -1.8125 -13.1875 
L 0.59375 -13.1875 
Q 5.71875 -13.1875 7.5625 -10.8125 
Q 9.421875 -8.453125 9.421875 -0.984375 
z
M 9.421875 75.984375 
L 18.40625 75.984375 
L 18.40625 64.59375 
L 9.421875 64.59375 
z
" id="DejaVuSans-106"/>
     <path d="M 30.609375 48.390625 
Q 23.390625 48.390625 19.1875 42.75 
Q 14.984375 37.109375 14.984375 27.296875 
Q 14.984375 17.484375 19.15625 11.84375 
Q 23.34375 6.203125 30.609375 6.203125 
Q 37.796875 6.203125 41.984375 11.859375 
Q 46.1875 17.53125 46.1875 27.296875 
Q 46.1875 37.015625 41.984375 42.703125 
Q 37.796875 48.390625 30.609375 48.390625 
z
M 30.609375 56 
Q 42.328125 56 49.015625 48.375 
Q 55.71875 40.765625 55.71875 27.296875 
Q 55.71875 13.875 49.015625 6.21875 
Q 42.328125 -1.421875 30.609375 -1.421875 
Q 18.84375 -1.421875 12.171875 6.21875 
Q 5.515625 13.875 5.515625 27.296875 
Q 5.515625 40.765625 12.171875 48.375 
Q 18.84375 56 30.609375 56 
z
" id="DejaVuSans-111"/>
     <path d="M 9.421875 54.6875 
L 18.40625 54.6875 
L 18.40625 0 
L 9.421875 0 
z
M 9.421875 75.984375 
L 18.40625 75.984375 
L 18.40625 64.59375 
L 9.421875 64.59375 
z
" id="DejaVuSans-105"/>
     <path d="M 54.890625 33.015625 
L 54.890625 0 
L 45.90625 0 
L 45.90625 32.71875 
Q 45.90625 40.484375 42.875 44.328125 
Q 39.84375 48.1875 33.796875 48.1875 
Q 26.515625 48.1875 22.3125 43.546875 
Q 18.109375 38.921875 18.109375 30.90625 
L 18.109375 0 
L 9.078125 0 
L 9.078125 54.6875 
L 18.109375 54.6875 
L 18.109375 46.1875 
Q 21.34375 51.125 25.703125 53.5625 
Q 30.078125 56 35.796875 56 
Q 45.21875 56 50.046875 50.171875 
Q 54.890625 44.34375 54.890625 33.015625 
z
" id="DejaVuSans-110"/>
    </defs>
    <g transform="translate(288.687629 78.9312)scale(0.12 -0.12)">
     <use xlink:href="#DejaVuSans-76"/>
     <use x="55.712891" xlink:href="#DejaVuSans-97"/>
     <use x="116.992188" xlink:href="#DejaVuSans-116"/>
     <use x="156.201172" xlink:href="#DejaVuSans-101"/>
     <use x="217.724609" xlink:href="#DejaVuSans-114"/>
     <use x="258.837891" xlink:href="#DejaVuSans-97"/>
     <use x="320.117188" xlink:href="#DejaVuSans-108"/>
     <use x="347.900391" xlink:href="#DejaVuSans-32"/>
     <use x="379.6875" xlink:href="#DejaVuSans-106"/>
     <use x="407.470703" xlink:href="#DejaVuSans-111"/>
     <use x="468.652344" xlink:href="#DejaVuSans-105"/>
     <use x="496.435547" xlink:href="#DejaVuSans-110"/>
     <use x="559.814453" xlink:href="#DejaVuSans-116"/>
     <use x="599.023438" xlink:href="#DejaVuSans-32"/>
     <use x="630.810547" xlink:href="#DejaVuSans-48"/>
    </g>
   </g>
  </g>
  <g id="axes_2">
   <g id="patch_7">
    <path d="M 550.927059 332.6472 
L 866.032941 332.6472 
L 866.032941 84.9312 
L 550.927059 84.9312 
z
" style="fill:#ffffff;"/>
   </g>
   <g id="matplotlib.axis_3">
    <g id="xtick_6">
     <g id="line2d_15">
      <g>
       <use style="stroke:#000000;stroke-width:0.8;" x="565.250053" xlink:href="#mf78ada5ad6" y="332.6472"/>
      </g>
     </g>
     <g id="text_13">
      <!-- 0 -->
      <g transform="translate(562.068803 347.245637)scale(0.1 -0.1)">
       <use xlink:href="#DejaVuSans-48"/>
      </g>
     </g>
    </g>
    <g id="xtick_7">
     <g id="line2d_16">
      <g>
       <use style="stroke:#000000;stroke-width:0.8;" x="626.722134" xlink:href="#mf78ada5ad6" y="332.6472"/>
      </g>
     </g>
     <g id="text_14">
      <!-- 50 -->
      <g transform="translate(620.359634 347.245637)scale(0.1 -0.1)">
       <use xlink:href="#DejaVuSans-53"/>
       <use x="63.623047" xlink:href="#DejaVuSans-48"/>
      </g>
     </g>
    </g>
    <g id="xtick_8">
     <g id="line2d_17">
      <g>
       <use style="stroke:#000000;stroke-width:0.8;" x="688.194214" xlink:href="#mf78ada5ad6" y="332.6472"/>
      </g>
     </g>
     <g id="text_15">
      <!-- 100 -->
      <g transform="translate(678.650464 347.245637)scale(0.1 -0.1)">
       <use xlink:href="#DejaVuSans-49"/>
       <use x="63.623047" xlink:href="#DejaVuSans-48"/>
       <use x="127.246094" xlink:href="#DejaVuSans-48"/>
      </g>
     </g>
    </g>
    <g id="xtick_9">
     <g id="line2d_18">
      <g>
       <use style="stroke:#000000;stroke-width:0.8;" x="749.666294" xlink:href="#mf78ada5ad6" y="332.6472"/>
      </g>
     </g>
     <g id="text_16">
      <!-- 150 -->
      <g transform="translate(740.122544 347.245637)scale(0.1 -0.1)">
       <use xlink:href="#DejaVuSans-49"/>
       <use x="63.623047" xlink:href="#DejaVuSans-53"/>
       <use x="127.246094" xlink:href="#DejaVuSans-48"/>
      </g>
     </g>
    </g>
    <g id="xtick_10">
     <g id="line2d_19">
      <g>
       <use style="stroke:#000000;stroke-width:0.8;" x="811.138374" xlink:href="#mf78ada5ad6" y="332.6472"/>
      </g>
     </g>
     <g id="text_17">
      <!-- 200 -->
      <g transform="translate(801.594624 347.245637)scale(0.1 -0.1)">
       <use xlink:href="#DejaVuSans-50"/>
       <use x="63.623047" xlink:href="#DejaVuSans-48"/>
       <use x="127.246094" xlink:href="#DejaVuSans-48"/>
      </g>
     </g>
    </g>
   </g>
   <g id="matplotlib.axis_4">
    <g id="ytick_7">
     <g id="line2d_20">
      <g>
       <use style="stroke:#000000;stroke-width:0.8;" x="550.927059" xlink:href="#m18fcb08b98" y="331.637289"/>
      </g>
     </g>
     <g id="text_18">
      <!-- −4.0 -->
      <g transform="translate(519.644246 335.436508)scale(0.1 -0.1)">
       <use xlink:href="#DejaVuSans-8722"/>
       <use x="83.789062" xlink:href="#DejaVuSans-52"/>
       <use x="147.412109" xlink:href="#DejaVuSans-46"/>
       <use x="179.199219" xlink:href="#DejaVuSans-48"/>
      </g>
     </g>
    </g>
    <g id="ytick_8">
     <g id="line2d_21">
      <g>
       <use style="stroke:#000000;stroke-width:0.8;" x="550.927059" xlink:href="#m18fcb08b98" y="302.212917"/>
      </g>
     </g>
     <g id="text_19">
      <!-- −3.5 -->
      <defs>
       <path d="M 40.578125 39.3125 
Q 47.65625 37.796875 51.625 33 
Q 55.609375 28.21875 55.609375 21.1875 
Q 55.609375 10.40625 48.1875 4.484375 
Q 40.765625 -1.421875 27.09375 -1.421875 
Q 22.515625 -1.421875 17.65625 -0.515625 
Q 12.796875 0.390625 7.625 2.203125 
L 7.625 11.71875 
Q 11.71875 9.328125 16.59375 8.109375 
Q 21.484375 6.890625 26.8125 6.890625 
Q 36.078125 6.890625 40.9375 10.546875 
Q 45.796875 14.203125 45.796875 21.1875 
Q 45.796875 27.640625 41.28125 31.265625 
Q 36.765625 34.90625 28.71875 34.90625 
L 20.21875 34.90625 
L 20.21875 43.015625 
L 29.109375 43.015625 
Q 36.375 43.015625 40.234375 45.921875 
Q 44.09375 48.828125 44.09375 54.296875 
Q 44.09375 59.90625 40.109375 62.90625 
Q 36.140625 65.921875 28.71875 65.921875 
Q 24.65625 65.921875 20.015625 65.03125 
Q 15.375 64.15625 9.8125 62.3125 
L 9.8125 71.09375 
Q 15.4375 72.65625 20.34375 73.4375 
Q 25.25 74.21875 29.59375 74.21875 
Q 40.828125 74.21875 47.359375 69.109375 
Q 53.90625 64.015625 53.90625 55.328125 
Q 53.90625 49.265625 50.4375 45.09375 
Q 46.96875 40.921875 40.578125 39.3125 
z
" id="DejaVuSans-51"/>
      </defs>
      <g transform="translate(519.644246 306.012136)scale(0.1 -0.1)">
       <use xlink:href="#DejaVuSans-8722"/>
       <use x="83.789062" xlink:href="#DejaVuSans-51"/>
       <use x="147.412109" xlink:href="#DejaVuSans-46"/>
       <use x="179.199219" xlink:href="#DejaVuSans-53"/>
      </g>
     </g>
    </g>
    <g id="ytick_9">
     <g id="line2d_22">
      <g>
       <use style="stroke:#000000;stroke-width:0.8;" x="550.927059" xlink:href="#m18fcb08b98" y="272.788544"/>
      </g>
     </g>
     <g id="text_20">
      <!-- −3.0 -->
      <g transform="translate(519.644246 276.587763)scale(0.1 -0.1)">
       <use xlink:href="#DejaVuSans-8722"/>
       <use x="83.789062" xlink:href="#DejaVuSans-51"/>
       <use x="147.412109" xlink:href="#DejaVuSans-46"/>
       <use x="179.199219" xlink:href="#DejaVuSans-48"/>
      </g>
     </g>
    </g>
    <g id="ytick_10">
     <g id="line2d_23">
      <g>
       <use style="stroke:#000000;stroke-width:0.8;" x="550.927059" xlink:href="#m18fcb08b98" y="243.364172"/>
      </g>
     </g>
     <g id="text_21">
      <!-- −2.5 -->
      <g transform="translate(519.644246 247.16339)scale(0.1 -0.1)">
       <use xlink:href="#DejaVuSans-8722"/>
       <use x="83.789062" xlink:href="#DejaVuSans-50"/>
       <use x="147.412109" xlink:href="#DejaVuSans-46"/>
       <use x="179.199219" xlink:href="#DejaVuSans-53"/>
      </g>
     </g>
    </g>
    <g id="ytick_11">
     <g id="line2d_24">
      <g>
       <use style="stroke:#000000;stroke-width:0.8;" x="550.927059" xlink:href="#m18fcb08b98" y="213.939799"/>
      </g>
     </g>
     <g id="text_22">
      <!-- −2.0 -->
      <g transform="translate(519.644246 217.739018)scale(0.1 -0.1)">
       <use xlink:href="#DejaVuSans-8722"/>
       <use x="83.789062" xlink:href="#DejaVuSans-50"/>
       <use x="147.412109" xlink:href="#DejaVuSans-46"/>
       <use x="179.199219" xlink:href="#DejaVuSans-48"/>
      </g>
     </g>
    </g>
    <g id="ytick_12">
     <g id="line2d_25">
      <g>
       <use style="stroke:#000000;stroke-width:0.8;" x="550.927059" xlink:href="#m18fcb08b98" y="184.515427"/>
      </g>
     </g>
     <g id="text_23">
      <!-- −1.5 -->
      <g transform="translate(519.644246 188.314645)scale(0.1 -0.1)">
       <use xlink:href="#DejaVuSans-8722"/>
       <use x="83.789062" xlink:href="#DejaVuSans-49"/>
       <use x="147.412109" xlink:href="#DejaVuSans-46"/>
       <use x="179.199219" xlink:href="#DejaVuSans-53"/>
      </g>
     </g>
    </g>
    <g id="ytick_13">
     <g id="line2d_26">
      <g>
       <use style="stroke:#000000;stroke-width:0.8;" x="550.927059" xlink:href="#m18fcb08b98" y="155.091054"/>
      </g>
     </g>
     <g id="text_24">
      <!-- −1.0 -->
      <g transform="translate(519.644246 158.890273)scale(0.1 -0.1)">
       <use xlink:href="#DejaVuSans-8722"/>
       <use x="83.789062" xlink:href="#DejaVuSans-49"/>
       <use x="147.412109" xlink:href="#DejaVuSans-46"/>
       <use x="179.199219" xlink:href="#DejaVuSans-48"/>
      </g>
     </g>
    </g>
    <g id="ytick_14">
     <g id="line2d_27">
      <g>
       <use style="stroke:#000000;stroke-width:0.8;" x="550.927059" xlink:href="#m18fcb08b98" y="125.666681"/>
      </g>
     </g>
     <g id="text_25">
      <!-- −0.5 -->
      <g transform="translate(519.644246 129.4659)scale(0.1 -0.1)">
       <use xlink:href="#DejaVuSans-8722"/>
       <use x="83.789062" xlink:href="#DejaVuSans-48"/>
       <use x="147.412109" xlink:href="#DejaVuSans-46"/>
       <use x="179.199219" xlink:href="#DejaVuSans-53"/>
      </g>
     </g>
    </g>
    <g id="ytick_15">
     <g id="line2d_28">
      <g>
       <use style="stroke:#000000;stroke-width:0.8;" x="550.927059" xlink:href="#m18fcb08b98" y="96.242309"/>
      </g>
     </g>
     <g id="text_26">
      <!-- 0.0 -->
      <g transform="translate(528.023934 100.041528)scale(0.1 -0.1)">
       <use xlink:href="#DejaVuSans-48"/>
       <use x="63.623047" xlink:href="#DejaVuSans-46"/>
       <use x="95.410156" xlink:href="#DejaVuSans-48"/>
      </g>
     </g>
    </g>
   </g>
   <g id="line2d_29">
    <path clip-path="url(#p0e3d6b5cb3)" d="M 565.250053 96.242285 
L 577.544469 96.353376 
L 583.691677 96.607044 
L 591.068327 97.001746 
L 603.362743 97.855966 
L 608.28051 98.134106 
L 625.492692 98.664705 
L 639.01655 98.590847 
L 651.310966 99.016904 
L 656.228732 99.450429 
L 659.917057 100.047372 
L 666.064265 101.268901 
L 670.982031 102.652398 
L 674.670356 103.909383 
L 678.358681 105.494822 
L 682.047006 107.227925 
L 685.73533 109.241648 
L 689.423655 111.499405 
L 691.882538 113.152935 
L 695.570863 115.990851 
L 700.48863 120.17836 
L 704.176954 123.695035 
L 707.865279 127.481265 
L 711.553604 131.611665 
L 715.241929 136.144748 
L 718.930254 140.929436 
L 722.618578 146.034232 
L 727.536345 153.198392 
L 731.22467 158.920445 
L 736.142436 166.978398 
L 741.060202 175.415629 
L 748.436852 188.657647 
L 755.813502 202.520082 
L 773.025684 234.784727 
L 777.94345 243.560994 
L 782.861217 251.897513 
L 787.778983 259.769266 
L 792.69675 267.188814 
L 796.385074 272.415245 
L 800.073399 277.262395 
L 803.761724 281.7934 
L 807.450049 286.042519 
L 811.138374 289.995865 
L 816.05614 294.884438 
L 819.744465 298.225253 
L 824.662231 302.319142 
L 829.579998 306.160248 
L 835.727206 310.600078 
L 841.874414 314.780132 
L 851.709947 321.387382 
L 851.709947 321.387382 
" style="fill:none;stroke:#ff796c;stroke-linecap:square;stroke-width:1.5;"/>
   </g>
   <g id="line2d_30">
    <path clip-path="url(#p0e3d6b5cb3)" d="M 565.250053 132.316225 
L 581.232794 132.209275 
L 616.886601 131.782114 
L 634.098783 131.821591 
L 650.081524 131.795995 
L 659.917057 131.592668 
L 668.523148 131.240115 
L 675.899798 130.756138 
L 684.505889 129.962197 
L 691.882538 129.063553 
L 700.48863 127.707531 
L 707.865279 126.314843 
L 715.241929 124.667107 
L 722.618578 122.809281 
L 729.995228 120.766543 
L 739.830761 117.758238 
L 752.125177 113.70627 
L 769.337359 107.99681 
L 776.714009 105.747666 
L 784.090658 103.739065 
L 791.467308 101.993909 
L 797.614516 100.788353 
L 803.761724 99.82516 
L 809.908932 99.088688 
L 816.05614 98.566661 
L 822.203348 98.25457 
L 829.579998 98.097614 
L 838.186089 98.167595 
L 851.709947 98.53589 
L 851.709947 98.53589 
" style="fill:none;stroke:#ffff14;stroke-linecap:square;stroke-width:1.5;"/>
   </g>
   <g id="line2d_31">
    <path clip-path="url(#p0e3d6b5cb3)" d="M 565.250053 132.31542 
L 666.064265 132.204299 
L 743.519086 132.051892 
L 770.566801 132.241018 
L 792.69675 132.620833 
L 812.367815 133.184633 
L 830.809439 133.927539 
L 850.480505 134.944629 
L 851.709947 135.015597 
L 851.709947 135.015597 
" style="fill:none;stroke:#014d4e;stroke-linecap:square;stroke-width:1.5;"/>
   </g>
   <g id="patch_8">
    <path d="M 550.927059 332.6472 
L 550.927059 84.9312 
" style="fill:none;stroke:#000000;stroke-linecap:square;stroke-linejoin:miter;stroke-width:0.8;"/>
   </g>
   <g id="patch_9">
    <path d="M 866.032941 332.6472 
L 866.032941 84.9312 
" style="fill:none;stroke:#000000;stroke-linecap:square;stroke-linejoin:miter;stroke-width:0.8;"/>
   </g>
   <g id="patch_10">
    <path d="M 550.927059 332.6472 
L 866.032941 332.6472 
" style="fill:none;stroke:#000000;stroke-linecap:square;stroke-linejoin:miter;stroke-width:0.8;"/>
   </g>
   <g id="patch_11">
    <path d="M 550.927059 84.9312 
L 866.032941 84.9312 
" style="fill:none;stroke:#000000;stroke-linecap:square;stroke-linejoin:miter;stroke-width:0.8;"/>
   </g>
   <g id="text_27">
    <!-- Lateral joint 1 -->
    <g transform="translate(666.814687 78.9312)scale(0.12 -0.12)">
     <use xlink:href="#DejaVuSans-76"/>
     <use x="55.712891" xlink:href="#DejaVuSans-97"/>
     <use x="116.992188" xlink:href="#DejaVuSans-116"/>
     <use x="156.201172" xlink:href="#DejaVuSans-101"/>
     <use x="217.724609" xlink:href="#DejaVuSans-114"/>
     <use x="258.837891" xlink:href="#DejaVuSans-97"/>
     <use x="320.117188" xlink:href="#DejaVuSans-108"/>
     <use x="347.900391" xlink:href="#DejaVuSans-32"/>
     <use x="379.6875" xlink:href="#DejaVuSans-106"/>
     <use x="407.470703" xlink:href="#DejaVuSans-111"/>
     <use x="468.652344" xlink:href="#DejaVuSans-105"/>
     <use x="496.435547" xlink:href="#DejaVuSans-110"/>
     <use x="559.814453" xlink:href="#DejaVuSans-116"/>
     <use x="599.023438" xlink:href="#DejaVuSans-32"/>
     <use x="630.810547" xlink:href="#DejaVuSans-49"/>
    </g>
   </g>
  </g>
  <g id="axes_3">
   <g id="patch_12">
    <path d="M 929.054118 332.6472 
L 1244.16 332.6472 
L 1244.16 84.9312 
L 929.054118 84.9312 
z
" style="fill:#ffffff;"/>
   </g>
   <g id="matplotlib.axis_5">
    <g id="xtick_11">
     <g id="line2d_32">
      <g>
       <use style="stroke:#000000;stroke-width:0.8;" x="943.377112" xlink:href="#mf78ada5ad6" y="332.6472"/>
      </g>
     </g>
     <g id="text_28">
      <!-- 0 -->
      <g transform="translate(940.195862 347.245637)scale(0.1 -0.1)">
       <use xlink:href="#DejaVuSans-48"/>
      </g>
     </g>
    </g>
    <g id="xtick_12">
     <g id="line2d_33">
      <g>
       <use style="stroke:#000000;stroke-width:0.8;" x="1004.849192" xlink:href="#mf78ada5ad6" y="332.6472"/>
      </g>
     </g>
     <g id="text_29">
      <!-- 50 -->
      <g transform="translate(998.486692 347.245637)scale(0.1 -0.1)">
       <use xlink:href="#DejaVuSans-53"/>
       <use x="63.623047" xlink:href="#DejaVuSans-48"/>
      </g>
     </g>
    </g>
    <g id="xtick_13">
     <g id="line2d_34">
      <g>
       <use style="stroke:#000000;stroke-width:0.8;" x="1066.321272" xlink:href="#mf78ada5ad6" y="332.6472"/>
      </g>
     </g>
     <g id="text_30">
      <!-- 100 -->
      <g transform="translate(1056.777522 347.245637)scale(0.1 -0.1)">
       <use xlink:href="#DejaVuSans-49"/>
       <use x="63.623047" xlink:href="#DejaVuSans-48"/>
       <use x="127.246094" xlink:href="#DejaVuSans-48"/>
      </g>
     </g>
    </g>
    <g id="xtick_14">
     <g id="line2d_35">
      <g>
       <use style="stroke:#000000;stroke-width:0.8;" x="1127.793352" xlink:href="#mf78ada5ad6" y="332.6472"/>
      </g>
     </g>
     <g id="text_31">
      <!-- 150 -->
      <g transform="translate(1118.249602 347.245637)scale(0.1 -0.1)">
       <use xlink:href="#DejaVuSans-49"/>
       <use x="63.623047" xlink:href="#DejaVuSans-53"/>
       <use x="127.246094" xlink:href="#DejaVuSans-48"/>
      </g>
     </g>
    </g>
    <g id="xtick_15">
     <g id="line2d_36">
      <g>
       <use style="stroke:#000000;stroke-width:0.8;" x="1189.265433" xlink:href="#mf78ada5ad6" y="332.6472"/>
      </g>
     </g>
     <g id="text_32">
      <!-- 200 -->
      <g transform="translate(1179.721683 347.245637)scale(0.1 -0.1)">
       <use xlink:href="#DejaVuSans-50"/>
       <use x="63.623047" xlink:href="#DejaVuSans-48"/>
       <use x="127.246094" xlink:href="#DejaVuSans-48"/>
      </g>
     </g>
    </g>
   </g>
   <g id="matplotlib.axis_6">
    <g id="ytick_16">
     <g id="line2d_37">
      <g>
       <use style="stroke:#000000;stroke-width:0.8;" x="929.054118" xlink:href="#m18fcb08b98" y="310.718712"/>
      </g>
     </g>
     <g id="text_33">
      <!-- −8 -->
      <g transform="translate(907.31193 314.517931)scale(0.1 -0.1)">
       <use xlink:href="#DejaVuSans-8722"/>
       <use x="83.789062" xlink:href="#DejaVuSans-56"/>
      </g>
     </g>
    </g>
    <g id="ytick_17">
     <g id="line2d_38">
      <g>
       <use style="stroke:#000000;stroke-width:0.8;" x="929.054118" xlink:href="#m18fcb08b98" y="257.092201"/>
      </g>
     </g>
     <g id="text_34">
      <!-- −6 -->
      <g transform="translate(907.31193 260.89142)scale(0.1 -0.1)">
       <use xlink:href="#DejaVuSans-8722"/>
       <use x="83.789062" xlink:href="#DejaVuSans-54"/>
      </g>
     </g>
    </g>
    <g id="ytick_18">
     <g id="line2d_39">
      <g>
       <use style="stroke:#000000;stroke-width:0.8;" x="929.054118" xlink:href="#m18fcb08b98" y="203.465691"/>
      </g>
     </g>
     <g id="text_35">
      <!-- −4 -->
      <g transform="translate(907.31193 207.264909)scale(0.1 -0.1)">
       <use xlink:href="#DejaVuSans-8722"/>
       <use x="83.789062" xlink:href="#DejaVuSans-52"/>
      </g>
     </g>
    </g>
    <g id="ytick_19">
     <g id="line2d_40">
      <g>
       <use style="stroke:#000000;stroke-width:0.8;" x="929.054118" xlink:href="#m18fcb08b98" y="149.83918"/>
      </g>
     </g>
     <g id="text_36">
      <!-- −2 -->
      <g transform="translate(907.31193 153.638398)scale(0.1 -0.1)">
       <use xlink:href="#DejaVuSans-8722"/>
       <use x="83.789062" xlink:href="#DejaVuSans-50"/>
      </g>
     </g>
    </g>
    <g id="ytick_20">
     <g id="line2d_41">
      <g>
       <use style="stroke:#000000;stroke-width:0.8;" x="929.054118" xlink:href="#m18fcb08b98" y="96.212669"/>
      </g>
     </g>
     <g id="text_37">
      <!-- 0 -->
      <g transform="translate(915.691618 100.011887)scale(0.1 -0.1)">
       <use xlink:href="#DejaVuSans-48"/>
      </g>
     </g>
    </g>
   </g>
   <g id="line2d_42">
    <path clip-path="url(#pa373418aa7)" d="M 943.377112 96.191018 
L 944.606554 96.217985 
L 947.065437 96.629507 
L 949.52432 96.643141 
L 950.753762 96.741271 
L 953.212645 96.578084 
L 954.442087 96.763484 
L 958.130412 96.699516 
L 959.359853 96.614311 
L 960.589295 96.38314 
L 964.27762 96.601131 
L 967.965944 97.194183 
L 969.195386 97.266373 
L 970.424828 97.491973 
L 972.883711 97.585482 
L 974.113152 97.872638 
L 975.342594 98.004945 
L 976.572036 97.912856 
L 979.030919 98.132319 
L 980.26036 97.971221 
L 981.489802 98.138827 
L 982.719244 98.489557 
L 983.948685 98.602324 
L 985.178127 98.872216 
L 986.407568 99.310766 
L 988.866452 99.450447 
L 990.095893 99.783491 
L 991.325335 99.906615 
L 992.554776 99.911218 
L 993.784218 100.203914 
L 995.01366 100.317649 
L 996.243101 100.103271 
L 998.701984 100.135959 
L 999.931426 99.910091 
L 1001.160868 99.969305 
L 1002.390309 100.269569 
L 1004.849192 100.34423 
L 1006.078634 100.626972 
L 1008.537517 100.502854 
L 1009.766959 100.750922 
L 1010.9964 100.8505 
L 1012.225842 100.737209 
L 1013.455284 100.879616 
L 1014.684725 100.906055 
L 1015.914167 100.574147 
L 1017.143608 100.480411 
L 1018.37305 100.555269 
L 1019.602492 100.397838 
L 1020.831933 100.466506 
L 1022.061375 100.824449 
L 1024.520258 100.903938 
L 1025.7497 101.231096 
L 1028.208583 101.389983 
L 1030.667466 102.108462 
L 1031.896908 102.099927 
L 1034.355791 102.485388 
L 1035.585232 102.335908 
L 1036.814674 102.433444 
L 1038.044116 102.827275 
L 1040.502999 103.210669 
L 1041.73244 103.728358 
L 1044.191324 104.096655 
L 1046.650207 105.024192 
L 1047.879648 105.267893 
L 1050.338532 106.281082 
L 1051.567973 106.346647 
L 1052.797415 106.612339 
L 1054.026856 106.999012 
L 1055.256298 107.118096 
L 1056.48574 107.489549 
L 1057.715181 108.165355 
L 1060.174064 108.922883 
L 1061.403506 109.614089 
L 1063.862389 110.49719 
L 1065.091831 111.371815 
L 1066.321272 112.109272 
L 1067.550714 112.624216 
L 1068.780156 113.437016 
L 1070.009597 114.103847 
L 1071.239039 114.443837 
L 1072.46848 115.150045 
L 1073.697922 115.991347 
L 1074.927364 116.577573 
L 1076.156805 117.491406 
L 1077.386247 118.574184 
L 1078.615688 119.273151 
L 1079.84513 120.213249 
L 1081.074572 121.372893 
L 1082.304013 122.27356 
L 1083.533455 123.422535 
L 1084.762896 124.851668 
L 1087.22178 127.002167 
L 1088.451221 128.313698 
L 1090.910104 130.271215 
L 1092.139546 131.674977 
L 1094.598429 133.996922 
L 1095.827871 135.519836 
L 1098.286754 137.876584 
L 1099.516196 139.443966 
L 1101.975079 142.149629 
L 1103.20452 143.938027 
L 1108.122287 149.934056 
L 1109.351728 151.266127 
L 1110.58117 153.049736 
L 1113.040053 156.082091 
L 1114.269495 158.003423 
L 1116.728378 161.124082 
L 1117.95782 163.078688 
L 1120.416703 166.419115 
L 1121.646144 168.545044 
L 1124.105028 172.151419 
L 1125.334469 174.293232 
L 1126.563911 175.957613 
L 1127.793352 177.876408 
L 1129.022794 180.001962 
L 1130.252236 181.709156 
L 1132.711119 186.011192 
L 1133.94056 187.805728 
L 1136.399444 192.202005 
L 1137.628885 194.037281 
L 1140.087768 198.503631 
L 1141.31721 200.4535 
L 1142.546652 202.898755 
L 1145.005535 206.964678 
L 1146.234976 209.383218 
L 1147.464418 211.212972 
L 1149.923301 215.729014 
L 1151.152743 217.626964 
L 1152.382184 220.06076 
L 1154.841068 224.11005 
L 1156.070509 226.596843 
L 1158.529392 230.6332 
L 1159.758834 233.130398 
L 1160.988276 234.969085 
L 1163.447159 239.51388 
L 1164.6766 241.212415 
L 1167.135484 245.693973 
L 1168.364925 247.42674 
L 1169.594367 249.860417 
L 1172.05325 253.648035 
L 1173.282692 256.073741 
L 1175.741575 259.794297 
L 1176.971017 262.182691 
L 1178.200458 263.832879 
L 1180.659341 268.215715 
L 1181.888783 269.782766 
L 1184.347666 273.98891 
L 1185.577108 275.363116 
L 1186.806549 277.648369 
L 1188.035991 279.359548 
L 1189.265433 280.831703 
L 1190.494874 283.136569 
L 1192.953757 286.20295 
L 1194.183199 288.361654 
L 1195.412641 289.570429 
L 1196.642082 291.176685 
L 1197.871524 293.164988 
L 1199.100965 294.199469 
L 1201.559849 297.70428 
L 1202.78929 298.628194 
L 1204.018732 300.373059 
L 1205.248173 301.780737 
L 1206.477615 302.43345 
L 1207.707057 304.213101 
L 1208.936498 305.523441 
L 1210.16594 306.140071 
L 1211.395381 307.989135 
L 1212.624823 309.022652 
L 1213.854265 309.724372 
L 1215.083706 311.488633 
L 1217.542589 312.936483 
L 1218.772031 314.539502 
L 1220.001473 314.957018 
L 1221.230914 315.758896 
L 1222.460356 317.180898 
L 1223.689797 317.372797 
L 1224.919239 318.246287 
L 1226.148681 319.476485 
L 1227.378122 319.427616 
L 1229.837005 321.387382 
L 1229.837005 321.387382 
" style="fill:none;stroke:#ff796c;stroke-linecap:square;stroke-width:1.5;"/>
   </g>
   <g id="line2d_43">
    <path clip-path="url(#pa373418aa7)" d="M 943.377112 122.911725 
L 1133.94056 123.020355 
L 1188.035991 123.310126 
L 1229.837005 123.586957 
L 1229.837005 123.586957 
" style="fill:none;stroke:#ffff14;stroke-linecap:square;stroke-width:1.5;"/>
   </g>
   <g id="line2d_44">
    <path clip-path="url(#pa373418aa7)" d="M 943.377112 122.911702 
L 1190.494874 123.019416 
L 1229.837005 123.233128 
L 1229.837005 123.233128 
" style="fill:none;stroke:#014d4e;stroke-linecap:square;stroke-width:1.5;"/>
   </g>
   <g id="patch_13">
    <path d="M 929.054118 332.6472 
L 929.054118 84.9312 
" style="fill:none;stroke:#000000;stroke-linecap:square;stroke-linejoin:miter;stroke-width:0.8;"/>
   </g>
   <g id="patch_14">
    <path d="M 1244.16 332.6472 
L 1244.16 84.9312 
" style="fill:none;stroke:#000000;stroke-linecap:square;stroke-linejoin:miter;stroke-width:0.8;"/>
   </g>
   <g id="patch_15">
    <path d="M 929.054118 332.6472 
L 1244.16 332.6472 
" style="fill:none;stroke:#000000;stroke-linecap:square;stroke-linejoin:miter;stroke-width:0.8;"/>
   </g>
   <g id="patch_16">
    <path d="M 929.054118 84.9312 
L 1244.16 84.9312 
" style="fill:none;stroke:#000000;stroke-linecap:square;stroke-linejoin:miter;stroke-width:0.8;"/>
   </g>
   <g id="text_38">
    <!-- Lateral joint 2 -->
    <g transform="translate(1044.941746 78.9312)scale(0.12 -0.12)">
     <use xlink:href="#DejaVuSans-76"/>
     <use x="55.712891" xlink:href="#DejaVuSans-97"/>
     <use x="116.992188" xlink:href="#DejaVuSans-116"/>
     <use x="156.201172" xlink:href="#DejaVuSans-101"/>
     <use x="217.724609" xlink:href="#DejaVuSans-114"/>
     <use x="258.837891" xlink:href="#DejaVuSans-97"/>
     <use x="320.117188" xlink:href="#DejaVuSans-108"/>
     <use x="347.900391" xlink:href="#DejaVuSans-32"/>
     <use x="379.6875" xlink:href="#DejaVuSans-106"/>
     <use x="407.470703" xlink:href="#DejaVuSans-111"/>
     <use x="468.652344" xlink:href="#DejaVuSans-105"/>
     <use x="496.435547" xlink:href="#DejaVuSans-110"/>
     <use x="559.814453" xlink:href="#DejaVuSans-116"/>
     <use x="599.023438" xlink:href="#DejaVuSans-32"/>
     <use x="630.810547" xlink:href="#DejaVuSans-50"/>
    </g>
   </g>
  </g>
  <g id="axes_4">
   <g id="patch_17">
    <path d="M 172.8 629.9064 
L 487.905882 629.9064 
L 487.905882 382.1904 
L 172.8 382.1904 
z
" style="fill:#ffffff;"/>
   </g>
   <g id="matplotlib.axis_7">
    <g id="xtick_16">
     <g id="line2d_45">
      <g>
       <use style="stroke:#000000;stroke-width:0.8;" x="187.122995" xlink:href="#mf78ada5ad6" y="629.9064"/>
      </g>
     </g>
     <g id="text_39">
      <!-- 0 -->
      <g transform="translate(183.941745 644.504838)scale(0.1 -0.1)">
       <use xlink:href="#DejaVuSans-48"/>
      </g>
     </g>
    </g>
    <g id="xtick_17">
     <g id="line2d_46">
      <g>
       <use style="stroke:#000000;stroke-width:0.8;" x="248.595075" xlink:href="#mf78ada5ad6" y="629.9064"/>
      </g>
     </g>
     <g id="text_40">
      <!-- 50 -->
      <g transform="translate(242.232575 644.504838)scale(0.1 -0.1)">
       <use xlink:href="#DejaVuSans-53"/>
       <use x="63.623047" xlink:href="#DejaVuSans-48"/>
      </g>
     </g>
    </g>
    <g id="xtick_18">
     <g id="line2d_47">
      <g>
       <use style="stroke:#000000;stroke-width:0.8;" x="310.067155" xlink:href="#mf78ada5ad6" y="629.9064"/>
      </g>
     </g>
     <g id="text_41">
      <!-- 100 -->
      <g transform="translate(300.523405 644.504838)scale(0.1 -0.1)">
       <use xlink:href="#DejaVuSans-49"/>
       <use x="63.623047" xlink:href="#DejaVuSans-48"/>
       <use x="127.246094" xlink:href="#DejaVuSans-48"/>
      </g>
     </g>
    </g>
    <g id="xtick_19">
     <g id="line2d_48">
      <g>
       <use style="stroke:#000000;stroke-width:0.8;" x="371.539235" xlink:href="#mf78ada5ad6" y="629.9064"/>
      </g>
     </g>
     <g id="text_42">
      <!-- 150 -->
      <g transform="translate(361.995485 644.504838)scale(0.1 -0.1)">
       <use xlink:href="#DejaVuSans-49"/>
       <use x="63.623047" xlink:href="#DejaVuSans-53"/>
       <use x="127.246094" xlink:href="#DejaVuSans-48"/>
      </g>
     </g>
    </g>
    <g id="xtick_20">
     <g id="line2d_49">
      <g>
       <use style="stroke:#000000;stroke-width:0.8;" x="433.011315" xlink:href="#mf78ada5ad6" y="629.9064"/>
      </g>
     </g>
     <g id="text_43">
      <!-- 200 -->
      <g transform="translate(423.467565 644.504838)scale(0.1 -0.1)">
       <use xlink:href="#DejaVuSans-50"/>
       <use x="63.623047" xlink:href="#DejaVuSans-48"/>
       <use x="127.246094" xlink:href="#DejaVuSans-48"/>
      </g>
     </g>
    </g>
   </g>
   <g id="matplotlib.axis_8">
    <g id="ytick_21">
     <g id="line2d_50">
      <g>
       <use style="stroke:#000000;stroke-width:0.8;" x="172.8" xlink:href="#m18fcb08b98" y="595.827791"/>
      </g>
     </g>
     <g id="text_44">
      <!-- −8 -->
      <g transform="translate(151.057812 599.62701)scale(0.1 -0.1)">
       <use xlink:href="#DejaVuSans-8722"/>
       <use x="83.789062" xlink:href="#DejaVuSans-56"/>
      </g>
     </g>
    </g>
    <g id="ytick_22">
     <g id="line2d_51">
      <g>
       <use style="stroke:#000000;stroke-width:0.8;" x="172.8" xlink:href="#m18fcb08b98" y="545.420198"/>
      </g>
     </g>
     <g id="text_45">
      <!-- −6 -->
      <g transform="translate(151.057812 549.219417)scale(0.1 -0.1)">
       <use xlink:href="#DejaVuSans-8722"/>
       <use x="83.789062" xlink:href="#DejaVuSans-54"/>
      </g>
     </g>
    </g>
    <g id="ytick_23">
     <g id="line2d_52">
      <g>
       <use style="stroke:#000000;stroke-width:0.8;" x="172.8" xlink:href="#m18fcb08b98" y="495.012605"/>
      </g>
     </g>
     <g id="text_46">
      <!-- −4 -->
      <g transform="translate(151.057812 498.811824)scale(0.1 -0.1)">
       <use xlink:href="#DejaVuSans-8722"/>
       <use x="83.789062" xlink:href="#DejaVuSans-52"/>
      </g>
     </g>
    </g>
    <g id="ytick_24">
     <g id="line2d_53">
      <g>
       <use style="stroke:#000000;stroke-width:0.8;" x="172.8" xlink:href="#m18fcb08b98" y="444.605013"/>
      </g>
     </g>
     <g id="text_47">
      <!-- −2 -->
      <g transform="translate(151.057812 448.404231)scale(0.1 -0.1)">
       <use xlink:href="#DejaVuSans-8722"/>
       <use x="83.789062" xlink:href="#DejaVuSans-50"/>
      </g>
     </g>
    </g>
    <g id="ytick_25">
     <g id="line2d_54">
      <g>
       <use style="stroke:#000000;stroke-width:0.8;" x="172.8" xlink:href="#m18fcb08b98" y="394.19742"/>
      </g>
     </g>
     <g id="text_48">
      <!-- 0 -->
      <g transform="translate(159.4375 397.996639)scale(0.1 -0.1)">
       <use xlink:href="#DejaVuSans-48"/>
      </g>
     </g>
    </g>
   </g>
   <g id="line2d_55">
    <path clip-path="url(#p929f704e5a)" d="M 187.122995 394.148465 
L 188.352436 394.314534 
L 190.811319 395.017509 
L 192.040761 395.114212 
L 194.499644 394.981281 
L 195.729086 394.770989 
L 196.958527 394.676132 
L 199.417411 394.816252 
L 201.876294 394.524141 
L 205.564619 393.450218 
L 206.79406 393.469982 
L 208.023502 393.608268 
L 210.482385 394.246538 
L 211.711827 394.304323 
L 215.400151 394.14869 
L 216.629593 394.188662 
L 219.088476 394.556287 
L 221.547359 394.329096 
L 224.006243 393.755323 
L 225.235684 393.76564 
L 227.694567 394.420228 
L 230.153451 395.298048 
L 236.300659 395.859012 
L 237.5301 396.155863 
L 238.759542 396.245025 
L 242.447867 395.397085 
L 243.677308 395.09122 
L 244.90675 395.132424 
L 247.365633 395.722931 
L 249.824516 396.13721 
L 252.2834 396.009864 
L 257.201166 396.684945 
L 258.430608 396.602427 
L 260.889491 395.850113 
L 263.348374 395.665444 
L 264.577816 395.920345 
L 265.807257 396.405334 
L 267.036699 396.698103 
L 269.495582 397.142306 
L 271.954465 397.616723 
L 274.413348 398.741578 
L 276.872232 399.20891 
L 278.101673 399.241914 
L 279.331115 399.071227 
L 280.560556 399.135726 
L 283.01944 399.956168 
L 286.707764 401.379692 
L 287.937206 401.62455 
L 290.396089 402.687688 
L 291.625531 403.258237 
L 292.854972 403.961839 
L 294.084414 404.471153 
L 299.00218 404.962126 
L 300.231622 405.392334 
L 301.461064 406.081237 
L 305.149388 407.628392 
L 307.608272 408.616696 
L 310.067155 410.409633 
L 312.526038 411.897703 
L 313.75548 412.420739 
L 314.984921 412.702252 
L 316.214363 413.213252 
L 318.673246 414.645891 
L 322.361571 417.442322 
L 323.591012 418.342856 
L 326.049896 420.478551 
L 327.279337 421.793885 
L 328.508779 423.307519 
L 330.967662 425.757206 
L 332.197104 426.912538 
L 334.655987 428.778403 
L 344.49152 438.897147 
L 345.720961 440.353224 
L 348.179844 443.690365 
L 351.868169 447.959108 
L 353.097611 449.226163 
L 360.47426 458.670392 
L 365.392027 465.614834 
L 367.85091 469.361134 
L 369.080352 471.355741 
L 371.539235 474.821117 
L 375.22756 480.539838 
L 378.915884 486.837401 
L 386.292534 499.489426 
L 389.980859 506.045451 
L 391.2103 507.942873 
L 393.669184 512.160305 
L 394.898625 514.149537 
L 397.357508 518.685449 
L 398.58695 520.817605 
L 399.816392 523.193097 
L 402.275275 527.311416 
L 403.504716 529.594202 
L 404.734158 531.557424 
L 410.881366 542.400481 
L 412.110808 544.245432 
L 413.340249 546.432106 
L 415.799132 550.323229 
L 417.028574 552.645124 
L 419.487457 556.835704 
L 420.716899 559.214062 
L 423.175782 563.282185 
L 424.405224 565.472656 
L 425.634665 567.286886 
L 428.093548 571.560717 
L 429.32299 573.340005 
L 430.552432 575.581946 
L 434.240756 581.207454 
L 436.69964 584.467792 
L 437.929081 586.480012 
L 439.158523 588.035619 
L 441.617406 591.757673 
L 442.846848 593.139365 
L 445.305731 596.404535 
L 446.535172 597.524392 
L 448.994056 600.482984 
L 450.223497 601.51909 
L 451.452939 603.161493 
L 452.68238 604.518717 
L 453.911822 605.439224 
L 455.141264 606.928524 
L 456.370705 607.929564 
L 457.600147 608.733412 
L 458.829588 610.114504 
L 461.288472 611.850545 
L 462.517913 613.158719 
L 464.976796 614.478366 
L 466.206238 615.407307 
L 467.43568 615.626005 
L 468.665121 616.19287 
L 469.894563 616.979941 
L 471.124004 617.145846 
L 473.582888 618.646582 
L 473.582888 618.646582 
" style="fill:none;stroke:#ff796c;stroke-linecap:square;stroke-width:1.5;"/>
   </g>
   <g id="line2d_56">
    <path clip-path="url(#p929f704e5a)" d="M 187.122995 419.29337 
L 332.197104 419.189319 
L 372.768676 418.96683 
L 410.881366 418.590748 
L 469.894563 418.122897 
L 473.582888 418.127766 
L 473.582888 418.127766 
" style="fill:none;stroke:#ffff14;stroke-linecap:square;stroke-width:1.5;"/>
   </g>
   <g id="line2d_57">
    <path clip-path="url(#p929f704e5a)" d="M 187.122995 419.293268 
L 473.582888 419.285192 
L 473.582888 419.285192 
" style="fill:none;stroke:#014d4e;stroke-linecap:square;stroke-width:1.5;"/>
   </g>
   <g id="patch_18">
    <path d="M 172.8 629.9064 
L 172.8 382.1904 
" style="fill:none;stroke:#000000;stroke-linecap:square;stroke-linejoin:miter;stroke-width:0.8;"/>
   </g>
   <g id="patch_19">
    <path d="M 487.905882 629.9064 
L 487.905882 382.1904 
" style="fill:none;stroke:#000000;stroke-linecap:square;stroke-linejoin:miter;stroke-width:0.8;"/>
   </g>
   <g id="patch_20">
    <path d="M 172.8 629.9064 
L 487.905882 629.9064 
" style="fill:none;stroke:#000000;stroke-linecap:square;stroke-linejoin:miter;stroke-width:0.8;"/>
   </g>
   <g id="patch_21">
    <path d="M 172.8 382.1904 
L 487.905882 382.1904 
" style="fill:none;stroke:#000000;stroke-linecap:square;stroke-linejoin:miter;stroke-width:0.8;"/>
   </g>
   <g id="text_49">
    <!-- Lateral joint 3 -->
    <g transform="translate(288.687629 376.1904)scale(0.12 -0.12)">
     <use xlink:href="#DejaVuSans-76"/>
     <use x="55.712891" xlink:href="#DejaVuSans-97"/>
     <use x="116.992188" xlink:href="#DejaVuSans-116"/>
     <use x="156.201172" xlink:href="#DejaVuSans-101"/>
     <use x="217.724609" xlink:href="#DejaVuSans-114"/>
     <use x="258.837891" xlink:href="#DejaVuSans-97"/>
     <use x="320.117188" xlink:href="#DejaVuSans-108"/>
     <use x="347.900391" xlink:href="#DejaVuSans-32"/>
     <use x="379.6875" xlink:href="#DejaVuSans-106"/>
     <use x="407.470703" xlink:href="#DejaVuSans-111"/>
     <use x="468.652344" xlink:href="#DejaVuSans-105"/>
     <use x="496.435547" xlink:href="#DejaVuSans-110"/>
     <use x="559.814453" xlink:href="#DejaVuSans-116"/>
     <use x="599.023438" xlink:href="#DejaVuSans-32"/>
     <use x="630.810547" xlink:href="#DejaVuSans-51"/>
    </g>
   </g>
  </g>
  <g id="axes_5">
   <g id="patch_22">
    <path d="M 550.927059 629.9064 
L 866.032941 629.9064 
L 866.032941 382.1904 
L 550.927059 382.1904 
z
" style="fill:#ffffff;"/>
   </g>
   <g id="matplotlib.axis_9">
    <g id="xtick_21">
     <g id="line2d_58">
      <g>
       <use style="stroke:#000000;stroke-width:0.8;" x="565.250053" xlink:href="#mf78ada5ad6" y="629.9064"/>
      </g>
     </g>
     <g id="text_50">
      <!-- 0 -->
      <g transform="translate(562.068803 644.504838)scale(0.1 -0.1)">
       <use xlink:href="#DejaVuSans-48"/>
      </g>
     </g>
    </g>
    <g id="xtick_22">
     <g id="line2d_59">
      <g>
       <use style="stroke:#000000;stroke-width:0.8;" x="626.722134" xlink:href="#mf78ada5ad6" y="629.9064"/>
      </g>
     </g>
     <g id="text_51">
      <!-- 50 -->
      <g transform="translate(620.359634 644.504838)scale(0.1 -0.1)">
       <use xlink:href="#DejaVuSans-53"/>
       <use x="63.623047" xlink:href="#DejaVuSans-48"/>
      </g>
     </g>
    </g>
    <g id="xtick_23">
     <g id="line2d_60">
      <g>
       <use style="stroke:#000000;stroke-width:0.8;" x="688.194214" xlink:href="#mf78ada5ad6" y="629.9064"/>
      </g>
     </g>
     <g id="text_52">
      <!-- 100 -->
      <g transform="translate(678.650464 644.504838)scale(0.1 -0.1)">
       <use xlink:href="#DejaVuSans-49"/>
       <use x="63.623047" xlink:href="#DejaVuSans-48"/>
       <use x="127.246094" xlink:href="#DejaVuSans-48"/>
      </g>
     </g>
    </g>
    <g id="xtick_24">
     <g id="line2d_61">
      <g>
       <use style="stroke:#000000;stroke-width:0.8;" x="749.666294" xlink:href="#mf78ada5ad6" y="629.9064"/>
      </g>
     </g>
     <g id="text_53">
      <!-- 150 -->
      <g transform="translate(740.122544 644.504838)scale(0.1 -0.1)">
       <use xlink:href="#DejaVuSans-49"/>
       <use x="63.623047" xlink:href="#DejaVuSans-53"/>
       <use x="127.246094" xlink:href="#DejaVuSans-48"/>
      </g>
     </g>
    </g>
    <g id="xtick_25">
     <g id="line2d_62">
      <g>
       <use style="stroke:#000000;stroke-width:0.8;" x="811.138374" xlink:href="#mf78ada5ad6" y="629.9064"/>
      </g>
     </g>
     <g id="text_54">
      <!-- 200 -->
      <g transform="translate(801.594624 644.504838)scale(0.1 -0.1)">
       <use xlink:href="#DejaVuSans-50"/>
       <use x="63.623047" xlink:href="#DejaVuSans-48"/>
       <use x="127.246094" xlink:href="#DejaVuSans-48"/>
      </g>
     </g>
    </g>
   </g>
   <g id="matplotlib.axis_10">
    <g id="ytick_26">
     <g id="line2d_63">
      <g>
       <use style="stroke:#000000;stroke-width:0.8;" x="550.927059" xlink:href="#m18fcb08b98" y="614.853261"/>
      </g>
     </g>
     <g id="text_55">
      <!-- −5 -->
      <g transform="translate(529.184871 618.65248)scale(0.1 -0.1)">
       <use xlink:href="#DejaVuSans-8722"/>
       <use x="83.789062" xlink:href="#DejaVuSans-53"/>
      </g>
     </g>
    </g>
    <g id="ytick_27">
     <g id="line2d_64">
      <g>
       <use style="stroke:#000000;stroke-width:0.8;" x="550.927059" xlink:href="#m18fcb08b98" y="570.967872"/>
      </g>
     </g>
     <g id="text_56">
      <!-- −4 -->
      <g transform="translate(529.184871 574.767091)scale(0.1 -0.1)">
       <use xlink:href="#DejaVuSans-8722"/>
       <use x="83.789062" xlink:href="#DejaVuSans-52"/>
      </g>
     </g>
    </g>
    <g id="ytick_28">
     <g id="line2d_65">
      <g>
       <use style="stroke:#000000;stroke-width:0.8;" x="550.927059" xlink:href="#m18fcb08b98" y="527.082483"/>
      </g>
     </g>
     <g id="text_57">
      <!-- −3 -->
      <g transform="translate(529.184871 530.881702)scale(0.1 -0.1)">
       <use xlink:href="#DejaVuSans-8722"/>
       <use x="83.789062" xlink:href="#DejaVuSans-51"/>
      </g>
     </g>
    </g>
    <g id="ytick_29">
     <g id="line2d_66">
      <g>
       <use style="stroke:#000000;stroke-width:0.8;" x="550.927059" xlink:href="#m18fcb08b98" y="483.197094"/>
      </g>
     </g>
     <g id="text_58">
      <!-- −2 -->
      <g transform="translate(529.184871 486.996313)scale(0.1 -0.1)">
       <use xlink:href="#DejaVuSans-8722"/>
       <use x="83.789062" xlink:href="#DejaVuSans-50"/>
      </g>
     </g>
    </g>
    <g id="ytick_30">
     <g id="line2d_67">
      <g>
       <use style="stroke:#000000;stroke-width:0.8;" x="550.927059" xlink:href="#m18fcb08b98" y="439.311705"/>
      </g>
     </g>
     <g id="text_59">
      <!-- −1 -->
      <g transform="translate(529.184871 443.110924)scale(0.1 -0.1)">
       <use xlink:href="#DejaVuSans-8722"/>
       <use x="83.789062" xlink:href="#DejaVuSans-49"/>
      </g>
     </g>
    </g>
    <g id="ytick_31">
     <g id="line2d_68">
      <g>
       <use style="stroke:#000000;stroke-width:0.8;" x="550.927059" xlink:href="#m18fcb08b98" y="395.426316"/>
      </g>
     </g>
     <g id="text_60">
      <!-- 0 -->
      <g transform="translate(537.564559 399.225535)scale(0.1 -0.1)">
       <use xlink:href="#DejaVuSans-48"/>
      </g>
     </g>
    </g>
   </g>
   <g id="line2d_69">
    <path clip-path="url(#p5fd15c9e15)" d="M 565.250053 395.314082 
L 566.479495 395.762254 
L 567.708937 396.517806 
L 568.938378 397.13515 
L 570.16782 397.203042 
L 571.397261 396.739332 
L 573.856145 395.375234 
L 575.085586 395.22186 
L 576.315028 395.610256 
L 577.544469 396.136354 
L 578.773911 396.411409 
L 580.003353 396.22276 
L 581.232794 395.516852 
L 582.462236 394.613635 
L 583.691677 394.044369 
L 584.921119 394.036551 
L 586.150561 394.487229 
L 587.380002 395.128184 
L 588.609444 395.527677 
L 589.838885 395.356573 
L 592.297769 394.096514 
L 593.52721 393.702584 
L 594.756652 393.832989 
L 597.215535 395.021887 
L 598.444977 395.202229 
L 599.674418 394.915925 
L 602.133302 393.593787 
L 603.362743 393.450218 
L 604.592185 393.921162 
L 607.051068 395.436394 
L 608.28051 395.786975 
L 609.509951 395.527565 
L 610.739393 394.978786 
L 611.968834 394.636149 
L 613.198276 394.701835 
L 614.427718 395.211345 
L 615.657159 395.95723 
L 616.886601 396.395885 
L 618.116042 396.216018 
L 621.804367 394.460922 
L 623.033809 394.647151 
L 625.492692 395.984017 
L 626.722134 396.284561 
L 627.951575 396.114764 
L 630.410458 395.001149 
L 631.6399 394.987056 
L 632.869342 395.443053 
L 634.098783 396.088714 
L 635.328225 396.607958 
L 636.557666 396.602657 
L 639.01655 395.378771 
L 640.245991 395.069396 
L 641.475433 395.262102 
L 642.704874 395.971679 
L 643.934316 396.831272 
L 645.163758 397.286742 
L 646.393199 397.239247 
L 648.852082 396.751362 
L 650.081524 396.980542 
L 651.310966 397.81591 
L 652.540407 398.850275 
L 653.769849 399.58774 
L 654.99929 399.862934 
L 656.228732 399.689736 
L 657.458174 399.354042 
L 658.687615 399.417129 
L 659.917057 400.084066 
L 662.37594 402.005262 
L 663.605382 402.606254 
L 664.834823 402.642793 
L 666.064265 402.432348 
L 667.293706 402.511944 
L 668.523148 403.051995 
L 669.75259 403.981172 
L 670.982031 405.063118 
L 672.211473 405.79076 
L 673.440914 405.910436 
L 675.899798 405.652298 
L 677.129239 405.919808 
L 678.358681 406.733099 
L 679.588122 407.841545 
L 680.817564 408.689957 
L 682.047006 409.08887 
L 683.276447 409.165612 
L 684.505889 409.123843 
L 685.73533 409.398861 
L 686.964772 410.257634 
L 689.423655 412.464279 
L 690.653097 413.243941 
L 691.882538 413.578174 
L 693.11198 413.659798 
L 694.341422 414.027897 
L 695.570863 414.87215 
L 696.800305 416.05739 
L 698.029746 417.437276 
L 699.259188 418.629136 
L 700.48863 419.330887 
L 702.947513 420.439296 
L 704.176954 421.325868 
L 705.406396 422.696147 
L 707.865279 425.877128 
L 709.094721 427.063225 
L 710.324162 427.973842 
L 711.553604 428.679359 
L 712.783046 429.585115 
L 714.012487 430.957552 
L 717.700812 435.768086 
L 718.930254 436.842335 
L 721.389137 438.505675 
L 722.618578 439.582158 
L 723.84802 441.013819 
L 726.306903 444.53253 
L 727.536345 445.997467 
L 728.765786 447.275511 
L 731.22467 449.435516 
L 732.454111 450.967245 
L 734.912994 454.689227 
L 736.142436 456.661545 
L 737.371878 458.252834 
L 742.289644 463.371099 
L 745.977969 469.244244 
L 747.20741 471.160858 
L 750.895735 475.953971 
L 752.125177 477.792217 
L 754.58406 482.520029 
L 757.042943 487.060814 
L 758.272385 488.954347 
L 760.731268 492.233746 
L 761.96071 494.037083 
L 763.190151 496.068258 
L 766.878476 503.182109 
L 768.107918 505.386097 
L 770.566801 509.126481 
L 773.025684 513.173139 
L 776.714009 520.562916 
L 777.94345 522.893841 
L 780.402334 526.475757 
L 782.861217 530.073523 
L 784.090658 532.229494 
L 787.778983 539.541575 
L 789.008425 541.778071 
L 793.926191 549.406609 
L 798.843958 558.930396 
L 802.532282 564.579061 
L 803.761724 566.267291 
L 806.220607 570.755266 
L 807.450049 573.04643 
L 808.67949 575.665384 
L 809.908932 577.875989 
L 812.367815 581.538702 
L 814.826698 584.451893 
L 820.973906 593.856862 
L 822.203348 595.334134 
L 823.43279 596.629473 
L 824.662231 597.572288 
L 827.121115 600.469653 
L 828.350556 601.95649 
L 829.579998 603.958555 
L 830.809439 605.652025 
L 833.268323 607.961405 
L 834.497764 608.589199 
L 835.727206 609.027744 
L 839.415531 611.859433 
L 840.644972 613.2493 
L 841.874414 614.070891 
L 844.333297 615.326176 
L 845.562739 615.337064 
L 846.79218 615.648532 
L 848.021622 616.2995 
L 849.251063 616.756277 
L 851.709947 618.646582 
L 851.709947 618.646582 
" style="fill:none;stroke:#ff796c;stroke-linecap:square;stroke-width:1.5;"/>
   </g>
   <g id="line2d_70">
    <path clip-path="url(#p5fd15c9e15)" d="M 565.250053 422.437679 
L 589.838885 422.545251 
L 608.28051 422.647742 
L 624.26325 422.700511 
L 657.458174 422.663464 
L 684.505889 422.567772 
L 744.748527 422.88043 
L 802.532282 423.80323 
L 841.874414 424.505052 
L 851.709947 424.537764 
L 851.709947 424.537764 
" style="fill:none;stroke:#ffff14;stroke-linecap:square;stroke-width:1.5;"/>
   </g>
   <g id="line2d_71">
    <path clip-path="url(#p5fd15c9e15)" d="M 565.250053 422.4378 
L 851.709947 422.380381 
L 851.709947 422.380381 
" style="fill:none;stroke:#014d4e;stroke-linecap:square;stroke-width:1.5;"/>
   </g>
   <g id="patch_23">
    <path d="M 550.927059 629.9064 
L 550.927059 382.1904 
" style="fill:none;stroke:#000000;stroke-linecap:square;stroke-linejoin:miter;stroke-width:0.8;"/>
   </g>
   <g id="patch_24">
    <path d="M 866.032941 629.9064 
L 866.032941 382.1904 
" style="fill:none;stroke:#000000;stroke-linecap:square;stroke-linejoin:miter;stroke-width:0.8;"/>
   </g>
   <g id="patch_25">
    <path d="M 550.927059 629.9064 
L 866.032941 629.9064 
" style="fill:none;stroke:#000000;stroke-linecap:square;stroke-linejoin:miter;stroke-width:0.8;"/>
   </g>
   <g id="patch_26">
    <path d="M 550.927059 382.1904 
L 866.032941 382.1904 
" style="fill:none;stroke:#000000;stroke-linecap:square;stroke-linejoin:miter;stroke-width:0.8;"/>
   </g>
   <g id="text_61">
    <!-- Lateral joint 4 -->
    <g transform="translate(666.814687 376.1904)scale(0.12 -0.12)">
     <use xlink:href="#DejaVuSans-76"/>
     <use x="55.712891" xlink:href="#DejaVuSans-97"/>
     <use x="116.992188" xlink:href="#DejaVuSans-116"/>
     <use x="156.201172" xlink:href="#DejaVuSans-101"/>
     <use x="217.724609" xlink:href="#DejaVuSans-114"/>
     <use x="258.837891" xlink:href="#DejaVuSans-97"/>
     <use x="320.117188" xlink:href="#DejaVuSans-108"/>
     <use x="347.900391" xlink:href="#DejaVuSans-32"/>
     <use x="379.6875" xlink:href="#DejaVuSans-106"/>
     <use x="407.470703" xlink:href="#DejaVuSans-111"/>
     <use x="468.652344" xlink:href="#DejaVuSans-105"/>
     <use x="496.435547" xlink:href="#DejaVuSans-110"/>
     <use x="559.814453" xlink:href="#DejaVuSans-116"/>
     <use x="599.023438" xlink:href="#DejaVuSans-32"/>
     <use x="630.810547" xlink:href="#DejaVuSans-52"/>
    </g>
   </g>
  </g>
  <g id="axes_6">
   <g id="patch_27">
    <path d="M 929.054118 629.9064 
L 1244.16 629.9064 
L 1244.16 382.1904 
L 929.054118 382.1904 
z
" style="fill:#ffffff;"/>
   </g>
   <g id="matplotlib.axis_11">
    <g id="xtick_26">
     <g id="line2d_72">
      <g>
       <use style="stroke:#000000;stroke-width:0.8;" x="929.054118" xlink:href="#mf78ada5ad6" y="629.9064"/>
      </g>
     </g>
     <g id="text_62">
      <!-- 0.0 -->
      <g transform="translate(921.102555 644.504838)scale(0.1 -0.1)">
       <use xlink:href="#DejaVuSans-48"/>
       <use x="63.623047" xlink:href="#DejaVuSans-46"/>
       <use x="95.410156" xlink:href="#DejaVuSans-48"/>
      </g>
     </g>
    </g>
    <g id="xtick_27">
     <g id="line2d_73">
      <g>
       <use style="stroke:#000000;stroke-width:0.8;" x="992.075294" xlink:href="#mf78ada5ad6" y="629.9064"/>
      </g>
     </g>
     <g id="text_63">
      <!-- 0.2 -->
      <g transform="translate(984.123732 644.504838)scale(0.1 -0.1)">
       <use xlink:href="#DejaVuSans-48"/>
       <use x="63.623047" xlink:href="#DejaVuSans-46"/>
       <use x="95.410156" xlink:href="#DejaVuSans-50"/>
      </g>
     </g>
    </g>
    <g id="xtick_28">
     <g id="line2d_74">
      <g>
       <use style="stroke:#000000;stroke-width:0.8;" x="1055.096471" xlink:href="#mf78ada5ad6" y="629.9064"/>
      </g>
     </g>
     <g id="text_64">
      <!-- 0.4 -->
      <g transform="translate(1047.144908 644.504838)scale(0.1 -0.1)">
       <use xlink:href="#DejaVuSans-48"/>
       <use x="63.623047" xlink:href="#DejaVuSans-46"/>
       <use x="95.410156" xlink:href="#DejaVuSans-52"/>
      </g>
     </g>
    </g>
    <g id="xtick_29">
     <g id="line2d_75">
      <g>
       <use style="stroke:#000000;stroke-width:0.8;" x="1118.117647" xlink:href="#mf78ada5ad6" y="629.9064"/>
      </g>
     </g>
     <g id="text_65">
      <!-- 0.6 -->
      <g transform="translate(1110.166085 644.504838)scale(0.1 -0.1)">
       <use xlink:href="#DejaVuSans-48"/>
       <use x="63.623047" xlink:href="#DejaVuSans-46"/>
       <use x="95.410156" xlink:href="#DejaVuSans-54"/>
      </g>
     </g>
    </g>
    <g id="xtick_30">
     <g id="line2d_76">
      <g>
       <use style="stroke:#000000;stroke-width:0.8;" x="1181.138824" xlink:href="#mf78ada5ad6" y="629.9064"/>
      </g>
     </g>
     <g id="text_66">
      <!-- 0.8 -->
      <g transform="translate(1173.187261 644.504838)scale(0.1 -0.1)">
       <use xlink:href="#DejaVuSans-48"/>
       <use x="63.623047" xlink:href="#DejaVuSans-46"/>
       <use x="95.410156" xlink:href="#DejaVuSans-56"/>
      </g>
     </g>
    </g>
    <g id="xtick_31">
     <g id="line2d_77">
      <g>
       <use style="stroke:#000000;stroke-width:0.8;" x="1244.16" xlink:href="#mf78ada5ad6" y="629.9064"/>
      </g>
     </g>
     <g id="text_67">
      <!-- 1.0 -->
      <g transform="translate(1236.208438 644.504838)scale(0.1 -0.1)">
       <use xlink:href="#DejaVuSans-49"/>
       <use x="63.623047" xlink:href="#DejaVuSans-46"/>
       <use x="95.410156" xlink:href="#DejaVuSans-48"/>
      </g>
     </g>
    </g>
   </g>
   <g id="matplotlib.axis_12">
    <g id="ytick_32">
     <g id="line2d_78">
      <g>
       <use style="stroke:#000000;stroke-width:0.8;" x="929.054118" xlink:href="#m18fcb08b98" y="629.9064"/>
      </g>
     </g>
     <g id="text_68">
      <!-- 0.0 -->
      <g transform="translate(906.150993 633.705619)scale(0.1 -0.1)">
       <use xlink:href="#DejaVuSans-48"/>
       <use x="63.623047" xlink:href="#DejaVuSans-46"/>
       <use x="95.410156" xlink:href="#DejaVuSans-48"/>
      </g>
     </g>
    </g>
    <g id="ytick_33">
     <g id="line2d_79">
      <g>
       <use style="stroke:#000000;stroke-width:0.8;" x="929.054118" xlink:href="#m18fcb08b98" y="580.3632"/>
      </g>
     </g>
     <g id="text_69">
      <!-- 0.2 -->
      <g transform="translate(906.150993 584.162419)scale(0.1 -0.1)">
       <use xlink:href="#DejaVuSans-48"/>
       <use x="63.623047" xlink:href="#DejaVuSans-46"/>
       <use x="95.410156" xlink:href="#DejaVuSans-50"/>
      </g>
     </g>
    </g>
    <g id="ytick_34">
     <g id="line2d_80">
      <g>
       <use style="stroke:#000000;stroke-width:0.8;" x="929.054118" xlink:href="#m18fcb08b98" y="530.82"/>
      </g>
     </g>
     <g id="text_70">
      <!-- 0.4 -->
      <g transform="translate(906.150993 534.619219)scale(0.1 -0.1)">
       <use xlink:href="#DejaVuSans-48"/>
       <use x="63.623047" xlink:href="#DejaVuSans-46"/>
       <use x="95.410156" xlink:href="#DejaVuSans-52"/>
      </g>
     </g>
    </g>
    <g id="ytick_35">
     <g id="line2d_81">
      <g>
       <use style="stroke:#000000;stroke-width:0.8;" x="929.054118" xlink:href="#m18fcb08b98" y="481.2768"/>
      </g>
     </g>
     <g id="text_71">
      <!-- 0.6 -->
      <g transform="translate(906.150993 485.076019)scale(0.1 -0.1)">
       <use xlink:href="#DejaVuSans-48"/>
       <use x="63.623047" xlink:href="#DejaVuSans-46"/>
       <use x="95.410156" xlink:href="#DejaVuSans-54"/>
      </g>
     </g>
    </g>
    <g id="ytick_36">
     <g id="line2d_82">
      <g>
       <use style="stroke:#000000;stroke-width:0.8;" x="929.054118" xlink:href="#m18fcb08b98" y="431.7336"/>
      </g>
     </g>
     <g id="text_72">
      <!-- 0.8 -->
      <g transform="translate(906.150993 435.532819)scale(0.1 -0.1)">
       <use xlink:href="#DejaVuSans-48"/>
       <use x="63.623047" xlink:href="#DejaVuSans-46"/>
       <use x="95.410156" xlink:href="#DejaVuSans-56"/>
      </g>
     </g>
    </g>
    <g id="ytick_37">
     <g id="line2d_83">
      <g>
       <use style="stroke:#000000;stroke-width:0.8;" x="929.054118" xlink:href="#m18fcb08b98" y="382.1904"/>
      </g>
     </g>
     <g id="text_73">
      <!-- 1.0 -->
      <g transform="translate(906.150993 385.989619)scale(0.1 -0.1)">
       <use xlink:href="#DejaVuSans-49"/>
       <use x="63.623047" xlink:href="#DejaVuSans-46"/>
       <use x="95.410156" xlink:href="#DejaVuSans-48"/>
      </g>
     </g>
    </g>
   </g>
   <g id="patch_28">
    <path d="M 929.054118 629.9064 
L 929.054118 382.1904 
" style="fill:none;stroke:#000000;stroke-linecap:square;stroke-linejoin:miter;stroke-width:0.8;"/>
   </g>
   <g id="patch_29">
    <path d="M 1244.16 629.9064 
L 1244.16 382.1904 
" style="fill:none;stroke:#000000;stroke-linecap:square;stroke-linejoin:miter;stroke-width:0.8;"/>
   </g>
   <g id="patch_30">
    <path d="M 929.054118 629.9064 
L 1244.16 629.9064 
" style="fill:none;stroke:#000000;stroke-linecap:square;stroke-linejoin:miter;stroke-width:0.8;"/>
   </g>
   <g id="patch_31">
    <path d="M 929.054118 382.1904 
L 1244.16 382.1904 
" style="fill:none;stroke:#000000;stroke-linecap:square;stroke-linejoin:miter;stroke-width:0.8;"/>
   </g>
  </g>
  <g id="legend_1">
   <g id="patch_32">
    <path d="M 1308.251562 377.53625 
L 1375.4 377.53625 
Q 1377.4 377.53625 1377.4 375.53625 
L 1377.4 332.22375 
Q 1377.4 330.22375 1375.4 330.22375 
L 1308.251562 330.22375 
Q 1306.251562 330.22375 1306.251562 332.22375 
L 1306.251562 375.53625 
Q 1306.251562 377.53625 1308.251562 377.53625 
z
" style="fill:#ffffff;opacity:0.8;stroke:#cccccc;stroke-linejoin:miter;"/>
   </g>
   <g id="line2d_84">
    <path d="M 1310.251562 338.322187 
L 1330.251562 338.322187 
" style="fill:none;stroke:#ff796c;stroke-linecap:square;stroke-width:1.5;"/>
   </g>
   <g id="line2d_85"/>
   <g id="text_74">
    <!-- Torque -->
    <defs>
     <path d="M -0.296875 72.90625 
L 61.375 72.90625 
L 61.375 64.59375 
L 35.5 64.59375 
L 35.5 0 
L 25.59375 0 
L 25.59375 64.59375 
L -0.296875 64.59375 
z
" id="DejaVuSans-84"/>
     <path d="M 14.796875 27.296875 
Q 14.796875 17.390625 18.875 11.75 
Q 22.953125 6.109375 30.078125 6.109375 
Q 37.203125 6.109375 41.296875 11.75 
Q 45.40625 17.390625 45.40625 27.296875 
Q 45.40625 37.203125 41.296875 42.84375 
Q 37.203125 48.484375 30.078125 48.484375 
Q 22.953125 48.484375 18.875 42.84375 
Q 14.796875 37.203125 14.796875 27.296875 
z
M 45.40625 8.203125 
Q 42.578125 3.328125 38.25 0.953125 
Q 33.9375 -1.421875 27.875 -1.421875 
Q 17.96875 -1.421875 11.734375 6.484375 
Q 5.515625 14.40625 5.515625 27.296875 
Q 5.515625 40.1875 11.734375 48.09375 
Q 17.96875 56 27.875 56 
Q 33.9375 56 38.25 53.625 
Q 42.578125 51.265625 45.40625 46.390625 
L 45.40625 54.6875 
L 54.390625 54.6875 
L 54.390625 -20.796875 
L 45.40625 -20.796875 
z
" id="DejaVuSans-113"/>
     <path d="M 8.5 21.578125 
L 8.5 54.6875 
L 17.484375 54.6875 
L 17.484375 21.921875 
Q 17.484375 14.15625 20.5 10.265625 
Q 23.53125 6.390625 29.59375 6.390625 
Q 36.859375 6.390625 41.078125 11.03125 
Q 45.3125 15.671875 45.3125 23.6875 
L 45.3125 54.6875 
L 54.296875 54.6875 
L 54.296875 0 
L 45.3125 0 
L 45.3125 8.40625 
Q 42.046875 3.421875 37.71875 1 
Q 33.40625 -1.421875 27.6875 -1.421875 
Q 18.265625 -1.421875 13.375 4.4375 
Q 8.5 10.296875 8.5 21.578125 
z
M 31.109375 56 
z
" id="DejaVuSans-117"/>
    </defs>
    <g transform="translate(1338.251562 341.822187)scale(0.1 -0.1)">
     <use xlink:href="#DejaVuSans-84"/>
     <use x="60.818359" xlink:href="#DejaVuSans-111"/>
     <use x="122" xlink:href="#DejaVuSans-114"/>
     <use x="163.097656" xlink:href="#DejaVuSans-113"/>
     <use x="226.574219" xlink:href="#DejaVuSans-117"/>
     <use x="289.953125" xlink:href="#DejaVuSans-101"/>
    </g>
   </g>
   <g id="line2d_86">
    <path d="M 1310.251562 353.000313 
L 1330.251562 353.000313 
" style="fill:none;stroke:#ffff14;stroke-linecap:square;stroke-width:1.5;"/>
   </g>
   <g id="line2d_87"/>
   <g id="text_75">
    <!-- q -->
    <g transform="translate(1338.251562 356.500313)scale(0.1 -0.1)">
     <use xlink:href="#DejaVuSans-113"/>
    </g>
   </g>
   <g id="line2d_88">
    <path d="M 1310.251562 367.678437 
L 1330.251562 367.678437 
" style="fill:none;stroke:#014d4e;stroke-linecap:square;stroke-width:1.5;"/>
   </g>
   <g id="line2d_89"/>
   <g id="text_76">
    <!-- q_des -->
    <defs>
     <path d="M 50.984375 -16.609375 
L 50.984375 -23.578125 
L -0.984375 -23.578125 
L -0.984375 -16.609375 
z
" id="DejaVuSans-95"/>
     <path d="M 45.40625 46.390625 
L 45.40625 75.984375 
L 54.390625 75.984375 
L 54.390625 0 
L 45.40625 0 
L 45.40625 8.203125 
Q 42.578125 3.328125 38.25 0.953125 
Q 33.9375 -1.421875 27.875 -1.421875 
Q 17.96875 -1.421875 11.734375 6.484375 
Q 5.515625 14.40625 5.515625 27.296875 
Q 5.515625 40.1875 11.734375 48.09375 
Q 17.96875 56 27.875 56 
Q 33.9375 56 38.25 53.625 
Q 42.578125 51.265625 45.40625 46.390625 
z
M 14.796875 27.296875 
Q 14.796875 17.390625 18.875 11.75 
Q 22.953125 6.109375 30.078125 6.109375 
Q 37.203125 6.109375 41.296875 11.75 
Q 45.40625 17.390625 45.40625 27.296875 
Q 45.40625 37.203125 41.296875 42.84375 
Q 37.203125 48.484375 30.078125 48.484375 
Q 22.953125 48.484375 18.875 42.84375 
Q 14.796875 37.203125 14.796875 27.296875 
z
" id="DejaVuSans-100"/>
     <path d="M 44.28125 53.078125 
L 44.28125 44.578125 
Q 40.484375 46.53125 36.375 47.5 
Q 32.28125 48.484375 27.875 48.484375 
Q 21.1875 48.484375 17.84375 46.4375 
Q 14.5 44.390625 14.5 40.28125 
Q 14.5 37.15625 16.890625 35.375 
Q 19.28125 33.59375 26.515625 31.984375 
L 29.59375 31.296875 
Q 39.15625 29.25 43.1875 25.515625 
Q 47.21875 21.78125 47.21875 15.09375 
Q 47.21875 7.46875 41.1875 3.015625 
Q 35.15625 -1.421875 24.609375 -1.421875 
Q 20.21875 -1.421875 15.453125 -0.5625 
Q 10.6875 0.296875 5.421875 2 
L 5.421875 11.28125 
Q 10.40625 8.6875 15.234375 7.390625 
Q 20.0625 6.109375 24.8125 6.109375 
Q 31.15625 6.109375 34.5625 8.28125 
Q 37.984375 10.453125 37.984375 14.40625 
Q 37.984375 18.0625 35.515625 20.015625 
Q 33.0625 21.96875 24.703125 23.78125 
L 21.578125 24.515625 
Q 13.234375 26.265625 9.515625 29.90625 
Q 5.8125 33.546875 5.8125 39.890625 
Q 5.8125 47.609375 11.28125 51.796875 
Q 16.75 56 26.8125 56 
Q 31.78125 56 36.171875 55.265625 
Q 40.578125 54.546875 44.28125 53.078125 
z
" id="DejaVuSans-115"/>
    </defs>
    <g transform="translate(1338.251562 371.178437)scale(0.1 -0.1)">
     <use xlink:href="#DejaVuSans-113"/>
     <use x="63.476562" xlink:href="#DejaVuSans-95"/>
     <use x="113.476562" xlink:href="#DejaVuSans-100"/>
     <use x="176.953125" xlink:href="#DejaVuSans-101"/>
     <use x="238.476562" xlink:href="#DejaVuSans-115"/>
    </g>
   </g>
  </g>
 </g>
 <defs>
  <clipPath id="pc09c6611c1">
   <rect height="247.716" width="315.105882" x="172.8" y="84.9312"/>
  </clipPath>
  <clipPath id="p0e3d6b5cb3">
   <rect height="247.716" width="315.105882" x="550.927059" y="84.9312"/>
  </clipPath>
  <clipPath id="pa373418aa7">
   <rect height="247.716" width="315.105882" x="929.054118" y="84.9312"/>
  </clipPath>
  <clipPath id="p929f704e5a">
   <rect height="247.716" width="315.105882" x="172.8" y="382.1904"/>
  </clipPath>
  <clipPath id="p5fd15c9e15">
   <rect height="247.716" width="315.105882" x="550.927059" y="382.1904"/>
  </clipPath>
 </defs>
</svg>
