<?xml version="1.0" encoding="utf-8" standalone="no"?>
<!DOCTYPE svg PUBLIC "-//W3C//DTD SVG 1.1//EN"
  "http://www.w3.org/Graphics/SVG/1.1/DTD/svg11.dtd">
<!-- Created with matplotlib (https://matplotlib.org/) -->
<svg height="707.76pt" version="1.1" viewBox="0 0 1382.4 707.76" width="1382.4pt" xmlns="http://www.w3.org/2000/svg" xmlns:xlink="http://www.w3.org/1999/xlink">
 <defs>
  <style type="text/css">
*{stroke-linecap:butt;stroke-linejoin:round;}
  </style>
 </defs>
 <g id="figure_1">
  <g id="patch_1">
   <path d="M 0 707.76 
L 1382.4 707.76 
L 1382.4 0 
L 0 0 
z
" style="fill:#ffffff;"/>
  </g>
  <g id="axes_1">
   <g id="patch_2">
    <path d="M 172.8 332.6472 
L 487.905882 332.6472 
L 487.905882 84.9312 
L 172.8 84.9312 
z
" style="fill:#ffffff;"/>
   </g>
   <g id="matplotlib.axis_1">
    <g id="xtick_1">
     <g id="line2d_1">
      <defs>
       <path d="M 0 0 
L 0 3.5 
" id="mc34b9d191f" style="stroke:#000000;stroke-width:0.8;"/>
      </defs>
      <g>
       <use style="stroke:#000000;stroke-width:0.8;" x="187.122995" xlink:href="#mc34b9d191f" y="332.6472"/>
      </g>
     </g>
     <g id="text_1">
      <!-- 0 -->
      <defs>
       <path d="M 31.78125 66.40625 
Q 24.171875 66.40625 20.328125 58.90625 
Q 16.5 51.421875 16.5 36.375 
Q 16.5 21.390625 20.328125 13.890625 
Q 24.171875 6.390625 31.78125 6.390625 
Q 39.453125 6.390625 43.28125 13.890625 
Q 47.125 21.390625 47.125 36.375 
Q 47.125 51.421875 43.28125 58.90625 
Q 39.453125 66.40625 31.78125 66.40625 
z
M 31.78125 74.21875 
Q 44.046875 74.21875 50.515625 64.515625 
Q 56.984375 54.828125 56.984375 36.375 
Q 56.984375 17.96875 50.515625 8.265625 
Q 44.046875 -1.421875 31.78125 -1.421875 
Q 19.53125 -1.421875 13.0625 8.265625 
Q 6.59375 17.96875 6.59375 36.375 
Q 6.59375 54.828125 13.0625 64.515625 
Q 19.53125 74.21875 31.78125 74.21875 
z
" id="DejaVuSans-48"/>
      </defs>
      <g transform="translate(183.941745 347.245637)scale(0.1 -0.1)">
       <use xlink:href="#DejaVuSans-48"/>
      </g>
     </g>
    </g>
    <g id="xtick_2">
     <g id="line2d_2">
      <g>
       <use style="stroke:#000000;stroke-width:0.8;" x="248.595075" xlink:href="#mc34b9d191f" y="332.6472"/>
      </g>
     </g>
     <g id="text_2">
      <!-- 50 -->
      <defs>
       <path d="M 10.796875 72.90625 
L 49.515625 72.90625 
L 49.515625 64.59375 
L 19.828125 64.59375 
L 19.828125 46.734375 
Q 21.96875 47.46875 24.109375 47.828125 
Q 26.265625 48.1875 28.421875 48.1875 
Q 40.625 48.1875 47.75 41.5 
Q 54.890625 34.8125 54.890625 23.390625 
Q 54.890625 11.625 47.5625 5.09375 
Q 40.234375 -1.421875 26.90625 -1.421875 
Q 22.3125 -1.421875 17.546875 -0.640625 
Q 12.796875 0.140625 7.71875 1.703125 
L 7.71875 11.625 
Q 12.109375 9.234375 16.796875 8.0625 
Q 21.484375 6.890625 26.703125 6.890625 
Q 35.15625 6.890625 40.078125 11.328125 
Q 45.015625 15.765625 45.015625 23.390625 
Q 45.015625 31 40.078125 35.4375 
Q 35.15625 39.890625 26.703125 39.890625 
Q 22.75 39.890625 18.8125 39.015625 
Q 14.890625 38.140625 10.796875 36.28125 
z
" id="DejaVuSans-53"/>
      </defs>
      <g transform="translate(242.232575 347.245637)scale(0.1 -0.1)">
       <use xlink:href="#DejaVuSans-53"/>
       <use x="63.623047" xlink:href="#DejaVuSans-48"/>
      </g>
     </g>
    </g>
    <g id="xtick_3">
     <g id="line2d_3">
      <g>
       <use style="stroke:#000000;stroke-width:0.8;" x="310.067155" xlink:href="#mc34b9d191f" y="332.6472"/>
      </g>
     </g>
     <g id="text_3">
      <!-- 100 -->
      <defs>
       <path d="M 12.40625 8.296875 
L 28.515625 8.296875 
L 28.515625 63.921875 
L 10.984375 60.40625 
L 10.984375 69.390625 
L 28.421875 72.90625 
L 38.28125 72.90625 
L 38.28125 8.296875 
L 54.390625 8.296875 
L 54.390625 0 
L 12.40625 0 
z
" id="DejaVuSans-49"/>
      </defs>
      <g transform="translate(300.523405 347.245637)scale(0.1 -0.1)">
       <use xlink:href="#DejaVuSans-49"/>
       <use x="63.623047" xlink:href="#DejaVuSans-48"/>
       <use x="127.246094" xlink:href="#DejaVuSans-48"/>
      </g>
     </g>
    </g>
    <g id="xtick_4">
     <g id="line2d_4">
      <g>
       <use style="stroke:#000000;stroke-width:0.8;" x="371.539235" xlink:href="#mc34b9d191f" y="332.6472"/>
      </g>
     </g>
     <g id="text_4">
      <!-- 150 -->
      <g transform="translate(361.995485 347.245637)scale(0.1 -0.1)">
       <use xlink:href="#DejaVuSans-49"/>
       <use x="63.623047" xlink:href="#DejaVuSans-53"/>
       <use x="127.246094" xlink:href="#DejaVuSans-48"/>
      </g>
     </g>
    </g>
    <g id="xtick_5">
     <g id="line2d_5">
      <g>
       <use style="stroke:#000000;stroke-width:0.8;" x="433.011315" xlink:href="#mc34b9d191f" y="332.6472"/>
      </g>
     </g>
     <g id="text_5">
      <!-- 200 -->
      <defs>
       <path d="M 19.1875 8.296875 
L 53.609375 8.296875 
L 53.609375 0 
L 7.328125 0 
L 7.328125 8.296875 
Q 12.9375 14.109375 22.625 23.890625 
Q 32.328125 33.6875 34.8125 36.53125 
Q 39.546875 41.84375 41.421875 45.53125 
Q 43.3125 49.21875 43.3125 52.78125 
Q 43.3125 58.59375 39.234375 62.25 
Q 35.15625 65.921875 28.609375 65.921875 
Q 23.96875 65.921875 18.8125 64.3125 
Q 13.671875 62.703125 7.8125 59.421875 
L 7.8125 69.390625 
Q 13.765625 71.78125 18.9375 73 
Q 24.125 74.21875 28.421875 74.21875 
Q 39.75 74.21875 46.484375 68.546875 
Q 53.21875 62.890625 53.21875 53.421875 
Q 53.21875 48.921875 51.53125 44.890625 
Q 49.859375 40.875 45.40625 35.40625 
Q 44.1875 33.984375 37.640625 27.21875 
Q 31.109375 20.453125 19.1875 8.296875 
z
" id="DejaVuSans-50"/>
      </defs>
      <g transform="translate(423.467565 347.245637)scale(0.1 -0.1)">
       <use xlink:href="#DejaVuSans-50"/>
       <use x="63.623047" xlink:href="#DejaVuSans-48"/>
       <use x="127.246094" xlink:href="#DejaVuSans-48"/>
      </g>
     </g>
    </g>
   </g>
   <g id="matplotlib.axis_2">
    <g id="ytick_1">
     <g id="line2d_6">
      <defs>
       <path d="M 0 0 
L -3.5 0 
" id="m90e558e5a5" style="stroke:#000000;stroke-width:0.8;"/>
      </defs>
      <g>
       <use style="stroke:#000000;stroke-width:0.8;" x="172.8" xlink:href="#m90e558e5a5" y="306.480183"/>
      </g>
     </g>
     <g id="text_6">
      <!-- 0 -->
      <g transform="translate(159.4375 310.279402)scale(0.1 -0.1)">
       <use xlink:href="#DejaVuSans-48"/>
      </g>
     </g>
    </g>
    <g id="ytick_2">
     <g id="line2d_7">
      <g>
       <use style="stroke:#000000;stroke-width:0.8;" x="172.8" xlink:href="#m90e558e5a5" y="270.288878"/>
      </g>
     </g>
     <g id="text_7">
      <!-- 1 -->
      <g transform="translate(159.4375 274.088097)scale(0.1 -0.1)">
       <use xlink:href="#DejaVuSans-49"/>
      </g>
     </g>
    </g>
    <g id="ytick_3">
     <g id="line2d_8">
      <g>
       <use style="stroke:#000000;stroke-width:0.8;" x="172.8" xlink:href="#m90e558e5a5" y="234.097573"/>
      </g>
     </g>
     <g id="text_8">
      <!-- 2 -->
      <g transform="translate(159.4375 237.896792)scale(0.1 -0.1)">
       <use xlink:href="#DejaVuSans-50"/>
      </g>
     </g>
    </g>
    <g id="ytick_4">
     <g id="line2d_9">
      <g>
       <use style="stroke:#000000;stroke-width:0.8;" x="172.8" xlink:href="#m90e558e5a5" y="197.906268"/>
      </g>
     </g>
     <g id="text_9">
      <!-- 3 -->
      <defs>
       <path d="M 40.578125 39.3125 
Q 47.65625 37.796875 51.625 33 
Q 55.609375 28.21875 55.609375 21.1875 
Q 55.609375 10.40625 48.1875 4.484375 
Q 40.765625 -1.421875 27.09375 -1.421875 
Q 22.515625 -1.421875 17.65625 -0.515625 
Q 12.796875 0.390625 7.625 2.203125 
L 7.625 11.71875 
Q 11.71875 9.328125 16.59375 8.109375 
Q 21.484375 6.890625 26.8125 6.890625 
Q 36.078125 6.890625 40.9375 10.546875 
Q 45.796875 14.203125 45.796875 21.1875 
Q 45.796875 27.640625 41.28125 31.265625 
Q 36.765625 34.90625 28.71875 34.90625 
L 20.21875 34.90625 
L 20.21875 43.015625 
L 29.109375 43.015625 
Q 36.375 43.015625 40.234375 45.921875 
Q 44.09375 48.828125 44.09375 54.296875 
Q 44.09375 59.90625 40.109375 62.90625 
Q 36.140625 65.921875 28.71875 65.921875 
Q 24.65625 65.921875 20.015625 65.03125 
Q 15.375 64.15625 9.8125 62.3125 
L 9.8125 71.09375 
Q 15.4375 72.65625 20.34375 73.4375 
Q 25.25 74.21875 29.59375 74.21875 
Q 40.828125 74.21875 47.359375 69.109375 
Q 53.90625 64.015625 53.90625 55.328125 
Q 53.90625 49.265625 50.4375 45.09375 
Q 46.96875 40.921875 40.578125 39.3125 
z
" id="DejaVuSans-51"/>
      </defs>
      <g transform="translate(159.4375 201.705487)scale(0.1 -0.1)">
       <use xlink:href="#DejaVuSans-51"/>
      </g>
     </g>
    </g>
    <g id="ytick_5">
     <g id="line2d_10">
      <g>
       <use style="stroke:#000000;stroke-width:0.8;" x="172.8" xlink:href="#m90e558e5a5" y="161.714963"/>
      </g>
     </g>
     <g id="text_10">
      <!-- 4 -->
      <defs>
       <path d="M 37.796875 64.3125 
L 12.890625 25.390625 
L 37.796875 25.390625 
z
M 35.203125 72.90625 
L 47.609375 72.90625 
L 47.609375 25.390625 
L 58.015625 25.390625 
L 58.015625 17.1875 
L 47.609375 17.1875 
L 47.609375 0 
L 37.796875 0 
L 37.796875 17.1875 
L 4.890625 17.1875 
L 4.890625 26.703125 
z
" id="DejaVuSans-52"/>
      </defs>
      <g transform="translate(159.4375 165.514182)scale(0.1 -0.1)">
       <use xlink:href="#DejaVuSans-52"/>
      </g>
     </g>
    </g>
    <g id="ytick_6">
     <g id="line2d_11">
      <g>
       <use style="stroke:#000000;stroke-width:0.8;" x="172.8" xlink:href="#m90e558e5a5" y="125.523658"/>
      </g>
     </g>
     <g id="text_11">
      <!-- 5 -->
      <g transform="translate(159.4375 129.322877)scale(0.1 -0.1)">
       <use xlink:href="#DejaVuSans-53"/>
      </g>
     </g>
    </g>
    <g id="ytick_7">
     <g id="line2d_12">
      <g>
       <use style="stroke:#000000;stroke-width:0.8;" x="172.8" xlink:href="#m90e558e5a5" y="89.332353"/>
      </g>
     </g>
     <g id="text_12">
      <!-- 6 -->
      <defs>
       <path d="M 33.015625 40.375 
Q 26.375 40.375 22.484375 35.828125 
Q 18.609375 31.296875 18.609375 23.390625 
Q 18.609375 15.53125 22.484375 10.953125 
Q 26.375 6.390625 33.015625 6.390625 
Q 39.65625 6.390625 43.53125 10.953125 
Q 47.40625 15.53125 47.40625 23.390625 
Q 47.40625 31.296875 43.53125 35.828125 
Q 39.65625 40.375 33.015625 40.375 
z
M 52.59375 71.296875 
L 52.59375 62.3125 
Q 48.875 64.0625 45.09375 64.984375 
Q 41.3125 65.921875 37.59375 65.921875 
Q 27.828125 65.921875 22.671875 59.328125 
Q 17.53125 52.734375 16.796875 39.40625 
Q 19.671875 43.65625 24.015625 45.921875 
Q 28.375 48.1875 33.59375 48.1875 
Q 44.578125 48.1875 50.953125 41.515625 
Q 57.328125 34.859375 57.328125 23.390625 
Q 57.328125 12.15625 50.6875 5.359375 
Q 44.046875 -1.421875 33.015625 -1.421875 
Q 20.359375 -1.421875 13.671875 8.265625 
Q 6.984375 17.96875 6.984375 36.375 
Q 6.984375 53.65625 15.1875 63.9375 
Q 23.390625 74.21875 37.203125 74.21875 
Q 40.921875 74.21875 44.703125 73.484375 
Q 48.484375 72.75 52.59375 71.296875 
z
" id="DejaVuSans-54"/>
      </defs>
      <g transform="translate(159.4375 93.131572)scale(0.1 -0.1)">
       <use xlink:href="#DejaVuSans-54"/>
      </g>
     </g>
    </g>
   </g>
   <g id="line2d_13">
    <path clip-path="url(#pe564343f0a)" d="M 187.122995 306.480244 
L 190.811319 306.424228 
L 199.417411 305.724507 
L 201.876294 305.448512 
L 211.711827 303.810598 
L 221.547359 301.596781 
L 225.235684 300.588934 
L 228.924009 299.564888 
L 233.841775 298.260363 
L 238.759542 296.776399 
L 246.136192 294.791821 
L 249.824516 293.802399 
L 254.742283 292.606321 
L 259.660049 291.281238 
L 265.807257 289.800079 
L 269.495582 288.828799 
L 276.872232 287.064697 
L 280.560556 286.154911 
L 285.478323 285.018156 
L 291.625531 283.449519 
L 295.313856 282.551368 
L 301.461064 280.909986 
L 305.149388 279.997384 
L 317.443804 276.325051 
L 324.820454 273.53954 
L 328.508779 271.803543 
L 334.655987 268.631412 
L 337.11487 267.119797 
L 342.032636 263.78941 
L 345.720961 261.069082 
L 349.409286 257.95722 
L 354.327052 253.450085 
L 356.785936 250.964448 
L 360.47426 246.864251 
L 365.392027 241.088369 
L 369.080352 236.43793 
L 386.292534 214.072349 
L 389.980859 209.834171 
L 392.439742 207.276715 
L 394.898625 205.065957 
L 396.128067 201.885284 
L 397.357508 200.236459 
L 398.58695 198.828778 
L 399.816392 197.709448 
L 403.504716 192.768783 
L 404.734158 191.81518 
L 405.9636 190.602972 
L 408.422483 187.068016 
L 410.881366 184.193754 
L 412.110808 182.436269 
L 413.340249 177.757854 
L 414.569691 176.102966 
L 415.799132 174.704918 
L 417.028574 172.932543 
L 418.258016 170.949947 
L 419.487457 169.287356 
L 420.716899 167.889754 
L 421.94634 166.220819 
L 424.405224 162.161872 
L 426.864107 158.748757 
L 429.32299 154.724762 
L 434.240756 148.092046 
L 435.470198 146.651916 
L 439.158523 143.142904 
L 440.387964 142.237547 
L 442.846848 140.949452 
L 445.305731 139.396338 
L 446.535172 138.79935 
L 447.764614 137.912982 
L 450.223497 135.586774 
L 451.452939 132.63106 
L 452.68238 130.511618 
L 456.370705 122.980904 
L 458.829588 117.403076 
L 461.288472 113.254164 
L 462.517913 110.867162 
L 464.976796 106.690375 
L 467.43568 101.588367 
L 468.665121 99.740343 
L 469.894563 98.13838 
L 471.124004 96.740768 
L 472.353446 96.191018 
L 473.582888 96.196907 
L 473.582888 96.196907 
" style="fill:none;stroke:#ff796c;stroke-linecap:square;stroke-width:1.5;"/>
   </g>
   <g id="line2d_14">
    <path clip-path="url(#pe564343f0a)" d="M 187.122995 306.702348 
L 196.958527 306.807578 
L 206.79406 307.137813 
L 217.859035 307.76846 
L 230.153451 308.700806 
L 264.577816 311.415125 
L 280.560556 312.332219 
L 301.461064 313.219899 
L 338.344312 314.477026 
L 349.409286 315.249036 
L 359.244819 316.200205 
L 382.604209 318.786158 
L 387.521976 319.023595 
L 391.2103 319.024988 
L 397.357508 318.728104 
L 409.651924 318.048423 
L 412.110808 317.937104 
L 414.569691 318.201804 
L 417.028574 318.394973 
L 420.716899 318.797071 
L 423.175782 319.117391 
L 435.470198 321.221611 
L 439.158523 321.387382 
L 441.617406 321.204574 
L 445.305731 320.611106 
L 450.223497 319.550936 
L 452.68238 319.16573 
L 455.141264 319.105333 
L 457.600147 319.291529 
L 461.288472 319.729075 
L 463.747355 319.991975 
L 469.894563 320.34236 
L 471.124004 320.280445 
L 472.353446 320.073179 
L 473.582888 319.701468 
L 473.582888 319.701468 
" style="fill:none;stroke:#ffff14;stroke-linecap:square;stroke-width:1.5;"/>
   </g>
   <g id="line2d_15">
    <path clip-path="url(#pe564343f0a)" d="M 187.122995 306.702926 
L 260.889491 306.591895 
L 283.01944 306.338468 
L 300.231622 305.920539 
L 313.75548 305.381942 
L 326.049896 304.676806 
L 337.11487 303.825377 
L 346.950403 302.866479 
L 356.785936 301.692721 
L 366.621468 300.282477 
L 375.22756 298.83978 
L 383.833651 297.192378 
L 392.439742 295.335602 
L 401.045833 293.271179 
L 410.881366 290.669025 
L 420.716899 287.829831 
L 431.781873 284.386451 
L 442.846848 280.700605 
L 453.911822 276.772026 
L 464.976796 272.588647 
L 473.582888 269.153873 
L 473.582888 269.153873 
" style="fill:none;stroke:#014d4e;stroke-linecap:square;stroke-width:1.5;"/>
   </g>
   <g id="patch_3">
    <path d="M 172.8 332.6472 
L 172.8 84.9312 
" style="fill:none;stroke:#000000;stroke-linecap:square;stroke-linejoin:miter;stroke-width:0.8;"/>
   </g>
   <g id="patch_4">
    <path d="M 487.905882 332.6472 
L 487.905882 84.9312 
" style="fill:none;stroke:#000000;stroke-linecap:square;stroke-linejoin:miter;stroke-width:0.8;"/>
   </g>
   <g id="patch_5">
    <path d="M 172.8 332.6472 
L 487.905882 332.6472 
" style="fill:none;stroke:#000000;stroke-linecap:square;stroke-linejoin:miter;stroke-width:0.8;"/>
   </g>
   <g id="patch_6">
    <path d="M 172.8 84.9312 
L 487.905882 84.9312 
" style="fill:none;stroke:#000000;stroke-linecap:square;stroke-linejoin:miter;stroke-width:0.8;"/>
   </g>
   <g id="text_13">
    <!-- Lateral joint 0 -->
    <defs>
     <path d="M 9.8125 72.90625 
L 19.671875 72.90625 
L 19.671875 8.296875 
L 55.171875 8.296875 
L 55.171875 0 
L 9.8125 0 
z
" id="DejaVuSans-76"/>
     <path d="M 34.28125 27.484375 
Q 23.390625 27.484375 19.1875 25 
Q 14.984375 22.515625 14.984375 16.5 
Q 14.984375 11.71875 18.140625 8.90625 
Q 21.296875 6.109375 26.703125 6.109375 
Q 34.1875 6.109375 38.703125 11.40625 
Q 43.21875 16.703125 43.21875 25.484375 
L 43.21875 27.484375 
z
M 52.203125 31.203125 
L 52.203125 0 
L 43.21875 0 
L 43.21875 8.296875 
Q 40.140625 3.328125 35.546875 0.953125 
Q 30.953125 -1.421875 24.3125 -1.421875 
Q 15.921875 -1.421875 10.953125 3.296875 
Q 6 8.015625 6 15.921875 
Q 6 25.140625 12.171875 29.828125 
Q 18.359375 34.515625 30.609375 34.515625 
L 43.21875 34.515625 
L 43.21875 35.40625 
Q 43.21875 41.609375 39.140625 45 
Q 35.0625 48.390625 27.6875 48.390625 
Q 23 48.390625 18.546875 47.265625 
Q 14.109375 46.140625 10.015625 43.890625 
L 10.015625 52.203125 
Q 14.9375 54.109375 19.578125 55.046875 
Q 24.21875 56 28.609375 56 
Q 40.484375 56 46.34375 49.84375 
Q 52.203125 43.703125 52.203125 31.203125 
z
" id="DejaVuSans-97"/>
     <path d="M 18.3125 70.21875 
L 18.3125 54.6875 
L 36.8125 54.6875 
L 36.8125 47.703125 
L 18.3125 47.703125 
L 18.3125 18.015625 
Q 18.3125 11.328125 20.140625 9.421875 
Q 21.96875 7.515625 27.59375 7.515625 
L 36.8125 7.515625 
L 36.8125 0 
L 27.59375 0 
Q 17.1875 0 13.234375 3.875 
Q 9.28125 7.765625 9.28125 18.015625 
L 9.28125 47.703125 
L 2.6875 47.703125 
L 2.6875 54.6875 
L 9.28125 54.6875 
L 9.28125 70.21875 
z
" id="DejaVuSans-116"/>
     <path d="M 56.203125 29.59375 
L 56.203125 25.203125 
L 14.890625 25.203125 
Q 15.484375 15.921875 20.484375 11.0625 
Q 25.484375 6.203125 34.421875 6.203125 
Q 39.59375 6.203125 44.453125 7.46875 
Q 49.3125 8.734375 54.109375 11.28125 
L 54.109375 2.78125 
Q 49.265625 0.734375 44.1875 -0.34375 
Q 39.109375 -1.421875 33.890625 -1.421875 
Q 20.796875 -1.421875 13.15625 6.1875 
Q 5.515625 13.8125 5.515625 26.8125 
Q 5.515625 40.234375 12.765625 48.109375 
Q 20.015625 56 32.328125 56 
Q 43.359375 56 49.78125 48.890625 
Q 56.203125 41.796875 56.203125 29.59375 
z
M 47.21875 32.234375 
Q 47.125 39.59375 43.09375 43.984375 
Q 39.0625 48.390625 32.421875 48.390625 
Q 24.90625 48.390625 20.390625 44.140625 
Q 15.875 39.890625 15.1875 32.171875 
z
" id="DejaVuSans-101"/>
     <path d="M 41.109375 46.296875 
Q 39.59375 47.171875 37.8125 47.578125 
Q 36.03125 48 33.890625 48 
Q 26.265625 48 22.1875 43.046875 
Q 18.109375 38.09375 18.109375 28.8125 
L 18.109375 0 
L 9.078125 0 
L 9.078125 54.6875 
L 18.109375 54.6875 
L 18.109375 46.1875 
Q 20.953125 51.171875 25.484375 53.578125 
Q 30.03125 56 36.53125 56 
Q 37.453125 56 38.578125 55.875 
Q 39.703125 55.765625 41.0625 55.515625 
z
" id="DejaVuSans-114"/>
     <path d="M 9.421875 75.984375 
L 18.40625 75.984375 
L 18.40625 0 
L 9.421875 0 
z
" id="DejaVuSans-108"/>
     <path id="DejaVuSans-32"/>
     <path d="M 9.421875 54.6875 
L 18.40625 54.6875 
L 18.40625 -0.984375 
Q 18.40625 -11.421875 14.421875 -16.109375 
Q 10.453125 -20.796875 1.609375 -20.796875 
L -1.8125 -20.796875 
L -1.8125 -13.1875 
L 0.59375 -13.1875 
Q 5.71875 -13.1875 7.5625 -10.8125 
Q 9.421875 -8.453125 9.421875 -0.984375 
z
M 9.421875 75.984375 
L 18.40625 75.984375 
L 18.40625 64.59375 
L 9.421875 64.59375 
z
" id="DejaVuSans-106"/>
     <path d="M 30.609375 48.390625 
Q 23.390625 48.390625 19.1875 42.75 
Q 14.984375 37.109375 14.984375 27.296875 
Q 14.984375 17.484375 19.15625 11.84375 
Q 23.34375 6.203125 30.609375 6.203125 
Q 37.796875 6.203125 41.984375 11.859375 
Q 46.1875 17.53125 46.1875 27.296875 
Q 46.1875 37.015625 41.984375 42.703125 
Q 37.796875 48.390625 30.609375 48.390625 
z
M 30.609375 56 
Q 42.328125 56 49.015625 48.375 
Q 55.71875 40.765625 55.71875 27.296875 
Q 55.71875 13.875 49.015625 6.21875 
Q 42.328125 -1.421875 30.609375 -1.421875 
Q 18.84375 -1.421875 12.171875 6.21875 
Q 5.515625 13.875 5.515625 27.296875 
Q 5.515625 40.765625 12.171875 48.375 
Q 18.84375 56 30.609375 56 
z
" id="DejaVuSans-111"/>
     <path d="M 9.421875 54.6875 
L 18.40625 54.6875 
L 18.40625 0 
L 9.421875 0 
z
M 9.421875 75.984375 
L 18.40625 75.984375 
L 18.40625 64.59375 
L 9.421875 64.59375 
z
" id="DejaVuSans-105"/>
     <path d="M 54.890625 33.015625 
L 54.890625 0 
L 45.90625 0 
L 45.90625 32.71875 
Q 45.90625 40.484375 42.875 44.328125 
Q 39.84375 48.1875 33.796875 48.1875 
Q 26.515625 48.1875 22.3125 43.546875 
Q 18.109375 38.921875 18.109375 30.90625 
L 18.109375 0 
L 9.078125 0 
L 9.078125 54.6875 
L 18.109375 54.6875 
L 18.109375 46.1875 
Q 21.34375 51.125 25.703125 53.5625 
Q 30.078125 56 35.796875 56 
Q 45.21875 56 50.046875 50.171875 
Q 54.890625 44.34375 54.890625 33.015625 
z
" id="DejaVuSans-110"/>
    </defs>
    <g transform="translate(288.687629 78.9312)scale(0.12 -0.12)">
     <use xlink:href="#DejaVuSans-76"/>
     <use x="55.712891" xlink:href="#DejaVuSans-97"/>
     <use x="116.992188" xlink:href="#DejaVuSans-116"/>
     <use x="156.201172" xlink:href="#DejaVuSans-101"/>
     <use x="217.724609" xlink:href="#DejaVuSans-114"/>
     <use x="258.837891" xlink:href="#DejaVuSans-97"/>
     <use x="320.117188" xlink:href="#DejaVuSans-108"/>
     <use x="347.900391" xlink:href="#DejaVuSans-32"/>
     <use x="379.6875" xlink:href="#DejaVuSans-106"/>
     <use x="407.470703" xlink:href="#DejaVuSans-111"/>
     <use x="468.652344" xlink:href="#DejaVuSans-105"/>
     <use x="496.435547" xlink:href="#DejaVuSans-110"/>
     <use x="559.814453" xlink:href="#DejaVuSans-116"/>
     <use x="599.023438" xlink:href="#DejaVuSans-32"/>
     <use x="630.810547" xlink:href="#DejaVuSans-48"/>
    </g>
   </g>
  </g>
  <g id="axes_2">
   <g id="patch_7">
    <path d="M 550.927059 332.6472 
L 866.032941 332.6472 
L 866.032941 84.9312 
L 550.927059 84.9312 
z
" style="fill:#ffffff;"/>
   </g>
   <g id="matplotlib.axis_3">
    <g id="xtick_6">
     <g id="line2d_16">
      <g>
       <use style="stroke:#000000;stroke-width:0.8;" x="565.250053" xlink:href="#mc34b9d191f" y="332.6472"/>
      </g>
     </g>
     <g id="text_14">
      <!-- 0 -->
      <g transform="translate(562.068803 347.245637)scale(0.1 -0.1)">
       <use xlink:href="#DejaVuSans-48"/>
      </g>
     </g>
    </g>
    <g id="xtick_7">
     <g id="line2d_17">
      <g>
       <use style="stroke:#000000;stroke-width:0.8;" x="626.722134" xlink:href="#mc34b9d191f" y="332.6472"/>
      </g>
     </g>
     <g id="text_15">
      <!-- 50 -->
      <g transform="translate(620.359634 347.245637)scale(0.1 -0.1)">
       <use xlink:href="#DejaVuSans-53"/>
       <use x="63.623047" xlink:href="#DejaVuSans-48"/>
      </g>
     </g>
    </g>
    <g id="xtick_8">
     <g id="line2d_18">
      <g>
       <use style="stroke:#000000;stroke-width:0.8;" x="688.194214" xlink:href="#mc34b9d191f" y="332.6472"/>
      </g>
     </g>
     <g id="text_16">
      <!-- 100 -->
      <g transform="translate(678.650464 347.245637)scale(0.1 -0.1)">
       <use xlink:href="#DejaVuSans-49"/>
       <use x="63.623047" xlink:href="#DejaVuSans-48"/>
       <use x="127.246094" xlink:href="#DejaVuSans-48"/>
      </g>
     </g>
    </g>
    <g id="xtick_9">
     <g id="line2d_19">
      <g>
       <use style="stroke:#000000;stroke-width:0.8;" x="749.666294" xlink:href="#mc34b9d191f" y="332.6472"/>
      </g>
     </g>
     <g id="text_17">
      <!-- 150 -->
      <g transform="translate(740.122544 347.245637)scale(0.1 -0.1)">
       <use xlink:href="#DejaVuSans-49"/>
       <use x="63.623047" xlink:href="#DejaVuSans-53"/>
       <use x="127.246094" xlink:href="#DejaVuSans-48"/>
      </g>
     </g>
    </g>
    <g id="xtick_10">
     <g id="line2d_20">
      <g>
       <use style="stroke:#000000;stroke-width:0.8;" x="811.138374" xlink:href="#mc34b9d191f" y="332.6472"/>
      </g>
     </g>
     <g id="text_18">
      <!-- 200 -->
      <g transform="translate(801.594624 347.245637)scale(0.1 -0.1)">
       <use xlink:href="#DejaVuSans-50"/>
       <use x="63.623047" xlink:href="#DejaVuSans-48"/>
       <use x="127.246094" xlink:href="#DejaVuSans-48"/>
      </g>
     </g>
    </g>
   </g>
   <g id="matplotlib.axis_4">
    <g id="ytick_8">
     <g id="line2d_21">
      <g>
       <use style="stroke:#000000;stroke-width:0.8;" x="550.927059" xlink:href="#m90e558e5a5" y="316.51125"/>
      </g>
     </g>
     <g id="text_19">
      <!-- −2.0 -->
      <defs>
       <path d="M 10.59375 35.5 
L 73.1875 35.5 
L 73.1875 27.203125 
L 10.59375 27.203125 
z
" id="DejaVuSans-8722"/>
       <path d="M 10.6875 12.40625 
L 21 12.40625 
L 21 0 
L 10.6875 0 
z
" id="DejaVuSans-46"/>
      </defs>
      <g transform="translate(519.644246 320.310469)scale(0.1 -0.1)">
       <use xlink:href="#DejaVuSans-8722"/>
       <use x="83.789062" xlink:href="#DejaVuSans-50"/>
       <use x="147.412109" xlink:href="#DejaVuSans-46"/>
       <use x="179.199219" xlink:href="#DejaVuSans-48"/>
      </g>
     </g>
    </g>
    <g id="ytick_9">
     <g id="line2d_22">
      <g>
       <use style="stroke:#000000;stroke-width:0.8;" x="550.927059" xlink:href="#m90e558e5a5" y="270.763024"/>
      </g>
     </g>
     <g id="text_20">
      <!-- −1.5 -->
      <g transform="translate(519.644246 274.562243)scale(0.1 -0.1)">
       <use xlink:href="#DejaVuSans-8722"/>
       <use x="83.789062" xlink:href="#DejaVuSans-49"/>
       <use x="147.412109" xlink:href="#DejaVuSans-46"/>
       <use x="179.199219" xlink:href="#DejaVuSans-53"/>
      </g>
     </g>
    </g>
    <g id="ytick_10">
     <g id="line2d_23">
      <g>
       <use style="stroke:#000000;stroke-width:0.8;" x="550.927059" xlink:href="#m90e558e5a5" y="225.014799"/>
      </g>
     </g>
     <g id="text_21">
      <!-- −1.0 -->
      <g transform="translate(519.644246 228.814017)scale(0.1 -0.1)">
       <use xlink:href="#DejaVuSans-8722"/>
       <use x="83.789062" xlink:href="#DejaVuSans-49"/>
       <use x="147.412109" xlink:href="#DejaVuSans-46"/>
       <use x="179.199219" xlink:href="#DejaVuSans-48"/>
      </g>
     </g>
    </g>
    <g id="ytick_11">
     <g id="line2d_24">
      <g>
       <use style="stroke:#000000;stroke-width:0.8;" x="550.927059" xlink:href="#m90e558e5a5" y="179.266573"/>
      </g>
     </g>
     <g id="text_22">
      <!-- −0.5 -->
      <g transform="translate(519.644246 183.065792)scale(0.1 -0.1)">
       <use xlink:href="#DejaVuSans-8722"/>
       <use x="83.789062" xlink:href="#DejaVuSans-48"/>
       <use x="147.412109" xlink:href="#DejaVuSans-46"/>
       <use x="179.199219" xlink:href="#DejaVuSans-53"/>
      </g>
     </g>
    </g>
    <g id="ytick_12">
     <g id="line2d_25">
      <g>
       <use style="stroke:#000000;stroke-width:0.8;" x="550.927059" xlink:href="#m90e558e5a5" y="133.518347"/>
      </g>
     </g>
     <g id="text_23">
      <!-- 0.0 -->
      <g transform="translate(528.023934 137.317566)scale(0.1 -0.1)">
       <use xlink:href="#DejaVuSans-48"/>
       <use x="63.623047" xlink:href="#DejaVuSans-46"/>
       <use x="95.410156" xlink:href="#DejaVuSans-48"/>
      </g>
     </g>
    </g>
    <g id="ytick_13">
     <g id="line2d_26">
      <g>
       <use style="stroke:#000000;stroke-width:0.8;" x="550.927059" xlink:href="#m90e558e5a5" y="87.770121"/>
      </g>
     </g>
     <g id="text_24">
      <!-- 0.5 -->
      <g transform="translate(528.023934 91.56934)scale(0.1 -0.1)">
       <use xlink:href="#DejaVuSans-48"/>
       <use x="63.623047" xlink:href="#DejaVuSans-46"/>
       <use x="95.410156" xlink:href="#DejaVuSans-53"/>
      </g>
     </g>
    </g>
   </g>
   <g id="line2d_27">
    <path clip-path="url(#p7847868ec2)" d="M 565.250053 133.518235 
L 568.938378 133.467179 
L 573.856145 133.276055 
L 586.150561 133.702431 
L 589.838885 134.044753 
L 594.756652 134.347121 
L 605.821626 135.758859 
L 615.657159 137.812317 
L 619.345484 138.95131 
L 626.722134 141.266507 
L 637.787108 145.80868 
L 647.622641 150.792095 
L 657.458174 156.778824 
L 664.834823 162.136627 
L 667.293706 164.099818 
L 670.982031 167.422153 
L 675.899798 172.065809 
L 678.358681 174.672567 
L 684.505889 181.747658 
L 688.194214 186.345659 
L 694.341422 194.765445 
L 698.029746 200.156836 
L 702.947513 208.026397 
L 706.635838 214.177008 
L 710.324162 220.770253 
L 718.930254 236.817318 
L 727.536345 253.951406 
L 739.830761 278.829088 
L 744.748527 288.433981 
L 748.436852 295.181753 
L 752.125177 301.56919 
L 754.58406 305.49313 
L 757.042943 309.006287 
L 759.501826 312.086895 
L 761.96071 314.784426 
L 764.419593 317.072519 
L 766.878476 318.878323 
L 769.337359 320.189067 
L 771.796242 321.07715 
L 773.025684 321.387382 
L 774.255126 317.961475 
L 775.484567 317.19422 
L 776.714009 316.585816 
L 777.94345 315.7481 
L 779.172892 314.083923 
L 780.402334 312.637478 
L 782.861217 310.756951 
L 784.090658 309.134722 
L 786.549542 305.447338 
L 787.778983 303.665477 
L 790.237866 299.570462 
L 791.467308 293.878434 
L 793.926191 290.800373 
L 795.155633 289.150785 
L 798.843958 285.006968 
L 800.073399 283.421913 
L 801.302841 282.076413 
L 804.991166 278.529279 
L 806.220607 277.71805 
L 808.67949 276.550849 
L 809.908932 275.882958 
L 813.597257 274.731271 
L 816.05614 273.593923 
L 817.285582 273.114692 
L 818.515023 272.358195 
L 820.973906 270.025896 
L 822.203348 268.718643 
L 823.43279 267.070684 
L 825.891673 262.752929 
L 828.350556 258.22604 
L 829.579998 252.567875 
L 830.809439 249.233543 
L 833.268323 243.50281 
L 834.497764 240.83937 
L 835.727206 238.810993 
L 836.956647 237.629938 
L 839.415531 236.088646 
L 841.874414 235.271337 
L 844.333297 233.614347 
L 845.562739 233.097824 
L 846.79218 232.733773 
L 848.021622 232.494717 
L 849.251063 232.723233 
L 850.480505 233.15712 
L 851.709947 233.159538 
L 851.709947 233.159538 
" style="fill:none;stroke:#ff796c;stroke-linecap:square;stroke-width:1.5;"/>
   </g>
   <g id="line2d_28">
    <path clip-path="url(#p7847868ec2)" d="M 565.250053 170.81526 
L 575.085586 170.717052 
L 584.921119 170.402893 
L 600.90386 169.588701 
L 610.739393 168.915127 
L 619.345484 168.159805 
L 627.951575 167.24187 
L 636.557666 166.123417 
L 645.163758 164.754008 
L 653.769849 163.111628 
L 661.146498 161.442514 
L 666.064265 160.158079 
L 672.211473 158.304361 
L 677.129239 156.593833 
L 683.276447 154.178054 
L 688.194214 151.985703 
L 693.11198 149.573902 
L 698.029746 146.885303 
L 702.947513 143.933504 
L 707.865279 140.693462 
L 714.012487 136.309518 
L 720.159695 131.581913 
L 726.306903 126.595241 
L 736.142436 118.224247 
L 744.748527 110.947598 
L 749.666294 107.042103 
L 753.354618 104.346613 
L 757.042943 101.936921 
L 760.731268 99.868044 
L 763.190151 98.715323 
L 765.649034 97.762021 
L 768.107918 97.021456 
L 770.566801 96.493841 
L 773.025684 96.191018 
L 775.484567 96.271222 
L 776.714009 96.323833 
L 780.402334 97.085475 
L 781.631775 97.284839 
L 785.3201 98.686005 
L 786.549542 99.01325 
L 790.237866 100.695808 
L 791.467308 100.978612 
L 792.69675 101.55545 
L 793.926191 102.327821 
L 795.155633 102.907467 
L 796.385074 103.279959 
L 797.614516 103.811424 
L 800.073399 105.23898 
L 802.532282 105.968397 
L 804.991166 107.116753 
L 808.67949 107.958294 
L 809.908932 108.434389 
L 813.597257 109.222949 
L 816.05614 110.194059 
L 817.285582 110.524624 
L 818.515023 111.062696 
L 820.973906 112.530564 
L 822.203348 113.105827 
L 823.43279 113.840259 
L 825.891673 115.56459 
L 828.350556 116.860935 
L 829.579998 117.700032 
L 830.809439 118.270453 
L 833.268323 118.876621 
L 834.497764 119.200784 
L 835.727206 119.128833 
L 836.956647 118.908479 
L 839.415531 118.787124 
L 840.644972 118.375517 
L 841.874414 118.090338 
L 843.103855 117.967262 
L 846.79218 116.896859 
L 848.021622 116.726461 
L 849.251063 116.390042 
L 850.480505 116.323688 
L 851.709947 116.576524 
L 851.709947 116.576524 
" style="fill:none;stroke:#ffff14;stroke-linecap:square;stroke-width:1.5;"/>
   </g>
   <g id="line2d_29">
    <path clip-path="url(#p7847868ec2)" d="M 565.250053 170.813872 
L 637.787108 170.708697 
L 658.687615 170.44078 
L 673.440914 170.044314 
L 685.73533 169.513944 
L 696.800305 168.831224 
L 706.635838 168.02386 
L 716.47137 166.995076 
L 725.077462 165.889192 
L 733.683553 164.570957 
L 742.289644 163.022329 
L 750.895735 161.226674 
L 758.272385 159.479782 
L 765.649034 157.533322 
L 773.025684 155.382484 
L 780.402334 153.025551 
L 787.778983 150.464379 
L 796.385074 147.226665 
L 804.991166 143.744404 
L 813.597257 140.040432 
L 822.203348 136.12162 
L 830.809439 131.980053 
L 839.415531 127.614723 
L 848.021622 123.030445 
L 851.709947 120.997919 
L 851.709947 120.997919 
" style="fill:none;stroke:#014d4e;stroke-linecap:square;stroke-width:1.5;"/>
   </g>
   <g id="patch_8">
    <path d="M 550.927059 332.6472 
L 550.927059 84.9312 
" style="fill:none;stroke:#000000;stroke-linecap:square;stroke-linejoin:miter;stroke-width:0.8;"/>
   </g>
   <g id="patch_9">
    <path d="M 866.032941 332.6472 
L 866.032941 84.9312 
" style="fill:none;stroke:#000000;stroke-linecap:square;stroke-linejoin:miter;stroke-width:0.8;"/>
   </g>
   <g id="patch_10">
    <path d="M 550.927059 332.6472 
L 866.032941 332.6472 
" style="fill:none;stroke:#000000;stroke-linecap:square;stroke-linejoin:miter;stroke-width:0.8;"/>
   </g>
   <g id="patch_11">
    <path d="M 550.927059 84.9312 
L 866.032941 84.9312 
" style="fill:none;stroke:#000000;stroke-linecap:square;stroke-linejoin:miter;stroke-width:0.8;"/>
   </g>
   <g id="text_25">
    <!-- Lateral joint 1 -->
    <g transform="translate(666.814687 78.9312)scale(0.12 -0.12)">
     <use xlink:href="#DejaVuSans-76"/>
     <use x="55.712891" xlink:href="#DejaVuSans-97"/>
     <use x="116.992188" xlink:href="#DejaVuSans-116"/>
     <use x="156.201172" xlink:href="#DejaVuSans-101"/>
     <use x="217.724609" xlink:href="#DejaVuSans-114"/>
     <use x="258.837891" xlink:href="#DejaVuSans-97"/>
     <use x="320.117188" xlink:href="#DejaVuSans-108"/>
     <use x="347.900391" xlink:href="#DejaVuSans-32"/>
     <use x="379.6875" xlink:href="#DejaVuSans-106"/>
     <use x="407.470703" xlink:href="#DejaVuSans-111"/>
     <use x="468.652344" xlink:href="#DejaVuSans-105"/>
     <use x="496.435547" xlink:href="#DejaVuSans-110"/>
     <use x="559.814453" xlink:href="#DejaVuSans-116"/>
     <use x="599.023438" xlink:href="#DejaVuSans-32"/>
     <use x="630.810547" xlink:href="#DejaVuSans-49"/>
    </g>
   </g>
  </g>
  <g id="axes_3">
   <g id="patch_12">
    <path d="M 929.054118 332.6472 
L 1244.16 332.6472 
L 1244.16 84.9312 
L 929.054118 84.9312 
z
" style="fill:#ffffff;"/>
   </g>
   <g id="matplotlib.axis_5">
    <g id="xtick_11">
     <g id="line2d_30">
      <g>
       <use style="stroke:#000000;stroke-width:0.8;" x="943.377112" xlink:href="#mc34b9d191f" y="332.6472"/>
      </g>
     </g>
     <g id="text_26">
      <!-- 0 -->
      <g transform="translate(940.195862 347.245637)scale(0.1 -0.1)">
       <use xlink:href="#DejaVuSans-48"/>
      </g>
     </g>
    </g>
    <g id="xtick_12">
     <g id="line2d_31">
      <g>
       <use style="stroke:#000000;stroke-width:0.8;" x="1004.849192" xlink:href="#mc34b9d191f" y="332.6472"/>
      </g>
     </g>
     <g id="text_27">
      <!-- 50 -->
      <g transform="translate(998.486692 347.245637)scale(0.1 -0.1)">
       <use xlink:href="#DejaVuSans-53"/>
       <use x="63.623047" xlink:href="#DejaVuSans-48"/>
      </g>
     </g>
    </g>
    <g id="xtick_13">
     <g id="line2d_32">
      <g>
       <use style="stroke:#000000;stroke-width:0.8;" x="1066.321272" xlink:href="#mc34b9d191f" y="332.6472"/>
      </g>
     </g>
     <g id="text_28">
      <!-- 100 -->
      <g transform="translate(1056.777522 347.245637)scale(0.1 -0.1)">
       <use xlink:href="#DejaVuSans-49"/>
       <use x="63.623047" xlink:href="#DejaVuSans-48"/>
       <use x="127.246094" xlink:href="#DejaVuSans-48"/>
      </g>
     </g>
    </g>
    <g id="xtick_14">
     <g id="line2d_33">
      <g>
       <use style="stroke:#000000;stroke-width:0.8;" x="1127.793352" xlink:href="#mc34b9d191f" y="332.6472"/>
      </g>
     </g>
     <g id="text_29">
      <!-- 150 -->
      <g transform="translate(1118.249602 347.245637)scale(0.1 -0.1)">
       <use xlink:href="#DejaVuSans-49"/>
       <use x="63.623047" xlink:href="#DejaVuSans-53"/>
       <use x="127.246094" xlink:href="#DejaVuSans-48"/>
      </g>
     </g>
    </g>
    <g id="xtick_15">
     <g id="line2d_34">
      <g>
       <use style="stroke:#000000;stroke-width:0.8;" x="1189.265433" xlink:href="#mc34b9d191f" y="332.6472"/>
      </g>
     </g>
     <g id="text_30">
      <!-- 200 -->
      <g transform="translate(1179.721683 347.245637)scale(0.1 -0.1)">
       <use xlink:href="#DejaVuSans-50"/>
       <use x="63.623047" xlink:href="#DejaVuSans-48"/>
       <use x="127.246094" xlink:href="#DejaVuSans-48"/>
      </g>
     </g>
    </g>
   </g>
   <g id="matplotlib.axis_6">
    <g id="ytick_14">
     <g id="line2d_35">
      <g>
       <use style="stroke:#000000;stroke-width:0.8;" x="929.054118" xlink:href="#m90e558e5a5" y="332.022876"/>
      </g>
     </g>
     <g id="text_31">
      <!-- −14 -->
      <g transform="translate(900.94943 335.822094)scale(0.1 -0.1)">
       <use xlink:href="#DejaVuSans-8722"/>
       <use x="83.789062" xlink:href="#DejaVuSans-49"/>
       <use x="147.412109" xlink:href="#DejaVuSans-52"/>
      </g>
     </g>
    </g>
    <g id="ytick_15">
     <g id="line2d_36">
      <g>
       <use style="stroke:#000000;stroke-width:0.8;" x="929.054118" xlink:href="#m90e558e5a5" y="298.339345"/>
      </g>
     </g>
     <g id="text_32">
      <!-- −12 -->
      <g transform="translate(900.94943 302.138564)scale(0.1 -0.1)">
       <use xlink:href="#DejaVuSans-8722"/>
       <use x="83.789062" xlink:href="#DejaVuSans-49"/>
       <use x="147.412109" xlink:href="#DejaVuSans-50"/>
      </g>
     </g>
    </g>
    <g id="ytick_16">
     <g id="line2d_37">
      <g>
       <use style="stroke:#000000;stroke-width:0.8;" x="929.054118" xlink:href="#m90e558e5a5" y="264.655815"/>
      </g>
     </g>
     <g id="text_33">
      <!-- −10 -->
      <g transform="translate(900.94943 268.455034)scale(0.1 -0.1)">
       <use xlink:href="#DejaVuSans-8722"/>
       <use x="83.789062" xlink:href="#DejaVuSans-49"/>
       <use x="147.412109" xlink:href="#DejaVuSans-48"/>
      </g>
     </g>
    </g>
    <g id="ytick_17">
     <g id="line2d_38">
      <g>
       <use style="stroke:#000000;stroke-width:0.8;" x="929.054118" xlink:href="#m90e558e5a5" y="230.972284"/>
      </g>
     </g>
     <g id="text_34">
      <!-- −8 -->
      <defs>
       <path d="M 31.78125 34.625 
Q 24.75 34.625 20.71875 30.859375 
Q 16.703125 27.09375 16.703125 20.515625 
Q 16.703125 13.921875 20.71875 10.15625 
Q 24.75 6.390625 31.78125 6.390625 
Q 38.8125 6.390625 42.859375 10.171875 
Q 46.921875 13.96875 46.921875 20.515625 
Q 46.921875 27.09375 42.890625 30.859375 
Q 38.875 34.625 31.78125 34.625 
z
M 21.921875 38.8125 
Q 15.578125 40.375 12.03125 44.71875 
Q 8.5 49.078125 8.5 55.328125 
Q 8.5 64.0625 14.71875 69.140625 
Q 20.953125 74.21875 31.78125 74.21875 
Q 42.671875 74.21875 48.875 69.140625 
Q 55.078125 64.0625 55.078125 55.328125 
Q 55.078125 49.078125 51.53125 44.71875 
Q 48 40.375 41.703125 38.8125 
Q 48.828125 37.15625 52.796875 32.3125 
Q 56.78125 27.484375 56.78125 20.515625 
Q 56.78125 9.90625 50.3125 4.234375 
Q 43.84375 -1.421875 31.78125 -1.421875 
Q 19.734375 -1.421875 13.25 4.234375 
Q 6.78125 9.90625 6.78125 20.515625 
Q 6.78125 27.484375 10.78125 32.3125 
Q 14.796875 37.15625 21.921875 38.8125 
z
M 18.3125 54.390625 
Q 18.3125 48.734375 21.84375 45.5625 
Q 25.390625 42.390625 31.78125 42.390625 
Q 38.140625 42.390625 41.71875 45.5625 
Q 45.3125 48.734375 45.3125 54.390625 
Q 45.3125 60.0625 41.71875 63.234375 
Q 38.140625 66.40625 31.78125 66.40625 
Q 25.390625 66.40625 21.84375 63.234375 
Q 18.3125 60.0625 18.3125 54.390625 
z
" id="DejaVuSans-56"/>
      </defs>
      <g transform="translate(907.31193 234.771503)scale(0.1 -0.1)">
       <use xlink:href="#DejaVuSans-8722"/>
       <use x="83.789062" xlink:href="#DejaVuSans-56"/>
      </g>
     </g>
    </g>
    <g id="ytick_18">
     <g id="line2d_39">
      <g>
       <use style="stroke:#000000;stroke-width:0.8;" x="929.054118" xlink:href="#m90e558e5a5" y="197.288754"/>
      </g>
     </g>
     <g id="text_35">
      <!-- −6 -->
      <g transform="translate(907.31193 201.087973)scale(0.1 -0.1)">
       <use xlink:href="#DejaVuSans-8722"/>
       <use x="83.789062" xlink:href="#DejaVuSans-54"/>
      </g>
     </g>
    </g>
    <g id="ytick_19">
     <g id="line2d_40">
      <g>
       <use style="stroke:#000000;stroke-width:0.8;" x="929.054118" xlink:href="#m90e558e5a5" y="163.605224"/>
      </g>
     </g>
     <g id="text_36">
      <!-- −4 -->
      <g transform="translate(907.31193 167.404442)scale(0.1 -0.1)">
       <use xlink:href="#DejaVuSans-8722"/>
       <use x="83.789062" xlink:href="#DejaVuSans-52"/>
      </g>
     </g>
    </g>
    <g id="ytick_20">
     <g id="line2d_41">
      <g>
       <use style="stroke:#000000;stroke-width:0.8;" x="929.054118" xlink:href="#m90e558e5a5" y="129.921693"/>
      </g>
     </g>
     <g id="text_37">
      <!-- −2 -->
      <g transform="translate(907.31193 133.720912)scale(0.1 -0.1)">
       <use xlink:href="#DejaVuSans-8722"/>
       <use x="83.789062" xlink:href="#DejaVuSans-50"/>
      </g>
     </g>
    </g>
    <g id="ytick_21">
     <g id="line2d_42">
      <g>
       <use style="stroke:#000000;stroke-width:0.8;" x="929.054118" xlink:href="#m90e558e5a5" y="96.238163"/>
      </g>
     </g>
     <g id="text_38">
      <!-- 0 -->
      <g transform="translate(915.691618 100.037381)scale(0.1 -0.1)">
       <use xlink:href="#DejaVuSans-48"/>
      </g>
     </g>
    </g>
   </g>
   <g id="line2d_43">
    <path clip-path="url(#p0a1c2e178b)" d="M 943.377112 96.191018 
L 945.835996 96.569732 
L 948.294879 96.541465 
L 949.52432 96.73286 
L 950.753762 96.667972 
L 951.983204 96.451183 
L 953.212645 96.506627 
L 954.442087 96.71662 
L 956.90097 96.692143 
L 958.130412 96.926016 
L 959.359853 97.03805 
L 961.818736 96.730352 
L 963.048178 96.863945 
L 965.507061 96.7282 
L 969.195386 97.214898 
L 970.424828 97.163981 
L 972.883711 97.517114 
L 974.113152 97.4144 
L 975.342594 97.571548 
L 976.572036 98.012528 
L 977.801477 98.23139 
L 979.030919 98.308433 
L 981.489802 98.987712 
L 983.948685 99.012756 
L 986.407568 99.701643 
L 987.63701 99.77511 
L 988.866452 100.087258 
L 990.095893 100.568258 
L 991.325335 100.702188 
L 992.554776 100.68127 
L 995.01366 101.313798 
L 996.243101 101.369095 
L 997.472543 101.580677 
L 998.701984 102.132889 
L 999.931426 102.481449 
L 1001.160868 102.540807 
L 1002.390309 102.829029 
L 1003.619751 103.253121 
L 1006.078634 103.441076 
L 1008.537517 104.401598 
L 1009.766959 104.534587 
L 1010.9964 104.792754 
L 1012.225842 105.282117 
L 1013.455284 105.469361 
L 1014.684725 105.441496 
L 1015.914167 105.770457 
L 1017.143608 106.249006 
L 1019.602492 106.613006 
L 1020.831933 107.155533 
L 1022.061375 107.515475 
L 1023.290816 107.52256 
L 1024.520258 107.770242 
L 1025.7497 108.277641 
L 1028.208583 108.688572 
L 1030.667466 109.867109 
L 1033.126349 110.346252 
L 1034.355791 110.957304 
L 1035.585232 111.336988 
L 1036.814674 111.524736 
L 1038.044116 112.120523 
L 1039.273557 112.89183 
L 1041.73244 113.670889 
L 1042.961882 114.406286 
L 1044.191324 114.964503 
L 1045.420765 115.194362 
L 1046.650207 115.737418 
L 1047.879648 116.575873 
L 1050.338532 117.54159 
L 1052.797415 119.114059 
L 1054.026856 119.43454 
L 1055.256298 119.951536 
L 1056.48574 120.825224 
L 1057.715181 121.437814 
L 1058.944623 121.912919 
L 1061.403506 123.785486 
L 1063.862389 124.911595 
L 1065.091831 125.901544 
L 1066.321272 126.653013 
L 1067.550714 127.190129 
L 1068.780156 128.178847 
L 1070.009597 129.334327 
L 1072.46848 130.831504 
L 1073.697922 131.994168 
L 1074.927364 132.917002 
L 1076.156805 133.532382 
L 1077.386247 134.567531 
L 1078.615688 135.840873 
L 1081.074572 137.642573 
L 1082.304013 139.009046 
L 1083.533455 140.169394 
L 1084.762896 140.96461 
L 1085.992338 142.14601 
L 1087.22178 143.609433 
L 1089.680663 145.833972 
L 1092.139546 149.011703 
L 1093.368988 150.15339 
L 1094.598429 151.626941 
L 1095.827871 153.395561 
L 1098.286754 156.183418 
L 1100.745637 160.018895 
L 1101.975079 161.537773 
L 1103.20452 163.351005 
L 1104.433962 165.498896 
L 1106.892845 168.930592 
L 1109.351728 173.345646 
L 1110.58117 175.198396 
L 1111.810612 177.276428 
L 1113.040053 179.753572 
L 1114.269495 181.96441 
L 1115.498936 183.855253 
L 1121.646144 195.520781 
L 1122.875586 198.037607 
L 1124.105028 200.101964 
L 1125.334469 202.392471 
L 1126.563911 205.021157 
L 1127.793352 207.289794 
L 1129.022794 209.287924 
L 1132.711119 216.335042 
L 1133.94056 218.339406 
L 1136.399444 223.024324 
L 1138.858327 226.630141 
L 1140.087768 228.806358 
L 1141.31721 230.678034 
L 1142.546652 232.079909 
L 1143.776093 233.730537 
L 1145.005535 235.596905 
L 1146.234976 236.93371 
L 1147.464418 237.87565 
L 1149.923301 240.381169 
L 1151.152743 241.027225 
L 1152.382184 263.948337 
L 1153.611626 247.022481 
L 1154.841068 228.140834 
L 1156.070509 249.743173 
L 1157.299951 280.182289 
L 1158.529392 257.46164 
L 1159.758834 230.108441 
L 1160.988276 255.389957 
L 1162.217717 288.801491 
L 1163.447159 272.19989 
L 1164.6766 242.986933 
L 1165.906042 259.005561 
L 1167.135484 293.704462 
L 1168.364925 289.486329 
L 1169.594367 245.852414 
L 1170.823808 256.741635 
L 1172.05325 303.846997 
L 1173.282692 307.750366 
L 1174.512133 265.897519 
L 1175.741575 255.987533 
L 1176.971017 297.871223 
L 1178.200458 320.019313 
L 1179.4299 286.643558 
L 1180.659341 260.738981 
L 1181.888783 289.57592 
L 1183.118225 321.387382 
L 1184.347666 299.421502 
L 1185.577108 264.156688 
L 1186.806549 277.220944 
L 1188.035991 311.109506 
L 1189.265433 300.822798 
L 1190.494874 263.785199 
L 1191.724316 265.386667 
L 1192.953757 297.746936 
L 1194.183199 296.062135 
L 1195.412641 260.666267 
L 1196.642082 256.021233 
L 1197.871524 287.541153 
L 1199.100965 291.745741 
L 1200.330407 259.098201 
L 1201.559849 252.821613 
L 1202.78929 284.054053 
L 1204.018732 289.010388 
L 1205.248173 256.45793 
L 1206.477615 251.624805 
L 1207.707057 288.564186 
L 1208.936498 287.394465 
L 1210.16594 246.546195 
L 1211.395381 254.545083 
L 1212.624823 291.265455 
L 1213.854265 268.743136 
L 1215.083706 235.139622 
L 1216.313148 265.743019 
L 1217.542589 284.68912 
L 1218.772031 243.608247 
L 1220.001473 239.132452 
L 1221.230914 279.896189 
L 1222.460356 264.568066 
L 1223.689797 228.429815 
L 1224.919239 256.928999 
L 1226.148681 277.641438 
L 1227.378122 238.281515 
L 1228.607564 234.305975 
L 1229.837005 275.358 
L 1229.837005 275.358 
" style="fill:none;stroke:#ff796c;stroke-linecap:square;stroke-width:1.5;"/>
   </g>
   <g id="line2d_44">
    <path clip-path="url(#p0a1c2e178b)" d="M 943.377112 107.418653 
L 1108.122287 107.305998 
L 1138.858327 107.087605 
L 1170.823808 106.545063 
L 1173.282692 106.439529 
L 1175.741575 106.44823 
L 1179.4299 106.35672 
L 1181.888783 106.305578 
L 1199.100965 105.44811 
L 1202.78929 105.321391 
L 1224.919239 104.307187 
L 1229.837005 104.080154 
L 1229.837005 104.080154 
" style="fill:none;stroke:#ffff14;stroke-linecap:square;stroke-width:1.5;"/>
   </g>
   <g id="line2d_45">
    <path clip-path="url(#p0a1c2e178b)" d="M 943.377112 107.41865 
L 1067.550714 107.310485 
L 1104.433962 107.046466 
L 1133.94056 106.619104 
L 1160.988276 106.00872 
L 1190.494874 105.109404 
L 1222.460356 103.913159 
L 1229.837005 103.604696 
L 1229.837005 103.604696 
" style="fill:none;stroke:#014d4e;stroke-linecap:square;stroke-width:1.5;"/>
   </g>
   <g id="patch_13">
    <path d="M 929.054118 332.6472 
L 929.054118 84.9312 
" style="fill:none;stroke:#000000;stroke-linecap:square;stroke-linejoin:miter;stroke-width:0.8;"/>
   </g>
   <g id="patch_14">
    <path d="M 1244.16 332.6472 
L 1244.16 84.9312 
" style="fill:none;stroke:#000000;stroke-linecap:square;stroke-linejoin:miter;stroke-width:0.8;"/>
   </g>
   <g id="patch_15">
    <path d="M 929.054118 332.6472 
L 1244.16 332.6472 
" style="fill:none;stroke:#000000;stroke-linecap:square;stroke-linejoin:miter;stroke-width:0.8;"/>
   </g>
   <g id="patch_16">
    <path d="M 929.054118 84.9312 
L 1244.16 84.9312 
" style="fill:none;stroke:#000000;stroke-linecap:square;stroke-linejoin:miter;stroke-width:0.8;"/>
   </g>
   <g id="text_39">
    <!-- Lateral joint 2 -->
    <g transform="translate(1044.941746 78.9312)scale(0.12 -0.12)">
     <use xlink:href="#DejaVuSans-76"/>
     <use x="55.712891" xlink:href="#DejaVuSans-97"/>
     <use x="116.992188" xlink:href="#DejaVuSans-116"/>
     <use x="156.201172" xlink:href="#DejaVuSans-101"/>
     <use x="217.724609" xlink:href="#DejaVuSans-114"/>
     <use x="258.837891" xlink:href="#DejaVuSans-97"/>
     <use x="320.117188" xlink:href="#DejaVuSans-108"/>
     <use x="347.900391" xlink:href="#DejaVuSans-32"/>
     <use x="379.6875" xlink:href="#DejaVuSans-106"/>
     <use x="407.470703" xlink:href="#DejaVuSans-111"/>
     <use x="468.652344" xlink:href="#DejaVuSans-105"/>
     <use x="496.435547" xlink:href="#DejaVuSans-110"/>
     <use x="559.814453" xlink:href="#DejaVuSans-116"/>
     <use x="599.023438" xlink:href="#DejaVuSans-32"/>
     <use x="630.810547" xlink:href="#DejaVuSans-50"/>
    </g>
   </g>
  </g>
  <g id="axes_4">
   <g id="patch_17">
    <path d="M 172.8 629.9064 
L 487.905882 629.9064 
L 487.905882 382.1904 
L 172.8 382.1904 
z
" style="fill:#ffffff;"/>
   </g>
   <g id="matplotlib.axis_7">
    <g id="xtick_16">
     <g id="line2d_46">
      <g>
       <use style="stroke:#000000;stroke-width:0.8;" x="187.122995" xlink:href="#mc34b9d191f" y="629.9064"/>
      </g>
     </g>
     <g id="text_40">
      <!-- 0 -->
      <g transform="translate(183.941745 644.504838)scale(0.1 -0.1)">
       <use xlink:href="#DejaVuSans-48"/>
      </g>
     </g>
    </g>
    <g id="xtick_17">
     <g id="line2d_47">
      <g>
       <use style="stroke:#000000;stroke-width:0.8;" x="248.595075" xlink:href="#mc34b9d191f" y="629.9064"/>
      </g>
     </g>
     <g id="text_41">
      <!-- 50 -->
      <g transform="translate(242.232575 644.504838)scale(0.1 -0.1)">
       <use xlink:href="#DejaVuSans-53"/>
       <use x="63.623047" xlink:href="#DejaVuSans-48"/>
      </g>
     </g>
    </g>
    <g id="xtick_18">
     <g id="line2d_48">
      <g>
       <use style="stroke:#000000;stroke-width:0.8;" x="310.067155" xlink:href="#mc34b9d191f" y="629.9064"/>
      </g>
     </g>
     <g id="text_42">
      <!-- 100 -->
      <g transform="translate(300.523405 644.504838)scale(0.1 -0.1)">
       <use xlink:href="#DejaVuSans-49"/>
       <use x="63.623047" xlink:href="#DejaVuSans-48"/>
       <use x="127.246094" xlink:href="#DejaVuSans-48"/>
      </g>
     </g>
    </g>
    <g id="xtick_19">
     <g id="line2d_49">
      <g>
       <use style="stroke:#000000;stroke-width:0.8;" x="371.539235" xlink:href="#mc34b9d191f" y="629.9064"/>
      </g>
     </g>
     <g id="text_43">
      <!-- 150 -->
      <g transform="translate(361.995485 644.504838)scale(0.1 -0.1)">
       <use xlink:href="#DejaVuSans-49"/>
       <use x="63.623047" xlink:href="#DejaVuSans-53"/>
       <use x="127.246094" xlink:href="#DejaVuSans-48"/>
      </g>
     </g>
    </g>
    <g id="xtick_20">
     <g id="line2d_50">
      <g>
       <use style="stroke:#000000;stroke-width:0.8;" x="433.011315" xlink:href="#mc34b9d191f" y="629.9064"/>
      </g>
     </g>
     <g id="text_44">
      <!-- 200 -->
      <g transform="translate(423.467565 644.504838)scale(0.1 -0.1)">
       <use xlink:href="#DejaVuSans-50"/>
       <use x="63.623047" xlink:href="#DejaVuSans-48"/>
       <use x="127.246094" xlink:href="#DejaVuSans-48"/>
      </g>
     </g>
    </g>
   </g>
   <g id="matplotlib.axis_8">
    <g id="ytick_22">
     <g id="line2d_51">
      <g>
       <use style="stroke:#000000;stroke-width:0.8;" x="172.8" xlink:href="#m90e558e5a5" y="617.7688"/>
      </g>
     </g>
     <g id="text_45">
      <!-- −16 -->
      <g transform="translate(144.695312 621.568019)scale(0.1 -0.1)">
       <use xlink:href="#DejaVuSans-8722"/>
       <use x="83.789062" xlink:href="#DejaVuSans-49"/>
       <use x="147.412109" xlink:href="#DejaVuSans-54"/>
      </g>
     </g>
    </g>
    <g id="ytick_23">
     <g id="line2d_52">
      <g>
       <use style="stroke:#000000;stroke-width:0.8;" x="172.8" xlink:href="#m90e558e5a5" y="589.73455"/>
      </g>
     </g>
     <g id="text_46">
      <!-- −14 -->
      <g transform="translate(144.695312 593.533769)scale(0.1 -0.1)">
       <use xlink:href="#DejaVuSans-8722"/>
       <use x="83.789062" xlink:href="#DejaVuSans-49"/>
       <use x="147.412109" xlink:href="#DejaVuSans-52"/>
      </g>
     </g>
    </g>
    <g id="ytick_24">
     <g id="line2d_53">
      <g>
       <use style="stroke:#000000;stroke-width:0.8;" x="172.8" xlink:href="#m90e558e5a5" y="561.7003"/>
      </g>
     </g>
     <g id="text_47">
      <!-- −12 -->
      <g transform="translate(144.695312 565.499519)scale(0.1 -0.1)">
       <use xlink:href="#DejaVuSans-8722"/>
       <use x="83.789062" xlink:href="#DejaVuSans-49"/>
       <use x="147.412109" xlink:href="#DejaVuSans-50"/>
      </g>
     </g>
    </g>
    <g id="ytick_25">
     <g id="line2d_54">
      <g>
       <use style="stroke:#000000;stroke-width:0.8;" x="172.8" xlink:href="#m90e558e5a5" y="533.66605"/>
      </g>
     </g>
     <g id="text_48">
      <!-- −10 -->
      <g transform="translate(144.695312 537.465269)scale(0.1 -0.1)">
       <use xlink:href="#DejaVuSans-8722"/>
       <use x="83.789062" xlink:href="#DejaVuSans-49"/>
       <use x="147.412109" xlink:href="#DejaVuSans-48"/>
      </g>
     </g>
    </g>
    <g id="ytick_26">
     <g id="line2d_55">
      <g>
       <use style="stroke:#000000;stroke-width:0.8;" x="172.8" xlink:href="#m90e558e5a5" y="505.6318"/>
      </g>
     </g>
     <g id="text_49">
      <!-- −8 -->
      <g transform="translate(151.057812 509.431019)scale(0.1 -0.1)">
       <use xlink:href="#DejaVuSans-8722"/>
       <use x="83.789062" xlink:href="#DejaVuSans-56"/>
      </g>
     </g>
    </g>
    <g id="ytick_27">
     <g id="line2d_56">
      <g>
       <use style="stroke:#000000;stroke-width:0.8;" x="172.8" xlink:href="#m90e558e5a5" y="477.59755"/>
      </g>
     </g>
     <g id="text_50">
      <!-- −6 -->
      <g transform="translate(151.057812 481.396769)scale(0.1 -0.1)">
       <use xlink:href="#DejaVuSans-8722"/>
       <use x="83.789062" xlink:href="#DejaVuSans-54"/>
      </g>
     </g>
    </g>
    <g id="ytick_28">
     <g id="line2d_57">
      <g>
       <use style="stroke:#000000;stroke-width:0.8;" x="172.8" xlink:href="#m90e558e5a5" y="449.5633"/>
      </g>
     </g>
     <g id="text_51">
      <!-- −4 -->
      <g transform="translate(151.057812 453.362519)scale(0.1 -0.1)">
       <use xlink:href="#DejaVuSans-8722"/>
       <use x="83.789062" xlink:href="#DejaVuSans-52"/>
      </g>
     </g>
    </g>
    <g id="ytick_29">
     <g id="line2d_58">
      <g>
       <use style="stroke:#000000;stroke-width:0.8;" x="172.8" xlink:href="#m90e558e5a5" y="421.529051"/>
      </g>
     </g>
     <g id="text_52">
      <!-- −2 -->
      <g transform="translate(151.057812 425.328269)scale(0.1 -0.1)">
       <use xlink:href="#DejaVuSans-8722"/>
       <use x="83.789062" xlink:href="#DejaVuSans-50"/>
      </g>
     </g>
    </g>
    <g id="ytick_30">
     <g id="line2d_59">
      <g>
       <use style="stroke:#000000;stroke-width:0.8;" x="172.8" xlink:href="#m90e558e5a5" y="393.494801"/>
      </g>
     </g>
     <g id="text_53">
      <!-- 0 -->
      <g transform="translate(159.4375 397.294019)scale(0.1 -0.1)">
       <use xlink:href="#DejaVuSans-48"/>
      </g>
     </g>
    </g>
   </g>
   <g id="line2d_60">
    <path clip-path="url(#pa5b31048c0)" d="M 187.122995 393.450218 
L 192.040761 394.103842 
L 193.270203 394.199378 
L 196.958527 393.870316 
L 203.105735 394.490835 
L 205.564619 394.070917 
L 209.252943 393.852222 
L 212.941268 394.38777 
L 217.859035 394.399844 
L 219.088476 394.575516 
L 221.547359 395.350039 
L 225.235684 396.228067 
L 227.694567 396.293421 
L 231.382892 397.132644 
L 233.841775 397.9456 
L 235.071217 398.112363 
L 236.300659 398.125711 
L 239.988983 398.607221 
L 241.218425 398.910013 
L 243.677308 399.83636 
L 249.824516 400.758809 
L 253.512841 401.943466 
L 255.971724 402.573016 
L 257.201166 402.679629 
L 258.430608 402.656658 
L 259.660049 402.847997 
L 262.118932 403.432586 
L 263.348374 403.723837 
L 264.577816 404.155841 
L 265.807257 404.429956 
L 268.26614 404.591551 
L 271.954465 405.389681 
L 274.413348 406.464024 
L 276.872232 407.041732 
L 279.331115 407.775261 
L 280.560556 408.062459 
L 281.789998 408.633886 
L 283.01944 409.351756 
L 287.937206 411.474813 
L 289.166648 411.777516 
L 290.396089 412.277962 
L 292.854972 413.606019 
L 294.084414 414.191742 
L 296.543297 415.579935 
L 299.00218 416.410482 
L 301.461064 417.674421 
L 302.690505 418.270617 
L 305.149388 419.982789 
L 307.608272 421.18649 
L 310.067155 422.641807 
L 311.296596 423.273458 
L 318.673246 428.663099 
L 319.902688 429.324604 
L 321.132129 430.233586 
L 322.361571 431.314409 
L 324.820454 433.203777 
L 327.279337 435.399568 
L 328.508779 436.227614 
L 329.73822 437.258745 
L 334.655987 442.260094 
L 335.885428 443.702886 
L 337.11487 444.951152 
L 339.573753 447.928818 
L 342.032636 450.837527 
L 350.638728 463.579347 
L 355.556494 471.93728 
L 358.015377 476.535674 
L 359.244819 478.601942 
L 364.162585 487.798904 
L 366.621468 492.858299 
L 369.080352 497.495564 
L 371.539235 502.31386 
L 373.998118 506.86284 
L 376.457001 511.567953 
L 378.915884 516.103705 
L 380.145326 518.362594 
L 385.063092 526.305473 
L 387.521976 529.700979 
L 388.751417 531.494477 
L 389.980859 532.952765 
L 393.669184 536.52567 
L 394.898625 537.285979 
L 396.128067 549.93458 
L 397.357508 542.482047 
L 398.58695 534.062248 
L 399.816392 546.266632 
L 401.045833 563.032425 
L 402.275275 552.807539 
L 403.504716 540.410789 
L 404.734158 555.42115 
L 405.9636 574.827122 
L 407.193041 568.096029 
L 408.422483 554.502892 
L 409.651924 564.534206 
L 410.881366 584.341671 
L 412.110808 583.215665 
L 413.340249 561.490137 
L 414.569691 568.878421 
L 415.799132 595.709231 
L 417.028574 599.350421 
L 418.258016 578.476647 
L 419.487457 574.914189 
L 420.716899 599.302344 
L 421.94634 613.033698 
L 423.175782 596.718317 
L 424.405224 584.199425 
L 426.864107 618.646582 
L 428.093548 607.003367 
L 429.32299 587.772206 
L 430.552432 594.186754 
L 431.781873 611.436298 
L 433.011315 604.553669 
L 434.240756 583.056344 
L 435.470198 582.282033 
L 436.69964 598.038833 
L 437.929081 595.545473 
L 439.158523 575.140149 
L 440.387964 571.596977 
L 441.617406 587.817709 
L 442.846848 589.665016 
L 444.076289 572.012242 
L 445.305731 568.73924 
L 446.535172 585.670379 
L 447.764614 588.469278 
L 448.994056 571.071235 
L 450.223497 568.403576 
L 451.452939 589.629764 
L 452.68238 590.270384 
L 453.911822 569.312536 
L 455.141264 573.376421 
L 456.370705 591.797159 
L 457.600147 578.656587 
L 458.829588 559.663774 
L 460.05903 574.489127 
L 461.288472 583.623343 
L 462.517913 561.820613 
L 463.747355 559.272549 
L 464.976796 580.18819 
L 466.206238 571.556294 
L 467.43568 551.704146 
L 468.665121 565.337794 
L 469.894563 575.000962 
L 471.124004 553.720254 
L 472.353446 551.679055 
L 473.582888 574.112228 
L 473.582888 574.112228 
" style="fill:none;stroke:#ff796c;stroke-linecap:square;stroke-width:1.5;"/>
   </g>
   <g id="line2d_61">
    <path clip-path="url(#pa5b31048c0)" d="M 187.122995 402.801979 
L 258.430608 402.694738 
L 312.526038 402.477684 
L 343.262078 402.136313 
L 375.22756 401.478817 
L 393.669184 401.234097 
L 402.275275 401.12581 
L 409.651924 400.943175 
L 421.94634 400.801159 
L 428.093548 400.638759 
L 431.781873 400.707697 
L 441.617406 400.962364 
L 458.829588 400.848937 
L 468.665121 400.96399 
L 473.582888 400.963471 
L 473.582888 400.963471 
" style="fill:none;stroke:#ffff14;stroke-linecap:square;stroke-width:1.5;"/>
   </g>
   <g id="line2d_62">
    <path clip-path="url(#pa5b31048c0)" d="M 187.122995 402.80197 
L 376.457001 402.693159 
L 440.387964 402.39885 
L 473.582888 402.169227 
L 473.582888 402.169227 
" style="fill:none;stroke:#014d4e;stroke-linecap:square;stroke-width:1.5;"/>
   </g>
   <g id="patch_18">
    <path d="M 172.8 629.9064 
L 172.8 382.1904 
" style="fill:none;stroke:#000000;stroke-linecap:square;stroke-linejoin:miter;stroke-width:0.8;"/>
   </g>
   <g id="patch_19">
    <path d="M 487.905882 629.9064 
L 487.905882 382.1904 
" style="fill:none;stroke:#000000;stroke-linecap:square;stroke-linejoin:miter;stroke-width:0.8;"/>
   </g>
   <g id="patch_20">
    <path d="M 172.8 629.9064 
L 487.905882 629.9064 
" style="fill:none;stroke:#000000;stroke-linecap:square;stroke-linejoin:miter;stroke-width:0.8;"/>
   </g>
   <g id="patch_21">
    <path d="M 172.8 382.1904 
L 487.905882 382.1904 
" style="fill:none;stroke:#000000;stroke-linecap:square;stroke-linejoin:miter;stroke-width:0.8;"/>
   </g>
   <g id="text_54">
    <!-- Lateral joint 3 -->
    <g transform="translate(288.687629 376.1904)scale(0.12 -0.12)">
     <use xlink:href="#DejaVuSans-76"/>
     <use x="55.712891" xlink:href="#DejaVuSans-97"/>
     <use x="116.992188" xlink:href="#DejaVuSans-116"/>
     <use x="156.201172" xlink:href="#DejaVuSans-101"/>
     <use x="217.724609" xlink:href="#DejaVuSans-114"/>
     <use x="258.837891" xlink:href="#DejaVuSans-97"/>
     <use x="320.117188" xlink:href="#DejaVuSans-108"/>
     <use x="347.900391" xlink:href="#DejaVuSans-32"/>
     <use x="379.6875" xlink:href="#DejaVuSans-106"/>
     <use x="407.470703" xlink:href="#DejaVuSans-111"/>
     <use x="468.652344" xlink:href="#DejaVuSans-105"/>
     <use x="496.435547" xlink:href="#DejaVuSans-110"/>
     <use x="559.814453" xlink:href="#DejaVuSans-116"/>
     <use x="599.023438" xlink:href="#DejaVuSans-32"/>
     <use x="630.810547" xlink:href="#DejaVuSans-51"/>
    </g>
   </g>
  </g>
  <g id="axes_5">
   <g id="patch_22">
    <path d="M 550.927059 629.9064 
L 866.032941 629.9064 
L 866.032941 382.1904 
L 550.927059 382.1904 
z
" style="fill:#ffffff;"/>
   </g>
   <g id="matplotlib.axis_9">
    <g id="xtick_21">
     <g id="line2d_63">
      <g>
       <use style="stroke:#000000;stroke-width:0.8;" x="565.250053" xlink:href="#mc34b9d191f" y="629.9064"/>
      </g>
     </g>
     <g id="text_55">
      <!-- 0 -->
      <g transform="translate(562.068803 644.504838)scale(0.1 -0.1)">
       <use xlink:href="#DejaVuSans-48"/>
      </g>
     </g>
    </g>
    <g id="xtick_22">
     <g id="line2d_64">
      <g>
       <use style="stroke:#000000;stroke-width:0.8;" x="626.722134" xlink:href="#mc34b9d191f" y="629.9064"/>
      </g>
     </g>
     <g id="text_56">
      <!-- 50 -->
      <g transform="translate(620.359634 644.504838)scale(0.1 -0.1)">
       <use xlink:href="#DejaVuSans-53"/>
       <use x="63.623047" xlink:href="#DejaVuSans-48"/>
      </g>
     </g>
    </g>
    <g id="xtick_23">
     <g id="line2d_65">
      <g>
       <use style="stroke:#000000;stroke-width:0.8;" x="688.194214" xlink:href="#mc34b9d191f" y="629.9064"/>
      </g>
     </g>
     <g id="text_57">
      <!-- 100 -->
      <g transform="translate(678.650464 644.504838)scale(0.1 -0.1)">
       <use xlink:href="#DejaVuSans-49"/>
       <use x="63.623047" xlink:href="#DejaVuSans-48"/>
       <use x="127.246094" xlink:href="#DejaVuSans-48"/>
      </g>
     </g>
    </g>
    <g id="xtick_24">
     <g id="line2d_66">
      <g>
       <use style="stroke:#000000;stroke-width:0.8;" x="749.666294" xlink:href="#mc34b9d191f" y="629.9064"/>
      </g>
     </g>
     <g id="text_58">
      <!-- 150 -->
      <g transform="translate(740.122544 644.504838)scale(0.1 -0.1)">
       <use xlink:href="#DejaVuSans-49"/>
       <use x="63.623047" xlink:href="#DejaVuSans-53"/>
       <use x="127.246094" xlink:href="#DejaVuSans-48"/>
      </g>
     </g>
    </g>
    <g id="xtick_25">
     <g id="line2d_67">
      <g>
       <use style="stroke:#000000;stroke-width:0.8;" x="811.138374" xlink:href="#mc34b9d191f" y="629.9064"/>
      </g>
     </g>
     <g id="text_59">
      <!-- 200 -->
      <g transform="translate(801.594624 644.504838)scale(0.1 -0.1)">
       <use xlink:href="#DejaVuSans-50"/>
       <use x="63.623047" xlink:href="#DejaVuSans-48"/>
       <use x="127.246094" xlink:href="#DejaVuSans-48"/>
      </g>
     </g>
    </g>
   </g>
   <g id="matplotlib.axis_10">
    <g id="ytick_31">
     <g id="line2d_68">
      <g>
       <use style="stroke:#000000;stroke-width:0.8;" x="550.927059" xlink:href="#m90e558e5a5" y="597.562752"/>
      </g>
     </g>
     <g id="text_60">
      <!-- −10 -->
      <g transform="translate(522.822371 601.361971)scale(0.1 -0.1)">
       <use xlink:href="#DejaVuSans-8722"/>
       <use x="83.789062" xlink:href="#DejaVuSans-49"/>
       <use x="147.412109" xlink:href="#DejaVuSans-48"/>
      </g>
     </g>
    </g>
    <g id="ytick_32">
     <g id="line2d_69">
      <g>
       <use style="stroke:#000000;stroke-width:0.8;" x="550.927059" xlink:href="#m90e558e5a5" y="556.752557"/>
      </g>
     </g>
     <g id="text_61">
      <!-- −8 -->
      <g transform="translate(529.184871 560.551776)scale(0.1 -0.1)">
       <use xlink:href="#DejaVuSans-8722"/>
       <use x="83.789062" xlink:href="#DejaVuSans-56"/>
      </g>
     </g>
    </g>
    <g id="ytick_33">
     <g id="line2d_70">
      <g>
       <use style="stroke:#000000;stroke-width:0.8;" x="550.927059" xlink:href="#m90e558e5a5" y="515.942363"/>
      </g>
     </g>
     <g id="text_62">
      <!-- −6 -->
      <g transform="translate(529.184871 519.741581)scale(0.1 -0.1)">
       <use xlink:href="#DejaVuSans-8722"/>
       <use x="83.789062" xlink:href="#DejaVuSans-54"/>
      </g>
     </g>
    </g>
    <g id="ytick_34">
     <g id="line2d_71">
      <g>
       <use style="stroke:#000000;stroke-width:0.8;" x="550.927059" xlink:href="#m90e558e5a5" y="475.132168"/>
      </g>
     </g>
     <g id="text_63">
      <!-- −4 -->
      <g transform="translate(529.184871 478.931387)scale(0.1 -0.1)">
       <use xlink:href="#DejaVuSans-8722"/>
       <use x="83.789062" xlink:href="#DejaVuSans-52"/>
      </g>
     </g>
    </g>
    <g id="ytick_35">
     <g id="line2d_72">
      <g>
       <use style="stroke:#000000;stroke-width:0.8;" x="550.927059" xlink:href="#m90e558e5a5" y="434.321973"/>
      </g>
     </g>
     <g id="text_64">
      <!-- −2 -->
      <g transform="translate(529.184871 438.121192)scale(0.1 -0.1)">
       <use xlink:href="#DejaVuSans-8722"/>
       <use x="83.789062" xlink:href="#DejaVuSans-50"/>
      </g>
     </g>
    </g>
    <g id="ytick_36">
     <g id="line2d_73">
      <g>
       <use style="stroke:#000000;stroke-width:0.8;" x="550.927059" xlink:href="#m90e558e5a5" y="393.511779"/>
      </g>
     </g>
     <g id="text_65">
      <!-- 0 -->
      <g transform="translate(537.564559 397.310997)scale(0.1 -0.1)">
       <use xlink:href="#DejaVuSans-48"/>
      </g>
     </g>
    </g>
   </g>
   <g id="line2d_74">
    <path clip-path="url(#pe5dc217aa2)" d="M 565.250053 393.450218 
L 566.479495 393.695076 
L 568.938378 394.373342 
L 570.16782 394.529551 
L 571.397261 394.493327 
L 575.085586 393.62176 
L 576.315028 393.717279 
L 578.773911 394.273049 
L 580.003353 394.589982 
L 581.232794 394.661444 
L 586.150561 393.665838 
L 587.380002 393.741501 
L 591.068327 394.677885 
L 593.52721 394.511074 
L 595.986094 394.121997 
L 597.215535 394.244269 
L 602.133302 395.943318 
L 603.362743 396.080079 
L 605.821626 395.889418 
L 607.051068 396.067272 
L 609.509951 396.895564 
L 611.968834 397.972393 
L 613.198276 398.153287 
L 615.657159 398.040294 
L 618.116042 398.218098 
L 619.345484 398.606121 
L 621.804367 399.702523 
L 623.033809 399.939785 
L 625.492692 400.080945 
L 626.722134 400.029087 
L 627.951575 400.124507 
L 629.181017 400.551705 
L 631.6399 401.587406 
L 632.869342 401.961709 
L 634.098783 402.202313 
L 635.328225 402.175321 
L 636.557666 402.030779 
L 637.787108 402.093907 
L 640.245991 402.743584 
L 642.704874 403.627708 
L 643.934316 403.848679 
L 646.393199 403.726594 
L 648.852082 404.00759 
L 650.081524 404.372778 
L 652.540407 405.586801 
L 653.769849 405.930892 
L 658.687615 406.832553 
L 659.917057 407.423499 
L 662.37594 408.874975 
L 664.834823 409.929001 
L 666.064265 410.231529 
L 667.293706 410.407751 
L 668.523148 410.789609 
L 672.211473 412.848694 
L 673.440914 413.604562 
L 674.670356 414.17812 
L 677.129239 414.789171 
L 679.588122 415.892088 
L 680.817564 416.602433 
L 683.276447 418.430534 
L 685.73533 419.565844 
L 689.423655 421.242148 
L 690.653097 422.132451 
L 691.882538 423.171915 
L 694.341422 424.859799 
L 695.570863 425.650509 
L 699.259188 427.600777 
L 702.947513 430.68552 
L 704.176954 431.828633 
L 705.406396 432.794609 
L 707.865279 434.439427 
L 710.324162 436.596359 
L 711.553604 437.839503 
L 714.012487 440.759439 
L 717.700812 444.585363 
L 720.159695 447.30579 
L 723.84802 452.746087 
L 727.536345 458.243372 
L 728.765786 459.957744 
L 731.22467 464.0635 
L 733.683553 468.420295 
L 736.142436 473.037559 
L 738.601319 477.24366 
L 742.289644 484.059422 
L 745.977969 491.645261 
L 749.666294 498.785116 
L 752.125177 503.366491 
L 754.58406 508.269052 
L 758.272385 515.305592 
L 763.190151 523.129253 
L 768.107918 530.102067 
L 770.566801 532.48405 
L 771.796242 533.481474 
L 773.025684 534.115276 
L 774.255126 544.881118 
L 775.484567 541.000869 
L 776.714009 536.232712 
L 777.94345 546.197806 
L 779.172892 558.349326 
L 780.402334 550.8702 
L 781.631775 542.297019 
L 782.861217 554.33472 
L 784.090658 569.924206 
L 785.3201 566.447822 
L 786.549542 557.695267 
L 787.778983 565.73925 
L 789.008425 580.574497 
L 790.237866 580.223023 
L 791.467308 566.609108 
L 792.69675 573.896682 
L 793.926191 595.089152 
L 795.155633 599.539266 
L 796.385074 586.328217 
L 797.614516 585.362977 
L 798.843958 604.076471 
L 800.073399 614.818618 
L 801.302841 603.759401 
L 802.532282 594.970384 
L 804.991166 618.646582 
L 806.220607 610.013227 
L 807.450049 596.225441 
L 808.67949 600.775057 
L 809.908932 613.140493 
L 811.138374 608.592067 
L 812.367815 593.724772 
L 813.597257 593.294742 
L 814.826698 604.191656 
L 816.05614 601.893243 
L 817.285582 586.712216 
L 818.515023 583.273128 
L 819.744465 593.723518 
L 820.973906 594.089238 
L 822.203348 580.820529 
L 823.43279 577.856029 
L 824.662231 589.282689 
L 825.891673 590.819513 
L 827.121115 578.187719 
L 828.350556 576.158311 
L 829.579998 594.302084 
L 830.809439 597.654975 
L 832.038881 584.531019 
L 833.268323 587.505704 
L 834.497764 599.176946 
L 835.727206 587.618387 
L 836.956647 571.989448 
L 838.186089 581.294192 
L 839.415531 587.739704 
L 840.644972 573.072313 
L 841.874414 572.430957 
L 843.103855 588.000613 
L 844.333297 581.227247 
L 845.562739 565.040651 
L 846.79218 571.948028 
L 848.021622 575.945046 
L 849.251063 558.645777 
L 850.480505 556.908819 
L 851.709947 574.724752 
L 851.709947 574.724752 
" style="fill:none;stroke:#ff796c;stroke-linecap:square;stroke-width:1.5;"/>
   </g>
   <g id="line2d_75">
    <path clip-path="url(#pe5dc217aa2)" d="M 565.250053 401.881337 
L 595.986094 401.986953 
L 704.176954 402.688948 
L 731.22467 403.199944 
L 769.337359 403.863732 
L 784.090658 403.784145 
L 791.467308 403.575034 
L 797.614516 403.381285 
L 802.532282 403.478899 
L 808.67949 403.631607 
L 817.285582 403.698126 
L 822.203348 404.089688 
L 827.121115 404.481629 
L 832.038881 404.606199 
L 840.644972 404.620379 
L 851.709947 404.223157 
L 851.709947 404.223157 
" style="fill:none;stroke:#ffff14;stroke-linecap:square;stroke-width:1.5;"/>
   </g>
   <g id="line2d_76">
    <path clip-path="url(#pe5dc217aa2)" d="M 565.250053 401.881278 
L 851.709947 401.796079 
L 851.709947 401.796079 
" style="fill:none;stroke:#014d4e;stroke-linecap:square;stroke-width:1.5;"/>
   </g>
   <g id="patch_23">
    <path d="M 550.927059 629.9064 
L 550.927059 382.1904 
" style="fill:none;stroke:#000000;stroke-linecap:square;stroke-linejoin:miter;stroke-width:0.8;"/>
   </g>
   <g id="patch_24">
    <path d="M 866.032941 629.9064 
L 866.032941 382.1904 
" style="fill:none;stroke:#000000;stroke-linecap:square;stroke-linejoin:miter;stroke-width:0.8;"/>
   </g>
   <g id="patch_25">
    <path d="M 550.927059 629.9064 
L 866.032941 629.9064 
" style="fill:none;stroke:#000000;stroke-linecap:square;stroke-linejoin:miter;stroke-width:0.8;"/>
   </g>
   <g id="patch_26">
    <path d="M 550.927059 382.1904 
L 866.032941 382.1904 
" style="fill:none;stroke:#000000;stroke-linecap:square;stroke-linejoin:miter;stroke-width:0.8;"/>
   </g>
   <g id="text_66">
    <!-- Lateral joint 4 -->
    <g transform="translate(666.814687 376.1904)scale(0.12 -0.12)">
     <use xlink:href="#DejaVuSans-76"/>
     <use x="55.712891" xlink:href="#DejaVuSans-97"/>
     <use x="116.992188" xlink:href="#DejaVuSans-116"/>
     <use x="156.201172" xlink:href="#DejaVuSans-101"/>
     <use x="217.724609" xlink:href="#DejaVuSans-114"/>
     <use x="258.837891" xlink:href="#DejaVuSans-97"/>
     <use x="320.117188" xlink:href="#DejaVuSans-108"/>
     <use x="347.900391" xlink:href="#DejaVuSans-32"/>
     <use x="379.6875" xlink:href="#DejaVuSans-106"/>
     <use x="407.470703" xlink:href="#DejaVuSans-111"/>
     <use x="468.652344" xlink:href="#DejaVuSans-105"/>
     <use x="496.435547" xlink:href="#DejaVuSans-110"/>
     <use x="559.814453" xlink:href="#DejaVuSans-116"/>
     <use x="599.023438" xlink:href="#DejaVuSans-32"/>
     <use x="630.810547" xlink:href="#DejaVuSans-52"/>
    </g>
   </g>
  </g>
  <g id="axes_6">
   <g id="patch_27">
    <path d="M 929.054118 629.9064 
L 1244.16 629.9064 
L 1244.16 382.1904 
L 929.054118 382.1904 
z
" style="fill:#ffffff;"/>
   </g>
   <g id="matplotlib.axis_11">
    <g id="xtick_26">
     <g id="line2d_77">
      <g>
       <use style="stroke:#000000;stroke-width:0.8;" x="929.054118" xlink:href="#mc34b9d191f" y="629.9064"/>
      </g>
     </g>
     <g id="text_67">
      <!-- 0.0 -->
      <g transform="translate(921.102555 644.504838)scale(0.1 -0.1)">
       <use xlink:href="#DejaVuSans-48"/>
       <use x="63.623047" xlink:href="#DejaVuSans-46"/>
       <use x="95.410156" xlink:href="#DejaVuSans-48"/>
      </g>
     </g>
    </g>
    <g id="xtick_27">
     <g id="line2d_78">
      <g>
       <use style="stroke:#000000;stroke-width:0.8;" x="992.075294" xlink:href="#mc34b9d191f" y="629.9064"/>
      </g>
     </g>
     <g id="text_68">
      <!-- 0.2 -->
      <g transform="translate(984.123732 644.504838)scale(0.1 -0.1)">
       <use xlink:href="#DejaVuSans-48"/>
       <use x="63.623047" xlink:href="#DejaVuSans-46"/>
       <use x="95.410156" xlink:href="#DejaVuSans-50"/>
      </g>
     </g>
    </g>
    <g id="xtick_28">
     <g id="line2d_79">
      <g>
       <use style="stroke:#000000;stroke-width:0.8;" x="1055.096471" xlink:href="#mc34b9d191f" y="629.9064"/>
      </g>
     </g>
     <g id="text_69">
      <!-- 0.4 -->
      <g transform="translate(1047.144908 644.504838)scale(0.1 -0.1)">
       <use xlink:href="#DejaVuSans-48"/>
       <use x="63.623047" xlink:href="#DejaVuSans-46"/>
       <use x="95.410156" xlink:href="#DejaVuSans-52"/>
      </g>
     </g>
    </g>
    <g id="xtick_29">
     <g id="line2d_80">
      <g>
       <use style="stroke:#000000;stroke-width:0.8;" x="1118.117647" xlink:href="#mc34b9d191f" y="629.9064"/>
      </g>
     </g>
     <g id="text_70">
      <!-- 0.6 -->
      <g transform="translate(1110.166085 644.504838)scale(0.1 -0.1)">
       <use xlink:href="#DejaVuSans-48"/>
       <use x="63.623047" xlink:href="#DejaVuSans-46"/>
       <use x="95.410156" xlink:href="#DejaVuSans-54"/>
      </g>
     </g>
    </g>
    <g id="xtick_30">
     <g id="line2d_81">
      <g>
       <use style="stroke:#000000;stroke-width:0.8;" x="1181.138824" xlink:href="#mc34b9d191f" y="629.9064"/>
      </g>
     </g>
     <g id="text_71">
      <!-- 0.8 -->
      <g transform="translate(1173.187261 644.504838)scale(0.1 -0.1)">
       <use xlink:href="#DejaVuSans-48"/>
       <use x="63.623047" xlink:href="#DejaVuSans-46"/>
       <use x="95.410156" xlink:href="#DejaVuSans-56"/>
      </g>
     </g>
    </g>
    <g id="xtick_31">
     <g id="line2d_82">
      <g>
       <use style="stroke:#000000;stroke-width:0.8;" x="1244.16" xlink:href="#mc34b9d191f" y="629.9064"/>
      </g>
     </g>
     <g id="text_72">
      <!-- 1.0 -->
      <g transform="translate(1236.208438 644.504838)scale(0.1 -0.1)">
       <use xlink:href="#DejaVuSans-49"/>
       <use x="63.623047" xlink:href="#DejaVuSans-46"/>
       <use x="95.410156" xlink:href="#DejaVuSans-48"/>
      </g>
     </g>
    </g>
   </g>
   <g id="matplotlib.axis_12">
    <g id="ytick_37">
     <g id="line2d_83">
      <g>
       <use style="stroke:#000000;stroke-width:0.8;" x="929.054118" xlink:href="#m90e558e5a5" y="629.9064"/>
      </g>
     </g>
     <g id="text_73">
      <!-- 0.0 -->
      <g transform="translate(906.150993 633.705619)scale(0.1 -0.1)">
       <use xlink:href="#DejaVuSans-48"/>
       <use x="63.623047" xlink:href="#DejaVuSans-46"/>
       <use x="95.410156" xlink:href="#DejaVuSans-48"/>
      </g>
     </g>
    </g>
    <g id="ytick_38">
     <g id="line2d_84">
      <g>
       <use style="stroke:#000000;stroke-width:0.8;" x="929.054118" xlink:href="#m90e558e5a5" y="580.3632"/>
      </g>
     </g>
     <g id="text_74">
      <!-- 0.2 -->
      <g transform="translate(906.150993 584.162419)scale(0.1 -0.1)">
       <use xlink:href="#DejaVuSans-48"/>
       <use x="63.623047" xlink:href="#DejaVuSans-46"/>
       <use x="95.410156" xlink:href="#DejaVuSans-50"/>
      </g>
     </g>
    </g>
    <g id="ytick_39">
     <g id="line2d_85">
      <g>
       <use style="stroke:#000000;stroke-width:0.8;" x="929.054118" xlink:href="#m90e558e5a5" y="530.82"/>
      </g>
     </g>
     <g id="text_75">
      <!-- 0.4 -->
      <g transform="translate(906.150993 534.619219)scale(0.1 -0.1)">
       <use xlink:href="#DejaVuSans-48"/>
       <use x="63.623047" xlink:href="#DejaVuSans-46"/>
       <use x="95.410156" xlink:href="#DejaVuSans-52"/>
      </g>
     </g>
    </g>
    <g id="ytick_40">
     <g id="line2d_86">
      <g>
       <use style="stroke:#000000;stroke-width:0.8;" x="929.054118" xlink:href="#m90e558e5a5" y="481.2768"/>
      </g>
     </g>
     <g id="text_76">
      <!-- 0.6 -->
      <g transform="translate(906.150993 485.076019)scale(0.1 -0.1)">
       <use xlink:href="#DejaVuSans-48"/>
       <use x="63.623047" xlink:href="#DejaVuSans-46"/>
       <use x="95.410156" xlink:href="#DejaVuSans-54"/>
      </g>
     </g>
    </g>
    <g id="ytick_41">
     <g id="line2d_87">
      <g>
       <use style="stroke:#000000;stroke-width:0.8;" x="929.054118" xlink:href="#m90e558e5a5" y="431.7336"/>
      </g>
     </g>
     <g id="text_77">
      <!-- 0.8 -->
      <g transform="translate(906.150993 435.532819)scale(0.1 -0.1)">
       <use xlink:href="#DejaVuSans-48"/>
       <use x="63.623047" xlink:href="#DejaVuSans-46"/>
       <use x="95.410156" xlink:href="#DejaVuSans-56"/>
      </g>
     </g>
    </g>
    <g id="ytick_42">
     <g id="line2d_88">
      <g>
       <use style="stroke:#000000;stroke-width:0.8;" x="929.054118" xlink:href="#m90e558e5a5" y="382.1904"/>
      </g>
     </g>
     <g id="text_78">
      <!-- 1.0 -->
      <g transform="translate(906.150993 385.989619)scale(0.1 -0.1)">
       <use xlink:href="#DejaVuSans-49"/>
       <use x="63.623047" xlink:href="#DejaVuSans-46"/>
       <use x="95.410156" xlink:href="#DejaVuSans-48"/>
      </g>
     </g>
    </g>
   </g>
   <g id="patch_28">
    <path d="M 929.054118 629.9064 
L 929.054118 382.1904 
" style="fill:none;stroke:#000000;stroke-linecap:square;stroke-linejoin:miter;stroke-width:0.8;"/>
   </g>
   <g id="patch_29">
    <path d="M 1244.16 629.9064 
L 1244.16 382.1904 
" style="fill:none;stroke:#000000;stroke-linecap:square;stroke-linejoin:miter;stroke-width:0.8;"/>
   </g>
   <g id="patch_30">
    <path d="M 929.054118 629.9064 
L 1244.16 629.9064 
" style="fill:none;stroke:#000000;stroke-linecap:square;stroke-linejoin:miter;stroke-width:0.8;"/>
   </g>
   <g id="patch_31">
    <path d="M 929.054118 382.1904 
L 1244.16 382.1904 
" style="fill:none;stroke:#000000;stroke-linecap:square;stroke-linejoin:miter;stroke-width:0.8;"/>
   </g>
  </g>
  <g id="legend_1">
   <g id="patch_32">
    <path d="M 1308.251562 377.53625 
L 1375.4 377.53625 
Q 1377.4 377.53625 1377.4 375.53625 
L 1377.4 332.22375 
Q 1377.4 330.22375 1375.4 330.22375 
L 1308.251562 330.22375 
Q 1306.251562 330.22375 1306.251562 332.22375 
L 1306.251562 375.53625 
Q 1306.251562 377.53625 1308.251562 377.53625 
z
" style="fill:#ffffff;opacity:0.8;stroke:#cccccc;stroke-linejoin:miter;"/>
   </g>
   <g id="line2d_89">
    <path d="M 1310.251562 338.322187 
L 1330.251562 338.322187 
" style="fill:none;stroke:#ff796c;stroke-linecap:square;stroke-width:1.5;"/>
   </g>
   <g id="line2d_90"/>
   <g id="text_79">
    <!-- Torque -->
    <defs>
     <path d="M -0.296875 72.90625 
L 61.375 72.90625 
L 61.375 64.59375 
L 35.5 64.59375 
L 35.5 0 
L 25.59375 0 
L 25.59375 64.59375 
L -0.296875 64.59375 
z
" id="DejaVuSans-84"/>
     <path d="M 14.796875 27.296875 
Q 14.796875 17.390625 18.875 11.75 
Q 22.953125 6.109375 30.078125 6.109375 
Q 37.203125 6.109375 41.296875 11.75 
Q 45.40625 17.390625 45.40625 27.296875 
Q 45.40625 37.203125 41.296875 42.84375 
Q 37.203125 48.484375 30.078125 48.484375 
Q 22.953125 48.484375 18.875 42.84375 
Q 14.796875 37.203125 14.796875 27.296875 
z
M 45.40625 8.203125 
Q 42.578125 3.328125 38.25 0.953125 
Q 33.9375 -1.421875 27.875 -1.421875 
Q 17.96875 -1.421875 11.734375 6.484375 
Q 5.515625 14.40625 5.515625 27.296875 
Q 5.515625 40.1875 11.734375 48.09375 
Q 17.96875 56 27.875 56 
Q 33.9375 56 38.25 53.625 
Q 42.578125 51.265625 45.40625 46.390625 
L 45.40625 54.6875 
L 54.390625 54.6875 
L 54.390625 -20.796875 
L 45.40625 -20.796875 
z
" id="DejaVuSans-113"/>
     <path d="M 8.5 21.578125 
L 8.5 54.6875 
L 17.484375 54.6875 
L 17.484375 21.921875 
Q 17.484375 14.15625 20.5 10.265625 
Q 23.53125 6.390625 29.59375 6.390625 
Q 36.859375 6.390625 41.078125 11.03125 
Q 45.3125 15.671875 45.3125 23.6875 
L 45.3125 54.6875 
L 54.296875 54.6875 
L 54.296875 0 
L 45.3125 0 
L 45.3125 8.40625 
Q 42.046875 3.421875 37.71875 1 
Q 33.40625 -1.421875 27.6875 -1.421875 
Q 18.265625 -1.421875 13.375 4.4375 
Q 8.5 10.296875 8.5 21.578125 
z
M 31.109375 56 
z
" id="DejaVuSans-117"/>
    </defs>
    <g transform="translate(1338.251562 341.822187)scale(0.1 -0.1)">
     <use xlink:href="#DejaVuSans-84"/>
     <use x="60.818359" xlink:href="#DejaVuSans-111"/>
     <use x="122" xlink:href="#DejaVuSans-114"/>
     <use x="163.097656" xlink:href="#DejaVuSans-113"/>
     <use x="226.574219" xlink:href="#DejaVuSans-117"/>
     <use x="289.953125" xlink:href="#DejaVuSans-101"/>
    </g>
   </g>
   <g id="line2d_91">
    <path d="M 1310.251562 353.000313 
L 1330.251562 353.000313 
" style="fill:none;stroke:#ffff14;stroke-linecap:square;stroke-width:1.5;"/>
   </g>
   <g id="line2d_92"/>
   <g id="text_80">
    <!-- q -->
    <g transform="translate(1338.251562 356.500313)scale(0.1 -0.1)">
     <use xlink:href="#DejaVuSans-113"/>
    </g>
   </g>
   <g id="line2d_93">
    <path d="M 1310.251562 367.678437 
L 1330.251562 367.678437 
" style="fill:none;stroke:#014d4e;stroke-linecap:square;stroke-width:1.5;"/>
   </g>
   <g id="line2d_94"/>
   <g id="text_81">
    <!-- q_des -->
    <defs>
     <path d="M 50.984375 -16.609375 
L 50.984375 -23.578125 
L -0.984375 -23.578125 
L -0.984375 -16.609375 
z
" id="DejaVuSans-95"/>
     <path d="M 45.40625 46.390625 
L 45.40625 75.984375 
L 54.390625 75.984375 
L 54.390625 0 
L 45.40625 0 
L 45.40625 8.203125 
Q 42.578125 3.328125 38.25 0.953125 
Q 33.9375 -1.421875 27.875 -1.421875 
Q 17.96875 -1.421875 11.734375 6.484375 
Q 5.515625 14.40625 5.515625 27.296875 
Q 5.515625 40.1875 11.734375 48.09375 
Q 17.96875 56 27.875 56 
Q 33.9375 56 38.25 53.625 
Q 42.578125 51.265625 45.40625 46.390625 
z
M 14.796875 27.296875 
Q 14.796875 17.390625 18.875 11.75 
Q 22.953125 6.109375 30.078125 6.109375 
Q 37.203125 6.109375 41.296875 11.75 
Q 45.40625 17.390625 45.40625 27.296875 
Q 45.40625 37.203125 41.296875 42.84375 
Q 37.203125 48.484375 30.078125 48.484375 
Q 22.953125 48.484375 18.875 42.84375 
Q 14.796875 37.203125 14.796875 27.296875 
z
" id="DejaVuSans-100"/>
     <path d="M 44.28125 53.078125 
L 44.28125 44.578125 
Q 40.484375 46.53125 36.375 47.5 
Q 32.28125 48.484375 27.875 48.484375 
Q 21.1875 48.484375 17.84375 46.4375 
Q 14.5 44.390625 14.5 40.28125 
Q 14.5 37.15625 16.890625 35.375 
Q 19.28125 33.59375 26.515625 31.984375 
L 29.59375 31.296875 
Q 39.15625 29.25 43.1875 25.515625 
Q 47.21875 21.78125 47.21875 15.09375 
Q 47.21875 7.46875 41.1875 3.015625 
Q 35.15625 -1.421875 24.609375 -1.421875 
Q 20.21875 -1.421875 15.453125 -0.5625 
Q 10.6875 0.296875 5.421875 2 
L 5.421875 11.28125 
Q 10.40625 8.6875 15.234375 7.390625 
Q 20.0625 6.109375 24.8125 6.109375 
Q 31.15625 6.109375 34.5625 8.28125 
Q 37.984375 10.453125 37.984375 14.40625 
Q 37.984375 18.0625 35.515625 20.015625 
Q 33.0625 21.96875 24.703125 23.78125 
L 21.578125 24.515625 
Q 13.234375 26.265625 9.515625 29.90625 
Q 5.8125 33.546875 5.8125 39.890625 
Q 5.8125 47.609375 11.28125 51.796875 
Q 16.75 56 26.8125 56 
Q 31.78125 56 36.171875 55.265625 
Q 40.578125 54.546875 44.28125 53.078125 
z
" id="DejaVuSans-115"/>
    </defs>
    <g transform="translate(1338.251562 371.178437)scale(0.1 -0.1)">
     <use xlink:href="#DejaVuSans-113"/>
     <use x="63.476562" xlink:href="#DejaVuSans-95"/>
     <use x="113.476562" xlink:href="#DejaVuSans-100"/>
     <use x="176.953125" xlink:href="#DejaVuSans-101"/>
     <use x="238.476562" xlink:href="#DejaVuSans-115"/>
    </g>
   </g>
  </g>
 </g>
 <defs>
  <clipPath id="pe564343f0a">
   <rect height="247.716" width="315.105882" x="172.8" y="84.9312"/>
  </clipPath>
  <clipPath id="p7847868ec2">
   <rect height="247.716" width="315.105882" x="550.927059" y="84.9312"/>
  </clipPath>
  <clipPath id="p0a1c2e178b">
   <rect height="247.716" width="315.105882" x="929.054118" y="84.9312"/>
  </clipPath>
  <clipPath id="pa5b31048c0">
   <rect height="247.716" width="315.105882" x="172.8" y="382.1904"/>
  </clipPath>
  <clipPath id="pe5dc217aa2">
   <rect height="247.716" width="315.105882" x="550.927059" y="382.1904"/>
  </clipPath>
 </defs>
</svg>
