<?xml version="1.0" encoding="utf-8" standalone="no"?>
<!DOCTYPE svg PUBLIC "-//W3C//DTD SVG 1.1//EN"
  "http://www.w3.org/Graphics/SVG/1.1/DTD/svg11.dtd">
<!-- Created with matplotlib (https://matplotlib.org/) -->
<svg height="707.76pt" version="1.1" viewBox="0 0 1382.4 707.76" width="1382.4pt" xmlns="http://www.w3.org/2000/svg" xmlns:xlink="http://www.w3.org/1999/xlink">
 <defs>
  <style type="text/css">
*{stroke-linecap:butt;stroke-linejoin:round;}
  </style>
 </defs>
 <g id="figure_1">
  <g id="patch_1">
   <path d="M 0 707.76 
L 1382.4 707.76 
L 1382.4 0 
L 0 0 
z
" style="fill:#ffffff;"/>
  </g>
  <g id="axes_1">
   <g id="patch_2">
    <path d="M 172.8 332.6472 
L 659.781818 332.6472 
L 659.781818 84.9312 
L 172.8 84.9312 
z
" style="fill:#ffffff;"/>
   </g>
   <g id="matplotlib.axis_1">
    <g id="xtick_1">
     <g id="line2d_1">
      <defs>
       <path d="M 0 0 
L 0 3.5 
" id="m99c68f13c5" style="stroke:#000000;stroke-width:0.8;"/>
      </defs>
      <g>
       <use style="stroke:#000000;stroke-width:0.8;" x="194.935537" xlink:href="#m99c68f13c5" y="332.6472"/>
      </g>
     </g>
     <g id="text_1">
      <!-- 0 -->
      <defs>
       <path d="M 31.78125 66.40625 
Q 24.171875 66.40625 20.328125 58.90625 
Q 16.5 51.421875 16.5 36.375 
Q 16.5 21.390625 20.328125 13.890625 
Q 24.171875 6.390625 31.78125 6.390625 
Q 39.453125 6.390625 43.28125 13.890625 
Q 47.125 21.390625 47.125 36.375 
Q 47.125 51.421875 43.28125 58.90625 
Q 39.453125 66.40625 31.78125 66.40625 
z
M 31.78125 74.21875 
Q 44.046875 74.21875 50.515625 64.515625 
Q 56.984375 54.828125 56.984375 36.375 
Q 56.984375 17.96875 50.515625 8.265625 
Q 44.046875 -1.421875 31.78125 -1.421875 
Q 19.53125 -1.421875 13.0625 8.265625 
Q 6.59375 17.96875 6.59375 36.375 
Q 6.59375 54.828125 13.0625 64.515625 
Q 19.53125 74.21875 31.78125 74.21875 
z
" id="DejaVuSans-48"/>
      </defs>
      <g transform="translate(191.754287 347.245637)scale(0.1 -0.1)">
       <use xlink:href="#DejaVuSans-48"/>
      </g>
     </g>
    </g>
    <g id="xtick_2">
     <g id="line2d_2">
      <g>
       <use style="stroke:#000000;stroke-width:0.8;" x="289.937843" xlink:href="#m99c68f13c5" y="332.6472"/>
      </g>
     </g>
     <g id="text_2">
      <!-- 50 -->
      <defs>
       <path d="M 10.796875 72.90625 
L 49.515625 72.90625 
L 49.515625 64.59375 
L 19.828125 64.59375 
L 19.828125 46.734375 
Q 21.96875 47.46875 24.109375 47.828125 
Q 26.265625 48.1875 28.421875 48.1875 
Q 40.625 48.1875 47.75 41.5 
Q 54.890625 34.8125 54.890625 23.390625 
Q 54.890625 11.625 47.5625 5.09375 
Q 40.234375 -1.421875 26.90625 -1.421875 
Q 22.3125 -1.421875 17.546875 -0.640625 
Q 12.796875 0.140625 7.71875 1.703125 
L 7.71875 11.625 
Q 12.109375 9.234375 16.796875 8.0625 
Q 21.484375 6.890625 26.703125 6.890625 
Q 35.15625 6.890625 40.078125 11.328125 
Q 45.015625 15.765625 45.015625 23.390625 
Q 45.015625 31 40.078125 35.4375 
Q 35.15625 39.890625 26.703125 39.890625 
Q 22.75 39.890625 18.8125 39.015625 
Q 14.890625 38.140625 10.796875 36.28125 
z
" id="DejaVuSans-53"/>
      </defs>
      <g transform="translate(283.575343 347.245637)scale(0.1 -0.1)">
       <use xlink:href="#DejaVuSans-53"/>
       <use x="63.623047" xlink:href="#DejaVuSans-48"/>
      </g>
     </g>
    </g>
    <g id="xtick_3">
     <g id="line2d_3">
      <g>
       <use style="stroke:#000000;stroke-width:0.8;" x="384.940148" xlink:href="#m99c68f13c5" y="332.6472"/>
      </g>
     </g>
     <g id="text_3">
      <!-- 100 -->
      <defs>
       <path d="M 12.40625 8.296875 
L 28.515625 8.296875 
L 28.515625 63.921875 
L 10.984375 60.40625 
L 10.984375 69.390625 
L 28.421875 72.90625 
L 38.28125 72.90625 
L 38.28125 8.296875 
L 54.390625 8.296875 
L 54.390625 0 
L 12.40625 0 
z
" id="DejaVuSans-49"/>
      </defs>
      <g transform="translate(375.396398 347.245637)scale(0.1 -0.1)">
       <use xlink:href="#DejaVuSans-49"/>
       <use x="63.623047" xlink:href="#DejaVuSans-48"/>
       <use x="127.246094" xlink:href="#DejaVuSans-48"/>
      </g>
     </g>
    </g>
    <g id="xtick_4">
     <g id="line2d_4">
      <g>
       <use style="stroke:#000000;stroke-width:0.8;" x="479.942454" xlink:href="#m99c68f13c5" y="332.6472"/>
      </g>
     </g>
     <g id="text_4">
      <!-- 150 -->
      <g transform="translate(470.398704 347.245637)scale(0.1 -0.1)">
       <use xlink:href="#DejaVuSans-49"/>
       <use x="63.623047" xlink:href="#DejaVuSans-53"/>
       <use x="127.246094" xlink:href="#DejaVuSans-48"/>
      </g>
     </g>
    </g>
    <g id="xtick_5">
     <g id="line2d_5">
      <g>
       <use style="stroke:#000000;stroke-width:0.8;" x="574.944759" xlink:href="#m99c68f13c5" y="332.6472"/>
      </g>
     </g>
     <g id="text_5">
      <!-- 200 -->
      <defs>
       <path d="M 19.1875 8.296875 
L 53.609375 8.296875 
L 53.609375 0 
L 7.328125 0 
L 7.328125 8.296875 
Q 12.9375 14.109375 22.625 23.890625 
Q 32.328125 33.6875 34.8125 36.53125 
Q 39.546875 41.84375 41.421875 45.53125 
Q 43.3125 49.21875 43.3125 52.78125 
Q 43.3125 58.59375 39.234375 62.25 
Q 35.15625 65.921875 28.609375 65.921875 
Q 23.96875 65.921875 18.8125 64.3125 
Q 13.671875 62.703125 7.8125 59.421875 
L 7.8125 69.390625 
Q 13.765625 71.78125 18.9375 73 
Q 24.125 74.21875 28.421875 74.21875 
Q 39.75 74.21875 46.484375 68.546875 
Q 53.21875 62.890625 53.21875 53.421875 
Q 53.21875 48.921875 51.53125 44.890625 
Q 49.859375 40.875 45.40625 35.40625 
Q 44.1875 33.984375 37.640625 27.21875 
Q 31.109375 20.453125 19.1875 8.296875 
z
" id="DejaVuSans-50"/>
      </defs>
      <g transform="translate(565.401009 347.245637)scale(0.1 -0.1)">
       <use xlink:href="#DejaVuSans-50"/>
       <use x="63.623047" xlink:href="#DejaVuSans-48"/>
       <use x="127.246094" xlink:href="#DejaVuSans-48"/>
      </g>
     </g>
    </g>
   </g>
   <g id="matplotlib.axis_2">
    <g id="ytick_1">
     <g id="line2d_6">
      <defs>
       <path d="M 0 0 
L -3.5 0 
" id="m667c6b5144" style="stroke:#000000;stroke-width:0.8;"/>
      </defs>
      <g>
       <use style="stroke:#000000;stroke-width:0.8;" x="172.8" xlink:href="#m667c6b5144" y="323.660767"/>
      </g>
     </g>
     <g id="text_6">
      <!-- −14 -->
      <defs>
       <path d="M 10.59375 35.5 
L 73.1875 35.5 
L 73.1875 27.203125 
L 10.59375 27.203125 
z
" id="DejaVuSans-8722"/>
       <path d="M 37.796875 64.3125 
L 12.890625 25.390625 
L 37.796875 25.390625 
z
M 35.203125 72.90625 
L 47.609375 72.90625 
L 47.609375 25.390625 
L 58.015625 25.390625 
L 58.015625 17.1875 
L 47.609375 17.1875 
L 47.609375 0 
L 37.796875 0 
L 37.796875 17.1875 
L 4.890625 17.1875 
L 4.890625 26.703125 
z
" id="DejaVuSans-52"/>
      </defs>
      <g transform="translate(144.695312 327.459986)scale(0.1 -0.1)">
       <use xlink:href="#DejaVuSans-8722"/>
       <use x="83.789062" xlink:href="#DejaVuSans-49"/>
       <use x="147.412109" xlink:href="#DejaVuSans-52"/>
      </g>
     </g>
    </g>
    <g id="ytick_2">
     <g id="line2d_7">
      <g>
       <use style="stroke:#000000;stroke-width:0.8;" x="172.8" xlink:href="#m667c6b5144" y="292.05172"/>
      </g>
     </g>
     <g id="text_7">
      <!-- −12 -->
      <g transform="translate(144.695312 295.850939)scale(0.1 -0.1)">
       <use xlink:href="#DejaVuSans-8722"/>
       <use x="83.789062" xlink:href="#DejaVuSans-49"/>
       <use x="147.412109" xlink:href="#DejaVuSans-50"/>
      </g>
     </g>
    </g>
    <g id="ytick_3">
     <g id="line2d_8">
      <g>
       <use style="stroke:#000000;stroke-width:0.8;" x="172.8" xlink:href="#m667c6b5144" y="260.442674"/>
      </g>
     </g>
     <g id="text_8">
      <!-- −10 -->
      <g transform="translate(144.695312 264.241892)scale(0.1 -0.1)">
       <use xlink:href="#DejaVuSans-8722"/>
       <use x="83.789062" xlink:href="#DejaVuSans-49"/>
       <use x="147.412109" xlink:href="#DejaVuSans-48"/>
      </g>
     </g>
    </g>
    <g id="ytick_4">
     <g id="line2d_9">
      <g>
       <use style="stroke:#000000;stroke-width:0.8;" x="172.8" xlink:href="#m667c6b5144" y="228.833627"/>
      </g>
     </g>
     <g id="text_9">
      <!-- −8 -->
      <defs>
       <path d="M 31.78125 34.625 
Q 24.75 34.625 20.71875 30.859375 
Q 16.703125 27.09375 16.703125 20.515625 
Q 16.703125 13.921875 20.71875 10.15625 
Q 24.75 6.390625 31.78125 6.390625 
Q 38.8125 6.390625 42.859375 10.171875 
Q 46.921875 13.96875 46.921875 20.515625 
Q 46.921875 27.09375 42.890625 30.859375 
Q 38.875 34.625 31.78125 34.625 
z
M 21.921875 38.8125 
Q 15.578125 40.375 12.03125 44.71875 
Q 8.5 49.078125 8.5 55.328125 
Q 8.5 64.0625 14.71875 69.140625 
Q 20.953125 74.21875 31.78125 74.21875 
Q 42.671875 74.21875 48.875 69.140625 
Q 55.078125 64.0625 55.078125 55.328125 
Q 55.078125 49.078125 51.53125 44.71875 
Q 48 40.375 41.703125 38.8125 
Q 48.828125 37.15625 52.796875 32.3125 
Q 56.78125 27.484375 56.78125 20.515625 
Q 56.78125 9.90625 50.3125 4.234375 
Q 43.84375 -1.421875 31.78125 -1.421875 
Q 19.734375 -1.421875 13.25 4.234375 
Q 6.78125 9.90625 6.78125 20.515625 
Q 6.78125 27.484375 10.78125 32.3125 
Q 14.796875 37.15625 21.921875 38.8125 
z
M 18.3125 54.390625 
Q 18.3125 48.734375 21.84375 45.5625 
Q 25.390625 42.390625 31.78125 42.390625 
Q 38.140625 42.390625 41.71875 45.5625 
Q 45.3125 48.734375 45.3125 54.390625 
Q 45.3125 60.0625 41.71875 63.234375 
Q 38.140625 66.40625 31.78125 66.40625 
Q 25.390625 66.40625 21.84375 63.234375 
Q 18.3125 60.0625 18.3125 54.390625 
z
" id="DejaVuSans-56"/>
      </defs>
      <g transform="translate(151.057812 232.632846)scale(0.1 -0.1)">
       <use xlink:href="#DejaVuSans-8722"/>
       <use x="83.789062" xlink:href="#DejaVuSans-56"/>
      </g>
     </g>
    </g>
    <g id="ytick_5">
     <g id="line2d_10">
      <g>
       <use style="stroke:#000000;stroke-width:0.8;" x="172.8" xlink:href="#m667c6b5144" y="197.22458"/>
      </g>
     </g>
     <g id="text_10">
      <!-- −6 -->
      <defs>
       <path d="M 33.015625 40.375 
Q 26.375 40.375 22.484375 35.828125 
Q 18.609375 31.296875 18.609375 23.390625 
Q 18.609375 15.53125 22.484375 10.953125 
Q 26.375 6.390625 33.015625 6.390625 
Q 39.65625 6.390625 43.53125 10.953125 
Q 47.40625 15.53125 47.40625 23.390625 
Q 47.40625 31.296875 43.53125 35.828125 
Q 39.65625 40.375 33.015625 40.375 
z
M 52.59375 71.296875 
L 52.59375 62.3125 
Q 48.875 64.0625 45.09375 64.984375 
Q 41.3125 65.921875 37.59375 65.921875 
Q 27.828125 65.921875 22.671875 59.328125 
Q 17.53125 52.734375 16.796875 39.40625 
Q 19.671875 43.65625 24.015625 45.921875 
Q 28.375 48.1875 33.59375 48.1875 
Q 44.578125 48.1875 50.953125 41.515625 
Q 57.328125 34.859375 57.328125 23.390625 
Q 57.328125 12.15625 50.6875 5.359375 
Q 44.046875 -1.421875 33.015625 -1.421875 
Q 20.359375 -1.421875 13.671875 8.265625 
Q 6.984375 17.96875 6.984375 36.375 
Q 6.984375 53.65625 15.1875 63.9375 
Q 23.390625 74.21875 37.203125 74.21875 
Q 40.921875 74.21875 44.703125 73.484375 
Q 48.484375 72.75 52.59375 71.296875 
z
" id="DejaVuSans-54"/>
      </defs>
      <g transform="translate(151.057812 201.023799)scale(0.1 -0.1)">
       <use xlink:href="#DejaVuSans-8722"/>
       <use x="83.789062" xlink:href="#DejaVuSans-54"/>
      </g>
     </g>
    </g>
    <g id="ytick_6">
     <g id="line2d_11">
      <g>
       <use style="stroke:#000000;stroke-width:0.8;" x="172.8" xlink:href="#m667c6b5144" y="165.615533"/>
      </g>
     </g>
     <g id="text_11">
      <!-- −4 -->
      <g transform="translate(151.057812 169.414752)scale(0.1 -0.1)">
       <use xlink:href="#DejaVuSans-8722"/>
       <use x="83.789062" xlink:href="#DejaVuSans-52"/>
      </g>
     </g>
    </g>
    <g id="ytick_7">
     <g id="line2d_12">
      <g>
       <use style="stroke:#000000;stroke-width:0.8;" x="172.8" xlink:href="#m667c6b5144" y="134.006487"/>
      </g>
     </g>
     <g id="text_12">
      <!-- −2 -->
      <g transform="translate(151.057812 137.805705)scale(0.1 -0.1)">
       <use xlink:href="#DejaVuSans-8722"/>
       <use x="83.789062" xlink:href="#DejaVuSans-50"/>
      </g>
     </g>
    </g>
    <g id="ytick_8">
     <g id="line2d_13">
      <g>
       <use style="stroke:#000000;stroke-width:0.8;" x="172.8" xlink:href="#m667c6b5144" y="102.39744"/>
      </g>
     </g>
     <g id="text_13">
      <!-- 0 -->
      <g transform="translate(159.4375 106.196659)scale(0.1 -0.1)">
       <use xlink:href="#DejaVuSans-48"/>
      </g>
     </g>
    </g>
   </g>
   <g id="line2d_14">
    <path clip-path="url(#p2cf663391a)" d="M 194.935537 102.364148 
L 204.435768 103.037093 
L 210.135906 102.701931 
L 213.935998 102.835651 
L 219.636137 103.470866 
L 223.436229 103.469824 
L 229.136367 103.318154 
L 238.636598 104.216255 
L 246.236782 104.14412 
L 248.136828 104.282486 
L 253.836967 105.04522 
L 257.637059 105.184542 
L 263.337197 105.234167 
L 272.837428 106.367544 
L 278.537566 106.469943 
L 282.337658 106.828368 
L 288.037797 107.745883 
L 293.737935 108.141408 
L 295.637981 108.242552 
L 297.538027 108.487157 
L 307.038258 110.18151 
L 310.83835 110.508446 
L 314.638442 111.060475 
L 318.438534 111.922616 
L 320.33858 112.381096 
L 326.038719 113.307134 
L 329.838811 113.778703 
L 333.638903 114.657695 
L 341.239088 116.465856 
L 345.03918 117.118995 
L 348.839272 117.983551 
L 352.639364 119.172726 
L 356.439457 120.283881 
L 365.939687 122.853197 
L 371.639825 124.974728 
L 375.439918 126.362621 
L 379.24001 127.625831 
L 383.040102 129.032503 
L 386.840194 130.835049 
L 394.440379 134.518564 
L 398.240471 136.24156 
L 402.040563 138.350331 
L 405.840655 140.682495 
L 409.640748 143.120552 
L 413.44084 145.487612 
L 419.140978 149.265958 
L 426.741163 155.235263 
L 438.141439 164.667786 
L 445.741624 171.854047 
L 455.241854 180.997131 
L 472.342269 198.580705 
L 476.142362 202.414682 
L 479.942454 206.295025 
L 485.642592 211.77782 
L 493.242777 218.2997 
L 497.042869 221.389042 
L 498.942915 224.191785 
L 500.842961 225.345629 
L 502.743007 226.870655 
L 506.543099 232.728984 
L 508.443145 234.452124 
L 510.343192 236.584555 
L 512.243238 239.544931 
L 514.143284 241.492466 
L 516.04333 242.245748 
L 517.943376 243.802147 
L 519.843422 246.223711 
L 521.743468 247.740525 
L 523.643514 248.807392 
L 525.54356 251.230773 
L 527.443607 254.163272 
L 529.343653 255.733915 
L 531.243699 256.910677 
L 533.143745 259.151025 
L 535.043791 258.506347 
L 536.943837 263.717489 
L 538.843883 262.904218 
L 540.743929 260.428752 
L 542.643975 264.41672 
L 544.544022 268.884968 
L 546.444068 267.119551 
L 548.344114 267.098931 
L 550.24416 273.191312 
L 552.144206 275.555776 
L 554.044252 272.432206 
L 555.944298 274.380328 
L 557.844344 279.523685 
L 559.74439 277.744613 
L 561.644437 275.106043 
L 563.544483 280.013692 
L 565.444529 283.110344 
L 567.344575 279.782538 
L 569.244621 281.762846 
L 571.144667 288.28778 
L 573.044713 287.276305 
L 574.944759 284.975296 
L 576.844805 290.448234 
L 578.744852 292.565667 
L 580.644898 287.740778 
L 582.544944 288.954088 
L 584.44499 293.799863 
L 586.345036 290.347005 
L 588.245082 288.680565 
L 590.145128 295.578191 
L 592.045174 295.005929 
L 593.94522 295.006084 
L 597.745313 299.923272 
L 599.645359 298.917304 
L 601.545405 299.047421 
L 603.445451 301.204237 
L 605.345497 300.641127 
L 607.245543 299.916384 
L 609.145589 303.028421 
L 611.045635 305.36821 
L 612.945682 305.330225 
L 614.845728 308.040622 
L 616.745774 311.731558 
L 620.545866 311.501497 
L 622.445912 314.084909 
L 624.345958 314.234617 
L 626.246004 312.325478 
L 628.14605 313.826427 
L 630.046097 316.246938 
L 631.946143 315.632488 
L 633.846189 316.328704 
L 635.746235 320.09341 
L 637.646281 321.387382 
L 637.646281 321.387382 
" style="fill:none;stroke:#ff796c;stroke-linecap:square;stroke-width:1.5;"/>
   </g>
   <g id="line2d_15">
    <path clip-path="url(#p2cf663391a)" d="M 194.935537 96.247487 
L 213.935998 96.342292 
L 229.136367 96.589554 
L 244.336736 97.018884 
L 261.437151 97.718748 
L 282.337658 98.834664 
L 307.038258 100.357323 
L 329.838811 101.988424 
L 354.53941 103.999261 
L 394.440379 107.273632 
L 419.140978 109.06131 
L 443.841578 110.63914 
L 464.742085 111.74042 
L 506.543099 113.8025 
L 523.643514 114.507831 
L 536.943837 114.73023 
L 557.844344 114.849395 
L 567.344575 115.173959 
L 576.844805 115.730441 
L 597.745313 117.141997 
L 607.245543 117.400455 
L 614.845728 117.374781 
L 631.946143 117.264881 
L 637.646281 117.348134 
L 637.646281 117.348134 
" style="fill:none;stroke:#ffff14;stroke-linecap:square;stroke-width:1.5;"/>
   </g>
   <g id="line2d_16">
    <path clip-path="url(#p2cf663391a)" d="M 194.935537 96.191018 
L 212.035952 96.304148 
L 229.136367 96.641887 
L 246.236782 97.19931 
L 263.337197 97.968289 
L 282.337658 99.057092 
L 301.338119 100.373566 
L 322.238627 102.056255 
L 345.03918 104.130143 
L 371.639825 106.793635 
L 407.740702 110.666292 
L 468.542177 117.209141 
L 495.142823 119.823068 
L 517.943376 121.839273 
L 538.843883 123.458092 
L 557.844344 124.708574 
L 576.844805 125.725059 
L 593.94522 126.424616 
L 611.045635 126.909558 
L 628.14605 127.172813 
L 637.646281 127.221729 
L 637.646281 127.221729 
" style="fill:none;stroke:#014d4e;stroke-linecap:square;stroke-width:1.5;"/>
   </g>
   <g id="line2d_17">
    <path clip-path="url(#p2cf663391a)" d="M 194.935537 102.340971 
L 236.736552 102.485779 
L 305.138212 102.827698 
L 365.939687 103.634091 
L 388.74024 104.169245 
L 411.540794 104.950572 
L 438.141439 106.088068 
L 462.842039 107.367645 
L 491.34273 108.865296 
L 525.54356 110.298118 
L 542.643975 111.388432 
L 555.944298 112.189847 
L 565.444529 112.442831 
L 573.044713 112.458122 
L 580.644898 112.293882 
L 595.845267 111.830287 
L 605.345497 111.793271 
L 614.845728 112.010062 
L 628.14605 112.313566 
L 637.646281 112.271035 
L 637.646281 112.271035 
" style="fill:none;stroke:#e50000;stroke-linecap:square;stroke-width:1.5;"/>
   </g>
   <g id="patch_3">
    <path d="M 172.8 332.6472 
L 172.8 84.9312 
" style="fill:none;stroke:#000000;stroke-linecap:square;stroke-linejoin:miter;stroke-width:0.8;"/>
   </g>
   <g id="patch_4">
    <path d="M 659.781818 332.6472 
L 659.781818 84.9312 
" style="fill:none;stroke:#000000;stroke-linecap:square;stroke-linejoin:miter;stroke-width:0.8;"/>
   </g>
   <g id="patch_5">
    <path d="M 172.8 332.6472 
L 659.781818 332.6472 
" style="fill:none;stroke:#000000;stroke-linecap:square;stroke-linejoin:miter;stroke-width:0.8;"/>
   </g>
   <g id="patch_6">
    <path d="M 172.8 84.9312 
L 659.781818 84.9312 
" style="fill:none;stroke:#000000;stroke-linecap:square;stroke-linejoin:miter;stroke-width:0.8;"/>
   </g>
   <g id="text_14">
    <!-- Right abduction -->
    <defs>
     <path d="M 44.390625 34.1875 
Q 47.5625 33.109375 50.5625 29.59375 
Q 53.5625 26.078125 56.59375 19.921875 
L 66.609375 0 
L 56 0 
L 46.6875 18.703125 
Q 43.0625 26.03125 39.671875 28.421875 
Q 36.28125 30.8125 30.421875 30.8125 
L 19.671875 30.8125 
L 19.671875 0 
L 9.8125 0 
L 9.8125 72.90625 
L 32.078125 72.90625 
Q 44.578125 72.90625 50.734375 67.671875 
Q 56.890625 62.453125 56.890625 51.90625 
Q 56.890625 45.015625 53.6875 40.46875 
Q 50.484375 35.9375 44.390625 34.1875 
z
M 19.671875 64.796875 
L 19.671875 38.921875 
L 32.078125 38.921875 
Q 39.203125 38.921875 42.84375 42.21875 
Q 46.484375 45.515625 46.484375 51.90625 
Q 46.484375 58.296875 42.84375 61.546875 
Q 39.203125 64.796875 32.078125 64.796875 
z
" id="DejaVuSans-82"/>
     <path d="M 9.421875 54.6875 
L 18.40625 54.6875 
L 18.40625 0 
L 9.421875 0 
z
M 9.421875 75.984375 
L 18.40625 75.984375 
L 18.40625 64.59375 
L 9.421875 64.59375 
z
" id="DejaVuSans-105"/>
     <path d="M 45.40625 27.984375 
Q 45.40625 37.75 41.375 43.109375 
Q 37.359375 48.484375 30.078125 48.484375 
Q 22.859375 48.484375 18.828125 43.109375 
Q 14.796875 37.75 14.796875 27.984375 
Q 14.796875 18.265625 18.828125 12.890625 
Q 22.859375 7.515625 30.078125 7.515625 
Q 37.359375 7.515625 41.375 12.890625 
Q 45.40625 18.265625 45.40625 27.984375 
z
M 54.390625 6.78125 
Q 54.390625 -7.171875 48.1875 -13.984375 
Q 42 -20.796875 29.203125 -20.796875 
Q 24.46875 -20.796875 20.265625 -20.09375 
Q 16.0625 -19.390625 12.109375 -17.921875 
L 12.109375 -9.1875 
Q 16.0625 -11.328125 19.921875 -12.34375 
Q 23.78125 -13.375 27.78125 -13.375 
Q 36.625 -13.375 41.015625 -8.765625 
Q 45.40625 -4.15625 45.40625 5.171875 
L 45.40625 9.625 
Q 42.625 4.78125 38.28125 2.390625 
Q 33.9375 0 27.875 0 
Q 17.828125 0 11.671875 7.65625 
Q 5.515625 15.328125 5.515625 27.984375 
Q 5.515625 40.671875 11.671875 48.328125 
Q 17.828125 56 27.875 56 
Q 33.9375 56 38.28125 53.609375 
Q 42.625 51.21875 45.40625 46.390625 
L 45.40625 54.6875 
L 54.390625 54.6875 
z
" id="DejaVuSans-103"/>
     <path d="M 54.890625 33.015625 
L 54.890625 0 
L 45.90625 0 
L 45.90625 32.71875 
Q 45.90625 40.484375 42.875 44.328125 
Q 39.84375 48.1875 33.796875 48.1875 
Q 26.515625 48.1875 22.3125 43.546875 
Q 18.109375 38.921875 18.109375 30.90625 
L 18.109375 0 
L 9.078125 0 
L 9.078125 75.984375 
L 18.109375 75.984375 
L 18.109375 46.1875 
Q 21.34375 51.125 25.703125 53.5625 
Q 30.078125 56 35.796875 56 
Q 45.21875 56 50.046875 50.171875 
Q 54.890625 44.34375 54.890625 33.015625 
z
" id="DejaVuSans-104"/>
     <path d="M 18.3125 70.21875 
L 18.3125 54.6875 
L 36.8125 54.6875 
L 36.8125 47.703125 
L 18.3125 47.703125 
L 18.3125 18.015625 
Q 18.3125 11.328125 20.140625 9.421875 
Q 21.96875 7.515625 27.59375 7.515625 
L 36.8125 7.515625 
L 36.8125 0 
L 27.59375 0 
Q 17.1875 0 13.234375 3.875 
Q 9.28125 7.765625 9.28125 18.015625 
L 9.28125 47.703125 
L 2.6875 47.703125 
L 2.6875 54.6875 
L 9.28125 54.6875 
L 9.28125 70.21875 
z
" id="DejaVuSans-116"/>
     <path id="DejaVuSans-32"/>
     <path d="M 34.28125 27.484375 
Q 23.390625 27.484375 19.1875 25 
Q 14.984375 22.515625 14.984375 16.5 
Q 14.984375 11.71875 18.140625 8.90625 
Q 21.296875 6.109375 26.703125 6.109375 
Q 34.1875 6.109375 38.703125 11.40625 
Q 43.21875 16.703125 43.21875 25.484375 
L 43.21875 27.484375 
z
M 52.203125 31.203125 
L 52.203125 0 
L 43.21875 0 
L 43.21875 8.296875 
Q 40.140625 3.328125 35.546875 0.953125 
Q 30.953125 -1.421875 24.3125 -1.421875 
Q 15.921875 -1.421875 10.953125 3.296875 
Q 6 8.015625 6 15.921875 
Q 6 25.140625 12.171875 29.828125 
Q 18.359375 34.515625 30.609375 34.515625 
L 43.21875 34.515625 
L 43.21875 35.40625 
Q 43.21875 41.609375 39.140625 45 
Q 35.0625 48.390625 27.6875 48.390625 
Q 23 48.390625 18.546875 47.265625 
Q 14.109375 46.140625 10.015625 43.890625 
L 10.015625 52.203125 
Q 14.9375 54.109375 19.578125 55.046875 
Q 24.21875 56 28.609375 56 
Q 40.484375 56 46.34375 49.84375 
Q 52.203125 43.703125 52.203125 31.203125 
z
" id="DejaVuSans-97"/>
     <path d="M 48.6875 27.296875 
Q 48.6875 37.203125 44.609375 42.84375 
Q 40.53125 48.484375 33.40625 48.484375 
Q 26.265625 48.484375 22.1875 42.84375 
Q 18.109375 37.203125 18.109375 27.296875 
Q 18.109375 17.390625 22.1875 11.75 
Q 26.265625 6.109375 33.40625 6.109375 
Q 40.53125 6.109375 44.609375 11.75 
Q 48.6875 17.390625 48.6875 27.296875 
z
M 18.109375 46.390625 
Q 20.953125 51.265625 25.265625 53.625 
Q 29.59375 56 35.59375 56 
Q 45.5625 56 51.78125 48.09375 
Q 58.015625 40.1875 58.015625 27.296875 
Q 58.015625 14.40625 51.78125 6.484375 
Q 45.5625 -1.421875 35.59375 -1.421875 
Q 29.59375 -1.421875 25.265625 0.953125 
Q 20.953125 3.328125 18.109375 8.203125 
L 18.109375 0 
L 9.078125 0 
L 9.078125 75.984375 
L 18.109375 75.984375 
z
" id="DejaVuSans-98"/>
     <path d="M 45.40625 46.390625 
L 45.40625 75.984375 
L 54.390625 75.984375 
L 54.390625 0 
L 45.40625 0 
L 45.40625 8.203125 
Q 42.578125 3.328125 38.25 0.953125 
Q 33.9375 -1.421875 27.875 -1.421875 
Q 17.96875 -1.421875 11.734375 6.484375 
Q 5.515625 14.40625 5.515625 27.296875 
Q 5.515625 40.1875 11.734375 48.09375 
Q 17.96875 56 27.875 56 
Q 33.9375 56 38.25 53.625 
Q 42.578125 51.265625 45.40625 46.390625 
z
M 14.796875 27.296875 
Q 14.796875 17.390625 18.875 11.75 
Q 22.953125 6.109375 30.078125 6.109375 
Q 37.203125 6.109375 41.296875 11.75 
Q 45.40625 17.390625 45.40625 27.296875 
Q 45.40625 37.203125 41.296875 42.84375 
Q 37.203125 48.484375 30.078125 48.484375 
Q 22.953125 48.484375 18.875 42.84375 
Q 14.796875 37.203125 14.796875 27.296875 
z
" id="DejaVuSans-100"/>
     <path d="M 8.5 21.578125 
L 8.5 54.6875 
L 17.484375 54.6875 
L 17.484375 21.921875 
Q 17.484375 14.15625 20.5 10.265625 
Q 23.53125 6.390625 29.59375 6.390625 
Q 36.859375 6.390625 41.078125 11.03125 
Q 45.3125 15.671875 45.3125 23.6875 
L 45.3125 54.6875 
L 54.296875 54.6875 
L 54.296875 0 
L 45.3125 0 
L 45.3125 8.40625 
Q 42.046875 3.421875 37.71875 1 
Q 33.40625 -1.421875 27.6875 -1.421875 
Q 18.265625 -1.421875 13.375 4.4375 
Q 8.5 10.296875 8.5 21.578125 
z
M 31.109375 56 
z
" id="DejaVuSans-117"/>
     <path d="M 48.78125 52.59375 
L 48.78125 44.1875 
Q 44.96875 46.296875 41.140625 47.34375 
Q 37.3125 48.390625 33.40625 48.390625 
Q 24.65625 48.390625 19.8125 42.84375 
Q 14.984375 37.3125 14.984375 27.296875 
Q 14.984375 17.28125 19.8125 11.734375 
Q 24.65625 6.203125 33.40625 6.203125 
Q 37.3125 6.203125 41.140625 7.25 
Q 44.96875 8.296875 48.78125 10.40625 
L 48.78125 2.09375 
Q 45.015625 0.34375 40.984375 -0.53125 
Q 36.96875 -1.421875 32.421875 -1.421875 
Q 20.0625 -1.421875 12.78125 6.34375 
Q 5.515625 14.109375 5.515625 27.296875 
Q 5.515625 40.671875 12.859375 48.328125 
Q 20.21875 56 33.015625 56 
Q 37.15625 56 41.109375 55.140625 
Q 45.0625 54.296875 48.78125 52.59375 
z
" id="DejaVuSans-99"/>
     <path d="M 30.609375 48.390625 
Q 23.390625 48.390625 19.1875 42.75 
Q 14.984375 37.109375 14.984375 27.296875 
Q 14.984375 17.484375 19.15625 11.84375 
Q 23.34375 6.203125 30.609375 6.203125 
Q 37.796875 6.203125 41.984375 11.859375 
Q 46.1875 17.53125 46.1875 27.296875 
Q 46.1875 37.015625 41.984375 42.703125 
Q 37.796875 48.390625 30.609375 48.390625 
z
M 30.609375 56 
Q 42.328125 56 49.015625 48.375 
Q 55.71875 40.765625 55.71875 27.296875 
Q 55.71875 13.875 49.015625 6.21875 
Q 42.328125 -1.421875 30.609375 -1.421875 
Q 18.84375 -1.421875 12.171875 6.21875 
Q 5.515625 13.875 5.515625 27.296875 
Q 5.515625 40.765625 12.171875 48.375 
Q 18.84375 56 30.609375 56 
z
" id="DejaVuSans-111"/>
     <path d="M 54.890625 33.015625 
L 54.890625 0 
L 45.90625 0 
L 45.90625 32.71875 
Q 45.90625 40.484375 42.875 44.328125 
Q 39.84375 48.1875 33.796875 48.1875 
Q 26.515625 48.1875 22.3125 43.546875 
Q 18.109375 38.921875 18.109375 30.90625 
L 18.109375 0 
L 9.078125 0 
L 9.078125 54.6875 
L 18.109375 54.6875 
L 18.109375 46.1875 
Q 21.34375 51.125 25.703125 53.5625 
Q 30.078125 56 35.796875 56 
Q 45.21875 56 50.046875 50.171875 
Q 54.890625 44.34375 54.890625 33.015625 
z
" id="DejaVuSans-110"/>
    </defs>
    <g transform="translate(368.694972 78.9312)scale(0.12 -0.12)">
     <use xlink:href="#DejaVuSans-82"/>
     <use x="69.482422" xlink:href="#DejaVuSans-105"/>
     <use x="97.265625" xlink:href="#DejaVuSans-103"/>
     <use x="160.742188" xlink:href="#DejaVuSans-104"/>
     <use x="224.121094" xlink:href="#DejaVuSans-116"/>
     <use x="263.330078" xlink:href="#DejaVuSans-32"/>
     <use x="295.117188" xlink:href="#DejaVuSans-97"/>
     <use x="356.396484" xlink:href="#DejaVuSans-98"/>
     <use x="419.873047" xlink:href="#DejaVuSans-100"/>
     <use x="483.349609" xlink:href="#DejaVuSans-117"/>
     <use x="546.728516" xlink:href="#DejaVuSans-99"/>
     <use x="601.708984" xlink:href="#DejaVuSans-116"/>
     <use x="640.917969" xlink:href="#DejaVuSans-105"/>
     <use x="668.701172" xlink:href="#DejaVuSans-111"/>
     <use x="729.882812" xlink:href="#DejaVuSans-110"/>
    </g>
   </g>
  </g>
  <g id="axes_2">
   <g id="patch_7">
    <path d="M 757.178182 332.6472 
L 1244.16 332.6472 
L 1244.16 84.9312 
L 757.178182 84.9312 
z
" style="fill:#ffffff;"/>
   </g>
   <g id="matplotlib.axis_3">
    <g id="xtick_6">
     <g id="line2d_18">
      <g>
       <use style="stroke:#000000;stroke-width:0.8;" x="779.313719" xlink:href="#m99c68f13c5" y="332.6472"/>
      </g>
     </g>
     <g id="text_15">
      <!-- 0 -->
      <g transform="translate(776.132469 347.245637)scale(0.1 -0.1)">
       <use xlink:href="#DejaVuSans-48"/>
      </g>
     </g>
    </g>
    <g id="xtick_7">
     <g id="line2d_19">
      <g>
       <use style="stroke:#000000;stroke-width:0.8;" x="874.316025" xlink:href="#m99c68f13c5" y="332.6472"/>
      </g>
     </g>
     <g id="text_16">
      <!-- 50 -->
      <g transform="translate(867.953525 347.245637)scale(0.1 -0.1)">
       <use xlink:href="#DejaVuSans-53"/>
       <use x="63.623047" xlink:href="#DejaVuSans-48"/>
      </g>
     </g>
    </g>
    <g id="xtick_8">
     <g id="line2d_20">
      <g>
       <use style="stroke:#000000;stroke-width:0.8;" x="969.31833" xlink:href="#m99c68f13c5" y="332.6472"/>
      </g>
     </g>
     <g id="text_17">
      <!-- 100 -->
      <g transform="translate(959.77458 347.245637)scale(0.1 -0.1)">
       <use xlink:href="#DejaVuSans-49"/>
       <use x="63.623047" xlink:href="#DejaVuSans-48"/>
       <use x="127.246094" xlink:href="#DejaVuSans-48"/>
      </g>
     </g>
    </g>
    <g id="xtick_9">
     <g id="line2d_21">
      <g>
       <use style="stroke:#000000;stroke-width:0.8;" x="1064.320636" xlink:href="#m99c68f13c5" y="332.6472"/>
      </g>
     </g>
     <g id="text_18">
      <!-- 150 -->
      <g transform="translate(1054.776886 347.245637)scale(0.1 -0.1)">
       <use xlink:href="#DejaVuSans-49"/>
       <use x="63.623047" xlink:href="#DejaVuSans-53"/>
       <use x="127.246094" xlink:href="#DejaVuSans-48"/>
      </g>
     </g>
    </g>
    <g id="xtick_10">
     <g id="line2d_22">
      <g>
       <use style="stroke:#000000;stroke-width:0.8;" x="1159.322941" xlink:href="#m99c68f13c5" y="332.6472"/>
      </g>
     </g>
     <g id="text_19">
      <!-- 200 -->
      <g transform="translate(1149.779191 347.245637)scale(0.1 -0.1)">
       <use xlink:href="#DejaVuSans-50"/>
       <use x="63.623047" xlink:href="#DejaVuSans-48"/>
       <use x="127.246094" xlink:href="#DejaVuSans-48"/>
      </g>
     </g>
    </g>
   </g>
   <g id="matplotlib.axis_4">
    <g id="ytick_9">
     <g id="line2d_23">
      <g>
       <use style="stroke:#000000;stroke-width:0.8;" x="757.178182" xlink:href="#m667c6b5144" y="326.720916"/>
      </g>
     </g>
     <g id="text_20">
      <!-- −1.50 -->
      <defs>
       <path d="M 10.6875 12.40625 
L 21 12.40625 
L 21 0 
L 10.6875 0 
z
" id="DejaVuSans-46"/>
      </defs>
      <g transform="translate(719.532869 330.520135)scale(0.1 -0.1)">
       <use xlink:href="#DejaVuSans-8722"/>
       <use x="83.789062" xlink:href="#DejaVuSans-49"/>
       <use x="147.412109" xlink:href="#DejaVuSans-46"/>
       <use x="179.199219" xlink:href="#DejaVuSans-53"/>
       <use x="242.822266" xlink:href="#DejaVuSans-48"/>
      </g>
     </g>
    </g>
    <g id="ytick_10">
     <g id="line2d_24">
      <g>
       <use style="stroke:#000000;stroke-width:0.8;" x="757.178182" xlink:href="#m667c6b5144" y="298.435303"/>
      </g>
     </g>
     <g id="text_21">
      <!-- −1.25 -->
      <g transform="translate(719.532869 302.234522)scale(0.1 -0.1)">
       <use xlink:href="#DejaVuSans-8722"/>
       <use x="83.789062" xlink:href="#DejaVuSans-49"/>
       <use x="147.412109" xlink:href="#DejaVuSans-46"/>
       <use x="179.199219" xlink:href="#DejaVuSans-50"/>
       <use x="242.822266" xlink:href="#DejaVuSans-53"/>
      </g>
     </g>
    </g>
    <g id="ytick_11">
     <g id="line2d_25">
      <g>
       <use style="stroke:#000000;stroke-width:0.8;" x="757.178182" xlink:href="#m667c6b5144" y="270.14969"/>
      </g>
     </g>
     <g id="text_22">
      <!-- −1.00 -->
      <g transform="translate(719.532869 273.948909)scale(0.1 -0.1)">
       <use xlink:href="#DejaVuSans-8722"/>
       <use x="83.789062" xlink:href="#DejaVuSans-49"/>
       <use x="147.412109" xlink:href="#DejaVuSans-46"/>
       <use x="179.199219" xlink:href="#DejaVuSans-48"/>
       <use x="242.822266" xlink:href="#DejaVuSans-48"/>
      </g>
     </g>
    </g>
    <g id="ytick_12">
     <g id="line2d_26">
      <g>
       <use style="stroke:#000000;stroke-width:0.8;" x="757.178182" xlink:href="#m667c6b5144" y="241.864077"/>
      </g>
     </g>
     <g id="text_23">
      <!-- −0.75 -->
      <defs>
       <path d="M 8.203125 72.90625 
L 55.078125 72.90625 
L 55.078125 68.703125 
L 28.609375 0 
L 18.3125 0 
L 43.21875 64.59375 
L 8.203125 64.59375 
z
" id="DejaVuSans-55"/>
      </defs>
      <g transform="translate(719.532869 245.663296)scale(0.1 -0.1)">
       <use xlink:href="#DejaVuSans-8722"/>
       <use x="83.789062" xlink:href="#DejaVuSans-48"/>
       <use x="147.412109" xlink:href="#DejaVuSans-46"/>
       <use x="179.199219" xlink:href="#DejaVuSans-55"/>
       <use x="242.822266" xlink:href="#DejaVuSans-53"/>
      </g>
     </g>
    </g>
    <g id="ytick_13">
     <g id="line2d_27">
      <g>
       <use style="stroke:#000000;stroke-width:0.8;" x="757.178182" xlink:href="#m667c6b5144" y="213.578464"/>
      </g>
     </g>
     <g id="text_24">
      <!-- −0.50 -->
      <g transform="translate(719.532869 217.377683)scale(0.1 -0.1)">
       <use xlink:href="#DejaVuSans-8722"/>
       <use x="83.789062" xlink:href="#DejaVuSans-48"/>
       <use x="147.412109" xlink:href="#DejaVuSans-46"/>
       <use x="179.199219" xlink:href="#DejaVuSans-53"/>
       <use x="242.822266" xlink:href="#DejaVuSans-48"/>
      </g>
     </g>
    </g>
    <g id="ytick_14">
     <g id="line2d_28">
      <g>
       <use style="stroke:#000000;stroke-width:0.8;" x="757.178182" xlink:href="#m667c6b5144" y="185.292851"/>
      </g>
     </g>
     <g id="text_25">
      <!-- −0.25 -->
      <g transform="translate(719.532869 189.09207)scale(0.1 -0.1)">
       <use xlink:href="#DejaVuSans-8722"/>
       <use x="83.789062" xlink:href="#DejaVuSans-48"/>
       <use x="147.412109" xlink:href="#DejaVuSans-46"/>
       <use x="179.199219" xlink:href="#DejaVuSans-50"/>
       <use x="242.822266" xlink:href="#DejaVuSans-53"/>
      </g>
     </g>
    </g>
    <g id="ytick_15">
     <g id="line2d_29">
      <g>
       <use style="stroke:#000000;stroke-width:0.8;" x="757.178182" xlink:href="#m667c6b5144" y="157.007238"/>
      </g>
     </g>
     <g id="text_26">
      <!-- 0.00 -->
      <g transform="translate(727.912557 160.806457)scale(0.1 -0.1)">
       <use xlink:href="#DejaVuSans-48"/>
       <use x="63.623047" xlink:href="#DejaVuSans-46"/>
       <use x="95.410156" xlink:href="#DejaVuSans-48"/>
       <use x="159.033203" xlink:href="#DejaVuSans-48"/>
      </g>
     </g>
    </g>
    <g id="ytick_16">
     <g id="line2d_30">
      <g>
       <use style="stroke:#000000;stroke-width:0.8;" x="757.178182" xlink:href="#m667c6b5144" y="128.721625"/>
      </g>
     </g>
     <g id="text_27">
      <!-- 0.25 -->
      <g transform="translate(727.912557 132.520843)scale(0.1 -0.1)">
       <use xlink:href="#DejaVuSans-48"/>
       <use x="63.623047" xlink:href="#DejaVuSans-46"/>
       <use x="95.410156" xlink:href="#DejaVuSans-50"/>
       <use x="159.033203" xlink:href="#DejaVuSans-53"/>
      </g>
     </g>
    </g>
    <g id="ytick_17">
     <g id="line2d_31">
      <g>
       <use style="stroke:#000000;stroke-width:0.8;" x="757.178182" xlink:href="#m667c6b5144" y="100.436012"/>
      </g>
     </g>
     <g id="text_28">
      <!-- 0.50 -->
      <g transform="translate(727.912557 104.23523)scale(0.1 -0.1)">
       <use xlink:href="#DejaVuSans-48"/>
       <use x="63.623047" xlink:href="#DejaVuSans-46"/>
       <use x="95.410156" xlink:href="#DejaVuSans-53"/>
       <use x="159.033203" xlink:href="#DejaVuSans-48"/>
      </g>
     </g>
    </g>
   </g>
   <g id="line2d_32">
    <path clip-path="url(#p45d63dc245)" d="M 779.313719 157.006231 
L 838.215148 156.899586 
L 842.015241 156.756118 
L 845.815333 156.364186 
L 849.615425 155.681335 
L 857.21561 154.051591 
L 861.015702 153.484417 
L 864.815794 153.123805 
L 870.515932 152.84123 
L 878.116117 152.509272 
L 881.916209 152.037487 
L 885.716301 151.297091 
L 893.316486 149.686853 
L 897.116578 149.106497 
L 910.416901 147.523964 
L 918.017085 146.546345 
L 921.817177 146.274424 
L 925.61727 146.252338 
L 933.217454 146.412786 
L 937.017546 146.248122 
L 948.417823 145.308307 
L 952.217915 145.372056 
L 957.918053 145.641472 
L 963.618192 145.637006 
L 967.418284 145.47961 
L 971.218376 145.146438 
L 976.918515 144.382021 
L 980.718607 143.970306 
L 986.418745 143.831318 
L 988.318791 143.920497 
L 990.218837 144.164139 
L 992.118883 144.598573 
L 994.01893 145.222942 
L 1003.51916 148.985721 
L 1007.319252 149.961486 
L 1011.119345 150.788724 
L 1013.019391 151.308514 
L 1014.919437 151.996979 
L 1016.819483 153.546073 
L 1022.519621 159.769342 
L 1024.419667 161.534303 
L 1030.119806 165.884229 
L 1032.019852 167.593406 
L 1033.919898 169.563923 
L 1035.819944 171.801709 
L 1039.620036 176.751757 
L 1045.320175 184.191342 
L 1052.920359 193.563548 
L 1054.820405 196.258429 
L 1056.720451 199.317612 
L 1058.620497 202.830619 
L 1060.520543 206.842711 
L 1062.42059 211.382996 
L 1064.320636 216.460257 
L 1066.220682 222.026078 
L 1070.020774 234.343518 
L 1073.820866 247.988983 
L 1077.620958 262.772094 
L 1081.421051 279.114731 
L 1083.321097 272.026621 
L 1085.221143 265.735519 
L 1087.121189 266.945145 
L 1089.021235 267.649491 
L 1090.921281 268.571748 
L 1092.821327 270.15738 
L 1094.721373 271.451345 
L 1096.62142 272.050528 
L 1098.521466 273.035051 
L 1100.421512 274.59277 
L 1102.321558 275.449466 
L 1104.221604 275.625487 
L 1106.12165 276.509003 
L 1108.021696 277.821263 
L 1109.921742 278.11084 
L 1111.821788 277.920173 
L 1115.621881 279.334958 
L 1117.521927 278.772681 
L 1119.421973 295.335715 
L 1121.322019 285.389214 
L 1123.222065 284.763875 
L 1125.122111 285.826183 
L 1128.922203 278.796714 
L 1130.822249 280.696284 
L 1132.722296 281.524886 
L 1134.622342 277.967501 
L 1136.522388 277.155758 
L 1138.422434 280.032648 
L 1140.32248 279.277558 
L 1142.222526 276.432688 
L 1144.122572 278.059378 
L 1146.022618 280.310467 
L 1147.922664 278.465069 
L 1149.822711 278.038238 
L 1151.722757 281.270883 
L 1153.622803 281.992433 
L 1155.522849 280.725445 
L 1157.422895 282.904739 
L 1159.322941 285.475673 
L 1161.222987 284.807692 
L 1163.123033 285.357704 
L 1165.023079 288.232059 
L 1166.923126 292.051095 
L 1168.823172 294.223638 
L 1170.723218 298.326308 
L 1172.623264 301.34254 
L 1174.52331 301.42747 
L 1176.423356 321.387382 
L 1178.323402 318.320316 
L 1180.223448 314.367295 
L 1182.123494 310.121364 
L 1184.023541 306.325544 
L 1185.923587 301.711721 
L 1187.823633 300.90224 
L 1189.723679 301.155511 
L 1191.623725 301.767248 
L 1193.523771 301.478587 
L 1195.423817 301.693521 
L 1197.323863 302.891039 
L 1199.223909 303.188919 
L 1201.123956 303.0294 
L 1203.024002 304.115604 
L 1204.924048 304.94465 
L 1206.824094 304.455058 
L 1208.72414 304.877047 
L 1210.624186 306.251291 
L 1212.524232 306.28542 
L 1214.424278 306.193298 
L 1216.324324 307.961198 
L 1218.224371 309.397577 
L 1220.124417 309.361599 
L 1222.024463 310.604801 
L 1222.024463 310.604801 
" style="fill:none;stroke:#ff796c;stroke-linecap:square;stroke-width:1.5;"/>
   </g>
   <g id="line2d_33">
    <path clip-path="url(#p45d63dc245)" d="M 779.313719 111.489984 
L 849.615425 111.607731 
L 866.71584 111.826612 
L 887.616347 111.984016 
L 904.716762 112.170939 
L 940.817638 112.559008 
L 954.117961 112.746498 
L 982.618653 112.782163 
L 992.118883 112.640533 
L 1007.319252 112.018634 
L 1014.919437 111.620051 
L 1035.819944 109.906862 
L 1045.320175 108.685093 
L 1052.920359 107.570691 
L 1056.720451 106.84874 
L 1060.520543 105.925953 
L 1064.320636 104.770545 
L 1068.120728 103.389946 
L 1071.92082 101.812564 
L 1075.720912 100.056973 
L 1079.521005 98.111689 
L 1081.421051 97.055343 
L 1087.121189 97.402236 
L 1094.721373 97.62155 
L 1108.021696 97.742882 
L 1117.521927 97.768657 
L 1119.421973 96.299618 
L 1123.222065 96.827559 
L 1128.922203 97.296084 
L 1136.522388 97.585669 
L 1147.922664 97.729283 
L 1174.52331 97.767361 
L 1176.423356 96.191018 
L 1180.223448 96.754602 
L 1184.023541 97.116511 
L 1189.723679 97.425232 
L 1199.223909 97.638299 
L 1214.424278 97.704828 
L 1222.024463 97.699961 
L 1222.024463 97.699961 
" style="fill:none;stroke:#ffff14;stroke-linecap:square;stroke-width:1.5;"/>
   </g>
   <g id="line2d_34">
    <path clip-path="url(#p45d63dc245)" d="M 779.313719 111.485246 
L 1222.024463 111.485246 
L 1222.024463 111.485246 
" style="fill:none;stroke:#014d4e;stroke-linecap:square;stroke-width:1.5;"/>
   </g>
   <g id="line2d_35">
    <path clip-path="url(#p45d63dc245)" d="M 779.313719 157.002499 
L 849.615425 156.884753 
L 866.71584 156.665872 
L 887.616347 156.508468 
L 904.716762 156.321544 
L 940.817638 155.933475 
L 954.117961 155.745985 
L 982.618653 155.71032 
L 992.118883 155.85195 
L 1007.319252 156.47385 
L 1014.919437 156.872432 
L 1035.819944 158.585621 
L 1045.320175 159.80739 
L 1052.920359 160.921793 
L 1056.720451 161.643743 
L 1060.520543 162.566531 
L 1064.320636 163.721938 
L 1068.120728 165.102538 
L 1071.92082 166.67992 
L 1075.720912 168.43551 
L 1079.521005 170.380794 
L 1081.421051 171.43714 
L 1087.121189 171.090247 
L 1094.721373 170.870933 
L 1108.021696 170.749601 
L 1117.521927 170.723826 
L 1119.421973 172.192865 
L 1123.222065 171.664925 
L 1128.922203 171.1964 
L 1136.522388 170.906814 
L 1147.922664 170.7632 
L 1174.52331 170.725122 
L 1176.423356 172.301465 
L 1180.223448 171.737881 
L 1184.023541 171.375972 
L 1189.723679 171.067251 
L 1199.223909 170.854185 
L 1214.424278 170.787655 
L 1222.024463 170.792522 
L 1222.024463 170.792522 
" style="fill:none;stroke:#e50000;stroke-linecap:square;stroke-width:1.5;"/>
   </g>
   <g id="patch_8">
    <path d="M 757.178182 332.6472 
L 757.178182 84.9312 
" style="fill:none;stroke:#000000;stroke-linecap:square;stroke-linejoin:miter;stroke-width:0.8;"/>
   </g>
   <g id="patch_9">
    <path d="M 1244.16 332.6472 
L 1244.16 84.9312 
" style="fill:none;stroke:#000000;stroke-linecap:square;stroke-linejoin:miter;stroke-width:0.8;"/>
   </g>
   <g id="patch_10">
    <path d="M 757.178182 332.6472 
L 1244.16 332.6472 
" style="fill:none;stroke:#000000;stroke-linecap:square;stroke-linejoin:miter;stroke-width:0.8;"/>
   </g>
   <g id="patch_11">
    <path d="M 757.178182 84.9312 
L 1244.16 84.9312 
" style="fill:none;stroke:#000000;stroke-linecap:square;stroke-linejoin:miter;stroke-width:0.8;"/>
   </g>
   <g id="text_29">
    <!-- Right flexion -->
    <defs>
     <path d="M 37.109375 75.984375 
L 37.109375 68.5 
L 28.515625 68.5 
Q 23.6875 68.5 21.796875 66.546875 
Q 19.921875 64.59375 19.921875 59.515625 
L 19.921875 54.6875 
L 34.71875 54.6875 
L 34.71875 47.703125 
L 19.921875 47.703125 
L 19.921875 0 
L 10.890625 0 
L 10.890625 47.703125 
L 2.296875 47.703125 
L 2.296875 54.6875 
L 10.890625 54.6875 
L 10.890625 58.5 
Q 10.890625 67.625 15.140625 71.796875 
Q 19.390625 75.984375 28.609375 75.984375 
z
" id="DejaVuSans-102"/>
     <path d="M 9.421875 75.984375 
L 18.40625 75.984375 
L 18.40625 0 
L 9.421875 0 
z
" id="DejaVuSans-108"/>
     <path d="M 56.203125 29.59375 
L 56.203125 25.203125 
L 14.890625 25.203125 
Q 15.484375 15.921875 20.484375 11.0625 
Q 25.484375 6.203125 34.421875 6.203125 
Q 39.59375 6.203125 44.453125 7.46875 
Q 49.3125 8.734375 54.109375 11.28125 
L 54.109375 2.78125 
Q 49.265625 0.734375 44.1875 -0.34375 
Q 39.109375 -1.421875 33.890625 -1.421875 
Q 20.796875 -1.421875 13.15625 6.1875 
Q 5.515625 13.8125 5.515625 26.8125 
Q 5.515625 40.234375 12.765625 48.109375 
Q 20.015625 56 32.328125 56 
Q 43.359375 56 49.78125 48.890625 
Q 56.203125 41.796875 56.203125 29.59375 
z
M 47.21875 32.234375 
Q 47.125 39.59375 43.09375 43.984375 
Q 39.0625 48.390625 32.421875 48.390625 
Q 24.90625 48.390625 20.390625 44.140625 
Q 15.875 39.890625 15.1875 32.171875 
z
" id="DejaVuSans-101"/>
     <path d="M 54.890625 54.6875 
L 35.109375 28.078125 
L 55.90625 0 
L 45.3125 0 
L 29.390625 21.484375 
L 13.484375 0 
L 2.875 0 
L 24.125 28.609375 
L 4.6875 54.6875 
L 15.28125 54.6875 
L 29.78125 35.203125 
L 44.28125 54.6875 
z
" id="DejaVuSans-120"/>
    </defs>
    <g transform="translate(962.800653 78.9312)scale(0.12 -0.12)">
     <use xlink:href="#DejaVuSans-82"/>
     <use x="69.482422" xlink:href="#DejaVuSans-105"/>
     <use x="97.265625" xlink:href="#DejaVuSans-103"/>
     <use x="160.742188" xlink:href="#DejaVuSans-104"/>
     <use x="224.121094" xlink:href="#DejaVuSans-116"/>
     <use x="263.330078" xlink:href="#DejaVuSans-32"/>
     <use x="295.117188" xlink:href="#DejaVuSans-102"/>
     <use x="330.322266" xlink:href="#DejaVuSans-108"/>
     <use x="358.105469" xlink:href="#DejaVuSans-101"/>
     <use x="419.613281" xlink:href="#DejaVuSans-120"/>
     <use x="478.792969" xlink:href="#DejaVuSans-105"/>
     <use x="506.576172" xlink:href="#DejaVuSans-111"/>
     <use x="567.757812" xlink:href="#DejaVuSans-110"/>
    </g>
   </g>
  </g>
  <g id="axes_3">
   <g id="patch_12">
    <path d="M 172.8 629.9064 
L 659.781818 629.9064 
L 659.781818 382.1904 
L 172.8 382.1904 
z
" style="fill:#ffffff;"/>
   </g>
   <g id="matplotlib.axis_5">
    <g id="xtick_11">
     <g id="line2d_36">
      <g>
       <use style="stroke:#000000;stroke-width:0.8;" x="194.935537" xlink:href="#m99c68f13c5" y="629.9064"/>
      </g>
     </g>
     <g id="text_30">
      <!-- 0 -->
      <g transform="translate(191.754287 644.504838)scale(0.1 -0.1)">
       <use xlink:href="#DejaVuSans-48"/>
      </g>
     </g>
    </g>
    <g id="xtick_12">
     <g id="line2d_37">
      <g>
       <use style="stroke:#000000;stroke-width:0.8;" x="289.937843" xlink:href="#m99c68f13c5" y="629.9064"/>
      </g>
     </g>
     <g id="text_31">
      <!-- 50 -->
      <g transform="translate(283.575343 644.504838)scale(0.1 -0.1)">
       <use xlink:href="#DejaVuSans-53"/>
       <use x="63.623047" xlink:href="#DejaVuSans-48"/>
      </g>
     </g>
    </g>
    <g id="xtick_13">
     <g id="line2d_38">
      <g>
       <use style="stroke:#000000;stroke-width:0.8;" x="384.940148" xlink:href="#m99c68f13c5" y="629.9064"/>
      </g>
     </g>
     <g id="text_32">
      <!-- 100 -->
      <g transform="translate(375.396398 644.504838)scale(0.1 -0.1)">
       <use xlink:href="#DejaVuSans-49"/>
       <use x="63.623047" xlink:href="#DejaVuSans-48"/>
       <use x="127.246094" xlink:href="#DejaVuSans-48"/>
      </g>
     </g>
    </g>
    <g id="xtick_14">
     <g id="line2d_39">
      <g>
       <use style="stroke:#000000;stroke-width:0.8;" x="479.942454" xlink:href="#m99c68f13c5" y="629.9064"/>
      </g>
     </g>
     <g id="text_33">
      <!-- 150 -->
      <g transform="translate(470.398704 644.504838)scale(0.1 -0.1)">
       <use xlink:href="#DejaVuSans-49"/>
       <use x="63.623047" xlink:href="#DejaVuSans-53"/>
       <use x="127.246094" xlink:href="#DejaVuSans-48"/>
      </g>
     </g>
    </g>
    <g id="xtick_15">
     <g id="line2d_40">
      <g>
       <use style="stroke:#000000;stroke-width:0.8;" x="574.944759" xlink:href="#m99c68f13c5" y="629.9064"/>
      </g>
     </g>
     <g id="text_34">
      <!-- 200 -->
      <g transform="translate(565.401009 644.504838)scale(0.1 -0.1)">
       <use xlink:href="#DejaVuSans-50"/>
       <use x="63.623047" xlink:href="#DejaVuSans-48"/>
       <use x="127.246094" xlink:href="#DejaVuSans-48"/>
      </g>
     </g>
    </g>
   </g>
   <g id="matplotlib.axis_6">
    <g id="ytick_18">
     <g id="line2d_41">
      <g>
       <use style="stroke:#000000;stroke-width:0.8;" x="172.8" xlink:href="#m667c6b5144" y="603.72599"/>
      </g>
     </g>
     <g id="text_35">
      <!-- −1.0 -->
      <g transform="translate(141.517187 607.525209)scale(0.1 -0.1)">
       <use xlink:href="#DejaVuSans-8722"/>
       <use x="83.789062" xlink:href="#DejaVuSans-49"/>
       <use x="147.412109" xlink:href="#DejaVuSans-46"/>
       <use x="179.199219" xlink:href="#DejaVuSans-48"/>
      </g>
     </g>
    </g>
    <g id="ytick_19">
     <g id="line2d_42">
      <g>
       <use style="stroke:#000000;stroke-width:0.8;" x="172.8" xlink:href="#m667c6b5144" y="562.828979"/>
      </g>
     </g>
     <g id="text_36">
      <!-- −0.5 -->
      <g transform="translate(141.517187 566.628198)scale(0.1 -0.1)">
       <use xlink:href="#DejaVuSans-8722"/>
       <use x="83.789062" xlink:href="#DejaVuSans-48"/>
       <use x="147.412109" xlink:href="#DejaVuSans-46"/>
       <use x="179.199219" xlink:href="#DejaVuSans-53"/>
      </g>
     </g>
    </g>
    <g id="ytick_20">
     <g id="line2d_43">
      <g>
       <use style="stroke:#000000;stroke-width:0.8;" x="172.8" xlink:href="#m667c6b5144" y="521.931968"/>
      </g>
     </g>
     <g id="text_37">
      <!-- 0.0 -->
      <g transform="translate(149.896875 525.731187)scale(0.1 -0.1)">
       <use xlink:href="#DejaVuSans-48"/>
       <use x="63.623047" xlink:href="#DejaVuSans-46"/>
       <use x="95.410156" xlink:href="#DejaVuSans-48"/>
      </g>
     </g>
    </g>
    <g id="ytick_21">
     <g id="line2d_44">
      <g>
       <use style="stroke:#000000;stroke-width:0.8;" x="172.8" xlink:href="#m667c6b5144" y="481.034957"/>
      </g>
     </g>
     <g id="text_38">
      <!-- 0.5 -->
      <g transform="translate(149.896875 484.834176)scale(0.1 -0.1)">
       <use xlink:href="#DejaVuSans-48"/>
       <use x="63.623047" xlink:href="#DejaVuSans-46"/>
       <use x="95.410156" xlink:href="#DejaVuSans-53"/>
      </g>
     </g>
    </g>
    <g id="ytick_22">
     <g id="line2d_45">
      <g>
       <use style="stroke:#000000;stroke-width:0.8;" x="172.8" xlink:href="#m667c6b5144" y="440.137946"/>
      </g>
     </g>
     <g id="text_39">
      <!-- 1.0 -->
      <g transform="translate(149.896875 443.937164)scale(0.1 -0.1)">
       <use xlink:href="#DejaVuSans-49"/>
       <use x="63.623047" xlink:href="#DejaVuSans-46"/>
       <use x="95.410156" xlink:href="#DejaVuSans-48"/>
      </g>
     </g>
    </g>
    <g id="ytick_23">
     <g id="line2d_46">
      <g>
       <use style="stroke:#000000;stroke-width:0.8;" x="172.8" xlink:href="#m667c6b5144" y="399.240935"/>
      </g>
     </g>
     <g id="text_40">
      <!-- 1.5 -->
      <g transform="translate(149.896875 403.040153)scale(0.1 -0.1)">
       <use xlink:href="#DejaVuSans-49"/>
       <use x="63.623047" xlink:href="#DejaVuSans-46"/>
       <use x="95.410156" xlink:href="#DejaVuSans-53"/>
      </g>
     </g>
    </g>
   </g>
   <g id="line2d_47">
    <path clip-path="url(#pf2d6447fc0)" d="M 194.935537 521.874481 
L 196.835583 522.078293 
L 200.635676 522.713626 
L 202.535722 522.899984 
L 204.435768 522.873651 
L 212.035952 521.86809 
L 213.935998 521.954926 
L 219.636137 522.672392 
L 221.536183 522.599883 
L 225.336275 522.073573 
L 227.236321 521.784725 
L 229.136367 521.691598 
L 231.036413 521.846893 
L 236.736552 522.621642 
L 238.636598 522.647634 
L 246.236782 521.875304 
L 248.136828 521.966537 
L 253.836967 522.707499 
L 255.737013 522.657387 
L 259.537105 522.191644 
L 261.437151 521.914832 
L 263.337197 521.834867 
L 267.137289 522.246116 
L 270.937382 522.682796 
L 272.837428 522.672213 
L 278.537566 522.066448 
L 280.437612 522.049091 
L 282.337658 522.189332 
L 286.137751 522.792797 
L 288.037797 522.913472 
L 291.837889 522.715732 
L 295.637981 522.266188 
L 297.538027 522.259947 
L 305.138212 522.917416 
L 307.038258 522.811512 
L 310.83835 522.236643 
L 314.638442 521.989144 
L 316.538488 522.081844 
L 320.33858 522.54301 
L 322.238627 522.593 
L 326.038719 522.3814 
L 329.838811 522.033811 
L 331.738857 522.114982 
L 339.339042 522.960723 
L 341.239088 522.891553 
L 345.03918 522.485606 
L 348.839272 522.357605 
L 350.739318 522.485748 
L 354.53941 522.900268 
L 358.339503 522.847286 
L 364.039641 522.331512 
L 367.839733 522.550182 
L 373.539872 523.095877 
L 375.439918 523.044231 
L 383.040102 522.452776 
L 384.940148 522.516652 
L 388.74024 522.854836 
L 392.540333 522.864668 
L 394.440379 522.706623 
L 398.240471 522.143161 
L 402.040563 522.021303 
L 405.840655 522.225142 
L 407.740702 522.356192 
L 409.640748 522.331736 
L 415.340886 521.78988 
L 417.240932 521.578817 
L 419.140978 521.479747 
L 426.741163 521.628971 
L 428.641209 521.570281 
L 434.341347 520.955924 
L 438.141439 520.869716 
L 445.741624 521.299253 
L 449.541716 521.128986 
L 453.341808 520.783113 
L 457.1419 520.730736 
L 464.742085 520.66592 
L 474.242315 519.754992 
L 478.042408 519.822394 
L 481.8425 519.865423 
L 485.642592 519.724813 
L 495.142823 518.51931 
L 497.042869 518.437511 
L 498.942915 518.78624 
L 500.842961 517.887323 
L 502.743007 517.218682 
L 504.643053 518.345911 
L 506.543099 519.718815 
L 508.443145 520.253332 
L 510.343192 520.989385 
L 512.243238 522.084902 
L 514.143284 521.904128 
L 516.04333 520.382581 
L 517.943376 519.431942 
L 519.843422 519.354544 
L 523.643514 518.413702 
L 525.54356 519.542521 
L 527.443607 521.366244 
L 529.343653 522.081806 
L 531.243699 522.302126 
L 533.143745 523.153411 
L 535.043791 522.617792 
L 536.943837 525.314462 
L 538.843883 522.489568 
L 540.743929 518.560427 
L 542.643975 520.516493 
L 544.544022 523.466091 
L 546.444068 521.777241 
L 548.344114 521.795496 
L 550.24416 526.776498 
L 552.144206 528.345164 
L 554.044252 524.860725 
L 555.944298 524.902786 
L 557.844344 527.065966 
L 559.74439 523.384913 
L 561.644437 519.117572 
L 563.544483 521.391566 
L 565.444529 522.77373 
L 567.344575 519.509359 
L 569.244621 521.015796 
L 571.144667 526.420687 
L 573.044713 525.544998 
L 574.944759 523.252904 
L 576.844805 526.8933 
L 578.744852 527.333651 
L 580.644898 521.774887 
L 582.544944 520.206688 
L 584.44499 522.103347 
L 586.345036 517.952121 
L 588.245082 516.324894 
L 590.145128 522.809964 
L 592.045174 525.223234 
L 593.94522 526.047033 
L 595.845267 528.593215 
L 597.745313 530.236407 
L 599.645359 528.123064 
L 601.545405 526.199634 
L 603.445451 525.401837 
L 605.345497 522.496107 
L 607.245543 520.058465 
L 611.045635 523.376677 
L 612.945682 523.318133 
L 614.845728 525.543725 
L 616.745774 528.05345 
L 618.64582 526.305295 
L 620.545866 523.629532 
L 622.445912 522.528552 
L 624.345958 518.935666 
L 626.246004 513.728974 
L 628.14605 512.281919 
L 630.046097 512.750587 
L 631.946143 511.711988 
L 633.846189 512.869684 
L 635.746235 517.412394 
L 637.646281 519.861083 
L 637.646281 519.861083 
" style="fill:none;stroke:#ff796c;stroke-linecap:square;stroke-width:1.5;"/>
   </g>
   <g id="line2d_48">
    <path clip-path="url(#pf2d6447fc0)" d="M 194.935537 393.957794 
L 202.535722 394.038453 
L 208.23586 394.428376 
L 219.636137 395.53158 
L 225.336275 396.358777 
L 238.636598 398.557826 
L 246.236782 400.209841 
L 253.836967 401.957793 
L 259.537105 403.525279 
L 272.837428 407.467269 
L 282.337658 410.775107 
L 288.037797 412.858275 
L 293.737935 415.204122 
L 305.138212 420.219782 
L 310.83835 423.029877 
L 326.038719 430.79159 
L 341.239088 439.042358 
L 354.53941 446.951992 
L 362.139595 451.76524 
L 375.439918 460.490533 
L 384.940148 467.257579 
L 392.540333 472.87556 
L 402.040563 480.371913 
L 409.640748 486.469737 
L 417.240932 492.893197 
L 428.641209 502.749979 
L 451.441762 523.278941 
L 472.342269 542.534832 
L 478.042408 547.519685 
L 485.642592 553.841234 
L 491.34273 558.397222 
L 495.142823 561.248743 
L 497.042869 562.598513 
L 502.743007 567.344029 
L 506.543099 570.04219 
L 512.243238 573.925692 
L 516.04333 576.856853 
L 519.843422 579.817272 
L 523.643514 582.524087 
L 527.443607 584.805982 
L 533.143745 588.209955 
L 535.043791 588.897124 
L 536.943837 590.128494 
L 540.743929 592.959284 
L 542.643975 594.061239 
L 548.344114 596.756629 
L 550.24416 597.434607 
L 552.144206 598.246928 
L 557.844344 601.318546 
L 561.644437 603.620464 
L 563.544483 604.465593 
L 567.344575 605.831483 
L 569.244621 606.239094 
L 571.144667 606.471161 
L 578.744852 607.967045 
L 584.44499 609.669497 
L 586.345036 610.078335 
L 588.245082 610.211148 
L 590.145128 609.977951 
L 592.045174 609.055414 
L 595.845267 608.950437 
L 597.745313 609.099829 
L 599.645359 609.514119 
L 603.445451 610.777982 
L 607.245543 612.060552 
L 611.045635 612.658895 
L 616.745774 613.447335 
L 618.64582 614.062587 
L 622.445912 615.786949 
L 626.246004 617.715234 
L 628.14605 618.34597 
L 630.046097 618.637337 
L 631.946143 618.646582 
L 633.846189 618.314368 
L 637.646281 617.014864 
L 637.646281 617.014864 
" style="fill:none;stroke:#ffff14;stroke-linecap:square;stroke-width:1.5;"/>
   </g>
   <g id="line2d_49">
    <path clip-path="url(#pf2d6447fc0)" d="M 194.935537 393.450218 
L 202.535722 393.565983 
L 210.135906 393.912942 
L 217.736091 394.490096 
L 225.336275 395.295781 
L 232.936459 396.327673 
L 240.536644 397.582798 
L 248.136828 399.057536 
L 255.737013 400.747636 
L 263.337197 402.648225 
L 270.937382 404.753822 
L 278.537566 407.058356 
L 286.137751 409.555184 
L 295.637981 412.935612 
L 305.138212 416.589983 
L 314.638442 420.501837 
L 324.138673 424.653552 
L 333.638903 429.026427 
L 345.03918 434.53801 
L 356.439457 440.303905 
L 369.739779 447.302239 
L 384.940148 455.582467 
L 403.940609 466.215778 
L 453.341808 494.013622 
L 468.542177 502.226472 
L 481.8425 509.146664 
L 493.242777 514.831866 
L 504.643053 520.250646 
L 514.143284 524.537367 
L 523.643514 528.595323 
L 533.143745 532.406235 
L 542.643975 535.952937 
L 552.144206 539.219453 
L 559.74439 541.621 
L 567.344575 543.826861 
L 574.944759 545.830676 
L 582.544944 547.626667 
L 590.145128 549.209657 
L 597.745313 550.575081 
L 605.345497 551.719002 
L 612.945682 552.638122 
L 620.545866 553.32979 
L 628.14605 553.792014 
L 635.746235 554.023459 
L 637.646281 554.045169 
L 637.646281 554.045169 
" style="fill:none;stroke:#014d4e;stroke-linecap:square;stroke-width:1.5;"/>
   </g>
   <g id="line2d_50">
    <path clip-path="url(#pf2d6447fc0)" d="M 194.935537 521.424392 
L 206.335814 521.375168 
L 215.836044 521.130268 
L 223.436229 520.945735 
L 231.036413 520.712633 
L 242.43669 520.501366 
L 250.036874 520.335068 
L 257.637059 520.156303 
L 265.237243 519.911662 
L 274.737474 519.705727 
L 284.237704 519.397056 
L 289.937843 519.193438 
L 307.038258 518.153194 
L 318.438534 517.218358 
L 327.938765 516.493678 
L 337.438995 515.862646 
L 343.139134 515.377659 
L 365.939687 512.98351 
L 375.439918 511.818098 
L 384.940148 510.256855 
L 390.640287 509.246616 
L 396.340425 508.020116 
L 411.540794 504.399968 
L 422.94107 501.147103 
L 428.641209 499.394855 
L 447.64167 493.02559 
L 460.941993 488.043848 
L 478.042408 481.611001 
L 487.542638 478.566668 
L 493.242777 476.917397 
L 497.042869 476.002957 
L 502.743007 473.955471 
L 506.543099 473.015157 
L 512.243238 471.703997 
L 516.04333 470.442975 
L 519.843422 469.115482 
L 523.643514 468.003205 
L 527.443607 467.276306 
L 533.143745 466.128248 
L 535.043791 466.172086 
L 536.943837 465.661018 
L 540.743929 464.238203 
L 542.643975 463.823666 
L 548.344114 463.122779 
L 550.24416 463.086651 
L 552.144206 462.904493 
L 557.844344 461.65212 
L 561.644437 460.502573 
L 563.544483 460.215178 
L 567.344575 459.927346 
L 569.244621 460.039867 
L 571.144667 460.315207 
L 576.844805 460.694113 
L 578.744852 460.71991 
L 586.345036 460.29872 
L 588.245082 460.554959 
L 590.145128 461.163674 
L 592.045174 462.448129 
L 595.845267 463.235879 
L 597.745313 463.407219 
L 599.645359 463.299815 
L 601.545405 463.013308 
L 607.245543 461.841387 
L 611.045635 461.702646 
L 614.845728 461.653376 
L 616.745774 461.497161 
L 618.64582 461.047698 
L 622.445912 459.611939 
L 626.246004 457.914787 
L 628.14605 457.378012 
L 630.046097 457.166179 
L 631.946143 457.222027 
L 633.846189 457.604882 
L 637.646281 458.962273 
L 637.646281 458.962273 
" style="fill:none;stroke:#e50000;stroke-linecap:square;stroke-width:1.5;"/>
   </g>
   <g id="patch_13">
    <path d="M 172.8 629.9064 
L 172.8 382.1904 
" style="fill:none;stroke:#000000;stroke-linecap:square;stroke-linejoin:miter;stroke-width:0.8;"/>
   </g>
   <g id="patch_14">
    <path d="M 659.781818 629.9064 
L 659.781818 382.1904 
" style="fill:none;stroke:#000000;stroke-linecap:square;stroke-linejoin:miter;stroke-width:0.8;"/>
   </g>
   <g id="patch_15">
    <path d="M 172.8 629.9064 
L 659.781818 629.9064 
" style="fill:none;stroke:#000000;stroke-linecap:square;stroke-linejoin:miter;stroke-width:0.8;"/>
   </g>
   <g id="patch_16">
    <path d="M 172.8 382.1904 
L 659.781818 382.1904 
" style="fill:none;stroke:#000000;stroke-linecap:square;stroke-linejoin:miter;stroke-width:0.8;"/>
   </g>
   <g id="text_41">
    <!-- Left abduction -->
    <defs>
     <path d="M 9.8125 72.90625 
L 19.671875 72.90625 
L 19.671875 8.296875 
L 55.171875 8.296875 
L 55.171875 0 
L 9.8125 0 
z
" id="DejaVuSans-76"/>
    </defs>
    <g transform="translate(372.997159 376.1904)scale(0.12 -0.12)">
     <use xlink:href="#DejaVuSans-76"/>
     <use x="55.697266" xlink:href="#DejaVuSans-101"/>
     <use x="117.220703" xlink:href="#DejaVuSans-102"/>
     <use x="152.410156" xlink:href="#DejaVuSans-116"/>
     <use x="191.619141" xlink:href="#DejaVuSans-32"/>
     <use x="223.40625" xlink:href="#DejaVuSans-97"/>
     <use x="284.685547" xlink:href="#DejaVuSans-98"/>
     <use x="348.162109" xlink:href="#DejaVuSans-100"/>
     <use x="411.638672" xlink:href="#DejaVuSans-117"/>
     <use x="475.017578" xlink:href="#DejaVuSans-99"/>
     <use x="529.998047" xlink:href="#DejaVuSans-116"/>
     <use x="569.207031" xlink:href="#DejaVuSans-105"/>
     <use x="596.990234" xlink:href="#DejaVuSans-111"/>
     <use x="658.171875" xlink:href="#DejaVuSans-110"/>
    </g>
   </g>
  </g>
  <g id="axes_4">
   <g id="patch_17">
    <path d="M 757.178182 629.9064 
L 1244.16 629.9064 
L 1244.16 382.1904 
L 757.178182 382.1904 
z
" style="fill:#ffffff;"/>
   </g>
   <g id="matplotlib.axis_7">
    <g id="xtick_16">
     <g id="line2d_51">
      <g>
       <use style="stroke:#000000;stroke-width:0.8;" x="779.313719" xlink:href="#m99c68f13c5" y="629.9064"/>
      </g>
     </g>
     <g id="text_42">
      <!-- 0 -->
      <g transform="translate(776.132469 644.504838)scale(0.1 -0.1)">
       <use xlink:href="#DejaVuSans-48"/>
      </g>
     </g>
    </g>
    <g id="xtick_17">
     <g id="line2d_52">
      <g>
       <use style="stroke:#000000;stroke-width:0.8;" x="874.316025" xlink:href="#m99c68f13c5" y="629.9064"/>
      </g>
     </g>
     <g id="text_43">
      <!-- 50 -->
      <g transform="translate(867.953525 644.504838)scale(0.1 -0.1)">
       <use xlink:href="#DejaVuSans-53"/>
       <use x="63.623047" xlink:href="#DejaVuSans-48"/>
      </g>
     </g>
    </g>
    <g id="xtick_18">
     <g id="line2d_53">
      <g>
       <use style="stroke:#000000;stroke-width:0.8;" x="969.31833" xlink:href="#m99c68f13c5" y="629.9064"/>
      </g>
     </g>
     <g id="text_44">
      <!-- 100 -->
      <g transform="translate(959.77458 644.504838)scale(0.1 -0.1)">
       <use xlink:href="#DejaVuSans-49"/>
       <use x="63.623047" xlink:href="#DejaVuSans-48"/>
       <use x="127.246094" xlink:href="#DejaVuSans-48"/>
      </g>
     </g>
    </g>
    <g id="xtick_19">
     <g id="line2d_54">
      <g>
       <use style="stroke:#000000;stroke-width:0.8;" x="1064.320636" xlink:href="#m99c68f13c5" y="629.9064"/>
      </g>
     </g>
     <g id="text_45">
      <!-- 150 -->
      <g transform="translate(1054.776886 644.504838)scale(0.1 -0.1)">
       <use xlink:href="#DejaVuSans-49"/>
       <use x="63.623047" xlink:href="#DejaVuSans-53"/>
       <use x="127.246094" xlink:href="#DejaVuSans-48"/>
      </g>
     </g>
    </g>
    <g id="xtick_20">
     <g id="line2d_55">
      <g>
       <use style="stroke:#000000;stroke-width:0.8;" x="1159.322941" xlink:href="#m99c68f13c5" y="629.9064"/>
      </g>
     </g>
     <g id="text_46">
      <!-- 200 -->
      <g transform="translate(1149.779191 644.504838)scale(0.1 -0.1)">
       <use xlink:href="#DejaVuSans-50"/>
       <use x="63.623047" xlink:href="#DejaVuSans-48"/>
       <use x="127.246094" xlink:href="#DejaVuSans-48"/>
      </g>
     </g>
    </g>
   </g>
   <g id="matplotlib.axis_8">
    <g id="ytick_24">
     <g id="line2d_56">
      <g>
       <use style="stroke:#000000;stroke-width:0.8;" x="757.178182" xlink:href="#m667c6b5144" y="605.171106"/>
      </g>
     </g>
     <g id="text_47">
      <!-- −0.5 -->
      <g transform="translate(725.895369 608.970325)scale(0.1 -0.1)">
       <use xlink:href="#DejaVuSans-8722"/>
       <use x="83.789062" xlink:href="#DejaVuSans-48"/>
       <use x="147.412109" xlink:href="#DejaVuSans-46"/>
       <use x="179.199219" xlink:href="#DejaVuSans-53"/>
      </g>
     </g>
    </g>
    <g id="ytick_25">
     <g id="line2d_57">
      <g>
       <use style="stroke:#000000;stroke-width:0.8;" x="757.178182" xlink:href="#m667c6b5144" y="572.000714"/>
      </g>
     </g>
     <g id="text_48">
      <!-- −0.4 -->
      <g transform="translate(725.895369 575.799933)scale(0.1 -0.1)">
       <use xlink:href="#DejaVuSans-8722"/>
       <use x="83.789062" xlink:href="#DejaVuSans-48"/>
       <use x="147.412109" xlink:href="#DejaVuSans-46"/>
       <use x="179.199219" xlink:href="#DejaVuSans-52"/>
      </g>
     </g>
    </g>
    <g id="ytick_26">
     <g id="line2d_58">
      <g>
       <use style="stroke:#000000;stroke-width:0.8;" x="757.178182" xlink:href="#m667c6b5144" y="538.830321"/>
      </g>
     </g>
     <g id="text_49">
      <!-- −0.3 -->
      <defs>
       <path d="M 40.578125 39.3125 
Q 47.65625 37.796875 51.625 33 
Q 55.609375 28.21875 55.609375 21.1875 
Q 55.609375 10.40625 48.1875 4.484375 
Q 40.765625 -1.421875 27.09375 -1.421875 
Q 22.515625 -1.421875 17.65625 -0.515625 
Q 12.796875 0.390625 7.625 2.203125 
L 7.625 11.71875 
Q 11.71875 9.328125 16.59375 8.109375 
Q 21.484375 6.890625 26.8125 6.890625 
Q 36.078125 6.890625 40.9375 10.546875 
Q 45.796875 14.203125 45.796875 21.1875 
Q 45.796875 27.640625 41.28125 31.265625 
Q 36.765625 34.90625 28.71875 34.90625 
L 20.21875 34.90625 
L 20.21875 43.015625 
L 29.109375 43.015625 
Q 36.375 43.015625 40.234375 45.921875 
Q 44.09375 48.828125 44.09375 54.296875 
Q 44.09375 59.90625 40.109375 62.90625 
Q 36.140625 65.921875 28.71875 65.921875 
Q 24.65625 65.921875 20.015625 65.03125 
Q 15.375 64.15625 9.8125 62.3125 
L 9.8125 71.09375 
Q 15.4375 72.65625 20.34375 73.4375 
Q 25.25 74.21875 29.59375 74.21875 
Q 40.828125 74.21875 47.359375 69.109375 
Q 53.90625 64.015625 53.90625 55.328125 
Q 53.90625 49.265625 50.4375 45.09375 
Q 46.96875 40.921875 40.578125 39.3125 
z
" id="DejaVuSans-51"/>
      </defs>
      <g transform="translate(725.895369 542.62954)scale(0.1 -0.1)">
       <use xlink:href="#DejaVuSans-8722"/>
       <use x="83.789062" xlink:href="#DejaVuSans-48"/>
       <use x="147.412109" xlink:href="#DejaVuSans-46"/>
       <use x="179.199219" xlink:href="#DejaVuSans-51"/>
      </g>
     </g>
    </g>
    <g id="ytick_27">
     <g id="line2d_59">
      <g>
       <use style="stroke:#000000;stroke-width:0.8;" x="757.178182" xlink:href="#m667c6b5144" y="505.659928"/>
      </g>
     </g>
     <g id="text_50">
      <!-- −0.2 -->
      <g transform="translate(725.895369 509.459147)scale(0.1 -0.1)">
       <use xlink:href="#DejaVuSans-8722"/>
       <use x="83.789062" xlink:href="#DejaVuSans-48"/>
       <use x="147.412109" xlink:href="#DejaVuSans-46"/>
       <use x="179.199219" xlink:href="#DejaVuSans-50"/>
      </g>
     </g>
    </g>
    <g id="ytick_28">
     <g id="line2d_60">
      <g>
       <use style="stroke:#000000;stroke-width:0.8;" x="757.178182" xlink:href="#m667c6b5144" y="472.489536"/>
      </g>
     </g>
     <g id="text_51">
      <!-- −0.1 -->
      <g transform="translate(725.895369 476.288754)scale(0.1 -0.1)">
       <use xlink:href="#DejaVuSans-8722"/>
       <use x="83.789062" xlink:href="#DejaVuSans-48"/>
       <use x="147.412109" xlink:href="#DejaVuSans-46"/>
       <use x="179.199219" xlink:href="#DejaVuSans-49"/>
      </g>
     </g>
    </g>
    <g id="ytick_29">
     <g id="line2d_61">
      <g>
       <use style="stroke:#000000;stroke-width:0.8;" x="757.178182" xlink:href="#m667c6b5144" y="439.319143"/>
      </g>
     </g>
     <g id="text_52">
      <!-- 0.0 -->
      <g transform="translate(734.275057 443.118362)scale(0.1 -0.1)">
       <use xlink:href="#DejaVuSans-48"/>
       <use x="63.623047" xlink:href="#DejaVuSans-46"/>
       <use x="95.410156" xlink:href="#DejaVuSans-48"/>
      </g>
     </g>
    </g>
    <g id="ytick_30">
     <g id="line2d_62">
      <g>
       <use style="stroke:#000000;stroke-width:0.8;" x="757.178182" xlink:href="#m667c6b5144" y="406.14875"/>
      </g>
     </g>
     <g id="text_53">
      <!-- 0.1 -->
      <g transform="translate(734.275057 409.947969)scale(0.1 -0.1)">
       <use xlink:href="#DejaVuSans-48"/>
       <use x="63.623047" xlink:href="#DejaVuSans-46"/>
       <use x="95.410156" xlink:href="#DejaVuSans-49"/>
      </g>
     </g>
    </g>
   </g>
   <g id="line2d_63">
    <path clip-path="url(#p007ae21624)" d="M 779.313719 439.309523 
L 840.115195 438.894586 
L 843.915287 438.663965 
L 847.715379 438.190929 
L 853.415517 437.128043 
L 857.21561 436.449777 
L 861.015702 435.94794 
L 866.71584 435.506013 
L 880.016163 434.836319 
L 883.816255 434.284908 
L 895.216532 432.210205 
L 900.91667 431.576535 
L 908.516855 430.73526 
L 916.117039 429.842305 
L 919.917131 429.627652 
L 923.717223 429.707172 
L 927.517316 430.061664 
L 935.1175 430.904132 
L 940.817638 431.181541 
L 946.517777 431.415334 
L 950.317869 431.791148 
L 957.918053 432.866258 
L 961.718146 433.129009 
L 965.518238 433.166645 
L 969.31833 432.941037 
L 973.118422 432.459713 
L 980.718607 431.192575 
L 984.518699 430.870755 
L 988.318791 430.77092 
L 990.218837 430.922526 
L 992.118883 431.254305 
L 994.01893 431.759543 
L 1001.619114 434.169965 
L 1003.51916 434.547035 
L 1005.419206 434.769886 
L 1009.219298 434.835222 
L 1013.019391 434.740791 
L 1014.919437 434.79571 
L 1016.819483 435.997759 
L 1022.519621 441.567176 
L 1024.419667 443.089532 
L 1032.019852 447.913656 
L 1033.919898 449.441249 
L 1037.71999 453.009061 
L 1041.520082 456.687509 
L 1043.420128 458.376046 
L 1045.320175 459.897127 
L 1047.220221 461.24113 
L 1051.020313 463.573704 
L 1054.820405 465.93689 
L 1056.720451 467.371783 
L 1058.620497 469.08614 
L 1060.520543 471.113517 
L 1062.42059 473.472476 
L 1064.320636 476.162732 
L 1068.120728 482.289117 
L 1071.92082 488.998394 
L 1077.620958 499.495299 
L 1081.421051 507.03931 
L 1085.221143 486.213543 
L 1087.121189 487.962557 
L 1090.921281 490.16217 
L 1092.821327 491.847688 
L 1094.721373 493.173083 
L 1096.62142 493.772751 
L 1098.521466 494.711688 
L 1100.421512 496.172724 
L 1102.321558 496.916622 
L 1104.221604 496.955452 
L 1106.12165 497.623543 
L 1108.021696 498.65168 
L 1109.921742 498.651004 
L 1111.821788 498.165997 
L 1115.621881 498.968617 
L 1117.521927 498.195861 
L 1119.421973 512.069696 
L 1121.322019 500.37683 
L 1123.222065 500.432872 
L 1125.122111 501.996372 
L 1128.922203 495.553791 
L 1130.822249 497.546381 
L 1132.722296 498.368598 
L 1134.622342 494.6963 
L 1136.522388 493.767629 
L 1138.422434 496.571972 
L 1140.32248 495.679456 
L 1142.222526 492.647502 
L 1144.122572 494.142422 
L 1146.022618 496.228805 
L 1147.922664 494.103298 
L 1149.822711 493.372703 
L 1151.722757 496.297912 
L 1153.622803 496.661501 
L 1155.522849 495.02682 
L 1157.422895 496.841169 
L 1159.322941 499.049311 
L 1161.222987 498.063134 
L 1163.123033 498.295805 
L 1165.023079 500.818152 
L 1166.923126 506.382709 
L 1168.823172 509.980242 
L 1170.723218 515.033452 
L 1172.623264 518.615798 
L 1174.52331 518.946997 
L 1176.423356 536.77058 
L 1178.323402 533.373831 
L 1180.223448 528.507584 
L 1184.023541 516.987455 
L 1185.923587 509.857674 
L 1187.823633 509.020994 
L 1189.723679 509.254054 
L 1191.623725 509.819053 
L 1193.523771 509.320311 
L 1195.423817 509.316531 
L 1197.323863 510.376655 
L 1199.223909 510.376858 
L 1201.123956 509.838029 
L 1203.024002 510.768615 
L 1204.924048 511.436847 
L 1206.824094 510.580223 
L 1208.72414 510.818163 
L 1210.624186 512.191754 
L 1212.524232 511.90828 
L 1214.424278 511.395708 
L 1216.324324 513.052582 
L 1218.224371 514.231694 
L 1220.124417 513.576228 
L 1222.024463 514.476394 
L 1222.024463 514.476394 
" style="fill:none;stroke:#ff796c;stroke-linecap:square;stroke-width:1.5;"/>
   </g>
   <g id="line2d_64">
    <path clip-path="url(#p007ae21624)" d="M 779.313719 572.831898 
L 845.815333 572.922953 
L 874.316025 573.426374 
L 883.816255 573.588085 
L 904.716762 574.157435 
L 916.117039 574.340382 
L 919.917131 574.211652 
L 923.717223 573.915349 
L 929.417362 573.192429 
L 959.8181 568.63585 
L 963.618192 568.41864 
L 967.418284 568.398931 
L 971.218376 568.573987 
L 976.918515 569.122323 
L 982.618653 569.707578 
L 988.318791 570.091562 
L 992.118883 570.135703 
L 1001.619114 570.013128 
L 1005.419206 570.40471 
L 1009.219298 571.194609 
L 1013.019391 572.29774 
L 1014.919437 572.928228 
L 1016.819483 572.863157 
L 1022.519621 571.595738 
L 1024.419667 571.317279 
L 1028.21976 571.078772 
L 1035.819944 570.813918 
L 1039.620036 570.833443 
L 1041.520082 570.971982 
L 1043.420128 571.232437 
L 1045.320175 571.634498 
L 1047.220221 572.18849 
L 1049.120267 572.894575 
L 1051.020313 573.744001 
L 1054.820405 575.812674 
L 1058.620497 578.261321 
L 1062.42059 581.028275 
L 1066.220682 584.183663 
L 1068.120728 585.965106 
L 1070.020774 587.917923 
L 1071.92082 590.065048 
L 1073.820866 592.425243 
L 1075.720912 595.009541 
L 1077.620958 597.818254 
L 1079.521005 600.845419 
L 1081.421051 604.082307 
L 1085.221143 618.646582 
L 1087.121189 617.514094 
L 1089.021235 616.607666 
L 1090.921281 615.882614 
L 1094.721373 614.838127 
L 1098.521466 614.169202 
L 1102.321558 613.740824 
L 1108.021696 613.369196 
L 1115.621881 613.139308 
L 1117.521927 613.107107 
L 1119.421973 611.002225 
L 1121.322019 615.463941 
L 1125.122111 614.569358 
L 1128.922203 613.996868 
L 1132.722296 613.63086 
L 1138.422434 613.313734 
L 1147.922664 613.090607 
L 1165.023079 612.999983 
L 1166.923126 609.143627 
L 1168.823172 605.949721 
L 1170.723218 603.545784 
L 1172.623264 601.8845 
L 1174.52331 600.917011 
L 1176.423356 596.971422 
L 1178.323402 598.551531 
L 1180.223448 600.919296 
L 1182.123494 604.121331 
L 1184.023541 608.199196 
L 1185.923587 613.093967 
L 1206.824094 613.024654 
L 1222.024463 613.02474 
L 1222.024463 613.02474 
" style="fill:none;stroke:#ffff14;stroke-linecap:square;stroke-width:1.5;"/>
   </g>
   <g id="line2d_65">
    <path clip-path="url(#p007ae21624)" d="M 779.313719 572.777657 
L 1222.024463 572.777657 
L 1222.024463 572.777657 
" style="fill:none;stroke:#014d4e;stroke-linecap:square;stroke-width:1.5;"/>
   </g>
   <g id="line2d_66">
    <path clip-path="url(#p007ae21624)" d="M 779.313719 439.264902 
L 845.815333 439.173847 
L 874.316025 438.670426 
L 883.816255 438.508715 
L 904.716762 437.939365 
L 916.117039 437.756418 
L 919.917131 437.885148 
L 923.717223 438.181451 
L 929.417362 438.904371 
L 959.8181 443.46095 
L 963.618192 443.67816 
L 967.418284 443.697869 
L 971.218376 443.522813 
L 976.918515 442.974477 
L 982.618653 442.389222 
L 988.318791 442.005238 
L 992.118883 441.961097 
L 1001.619114 442.083672 
L 1005.419206 441.69209 
L 1009.219298 440.902191 
L 1013.019391 439.79906 
L 1014.919437 439.168572 
L 1016.819483 439.233643 
L 1022.519621 440.501062 
L 1024.419667 440.779521 
L 1028.21976 441.018028 
L 1035.819944 441.282882 
L 1039.620036 441.263357 
L 1041.520082 441.124818 
L 1043.420128 440.864363 
L 1045.320175 440.462302 
L 1047.220221 439.90831 
L 1049.120267 439.202225 
L 1051.020313 438.352799 
L 1054.820405 436.284126 
L 1058.620497 433.835479 
L 1062.42059 431.068525 
L 1066.220682 427.913137 
L 1068.120728 426.131694 
L 1070.020774 424.178877 
L 1071.92082 422.031752 
L 1073.820866 419.671557 
L 1075.720912 417.087259 
L 1077.620958 414.278546 
L 1079.521005 411.251381 
L 1081.421051 408.014493 
L 1085.221143 393.450218 
L 1087.121189 394.582706 
L 1089.021235 395.489134 
L 1090.921281 396.214186 
L 1094.721373 397.258673 
L 1098.521466 397.927598 
L 1102.321558 398.355976 
L 1108.021696 398.727604 
L 1115.621881 398.957492 
L 1117.521927 398.989693 
L 1119.421973 401.094575 
L 1121.322019 396.632859 
L 1125.122111 397.527442 
L 1128.922203 398.099932 
L 1132.722296 398.46594 
L 1138.422434 398.783066 
L 1147.922664 399.006193 
L 1165.023079 399.096817 
L 1166.923126 402.953173 
L 1168.823172 406.147079 
L 1170.723218 408.551016 
L 1172.623264 410.2123 
L 1174.52331 411.179789 
L 1176.423356 415.125378 
L 1178.323402 413.545269 
L 1180.223448 411.177504 
L 1182.123494 407.975469 
L 1184.023541 403.897604 
L 1185.923587 399.002833 
L 1206.824094 399.072146 
L 1222.024463 399.07206 
L 1222.024463 399.07206 
" style="fill:none;stroke:#e50000;stroke-linecap:square;stroke-width:1.5;"/>
   </g>
   <g id="patch_18">
    <path d="M 757.178182 629.9064 
L 757.178182 382.1904 
" style="fill:none;stroke:#000000;stroke-linecap:square;stroke-linejoin:miter;stroke-width:0.8;"/>
   </g>
   <g id="patch_19">
    <path d="M 1244.16 629.9064 
L 1244.16 382.1904 
" style="fill:none;stroke:#000000;stroke-linecap:square;stroke-linejoin:miter;stroke-width:0.8;"/>
   </g>
   <g id="patch_20">
    <path d="M 757.178182 629.9064 
L 1244.16 629.9064 
" style="fill:none;stroke:#000000;stroke-linecap:square;stroke-linejoin:miter;stroke-width:0.8;"/>
   </g>
   <g id="patch_21">
    <path d="M 757.178182 382.1904 
L 1244.16 382.1904 
" style="fill:none;stroke:#000000;stroke-linecap:square;stroke-linejoin:miter;stroke-width:0.8;"/>
   </g>
   <g id="text_54">
    <!-- Left flexion -->
    <g transform="translate(967.102841 376.1904)scale(0.12 -0.12)">
     <use xlink:href="#DejaVuSans-76"/>
     <use x="55.697266" xlink:href="#DejaVuSans-101"/>
     <use x="117.220703" xlink:href="#DejaVuSans-102"/>
     <use x="152.410156" xlink:href="#DejaVuSans-116"/>
     <use x="191.619141" xlink:href="#DejaVuSans-32"/>
     <use x="223.40625" xlink:href="#DejaVuSans-102"/>
     <use x="258.611328" xlink:href="#DejaVuSans-108"/>
     <use x="286.394531" xlink:href="#DejaVuSans-101"/>
     <use x="347.902344" xlink:href="#DejaVuSans-120"/>
     <use x="407.082031" xlink:href="#DejaVuSans-105"/>
     <use x="434.865234" xlink:href="#DejaVuSans-111"/>
     <use x="496.046875" xlink:href="#DejaVuSans-110"/>
    </g>
   </g>
  </g>
  <g id="legend_1">
   <g id="patch_22">
    <path d="M 1308.251562 384.875313 
L 1375.4 384.875313 
Q 1377.4 384.875313 1377.4 382.875313 
L 1377.4 324.884687 
Q 1377.4 322.884687 1375.4 322.884687 
L 1308.251562 322.884687 
Q 1306.251562 322.884687 1306.251562 324.884687 
L 1306.251562 382.875313 
Q 1306.251562 384.875313 1308.251562 384.875313 
z
" style="fill:#ffffff;opacity:0.8;stroke:#cccccc;stroke-linejoin:miter;"/>
   </g>
   <g id="line2d_67">
    <path d="M 1310.251562 330.983125 
L 1330.251562 330.983125 
" style="fill:none;stroke:#ff796c;stroke-linecap:square;stroke-width:1.5;"/>
   </g>
   <g id="line2d_68"/>
   <g id="text_55">
    <!-- Torque -->
    <defs>
     <path d="M -0.296875 72.90625 
L 61.375 72.90625 
L 61.375 64.59375 
L 35.5 64.59375 
L 35.5 0 
L 25.59375 0 
L 25.59375 64.59375 
L -0.296875 64.59375 
z
" id="DejaVuSans-84"/>
     <path d="M 41.109375 46.296875 
Q 39.59375 47.171875 37.8125 47.578125 
Q 36.03125 48 33.890625 48 
Q 26.265625 48 22.1875 43.046875 
Q 18.109375 38.09375 18.109375 28.8125 
L 18.109375 0 
L 9.078125 0 
L 9.078125 54.6875 
L 18.109375 54.6875 
L 18.109375 46.1875 
Q 20.953125 51.171875 25.484375 53.578125 
Q 30.03125 56 36.53125 56 
Q 37.453125 56 38.578125 55.875 
Q 39.703125 55.765625 41.0625 55.515625 
z
" id="DejaVuSans-114"/>
     <path d="M 14.796875 27.296875 
Q 14.796875 17.390625 18.875 11.75 
Q 22.953125 6.109375 30.078125 6.109375 
Q 37.203125 6.109375 41.296875 11.75 
Q 45.40625 17.390625 45.40625 27.296875 
Q 45.40625 37.203125 41.296875 42.84375 
Q 37.203125 48.484375 30.078125 48.484375 
Q 22.953125 48.484375 18.875 42.84375 
Q 14.796875 37.203125 14.796875 27.296875 
z
M 45.40625 8.203125 
Q 42.578125 3.328125 38.25 0.953125 
Q 33.9375 -1.421875 27.875 -1.421875 
Q 17.96875 -1.421875 11.734375 6.484375 
Q 5.515625 14.40625 5.515625 27.296875 
Q 5.515625 40.1875 11.734375 48.09375 
Q 17.96875 56 27.875 56 
Q 33.9375 56 38.25 53.625 
Q 42.578125 51.265625 45.40625 46.390625 
L 45.40625 54.6875 
L 54.390625 54.6875 
L 54.390625 -20.796875 
L 45.40625 -20.796875 
z
" id="DejaVuSans-113"/>
    </defs>
    <g transform="translate(1338.251562 334.483125)scale(0.1 -0.1)">
     <use xlink:href="#DejaVuSans-84"/>
     <use x="60.818359" xlink:href="#DejaVuSans-111"/>
     <use x="122" xlink:href="#DejaVuSans-114"/>
     <use x="163.097656" xlink:href="#DejaVuSans-113"/>
     <use x="226.574219" xlink:href="#DejaVuSans-117"/>
     <use x="289.953125" xlink:href="#DejaVuSans-101"/>
    </g>
   </g>
   <g id="line2d_69">
    <path d="M 1310.251562 345.66125 
L 1330.251562 345.66125 
" style="fill:none;stroke:#ffff14;stroke-linecap:square;stroke-width:1.5;"/>
   </g>
   <g id="line2d_70"/>
   <g id="text_56">
    <!-- q -->
    <g transform="translate(1338.251562 349.16125)scale(0.1 -0.1)">
     <use xlink:href="#DejaVuSans-113"/>
    </g>
   </g>
   <g id="line2d_71">
    <path d="M 1310.251562 360.339375 
L 1330.251562 360.339375 
" style="fill:none;stroke:#014d4e;stroke-linecap:square;stroke-width:1.5;"/>
   </g>
   <g id="line2d_72"/>
   <g id="text_57">
    <!-- q_des -->
    <defs>
     <path d="M 50.984375 -16.609375 
L 50.984375 -23.578125 
L -0.984375 -23.578125 
L -0.984375 -16.609375 
z
" id="DejaVuSans-95"/>
     <path d="M 44.28125 53.078125 
L 44.28125 44.578125 
Q 40.484375 46.53125 36.375 47.5 
Q 32.28125 48.484375 27.875 48.484375 
Q 21.1875 48.484375 17.84375 46.4375 
Q 14.5 44.390625 14.5 40.28125 
Q 14.5 37.15625 16.890625 35.375 
Q 19.28125 33.59375 26.515625 31.984375 
L 29.59375 31.296875 
Q 39.15625 29.25 43.1875 25.515625 
Q 47.21875 21.78125 47.21875 15.09375 
Q 47.21875 7.46875 41.1875 3.015625 
Q 35.15625 -1.421875 24.609375 -1.421875 
Q 20.21875 -1.421875 15.453125 -0.5625 
Q 10.6875 0.296875 5.421875 2 
L 5.421875 11.28125 
Q 10.40625 8.6875 15.234375 7.390625 
Q 20.0625 6.109375 24.8125 6.109375 
Q 31.15625 6.109375 34.5625 8.28125 
Q 37.984375 10.453125 37.984375 14.40625 
Q 37.984375 18.0625 35.515625 20.015625 
Q 33.0625 21.96875 24.703125 23.78125 
L 21.578125 24.515625 
Q 13.234375 26.265625 9.515625 29.90625 
Q 5.8125 33.546875 5.8125 39.890625 
Q 5.8125 47.609375 11.28125 51.796875 
Q 16.75 56 26.8125 56 
Q 31.78125 56 36.171875 55.265625 
Q 40.578125 54.546875 44.28125 53.078125 
z
" id="DejaVuSans-115"/>
    </defs>
    <g transform="translate(1338.251562 363.839375)scale(0.1 -0.1)">
     <use xlink:href="#DejaVuSans-113"/>
     <use x="63.476562" xlink:href="#DejaVuSans-95"/>
     <use x="113.476562" xlink:href="#DejaVuSans-100"/>
     <use x="176.953125" xlink:href="#DejaVuSans-101"/>
     <use x="238.476562" xlink:href="#DejaVuSans-115"/>
    </g>
   </g>
   <g id="line2d_73">
    <path d="M 1310.251562 375.295625 
L 1330.251562 375.295625 
" style="fill:none;stroke:#e50000;stroke-linecap:square;stroke-width:1.5;"/>
   </g>
   <g id="line2d_74"/>
   <g id="text_58">
    <!-- error -->
    <g transform="translate(1338.251562 378.795625)scale(0.1 -0.1)">
     <use xlink:href="#DejaVuSans-101"/>
     <use x="61.523438" xlink:href="#DejaVuSans-114"/>
     <use x="102.621094" xlink:href="#DejaVuSans-114"/>
     <use x="143.703125" xlink:href="#DejaVuSans-111"/>
     <use x="204.884766" xlink:href="#DejaVuSans-114"/>
    </g>
   </g>
  </g>
 </g>
 <defs>
  <clipPath id="p2cf663391a">
   <rect height="247.716" width="486.981818" x="172.8" y="84.9312"/>
  </clipPath>
  <clipPath id="p45d63dc245">
   <rect height="247.716" width="486.981818" x="757.178182" y="84.9312"/>
  </clipPath>
  <clipPath id="pf2d6447fc0">
   <rect height="247.716" width="486.981818" x="172.8" y="382.1904"/>
  </clipPath>
  <clipPath id="p007ae21624">
   <rect height="247.716" width="486.981818" x="757.178182" y="382.1904"/>
  </clipPath>
 </defs>
</svg>
