<?xml version="1.0" encoding="utf-8" standalone="no"?>
<!DOCTYPE svg PUBLIC "-//W3C//DTD SVG 1.1//EN"
  "http://www.w3.org/Graphics/SVG/1.1/DTD/svg11.dtd">
<!-- Created with matplotlib (https://matplotlib.org/) -->
<svg height="707.76pt" version="1.1" viewBox="0 0 1382.4 707.76" width="1382.4pt" xmlns="http://www.w3.org/2000/svg" xmlns:xlink="http://www.w3.org/1999/xlink">
 <defs>
  <style type="text/css">
*{stroke-linecap:butt;stroke-linejoin:round;}
  </style>
 </defs>
 <g id="figure_1">
  <g id="patch_1">
   <path d="M 0 707.76 
L 1382.4 707.76 
L 1382.4 0 
L 0 0 
z
" style="fill:#ffffff;"/>
  </g>
  <g id="axes_1">
   <g id="patch_2">
    <path d="M 172.8 332.6472 
L 659.781818 332.6472 
L 659.781818 84.9312 
L 172.8 84.9312 
z
" style="fill:#ffffff;"/>
   </g>
   <g id="matplotlib.axis_1">
    <g id="xtick_1">
     <g id="line2d_1">
      <defs>
       <path d="M 0 0 
L 0 3.5 
" id="me139ce47ba" style="stroke:#000000;stroke-width:0.8;"/>
      </defs>
      <g>
       <use style="stroke:#000000;stroke-width:0.8;" x="194.935537" xlink:href="#me139ce47ba" y="332.6472"/>
      </g>
     </g>
     <g id="text_1">
      <!-- 0 -->
      <defs>
       <path d="M 31.78125 66.40625 
Q 24.171875 66.40625 20.328125 58.90625 
Q 16.5 51.421875 16.5 36.375 
Q 16.5 21.390625 20.328125 13.890625 
Q 24.171875 6.390625 31.78125 6.390625 
Q 39.453125 6.390625 43.28125 13.890625 
Q 47.125 21.390625 47.125 36.375 
Q 47.125 51.421875 43.28125 58.90625 
Q 39.453125 66.40625 31.78125 66.40625 
z
M 31.78125 74.21875 
Q 44.046875 74.21875 50.515625 64.515625 
Q 56.984375 54.828125 56.984375 36.375 
Q 56.984375 17.96875 50.515625 8.265625 
Q 44.046875 -1.421875 31.78125 -1.421875 
Q 19.53125 -1.421875 13.0625 8.265625 
Q 6.59375 17.96875 6.59375 36.375 
Q 6.59375 54.828125 13.0625 64.515625 
Q 19.53125 74.21875 31.78125 74.21875 
z
" id="DejaVuSans-48"/>
      </defs>
      <g transform="translate(191.754287 347.245637)scale(0.1 -0.1)">
       <use xlink:href="#DejaVuSans-48"/>
      </g>
     </g>
    </g>
    <g id="xtick_2">
     <g id="line2d_2">
      <g>
       <use style="stroke:#000000;stroke-width:0.8;" x="289.937843" xlink:href="#me139ce47ba" y="332.6472"/>
      </g>
     </g>
     <g id="text_2">
      <!-- 50 -->
      <defs>
       <path d="M 10.796875 72.90625 
L 49.515625 72.90625 
L 49.515625 64.59375 
L 19.828125 64.59375 
L 19.828125 46.734375 
Q 21.96875 47.46875 24.109375 47.828125 
Q 26.265625 48.1875 28.421875 48.1875 
Q 40.625 48.1875 47.75 41.5 
Q 54.890625 34.8125 54.890625 23.390625 
Q 54.890625 11.625 47.5625 5.09375 
Q 40.234375 -1.421875 26.90625 -1.421875 
Q 22.3125 -1.421875 17.546875 -0.640625 
Q 12.796875 0.140625 7.71875 1.703125 
L 7.71875 11.625 
Q 12.109375 9.234375 16.796875 8.0625 
Q 21.484375 6.890625 26.703125 6.890625 
Q 35.15625 6.890625 40.078125 11.328125 
Q 45.015625 15.765625 45.015625 23.390625 
Q 45.015625 31 40.078125 35.4375 
Q 35.15625 39.890625 26.703125 39.890625 
Q 22.75 39.890625 18.8125 39.015625 
Q 14.890625 38.140625 10.796875 36.28125 
z
" id="DejaVuSans-53"/>
      </defs>
      <g transform="translate(283.575343 347.245637)scale(0.1 -0.1)">
       <use xlink:href="#DejaVuSans-53"/>
       <use x="63.623047" xlink:href="#DejaVuSans-48"/>
      </g>
     </g>
    </g>
    <g id="xtick_3">
     <g id="line2d_3">
      <g>
       <use style="stroke:#000000;stroke-width:0.8;" x="384.940148" xlink:href="#me139ce47ba" y="332.6472"/>
      </g>
     </g>
     <g id="text_3">
      <!-- 100 -->
      <defs>
       <path d="M 12.40625 8.296875 
L 28.515625 8.296875 
L 28.515625 63.921875 
L 10.984375 60.40625 
L 10.984375 69.390625 
L 28.421875 72.90625 
L 38.28125 72.90625 
L 38.28125 8.296875 
L 54.390625 8.296875 
L 54.390625 0 
L 12.40625 0 
z
" id="DejaVuSans-49"/>
      </defs>
      <g transform="translate(375.396398 347.245637)scale(0.1 -0.1)">
       <use xlink:href="#DejaVuSans-49"/>
       <use x="63.623047" xlink:href="#DejaVuSans-48"/>
       <use x="127.246094" xlink:href="#DejaVuSans-48"/>
      </g>
     </g>
    </g>
    <g id="xtick_4">
     <g id="line2d_4">
      <g>
       <use style="stroke:#000000;stroke-width:0.8;" x="479.942454" xlink:href="#me139ce47ba" y="332.6472"/>
      </g>
     </g>
     <g id="text_4">
      <!-- 150 -->
      <g transform="translate(470.398704 347.245637)scale(0.1 -0.1)">
       <use xlink:href="#DejaVuSans-49"/>
       <use x="63.623047" xlink:href="#DejaVuSans-53"/>
       <use x="127.246094" xlink:href="#DejaVuSans-48"/>
      </g>
     </g>
    </g>
    <g id="xtick_5">
     <g id="line2d_5">
      <g>
       <use style="stroke:#000000;stroke-width:0.8;" x="574.944759" xlink:href="#me139ce47ba" y="332.6472"/>
      </g>
     </g>
     <g id="text_5">
      <!-- 200 -->
      <defs>
       <path d="M 19.1875 8.296875 
L 53.609375 8.296875 
L 53.609375 0 
L 7.328125 0 
L 7.328125 8.296875 
Q 12.9375 14.109375 22.625 23.890625 
Q 32.328125 33.6875 34.8125 36.53125 
Q 39.546875 41.84375 41.421875 45.53125 
Q 43.3125 49.21875 43.3125 52.78125 
Q 43.3125 58.59375 39.234375 62.25 
Q 35.15625 65.921875 28.609375 65.921875 
Q 23.96875 65.921875 18.8125 64.3125 
Q 13.671875 62.703125 7.8125 59.421875 
L 7.8125 69.390625 
Q 13.765625 71.78125 18.9375 73 
Q 24.125 74.21875 28.421875 74.21875 
Q 39.75 74.21875 46.484375 68.546875 
Q 53.21875 62.890625 53.21875 53.421875 
Q 53.21875 48.921875 51.53125 44.890625 
Q 49.859375 40.875 45.40625 35.40625 
Q 44.1875 33.984375 37.640625 27.21875 
Q 31.109375 20.453125 19.1875 8.296875 
z
" id="DejaVuSans-50"/>
      </defs>
      <g transform="translate(565.401009 347.245637)scale(0.1 -0.1)">
       <use xlink:href="#DejaVuSans-50"/>
       <use x="63.623047" xlink:href="#DejaVuSans-48"/>
       <use x="127.246094" xlink:href="#DejaVuSans-48"/>
      </g>
     </g>
    </g>
   </g>
   <g id="matplotlib.axis_2">
    <g id="ytick_1">
     <g id="line2d_6">
      <defs>
       <path d="M 0 0 
L -3.5 0 
" id="m2d5b42f473" style="stroke:#000000;stroke-width:0.8;"/>
      </defs>
      <g>
       <use style="stroke:#000000;stroke-width:0.8;" x="172.8" xlink:href="#m2d5b42f473" y="305.744129"/>
      </g>
     </g>
     <g id="text_6">
      <!-- −2.0 -->
      <defs>
       <path d="M 10.59375 35.5 
L 73.1875 35.5 
L 73.1875 27.203125 
L 10.59375 27.203125 
z
" id="DejaVuSans-8722"/>
       <path d="M 10.6875 12.40625 
L 21 12.40625 
L 21 0 
L 10.6875 0 
z
" id="DejaVuSans-46"/>
      </defs>
      <g transform="translate(141.517187 309.543348)scale(0.1 -0.1)">
       <use xlink:href="#DejaVuSans-8722"/>
       <use x="83.789062" xlink:href="#DejaVuSans-50"/>
       <use x="147.412109" xlink:href="#DejaVuSans-46"/>
       <use x="179.199219" xlink:href="#DejaVuSans-48"/>
      </g>
     </g>
    </g>
    <g id="ytick_2">
     <g id="line2d_7">
      <g>
       <use style="stroke:#000000;stroke-width:0.8;" x="172.8" xlink:href="#m2d5b42f473" y="261.95402"/>
      </g>
     </g>
     <g id="text_7">
      <!-- −1.5 -->
      <g transform="translate(141.517187 265.753238)scale(0.1 -0.1)">
       <use xlink:href="#DejaVuSans-8722"/>
       <use x="83.789062" xlink:href="#DejaVuSans-49"/>
       <use x="147.412109" xlink:href="#DejaVuSans-46"/>
       <use x="179.199219" xlink:href="#DejaVuSans-53"/>
      </g>
     </g>
    </g>
    <g id="ytick_3">
     <g id="line2d_8">
      <g>
       <use style="stroke:#000000;stroke-width:0.8;" x="172.8" xlink:href="#m2d5b42f473" y="218.16391"/>
      </g>
     </g>
     <g id="text_8">
      <!-- −1.0 -->
      <g transform="translate(141.517187 221.963128)scale(0.1 -0.1)">
       <use xlink:href="#DejaVuSans-8722"/>
       <use x="83.789062" xlink:href="#DejaVuSans-49"/>
       <use x="147.412109" xlink:href="#DejaVuSans-46"/>
       <use x="179.199219" xlink:href="#DejaVuSans-48"/>
      </g>
     </g>
    </g>
    <g id="ytick_4">
     <g id="line2d_9">
      <g>
       <use style="stroke:#000000;stroke-width:0.8;" x="172.8" xlink:href="#m2d5b42f473" y="174.3738"/>
      </g>
     </g>
     <g id="text_9">
      <!-- −0.5 -->
      <g transform="translate(141.517187 178.173019)scale(0.1 -0.1)">
       <use xlink:href="#DejaVuSans-8722"/>
       <use x="83.789062" xlink:href="#DejaVuSans-48"/>
       <use x="147.412109" xlink:href="#DejaVuSans-46"/>
       <use x="179.199219" xlink:href="#DejaVuSans-53"/>
      </g>
     </g>
    </g>
    <g id="ytick_5">
     <g id="line2d_10">
      <g>
       <use style="stroke:#000000;stroke-width:0.8;" x="172.8" xlink:href="#m2d5b42f473" y="130.58369"/>
      </g>
     </g>
     <g id="text_10">
      <!-- 0.0 -->
      <g transform="translate(149.896875 134.382909)scale(0.1 -0.1)">
       <use xlink:href="#DejaVuSans-48"/>
       <use x="63.623047" xlink:href="#DejaVuSans-46"/>
       <use x="95.410156" xlink:href="#DejaVuSans-48"/>
      </g>
     </g>
    </g>
    <g id="ytick_6">
     <g id="line2d_11">
      <g>
       <use style="stroke:#000000;stroke-width:0.8;" x="172.8" xlink:href="#m2d5b42f473" y="86.79358"/>
      </g>
     </g>
     <g id="text_11">
      <!-- 0.5 -->
      <g transform="translate(149.896875 90.592799)scale(0.1 -0.1)">
       <use xlink:href="#DejaVuSans-48"/>
       <use x="63.623047" xlink:href="#DejaVuSans-46"/>
       <use x="95.410156" xlink:href="#DejaVuSans-53"/>
      </g>
     </g>
    </g>
   </g>
   <g id="line2d_12">
    <path clip-path="url(#p98feec31a3)" d="M 194.935537 130.411012 
L 196.835583 131.090299 
L 200.635676 133.561628 
L 202.535722 134.189209 
L 204.435768 133.989153 
L 206.335814 133.152673 
L 208.23586 132.187648 
L 210.135906 131.66422 
L 212.035952 131.955385 
L 213.935998 133.04006 
L 215.836044 134.498991 
L 217.736091 135.717448 
L 219.636137 136.206529 
L 221.536183 135.862328 
L 225.336275 134.218993 
L 227.236321 134.0198 
L 229.136367 134.645638 
L 231.036413 135.929398 
L 232.936459 137.385228 
L 234.836506 138.437754 
L 236.736552 138.711333 
L 238.636598 138.234929 
L 240.536644 137.44405 
L 242.43669 136.9459 
L 244.336736 137.187087 
L 246.236782 138.240669 
L 250.036874 141.273834 
L 251.936921 142.190824 
L 253.836967 142.305959 
L 257.637059 141.182964 
L 259.537105 141.04479 
L 261.437151 141.713005 
L 263.337197 143.079573 
L 265.237243 144.670313 
L 267.137289 145.906658 
L 269.037336 146.410486 
L 270.937382 146.119812 
L 272.837428 145.423347 
L 274.737474 144.898664 
L 276.63752 145.046177 
L 278.537566 146.016945 
L 282.337658 148.951346 
L 284.237704 149.755882 
L 286.137751 149.752458 
L 289.937843 148.568027 
L 291.837889 148.50666 
L 293.737935 149.267667 
L 295.637981 150.71472 
L 297.538027 152.341669 
L 299.438073 153.536548 
L 301.338119 153.929859 
L 303.238166 153.610813 
L 305.138212 153.066553 
L 307.038258 152.890815 
L 308.938304 153.455896 
L 310.83835 154.730417 
L 312.738396 156.30888 
L 314.638442 157.61656 
L 316.538488 158.202464 
L 318.438534 157.997601 
L 320.33858 157.365819 
L 322.238627 156.914583 
L 324.138673 157.140249 
L 326.038719 158.139407 
L 329.838811 160.876735 
L 331.738857 161.58285 
L 333.638903 161.548026 
L 337.438995 160.552952 
L 339.339042 160.655371 
L 341.239088 161.559683 
L 345.03918 164.513086 
L 346.939226 165.448215 
L 348.839272 165.62119 
L 352.639364 164.825066 
L 354.53941 164.855924 
L 356.439457 165.590208 
L 360.239549 168.255208 
L 362.139595 169.145239 
L 364.039641 169.271196 
L 367.839733 168.196802 
L 369.739779 168.035161 
L 371.639825 168.560932 
L 373.539872 169.63908 
L 375.439918 170.845392 
L 377.339964 171.697179 
L 379.24001 171.902162 
L 381.140056 171.528334 
L 383.040102 170.994421 
L 384.940148 170.840841 
L 386.840194 171.396523 
L 388.74024 172.572449 
L 390.640287 173.934061 
L 392.540333 174.982217 
L 394.440379 175.44836 
L 396.340425 175.378347 
L 398.240471 175.10288 
L 400.140517 175.078425 
L 402.040563 175.647693 
L 403.940609 176.825464 
L 405.840655 178.262875 
L 407.740702 179.453688 
L 409.640748 180.05867 
L 411.540794 180.104559 
L 413.44084 179.920199 
L 415.340886 179.927666 
L 417.240932 180.436237 
L 419.140978 181.50793 
L 422.94107 184.259638 
L 424.841117 185.129894 
L 426.741163 185.441403 
L 428.641209 185.458011 
L 430.541255 185.610966 
L 432.441301 186.19348 
L 434.341347 187.344747 
L 440.041485 191.958635 
L 441.941532 192.81422 
L 445.741624 193.637912 
L 447.64167 194.378081 
L 449.541716 195.676015 
L 451.441762 197.382301 
L 455.241854 200.976854 
L 457.1419 202.331103 
L 459.041947 203.22162 
L 462.842039 204.528141 
L 464.742085 205.612943 
L 466.642131 207.126107 
L 472.342269 212.352227 
L 474.242315 213.618095 
L 476.142362 214.46491 
L 478.042408 215.095227 
L 479.942454 215.854775 
L 481.8425 216.958567 
L 483.742546 218.418917 
L 487.542638 221.972005 
L 489.442684 223.771798 
L 491.34273 225.288783 
L 493.242777 226.41944 
L 497.042869 228.395198 
L 498.942915 229.653157 
L 500.842961 231.163498 
L 502.743007 232.973923 
L 506.543099 237.12675 
L 508.443145 238.912747 
L 510.343192 240.334157 
L 512.243238 241.520659 
L 516.04333 243.478231 
L 517.943376 244.454797 
L 519.843422 245.711276 
L 525.54356 250.238258 
L 527.443607 251.525631 
L 529.343653 252.59599 
L 531.243699 253.2813 
L 535.043791 254.094921 
L 538.843883 255.294513 
L 540.743929 256.058749 
L 542.643975 257.053463 
L 544.544022 258.193264 
L 546.444068 259.19356 
L 548.344114 259.938433 
L 550.24416 260.519851 
L 552.144206 260.911184 
L 554.044252 260.983106 
L 557.844344 260.796026 
L 561.644437 260.878892 
L 567.344575 260.803562 
L 569.244621 260.316164 
L 571.144667 259.49577 
L 573.044713 258.492513 
L 574.944759 257.168051 
L 578.744852 253.545266 
L 582.544944 249.690288 
L 588.245082 243.088772 
L 590.145128 240.526558 
L 593.94522 234.708486 
L 595.845267 231.530904 
L 603.445451 217.208601 
L 605.345497 260.504485 
L 607.245543 260.114728 
L 609.145589 248.631521 
L 611.045635 272.23584 
L 612.945682 284.81039 
L 614.845728 252.411554 
L 616.745774 234.651821 
L 618.64582 256.458836 
L 620.545866 260.051619 
L 622.445912 242.358332 
L 624.345958 263.290702 
L 626.246004 303.998176 
L 628.14605 304.553958 
L 630.046097 295.48555 
L 631.946143 317.87826 
L 633.846189 321.387382 
L 635.746235 283.081884 
L 637.646281 263.312488 
L 637.646281 263.312488 
" style="fill:none;stroke:#ff796c;stroke-linecap:square;stroke-width:1.5;"/>
   </g>
   <g id="line2d_13">
    <path clip-path="url(#p98feec31a3)" d="M 194.935537 96.489923 
L 204.435768 96.595464 
L 213.935998 97.064071 
L 219.636137 97.460784 
L 227.236321 98.288501 
L 234.836506 99.263489 
L 240.536644 100.208219 
L 251.936921 102.393789 
L 257.637059 103.741984 
L 267.137289 106.227887 
L 272.837428 107.961374 
L 284.237704 111.726557 
L 293.737935 115.225991 
L 301.338119 118.127945 
L 312.738396 122.847055 
L 318.438534 125.348377 
L 331.738857 131.54112 
L 343.139134 137.210976 
L 350.739318 141.152107 
L 362.139595 147.364089 
L 371.639825 152.866355 
L 383.040102 159.635928 
L 415.340886 178.992172 
L 430.541255 187.91272 
L 440.041485 193.276714 
L 453.341808 200.601199 
L 478.042408 213.822759 
L 487.542638 218.706892 
L 498.942915 224.30976 
L 508.443145 228.718846 
L 521.743468 234.673764 
L 538.843883 242.013395 
L 554.044252 248.240565 
L 582.544944 259.855961 
L 595.845267 265.316691 
L 603.445451 268.193989 
L 637.646281 268.155326 
L 637.646281 268.155326 
" style="fill:none;stroke:#ffff14;stroke-linecap:square;stroke-width:1.5;"/>
   </g>
   <g id="line2d_14">
    <path clip-path="url(#p98feec31a3)" d="M 194.935537 96.191018 
L 202.535722 96.314972 
L 210.135906 96.686476 
L 217.736091 97.304458 
L 225.336275 98.167138 
L 232.936459 99.272028 
L 240.536644 100.615941 
L 248.136828 102.195004 
L 255.737013 104.004664 
L 263.337197 106.039701 
L 270.937382 108.294251 
L 278.537566 110.76181 
L 286.137751 113.435266 
L 293.737935 116.30691 
L 303.238166 120.1625 
L 312.738396 124.297414 
L 322.238627 128.693026 
L 331.738857 133.329537 
L 341.239088 138.18606 
L 352.639364 144.273441 
L 364.039641 150.606612 
L 377.339964 158.251093 
L 392.540333 167.242136 
L 415.340886 181.018376 
L 445.741624 199.371243 
L 460.941993 208.302974 
L 474.242315 215.874645 
L 485.642592 222.130377 
L 497.042869 228.126967 
L 506.543099 232.898057 
L 516.04333 237.440656 
L 525.54356 241.734301 
L 535.043791 245.759652 
L 544.544022 249.498577 
L 552.144206 252.272126 
L 559.74439 254.843561 
L 567.344575 257.205467 
L 574.944759 259.351034 
L 582.544944 261.274076 
L 590.145128 262.969048 
L 597.745313 264.431063 
L 605.345497 265.655906 
L 612.945682 266.640045 
L 620.545866 267.380644 
L 628.14605 267.875565 
L 635.746235 268.123383 
L 637.646281 268.146629 
L 637.646281 268.146629 
" style="fill:none;stroke:#014d4e;stroke-linecap:square;stroke-width:1.5;"/>
   </g>
   <g id="line2d_15">
    <path clip-path="url(#p98feec31a3)" d="M 194.935537 130.284786 
L 212.035952 130.439966 
L 238.636598 130.968645 
L 250.036874 131.216302 
L 265.237243 131.465349 
L 274.737474 131.51186 
L 293.737935 131.664609 
L 331.738857 132.372107 
L 364.039641 132.746745 
L 396.340425 132.502083 
L 407.740702 132.56212 
L 424.841117 132.790356 
L 436.241393 133.110561 
L 474.242315 134.646093 
L 525.54356 135.993297 
L 535.043791 135.934169 
L 546.444068 135.640931 
L 555.944298 135.159817 
L 563.544483 134.580278 
L 571.144667 133.761614 
L 578.744852 132.654549 
L 586.345036 131.292895 
L 597.745313 128.953551 
L 603.445451 127.761836 
L 611.045635 128.829058 
L 618.64582 129.640518 
L 626.246004 130.201014 
L 633.846189 130.512478 
L 637.646281 130.574993 
L 637.646281 130.574993 
" style="fill:none;stroke:#e50000;stroke-linecap:square;stroke-width:1.5;"/>
   </g>
   <g id="patch_3">
    <path d="M 172.8 332.6472 
L 172.8 84.9312 
" style="fill:none;stroke:#000000;stroke-linecap:square;stroke-linejoin:miter;stroke-width:0.8;"/>
   </g>
   <g id="patch_4">
    <path d="M 659.781818 332.6472 
L 659.781818 84.9312 
" style="fill:none;stroke:#000000;stroke-linecap:square;stroke-linejoin:miter;stroke-width:0.8;"/>
   </g>
   <g id="patch_5">
    <path d="M 172.8 332.6472 
L 659.781818 332.6472 
" style="fill:none;stroke:#000000;stroke-linecap:square;stroke-linejoin:miter;stroke-width:0.8;"/>
   </g>
   <g id="patch_6">
    <path d="M 172.8 84.9312 
L 659.781818 84.9312 
" style="fill:none;stroke:#000000;stroke-linecap:square;stroke-linejoin:miter;stroke-width:0.8;"/>
   </g>
   <g id="text_12">
    <!-- Right abduction -->
    <defs>
     <path d="M 44.390625 34.1875 
Q 47.5625 33.109375 50.5625 29.59375 
Q 53.5625 26.078125 56.59375 19.921875 
L 66.609375 0 
L 56 0 
L 46.6875 18.703125 
Q 43.0625 26.03125 39.671875 28.421875 
Q 36.28125 30.8125 30.421875 30.8125 
L 19.671875 30.8125 
L 19.671875 0 
L 9.8125 0 
L 9.8125 72.90625 
L 32.078125 72.90625 
Q 44.578125 72.90625 50.734375 67.671875 
Q 56.890625 62.453125 56.890625 51.90625 
Q 56.890625 45.015625 53.6875 40.46875 
Q 50.484375 35.9375 44.390625 34.1875 
z
M 19.671875 64.796875 
L 19.671875 38.921875 
L 32.078125 38.921875 
Q 39.203125 38.921875 42.84375 42.21875 
Q 46.484375 45.515625 46.484375 51.90625 
Q 46.484375 58.296875 42.84375 61.546875 
Q 39.203125 64.796875 32.078125 64.796875 
z
" id="DejaVuSans-82"/>
     <path d="M 9.421875 54.6875 
L 18.40625 54.6875 
L 18.40625 0 
L 9.421875 0 
z
M 9.421875 75.984375 
L 18.40625 75.984375 
L 18.40625 64.59375 
L 9.421875 64.59375 
z
" id="DejaVuSans-105"/>
     <path d="M 45.40625 27.984375 
Q 45.40625 37.75 41.375 43.109375 
Q 37.359375 48.484375 30.078125 48.484375 
Q 22.859375 48.484375 18.828125 43.109375 
Q 14.796875 37.75 14.796875 27.984375 
Q 14.796875 18.265625 18.828125 12.890625 
Q 22.859375 7.515625 30.078125 7.515625 
Q 37.359375 7.515625 41.375 12.890625 
Q 45.40625 18.265625 45.40625 27.984375 
z
M 54.390625 6.78125 
Q 54.390625 -7.171875 48.1875 -13.984375 
Q 42 -20.796875 29.203125 -20.796875 
Q 24.46875 -20.796875 20.265625 -20.09375 
Q 16.0625 -19.390625 12.109375 -17.921875 
L 12.109375 -9.1875 
Q 16.0625 -11.328125 19.921875 -12.34375 
Q 23.78125 -13.375 27.78125 -13.375 
Q 36.625 -13.375 41.015625 -8.765625 
Q 45.40625 -4.15625 45.40625 5.171875 
L 45.40625 9.625 
Q 42.625 4.78125 38.28125 2.390625 
Q 33.9375 0 27.875 0 
Q 17.828125 0 11.671875 7.65625 
Q 5.515625 15.328125 5.515625 27.984375 
Q 5.515625 40.671875 11.671875 48.328125 
Q 17.828125 56 27.875 56 
Q 33.9375 56 38.28125 53.609375 
Q 42.625 51.21875 45.40625 46.390625 
L 45.40625 54.6875 
L 54.390625 54.6875 
z
" id="DejaVuSans-103"/>
     <path d="M 54.890625 33.015625 
L 54.890625 0 
L 45.90625 0 
L 45.90625 32.71875 
Q 45.90625 40.484375 42.875 44.328125 
Q 39.84375 48.1875 33.796875 48.1875 
Q 26.515625 48.1875 22.3125 43.546875 
Q 18.109375 38.921875 18.109375 30.90625 
L 18.109375 0 
L 9.078125 0 
L 9.078125 75.984375 
L 18.109375 75.984375 
L 18.109375 46.1875 
Q 21.34375 51.125 25.703125 53.5625 
Q 30.078125 56 35.796875 56 
Q 45.21875 56 50.046875 50.171875 
Q 54.890625 44.34375 54.890625 33.015625 
z
" id="DejaVuSans-104"/>
     <path d="M 18.3125 70.21875 
L 18.3125 54.6875 
L 36.8125 54.6875 
L 36.8125 47.703125 
L 18.3125 47.703125 
L 18.3125 18.015625 
Q 18.3125 11.328125 20.140625 9.421875 
Q 21.96875 7.515625 27.59375 7.515625 
L 36.8125 7.515625 
L 36.8125 0 
L 27.59375 0 
Q 17.1875 0 13.234375 3.875 
Q 9.28125 7.765625 9.28125 18.015625 
L 9.28125 47.703125 
L 2.6875 47.703125 
L 2.6875 54.6875 
L 9.28125 54.6875 
L 9.28125 70.21875 
z
" id="DejaVuSans-116"/>
     <path id="DejaVuSans-32"/>
     <path d="M 34.28125 27.484375 
Q 23.390625 27.484375 19.1875 25 
Q 14.984375 22.515625 14.984375 16.5 
Q 14.984375 11.71875 18.140625 8.90625 
Q 21.296875 6.109375 26.703125 6.109375 
Q 34.1875 6.109375 38.703125 11.40625 
Q 43.21875 16.703125 43.21875 25.484375 
L 43.21875 27.484375 
z
M 52.203125 31.203125 
L 52.203125 0 
L 43.21875 0 
L 43.21875 8.296875 
Q 40.140625 3.328125 35.546875 0.953125 
Q 30.953125 -1.421875 24.3125 -1.421875 
Q 15.921875 -1.421875 10.953125 3.296875 
Q 6 8.015625 6 15.921875 
Q 6 25.140625 12.171875 29.828125 
Q 18.359375 34.515625 30.609375 34.515625 
L 43.21875 34.515625 
L 43.21875 35.40625 
Q 43.21875 41.609375 39.140625 45 
Q 35.0625 48.390625 27.6875 48.390625 
Q 23 48.390625 18.546875 47.265625 
Q 14.109375 46.140625 10.015625 43.890625 
L 10.015625 52.203125 
Q 14.9375 54.109375 19.578125 55.046875 
Q 24.21875 56 28.609375 56 
Q 40.484375 56 46.34375 49.84375 
Q 52.203125 43.703125 52.203125 31.203125 
z
" id="DejaVuSans-97"/>
     <path d="M 48.6875 27.296875 
Q 48.6875 37.203125 44.609375 42.84375 
Q 40.53125 48.484375 33.40625 48.484375 
Q 26.265625 48.484375 22.1875 42.84375 
Q 18.109375 37.203125 18.109375 27.296875 
Q 18.109375 17.390625 22.1875 11.75 
Q 26.265625 6.109375 33.40625 6.109375 
Q 40.53125 6.109375 44.609375 11.75 
Q 48.6875 17.390625 48.6875 27.296875 
z
M 18.109375 46.390625 
Q 20.953125 51.265625 25.265625 53.625 
Q 29.59375 56 35.59375 56 
Q 45.5625 56 51.78125 48.09375 
Q 58.015625 40.1875 58.015625 27.296875 
Q 58.015625 14.40625 51.78125 6.484375 
Q 45.5625 -1.421875 35.59375 -1.421875 
Q 29.59375 -1.421875 25.265625 0.953125 
Q 20.953125 3.328125 18.109375 8.203125 
L 18.109375 0 
L 9.078125 0 
L 9.078125 75.984375 
L 18.109375 75.984375 
z
" id="DejaVuSans-98"/>
     <path d="M 45.40625 46.390625 
L 45.40625 75.984375 
L 54.390625 75.984375 
L 54.390625 0 
L 45.40625 0 
L 45.40625 8.203125 
Q 42.578125 3.328125 38.25 0.953125 
Q 33.9375 -1.421875 27.875 -1.421875 
Q 17.96875 -1.421875 11.734375 6.484375 
Q 5.515625 14.40625 5.515625 27.296875 
Q 5.515625 40.1875 11.734375 48.09375 
Q 17.96875 56 27.875 56 
Q 33.9375 56 38.25 53.625 
Q 42.578125 51.265625 45.40625 46.390625 
z
M 14.796875 27.296875 
Q 14.796875 17.390625 18.875 11.75 
Q 22.953125 6.109375 30.078125 6.109375 
Q 37.203125 6.109375 41.296875 11.75 
Q 45.40625 17.390625 45.40625 27.296875 
Q 45.40625 37.203125 41.296875 42.84375 
Q 37.203125 48.484375 30.078125 48.484375 
Q 22.953125 48.484375 18.875 42.84375 
Q 14.796875 37.203125 14.796875 27.296875 
z
" id="DejaVuSans-100"/>
     <path d="M 8.5 21.578125 
L 8.5 54.6875 
L 17.484375 54.6875 
L 17.484375 21.921875 
Q 17.484375 14.15625 20.5 10.265625 
Q 23.53125 6.390625 29.59375 6.390625 
Q 36.859375 6.390625 41.078125 11.03125 
Q 45.3125 15.671875 45.3125 23.6875 
L 45.3125 54.6875 
L 54.296875 54.6875 
L 54.296875 0 
L 45.3125 0 
L 45.3125 8.40625 
Q 42.046875 3.421875 37.71875 1 
Q 33.40625 -1.421875 27.6875 -1.421875 
Q 18.265625 -1.421875 13.375 4.4375 
Q 8.5 10.296875 8.5 21.578125 
z
M 31.109375 56 
z
" id="DejaVuSans-117"/>
     <path d="M 48.78125 52.59375 
L 48.78125 44.1875 
Q 44.96875 46.296875 41.140625 47.34375 
Q 37.3125 48.390625 33.40625 48.390625 
Q 24.65625 48.390625 19.8125 42.84375 
Q 14.984375 37.3125 14.984375 27.296875 
Q 14.984375 17.28125 19.8125 11.734375 
Q 24.65625 6.203125 33.40625 6.203125 
Q 37.3125 6.203125 41.140625 7.25 
Q 44.96875 8.296875 48.78125 10.40625 
L 48.78125 2.09375 
Q 45.015625 0.34375 40.984375 -0.53125 
Q 36.96875 -1.421875 32.421875 -1.421875 
Q 20.0625 -1.421875 12.78125 6.34375 
Q 5.515625 14.109375 5.515625 27.296875 
Q 5.515625 40.671875 12.859375 48.328125 
Q 20.21875 56 33.015625 56 
Q 37.15625 56 41.109375 55.140625 
Q 45.0625 54.296875 48.78125 52.59375 
z
" id="DejaVuSans-99"/>
     <path d="M 30.609375 48.390625 
Q 23.390625 48.390625 19.1875 42.75 
Q 14.984375 37.109375 14.984375 27.296875 
Q 14.984375 17.484375 19.15625 11.84375 
Q 23.34375 6.203125 30.609375 6.203125 
Q 37.796875 6.203125 41.984375 11.859375 
Q 46.1875 17.53125 46.1875 27.296875 
Q 46.1875 37.015625 41.984375 42.703125 
Q 37.796875 48.390625 30.609375 48.390625 
z
M 30.609375 56 
Q 42.328125 56 49.015625 48.375 
Q 55.71875 40.765625 55.71875 27.296875 
Q 55.71875 13.875 49.015625 6.21875 
Q 42.328125 -1.421875 30.609375 -1.421875 
Q 18.84375 -1.421875 12.171875 6.21875 
Q 5.515625 13.875 5.515625 27.296875 
Q 5.515625 40.765625 12.171875 48.375 
Q 18.84375 56 30.609375 56 
z
" id="DejaVuSans-111"/>
     <path d="M 54.890625 33.015625 
L 54.890625 0 
L 45.90625 0 
L 45.90625 32.71875 
Q 45.90625 40.484375 42.875 44.328125 
Q 39.84375 48.1875 33.796875 48.1875 
Q 26.515625 48.1875 22.3125 43.546875 
Q 18.109375 38.921875 18.109375 30.90625 
L 18.109375 0 
L 9.078125 0 
L 9.078125 54.6875 
L 18.109375 54.6875 
L 18.109375 46.1875 
Q 21.34375 51.125 25.703125 53.5625 
Q 30.078125 56 35.796875 56 
Q 45.21875 56 50.046875 50.171875 
Q 54.890625 44.34375 54.890625 33.015625 
z
" id="DejaVuSans-110"/>
    </defs>
    <g transform="translate(368.694972 78.9312)scale(0.12 -0.12)">
     <use xlink:href="#DejaVuSans-82"/>
     <use x="69.482422" xlink:href="#DejaVuSans-105"/>
     <use x="97.265625" xlink:href="#DejaVuSans-103"/>
     <use x="160.742188" xlink:href="#DejaVuSans-104"/>
     <use x="224.121094" xlink:href="#DejaVuSans-116"/>
     <use x="263.330078" xlink:href="#DejaVuSans-32"/>
     <use x="295.117188" xlink:href="#DejaVuSans-97"/>
     <use x="356.396484" xlink:href="#DejaVuSans-98"/>
     <use x="419.873047" xlink:href="#DejaVuSans-100"/>
     <use x="483.349609" xlink:href="#DejaVuSans-117"/>
     <use x="546.728516" xlink:href="#DejaVuSans-99"/>
     <use x="601.708984" xlink:href="#DejaVuSans-116"/>
     <use x="640.917969" xlink:href="#DejaVuSans-105"/>
     <use x="668.701172" xlink:href="#DejaVuSans-111"/>
     <use x="729.882812" xlink:href="#DejaVuSans-110"/>
    </g>
   </g>
  </g>
  <g id="axes_2">
   <g id="patch_7">
    <path d="M 757.178182 332.6472 
L 1244.16 332.6472 
L 1244.16 84.9312 
L 757.178182 84.9312 
z
" style="fill:#ffffff;"/>
   </g>
   <g id="matplotlib.axis_3">
    <g id="xtick_6">
     <g id="line2d_16">
      <g>
       <use style="stroke:#000000;stroke-width:0.8;" x="779.313719" xlink:href="#me139ce47ba" y="332.6472"/>
      </g>
     </g>
     <g id="text_13">
      <!-- 0 -->
      <g transform="translate(776.132469 347.245637)scale(0.1 -0.1)">
       <use xlink:href="#DejaVuSans-48"/>
      </g>
     </g>
    </g>
    <g id="xtick_7">
     <g id="line2d_17">
      <g>
       <use style="stroke:#000000;stroke-width:0.8;" x="874.316025" xlink:href="#me139ce47ba" y="332.6472"/>
      </g>
     </g>
     <g id="text_14">
      <!-- 50 -->
      <g transform="translate(867.953525 347.245637)scale(0.1 -0.1)">
       <use xlink:href="#DejaVuSans-53"/>
       <use x="63.623047" xlink:href="#DejaVuSans-48"/>
      </g>
     </g>
    </g>
    <g id="xtick_8">
     <g id="line2d_18">
      <g>
       <use style="stroke:#000000;stroke-width:0.8;" x="969.31833" xlink:href="#me139ce47ba" y="332.6472"/>
      </g>
     </g>
     <g id="text_15">
      <!-- 100 -->
      <g transform="translate(959.77458 347.245637)scale(0.1 -0.1)">
       <use xlink:href="#DejaVuSans-49"/>
       <use x="63.623047" xlink:href="#DejaVuSans-48"/>
       <use x="127.246094" xlink:href="#DejaVuSans-48"/>
      </g>
     </g>
    </g>
    <g id="xtick_9">
     <g id="line2d_19">
      <g>
       <use style="stroke:#000000;stroke-width:0.8;" x="1064.320636" xlink:href="#me139ce47ba" y="332.6472"/>
      </g>
     </g>
     <g id="text_16">
      <!-- 150 -->
      <g transform="translate(1054.776886 347.245637)scale(0.1 -0.1)">
       <use xlink:href="#DejaVuSans-49"/>
       <use x="63.623047" xlink:href="#DejaVuSans-53"/>
       <use x="127.246094" xlink:href="#DejaVuSans-48"/>
      </g>
     </g>
    </g>
    <g id="xtick_10">
     <g id="line2d_20">
      <g>
       <use style="stroke:#000000;stroke-width:0.8;" x="1159.322941" xlink:href="#me139ce47ba" y="332.6472"/>
      </g>
     </g>
     <g id="text_17">
      <!-- 200 -->
      <g transform="translate(1149.779191 347.245637)scale(0.1 -0.1)">
       <use xlink:href="#DejaVuSans-50"/>
       <use x="63.623047" xlink:href="#DejaVuSans-48"/>
       <use x="127.246094" xlink:href="#DejaVuSans-48"/>
      </g>
     </g>
    </g>
   </g>
   <g id="matplotlib.axis_4">
    <g id="ytick_7">
     <g id="line2d_21">
      <g>
       <use style="stroke:#000000;stroke-width:0.8;" x="757.178182" xlink:href="#m2d5b42f473" y="321.95413"/>
      </g>
     </g>
     <g id="text_18">
      <!-- −0.6 -->
      <defs>
       <path d="M 33.015625 40.375 
Q 26.375 40.375 22.484375 35.828125 
Q 18.609375 31.296875 18.609375 23.390625 
Q 18.609375 15.53125 22.484375 10.953125 
Q 26.375 6.390625 33.015625 6.390625 
Q 39.65625 6.390625 43.53125 10.953125 
Q 47.40625 15.53125 47.40625 23.390625 
Q 47.40625 31.296875 43.53125 35.828125 
Q 39.65625 40.375 33.015625 40.375 
z
M 52.59375 71.296875 
L 52.59375 62.3125 
Q 48.875 64.0625 45.09375 64.984375 
Q 41.3125 65.921875 37.59375 65.921875 
Q 27.828125 65.921875 22.671875 59.328125 
Q 17.53125 52.734375 16.796875 39.40625 
Q 19.671875 43.65625 24.015625 45.921875 
Q 28.375 48.1875 33.59375 48.1875 
Q 44.578125 48.1875 50.953125 41.515625 
Q 57.328125 34.859375 57.328125 23.390625 
Q 57.328125 12.15625 50.6875 5.359375 
Q 44.046875 -1.421875 33.015625 -1.421875 
Q 20.359375 -1.421875 13.671875 8.265625 
Q 6.984375 17.96875 6.984375 36.375 
Q 6.984375 53.65625 15.1875 63.9375 
Q 23.390625 74.21875 37.203125 74.21875 
Q 40.921875 74.21875 44.703125 73.484375 
Q 48.484375 72.75 52.59375 71.296875 
z
" id="DejaVuSans-54"/>
      </defs>
      <g transform="translate(725.895369 325.753348)scale(0.1 -0.1)">
       <use xlink:href="#DejaVuSans-8722"/>
       <use x="83.789062" xlink:href="#DejaVuSans-48"/>
       <use x="147.412109" xlink:href="#DejaVuSans-46"/>
       <use x="179.199219" xlink:href="#DejaVuSans-54"/>
      </g>
     </g>
    </g>
    <g id="ytick_8">
     <g id="line2d_22">
      <g>
       <use style="stroke:#000000;stroke-width:0.8;" x="757.178182" xlink:href="#m2d5b42f473" y="278.645882"/>
      </g>
     </g>
     <g id="text_19">
      <!-- −0.4 -->
      <defs>
       <path d="M 37.796875 64.3125 
L 12.890625 25.390625 
L 37.796875 25.390625 
z
M 35.203125 72.90625 
L 47.609375 72.90625 
L 47.609375 25.390625 
L 58.015625 25.390625 
L 58.015625 17.1875 
L 47.609375 17.1875 
L 47.609375 0 
L 37.796875 0 
L 37.796875 17.1875 
L 4.890625 17.1875 
L 4.890625 26.703125 
z
" id="DejaVuSans-52"/>
      </defs>
      <g transform="translate(725.895369 282.445101)scale(0.1 -0.1)">
       <use xlink:href="#DejaVuSans-8722"/>
       <use x="83.789062" xlink:href="#DejaVuSans-48"/>
       <use x="147.412109" xlink:href="#DejaVuSans-46"/>
       <use x="179.199219" xlink:href="#DejaVuSans-52"/>
      </g>
     </g>
    </g>
    <g id="ytick_9">
     <g id="line2d_23">
      <g>
       <use style="stroke:#000000;stroke-width:0.8;" x="757.178182" xlink:href="#m2d5b42f473" y="235.337635"/>
      </g>
     </g>
     <g id="text_20">
      <!-- −0.2 -->
      <g transform="translate(725.895369 239.136853)scale(0.1 -0.1)">
       <use xlink:href="#DejaVuSans-8722"/>
       <use x="83.789062" xlink:href="#DejaVuSans-48"/>
       <use x="147.412109" xlink:href="#DejaVuSans-46"/>
       <use x="179.199219" xlink:href="#DejaVuSans-50"/>
      </g>
     </g>
    </g>
    <g id="ytick_10">
     <g id="line2d_24">
      <g>
       <use style="stroke:#000000;stroke-width:0.8;" x="757.178182" xlink:href="#m2d5b42f473" y="192.029387"/>
      </g>
     </g>
     <g id="text_21">
      <!-- 0.0 -->
      <g transform="translate(734.275057 195.828606)scale(0.1 -0.1)">
       <use xlink:href="#DejaVuSans-48"/>
       <use x="63.623047" xlink:href="#DejaVuSans-46"/>
       <use x="95.410156" xlink:href="#DejaVuSans-48"/>
      </g>
     </g>
    </g>
    <g id="ytick_11">
     <g id="line2d_25">
      <g>
       <use style="stroke:#000000;stroke-width:0.8;" x="757.178182" xlink:href="#m2d5b42f473" y="148.721139"/>
      </g>
     </g>
     <g id="text_22">
      <!-- 0.2 -->
      <g transform="translate(734.275057 152.520358)scale(0.1 -0.1)">
       <use xlink:href="#DejaVuSans-48"/>
       <use x="63.623047" xlink:href="#DejaVuSans-46"/>
       <use x="95.410156" xlink:href="#DejaVuSans-50"/>
      </g>
     </g>
    </g>
    <g id="ytick_12">
     <g id="line2d_26">
      <g>
       <use style="stroke:#000000;stroke-width:0.8;" x="757.178182" xlink:href="#m2d5b42f473" y="105.412892"/>
      </g>
     </g>
     <g id="text_23">
      <!-- 0.4 -->
      <g transform="translate(734.275057 109.212111)scale(0.1 -0.1)">
       <use xlink:href="#DejaVuSans-48"/>
       <use x="63.623047" xlink:href="#DejaVuSans-46"/>
       <use x="95.410156" xlink:href="#DejaVuSans-52"/>
      </g>
     </g>
    </g>
   </g>
   <g id="line2d_27">
    <path clip-path="url(#p3c18e564c9)" d="M 779.313719 192.032756 
L 864.815794 192.065008 
L 874.316025 191.717458 
L 878.116117 191.253868 
L 883.816255 190.451031 
L 889.516393 190.042755 
L 902.816716 189.314262 
L 944.617731 188.649031 
L 1003.51916 188.257607 
L 1018.719529 188.321212 
L 1020.619575 188.498924 
L 1022.519621 188.864686 
L 1024.419667 189.453032 
L 1026.319713 190.280184 
L 1028.21976 191.314175 
L 1032.019852 193.79218 
L 1035.819944 196.34789 
L 1039.620036 198.584897 
L 1041.520082 199.498846 
L 1043.420128 200.262631 
L 1045.320175 200.888076 
L 1049.120267 201.838946 
L 1052.920359 202.782814 
L 1054.820405 203.388342 
L 1056.720451 204.156496 
L 1058.620497 205.133916 
L 1060.520543 206.33614 
L 1062.42059 207.75644 
L 1064.320636 209.370535 
L 1068.120728 213.017636 
L 1075.720912 220.721497 
L 1089.021235 233.419916 
L 1098.521466 242.235065 
L 1102.321558 246.112753 
L 1106.12165 250.379578 
L 1109.921742 255.029231 
L 1115.621881 262.519468 
L 1127.022157 277.818185 
L 1130.822249 282.56405 
L 1134.622342 286.840317 
L 1138.422434 290.583375 
L 1142.222526 293.781694 
L 1146.022618 296.52902 
L 1147.922664 297.91527 
L 1149.822711 299.481422 
L 1153.622803 303.064904 
L 1157.422895 307.070951 
L 1163.123033 313.190469 
L 1165.023079 315.086641 
L 1166.923126 316.818166 
L 1168.823172 318.331537 
L 1170.723218 319.603197 
L 1172.623264 320.59108 
L 1174.52331 321.206483 
L 1176.423356 321.387382 
L 1178.323402 321.102914 
L 1180.223448 320.300626 
L 1182.123494 318.942684 
L 1184.023541 317.057735 
L 1185.923587 314.688728 
L 1187.823633 311.863023 
L 1189.723679 297.946675 
L 1191.623725 272.088752 
L 1193.523771 244.36148 
L 1195.423817 225.045649 
L 1197.323863 210.386926 
L 1199.223909 197.604359 
L 1201.123956 193.231524 
L 1203.024002 198.477014 
L 1204.924048 205.361827 
L 1206.824094 210.669543 
L 1208.72414 220.641244 
L 1210.624186 232.695162 
L 1212.524232 237.0459 
L 1214.424278 237.365576 
L 1216.324324 240.804054 
L 1218.224371 240.186523 
L 1220.124417 232.772224 
L 1222.024463 227.591951 
L 1222.024463 227.591951 
" style="fill:none;stroke:#ff796c;stroke-linecap:square;stroke-width:1.5;"/>
   </g>
   <g id="line2d_28">
    <path clip-path="url(#p3c18e564c9)" d="M 779.313719 104.863405 
L 880.016163 104.985549 
L 897.116578 105.111618 
L 935.1175 105.154372 
L 1022.519621 105.085954 
L 1030.119806 104.794691 
L 1041.520082 104.259123 
L 1052.920359 104.035678 
L 1060.520543 103.790378 
L 1070.020774 103.177961 
L 1087.121189 102.046573 
L 1109.921742 100.58652 
L 1134.622342 98.698572 
L 1146.022618 98.152281 
L 1153.622803 97.719326 
L 1174.52331 96.25989 
L 1180.223448 96.205391 
L 1185.923587 96.44923 
L 1187.823633 96.58967 
L 1189.723679 97.491657 
L 1195.423817 101.629397 
L 1197.323863 102.599577 
L 1199.223909 103.274713 
L 1201.123956 103.504643 
L 1203.024002 103.324454 
L 1206.824094 102.461194 
L 1210.624186 101.253741 
L 1212.524232 100.920287 
L 1214.424278 100.85724 
L 1216.324324 100.916676 
L 1218.224371 101.249475 
L 1222.024463 102.506746 
L 1222.024463 102.506746 
" style="fill:none;stroke:#ffff14;stroke-linecap:square;stroke-width:1.5;"/>
   </g>
   <g id="line2d_29">
    <path clip-path="url(#p3c18e564c9)" d="M 779.313719 104.905692 
L 1222.024463 104.905692 
L 1222.024463 104.905692 
" style="fill:none;stroke:#014d4e;stroke-linecap:square;stroke-width:1.5;"/>
   </g>
   <g id="line2d_30">
    <path clip-path="url(#p3c18e564c9)" d="M 779.313719 192.071673 
L 880.016163 191.94953 
L 897.116578 191.823461 
L 935.1175 191.780706 
L 1022.519621 191.849125 
L 1030.119806 192.140388 
L 1041.520082 192.675956 
L 1052.920359 192.899401 
L 1060.520543 193.144701 
L 1070.020774 193.757118 
L 1087.121189 194.888506 
L 1109.921742 196.348559 
L 1134.622342 198.236507 
L 1146.022618 198.782798 
L 1153.622803 199.215753 
L 1174.52331 200.675189 
L 1180.223448 200.729688 
L 1185.923587 200.485848 
L 1187.823633 200.345409 
L 1189.723679 199.443422 
L 1195.423817 195.305682 
L 1197.323863 194.335502 
L 1199.223909 193.660366 
L 1201.123956 193.430436 
L 1203.024002 193.610624 
L 1206.824094 194.473885 
L 1210.624186 195.681338 
L 1212.524232 196.014791 
L 1214.424278 196.077838 
L 1216.324324 196.018403 
L 1218.224371 195.685604 
L 1222.024463 194.428333 
L 1222.024463 194.428333 
" style="fill:none;stroke:#e50000;stroke-linecap:square;stroke-width:1.5;"/>
   </g>
   <g id="patch_8">
    <path d="M 757.178182 332.6472 
L 757.178182 84.9312 
" style="fill:none;stroke:#000000;stroke-linecap:square;stroke-linejoin:miter;stroke-width:0.8;"/>
   </g>
   <g id="patch_9">
    <path d="M 1244.16 332.6472 
L 1244.16 84.9312 
" style="fill:none;stroke:#000000;stroke-linecap:square;stroke-linejoin:miter;stroke-width:0.8;"/>
   </g>
   <g id="patch_10">
    <path d="M 757.178182 332.6472 
L 1244.16 332.6472 
" style="fill:none;stroke:#000000;stroke-linecap:square;stroke-linejoin:miter;stroke-width:0.8;"/>
   </g>
   <g id="patch_11">
    <path d="M 757.178182 84.9312 
L 1244.16 84.9312 
" style="fill:none;stroke:#000000;stroke-linecap:square;stroke-linejoin:miter;stroke-width:0.8;"/>
   </g>
   <g id="text_24">
    <!-- Right flexion -->
    <defs>
     <path d="M 37.109375 75.984375 
L 37.109375 68.5 
L 28.515625 68.5 
Q 23.6875 68.5 21.796875 66.546875 
Q 19.921875 64.59375 19.921875 59.515625 
L 19.921875 54.6875 
L 34.71875 54.6875 
L 34.71875 47.703125 
L 19.921875 47.703125 
L 19.921875 0 
L 10.890625 0 
L 10.890625 47.703125 
L 2.296875 47.703125 
L 2.296875 54.6875 
L 10.890625 54.6875 
L 10.890625 58.5 
Q 10.890625 67.625 15.140625 71.796875 
Q 19.390625 75.984375 28.609375 75.984375 
z
" id="DejaVuSans-102"/>
     <path d="M 9.421875 75.984375 
L 18.40625 75.984375 
L 18.40625 0 
L 9.421875 0 
z
" id="DejaVuSans-108"/>
     <path d="M 56.203125 29.59375 
L 56.203125 25.203125 
L 14.890625 25.203125 
Q 15.484375 15.921875 20.484375 11.0625 
Q 25.484375 6.203125 34.421875 6.203125 
Q 39.59375 6.203125 44.453125 7.46875 
Q 49.3125 8.734375 54.109375 11.28125 
L 54.109375 2.78125 
Q 49.265625 0.734375 44.1875 -0.34375 
Q 39.109375 -1.421875 33.890625 -1.421875 
Q 20.796875 -1.421875 13.15625 6.1875 
Q 5.515625 13.8125 5.515625 26.8125 
Q 5.515625 40.234375 12.765625 48.109375 
Q 20.015625 56 32.328125 56 
Q 43.359375 56 49.78125 48.890625 
Q 56.203125 41.796875 56.203125 29.59375 
z
M 47.21875 32.234375 
Q 47.125 39.59375 43.09375 43.984375 
Q 39.0625 48.390625 32.421875 48.390625 
Q 24.90625 48.390625 20.390625 44.140625 
Q 15.875 39.890625 15.1875 32.171875 
z
" id="DejaVuSans-101"/>
     <path d="M 54.890625 54.6875 
L 35.109375 28.078125 
L 55.90625 0 
L 45.3125 0 
L 29.390625 21.484375 
L 13.484375 0 
L 2.875 0 
L 24.125 28.609375 
L 4.6875 54.6875 
L 15.28125 54.6875 
L 29.78125 35.203125 
L 44.28125 54.6875 
z
" id="DejaVuSans-120"/>
    </defs>
    <g transform="translate(962.800653 78.9312)scale(0.12 -0.12)">
     <use xlink:href="#DejaVuSans-82"/>
     <use x="69.482422" xlink:href="#DejaVuSans-105"/>
     <use x="97.265625" xlink:href="#DejaVuSans-103"/>
     <use x="160.742188" xlink:href="#DejaVuSans-104"/>
     <use x="224.121094" xlink:href="#DejaVuSans-116"/>
     <use x="263.330078" xlink:href="#DejaVuSans-32"/>
     <use x="295.117188" xlink:href="#DejaVuSans-102"/>
     <use x="330.322266" xlink:href="#DejaVuSans-108"/>
     <use x="358.105469" xlink:href="#DejaVuSans-101"/>
     <use x="419.613281" xlink:href="#DejaVuSans-120"/>
     <use x="478.792969" xlink:href="#DejaVuSans-105"/>
     <use x="506.576172" xlink:href="#DejaVuSans-111"/>
     <use x="567.757812" xlink:href="#DejaVuSans-110"/>
    </g>
   </g>
  </g>
  <g id="axes_3">
   <g id="patch_12">
    <path d="M 172.8 629.9064 
L 659.781818 629.9064 
L 659.781818 382.1904 
L 172.8 382.1904 
z
" style="fill:#ffffff;"/>
   </g>
   <g id="matplotlib.axis_5">
    <g id="xtick_11">
     <g id="line2d_31">
      <g>
       <use style="stroke:#000000;stroke-width:0.8;" x="194.935537" xlink:href="#me139ce47ba" y="629.9064"/>
      </g>
     </g>
     <g id="text_25">
      <!-- 0 -->
      <g transform="translate(191.754287 644.504838)scale(0.1 -0.1)">
       <use xlink:href="#DejaVuSans-48"/>
      </g>
     </g>
    </g>
    <g id="xtick_12">
     <g id="line2d_32">
      <g>
       <use style="stroke:#000000;stroke-width:0.8;" x="289.937843" xlink:href="#me139ce47ba" y="629.9064"/>
      </g>
     </g>
     <g id="text_26">
      <!-- 50 -->
      <g transform="translate(283.575343 644.504838)scale(0.1 -0.1)">
       <use xlink:href="#DejaVuSans-53"/>
       <use x="63.623047" xlink:href="#DejaVuSans-48"/>
      </g>
     </g>
    </g>
    <g id="xtick_13">
     <g id="line2d_33">
      <g>
       <use style="stroke:#000000;stroke-width:0.8;" x="384.940148" xlink:href="#me139ce47ba" y="629.9064"/>
      </g>
     </g>
     <g id="text_27">
      <!-- 100 -->
      <g transform="translate(375.396398 644.504838)scale(0.1 -0.1)">
       <use xlink:href="#DejaVuSans-49"/>
       <use x="63.623047" xlink:href="#DejaVuSans-48"/>
       <use x="127.246094" xlink:href="#DejaVuSans-48"/>
      </g>
     </g>
    </g>
    <g id="xtick_14">
     <g id="line2d_34">
      <g>
       <use style="stroke:#000000;stroke-width:0.8;" x="479.942454" xlink:href="#me139ce47ba" y="629.9064"/>
      </g>
     </g>
     <g id="text_28">
      <!-- 150 -->
      <g transform="translate(470.398704 644.504838)scale(0.1 -0.1)">
       <use xlink:href="#DejaVuSans-49"/>
       <use x="63.623047" xlink:href="#DejaVuSans-53"/>
       <use x="127.246094" xlink:href="#DejaVuSans-48"/>
      </g>
     </g>
    </g>
    <g id="xtick_15">
     <g id="line2d_35">
      <g>
       <use style="stroke:#000000;stroke-width:0.8;" x="574.944759" xlink:href="#me139ce47ba" y="629.9064"/>
      </g>
     </g>
     <g id="text_29">
      <!-- 200 -->
      <g transform="translate(565.401009 644.504838)scale(0.1 -0.1)">
       <use xlink:href="#DejaVuSans-50"/>
       <use x="63.623047" xlink:href="#DejaVuSans-48"/>
       <use x="127.246094" xlink:href="#DejaVuSans-48"/>
      </g>
     </g>
    </g>
   </g>
   <g id="matplotlib.axis_6">
    <g id="ytick_13">
     <g id="line2d_36">
      <g>
       <use style="stroke:#000000;stroke-width:0.8;" x="172.8" xlink:href="#m2d5b42f473" y="623.674238"/>
      </g>
     </g>
     <g id="text_30">
      <!-- −0.50 -->
      <g transform="translate(135.154687 627.473457)scale(0.1 -0.1)">
       <use xlink:href="#DejaVuSans-8722"/>
       <use x="83.789062" xlink:href="#DejaVuSans-48"/>
       <use x="147.412109" xlink:href="#DejaVuSans-46"/>
       <use x="179.199219" xlink:href="#DejaVuSans-53"/>
       <use x="242.822266" xlink:href="#DejaVuSans-48"/>
      </g>
     </g>
    </g>
    <g id="ytick_14">
     <g id="line2d_37">
      <g>
       <use style="stroke:#000000;stroke-width:0.8;" x="172.8" xlink:href="#m2d5b42f473" y="595.880097"/>
      </g>
     </g>
     <g id="text_31">
      <!-- −0.25 -->
      <g transform="translate(135.154687 599.679316)scale(0.1 -0.1)">
       <use xlink:href="#DejaVuSans-8722"/>
       <use x="83.789062" xlink:href="#DejaVuSans-48"/>
       <use x="147.412109" xlink:href="#DejaVuSans-46"/>
       <use x="179.199219" xlink:href="#DejaVuSans-50"/>
       <use x="242.822266" xlink:href="#DejaVuSans-53"/>
      </g>
     </g>
    </g>
    <g id="ytick_15">
     <g id="line2d_38">
      <g>
       <use style="stroke:#000000;stroke-width:0.8;" x="172.8" xlink:href="#m2d5b42f473" y="568.085957"/>
      </g>
     </g>
     <g id="text_32">
      <!-- 0.00 -->
      <g transform="translate(143.534375 571.885175)scale(0.1 -0.1)">
       <use xlink:href="#DejaVuSans-48"/>
       <use x="63.623047" xlink:href="#DejaVuSans-46"/>
       <use x="95.410156" xlink:href="#DejaVuSans-48"/>
       <use x="159.033203" xlink:href="#DejaVuSans-48"/>
      </g>
     </g>
    </g>
    <g id="ytick_16">
     <g id="line2d_39">
      <g>
       <use style="stroke:#000000;stroke-width:0.8;" x="172.8" xlink:href="#m2d5b42f473" y="540.291816"/>
      </g>
     </g>
     <g id="text_33">
      <!-- 0.25 -->
      <g transform="translate(143.534375 544.091034)scale(0.1 -0.1)">
       <use xlink:href="#DejaVuSans-48"/>
       <use x="63.623047" xlink:href="#DejaVuSans-46"/>
       <use x="95.410156" xlink:href="#DejaVuSans-50"/>
       <use x="159.033203" xlink:href="#DejaVuSans-53"/>
      </g>
     </g>
    </g>
    <g id="ytick_17">
     <g id="line2d_40">
      <g>
       <use style="stroke:#000000;stroke-width:0.8;" x="172.8" xlink:href="#m2d5b42f473" y="512.497675"/>
      </g>
     </g>
     <g id="text_34">
      <!-- 0.50 -->
      <g transform="translate(143.534375 516.296893)scale(0.1 -0.1)">
       <use xlink:href="#DejaVuSans-48"/>
       <use x="63.623047" xlink:href="#DejaVuSans-46"/>
       <use x="95.410156" xlink:href="#DejaVuSans-53"/>
       <use x="159.033203" xlink:href="#DejaVuSans-48"/>
      </g>
     </g>
    </g>
    <g id="ytick_18">
     <g id="line2d_41">
      <g>
       <use style="stroke:#000000;stroke-width:0.8;" x="172.8" xlink:href="#m2d5b42f473" y="484.703534"/>
      </g>
     </g>
     <g id="text_35">
      <!-- 0.75 -->
      <defs>
       <path d="M 8.203125 72.90625 
L 55.078125 72.90625 
L 55.078125 68.703125 
L 28.609375 0 
L 18.3125 0 
L 43.21875 64.59375 
L 8.203125 64.59375 
z
" id="DejaVuSans-55"/>
      </defs>
      <g transform="translate(143.534375 488.502752)scale(0.1 -0.1)">
       <use xlink:href="#DejaVuSans-48"/>
       <use x="63.623047" xlink:href="#DejaVuSans-46"/>
       <use x="95.410156" xlink:href="#DejaVuSans-55"/>
       <use x="159.033203" xlink:href="#DejaVuSans-53"/>
      </g>
     </g>
    </g>
    <g id="ytick_19">
     <g id="line2d_42">
      <g>
       <use style="stroke:#000000;stroke-width:0.8;" x="172.8" xlink:href="#m2d5b42f473" y="456.909393"/>
      </g>
     </g>
     <g id="text_36">
      <!-- 1.00 -->
      <g transform="translate(143.534375 460.708611)scale(0.1 -0.1)">
       <use xlink:href="#DejaVuSans-49"/>
       <use x="63.623047" xlink:href="#DejaVuSans-46"/>
       <use x="95.410156" xlink:href="#DejaVuSans-48"/>
       <use x="159.033203" xlink:href="#DejaVuSans-48"/>
      </g>
     </g>
    </g>
    <g id="ytick_20">
     <g id="line2d_43">
      <g>
       <use style="stroke:#000000;stroke-width:0.8;" x="172.8" xlink:href="#m2d5b42f473" y="429.115252"/>
      </g>
     </g>
     <g id="text_37">
      <!-- 1.25 -->
      <g transform="translate(143.534375 432.91447)scale(0.1 -0.1)">
       <use xlink:href="#DejaVuSans-49"/>
       <use x="63.623047" xlink:href="#DejaVuSans-46"/>
       <use x="95.410156" xlink:href="#DejaVuSans-50"/>
       <use x="159.033203" xlink:href="#DejaVuSans-53"/>
      </g>
     </g>
    </g>
    <g id="ytick_21">
     <g id="line2d_44">
      <g>
       <use style="stroke:#000000;stroke-width:0.8;" x="172.8" xlink:href="#m2d5b42f473" y="401.321111"/>
      </g>
     </g>
     <g id="text_38">
      <!-- 1.50 -->
      <g transform="translate(143.534375 405.120329)scale(0.1 -0.1)">
       <use xlink:href="#DejaVuSans-49"/>
       <use x="63.623047" xlink:href="#DejaVuSans-46"/>
       <use x="95.410156" xlink:href="#DejaVuSans-53"/>
       <use x="159.033203" xlink:href="#DejaVuSans-48"/>
      </g>
     </g>
    </g>
   </g>
   <g id="line2d_45">
    <path clip-path="url(#p400e360df0)" d="M 194.935537 568.011538 
L 196.835583 568.274334 
L 200.635676 569.21093 
L 202.535722 569.408416 
L 204.435768 569.246372 
L 210.135906 567.955907 
L 212.035952 567.956506 
L 213.935998 568.280612 
L 217.736091 569.128236 
L 219.636137 569.206619 
L 221.536183 568.944371 
L 225.336275 568.018238 
L 227.236321 567.81565 
L 229.136367 567.962971 
L 234.836506 569.194821 
L 236.736552 569.18341 
L 238.636598 568.855416 
L 242.43669 568.015241 
L 244.336736 567.937342 
L 246.236782 568.188889 
L 250.036874 569.053458 
L 251.936921 569.215766 
L 253.836967 569.035172 
L 257.637059 568.112809 
L 259.537105 567.829145 
L 261.437151 567.883178 
L 263.337197 568.239524 
L 265.237243 568.70909 
L 267.137289 569.048893 
L 269.037336 569.091809 
L 270.937382 568.812318 
L 274.737474 568.030887 
L 276.63752 567.975621 
L 278.537566 568.265546 
L 282.337658 569.258141 
L 284.237704 569.476492 
L 286.137751 569.342761 
L 289.937843 568.522789 
L 291.837889 568.315636 
L 293.737935 568.441855 
L 299.438073 569.525845 
L 301.338119 569.424971 
L 307.038258 568.14537 
L 308.938304 568.113237 
L 310.83835 568.404266 
L 314.638442 569.18043 
L 316.538488 569.225025 
L 318.438534 568.957213 
L 322.238627 568.193204 
L 324.138673 568.145127 
L 326.038719 568.428734 
L 329.838811 569.322155 
L 331.738857 569.470061 
L 333.638903 569.276672 
L 337.438995 568.437584 
L 339.339042 568.249476 
L 341.239088 568.380046 
L 345.03918 569.080373 
L 346.939226 569.195621 
L 348.839272 568.983398 
L 352.639364 568.067809 
L 354.53941 567.820796 
L 356.439457 567.907731 
L 362.139595 568.895697 
L 364.039641 568.825394 
L 367.839733 568.177946 
L 369.739779 568.027516 
L 371.639825 568.184452 
L 377.339964 569.343541 
L 379.24001 569.327424 
L 384.940148 568.446128 
L 386.840194 568.496595 
L 392.540333 569.393531 
L 394.440379 569.345705 
L 400.140517 568.372395 
L 402.040563 568.362576 
L 403.940609 568.616773 
L 407.740702 569.261989 
L 409.640748 569.294149 
L 411.540794 569.078557 
L 415.340886 568.505719 
L 417.240932 568.491161 
L 419.140978 568.726063 
L 422.94107 569.404723 
L 424.841117 569.496225 
L 426.741163 569.329299 
L 430.541255 568.702584 
L 432.441301 568.56849 
L 434.341347 568.675204 
L 438.141439 569.233748 
L 440.041485 569.35321 
L 441.941532 569.222586 
L 447.64167 568.285859 
L 449.541716 568.279552 
L 455.241854 568.904055 
L 457.1419 568.898751 
L 459.041947 568.690934 
L 462.842039 568.085516 
L 464.742085 567.966892 
L 466.642131 568.055512 
L 472.342269 568.762671 
L 474.242315 568.789563 
L 478.042408 568.431633 
L 479.942454 568.258413 
L 481.8425 568.225199 
L 483.742546 568.359207 
L 489.442684 569.096635 
L 491.34273 569.138159 
L 493.242777 568.984075 
L 498.942915 568.19519 
L 500.842961 568.10102 
L 504.643053 568.27865 
L 508.443145 568.456975 
L 512.243238 568.160168 
L 516.04333 567.669035 
L 517.943376 567.520515 
L 519.843422 567.529525 
L 523.643514 567.933319 
L 527.443607 568.330926 
L 529.343653 568.388019 
L 533.143745 568.095294 
L 536.943837 567.717492 
L 540.743929 567.64483 
L 544.544022 567.951774 
L 548.344114 568.220716 
L 552.144206 568.189506 
L 557.844344 567.760139 
L 561.644437 567.797306 
L 565.444529 568.101502 
L 569.244621 568.379519 
L 573.044713 568.348242 
L 576.844805 568.04727 
L 580.644898 567.80197 
L 584.44499 567.839617 
L 588.245082 568.216508 
L 593.94522 568.732594 
L 597.745313 568.834469 
L 603.445451 568.887495 
L 605.345497 581.121179 
L 607.245543 583.049998 
L 609.145589 580.127758 
L 611.045635 581.190526 
L 612.945682 577.604896 
L 614.845728 563.819003 
L 616.745774 553.27388 
L 618.64582 552.600291 
L 620.545866 551.651353 
L 622.445912 550.094553 
L 624.345958 559.052254 
L 626.246004 573.428119 
L 628.14605 579.561651 
L 630.046097 581.834078 
L 631.946143 587.3585 
L 633.846189 585.85777 
L 635.746235 573.427557 
L 637.646281 563.500838 
L 637.646281 563.500838 
" style="fill:none;stroke:#ff796c;stroke-linecap:square;stroke-width:1.5;"/>
   </g>
   <g id="line2d_46">
    <path clip-path="url(#p400e360df0)" d="M 194.935537 394.146054 
L 200.635676 394.179615 
L 204.435768 394.389447 
L 212.035952 395.206203 
L 217.736091 395.875752 
L 221.536183 396.502568 
L 234.836506 399.22122 
L 238.636598 400.203527 
L 251.936921 404.135275 
L 257.637059 406.201183 
L 270.937382 411.26456 
L 286.137751 417.918744 
L 297.538027 423.699331 
L 301.338119 425.767206 
L 316.538488 434.6671 
L 331.738857 444.189297 
L 339.339042 449.373218 
L 348.839272 455.918299 
L 358.339503 462.734631 
L 365.939687 468.123852 
L 373.539872 473.556618 
L 379.24001 477.628651 
L 396.340425 490.534024 
L 403.940609 496.455004 
L 411.540794 502.332433 
L 421.041024 509.793583 
L 426.741163 514.298824 
L 451.441762 534.338227 
L 470.442223 549.283691 
L 483.742546 559.152394 
L 508.443145 576.537939 
L 516.04333 581.542679 
L 521.743468 584.984455 
L 529.343653 589.182161 
L 536.943837 593.209416 
L 542.643975 595.955154 
L 548.344114 598.446214 
L 555.944298 601.502201 
L 559.74439 602.846359 
L 563.544483 604.019134 
L 569.244621 605.491225 
L 574.944759 606.699619 
L 578.744852 607.331569 
L 582.544944 607.765307 
L 586.345036 607.983914 
L 590.145128 608.012685 
L 595.845267 607.822885 
L 601.545405 607.451886 
L 605.345497 607.108706 
L 607.245543 607.603615 
L 609.145589 608.698751 
L 611.045635 610.093491 
L 612.945682 612.000551 
L 614.845728 614.417436 
L 616.745774 616.570677 
L 618.64582 617.920289 
L 620.545866 618.620503 
L 622.445912 618.646582 
L 624.345958 617.744531 
L 626.246004 616.347841 
L 628.14605 615.239458 
L 630.046097 614.567943 
L 631.946143 614.291423 
L 633.846189 614.771019 
L 637.646281 617.277252 
L 637.646281 617.277252 
" style="fill:none;stroke:#ffff14;stroke-linecap:square;stroke-width:1.5;"/>
   </g>
   <g id="line2d_47">
    <path clip-path="url(#p400e360df0)" d="M 194.935537 393.450218 
L 200.635676 393.538737 
L 206.335814 393.804149 
L 212.035952 394.246025 
L 217.736091 394.863648 
L 223.436229 395.656015 
L 229.136367 396.621841 
L 234.836506 397.759561 
L 242.43669 399.540681 
L 250.036874 401.61894 
L 257.637059 403.988346 
L 265.237243 406.642068 
L 272.837428 409.572455 
L 280.437612 412.771058 
L 288.037797 416.228653 
L 295.637981 419.935272 
L 303.238166 423.880228 
L 310.83835 428.052147 
L 318.438534 432.438999 
L 327.938765 438.20549 
L 337.438995 444.262033 
L 346.939226 450.581348 
L 358.339503 458.471229 
L 369.739779 466.647287 
L 383.040102 476.476887 
L 400.140517 489.441297 
L 455.241854 531.554041 
L 468.542177 541.301734 
L 479.942454 549.388206 
L 491.34273 557.171223 
L 500.842961 563.388782 
L 510.343192 569.332507 
L 519.843422 574.975627 
L 527.443607 579.256555 
L 535.043791 583.316456 
L 542.643975 587.143623 
L 550.24416 590.727022 
L 557.844344 594.056321 
L 565.444529 597.121921 
L 573.044713 599.914982 
L 580.644898 602.427452 
L 588.245082 604.652087 
L 595.845267 606.582472 
L 603.445451 608.213042 
L 609.145589 609.236354 
L 614.845728 610.086698 
L 620.545866 610.762694 
L 626.246004 611.263245 
L 631.946143 611.587541 
L 637.646281 611.735054 
L 637.646281 611.735054 
" style="fill:none;stroke:#014d4e;stroke-linecap:square;stroke-width:1.5;"/>
   </g>
   <g id="line2d_48">
    <path clip-path="url(#p400e360df0)" d="M 194.935537 567.39012 
L 204.435768 567.392554 
L 213.935998 567.104664 
L 221.536183 566.955938 
L 229.136367 566.67213 
L 238.636598 566.495067 
L 246.236782 566.223238 
L 253.836967 566.062 
L 261.437151 565.750811 
L 272.837428 565.572853 
L 278.537566 565.500313 
L 286.137751 565.507719 
L 295.637981 565.295372 
L 301.338119 565.191006 
L 310.83835 564.814749 
L 318.438534 564.677399 
L 324.138673 564.502644 
L 335.538949 564.360442 
L 341.239088 564.182492 
L 348.839272 564.041916 
L 356.439457 563.80703 
L 396.340425 564.088951 
L 403.940609 563.986013 
L 411.540794 563.956158 
L 419.140978 563.819283 
L 424.841117 563.77386 
L 441.941532 563.068425 
L 451.441762 562.465951 
L 459.041947 562.056889 
L 466.642131 561.59332 
L 493.242777 560.619335 
L 508.443145 559.71499 
L 519.843422 559.184178 
L 531.243699 559.191539 
L 540.743929 559.222027 
L 550.24416 559.57295 
L 557.844344 559.947072 
L 563.544483 560.447562 
L 571.144667 561.405343 
L 578.744852 562.580438 
L 584.44499 563.760672 
L 590.145128 565.235773 
L 605.345497 569.550519 
L 607.245543 569.396734 
L 609.145589 568.623559 
L 611.045635 567.53156 
L 612.945682 565.907965 
L 614.845728 563.755218 
L 616.745774 561.846742 
L 618.64582 560.722475 
L 620.545866 560.228147 
L 622.445912 560.388459 
L 624.345958 561.457371 
L 626.246004 563.001361 
L 628.14605 564.237458 
L 630.046097 565.017078 
L 631.946143 565.382074 
L 633.846189 564.97131 
L 637.646281 562.543759 
L 637.646281 562.543759 
" style="fill:none;stroke:#e50000;stroke-linecap:square;stroke-width:1.5;"/>
   </g>
   <g id="patch_13">
    <path d="M 172.8 629.9064 
L 172.8 382.1904 
" style="fill:none;stroke:#000000;stroke-linecap:square;stroke-linejoin:miter;stroke-width:0.8;"/>
   </g>
   <g id="patch_14">
    <path d="M 659.781818 629.9064 
L 659.781818 382.1904 
" style="fill:none;stroke:#000000;stroke-linecap:square;stroke-linejoin:miter;stroke-width:0.8;"/>
   </g>
   <g id="patch_15">
    <path d="M 172.8 629.9064 
L 659.781818 629.9064 
" style="fill:none;stroke:#000000;stroke-linecap:square;stroke-linejoin:miter;stroke-width:0.8;"/>
   </g>
   <g id="patch_16">
    <path d="M 172.8 382.1904 
L 659.781818 382.1904 
" style="fill:none;stroke:#000000;stroke-linecap:square;stroke-linejoin:miter;stroke-width:0.8;"/>
   </g>
   <g id="text_39">
    <!-- Left abduction -->
    <defs>
     <path d="M 9.8125 72.90625 
L 19.671875 72.90625 
L 19.671875 8.296875 
L 55.171875 8.296875 
L 55.171875 0 
L 9.8125 0 
z
" id="DejaVuSans-76"/>
    </defs>
    <g transform="translate(372.997159 376.1904)scale(0.12 -0.12)">
     <use xlink:href="#DejaVuSans-76"/>
     <use x="55.697266" xlink:href="#DejaVuSans-101"/>
     <use x="117.220703" xlink:href="#DejaVuSans-102"/>
     <use x="152.410156" xlink:href="#DejaVuSans-116"/>
     <use x="191.619141" xlink:href="#DejaVuSans-32"/>
     <use x="223.40625" xlink:href="#DejaVuSans-97"/>
     <use x="284.685547" xlink:href="#DejaVuSans-98"/>
     <use x="348.162109" xlink:href="#DejaVuSans-100"/>
     <use x="411.638672" xlink:href="#DejaVuSans-117"/>
     <use x="475.017578" xlink:href="#DejaVuSans-99"/>
     <use x="529.998047" xlink:href="#DejaVuSans-116"/>
     <use x="569.207031" xlink:href="#DejaVuSans-105"/>
     <use x="596.990234" xlink:href="#DejaVuSans-111"/>
     <use x="658.171875" xlink:href="#DejaVuSans-110"/>
    </g>
   </g>
  </g>
  <g id="axes_4">
   <g id="patch_17">
    <path d="M 757.178182 629.9064 
L 1244.16 629.9064 
L 1244.16 382.1904 
L 757.178182 382.1904 
z
" style="fill:#ffffff;"/>
   </g>
   <g id="matplotlib.axis_7">
    <g id="xtick_16">
     <g id="line2d_49">
      <g>
       <use style="stroke:#000000;stroke-width:0.8;" x="779.313719" xlink:href="#me139ce47ba" y="629.9064"/>
      </g>
     </g>
     <g id="text_40">
      <!-- 0 -->
      <g transform="translate(776.132469 644.504838)scale(0.1 -0.1)">
       <use xlink:href="#DejaVuSans-48"/>
      </g>
     </g>
    </g>
    <g id="xtick_17">
     <g id="line2d_50">
      <g>
       <use style="stroke:#000000;stroke-width:0.8;" x="874.316025" xlink:href="#me139ce47ba" y="629.9064"/>
      </g>
     </g>
     <g id="text_41">
      <!-- 50 -->
      <g transform="translate(867.953525 644.504838)scale(0.1 -0.1)">
       <use xlink:href="#DejaVuSans-53"/>
       <use x="63.623047" xlink:href="#DejaVuSans-48"/>
      </g>
     </g>
    </g>
    <g id="xtick_18">
     <g id="line2d_51">
      <g>
       <use style="stroke:#000000;stroke-width:0.8;" x="969.31833" xlink:href="#me139ce47ba" y="629.9064"/>
      </g>
     </g>
     <g id="text_42">
      <!-- 100 -->
      <g transform="translate(959.77458 644.504838)scale(0.1 -0.1)">
       <use xlink:href="#DejaVuSans-49"/>
       <use x="63.623047" xlink:href="#DejaVuSans-48"/>
       <use x="127.246094" xlink:href="#DejaVuSans-48"/>
      </g>
     </g>
    </g>
    <g id="xtick_19">
     <g id="line2d_52">
      <g>
       <use style="stroke:#000000;stroke-width:0.8;" x="1064.320636" xlink:href="#me139ce47ba" y="629.9064"/>
      </g>
     </g>
     <g id="text_43">
      <!-- 150 -->
      <g transform="translate(1054.776886 644.504838)scale(0.1 -0.1)">
       <use xlink:href="#DejaVuSans-49"/>
       <use x="63.623047" xlink:href="#DejaVuSans-53"/>
       <use x="127.246094" xlink:href="#DejaVuSans-48"/>
      </g>
     </g>
    </g>
    <g id="xtick_20">
     <g id="line2d_53">
      <g>
       <use style="stroke:#000000;stroke-width:0.8;" x="1159.322941" xlink:href="#me139ce47ba" y="629.9064"/>
      </g>
     </g>
     <g id="text_44">
      <!-- 200 -->
      <g transform="translate(1149.779191 644.504838)scale(0.1 -0.1)">
       <use xlink:href="#DejaVuSans-50"/>
       <use x="63.623047" xlink:href="#DejaVuSans-48"/>
       <use x="127.246094" xlink:href="#DejaVuSans-48"/>
      </g>
     </g>
    </g>
   </g>
   <g id="matplotlib.axis_8">
    <g id="ytick_22">
     <g id="line2d_54">
      <g>
       <use style="stroke:#000000;stroke-width:0.8;" x="757.178182" xlink:href="#m2d5b42f473" y="591.472371"/>
      </g>
     </g>
     <g id="text_45">
      <!-- −0.4 -->
      <g transform="translate(725.895369 595.27159)scale(0.1 -0.1)">
       <use xlink:href="#DejaVuSans-8722"/>
       <use x="83.789062" xlink:href="#DejaVuSans-48"/>
       <use x="147.412109" xlink:href="#DejaVuSans-46"/>
       <use x="179.199219" xlink:href="#DejaVuSans-52"/>
      </g>
     </g>
    </g>
    <g id="ytick_23">
     <g id="line2d_55">
      <g>
       <use style="stroke:#000000;stroke-width:0.8;" x="757.178182" xlink:href="#m2d5b42f473" y="548.508804"/>
      </g>
     </g>
     <g id="text_46">
      <!-- −0.3 -->
      <defs>
       <path d="M 40.578125 39.3125 
Q 47.65625 37.796875 51.625 33 
Q 55.609375 28.21875 55.609375 21.1875 
Q 55.609375 10.40625 48.1875 4.484375 
Q 40.765625 -1.421875 27.09375 -1.421875 
Q 22.515625 -1.421875 17.65625 -0.515625 
Q 12.796875 0.390625 7.625 2.203125 
L 7.625 11.71875 
Q 11.71875 9.328125 16.59375 8.109375 
Q 21.484375 6.890625 26.8125 6.890625 
Q 36.078125 6.890625 40.9375 10.546875 
Q 45.796875 14.203125 45.796875 21.1875 
Q 45.796875 27.640625 41.28125 31.265625 
Q 36.765625 34.90625 28.71875 34.90625 
L 20.21875 34.90625 
L 20.21875 43.015625 
L 29.109375 43.015625 
Q 36.375 43.015625 40.234375 45.921875 
Q 44.09375 48.828125 44.09375 54.296875 
Q 44.09375 59.90625 40.109375 62.90625 
Q 36.140625 65.921875 28.71875 65.921875 
Q 24.65625 65.921875 20.015625 65.03125 
Q 15.375 64.15625 9.8125 62.3125 
L 9.8125 71.09375 
Q 15.4375 72.65625 20.34375 73.4375 
Q 25.25 74.21875 29.59375 74.21875 
Q 40.828125 74.21875 47.359375 69.109375 
Q 53.90625 64.015625 53.90625 55.328125 
Q 53.90625 49.265625 50.4375 45.09375 
Q 46.96875 40.921875 40.578125 39.3125 
z
" id="DejaVuSans-51"/>
      </defs>
      <g transform="translate(725.895369 552.308023)scale(0.1 -0.1)">
       <use xlink:href="#DejaVuSans-8722"/>
       <use x="83.789062" xlink:href="#DejaVuSans-48"/>
       <use x="147.412109" xlink:href="#DejaVuSans-46"/>
       <use x="179.199219" xlink:href="#DejaVuSans-51"/>
      </g>
     </g>
    </g>
    <g id="ytick_24">
     <g id="line2d_56">
      <g>
       <use style="stroke:#000000;stroke-width:0.8;" x="757.178182" xlink:href="#m2d5b42f473" y="505.545237"/>
      </g>
     </g>
     <g id="text_47">
      <!-- −0.2 -->
      <g transform="translate(725.895369 509.344455)scale(0.1 -0.1)">
       <use xlink:href="#DejaVuSans-8722"/>
       <use x="83.789062" xlink:href="#DejaVuSans-48"/>
       <use x="147.412109" xlink:href="#DejaVuSans-46"/>
       <use x="179.199219" xlink:href="#DejaVuSans-50"/>
      </g>
     </g>
    </g>
    <g id="ytick_25">
     <g id="line2d_57">
      <g>
       <use style="stroke:#000000;stroke-width:0.8;" x="757.178182" xlink:href="#m2d5b42f473" y="462.581669"/>
      </g>
     </g>
     <g id="text_48">
      <!-- −0.1 -->
      <g transform="translate(725.895369 466.380888)scale(0.1 -0.1)">
       <use xlink:href="#DejaVuSans-8722"/>
       <use x="83.789062" xlink:href="#DejaVuSans-48"/>
       <use x="147.412109" xlink:href="#DejaVuSans-46"/>
       <use x="179.199219" xlink:href="#DejaVuSans-49"/>
      </g>
     </g>
    </g>
    <g id="ytick_26">
     <g id="line2d_58">
      <g>
       <use style="stroke:#000000;stroke-width:0.8;" x="757.178182" xlink:href="#m2d5b42f473" y="419.618102"/>
      </g>
     </g>
     <g id="text_49">
      <!-- 0.0 -->
      <g transform="translate(734.275057 423.417321)scale(0.1 -0.1)">
       <use xlink:href="#DejaVuSans-48"/>
       <use x="63.623047" xlink:href="#DejaVuSans-46"/>
       <use x="95.410156" xlink:href="#DejaVuSans-48"/>
      </g>
     </g>
    </g>
   </g>
   <g id="line2d_59">
    <path clip-path="url(#p6d8f1c498c)" d="M 779.313719 419.608627 
L 868.615886 419.04436 
L 874.316025 418.865698 
L 880.016163 418.392581 
L 885.716301 417.959382 
L 902.816716 417.289643 
L 954.117961 416.526571 
L 1011.119345 415.994762 
L 1018.719529 415.999123 
L 1020.619575 416.102422 
L 1022.519621 416.326011 
L 1024.419667 416.692346 
L 1026.319713 417.212279 
L 1030.119806 418.624471 
L 1037.71999 421.831748 
L 1041.520082 423.102348 
L 1045.320175 424.003078 
L 1054.820405 425.64983 
L 1056.720451 426.161248 
L 1058.620497 426.810006 
L 1060.520543 427.606966 
L 1062.42059 428.548381 
L 1066.220682 430.791981 
L 1071.92082 434.650534 
L 1077.620958 438.429103 
L 1089.021235 445.803565 
L 1098.521466 451.871905 
L 1102.321558 454.555921 
L 1106.12165 457.516083 
L 1109.921742 460.753911 
L 1115.621881 465.986614 
L 1128.922203 478.536134 
L 1132.722296 481.77607 
L 1136.522388 484.635651 
L 1140.32248 487.060362 
L 1144.122572 489.07153 
L 1147.922664 490.839445 
L 1151.722757 492.96113 
L 1155.522849 495.396736 
L 1163.123033 500.473621 
L 1166.923126 502.636011 
L 1168.823172 503.501873 
L 1170.723218 504.190711 
L 1172.623264 504.672167 
L 1174.52331 504.887234 
L 1176.423356 504.787838 
L 1178.323402 504.344639 
L 1180.223448 503.523621 
L 1182.123494 502.303608 
L 1184.023541 500.701485 
L 1185.923587 498.748534 
L 1187.823633 496.476226 
L 1189.723679 485.393587 
L 1191.623725 466.514278 
L 1193.523771 446.055701 
L 1195.423817 430.487562 
L 1197.323863 418.112425 
L 1199.223909 407.693987 
L 1201.123956 403.167244 
L 1203.024002 405.393414 
L 1206.824094 413.992764 
L 1208.72414 421.446476 
L 1210.624186 430.463539 
L 1212.524232 434.884706 
L 1214.424278 436.555402 
L 1216.324324 439.755515 
L 1218.224371 440.294854 
L 1220.124417 436.609335 
L 1222.024463 434.27758 
L 1222.024463 434.27758 
" style="fill:none;stroke:#ff796c;stroke-linecap:square;stroke-width:1.5;"/>
   </g>
   <g id="line2d_60">
    <path clip-path="url(#p6d8f1c498c)" d="M 779.313719 592.50353 
L 878.116117 592.605104 
L 897.116578 592.802184 
L 931.317408 592.910571 
L 1020.619575 593.027609 
L 1024.419667 592.864253 
L 1030.119806 592.324184 
L 1041.520082 591.042309 
L 1047.220221 590.677879 
L 1054.820405 590.280118 
L 1058.620497 589.921448 
L 1062.42059 589.388137 
L 1068.120728 588.310146 
L 1087.121189 584.379987 
L 1100.421512 581.630883 
L 1106.12165 580.220674 
L 1111.821788 578.592138 
L 1121.322019 575.604175 
L 1130.822249 572.620519 
L 1134.622342 571.609497 
L 1138.422434 570.791755 
L 1142.222526 570.190854 
L 1147.922664 569.642953 
L 1155.522849 568.788393 
L 1163.123033 567.979247 
L 1166.923126 567.787796 
L 1170.723218 567.853401 
L 1174.52331 568.275743 
L 1176.423356 568.6667 
L 1178.323402 569.201416 
L 1180.223448 569.889711 
L 1182.123494 570.734395 
L 1184.023541 571.731591 
L 1187.823633 574.121886 
L 1189.723679 579.550836 
L 1191.623725 587.443593 
L 1193.523771 596.16085 
L 1195.423817 603.798306 
L 1197.323863 610.240709 
L 1199.223909 615.416325 
L 1201.123956 618.322657 
L 1203.024002 618.646582 
L 1204.924048 617.306588 
L 1206.824094 615.151928 
L 1208.72414 611.956984 
L 1210.624186 608.186994 
L 1212.524232 605.229813 
L 1214.424278 603.174073 
L 1216.324324 601.297224 
L 1218.224371 600.11276 
L 1220.124417 599.757423 
L 1222.024463 599.190515 
L 1222.024463 599.190515 
" style="fill:none;stroke:#ffff14;stroke-linecap:square;stroke-width:1.5;"/>
   </g>
   <g id="line2d_61">
    <path clip-path="url(#p6d8f1c498c)" d="M 779.313719 592.478698 
L 1222.024463 592.478698 
L 1222.024463 592.478698 
" style="fill:none;stroke:#014d4e;stroke-linecap:square;stroke-width:1.5;"/>
   </g>
   <g id="line2d_62">
    <path clip-path="url(#p6d8f1c498c)" d="M 779.313719 419.59327 
L 878.116117 419.491696 
L 897.116578 419.294616 
L 931.317408 419.186229 
L 1020.619575 419.069191 
L 1024.419667 419.232547 
L 1030.119806 419.772616 
L 1041.520082 421.054491 
L 1047.220221 421.418921 
L 1054.820405 421.816682 
L 1058.620497 422.175352 
L 1062.42059 422.708663 
L 1068.120728 423.786654 
L 1087.121189 427.716813 
L 1100.421512 430.465917 
L 1106.12165 431.876126 
L 1111.821788 433.504662 
L 1121.322019 436.492625 
L 1130.822249 439.476281 
L 1134.622342 440.487303 
L 1138.422434 441.305045 
L 1142.222526 441.905946 
L 1147.922664 442.453847 
L 1155.522849 443.308407 
L 1163.123033 444.117553 
L 1166.923126 444.309004 
L 1170.723218 444.243399 
L 1174.52331 443.821057 
L 1176.423356 443.4301 
L 1178.323402 442.895384 
L 1180.223448 442.207089 
L 1182.123494 441.362405 
L 1184.023541 440.365209 
L 1187.823633 437.974914 
L 1189.723679 432.545964 
L 1191.623725 424.653207 
L 1193.523771 415.93595 
L 1195.423817 408.298494 
L 1197.323863 401.856091 
L 1199.223909 396.680475 
L 1201.123956 393.774143 
L 1203.024002 393.450218 
L 1204.924048 394.790212 
L 1206.824094 396.944872 
L 1208.72414 400.139816 
L 1210.624186 403.909806 
L 1212.524232 406.866987 
L 1214.424278 408.922727 
L 1216.324324 410.799576 
L 1218.224371 411.98404 
L 1220.124417 412.339377 
L 1222.024463 412.906285 
L 1222.024463 412.906285 
" style="fill:none;stroke:#e50000;stroke-linecap:square;stroke-width:1.5;"/>
   </g>
   <g id="patch_18">
    <path d="M 757.178182 629.9064 
L 757.178182 382.1904 
" style="fill:none;stroke:#000000;stroke-linecap:square;stroke-linejoin:miter;stroke-width:0.8;"/>
   </g>
   <g id="patch_19">
    <path d="M 1244.16 629.9064 
L 1244.16 382.1904 
" style="fill:none;stroke:#000000;stroke-linecap:square;stroke-linejoin:miter;stroke-width:0.8;"/>
   </g>
   <g id="patch_20">
    <path d="M 757.178182 629.9064 
L 1244.16 629.9064 
" style="fill:none;stroke:#000000;stroke-linecap:square;stroke-linejoin:miter;stroke-width:0.8;"/>
   </g>
   <g id="patch_21">
    <path d="M 757.178182 382.1904 
L 1244.16 382.1904 
" style="fill:none;stroke:#000000;stroke-linecap:square;stroke-linejoin:miter;stroke-width:0.8;"/>
   </g>
   <g id="text_50">
    <!-- Left flexion -->
    <g transform="translate(967.102841 376.1904)scale(0.12 -0.12)">
     <use xlink:href="#DejaVuSans-76"/>
     <use x="55.697266" xlink:href="#DejaVuSans-101"/>
     <use x="117.220703" xlink:href="#DejaVuSans-102"/>
     <use x="152.410156" xlink:href="#DejaVuSans-116"/>
     <use x="191.619141" xlink:href="#DejaVuSans-32"/>
     <use x="223.40625" xlink:href="#DejaVuSans-102"/>
     <use x="258.611328" xlink:href="#DejaVuSans-108"/>
     <use x="286.394531" xlink:href="#DejaVuSans-101"/>
     <use x="347.902344" xlink:href="#DejaVuSans-120"/>
     <use x="407.082031" xlink:href="#DejaVuSans-105"/>
     <use x="434.865234" xlink:href="#DejaVuSans-111"/>
     <use x="496.046875" xlink:href="#DejaVuSans-110"/>
    </g>
   </g>
  </g>
  <g id="legend_1">
   <g id="patch_22">
    <path d="M 1308.251562 384.875313 
L 1375.4 384.875313 
Q 1377.4 384.875313 1377.4 382.875313 
L 1377.4 324.884687 
Q 1377.4 322.884687 1375.4 322.884687 
L 1308.251562 322.884687 
Q 1306.251562 322.884687 1306.251562 324.884687 
L 1306.251562 382.875313 
Q 1306.251562 384.875313 1308.251562 384.875313 
z
" style="fill:#ffffff;opacity:0.8;stroke:#cccccc;stroke-linejoin:miter;"/>
   </g>
   <g id="line2d_63">
    <path d="M 1310.251562 330.983125 
L 1330.251562 330.983125 
" style="fill:none;stroke:#ff796c;stroke-linecap:square;stroke-width:1.5;"/>
   </g>
   <g id="line2d_64"/>
   <g id="text_51">
    <!-- Torque -->
    <defs>
     <path d="M -0.296875 72.90625 
L 61.375 72.90625 
L 61.375 64.59375 
L 35.5 64.59375 
L 35.5 0 
L 25.59375 0 
L 25.59375 64.59375 
L -0.296875 64.59375 
z
" id="DejaVuSans-84"/>
     <path d="M 41.109375 46.296875 
Q 39.59375 47.171875 37.8125 47.578125 
Q 36.03125 48 33.890625 48 
Q 26.265625 48 22.1875 43.046875 
Q 18.109375 38.09375 18.109375 28.8125 
L 18.109375 0 
L 9.078125 0 
L 9.078125 54.6875 
L 18.109375 54.6875 
L 18.109375 46.1875 
Q 20.953125 51.171875 25.484375 53.578125 
Q 30.03125 56 36.53125 56 
Q 37.453125 56 38.578125 55.875 
Q 39.703125 55.765625 41.0625 55.515625 
z
" id="DejaVuSans-114"/>
     <path d="M 14.796875 27.296875 
Q 14.796875 17.390625 18.875 11.75 
Q 22.953125 6.109375 30.078125 6.109375 
Q 37.203125 6.109375 41.296875 11.75 
Q 45.40625 17.390625 45.40625 27.296875 
Q 45.40625 37.203125 41.296875 42.84375 
Q 37.203125 48.484375 30.078125 48.484375 
Q 22.953125 48.484375 18.875 42.84375 
Q 14.796875 37.203125 14.796875 27.296875 
z
M 45.40625 8.203125 
Q 42.578125 3.328125 38.25 0.953125 
Q 33.9375 -1.421875 27.875 -1.421875 
Q 17.96875 -1.421875 11.734375 6.484375 
Q 5.515625 14.40625 5.515625 27.296875 
Q 5.515625 40.1875 11.734375 48.09375 
Q 17.96875 56 27.875 56 
Q 33.9375 56 38.25 53.625 
Q 42.578125 51.265625 45.40625 46.390625 
L 45.40625 54.6875 
L 54.390625 54.6875 
L 54.390625 -20.796875 
L 45.40625 -20.796875 
z
" id="DejaVuSans-113"/>
    </defs>
    <g transform="translate(1338.251562 334.483125)scale(0.1 -0.1)">
     <use xlink:href="#DejaVuSans-84"/>
     <use x="60.818359" xlink:href="#DejaVuSans-111"/>
     <use x="122" xlink:href="#DejaVuSans-114"/>
     <use x="163.097656" xlink:href="#DejaVuSans-113"/>
     <use x="226.574219" xlink:href="#DejaVuSans-117"/>
     <use x="289.953125" xlink:href="#DejaVuSans-101"/>
    </g>
   </g>
   <g id="line2d_65">
    <path d="M 1310.251562 345.66125 
L 1330.251562 345.66125 
" style="fill:none;stroke:#ffff14;stroke-linecap:square;stroke-width:1.5;"/>
   </g>
   <g id="line2d_66"/>
   <g id="text_52">
    <!-- q -->
    <g transform="translate(1338.251562 349.16125)scale(0.1 -0.1)">
     <use xlink:href="#DejaVuSans-113"/>
    </g>
   </g>
   <g id="line2d_67">
    <path d="M 1310.251562 360.339375 
L 1330.251562 360.339375 
" style="fill:none;stroke:#014d4e;stroke-linecap:square;stroke-width:1.5;"/>
   </g>
   <g id="line2d_68"/>
   <g id="text_53">
    <!-- q_des -->
    <defs>
     <path d="M 50.984375 -16.609375 
L 50.984375 -23.578125 
L -0.984375 -23.578125 
L -0.984375 -16.609375 
z
" id="DejaVuSans-95"/>
     <path d="M 44.28125 53.078125 
L 44.28125 44.578125 
Q 40.484375 46.53125 36.375 47.5 
Q 32.28125 48.484375 27.875 48.484375 
Q 21.1875 48.484375 17.84375 46.4375 
Q 14.5 44.390625 14.5 40.28125 
Q 14.5 37.15625 16.890625 35.375 
Q 19.28125 33.59375 26.515625 31.984375 
L 29.59375 31.296875 
Q 39.15625 29.25 43.1875 25.515625 
Q 47.21875 21.78125 47.21875 15.09375 
Q 47.21875 7.46875 41.1875 3.015625 
Q 35.15625 -1.421875 24.609375 -1.421875 
Q 20.21875 -1.421875 15.453125 -0.5625 
Q 10.6875 0.296875 5.421875 2 
L 5.421875 11.28125 
Q 10.40625 8.6875 15.234375 7.390625 
Q 20.0625 6.109375 24.8125 6.109375 
Q 31.15625 6.109375 34.5625 8.28125 
Q 37.984375 10.453125 37.984375 14.40625 
Q 37.984375 18.0625 35.515625 20.015625 
Q 33.0625 21.96875 24.703125 23.78125 
L 21.578125 24.515625 
Q 13.234375 26.265625 9.515625 29.90625 
Q 5.8125 33.546875 5.8125 39.890625 
Q 5.8125 47.609375 11.28125 51.796875 
Q 16.75 56 26.8125 56 
Q 31.78125 56 36.171875 55.265625 
Q 40.578125 54.546875 44.28125 53.078125 
z
" id="DejaVuSans-115"/>
    </defs>
    <g transform="translate(1338.251562 363.839375)scale(0.1 -0.1)">
     <use xlink:href="#DejaVuSans-113"/>
     <use x="63.476562" xlink:href="#DejaVuSans-95"/>
     <use x="113.476562" xlink:href="#DejaVuSans-100"/>
     <use x="176.953125" xlink:href="#DejaVuSans-101"/>
     <use x="238.476562" xlink:href="#DejaVuSans-115"/>
    </g>
   </g>
   <g id="line2d_69">
    <path d="M 1310.251562 375.295625 
L 1330.251562 375.295625 
" style="fill:none;stroke:#e50000;stroke-linecap:square;stroke-width:1.5;"/>
   </g>
   <g id="line2d_70"/>
   <g id="text_54">
    <!-- error -->
    <g transform="translate(1338.251562 378.795625)scale(0.1 -0.1)">
     <use xlink:href="#DejaVuSans-101"/>
     <use x="61.523438" xlink:href="#DejaVuSans-114"/>
     <use x="102.621094" xlink:href="#DejaVuSans-114"/>
     <use x="143.703125" xlink:href="#DejaVuSans-111"/>
     <use x="204.884766" xlink:href="#DejaVuSans-114"/>
    </g>
   </g>
  </g>
 </g>
 <defs>
  <clipPath id="p98feec31a3">
   <rect height="247.716" width="486.981818" x="172.8" y="84.9312"/>
  </clipPath>
  <clipPath id="p3c18e564c9">
   <rect height="247.716" width="486.981818" x="757.178182" y="84.9312"/>
  </clipPath>
  <clipPath id="p400e360df0">
   <rect height="247.716" width="486.981818" x="172.8" y="382.1904"/>
  </clipPath>
  <clipPath id="p6d8f1c498c">
   <rect height="247.716" width="486.981818" x="757.178182" y="382.1904"/>
  </clipPath>
 </defs>
</svg>
