<?xml version="1.0" encoding="utf-8" standalone="no"?>
<!DOCTYPE svg PUBLIC "-//W3C//DTD SVG 1.1//EN"
  "http://www.w3.org/Graphics/SVG/1.1/DTD/svg11.dtd">
<!-- Created with matplotlib (https://matplotlib.org/) -->
<svg height="707.76pt" version="1.1" viewBox="0 0 1382.4 707.76" width="1382.4pt" xmlns="http://www.w3.org/2000/svg" xmlns:xlink="http://www.w3.org/1999/xlink">
 <defs>
  <style type="text/css">
*{stroke-linecap:butt;stroke-linejoin:round;}
  </style>
 </defs>
 <g id="figure_1">
  <g id="patch_1">
   <path d="M 0 707.76 
L 1382.4 707.76 
L 1382.4 0 
L 0 0 
z
" style="fill:#ffffff;"/>
  </g>
  <g id="axes_1">
   <g id="patch_2">
    <path d="M 172.8 332.6472 
L 487.905882 332.6472 
L 487.905882 84.9312 
L 172.8 84.9312 
z
" style="fill:#ffffff;"/>
   </g>
   <g id="matplotlib.axis_1">
    <g id="xtick_1">
     <g id="line2d_1">
      <defs>
       <path d="M 0 0 
L 0 3.5 
" id="m2b008e6b0b" style="stroke:#000000;stroke-width:0.8;"/>
      </defs>
      <g>
       <use style="stroke:#000000;stroke-width:0.8;" x="187.122995" xlink:href="#m2b008e6b0b" y="332.6472"/>
      </g>
     </g>
     <g id="text_1">
      <!-- 0 -->
      <defs>
       <path d="M 31.78125 66.40625 
Q 24.171875 66.40625 20.328125 58.90625 
Q 16.5 51.421875 16.5 36.375 
Q 16.5 21.390625 20.328125 13.890625 
Q 24.171875 6.390625 31.78125 6.390625 
Q 39.453125 6.390625 43.28125 13.890625 
Q 47.125 21.390625 47.125 36.375 
Q 47.125 51.421875 43.28125 58.90625 
Q 39.453125 66.40625 31.78125 66.40625 
z
M 31.78125 74.21875 
Q 44.046875 74.21875 50.515625 64.515625 
Q 56.984375 54.828125 56.984375 36.375 
Q 56.984375 17.96875 50.515625 8.265625 
Q 44.046875 -1.421875 31.78125 -1.421875 
Q 19.53125 -1.421875 13.0625 8.265625 
Q 6.59375 17.96875 6.59375 36.375 
Q 6.59375 54.828125 13.0625 64.515625 
Q 19.53125 74.21875 31.78125 74.21875 
z
" id="DejaVuSans-48"/>
      </defs>
      <g transform="translate(183.941745 347.245637)scale(0.1 -0.1)">
       <use xlink:href="#DejaVuSans-48"/>
      </g>
     </g>
    </g>
    <g id="xtick_2">
     <g id="line2d_2">
      <g>
       <use style="stroke:#000000;stroke-width:0.8;" x="248.595075" xlink:href="#m2b008e6b0b" y="332.6472"/>
      </g>
     </g>
     <g id="text_2">
      <!-- 50 -->
      <defs>
       <path d="M 10.796875 72.90625 
L 49.515625 72.90625 
L 49.515625 64.59375 
L 19.828125 64.59375 
L 19.828125 46.734375 
Q 21.96875 47.46875 24.109375 47.828125 
Q 26.265625 48.1875 28.421875 48.1875 
Q 40.625 48.1875 47.75 41.5 
Q 54.890625 34.8125 54.890625 23.390625 
Q 54.890625 11.625 47.5625 5.09375 
Q 40.234375 -1.421875 26.90625 -1.421875 
Q 22.3125 -1.421875 17.546875 -0.640625 
Q 12.796875 0.140625 7.71875 1.703125 
L 7.71875 11.625 
Q 12.109375 9.234375 16.796875 8.0625 
Q 21.484375 6.890625 26.703125 6.890625 
Q 35.15625 6.890625 40.078125 11.328125 
Q 45.015625 15.765625 45.015625 23.390625 
Q 45.015625 31 40.078125 35.4375 
Q 35.15625 39.890625 26.703125 39.890625 
Q 22.75 39.890625 18.8125 39.015625 
Q 14.890625 38.140625 10.796875 36.28125 
z
" id="DejaVuSans-53"/>
      </defs>
      <g transform="translate(242.232575 347.245637)scale(0.1 -0.1)">
       <use xlink:href="#DejaVuSans-53"/>
       <use x="63.623047" xlink:href="#DejaVuSans-48"/>
      </g>
     </g>
    </g>
    <g id="xtick_3">
     <g id="line2d_3">
      <g>
       <use style="stroke:#000000;stroke-width:0.8;" x="310.067155" xlink:href="#m2b008e6b0b" y="332.6472"/>
      </g>
     </g>
     <g id="text_3">
      <!-- 100 -->
      <defs>
       <path d="M 12.40625 8.296875 
L 28.515625 8.296875 
L 28.515625 63.921875 
L 10.984375 60.40625 
L 10.984375 69.390625 
L 28.421875 72.90625 
L 38.28125 72.90625 
L 38.28125 8.296875 
L 54.390625 8.296875 
L 54.390625 0 
L 12.40625 0 
z
" id="DejaVuSans-49"/>
      </defs>
      <g transform="translate(300.523405 347.245637)scale(0.1 -0.1)">
       <use xlink:href="#DejaVuSans-49"/>
       <use x="63.623047" xlink:href="#DejaVuSans-48"/>
       <use x="127.246094" xlink:href="#DejaVuSans-48"/>
      </g>
     </g>
    </g>
    <g id="xtick_4">
     <g id="line2d_4">
      <g>
       <use style="stroke:#000000;stroke-width:0.8;" x="371.539235" xlink:href="#m2b008e6b0b" y="332.6472"/>
      </g>
     </g>
     <g id="text_4">
      <!-- 150 -->
      <g transform="translate(361.995485 347.245637)scale(0.1 -0.1)">
       <use xlink:href="#DejaVuSans-49"/>
       <use x="63.623047" xlink:href="#DejaVuSans-53"/>
       <use x="127.246094" xlink:href="#DejaVuSans-48"/>
      </g>
     </g>
    </g>
    <g id="xtick_5">
     <g id="line2d_5">
      <g>
       <use style="stroke:#000000;stroke-width:0.8;" x="433.011315" xlink:href="#m2b008e6b0b" y="332.6472"/>
      </g>
     </g>
     <g id="text_5">
      <!-- 200 -->
      <defs>
       <path d="M 19.1875 8.296875 
L 53.609375 8.296875 
L 53.609375 0 
L 7.328125 0 
L 7.328125 8.296875 
Q 12.9375 14.109375 22.625 23.890625 
Q 32.328125 33.6875 34.8125 36.53125 
Q 39.546875 41.84375 41.421875 45.53125 
Q 43.3125 49.21875 43.3125 52.78125 
Q 43.3125 58.59375 39.234375 62.25 
Q 35.15625 65.921875 28.609375 65.921875 
Q 23.96875 65.921875 18.8125 64.3125 
Q 13.671875 62.703125 7.8125 59.421875 
L 7.8125 69.390625 
Q 13.765625 71.78125 18.9375 73 
Q 24.125 74.21875 28.421875 74.21875 
Q 39.75 74.21875 46.484375 68.546875 
Q 53.21875 62.890625 53.21875 53.421875 
Q 53.21875 48.921875 51.53125 44.890625 
Q 49.859375 40.875 45.40625 35.40625 
Q 44.1875 33.984375 37.640625 27.21875 
Q 31.109375 20.453125 19.1875 8.296875 
z
" id="DejaVuSans-50"/>
      </defs>
      <g transform="translate(423.467565 347.245637)scale(0.1 -0.1)">
       <use xlink:href="#DejaVuSans-50"/>
       <use x="63.623047" xlink:href="#DejaVuSans-48"/>
       <use x="127.246094" xlink:href="#DejaVuSans-48"/>
      </g>
     </g>
    </g>
   </g>
   <g id="matplotlib.axis_2">
    <g id="ytick_1">
     <g id="line2d_6">
      <defs>
       <path d="M 0 0 
L -3.5 0 
" id="m650b64c3bd" style="stroke:#000000;stroke-width:0.8;"/>
      </defs>
      <g>
       <use style="stroke:#000000;stroke-width:0.8;" x="172.8" xlink:href="#m650b64c3bd" y="308.202637"/>
      </g>
     </g>
     <g id="text_6">
      <!-- 0.0 -->
      <defs>
       <path d="M 10.6875 12.40625 
L 21 12.40625 
L 21 0 
L 10.6875 0 
z
" id="DejaVuSans-46"/>
      </defs>
      <g transform="translate(149.896875 312.001856)scale(0.1 -0.1)">
       <use xlink:href="#DejaVuSans-48"/>
       <use x="63.623047" xlink:href="#DejaVuSans-46"/>
       <use x="95.410156" xlink:href="#DejaVuSans-48"/>
      </g>
     </g>
    </g>
    <g id="ytick_2">
     <g id="line2d_7">
      <g>
       <use style="stroke:#000000;stroke-width:0.8;" x="172.8" xlink:href="#m650b64c3bd" y="253.359799"/>
      </g>
     </g>
     <g id="text_7">
      <!-- 0.5 -->
      <g transform="translate(149.896875 257.159018)scale(0.1 -0.1)">
       <use xlink:href="#DejaVuSans-48"/>
       <use x="63.623047" xlink:href="#DejaVuSans-46"/>
       <use x="95.410156" xlink:href="#DejaVuSans-53"/>
      </g>
     </g>
    </g>
    <g id="ytick_3">
     <g id="line2d_8">
      <g>
       <use style="stroke:#000000;stroke-width:0.8;" x="172.8" xlink:href="#m650b64c3bd" y="198.516961"/>
      </g>
     </g>
     <g id="text_8">
      <!-- 1.0 -->
      <g transform="translate(149.896875 202.316179)scale(0.1 -0.1)">
       <use xlink:href="#DejaVuSans-49"/>
       <use x="63.623047" xlink:href="#DejaVuSans-46"/>
       <use x="95.410156" xlink:href="#DejaVuSans-48"/>
      </g>
     </g>
    </g>
    <g id="ytick_4">
     <g id="line2d_9">
      <g>
       <use style="stroke:#000000;stroke-width:0.8;" x="172.8" xlink:href="#m650b64c3bd" y="143.674122"/>
      </g>
     </g>
     <g id="text_9">
      <!-- 1.5 -->
      <g transform="translate(149.896875 147.473341)scale(0.1 -0.1)">
       <use xlink:href="#DejaVuSans-49"/>
       <use x="63.623047" xlink:href="#DejaVuSans-46"/>
       <use x="95.410156" xlink:href="#DejaVuSans-53"/>
      </g>
     </g>
    </g>
    <g id="ytick_5">
     <g id="line2d_10">
      <g>
       <use style="stroke:#000000;stroke-width:0.8;" x="172.8" xlink:href="#m650b64c3bd" y="88.831284"/>
      </g>
     </g>
     <g id="text_10">
      <!-- 2.0 -->
      <g transform="translate(149.896875 92.630503)scale(0.1 -0.1)">
       <use xlink:href="#DejaVuSans-50"/>
       <use x="63.623047" xlink:href="#DejaVuSans-46"/>
       <use x="95.410156" xlink:href="#DejaVuSans-48"/>
      </g>
     </g>
    </g>
   </g>
   <g id="line2d_11">
    <path clip-path="url(#p4503c72fa1)" d="M 187.122995 308.202544 
L 189.581878 308.181981 
L 192.040761 307.830905 
L 196.958527 306.668147 
L 200.646852 305.954096 
L 203.105735 305.056269 
L 206.79406 303.396206 
L 211.711827 301.463716 
L 214.17071 300.095025 
L 217.859035 297.938038 
L 222.776801 295.406213 
L 226.465126 292.874704 
L 228.924009 291.302025 
L 232.612334 289.142513 
L 235.071217 287.378308 
L 237.5301 285.523988 
L 239.988983 283.954516 
L 243.677308 281.797108 
L 248.595075 278.521543 
L 251.053958 277.315132 
L 253.512841 276.18452 
L 259.660049 272.925785 
L 264.577816 271.036592 
L 268.26614 269.250871 
L 270.725024 268.392104 
L 274.413348 267.328225 
L 279.331115 265.559484 
L 281.789998 265.081884 
L 284.248881 264.606962 
L 290.396089 262.917867 
L 294.084414 262.284615 
L 296.543297 261.540911 
L 299.00218 260.788634 
L 301.461064 260.319805 
L 303.919947 259.879921 
L 310.067155 258.312991 
L 314.984921 257.612675 
L 319.902688 256.504911 
L 323.591012 255.996844 
L 326.049896 255.366598 
L 329.73822 254.288058 
L 334.655987 253.076527 
L 345.720961 249.074078 
L 353.097611 245.436321 
L 355.556494 243.914455 
L 358.015377 242.035158 
L 364.162585 236.896393 
L 366.621468 234.517902 
L 370.309793 230.515579 
L 375.22756 224.963625 
L 377.686443 221.890854 
L 381.374768 216.798854 
L 386.292534 209.604077 
L 388.751417 205.688389 
L 392.439742 199.203694 
L 396.128067 192.26439 
L 399.816392 184.931735 
L 403.504716 176.994087 
L 409.651924 162.895345 
L 417.028574 145.310929 
L 421.94634 133.648703 
L 425.634665 125.369619 
L 429.32299 117.662364 
L 431.781873 112.907154 
L 434.240756 108.553745 
L 436.69964 104.73958 
L 439.158523 101.51793 
L 440.387964 100.170282 
L 441.617406 99.004938 
L 442.846848 98.015176 
L 444.076289 97.225793 
L 445.305731 96.658574 
L 446.535172 96.309935 
L 447.764614 96.191018 
L 448.994056 96.334483 
L 450.223497 96.750203 
L 451.452939 97.432779 
L 452.68238 98.883885 
L 453.911822 96.923373 
L 455.141264 96.694253 
L 456.370705 99.247769 
L 457.600147 100.849197 
L 458.829588 101.370333 
L 460.05903 104.156245 
L 461.288472 108.15645 
L 462.517913 110.39515 
L 463.747355 111.952 
L 464.976796 115.147549 
L 466.206238 117.625106 
L 468.665121 117.082884 
L 469.894563 118.017358 
L 471.124004 117.323318 
L 472.353446 115.891275 
L 473.582888 116.488285 
L 473.582888 116.488285 
" style="fill:none;stroke:#ff796c;stroke-linecap:square;stroke-width:1.5;"/>
   </g>
   <g id="line2d_12">
    <path clip-path="url(#p4503c72fa1)" d="M 187.122995 308.878285 
L 193.270203 308.968058 
L 200.646852 309.449968 
L 204.335177 309.825791 
L 212.941268 311.051597 
L 220.317918 312.407965 
L 226.465126 313.620787 
L 247.365633 318.133165 
L 252.2834 319.013828 
L 260.889491 320.223222 
L 269.495582 321.026245 
L 274.413348 321.259001 
L 280.560556 321.387382 
L 286.707764 321.18773 
L 292.854972 320.855168 
L 305.149388 319.763048 
L 311.296596 318.974583 
L 318.673246 317.636447 
L 323.591012 316.55801 
L 332.197104 314.441384 
L 339.573753 312.288522 
L 344.49152 310.601788 
L 351.868169 307.781795 
L 362.933144 303.086589 
L 371.539235 299.118189 
L 376.457001 296.595174 
L 382.604209 293.180013 
L 387.521976 290.211695 
L 394.898625 285.479184 
L 401.045833 281.267405 
L 407.193041 276.778398 
L 412.110808 272.891857 
L 417.028574 268.655465 
L 420.716899 265.212413 
L 424.405224 261.48092 
L 428.093548 257.410445 
L 431.781873 252.966177 
L 435.470198 248.099662 
L 439.158523 242.738876 
L 442.846848 236.811864 
L 446.535172 230.257066 
L 448.994056 225.508099 
L 451.452939 220.429781 
L 453.911822 214.927133 
L 455.141264 212.264422 
L 460.05903 200.508336 
L 466.206238 184.628385 
L 469.894563 175.890123 
L 472.353446 170.585822 
L 473.582888 167.989506 
L 473.582888 167.989506 
" style="fill:none;stroke:#ffff14;stroke-linecap:square;stroke-width:1.5;"/>
   </g>
   <g id="line2d_13">
    <path clip-path="url(#p4503c72fa1)" d="M 187.122995 308.878841 
L 241.218425 308.772074 
L 258.430608 308.525833 
L 270.725024 308.154006 
L 280.560556 307.664323 
L 289.166648 307.039634 
L 297.772739 306.176747 
L 305.149388 305.202005 
L 311.296596 304.191962 
L 317.443804 302.974177 
L 323.591012 301.520699 
L 329.73822 299.802039 
L 334.655987 298.215516 
L 339.573753 296.423368 
L 344.49152 294.409133 
L 349.409286 292.156264 
L 354.327052 289.6483 
L 359.244819 286.86903 
L 364.162585 283.802681 
L 369.080352 280.434137 
L 373.998118 276.749172 
L 378.915884 272.734645 
L 383.833651 268.378632 
L 388.751417 263.670599 
L 393.669184 258.60152 
L 398.58695 253.164084 
L 403.504716 247.352834 
L 408.422483 241.164314 
L 413.340249 234.597216 
L 418.258016 227.652467 
L 423.175782 220.333404 
L 428.093548 212.645923 
L 433.011315 204.598588 
L 439.158523 194.050964 
L 445.305731 182.987562 
L 451.452939 171.443952 
L 457.600147 159.461624 
L 464.976796 144.562883 
L 472.353446 129.162648 
L 473.582888 126.551925 
L 473.582888 126.551925 
" style="fill:none;stroke:#014d4e;stroke-linecap:square;stroke-width:1.5;"/>
   </g>
   <g id="patch_3">
    <path d="M 172.8 332.6472 
L 172.8 84.9312 
" style="fill:none;stroke:#000000;stroke-linecap:square;stroke-linejoin:miter;stroke-width:0.8;"/>
   </g>
   <g id="patch_4">
    <path d="M 487.905882 332.6472 
L 487.905882 84.9312 
" style="fill:none;stroke:#000000;stroke-linecap:square;stroke-linejoin:miter;stroke-width:0.8;"/>
   </g>
   <g id="patch_5">
    <path d="M 172.8 332.6472 
L 487.905882 332.6472 
" style="fill:none;stroke:#000000;stroke-linecap:square;stroke-linejoin:miter;stroke-width:0.8;"/>
   </g>
   <g id="patch_6">
    <path d="M 172.8 84.9312 
L 487.905882 84.9312 
" style="fill:none;stroke:#000000;stroke-linecap:square;stroke-linejoin:miter;stroke-width:0.8;"/>
   </g>
   <g id="text_11">
    <!-- Lateral joint 0 -->
    <defs>
     <path d="M 9.8125 72.90625 
L 19.671875 72.90625 
L 19.671875 8.296875 
L 55.171875 8.296875 
L 55.171875 0 
L 9.8125 0 
z
" id="DejaVuSans-76"/>
     <path d="M 34.28125 27.484375 
Q 23.390625 27.484375 19.1875 25 
Q 14.984375 22.515625 14.984375 16.5 
Q 14.984375 11.71875 18.140625 8.90625 
Q 21.296875 6.109375 26.703125 6.109375 
Q 34.1875 6.109375 38.703125 11.40625 
Q 43.21875 16.703125 43.21875 25.484375 
L 43.21875 27.484375 
z
M 52.203125 31.203125 
L 52.203125 0 
L 43.21875 0 
L 43.21875 8.296875 
Q 40.140625 3.328125 35.546875 0.953125 
Q 30.953125 -1.421875 24.3125 -1.421875 
Q 15.921875 -1.421875 10.953125 3.296875 
Q 6 8.015625 6 15.921875 
Q 6 25.140625 12.171875 29.828125 
Q 18.359375 34.515625 30.609375 34.515625 
L 43.21875 34.515625 
L 43.21875 35.40625 
Q 43.21875 41.609375 39.140625 45 
Q 35.0625 48.390625 27.6875 48.390625 
Q 23 48.390625 18.546875 47.265625 
Q 14.109375 46.140625 10.015625 43.890625 
L 10.015625 52.203125 
Q 14.9375 54.109375 19.578125 55.046875 
Q 24.21875 56 28.609375 56 
Q 40.484375 56 46.34375 49.84375 
Q 52.203125 43.703125 52.203125 31.203125 
z
" id="DejaVuSans-97"/>
     <path d="M 18.3125 70.21875 
L 18.3125 54.6875 
L 36.8125 54.6875 
L 36.8125 47.703125 
L 18.3125 47.703125 
L 18.3125 18.015625 
Q 18.3125 11.328125 20.140625 9.421875 
Q 21.96875 7.515625 27.59375 7.515625 
L 36.8125 7.515625 
L 36.8125 0 
L 27.59375 0 
Q 17.1875 0 13.234375 3.875 
Q 9.28125 7.765625 9.28125 18.015625 
L 9.28125 47.703125 
L 2.6875 47.703125 
L 2.6875 54.6875 
L 9.28125 54.6875 
L 9.28125 70.21875 
z
" id="DejaVuSans-116"/>
     <path d="M 56.203125 29.59375 
L 56.203125 25.203125 
L 14.890625 25.203125 
Q 15.484375 15.921875 20.484375 11.0625 
Q 25.484375 6.203125 34.421875 6.203125 
Q 39.59375 6.203125 44.453125 7.46875 
Q 49.3125 8.734375 54.109375 11.28125 
L 54.109375 2.78125 
Q 49.265625 0.734375 44.1875 -0.34375 
Q 39.109375 -1.421875 33.890625 -1.421875 
Q 20.796875 -1.421875 13.15625 6.1875 
Q 5.515625 13.8125 5.515625 26.8125 
Q 5.515625 40.234375 12.765625 48.109375 
Q 20.015625 56 32.328125 56 
Q 43.359375 56 49.78125 48.890625 
Q 56.203125 41.796875 56.203125 29.59375 
z
M 47.21875 32.234375 
Q 47.125 39.59375 43.09375 43.984375 
Q 39.0625 48.390625 32.421875 48.390625 
Q 24.90625 48.390625 20.390625 44.140625 
Q 15.875 39.890625 15.1875 32.171875 
z
" id="DejaVuSans-101"/>
     <path d="M 41.109375 46.296875 
Q 39.59375 47.171875 37.8125 47.578125 
Q 36.03125 48 33.890625 48 
Q 26.265625 48 22.1875 43.046875 
Q 18.109375 38.09375 18.109375 28.8125 
L 18.109375 0 
L 9.078125 0 
L 9.078125 54.6875 
L 18.109375 54.6875 
L 18.109375 46.1875 
Q 20.953125 51.171875 25.484375 53.578125 
Q 30.03125 56 36.53125 56 
Q 37.453125 56 38.578125 55.875 
Q 39.703125 55.765625 41.0625 55.515625 
z
" id="DejaVuSans-114"/>
     <path d="M 9.421875 75.984375 
L 18.40625 75.984375 
L 18.40625 0 
L 9.421875 0 
z
" id="DejaVuSans-108"/>
     <path id="DejaVuSans-32"/>
     <path d="M 9.421875 54.6875 
L 18.40625 54.6875 
L 18.40625 -0.984375 
Q 18.40625 -11.421875 14.421875 -16.109375 
Q 10.453125 -20.796875 1.609375 -20.796875 
L -1.8125 -20.796875 
L -1.8125 -13.1875 
L 0.59375 -13.1875 
Q 5.71875 -13.1875 7.5625 -10.8125 
Q 9.421875 -8.453125 9.421875 -0.984375 
z
M 9.421875 75.984375 
L 18.40625 75.984375 
L 18.40625 64.59375 
L 9.421875 64.59375 
z
" id="DejaVuSans-106"/>
     <path d="M 30.609375 48.390625 
Q 23.390625 48.390625 19.1875 42.75 
Q 14.984375 37.109375 14.984375 27.296875 
Q 14.984375 17.484375 19.15625 11.84375 
Q 23.34375 6.203125 30.609375 6.203125 
Q 37.796875 6.203125 41.984375 11.859375 
Q 46.1875 17.53125 46.1875 27.296875 
Q 46.1875 37.015625 41.984375 42.703125 
Q 37.796875 48.390625 30.609375 48.390625 
z
M 30.609375 56 
Q 42.328125 56 49.015625 48.375 
Q 55.71875 40.765625 55.71875 27.296875 
Q 55.71875 13.875 49.015625 6.21875 
Q 42.328125 -1.421875 30.609375 -1.421875 
Q 18.84375 -1.421875 12.171875 6.21875 
Q 5.515625 13.875 5.515625 27.296875 
Q 5.515625 40.765625 12.171875 48.375 
Q 18.84375 56 30.609375 56 
z
" id="DejaVuSans-111"/>
     <path d="M 9.421875 54.6875 
L 18.40625 54.6875 
L 18.40625 0 
L 9.421875 0 
z
M 9.421875 75.984375 
L 18.40625 75.984375 
L 18.40625 64.59375 
L 9.421875 64.59375 
z
" id="DejaVuSans-105"/>
     <path d="M 54.890625 33.015625 
L 54.890625 0 
L 45.90625 0 
L 45.90625 32.71875 
Q 45.90625 40.484375 42.875 44.328125 
Q 39.84375 48.1875 33.796875 48.1875 
Q 26.515625 48.1875 22.3125 43.546875 
Q 18.109375 38.921875 18.109375 30.90625 
L 18.109375 0 
L 9.078125 0 
L 9.078125 54.6875 
L 18.109375 54.6875 
L 18.109375 46.1875 
Q 21.34375 51.125 25.703125 53.5625 
Q 30.078125 56 35.796875 56 
Q 45.21875 56 50.046875 50.171875 
Q 54.890625 44.34375 54.890625 33.015625 
z
" id="DejaVuSans-110"/>
    </defs>
    <g transform="translate(288.687629 78.9312)scale(0.12 -0.12)">
     <use xlink:href="#DejaVuSans-76"/>
     <use x="55.712891" xlink:href="#DejaVuSans-97"/>
     <use x="116.992188" xlink:href="#DejaVuSans-116"/>
     <use x="156.201172" xlink:href="#DejaVuSans-101"/>
     <use x="217.724609" xlink:href="#DejaVuSans-114"/>
     <use x="258.837891" xlink:href="#DejaVuSans-97"/>
     <use x="320.117188" xlink:href="#DejaVuSans-108"/>
     <use x="347.900391" xlink:href="#DejaVuSans-32"/>
     <use x="379.6875" xlink:href="#DejaVuSans-106"/>
     <use x="407.470703" xlink:href="#DejaVuSans-111"/>
     <use x="468.652344" xlink:href="#DejaVuSans-105"/>
     <use x="496.435547" xlink:href="#DejaVuSans-110"/>
     <use x="559.814453" xlink:href="#DejaVuSans-116"/>
     <use x="599.023438" xlink:href="#DejaVuSans-32"/>
     <use x="630.810547" xlink:href="#DejaVuSans-48"/>
    </g>
   </g>
  </g>
  <g id="axes_2">
   <g id="patch_7">
    <path d="M 550.927059 332.6472 
L 866.032941 332.6472 
L 866.032941 84.9312 
L 550.927059 84.9312 
z
" style="fill:#ffffff;"/>
   </g>
   <g id="matplotlib.axis_3">
    <g id="xtick_6">
     <g id="line2d_14">
      <g>
       <use style="stroke:#000000;stroke-width:0.8;" x="565.250053" xlink:href="#m2b008e6b0b" y="332.6472"/>
      </g>
     </g>
     <g id="text_12">
      <!-- 0 -->
      <g transform="translate(562.068803 347.245637)scale(0.1 -0.1)">
       <use xlink:href="#DejaVuSans-48"/>
      </g>
     </g>
    </g>
    <g id="xtick_7">
     <g id="line2d_15">
      <g>
       <use style="stroke:#000000;stroke-width:0.8;" x="626.722134" xlink:href="#m2b008e6b0b" y="332.6472"/>
      </g>
     </g>
     <g id="text_13">
      <!-- 50 -->
      <g transform="translate(620.359634 347.245637)scale(0.1 -0.1)">
       <use xlink:href="#DejaVuSans-53"/>
       <use x="63.623047" xlink:href="#DejaVuSans-48"/>
      </g>
     </g>
    </g>
    <g id="xtick_8">
     <g id="line2d_16">
      <g>
       <use style="stroke:#000000;stroke-width:0.8;" x="688.194214" xlink:href="#m2b008e6b0b" y="332.6472"/>
      </g>
     </g>
     <g id="text_14">
      <!-- 100 -->
      <g transform="translate(678.650464 347.245637)scale(0.1 -0.1)">
       <use xlink:href="#DejaVuSans-49"/>
       <use x="63.623047" xlink:href="#DejaVuSans-48"/>
       <use x="127.246094" xlink:href="#DejaVuSans-48"/>
      </g>
     </g>
    </g>
    <g id="xtick_9">
     <g id="line2d_17">
      <g>
       <use style="stroke:#000000;stroke-width:0.8;" x="749.666294" xlink:href="#m2b008e6b0b" y="332.6472"/>
      </g>
     </g>
     <g id="text_15">
      <!-- 150 -->
      <g transform="translate(740.122544 347.245637)scale(0.1 -0.1)">
       <use xlink:href="#DejaVuSans-49"/>
       <use x="63.623047" xlink:href="#DejaVuSans-53"/>
       <use x="127.246094" xlink:href="#DejaVuSans-48"/>
      </g>
     </g>
    </g>
    <g id="xtick_10">
     <g id="line2d_18">
      <g>
       <use style="stroke:#000000;stroke-width:0.8;" x="811.138374" xlink:href="#m2b008e6b0b" y="332.6472"/>
      </g>
     </g>
     <g id="text_16">
      <!-- 200 -->
      <g transform="translate(801.594624 347.245637)scale(0.1 -0.1)">
       <use xlink:href="#DejaVuSans-50"/>
       <use x="63.623047" xlink:href="#DejaVuSans-48"/>
       <use x="127.246094" xlink:href="#DejaVuSans-48"/>
      </g>
     </g>
    </g>
   </g>
   <g id="matplotlib.axis_4">
    <g id="ytick_6">
     <g id="line2d_19">
      <g>
       <use style="stroke:#000000;stroke-width:0.8;" x="550.927059" xlink:href="#m650b64c3bd" y="321.391913"/>
      </g>
     </g>
     <g id="text_17">
      <!-- −0.6 -->
      <defs>
       <path d="M 10.59375 35.5 
L 73.1875 35.5 
L 73.1875 27.203125 
L 10.59375 27.203125 
z
" id="DejaVuSans-8722"/>
       <path d="M 33.015625 40.375 
Q 26.375 40.375 22.484375 35.828125 
Q 18.609375 31.296875 18.609375 23.390625 
Q 18.609375 15.53125 22.484375 10.953125 
Q 26.375 6.390625 33.015625 6.390625 
Q 39.65625 6.390625 43.53125 10.953125 
Q 47.40625 15.53125 47.40625 23.390625 
Q 47.40625 31.296875 43.53125 35.828125 
Q 39.65625 40.375 33.015625 40.375 
z
M 52.59375 71.296875 
L 52.59375 62.3125 
Q 48.875 64.0625 45.09375 64.984375 
Q 41.3125 65.921875 37.59375 65.921875 
Q 27.828125 65.921875 22.671875 59.328125 
Q 17.53125 52.734375 16.796875 39.40625 
Q 19.671875 43.65625 24.015625 45.921875 
Q 28.375 48.1875 33.59375 48.1875 
Q 44.578125 48.1875 50.953125 41.515625 
Q 57.328125 34.859375 57.328125 23.390625 
Q 57.328125 12.15625 50.6875 5.359375 
Q 44.046875 -1.421875 33.015625 -1.421875 
Q 20.359375 -1.421875 13.671875 8.265625 
Q 6.984375 17.96875 6.984375 36.375 
Q 6.984375 53.65625 15.1875 63.9375 
Q 23.390625 74.21875 37.203125 74.21875 
Q 40.921875 74.21875 44.703125 73.484375 
Q 48.484375 72.75 52.59375 71.296875 
z
" id="DejaVuSans-54"/>
      </defs>
      <g transform="translate(519.644246 325.191132)scale(0.1 -0.1)">
       <use xlink:href="#DejaVuSans-8722"/>
       <use x="83.789062" xlink:href="#DejaVuSans-48"/>
       <use x="147.412109" xlink:href="#DejaVuSans-46"/>
       <use x="179.199219" xlink:href="#DejaVuSans-54"/>
      </g>
     </g>
    </g>
    <g id="ytick_7">
     <g id="line2d_20">
      <g>
       <use style="stroke:#000000;stroke-width:0.8;" x="550.927059" xlink:href="#m650b64c3bd" y="280.654041"/>
      </g>
     </g>
     <g id="text_18">
      <!-- −0.4 -->
      <defs>
       <path d="M 37.796875 64.3125 
L 12.890625 25.390625 
L 37.796875 25.390625 
z
M 35.203125 72.90625 
L 47.609375 72.90625 
L 47.609375 25.390625 
L 58.015625 25.390625 
L 58.015625 17.1875 
L 47.609375 17.1875 
L 47.609375 0 
L 37.796875 0 
L 37.796875 17.1875 
L 4.890625 17.1875 
L 4.890625 26.703125 
z
" id="DejaVuSans-52"/>
      </defs>
      <g transform="translate(519.644246 284.45326)scale(0.1 -0.1)">
       <use xlink:href="#DejaVuSans-8722"/>
       <use x="83.789062" xlink:href="#DejaVuSans-48"/>
       <use x="147.412109" xlink:href="#DejaVuSans-46"/>
       <use x="179.199219" xlink:href="#DejaVuSans-52"/>
      </g>
     </g>
    </g>
    <g id="ytick_8">
     <g id="line2d_21">
      <g>
       <use style="stroke:#000000;stroke-width:0.8;" x="550.927059" xlink:href="#m650b64c3bd" y="239.916169"/>
      </g>
     </g>
     <g id="text_19">
      <!-- −0.2 -->
      <g transform="translate(519.644246 243.715387)scale(0.1 -0.1)">
       <use xlink:href="#DejaVuSans-8722"/>
       <use x="83.789062" xlink:href="#DejaVuSans-48"/>
       <use x="147.412109" xlink:href="#DejaVuSans-46"/>
       <use x="179.199219" xlink:href="#DejaVuSans-50"/>
      </g>
     </g>
    </g>
    <g id="ytick_9">
     <g id="line2d_22">
      <g>
       <use style="stroke:#000000;stroke-width:0.8;" x="550.927059" xlink:href="#m650b64c3bd" y="199.178296"/>
      </g>
     </g>
     <g id="text_20">
      <!-- 0.0 -->
      <g transform="translate(528.023934 202.977515)scale(0.1 -0.1)">
       <use xlink:href="#DejaVuSans-48"/>
       <use x="63.623047" xlink:href="#DejaVuSans-46"/>
       <use x="95.410156" xlink:href="#DejaVuSans-48"/>
      </g>
     </g>
    </g>
    <g id="ytick_10">
     <g id="line2d_23">
      <g>
       <use style="stroke:#000000;stroke-width:0.8;" x="550.927059" xlink:href="#m650b64c3bd" y="158.440424"/>
      </g>
     </g>
     <g id="text_21">
      <!-- 0.2 -->
      <g transform="translate(528.023934 162.239642)scale(0.1 -0.1)">
       <use xlink:href="#DejaVuSans-48"/>
       <use x="63.623047" xlink:href="#DejaVuSans-46"/>
       <use x="95.410156" xlink:href="#DejaVuSans-50"/>
      </g>
     </g>
    </g>
    <g id="ytick_11">
     <g id="line2d_24">
      <g>
       <use style="stroke:#000000;stroke-width:0.8;" x="550.927059" xlink:href="#m650b64c3bd" y="117.702551"/>
      </g>
     </g>
     <g id="text_22">
      <!-- 0.4 -->
      <g transform="translate(528.023934 121.50177)scale(0.1 -0.1)">
       <use xlink:href="#DejaVuSans-48"/>
       <use x="63.623047" xlink:href="#DejaVuSans-46"/>
       <use x="95.410156" xlink:href="#DejaVuSans-52"/>
      </g>
     </g>
    </g>
   </g>
   <g id="line2d_25">
    <path clip-path="url(#p5ac66e04b1)" d="M 565.250053 199.1781 
L 567.708937 199.158182 
L 571.397261 198.774291 
L 573.856145 198.637155 
L 581.232794 198.911546 
L 583.691677 198.923609 
L 586.150561 199.247478 
L 589.838885 199.859701 
L 594.756652 200.287201 
L 598.444977 201.118469 
L 600.90386 201.556138 
L 604.592185 201.951302 
L 607.051068 202.503122 
L 610.739393 203.477163 
L 615.657159 204.429905 
L 618.116042 205.280004 
L 620.574926 206.181328 
L 627.951575 208.467884 
L 630.410458 209.495913 
L 632.869342 210.278497 
L 635.328225 210.978263 
L 637.787108 211.922185 
L 641.475433 213.516703 
L 646.393199 215.228769 
L 653.769849 218.569856 
L 656.228732 219.511818 
L 663.605382 222.862594 
L 666.064265 223.78235 
L 668.523148 224.960664 
L 672.211473 226.823892 
L 675.899798 228.500075 
L 678.358681 229.954724 
L 682.047006 232.329792 
L 685.73533 234.533124 
L 688.194214 236.299997 
L 691.882538 239.08675 
L 696.800305 242.635746 
L 704.176954 248.993211 
L 706.635838 251.237584 
L 710.324162 255.102192 
L 718.930254 264.304034 
L 722.618578 268.493125 
L 728.765786 275.182301 
L 732.454111 279.265368 
L 738.601319 285.739008 
L 745.977969 293.921265 
L 754.58406 303.09837 
L 758.272385 306.401235 
L 761.96071 309.519424 
L 764.419593 311.448261 
L 766.878476 313.146868 
L 770.566801 315.340689 
L 775.484567 317.980096 
L 777.94345 319.082895 
L 780.402334 319.957429 
L 782.861217 320.603909 
L 785.3201 321.081771 
L 787.778983 321.35016 
L 790.237866 321.349039 
L 792.69675 321.004191 
L 795.155633 320.319869 
L 797.614516 319.307316 
L 800.073399 318.014596 
L 802.532282 316.407644 
L 804.991166 314.496922 
L 807.450049 312.217132 
L 809.908932 309.606141 
L 812.367815 306.66933 
L 814.826698 303.451551 
L 817.285582 299.910772 
L 819.744465 296.039004 
L 822.203348 291.780861 
L 824.662231 287.144768 
L 828.350556 279.527741 
L 829.579998 276.819141 
L 830.809439 273.003855 
L 832.038881 267.348179 
L 833.268323 263.598873 
L 834.497764 260.277757 
L 835.727206 255.722429 
L 836.956647 251.800757 
L 838.186089 249.450928 
L 839.415531 246.545799 
L 840.644972 242.934129 
L 841.874414 240.220948 
L 843.103855 238.080127 
L 844.333297 234.670886 
L 845.562739 230.52587 
L 848.021622 224.049147 
L 849.251063 219.936107 
L 850.480505 217.017578 
L 851.709947 215.692294 
L 851.709947 215.692294 
" style="fill:none;stroke:#ff796c;stroke-linecap:square;stroke-width:1.5;"/>
   </g>
   <g id="line2d_26">
    <path clip-path="url(#p5ac66e04b1)" d="M 565.250053 306.110851 
L 572.626703 306.019273 
L 581.232794 305.612154 
L 591.068327 304.758118 
L 614.427718 302.336017 
L 631.6399 300.316934 
L 639.01655 299.422617 
L 646.393199 298.392398 
L 661.146498 295.875523 
L 666.064265 294.909276 
L 673.440914 293.173671 
L 678.358681 291.694132 
L 683.276447 290.036571 
L 688.194214 288.107555 
L 693.11198 286.017583 
L 696.800305 284.240053 
L 701.718071 281.611215 
L 705.406396 279.371738 
L 709.094721 276.882388 
L 714.012487 273.26607 
L 718.930254 269.251447 
L 723.84802 264.992059 
L 728.765786 260.383059 
L 733.683553 255.476331 
L 737.371878 251.51077 
L 742.289644 245.884505 
L 747.20741 239.902882 
L 754.58406 230.41605 
L 760.731268 222.174085 
L 768.107918 211.919522 
L 774.255126 202.975073 
L 782.861217 190.02603 
L 791.467308 177.106777 
L 796.385074 170.06669 
L 801.302841 163.430002 
L 804.991166 158.771959 
L 808.67949 154.424031 
L 812.367815 150.418568 
L 816.05614 146.800478 
L 818.515023 144.628447 
L 820.973906 142.677074 
L 823.43279 140.955471 
L 825.891673 139.478044 
L 828.350556 138.252858 
L 829.579998 137.734127 
L 830.809439 137.818105 
L 833.268323 136.371091 
L 835.727206 136.843167 
L 836.956647 136.251054 
L 838.186089 135.96116 
L 839.415531 136.32451 
L 840.644972 136.073136 
L 841.874414 135.105043 
L 843.103855 134.607097 
L 844.333297 134.256121 
L 845.562739 132.973498 
L 846.79218 131.438031 
L 848.021622 130.49391 
L 849.251063 129.21792 
L 850.480505 127.185839 
L 851.709947 125.459875 
L 851.709947 125.459875 
" style="fill:none;stroke:#ffff14;stroke-linecap:square;stroke-width:1.5;"/>
   </g>
   <g id="line2d_27">
    <path clip-path="url(#p5ac66e04b1)" d="M 565.250053 306.109959 
L 620.574926 306.004559 
L 636.557666 305.750031 
L 647.622641 305.380861 
L 657.458174 304.838173 
L 666.064265 304.131129 
L 673.440914 303.301185 
L 679.588122 302.41652 
L 685.73533 301.325046 
L 691.882538 299.995122 
L 696.800305 298.736892 
L 701.718071 297.286549 
L 706.635838 295.625574 
L 711.553604 293.735213 
L 716.47137 291.596474 
L 721.389137 289.190499 
L 726.306903 286.498605 
L 731.22467 283.502816 
L 736.142436 280.185998 
L 741.060202 276.532353 
L 745.977969 272.527458 
L 750.895735 268.158591 
L 755.813502 263.41476 
L 760.731268 258.286824 
L 765.649034 252.767641 
L 770.566801 246.852077 
L 775.484567 240.537238 
L 780.402334 233.822353 
L 785.3201 226.708736 
L 790.237866 219.199676 
L 795.155633 211.300233 
L 800.073399 203.017259 
L 804.991166 194.359427 
L 811.138374 183.026243 
L 817.285582 171.148937 
L 823.43279 158.757413 
L 829.579998 145.886572 
L 836.956647 129.863523 
L 844.333297 113.274137 
L 851.709947 96.191018 
L 851.709947 96.191018 
" style="fill:none;stroke:#014d4e;stroke-linecap:square;stroke-width:1.5;"/>
   </g>
   <g id="patch_8">
    <path d="M 550.927059 332.6472 
L 550.927059 84.9312 
" style="fill:none;stroke:#000000;stroke-linecap:square;stroke-linejoin:miter;stroke-width:0.8;"/>
   </g>
   <g id="patch_9">
    <path d="M 866.032941 332.6472 
L 866.032941 84.9312 
" style="fill:none;stroke:#000000;stroke-linecap:square;stroke-linejoin:miter;stroke-width:0.8;"/>
   </g>
   <g id="patch_10">
    <path d="M 550.927059 332.6472 
L 866.032941 332.6472 
" style="fill:none;stroke:#000000;stroke-linecap:square;stroke-linejoin:miter;stroke-width:0.8;"/>
   </g>
   <g id="patch_11">
    <path d="M 550.927059 84.9312 
L 866.032941 84.9312 
" style="fill:none;stroke:#000000;stroke-linecap:square;stroke-linejoin:miter;stroke-width:0.8;"/>
   </g>
   <g id="text_23">
    <!-- Lateral joint 1 -->
    <g transform="translate(666.814687 78.9312)scale(0.12 -0.12)">
     <use xlink:href="#DejaVuSans-76"/>
     <use x="55.712891" xlink:href="#DejaVuSans-97"/>
     <use x="116.992188" xlink:href="#DejaVuSans-116"/>
     <use x="156.201172" xlink:href="#DejaVuSans-101"/>
     <use x="217.724609" xlink:href="#DejaVuSans-114"/>
     <use x="258.837891" xlink:href="#DejaVuSans-97"/>
     <use x="320.117188" xlink:href="#DejaVuSans-108"/>
     <use x="347.900391" xlink:href="#DejaVuSans-32"/>
     <use x="379.6875" xlink:href="#DejaVuSans-106"/>
     <use x="407.470703" xlink:href="#DejaVuSans-111"/>
     <use x="468.652344" xlink:href="#DejaVuSans-105"/>
     <use x="496.435547" xlink:href="#DejaVuSans-110"/>
     <use x="559.814453" xlink:href="#DejaVuSans-116"/>
     <use x="599.023438" xlink:href="#DejaVuSans-32"/>
     <use x="630.810547" xlink:href="#DejaVuSans-49"/>
    </g>
   </g>
  </g>
  <g id="axes_3">
   <g id="patch_12">
    <path d="M 929.054118 332.6472 
L 1244.16 332.6472 
L 1244.16 84.9312 
L 929.054118 84.9312 
z
" style="fill:#ffffff;"/>
   </g>
   <g id="matplotlib.axis_5">
    <g id="xtick_11">
     <g id="line2d_28">
      <g>
       <use style="stroke:#000000;stroke-width:0.8;" x="943.377112" xlink:href="#m2b008e6b0b" y="332.6472"/>
      </g>
     </g>
     <g id="text_24">
      <!-- 0 -->
      <g transform="translate(940.195862 347.245637)scale(0.1 -0.1)">
       <use xlink:href="#DejaVuSans-48"/>
      </g>
     </g>
    </g>
    <g id="xtick_12">
     <g id="line2d_29">
      <g>
       <use style="stroke:#000000;stroke-width:0.8;" x="1004.849192" xlink:href="#m2b008e6b0b" y="332.6472"/>
      </g>
     </g>
     <g id="text_25">
      <!-- 50 -->
      <g transform="translate(998.486692 347.245637)scale(0.1 -0.1)">
       <use xlink:href="#DejaVuSans-53"/>
       <use x="63.623047" xlink:href="#DejaVuSans-48"/>
      </g>
     </g>
    </g>
    <g id="xtick_13">
     <g id="line2d_30">
      <g>
       <use style="stroke:#000000;stroke-width:0.8;" x="1066.321272" xlink:href="#m2b008e6b0b" y="332.6472"/>
      </g>
     </g>
     <g id="text_26">
      <!-- 100 -->
      <g transform="translate(1056.777522 347.245637)scale(0.1 -0.1)">
       <use xlink:href="#DejaVuSans-49"/>
       <use x="63.623047" xlink:href="#DejaVuSans-48"/>
       <use x="127.246094" xlink:href="#DejaVuSans-48"/>
      </g>
     </g>
    </g>
    <g id="xtick_14">
     <g id="line2d_31">
      <g>
       <use style="stroke:#000000;stroke-width:0.8;" x="1127.793352" xlink:href="#m2b008e6b0b" y="332.6472"/>
      </g>
     </g>
     <g id="text_27">
      <!-- 150 -->
      <g transform="translate(1118.249602 347.245637)scale(0.1 -0.1)">
       <use xlink:href="#DejaVuSans-49"/>
       <use x="63.623047" xlink:href="#DejaVuSans-53"/>
       <use x="127.246094" xlink:href="#DejaVuSans-48"/>
      </g>
     </g>
    </g>
    <g id="xtick_15">
     <g id="line2d_32">
      <g>
       <use style="stroke:#000000;stroke-width:0.8;" x="1189.265433" xlink:href="#m2b008e6b0b" y="332.6472"/>
      </g>
     </g>
     <g id="text_28">
      <!-- 200 -->
      <g transform="translate(1179.721683 347.245637)scale(0.1 -0.1)">
       <use xlink:href="#DejaVuSans-50"/>
       <use x="63.623047" xlink:href="#DejaVuSans-48"/>
       <use x="127.246094" xlink:href="#DejaVuSans-48"/>
      </g>
     </g>
    </g>
   </g>
   <g id="matplotlib.axis_6">
    <g id="ytick_12">
     <g id="line2d_33">
      <g>
       <use style="stroke:#000000;stroke-width:0.8;" x="929.054118" xlink:href="#m650b64c3bd" y="294.334296"/>
      </g>
     </g>
     <g id="text_29">
      <!-- −5 -->
      <g transform="translate(907.31193 298.133515)scale(0.1 -0.1)">
       <use xlink:href="#DejaVuSans-8722"/>
       <use x="83.789062" xlink:href="#DejaVuSans-53"/>
      </g>
     </g>
    </g>
    <g id="ytick_13">
     <g id="line2d_34">
      <g>
       <use style="stroke:#000000;stroke-width:0.8;" x="929.054118" xlink:href="#m650b64c3bd" y="254.716373"/>
      </g>
     </g>
     <g id="text_30">
      <!-- −4 -->
      <g transform="translate(907.31193 258.515592)scale(0.1 -0.1)">
       <use xlink:href="#DejaVuSans-8722"/>
       <use x="83.789062" xlink:href="#DejaVuSans-52"/>
      </g>
     </g>
    </g>
    <g id="ytick_14">
     <g id="line2d_35">
      <g>
       <use style="stroke:#000000;stroke-width:0.8;" x="929.054118" xlink:href="#m650b64c3bd" y="215.09845"/>
      </g>
     </g>
     <g id="text_31">
      <!-- −3 -->
      <defs>
       <path d="M 40.578125 39.3125 
Q 47.65625 37.796875 51.625 33 
Q 55.609375 28.21875 55.609375 21.1875 
Q 55.609375 10.40625 48.1875 4.484375 
Q 40.765625 -1.421875 27.09375 -1.421875 
Q 22.515625 -1.421875 17.65625 -0.515625 
Q 12.796875 0.390625 7.625 2.203125 
L 7.625 11.71875 
Q 11.71875 9.328125 16.59375 8.109375 
Q 21.484375 6.890625 26.8125 6.890625 
Q 36.078125 6.890625 40.9375 10.546875 
Q 45.796875 14.203125 45.796875 21.1875 
Q 45.796875 27.640625 41.28125 31.265625 
Q 36.765625 34.90625 28.71875 34.90625 
L 20.21875 34.90625 
L 20.21875 43.015625 
L 29.109375 43.015625 
Q 36.375 43.015625 40.234375 45.921875 
Q 44.09375 48.828125 44.09375 54.296875 
Q 44.09375 59.90625 40.109375 62.90625 
Q 36.140625 65.921875 28.71875 65.921875 
Q 24.65625 65.921875 20.015625 65.03125 
Q 15.375 64.15625 9.8125 62.3125 
L 9.8125 71.09375 
Q 15.4375 72.65625 20.34375 73.4375 
Q 25.25 74.21875 29.59375 74.21875 
Q 40.828125 74.21875 47.359375 69.109375 
Q 53.90625 64.015625 53.90625 55.328125 
Q 53.90625 49.265625 50.4375 45.09375 
Q 46.96875 40.921875 40.578125 39.3125 
z
" id="DejaVuSans-51"/>
      </defs>
      <g transform="translate(907.31193 218.897669)scale(0.1 -0.1)">
       <use xlink:href="#DejaVuSans-8722"/>
       <use x="83.789062" xlink:href="#DejaVuSans-51"/>
      </g>
     </g>
    </g>
    <g id="ytick_15">
     <g id="line2d_36">
      <g>
       <use style="stroke:#000000;stroke-width:0.8;" x="929.054118" xlink:href="#m650b64c3bd" y="175.480527"/>
      </g>
     </g>
     <g id="text_32">
      <!-- −2 -->
      <g transform="translate(907.31193 179.279746)scale(0.1 -0.1)">
       <use xlink:href="#DejaVuSans-8722"/>
       <use x="83.789062" xlink:href="#DejaVuSans-50"/>
      </g>
     </g>
    </g>
    <g id="ytick_16">
     <g id="line2d_37">
      <g>
       <use style="stroke:#000000;stroke-width:0.8;" x="929.054118" xlink:href="#m650b64c3bd" y="135.862604"/>
      </g>
     </g>
     <g id="text_33">
      <!-- −1 -->
      <g transform="translate(907.31193 139.661823)scale(0.1 -0.1)">
       <use xlink:href="#DejaVuSans-8722"/>
       <use x="83.789062" xlink:href="#DejaVuSans-49"/>
      </g>
     </g>
    </g>
    <g id="ytick_17">
     <g id="line2d_38">
      <g>
       <use style="stroke:#000000;stroke-width:0.8;" x="929.054118" xlink:href="#m650b64c3bd" y="96.244681"/>
      </g>
     </g>
     <g id="text_34">
      <!-- 0 -->
      <g transform="translate(915.691618 100.0439)scale(0.1 -0.1)">
       <use xlink:href="#DejaVuSans-48"/>
      </g>
     </g>
    </g>
   </g>
   <g id="line2d_39">
    <path clip-path="url(#pb12ff66d49)" d="M 943.377112 96.191018 
L 944.606554 96.375693 
L 945.835996 96.774094 
L 947.065437 97.049162 
L 951.983204 97.025197 
L 954.442087 96.900984 
L 955.671528 97.037789 
L 958.130412 97.780346 
L 959.359853 97.753599 
L 961.818736 97.167626 
L 966.736503 96.984973 
L 967.965944 97.171919 
L 969.195386 97.476689 
L 970.424828 97.559926 
L 972.883711 97.059326 
L 974.113152 97.126563 
L 980.26036 98.96337 
L 981.489802 99.423249 
L 982.719244 99.584527 
L 983.948685 99.557484 
L 985.178127 99.737212 
L 988.866452 101.412323 
L 991.325335 101.923985 
L 992.554776 102.281215 
L 993.784218 102.497935 
L 996.243101 102.522791 
L 997.472543 102.934865 
L 998.701984 103.623253 
L 999.931426 104.123575 
L 1003.619751 104.707822 
L 1004.849192 105.112148 
L 1007.308076 105.628875 
L 1008.537517 106.128066 
L 1010.9964 107.634303 
L 1012.225842 107.925875 
L 1013.455284 107.957283 
L 1014.684725 108.150361 
L 1017.143608 109.103542 
L 1019.602492 109.625489 
L 1022.061375 110.511805 
L 1023.290816 110.628746 
L 1025.7497 110.210225 
L 1026.979141 110.440395 
L 1028.208583 110.896069 
L 1029.438024 111.173414 
L 1031.896908 111.309031 
L 1034.355791 111.829138 
L 1036.814674 111.757768 
L 1038.044116 112.118195 
L 1040.502999 113.519952 
L 1041.73244 113.785953 
L 1042.961882 113.89558 
L 1044.191324 114.226731 
L 1045.420765 114.748818 
L 1046.650207 115.143417 
L 1047.879648 115.371773 
L 1049.10909 115.774251 
L 1051.567973 117.239725 
L 1052.797415 117.525809 
L 1054.026856 117.478669 
L 1055.256298 117.610797 
L 1058.944623 119.126952 
L 1060.174064 119.432748 
L 1061.403506 119.991597 
L 1062.632948 120.700406 
L 1063.862389 121.139668 
L 1065.091831 121.246435 
L 1066.321272 121.500014 
L 1067.550714 122.277233 
L 1068.780156 123.31699 
L 1070.009597 124.103826 
L 1071.239039 124.593273 
L 1072.46848 125.224868 
L 1074.927364 126.848095 
L 1077.386247 127.726211 
L 1078.615688 128.638782 
L 1079.84513 129.792848 
L 1081.074572 130.60136 
L 1083.533455 131.261988 
L 1085.992338 132.615578 
L 1088.451221 133.259768 
L 1089.680663 133.907454 
L 1090.910104 134.83691 
L 1092.139546 135.45687 
L 1094.598429 135.72784 
L 1095.827871 136.359232 
L 1097.057312 137.170894 
L 1098.286754 137.712785 
L 1099.516196 138.121546 
L 1100.745637 138.875878 
L 1101.975079 139.953876 
L 1103.20452 140.761587 
L 1105.663404 141.546028 
L 1106.892845 142.519539 
L 1108.122287 143.68187 
L 1109.351728 144.46044 
L 1110.58117 145.034981 
L 1111.810612 145.971184 
L 1113.040053 147.191266 
L 1114.269495 148.049377 
L 1115.498936 148.442387 
L 1116.728378 149.033987 
L 1119.187261 151.31641 
L 1121.646144 152.544733 
L 1122.875586 153.604532 
L 1124.105028 154.844594 
L 1125.334469 155.605601 
L 1126.563911 156.064057 
L 1127.793352 156.971062 
L 1129.022794 158.353134 
L 1130.252236 159.460597 
L 1131.481677 160.121987 
L 1132.711119 161.038881 
L 1135.170002 163.862897 
L 1137.628885 165.524045 
L 1140.087768 168.594167 
L 1142.546652 170.423575 
L 1143.776093 171.866707 
L 1145.005535 173.522187 
L 1146.234976 174.590829 
L 1147.464418 175.360697 
L 1148.69386 176.688567 
L 1149.923301 178.368755 
L 1151.152743 179.526762 
L 1152.382184 180.249816 
L 1153.611626 181.431769 
L 1154.841068 182.982916 
L 1156.070509 184.060265 
L 1157.299951 184.684216 
L 1158.529392 185.725437 
L 1159.758834 187.220555 
L 1160.988276 188.295987 
L 1162.217717 188.946499 
L 1163.447159 190.015053 
L 1164.6766 191.523017 
L 1165.906042 192.584984 
L 1167.135484 193.160148 
L 1168.364925 194.146112 
L 1169.594367 195.569325 
L 1170.823808 196.543183 
L 1172.05325 197.104485 
L 1173.282692 198.192538 
L 1174.512133 199.740506 
L 1175.741575 200.791657 
L 1176.971017 201.46391 
L 1178.200458 202.688001 
L 1179.4299 204.203837 
L 1180.659341 205.03071 
L 1181.888783 205.49886 
L 1184.347666 207.772051 
L 1185.577108 208.194069 
L 1186.806549 208.454686 
L 1189.265433 210.209676 
L 1191.724316 210.203163 
L 1192.953757 210.841533 
L 1194.183199 210.963607 
L 1195.412641 210.287279 
L 1196.642082 210.037937 
L 1197.871524 210.202225 
L 1199.100965 209.557423 
L 1200.330407 208.512407 
L 1202.78929 207.953253 
L 1204.018732 206.721041 
L 1205.248173 205.651787 
L 1206.477615 205.288458 
L 1207.707057 204.288241 
L 1208.936498 319.530002 
L 1210.16594 233.272461 
L 1211.395381 125.497884 
L 1212.624823 230.935156 
L 1213.854265 316.396508 
L 1215.083706 202.784585 
L 1216.313148 161.676783 
L 1217.542589 293.163161 
L 1218.772031 304.687824 
L 1220.001473 179.261047 
L 1221.230914 209.772705 
L 1222.460356 321.387382 
L 1223.689797 250.583794 
L 1224.919239 159.996708 
L 1226.148681 253.737159 
L 1227.378122 299.919936 
L 1228.607564 185.905103 
L 1229.837005 176.098447 
L 1229.837005 176.098447 
" style="fill:none;stroke:#ff796c;stroke-linecap:square;stroke-width:1.5;"/>
   </g>
   <g id="line2d_40">
    <path clip-path="url(#pb12ff66d49)" d="M 943.377112 130.058718 
L 1042.961882 129.953587 
L 1063.862389 129.730221 
L 1083.533455 129.343028 
L 1098.286754 128.795264 
L 1114.269495 127.990497 
L 1126.563911 127.131676 
L 1140.087768 125.970271 
L 1151.152743 124.823244 
L 1162.217717 123.450064 
L 1175.741575 121.514836 
L 1186.806549 119.762572 
L 1196.642082 117.979719 
L 1207.707057 115.766599 
L 1208.936498 115.440354 
L 1211.395381 115.262171 
L 1213.854265 114.727938 
L 1216.313148 114.551089 
L 1218.772031 114.036428 
L 1220.001473 113.950262 
L 1224.919239 112.901086 
L 1227.378122 112.109897 
L 1228.607564 111.873739 
L 1229.837005 111.520382 
L 1229.837005 111.520382 
" style="fill:none;stroke:#ffff14;stroke-linecap:square;stroke-width:1.5;"/>
   </g>
   <g id="line2d_41">
    <path clip-path="url(#pb12ff66d49)" d="M 943.377112 130.058702 
L 1035.585232 129.95164 
L 1061.403506 129.695332 
L 1079.84513 129.310014 
L 1095.827871 128.763268 
L 1109.351728 128.095368 
L 1122.875586 127.197456 
L 1135.170002 126.152978 
L 1147.464418 124.871842 
L 1158.529392 123.507968 
L 1170.823808 121.757371 
L 1183.118225 119.767013 
L 1195.412641 117.55368 
L 1208.936498 114.892541 
L 1223.689797 111.768038 
L 1229.837005 110.411312 
L 1229.837005 110.411312 
" style="fill:none;stroke:#014d4e;stroke-linecap:square;stroke-width:1.5;"/>
   </g>
   <g id="patch_13">
    <path d="M 929.054118 332.6472 
L 929.054118 84.9312 
" style="fill:none;stroke:#000000;stroke-linecap:square;stroke-linejoin:miter;stroke-width:0.8;"/>
   </g>
   <g id="patch_14">
    <path d="M 1244.16 332.6472 
L 1244.16 84.9312 
" style="fill:none;stroke:#000000;stroke-linecap:square;stroke-linejoin:miter;stroke-width:0.8;"/>
   </g>
   <g id="patch_15">
    <path d="M 929.054118 332.6472 
L 1244.16 332.6472 
" style="fill:none;stroke:#000000;stroke-linecap:square;stroke-linejoin:miter;stroke-width:0.8;"/>
   </g>
   <g id="patch_16">
    <path d="M 929.054118 84.9312 
L 1244.16 84.9312 
" style="fill:none;stroke:#000000;stroke-linecap:square;stroke-linejoin:miter;stroke-width:0.8;"/>
   </g>
   <g id="text_35">
    <!-- Lateral joint 2 -->
    <g transform="translate(1044.941746 78.9312)scale(0.12 -0.12)">
     <use xlink:href="#DejaVuSans-76"/>
     <use x="55.712891" xlink:href="#DejaVuSans-97"/>
     <use x="116.992188" xlink:href="#DejaVuSans-116"/>
     <use x="156.201172" xlink:href="#DejaVuSans-101"/>
     <use x="217.724609" xlink:href="#DejaVuSans-114"/>
     <use x="258.837891" xlink:href="#DejaVuSans-97"/>
     <use x="320.117188" xlink:href="#DejaVuSans-108"/>
     <use x="347.900391" xlink:href="#DejaVuSans-32"/>
     <use x="379.6875" xlink:href="#DejaVuSans-106"/>
     <use x="407.470703" xlink:href="#DejaVuSans-111"/>
     <use x="468.652344" xlink:href="#DejaVuSans-105"/>
     <use x="496.435547" xlink:href="#DejaVuSans-110"/>
     <use x="559.814453" xlink:href="#DejaVuSans-116"/>
     <use x="599.023438" xlink:href="#DejaVuSans-32"/>
     <use x="630.810547" xlink:href="#DejaVuSans-50"/>
    </g>
   </g>
  </g>
  <g id="axes_4">
   <g id="patch_17">
    <path d="M 172.8 629.9064 
L 487.905882 629.9064 
L 487.905882 382.1904 
L 172.8 382.1904 
z
" style="fill:#ffffff;"/>
   </g>
   <g id="matplotlib.axis_7">
    <g id="xtick_16">
     <g id="line2d_42">
      <g>
       <use style="stroke:#000000;stroke-width:0.8;" x="187.122995" xlink:href="#m2b008e6b0b" y="629.9064"/>
      </g>
     </g>
     <g id="text_36">
      <!-- 0 -->
      <g transform="translate(183.941745 644.504838)scale(0.1 -0.1)">
       <use xlink:href="#DejaVuSans-48"/>
      </g>
     </g>
    </g>
    <g id="xtick_17">
     <g id="line2d_43">
      <g>
       <use style="stroke:#000000;stroke-width:0.8;" x="248.595075" xlink:href="#m2b008e6b0b" y="629.9064"/>
      </g>
     </g>
     <g id="text_37">
      <!-- 50 -->
      <g transform="translate(242.232575 644.504838)scale(0.1 -0.1)">
       <use xlink:href="#DejaVuSans-53"/>
       <use x="63.623047" xlink:href="#DejaVuSans-48"/>
      </g>
     </g>
    </g>
    <g id="xtick_18">
     <g id="line2d_44">
      <g>
       <use style="stroke:#000000;stroke-width:0.8;" x="310.067155" xlink:href="#m2b008e6b0b" y="629.9064"/>
      </g>
     </g>
     <g id="text_38">
      <!-- 100 -->
      <g transform="translate(300.523405 644.504838)scale(0.1 -0.1)">
       <use xlink:href="#DejaVuSans-49"/>
       <use x="63.623047" xlink:href="#DejaVuSans-48"/>
       <use x="127.246094" xlink:href="#DejaVuSans-48"/>
      </g>
     </g>
    </g>
    <g id="xtick_19">
     <g id="line2d_45">
      <g>
       <use style="stroke:#000000;stroke-width:0.8;" x="371.539235" xlink:href="#m2b008e6b0b" y="629.9064"/>
      </g>
     </g>
     <g id="text_39">
      <!-- 150 -->
      <g transform="translate(361.995485 644.504838)scale(0.1 -0.1)">
       <use xlink:href="#DejaVuSans-49"/>
       <use x="63.623047" xlink:href="#DejaVuSans-53"/>
       <use x="127.246094" xlink:href="#DejaVuSans-48"/>
      </g>
     </g>
    </g>
    <g id="xtick_20">
     <g id="line2d_46">
      <g>
       <use style="stroke:#000000;stroke-width:0.8;" x="433.011315" xlink:href="#m2b008e6b0b" y="629.9064"/>
      </g>
     </g>
     <g id="text_40">
      <!-- 200 -->
      <g transform="translate(423.467565 644.504838)scale(0.1 -0.1)">
       <use xlink:href="#DejaVuSans-50"/>
       <use x="63.623047" xlink:href="#DejaVuSans-48"/>
       <use x="127.246094" xlink:href="#DejaVuSans-48"/>
      </g>
     </g>
    </g>
   </g>
   <g id="matplotlib.axis_8">
    <g id="ytick_18">
     <g id="line2d_47">
      <g>
       <use style="stroke:#000000;stroke-width:0.8;" x="172.8" xlink:href="#m650b64c3bd" y="612.573281"/>
      </g>
     </g>
     <g id="text_41">
      <!-- −7 -->
      <defs>
       <path d="M 8.203125 72.90625 
L 55.078125 72.90625 
L 55.078125 68.703125 
L 28.609375 0 
L 18.3125 0 
L 43.21875 64.59375 
L 8.203125 64.59375 
z
" id="DejaVuSans-55"/>
      </defs>
      <g transform="translate(151.057812 616.3725)scale(0.1 -0.1)">
       <use xlink:href="#DejaVuSans-8722"/>
       <use x="83.789062" xlink:href="#DejaVuSans-55"/>
      </g>
     </g>
    </g>
    <g id="ytick_19">
     <g id="line2d_48">
      <g>
       <use style="stroke:#000000;stroke-width:0.8;" x="172.8" xlink:href="#m650b64c3bd" y="581.348368"/>
      </g>
     </g>
     <g id="text_42">
      <!-- −6 -->
      <g transform="translate(151.057812 585.147587)scale(0.1 -0.1)">
       <use xlink:href="#DejaVuSans-8722"/>
       <use x="83.789062" xlink:href="#DejaVuSans-54"/>
      </g>
     </g>
    </g>
    <g id="ytick_20">
     <g id="line2d_49">
      <g>
       <use style="stroke:#000000;stroke-width:0.8;" x="172.8" xlink:href="#m650b64c3bd" y="550.123455"/>
      </g>
     </g>
     <g id="text_43">
      <!-- −5 -->
      <g transform="translate(151.057812 553.922674)scale(0.1 -0.1)">
       <use xlink:href="#DejaVuSans-8722"/>
       <use x="83.789062" xlink:href="#DejaVuSans-53"/>
      </g>
     </g>
    </g>
    <g id="ytick_21">
     <g id="line2d_50">
      <g>
       <use style="stroke:#000000;stroke-width:0.8;" x="172.8" xlink:href="#m650b64c3bd" y="518.898542"/>
      </g>
     </g>
     <g id="text_44">
      <!-- −4 -->
      <g transform="translate(151.057812 522.697761)scale(0.1 -0.1)">
       <use xlink:href="#DejaVuSans-8722"/>
       <use x="83.789062" xlink:href="#DejaVuSans-52"/>
      </g>
     </g>
    </g>
    <g id="ytick_22">
     <g id="line2d_51">
      <g>
       <use style="stroke:#000000;stroke-width:0.8;" x="172.8" xlink:href="#m650b64c3bd" y="487.673629"/>
      </g>
     </g>
     <g id="text_45">
      <!-- −3 -->
      <g transform="translate(151.057812 491.472848)scale(0.1 -0.1)">
       <use xlink:href="#DejaVuSans-8722"/>
       <use x="83.789062" xlink:href="#DejaVuSans-51"/>
      </g>
     </g>
    </g>
    <g id="ytick_23">
     <g id="line2d_52">
      <g>
       <use style="stroke:#000000;stroke-width:0.8;" x="172.8" xlink:href="#m650b64c3bd" y="456.448716"/>
      </g>
     </g>
     <g id="text_46">
      <!-- −2 -->
      <g transform="translate(151.057812 460.247935)scale(0.1 -0.1)">
       <use xlink:href="#DejaVuSans-8722"/>
       <use x="83.789062" xlink:href="#DejaVuSans-50"/>
      </g>
     </g>
    </g>
    <g id="ytick_24">
     <g id="line2d_53">
      <g>
       <use style="stroke:#000000;stroke-width:0.8;" x="172.8" xlink:href="#m650b64c3bd" y="425.223803"/>
      </g>
     </g>
     <g id="text_47">
      <!-- −1 -->
      <g transform="translate(151.057812 429.023022)scale(0.1 -0.1)">
       <use xlink:href="#DejaVuSans-8722"/>
       <use x="83.789062" xlink:href="#DejaVuSans-49"/>
      </g>
     </g>
    </g>
    <g id="ytick_25">
     <g id="line2d_54">
      <g>
       <use style="stroke:#000000;stroke-width:0.8;" x="172.8" xlink:href="#m650b64c3bd" y="393.99889"/>
      </g>
     </g>
     <g id="text_48">
      <!-- 0 -->
      <g transform="translate(159.4375 397.798109)scale(0.1 -0.1)">
       <use xlink:href="#DejaVuSans-48"/>
      </g>
     </g>
    </g>
   </g>
   <g id="line2d_55">
    <path clip-path="url(#p6c35b492cb)" d="M 187.122995 393.927465 
L 188.352436 394.200164 
L 190.811319 395.215001 
L 192.040761 395.436033 
L 193.270203 395.398493 
L 196.958527 394.875362 
L 198.187969 394.905101 
L 199.417411 395.210246 
L 200.646852 395.695525 
L 201.876294 396.058778 
L 203.105735 396.033427 
L 204.335177 395.626523 
L 206.79406 394.611029 
L 208.023502 394.306832 
L 209.252943 394.170414 
L 210.482385 394.226743 
L 212.941268 394.617508 
L 214.17071 394.519242 
L 216.629593 393.653139 
L 217.859035 393.450218 
L 219.088476 393.610529 
L 220.317918 394.031241 
L 224.006243 395.706085 
L 225.235684 396.035437 
L 228.924009 396.168382 
L 230.153451 396.684579 
L 232.612334 398.09701 
L 233.841775 398.570057 
L 235.071217 398.848983 
L 236.300659 398.93255 
L 239.988983 398.696377 
L 241.218425 399.108361 
L 243.677308 400.385941 
L 244.90675 400.690014 
L 249.824516 401.119909 
L 251.053958 401.544885 
L 252.2834 402.279431 
L 253.512841 403.199269 
L 254.742283 403.969191 
L 255.971724 404.339349 
L 258.430608 404.434476 
L 259.660049 404.66567 
L 262.118932 405.518196 
L 264.577816 406.46237 
L 265.807257 406.704687 
L 267.036699 406.558613 
L 269.495582 405.730865 
L 270.725024 405.687951 
L 274.413348 406.424833 
L 276.872232 406.481449 
L 280.560556 406.139263 
L 281.789998 406.550041 
L 284.248881 408.074999 
L 285.478323 408.552524 
L 289.166648 409.263242 
L 291.625531 410.060525 
L 292.854972 410.729927 
L 294.084414 411.55256 
L 295.313856 412.233908 
L 296.543297 412.513148 
L 299.00218 412.484721 
L 300.231622 412.771404 
L 303.919947 414.394314 
L 306.37883 415.5374 
L 307.608272 415.835702 
L 308.837713 415.981737 
L 310.067155 416.323463 
L 311.296596 417.108311 
L 313.75548 419.254307 
L 316.214363 420.923208 
L 318.673246 422.365039 
L 319.902688 422.940904 
L 321.132129 423.663772 
L 324.820454 426.815543 
L 326.049896 427.342266 
L 330.967662 428.792738 
L 332.197104 429.193643 
L 335.885428 430.965018 
L 338.344312 431.08889 
L 339.573753 431.378613 
L 342.032636 432.40177 
L 343.262078 433.0088 
L 346.950403 435.409262 
L 349.409286 436.280317 
L 350.638728 437.069169 
L 353.097611 439.026431 
L 355.556494 440.92864 
L 356.785936 441.966336 
L 358.015377 442.727641 
L 360.47426 443.787114 
L 369.080352 449.996189 
L 370.309793 450.541393 
L 371.539235 451.334447 
L 376.457001 455.660024 
L 378.915884 458.406388 
L 381.374768 460.484242 
L 386.292534 465.855258 
L 389.980859 470.524541 
L 391.2103 471.687498 
L 394.898625 475.696814 
L 396.128067 476.700138 
L 397.357508 477.944575 
L 398.58695 479.392388 
L 399.816392 480.622112 
L 401.045833 481.617146 
L 402.275275 482.759053 
L 403.504716 484.054635 
L 404.734158 485.093522 
L 405.9636 485.900601 
L 407.193041 486.904067 
L 409.651924 489.237666 
L 410.881366 490.16767 
L 412.110808 491.358015 
L 413.340249 492.810506 
L 414.569691 494.088996 
L 415.799132 495.192605 
L 417.028574 496.553188 
L 418.258016 498.136938 
L 421.94634 502.201846 
L 423.175782 503.879597 
L 428.093548 509.506679 
L 429.32299 510.588507 
L 430.552432 511.510249 
L 433.011315 513.661138 
L 435.470198 514.630966 
L 436.69964 515.320045 
L 437.929081 515.710006 
L 439.158523 515.671755 
L 440.387964 515.790345 
L 441.617406 516.057076 
L 442.846848 515.885183 
L 444.076289 515.467038 
L 446.535172 515.198687 
L 448.994056 513.90879 
L 450.223497 513.585496 
L 451.452939 512.925312 
L 452.68238 572.995818 
L 453.911822 537.722037 
L 455.141264 491.818941 
L 456.370705 546.467093 
L 457.600147 590.885438 
L 458.829588 540.085968 
L 460.05903 523.718322 
L 461.288472 589.800977 
L 462.517913 599.065189 
L 463.747355 543.308129 
L 464.976796 561.918825 
L 466.206238 618.646582 
L 467.43568 587.0398 
L 468.665121 544.311444 
L 469.894563 587.709275 
L 471.124004 606.336653 
L 472.353446 546.607043 
L 473.582888 535.496066 
L 473.582888 535.496066 
" style="fill:none;stroke:#ff796c;stroke-linecap:square;stroke-width:1.5;"/>
   </g>
   <g id="line2d_56">
    <path clip-path="url(#p6c35b492cb)" d="M 187.122995 420.651016 
L 236.300659 420.543853 
L 310.067155 420.331171 
L 348.179844 419.984785 
L 386.292534 419.14276 
L 446.535172 417.305235 
L 453.911822 417.082154 
L 458.829588 416.270222 
L 461.288472 415.841836 
L 464.976796 415.421131 
L 473.582888 415.608287 
L 473.582888 415.608287 
" style="fill:none;stroke:#ffff14;stroke-linecap:square;stroke-width:1.5;"/>
   </g>
   <g id="line2d_57">
    <path clip-path="url(#p6c35b492cb)" d="M 187.122995 420.650961 
L 329.73822 420.542331 
L 365.392027 420.288953 
L 393.669184 419.874644 
L 419.487457 419.280253 
L 446.535172 418.430959 
L 473.582888 417.39667 
L 473.582888 417.39667 
" style="fill:none;stroke:#014d4e;stroke-linecap:square;stroke-width:1.5;"/>
   </g>
   <g id="patch_18">
    <path d="M 172.8 629.9064 
L 172.8 382.1904 
" style="fill:none;stroke:#000000;stroke-linecap:square;stroke-linejoin:miter;stroke-width:0.8;"/>
   </g>
   <g id="patch_19">
    <path d="M 487.905882 629.9064 
L 487.905882 382.1904 
" style="fill:none;stroke:#000000;stroke-linecap:square;stroke-linejoin:miter;stroke-width:0.8;"/>
   </g>
   <g id="patch_20">
    <path d="M 172.8 629.9064 
L 487.905882 629.9064 
" style="fill:none;stroke:#000000;stroke-linecap:square;stroke-linejoin:miter;stroke-width:0.8;"/>
   </g>
   <g id="patch_21">
    <path d="M 172.8 382.1904 
L 487.905882 382.1904 
" style="fill:none;stroke:#000000;stroke-linecap:square;stroke-linejoin:miter;stroke-width:0.8;"/>
   </g>
   <g id="text_49">
    <!-- Lateral joint 3 -->
    <g transform="translate(288.687629 376.1904)scale(0.12 -0.12)">
     <use xlink:href="#DejaVuSans-76"/>
     <use x="55.712891" xlink:href="#DejaVuSans-97"/>
     <use x="116.992188" xlink:href="#DejaVuSans-116"/>
     <use x="156.201172" xlink:href="#DejaVuSans-101"/>
     <use x="217.724609" xlink:href="#DejaVuSans-114"/>
     <use x="258.837891" xlink:href="#DejaVuSans-97"/>
     <use x="320.117188" xlink:href="#DejaVuSans-108"/>
     <use x="347.900391" xlink:href="#DejaVuSans-32"/>
     <use x="379.6875" xlink:href="#DejaVuSans-106"/>
     <use x="407.470703" xlink:href="#DejaVuSans-111"/>
     <use x="468.652344" xlink:href="#DejaVuSans-105"/>
     <use x="496.435547" xlink:href="#DejaVuSans-110"/>
     <use x="559.814453" xlink:href="#DejaVuSans-116"/>
     <use x="599.023438" xlink:href="#DejaVuSans-32"/>
     <use x="630.810547" xlink:href="#DejaVuSans-51"/>
    </g>
   </g>
  </g>
  <g id="axes_5">
   <g id="patch_22">
    <path d="M 550.927059 629.9064 
L 866.032941 629.9064 
L 866.032941 382.1904 
L 550.927059 382.1904 
z
" style="fill:#ffffff;"/>
   </g>
   <g id="matplotlib.axis_9">
    <g id="xtick_21">
     <g id="line2d_58">
      <g>
       <use style="stroke:#000000;stroke-width:0.8;" x="565.250053" xlink:href="#m2b008e6b0b" y="629.9064"/>
      </g>
     </g>
     <g id="text_50">
      <!-- 0 -->
      <g transform="translate(562.068803 644.504838)scale(0.1 -0.1)">
       <use xlink:href="#DejaVuSans-48"/>
      </g>
     </g>
    </g>
    <g id="xtick_22">
     <g id="line2d_59">
      <g>
       <use style="stroke:#000000;stroke-width:0.8;" x="626.722134" xlink:href="#m2b008e6b0b" y="629.9064"/>
      </g>
     </g>
     <g id="text_51">
      <!-- 50 -->
      <g transform="translate(620.359634 644.504838)scale(0.1 -0.1)">
       <use xlink:href="#DejaVuSans-53"/>
       <use x="63.623047" xlink:href="#DejaVuSans-48"/>
      </g>
     </g>
    </g>
    <g id="xtick_23">
     <g id="line2d_60">
      <g>
       <use style="stroke:#000000;stroke-width:0.8;" x="688.194214" xlink:href="#m2b008e6b0b" y="629.9064"/>
      </g>
     </g>
     <g id="text_52">
      <!-- 100 -->
      <g transform="translate(678.650464 644.504838)scale(0.1 -0.1)">
       <use xlink:href="#DejaVuSans-49"/>
       <use x="63.623047" xlink:href="#DejaVuSans-48"/>
       <use x="127.246094" xlink:href="#DejaVuSans-48"/>
      </g>
     </g>
    </g>
    <g id="xtick_24">
     <g id="line2d_61">
      <g>
       <use style="stroke:#000000;stroke-width:0.8;" x="749.666294" xlink:href="#m2b008e6b0b" y="629.9064"/>
      </g>
     </g>
     <g id="text_53">
      <!-- 150 -->
      <g transform="translate(740.122544 644.504838)scale(0.1 -0.1)">
       <use xlink:href="#DejaVuSans-49"/>
       <use x="63.623047" xlink:href="#DejaVuSans-53"/>
       <use x="127.246094" xlink:href="#DejaVuSans-48"/>
      </g>
     </g>
    </g>
    <g id="xtick_25">
     <g id="line2d_62">
      <g>
       <use style="stroke:#000000;stroke-width:0.8;" x="811.138374" xlink:href="#m2b008e6b0b" y="629.9064"/>
      </g>
     </g>
     <g id="text_54">
      <!-- 200 -->
      <g transform="translate(801.594624 644.504838)scale(0.1 -0.1)">
       <use xlink:href="#DejaVuSans-50"/>
       <use x="63.623047" xlink:href="#DejaVuSans-48"/>
       <use x="127.246094" xlink:href="#DejaVuSans-48"/>
      </g>
     </g>
    </g>
   </g>
   <g id="matplotlib.axis_10">
    <g id="ytick_26">
     <g id="line2d_63">
      <g>
       <use style="stroke:#000000;stroke-width:0.8;" x="550.927059" xlink:href="#m650b64c3bd" y="626.795156"/>
      </g>
     </g>
     <g id="text_55">
      <!-- −5 -->
      <g transform="translate(529.184871 630.594375)scale(0.1 -0.1)">
       <use xlink:href="#DejaVuSans-8722"/>
       <use x="83.789062" xlink:href="#DejaVuSans-53"/>
      </g>
     </g>
    </g>
    <g id="ytick_27">
     <g id="line2d_64">
      <g>
       <use style="stroke:#000000;stroke-width:0.8;" x="550.927059" xlink:href="#m650b64c3bd" y="580.367306"/>
      </g>
     </g>
     <g id="text_56">
      <!-- −4 -->
      <g transform="translate(529.184871 584.166524)scale(0.1 -0.1)">
       <use xlink:href="#DejaVuSans-8722"/>
       <use x="83.789062" xlink:href="#DejaVuSans-52"/>
      </g>
     </g>
    </g>
    <g id="ytick_28">
     <g id="line2d_65">
      <g>
       <use style="stroke:#000000;stroke-width:0.8;" x="550.927059" xlink:href="#m650b64c3bd" y="533.939456"/>
      </g>
     </g>
     <g id="text_57">
      <!-- −3 -->
      <g transform="translate(529.184871 537.738674)scale(0.1 -0.1)">
       <use xlink:href="#DejaVuSans-8722"/>
       <use x="83.789062" xlink:href="#DejaVuSans-51"/>
      </g>
     </g>
    </g>
    <g id="ytick_29">
     <g id="line2d_66">
      <g>
       <use style="stroke:#000000;stroke-width:0.8;" x="550.927059" xlink:href="#m650b64c3bd" y="487.511605"/>
      </g>
     </g>
     <g id="text_58">
      <!-- −2 -->
      <g transform="translate(529.184871 491.310824)scale(0.1 -0.1)">
       <use xlink:href="#DejaVuSans-8722"/>
       <use x="83.789062" xlink:href="#DejaVuSans-50"/>
      </g>
     </g>
    </g>
    <g id="ytick_30">
     <g id="line2d_67">
      <g>
       <use style="stroke:#000000;stroke-width:0.8;" x="550.927059" xlink:href="#m650b64c3bd" y="441.083755"/>
      </g>
     </g>
     <g id="text_59">
      <!-- −1 -->
      <g transform="translate(529.184871 444.882974)scale(0.1 -0.1)">
       <use xlink:href="#DejaVuSans-8722"/>
       <use x="83.789062" xlink:href="#DejaVuSans-49"/>
      </g>
     </g>
    </g>
    <g id="ytick_31">
     <g id="line2d_68">
      <g>
       <use style="stroke:#000000;stroke-width:0.8;" x="550.927059" xlink:href="#m650b64c3bd" y="394.655905"/>
      </g>
     </g>
     <g id="text_60">
      <!-- 0 -->
      <g transform="translate(537.564559 398.455124)scale(0.1 -0.1)">
       <use xlink:href="#DejaVuSans-48"/>
      </g>
     </g>
    </g>
   </g>
   <g id="line2d_69">
    <path clip-path="url(#p37764da5d3)" d="M 565.250053 394.532636 
L 566.479495 395.020587 
L 568.938378 396.768276 
L 570.16782 397.138328 
L 571.397261 396.905265 
L 575.085586 394.940009 
L 576.315028 394.946938 
L 577.544469 395.512901 
L 578.773911 396.360647 
L 580.003353 397.009265 
L 581.232794 397.064305 
L 582.462236 396.471071 
L 584.921119 394.636939 
L 586.150561 394.153826 
L 587.380002 394.206501 
L 588.609444 394.711889 
L 589.838885 395.382241 
L 591.068327 395.807569 
L 592.297769 395.67103 
L 593.52721 394.975378 
L 594.756652 394.081358 
L 595.986094 393.472858 
L 597.215535 393.450218 
L 598.444977 394.009603 
L 600.90386 395.813209 
L 602.133302 396.385557 
L 603.362743 396.426181 
L 605.821626 395.486402 
L 607.051068 395.347057 
L 608.28051 395.840428 
L 611.968834 398.776175 
L 613.198276 399.114205 
L 614.427718 398.924019 
L 616.886601 397.995335 
L 618.116042 398.029534 
L 619.345484 398.695626 
L 621.804367 400.778439 
L 623.033809 401.289911 
L 624.26325 401.244098 
L 626.722134 400.456165 
L 627.951575 400.41095 
L 629.181017 400.91737 
L 630.410458 401.941931 
L 631.6399 403.146072 
L 632.869342 404.035943 
L 634.098783 404.291211 
L 635.328225 403.998437 
L 636.557666 403.565999 
L 637.787108 403.415958 
L 639.01655 403.742938 
L 640.245991 404.483508 
L 641.475433 405.395207 
L 642.704874 406.131652 
L 643.934316 406.356673 
L 645.163758 405.953145 
L 647.622641 404.497863 
L 648.852082 404.355258 
L 650.081524 404.775744 
L 652.540407 406.014319 
L 653.769849 406.19459 
L 654.99929 405.933627 
L 657.458174 404.793745 
L 658.687615 404.647112 
L 659.917057 405.154608 
L 662.37594 407.177415 
L 663.605382 407.785118 
L 664.834823 407.875625 
L 667.293706 407.478539 
L 668.523148 407.587284 
L 669.75259 408.14878 
L 673.440914 411.037486 
L 674.670356 411.240692 
L 677.129239 410.690738 
L 678.358681 410.78353 
L 679.588122 411.368961 
L 683.276447 414.177173 
L 684.505889 414.658138 
L 685.73533 414.722672 
L 686.964772 414.636364 
L 688.194214 414.853364 
L 689.423655 415.665249 
L 693.11198 419.434407 
L 694.341422 420.178648 
L 695.570863 420.605599 
L 698.029746 421.18127 
L 699.259188 421.882861 
L 700.48863 423.048217 
L 701.718071 424.399911 
L 702.947513 425.481489 
L 704.176954 426.039473 
L 705.406396 426.188376 
L 707.865279 426.331907 
L 709.094721 426.680153 
L 710.324162 427.346206 
L 712.783046 429.202285 
L 714.012487 429.726266 
L 715.241929 429.76009 
L 716.47137 429.588615 
L 717.700812 429.590587 
L 718.930254 429.898659 
L 720.159695 430.515132 
L 723.84802 433.231973 
L 725.077462 433.705443 
L 727.536345 433.910324 
L 728.765786 434.354405 
L 729.995228 435.206824 
L 734.912994 439.402993 
L 736.142436 439.967509 
L 738.601319 440.659834 
L 739.830761 441.433588 
L 742.289644 443.624909 
L 744.748527 445.912721 
L 745.977969 446.862047 
L 747.20741 447.447282 
L 748.436852 447.837695 
L 749.666294 448.418672 
L 750.895735 449.337109 
L 753.354618 451.62964 
L 757.042943 455.747388 
L 760.731268 458.648241 
L 763.190151 461.230496 
L 764.419593 462.721395 
L 766.878476 466.365651 
L 768.107918 467.898107 
L 771.796242 471.496993 
L 774.255126 473.385963 
L 775.484567 474.576396 
L 777.94345 477.407092 
L 781.631775 481.092862 
L 782.861217 482.031237 
L 784.090658 482.744631 
L 785.3201 483.601494 
L 789.008425 486.966696 
L 790.237866 488.407385 
L 792.69675 491.656757 
L 795.155633 494.458934 
L 796.385074 495.939344 
L 800.073399 499.541953 
L 802.532282 502.43506 
L 803.761724 503.78248 
L 806.220607 506.973596 
L 807.450049 508.224486 
L 811.138374 511.490252 
L 813.597257 512.690124 
L 814.826698 513.473077 
L 816.05614 514.073601 
L 817.285582 514.387793 
L 819.744465 515.357501 
L 820.973906 515.488113 
L 822.203348 515.337037 
L 823.43279 515.310671 
L 824.662231 515.134868 
L 827.121115 513.830334 
L 828.350556 513.388751 
L 829.579998 512.719003 
L 830.809439 567.416439 
L 832.038881 549.827488 
L 833.268323 520.989593 
L 834.497764 562.804127 
L 835.727206 593.36202 
L 836.956647 550.726864 
L 838.186089 533.415724 
L 839.415531 579.272299 
L 840.644972 585.850064 
L 841.874414 547.39022 
L 843.103855 567.438188 
L 844.333297 617.431065 
L 845.562739 600.806311 
L 846.79218 573.529143 
L 848.021622 607.358193 
L 849.251063 618.646582 
L 850.480505 567.654991 
L 851.709947 551.427397 
L 851.709947 551.427397 
" style="fill:none;stroke:#ff796c;stroke-linecap:square;stroke-width:1.5;"/>
   </g>
   <g id="line2d_70">
    <path clip-path="url(#p37764da5d3)" d="M 565.250053 419.146074 
L 578.773911 419.251389 
L 657.458174 419.839622 
L 678.358681 419.939024 
L 698.029746 419.914141 
L 729.995228 420.269045 
L 745.977969 420.539751 
L 786.549542 420.996568 
L 801.302841 420.708507 
L 808.67949 420.39109 
L 816.05614 419.831618 
L 833.268323 418.322759 
L 835.727206 418.517109 
L 839.415531 419.085645 
L 841.874414 419.244234 
L 844.333297 419.118491 
L 848.021622 418.891372 
L 850.480505 418.946438 
L 851.709947 419.017492 
L 851.709947 419.017492 
" style="fill:none;stroke:#ffff14;stroke-linecap:square;stroke-width:1.5;"/>
   </g>
   <g id="line2d_71">
    <path clip-path="url(#p37764da5d3)" d="M 565.250053 419.146036 
L 814.826698 419.037009 
L 851.709947 418.916157 
L 851.709947 418.916157 
" style="fill:none;stroke:#014d4e;stroke-linecap:square;stroke-width:1.5;"/>
   </g>
   <g id="patch_23">
    <path d="M 550.927059 629.9064 
L 550.927059 382.1904 
" style="fill:none;stroke:#000000;stroke-linecap:square;stroke-linejoin:miter;stroke-width:0.8;"/>
   </g>
   <g id="patch_24">
    <path d="M 866.032941 629.9064 
L 866.032941 382.1904 
" style="fill:none;stroke:#000000;stroke-linecap:square;stroke-linejoin:miter;stroke-width:0.8;"/>
   </g>
   <g id="patch_25">
    <path d="M 550.927059 629.9064 
L 866.032941 629.9064 
" style="fill:none;stroke:#000000;stroke-linecap:square;stroke-linejoin:miter;stroke-width:0.8;"/>
   </g>
   <g id="patch_26">
    <path d="M 550.927059 382.1904 
L 866.032941 382.1904 
" style="fill:none;stroke:#000000;stroke-linecap:square;stroke-linejoin:miter;stroke-width:0.8;"/>
   </g>
   <g id="text_61">
    <!-- Lateral joint 4 -->
    <g transform="translate(666.814687 376.1904)scale(0.12 -0.12)">
     <use xlink:href="#DejaVuSans-76"/>
     <use x="55.712891" xlink:href="#DejaVuSans-97"/>
     <use x="116.992188" xlink:href="#DejaVuSans-116"/>
     <use x="156.201172" xlink:href="#DejaVuSans-101"/>
     <use x="217.724609" xlink:href="#DejaVuSans-114"/>
     <use x="258.837891" xlink:href="#DejaVuSans-97"/>
     <use x="320.117188" xlink:href="#DejaVuSans-108"/>
     <use x="347.900391" xlink:href="#DejaVuSans-32"/>
     <use x="379.6875" xlink:href="#DejaVuSans-106"/>
     <use x="407.470703" xlink:href="#DejaVuSans-111"/>
     <use x="468.652344" xlink:href="#DejaVuSans-105"/>
     <use x="496.435547" xlink:href="#DejaVuSans-110"/>
     <use x="559.814453" xlink:href="#DejaVuSans-116"/>
     <use x="599.023438" xlink:href="#DejaVuSans-32"/>
     <use x="630.810547" xlink:href="#DejaVuSans-52"/>
    </g>
   </g>
  </g>
  <g id="axes_6">
   <g id="patch_27">
    <path d="M 929.054118 629.9064 
L 1244.16 629.9064 
L 1244.16 382.1904 
L 929.054118 382.1904 
z
" style="fill:#ffffff;"/>
   </g>
   <g id="matplotlib.axis_11">
    <g id="xtick_26">
     <g id="line2d_72">
      <g>
       <use style="stroke:#000000;stroke-width:0.8;" x="929.054118" xlink:href="#m2b008e6b0b" y="629.9064"/>
      </g>
     </g>
     <g id="text_62">
      <!-- 0.0 -->
      <g transform="translate(921.102555 644.504838)scale(0.1 -0.1)">
       <use xlink:href="#DejaVuSans-48"/>
       <use x="63.623047" xlink:href="#DejaVuSans-46"/>
       <use x="95.410156" xlink:href="#DejaVuSans-48"/>
      </g>
     </g>
    </g>
    <g id="xtick_27">
     <g id="line2d_73">
      <g>
       <use style="stroke:#000000;stroke-width:0.8;" x="992.075294" xlink:href="#m2b008e6b0b" y="629.9064"/>
      </g>
     </g>
     <g id="text_63">
      <!-- 0.2 -->
      <g transform="translate(984.123732 644.504838)scale(0.1 -0.1)">
       <use xlink:href="#DejaVuSans-48"/>
       <use x="63.623047" xlink:href="#DejaVuSans-46"/>
       <use x="95.410156" xlink:href="#DejaVuSans-50"/>
      </g>
     </g>
    </g>
    <g id="xtick_28">
     <g id="line2d_74">
      <g>
       <use style="stroke:#000000;stroke-width:0.8;" x="1055.096471" xlink:href="#m2b008e6b0b" y="629.9064"/>
      </g>
     </g>
     <g id="text_64">
      <!-- 0.4 -->
      <g transform="translate(1047.144908 644.504838)scale(0.1 -0.1)">
       <use xlink:href="#DejaVuSans-48"/>
       <use x="63.623047" xlink:href="#DejaVuSans-46"/>
       <use x="95.410156" xlink:href="#DejaVuSans-52"/>
      </g>
     </g>
    </g>
    <g id="xtick_29">
     <g id="line2d_75">
      <g>
       <use style="stroke:#000000;stroke-width:0.8;" x="1118.117647" xlink:href="#m2b008e6b0b" y="629.9064"/>
      </g>
     </g>
     <g id="text_65">
      <!-- 0.6 -->
      <g transform="translate(1110.166085 644.504838)scale(0.1 -0.1)">
       <use xlink:href="#DejaVuSans-48"/>
       <use x="63.623047" xlink:href="#DejaVuSans-46"/>
       <use x="95.410156" xlink:href="#DejaVuSans-54"/>
      </g>
     </g>
    </g>
    <g id="xtick_30">
     <g id="line2d_76">
      <g>
       <use style="stroke:#000000;stroke-width:0.8;" x="1181.138824" xlink:href="#m2b008e6b0b" y="629.9064"/>
      </g>
     </g>
     <g id="text_66">
      <!-- 0.8 -->
      <defs>
       <path d="M 31.78125 34.625 
Q 24.75 34.625 20.71875 30.859375 
Q 16.703125 27.09375 16.703125 20.515625 
Q 16.703125 13.921875 20.71875 10.15625 
Q 24.75 6.390625 31.78125 6.390625 
Q 38.8125 6.390625 42.859375 10.171875 
Q 46.921875 13.96875 46.921875 20.515625 
Q 46.921875 27.09375 42.890625 30.859375 
Q 38.875 34.625 31.78125 34.625 
z
M 21.921875 38.8125 
Q 15.578125 40.375 12.03125 44.71875 
Q 8.5 49.078125 8.5 55.328125 
Q 8.5 64.0625 14.71875 69.140625 
Q 20.953125 74.21875 31.78125 74.21875 
Q 42.671875 74.21875 48.875 69.140625 
Q 55.078125 64.0625 55.078125 55.328125 
Q 55.078125 49.078125 51.53125 44.71875 
Q 48 40.375 41.703125 38.8125 
Q 48.828125 37.15625 52.796875 32.3125 
Q 56.78125 27.484375 56.78125 20.515625 
Q 56.78125 9.90625 50.3125 4.234375 
Q 43.84375 -1.421875 31.78125 -1.421875 
Q 19.734375 -1.421875 13.25 4.234375 
Q 6.78125 9.90625 6.78125 20.515625 
Q 6.78125 27.484375 10.78125 32.3125 
Q 14.796875 37.15625 21.921875 38.8125 
z
M 18.3125 54.390625 
Q 18.3125 48.734375 21.84375 45.5625 
Q 25.390625 42.390625 31.78125 42.390625 
Q 38.140625 42.390625 41.71875 45.5625 
Q 45.3125 48.734375 45.3125 54.390625 
Q 45.3125 60.0625 41.71875 63.234375 
Q 38.140625 66.40625 31.78125 66.40625 
Q 25.390625 66.40625 21.84375 63.234375 
Q 18.3125 60.0625 18.3125 54.390625 
z
" id="DejaVuSans-56"/>
      </defs>
      <g transform="translate(1173.187261 644.504838)scale(0.1 -0.1)">
       <use xlink:href="#DejaVuSans-48"/>
       <use x="63.623047" xlink:href="#DejaVuSans-46"/>
       <use x="95.410156" xlink:href="#DejaVuSans-56"/>
      </g>
     </g>
    </g>
    <g id="xtick_31">
     <g id="line2d_77">
      <g>
       <use style="stroke:#000000;stroke-width:0.8;" x="1244.16" xlink:href="#m2b008e6b0b" y="629.9064"/>
      </g>
     </g>
     <g id="text_67">
      <!-- 1.0 -->
      <g transform="translate(1236.208438 644.504838)scale(0.1 -0.1)">
       <use xlink:href="#DejaVuSans-49"/>
       <use x="63.623047" xlink:href="#DejaVuSans-46"/>
       <use x="95.410156" xlink:href="#DejaVuSans-48"/>
      </g>
     </g>
    </g>
   </g>
   <g id="matplotlib.axis_12">
    <g id="ytick_32">
     <g id="line2d_78">
      <g>
       <use style="stroke:#000000;stroke-width:0.8;" x="929.054118" xlink:href="#m650b64c3bd" y="629.9064"/>
      </g>
     </g>
     <g id="text_68">
      <!-- 0.0 -->
      <g transform="translate(906.150993 633.705619)scale(0.1 -0.1)">
       <use xlink:href="#DejaVuSans-48"/>
       <use x="63.623047" xlink:href="#DejaVuSans-46"/>
       <use x="95.410156" xlink:href="#DejaVuSans-48"/>
      </g>
     </g>
    </g>
    <g id="ytick_33">
     <g id="line2d_79">
      <g>
       <use style="stroke:#000000;stroke-width:0.8;" x="929.054118" xlink:href="#m650b64c3bd" y="580.3632"/>
      </g>
     </g>
     <g id="text_69">
      <!-- 0.2 -->
      <g transform="translate(906.150993 584.162419)scale(0.1 -0.1)">
       <use xlink:href="#DejaVuSans-48"/>
       <use x="63.623047" xlink:href="#DejaVuSans-46"/>
       <use x="95.410156" xlink:href="#DejaVuSans-50"/>
      </g>
     </g>
    </g>
    <g id="ytick_34">
     <g id="line2d_80">
      <g>
       <use style="stroke:#000000;stroke-width:0.8;" x="929.054118" xlink:href="#m650b64c3bd" y="530.82"/>
      </g>
     </g>
     <g id="text_70">
      <!-- 0.4 -->
      <g transform="translate(906.150993 534.619219)scale(0.1 -0.1)">
       <use xlink:href="#DejaVuSans-48"/>
       <use x="63.623047" xlink:href="#DejaVuSans-46"/>
       <use x="95.410156" xlink:href="#DejaVuSans-52"/>
      </g>
     </g>
    </g>
    <g id="ytick_35">
     <g id="line2d_81">
      <g>
       <use style="stroke:#000000;stroke-width:0.8;" x="929.054118" xlink:href="#m650b64c3bd" y="481.2768"/>
      </g>
     </g>
     <g id="text_71">
      <!-- 0.6 -->
      <g transform="translate(906.150993 485.076019)scale(0.1 -0.1)">
       <use xlink:href="#DejaVuSans-48"/>
       <use x="63.623047" xlink:href="#DejaVuSans-46"/>
       <use x="95.410156" xlink:href="#DejaVuSans-54"/>
      </g>
     </g>
    </g>
    <g id="ytick_36">
     <g id="line2d_82">
      <g>
       <use style="stroke:#000000;stroke-width:0.8;" x="929.054118" xlink:href="#m650b64c3bd" y="431.7336"/>
      </g>
     </g>
     <g id="text_72">
      <!-- 0.8 -->
      <g transform="translate(906.150993 435.532819)scale(0.1 -0.1)">
       <use xlink:href="#DejaVuSans-48"/>
       <use x="63.623047" xlink:href="#DejaVuSans-46"/>
       <use x="95.410156" xlink:href="#DejaVuSans-56"/>
      </g>
     </g>
    </g>
    <g id="ytick_37">
     <g id="line2d_83">
      <g>
       <use style="stroke:#000000;stroke-width:0.8;" x="929.054118" xlink:href="#m650b64c3bd" y="382.1904"/>
      </g>
     </g>
     <g id="text_73">
      <!-- 1.0 -->
      <g transform="translate(906.150993 385.989619)scale(0.1 -0.1)">
       <use xlink:href="#DejaVuSans-49"/>
       <use x="63.623047" xlink:href="#DejaVuSans-46"/>
       <use x="95.410156" xlink:href="#DejaVuSans-48"/>
      </g>
     </g>
    </g>
   </g>
   <g id="patch_28">
    <path d="M 929.054118 629.9064 
L 929.054118 382.1904 
" style="fill:none;stroke:#000000;stroke-linecap:square;stroke-linejoin:miter;stroke-width:0.8;"/>
   </g>
   <g id="patch_29">
    <path d="M 1244.16 629.9064 
L 1244.16 382.1904 
" style="fill:none;stroke:#000000;stroke-linecap:square;stroke-linejoin:miter;stroke-width:0.8;"/>
   </g>
   <g id="patch_30">
    <path d="M 929.054118 629.9064 
L 1244.16 629.9064 
" style="fill:none;stroke:#000000;stroke-linecap:square;stroke-linejoin:miter;stroke-width:0.8;"/>
   </g>
   <g id="patch_31">
    <path d="M 929.054118 382.1904 
L 1244.16 382.1904 
" style="fill:none;stroke:#000000;stroke-linecap:square;stroke-linejoin:miter;stroke-width:0.8;"/>
   </g>
  </g>
  <g id="legend_1">
   <g id="patch_32">
    <path d="M 1308.251562 377.53625 
L 1375.4 377.53625 
Q 1377.4 377.53625 1377.4 375.53625 
L 1377.4 332.22375 
Q 1377.4 330.22375 1375.4 330.22375 
L 1308.251562 330.22375 
Q 1306.251562 330.22375 1306.251562 332.22375 
L 1306.251562 375.53625 
Q 1306.251562 377.53625 1308.251562 377.53625 
z
" style="fill:#ffffff;opacity:0.8;stroke:#cccccc;stroke-linejoin:miter;"/>
   </g>
   <g id="line2d_84">
    <path d="M 1310.251562 338.322187 
L 1330.251562 338.322187 
" style="fill:none;stroke:#ff796c;stroke-linecap:square;stroke-width:1.5;"/>
   </g>
   <g id="line2d_85"/>
   <g id="text_74">
    <!-- Torque -->
    <defs>
     <path d="M -0.296875 72.90625 
L 61.375 72.90625 
L 61.375 64.59375 
L 35.5 64.59375 
L 35.5 0 
L 25.59375 0 
L 25.59375 64.59375 
L -0.296875 64.59375 
z
" id="DejaVuSans-84"/>
     <path d="M 14.796875 27.296875 
Q 14.796875 17.390625 18.875 11.75 
Q 22.953125 6.109375 30.078125 6.109375 
Q 37.203125 6.109375 41.296875 11.75 
Q 45.40625 17.390625 45.40625 27.296875 
Q 45.40625 37.203125 41.296875 42.84375 
Q 37.203125 48.484375 30.078125 48.484375 
Q 22.953125 48.484375 18.875 42.84375 
Q 14.796875 37.203125 14.796875 27.296875 
z
M 45.40625 8.203125 
Q 42.578125 3.328125 38.25 0.953125 
Q 33.9375 -1.421875 27.875 -1.421875 
Q 17.96875 -1.421875 11.734375 6.484375 
Q 5.515625 14.40625 5.515625 27.296875 
Q 5.515625 40.1875 11.734375 48.09375 
Q 17.96875 56 27.875 56 
Q 33.9375 56 38.25 53.625 
Q 42.578125 51.265625 45.40625 46.390625 
L 45.40625 54.6875 
L 54.390625 54.6875 
L 54.390625 -20.796875 
L 45.40625 -20.796875 
z
" id="DejaVuSans-113"/>
     <path d="M 8.5 21.578125 
L 8.5 54.6875 
L 17.484375 54.6875 
L 17.484375 21.921875 
Q 17.484375 14.15625 20.5 10.265625 
Q 23.53125 6.390625 29.59375 6.390625 
Q 36.859375 6.390625 41.078125 11.03125 
Q 45.3125 15.671875 45.3125 23.6875 
L 45.3125 54.6875 
L 54.296875 54.6875 
L 54.296875 0 
L 45.3125 0 
L 45.3125 8.40625 
Q 42.046875 3.421875 37.71875 1 
Q 33.40625 -1.421875 27.6875 -1.421875 
Q 18.265625 -1.421875 13.375 4.4375 
Q 8.5 10.296875 8.5 21.578125 
z
M 31.109375 56 
z
" id="DejaVuSans-117"/>
    </defs>
    <g transform="translate(1338.251562 341.822187)scale(0.1 -0.1)">
     <use xlink:href="#DejaVuSans-84"/>
     <use x="60.818359" xlink:href="#DejaVuSans-111"/>
     <use x="122" xlink:href="#DejaVuSans-114"/>
     <use x="163.097656" xlink:href="#DejaVuSans-113"/>
     <use x="226.574219" xlink:href="#DejaVuSans-117"/>
     <use x="289.953125" xlink:href="#DejaVuSans-101"/>
    </g>
   </g>
   <g id="line2d_86">
    <path d="M 1310.251562 353.000313 
L 1330.251562 353.000313 
" style="fill:none;stroke:#ffff14;stroke-linecap:square;stroke-width:1.5;"/>
   </g>
   <g id="line2d_87"/>
   <g id="text_75">
    <!-- q -->
    <g transform="translate(1338.251562 356.500313)scale(0.1 -0.1)">
     <use xlink:href="#DejaVuSans-113"/>
    </g>
   </g>
   <g id="line2d_88">
    <path d="M 1310.251562 367.678437 
L 1330.251562 367.678437 
" style="fill:none;stroke:#014d4e;stroke-linecap:square;stroke-width:1.5;"/>
   </g>
   <g id="line2d_89"/>
   <g id="text_76">
    <!-- q_des -->
    <defs>
     <path d="M 50.984375 -16.609375 
L 50.984375 -23.578125 
L -0.984375 -23.578125 
L -0.984375 -16.609375 
z
" id="DejaVuSans-95"/>
     <path d="M 45.40625 46.390625 
L 45.40625 75.984375 
L 54.390625 75.984375 
L 54.390625 0 
L 45.40625 0 
L 45.40625 8.203125 
Q 42.578125 3.328125 38.25 0.953125 
Q 33.9375 -1.421875 27.875 -1.421875 
Q 17.96875 -1.421875 11.734375 6.484375 
Q 5.515625 14.40625 5.515625 27.296875 
Q 5.515625 40.1875 11.734375 48.09375 
Q 17.96875 56 27.875 56 
Q 33.9375 56 38.25 53.625 
Q 42.578125 51.265625 45.40625 46.390625 
z
M 14.796875 27.296875 
Q 14.796875 17.390625 18.875 11.75 
Q 22.953125 6.109375 30.078125 6.109375 
Q 37.203125 6.109375 41.296875 11.75 
Q 45.40625 17.390625 45.40625 27.296875 
Q 45.40625 37.203125 41.296875 42.84375 
Q 37.203125 48.484375 30.078125 48.484375 
Q 22.953125 48.484375 18.875 42.84375 
Q 14.796875 37.203125 14.796875 27.296875 
z
" id="DejaVuSans-100"/>
     <path d="M 44.28125 53.078125 
L 44.28125 44.578125 
Q 40.484375 46.53125 36.375 47.5 
Q 32.28125 48.484375 27.875 48.484375 
Q 21.1875 48.484375 17.84375 46.4375 
Q 14.5 44.390625 14.5 40.28125 
Q 14.5 37.15625 16.890625 35.375 
Q 19.28125 33.59375 26.515625 31.984375 
L 29.59375 31.296875 
Q 39.15625 29.25 43.1875 25.515625 
Q 47.21875 21.78125 47.21875 15.09375 
Q 47.21875 7.46875 41.1875 3.015625 
Q 35.15625 -1.421875 24.609375 -1.421875 
Q 20.21875 -1.421875 15.453125 -0.5625 
Q 10.6875 0.296875 5.421875 2 
L 5.421875 11.28125 
Q 10.40625 8.6875 15.234375 7.390625 
Q 20.0625 6.109375 24.8125 6.109375 
Q 31.15625 6.109375 34.5625 8.28125 
Q 37.984375 10.453125 37.984375 14.40625 
Q 37.984375 18.0625 35.515625 20.015625 
Q 33.0625 21.96875 24.703125 23.78125 
L 21.578125 24.515625 
Q 13.234375 26.265625 9.515625 29.90625 
Q 5.8125 33.546875 5.8125 39.890625 
Q 5.8125 47.609375 11.28125 51.796875 
Q 16.75 56 26.8125 56 
Q 31.78125 56 36.171875 55.265625 
Q 40.578125 54.546875 44.28125 53.078125 
z
" id="DejaVuSans-115"/>
    </defs>
    <g transform="translate(1338.251562 371.178437)scale(0.1 -0.1)">
     <use xlink:href="#DejaVuSans-113"/>
     <use x="63.476562" xlink:href="#DejaVuSans-95"/>
     <use x="113.476562" xlink:href="#DejaVuSans-100"/>
     <use x="176.953125" xlink:href="#DejaVuSans-101"/>
     <use x="238.476562" xlink:href="#DejaVuSans-115"/>
    </g>
   </g>
  </g>
 </g>
 <defs>
  <clipPath id="p4503c72fa1">
   <rect height="247.716" width="315.105882" x="172.8" y="84.9312"/>
  </clipPath>
  <clipPath id="p5ac66e04b1">
   <rect height="247.716" width="315.105882" x="550.927059" y="84.9312"/>
  </clipPath>
  <clipPath id="pb12ff66d49">
   <rect height="247.716" width="315.105882" x="929.054118" y="84.9312"/>
  </clipPath>
  <clipPath id="p6c35b492cb">
   <rect height="247.716" width="315.105882" x="172.8" y="382.1904"/>
  </clipPath>
  <clipPath id="p37764da5d3">
   <rect height="247.716" width="315.105882" x="550.927059" y="382.1904"/>
  </clipPath>
 </defs>
</svg>
