<?xml version="1.0" encoding="utf-8" standalone="no"?>
<!DOCTYPE svg PUBLIC "-//W3C//DTD SVG 1.1//EN"
  "http://www.w3.org/Graphics/SVG/1.1/DTD/svg11.dtd">
<!-- Created with matplotlib (https://matplotlib.org/) -->
<svg height="707.76pt" version="1.1" viewBox="0 0 1382.4 707.76" width="1382.4pt" xmlns="http://www.w3.org/2000/svg" xmlns:xlink="http://www.w3.org/1999/xlink">
 <defs>
  <style type="text/css">
*{stroke-linecap:butt;stroke-linejoin:round;}
  </style>
 </defs>
 <g id="figure_1">
  <g id="patch_1">
   <path d="M 0 707.76 
L 1382.4 707.76 
L 1382.4 0 
L 0 0 
z
" style="fill:#ffffff;"/>
  </g>
  <g id="axes_1">
   <g id="patch_2">
    <path d="M 172.8 332.6472 
L 659.781818 332.6472 
L 659.781818 84.9312 
L 172.8 84.9312 
z
" style="fill:#ffffff;"/>
   </g>
   <g id="matplotlib.axis_1">
    <g id="xtick_1">
     <g id="line2d_1">
      <defs>
       <path d="M 0 0 
L 0 3.5 
" id="m0516bbfd39" style="stroke:#000000;stroke-width:0.8;"/>
      </defs>
      <g>
       <use style="stroke:#000000;stroke-width:0.8;" x="194.935537" xlink:href="#m0516bbfd39" y="332.6472"/>
      </g>
     </g>
     <g id="text_1">
      <!-- 0 -->
      <defs>
       <path d="M 31.78125 66.40625 
Q 24.171875 66.40625 20.328125 58.90625 
Q 16.5 51.421875 16.5 36.375 
Q 16.5 21.390625 20.328125 13.890625 
Q 24.171875 6.390625 31.78125 6.390625 
Q 39.453125 6.390625 43.28125 13.890625 
Q 47.125 21.390625 47.125 36.375 
Q 47.125 51.421875 43.28125 58.90625 
Q 39.453125 66.40625 31.78125 66.40625 
z
M 31.78125 74.21875 
Q 44.046875 74.21875 50.515625 64.515625 
Q 56.984375 54.828125 56.984375 36.375 
Q 56.984375 17.96875 50.515625 8.265625 
Q 44.046875 -1.421875 31.78125 -1.421875 
Q 19.53125 -1.421875 13.0625 8.265625 
Q 6.59375 17.96875 6.59375 36.375 
Q 6.59375 54.828125 13.0625 64.515625 
Q 19.53125 74.21875 31.78125 74.21875 
z
" id="DejaVuSans-48"/>
      </defs>
      <g transform="translate(191.754287 347.245637)scale(0.1 -0.1)">
       <use xlink:href="#DejaVuSans-48"/>
      </g>
     </g>
    </g>
    <g id="xtick_2">
     <g id="line2d_2">
      <g>
       <use style="stroke:#000000;stroke-width:0.8;" x="289.937843" xlink:href="#m0516bbfd39" y="332.6472"/>
      </g>
     </g>
     <g id="text_2">
      <!-- 50 -->
      <defs>
       <path d="M 10.796875 72.90625 
L 49.515625 72.90625 
L 49.515625 64.59375 
L 19.828125 64.59375 
L 19.828125 46.734375 
Q 21.96875 47.46875 24.109375 47.828125 
Q 26.265625 48.1875 28.421875 48.1875 
Q 40.625 48.1875 47.75 41.5 
Q 54.890625 34.8125 54.890625 23.390625 
Q 54.890625 11.625 47.5625 5.09375 
Q 40.234375 -1.421875 26.90625 -1.421875 
Q 22.3125 -1.421875 17.546875 -0.640625 
Q 12.796875 0.140625 7.71875 1.703125 
L 7.71875 11.625 
Q 12.109375 9.234375 16.796875 8.0625 
Q 21.484375 6.890625 26.703125 6.890625 
Q 35.15625 6.890625 40.078125 11.328125 
Q 45.015625 15.765625 45.015625 23.390625 
Q 45.015625 31 40.078125 35.4375 
Q 35.15625 39.890625 26.703125 39.890625 
Q 22.75 39.890625 18.8125 39.015625 
Q 14.890625 38.140625 10.796875 36.28125 
z
" id="DejaVuSans-53"/>
      </defs>
      <g transform="translate(283.575343 347.245637)scale(0.1 -0.1)">
       <use xlink:href="#DejaVuSans-53"/>
       <use x="63.623047" xlink:href="#DejaVuSans-48"/>
      </g>
     </g>
    </g>
    <g id="xtick_3">
     <g id="line2d_3">
      <g>
       <use style="stroke:#000000;stroke-width:0.8;" x="384.940148" xlink:href="#m0516bbfd39" y="332.6472"/>
      </g>
     </g>
     <g id="text_3">
      <!-- 100 -->
      <defs>
       <path d="M 12.40625 8.296875 
L 28.515625 8.296875 
L 28.515625 63.921875 
L 10.984375 60.40625 
L 10.984375 69.390625 
L 28.421875 72.90625 
L 38.28125 72.90625 
L 38.28125 8.296875 
L 54.390625 8.296875 
L 54.390625 0 
L 12.40625 0 
z
" id="DejaVuSans-49"/>
      </defs>
      <g transform="translate(375.396398 347.245637)scale(0.1 -0.1)">
       <use xlink:href="#DejaVuSans-49"/>
       <use x="63.623047" xlink:href="#DejaVuSans-48"/>
       <use x="127.246094" xlink:href="#DejaVuSans-48"/>
      </g>
     </g>
    </g>
    <g id="xtick_4">
     <g id="line2d_4">
      <g>
       <use style="stroke:#000000;stroke-width:0.8;" x="479.942454" xlink:href="#m0516bbfd39" y="332.6472"/>
      </g>
     </g>
     <g id="text_4">
      <!-- 150 -->
      <g transform="translate(470.398704 347.245637)scale(0.1 -0.1)">
       <use xlink:href="#DejaVuSans-49"/>
       <use x="63.623047" xlink:href="#DejaVuSans-53"/>
       <use x="127.246094" xlink:href="#DejaVuSans-48"/>
      </g>
     </g>
    </g>
    <g id="xtick_5">
     <g id="line2d_5">
      <g>
       <use style="stroke:#000000;stroke-width:0.8;" x="574.944759" xlink:href="#m0516bbfd39" y="332.6472"/>
      </g>
     </g>
     <g id="text_5">
      <!-- 200 -->
      <defs>
       <path d="M 19.1875 8.296875 
L 53.609375 8.296875 
L 53.609375 0 
L 7.328125 0 
L 7.328125 8.296875 
Q 12.9375 14.109375 22.625 23.890625 
Q 32.328125 33.6875 34.8125 36.53125 
Q 39.546875 41.84375 41.421875 45.53125 
Q 43.3125 49.21875 43.3125 52.78125 
Q 43.3125 58.59375 39.234375 62.25 
Q 35.15625 65.921875 28.609375 65.921875 
Q 23.96875 65.921875 18.8125 64.3125 
Q 13.671875 62.703125 7.8125 59.421875 
L 7.8125 69.390625 
Q 13.765625 71.78125 18.9375 73 
Q 24.125 74.21875 28.421875 74.21875 
Q 39.75 74.21875 46.484375 68.546875 
Q 53.21875 62.890625 53.21875 53.421875 
Q 53.21875 48.921875 51.53125 44.890625 
Q 49.859375 40.875 45.40625 35.40625 
Q 44.1875 33.984375 37.640625 27.21875 
Q 31.109375 20.453125 19.1875 8.296875 
z
" id="DejaVuSans-50"/>
      </defs>
      <g transform="translate(565.401009 347.245637)scale(0.1 -0.1)">
       <use xlink:href="#DejaVuSans-50"/>
       <use x="63.623047" xlink:href="#DejaVuSans-48"/>
       <use x="127.246094" xlink:href="#DejaVuSans-48"/>
      </g>
     </g>
    </g>
   </g>
   <g id="matplotlib.axis_2">
    <g id="ytick_1">
     <g id="line2d_6">
      <defs>
       <path d="M 0 0 
L -3.5 0 
" id="m7fd9c16656" style="stroke:#000000;stroke-width:0.8;"/>
      </defs>
      <g>
       <use style="stroke:#000000;stroke-width:0.8;" x="172.8" xlink:href="#m7fd9c16656" y="307.788105"/>
      </g>
     </g>
     <g id="text_6">
      <!-- −7 -->
      <defs>
       <path d="M 10.59375 35.5 
L 73.1875 35.5 
L 73.1875 27.203125 
L 10.59375 27.203125 
z
" id="DejaVuSans-8722"/>
       <path d="M 8.203125 72.90625 
L 55.078125 72.90625 
L 55.078125 68.703125 
L 28.609375 0 
L 18.3125 0 
L 43.21875 64.59375 
L 8.203125 64.59375 
z
" id="DejaVuSans-55"/>
      </defs>
      <g transform="translate(151.057812 311.587323)scale(0.1 -0.1)">
       <use xlink:href="#DejaVuSans-8722"/>
       <use x="83.789062" xlink:href="#DejaVuSans-55"/>
      </g>
     </g>
    </g>
    <g id="ytick_2">
     <g id="line2d_7">
      <g>
       <use style="stroke:#000000;stroke-width:0.8;" x="172.8" xlink:href="#m7fd9c16656" y="279.166811"/>
      </g>
     </g>
     <g id="text_7">
      <!-- −6 -->
      <defs>
       <path d="M 33.015625 40.375 
Q 26.375 40.375 22.484375 35.828125 
Q 18.609375 31.296875 18.609375 23.390625 
Q 18.609375 15.53125 22.484375 10.953125 
Q 26.375 6.390625 33.015625 6.390625 
Q 39.65625 6.390625 43.53125 10.953125 
Q 47.40625 15.53125 47.40625 23.390625 
Q 47.40625 31.296875 43.53125 35.828125 
Q 39.65625 40.375 33.015625 40.375 
z
M 52.59375 71.296875 
L 52.59375 62.3125 
Q 48.875 64.0625 45.09375 64.984375 
Q 41.3125 65.921875 37.59375 65.921875 
Q 27.828125 65.921875 22.671875 59.328125 
Q 17.53125 52.734375 16.796875 39.40625 
Q 19.671875 43.65625 24.015625 45.921875 
Q 28.375 48.1875 33.59375 48.1875 
Q 44.578125 48.1875 50.953125 41.515625 
Q 57.328125 34.859375 57.328125 23.390625 
Q 57.328125 12.15625 50.6875 5.359375 
Q 44.046875 -1.421875 33.015625 -1.421875 
Q 20.359375 -1.421875 13.671875 8.265625 
Q 6.984375 17.96875 6.984375 36.375 
Q 6.984375 53.65625 15.1875 63.9375 
Q 23.390625 74.21875 37.203125 74.21875 
Q 40.921875 74.21875 44.703125 73.484375 
Q 48.484375 72.75 52.59375 71.296875 
z
" id="DejaVuSans-54"/>
      </defs>
      <g transform="translate(151.057812 282.96603)scale(0.1 -0.1)">
       <use xlink:href="#DejaVuSans-8722"/>
       <use x="83.789062" xlink:href="#DejaVuSans-54"/>
      </g>
     </g>
    </g>
    <g id="ytick_3">
     <g id="line2d_8">
      <g>
       <use style="stroke:#000000;stroke-width:0.8;" x="172.8" xlink:href="#m7fd9c16656" y="250.545518"/>
      </g>
     </g>
     <g id="text_8">
      <!-- −5 -->
      <g transform="translate(151.057812 254.344736)scale(0.1 -0.1)">
       <use xlink:href="#DejaVuSans-8722"/>
       <use x="83.789062" xlink:href="#DejaVuSans-53"/>
      </g>
     </g>
    </g>
    <g id="ytick_4">
     <g id="line2d_9">
      <g>
       <use style="stroke:#000000;stroke-width:0.8;" x="172.8" xlink:href="#m7fd9c16656" y="221.924224"/>
      </g>
     </g>
     <g id="text_9">
      <!-- −4 -->
      <defs>
       <path d="M 37.796875 64.3125 
L 12.890625 25.390625 
L 37.796875 25.390625 
z
M 35.203125 72.90625 
L 47.609375 72.90625 
L 47.609375 25.390625 
L 58.015625 25.390625 
L 58.015625 17.1875 
L 47.609375 17.1875 
L 47.609375 0 
L 37.796875 0 
L 37.796875 17.1875 
L 4.890625 17.1875 
L 4.890625 26.703125 
z
" id="DejaVuSans-52"/>
      </defs>
      <g transform="translate(151.057812 225.723443)scale(0.1 -0.1)">
       <use xlink:href="#DejaVuSans-8722"/>
       <use x="83.789062" xlink:href="#DejaVuSans-52"/>
      </g>
     </g>
    </g>
    <g id="ytick_5">
     <g id="line2d_10">
      <g>
       <use style="stroke:#000000;stroke-width:0.8;" x="172.8" xlink:href="#m7fd9c16656" y="193.302931"/>
      </g>
     </g>
     <g id="text_10">
      <!-- −3 -->
      <defs>
       <path d="M 40.578125 39.3125 
Q 47.65625 37.796875 51.625 33 
Q 55.609375 28.21875 55.609375 21.1875 
Q 55.609375 10.40625 48.1875 4.484375 
Q 40.765625 -1.421875 27.09375 -1.421875 
Q 22.515625 -1.421875 17.65625 -0.515625 
Q 12.796875 0.390625 7.625 2.203125 
L 7.625 11.71875 
Q 11.71875 9.328125 16.59375 8.109375 
Q 21.484375 6.890625 26.8125 6.890625 
Q 36.078125 6.890625 40.9375 10.546875 
Q 45.796875 14.203125 45.796875 21.1875 
Q 45.796875 27.640625 41.28125 31.265625 
Q 36.765625 34.90625 28.71875 34.90625 
L 20.21875 34.90625 
L 20.21875 43.015625 
L 29.109375 43.015625 
Q 36.375 43.015625 40.234375 45.921875 
Q 44.09375 48.828125 44.09375 54.296875 
Q 44.09375 59.90625 40.109375 62.90625 
Q 36.140625 65.921875 28.71875 65.921875 
Q 24.65625 65.921875 20.015625 65.03125 
Q 15.375 64.15625 9.8125 62.3125 
L 9.8125 71.09375 
Q 15.4375 72.65625 20.34375 73.4375 
Q 25.25 74.21875 29.59375 74.21875 
Q 40.828125 74.21875 47.359375 69.109375 
Q 53.90625 64.015625 53.90625 55.328125 
Q 53.90625 49.265625 50.4375 45.09375 
Q 46.96875 40.921875 40.578125 39.3125 
z
" id="DejaVuSans-51"/>
      </defs>
      <g transform="translate(151.057812 197.102149)scale(0.1 -0.1)">
       <use xlink:href="#DejaVuSans-8722"/>
       <use x="83.789062" xlink:href="#DejaVuSans-51"/>
      </g>
     </g>
    </g>
    <g id="ytick_6">
     <g id="line2d_11">
      <g>
       <use style="stroke:#000000;stroke-width:0.8;" x="172.8" xlink:href="#m7fd9c16656" y="164.681637"/>
      </g>
     </g>
     <g id="text_11">
      <!-- −2 -->
      <g transform="translate(151.057812 168.480856)scale(0.1 -0.1)">
       <use xlink:href="#DejaVuSans-8722"/>
       <use x="83.789062" xlink:href="#DejaVuSans-50"/>
      </g>
     </g>
    </g>
    <g id="ytick_7">
     <g id="line2d_12">
      <g>
       <use style="stroke:#000000;stroke-width:0.8;" x="172.8" xlink:href="#m7fd9c16656" y="136.060344"/>
      </g>
     </g>
     <g id="text_12">
      <!-- −1 -->
      <g transform="translate(151.057812 139.859562)scale(0.1 -0.1)">
       <use xlink:href="#DejaVuSans-8722"/>
       <use x="83.789062" xlink:href="#DejaVuSans-49"/>
      </g>
     </g>
    </g>
    <g id="ytick_8">
     <g id="line2d_13">
      <g>
       <use style="stroke:#000000;stroke-width:0.8;" x="172.8" xlink:href="#m7fd9c16656" y="107.43905"/>
      </g>
     </g>
     <g id="text_13">
      <!-- 0 -->
      <g transform="translate(159.4375 111.238269)scale(0.1 -0.1)">
       <use xlink:href="#DejaVuSans-48"/>
      </g>
     </g>
    </g>
   </g>
   <g id="line2d_14">
    <path clip-path="url(#p6f96d74e28)" d="M 194.935537 107.441122 
L 196.835583 107.925551 
L 198.735629 108.759716 
L 202.535722 110.68284 
L 208.23586 113.311714 
L 210.135906 114.649068 
L 212.035952 116.480981 
L 213.935998 118.787241 
L 217.736091 124.064118 
L 219.636137 125.941596 
L 227.236321 130.01952 
L 231.036413 131.032854 
L 234.836506 132.843003 
L 236.736552 132.841462 
L 238.636598 132.017807 
L 240.536644 131.760745 
L 242.43669 132.103183 
L 244.336736 132.012458 
L 246.236782 132.823556 
L 248.136828 134.799304 
L 250.036874 135.83658 
L 251.936921 136.518628 
L 253.836967 137.990388 
L 255.737013 138.766466 
L 257.637059 138.857389 
L 261.437151 141.188307 
L 263.337197 141.03864 
L 265.237243 142.009119 
L 267.137289 143.113443 
L 269.037336 141.726914 
L 270.937382 141.119669 
L 272.837428 141.869378 
L 274.737474 141.246048 
L 276.63752 139.988385 
L 278.537566 140.463153 
L 280.437612 140.471826 
L 282.337658 139.087774 
L 284.237704 138.982406 
L 286.137751 139.250226 
L 288.037797 137.791525 
L 289.937843 137.085671 
L 291.837889 137.952593 
L 293.737935 137.480834 
L 295.637981 136.808043 
L 297.538027 137.752422 
L 299.438073 137.457195 
L 301.338119 135.931076 
L 305.138212 136.262228 
L 307.038258 135.071239 
L 308.938304 135.572089 
L 310.83835 136.903684 
L 312.738396 136.425078 
L 314.638442 136.234147 
L 316.538488 137.902091 
L 318.438534 137.661105 
L 320.33858 136.838887 
L 322.238627 138.651617 
L 324.138673 139.923613 
L 326.038719 139.793199 
L 327.938765 141.750943 
L 329.838811 144.439687 
L 331.738857 144.348125 
L 333.638903 144.703658 
L 335.538949 147.559995 
L 337.438995 147.90826 
L 339.339042 147.693828 
L 341.239088 150.689968 
L 343.139134 152.973395 
L 345.03918 152.852491 
L 346.939226 155.336092 
L 348.839272 157.053528 
L 350.739318 154.56274 
L 352.639364 156.683973 
L 354.53941 160.658465 
L 356.439457 159.832557 
L 358.339503 159.920007 
L 360.239549 162.065075 
L 362.139595 160.99843 
L 364.039641 162.823313 
L 365.939687 166.303324 
L 367.839733 164.232943 
L 369.739779 163.917538 
L 371.639825 167.105905 
L 375.439918 168.131186 
L 377.339964 169.43575 
L 379.24001 170.259994 
L 381.140056 171.634231 
L 386.840194 177.100687 
L 388.74024 179.024648 
L 390.640287 181.557751 
L 392.540333 181.788214 
L 394.440379 183.861859 
L 396.340425 188.325268 
L 398.240471 189.346013 
L 400.140517 157.873637 
L 402.040563 172.753416 
L 403.940609 179.857184 
L 405.840655 184.017498 
L 407.740702 197.947378 
L 409.640748 194.448502 
L 411.540794 178.457121 
L 413.44084 173.082241 
L 415.340886 170.45862 
L 417.240932 166.423916 
L 419.140978 174.371299 
L 421.041024 187.373447 
L 422.94107 197.589004 
L 424.841117 200.515192 
L 426.741163 198.191685 
L 428.641209 192.40469 
L 430.541255 183.363209 
L 432.441301 177.444306 
L 434.341347 179.390595 
L 436.241393 189.583754 
L 438.141439 202.127114 
L 440.041485 211.337837 
L 441.941532 214.231504 
L 443.841578 210.500365 
L 445.741624 201.869665 
L 447.64167 191.774378 
L 449.541716 186.165267 
L 451.441762 190.490772 
L 453.341808 198.218721 
L 455.241854 209.211963 
L 457.1419 217.467281 
L 459.041947 217.712079 
L 460.941993 212.162444 
L 464.742085 193.6328 
L 466.642131 190.740375 
L 468.542177 196.13728 
L 470.442223 206.060421 
L 472.342269 218.123035 
L 474.242315 226.869677 
L 476.142362 227.432252 
L 478.042408 223.07332 
L 481.8425 208.71656 
L 483.742546 208.99288 
L 485.642592 216.746126 
L 487.542638 227.910272 
L 489.442684 241.187031 
L 491.34273 251.701035 
L 493.242777 253.969991 
L 495.142823 249.881513 
L 498.942915 240.939426 
L 500.842961 241.66083 
L 502.743007 251.122742 
L 504.643053 265.484781 
L 506.543099 277.885049 
L 508.443145 287.543256 
L 510.343192 291.085559 
L 512.243238 285.841736 
L 514.143284 279.768309 
L 516.04333 275.799103 
L 517.943376 274.966034 
L 519.843422 283.098807 
L 521.743468 295.249024 
L 523.643514 305.427231 
L 525.54356 313.973085 
L 527.443607 314.484055 
L 533.143745 292.959407 
L 535.043791 290.816689 
L 536.943837 297.437255 
L 540.743929 314.362476 
L 542.643975 321.387382 
L 544.544022 320.057233 
L 546.444068 310.385069 
L 548.344114 300.071532 
L 550.24416 291.872936 
L 552.144206 286.725261 
L 554.044252 288.131915 
L 555.944298 296.525865 
L 557.844344 304.054279 
L 559.74439 307.21596 
L 561.644437 304.25414 
L 563.544483 295.271994 
L 565.444529 282.787115 
L 567.344575 271.138722 
L 569.244621 264.776636 
L 571.144667 269.912277 
L 573.044713 276.089743 
L 574.944759 281.74202 
L 576.844805 283.201466 
L 578.744852 278.59281 
L 582.544944 263.688562 
L 584.44499 264.163636 
L 586.345036 270.489629 
L 588.245082 281.780206 
L 590.145128 292.189368 
L 592.045174 291.231376 
L 593.94522 285.63377 
L 595.845267 283.631861 
L 597.745313 284.832173 
L 599.645359 297.70747 
L 601.545405 304.918033 
L 603.445451 314.36526 
L 605.345497 315.202168 
L 607.245543 305.642625 
L 609.145589 310.576263 
L 611.045635 306.257497 
L 612.945682 306.050973 
L 614.845728 317.642978 
L 616.745774 318.619556 
L 618.64582 313.937979 
L 620.545866 317.084739 
L 622.445912 311.881492 
L 624.345958 301.163289 
L 626.246004 313.009681 
L 628.14605 303.808043 
L 630.046097 308.569872 
L 631.946143 307.597763 
L 633.846189 300.899224 
L 635.746235 296.033432 
L 637.646281 298.695957 
L 637.646281 298.695957 
" style="fill:none;stroke:#ff796c;stroke-linecap:square;stroke-width:1.5;"/>
   </g>
   <g id="line2d_15">
    <path clip-path="url(#p6f96d74e28)" d="M 194.935537 96.191018 
L 231.036413 96.284792 
L 244.336736 96.600603 
L 255.737013 97.065131 
L 267.137289 97.76376 
L 280.437612 98.899871 
L 295.637981 100.490404 
L 335.538949 104.819928 
L 358.339503 107.156312 
L 375.439918 109.334845 
L 388.74024 110.922809 
L 396.340425 111.654748 
L 398.240471 111.822318 
L 400.140517 112.240116 
L 417.240932 114.010871 
L 426.741163 115.249498 
L 438.141439 116.996425 
L 455.241854 119.673296 
L 464.742085 120.936076 
L 474.242315 121.962604 
L 483.742546 122.729119 
L 493.242777 123.295186 
L 508.443145 123.894422 
L 525.54356 124.50113 
L 535.043791 125.056493 
L 542.643975 125.724631 
L 552.144206 126.795216 
L 561.644437 128.148129 
L 578.744852 130.582116 
L 582.544944 131.014766 
L 586.345036 131.135462 
L 597.745313 130.74578 
L 603.445451 130.342553 
L 618.64582 129.626043 
L 626.246004 129.692374 
L 631.946143 129.958729 
L 637.646281 130.371863 
L 637.646281 130.371863 
" style="fill:none;stroke:#ffff14;stroke-linecap:square;stroke-width:1.5;"/>
   </g>
   <g id="line2d_16">
    <path clip-path="url(#p6f96d74e28)" d="M 194.935537 96.199494 
L 210.135906 96.318233 
L 225.336275 96.673079 
L 240.536644 97.259945 
L 255.737013 98.072066 
L 270.937382 99.100082 
L 286.137751 100.332147 
L 303.238166 101.944356 
L 320.33858 103.773271 
L 339.339042 106.027027 
L 360.239549 108.728541 
L 386.840194 112.412971 
L 434.341347 119.289108 
L 466.642131 123.852963 
L 489.442684 126.867769 
L 510.343192 129.404193 
L 529.343653 131.473364 
L 546.444068 133.110873 
L 563.544483 134.510611 
L 578.744852 135.538627 
L 593.94522 136.350748 
L 609.145589 136.937614 
L 624.345958 137.29246 
L 637.646281 137.409342 
L 637.646281 137.409342 
" style="fill:none;stroke:#014d4e;stroke-linecap:square;stroke-width:1.5;"/>
   </g>
   <g id="line2d_17">
    <path clip-path="url(#p6f96d74e28)" d="M 194.935537 107.447526 
L 210.135906 107.566244 
L 231.036413 108.020528 
L 255.737013 108.445985 
L 270.937382 108.479913 
L 288.037797 108.270848 
L 312.738396 107.969991 
L 327.938765 108.043232 
L 341.239088 108.322566 
L 360.239549 108.780938 
L 386.840194 109.141581 
L 394.440379 109.448815 
L 398.240471 109.663921 
L 400.140517 109.52052 
L 417.240932 110.233525 
L 426.741163 110.37709 
L 438.141439 110.28003 
L 457.1419 110.03098 
L 466.642131 110.13215 
L 476.142362 110.440461 
L 487.542638 111.085658 
L 498.942915 111.94422 
L 523.643514 113.905076 
L 533.143745 114.372378 
L 540.743929 114.489464 
L 548.344114 114.387522 
L 555.944298 114.044254 
L 569.244621 113.085274 
L 582.544944 112.186591 
L 586.345036 112.275907 
L 599.645359 113.446322 
L 605.345497 114.003944 
L 620.545866 115.041493 
L 628.14605 115.021647 
L 631.946143 114.861814 
L 637.646281 114.476529 
L 637.646281 114.476529 
" style="fill:none;stroke:#e50000;stroke-linecap:square;stroke-width:1.5;"/>
   </g>
   <g id="patch_3">
    <path d="M 172.8 332.6472 
L 172.8 84.9312 
" style="fill:none;stroke:#000000;stroke-linecap:square;stroke-linejoin:miter;stroke-width:0.8;"/>
   </g>
   <g id="patch_4">
    <path d="M 659.781818 332.6472 
L 659.781818 84.9312 
" style="fill:none;stroke:#000000;stroke-linecap:square;stroke-linejoin:miter;stroke-width:0.8;"/>
   </g>
   <g id="patch_5">
    <path d="M 172.8 332.6472 
L 659.781818 332.6472 
" style="fill:none;stroke:#000000;stroke-linecap:square;stroke-linejoin:miter;stroke-width:0.8;"/>
   </g>
   <g id="patch_6">
    <path d="M 172.8 84.9312 
L 659.781818 84.9312 
" style="fill:none;stroke:#000000;stroke-linecap:square;stroke-linejoin:miter;stroke-width:0.8;"/>
   </g>
   <g id="text_14">
    <!-- Right abduction -->
    <defs>
     <path d="M 44.390625 34.1875 
Q 47.5625 33.109375 50.5625 29.59375 
Q 53.5625 26.078125 56.59375 19.921875 
L 66.609375 0 
L 56 0 
L 46.6875 18.703125 
Q 43.0625 26.03125 39.671875 28.421875 
Q 36.28125 30.8125 30.421875 30.8125 
L 19.671875 30.8125 
L 19.671875 0 
L 9.8125 0 
L 9.8125 72.90625 
L 32.078125 72.90625 
Q 44.578125 72.90625 50.734375 67.671875 
Q 56.890625 62.453125 56.890625 51.90625 
Q 56.890625 45.015625 53.6875 40.46875 
Q 50.484375 35.9375 44.390625 34.1875 
z
M 19.671875 64.796875 
L 19.671875 38.921875 
L 32.078125 38.921875 
Q 39.203125 38.921875 42.84375 42.21875 
Q 46.484375 45.515625 46.484375 51.90625 
Q 46.484375 58.296875 42.84375 61.546875 
Q 39.203125 64.796875 32.078125 64.796875 
z
" id="DejaVuSans-82"/>
     <path d="M 9.421875 54.6875 
L 18.40625 54.6875 
L 18.40625 0 
L 9.421875 0 
z
M 9.421875 75.984375 
L 18.40625 75.984375 
L 18.40625 64.59375 
L 9.421875 64.59375 
z
" id="DejaVuSans-105"/>
     <path d="M 45.40625 27.984375 
Q 45.40625 37.75 41.375 43.109375 
Q 37.359375 48.484375 30.078125 48.484375 
Q 22.859375 48.484375 18.828125 43.109375 
Q 14.796875 37.75 14.796875 27.984375 
Q 14.796875 18.265625 18.828125 12.890625 
Q 22.859375 7.515625 30.078125 7.515625 
Q 37.359375 7.515625 41.375 12.890625 
Q 45.40625 18.265625 45.40625 27.984375 
z
M 54.390625 6.78125 
Q 54.390625 -7.171875 48.1875 -13.984375 
Q 42 -20.796875 29.203125 -20.796875 
Q 24.46875 -20.796875 20.265625 -20.09375 
Q 16.0625 -19.390625 12.109375 -17.921875 
L 12.109375 -9.1875 
Q 16.0625 -11.328125 19.921875 -12.34375 
Q 23.78125 -13.375 27.78125 -13.375 
Q 36.625 -13.375 41.015625 -8.765625 
Q 45.40625 -4.15625 45.40625 5.171875 
L 45.40625 9.625 
Q 42.625 4.78125 38.28125 2.390625 
Q 33.9375 0 27.875 0 
Q 17.828125 0 11.671875 7.65625 
Q 5.515625 15.328125 5.515625 27.984375 
Q 5.515625 40.671875 11.671875 48.328125 
Q 17.828125 56 27.875 56 
Q 33.9375 56 38.28125 53.609375 
Q 42.625 51.21875 45.40625 46.390625 
L 45.40625 54.6875 
L 54.390625 54.6875 
z
" id="DejaVuSans-103"/>
     <path d="M 54.890625 33.015625 
L 54.890625 0 
L 45.90625 0 
L 45.90625 32.71875 
Q 45.90625 40.484375 42.875 44.328125 
Q 39.84375 48.1875 33.796875 48.1875 
Q 26.515625 48.1875 22.3125 43.546875 
Q 18.109375 38.921875 18.109375 30.90625 
L 18.109375 0 
L 9.078125 0 
L 9.078125 75.984375 
L 18.109375 75.984375 
L 18.109375 46.1875 
Q 21.34375 51.125 25.703125 53.5625 
Q 30.078125 56 35.796875 56 
Q 45.21875 56 50.046875 50.171875 
Q 54.890625 44.34375 54.890625 33.015625 
z
" id="DejaVuSans-104"/>
     <path d="M 18.3125 70.21875 
L 18.3125 54.6875 
L 36.8125 54.6875 
L 36.8125 47.703125 
L 18.3125 47.703125 
L 18.3125 18.015625 
Q 18.3125 11.328125 20.140625 9.421875 
Q 21.96875 7.515625 27.59375 7.515625 
L 36.8125 7.515625 
L 36.8125 0 
L 27.59375 0 
Q 17.1875 0 13.234375 3.875 
Q 9.28125 7.765625 9.28125 18.015625 
L 9.28125 47.703125 
L 2.6875 47.703125 
L 2.6875 54.6875 
L 9.28125 54.6875 
L 9.28125 70.21875 
z
" id="DejaVuSans-116"/>
     <path id="DejaVuSans-32"/>
     <path d="M 34.28125 27.484375 
Q 23.390625 27.484375 19.1875 25 
Q 14.984375 22.515625 14.984375 16.5 
Q 14.984375 11.71875 18.140625 8.90625 
Q 21.296875 6.109375 26.703125 6.109375 
Q 34.1875 6.109375 38.703125 11.40625 
Q 43.21875 16.703125 43.21875 25.484375 
L 43.21875 27.484375 
z
M 52.203125 31.203125 
L 52.203125 0 
L 43.21875 0 
L 43.21875 8.296875 
Q 40.140625 3.328125 35.546875 0.953125 
Q 30.953125 -1.421875 24.3125 -1.421875 
Q 15.921875 -1.421875 10.953125 3.296875 
Q 6 8.015625 6 15.921875 
Q 6 25.140625 12.171875 29.828125 
Q 18.359375 34.515625 30.609375 34.515625 
L 43.21875 34.515625 
L 43.21875 35.40625 
Q 43.21875 41.609375 39.140625 45 
Q 35.0625 48.390625 27.6875 48.390625 
Q 23 48.390625 18.546875 47.265625 
Q 14.109375 46.140625 10.015625 43.890625 
L 10.015625 52.203125 
Q 14.9375 54.109375 19.578125 55.046875 
Q 24.21875 56 28.609375 56 
Q 40.484375 56 46.34375 49.84375 
Q 52.203125 43.703125 52.203125 31.203125 
z
" id="DejaVuSans-97"/>
     <path d="M 48.6875 27.296875 
Q 48.6875 37.203125 44.609375 42.84375 
Q 40.53125 48.484375 33.40625 48.484375 
Q 26.265625 48.484375 22.1875 42.84375 
Q 18.109375 37.203125 18.109375 27.296875 
Q 18.109375 17.390625 22.1875 11.75 
Q 26.265625 6.109375 33.40625 6.109375 
Q 40.53125 6.109375 44.609375 11.75 
Q 48.6875 17.390625 48.6875 27.296875 
z
M 18.109375 46.390625 
Q 20.953125 51.265625 25.265625 53.625 
Q 29.59375 56 35.59375 56 
Q 45.5625 56 51.78125 48.09375 
Q 58.015625 40.1875 58.015625 27.296875 
Q 58.015625 14.40625 51.78125 6.484375 
Q 45.5625 -1.421875 35.59375 -1.421875 
Q 29.59375 -1.421875 25.265625 0.953125 
Q 20.953125 3.328125 18.109375 8.203125 
L 18.109375 0 
L 9.078125 0 
L 9.078125 75.984375 
L 18.109375 75.984375 
z
" id="DejaVuSans-98"/>
     <path d="M 45.40625 46.390625 
L 45.40625 75.984375 
L 54.390625 75.984375 
L 54.390625 0 
L 45.40625 0 
L 45.40625 8.203125 
Q 42.578125 3.328125 38.25 0.953125 
Q 33.9375 -1.421875 27.875 -1.421875 
Q 17.96875 -1.421875 11.734375 6.484375 
Q 5.515625 14.40625 5.515625 27.296875 
Q 5.515625 40.1875 11.734375 48.09375 
Q 17.96875 56 27.875 56 
Q 33.9375 56 38.25 53.625 
Q 42.578125 51.265625 45.40625 46.390625 
z
M 14.796875 27.296875 
Q 14.796875 17.390625 18.875 11.75 
Q 22.953125 6.109375 30.078125 6.109375 
Q 37.203125 6.109375 41.296875 11.75 
Q 45.40625 17.390625 45.40625 27.296875 
Q 45.40625 37.203125 41.296875 42.84375 
Q 37.203125 48.484375 30.078125 48.484375 
Q 22.953125 48.484375 18.875 42.84375 
Q 14.796875 37.203125 14.796875 27.296875 
z
" id="DejaVuSans-100"/>
     <path d="M 8.5 21.578125 
L 8.5 54.6875 
L 17.484375 54.6875 
L 17.484375 21.921875 
Q 17.484375 14.15625 20.5 10.265625 
Q 23.53125 6.390625 29.59375 6.390625 
Q 36.859375 6.390625 41.078125 11.03125 
Q 45.3125 15.671875 45.3125 23.6875 
L 45.3125 54.6875 
L 54.296875 54.6875 
L 54.296875 0 
L 45.3125 0 
L 45.3125 8.40625 
Q 42.046875 3.421875 37.71875 1 
Q 33.40625 -1.421875 27.6875 -1.421875 
Q 18.265625 -1.421875 13.375 4.4375 
Q 8.5 10.296875 8.5 21.578125 
z
M 31.109375 56 
z
" id="DejaVuSans-117"/>
     <path d="M 48.78125 52.59375 
L 48.78125 44.1875 
Q 44.96875 46.296875 41.140625 47.34375 
Q 37.3125 48.390625 33.40625 48.390625 
Q 24.65625 48.390625 19.8125 42.84375 
Q 14.984375 37.3125 14.984375 27.296875 
Q 14.984375 17.28125 19.8125 11.734375 
Q 24.65625 6.203125 33.40625 6.203125 
Q 37.3125 6.203125 41.140625 7.25 
Q 44.96875 8.296875 48.78125 10.40625 
L 48.78125 2.09375 
Q 45.015625 0.34375 40.984375 -0.53125 
Q 36.96875 -1.421875 32.421875 -1.421875 
Q 20.0625 -1.421875 12.78125 6.34375 
Q 5.515625 14.109375 5.515625 27.296875 
Q 5.515625 40.671875 12.859375 48.328125 
Q 20.21875 56 33.015625 56 
Q 37.15625 56 41.109375 55.140625 
Q 45.0625 54.296875 48.78125 52.59375 
z
" id="DejaVuSans-99"/>
     <path d="M 30.609375 48.390625 
Q 23.390625 48.390625 19.1875 42.75 
Q 14.984375 37.109375 14.984375 27.296875 
Q 14.984375 17.484375 19.15625 11.84375 
Q 23.34375 6.203125 30.609375 6.203125 
Q 37.796875 6.203125 41.984375 11.859375 
Q 46.1875 17.53125 46.1875 27.296875 
Q 46.1875 37.015625 41.984375 42.703125 
Q 37.796875 48.390625 30.609375 48.390625 
z
M 30.609375 56 
Q 42.328125 56 49.015625 48.375 
Q 55.71875 40.765625 55.71875 27.296875 
Q 55.71875 13.875 49.015625 6.21875 
Q 42.328125 -1.421875 30.609375 -1.421875 
Q 18.84375 -1.421875 12.171875 6.21875 
Q 5.515625 13.875 5.515625 27.296875 
Q 5.515625 40.765625 12.171875 48.375 
Q 18.84375 56 30.609375 56 
z
" id="DejaVuSans-111"/>
     <path d="M 54.890625 33.015625 
L 54.890625 0 
L 45.90625 0 
L 45.90625 32.71875 
Q 45.90625 40.484375 42.875 44.328125 
Q 39.84375 48.1875 33.796875 48.1875 
Q 26.515625 48.1875 22.3125 43.546875 
Q 18.109375 38.921875 18.109375 30.90625 
L 18.109375 0 
L 9.078125 0 
L 9.078125 54.6875 
L 18.109375 54.6875 
L 18.109375 46.1875 
Q 21.34375 51.125 25.703125 53.5625 
Q 30.078125 56 35.796875 56 
Q 45.21875 56 50.046875 50.171875 
Q 54.890625 44.34375 54.890625 33.015625 
z
" id="DejaVuSans-110"/>
    </defs>
    <g transform="translate(368.694972 78.9312)scale(0.12 -0.12)">
     <use xlink:href="#DejaVuSans-82"/>
     <use x="69.482422" xlink:href="#DejaVuSans-105"/>
     <use x="97.265625" xlink:href="#DejaVuSans-103"/>
     <use x="160.742188" xlink:href="#DejaVuSans-104"/>
     <use x="224.121094" xlink:href="#DejaVuSans-116"/>
     <use x="263.330078" xlink:href="#DejaVuSans-32"/>
     <use x="295.117188" xlink:href="#DejaVuSans-97"/>
     <use x="356.396484" xlink:href="#DejaVuSans-98"/>
     <use x="419.873047" xlink:href="#DejaVuSans-100"/>
     <use x="483.349609" xlink:href="#DejaVuSans-117"/>
     <use x="546.728516" xlink:href="#DejaVuSans-99"/>
     <use x="601.708984" xlink:href="#DejaVuSans-116"/>
     <use x="640.917969" xlink:href="#DejaVuSans-105"/>
     <use x="668.701172" xlink:href="#DejaVuSans-111"/>
     <use x="729.882812" xlink:href="#DejaVuSans-110"/>
    </g>
   </g>
  </g>
  <g id="axes_2">
   <g id="patch_7">
    <path d="M 757.178182 332.6472 
L 1244.16 332.6472 
L 1244.16 84.9312 
L 757.178182 84.9312 
z
" style="fill:#ffffff;"/>
   </g>
   <g id="matplotlib.axis_3">
    <g id="xtick_6">
     <g id="line2d_18">
      <g>
       <use style="stroke:#000000;stroke-width:0.8;" x="779.313719" xlink:href="#m0516bbfd39" y="332.6472"/>
      </g>
     </g>
     <g id="text_15">
      <!-- 0 -->
      <g transform="translate(776.132469 347.245637)scale(0.1 -0.1)">
       <use xlink:href="#DejaVuSans-48"/>
      </g>
     </g>
    </g>
    <g id="xtick_7">
     <g id="line2d_19">
      <g>
       <use style="stroke:#000000;stroke-width:0.8;" x="874.316025" xlink:href="#m0516bbfd39" y="332.6472"/>
      </g>
     </g>
     <g id="text_16">
      <!-- 50 -->
      <g transform="translate(867.953525 347.245637)scale(0.1 -0.1)">
       <use xlink:href="#DejaVuSans-53"/>
       <use x="63.623047" xlink:href="#DejaVuSans-48"/>
      </g>
     </g>
    </g>
    <g id="xtick_8">
     <g id="line2d_20">
      <g>
       <use style="stroke:#000000;stroke-width:0.8;" x="969.31833" xlink:href="#m0516bbfd39" y="332.6472"/>
      </g>
     </g>
     <g id="text_17">
      <!-- 100 -->
      <g transform="translate(959.77458 347.245637)scale(0.1 -0.1)">
       <use xlink:href="#DejaVuSans-49"/>
       <use x="63.623047" xlink:href="#DejaVuSans-48"/>
       <use x="127.246094" xlink:href="#DejaVuSans-48"/>
      </g>
     </g>
    </g>
    <g id="xtick_9">
     <g id="line2d_21">
      <g>
       <use style="stroke:#000000;stroke-width:0.8;" x="1064.320636" xlink:href="#m0516bbfd39" y="332.6472"/>
      </g>
     </g>
     <g id="text_18">
      <!-- 150 -->
      <g transform="translate(1054.776886 347.245637)scale(0.1 -0.1)">
       <use xlink:href="#DejaVuSans-49"/>
       <use x="63.623047" xlink:href="#DejaVuSans-53"/>
       <use x="127.246094" xlink:href="#DejaVuSans-48"/>
      </g>
     </g>
    </g>
    <g id="xtick_10">
     <g id="line2d_22">
      <g>
       <use style="stroke:#000000;stroke-width:0.8;" x="1159.322941" xlink:href="#m0516bbfd39" y="332.6472"/>
      </g>
     </g>
     <g id="text_19">
      <!-- 200 -->
      <g transform="translate(1149.779191 347.245637)scale(0.1 -0.1)">
       <use xlink:href="#DejaVuSans-50"/>
       <use x="63.623047" xlink:href="#DejaVuSans-48"/>
       <use x="127.246094" xlink:href="#DejaVuSans-48"/>
      </g>
     </g>
    </g>
   </g>
   <g id="matplotlib.axis_4">
    <g id="ytick_9">
     <g id="line2d_23">
      <g>
       <use style="stroke:#000000;stroke-width:0.8;" x="757.178182" xlink:href="#m7fd9c16656" y="328.871939"/>
      </g>
     </g>
     <g id="text_20">
      <!-- −1.0 -->
      <defs>
       <path d="M 10.6875 12.40625 
L 21 12.40625 
L 21 0 
L 10.6875 0 
z
" id="DejaVuSans-46"/>
      </defs>
      <g transform="translate(725.895369 332.671157)scale(0.1 -0.1)">
       <use xlink:href="#DejaVuSans-8722"/>
       <use x="83.789062" xlink:href="#DejaVuSans-49"/>
       <use x="147.412109" xlink:href="#DejaVuSans-46"/>
       <use x="179.199219" xlink:href="#DejaVuSans-48"/>
      </g>
     </g>
    </g>
    <g id="ytick_10">
     <g id="line2d_24">
      <g>
       <use style="stroke:#000000;stroke-width:0.8;" x="757.178182" xlink:href="#m7fd9c16656" y="297.489179"/>
      </g>
     </g>
     <g id="text_21">
      <!-- −0.8 -->
      <defs>
       <path d="M 31.78125 34.625 
Q 24.75 34.625 20.71875 30.859375 
Q 16.703125 27.09375 16.703125 20.515625 
Q 16.703125 13.921875 20.71875 10.15625 
Q 24.75 6.390625 31.78125 6.390625 
Q 38.8125 6.390625 42.859375 10.171875 
Q 46.921875 13.96875 46.921875 20.515625 
Q 46.921875 27.09375 42.890625 30.859375 
Q 38.875 34.625 31.78125 34.625 
z
M 21.921875 38.8125 
Q 15.578125 40.375 12.03125 44.71875 
Q 8.5 49.078125 8.5 55.328125 
Q 8.5 64.0625 14.71875 69.140625 
Q 20.953125 74.21875 31.78125 74.21875 
Q 42.671875 74.21875 48.875 69.140625 
Q 55.078125 64.0625 55.078125 55.328125 
Q 55.078125 49.078125 51.53125 44.71875 
Q 48 40.375 41.703125 38.8125 
Q 48.828125 37.15625 52.796875 32.3125 
Q 56.78125 27.484375 56.78125 20.515625 
Q 56.78125 9.90625 50.3125 4.234375 
Q 43.84375 -1.421875 31.78125 -1.421875 
Q 19.734375 -1.421875 13.25 4.234375 
Q 6.78125 9.90625 6.78125 20.515625 
Q 6.78125 27.484375 10.78125 32.3125 
Q 14.796875 37.15625 21.921875 38.8125 
z
M 18.3125 54.390625 
Q 18.3125 48.734375 21.84375 45.5625 
Q 25.390625 42.390625 31.78125 42.390625 
Q 38.140625 42.390625 41.71875 45.5625 
Q 45.3125 48.734375 45.3125 54.390625 
Q 45.3125 60.0625 41.71875 63.234375 
Q 38.140625 66.40625 31.78125 66.40625 
Q 25.390625 66.40625 21.84375 63.234375 
Q 18.3125 60.0625 18.3125 54.390625 
z
" id="DejaVuSans-56"/>
      </defs>
      <g transform="translate(725.895369 301.288398)scale(0.1 -0.1)">
       <use xlink:href="#DejaVuSans-8722"/>
       <use x="83.789062" xlink:href="#DejaVuSans-48"/>
       <use x="147.412109" xlink:href="#DejaVuSans-46"/>
       <use x="179.199219" xlink:href="#DejaVuSans-56"/>
      </g>
     </g>
    </g>
    <g id="ytick_11">
     <g id="line2d_25">
      <g>
       <use style="stroke:#000000;stroke-width:0.8;" x="757.178182" xlink:href="#m7fd9c16656" y="266.106419"/>
      </g>
     </g>
     <g id="text_22">
      <!-- −0.6 -->
      <g transform="translate(725.895369 269.905638)scale(0.1 -0.1)">
       <use xlink:href="#DejaVuSans-8722"/>
       <use x="83.789062" xlink:href="#DejaVuSans-48"/>
       <use x="147.412109" xlink:href="#DejaVuSans-46"/>
       <use x="179.199219" xlink:href="#DejaVuSans-54"/>
      </g>
     </g>
    </g>
    <g id="ytick_12">
     <g id="line2d_26">
      <g>
       <use style="stroke:#000000;stroke-width:0.8;" x="757.178182" xlink:href="#m7fd9c16656" y="234.723659"/>
      </g>
     </g>
     <g id="text_23">
      <!-- −0.4 -->
      <g transform="translate(725.895369 238.522878)scale(0.1 -0.1)">
       <use xlink:href="#DejaVuSans-8722"/>
       <use x="83.789062" xlink:href="#DejaVuSans-48"/>
       <use x="147.412109" xlink:href="#DejaVuSans-46"/>
       <use x="179.199219" xlink:href="#DejaVuSans-52"/>
      </g>
     </g>
    </g>
    <g id="ytick_13">
     <g id="line2d_27">
      <g>
       <use style="stroke:#000000;stroke-width:0.8;" x="757.178182" xlink:href="#m7fd9c16656" y="203.340899"/>
      </g>
     </g>
     <g id="text_24">
      <!-- −0.2 -->
      <g transform="translate(725.895369 207.140118)scale(0.1 -0.1)">
       <use xlink:href="#DejaVuSans-8722"/>
       <use x="83.789062" xlink:href="#DejaVuSans-48"/>
       <use x="147.412109" xlink:href="#DejaVuSans-46"/>
       <use x="179.199219" xlink:href="#DejaVuSans-50"/>
      </g>
     </g>
    </g>
    <g id="ytick_14">
     <g id="line2d_28">
      <g>
       <use style="stroke:#000000;stroke-width:0.8;" x="757.178182" xlink:href="#m7fd9c16656" y="171.958139"/>
      </g>
     </g>
     <g id="text_25">
      <!-- 0.0 -->
      <g transform="translate(734.275057 175.757358)scale(0.1 -0.1)">
       <use xlink:href="#DejaVuSans-48"/>
       <use x="63.623047" xlink:href="#DejaVuSans-46"/>
       <use x="95.410156" xlink:href="#DejaVuSans-48"/>
      </g>
     </g>
    </g>
    <g id="ytick_15">
     <g id="line2d_29">
      <g>
       <use style="stroke:#000000;stroke-width:0.8;" x="757.178182" xlink:href="#m7fd9c16656" y="140.575379"/>
      </g>
     </g>
     <g id="text_26">
      <!-- 0.2 -->
      <g transform="translate(734.275057 144.374598)scale(0.1 -0.1)">
       <use xlink:href="#DejaVuSans-48"/>
       <use x="63.623047" xlink:href="#DejaVuSans-46"/>
       <use x="95.410156" xlink:href="#DejaVuSans-50"/>
      </g>
     </g>
    </g>
    <g id="ytick_16">
     <g id="line2d_30">
      <g>
       <use style="stroke:#000000;stroke-width:0.8;" x="757.178182" xlink:href="#m7fd9c16656" y="109.192619"/>
      </g>
     </g>
     <g id="text_27">
      <!-- 0.4 -->
      <g transform="translate(734.275057 112.991838)scale(0.1 -0.1)">
       <use xlink:href="#DejaVuSans-48"/>
       <use x="63.623047" xlink:href="#DejaVuSans-46"/>
       <use x="95.410156" xlink:href="#DejaVuSans-52"/>
      </g>
     </g>
    </g>
   </g>
   <g id="line2d_31">
    <path clip-path="url(#pab84a7d54c)" d="M 779.313719 171.965809 
L 821.114733 172.029316 
L 832.51501 172.0361 
L 859.115656 172.185983 
L 870.515932 172.302517 
L 895.216532 172.51715 
L 969.31833 172.492848 
L 976.918515 172.274396 
L 978.818561 172.168847 
L 982.618653 172.281612 
L 984.518699 169.439014 
L 986.418745 169.789303 
L 994.01893 170.512018 
L 997.819022 170.873165 
L 1001.619114 171.212574 
L 1011.119345 172.404081 
L 1020.619575 173.100135 
L 1033.919898 173.828454 
L 1051.020313 174.510387 
L 1066.220682 174.740125 
L 1081.421051 174.70124 
L 1089.021235 174.521664 
L 1096.62142 174.471331 
L 1104.221604 174.329457 
L 1113.721834 174.333792 
L 1125.122111 174.078022 
L 1132.722296 173.920054 
L 1140.32248 173.782367 
L 1147.922664 173.62875 
L 1157.422895 173.371366 
L 1168.823172 173.274424 
L 1170.723218 173.651187 
L 1172.623264 174.333368 
L 1174.52331 175.204339 
L 1176.423356 176.230569 
L 1178.323402 177.502404 
L 1180.223448 179.413393 
L 1182.123494 182.393588 
L 1184.023541 186.342938 
L 1185.923587 191.006154 
L 1187.823633 195.248849 
L 1189.723679 198.654163 
L 1191.623725 201.761533 
L 1193.523771 204.290166 
L 1195.423817 207.758167 
L 1199.223909 216.598512 
L 1203.024002 226.427341 
L 1204.924048 230.44613 
L 1206.824094 235.315568 
L 1210.624186 249.239588 
L 1216.324324 281.580866 
L 1218.224371 293.513861 
L 1220.124417 306.794578 
L 1222.024463 321.387382 
L 1222.024463 321.387382 
" style="fill:none;stroke:#ff796c;stroke-linecap:square;stroke-width:1.5;"/>
   </g>
   <g id="line2d_32">
    <path clip-path="url(#pab84a7d54c)" d="M 779.313719 108.760397 
L 982.618653 108.774744 
L 984.518699 109.018228 
L 1001.619114 108.817176 
L 1028.21976 108.690689 
L 1092.821327 108.656816 
L 1174.52331 108.586295 
L 1180.223448 108.290612 
L 1184.023541 107.8213 
L 1197.323863 105.512792 
L 1206.824094 103.05615 
L 1208.72414 102.480809 
L 1212.524232 101.04365 
L 1216.324324 99.325652 
L 1220.124417 97.360267 
L 1222.024463 96.191018 
L 1222.024463 96.191018 
" style="fill:none;stroke:#ffff14;stroke-linecap:square;stroke-width:1.5;"/>
   </g>
   <g id="line2d_33">
    <path clip-path="url(#pab84a7d54c)" d="M 779.313719 108.825083 
L 1222.024463 108.825083 
L 1222.024463 108.825083 
" style="fill:none;stroke:#014d4e;stroke-linecap:square;stroke-width:1.5;"/>
   </g>
   <g id="line2d_34">
    <path clip-path="url(#pab84a7d54c)" d="M 779.313719 172.022825 
L 982.618653 172.008478 
L 984.518699 171.764994 
L 1001.619114 171.966046 
L 1028.21976 172.092533 
L 1092.821327 172.126406 
L 1174.52331 172.196928 
L 1180.223448 172.49261 
L 1184.023541 172.961922 
L 1197.323863 175.27043 
L 1206.824094 177.727072 
L 1208.72414 178.302413 
L 1212.524232 179.739573 
L 1216.324324 181.45757 
L 1220.124417 183.422955 
L 1222.024463 184.592204 
L 1222.024463 184.592204 
" style="fill:none;stroke:#e50000;stroke-linecap:square;stroke-width:1.5;"/>
   </g>
   <g id="patch_8">
    <path d="M 757.178182 332.6472 
L 757.178182 84.9312 
" style="fill:none;stroke:#000000;stroke-linecap:square;stroke-linejoin:miter;stroke-width:0.8;"/>
   </g>
   <g id="patch_9">
    <path d="M 1244.16 332.6472 
L 1244.16 84.9312 
" style="fill:none;stroke:#000000;stroke-linecap:square;stroke-linejoin:miter;stroke-width:0.8;"/>
   </g>
   <g id="patch_10">
    <path d="M 757.178182 332.6472 
L 1244.16 332.6472 
" style="fill:none;stroke:#000000;stroke-linecap:square;stroke-linejoin:miter;stroke-width:0.8;"/>
   </g>
   <g id="patch_11">
    <path d="M 757.178182 84.9312 
L 1244.16 84.9312 
" style="fill:none;stroke:#000000;stroke-linecap:square;stroke-linejoin:miter;stroke-width:0.8;"/>
   </g>
   <g id="text_28">
    <!-- Right flexion -->
    <defs>
     <path d="M 37.109375 75.984375 
L 37.109375 68.5 
L 28.515625 68.5 
Q 23.6875 68.5 21.796875 66.546875 
Q 19.921875 64.59375 19.921875 59.515625 
L 19.921875 54.6875 
L 34.71875 54.6875 
L 34.71875 47.703125 
L 19.921875 47.703125 
L 19.921875 0 
L 10.890625 0 
L 10.890625 47.703125 
L 2.296875 47.703125 
L 2.296875 54.6875 
L 10.890625 54.6875 
L 10.890625 58.5 
Q 10.890625 67.625 15.140625 71.796875 
Q 19.390625 75.984375 28.609375 75.984375 
z
" id="DejaVuSans-102"/>
     <path d="M 9.421875 75.984375 
L 18.40625 75.984375 
L 18.40625 0 
L 9.421875 0 
z
" id="DejaVuSans-108"/>
     <path d="M 56.203125 29.59375 
L 56.203125 25.203125 
L 14.890625 25.203125 
Q 15.484375 15.921875 20.484375 11.0625 
Q 25.484375 6.203125 34.421875 6.203125 
Q 39.59375 6.203125 44.453125 7.46875 
Q 49.3125 8.734375 54.109375 11.28125 
L 54.109375 2.78125 
Q 49.265625 0.734375 44.1875 -0.34375 
Q 39.109375 -1.421875 33.890625 -1.421875 
Q 20.796875 -1.421875 13.15625 6.1875 
Q 5.515625 13.8125 5.515625 26.8125 
Q 5.515625 40.234375 12.765625 48.109375 
Q 20.015625 56 32.328125 56 
Q 43.359375 56 49.78125 48.890625 
Q 56.203125 41.796875 56.203125 29.59375 
z
M 47.21875 32.234375 
Q 47.125 39.59375 43.09375 43.984375 
Q 39.0625 48.390625 32.421875 48.390625 
Q 24.90625 48.390625 20.390625 44.140625 
Q 15.875 39.890625 15.1875 32.171875 
z
" id="DejaVuSans-101"/>
     <path d="M 54.890625 54.6875 
L 35.109375 28.078125 
L 55.90625 0 
L 45.3125 0 
L 29.390625 21.484375 
L 13.484375 0 
L 2.875 0 
L 24.125 28.609375 
L 4.6875 54.6875 
L 15.28125 54.6875 
L 29.78125 35.203125 
L 44.28125 54.6875 
z
" id="DejaVuSans-120"/>
    </defs>
    <g transform="translate(962.800653 78.9312)scale(0.12 -0.12)">
     <use xlink:href="#DejaVuSans-82"/>
     <use x="69.482422" xlink:href="#DejaVuSans-105"/>
     <use x="97.265625" xlink:href="#DejaVuSans-103"/>
     <use x="160.742188" xlink:href="#DejaVuSans-104"/>
     <use x="224.121094" xlink:href="#DejaVuSans-116"/>
     <use x="263.330078" xlink:href="#DejaVuSans-32"/>
     <use x="295.117188" xlink:href="#DejaVuSans-102"/>
     <use x="330.322266" xlink:href="#DejaVuSans-108"/>
     <use x="358.105469" xlink:href="#DejaVuSans-101"/>
     <use x="419.613281" xlink:href="#DejaVuSans-120"/>
     <use x="478.792969" xlink:href="#DejaVuSans-105"/>
     <use x="506.576172" xlink:href="#DejaVuSans-111"/>
     <use x="567.757812" xlink:href="#DejaVuSans-110"/>
    </g>
   </g>
  </g>
  <g id="axes_3">
   <g id="patch_12">
    <path d="M 172.8 629.9064 
L 659.781818 629.9064 
L 659.781818 382.1904 
L 172.8 382.1904 
z
" style="fill:#ffffff;"/>
   </g>
   <g id="matplotlib.axis_5">
    <g id="xtick_11">
     <g id="line2d_35">
      <g>
       <use style="stroke:#000000;stroke-width:0.8;" x="194.935537" xlink:href="#m0516bbfd39" y="629.9064"/>
      </g>
     </g>
     <g id="text_29">
      <!-- 0 -->
      <g transform="translate(191.754287 644.504838)scale(0.1 -0.1)">
       <use xlink:href="#DejaVuSans-48"/>
      </g>
     </g>
    </g>
    <g id="xtick_12">
     <g id="line2d_36">
      <g>
       <use style="stroke:#000000;stroke-width:0.8;" x="289.937843" xlink:href="#m0516bbfd39" y="629.9064"/>
      </g>
     </g>
     <g id="text_30">
      <!-- 50 -->
      <g transform="translate(283.575343 644.504838)scale(0.1 -0.1)">
       <use xlink:href="#DejaVuSans-53"/>
       <use x="63.623047" xlink:href="#DejaVuSans-48"/>
      </g>
     </g>
    </g>
    <g id="xtick_13">
     <g id="line2d_37">
      <g>
       <use style="stroke:#000000;stroke-width:0.8;" x="384.940148" xlink:href="#m0516bbfd39" y="629.9064"/>
      </g>
     </g>
     <g id="text_31">
      <!-- 100 -->
      <g transform="translate(375.396398 644.504838)scale(0.1 -0.1)">
       <use xlink:href="#DejaVuSans-49"/>
       <use x="63.623047" xlink:href="#DejaVuSans-48"/>
       <use x="127.246094" xlink:href="#DejaVuSans-48"/>
      </g>
     </g>
    </g>
    <g id="xtick_14">
     <g id="line2d_38">
      <g>
       <use style="stroke:#000000;stroke-width:0.8;" x="479.942454" xlink:href="#m0516bbfd39" y="629.9064"/>
      </g>
     </g>
     <g id="text_32">
      <!-- 150 -->
      <g transform="translate(470.398704 644.504838)scale(0.1 -0.1)">
       <use xlink:href="#DejaVuSans-49"/>
       <use x="63.623047" xlink:href="#DejaVuSans-53"/>
       <use x="127.246094" xlink:href="#DejaVuSans-48"/>
      </g>
     </g>
    </g>
    <g id="xtick_15">
     <g id="line2d_39">
      <g>
       <use style="stroke:#000000;stroke-width:0.8;" x="574.944759" xlink:href="#m0516bbfd39" y="629.9064"/>
      </g>
     </g>
     <g id="text_33">
      <!-- 200 -->
      <g transform="translate(565.401009 644.504838)scale(0.1 -0.1)">
       <use xlink:href="#DejaVuSans-50"/>
       <use x="63.623047" xlink:href="#DejaVuSans-48"/>
       <use x="127.246094" xlink:href="#DejaVuSans-48"/>
      </g>
     </g>
    </g>
   </g>
   <g id="matplotlib.axis_6">
    <g id="ytick_17">
     <g id="line2d_40">
      <g>
       <use style="stroke:#000000;stroke-width:0.8;" x="172.8" xlink:href="#m7fd9c16656" y="598.303364"/>
      </g>
     </g>
     <g id="text_34">
      <!-- −0.50 -->
      <g transform="translate(135.154687 602.102582)scale(0.1 -0.1)">
       <use xlink:href="#DejaVuSans-8722"/>
       <use x="83.789062" xlink:href="#DejaVuSans-48"/>
       <use x="147.412109" xlink:href="#DejaVuSans-46"/>
       <use x="179.199219" xlink:href="#DejaVuSans-53"/>
       <use x="242.822266" xlink:href="#DejaVuSans-48"/>
      </g>
     </g>
    </g>
    <g id="ytick_18">
     <g id="line2d_41">
      <g>
       <use style="stroke:#000000;stroke-width:0.8;" x="172.8" xlink:href="#m7fd9c16656" y="565.202687"/>
      </g>
     </g>
     <g id="text_35">
      <!-- −0.25 -->
      <g transform="translate(135.154687 569.001905)scale(0.1 -0.1)">
       <use xlink:href="#DejaVuSans-8722"/>
       <use x="83.789062" xlink:href="#DejaVuSans-48"/>
       <use x="147.412109" xlink:href="#DejaVuSans-46"/>
       <use x="179.199219" xlink:href="#DejaVuSans-50"/>
       <use x="242.822266" xlink:href="#DejaVuSans-53"/>
      </g>
     </g>
    </g>
    <g id="ytick_19">
     <g id="line2d_42">
      <g>
       <use style="stroke:#000000;stroke-width:0.8;" x="172.8" xlink:href="#m7fd9c16656" y="532.10201"/>
      </g>
     </g>
     <g id="text_36">
      <!-- 0.00 -->
      <g transform="translate(143.534375 535.901228)scale(0.1 -0.1)">
       <use xlink:href="#DejaVuSans-48"/>
       <use x="63.623047" xlink:href="#DejaVuSans-46"/>
       <use x="95.410156" xlink:href="#DejaVuSans-48"/>
       <use x="159.033203" xlink:href="#DejaVuSans-48"/>
      </g>
     </g>
    </g>
    <g id="ytick_20">
     <g id="line2d_43">
      <g>
       <use style="stroke:#000000;stroke-width:0.8;" x="172.8" xlink:href="#m7fd9c16656" y="499.001333"/>
      </g>
     </g>
     <g id="text_37">
      <!-- 0.25 -->
      <g transform="translate(143.534375 502.800551)scale(0.1 -0.1)">
       <use xlink:href="#DejaVuSans-48"/>
       <use x="63.623047" xlink:href="#DejaVuSans-46"/>
       <use x="95.410156" xlink:href="#DejaVuSans-50"/>
       <use x="159.033203" xlink:href="#DejaVuSans-53"/>
      </g>
     </g>
    </g>
    <g id="ytick_21">
     <g id="line2d_44">
      <g>
       <use style="stroke:#000000;stroke-width:0.8;" x="172.8" xlink:href="#m7fd9c16656" y="465.900656"/>
      </g>
     </g>
     <g id="text_38">
      <!-- 0.50 -->
      <g transform="translate(143.534375 469.699874)scale(0.1 -0.1)">
       <use xlink:href="#DejaVuSans-48"/>
       <use x="63.623047" xlink:href="#DejaVuSans-46"/>
       <use x="95.410156" xlink:href="#DejaVuSans-53"/>
       <use x="159.033203" xlink:href="#DejaVuSans-48"/>
      </g>
     </g>
    </g>
    <g id="ytick_22">
     <g id="line2d_45">
      <g>
       <use style="stroke:#000000;stroke-width:0.8;" x="172.8" xlink:href="#m7fd9c16656" y="432.799979"/>
      </g>
     </g>
     <g id="text_39">
      <!-- 0.75 -->
      <g transform="translate(143.534375 436.599198)scale(0.1 -0.1)">
       <use xlink:href="#DejaVuSans-48"/>
       <use x="63.623047" xlink:href="#DejaVuSans-46"/>
       <use x="95.410156" xlink:href="#DejaVuSans-55"/>
       <use x="159.033203" xlink:href="#DejaVuSans-53"/>
      </g>
     </g>
    </g>
    <g id="ytick_23">
     <g id="line2d_46">
      <g>
       <use style="stroke:#000000;stroke-width:0.8;" x="172.8" xlink:href="#m7fd9c16656" y="399.699302"/>
      </g>
     </g>
     <g id="text_40">
      <!-- 1.00 -->
      <g transform="translate(143.534375 403.498521)scale(0.1 -0.1)">
       <use xlink:href="#DejaVuSans-49"/>
       <use x="63.623047" xlink:href="#DejaVuSans-46"/>
       <use x="95.410156" xlink:href="#DejaVuSans-48"/>
       <use x="159.033203" xlink:href="#DejaVuSans-48"/>
      </g>
     </g>
    </g>
   </g>
   <g id="line2d_47">
    <path clip-path="url(#p49af807026)" d="M 194.935537 532.103818 
L 196.835583 532.795103 
L 198.735629 533.851392 
L 200.635676 534.771901 
L 202.535722 535.118582 
L 204.435768 534.724636 
L 208.23586 532.714565 
L 210.135906 532.050328 
L 212.035952 532.096179 
L 213.935998 532.82192 
L 215.836044 533.861206 
L 217.736091 534.699097 
L 219.636137 534.318407 
L 221.536183 532.754867 
L 223.436229 530.98938 
L 225.336275 529.827386 
L 227.236321 529.335466 
L 229.136367 529.515359 
L 231.036413 530.674587 
L 234.836506 534.772091 
L 236.736552 535.507172 
L 244.336736 532.815926 
L 246.236782 533.054381 
L 248.136828 534.321122 
L 250.036874 534.554495 
L 251.936921 534.036202 
L 253.836967 533.760837 
L 255.737013 532.74 
L 257.637059 531.273096 
L 259.537105 531.08377 
L 261.437151 531.458334 
L 263.337197 531.248191 
L 265.237243 532.290392 
L 267.137289 533.521623 
L 269.037336 532.270905 
L 270.937382 532.117497 
L 272.837428 533.19628 
L 274.737474 533.212775 
L 276.63752 532.730523 
L 278.537566 533.649447 
L 280.437612 534.084046 
L 282.337658 533.211985 
L 284.237704 533.199994 
L 286.137751 533.31478 
L 288.037797 531.993565 
L 289.937843 531.488514 
L 291.837889 532.577872 
L 293.737935 532.752864 
L 295.637981 532.744815 
L 297.538027 533.86462 
L 299.438073 533.590945 
L 301.338119 532.002627 
L 303.238166 531.826411 
L 305.138212 531.80202 
L 307.038258 531.01947 
L 308.938304 532.000362 
L 310.83835 533.791637 
L 312.738396 533.843662 
L 314.638442 533.700217 
L 316.538488 534.582463 
L 318.438534 533.413621 
L 320.33858 531.574453 
L 322.238627 532.061026 
L 324.138673 532.349309 
L 326.038719 531.678895 
L 327.938765 532.820302 
L 329.838811 534.361383 
L 333.638903 531.960004 
L 335.538949 532.681488 
L 339.339042 529.937682 
L 341.239088 531.644434 
L 343.139134 533.0503 
L 345.03918 532.30704 
L 346.939226 533.623009 
L 348.839272 532.931789 
L 350.739318 527.891138 
L 352.639364 528.874347 
L 354.53941 532.6776 
L 356.439457 530.925331 
L 358.339503 529.400217 
L 360.239549 530.151723 
L 362.139595 528.739251 
L 364.039641 531.089792 
L 365.939687 534.603361 
L 367.839733 531.363446 
L 369.739779 529.77546 
L 371.639825 532.572902 
L 373.539872 532.927878 
L 375.439918 532.905009 
L 377.339964 533.174926 
L 379.24001 532.704881 
L 381.140056 532.983327 
L 383.040102 533.741253 
L 384.940148 534.276691 
L 386.840194 534.152846 
L 388.74024 533.705451 
L 390.640287 533.650028 
L 392.540333 532.206644 
L 394.440379 534.427542 
L 396.340425 538.414361 
L 398.240471 537.467206 
L 400.140517 490.073912 
L 402.040563 511.510366 
L 403.940609 534.625574 
L 407.740702 574.421918 
L 409.640748 566.864749 
L 411.540794 538.37543 
L 413.44084 515.435737 
L 415.340886 500.391635 
L 417.240932 495.601329 
L 419.140978 512.322774 
L 421.041024 539.789528 
L 422.94107 562.798219 
L 424.841117 570.118799 
L 426.741163 560.636872 
L 428.641209 538.865741 
L 430.541255 512.547338 
L 432.441301 495.402244 
L 434.341347 496.698315 
L 436.241393 516.209278 
L 438.141439 542.894289 
L 440.041485 563.325622 
L 441.941532 568.200991 
L 443.841578 555.501254 
L 447.64167 505.043958 
L 449.541716 491.520628 
L 451.441762 498.928491 
L 453.341808 519.963097 
L 455.241854 547.322698 
L 457.1419 567.210201 
L 459.041947 568.892883 
L 460.941993 553.429562 
L 464.742085 503.181648 
L 466.642131 493.168511 
L 468.542177 502.50843 
L 470.442223 525.204304 
L 472.342269 551.690704 
L 474.242315 568.787082 
L 476.142362 566.925457 
L 478.042408 549.113106 
L 479.942454 522.966593 
L 481.8425 499.710927 
L 483.742546 492.787567 
L 485.642592 504.657598 
L 487.542638 528.278512 
L 489.442684 554.633175 
L 491.34273 571.14154 
L 493.242777 568.097155 
L 495.142823 547.867977 
L 497.042869 521.614168 
L 498.942915 498.994862 
L 500.842961 491.289478 
L 502.743007 503.761928 
L 506.543099 554.063126 
L 508.443145 569.005438 
L 510.343192 566.4487 
L 512.243238 545.253158 
L 514.143284 518.47215 
L 516.04333 497.523424 
L 517.943376 490.497508 
L 519.843422 504.12854 
L 523.643514 555.499053 
L 525.54356 571.480527 
L 527.443607 568.014648 
L 529.343653 546.615392 
L 531.243699 520.152403 
L 533.143745 497.343099 
L 535.043791 490.37614 
L 536.943837 504.107528 
L 540.743929 554.866152 
L 542.643975 571.941068 
L 544.544022 569.188691 
L 546.444068 547.527344 
L 548.344114 519.973644 
L 550.24416 497.991893 
L 552.144206 489.855075 
L 554.044252 500.948374 
L 557.844344 555.428741 
L 559.74439 571.841077 
L 561.644437 570.121939 
L 563.544483 550.875482 
L 565.444529 522.451563 
L 567.344575 497.66356 
L 569.244621 488.172004 
L 571.144667 503.392079 
L 574.944759 551.882233 
L 576.844805 565.692022 
L 578.744852 563.220841 
L 580.644898 547.798867 
L 582.544944 527.926799 
L 584.44499 523.319014 
L 586.345036 533.883379 
L 588.245082 552.424337 
L 590.145128 563.151309 
L 592.045174 550.372056 
L 593.94522 525.315928 
L 595.845267 506.819421 
L 597.745313 502.947372 
L 599.645359 521.582219 
L 601.545405 537.544011 
L 603.445451 550.23294 
L 605.345497 547.283227 
L 607.245543 528.725828 
L 609.145589 523.790234 
L 611.045635 516.40579 
L 612.945682 518.398805 
L 614.845728 533.311999 
L 616.745774 539.617726 
L 618.64582 537.468524 
L 620.545866 536.594682 
L 622.445912 527.511934 
L 624.345958 517.01081 
L 626.246004 533.436303 
L 628.14605 532.510775 
L 630.046097 545.537708 
L 631.946143 548.785984 
L 633.846189 543.49756 
L 635.746235 539.946707 
L 637.646281 546.163914 
L 637.646281 546.163914 
" style="fill:none;stroke:#ff796c;stroke-linecap:square;stroke-width:1.5;"/>
   </g>
   <g id="line2d_48">
    <path clip-path="url(#p49af807026)" d="M 194.935537 393.483603 
L 200.635676 393.59045 
L 204.435768 394.042643 
L 208.23586 394.834286 
L 217.736091 397.153047 
L 221.536183 398.430921 
L 225.336275 399.745746 
L 229.136367 400.707304 
L 232.936459 401.275328 
L 236.736552 401.858397 
L 240.536644 402.787635 
L 246.236782 404.51926 
L 250.036874 405.789074 
L 253.836967 407.283532 
L 259.537105 409.630763 
L 263.337197 410.950946 
L 284.237704 417.41674 
L 297.538027 422.416471 
L 303.238166 424.909931 
L 314.638442 430.00956 
L 318.438534 432.108505 
L 329.838811 439.094456 
L 335.538949 443.0666 
L 341.239088 447.094284 
L 346.939226 451.062 
L 352.639364 455.428844 
L 354.53941 456.677783 
L 362.139595 462.092939 
L 365.939687 464.453777 
L 369.739779 467.194295 
L 373.539872 469.724827 
L 379.24001 473.872122 
L 384.940148 478.237296 
L 390.640287 483.029843 
L 394.440379 486.169226 
L 396.340425 487.653535 
L 398.240471 489.343858 
L 400.140517 492.195671 
L 402.040563 492.560266 
L 405.840655 492.020014 
L 407.740702 492.518022 
L 409.640748 494.47899 
L 413.44084 500.93178 
L 415.340886 503.638349 
L 417.240932 505.258327 
L 419.140978 505.580335 
L 421.041024 505.184927 
L 422.94107 505.023899 
L 424.841117 505.888021 
L 426.741163 508.016569 
L 428.641209 511.086023 
L 430.541255 514.369333 
L 432.441301 516.962622 
L 434.341347 518.272404 
L 436.241393 518.344001 
L 438.141439 517.864129 
L 440.041485 517.758393 
L 441.941532 518.72898 
L 443.841578 520.945789 
L 447.64167 526.993213 
L 449.541716 529.099847 
L 451.441762 529.82777 
L 453.341808 529.453256 
L 455.241854 528.692324 
L 457.1419 528.492619 
L 459.041947 529.54515 
L 460.941993 531.899615 
L 464.742085 538.062162 
L 466.642131 540.141448 
L 468.542177 540.922481 
L 470.442223 540.735741 
L 472.342269 540.355635 
L 474.242315 540.694506 
L 476.142362 542.344962 
L 478.042408 545.229291 
L 479.942454 548.736668 
L 481.8425 551.975569 
L 483.742546 554.132117 
L 485.642592 554.973022 
L 489.442684 554.748444 
L 491.34273 555.387222 
L 493.242777 557.408258 
L 495.142823 560.697678 
L 497.042869 564.544421 
L 498.942915 568.058364 
L 500.842961 570.453229 
L 502.743007 571.44868 
L 506.543099 571.444296 
L 508.443145 572.172768 
L 510.343192 574.181503 
L 512.243238 577.387707 
L 514.143284 581.039078 
L 516.04333 584.211668 
L 517.943376 586.184543 
L 519.843422 586.693791 
L 523.643514 585.64957 
L 525.54356 585.854401 
L 527.443607 587.38807 
L 529.343653 590.126416 
L 531.243699 593.315063 
L 533.143745 596.051948 
L 535.043791 597.539183 
L 536.943837 597.526741 
L 538.843883 596.50166 
L 540.743929 595.306023 
L 542.643975 594.834102 
L 544.544022 595.693883 
L 546.444068 597.792537 
L 548.344114 600.3635 
L 550.24416 602.459381 
L 552.144206 603.332339 
L 554.044252 602.69456 
L 555.944298 600.926523 
L 557.844344 598.977495 
L 559.74439 597.813679 
L 561.644437 598.00719 
L 563.544483 599.505531 
L 565.444529 601.651077 
L 567.344575 603.464407 
L 569.244621 604.086417 
L 571.144667 603.096121 
L 574.944759 599.240547 
L 576.844805 598.044022 
L 578.744852 598.06045 
L 580.644898 599.201592 
L 582.544944 600.852281 
L 584.44499 601.89773 
L 586.345036 602.164121 
L 588.245082 602.203214 
L 590.145128 602.978204 
L 592.045174 605.099034 
L 593.94522 608.001993 
L 595.845267 610.545631 
L 597.745313 611.929678 
L 599.645359 612.026421 
L 601.545405 611.808442 
L 603.445451 611.961203 
L 605.345497 612.947967 
L 607.245543 614.623916 
L 609.145589 616.109004 
L 611.045635 617.158844 
L 612.945682 617.535352 
L 616.745774 617.260185 
L 618.64582 617.43596 
L 622.445912 618.453737 
L 624.345958 618.646582 
L 628.14605 617.078233 
L 630.046097 615.91573 
L 631.946143 615.131566 
L 635.746235 614.232009 
L 637.646281 613.47003 
L 637.646281 613.47003 
" style="fill:none;stroke:#ffff14;stroke-linecap:square;stroke-width:1.5;"/>
   </g>
   <g id="line2d_49">
    <path clip-path="url(#p49af807026)" d="M 194.935537 393.450218 
L 202.535722 393.587639 
L 210.135906 393.999504 
L 217.736091 394.684627 
L 225.336275 395.641032 
L 232.936459 396.865962 
L 240.536644 398.355884 
L 248.136828 400.106504 
L 255.737013 402.112772 
L 263.337197 404.368906 
L 270.937382 406.868399 
L 278.537566 409.604045 
L 286.137751 412.567957 
L 293.737935 415.751589 
L 301.338119 419.145761 
L 310.83835 423.669585 
L 320.33858 428.486667 
L 329.838811 433.575309 
L 339.339042 438.91259 
L 350.739318 445.611607 
L 362.139595 452.590545 
L 375.439918 461.025956 
L 390.640287 470.961843 
L 411.540794 484.93505 
L 445.741624 507.840395 
L 460.941993 517.742509 
L 474.242315 526.1368 
L 485.642592 533.072181 
L 497.042869 539.720268 
L 506.543099 545.00971 
L 516.04333 550.045837 
L 525.54356 554.805962 
L 535.043791 559.268645 
L 542.643975 562.611076 
L 550.24416 565.740614 
L 557.844344 568.648236 
L 565.444529 571.325557 
L 573.044713 573.764859 
L 580.644898 575.959108 
L 588.245082 577.901978 
L 595.845267 579.587867 
L 603.445451 581.011914 
L 611.045635 582.170014 
L 618.64582 583.058826 
L 626.246004 583.67579 
L 633.846189 584.019124 
L 637.646281 584.087841 
L 637.646281 584.087841 
" style="fill:none;stroke:#014d4e;stroke-linecap:square;stroke-width:1.5;"/>
   </g>
   <g id="line2d_50">
    <path clip-path="url(#p49af807026)" d="M 194.935537 532.068625 
L 200.635676 532.039086 
L 204.435768 531.724275 
L 212.035952 530.524652 
L 217.736091 529.63359 
L 227.236321 527.740982 
L 229.136367 527.61484 
L 232.936459 527.692643 
L 236.736552 527.821663 
L 240.536644 527.670259 
L 250.036874 526.897253 
L 261.437151 525.568522 
L 265.237243 525.542583 
L 272.837428 525.845796 
L 284.237704 526.491305 
L 293.737935 526.894355 
L 299.438073 527.166098 
L 307.038258 527.339131 
L 312.738396 527.642673 
L 316.538488 527.616765 
L 324.138673 527.038164 
L 331.738857 526.338956 
L 341.239088 525.015512 
L 346.939226 524.385324 
L 352.639364 523.429692 
L 354.53941 523.333245 
L 360.239549 522.727468 
L 362.139595 522.599616 
L 365.939687 522.619518 
L 369.739779 522.28411 
L 373.539872 522.181324 
L 379.24001 521.714255 
L 384.940148 521.070327 
L 388.74024 520.409309 
L 392.540333 519.654143 
L 396.340425 519.195436 
L 398.240471 518.772179 
L 400.140517 517.189733 
L 402.040563 518.096575 
L 405.840655 521.184997 
L 407.740702 521.963263 
L 409.640748 521.279722 
L 413.44084 517.38432 
L 415.340886 515.957254 
L 417.240932 515.617008 
L 419.140978 516.574732 
L 421.041024 518.249642 
L 422.94107 519.68971 
L 424.841117 520.103937 
L 426.741163 519.252815 
L 428.641209 517.459634 
L 430.541255 515.451216 
L 432.441301 514.131206 
L 434.341347 514.092861 
L 436.241393 515.290631 
L 438.141439 517.037569 
L 440.041485 518.407843 
L 441.941532 518.699039 
L 443.841578 517.741028 
L 447.64167 514.201344 
L 449.541716 513.343198 
L 451.441762 513.859877 
L 453.341808 515.474881 
L 455.241854 517.471967 
L 457.1419 518.903268 
L 459.041947 519.077553 
L 460.941993 517.944903 
L 464.742085 514.210102 
L 466.642131 513.336309 
L 468.542177 513.754893 
L 470.442223 515.135157 
L 472.342269 516.702479 
L 474.242315 517.544303 
L 476.142362 517.067807 
L 478.042408 515.350493 
L 479.942454 513.002974 
L 481.8425 510.916564 
L 483.742546 509.904935 
L 485.642592 510.201169 
L 489.442684 512.675868 
L 491.34273 513.149666 
L 493.242777 512.232615 
L 495.142823 510.038391 
L 497.042869 507.277856 
L 498.942915 504.840939 
L 500.842961 503.513723 
L 502.743007 503.576351 
L 506.543099 505.667424 
L 508.443145 505.967186 
L 510.343192 504.976363 
L 512.243238 502.777565 
L 514.143284 500.122915 
L 516.04333 497.936178 
L 517.943376 496.938113 
L 519.843422 497.392455 
L 523.643514 500.329505 
L 525.54356 501.053571 
L 527.443607 500.436897 
L 529.343653 498.603479 
L 531.243699 496.307529 
L 533.143745 494.45095 
L 535.043791 493.831472 
L 536.943837 494.698964 
L 538.843883 496.566234 
L 540.743929 498.591047 
L 542.643975 499.878984 
L 544.544022 499.821909 
L 546.444068 498.512508 
L 548.344114 496.717202 
L 550.24416 495.383243 
L 552.144206 495.258333 
L 554.044252 496.630153 
L 557.844344 501.772751 
L 559.74439 503.627801 
L 561.644437 504.111002 
L 563.544483 503.27473 
L 565.444529 501.77649 
L 567.344575 500.595586 
L 569.244621 500.591008 
L 571.144667 502.183632 
L 574.944759 507.198116 
L 576.844805 508.951015 
L 578.744852 509.475437 
L 580.644898 508.859525 
L 582.544944 507.718353 
L 584.44499 507.166612 
L 586.345036 507.378035 
L 588.245082 507.800774 
L 590.145128 507.471551 
L 592.045174 505.780342 
L 593.94522 503.290782 
L 595.845267 501.144246 
L 597.745313 500.140932 
L 599.645359 500.408484 
L 601.545405 500.974255 
L 603.445451 501.152721 
L 605.345497 500.480558 
L 607.245543 499.102528 
L 609.145589 497.898623 
L 611.045635 497.113179 
L 612.945682 496.984233 
L 616.745774 497.703847 
L 618.64582 497.724876 
L 622.445912 497.049691 
L 624.345958 497.002573 
L 628.14605 498.811105 
L 630.046097 500.068021 
L 631.946143 500.929454 
L 635.746235 501.932071 
L 637.646281 502.71982 
L 637.646281 502.71982 
" style="fill:none;stroke:#e50000;stroke-linecap:square;stroke-width:1.5;"/>
   </g>
   <g id="patch_13">
    <path d="M 172.8 629.9064 
L 172.8 382.1904 
" style="fill:none;stroke:#000000;stroke-linecap:square;stroke-linejoin:miter;stroke-width:0.8;"/>
   </g>
   <g id="patch_14">
    <path d="M 659.781818 629.9064 
L 659.781818 382.1904 
" style="fill:none;stroke:#000000;stroke-linecap:square;stroke-linejoin:miter;stroke-width:0.8;"/>
   </g>
   <g id="patch_15">
    <path d="M 172.8 629.9064 
L 659.781818 629.9064 
" style="fill:none;stroke:#000000;stroke-linecap:square;stroke-linejoin:miter;stroke-width:0.8;"/>
   </g>
   <g id="patch_16">
    <path d="M 172.8 382.1904 
L 659.781818 382.1904 
" style="fill:none;stroke:#000000;stroke-linecap:square;stroke-linejoin:miter;stroke-width:0.8;"/>
   </g>
   <g id="text_41">
    <!-- Left abduction -->
    <defs>
     <path d="M 9.8125 72.90625 
L 19.671875 72.90625 
L 19.671875 8.296875 
L 55.171875 8.296875 
L 55.171875 0 
L 9.8125 0 
z
" id="DejaVuSans-76"/>
    </defs>
    <g transform="translate(372.997159 376.1904)scale(0.12 -0.12)">
     <use xlink:href="#DejaVuSans-76"/>
     <use x="55.697266" xlink:href="#DejaVuSans-101"/>
     <use x="117.220703" xlink:href="#DejaVuSans-102"/>
     <use x="152.410156" xlink:href="#DejaVuSans-116"/>
     <use x="191.619141" xlink:href="#DejaVuSans-32"/>
     <use x="223.40625" xlink:href="#DejaVuSans-97"/>
     <use x="284.685547" xlink:href="#DejaVuSans-98"/>
     <use x="348.162109" xlink:href="#DejaVuSans-100"/>
     <use x="411.638672" xlink:href="#DejaVuSans-117"/>
     <use x="475.017578" xlink:href="#DejaVuSans-99"/>
     <use x="529.998047" xlink:href="#DejaVuSans-116"/>
     <use x="569.207031" xlink:href="#DejaVuSans-105"/>
     <use x="596.990234" xlink:href="#DejaVuSans-111"/>
     <use x="658.171875" xlink:href="#DejaVuSans-110"/>
    </g>
   </g>
  </g>
  <g id="axes_4">
   <g id="patch_17">
    <path d="M 757.178182 629.9064 
L 1244.16 629.9064 
L 1244.16 382.1904 
L 757.178182 382.1904 
z
" style="fill:#ffffff;"/>
   </g>
   <g id="matplotlib.axis_7">
    <g id="xtick_16">
     <g id="line2d_51">
      <g>
       <use style="stroke:#000000;stroke-width:0.8;" x="779.313719" xlink:href="#m0516bbfd39" y="629.9064"/>
      </g>
     </g>
     <g id="text_42">
      <!-- 0 -->
      <g transform="translate(776.132469 644.504838)scale(0.1 -0.1)">
       <use xlink:href="#DejaVuSans-48"/>
      </g>
     </g>
    </g>
    <g id="xtick_17">
     <g id="line2d_52">
      <g>
       <use style="stroke:#000000;stroke-width:0.8;" x="874.316025" xlink:href="#m0516bbfd39" y="629.9064"/>
      </g>
     </g>
     <g id="text_43">
      <!-- 50 -->
      <g transform="translate(867.953525 644.504838)scale(0.1 -0.1)">
       <use xlink:href="#DejaVuSans-53"/>
       <use x="63.623047" xlink:href="#DejaVuSans-48"/>
      </g>
     </g>
    </g>
    <g id="xtick_18">
     <g id="line2d_53">
      <g>
       <use style="stroke:#000000;stroke-width:0.8;" x="969.31833" xlink:href="#m0516bbfd39" y="629.9064"/>
      </g>
     </g>
     <g id="text_44">
      <!-- 100 -->
      <g transform="translate(959.77458 644.504838)scale(0.1 -0.1)">
       <use xlink:href="#DejaVuSans-49"/>
       <use x="63.623047" xlink:href="#DejaVuSans-48"/>
       <use x="127.246094" xlink:href="#DejaVuSans-48"/>
      </g>
     </g>
    </g>
    <g id="xtick_19">
     <g id="line2d_54">
      <g>
       <use style="stroke:#000000;stroke-width:0.8;" x="1064.320636" xlink:href="#m0516bbfd39" y="629.9064"/>
      </g>
     </g>
     <g id="text_45">
      <!-- 150 -->
      <g transform="translate(1054.776886 644.504838)scale(0.1 -0.1)">
       <use xlink:href="#DejaVuSans-49"/>
       <use x="63.623047" xlink:href="#DejaVuSans-53"/>
       <use x="127.246094" xlink:href="#DejaVuSans-48"/>
      </g>
     </g>
    </g>
    <g id="xtick_20">
     <g id="line2d_55">
      <g>
       <use style="stroke:#000000;stroke-width:0.8;" x="1159.322941" xlink:href="#m0516bbfd39" y="629.9064"/>
      </g>
     </g>
     <g id="text_46">
      <!-- 200 -->
      <g transform="translate(1149.779191 644.504838)scale(0.1 -0.1)">
       <use xlink:href="#DejaVuSans-50"/>
       <use x="63.623047" xlink:href="#DejaVuSans-48"/>
       <use x="127.246094" xlink:href="#DejaVuSans-48"/>
      </g>
     </g>
    </g>
   </g>
   <g id="matplotlib.axis_8">
    <g id="ytick_24">
     <g id="line2d_56">
      <g>
       <use style="stroke:#000000;stroke-width:0.8;" x="757.178182" xlink:href="#m7fd9c16656" y="607.915516"/>
      </g>
     </g>
     <g id="text_47">
      <!-- −0.5 -->
      <g transform="translate(725.895369 611.714735)scale(0.1 -0.1)">
       <use xlink:href="#DejaVuSans-8722"/>
       <use x="83.789062" xlink:href="#DejaVuSans-48"/>
       <use x="147.412109" xlink:href="#DejaVuSans-46"/>
       <use x="179.199219" xlink:href="#DejaVuSans-53"/>
      </g>
     </g>
    </g>
    <g id="ytick_25">
     <g id="line2d_57">
      <g>
       <use style="stroke:#000000;stroke-width:0.8;" x="757.178182" xlink:href="#m7fd9c16656" y="573.826735"/>
      </g>
     </g>
     <g id="text_48">
      <!-- −0.4 -->
      <g transform="translate(725.895369 577.625954)scale(0.1 -0.1)">
       <use xlink:href="#DejaVuSans-8722"/>
       <use x="83.789062" xlink:href="#DejaVuSans-48"/>
       <use x="147.412109" xlink:href="#DejaVuSans-46"/>
       <use x="179.199219" xlink:href="#DejaVuSans-52"/>
      </g>
     </g>
    </g>
    <g id="ytick_26">
     <g id="line2d_58">
      <g>
       <use style="stroke:#000000;stroke-width:0.8;" x="757.178182" xlink:href="#m7fd9c16656" y="539.737954"/>
      </g>
     </g>
     <g id="text_49">
      <!-- −0.3 -->
      <g transform="translate(725.895369 543.537173)scale(0.1 -0.1)">
       <use xlink:href="#DejaVuSans-8722"/>
       <use x="83.789062" xlink:href="#DejaVuSans-48"/>
       <use x="147.412109" xlink:href="#DejaVuSans-46"/>
       <use x="179.199219" xlink:href="#DejaVuSans-51"/>
      </g>
     </g>
    </g>
    <g id="ytick_27">
     <g id="line2d_59">
      <g>
       <use style="stroke:#000000;stroke-width:0.8;" x="757.178182" xlink:href="#m7fd9c16656" y="505.649173"/>
      </g>
     </g>
     <g id="text_50">
      <!-- −0.2 -->
      <g transform="translate(725.895369 509.448392)scale(0.1 -0.1)">
       <use xlink:href="#DejaVuSans-8722"/>
       <use x="83.789062" xlink:href="#DejaVuSans-48"/>
       <use x="147.412109" xlink:href="#DejaVuSans-46"/>
       <use x="179.199219" xlink:href="#DejaVuSans-50"/>
      </g>
     </g>
    </g>
    <g id="ytick_28">
     <g id="line2d_60">
      <g>
       <use style="stroke:#000000;stroke-width:0.8;" x="757.178182" xlink:href="#m7fd9c16656" y="471.560392"/>
      </g>
     </g>
     <g id="text_51">
      <!-- −0.1 -->
      <g transform="translate(725.895369 475.359611)scale(0.1 -0.1)">
       <use xlink:href="#DejaVuSans-8722"/>
       <use x="83.789062" xlink:href="#DejaVuSans-48"/>
       <use x="147.412109" xlink:href="#DejaVuSans-46"/>
       <use x="179.199219" xlink:href="#DejaVuSans-49"/>
      </g>
     </g>
    </g>
    <g id="ytick_29">
     <g id="line2d_61">
      <g>
       <use style="stroke:#000000;stroke-width:0.8;" x="757.178182" xlink:href="#m7fd9c16656" y="437.471611"/>
      </g>
     </g>
     <g id="text_52">
      <!-- 0.0 -->
      <g transform="translate(734.275057 441.27083)scale(0.1 -0.1)">
       <use xlink:href="#DejaVuSans-48"/>
       <use x="63.623047" xlink:href="#DejaVuSans-46"/>
       <use x="95.410156" xlink:href="#DejaVuSans-48"/>
      </g>
     </g>
    </g>
    <g id="ytick_30">
     <g id="line2d_62">
      <g>
       <use style="stroke:#000000;stroke-width:0.8;" x="757.178182" xlink:href="#m7fd9c16656" y="403.38283"/>
      </g>
     </g>
     <g id="text_53">
      <!-- 0.1 -->
      <g transform="translate(734.275057 407.182049)scale(0.1 -0.1)">
       <use xlink:href="#DejaVuSans-48"/>
       <use x="63.623047" xlink:href="#DejaVuSans-46"/>
       <use x="95.410156" xlink:href="#DejaVuSans-49"/>
      </g>
     </g>
    </g>
   </g>
   <g id="line2d_63">
    <path clip-path="url(#p24a2b7fc5c)" d="M 779.313719 437.464979 
L 910.416901 437.120861 
L 937.017546 436.994973 
L 982.618653 436.785077 
L 984.518699 436.512303 
L 986.418745 436.63483 
L 988.318791 436.545548 
L 994.01893 436.547834 
L 1005.419206 436.738388 
L 1013.019391 436.998694 
L 1060.520543 437.601806 
L 1081.421051 437.32079 
L 1089.021235 437.111387 
L 1096.62142 436.986758 
L 1104.221604 436.791669 
L 1113.721834 436.704233 
L 1123.222065 436.460192 
L 1130.822249 436.331923 
L 1140.32248 436.137958 
L 1147.922664 436.010803 
L 1155.522849 435.804776 
L 1170.723218 435.741377 
L 1174.52331 436.199746 
L 1178.323402 436.811424 
L 1180.223448 437.299038 
L 1182.123494 438.160424 
L 1184.023541 439.323643 
L 1185.923587 440.693214 
L 1187.823633 441.619124 
L 1189.723679 441.892687 
L 1191.623725 441.845878 
L 1193.523771 441.28766 
L 1195.423817 441.122606 
L 1197.323863 441.364231 
L 1203.024002 441.590439 
L 1204.924048 440.801001 
L 1206.824094 440.198556 
L 1208.72414 440.539673 
L 1210.624186 440.763389 
L 1212.524232 442.894553 
L 1214.424278 444.6243 
L 1218.224371 447.619705 
L 1220.124417 449.500397 
L 1222.024463 451.695661 
L 1222.024463 451.695661 
" style="fill:none;stroke:#ff796c;stroke-linecap:square;stroke-width:1.5;"/>
   </g>
   <g id="line2d_64">
    <path clip-path="url(#p24a2b7fc5c)" d="M 779.313719 574.897039 
L 975.018468 574.806818 
L 982.618653 574.76129 
L 984.518699 573.847486 
L 992.118883 574.167226 
L 1003.51916 574.51837 
L 1033.919898 574.87264 
L 1096.62142 575.14138 
L 1115.621881 575.228975 
L 1138.422434 575.279175 
L 1166.923126 575.280407 
L 1170.723218 575.357951 
L 1174.52331 575.61686 
L 1178.323402 576.060605 
L 1180.223448 576.442518 
L 1182.123494 576.970462 
L 1184.023541 577.658264 
L 1185.923587 578.476113 
L 1189.723679 580.5235 
L 1193.523771 583.011822 
L 1197.323863 585.846576 
L 1201.123956 589.084779 
L 1203.024002 590.903516 
L 1204.924048 592.886362 
L 1208.72414 597.334389 
L 1212.524232 602.233448 
L 1214.424278 604.931765 
L 1216.324324 607.931706 
L 1218.224371 611.218448 
L 1220.124417 614.782911 
L 1222.024463 618.646582 
L 1222.024463 618.646582 
" style="fill:none;stroke:#ffff14;stroke-linecap:square;stroke-width:1.5;"/>
   </g>
   <g id="line2d_65">
    <path clip-path="url(#p24a2b7fc5c)" d="M 779.313719 574.625189 
L 1222.024463 574.625189 
L 1222.024463 574.625189 
" style="fill:none;stroke:#014d4e;stroke-linecap:square;stroke-width:1.5;"/>
   </g>
   <g id="line2d_66">
    <path clip-path="url(#p24a2b7fc5c)" d="M 779.313719 437.199761 
L 975.018468 437.289982 
L 982.618653 437.33551 
L 984.518699 438.249314 
L 992.118883 437.929574 
L 1003.51916 437.57843 
L 1033.919898 437.22416 
L 1096.62142 436.95542 
L 1115.621881 436.867825 
L 1138.422434 436.817625 
L 1166.923126 436.816393 
L 1170.723218 436.738849 
L 1174.52331 436.47994 
L 1178.323402 436.036195 
L 1180.223448 435.654282 
L 1182.123494 435.126338 
L 1184.023541 434.438536 
L 1185.923587 433.620687 
L 1189.723679 431.5733 
L 1193.523771 429.084978 
L 1197.323863 426.250224 
L 1201.123956 423.012021 
L 1203.024002 421.193284 
L 1204.924048 419.210438 
L 1208.72414 414.762411 
L 1212.524232 409.863352 
L 1214.424278 407.165035 
L 1216.324324 404.165094 
L 1218.224371 400.878352 
L 1220.124417 397.313889 
L 1222.024463 393.450218 
L 1222.024463 393.450218 
" style="fill:none;stroke:#e50000;stroke-linecap:square;stroke-width:1.5;"/>
   </g>
   <g id="patch_18">
    <path d="M 757.178182 629.9064 
L 757.178182 382.1904 
" style="fill:none;stroke:#000000;stroke-linecap:square;stroke-linejoin:miter;stroke-width:0.8;"/>
   </g>
   <g id="patch_19">
    <path d="M 1244.16 629.9064 
L 1244.16 382.1904 
" style="fill:none;stroke:#000000;stroke-linecap:square;stroke-linejoin:miter;stroke-width:0.8;"/>
   </g>
   <g id="patch_20">
    <path d="M 757.178182 629.9064 
L 1244.16 629.9064 
" style="fill:none;stroke:#000000;stroke-linecap:square;stroke-linejoin:miter;stroke-width:0.8;"/>
   </g>
   <g id="patch_21">
    <path d="M 757.178182 382.1904 
L 1244.16 382.1904 
" style="fill:none;stroke:#000000;stroke-linecap:square;stroke-linejoin:miter;stroke-width:0.8;"/>
   </g>
   <g id="text_54">
    <!-- Left flexion -->
    <g transform="translate(967.102841 376.1904)scale(0.12 -0.12)">
     <use xlink:href="#DejaVuSans-76"/>
     <use x="55.697266" xlink:href="#DejaVuSans-101"/>
     <use x="117.220703" xlink:href="#DejaVuSans-102"/>
     <use x="152.410156" xlink:href="#DejaVuSans-116"/>
     <use x="191.619141" xlink:href="#DejaVuSans-32"/>
     <use x="223.40625" xlink:href="#DejaVuSans-102"/>
     <use x="258.611328" xlink:href="#DejaVuSans-108"/>
     <use x="286.394531" xlink:href="#DejaVuSans-101"/>
     <use x="347.902344" xlink:href="#DejaVuSans-120"/>
     <use x="407.082031" xlink:href="#DejaVuSans-105"/>
     <use x="434.865234" xlink:href="#DejaVuSans-111"/>
     <use x="496.046875" xlink:href="#DejaVuSans-110"/>
    </g>
   </g>
  </g>
  <g id="legend_1">
   <g id="patch_22">
    <path d="M 1308.251562 384.875313 
L 1375.4 384.875313 
Q 1377.4 384.875313 1377.4 382.875313 
L 1377.4 324.884687 
Q 1377.4 322.884687 1375.4 322.884687 
L 1308.251562 322.884687 
Q 1306.251562 322.884687 1306.251562 324.884687 
L 1306.251562 382.875313 
Q 1306.251562 384.875313 1308.251562 384.875313 
z
" style="fill:#ffffff;opacity:0.8;stroke:#cccccc;stroke-linejoin:miter;"/>
   </g>
   <g id="line2d_67">
    <path d="M 1310.251562 330.983125 
L 1330.251562 330.983125 
" style="fill:none;stroke:#ff796c;stroke-linecap:square;stroke-width:1.5;"/>
   </g>
   <g id="line2d_68"/>
   <g id="text_55">
    <!-- Torque -->
    <defs>
     <path d="M -0.296875 72.90625 
L 61.375 72.90625 
L 61.375 64.59375 
L 35.5 64.59375 
L 35.5 0 
L 25.59375 0 
L 25.59375 64.59375 
L -0.296875 64.59375 
z
" id="DejaVuSans-84"/>
     <path d="M 41.109375 46.296875 
Q 39.59375 47.171875 37.8125 47.578125 
Q 36.03125 48 33.890625 48 
Q 26.265625 48 22.1875 43.046875 
Q 18.109375 38.09375 18.109375 28.8125 
L 18.109375 0 
L 9.078125 0 
L 9.078125 54.6875 
L 18.109375 54.6875 
L 18.109375 46.1875 
Q 20.953125 51.171875 25.484375 53.578125 
Q 30.03125 56 36.53125 56 
Q 37.453125 56 38.578125 55.875 
Q 39.703125 55.765625 41.0625 55.515625 
z
" id="DejaVuSans-114"/>
     <path d="M 14.796875 27.296875 
Q 14.796875 17.390625 18.875 11.75 
Q 22.953125 6.109375 30.078125 6.109375 
Q 37.203125 6.109375 41.296875 11.75 
Q 45.40625 17.390625 45.40625 27.296875 
Q 45.40625 37.203125 41.296875 42.84375 
Q 37.203125 48.484375 30.078125 48.484375 
Q 22.953125 48.484375 18.875 42.84375 
Q 14.796875 37.203125 14.796875 27.296875 
z
M 45.40625 8.203125 
Q 42.578125 3.328125 38.25 0.953125 
Q 33.9375 -1.421875 27.875 -1.421875 
Q 17.96875 -1.421875 11.734375 6.484375 
Q 5.515625 14.40625 5.515625 27.296875 
Q 5.515625 40.1875 11.734375 48.09375 
Q 17.96875 56 27.875 56 
Q 33.9375 56 38.25 53.625 
Q 42.578125 51.265625 45.40625 46.390625 
L 45.40625 54.6875 
L 54.390625 54.6875 
L 54.390625 -20.796875 
L 45.40625 -20.796875 
z
" id="DejaVuSans-113"/>
    </defs>
    <g transform="translate(1338.251562 334.483125)scale(0.1 -0.1)">
     <use xlink:href="#DejaVuSans-84"/>
     <use x="60.818359" xlink:href="#DejaVuSans-111"/>
     <use x="122" xlink:href="#DejaVuSans-114"/>
     <use x="163.097656" xlink:href="#DejaVuSans-113"/>
     <use x="226.574219" xlink:href="#DejaVuSans-117"/>
     <use x="289.953125" xlink:href="#DejaVuSans-101"/>
    </g>
   </g>
   <g id="line2d_69">
    <path d="M 1310.251562 345.66125 
L 1330.251562 345.66125 
" style="fill:none;stroke:#ffff14;stroke-linecap:square;stroke-width:1.5;"/>
   </g>
   <g id="line2d_70"/>
   <g id="text_56">
    <!-- q -->
    <g transform="translate(1338.251562 349.16125)scale(0.1 -0.1)">
     <use xlink:href="#DejaVuSans-113"/>
    </g>
   </g>
   <g id="line2d_71">
    <path d="M 1310.251562 360.339375 
L 1330.251562 360.339375 
" style="fill:none;stroke:#014d4e;stroke-linecap:square;stroke-width:1.5;"/>
   </g>
   <g id="line2d_72"/>
   <g id="text_57">
    <!-- q_des -->
    <defs>
     <path d="M 50.984375 -16.609375 
L 50.984375 -23.578125 
L -0.984375 -23.578125 
L -0.984375 -16.609375 
z
" id="DejaVuSans-95"/>
     <path d="M 44.28125 53.078125 
L 44.28125 44.578125 
Q 40.484375 46.53125 36.375 47.5 
Q 32.28125 48.484375 27.875 48.484375 
Q 21.1875 48.484375 17.84375 46.4375 
Q 14.5 44.390625 14.5 40.28125 
Q 14.5 37.15625 16.890625 35.375 
Q 19.28125 33.59375 26.515625 31.984375 
L 29.59375 31.296875 
Q 39.15625 29.25 43.1875 25.515625 
Q 47.21875 21.78125 47.21875 15.09375 
Q 47.21875 7.46875 41.1875 3.015625 
Q 35.15625 -1.421875 24.609375 -1.421875 
Q 20.21875 -1.421875 15.453125 -0.5625 
Q 10.6875 0.296875 5.421875 2 
L 5.421875 11.28125 
Q 10.40625 8.6875 15.234375 7.390625 
Q 20.0625 6.109375 24.8125 6.109375 
Q 31.15625 6.109375 34.5625 8.28125 
Q 37.984375 10.453125 37.984375 14.40625 
Q 37.984375 18.0625 35.515625 20.015625 
Q 33.0625 21.96875 24.703125 23.78125 
L 21.578125 24.515625 
Q 13.234375 26.265625 9.515625 29.90625 
Q 5.8125 33.546875 5.8125 39.890625 
Q 5.8125 47.609375 11.28125 51.796875 
Q 16.75 56 26.8125 56 
Q 31.78125 56 36.171875 55.265625 
Q 40.578125 54.546875 44.28125 53.078125 
z
" id="DejaVuSans-115"/>
    </defs>
    <g transform="translate(1338.251562 363.839375)scale(0.1 -0.1)">
     <use xlink:href="#DejaVuSans-113"/>
     <use x="63.476562" xlink:href="#DejaVuSans-95"/>
     <use x="113.476562" xlink:href="#DejaVuSans-100"/>
     <use x="176.953125" xlink:href="#DejaVuSans-101"/>
     <use x="238.476562" xlink:href="#DejaVuSans-115"/>
    </g>
   </g>
   <g id="line2d_73">
    <path d="M 1310.251562 375.295625 
L 1330.251562 375.295625 
" style="fill:none;stroke:#e50000;stroke-linecap:square;stroke-width:1.5;"/>
   </g>
   <g id="line2d_74"/>
   <g id="text_58">
    <!-- error -->
    <g transform="translate(1338.251562 378.795625)scale(0.1 -0.1)">
     <use xlink:href="#DejaVuSans-101"/>
     <use x="61.523438" xlink:href="#DejaVuSans-114"/>
     <use x="102.621094" xlink:href="#DejaVuSans-114"/>
     <use x="143.703125" xlink:href="#DejaVuSans-111"/>
     <use x="204.884766" xlink:href="#DejaVuSans-114"/>
    </g>
   </g>
  </g>
 </g>
 <defs>
  <clipPath id="p6f96d74e28">
   <rect height="247.716" width="486.981818" x="172.8" y="84.9312"/>
  </clipPath>
  <clipPath id="pab84a7d54c">
   <rect height="247.716" width="486.981818" x="757.178182" y="84.9312"/>
  </clipPath>
  <clipPath id="p49af807026">
   <rect height="247.716" width="486.981818" x="172.8" y="382.1904"/>
  </clipPath>
  <clipPath id="p24a2b7fc5c">
   <rect height="247.716" width="486.981818" x="757.178182" y="382.1904"/>
  </clipPath>
 </defs>
</svg>
