<?xml version="1.0" encoding="utf-8" standalone="no"?>
<!DOCTYPE svg PUBLIC "-//W3C//DTD SVG 1.1//EN"
  "http://www.w3.org/Graphics/SVG/1.1/DTD/svg11.dtd">
<!-- Created with matplotlib (https://matplotlib.org/) -->
<svg height="707.76pt" version="1.1" viewBox="0 0 1382.4 707.76" width="1382.4pt" xmlns="http://www.w3.org/2000/svg" xmlns:xlink="http://www.w3.org/1999/xlink">
 <defs>
  <style type="text/css">
*{stroke-linecap:butt;stroke-linejoin:round;}
  </style>
 </defs>
 <g id="figure_1">
  <g id="patch_1">
   <path d="M 0 707.76 
L 1382.4 707.76 
L 1382.4 0 
L 0 0 
z
" style="fill:#ffffff;"/>
  </g>
  <g id="axes_1">
   <g id="patch_2">
    <path d="M 172.8 332.6472 
L 487.905882 332.6472 
L 487.905882 84.9312 
L 172.8 84.9312 
z
" style="fill:#ffffff;"/>
   </g>
   <g id="matplotlib.axis_1">
    <g id="xtick_1">
     <g id="line2d_1">
      <defs>
       <path d="M 0 0 
L 0 3.5 
" id="m36561338c4" style="stroke:#000000;stroke-width:0.8;"/>
      </defs>
      <g>
       <use style="stroke:#000000;stroke-width:0.8;" x="187.122995" xlink:href="#m36561338c4" y="332.6472"/>
      </g>
     </g>
     <g id="text_1">
      <!-- 0 -->
      <defs>
       <path d="M 31.78125 66.40625 
Q 24.171875 66.40625 20.328125 58.90625 
Q 16.5 51.421875 16.5 36.375 
Q 16.5 21.390625 20.328125 13.890625 
Q 24.171875 6.390625 31.78125 6.390625 
Q 39.453125 6.390625 43.28125 13.890625 
Q 47.125 21.390625 47.125 36.375 
Q 47.125 51.421875 43.28125 58.90625 
Q 39.453125 66.40625 31.78125 66.40625 
z
M 31.78125 74.21875 
Q 44.046875 74.21875 50.515625 64.515625 
Q 56.984375 54.828125 56.984375 36.375 
Q 56.984375 17.96875 50.515625 8.265625 
Q 44.046875 -1.421875 31.78125 -1.421875 
Q 19.53125 -1.421875 13.0625 8.265625 
Q 6.59375 17.96875 6.59375 36.375 
Q 6.59375 54.828125 13.0625 64.515625 
Q 19.53125 74.21875 31.78125 74.21875 
z
" id="DejaVuSans-48"/>
      </defs>
      <g transform="translate(183.941745 347.245637)scale(0.1 -0.1)">
       <use xlink:href="#DejaVuSans-48"/>
      </g>
     </g>
    </g>
    <g id="xtick_2">
     <g id="line2d_2">
      <g>
       <use style="stroke:#000000;stroke-width:0.8;" x="248.595075" xlink:href="#m36561338c4" y="332.6472"/>
      </g>
     </g>
     <g id="text_2">
      <!-- 50 -->
      <defs>
       <path d="M 10.796875 72.90625 
L 49.515625 72.90625 
L 49.515625 64.59375 
L 19.828125 64.59375 
L 19.828125 46.734375 
Q 21.96875 47.46875 24.109375 47.828125 
Q 26.265625 48.1875 28.421875 48.1875 
Q 40.625 48.1875 47.75 41.5 
Q 54.890625 34.8125 54.890625 23.390625 
Q 54.890625 11.625 47.5625 5.09375 
Q 40.234375 -1.421875 26.90625 -1.421875 
Q 22.3125 -1.421875 17.546875 -0.640625 
Q 12.796875 0.140625 7.71875 1.703125 
L 7.71875 11.625 
Q 12.109375 9.234375 16.796875 8.0625 
Q 21.484375 6.890625 26.703125 6.890625 
Q 35.15625 6.890625 40.078125 11.328125 
Q 45.015625 15.765625 45.015625 23.390625 
Q 45.015625 31 40.078125 35.4375 
Q 35.15625 39.890625 26.703125 39.890625 
Q 22.75 39.890625 18.8125 39.015625 
Q 14.890625 38.140625 10.796875 36.28125 
z
" id="DejaVuSans-53"/>
      </defs>
      <g transform="translate(242.232575 347.245637)scale(0.1 -0.1)">
       <use xlink:href="#DejaVuSans-53"/>
       <use x="63.623047" xlink:href="#DejaVuSans-48"/>
      </g>
     </g>
    </g>
    <g id="xtick_3">
     <g id="line2d_3">
      <g>
       <use style="stroke:#000000;stroke-width:0.8;" x="310.067155" xlink:href="#m36561338c4" y="332.6472"/>
      </g>
     </g>
     <g id="text_3">
      <!-- 100 -->
      <defs>
       <path d="M 12.40625 8.296875 
L 28.515625 8.296875 
L 28.515625 63.921875 
L 10.984375 60.40625 
L 10.984375 69.390625 
L 28.421875 72.90625 
L 38.28125 72.90625 
L 38.28125 8.296875 
L 54.390625 8.296875 
L 54.390625 0 
L 12.40625 0 
z
" id="DejaVuSans-49"/>
      </defs>
      <g transform="translate(300.523405 347.245637)scale(0.1 -0.1)">
       <use xlink:href="#DejaVuSans-49"/>
       <use x="63.623047" xlink:href="#DejaVuSans-48"/>
       <use x="127.246094" xlink:href="#DejaVuSans-48"/>
      </g>
     </g>
    </g>
    <g id="xtick_4">
     <g id="line2d_4">
      <g>
       <use style="stroke:#000000;stroke-width:0.8;" x="371.539235" xlink:href="#m36561338c4" y="332.6472"/>
      </g>
     </g>
     <g id="text_4">
      <!-- 150 -->
      <g transform="translate(361.995485 347.245637)scale(0.1 -0.1)">
       <use xlink:href="#DejaVuSans-49"/>
       <use x="63.623047" xlink:href="#DejaVuSans-53"/>
       <use x="127.246094" xlink:href="#DejaVuSans-48"/>
      </g>
     </g>
    </g>
    <g id="xtick_5">
     <g id="line2d_5">
      <g>
       <use style="stroke:#000000;stroke-width:0.8;" x="433.011315" xlink:href="#m36561338c4" y="332.6472"/>
      </g>
     </g>
     <g id="text_5">
      <!-- 200 -->
      <defs>
       <path d="M 19.1875 8.296875 
L 53.609375 8.296875 
L 53.609375 0 
L 7.328125 0 
L 7.328125 8.296875 
Q 12.9375 14.109375 22.625 23.890625 
Q 32.328125 33.6875 34.8125 36.53125 
Q 39.546875 41.84375 41.421875 45.53125 
Q 43.3125 49.21875 43.3125 52.78125 
Q 43.3125 58.59375 39.234375 62.25 
Q 35.15625 65.921875 28.609375 65.921875 
Q 23.96875 65.921875 18.8125 64.3125 
Q 13.671875 62.703125 7.8125 59.421875 
L 7.8125 69.390625 
Q 13.765625 71.78125 18.9375 73 
Q 24.125 74.21875 28.421875 74.21875 
Q 39.75 74.21875 46.484375 68.546875 
Q 53.21875 62.890625 53.21875 53.421875 
Q 53.21875 48.921875 51.53125 44.890625 
Q 49.859375 40.875 45.40625 35.40625 
Q 44.1875 33.984375 37.640625 27.21875 
Q 31.109375 20.453125 19.1875 8.296875 
z
" id="DejaVuSans-50"/>
      </defs>
      <g transform="translate(423.467565 347.245637)scale(0.1 -0.1)">
       <use xlink:href="#DejaVuSans-50"/>
       <use x="63.623047" xlink:href="#DejaVuSans-48"/>
       <use x="127.246094" xlink:href="#DejaVuSans-48"/>
      </g>
     </g>
    </g>
   </g>
   <g id="matplotlib.axis_2">
    <g id="ytick_1">
     <g id="line2d_6">
      <defs>
       <path d="M 0 0 
L -3.5 0 
" id="m86f2724caa" style="stroke:#000000;stroke-width:0.8;"/>
      </defs>
      <g>
       <use style="stroke:#000000;stroke-width:0.8;" x="172.8" xlink:href="#m86f2724caa" y="319.570667"/>
      </g>
     </g>
     <g id="text_6">
      <!-- −0.2 -->
      <defs>
       <path d="M 10.59375 35.5 
L 73.1875 35.5 
L 73.1875 27.203125 
L 10.59375 27.203125 
z
" id="DejaVuSans-8722"/>
       <path d="M 10.6875 12.40625 
L 21 12.40625 
L 21 0 
L 10.6875 0 
z
" id="DejaVuSans-46"/>
      </defs>
      <g transform="translate(141.517187 323.369886)scale(0.1 -0.1)">
       <use xlink:href="#DejaVuSans-8722"/>
       <use x="83.789062" xlink:href="#DejaVuSans-48"/>
       <use x="147.412109" xlink:href="#DejaVuSans-46"/>
       <use x="179.199219" xlink:href="#DejaVuSans-50"/>
      </g>
     </g>
    </g>
    <g id="ytick_2">
     <g id="line2d_7">
      <g>
       <use style="stroke:#000000;stroke-width:0.8;" x="172.8" xlink:href="#m86f2724caa" y="289.629384"/>
      </g>
     </g>
     <g id="text_7">
      <!-- 0.0 -->
      <g transform="translate(149.896875 293.428603)scale(0.1 -0.1)">
       <use xlink:href="#DejaVuSans-48"/>
       <use x="63.623047" xlink:href="#DejaVuSans-46"/>
       <use x="95.410156" xlink:href="#DejaVuSans-48"/>
      </g>
     </g>
    </g>
    <g id="ytick_3">
     <g id="line2d_8">
      <g>
       <use style="stroke:#000000;stroke-width:0.8;" x="172.8" xlink:href="#m86f2724caa" y="259.688101"/>
      </g>
     </g>
     <g id="text_8">
      <!-- 0.2 -->
      <g transform="translate(149.896875 263.487319)scale(0.1 -0.1)">
       <use xlink:href="#DejaVuSans-48"/>
       <use x="63.623047" xlink:href="#DejaVuSans-46"/>
       <use x="95.410156" xlink:href="#DejaVuSans-50"/>
      </g>
     </g>
    </g>
    <g id="ytick_4">
     <g id="line2d_9">
      <g>
       <use style="stroke:#000000;stroke-width:0.8;" x="172.8" xlink:href="#m86f2724caa" y="229.746818"/>
      </g>
     </g>
     <g id="text_9">
      <!-- 0.4 -->
      <defs>
       <path d="M 37.796875 64.3125 
L 12.890625 25.390625 
L 37.796875 25.390625 
z
M 35.203125 72.90625 
L 47.609375 72.90625 
L 47.609375 25.390625 
L 58.015625 25.390625 
L 58.015625 17.1875 
L 47.609375 17.1875 
L 47.609375 0 
L 37.796875 0 
L 37.796875 17.1875 
L 4.890625 17.1875 
L 4.890625 26.703125 
z
" id="DejaVuSans-52"/>
      </defs>
      <g transform="translate(149.896875 233.546036)scale(0.1 -0.1)">
       <use xlink:href="#DejaVuSans-48"/>
       <use x="63.623047" xlink:href="#DejaVuSans-46"/>
       <use x="95.410156" xlink:href="#DejaVuSans-52"/>
      </g>
     </g>
    </g>
    <g id="ytick_5">
     <g id="line2d_10">
      <g>
       <use style="stroke:#000000;stroke-width:0.8;" x="172.8" xlink:href="#m86f2724caa" y="199.805534"/>
      </g>
     </g>
     <g id="text_10">
      <!-- 0.6 -->
      <defs>
       <path d="M 33.015625 40.375 
Q 26.375 40.375 22.484375 35.828125 
Q 18.609375 31.296875 18.609375 23.390625 
Q 18.609375 15.53125 22.484375 10.953125 
Q 26.375 6.390625 33.015625 6.390625 
Q 39.65625 6.390625 43.53125 10.953125 
Q 47.40625 15.53125 47.40625 23.390625 
Q 47.40625 31.296875 43.53125 35.828125 
Q 39.65625 40.375 33.015625 40.375 
z
M 52.59375 71.296875 
L 52.59375 62.3125 
Q 48.875 64.0625 45.09375 64.984375 
Q 41.3125 65.921875 37.59375 65.921875 
Q 27.828125 65.921875 22.671875 59.328125 
Q 17.53125 52.734375 16.796875 39.40625 
Q 19.671875 43.65625 24.015625 45.921875 
Q 28.375 48.1875 33.59375 48.1875 
Q 44.578125 48.1875 50.953125 41.515625 
Q 57.328125 34.859375 57.328125 23.390625 
Q 57.328125 12.15625 50.6875 5.359375 
Q 44.046875 -1.421875 33.015625 -1.421875 
Q 20.359375 -1.421875 13.671875 8.265625 
Q 6.984375 17.96875 6.984375 36.375 
Q 6.984375 53.65625 15.1875 63.9375 
Q 23.390625 74.21875 37.203125 74.21875 
Q 40.921875 74.21875 44.703125 73.484375 
Q 48.484375 72.75 52.59375 71.296875 
z
" id="DejaVuSans-54"/>
      </defs>
      <g transform="translate(149.896875 203.604753)scale(0.1 -0.1)">
       <use xlink:href="#DejaVuSans-48"/>
       <use x="63.623047" xlink:href="#DejaVuSans-46"/>
       <use x="95.410156" xlink:href="#DejaVuSans-54"/>
      </g>
     </g>
    </g>
    <g id="ytick_6">
     <g id="line2d_11">
      <g>
       <use style="stroke:#000000;stroke-width:0.8;" x="172.8" xlink:href="#m86f2724caa" y="169.864251"/>
      </g>
     </g>
     <g id="text_11">
      <!-- 0.8 -->
      <defs>
       <path d="M 31.78125 34.625 
Q 24.75 34.625 20.71875 30.859375 
Q 16.703125 27.09375 16.703125 20.515625 
Q 16.703125 13.921875 20.71875 10.15625 
Q 24.75 6.390625 31.78125 6.390625 
Q 38.8125 6.390625 42.859375 10.171875 
Q 46.921875 13.96875 46.921875 20.515625 
Q 46.921875 27.09375 42.890625 30.859375 
Q 38.875 34.625 31.78125 34.625 
z
M 21.921875 38.8125 
Q 15.578125 40.375 12.03125 44.71875 
Q 8.5 49.078125 8.5 55.328125 
Q 8.5 64.0625 14.71875 69.140625 
Q 20.953125 74.21875 31.78125 74.21875 
Q 42.671875 74.21875 48.875 69.140625 
Q 55.078125 64.0625 55.078125 55.328125 
Q 55.078125 49.078125 51.53125 44.71875 
Q 48 40.375 41.703125 38.8125 
Q 48.828125 37.15625 52.796875 32.3125 
Q 56.78125 27.484375 56.78125 20.515625 
Q 56.78125 9.90625 50.3125 4.234375 
Q 43.84375 -1.421875 31.78125 -1.421875 
Q 19.734375 -1.421875 13.25 4.234375 
Q 6.78125 9.90625 6.78125 20.515625 
Q 6.78125 27.484375 10.78125 32.3125 
Q 14.796875 37.15625 21.921875 38.8125 
z
M 18.3125 54.390625 
Q 18.3125 48.734375 21.84375 45.5625 
Q 25.390625 42.390625 31.78125 42.390625 
Q 38.140625 42.390625 41.71875 45.5625 
Q 45.3125 48.734375 45.3125 54.390625 
Q 45.3125 60.0625 41.71875 63.234375 
Q 38.140625 66.40625 31.78125 66.40625 
Q 25.390625 66.40625 21.84375 63.234375 
Q 18.3125 60.0625 18.3125 54.390625 
z
" id="DejaVuSans-56"/>
      </defs>
      <g transform="translate(149.896875 173.66347)scale(0.1 -0.1)">
       <use xlink:href="#DejaVuSans-48"/>
       <use x="63.623047" xlink:href="#DejaVuSans-46"/>
       <use x="95.410156" xlink:href="#DejaVuSans-56"/>
      </g>
     </g>
    </g>
    <g id="ytick_7">
     <g id="line2d_12">
      <g>
       <use style="stroke:#000000;stroke-width:0.8;" x="172.8" xlink:href="#m86f2724caa" y="139.922968"/>
      </g>
     </g>
     <g id="text_12">
      <!-- 1.0 -->
      <g transform="translate(149.896875 143.722187)scale(0.1 -0.1)">
       <use xlink:href="#DejaVuSans-49"/>
       <use x="63.623047" xlink:href="#DejaVuSans-46"/>
       <use x="95.410156" xlink:href="#DejaVuSans-48"/>
      </g>
     </g>
    </g>
    <g id="ytick_8">
     <g id="line2d_13">
      <g>
       <use style="stroke:#000000;stroke-width:0.8;" x="172.8" xlink:href="#m86f2724caa" y="109.981685"/>
      </g>
     </g>
     <g id="text_13">
      <!-- 1.2 -->
      <g transform="translate(149.896875 113.780903)scale(0.1 -0.1)">
       <use xlink:href="#DejaVuSans-49"/>
       <use x="63.623047" xlink:href="#DejaVuSans-46"/>
       <use x="95.410156" xlink:href="#DejaVuSans-50"/>
      </g>
     </g>
    </g>
   </g>
   <g id="line2d_14">
    <path clip-path="url(#pe273cce506)" d="M 187.122995 289.629228 
L 189.581878 289.591394 
L 193.270203 289.069396 
L 195.729086 288.463081 
L 198.187969 287.487596 
L 203.105735 285.237821 
L 208.023502 282.422017 
L 210.482385 280.582569 
L 214.17071 277.449718 
L 221.547359 270.819568 
L 225.235684 267.751804 
L 228.924009 264.777148 
L 235.071217 259.505981 
L 237.5301 257.471729 
L 246.136192 251.060132 
L 249.824516 247.846023 
L 252.2834 245.799678 
L 255.971724 243.095302 
L 258.430608 241.665191 
L 268.26614 236.610675 
L 269.495582 236.099972 
L 270.725024 235.719315 
L 275.64279 234.763033 
L 279.331115 234.276501 
L 286.707764 232.640621 
L 289.166648 232.270616 
L 292.854972 232.126195 
L 302.690505 231.007232 
L 306.37883 231.243717 
L 308.837713 231.645157 
L 311.296596 232.106164 
L 317.443804 232.666189 
L 319.902688 232.941293 
L 322.361571 233.487376 
L 324.820454 234.031917 
L 329.73822 234.642296 
L 333.426545 234.609572 
L 337.11487 234.976643 
L 339.573753 235.35896 
L 343.262078 236.119247 
L 346.950403 236.520284 
L 351.868169 237.310253 
L 354.327052 238.095542 
L 359.244819 239.807037 
L 361.703702 240.641106 
L 367.85091 242.329093 
L 372.768676 244.101859 
L 376.457001 245.529606 
L 382.604209 247.536073 
L 385.063092 248.446365 
L 387.521976 249.618227 
L 394.898625 253.698356 
L 402.275275 258.05413 
L 407.193041 261.509267 
L 414.569691 266.981412 
L 421.94634 272.498158 
L 429.32299 278.576925 
L 440.387964 287.987294 
L 446.535172 293.83717 
L 452.68238 299.864165 
L 461.288472 308.391506 
L 464.976796 312.40088 
L 469.894563 317.752444 
L 473.582888 321.387382 
L 473.582888 321.387382 
" style="fill:none;stroke:#ff796c;stroke-linecap:square;stroke-width:1.5;"/>
   </g>
   <g id="line2d_15">
    <path clip-path="url(#pe273cce506)" d="M 187.122995 290.552469 
L 193.270203 290.625058 
L 196.958527 290.817689 
L 201.876294 291.327842 
L 206.79406 292.056059 
L 211.711827 293.004696 
L 216.629593 294.222277 
L 226.465126 296.825335 
L 238.759542 299.706696 
L 247.365633 301.325443 
L 257.201166 303.082796 
L 262.118932 303.616244 
L 267.036699 303.947374 
L 271.954465 304.050172 
L 276.872232 303.808411 
L 287.937206 302.767393 
L 292.854972 302.084274 
L 301.461064 300.643952 
L 305.149388 299.888732 
L 308.837713 298.93852 
L 316.214363 296.636911 
L 321.132129 294.947105 
L 326.049896 293.004907 
L 335.885428 288.893437 
L 339.573753 287.156868 
L 344.49152 284.552698 
L 349.409286 281.745788 
L 353.097611 279.44006 
L 356.785936 276.855843 
L 361.703702 273.08025 
L 366.621468 269.060644 
L 370.309793 265.828308 
L 373.998118 262.373333 
L 378.915884 257.448991 
L 383.833651 252.19141 
L 387.521976 247.954067 
L 391.2103 243.399495 
L 396.128067 236.8804 
L 401.045833 229.907902 
L 405.9636 222.457713 
L 410.881366 214.531678 
L 417.028574 204.076302 
L 423.175782 193.132827 
L 430.552432 179.452861 
L 440.387964 160.664669 
L 471.124004 101.029818 
L 473.582888 96.191018 
L 473.582888 96.191018 
" style="fill:none;stroke:#ffff14;stroke-linecap:square;stroke-width:1.5;"/>
   </g>
   <g id="line2d_16">
    <path clip-path="url(#pe273cce506)" d="M 187.122995 290.553199 
L 241.218425 290.448533 
L 257.201166 290.206491 
L 269.495582 289.809553 
L 279.331115 289.280267 
L 287.937206 288.602883 
L 295.313856 287.819063 
L 302.690505 286.806402 
L 308.837713 285.757083 
L 314.984921 284.493254 
L 321.132129 282.987659 
L 327.279337 281.21211 
L 332.197104 279.577914 
L 337.11487 277.73749 
L 342.032636 275.675852 
L 346.950403 273.378082 
L 351.868169 270.829435 
L 356.785936 268.015504 
L 361.703702 264.922308 
L 366.621468 261.536435 
L 371.539235 257.845283 
L 376.457001 253.837239 
L 381.374768 249.501878 
L 386.292534 244.830271 
L 391.2103 239.815223 
L 396.128067 234.451405 
L 401.045833 228.735605 
L 405.9636 222.667027 
L 410.881366 216.247494 
L 415.799132 209.48166 
L 420.716899 202.377297 
L 425.634665 194.945489 
L 431.781873 185.217581 
L 437.929081 175.036469 
L 444.076289 164.445863 
L 451.452939 151.269112 
L 460.05903 135.379002 
L 471.124004 114.40409 
L 473.582888 109.695774 
L 473.582888 109.695774 
" style="fill:none;stroke:#014d4e;stroke-linecap:square;stroke-width:1.5;"/>
   </g>
   <g id="patch_3">
    <path d="M 172.8 332.6472 
L 172.8 84.9312 
" style="fill:none;stroke:#000000;stroke-linecap:square;stroke-linejoin:miter;stroke-width:0.8;"/>
   </g>
   <g id="patch_4">
    <path d="M 487.905882 332.6472 
L 487.905882 84.9312 
" style="fill:none;stroke:#000000;stroke-linecap:square;stroke-linejoin:miter;stroke-width:0.8;"/>
   </g>
   <g id="patch_5">
    <path d="M 172.8 332.6472 
L 487.905882 332.6472 
" style="fill:none;stroke:#000000;stroke-linecap:square;stroke-linejoin:miter;stroke-width:0.8;"/>
   </g>
   <g id="patch_6">
    <path d="M 172.8 84.9312 
L 487.905882 84.9312 
" style="fill:none;stroke:#000000;stroke-linecap:square;stroke-linejoin:miter;stroke-width:0.8;"/>
   </g>
   <g id="text_14">
    <!-- Lateral joint 0 -->
    <defs>
     <path d="M 9.8125 72.90625 
L 19.671875 72.90625 
L 19.671875 8.296875 
L 55.171875 8.296875 
L 55.171875 0 
L 9.8125 0 
z
" id="DejaVuSans-76"/>
     <path d="M 34.28125 27.484375 
Q 23.390625 27.484375 19.1875 25 
Q 14.984375 22.515625 14.984375 16.5 
Q 14.984375 11.71875 18.140625 8.90625 
Q 21.296875 6.109375 26.703125 6.109375 
Q 34.1875 6.109375 38.703125 11.40625 
Q 43.21875 16.703125 43.21875 25.484375 
L 43.21875 27.484375 
z
M 52.203125 31.203125 
L 52.203125 0 
L 43.21875 0 
L 43.21875 8.296875 
Q 40.140625 3.328125 35.546875 0.953125 
Q 30.953125 -1.421875 24.3125 -1.421875 
Q 15.921875 -1.421875 10.953125 3.296875 
Q 6 8.015625 6 15.921875 
Q 6 25.140625 12.171875 29.828125 
Q 18.359375 34.515625 30.609375 34.515625 
L 43.21875 34.515625 
L 43.21875 35.40625 
Q 43.21875 41.609375 39.140625 45 
Q 35.0625 48.390625 27.6875 48.390625 
Q 23 48.390625 18.546875 47.265625 
Q 14.109375 46.140625 10.015625 43.890625 
L 10.015625 52.203125 
Q 14.9375 54.109375 19.578125 55.046875 
Q 24.21875 56 28.609375 56 
Q 40.484375 56 46.34375 49.84375 
Q 52.203125 43.703125 52.203125 31.203125 
z
" id="DejaVuSans-97"/>
     <path d="M 18.3125 70.21875 
L 18.3125 54.6875 
L 36.8125 54.6875 
L 36.8125 47.703125 
L 18.3125 47.703125 
L 18.3125 18.015625 
Q 18.3125 11.328125 20.140625 9.421875 
Q 21.96875 7.515625 27.59375 7.515625 
L 36.8125 7.515625 
L 36.8125 0 
L 27.59375 0 
Q 17.1875 0 13.234375 3.875 
Q 9.28125 7.765625 9.28125 18.015625 
L 9.28125 47.703125 
L 2.6875 47.703125 
L 2.6875 54.6875 
L 9.28125 54.6875 
L 9.28125 70.21875 
z
" id="DejaVuSans-116"/>
     <path d="M 56.203125 29.59375 
L 56.203125 25.203125 
L 14.890625 25.203125 
Q 15.484375 15.921875 20.484375 11.0625 
Q 25.484375 6.203125 34.421875 6.203125 
Q 39.59375 6.203125 44.453125 7.46875 
Q 49.3125 8.734375 54.109375 11.28125 
L 54.109375 2.78125 
Q 49.265625 0.734375 44.1875 -0.34375 
Q 39.109375 -1.421875 33.890625 -1.421875 
Q 20.796875 -1.421875 13.15625 6.1875 
Q 5.515625 13.8125 5.515625 26.8125 
Q 5.515625 40.234375 12.765625 48.109375 
Q 20.015625 56 32.328125 56 
Q 43.359375 56 49.78125 48.890625 
Q 56.203125 41.796875 56.203125 29.59375 
z
M 47.21875 32.234375 
Q 47.125 39.59375 43.09375 43.984375 
Q 39.0625 48.390625 32.421875 48.390625 
Q 24.90625 48.390625 20.390625 44.140625 
Q 15.875 39.890625 15.1875 32.171875 
z
" id="DejaVuSans-101"/>
     <path d="M 41.109375 46.296875 
Q 39.59375 47.171875 37.8125 47.578125 
Q 36.03125 48 33.890625 48 
Q 26.265625 48 22.1875 43.046875 
Q 18.109375 38.09375 18.109375 28.8125 
L 18.109375 0 
L 9.078125 0 
L 9.078125 54.6875 
L 18.109375 54.6875 
L 18.109375 46.1875 
Q 20.953125 51.171875 25.484375 53.578125 
Q 30.03125 56 36.53125 56 
Q 37.453125 56 38.578125 55.875 
Q 39.703125 55.765625 41.0625 55.515625 
z
" id="DejaVuSans-114"/>
     <path d="M 9.421875 75.984375 
L 18.40625 75.984375 
L 18.40625 0 
L 9.421875 0 
z
" id="DejaVuSans-108"/>
     <path id="DejaVuSans-32"/>
     <path d="M 9.421875 54.6875 
L 18.40625 54.6875 
L 18.40625 -0.984375 
Q 18.40625 -11.421875 14.421875 -16.109375 
Q 10.453125 -20.796875 1.609375 -20.796875 
L -1.8125 -20.796875 
L -1.8125 -13.1875 
L 0.59375 -13.1875 
Q 5.71875 -13.1875 7.5625 -10.8125 
Q 9.421875 -8.453125 9.421875 -0.984375 
z
M 9.421875 75.984375 
L 18.40625 75.984375 
L 18.40625 64.59375 
L 9.421875 64.59375 
z
" id="DejaVuSans-106"/>
     <path d="M 30.609375 48.390625 
Q 23.390625 48.390625 19.1875 42.75 
Q 14.984375 37.109375 14.984375 27.296875 
Q 14.984375 17.484375 19.15625 11.84375 
Q 23.34375 6.203125 30.609375 6.203125 
Q 37.796875 6.203125 41.984375 11.859375 
Q 46.1875 17.53125 46.1875 27.296875 
Q 46.1875 37.015625 41.984375 42.703125 
Q 37.796875 48.390625 30.609375 48.390625 
z
M 30.609375 56 
Q 42.328125 56 49.015625 48.375 
Q 55.71875 40.765625 55.71875 27.296875 
Q 55.71875 13.875 49.015625 6.21875 
Q 42.328125 -1.421875 30.609375 -1.421875 
Q 18.84375 -1.421875 12.171875 6.21875 
Q 5.515625 13.875 5.515625 27.296875 
Q 5.515625 40.765625 12.171875 48.375 
Q 18.84375 56 30.609375 56 
z
" id="DejaVuSans-111"/>
     <path d="M 9.421875 54.6875 
L 18.40625 54.6875 
L 18.40625 0 
L 9.421875 0 
z
M 9.421875 75.984375 
L 18.40625 75.984375 
L 18.40625 64.59375 
L 9.421875 64.59375 
z
" id="DejaVuSans-105"/>
     <path d="M 54.890625 33.015625 
L 54.890625 0 
L 45.90625 0 
L 45.90625 32.71875 
Q 45.90625 40.484375 42.875 44.328125 
Q 39.84375 48.1875 33.796875 48.1875 
Q 26.515625 48.1875 22.3125 43.546875 
Q 18.109375 38.921875 18.109375 30.90625 
L 18.109375 0 
L 9.078125 0 
L 9.078125 54.6875 
L 18.109375 54.6875 
L 18.109375 46.1875 
Q 21.34375 51.125 25.703125 53.5625 
Q 30.078125 56 35.796875 56 
Q 45.21875 56 50.046875 50.171875 
Q 54.890625 44.34375 54.890625 33.015625 
z
" id="DejaVuSans-110"/>
    </defs>
    <g transform="translate(288.687629 78.9312)scale(0.12 -0.12)">
     <use xlink:href="#DejaVuSans-76"/>
     <use x="55.712891" xlink:href="#DejaVuSans-97"/>
     <use x="116.992188" xlink:href="#DejaVuSans-116"/>
     <use x="156.201172" xlink:href="#DejaVuSans-101"/>
     <use x="217.724609" xlink:href="#DejaVuSans-114"/>
     <use x="258.837891" xlink:href="#DejaVuSans-97"/>
     <use x="320.117188" xlink:href="#DejaVuSans-108"/>
     <use x="347.900391" xlink:href="#DejaVuSans-32"/>
     <use x="379.6875" xlink:href="#DejaVuSans-106"/>
     <use x="407.470703" xlink:href="#DejaVuSans-111"/>
     <use x="468.652344" xlink:href="#DejaVuSans-105"/>
     <use x="496.435547" xlink:href="#DejaVuSans-110"/>
     <use x="559.814453" xlink:href="#DejaVuSans-116"/>
     <use x="599.023438" xlink:href="#DejaVuSans-32"/>
     <use x="630.810547" xlink:href="#DejaVuSans-48"/>
    </g>
   </g>
  </g>
  <g id="axes_2">
   <g id="patch_7">
    <path d="M 550.927059 332.6472 
L 866.032941 332.6472 
L 866.032941 84.9312 
L 550.927059 84.9312 
z
" style="fill:#ffffff;"/>
   </g>
   <g id="matplotlib.axis_3">
    <g id="xtick_6">
     <g id="line2d_17">
      <g>
       <use style="stroke:#000000;stroke-width:0.8;" x="565.250053" xlink:href="#m36561338c4" y="332.6472"/>
      </g>
     </g>
     <g id="text_15">
      <!-- 0 -->
      <g transform="translate(562.068803 347.245637)scale(0.1 -0.1)">
       <use xlink:href="#DejaVuSans-48"/>
      </g>
     </g>
    </g>
    <g id="xtick_7">
     <g id="line2d_18">
      <g>
       <use style="stroke:#000000;stroke-width:0.8;" x="626.722134" xlink:href="#m36561338c4" y="332.6472"/>
      </g>
     </g>
     <g id="text_16">
      <!-- 50 -->
      <g transform="translate(620.359634 347.245637)scale(0.1 -0.1)">
       <use xlink:href="#DejaVuSans-53"/>
       <use x="63.623047" xlink:href="#DejaVuSans-48"/>
      </g>
     </g>
    </g>
    <g id="xtick_8">
     <g id="line2d_19">
      <g>
       <use style="stroke:#000000;stroke-width:0.8;" x="688.194214" xlink:href="#m36561338c4" y="332.6472"/>
      </g>
     </g>
     <g id="text_17">
      <!-- 100 -->
      <g transform="translate(678.650464 347.245637)scale(0.1 -0.1)">
       <use xlink:href="#DejaVuSans-49"/>
       <use x="63.623047" xlink:href="#DejaVuSans-48"/>
       <use x="127.246094" xlink:href="#DejaVuSans-48"/>
      </g>
     </g>
    </g>
    <g id="xtick_9">
     <g id="line2d_20">
      <g>
       <use style="stroke:#000000;stroke-width:0.8;" x="749.666294" xlink:href="#m36561338c4" y="332.6472"/>
      </g>
     </g>
     <g id="text_18">
      <!-- 150 -->
      <g transform="translate(740.122544 347.245637)scale(0.1 -0.1)">
       <use xlink:href="#DejaVuSans-49"/>
       <use x="63.623047" xlink:href="#DejaVuSans-53"/>
       <use x="127.246094" xlink:href="#DejaVuSans-48"/>
      </g>
     </g>
    </g>
    <g id="xtick_10">
     <g id="line2d_21">
      <g>
       <use style="stroke:#000000;stroke-width:0.8;" x="811.138374" xlink:href="#m36561338c4" y="332.6472"/>
      </g>
     </g>
     <g id="text_19">
      <!-- 200 -->
      <g transform="translate(801.594624 347.245637)scale(0.1 -0.1)">
       <use xlink:href="#DejaVuSans-50"/>
       <use x="63.623047" xlink:href="#DejaVuSans-48"/>
       <use x="127.246094" xlink:href="#DejaVuSans-48"/>
      </g>
     </g>
    </g>
   </g>
   <g id="matplotlib.axis_4">
    <g id="ytick_9">
     <g id="line2d_22">
      <g>
       <use style="stroke:#000000;stroke-width:0.8;" x="550.927059" xlink:href="#m86f2724caa" y="331.797632"/>
      </g>
     </g>
     <g id="text_20">
      <!-- −0.6 -->
      <g transform="translate(519.644246 335.59685)scale(0.1 -0.1)">
       <use xlink:href="#DejaVuSans-8722"/>
       <use x="83.789062" xlink:href="#DejaVuSans-48"/>
       <use x="147.412109" xlink:href="#DejaVuSans-46"/>
       <use x="179.199219" xlink:href="#DejaVuSans-54"/>
      </g>
     </g>
    </g>
    <g id="ytick_10">
     <g id="line2d_23">
      <g>
       <use style="stroke:#000000;stroke-width:0.8;" x="550.927059" xlink:href="#m86f2724caa" y="287.587762"/>
      </g>
     </g>
     <g id="text_21">
      <!-- −0.4 -->
      <g transform="translate(519.644246 291.386981)scale(0.1 -0.1)">
       <use xlink:href="#DejaVuSans-8722"/>
       <use x="83.789062" xlink:href="#DejaVuSans-48"/>
       <use x="147.412109" xlink:href="#DejaVuSans-46"/>
       <use x="179.199219" xlink:href="#DejaVuSans-52"/>
      </g>
     </g>
    </g>
    <g id="ytick_11">
     <g id="line2d_24">
      <g>
       <use style="stroke:#000000;stroke-width:0.8;" x="550.927059" xlink:href="#m86f2724caa" y="243.377893"/>
      </g>
     </g>
     <g id="text_22">
      <!-- −0.2 -->
      <g transform="translate(519.644246 247.177112)scale(0.1 -0.1)">
       <use xlink:href="#DejaVuSans-8722"/>
       <use x="83.789062" xlink:href="#DejaVuSans-48"/>
       <use x="147.412109" xlink:href="#DejaVuSans-46"/>
       <use x="179.199219" xlink:href="#DejaVuSans-50"/>
      </g>
     </g>
    </g>
    <g id="ytick_12">
     <g id="line2d_25">
      <g>
       <use style="stroke:#000000;stroke-width:0.8;" x="550.927059" xlink:href="#m86f2724caa" y="199.168024"/>
      </g>
     </g>
     <g id="text_23">
      <!-- 0.0 -->
      <g transform="translate(528.023934 202.967243)scale(0.1 -0.1)">
       <use xlink:href="#DejaVuSans-48"/>
       <use x="63.623047" xlink:href="#DejaVuSans-46"/>
       <use x="95.410156" xlink:href="#DejaVuSans-48"/>
      </g>
     </g>
    </g>
    <g id="ytick_13">
     <g id="line2d_26">
      <g>
       <use style="stroke:#000000;stroke-width:0.8;" x="550.927059" xlink:href="#m86f2724caa" y="154.958155"/>
      </g>
     </g>
     <g id="text_24">
      <!-- 0.2 -->
      <g transform="translate(528.023934 158.757374)scale(0.1 -0.1)">
       <use xlink:href="#DejaVuSans-48"/>
       <use x="63.623047" xlink:href="#DejaVuSans-46"/>
       <use x="95.410156" xlink:href="#DejaVuSans-50"/>
      </g>
     </g>
    </g>
    <g id="ytick_14">
     <g id="line2d_27">
      <g>
       <use style="stroke:#000000;stroke-width:0.8;" x="550.927059" xlink:href="#m86f2724caa" y="110.748286"/>
      </g>
     </g>
     <g id="text_25">
      <!-- 0.4 -->
      <g transform="translate(528.023934 114.547504)scale(0.1 -0.1)">
       <use xlink:href="#DejaVuSans-48"/>
       <use x="63.623047" xlink:href="#DejaVuSans-46"/>
       <use x="95.410156" xlink:href="#DejaVuSans-52"/>
      </g>
     </g>
    </g>
   </g>
   <g id="line2d_28">
    <path clip-path="url(#p758242603f)" d="M 565.250053 199.1678 
L 567.708937 199.1439 
L 578.773911 198.49262 
L 586.150561 198.838581 
L 592.297769 199.232806 
L 595.986094 199.718126 
L 598.444977 200.313211 
L 602.133302 201.18851 
L 605.821626 201.992887 
L 609.509951 202.431496 
L 614.427718 202.971547 
L 619.345484 203.368939 
L 623.033809 203.193105 
L 625.492692 202.951763 
L 630.410458 202.296744 
L 634.098783 201.879889 
L 637.787108 201.390837 
L 640.245991 200.763371 
L 645.163758 199.159898 
L 652.540407 196.150309 
L 656.228732 194.136971 
L 658.687615 192.501096 
L 662.37594 189.955718 
L 672.211473 183.379978 
L 679.588122 178.052031 
L 686.964772 173.270077 
L 689.423655 171.473626 
L 694.341422 167.642713 
L 699.259188 164.10549 
L 701.718071 162.481681 
L 707.865279 158.128416 
L 710.324162 156.473072 
L 712.783046 155.094859 
L 726.306903 148.513644 
L 729.995228 146.970526 
L 734.912994 145.143733 
L 743.519086 141.48345 
L 745.977969 140.68441 
L 752.125177 138.974006 
L 759.501826 137.133327 
L 763.190151 136.495256 
L 779.172892 134.721276 
L 782.861217 134.664674 
L 786.549542 134.81529 
L 790.237866 135.247657 
L 792.69675 135.64981 
L 795.155633 136.246307 
L 797.614516 137.142616 
L 800.073399 138.322578 
L 802.532282 139.866483 
L 804.991166 141.845222 
L 807.450049 144.181044 
L 809.908932 146.890649 
L 812.367815 150.07941 
L 814.826698 153.747679 
L 817.285582 157.915648 
L 819.744465 162.673183 
L 822.203348 168.050288 
L 824.662231 173.954505 
L 827.121115 180.361731 
L 829.579998 187.283627 
L 833.268323 198.452637 
L 836.956647 210.460494 
L 841.874414 227.651941 
L 848.021622 249.231926 
L 851.709947 261.479476 
L 851.709947 261.479476 
" style="fill:none;stroke:#ff796c;stroke-linecap:square;stroke-width:1.5;"/>
   </g>
   <g id="line2d_29">
    <path clip-path="url(#p758242603f)" d="M 565.250053 315.216047 
L 575.085586 315.116896 
L 581.232794 314.858664 
L 589.838885 314.287228 
L 609.509951 312.735827 
L 615.657159 312.532582 
L 621.804367 312.575939 
L 632.869342 313.00897 
L 637.787108 313.420682 
L 643.934316 314.159911 
L 650.081524 315.105361 
L 657.458174 316.555179 
L 666.064265 318.187061 
L 675.899798 319.801749 
L 682.047006 320.47958 
L 690.653097 321.231395 
L 695.570863 321.387382 
L 700.48863 321.294415 
L 704.176954 321.073724 
L 707.865279 320.642807 
L 711.553604 319.950494 
L 715.241929 319.046939 
L 718.930254 317.993276 
L 722.618578 316.764533 
L 726.306903 315.30565 
L 731.22467 313.045698 
L 736.142436 310.514951 
L 739.830761 308.383696 
L 743.519086 305.982201 
L 747.20741 303.316911 
L 750.895735 300.41651 
L 754.58406 297.257748 
L 758.272385 293.810671 
L 761.96071 290.069848 
L 766.878476 284.6948 
L 771.796242 278.881824 
L 775.484567 274.200374 
L 780.402334 267.501118 
L 784.090658 262.113883 
L 787.778983 256.399134 
L 791.467308 250.308648 
L 795.155633 243.841238 
L 798.843958 236.950001 
L 802.532282 229.636542 
L 806.220607 221.843334 
L 809.908932 213.593593 
L 813.597257 204.864983 
L 818.515023 192.543092 
L 822.203348 182.783158 
L 827.121115 169.149828 
L 833.268323 151.263388 
L 844.333297 117.993565 
L 851.709947 96.191018 
L 851.709947 96.191018 
" style="fill:none;stroke:#ffff14;stroke-linecap:square;stroke-width:1.5;"/>
   </g>
   <g id="line2d_30">
    <path clip-path="url(#p758242603f)" d="M 565.250053 315.215097 
L 623.033809 315.116113 
L 639.01655 314.849423 
L 650.081524 314.460139 
L 659.917057 313.891397 
L 668.523148 313.157932 
L 675.899798 312.30545 
L 682.047006 311.404262 
L 688.194214 310.300436 
L 694.341422 308.96459 
L 700.48863 307.366124 
L 705.406396 305.876856 
L 710.324162 304.182484 
L 715.241929 302.266357 
L 720.159695 300.111679 
L 725.077462 297.701761 
L 729.995228 295.020379 
L 734.912994 292.051767 
L 739.830761 288.780771 
L 744.748527 285.19338 
L 749.666294 281.276994 
L 754.58406 277.020542 
L 759.501826 272.414896 
L 764.419593 267.453238 
L 769.337359 262.131115 
L 774.255126 256.446592 
L 779.172892 250.400604 
L 784.090658 243.997158 
L 789.008425 237.243404 
L 793.926191 230.149774 
L 800.073399 220.826173 
L 806.220607 211.027626 
L 812.367815 200.795802 
L 819.744465 188.013708 
L 827.121115 174.769379 
L 835.727206 158.864973 
L 848.021622 135.600676 
L 851.709947 128.555259 
L 851.709947 128.555259 
" style="fill:none;stroke:#014d4e;stroke-linecap:square;stroke-width:1.5;"/>
   </g>
   <g id="patch_8">
    <path d="M 550.927059 332.6472 
L 550.927059 84.9312 
" style="fill:none;stroke:#000000;stroke-linecap:square;stroke-linejoin:miter;stroke-width:0.8;"/>
   </g>
   <g id="patch_9">
    <path d="M 866.032941 332.6472 
L 866.032941 84.9312 
" style="fill:none;stroke:#000000;stroke-linecap:square;stroke-linejoin:miter;stroke-width:0.8;"/>
   </g>
   <g id="patch_10">
    <path d="M 550.927059 332.6472 
L 866.032941 332.6472 
" style="fill:none;stroke:#000000;stroke-linecap:square;stroke-linejoin:miter;stroke-width:0.8;"/>
   </g>
   <g id="patch_11">
    <path d="M 550.927059 84.9312 
L 866.032941 84.9312 
" style="fill:none;stroke:#000000;stroke-linecap:square;stroke-linejoin:miter;stroke-width:0.8;"/>
   </g>
   <g id="text_26">
    <!-- Lateral joint 1 -->
    <g transform="translate(666.814687 78.9312)scale(0.12 -0.12)">
     <use xlink:href="#DejaVuSans-76"/>
     <use x="55.712891" xlink:href="#DejaVuSans-97"/>
     <use x="116.992188" xlink:href="#DejaVuSans-116"/>
     <use x="156.201172" xlink:href="#DejaVuSans-101"/>
     <use x="217.724609" xlink:href="#DejaVuSans-114"/>
     <use x="258.837891" xlink:href="#DejaVuSans-97"/>
     <use x="320.117188" xlink:href="#DejaVuSans-108"/>
     <use x="347.900391" xlink:href="#DejaVuSans-32"/>
     <use x="379.6875" xlink:href="#DejaVuSans-106"/>
     <use x="407.470703" xlink:href="#DejaVuSans-111"/>
     <use x="468.652344" xlink:href="#DejaVuSans-105"/>
     <use x="496.435547" xlink:href="#DejaVuSans-110"/>
     <use x="559.814453" xlink:href="#DejaVuSans-116"/>
     <use x="599.023438" xlink:href="#DejaVuSans-32"/>
     <use x="630.810547" xlink:href="#DejaVuSans-49"/>
    </g>
   </g>
  </g>
  <g id="axes_3">
   <g id="patch_12">
    <path d="M 929.054118 332.6472 
L 1244.16 332.6472 
L 1244.16 84.9312 
L 929.054118 84.9312 
z
" style="fill:#ffffff;"/>
   </g>
   <g id="matplotlib.axis_5">
    <g id="xtick_11">
     <g id="line2d_31">
      <g>
       <use style="stroke:#000000;stroke-width:0.8;" x="943.377112" xlink:href="#m36561338c4" y="332.6472"/>
      </g>
     </g>
     <g id="text_27">
      <!-- 0 -->
      <g transform="translate(940.195862 347.245637)scale(0.1 -0.1)">
       <use xlink:href="#DejaVuSans-48"/>
      </g>
     </g>
    </g>
    <g id="xtick_12">
     <g id="line2d_32">
      <g>
       <use style="stroke:#000000;stroke-width:0.8;" x="1004.849192" xlink:href="#m36561338c4" y="332.6472"/>
      </g>
     </g>
     <g id="text_28">
      <!-- 50 -->
      <g transform="translate(998.486692 347.245637)scale(0.1 -0.1)">
       <use xlink:href="#DejaVuSans-53"/>
       <use x="63.623047" xlink:href="#DejaVuSans-48"/>
      </g>
     </g>
    </g>
    <g id="xtick_13">
     <g id="line2d_33">
      <g>
       <use style="stroke:#000000;stroke-width:0.8;" x="1066.321272" xlink:href="#m36561338c4" y="332.6472"/>
      </g>
     </g>
     <g id="text_29">
      <!-- 100 -->
      <g transform="translate(1056.777522 347.245637)scale(0.1 -0.1)">
       <use xlink:href="#DejaVuSans-49"/>
       <use x="63.623047" xlink:href="#DejaVuSans-48"/>
       <use x="127.246094" xlink:href="#DejaVuSans-48"/>
      </g>
     </g>
    </g>
    <g id="xtick_14">
     <g id="line2d_34">
      <g>
       <use style="stroke:#000000;stroke-width:0.8;" x="1127.793352" xlink:href="#m36561338c4" y="332.6472"/>
      </g>
     </g>
     <g id="text_30">
      <!-- 150 -->
      <g transform="translate(1118.249602 347.245637)scale(0.1 -0.1)">
       <use xlink:href="#DejaVuSans-49"/>
       <use x="63.623047" xlink:href="#DejaVuSans-53"/>
       <use x="127.246094" xlink:href="#DejaVuSans-48"/>
      </g>
     </g>
    </g>
    <g id="xtick_15">
     <g id="line2d_35">
      <g>
       <use style="stroke:#000000;stroke-width:0.8;" x="1189.265433" xlink:href="#m36561338c4" y="332.6472"/>
      </g>
     </g>
     <g id="text_31">
      <!-- 200 -->
      <g transform="translate(1179.721683 347.245637)scale(0.1 -0.1)">
       <use xlink:href="#DejaVuSans-50"/>
       <use x="63.623047" xlink:href="#DejaVuSans-48"/>
       <use x="127.246094" xlink:href="#DejaVuSans-48"/>
      </g>
     </g>
    </g>
   </g>
   <g id="matplotlib.axis_6">
    <g id="ytick_15">
     <g id="line2d_36">
      <g>
       <use style="stroke:#000000;stroke-width:0.8;" x="929.054118" xlink:href="#m86f2724caa" y="311.103566"/>
      </g>
     </g>
     <g id="text_32">
      <!-- −0.8 -->
      <g transform="translate(897.771305 314.902785)scale(0.1 -0.1)">
       <use xlink:href="#DejaVuSans-8722"/>
       <use x="83.789062" xlink:href="#DejaVuSans-48"/>
       <use x="147.412109" xlink:href="#DejaVuSans-46"/>
       <use x="179.199219" xlink:href="#DejaVuSans-56"/>
      </g>
     </g>
    </g>
    <g id="ytick_16">
     <g id="line2d_37">
      <g>
       <use style="stroke:#000000;stroke-width:0.8;" x="929.054118" xlink:href="#m86f2724caa" y="272.751302"/>
      </g>
     </g>
     <g id="text_33">
      <!-- −0.6 -->
      <g transform="translate(897.771305 276.550521)scale(0.1 -0.1)">
       <use xlink:href="#DejaVuSans-8722"/>
       <use x="83.789062" xlink:href="#DejaVuSans-48"/>
       <use x="147.412109" xlink:href="#DejaVuSans-46"/>
       <use x="179.199219" xlink:href="#DejaVuSans-54"/>
      </g>
     </g>
    </g>
    <g id="ytick_17">
     <g id="line2d_38">
      <g>
       <use style="stroke:#000000;stroke-width:0.8;" x="929.054118" xlink:href="#m86f2724caa" y="234.399038"/>
      </g>
     </g>
     <g id="text_34">
      <!-- −0.4 -->
      <g transform="translate(897.771305 238.198256)scale(0.1 -0.1)">
       <use xlink:href="#DejaVuSans-8722"/>
       <use x="83.789062" xlink:href="#DejaVuSans-48"/>
       <use x="147.412109" xlink:href="#DejaVuSans-46"/>
       <use x="179.199219" xlink:href="#DejaVuSans-52"/>
      </g>
     </g>
    </g>
    <g id="ytick_18">
     <g id="line2d_39">
      <g>
       <use style="stroke:#000000;stroke-width:0.8;" x="929.054118" xlink:href="#m86f2724caa" y="196.046773"/>
      </g>
     </g>
     <g id="text_35">
      <!-- −0.2 -->
      <g transform="translate(897.771305 199.845992)scale(0.1 -0.1)">
       <use xlink:href="#DejaVuSans-8722"/>
       <use x="83.789062" xlink:href="#DejaVuSans-48"/>
       <use x="147.412109" xlink:href="#DejaVuSans-46"/>
       <use x="179.199219" xlink:href="#DejaVuSans-50"/>
      </g>
     </g>
    </g>
    <g id="ytick_19">
     <g id="line2d_40">
      <g>
       <use style="stroke:#000000;stroke-width:0.8;" x="929.054118" xlink:href="#m86f2724caa" y="157.694509"/>
      </g>
     </g>
     <g id="text_36">
      <!-- 0.0 -->
      <g transform="translate(906.150993 161.493728)scale(0.1 -0.1)">
       <use xlink:href="#DejaVuSans-48"/>
       <use x="63.623047" xlink:href="#DejaVuSans-46"/>
       <use x="95.410156" xlink:href="#DejaVuSans-48"/>
      </g>
     </g>
    </g>
    <g id="ytick_20">
     <g id="line2d_41">
      <g>
       <use style="stroke:#000000;stroke-width:0.8;" x="929.054118" xlink:href="#m86f2724caa" y="119.342245"/>
      </g>
     </g>
     <g id="text_37">
      <!-- 0.2 -->
      <g transform="translate(906.150993 123.141464)scale(0.1 -0.1)">
       <use xlink:href="#DejaVuSans-48"/>
       <use x="63.623047" xlink:href="#DejaVuSans-46"/>
       <use x="95.410156" xlink:href="#DejaVuSans-50"/>
      </g>
     </g>
    </g>
   </g>
   <g id="line2d_42">
    <path clip-path="url(#p7fc5673d0b)" d="M 943.377112 157.462367 
L 944.606554 158.839444 
L 945.835996 158.390994 
L 947.065437 155.574109 
L 948.294879 156.066069 
L 949.52432 159.819166 
L 950.753762 159.72929 
L 951.983204 155.20672 
L 953.212645 154.973487 
L 954.442087 159.651657 
L 955.671528 160.884409 
L 956.90097 157.754335 
L 958.130412 157.222068 
L 959.359853 160.404581 
L 960.589295 160.612176 
L 961.818736 158.733028 
L 963.048178 160.392728 
L 964.27762 162.351903 
L 965.507061 159.490679 
L 966.736503 157.45239 
L 967.965944 161.672975 
L 969.195386 164.757082 
L 970.424828 161.568054 
L 971.654269 159.578872 
L 972.883711 163.840809 
L 974.113152 167.317893 
L 975.342594 165.872333 
L 976.572036 165.674981 
L 977.801477 168.705784 
L 979.030919 169.081263 
L 980.26036 167.601943 
L 981.489802 169.7837 
L 982.719244 172.671913 
L 983.948685 170.67543 
L 985.178127 167.809831 
L 986.407568 170.301473 
L 987.63701 174.295639 
L 988.866452 173.226154 
L 990.095893 170.783111 
L 991.325335 172.745425 
L 992.554776 175.552547 
L 993.784218 175.006079 
L 995.01366 174.857792 
L 996.243101 177.16435 
L 997.472543 177.144333 
L 998.701984 174.626711 
L 999.931426 175.966618 
L 1001.160868 179.923405 
L 1002.390309 178.988003 
L 1003.619751 175.031159 
L 1004.849192 176.210104 
L 1006.078634 180.635579 
L 1007.308076 180.570854 
L 1008.537517 177.931693 
L 1009.766959 178.985699 
L 1010.9964 181.137195 
L 1012.225842 179.958204 
L 1013.455284 179.307772 
L 1014.684725 181.774507 
L 1015.914167 181.696375 
L 1017.143608 177.768355 
L 1018.37305 177.52257 
L 1019.602492 181.864215 
L 1020.831933 182.218596 
L 1022.061375 177.760283 
L 1023.290816 177.221167 
L 1024.520258 181.175695 
L 1025.7497 181.779734 
L 1026.979141 179.051922 
L 1028.208583 179.201373 
L 1029.438024 180.582531 
L 1031.896908 176.369555 
L 1033.126349 178.476172 
L 1034.355791 178.753366 
L 1035.585232 173.669553 
L 1036.814674 170.997171 
L 1038.044116 174.575011 
L 1039.273557 176.054839 
L 1040.502999 171.481481 
L 1041.73244 168.883243 
L 1042.961882 171.690788 
L 1044.191324 172.696486 
L 1045.420765 169.79463 
L 1046.650207 169.074871 
L 1047.879648 170.409895 
L 1049.10909 168.227594 
L 1050.338532 165.154286 
L 1051.567973 167.006065 
L 1052.797415 169.105695 
L 1055.256298 160.773866 
L 1056.48574 163.513238 
L 1057.715181 166.847967 
L 1058.944623 163.442576 
L 1060.174064 159.242704 
L 1062.632948 162.17405 
L 1063.862389 159.129949 
L 1065.091831 157.00064 
L 1066.321272 158.202513 
L 1067.550714 156.718569 
L 1068.780156 152.557345 
L 1070.009597 153.012037 
L 1071.239039 156.499487 
L 1072.46848 154.378238 
L 1073.697922 148.98851 
L 1074.927364 149.798275 
L 1076.156805 154.183246 
L 1077.386247 152.567525 
L 1078.615688 147.406157 
L 1079.84513 147.144933 
L 1081.074572 149.174727 
L 1082.304013 146.739955 
L 1083.533455 143.637248 
L 1084.762896 144.760422 
L 1085.992338 144.808063 
L 1087.22178 140.485618 
L 1088.451221 139.240873 
L 1089.680663 143.313884 
L 1090.910104 143.672196 
L 1092.139546 138.187572 
L 1093.368988 136.777108 
L 1094.598429 141.301337 
L 1095.827871 141.736451 
L 1097.057312 136.938699 
L 1098.286754 136.019633 
L 1099.516196 138.746791 
L 1100.745637 137.152087 
L 1101.975079 133.922529 
L 1104.433962 137.827589 
L 1105.663404 133.382341 
L 1106.892845 130.360365 
L 1108.122287 134.529436 
L 1109.351728 136.399119 
L 1110.58117 130.784767 
L 1111.810612 127.843596 
L 1113.040053 131.416084 
L 1114.269495 131.719394 
L 1115.498936 127.034067 
L 1116.728378 126.941821 
L 1117.95782 129.870155 
L 1119.187261 126.807802 
L 1120.416703 123.039798 
L 1121.646144 126.976068 
L 1122.875586 130.053017 
L 1124.105028 124.809961 
L 1125.334469 121.856064 
L 1126.563911 126.475334 
L 1127.793352 127.142423 
L 1129.022794 122.042495 
L 1130.252236 122.403155 
L 1131.481677 125.33091 
L 1132.711119 120.840261 
L 1133.94056 116.969893 
L 1135.170002 121.704445 
L 1136.399444 123.019243 
L 1137.628885 116.321594 
L 1138.858327 115.52308 
L 1140.087768 120.362435 
L 1141.31721 117.872271 
L 1142.546652 114.324705 
L 1143.776093 118.929712 
L 1145.005535 119.468031 
L 1146.234976 112.428192 
L 1147.464418 113.42284 
L 1148.69386 119.062418 
L 1151.152743 111.03597 
L 1152.382184 115.571843 
L 1153.611626 113.66147 
L 1154.841068 107.407648 
L 1156.070509 112.021452 
L 1157.299951 115.345237 
L 1158.529392 107.982099 
L 1159.758834 107.536108 
L 1160.988276 112.031661 
L 1162.217717 106.226797 
L 1163.447159 104.359131 
L 1164.6766 111.369504 
L 1165.906042 107.17587 
L 1167.135484 100.845254 
L 1168.364925 106.281193 
L 1169.594367 104.593254 
L 1170.823808 98.748576 
L 1172.05325 105.855918 
L 1173.282692 106.414341 
L 1174.512133 98.268333 
L 1175.741575 103.227976 
L 1176.971017 104.680015 
L 1178.200458 97.669927 
L 1179.4299 104.771908 
L 1180.659341 107.422076 
L 1181.888783 98.813481 
L 1183.118225 103.958712 
L 1184.347666 104.36173 
L 1185.577108 96.191018 
L 1186.806549 104.584017 
L 1188.035991 105.33506 
L 1189.265433 98.23811 
L 1190.494874 106.612823 
L 1191.724316 102.72281 
L 1192.953757 97.440455 
L 1194.183199 108.481904 
L 1195.412641 103.966961 
L 1196.642082 105.357392 
L 1197.871524 115.198874 
L 1199.100965 105.867753 
L 1200.330407 111.132726 
L 1201.559849 115.47117 
L 1202.78929 107.810115 
L 1204.018732 120.919174 
L 1206.477615 117.297014 
L 1207.707057 128.241645 
L 1208.936498 117.328383 
L 1210.16594 124.869339 
L 1211.395381 128.215983 
L 1212.624823 122.491717 
L 1213.854265 138.277027 
L 1215.083706 130.60702 
L 1216.313148 136.281579 
L 1217.542589 141.420472 
L 1218.772031 131.456842 
L 1220.001473 146.850781 
L 1221.230914 138.424949 
L 1222.460356 147.126152 
L 1223.689797 154.37073 
L 1224.919239 145.315292 
L 1226.148681 163.410576 
L 1227.378122 148.267738 
L 1228.607564 160.221662 
L 1229.837005 159.977933 
L 1229.837005 159.977933 
" style="fill:none;stroke:#ff796c;stroke-linecap:square;stroke-width:1.5;"/>
   </g>
   <g id="line2d_43">
    <path clip-path="url(#p7fc5673d0b)" d="M 943.377112 321.361421 
L 1015.914167 321.256991 
L 1035.585232 320.984602 
L 1052.797415 320.427418 
L 1061.403506 319.978832 
L 1074.927364 318.951981 
L 1082.304013 318.165852 
L 1093.368988 316.668608 
L 1100.745637 315.407651 
L 1108.122287 313.911741 
L 1115.498936 312.119152 
L 1124.105028 309.747033 
L 1129.022794 308.179971 
L 1135.170002 305.958793 
L 1142.546652 303.052443 
L 1148.69386 300.360274 
L 1154.841068 297.411092 
L 1162.217717 293.51513 
L 1168.364925 289.978634 
L 1175.741575 285.480518 
L 1181.888783 281.466275 
L 1188.035991 277.162351 
L 1196.642082 270.878329 
L 1206.477615 263.381859 
L 1216.313148 255.484791 
L 1229.837005 244.460065 
L 1229.837005 244.460065 
" style="fill:none;stroke:#ffff14;stroke-linecap:square;stroke-width:1.5;"/>
   </g>
   <g id="line2d_44">
    <path clip-path="url(#p7fc5673d0b)" d="M 943.377112 321.361409 
L 1013.455284 321.256133 
L 1033.126349 320.992203 
L 1047.879648 320.566251 
L 1058.944623 320.044133 
L 1068.780156 319.381188 
L 1077.386247 318.608146 
L 1085.992338 317.617746 
L 1093.368988 316.567034 
L 1100.745637 315.303723 
L 1108.122287 313.802417 
L 1115.498936 312.037901 
L 1121.646144 310.348677 
L 1127.793352 308.446358 
L 1133.94056 306.319057 
L 1140.087768 303.956656 
L 1146.234976 301.351287 
L 1152.382184 298.497685 
L 1158.529392 295.393591 
L 1164.6766 292.040165 
L 1170.823808 288.442223 
L 1176.971017 284.608457 
L 1184.347666 279.714864 
L 1191.724316 274.529545 
L 1199.100965 269.088643 
L 1207.707057 262.473516 
L 1218.772031 253.656484 
L 1229.837005 244.634316 
L 1229.837005 244.634316 
" style="fill:none;stroke:#014d4e;stroke-linecap:square;stroke-width:1.5;"/>
   </g>
   <g id="patch_13">
    <path d="M 929.054118 332.6472 
L 929.054118 84.9312 
" style="fill:none;stroke:#000000;stroke-linecap:square;stroke-linejoin:miter;stroke-width:0.8;"/>
   </g>
   <g id="patch_14">
    <path d="M 1244.16 332.6472 
L 1244.16 84.9312 
" style="fill:none;stroke:#000000;stroke-linecap:square;stroke-linejoin:miter;stroke-width:0.8;"/>
   </g>
   <g id="patch_15">
    <path d="M 929.054118 332.6472 
L 1244.16 332.6472 
" style="fill:none;stroke:#000000;stroke-linecap:square;stroke-linejoin:miter;stroke-width:0.8;"/>
   </g>
   <g id="patch_16">
    <path d="M 929.054118 84.9312 
L 1244.16 84.9312 
" style="fill:none;stroke:#000000;stroke-linecap:square;stroke-linejoin:miter;stroke-width:0.8;"/>
   </g>
   <g id="text_38">
    <!-- Lateral joint 2 -->
    <g transform="translate(1044.941746 78.9312)scale(0.12 -0.12)">
     <use xlink:href="#DejaVuSans-76"/>
     <use x="55.712891" xlink:href="#DejaVuSans-97"/>
     <use x="116.992188" xlink:href="#DejaVuSans-116"/>
     <use x="156.201172" xlink:href="#DejaVuSans-101"/>
     <use x="217.724609" xlink:href="#DejaVuSans-114"/>
     <use x="258.837891" xlink:href="#DejaVuSans-97"/>
     <use x="320.117188" xlink:href="#DejaVuSans-108"/>
     <use x="347.900391" xlink:href="#DejaVuSans-32"/>
     <use x="379.6875" xlink:href="#DejaVuSans-106"/>
     <use x="407.470703" xlink:href="#DejaVuSans-111"/>
     <use x="468.652344" xlink:href="#DejaVuSans-105"/>
     <use x="496.435547" xlink:href="#DejaVuSans-110"/>
     <use x="559.814453" xlink:href="#DejaVuSans-116"/>
     <use x="599.023438" xlink:href="#DejaVuSans-32"/>
     <use x="630.810547" xlink:href="#DejaVuSans-50"/>
    </g>
   </g>
  </g>
  <g id="axes_4">
   <g id="patch_17">
    <path d="M 172.8 629.9064 
L 487.905882 629.9064 
L 487.905882 382.1904 
L 172.8 382.1904 
z
" style="fill:#ffffff;"/>
   </g>
   <g id="matplotlib.axis_7">
    <g id="xtick_16">
     <g id="line2d_45">
      <g>
       <use style="stroke:#000000;stroke-width:0.8;" x="187.122995" xlink:href="#m36561338c4" y="629.9064"/>
      </g>
     </g>
     <g id="text_39">
      <!-- 0 -->
      <g transform="translate(183.941745 644.504838)scale(0.1 -0.1)">
       <use xlink:href="#DejaVuSans-48"/>
      </g>
     </g>
    </g>
    <g id="xtick_17">
     <g id="line2d_46">
      <g>
       <use style="stroke:#000000;stroke-width:0.8;" x="248.595075" xlink:href="#m36561338c4" y="629.9064"/>
      </g>
     </g>
     <g id="text_40">
      <!-- 50 -->
      <g transform="translate(242.232575 644.504838)scale(0.1 -0.1)">
       <use xlink:href="#DejaVuSans-53"/>
       <use x="63.623047" xlink:href="#DejaVuSans-48"/>
      </g>
     </g>
    </g>
    <g id="xtick_18">
     <g id="line2d_47">
      <g>
       <use style="stroke:#000000;stroke-width:0.8;" x="310.067155" xlink:href="#m36561338c4" y="629.9064"/>
      </g>
     </g>
     <g id="text_41">
      <!-- 100 -->
      <g transform="translate(300.523405 644.504838)scale(0.1 -0.1)">
       <use xlink:href="#DejaVuSans-49"/>
       <use x="63.623047" xlink:href="#DejaVuSans-48"/>
       <use x="127.246094" xlink:href="#DejaVuSans-48"/>
      </g>
     </g>
    </g>
    <g id="xtick_19">
     <g id="line2d_48">
      <g>
       <use style="stroke:#000000;stroke-width:0.8;" x="371.539235" xlink:href="#m36561338c4" y="629.9064"/>
      </g>
     </g>
     <g id="text_42">
      <!-- 150 -->
      <g transform="translate(361.995485 644.504838)scale(0.1 -0.1)">
       <use xlink:href="#DejaVuSans-49"/>
       <use x="63.623047" xlink:href="#DejaVuSans-53"/>
       <use x="127.246094" xlink:href="#DejaVuSans-48"/>
      </g>
     </g>
    </g>
    <g id="xtick_20">
     <g id="line2d_49">
      <g>
       <use style="stroke:#000000;stroke-width:0.8;" x="433.011315" xlink:href="#m36561338c4" y="629.9064"/>
      </g>
     </g>
     <g id="text_43">
      <!-- 200 -->
      <g transform="translate(423.467565 644.504838)scale(0.1 -0.1)">
       <use xlink:href="#DejaVuSans-50"/>
       <use x="63.623047" xlink:href="#DejaVuSans-48"/>
       <use x="127.246094" xlink:href="#DejaVuSans-48"/>
      </g>
     </g>
    </g>
   </g>
   <g id="matplotlib.axis_8">
    <g id="ytick_21">
     <g id="line2d_50">
      <g>
       <use style="stroke:#000000;stroke-width:0.8;" x="172.8" xlink:href="#m86f2724caa" y="606.824703"/>
      </g>
     </g>
     <g id="text_44">
      <!-- −0.8 -->
      <g transform="translate(141.517187 610.623921)scale(0.1 -0.1)">
       <use xlink:href="#DejaVuSans-8722"/>
       <use x="83.789062" xlink:href="#DejaVuSans-48"/>
       <use x="147.412109" xlink:href="#DejaVuSans-46"/>
       <use x="179.199219" xlink:href="#DejaVuSans-56"/>
      </g>
     </g>
    </g>
    <g id="ytick_22">
     <g id="line2d_51">
      <g>
       <use style="stroke:#000000;stroke-width:0.8;" x="172.8" xlink:href="#m86f2724caa" y="562.609493"/>
      </g>
     </g>
     <g id="text_45">
      <!-- −0.6 -->
      <g transform="translate(141.517187 566.408712)scale(0.1 -0.1)">
       <use xlink:href="#DejaVuSans-8722"/>
       <use x="83.789062" xlink:href="#DejaVuSans-48"/>
       <use x="147.412109" xlink:href="#DejaVuSans-46"/>
       <use x="179.199219" xlink:href="#DejaVuSans-54"/>
      </g>
     </g>
    </g>
    <g id="ytick_23">
     <g id="line2d_52">
      <g>
       <use style="stroke:#000000;stroke-width:0.8;" x="172.8" xlink:href="#m86f2724caa" y="518.394284"/>
      </g>
     </g>
     <g id="text_46">
      <!-- −0.4 -->
      <g transform="translate(141.517187 522.193503)scale(0.1 -0.1)">
       <use xlink:href="#DejaVuSans-8722"/>
       <use x="83.789062" xlink:href="#DejaVuSans-48"/>
       <use x="147.412109" xlink:href="#DejaVuSans-46"/>
       <use x="179.199219" xlink:href="#DejaVuSans-52"/>
      </g>
     </g>
    </g>
    <g id="ytick_24">
     <g id="line2d_53">
      <g>
       <use style="stroke:#000000;stroke-width:0.8;" x="172.8" xlink:href="#m86f2724caa" y="474.179075"/>
      </g>
     </g>
     <g id="text_47">
      <!-- −0.2 -->
      <g transform="translate(141.517187 477.978293)scale(0.1 -0.1)">
       <use xlink:href="#DejaVuSans-8722"/>
       <use x="83.789062" xlink:href="#DejaVuSans-48"/>
       <use x="147.412109" xlink:href="#DejaVuSans-46"/>
       <use x="179.199219" xlink:href="#DejaVuSans-50"/>
      </g>
     </g>
    </g>
    <g id="ytick_25">
     <g id="line2d_54">
      <g>
       <use style="stroke:#000000;stroke-width:0.8;" x="172.8" xlink:href="#m86f2724caa" y="429.963865"/>
      </g>
     </g>
     <g id="text_48">
      <!-- 0.0 -->
      <g transform="translate(149.896875 433.763084)scale(0.1 -0.1)">
       <use xlink:href="#DejaVuSans-48"/>
       <use x="63.623047" xlink:href="#DejaVuSans-46"/>
       <use x="95.410156" xlink:href="#DejaVuSans-48"/>
      </g>
     </g>
    </g>
    <g id="ytick_26">
     <g id="line2d_55">
      <g>
       <use style="stroke:#000000;stroke-width:0.8;" x="172.8" xlink:href="#m86f2724caa" y="385.748656"/>
      </g>
     </g>
     <g id="text_49">
      <!-- 0.2 -->
      <g transform="translate(149.896875 389.547875)scale(0.1 -0.1)">
       <use xlink:href="#DejaVuSans-48"/>
       <use x="63.623047" xlink:href="#DejaVuSans-46"/>
       <use x="95.410156" xlink:href="#DejaVuSans-50"/>
      </g>
     </g>
    </g>
   </g>
   <g id="line2d_56">
    <path clip-path="url(#p241c47e068)" d="M 187.122995 429.483717 
L 188.352436 432.032782 
L 189.581878 432.928814 
L 190.811319 429.606781 
L 192.040761 427.331242 
L 193.270203 428.742449 
L 194.499644 429.457344 
L 195.729086 427.639812 
L 196.958527 427.993658 
L 198.187969 430.666203 
L 199.417411 430.857362 
L 200.646852 429.610765 
L 201.876294 431.523334 
L 203.105735 435.234494 
L 204.335177 434.092973 
L 205.564619 430.314958 
L 206.79406 430.786682 
L 208.023502 433.053238 
L 209.252943 430.91621 
L 210.482385 427.511539 
L 211.711827 428.420955 
L 212.941268 429.915361 
L 214.17071 428.779798 
L 215.400151 429.377879 
L 216.629593 433.545281 
L 217.859035 435.517612 
L 219.088476 434.02217 
L 220.317918 435.431979 
L 221.547359 440.039478 
L 222.776801 440.575415 
L 224.006243 437.353917 
L 225.235684 436.795231 
L 226.465126 438.302345 
L 227.694567 437.161023 
L 228.924009 434.752306 
L 230.153451 435.13373 
L 231.382892 436.463925 
L 232.612334 435.446212 
L 233.841775 435.288844 
L 235.071217 438.688264 
L 236.300659 440.99899 
L 237.5301 439.365591 
L 238.759542 438.859067 
L 239.988983 441.9032 
L 241.218425 443.00272 
L 242.447867 440.059412 
L 243.677308 438.752934 
L 244.90675 440.336661 
L 246.136192 440.018445 
L 247.365633 438.172385 
L 248.595075 439.404944 
L 249.824516 441.904964 
L 251.053958 441.205038 
L 252.2834 440.36308 
L 253.512841 443.530658 
L 254.742283 446.202675 
L 257.201166 441.462059 
L 258.430608 443.054827 
L 259.660049 443.829451 
L 260.889491 440.675462 
L 262.118932 438.746338 
L 263.348374 440.281311 
L 264.577816 440.511709 
L 265.807257 438.9715 
L 267.036699 440.701746 
L 268.26614 444.401785 
L 269.495582 444.353512 
L 270.725024 442.656883 
L 271.954465 444.909655 
L 273.183907 447.792634 
L 274.413348 445.340565 
L 275.64279 441.239185 
L 276.872232 441.174004 
L 278.101673 441.578895 
L 279.331115 438.209341 
L 280.560556 435.457513 
L 281.789998 436.63667 
L 283.01944 437.122485 
L 284.248881 435.108344 
L 285.478323 435.879022 
L 286.707764 439.701026 
L 287.937206 439.977043 
L 289.166648 436.897144 
L 290.396089 437.294783 
L 291.625531 440.258646 
L 292.854972 438.818439 
L 294.084414 434.438752 
L 295.313856 433.993419 
L 296.543297 435.932015 
L 297.772739 434.633079 
L 299.00218 432.67003 
L 301.461064 436.620842 
L 302.690505 434.767797 
L 303.919947 433.827293 
L 305.149388 436.614848 
L 306.37883 436.858162 
L 307.608272 431.985961 
L 308.837713 429.169214 
L 310.067155 431.077656 
L 311.296596 430.730463 
L 312.526038 426.440732 
L 313.75548 425.26527 
L 314.984921 428.422462 
L 316.214363 429.485418 
L 317.443804 428.233613 
L 318.673246 430.074341 
L 319.902688 433.058057 
L 321.132129 431.58543 
L 322.361571 428.821387 
L 323.591012 430.072108 
L 324.820454 430.943543 
L 327.279337 421.366549 
L 328.508779 422.597564 
L 329.73822 424.346766 
L 330.967662 421.466144 
L 332.197104 419.579575 
L 333.426545 422.524178 
L 334.655987 424.708171 
L 335.885428 423.366662 
L 337.11487 423.858069 
L 338.344312 426.617999 
L 339.573753 425.281978 
L 340.803195 421.281479 
L 342.032636 421.979252 
L 343.262078 425.011407 
L 344.49152 422.537346 
L 345.720961 418.115218 
L 346.950403 419.781377 
L 348.179844 423.700498 
L 349.409286 422.666331 
L 350.638728 420.675067 
L 351.868169 422.70915 
L 353.097611 423.482324 
L 354.327052 420.057714 
L 355.556494 419.082825 
L 356.785936 421.399416 
L 358.015377 419.111541 
L 359.244819 413.131124 
L 360.47426 413.122862 
L 361.703702 417.406171 
L 362.933144 416.606555 
L 364.162585 413.589264 
L 365.392027 416.129205 
L 366.621468 419.562422 
L 367.85091 418.327416 
L 369.080352 418.703883 
L 370.309793 422.717349 
L 371.539235 421.523063 
L 372.768676 415.827726 
L 373.998118 415.998415 
L 375.22756 419.180179 
L 376.457001 415.67784 
L 377.686443 410.843042 
L 378.915884 412.196252 
L 380.145326 412.589771 
L 381.374768 409.075998 
L 382.604209 410.788098 
L 383.833651 415.505489 
L 385.063092 412.927585 
L 386.292534 409.412461 
L 387.521976 413.617186 
L 388.751417 416.036596 
L 389.980859 412.228435 
L 391.2103 412.635616 
L 392.439742 415.052771 
L 393.669184 410.321212 
L 394.898625 407.608274 
L 396.128067 412.663539 
L 397.357508 412.510848 
L 398.58695 407.49384 
L 399.816392 409.589598 
L 401.045833 411.216575 
L 402.275275 406.379843 
L 403.504716 407.842504 
L 404.734158 412.430529 
L 405.9636 407.451803 
L 407.193041 404.051621 
L 408.422483 407.540654 
L 410.881366 400.315301 
L 412.110808 405.333009 
L 413.340249 403.778485 
L 414.569691 398.005282 
L 415.799132 402.133386 
L 417.028574 402.840198 
L 418.258016 398.5996 
L 419.487457 404.514768 
L 420.716899 406.734098 
L 421.94634 401.061912 
L 423.175782 405.096114 
L 424.405224 406.284503 
L 425.634665 400.202349 
L 426.864107 404.914742 
L 428.093548 405.462833 
L 429.32299 398.172225 
L 430.552432 401.959714 
L 431.781873 400.04899 
L 433.011315 393.450218 
L 434.240756 399.704378 
L 435.470198 397.569387 
L 436.69964 393.976989 
L 437.929081 401.413298 
L 439.158523 396.706749 
L 440.387964 396.669686 
L 441.617406 403.964948 
L 442.846848 398.236167 
L 444.076289 403.512539 
L 445.305731 407.35073 
L 446.535172 401.099772 
L 447.764614 409.146175 
L 448.994056 406.122081 
L 450.223497 403.903424 
L 451.452939 411.853372 
L 452.68238 404.121948 
L 453.911822 409.408602 
L 455.141264 410.620911 
L 456.370705 404.32673 
L 457.600147 413.569902 
L 458.829588 406.271111 
L 461.288472 413.370977 
L 462.517913 406.112122 
L 463.747355 416.813261 
L 464.976796 409.41056 
L 466.206238 414.083582 
L 467.43568 418.010573 
L 468.665121 410.808344 
L 469.894563 424.280021 
L 471.124004 414.034638 
L 472.353446 423.327688 
L 473.582888 422.955479 
L 473.582888 422.955479 
" style="fill:none;stroke:#ff796c;stroke-linecap:square;stroke-width:1.5;"/>
   </g>
   <g id="line2d_57">
    <path clip-path="url(#p241c47e068)" d="M 187.122995 618.645909 
L 196.958527 618.548266 
L 208.023502 618.456491 
L 217.859035 618.373845 
L 226.465126 618.276237 
L 236.300659 618.180835 
L 249.824516 617.922796 
L 283.01944 617.789717 
L 319.902688 617.557704 
L 327.279337 617.502515 
L 334.655987 617.438072 
L 358.015377 616.729296 
L 364.162585 616.352786 
L 373.998118 615.634022 
L 382.604209 615.107439 
L 388.751417 614.488904 
L 408.422483 612.162614 
L 414.569691 611.218158 
L 440.387964 606.604384 
L 448.994056 604.668654 
L 453.911822 603.661204 
L 467.43568 601.050819 
L 473.582888 599.724098 
L 473.582888 599.724098 
" style="fill:none;stroke:#ffff14;stroke-linecap:square;stroke-width:1.5;"/>
   </g>
   <g id="line2d_58">
    <path clip-path="url(#p241c47e068)" d="M 187.122995 618.645857 
L 290.396089 618.534891 
L 316.214363 618.281961 
L 335.885428 617.875857 
L 351.868169 617.328143 
L 365.392027 616.654478 
L 377.686443 615.832037 
L 388.751417 614.890414 
L 399.816392 613.735813 
L 410.881366 612.353647 
L 421.94634 610.740132 
L 433.011315 608.904642 
L 445.305731 606.6343 
L 460.05903 603.662377 
L 473.582888 600.795068 
L 473.582888 600.795068 
" style="fill:none;stroke:#014d4e;stroke-linecap:square;stroke-width:1.5;"/>
   </g>
   <g id="patch_18">
    <path d="M 172.8 629.9064 
L 172.8 382.1904 
" style="fill:none;stroke:#000000;stroke-linecap:square;stroke-linejoin:miter;stroke-width:0.8;"/>
   </g>
   <g id="patch_19">
    <path d="M 487.905882 629.9064 
L 487.905882 382.1904 
" style="fill:none;stroke:#000000;stroke-linecap:square;stroke-linejoin:miter;stroke-width:0.8;"/>
   </g>
   <g id="patch_20">
    <path d="M 172.8 629.9064 
L 487.905882 629.9064 
" style="fill:none;stroke:#000000;stroke-linecap:square;stroke-linejoin:miter;stroke-width:0.8;"/>
   </g>
   <g id="patch_21">
    <path d="M 172.8 382.1904 
L 487.905882 382.1904 
" style="fill:none;stroke:#000000;stroke-linecap:square;stroke-linejoin:miter;stroke-width:0.8;"/>
   </g>
   <g id="text_50">
    <!-- Lateral joint 3 -->
    <defs>
     <path d="M 40.578125 39.3125 
Q 47.65625 37.796875 51.625 33 
Q 55.609375 28.21875 55.609375 21.1875 
Q 55.609375 10.40625 48.1875 4.484375 
Q 40.765625 -1.421875 27.09375 -1.421875 
Q 22.515625 -1.421875 17.65625 -0.515625 
Q 12.796875 0.390625 7.625 2.203125 
L 7.625 11.71875 
Q 11.71875 9.328125 16.59375 8.109375 
Q 21.484375 6.890625 26.8125 6.890625 
Q 36.078125 6.890625 40.9375 10.546875 
Q 45.796875 14.203125 45.796875 21.1875 
Q 45.796875 27.640625 41.28125 31.265625 
Q 36.765625 34.90625 28.71875 34.90625 
L 20.21875 34.90625 
L 20.21875 43.015625 
L 29.109375 43.015625 
Q 36.375 43.015625 40.234375 45.921875 
Q 44.09375 48.828125 44.09375 54.296875 
Q 44.09375 59.90625 40.109375 62.90625 
Q 36.140625 65.921875 28.71875 65.921875 
Q 24.65625 65.921875 20.015625 65.03125 
Q 15.375 64.15625 9.8125 62.3125 
L 9.8125 71.09375 
Q 15.4375 72.65625 20.34375 73.4375 
Q 25.25 74.21875 29.59375 74.21875 
Q 40.828125 74.21875 47.359375 69.109375 
Q 53.90625 64.015625 53.90625 55.328125 
Q 53.90625 49.265625 50.4375 45.09375 
Q 46.96875 40.921875 40.578125 39.3125 
z
" id="DejaVuSans-51"/>
    </defs>
    <g transform="translate(288.687629 376.1904)scale(0.12 -0.12)">
     <use xlink:href="#DejaVuSans-76"/>
     <use x="55.712891" xlink:href="#DejaVuSans-97"/>
     <use x="116.992188" xlink:href="#DejaVuSans-116"/>
     <use x="156.201172" xlink:href="#DejaVuSans-101"/>
     <use x="217.724609" xlink:href="#DejaVuSans-114"/>
     <use x="258.837891" xlink:href="#DejaVuSans-97"/>
     <use x="320.117188" xlink:href="#DejaVuSans-108"/>
     <use x="347.900391" xlink:href="#DejaVuSans-32"/>
     <use x="379.6875" xlink:href="#DejaVuSans-106"/>
     <use x="407.470703" xlink:href="#DejaVuSans-111"/>
     <use x="468.652344" xlink:href="#DejaVuSans-105"/>
     <use x="496.435547" xlink:href="#DejaVuSans-110"/>
     <use x="559.814453" xlink:href="#DejaVuSans-116"/>
     <use x="599.023438" xlink:href="#DejaVuSans-32"/>
     <use x="630.810547" xlink:href="#DejaVuSans-51"/>
    </g>
   </g>
  </g>
  <g id="axes_5">
   <g id="patch_22">
    <path d="M 550.927059 629.9064 
L 866.032941 629.9064 
L 866.032941 382.1904 
L 550.927059 382.1904 
z
" style="fill:#ffffff;"/>
   </g>
   <g id="matplotlib.axis_9">
    <g id="xtick_21">
     <g id="line2d_59">
      <g>
       <use style="stroke:#000000;stroke-width:0.8;" x="565.250053" xlink:href="#m36561338c4" y="629.9064"/>
      </g>
     </g>
     <g id="text_51">
      <!-- 0 -->
      <g transform="translate(562.068803 644.504838)scale(0.1 -0.1)">
       <use xlink:href="#DejaVuSans-48"/>
      </g>
     </g>
    </g>
    <g id="xtick_22">
     <g id="line2d_60">
      <g>
       <use style="stroke:#000000;stroke-width:0.8;" x="626.722134" xlink:href="#m36561338c4" y="629.9064"/>
      </g>
     </g>
     <g id="text_52">
      <!-- 50 -->
      <g transform="translate(620.359634 644.504838)scale(0.1 -0.1)">
       <use xlink:href="#DejaVuSans-53"/>
       <use x="63.623047" xlink:href="#DejaVuSans-48"/>
      </g>
     </g>
    </g>
    <g id="xtick_23">
     <g id="line2d_61">
      <g>
       <use style="stroke:#000000;stroke-width:0.8;" x="688.194214" xlink:href="#m36561338c4" y="629.9064"/>
      </g>
     </g>
     <g id="text_53">
      <!-- 100 -->
      <g transform="translate(678.650464 644.504838)scale(0.1 -0.1)">
       <use xlink:href="#DejaVuSans-49"/>
       <use x="63.623047" xlink:href="#DejaVuSans-48"/>
       <use x="127.246094" xlink:href="#DejaVuSans-48"/>
      </g>
     </g>
    </g>
    <g id="xtick_24">
     <g id="line2d_62">
      <g>
       <use style="stroke:#000000;stroke-width:0.8;" x="749.666294" xlink:href="#m36561338c4" y="629.9064"/>
      </g>
     </g>
     <g id="text_54">
      <!-- 150 -->
      <g transform="translate(740.122544 644.504838)scale(0.1 -0.1)">
       <use xlink:href="#DejaVuSans-49"/>
       <use x="63.623047" xlink:href="#DejaVuSans-53"/>
       <use x="127.246094" xlink:href="#DejaVuSans-48"/>
      </g>
     </g>
    </g>
    <g id="xtick_25">
     <g id="line2d_63">
      <g>
       <use style="stroke:#000000;stroke-width:0.8;" x="811.138374" xlink:href="#m36561338c4" y="629.9064"/>
      </g>
     </g>
     <g id="text_55">
      <!-- 200 -->
      <g transform="translate(801.594624 644.504838)scale(0.1 -0.1)">
       <use xlink:href="#DejaVuSans-50"/>
       <use x="63.623047" xlink:href="#DejaVuSans-48"/>
       <use x="127.246094" xlink:href="#DejaVuSans-48"/>
      </g>
     </g>
    </g>
   </g>
   <g id="matplotlib.axis_10">
    <g id="ytick_27">
     <g id="line2d_64">
      <g>
       <use style="stroke:#000000;stroke-width:0.8;" x="550.927059" xlink:href="#m86f2724caa" y="597.969858"/>
      </g>
     </g>
     <g id="text_56">
      <!-- −0.5 -->
      <g transform="translate(519.644246 601.769077)scale(0.1 -0.1)">
       <use xlink:href="#DejaVuSans-8722"/>
       <use x="83.789062" xlink:href="#DejaVuSans-48"/>
       <use x="147.412109" xlink:href="#DejaVuSans-46"/>
       <use x="179.199219" xlink:href="#DejaVuSans-53"/>
      </g>
     </g>
    </g>
    <g id="ytick_28">
     <g id="line2d_65">
      <g>
       <use style="stroke:#000000;stroke-width:0.8;" x="550.927059" xlink:href="#m86f2724caa" y="560.570811"/>
      </g>
     </g>
     <g id="text_57">
      <!-- −0.4 -->
      <g transform="translate(519.644246 564.370029)scale(0.1 -0.1)">
       <use xlink:href="#DejaVuSans-8722"/>
       <use x="83.789062" xlink:href="#DejaVuSans-48"/>
       <use x="147.412109" xlink:href="#DejaVuSans-46"/>
       <use x="179.199219" xlink:href="#DejaVuSans-52"/>
      </g>
     </g>
    </g>
    <g id="ytick_29">
     <g id="line2d_66">
      <g>
       <use style="stroke:#000000;stroke-width:0.8;" x="550.927059" xlink:href="#m86f2724caa" y="523.171763"/>
      </g>
     </g>
     <g id="text_58">
      <!-- −0.3 -->
      <g transform="translate(519.644246 526.970982)scale(0.1 -0.1)">
       <use xlink:href="#DejaVuSans-8722"/>
       <use x="83.789062" xlink:href="#DejaVuSans-48"/>
       <use x="147.412109" xlink:href="#DejaVuSans-46"/>
       <use x="179.199219" xlink:href="#DejaVuSans-51"/>
      </g>
     </g>
    </g>
    <g id="ytick_30">
     <g id="line2d_67">
      <g>
       <use style="stroke:#000000;stroke-width:0.8;" x="550.927059" xlink:href="#m86f2724caa" y="485.772716"/>
      </g>
     </g>
     <g id="text_59">
      <!-- −0.2 -->
      <g transform="translate(519.644246 489.571935)scale(0.1 -0.1)">
       <use xlink:href="#DejaVuSans-8722"/>
       <use x="83.789062" xlink:href="#DejaVuSans-48"/>
       <use x="147.412109" xlink:href="#DejaVuSans-46"/>
       <use x="179.199219" xlink:href="#DejaVuSans-50"/>
      </g>
     </g>
    </g>
    <g id="ytick_31">
     <g id="line2d_68">
      <g>
       <use style="stroke:#000000;stroke-width:0.8;" x="550.927059" xlink:href="#m86f2724caa" y="448.373668"/>
      </g>
     </g>
     <g id="text_60">
      <!-- −0.1 -->
      <g transform="translate(519.644246 452.172887)scale(0.1 -0.1)">
       <use xlink:href="#DejaVuSans-8722"/>
       <use x="83.789062" xlink:href="#DejaVuSans-48"/>
       <use x="147.412109" xlink:href="#DejaVuSans-46"/>
       <use x="179.199219" xlink:href="#DejaVuSans-49"/>
      </g>
     </g>
    </g>
    <g id="ytick_32">
     <g id="line2d_69">
      <g>
       <use style="stroke:#000000;stroke-width:0.8;" x="550.927059" xlink:href="#m86f2724caa" y="410.974621"/>
      </g>
     </g>
     <g id="text_61">
      <!-- 0.0 -->
      <g transform="translate(528.023934 414.77384)scale(0.1 -0.1)">
       <use xlink:href="#DejaVuSans-48"/>
       <use x="63.623047" xlink:href="#DejaVuSans-46"/>
       <use x="95.410156" xlink:href="#DejaVuSans-48"/>
      </g>
     </g>
    </g>
   </g>
   <g id="line2d_70">
    <path clip-path="url(#pbc053c969d)" d="M 565.250053 410.007829 
L 566.479495 414.824611 
L 567.708937 418.114056 
L 568.938378 414.100774 
L 570.16782 408.528345 
L 571.397261 407.781218 
L 572.626703 409.764669 
L 573.856145 410.605188 
L 575.085586 411.058103 
L 576.315028 410.796791 
L 577.544469 408.559694 
L 578.773911 408.27236 
L 581.232794 417.640105 
L 582.462236 414.765389 
L 583.691677 408.570258 
L 584.921119 408.927994 
L 586.150561 413.612671 
L 587.380002 413.459778 
L 588.609444 408.923935 
L 589.838885 406.779569 
L 591.068327 406.877374 
L 592.297769 407.62079 
L 593.52721 410.527614 
L 594.756652 414.002457 
L 595.986094 412.831508 
L 597.215535 409.312465 
L 598.444977 411.749093 
L 599.674418 418.590929 
L 600.90386 419.328646 
L 602.133302 413.748728 
L 603.362743 410.73345 
L 604.592185 412.293908 
L 605.821626 413.496189 
L 607.051068 412.489058 
L 610.739393 408.905802 
L 611.968834 411.035851 
L 613.198276 416.109129 
L 614.427718 417.281822 
L 615.657159 412.951256 
L 616.886601 411.155025 
L 618.116042 415.421856 
L 619.345484 418.144388 
L 620.574926 414.279301 
L 621.804367 409.832431 
L 623.033809 409.289422 
L 624.26325 410.003251 
L 625.492692 410.438638 
L 626.722134 411.758274 
L 627.951575 411.886962 
L 629.181017 409.560499 
L 630.410458 410.118276 
L 631.6399 416.174989 
L 632.869342 419.981367 
L 634.098783 416.080243 
L 635.328225 411.660545 
L 636.557666 413.647694 
L 637.787108 416.92791 
L 639.01655 415.200306 
L 640.245991 411.576233 
L 641.475433 410.264206 
L 642.704874 410.057591 
L 643.934316 410.824007 
L 645.163758 414.235669 
L 646.393199 416.589351 
L 647.622641 413.846867 
L 648.852082 411.4751 
L 650.081524 415.798674 
L 651.310966 420.838761 
L 652.540407 417.949103 
L 653.769849 411.417034 
L 654.99929 410.193192 
L 656.228732 412.578831 
L 657.458174 412.197639 
L 658.687615 409.933203 
L 659.917057 408.985571 
L 661.146498 408.275018 
L 662.37594 408.317176 
L 663.605382 412.292849 
L 664.834823 416.831329 
L 666.064265 414.929711 
L 667.293706 409.896262 
L 668.523148 411.090713 
L 669.75259 416.450603 
L 670.982031 415.706702 
L 672.211473 409.067695 
L 673.440914 406.009906 
L 674.670356 408.334752 
L 675.899798 410.098692 
L 677.129239 410.130658 
L 678.358681 410.888589 
L 679.588122 410.976656 
L 680.817564 410.093663 
L 682.047006 412.742452 
L 683.276447 418.013129 
L 684.505889 417.406505 
L 685.73533 410.305604 
L 686.964772 407.29734 
L 688.194214 411.64158 
L 689.423655 413.387919 
L 690.653097 408.178868 
L 691.882538 404.151653 
L 693.11198 406.246076 
L 694.341422 409.561322 
L 696.800305 412.316747 
L 698.029746 412.485964 
L 699.259188 409.869218 
L 700.48863 409.32238 
L 701.718071 413.385366 
L 702.947513 414.373473 
L 704.176954 407.319177 
L 705.406396 401.37084 
L 706.635838 404.514919 
L 707.865279 409.671849 
L 709.094721 408.173793 
L 710.324162 404.604595 
L 711.553604 405.729434 
L 712.783046 409.244141 
L 714.012487 411.277235 
L 715.241929 412.959921 
L 716.47137 413.244875 
L 718.930254 405.053177 
L 720.159695 408.092713 
L 721.389137 412.405779 
L 722.618578 408.424765 
L 723.84802 401.441606 
L 725.077462 402.655996 
L 726.306903 409.332011 
L 727.536345 411.609788 
L 728.765786 409.900386 
L 729.995228 409.518001 
L 731.22467 409.348064 
L 732.454111 408.616916 
L 733.683553 411.027317 
L 734.912994 413.702671 
L 736.142436 409.0407 
L 737.371878 401.141909 
L 738.601319 401.732522 
L 739.830761 408.445748 
L 741.060202 409.242315 
L 742.289644 404.73212 
L 743.519086 403.943987 
L 744.748527 406.30123 
L 745.977969 407.63889 
L 747.20741 410.628884 
L 748.436852 413.939526 
L 749.666294 410.061621 
L 750.895735 402.999986 
L 752.125177 404.4217 
L 753.354618 410.577504 
L 754.58406 409.431981 
L 755.813502 403.980863 
L 757.042943 402.809427 
L 758.272385 402.966666 
L 759.501826 402.778103 
L 761.96071 412.695476 
L 763.190151 408.228867 
L 764.419593 402.664174 
L 765.649034 406.446841 
L 766.878476 411.120948 
L 768.107918 409.90157 
L 769.337359 409.455361 
L 770.566801 408.432563 
L 771.796242 401.841577 
L 773.025684 400.074265 
L 774.255126 407.482001 
L 775.484567 409.730356 
L 776.714009 404.958994 
L 777.94345 404.484221 
L 779.172892 404.524166 
L 780.402334 401.813495 
L 781.631775 406.711495 
L 782.861217 413.556819 
L 784.090658 409.06802 
L 785.3201 403.704397 
L 786.549542 404.859629 
L 787.778983 402.457699 
L 789.008425 401.917574 
L 790.237866 408.748512 
L 791.467308 407.153601 
L 792.69675 399.363633 
L 793.926191 400.267596 
L 795.155633 400.46469 
L 796.385074 398.892583 
L 797.614516 406.978484 
L 798.843958 409.909191 
L 800.073399 403.148315 
L 801.302841 403.976874 
L 802.532282 403.69293 
L 803.761724 399.59066 
L 804.991166 406.847453 
L 806.220607 409.640669 
L 807.450049 402.883329 
L 808.67949 403.93759 
L 809.908932 399.784954 
L 811.138374 393.450218 
L 812.367815 401.259777 
L 813.597257 402.430975 
L 814.826698 400.92858 
L 816.05614 406.861696 
L 817.285582 399.847836 
L 818.515023 397.306403 
L 819.744465 403.470548 
L 820.973906 399.814198 
L 822.203348 406.780584 
L 823.43279 410.867218 
L 824.662231 403.053936 
L 825.891673 406.625343 
L 827.121115 400.163767 
L 828.350556 396.496729 
L 829.579998 404.775668 
L 830.809439 399.758318 
L 832.038881 406.252567 
L 833.268323 407.016697 
L 834.497764 398.990456 
L 835.727206 405.271378 
L 836.956647 397.465586 
L 838.186089 401.909905 
L 839.415531 408.123617 
L 840.644972 403.645197 
L 841.874414 414.23016 
L 843.103855 405.059418 
L 844.333297 405.582103 
L 845.562739 405.555703 
L 846.79218 396.343212 
L 848.021622 408.983007 
L 849.251063 400.194655 
L 850.480505 409.885968 
L 851.709947 408.666206 
L 851.709947 408.666206 
" style="fill:none;stroke:#ff796c;stroke-linecap:square;stroke-width:1.5;"/>
   </g>
   <g id="line2d_71">
    <path clip-path="url(#pbc053c969d)" d="M 565.250053 608.274514 
L 567.708937 608.295861 
L 578.773911 609.157711 
L 582.462236 609.310007 
L 586.150561 609.556664 
L 593.52721 609.932101 
L 599.674418 610.102428 
L 602.133302 610.298454 
L 609.509951 610.963288 
L 618.116042 611.719093 
L 621.804367 612.251301 
L 624.26325 612.534194 
L 627.951575 612.720414 
L 630.410458 612.722223 
L 634.098783 612.636869 
L 650.081524 613.015508 
L 652.540407 613.078643 
L 656.228732 613.258022 
L 661.146498 613.271684 
L 669.75259 612.942049 
L 675.899798 612.802365 
L 682.047006 612.120879 
L 684.505889 611.888858 
L 695.570863 611.616064 
L 702.947513 611.346418 
L 705.406396 611.334601 
L 711.553604 610.806411 
L 715.241929 610.443305 
L 721.389137 610.308173 
L 725.077462 610.222992 
L 729.995228 609.791444 
L 734.912994 609.589649 
L 742.289644 609.811689 
L 745.977969 609.83808 
L 749.666294 609.863481 
L 752.125177 609.915778 
L 755.813502 609.879264 
L 759.501826 609.786545 
L 761.96071 609.655585 
L 768.107918 609.832188 
L 779.172892 610.685821 
L 784.090658 610.918843 
L 791.467308 612.005255 
L 795.155633 612.733894 
L 806.220607 614.403996 
L 812.367815 615.511798 
L 816.05614 615.97404 
L 820.973906 616.766886 
L 823.43279 617.121314 
L 828.350556 618.177856 
L 832.038881 618.479166 
L 836.956647 618.646582 
L 843.103855 618.348916 
L 846.79218 618.433036 
L 850.480505 618.059686 
L 851.709947 617.884627 
L 851.709947 617.884627 
" style="fill:none;stroke:#ffff14;stroke-linecap:square;stroke-width:1.5;"/>
   </g>
   <g id="line2d_72">
    <path clip-path="url(#pbc053c969d)" d="M 565.250053 608.274406 
L 786.549542 608.171619 
L 813.597257 607.848992 
L 843.103855 607.26586 
L 851.709947 607.068491 
L 851.709947 607.068491 
" style="fill:none;stroke:#014d4e;stroke-linecap:square;stroke-width:1.5;"/>
   </g>
   <g id="patch_23">
    <path d="M 550.927059 629.9064 
L 550.927059 382.1904 
" style="fill:none;stroke:#000000;stroke-linecap:square;stroke-linejoin:miter;stroke-width:0.8;"/>
   </g>
   <g id="patch_24">
    <path d="M 866.032941 629.9064 
L 866.032941 382.1904 
" style="fill:none;stroke:#000000;stroke-linecap:square;stroke-linejoin:miter;stroke-width:0.8;"/>
   </g>
   <g id="patch_25">
    <path d="M 550.927059 629.9064 
L 866.032941 629.9064 
" style="fill:none;stroke:#000000;stroke-linecap:square;stroke-linejoin:miter;stroke-width:0.8;"/>
   </g>
   <g id="patch_26">
    <path d="M 550.927059 382.1904 
L 866.032941 382.1904 
" style="fill:none;stroke:#000000;stroke-linecap:square;stroke-linejoin:miter;stroke-width:0.8;"/>
   </g>
   <g id="text_62">
    <!-- Lateral joint 4 -->
    <g transform="translate(666.814687 376.1904)scale(0.12 -0.12)">
     <use xlink:href="#DejaVuSans-76"/>
     <use x="55.712891" xlink:href="#DejaVuSans-97"/>
     <use x="116.992188" xlink:href="#DejaVuSans-116"/>
     <use x="156.201172" xlink:href="#DejaVuSans-101"/>
     <use x="217.724609" xlink:href="#DejaVuSans-114"/>
     <use x="258.837891" xlink:href="#DejaVuSans-97"/>
     <use x="320.117188" xlink:href="#DejaVuSans-108"/>
     <use x="347.900391" xlink:href="#DejaVuSans-32"/>
     <use x="379.6875" xlink:href="#DejaVuSans-106"/>
     <use x="407.470703" xlink:href="#DejaVuSans-111"/>
     <use x="468.652344" xlink:href="#DejaVuSans-105"/>
     <use x="496.435547" xlink:href="#DejaVuSans-110"/>
     <use x="559.814453" xlink:href="#DejaVuSans-116"/>
     <use x="599.023438" xlink:href="#DejaVuSans-32"/>
     <use x="630.810547" xlink:href="#DejaVuSans-52"/>
    </g>
   </g>
  </g>
  <g id="axes_6">
   <g id="patch_27">
    <path d="M 929.054118 629.9064 
L 1244.16 629.9064 
L 1244.16 382.1904 
L 929.054118 382.1904 
z
" style="fill:#ffffff;"/>
   </g>
   <g id="matplotlib.axis_11">
    <g id="xtick_26">
     <g id="line2d_73">
      <g>
       <use style="stroke:#000000;stroke-width:0.8;" x="929.054118" xlink:href="#m36561338c4" y="629.9064"/>
      </g>
     </g>
     <g id="text_63">
      <!-- 0.0 -->
      <g transform="translate(921.102555 644.504838)scale(0.1 -0.1)">
       <use xlink:href="#DejaVuSans-48"/>
       <use x="63.623047" xlink:href="#DejaVuSans-46"/>
       <use x="95.410156" xlink:href="#DejaVuSans-48"/>
      </g>
     </g>
    </g>
    <g id="xtick_27">
     <g id="line2d_74">
      <g>
       <use style="stroke:#000000;stroke-width:0.8;" x="992.075294" xlink:href="#m36561338c4" y="629.9064"/>
      </g>
     </g>
     <g id="text_64">
      <!-- 0.2 -->
      <g transform="translate(984.123732 644.504838)scale(0.1 -0.1)">
       <use xlink:href="#DejaVuSans-48"/>
       <use x="63.623047" xlink:href="#DejaVuSans-46"/>
       <use x="95.410156" xlink:href="#DejaVuSans-50"/>
      </g>
     </g>
    </g>
    <g id="xtick_28">
     <g id="line2d_75">
      <g>
       <use style="stroke:#000000;stroke-width:0.8;" x="1055.096471" xlink:href="#m36561338c4" y="629.9064"/>
      </g>
     </g>
     <g id="text_65">
      <!-- 0.4 -->
      <g transform="translate(1047.144908 644.504838)scale(0.1 -0.1)">
       <use xlink:href="#DejaVuSans-48"/>
       <use x="63.623047" xlink:href="#DejaVuSans-46"/>
       <use x="95.410156" xlink:href="#DejaVuSans-52"/>
      </g>
     </g>
    </g>
    <g id="xtick_29">
     <g id="line2d_76">
      <g>
       <use style="stroke:#000000;stroke-width:0.8;" x="1118.117647" xlink:href="#m36561338c4" y="629.9064"/>
      </g>
     </g>
     <g id="text_66">
      <!-- 0.6 -->
      <g transform="translate(1110.166085 644.504838)scale(0.1 -0.1)">
       <use xlink:href="#DejaVuSans-48"/>
       <use x="63.623047" xlink:href="#DejaVuSans-46"/>
       <use x="95.410156" xlink:href="#DejaVuSans-54"/>
      </g>
     </g>
    </g>
    <g id="xtick_30">
     <g id="line2d_77">
      <g>
       <use style="stroke:#000000;stroke-width:0.8;" x="1181.138824" xlink:href="#m36561338c4" y="629.9064"/>
      </g>
     </g>
     <g id="text_67">
      <!-- 0.8 -->
      <g transform="translate(1173.187261 644.504838)scale(0.1 -0.1)">
       <use xlink:href="#DejaVuSans-48"/>
       <use x="63.623047" xlink:href="#DejaVuSans-46"/>
       <use x="95.410156" xlink:href="#DejaVuSans-56"/>
      </g>
     </g>
    </g>
    <g id="xtick_31">
     <g id="line2d_78">
      <g>
       <use style="stroke:#000000;stroke-width:0.8;" x="1244.16" xlink:href="#m36561338c4" y="629.9064"/>
      </g>
     </g>
     <g id="text_68">
      <!-- 1.0 -->
      <g transform="translate(1236.208438 644.504838)scale(0.1 -0.1)">
       <use xlink:href="#DejaVuSans-49"/>
       <use x="63.623047" xlink:href="#DejaVuSans-46"/>
       <use x="95.410156" xlink:href="#DejaVuSans-48"/>
      </g>
     </g>
    </g>
   </g>
   <g id="matplotlib.axis_12">
    <g id="ytick_33">
     <g id="line2d_79">
      <g>
       <use style="stroke:#000000;stroke-width:0.8;" x="929.054118" xlink:href="#m86f2724caa" y="629.9064"/>
      </g>
     </g>
     <g id="text_69">
      <!-- 0.0 -->
      <g transform="translate(906.150993 633.705619)scale(0.1 -0.1)">
       <use xlink:href="#DejaVuSans-48"/>
       <use x="63.623047" xlink:href="#DejaVuSans-46"/>
       <use x="95.410156" xlink:href="#DejaVuSans-48"/>
      </g>
     </g>
    </g>
    <g id="ytick_34">
     <g id="line2d_80">
      <g>
       <use style="stroke:#000000;stroke-width:0.8;" x="929.054118" xlink:href="#m86f2724caa" y="580.3632"/>
      </g>
     </g>
     <g id="text_70">
      <!-- 0.2 -->
      <g transform="translate(906.150993 584.162419)scale(0.1 -0.1)">
       <use xlink:href="#DejaVuSans-48"/>
       <use x="63.623047" xlink:href="#DejaVuSans-46"/>
       <use x="95.410156" xlink:href="#DejaVuSans-50"/>
      </g>
     </g>
    </g>
    <g id="ytick_35">
     <g id="line2d_81">
      <g>
       <use style="stroke:#000000;stroke-width:0.8;" x="929.054118" xlink:href="#m86f2724caa" y="530.82"/>
      </g>
     </g>
     <g id="text_71">
      <!-- 0.4 -->
      <g transform="translate(906.150993 534.619219)scale(0.1 -0.1)">
       <use xlink:href="#DejaVuSans-48"/>
       <use x="63.623047" xlink:href="#DejaVuSans-46"/>
       <use x="95.410156" xlink:href="#DejaVuSans-52"/>
      </g>
     </g>
    </g>
    <g id="ytick_36">
     <g id="line2d_82">
      <g>
       <use style="stroke:#000000;stroke-width:0.8;" x="929.054118" xlink:href="#m86f2724caa" y="481.2768"/>
      </g>
     </g>
     <g id="text_72">
      <!-- 0.6 -->
      <g transform="translate(906.150993 485.076019)scale(0.1 -0.1)">
       <use xlink:href="#DejaVuSans-48"/>
       <use x="63.623047" xlink:href="#DejaVuSans-46"/>
       <use x="95.410156" xlink:href="#DejaVuSans-54"/>
      </g>
     </g>
    </g>
    <g id="ytick_37">
     <g id="line2d_83">
      <g>
       <use style="stroke:#000000;stroke-width:0.8;" x="929.054118" xlink:href="#m86f2724caa" y="431.7336"/>
      </g>
     </g>
     <g id="text_73">
      <!-- 0.8 -->
      <g transform="translate(906.150993 435.532819)scale(0.1 -0.1)">
       <use xlink:href="#DejaVuSans-48"/>
       <use x="63.623047" xlink:href="#DejaVuSans-46"/>
       <use x="95.410156" xlink:href="#DejaVuSans-56"/>
      </g>
     </g>
    </g>
    <g id="ytick_38">
     <g id="line2d_84">
      <g>
       <use style="stroke:#000000;stroke-width:0.8;" x="929.054118" xlink:href="#m86f2724caa" y="382.1904"/>
      </g>
     </g>
     <g id="text_74">
      <!-- 1.0 -->
      <g transform="translate(906.150993 385.989619)scale(0.1 -0.1)">
       <use xlink:href="#DejaVuSans-49"/>
       <use x="63.623047" xlink:href="#DejaVuSans-46"/>
       <use x="95.410156" xlink:href="#DejaVuSans-48"/>
      </g>
     </g>
    </g>
   </g>
   <g id="patch_28">
    <path d="M 929.054118 629.9064 
L 929.054118 382.1904 
" style="fill:none;stroke:#000000;stroke-linecap:square;stroke-linejoin:miter;stroke-width:0.8;"/>
   </g>
   <g id="patch_29">
    <path d="M 1244.16 629.9064 
L 1244.16 382.1904 
" style="fill:none;stroke:#000000;stroke-linecap:square;stroke-linejoin:miter;stroke-width:0.8;"/>
   </g>
   <g id="patch_30">
    <path d="M 929.054118 629.9064 
L 1244.16 629.9064 
" style="fill:none;stroke:#000000;stroke-linecap:square;stroke-linejoin:miter;stroke-width:0.8;"/>
   </g>
   <g id="patch_31">
    <path d="M 929.054118 382.1904 
L 1244.16 382.1904 
" style="fill:none;stroke:#000000;stroke-linecap:square;stroke-linejoin:miter;stroke-width:0.8;"/>
   </g>
  </g>
  <g id="legend_1">
   <g id="patch_32">
    <path d="M 1308.251562 377.53625 
L 1375.4 377.53625 
Q 1377.4 377.53625 1377.4 375.53625 
L 1377.4 332.22375 
Q 1377.4 330.22375 1375.4 330.22375 
L 1308.251562 330.22375 
Q 1306.251562 330.22375 1306.251562 332.22375 
L 1306.251562 375.53625 
Q 1306.251562 377.53625 1308.251562 377.53625 
z
" style="fill:#ffffff;opacity:0.8;stroke:#cccccc;stroke-linejoin:miter;"/>
   </g>
   <g id="line2d_85">
    <path d="M 1310.251562 338.322187 
L 1330.251562 338.322187 
" style="fill:none;stroke:#ff796c;stroke-linecap:square;stroke-width:1.5;"/>
   </g>
   <g id="line2d_86"/>
   <g id="text_75">
    <!-- Torque -->
    <defs>
     <path d="M -0.296875 72.90625 
L 61.375 72.90625 
L 61.375 64.59375 
L 35.5 64.59375 
L 35.5 0 
L 25.59375 0 
L 25.59375 64.59375 
L -0.296875 64.59375 
z
" id="DejaVuSans-84"/>
     <path d="M 14.796875 27.296875 
Q 14.796875 17.390625 18.875 11.75 
Q 22.953125 6.109375 30.078125 6.109375 
Q 37.203125 6.109375 41.296875 11.75 
Q 45.40625 17.390625 45.40625 27.296875 
Q 45.40625 37.203125 41.296875 42.84375 
Q 37.203125 48.484375 30.078125 48.484375 
Q 22.953125 48.484375 18.875 42.84375 
Q 14.796875 37.203125 14.796875 27.296875 
z
M 45.40625 8.203125 
Q 42.578125 3.328125 38.25 0.953125 
Q 33.9375 -1.421875 27.875 -1.421875 
Q 17.96875 -1.421875 11.734375 6.484375 
Q 5.515625 14.40625 5.515625 27.296875 
Q 5.515625 40.1875 11.734375 48.09375 
Q 17.96875 56 27.875 56 
Q 33.9375 56 38.25 53.625 
Q 42.578125 51.265625 45.40625 46.390625 
L 45.40625 54.6875 
L 54.390625 54.6875 
L 54.390625 -20.796875 
L 45.40625 -20.796875 
z
" id="DejaVuSans-113"/>
     <path d="M 8.5 21.578125 
L 8.5 54.6875 
L 17.484375 54.6875 
L 17.484375 21.921875 
Q 17.484375 14.15625 20.5 10.265625 
Q 23.53125 6.390625 29.59375 6.390625 
Q 36.859375 6.390625 41.078125 11.03125 
Q 45.3125 15.671875 45.3125 23.6875 
L 45.3125 54.6875 
L 54.296875 54.6875 
L 54.296875 0 
L 45.3125 0 
L 45.3125 8.40625 
Q 42.046875 3.421875 37.71875 1 
Q 33.40625 -1.421875 27.6875 -1.421875 
Q 18.265625 -1.421875 13.375 4.4375 
Q 8.5 10.296875 8.5 21.578125 
z
M 31.109375 56 
z
" id="DejaVuSans-117"/>
    </defs>
    <g transform="translate(1338.251562 341.822187)scale(0.1 -0.1)">
     <use xlink:href="#DejaVuSans-84"/>
     <use x="60.818359" xlink:href="#DejaVuSans-111"/>
     <use x="122" xlink:href="#DejaVuSans-114"/>
     <use x="163.097656" xlink:href="#DejaVuSans-113"/>
     <use x="226.574219" xlink:href="#DejaVuSans-117"/>
     <use x="289.953125" xlink:href="#DejaVuSans-101"/>
    </g>
   </g>
   <g id="line2d_87">
    <path d="M 1310.251562 353.000313 
L 1330.251562 353.000313 
" style="fill:none;stroke:#ffff14;stroke-linecap:square;stroke-width:1.5;"/>
   </g>
   <g id="line2d_88"/>
   <g id="text_76">
    <!-- q -->
    <g transform="translate(1338.251562 356.500313)scale(0.1 -0.1)">
     <use xlink:href="#DejaVuSans-113"/>
    </g>
   </g>
   <g id="line2d_89">
    <path d="M 1310.251562 367.678437 
L 1330.251562 367.678437 
" style="fill:none;stroke:#014d4e;stroke-linecap:square;stroke-width:1.5;"/>
   </g>
   <g id="line2d_90"/>
   <g id="text_77">
    <!-- q_des -->
    <defs>
     <path d="M 50.984375 -16.609375 
L 50.984375 -23.578125 
L -0.984375 -23.578125 
L -0.984375 -16.609375 
z
" id="DejaVuSans-95"/>
     <path d="M 45.40625 46.390625 
L 45.40625 75.984375 
L 54.390625 75.984375 
L 54.390625 0 
L 45.40625 0 
L 45.40625 8.203125 
Q 42.578125 3.328125 38.25 0.953125 
Q 33.9375 -1.421875 27.875 -1.421875 
Q 17.96875 -1.421875 11.734375 6.484375 
Q 5.515625 14.40625 5.515625 27.296875 
Q 5.515625 40.1875 11.734375 48.09375 
Q 17.96875 56 27.875 56 
Q 33.9375 56 38.25 53.625 
Q 42.578125 51.265625 45.40625 46.390625 
z
M 14.796875 27.296875 
Q 14.796875 17.390625 18.875 11.75 
Q 22.953125 6.109375 30.078125 6.109375 
Q 37.203125 6.109375 41.296875 11.75 
Q 45.40625 17.390625 45.40625 27.296875 
Q 45.40625 37.203125 41.296875 42.84375 
Q 37.203125 48.484375 30.078125 48.484375 
Q 22.953125 48.484375 18.875 42.84375 
Q 14.796875 37.203125 14.796875 27.296875 
z
" id="DejaVuSans-100"/>
     <path d="M 44.28125 53.078125 
L 44.28125 44.578125 
Q 40.484375 46.53125 36.375 47.5 
Q 32.28125 48.484375 27.875 48.484375 
Q 21.1875 48.484375 17.84375 46.4375 
Q 14.5 44.390625 14.5 40.28125 
Q 14.5 37.15625 16.890625 35.375 
Q 19.28125 33.59375 26.515625 31.984375 
L 29.59375 31.296875 
Q 39.15625 29.25 43.1875 25.515625 
Q 47.21875 21.78125 47.21875 15.09375 
Q 47.21875 7.46875 41.1875 3.015625 
Q 35.15625 -1.421875 24.609375 -1.421875 
Q 20.21875 -1.421875 15.453125 -0.5625 
Q 10.6875 0.296875 5.421875 2 
L 5.421875 11.28125 
Q 10.40625 8.6875 15.234375 7.390625 
Q 20.0625 6.109375 24.8125 6.109375 
Q 31.15625 6.109375 34.5625 8.28125 
Q 37.984375 10.453125 37.984375 14.40625 
Q 37.984375 18.0625 35.515625 20.015625 
Q 33.0625 21.96875 24.703125 23.78125 
L 21.578125 24.515625 
Q 13.234375 26.265625 9.515625 29.90625 
Q 5.8125 33.546875 5.8125 39.890625 
Q 5.8125 47.609375 11.28125 51.796875 
Q 16.75 56 26.8125 56 
Q 31.78125 56 36.171875 55.265625 
Q 40.578125 54.546875 44.28125 53.078125 
z
" id="DejaVuSans-115"/>
    </defs>
    <g transform="translate(1338.251562 371.178437)scale(0.1 -0.1)">
     <use xlink:href="#DejaVuSans-113"/>
     <use x="63.476562" xlink:href="#DejaVuSans-95"/>
     <use x="113.476562" xlink:href="#DejaVuSans-100"/>
     <use x="176.953125" xlink:href="#DejaVuSans-101"/>
     <use x="238.476562" xlink:href="#DejaVuSans-115"/>
    </g>
   </g>
  </g>
 </g>
 <defs>
  <clipPath id="pe273cce506">
   <rect height="247.716" width="315.105882" x="172.8" y="84.9312"/>
  </clipPath>
  <clipPath id="p758242603f">
   <rect height="247.716" width="315.105882" x="550.927059" y="84.9312"/>
  </clipPath>
  <clipPath id="p7fc5673d0b">
   <rect height="247.716" width="315.105882" x="929.054118" y="84.9312"/>
  </clipPath>
  <clipPath id="p241c47e068">
   <rect height="247.716" width="315.105882" x="172.8" y="382.1904"/>
  </clipPath>
  <clipPath id="pbc053c969d">
   <rect height="247.716" width="315.105882" x="550.927059" y="382.1904"/>
  </clipPath>
 </defs>
</svg>
