<?xml version="1.0" encoding="utf-8" standalone="no"?>
<!DOCTYPE svg PUBLIC "-//W3C//DTD SVG 1.1//EN"
  "http://www.w3.org/Graphics/SVG/1.1/DTD/svg11.dtd">
<!-- Created with matplotlib (https://matplotlib.org/) -->
<svg height="707.76pt" version="1.1" viewBox="0 0 1382.4 707.76" width="1382.4pt" xmlns="http://www.w3.org/2000/svg" xmlns:xlink="http://www.w3.org/1999/xlink">
 <defs>
  <style type="text/css">
*{stroke-linecap:butt;stroke-linejoin:round;}
  </style>
 </defs>
 <g id="figure_1">
  <g id="patch_1">
   <path d="M 0 707.76 
L 1382.4 707.76 
L 1382.4 0 
L 0 0 
z
" style="fill:#ffffff;"/>
  </g>
  <g id="axes_1">
   <g id="patch_2">
    <path d="M 172.8 332.6472 
L 659.781818 332.6472 
L 659.781818 84.9312 
L 172.8 84.9312 
z
" style="fill:#ffffff;"/>
   </g>
   <g id="matplotlib.axis_1">
    <g id="xtick_1">
     <g id="line2d_1">
      <defs>
       <path d="M 0 0 
L 0 3.5 
" id="mbf00e85829" style="stroke:#000000;stroke-width:0.8;"/>
      </defs>
      <g>
       <use style="stroke:#000000;stroke-width:0.8;" x="194.935537" xlink:href="#mbf00e85829" y="332.6472"/>
      </g>
     </g>
     <g id="text_1">
      <!-- 0 -->
      <defs>
       <path d="M 31.78125 66.40625 
Q 24.171875 66.40625 20.328125 58.90625 
Q 16.5 51.421875 16.5 36.375 
Q 16.5 21.390625 20.328125 13.890625 
Q 24.171875 6.390625 31.78125 6.390625 
Q 39.453125 6.390625 43.28125 13.890625 
Q 47.125 21.390625 47.125 36.375 
Q 47.125 51.421875 43.28125 58.90625 
Q 39.453125 66.40625 31.78125 66.40625 
z
M 31.78125 74.21875 
Q 44.046875 74.21875 50.515625 64.515625 
Q 56.984375 54.828125 56.984375 36.375 
Q 56.984375 17.96875 50.515625 8.265625 
Q 44.046875 -1.421875 31.78125 -1.421875 
Q 19.53125 -1.421875 13.0625 8.265625 
Q 6.59375 17.96875 6.59375 36.375 
Q 6.59375 54.828125 13.0625 64.515625 
Q 19.53125 74.21875 31.78125 74.21875 
z
" id="DejaVuSans-48"/>
      </defs>
      <g transform="translate(191.754287 347.245637)scale(0.1 -0.1)">
       <use xlink:href="#DejaVuSans-48"/>
      </g>
     </g>
    </g>
    <g id="xtick_2">
     <g id="line2d_2">
      <g>
       <use style="stroke:#000000;stroke-width:0.8;" x="289.937843" xlink:href="#mbf00e85829" y="332.6472"/>
      </g>
     </g>
     <g id="text_2">
      <!-- 50 -->
      <defs>
       <path d="M 10.796875 72.90625 
L 49.515625 72.90625 
L 49.515625 64.59375 
L 19.828125 64.59375 
L 19.828125 46.734375 
Q 21.96875 47.46875 24.109375 47.828125 
Q 26.265625 48.1875 28.421875 48.1875 
Q 40.625 48.1875 47.75 41.5 
Q 54.890625 34.8125 54.890625 23.390625 
Q 54.890625 11.625 47.5625 5.09375 
Q 40.234375 -1.421875 26.90625 -1.421875 
Q 22.3125 -1.421875 17.546875 -0.640625 
Q 12.796875 0.140625 7.71875 1.703125 
L 7.71875 11.625 
Q 12.109375 9.234375 16.796875 8.0625 
Q 21.484375 6.890625 26.703125 6.890625 
Q 35.15625 6.890625 40.078125 11.328125 
Q 45.015625 15.765625 45.015625 23.390625 
Q 45.015625 31 40.078125 35.4375 
Q 35.15625 39.890625 26.703125 39.890625 
Q 22.75 39.890625 18.8125 39.015625 
Q 14.890625 38.140625 10.796875 36.28125 
z
" id="DejaVuSans-53"/>
      </defs>
      <g transform="translate(283.575343 347.245637)scale(0.1 -0.1)">
       <use xlink:href="#DejaVuSans-53"/>
       <use x="63.623047" xlink:href="#DejaVuSans-48"/>
      </g>
     </g>
    </g>
    <g id="xtick_3">
     <g id="line2d_3">
      <g>
       <use style="stroke:#000000;stroke-width:0.8;" x="384.940148" xlink:href="#mbf00e85829" y="332.6472"/>
      </g>
     </g>
     <g id="text_3">
      <!-- 100 -->
      <defs>
       <path d="M 12.40625 8.296875 
L 28.515625 8.296875 
L 28.515625 63.921875 
L 10.984375 60.40625 
L 10.984375 69.390625 
L 28.421875 72.90625 
L 38.28125 72.90625 
L 38.28125 8.296875 
L 54.390625 8.296875 
L 54.390625 0 
L 12.40625 0 
z
" id="DejaVuSans-49"/>
      </defs>
      <g transform="translate(375.396398 347.245637)scale(0.1 -0.1)">
       <use xlink:href="#DejaVuSans-49"/>
       <use x="63.623047" xlink:href="#DejaVuSans-48"/>
       <use x="127.246094" xlink:href="#DejaVuSans-48"/>
      </g>
     </g>
    </g>
    <g id="xtick_4">
     <g id="line2d_4">
      <g>
       <use style="stroke:#000000;stroke-width:0.8;" x="479.942454" xlink:href="#mbf00e85829" y="332.6472"/>
      </g>
     </g>
     <g id="text_4">
      <!-- 150 -->
      <g transform="translate(470.398704 347.245637)scale(0.1 -0.1)">
       <use xlink:href="#DejaVuSans-49"/>
       <use x="63.623047" xlink:href="#DejaVuSans-53"/>
       <use x="127.246094" xlink:href="#DejaVuSans-48"/>
      </g>
     </g>
    </g>
    <g id="xtick_5">
     <g id="line2d_5">
      <g>
       <use style="stroke:#000000;stroke-width:0.8;" x="574.944759" xlink:href="#mbf00e85829" y="332.6472"/>
      </g>
     </g>
     <g id="text_5">
      <!-- 200 -->
      <defs>
       <path d="M 19.1875 8.296875 
L 53.609375 8.296875 
L 53.609375 0 
L 7.328125 0 
L 7.328125 8.296875 
Q 12.9375 14.109375 22.625 23.890625 
Q 32.328125 33.6875 34.8125 36.53125 
Q 39.546875 41.84375 41.421875 45.53125 
Q 43.3125 49.21875 43.3125 52.78125 
Q 43.3125 58.59375 39.234375 62.25 
Q 35.15625 65.921875 28.609375 65.921875 
Q 23.96875 65.921875 18.8125 64.3125 
Q 13.671875 62.703125 7.8125 59.421875 
L 7.8125 69.390625 
Q 13.765625 71.78125 18.9375 73 
Q 24.125 74.21875 28.421875 74.21875 
Q 39.75 74.21875 46.484375 68.546875 
Q 53.21875 62.890625 53.21875 53.421875 
Q 53.21875 48.921875 51.53125 44.890625 
Q 49.859375 40.875 45.40625 35.40625 
Q 44.1875 33.984375 37.640625 27.21875 
Q 31.109375 20.453125 19.1875 8.296875 
z
" id="DejaVuSans-50"/>
      </defs>
      <g transform="translate(565.401009 347.245637)scale(0.1 -0.1)">
       <use xlink:href="#DejaVuSans-50"/>
       <use x="63.623047" xlink:href="#DejaVuSans-48"/>
       <use x="127.246094" xlink:href="#DejaVuSans-48"/>
      </g>
     </g>
    </g>
   </g>
   <g id="matplotlib.axis_2">
    <g id="ytick_1">
     <g id="line2d_6">
      <defs>
       <path d="M 0 0 
L -3.5 0 
" id="ma3e829d53b" style="stroke:#000000;stroke-width:0.8;"/>
      </defs>
      <g>
       <use style="stroke:#000000;stroke-width:0.8;" x="172.8" xlink:href="#ma3e829d53b" y="313.277422"/>
      </g>
     </g>
     <g id="text_6">
      <!-- −1.50 -->
      <defs>
       <path d="M 10.59375 35.5 
L 73.1875 35.5 
L 73.1875 27.203125 
L 10.59375 27.203125 
z
" id="DejaVuSans-8722"/>
       <path d="M 10.6875 12.40625 
L 21 12.40625 
L 21 0 
L 10.6875 0 
z
" id="DejaVuSans-46"/>
      </defs>
      <g transform="translate(135.154687 317.076641)scale(0.1 -0.1)">
       <use xlink:href="#DejaVuSans-8722"/>
       <use x="83.789062" xlink:href="#DejaVuSans-49"/>
       <use x="147.412109" xlink:href="#DejaVuSans-46"/>
       <use x="179.199219" xlink:href="#DejaVuSans-53"/>
       <use x="242.822266" xlink:href="#DejaVuSans-48"/>
      </g>
     </g>
    </g>
    <g id="ytick_2">
     <g id="line2d_7">
      <g>
       <use style="stroke:#000000;stroke-width:0.8;" x="172.8" xlink:href="#ma3e829d53b" y="284.603239"/>
      </g>
     </g>
     <g id="text_7">
      <!-- −1.25 -->
      <g transform="translate(135.154687 288.402457)scale(0.1 -0.1)">
       <use xlink:href="#DejaVuSans-8722"/>
       <use x="83.789062" xlink:href="#DejaVuSans-49"/>
       <use x="147.412109" xlink:href="#DejaVuSans-46"/>
       <use x="179.199219" xlink:href="#DejaVuSans-50"/>
       <use x="242.822266" xlink:href="#DejaVuSans-53"/>
      </g>
     </g>
    </g>
    <g id="ytick_3">
     <g id="line2d_8">
      <g>
       <use style="stroke:#000000;stroke-width:0.8;" x="172.8" xlink:href="#ma3e829d53b" y="255.929055"/>
      </g>
     </g>
     <g id="text_8">
      <!-- −1.00 -->
      <g transform="translate(135.154687 259.728274)scale(0.1 -0.1)">
       <use xlink:href="#DejaVuSans-8722"/>
       <use x="83.789062" xlink:href="#DejaVuSans-49"/>
       <use x="147.412109" xlink:href="#DejaVuSans-46"/>
       <use x="179.199219" xlink:href="#DejaVuSans-48"/>
       <use x="242.822266" xlink:href="#DejaVuSans-48"/>
      </g>
     </g>
    </g>
    <g id="ytick_4">
     <g id="line2d_9">
      <g>
       <use style="stroke:#000000;stroke-width:0.8;" x="172.8" xlink:href="#ma3e829d53b" y="227.254871"/>
      </g>
     </g>
     <g id="text_9">
      <!-- −0.75 -->
      <defs>
       <path d="M 8.203125 72.90625 
L 55.078125 72.90625 
L 55.078125 68.703125 
L 28.609375 0 
L 18.3125 0 
L 43.21875 64.59375 
L 8.203125 64.59375 
z
" id="DejaVuSans-55"/>
      </defs>
      <g transform="translate(135.154687 231.05409)scale(0.1 -0.1)">
       <use xlink:href="#DejaVuSans-8722"/>
       <use x="83.789062" xlink:href="#DejaVuSans-48"/>
       <use x="147.412109" xlink:href="#DejaVuSans-46"/>
       <use x="179.199219" xlink:href="#DejaVuSans-55"/>
       <use x="242.822266" xlink:href="#DejaVuSans-53"/>
      </g>
     </g>
    </g>
    <g id="ytick_5">
     <g id="line2d_10">
      <g>
       <use style="stroke:#000000;stroke-width:0.8;" x="172.8" xlink:href="#ma3e829d53b" y="198.580688"/>
      </g>
     </g>
     <g id="text_10">
      <!-- −0.50 -->
      <g transform="translate(135.154687 202.379907)scale(0.1 -0.1)">
       <use xlink:href="#DejaVuSans-8722"/>
       <use x="83.789062" xlink:href="#DejaVuSans-48"/>
       <use x="147.412109" xlink:href="#DejaVuSans-46"/>
       <use x="179.199219" xlink:href="#DejaVuSans-53"/>
       <use x="242.822266" xlink:href="#DejaVuSans-48"/>
      </g>
     </g>
    </g>
    <g id="ytick_6">
     <g id="line2d_11">
      <g>
       <use style="stroke:#000000;stroke-width:0.8;" x="172.8" xlink:href="#ma3e829d53b" y="169.906504"/>
      </g>
     </g>
     <g id="text_11">
      <!-- −0.25 -->
      <g transform="translate(135.154687 173.705723)scale(0.1 -0.1)">
       <use xlink:href="#DejaVuSans-8722"/>
       <use x="83.789062" xlink:href="#DejaVuSans-48"/>
       <use x="147.412109" xlink:href="#DejaVuSans-46"/>
       <use x="179.199219" xlink:href="#DejaVuSans-50"/>
       <use x="242.822266" xlink:href="#DejaVuSans-53"/>
      </g>
     </g>
    </g>
    <g id="ytick_7">
     <g id="line2d_12">
      <g>
       <use style="stroke:#000000;stroke-width:0.8;" x="172.8" xlink:href="#ma3e829d53b" y="141.232321"/>
      </g>
     </g>
     <g id="text_12">
      <!-- 0.00 -->
      <g transform="translate(143.534375 145.031539)scale(0.1 -0.1)">
       <use xlink:href="#DejaVuSans-48"/>
       <use x="63.623047" xlink:href="#DejaVuSans-46"/>
       <use x="95.410156" xlink:href="#DejaVuSans-48"/>
       <use x="159.033203" xlink:href="#DejaVuSans-48"/>
      </g>
     </g>
    </g>
    <g id="ytick_8">
     <g id="line2d_13">
      <g>
       <use style="stroke:#000000;stroke-width:0.8;" x="172.8" xlink:href="#ma3e829d53b" y="112.558137"/>
      </g>
     </g>
     <g id="text_13">
      <!-- 0.25 -->
      <g transform="translate(143.534375 116.357356)scale(0.1 -0.1)">
       <use xlink:href="#DejaVuSans-48"/>
       <use x="63.623047" xlink:href="#DejaVuSans-46"/>
       <use x="95.410156" xlink:href="#DejaVuSans-50"/>
       <use x="159.033203" xlink:href="#DejaVuSans-53"/>
      </g>
     </g>
    </g>
   </g>
   <g id="line2d_14">
    <path clip-path="url(#pf708f80aaa)" d="M 194.935537 141.009003 
L 198.735629 143.116389 
L 200.635676 143.245504 
L 202.535722 143.004541 
L 204.435768 143.432495 
L 208.23586 145.407463 
L 210.135906 145.838049 
L 212.035952 145.6887 
L 213.935998 145.270649 
L 215.836044 145.419355 
L 219.636137 147.239809 
L 221.536183 147.122949 
L 223.436229 146.740257 
L 225.336275 147.504865 
L 227.236321 149.140882 
L 229.136367 150.217471 
L 234.836506 150.806438 
L 238.636598 152.058863 
L 240.536644 152.322802 
L 244.336736 151.077994 
L 246.236782 151.554315 
L 248.136828 152.855177 
L 250.036874 153.478736 
L 251.936921 153.328234 
L 253.836967 153.62544 
L 255.737013 154.827728 
L 257.637059 156.275998 
L 259.537105 157.308396 
L 261.437151 157.852557 
L 265.237243 158.488891 
L 267.137289 159.403219 
L 269.037336 160.525189 
L 270.937382 160.932855 
L 272.837428 160.676535 
L 274.737474 161.047421 
L 278.537566 164.195903 
L 280.437612 164.898794 
L 282.337658 165.318377 
L 284.237704 166.220099 
L 288.037797 168.56612 
L 289.937843 169.238838 
L 291.837889 169.229533 
L 293.737935 168.828231 
L 295.637981 168.982344 
L 297.538027 169.908905 
L 299.438073 170.472848 
L 303.238166 169.694677 
L 305.138212 170.537777 
L 307.038258 171.908952 
L 308.938304 172.654245 
L 312.738396 172.934998 
L 314.638442 173.299902 
L 318.438534 174.5168 
L 320.33858 174.55522 
L 322.238627 173.842115 
L 324.138673 173.475084 
L 326.038719 174.325117 
L 327.938765 175.468963 
L 329.838811 175.641844 
L 331.738857 175.352977 
L 333.638903 175.899067 
L 335.538949 177.202901 
L 337.438995 178.197108 
L 339.339042 178.482198 
L 341.239088 178.35157 
L 343.139134 178.097571 
L 345.03918 178.095709 
L 346.939226 178.539918 
L 348.839272 178.736418 
L 350.739318 177.962393 
L 352.639364 177.030374 
L 354.53941 177.312926 
L 356.439457 178.426298 
L 358.339503 178.77348 
L 360.239549 178.132967 
L 362.139595 177.756926 
L 365.939687 178.519856 
L 367.839733 178.314066 
L 369.739779 177.593825 
L 371.639825 176.583771 
L 373.539872 175.791452 
L 375.439918 175.808277 
L 377.339964 176.192088 
L 379.24001 175.787313 
L 381.140056 174.755611 
L 383.040102 174.625398 
L 384.940148 175.731024 
L 386.840194 176.48734 
L 388.74024 175.986862 
L 390.640287 175.191457 
L 392.540333 175.064511 
L 394.440379 175.265365 
L 396.340425 175.172324 
L 398.240471 174.687593 
L 402.040563 173.134722 
L 403.940609 173.234786 
L 405.840655 174.124985 
L 407.740702 174.497067 
L 409.640748 173.7399 
L 411.540794 173.158191 
L 413.44084 173.785665 
L 415.340886 174.569681 
L 417.240932 174.107922 
L 419.140978 172.830354 
L 421.041024 171.921525 
L 422.94107 171.63152 
L 426.741163 171.287498 
L 428.641209 170.712213 
L 430.541255 169.816915 
L 432.441301 169.495909 
L 436.241393 171.104827 
L 438.141439 170.521974 
L 440.041485 169.281078 
L 441.941532 168.977013 
L 443.841578 169.465709 
L 445.741624 169.414454 
L 449.541716 167.605836 
L 451.441762 167.058128 
L 453.341808 167.133831 
L 457.1419 168.541485 
L 459.041947 168.189846 
L 460.941993 167.572845 
L 462.842039 168.125071 
L 464.742085 169.420217 
L 466.642131 169.770234 
L 470.442223 168.225093 
L 472.342269 168.019433 
L 474.242315 168.157873 
L 476.142362 168.586128 
L 478.042408 168.817519 
L 481.8425 167.596188 
L 483.742546 168.342719 
L 485.642592 169.858282 
L 487.542638 170.460712 
L 491.34273 169.854877 
L 493.242777 169.824347 
L 495.142823 170.019966 
L 497.042869 170.660356 
L 498.942915 170.914873 
L 502.743007 168.978751 
L 504.643053 169.423455 
L 506.543099 170.50958 
L 508.443145 171.209506 
L 510.343192 171.758613 
L 512.243238 172.048315 
L 514.143284 171.957335 
L 516.04333 172.690318 
L 517.943376 174.495734 
L 519.843422 175.617833 
L 523.643514 175.593115 
L 525.54356 175.725049 
L 527.443607 176.024798 
L 529.343653 177.404931 
L 531.243699 179.013663 
L 533.143745 179.376629 
L 535.043791 179.568506 
L 536.943837 180.633425 
L 538.843883 181.886378 
L 540.743929 183.713852 
L 542.643975 186.219128 
L 544.544022 187.557964 
L 546.444068 187.903713 
L 548.344114 188.940349 
L 552.144206 191.35057 
L 554.044252 193.523865 
L 555.944298 194.939608 
L 557.844344 195.118359 
L 559.74439 195.970843 
L 561.644437 197.053316 
L 563.544483 198.300236 
L 565.444529 201.025031 
L 567.344575 203.357794 
L 569.244621 204.519414 
L 571.144667 206.171781 
L 574.944759 208.373558 
L 576.844805 211.062376 
L 578.744852 213.091545 
L 580.644898 214.535308 
L 582.544944 216.242737 
L 584.44499 216.346602 
L 586.345036 216.91093 
L 588.245082 218.659989 
L 590.145128 219.81344 
L 592.045174 222.225606 
L 593.94522 224.26771 
L 595.845267 224.868262 
L 597.745313 226.44474 
L 599.645359 227.046574 
L 601.545405 228.161304 
L 603.445451 230.720882 
L 605.345497 231.914879 
L 607.245543 233.990101 
L 609.145589 234.974027 
L 611.045635 234.579714 
L 612.945682 235.453979 
L 614.845728 234.926839 
L 616.745774 235.917891 
L 618.64582 237.288163 
L 620.545866 237.51627 
L 622.445912 239.139119 
L 624.345958 238.364337 
L 628.14605 238.446952 
L 630.046097 237.618897 
L 631.946143 239.324179 
L 633.846189 238.694372 
L 635.746235 239.787506 
L 637.646281 239.152637 
L 637.646281 239.152637 
" style="fill:none;stroke:#ff796c;stroke-linecap:square;stroke-width:1.5;"/>
   </g>
   <g id="line2d_15">
    <path clip-path="url(#pf708f80aaa)" d="M 194.935537 96.581181 
L 204.435768 96.669828 
L 210.135906 96.8938 
L 215.836044 97.324919 
L 221.536183 97.923006 
L 229.136367 98.991985 
L 234.836506 100.065439 
L 240.536644 101.373326 
L 250.036874 103.911225 
L 259.537105 106.688426 
L 267.137289 109.193519 
L 274.737474 111.962144 
L 282.337658 114.957071 
L 288.037797 117.445555 
L 293.737935 120.211032 
L 301.338119 124.203244 
L 310.83835 129.470581 
L 318.438534 133.949716 
L 329.838811 141.022997 
L 339.339042 147.157039 
L 346.939226 152.426044 
L 356.439457 159.340715 
L 364.039641 165.062181 
L 371.639825 171.019489 
L 415.340886 205.920276 
L 441.941532 227.710091 
L 453.341808 236.755881 
L 462.842039 243.934899 
L 478.042408 255.1191 
L 487.542638 261.798086 
L 498.942915 269.547945 
L 506.543099 274.44746 
L 514.143284 279.027887 
L 521.743468 283.315467 
L 529.343653 287.314714 
L 535.043791 290.090246 
L 540.743929 292.670599 
L 548.344114 295.844476 
L 555.944298 298.728054 
L 561.644437 300.692294 
L 567.344575 302.473917 
L 574.944759 304.588402 
L 582.544944 306.423558 
L 590.145128 308.0009 
L 597.745313 309.326208 
L 605.345497 310.439029 
L 614.845728 311.592441 
L 626.246004 312.706935 
L 637.646281 313.580699 
L 637.646281 313.580699 
" style="fill:none;stroke:#ffff14;stroke-linecap:square;stroke-width:1.5;"/>
   </g>
   <g id="line2d_16">
    <path clip-path="url(#pf708f80aaa)" d="M 194.935537 96.191018 
L 200.635676 96.28234 
L 206.335814 96.556156 
L 212.035952 97.012023 
L 217.736091 97.649201 
L 223.436229 98.466657 
L 229.136367 99.463064 
L 234.836506 100.636807 
L 240.536644 101.985982 
L 248.136828 104.053953 
L 255.737013 106.423918 
L 263.337197 109.089043 
L 270.937382 112.041643 
L 278.537566 115.273207 
L 286.137751 118.774416 
L 293.737935 122.535176 
L 301.338119 126.544643 
L 308.938304 130.791256 
L 316.538488 135.262773 
L 326.038719 141.148739 
L 335.538949 147.339413 
L 345.03918 153.80691 
L 354.53941 160.522096 
L 365.939687 168.864609 
L 379.24001 178.920941 
L 394.440379 190.731442 
L 417.240932 208.794274 
L 443.841578 229.834617 
L 459.041947 241.571679 
L 472.342269 251.53626 
L 483.742546 259.780337 
L 493.242777 266.400018 
L 502.743007 272.760214 
L 512.243238 278.832277 
L 521.743468 284.588855 
L 529.343653 288.949492 
L 536.943837 293.079021 
L 544.544022 296.965536 
L 552.144206 300.597829 
L 559.74439 303.965429 
L 567.344575 307.058627 
L 574.944759 309.868502 
L 582.544944 312.386955 
L 590.145128 314.606723 
L 595.845267 316.071654 
L 601.545405 317.362581 
L 607.245543 318.477409 
L 612.945682 319.414332 
L 618.64582 320.171828 
L 624.345958 320.748669 
L 630.046097 321.14392 
L 635.746235 321.35694 
L 637.646281 321.387382 
L 637.646281 321.387382 
" style="fill:none;stroke:#014d4e;stroke-linecap:square;stroke-width:1.5;"/>
   </g>
   <g id="line2d_17">
    <path clip-path="url(#pf708f80aaa)" d="M 194.935537 140.842158 
L 204.435768 141.00712 
L 232.936459 141.77781 
L 257.637059 142.185778 
L 291.837889 143.544187 
L 337.438995 143.949182 
L 345.03918 143.957445 
L 362.139595 143.672076 
L 371.639825 143.349258 
L 381.140056 143.063557 
L 421.041024 142.405228 
L 434.341347 142.027941 
L 459.041947 141.712801 
L 497.042869 141.928209 
L 508.443145 142.051944 
L 519.843422 142.428807 
L 531.243699 142.975855 
L 542.643975 143.759863 
L 563.544483 145.472602 
L 595.845267 148.286756 
L 607.245543 149.021391 
L 616.745774 149.376308 
L 624.345958 149.443699 
L 631.946143 149.294778 
L 637.646281 149.039003 
L 637.646281 149.039003 
" style="fill:none;stroke:#e50000;stroke-linecap:square;stroke-width:1.5;"/>
   </g>
   <g id="patch_3">
    <path d="M 172.8 332.6472 
L 172.8 84.9312 
" style="fill:none;stroke:#000000;stroke-linecap:square;stroke-linejoin:miter;stroke-width:0.8;"/>
   </g>
   <g id="patch_4">
    <path d="M 659.781818 332.6472 
L 659.781818 84.9312 
" style="fill:none;stroke:#000000;stroke-linecap:square;stroke-linejoin:miter;stroke-width:0.8;"/>
   </g>
   <g id="patch_5">
    <path d="M 172.8 332.6472 
L 659.781818 332.6472 
" style="fill:none;stroke:#000000;stroke-linecap:square;stroke-linejoin:miter;stroke-width:0.8;"/>
   </g>
   <g id="patch_6">
    <path d="M 172.8 84.9312 
L 659.781818 84.9312 
" style="fill:none;stroke:#000000;stroke-linecap:square;stroke-linejoin:miter;stroke-width:0.8;"/>
   </g>
   <g id="text_14">
    <!-- Right abduction -->
    <defs>
     <path d="M 44.390625 34.1875 
Q 47.5625 33.109375 50.5625 29.59375 
Q 53.5625 26.078125 56.59375 19.921875 
L 66.609375 0 
L 56 0 
L 46.6875 18.703125 
Q 43.0625 26.03125 39.671875 28.421875 
Q 36.28125 30.8125 30.421875 30.8125 
L 19.671875 30.8125 
L 19.671875 0 
L 9.8125 0 
L 9.8125 72.90625 
L 32.078125 72.90625 
Q 44.578125 72.90625 50.734375 67.671875 
Q 56.890625 62.453125 56.890625 51.90625 
Q 56.890625 45.015625 53.6875 40.46875 
Q 50.484375 35.9375 44.390625 34.1875 
z
M 19.671875 64.796875 
L 19.671875 38.921875 
L 32.078125 38.921875 
Q 39.203125 38.921875 42.84375 42.21875 
Q 46.484375 45.515625 46.484375 51.90625 
Q 46.484375 58.296875 42.84375 61.546875 
Q 39.203125 64.796875 32.078125 64.796875 
z
" id="DejaVuSans-82"/>
     <path d="M 9.421875 54.6875 
L 18.40625 54.6875 
L 18.40625 0 
L 9.421875 0 
z
M 9.421875 75.984375 
L 18.40625 75.984375 
L 18.40625 64.59375 
L 9.421875 64.59375 
z
" id="DejaVuSans-105"/>
     <path d="M 45.40625 27.984375 
Q 45.40625 37.75 41.375 43.109375 
Q 37.359375 48.484375 30.078125 48.484375 
Q 22.859375 48.484375 18.828125 43.109375 
Q 14.796875 37.75 14.796875 27.984375 
Q 14.796875 18.265625 18.828125 12.890625 
Q 22.859375 7.515625 30.078125 7.515625 
Q 37.359375 7.515625 41.375 12.890625 
Q 45.40625 18.265625 45.40625 27.984375 
z
M 54.390625 6.78125 
Q 54.390625 -7.171875 48.1875 -13.984375 
Q 42 -20.796875 29.203125 -20.796875 
Q 24.46875 -20.796875 20.265625 -20.09375 
Q 16.0625 -19.390625 12.109375 -17.921875 
L 12.109375 -9.1875 
Q 16.0625 -11.328125 19.921875 -12.34375 
Q 23.78125 -13.375 27.78125 -13.375 
Q 36.625 -13.375 41.015625 -8.765625 
Q 45.40625 -4.15625 45.40625 5.171875 
L 45.40625 9.625 
Q 42.625 4.78125 38.28125 2.390625 
Q 33.9375 0 27.875 0 
Q 17.828125 0 11.671875 7.65625 
Q 5.515625 15.328125 5.515625 27.984375 
Q 5.515625 40.671875 11.671875 48.328125 
Q 17.828125 56 27.875 56 
Q 33.9375 56 38.28125 53.609375 
Q 42.625 51.21875 45.40625 46.390625 
L 45.40625 54.6875 
L 54.390625 54.6875 
z
" id="DejaVuSans-103"/>
     <path d="M 54.890625 33.015625 
L 54.890625 0 
L 45.90625 0 
L 45.90625 32.71875 
Q 45.90625 40.484375 42.875 44.328125 
Q 39.84375 48.1875 33.796875 48.1875 
Q 26.515625 48.1875 22.3125 43.546875 
Q 18.109375 38.921875 18.109375 30.90625 
L 18.109375 0 
L 9.078125 0 
L 9.078125 75.984375 
L 18.109375 75.984375 
L 18.109375 46.1875 
Q 21.34375 51.125 25.703125 53.5625 
Q 30.078125 56 35.796875 56 
Q 45.21875 56 50.046875 50.171875 
Q 54.890625 44.34375 54.890625 33.015625 
z
" id="DejaVuSans-104"/>
     <path d="M 18.3125 70.21875 
L 18.3125 54.6875 
L 36.8125 54.6875 
L 36.8125 47.703125 
L 18.3125 47.703125 
L 18.3125 18.015625 
Q 18.3125 11.328125 20.140625 9.421875 
Q 21.96875 7.515625 27.59375 7.515625 
L 36.8125 7.515625 
L 36.8125 0 
L 27.59375 0 
Q 17.1875 0 13.234375 3.875 
Q 9.28125 7.765625 9.28125 18.015625 
L 9.28125 47.703125 
L 2.6875 47.703125 
L 2.6875 54.6875 
L 9.28125 54.6875 
L 9.28125 70.21875 
z
" id="DejaVuSans-116"/>
     <path id="DejaVuSans-32"/>
     <path d="M 34.28125 27.484375 
Q 23.390625 27.484375 19.1875 25 
Q 14.984375 22.515625 14.984375 16.5 
Q 14.984375 11.71875 18.140625 8.90625 
Q 21.296875 6.109375 26.703125 6.109375 
Q 34.1875 6.109375 38.703125 11.40625 
Q 43.21875 16.703125 43.21875 25.484375 
L 43.21875 27.484375 
z
M 52.203125 31.203125 
L 52.203125 0 
L 43.21875 0 
L 43.21875 8.296875 
Q 40.140625 3.328125 35.546875 0.953125 
Q 30.953125 -1.421875 24.3125 -1.421875 
Q 15.921875 -1.421875 10.953125 3.296875 
Q 6 8.015625 6 15.921875 
Q 6 25.140625 12.171875 29.828125 
Q 18.359375 34.515625 30.609375 34.515625 
L 43.21875 34.515625 
L 43.21875 35.40625 
Q 43.21875 41.609375 39.140625 45 
Q 35.0625 48.390625 27.6875 48.390625 
Q 23 48.390625 18.546875 47.265625 
Q 14.109375 46.140625 10.015625 43.890625 
L 10.015625 52.203125 
Q 14.9375 54.109375 19.578125 55.046875 
Q 24.21875 56 28.609375 56 
Q 40.484375 56 46.34375 49.84375 
Q 52.203125 43.703125 52.203125 31.203125 
z
" id="DejaVuSans-97"/>
     <path d="M 48.6875 27.296875 
Q 48.6875 37.203125 44.609375 42.84375 
Q 40.53125 48.484375 33.40625 48.484375 
Q 26.265625 48.484375 22.1875 42.84375 
Q 18.109375 37.203125 18.109375 27.296875 
Q 18.109375 17.390625 22.1875 11.75 
Q 26.265625 6.109375 33.40625 6.109375 
Q 40.53125 6.109375 44.609375 11.75 
Q 48.6875 17.390625 48.6875 27.296875 
z
M 18.109375 46.390625 
Q 20.953125 51.265625 25.265625 53.625 
Q 29.59375 56 35.59375 56 
Q 45.5625 56 51.78125 48.09375 
Q 58.015625 40.1875 58.015625 27.296875 
Q 58.015625 14.40625 51.78125 6.484375 
Q 45.5625 -1.421875 35.59375 -1.421875 
Q 29.59375 -1.421875 25.265625 0.953125 
Q 20.953125 3.328125 18.109375 8.203125 
L 18.109375 0 
L 9.078125 0 
L 9.078125 75.984375 
L 18.109375 75.984375 
z
" id="DejaVuSans-98"/>
     <path d="M 45.40625 46.390625 
L 45.40625 75.984375 
L 54.390625 75.984375 
L 54.390625 0 
L 45.40625 0 
L 45.40625 8.203125 
Q 42.578125 3.328125 38.25 0.953125 
Q 33.9375 -1.421875 27.875 -1.421875 
Q 17.96875 -1.421875 11.734375 6.484375 
Q 5.515625 14.40625 5.515625 27.296875 
Q 5.515625 40.1875 11.734375 48.09375 
Q 17.96875 56 27.875 56 
Q 33.9375 56 38.25 53.625 
Q 42.578125 51.265625 45.40625 46.390625 
z
M 14.796875 27.296875 
Q 14.796875 17.390625 18.875 11.75 
Q 22.953125 6.109375 30.078125 6.109375 
Q 37.203125 6.109375 41.296875 11.75 
Q 45.40625 17.390625 45.40625 27.296875 
Q 45.40625 37.203125 41.296875 42.84375 
Q 37.203125 48.484375 30.078125 48.484375 
Q 22.953125 48.484375 18.875 42.84375 
Q 14.796875 37.203125 14.796875 27.296875 
z
" id="DejaVuSans-100"/>
     <path d="M 8.5 21.578125 
L 8.5 54.6875 
L 17.484375 54.6875 
L 17.484375 21.921875 
Q 17.484375 14.15625 20.5 10.265625 
Q 23.53125 6.390625 29.59375 6.390625 
Q 36.859375 6.390625 41.078125 11.03125 
Q 45.3125 15.671875 45.3125 23.6875 
L 45.3125 54.6875 
L 54.296875 54.6875 
L 54.296875 0 
L 45.3125 0 
L 45.3125 8.40625 
Q 42.046875 3.421875 37.71875 1 
Q 33.40625 -1.421875 27.6875 -1.421875 
Q 18.265625 -1.421875 13.375 4.4375 
Q 8.5 10.296875 8.5 21.578125 
z
M 31.109375 56 
z
" id="DejaVuSans-117"/>
     <path d="M 48.78125 52.59375 
L 48.78125 44.1875 
Q 44.96875 46.296875 41.140625 47.34375 
Q 37.3125 48.390625 33.40625 48.390625 
Q 24.65625 48.390625 19.8125 42.84375 
Q 14.984375 37.3125 14.984375 27.296875 
Q 14.984375 17.28125 19.8125 11.734375 
Q 24.65625 6.203125 33.40625 6.203125 
Q 37.3125 6.203125 41.140625 7.25 
Q 44.96875 8.296875 48.78125 10.40625 
L 48.78125 2.09375 
Q 45.015625 0.34375 40.984375 -0.53125 
Q 36.96875 -1.421875 32.421875 -1.421875 
Q 20.0625 -1.421875 12.78125 6.34375 
Q 5.515625 14.109375 5.515625 27.296875 
Q 5.515625 40.671875 12.859375 48.328125 
Q 20.21875 56 33.015625 56 
Q 37.15625 56 41.109375 55.140625 
Q 45.0625 54.296875 48.78125 52.59375 
z
" id="DejaVuSans-99"/>
     <path d="M 30.609375 48.390625 
Q 23.390625 48.390625 19.1875 42.75 
Q 14.984375 37.109375 14.984375 27.296875 
Q 14.984375 17.484375 19.15625 11.84375 
Q 23.34375 6.203125 30.609375 6.203125 
Q 37.796875 6.203125 41.984375 11.859375 
Q 46.1875 17.53125 46.1875 27.296875 
Q 46.1875 37.015625 41.984375 42.703125 
Q 37.796875 48.390625 30.609375 48.390625 
z
M 30.609375 56 
Q 42.328125 56 49.015625 48.375 
Q 55.71875 40.765625 55.71875 27.296875 
Q 55.71875 13.875 49.015625 6.21875 
Q 42.328125 -1.421875 30.609375 -1.421875 
Q 18.84375 -1.421875 12.171875 6.21875 
Q 5.515625 13.875 5.515625 27.296875 
Q 5.515625 40.765625 12.171875 48.375 
Q 18.84375 56 30.609375 56 
z
" id="DejaVuSans-111"/>
     <path d="M 54.890625 33.015625 
L 54.890625 0 
L 45.90625 0 
L 45.90625 32.71875 
Q 45.90625 40.484375 42.875 44.328125 
Q 39.84375 48.1875 33.796875 48.1875 
Q 26.515625 48.1875 22.3125 43.546875 
Q 18.109375 38.921875 18.109375 30.90625 
L 18.109375 0 
L 9.078125 0 
L 9.078125 54.6875 
L 18.109375 54.6875 
L 18.109375 46.1875 
Q 21.34375 51.125 25.703125 53.5625 
Q 30.078125 56 35.796875 56 
Q 45.21875 56 50.046875 50.171875 
Q 54.890625 44.34375 54.890625 33.015625 
z
" id="DejaVuSans-110"/>
    </defs>
    <g transform="translate(368.694972 78.9312)scale(0.12 -0.12)">
     <use xlink:href="#DejaVuSans-82"/>
     <use x="69.482422" xlink:href="#DejaVuSans-105"/>
     <use x="97.265625" xlink:href="#DejaVuSans-103"/>
     <use x="160.742188" xlink:href="#DejaVuSans-104"/>
     <use x="224.121094" xlink:href="#DejaVuSans-116"/>
     <use x="263.330078" xlink:href="#DejaVuSans-32"/>
     <use x="295.117188" xlink:href="#DejaVuSans-97"/>
     <use x="356.396484" xlink:href="#DejaVuSans-98"/>
     <use x="419.873047" xlink:href="#DejaVuSans-100"/>
     <use x="483.349609" xlink:href="#DejaVuSans-117"/>
     <use x="546.728516" xlink:href="#DejaVuSans-99"/>
     <use x="601.708984" xlink:href="#DejaVuSans-116"/>
     <use x="640.917969" xlink:href="#DejaVuSans-105"/>
     <use x="668.701172" xlink:href="#DejaVuSans-111"/>
     <use x="729.882812" xlink:href="#DejaVuSans-110"/>
    </g>
   </g>
  </g>
  <g id="axes_2">
   <g id="patch_7">
    <path d="M 757.178182 332.6472 
L 1244.16 332.6472 
L 1244.16 84.9312 
L 757.178182 84.9312 
z
" style="fill:#ffffff;"/>
   </g>
   <g id="matplotlib.axis_3">
    <g id="xtick_6">
     <g id="line2d_18">
      <g>
       <use style="stroke:#000000;stroke-width:0.8;" x="779.313719" xlink:href="#mbf00e85829" y="332.6472"/>
      </g>
     </g>
     <g id="text_15">
      <!-- 0 -->
      <g transform="translate(776.132469 347.245637)scale(0.1 -0.1)">
       <use xlink:href="#DejaVuSans-48"/>
      </g>
     </g>
    </g>
    <g id="xtick_7">
     <g id="line2d_19">
      <g>
       <use style="stroke:#000000;stroke-width:0.8;" x="874.316025" xlink:href="#mbf00e85829" y="332.6472"/>
      </g>
     </g>
     <g id="text_16">
      <!-- 50 -->
      <g transform="translate(867.953525 347.245637)scale(0.1 -0.1)">
       <use xlink:href="#DejaVuSans-53"/>
       <use x="63.623047" xlink:href="#DejaVuSans-48"/>
      </g>
     </g>
    </g>
    <g id="xtick_8">
     <g id="line2d_20">
      <g>
       <use style="stroke:#000000;stroke-width:0.8;" x="969.31833" xlink:href="#mbf00e85829" y="332.6472"/>
      </g>
     </g>
     <g id="text_17">
      <!-- 100 -->
      <g transform="translate(959.77458 347.245637)scale(0.1 -0.1)">
       <use xlink:href="#DejaVuSans-49"/>
       <use x="63.623047" xlink:href="#DejaVuSans-48"/>
       <use x="127.246094" xlink:href="#DejaVuSans-48"/>
      </g>
     </g>
    </g>
    <g id="xtick_9">
     <g id="line2d_21">
      <g>
       <use style="stroke:#000000;stroke-width:0.8;" x="1064.320636" xlink:href="#mbf00e85829" y="332.6472"/>
      </g>
     </g>
     <g id="text_18">
      <!-- 150 -->
      <g transform="translate(1054.776886 347.245637)scale(0.1 -0.1)">
       <use xlink:href="#DejaVuSans-49"/>
       <use x="63.623047" xlink:href="#DejaVuSans-53"/>
       <use x="127.246094" xlink:href="#DejaVuSans-48"/>
      </g>
     </g>
    </g>
    <g id="xtick_10">
     <g id="line2d_22">
      <g>
       <use style="stroke:#000000;stroke-width:0.8;" x="1159.322941" xlink:href="#mbf00e85829" y="332.6472"/>
      </g>
     </g>
     <g id="text_19">
      <!-- 200 -->
      <g transform="translate(1149.779191 347.245637)scale(0.1 -0.1)">
       <use xlink:href="#DejaVuSans-50"/>
       <use x="63.623047" xlink:href="#DejaVuSans-48"/>
       <use x="127.246094" xlink:href="#DejaVuSans-48"/>
      </g>
     </g>
    </g>
   </g>
   <g id="matplotlib.axis_4">
    <g id="ytick_9">
     <g id="line2d_23">
      <g>
       <use style="stroke:#000000;stroke-width:0.8;" x="757.178182" xlink:href="#ma3e829d53b" y="300.228549"/>
      </g>
     </g>
     <g id="text_20">
      <!-- 0.0 -->
      <g transform="translate(734.275057 304.027768)scale(0.1 -0.1)">
       <use xlink:href="#DejaVuSans-48"/>
       <use x="63.623047" xlink:href="#DejaVuSans-46"/>
       <use x="95.410156" xlink:href="#DejaVuSans-48"/>
      </g>
     </g>
    </g>
    <g id="ytick_10">
     <g id="line2d_24">
      <g>
       <use style="stroke:#000000;stroke-width:0.8;" x="757.178182" xlink:href="#ma3e829d53b" y="249.812551"/>
      </g>
     </g>
     <g id="text_21">
      <!-- 0.1 -->
      <g transform="translate(734.275057 253.61177)scale(0.1 -0.1)">
       <use xlink:href="#DejaVuSans-48"/>
       <use x="63.623047" xlink:href="#DejaVuSans-46"/>
       <use x="95.410156" xlink:href="#DejaVuSans-49"/>
      </g>
     </g>
    </g>
    <g id="ytick_11">
     <g id="line2d_25">
      <g>
       <use style="stroke:#000000;stroke-width:0.8;" x="757.178182" xlink:href="#ma3e829d53b" y="199.396553"/>
      </g>
     </g>
     <g id="text_22">
      <!-- 0.2 -->
      <g transform="translate(734.275057 203.195771)scale(0.1 -0.1)">
       <use xlink:href="#DejaVuSans-48"/>
       <use x="63.623047" xlink:href="#DejaVuSans-46"/>
       <use x="95.410156" xlink:href="#DejaVuSans-50"/>
      </g>
     </g>
    </g>
    <g id="ytick_12">
     <g id="line2d_26">
      <g>
       <use style="stroke:#000000;stroke-width:0.8;" x="757.178182" xlink:href="#ma3e829d53b" y="148.980554"/>
      </g>
     </g>
     <g id="text_23">
      <!-- 0.3 -->
      <defs>
       <path d="M 40.578125 39.3125 
Q 47.65625 37.796875 51.625 33 
Q 55.609375 28.21875 55.609375 21.1875 
Q 55.609375 10.40625 48.1875 4.484375 
Q 40.765625 -1.421875 27.09375 -1.421875 
Q 22.515625 -1.421875 17.65625 -0.515625 
Q 12.796875 0.390625 7.625 2.203125 
L 7.625 11.71875 
Q 11.71875 9.328125 16.59375 8.109375 
Q 21.484375 6.890625 26.8125 6.890625 
Q 36.078125 6.890625 40.9375 10.546875 
Q 45.796875 14.203125 45.796875 21.1875 
Q 45.796875 27.640625 41.28125 31.265625 
Q 36.765625 34.90625 28.71875 34.90625 
L 20.21875 34.90625 
L 20.21875 43.015625 
L 29.109375 43.015625 
Q 36.375 43.015625 40.234375 45.921875 
Q 44.09375 48.828125 44.09375 54.296875 
Q 44.09375 59.90625 40.109375 62.90625 
Q 36.140625 65.921875 28.71875 65.921875 
Q 24.65625 65.921875 20.015625 65.03125 
Q 15.375 64.15625 9.8125 62.3125 
L 9.8125 71.09375 
Q 15.4375 72.65625 20.34375 73.4375 
Q 25.25 74.21875 29.59375 74.21875 
Q 40.828125 74.21875 47.359375 69.109375 
Q 53.90625 64.015625 53.90625 55.328125 
Q 53.90625 49.265625 50.4375 45.09375 
Q 46.96875 40.921875 40.578125 39.3125 
z
" id="DejaVuSans-51"/>
      </defs>
      <g transform="translate(734.275057 152.779773)scale(0.1 -0.1)">
       <use xlink:href="#DejaVuSans-48"/>
       <use x="63.623047" xlink:href="#DejaVuSans-46"/>
       <use x="95.410156" xlink:href="#DejaVuSans-51"/>
      </g>
     </g>
    </g>
    <g id="ytick_13">
     <g id="line2d_27">
      <g>
       <use style="stroke:#000000;stroke-width:0.8;" x="757.178182" xlink:href="#ma3e829d53b" y="98.564556"/>
      </g>
     </g>
     <g id="text_24">
      <!-- 0.4 -->
      <defs>
       <path d="M 37.796875 64.3125 
L 12.890625 25.390625 
L 37.796875 25.390625 
z
M 35.203125 72.90625 
L 47.609375 72.90625 
L 47.609375 25.390625 
L 58.015625 25.390625 
L 58.015625 17.1875 
L 47.609375 17.1875 
L 47.609375 0 
L 37.796875 0 
L 37.796875 17.1875 
L 4.890625 17.1875 
L 4.890625 26.703125 
z
" id="DejaVuSans-52"/>
      </defs>
      <g transform="translate(734.275057 102.363775)scale(0.1 -0.1)">
       <use xlink:href="#DejaVuSans-48"/>
       <use x="63.623047" xlink:href="#DejaVuSans-46"/>
       <use x="95.410156" xlink:href="#DejaVuSans-52"/>
      </g>
     </g>
    </g>
   </g>
   <g id="line2d_28">
    <path clip-path="url(#p65c4bd2447)" d="M 779.313719 300.234991 
L 861.015702 300.334027 
L 864.815794 300.016913 
L 870.515932 299.231459 
L 874.316025 298.769915 
L 878.116117 298.365726 
L 881.916209 297.649659 
L 891.41644 295.221118 
L 899.016624 294.958934 
L 957.918053 294.018981 
L 994.01893 293.71875 
L 1024.419667 293.622939 
L 1054.820405 293.752719 
L 1087.121189 293.902317 
L 1109.921742 293.733658 
L 1123.222065 293.633636 
L 1127.022157 293.725494 
L 1130.822249 294.055092 
L 1134.622342 294.724458 
L 1138.422434 295.80155 
L 1142.222526 297.271845 
L 1147.922664 299.923798 
L 1151.722757 301.672584 
L 1155.522849 303.129321 
L 1159.322941 304.153158 
L 1163.123033 304.743794 
L 1170.723218 305.310855 
L 1174.52331 305.3369 
L 1178.323402 305.163922 
L 1184.023541 304.663484 
L 1189.723679 304.161944 
L 1193.523771 304.020023 
L 1197.323863 304.184273 
L 1199.223909 304.432844 
L 1201.123956 304.868309 
L 1203.024002 305.613578 
L 1204.924048 306.784567 
L 1206.824094 308.32552 
L 1208.72414 310.27486 
L 1214.424278 316.659158 
L 1216.324324 318.329789 
L 1218.224371 319.650498 
L 1220.124417 320.604566 
L 1222.024463 321.387382 
L 1222.024463 321.387382 
" style="fill:none;stroke:#ff796c;stroke-linecap:square;stroke-width:1.5;"/>
   </g>
   <g id="line2d_29">
    <path clip-path="url(#p65c4bd2447)" d="M 779.313719 97.295035 
L 870.515932 97.440501 
L 910.416901 97.814312 
L 1033.919898 97.770587 
L 1151.722757 97.706711 
L 1185.923587 97.666481 
L 1204.924048 97.539479 
L 1210.624186 97.196077 
L 1222.024463 96.191018 
L 1222.024463 96.191018 
" style="fill:none;stroke:#ffff14;stroke-linecap:square;stroke-width:1.5;"/>
   </g>
   <g id="line2d_30">
    <path clip-path="url(#p65c4bd2447)" d="M 779.313719 97.383673 
L 1222.024463 97.383673 
L 1222.024463 97.383673 
" style="fill:none;stroke:#014d4e;stroke-linecap:square;stroke-width:1.5;"/>
   </g>
   <g id="line2d_31">
    <path clip-path="url(#p65c4bd2447)" d="M 779.313719 300.317188 
L 870.515932 300.171721 
L 910.416901 299.79791 
L 1033.919898 299.841635 
L 1151.722757 299.905511 
L 1185.923587 299.945741 
L 1204.924048 300.072743 
L 1210.624186 300.416145 
L 1222.024463 301.421204 
L 1222.024463 301.421204 
" style="fill:none;stroke:#e50000;stroke-linecap:square;stroke-width:1.5;"/>
   </g>
   <g id="patch_8">
    <path d="M 757.178182 332.6472 
L 757.178182 84.9312 
" style="fill:none;stroke:#000000;stroke-linecap:square;stroke-linejoin:miter;stroke-width:0.8;"/>
   </g>
   <g id="patch_9">
    <path d="M 1244.16 332.6472 
L 1244.16 84.9312 
" style="fill:none;stroke:#000000;stroke-linecap:square;stroke-linejoin:miter;stroke-width:0.8;"/>
   </g>
   <g id="patch_10">
    <path d="M 757.178182 332.6472 
L 1244.16 332.6472 
" style="fill:none;stroke:#000000;stroke-linecap:square;stroke-linejoin:miter;stroke-width:0.8;"/>
   </g>
   <g id="patch_11">
    <path d="M 757.178182 84.9312 
L 1244.16 84.9312 
" style="fill:none;stroke:#000000;stroke-linecap:square;stroke-linejoin:miter;stroke-width:0.8;"/>
   </g>
   <g id="text_25">
    <!-- Right flexion -->
    <defs>
     <path d="M 37.109375 75.984375 
L 37.109375 68.5 
L 28.515625 68.5 
Q 23.6875 68.5 21.796875 66.546875 
Q 19.921875 64.59375 19.921875 59.515625 
L 19.921875 54.6875 
L 34.71875 54.6875 
L 34.71875 47.703125 
L 19.921875 47.703125 
L 19.921875 0 
L 10.890625 0 
L 10.890625 47.703125 
L 2.296875 47.703125 
L 2.296875 54.6875 
L 10.890625 54.6875 
L 10.890625 58.5 
Q 10.890625 67.625 15.140625 71.796875 
Q 19.390625 75.984375 28.609375 75.984375 
z
" id="DejaVuSans-102"/>
     <path d="M 9.421875 75.984375 
L 18.40625 75.984375 
L 18.40625 0 
L 9.421875 0 
z
" id="DejaVuSans-108"/>
     <path d="M 56.203125 29.59375 
L 56.203125 25.203125 
L 14.890625 25.203125 
Q 15.484375 15.921875 20.484375 11.0625 
Q 25.484375 6.203125 34.421875 6.203125 
Q 39.59375 6.203125 44.453125 7.46875 
Q 49.3125 8.734375 54.109375 11.28125 
L 54.109375 2.78125 
Q 49.265625 0.734375 44.1875 -0.34375 
Q 39.109375 -1.421875 33.890625 -1.421875 
Q 20.796875 -1.421875 13.15625 6.1875 
Q 5.515625 13.8125 5.515625 26.8125 
Q 5.515625 40.234375 12.765625 48.109375 
Q 20.015625 56 32.328125 56 
Q 43.359375 56 49.78125 48.890625 
Q 56.203125 41.796875 56.203125 29.59375 
z
M 47.21875 32.234375 
Q 47.125 39.59375 43.09375 43.984375 
Q 39.0625 48.390625 32.421875 48.390625 
Q 24.90625 48.390625 20.390625 44.140625 
Q 15.875 39.890625 15.1875 32.171875 
z
" id="DejaVuSans-101"/>
     <path d="M 54.890625 54.6875 
L 35.109375 28.078125 
L 55.90625 0 
L 45.3125 0 
L 29.390625 21.484375 
L 13.484375 0 
L 2.875 0 
L 24.125 28.609375 
L 4.6875 54.6875 
L 15.28125 54.6875 
L 29.78125 35.203125 
L 44.28125 54.6875 
z
" id="DejaVuSans-120"/>
    </defs>
    <g transform="translate(962.800653 78.9312)scale(0.12 -0.12)">
     <use xlink:href="#DejaVuSans-82"/>
     <use x="69.482422" xlink:href="#DejaVuSans-105"/>
     <use x="97.265625" xlink:href="#DejaVuSans-103"/>
     <use x="160.742188" xlink:href="#DejaVuSans-104"/>
     <use x="224.121094" xlink:href="#DejaVuSans-116"/>
     <use x="263.330078" xlink:href="#DejaVuSans-32"/>
     <use x="295.117188" xlink:href="#DejaVuSans-102"/>
     <use x="330.322266" xlink:href="#DejaVuSans-108"/>
     <use x="358.105469" xlink:href="#DejaVuSans-101"/>
     <use x="419.613281" xlink:href="#DejaVuSans-120"/>
     <use x="478.792969" xlink:href="#DejaVuSans-105"/>
     <use x="506.576172" xlink:href="#DejaVuSans-111"/>
     <use x="567.757812" xlink:href="#DejaVuSans-110"/>
    </g>
   </g>
  </g>
  <g id="axes_3">
   <g id="patch_12">
    <path d="M 172.8 629.9064 
L 659.781818 629.9064 
L 659.781818 382.1904 
L 172.8 382.1904 
z
" style="fill:#ffffff;"/>
   </g>
   <g id="matplotlib.axis_5">
    <g id="xtick_11">
     <g id="line2d_32">
      <g>
       <use style="stroke:#000000;stroke-width:0.8;" x="194.935537" xlink:href="#mbf00e85829" y="629.9064"/>
      </g>
     </g>
     <g id="text_26">
      <!-- 0 -->
      <g transform="translate(191.754287 644.504838)scale(0.1 -0.1)">
       <use xlink:href="#DejaVuSans-48"/>
      </g>
     </g>
    </g>
    <g id="xtick_12">
     <g id="line2d_33">
      <g>
       <use style="stroke:#000000;stroke-width:0.8;" x="289.937843" xlink:href="#mbf00e85829" y="629.9064"/>
      </g>
     </g>
     <g id="text_27">
      <!-- 50 -->
      <g transform="translate(283.575343 644.504838)scale(0.1 -0.1)">
       <use xlink:href="#DejaVuSans-53"/>
       <use x="63.623047" xlink:href="#DejaVuSans-48"/>
      </g>
     </g>
    </g>
    <g id="xtick_13">
     <g id="line2d_34">
      <g>
       <use style="stroke:#000000;stroke-width:0.8;" x="384.940148" xlink:href="#mbf00e85829" y="629.9064"/>
      </g>
     </g>
     <g id="text_28">
      <!-- 100 -->
      <g transform="translate(375.396398 644.504838)scale(0.1 -0.1)">
       <use xlink:href="#DejaVuSans-49"/>
       <use x="63.623047" xlink:href="#DejaVuSans-48"/>
       <use x="127.246094" xlink:href="#DejaVuSans-48"/>
      </g>
     </g>
    </g>
    <g id="xtick_14">
     <g id="line2d_35">
      <g>
       <use style="stroke:#000000;stroke-width:0.8;" x="479.942454" xlink:href="#mbf00e85829" y="629.9064"/>
      </g>
     </g>
     <g id="text_29">
      <!-- 150 -->
      <g transform="translate(470.398704 644.504838)scale(0.1 -0.1)">
       <use xlink:href="#DejaVuSans-49"/>
       <use x="63.623047" xlink:href="#DejaVuSans-53"/>
       <use x="127.246094" xlink:href="#DejaVuSans-48"/>
      </g>
     </g>
    </g>
    <g id="xtick_15">
     <g id="line2d_36">
      <g>
       <use style="stroke:#000000;stroke-width:0.8;" x="574.944759" xlink:href="#mbf00e85829" y="629.9064"/>
      </g>
     </g>
     <g id="text_30">
      <!-- 200 -->
      <g transform="translate(565.401009 644.504838)scale(0.1 -0.1)">
       <use xlink:href="#DejaVuSans-50"/>
       <use x="63.623047" xlink:href="#DejaVuSans-48"/>
       <use x="127.246094" xlink:href="#DejaVuSans-48"/>
      </g>
     </g>
    </g>
   </g>
   <g id="matplotlib.axis_6">
    <g id="ytick_14">
     <g id="line2d_37">
      <g>
       <use style="stroke:#000000;stroke-width:0.8;" x="172.8" xlink:href="#ma3e829d53b" y="623.441088"/>
      </g>
     </g>
     <g id="text_31">
      <!-- −0.50 -->
      <g transform="translate(135.154687 627.240306)scale(0.1 -0.1)">
       <use xlink:href="#DejaVuSans-8722"/>
       <use x="83.789062" xlink:href="#DejaVuSans-48"/>
       <use x="147.412109" xlink:href="#DejaVuSans-46"/>
       <use x="179.199219" xlink:href="#DejaVuSans-53"/>
       <use x="242.822266" xlink:href="#DejaVuSans-48"/>
      </g>
     </g>
    </g>
    <g id="ytick_15">
     <g id="line2d_38">
      <g>
       <use style="stroke:#000000;stroke-width:0.8;" x="172.8" xlink:href="#ma3e829d53b" y="595.675094"/>
      </g>
     </g>
     <g id="text_32">
      <!-- −0.25 -->
      <g transform="translate(135.154687 599.474313)scale(0.1 -0.1)">
       <use xlink:href="#DejaVuSans-8722"/>
       <use x="83.789062" xlink:href="#DejaVuSans-48"/>
       <use x="147.412109" xlink:href="#DejaVuSans-46"/>
       <use x="179.199219" xlink:href="#DejaVuSans-50"/>
       <use x="242.822266" xlink:href="#DejaVuSans-53"/>
      </g>
     </g>
    </g>
    <g id="ytick_16">
     <g id="line2d_39">
      <g>
       <use style="stroke:#000000;stroke-width:0.8;" x="172.8" xlink:href="#ma3e829d53b" y="567.909101"/>
      </g>
     </g>
     <g id="text_33">
      <!-- 0.00 -->
      <g transform="translate(143.534375 571.708319)scale(0.1 -0.1)">
       <use xlink:href="#DejaVuSans-48"/>
       <use x="63.623047" xlink:href="#DejaVuSans-46"/>
       <use x="95.410156" xlink:href="#DejaVuSans-48"/>
       <use x="159.033203" xlink:href="#DejaVuSans-48"/>
      </g>
     </g>
    </g>
    <g id="ytick_17">
     <g id="line2d_40">
      <g>
       <use style="stroke:#000000;stroke-width:0.8;" x="172.8" xlink:href="#ma3e829d53b" y="540.143107"/>
      </g>
     </g>
     <g id="text_34">
      <!-- 0.25 -->
      <g transform="translate(143.534375 543.942326)scale(0.1 -0.1)">
       <use xlink:href="#DejaVuSans-48"/>
       <use x="63.623047" xlink:href="#DejaVuSans-46"/>
       <use x="95.410156" xlink:href="#DejaVuSans-50"/>
       <use x="159.033203" xlink:href="#DejaVuSans-53"/>
      </g>
     </g>
    </g>
    <g id="ytick_18">
     <g id="line2d_41">
      <g>
       <use style="stroke:#000000;stroke-width:0.8;" x="172.8" xlink:href="#ma3e829d53b" y="512.377114"/>
      </g>
     </g>
     <g id="text_35">
      <!-- 0.50 -->
      <g transform="translate(143.534375 516.176332)scale(0.1 -0.1)">
       <use xlink:href="#DejaVuSans-48"/>
       <use x="63.623047" xlink:href="#DejaVuSans-46"/>
       <use x="95.410156" xlink:href="#DejaVuSans-53"/>
       <use x="159.033203" xlink:href="#DejaVuSans-48"/>
      </g>
     </g>
    </g>
    <g id="ytick_19">
     <g id="line2d_42">
      <g>
       <use style="stroke:#000000;stroke-width:0.8;" x="172.8" xlink:href="#ma3e829d53b" y="484.61112"/>
      </g>
     </g>
     <g id="text_36">
      <!-- 0.75 -->
      <g transform="translate(143.534375 488.410339)scale(0.1 -0.1)">
       <use xlink:href="#DejaVuSans-48"/>
       <use x="63.623047" xlink:href="#DejaVuSans-46"/>
       <use x="95.410156" xlink:href="#DejaVuSans-55"/>
       <use x="159.033203" xlink:href="#DejaVuSans-53"/>
      </g>
     </g>
    </g>
    <g id="ytick_20">
     <g id="line2d_43">
      <g>
       <use style="stroke:#000000;stroke-width:0.8;" x="172.8" xlink:href="#ma3e829d53b" y="456.845127"/>
      </g>
     </g>
     <g id="text_37">
      <!-- 1.00 -->
      <g transform="translate(143.534375 460.644345)scale(0.1 -0.1)">
       <use xlink:href="#DejaVuSans-49"/>
       <use x="63.623047" xlink:href="#DejaVuSans-46"/>
       <use x="95.410156" xlink:href="#DejaVuSans-48"/>
       <use x="159.033203" xlink:href="#DejaVuSans-48"/>
      </g>
     </g>
    </g>
    <g id="ytick_21">
     <g id="line2d_44">
      <g>
       <use style="stroke:#000000;stroke-width:0.8;" x="172.8" xlink:href="#ma3e829d53b" y="429.079133"/>
      </g>
     </g>
     <g id="text_38">
      <!-- 1.25 -->
      <g transform="translate(143.534375 432.878352)scale(0.1 -0.1)">
       <use xlink:href="#DejaVuSans-49"/>
       <use x="63.623047" xlink:href="#DejaVuSans-46"/>
       <use x="95.410156" xlink:href="#DejaVuSans-50"/>
       <use x="159.033203" xlink:href="#DejaVuSans-53"/>
      </g>
     </g>
    </g>
    <g id="ytick_22">
     <g id="line2d_45">
      <g>
       <use style="stroke:#000000;stroke-width:0.8;" x="172.8" xlink:href="#ma3e829d53b" y="401.31314"/>
      </g>
     </g>
     <g id="text_39">
      <!-- 1.50 -->
      <g transform="translate(143.534375 405.112358)scale(0.1 -0.1)">
       <use xlink:href="#DejaVuSans-49"/>
       <use x="63.623047" xlink:href="#DejaVuSans-46"/>
       <use x="95.410156" xlink:href="#DejaVuSans-53"/>
       <use x="159.033203" xlink:href="#DejaVuSans-48"/>
      </g>
     </g>
    </g>
   </g>
   <g id="line2d_46">
    <path clip-path="url(#p3d2e30d672)" d="M 194.935537 567.835193 
L 200.635676 568.682019 
L 204.435768 568.934097 
L 206.335814 569.184912 
L 208.23586 569.321251 
L 210.135906 569.206972 
L 212.035952 568.83513 
L 213.935998 568.34641 
L 215.836044 567.986916 
L 223.436229 567.279212 
L 225.336275 567.457507 
L 229.136367 568.328063 
L 232.936459 568.621168 
L 238.636598 568.870325 
L 240.536644 568.7261 
L 244.336736 567.992963 
L 246.236782 567.938745 
L 250.036874 568.258282 
L 251.936921 568.274573 
L 253.836967 568.424125 
L 259.537105 569.45191 
L 261.437151 569.4478 
L 269.037336 568.553452 
L 274.737474 567.434183 
L 276.63752 567.574155 
L 278.537566 567.854542 
L 284.237704 568.401015 
L 288.037797 568.932864 
L 289.937843 568.935143 
L 291.837889 568.673666 
L 293.737935 568.279997 
L 295.637981 568.013968 
L 299.438073 567.857804 
L 301.338119 567.64689 
L 303.238166 567.572717 
L 305.138212 567.871739 
L 308.938304 568.778928 
L 312.738396 569.117463 
L 316.538488 569.270625 
L 318.438534 569.210317 
L 320.33858 568.9071 
L 324.138673 568.008853 
L 326.038719 567.953672 
L 327.938765 568.049704 
L 331.738857 567.968638 
L 333.638903 568.150369 
L 337.438995 568.833406 
L 339.339042 568.875964 
L 343.139134 568.410286 
L 352.639364 567.101997 
L 354.53941 567.25482 
L 358.339503 568.121775 
L 362.139595 568.5421 
L 365.939687 569.139579 
L 367.839733 569.138149 
L 369.739779 568.872283 
L 373.539872 568.125372 
L 375.439918 568.024381 
L 379.24001 568.014954 
L 381.140056 567.934528 
L 383.040102 568.147473 
L 386.840194 569.11098 
L 388.74024 569.171341 
L 396.340425 568.574853 
L 402.040563 567.498858 
L 403.940609 567.555372 
L 407.740702 568.192569 
L 411.540794 568.398057 
L 415.340886 569.037867 
L 417.240932 568.946911 
L 421.041024 568.180574 
L 422.94107 567.983851 
L 426.741163 567.905207 
L 430.541255 567.952413 
L 432.441301 568.259277 
L 436.241393 569.415463 
L 438.141439 569.569915 
L 441.941532 569.397721 
L 443.841578 569.416119 
L 445.741624 569.242591 
L 451.441762 568.08079 
L 453.341808 568.087188 
L 457.1419 568.646829 
L 460.941993 568.841577 
L 464.742085 569.514446 
L 466.642131 569.582609 
L 470.442223 568.848994 
L 472.342269 568.529417 
L 474.242315 568.349093 
L 481.8425 568.099232 
L 483.742546 568.47678 
L 485.642592 569.060205 
L 487.542638 569.441632 
L 489.442684 569.528023 
L 497.042869 569.285531 
L 498.942915 569.059726 
L 502.743007 568.175003 
L 504.643053 568.151427 
L 516.04333 569.652394 
L 517.943376 570.053537 
L 519.843422 570.194245 
L 521.743468 569.947298 
L 527.443607 568.696664 
L 535.043791 568.076435 
L 536.943837 568.155068 
L 538.843883 568.416412 
L 544.544022 569.6701 
L 550.24416 569.429378 
L 555.944298 568.917283 
L 557.844344 568.381173 
L 559.74439 567.975996 
L 561.644437 567.733461 
L 563.544483 567.696564 
L 567.344575 568.404383 
L 573.044713 568.84593 
L 574.944759 568.894206 
L 576.844805 569.149524 
L 578.744852 569.203529 
L 580.644898 569.01039 
L 582.544944 568.694277 
L 586.345036 567.427435 
L 590.145128 566.882521 
L 593.94522 567.106834 
L 595.845267 567.057234 
L 601.545405 567.457451 
L 603.445451 567.908961 
L 607.245543 568.259335 
L 609.145589 568.064388 
L 614.845728 566.299847 
L 616.745774 565.946165 
L 620.545866 565.556735 
L 622.445912 565.651559 
L 624.345958 565.437288 
L 626.246004 565.446504 
L 630.046097 565.658353 
L 631.946143 566.231402 
L 633.846189 566.405383 
L 635.746235 566.748422 
L 637.646281 566.615289 
L 637.646281 566.615289 
" style="fill:none;stroke:#ff796c;stroke-linecap:square;stroke-width:1.5;"/>
   </g>
   <g id="line2d_47">
    <path clip-path="url(#p3d2e30d672)" d="M 194.935537 394.147179 
L 202.535722 394.238662 
L 206.335814 394.462553 
L 210.135906 394.881332 
L 215.836044 395.846148 
L 227.236321 397.890191 
L 232.936459 398.919024 
L 238.636598 400.222967 
L 244.336736 401.83256 
L 255.737013 405.265505 
L 259.537105 406.55831 
L 263.337197 408.057515 
L 269.037336 410.621573 
L 278.537566 415.072654 
L 288.037797 419.442412 
L 293.737935 422.404335 
L 305.138212 428.48081 
L 312.738396 432.478507 
L 318.438534 435.83238 
L 337.438995 447.952166 
L 343.139134 451.795119 
L 354.53941 459.671243 
L 365.939687 467.067411 
L 371.639825 471.133287 
L 381.140056 477.990766 
L 390.640287 484.727434 
L 398.240471 490.584882 
L 403.940609 494.957572 
L 421.041024 507.586079 
L 426.741163 511.875504 
L 432.441301 515.923646 
L 440.041485 521.253078 
L 445.741624 525.54787 
L 453.341808 531.35609 
L 462.842039 538.10647 
L 468.542177 542.236583 
L 476.142362 547.855408 
L 481.8425 551.801525 
L 497.042869 561.82044 
L 504.643053 566.893459 
L 510.343192 570.33422 
L 519.843422 575.931829 
L 535.043791 585.357726 
L 540.743929 588.394792 
L 548.344114 592.328101 
L 561.644437 599.420174 
L 565.444529 601.166366 
L 573.044713 604.288725 
L 582.544944 608.188853 
L 588.245082 610.521594 
L 592.045174 611.84297 
L 595.845267 612.952191 
L 601.545405 614.308282 
L 611.045635 616.39894 
L 616.745774 617.64167 
L 620.545866 618.225855 
L 624.345958 618.557544 
L 628.14605 618.646582 
L 633.846189 618.46811 
L 637.646281 618.328826 
L 637.646281 618.328826 
" style="fill:none;stroke:#ffff14;stroke-linecap:square;stroke-width:1.5;"/>
   </g>
   <g id="line2d_48">
    <path clip-path="url(#p3d2e30d672)" d="M 194.935537 393.450218 
L 200.635676 393.538647 
L 206.335814 393.803791 
L 212.035952 394.245219 
L 217.736091 394.862216 
L 223.436229 395.653781 
L 229.136367 396.618629 
L 234.836506 397.755197 
L 242.43669 399.534513 
L 250.036874 401.610667 
L 257.637059 403.977674 
L 265.237243 406.628709 
L 272.837428 409.556128 
L 280.437612 412.751491 
L 288.037797 416.205585 
L 295.637981 419.908451 
L 303.238166 423.849412 
L 310.83835 428.017105 
L 318.438534 432.399515 
L 327.938765 438.160165 
L 337.438995 444.210576 
L 346.939226 450.523491 
L 358.339503 458.405382 
L 369.739779 466.573159 
L 383.040102 476.392805 
L 400.140517 489.344086 
L 455.241854 531.414182 
L 468.542177 541.152002 
L 479.942454 549.230285 
L 491.34273 557.00542 
L 500.842961 563.216683 
L 510.343192 569.154389 
L 519.843422 574.791793 
L 527.443607 579.068387 
L 535.043791 583.124176 
L 542.643975 586.947467 
L 550.24416 590.527237 
L 557.844344 593.853165 
L 565.444529 596.91566 
L 573.044713 599.705893 
L 580.644898 602.215818 
L 588.245082 604.4382 
L 595.845267 606.36663 
L 603.445451 607.995549 
L 609.145589 609.017825 
L 614.845728 609.867307 
L 620.545866 610.542619 
L 626.246004 611.042663 
L 631.946143 611.366631 
L 637.646281 611.513995 
L 637.646281 611.513995 
" style="fill:none;stroke:#014d4e;stroke-linecap:square;stroke-width:1.5;"/>
   </g>
   <g id="line2d_49">
    <path clip-path="url(#p3d2e30d672)" d="M 194.935537 567.21214 
L 208.23586 567.196537 
L 213.935998 566.841684 
L 221.536183 566.36976 
L 227.236321 566.29676 
L 236.736552 566.328616 
L 263.337197 565.791312 
L 278.537566 564.764468 
L 295.637981 564.384396 
L 301.338119 564.249431 
L 307.038258 564.365425 
L 314.638442 564.535554 
L 320.33858 564.40286 
L 327.938765 564.132901 
L 335.538949 564.14891 
L 341.239088 564.131762 
L 352.639364 563.920703 
L 358.339503 564.208718 
L 365.939687 564.663727 
L 371.639825 564.734368 
L 379.24001 564.824845 
L 394.440379 565.289097 
L 403.940609 565.206427 
L 421.041024 565.73746 
L 426.741163 565.834548 
L 432.441301 566.161055 
L 438.141439 566.56673 
L 443.841578 566.678805 
L 457.1419 566.647137 
L 466.642131 566.859386 
L 481.8425 566.656157 
L 491.34273 566.93961 
L 497.042869 566.852124 
L 504.643053 566.64176 
L 512.243238 566.772732 
L 517.943376 566.819302 
L 521.743468 566.670284 
L 536.943837 565.603534 
L 548.344114 565.236701 
L 554.044252 564.719113 
L 563.544483 563.764269 
L 580.644898 562.740806 
L 592.045174 561.505658 
L 597.745313 561.273557 
L 609.145589 560.975541 
L 618.64582 560.282726 
L 622.445912 560.21763 
L 626.246004 560.321097 
L 633.846189 560.876383 
L 637.646281 561.094269 
L 637.646281 561.094269 
" style="fill:none;stroke:#e50000;stroke-linecap:square;stroke-width:1.5;"/>
   </g>
   <g id="patch_13">
    <path d="M 172.8 629.9064 
L 172.8 382.1904 
" style="fill:none;stroke:#000000;stroke-linecap:square;stroke-linejoin:miter;stroke-width:0.8;"/>
   </g>
   <g id="patch_14">
    <path d="M 659.781818 629.9064 
L 659.781818 382.1904 
" style="fill:none;stroke:#000000;stroke-linecap:square;stroke-linejoin:miter;stroke-width:0.8;"/>
   </g>
   <g id="patch_15">
    <path d="M 172.8 629.9064 
L 659.781818 629.9064 
" style="fill:none;stroke:#000000;stroke-linecap:square;stroke-linejoin:miter;stroke-width:0.8;"/>
   </g>
   <g id="patch_16">
    <path d="M 172.8 382.1904 
L 659.781818 382.1904 
" style="fill:none;stroke:#000000;stroke-linecap:square;stroke-linejoin:miter;stroke-width:0.8;"/>
   </g>
   <g id="text_40">
    <!-- Left abduction -->
    <defs>
     <path d="M 9.8125 72.90625 
L 19.671875 72.90625 
L 19.671875 8.296875 
L 55.171875 8.296875 
L 55.171875 0 
L 9.8125 0 
z
" id="DejaVuSans-76"/>
    </defs>
    <g transform="translate(372.997159 376.1904)scale(0.12 -0.12)">
     <use xlink:href="#DejaVuSans-76"/>
     <use x="55.697266" xlink:href="#DejaVuSans-101"/>
     <use x="117.220703" xlink:href="#DejaVuSans-102"/>
     <use x="152.410156" xlink:href="#DejaVuSans-116"/>
     <use x="191.619141" xlink:href="#DejaVuSans-32"/>
     <use x="223.40625" xlink:href="#DejaVuSans-97"/>
     <use x="284.685547" xlink:href="#DejaVuSans-98"/>
     <use x="348.162109" xlink:href="#DejaVuSans-100"/>
     <use x="411.638672" xlink:href="#DejaVuSans-117"/>
     <use x="475.017578" xlink:href="#DejaVuSans-99"/>
     <use x="529.998047" xlink:href="#DejaVuSans-116"/>
     <use x="569.207031" xlink:href="#DejaVuSans-105"/>
     <use x="596.990234" xlink:href="#DejaVuSans-111"/>
     <use x="658.171875" xlink:href="#DejaVuSans-110"/>
    </g>
   </g>
  </g>
  <g id="axes_4">
   <g id="patch_17">
    <path d="M 757.178182 629.9064 
L 1244.16 629.9064 
L 1244.16 382.1904 
L 757.178182 382.1904 
z
" style="fill:#ffffff;"/>
   </g>
   <g id="matplotlib.axis_7">
    <g id="xtick_16">
     <g id="line2d_50">
      <g>
       <use style="stroke:#000000;stroke-width:0.8;" x="779.313719" xlink:href="#mbf00e85829" y="629.9064"/>
      </g>
     </g>
     <g id="text_41">
      <!-- 0 -->
      <g transform="translate(776.132469 644.504838)scale(0.1 -0.1)">
       <use xlink:href="#DejaVuSans-48"/>
      </g>
     </g>
    </g>
    <g id="xtick_17">
     <g id="line2d_51">
      <g>
       <use style="stroke:#000000;stroke-width:0.8;" x="874.316025" xlink:href="#mbf00e85829" y="629.9064"/>
      </g>
     </g>
     <g id="text_42">
      <!-- 50 -->
      <g transform="translate(867.953525 644.504838)scale(0.1 -0.1)">
       <use xlink:href="#DejaVuSans-53"/>
       <use x="63.623047" xlink:href="#DejaVuSans-48"/>
      </g>
     </g>
    </g>
    <g id="xtick_18">
     <g id="line2d_52">
      <g>
       <use style="stroke:#000000;stroke-width:0.8;" x="969.31833" xlink:href="#mbf00e85829" y="629.9064"/>
      </g>
     </g>
     <g id="text_43">
      <!-- 100 -->
      <g transform="translate(959.77458 644.504838)scale(0.1 -0.1)">
       <use xlink:href="#DejaVuSans-49"/>
       <use x="63.623047" xlink:href="#DejaVuSans-48"/>
       <use x="127.246094" xlink:href="#DejaVuSans-48"/>
      </g>
     </g>
    </g>
    <g id="xtick_19">
     <g id="line2d_53">
      <g>
       <use style="stroke:#000000;stroke-width:0.8;" x="1064.320636" xlink:href="#mbf00e85829" y="629.9064"/>
      </g>
     </g>
     <g id="text_44">
      <!-- 150 -->
      <g transform="translate(1054.776886 644.504838)scale(0.1 -0.1)">
       <use xlink:href="#DejaVuSans-49"/>
       <use x="63.623047" xlink:href="#DejaVuSans-53"/>
       <use x="127.246094" xlink:href="#DejaVuSans-48"/>
      </g>
     </g>
    </g>
    <g id="xtick_20">
     <g id="line2d_54">
      <g>
       <use style="stroke:#000000;stroke-width:0.8;" x="1159.322941" xlink:href="#mbf00e85829" y="629.9064"/>
      </g>
     </g>
     <g id="text_45">
      <!-- 200 -->
      <g transform="translate(1149.779191 644.504838)scale(0.1 -0.1)">
       <use xlink:href="#DejaVuSans-50"/>
       <use x="63.623047" xlink:href="#DejaVuSans-48"/>
       <use x="127.246094" xlink:href="#DejaVuSans-48"/>
      </g>
     </g>
    </g>
   </g>
   <g id="matplotlib.axis_8">
    <g id="ytick_23">
     <g id="line2d_55">
      <g>
       <use style="stroke:#000000;stroke-width:0.8;" x="757.178182" xlink:href="#ma3e829d53b" y="616.652628"/>
      </g>
     </g>
     <g id="text_46">
      <!-- −0.4 -->
      <g transform="translate(725.895369 620.451847)scale(0.1 -0.1)">
       <use xlink:href="#DejaVuSans-8722"/>
       <use x="83.789062" xlink:href="#DejaVuSans-48"/>
       <use x="147.412109" xlink:href="#DejaVuSans-46"/>
       <use x="179.199219" xlink:href="#DejaVuSans-52"/>
      </g>
     </g>
    </g>
    <g id="ytick_24">
     <g id="line2d_56">
      <g>
       <use style="stroke:#000000;stroke-width:0.8;" x="757.178182" xlink:href="#ma3e829d53b" y="561.975831"/>
      </g>
     </g>
     <g id="text_47">
      <!-- −0.3 -->
      <g transform="translate(725.895369 565.77505)scale(0.1 -0.1)">
       <use xlink:href="#DejaVuSans-8722"/>
       <use x="83.789062" xlink:href="#DejaVuSans-48"/>
       <use x="147.412109" xlink:href="#DejaVuSans-46"/>
       <use x="179.199219" xlink:href="#DejaVuSans-51"/>
      </g>
     </g>
    </g>
    <g id="ytick_25">
     <g id="line2d_57">
      <g>
       <use style="stroke:#000000;stroke-width:0.8;" x="757.178182" xlink:href="#ma3e829d53b" y="507.299034"/>
      </g>
     </g>
     <g id="text_48">
      <!-- −0.2 -->
      <g transform="translate(725.895369 511.098253)scale(0.1 -0.1)">
       <use xlink:href="#DejaVuSans-8722"/>
       <use x="83.789062" xlink:href="#DejaVuSans-48"/>
       <use x="147.412109" xlink:href="#DejaVuSans-46"/>
       <use x="179.199219" xlink:href="#DejaVuSans-50"/>
      </g>
     </g>
    </g>
    <g id="ytick_26">
     <g id="line2d_58">
      <g>
       <use style="stroke:#000000;stroke-width:0.8;" x="757.178182" xlink:href="#ma3e829d53b" y="452.622238"/>
      </g>
     </g>
     <g id="text_49">
      <!-- −0.1 -->
      <g transform="translate(725.895369 456.421456)scale(0.1 -0.1)">
       <use xlink:href="#DejaVuSans-8722"/>
       <use x="83.789062" xlink:href="#DejaVuSans-48"/>
       <use x="147.412109" xlink:href="#DejaVuSans-46"/>
       <use x="179.199219" xlink:href="#DejaVuSans-49"/>
      </g>
     </g>
    </g>
    <g id="ytick_27">
     <g id="line2d_59">
      <g>
       <use style="stroke:#000000;stroke-width:0.8;" x="757.178182" xlink:href="#ma3e829d53b" y="397.945441"/>
      </g>
     </g>
     <g id="text_50">
      <!-- 0.0 -->
      <g transform="translate(734.275057 401.744659)scale(0.1 -0.1)">
       <use xlink:href="#DejaVuSans-48"/>
       <use x="63.623047" xlink:href="#DejaVuSans-46"/>
       <use x="95.410156" xlink:href="#DejaVuSans-48"/>
      </g>
     </g>
    </g>
   </g>
   <g id="line2d_60">
    <path clip-path="url(#pf858ad8048)" d="M 779.313719 397.932968 
L 862.915748 397.289316 
L 872.415978 396.83188 
L 881.916209 396.337697 
L 891.41644 395.489587 
L 906.616808 395.243126 
L 982.618653 394.317194 
L 1039.620036 393.862218 
L 1125.122111 393.468319 
L 1128.922203 393.588254 
L 1132.722296 393.8886 
L 1136.522388 394.420606 
L 1140.32248 395.200502 
L 1146.022618 396.743739 
L 1151.722757 398.385621 
L 1155.522849 399.299903 
L 1159.322941 399.96106 
L 1163.123033 400.355938 
L 1168.823172 400.629106 
L 1174.52331 400.639182 
L 1180.223448 400.393045 
L 1191.623725 399.7222 
L 1195.423817 399.699002 
L 1199.223909 399.89946 
L 1201.123956 400.124242 
L 1203.024002 400.481402 
L 1204.924048 401.006839 
L 1206.824094 401.66643 
L 1214.424278 404.802918 
L 1216.324324 405.268396 
L 1218.224371 405.519615 
L 1220.124417 405.535786 
L 1222.024463 405.39095 
L 1222.024463 405.39095 
" style="fill:none;stroke:#ff796c;stroke-linecap:square;stroke-width:1.5;"/>
   </g>
   <g id="line2d_61">
    <path clip-path="url(#pf858ad8048)" d="M 779.313719 617.970039 
L 876.216071 618.090578 
L 935.1175 618.382458 
L 1090.921281 618.587487 
L 1127.022157 618.588156 
L 1132.722296 618.300763 
L 1136.522388 617.910996 
L 1140.32248 617.345698 
L 1146.022618 616.233984 
L 1153.622803 614.716949 
L 1157.422895 614.157444 
L 1161.222987 613.796504 
L 1165.023079 613.62385 
L 1170.723218 613.584645 
L 1176.423356 613.759263 
L 1187.823633 614.444305 
L 1193.523771 614.677404 
L 1197.323863 614.671274 
L 1201.123956 614.474702 
L 1204.924048 614.040639 
L 1212.524232 612.862878 
L 1214.424278 612.72087 
L 1216.324324 612.736639 
L 1218.224371 612.908314 
L 1220.124417 613.257077 
L 1222.024463 613.755695 
L 1222.024463 613.755695 
" style="fill:none;stroke:#ffff14;stroke-linecap:square;stroke-width:1.5;"/>
   </g>
   <g id="line2d_62">
    <path clip-path="url(#pf858ad8048)" d="M 779.313719 617.933311 
L 1222.024463 617.933311 
L 1222.024463 617.933311 
" style="fill:none;stroke:#014d4e;stroke-linecap:square;stroke-width:1.5;"/>
   </g>
   <g id="line2d_63">
    <path clip-path="url(#pf858ad8048)" d="M 779.313719 397.908713 
L 876.216071 397.788174 
L 935.1175 397.496294 
L 1090.921281 397.291265 
L 1127.022157 397.290596 
L 1132.722296 397.577988 
L 1136.522388 397.967756 
L 1140.32248 398.533054 
L 1146.022618 399.644768 
L 1153.622803 401.161803 
L 1157.422895 401.721308 
L 1161.222987 402.082248 
L 1165.023079 402.254902 
L 1170.723218 402.294107 
L 1176.423356 402.119489 
L 1187.823633 401.434447 
L 1193.523771 401.201348 
L 1197.323863 401.207478 
L 1201.123956 401.40405 
L 1204.924048 401.838112 
L 1212.524232 403.015874 
L 1214.424278 403.157882 
L 1216.324324 403.142112 
L 1218.224371 402.970438 
L 1220.124417 402.621675 
L 1222.024463 402.123056 
L 1222.024463 402.123056 
" style="fill:none;stroke:#e50000;stroke-linecap:square;stroke-width:1.5;"/>
   </g>
   <g id="patch_18">
    <path d="M 757.178182 629.9064 
L 757.178182 382.1904 
" style="fill:none;stroke:#000000;stroke-linecap:square;stroke-linejoin:miter;stroke-width:0.8;"/>
   </g>
   <g id="patch_19">
    <path d="M 1244.16 629.9064 
L 1244.16 382.1904 
" style="fill:none;stroke:#000000;stroke-linecap:square;stroke-linejoin:miter;stroke-width:0.8;"/>
   </g>
   <g id="patch_20">
    <path d="M 757.178182 629.9064 
L 1244.16 629.9064 
" style="fill:none;stroke:#000000;stroke-linecap:square;stroke-linejoin:miter;stroke-width:0.8;"/>
   </g>
   <g id="patch_21">
    <path d="M 757.178182 382.1904 
L 1244.16 382.1904 
" style="fill:none;stroke:#000000;stroke-linecap:square;stroke-linejoin:miter;stroke-width:0.8;"/>
   </g>
   <g id="text_51">
    <!-- Left flexion -->
    <g transform="translate(967.102841 376.1904)scale(0.12 -0.12)">
     <use xlink:href="#DejaVuSans-76"/>
     <use x="55.697266" xlink:href="#DejaVuSans-101"/>
     <use x="117.220703" xlink:href="#DejaVuSans-102"/>
     <use x="152.410156" xlink:href="#DejaVuSans-116"/>
     <use x="191.619141" xlink:href="#DejaVuSans-32"/>
     <use x="223.40625" xlink:href="#DejaVuSans-102"/>
     <use x="258.611328" xlink:href="#DejaVuSans-108"/>
     <use x="286.394531" xlink:href="#DejaVuSans-101"/>
     <use x="347.902344" xlink:href="#DejaVuSans-120"/>
     <use x="407.082031" xlink:href="#DejaVuSans-105"/>
     <use x="434.865234" xlink:href="#DejaVuSans-111"/>
     <use x="496.046875" xlink:href="#DejaVuSans-110"/>
    </g>
   </g>
  </g>
  <g id="legend_1">
   <g id="patch_22">
    <path d="M 1308.251562 384.875313 
L 1375.4 384.875313 
Q 1377.4 384.875313 1377.4 382.875313 
L 1377.4 324.884687 
Q 1377.4 322.884687 1375.4 322.884687 
L 1308.251562 322.884687 
Q 1306.251562 322.884687 1306.251562 324.884687 
L 1306.251562 382.875313 
Q 1306.251562 384.875313 1308.251562 384.875313 
z
" style="fill:#ffffff;opacity:0.8;stroke:#cccccc;stroke-linejoin:miter;"/>
   </g>
   <g id="line2d_64">
    <path d="M 1310.251562 330.983125 
L 1330.251562 330.983125 
" style="fill:none;stroke:#ff796c;stroke-linecap:square;stroke-width:1.5;"/>
   </g>
   <g id="line2d_65"/>
   <g id="text_52">
    <!-- Torque -->
    <defs>
     <path d="M -0.296875 72.90625 
L 61.375 72.90625 
L 61.375 64.59375 
L 35.5 64.59375 
L 35.5 0 
L 25.59375 0 
L 25.59375 64.59375 
L -0.296875 64.59375 
z
" id="DejaVuSans-84"/>
     <path d="M 41.109375 46.296875 
Q 39.59375 47.171875 37.8125 47.578125 
Q 36.03125 48 33.890625 48 
Q 26.265625 48 22.1875 43.046875 
Q 18.109375 38.09375 18.109375 28.8125 
L 18.109375 0 
L 9.078125 0 
L 9.078125 54.6875 
L 18.109375 54.6875 
L 18.109375 46.1875 
Q 20.953125 51.171875 25.484375 53.578125 
Q 30.03125 56 36.53125 56 
Q 37.453125 56 38.578125 55.875 
Q 39.703125 55.765625 41.0625 55.515625 
z
" id="DejaVuSans-114"/>
     <path d="M 14.796875 27.296875 
Q 14.796875 17.390625 18.875 11.75 
Q 22.953125 6.109375 30.078125 6.109375 
Q 37.203125 6.109375 41.296875 11.75 
Q 45.40625 17.390625 45.40625 27.296875 
Q 45.40625 37.203125 41.296875 42.84375 
Q 37.203125 48.484375 30.078125 48.484375 
Q 22.953125 48.484375 18.875 42.84375 
Q 14.796875 37.203125 14.796875 27.296875 
z
M 45.40625 8.203125 
Q 42.578125 3.328125 38.25 0.953125 
Q 33.9375 -1.421875 27.875 -1.421875 
Q 17.96875 -1.421875 11.734375 6.484375 
Q 5.515625 14.40625 5.515625 27.296875 
Q 5.515625 40.1875 11.734375 48.09375 
Q 17.96875 56 27.875 56 
Q 33.9375 56 38.25 53.625 
Q 42.578125 51.265625 45.40625 46.390625 
L 45.40625 54.6875 
L 54.390625 54.6875 
L 54.390625 -20.796875 
L 45.40625 -20.796875 
z
" id="DejaVuSans-113"/>
    </defs>
    <g transform="translate(1338.251562 334.483125)scale(0.1 -0.1)">
     <use xlink:href="#DejaVuSans-84"/>
     <use x="60.818359" xlink:href="#DejaVuSans-111"/>
     <use x="122" xlink:href="#DejaVuSans-114"/>
     <use x="163.097656" xlink:href="#DejaVuSans-113"/>
     <use x="226.574219" xlink:href="#DejaVuSans-117"/>
     <use x="289.953125" xlink:href="#DejaVuSans-101"/>
    </g>
   </g>
   <g id="line2d_66">
    <path d="M 1310.251562 345.66125 
L 1330.251562 345.66125 
" style="fill:none;stroke:#ffff14;stroke-linecap:square;stroke-width:1.5;"/>
   </g>
   <g id="line2d_67"/>
   <g id="text_53">
    <!-- q -->
    <g transform="translate(1338.251562 349.16125)scale(0.1 -0.1)">
     <use xlink:href="#DejaVuSans-113"/>
    </g>
   </g>
   <g id="line2d_68">
    <path d="M 1310.251562 360.339375 
L 1330.251562 360.339375 
" style="fill:none;stroke:#014d4e;stroke-linecap:square;stroke-width:1.5;"/>
   </g>
   <g id="line2d_69"/>
   <g id="text_54">
    <!-- q_des -->
    <defs>
     <path d="M 50.984375 -16.609375 
L 50.984375 -23.578125 
L -0.984375 -23.578125 
L -0.984375 -16.609375 
z
" id="DejaVuSans-95"/>
     <path d="M 44.28125 53.078125 
L 44.28125 44.578125 
Q 40.484375 46.53125 36.375 47.5 
Q 32.28125 48.484375 27.875 48.484375 
Q 21.1875 48.484375 17.84375 46.4375 
Q 14.5 44.390625 14.5 40.28125 
Q 14.5 37.15625 16.890625 35.375 
Q 19.28125 33.59375 26.515625 31.984375 
L 29.59375 31.296875 
Q 39.15625 29.25 43.1875 25.515625 
Q 47.21875 21.78125 47.21875 15.09375 
Q 47.21875 7.46875 41.1875 3.015625 
Q 35.15625 -1.421875 24.609375 -1.421875 
Q 20.21875 -1.421875 15.453125 -0.5625 
Q 10.6875 0.296875 5.421875 2 
L 5.421875 11.28125 
Q 10.40625 8.6875 15.234375 7.390625 
Q 20.0625 6.109375 24.8125 6.109375 
Q 31.15625 6.109375 34.5625 8.28125 
Q 37.984375 10.453125 37.984375 14.40625 
Q 37.984375 18.0625 35.515625 20.015625 
Q 33.0625 21.96875 24.703125 23.78125 
L 21.578125 24.515625 
Q 13.234375 26.265625 9.515625 29.90625 
Q 5.8125 33.546875 5.8125 39.890625 
Q 5.8125 47.609375 11.28125 51.796875 
Q 16.75 56 26.8125 56 
Q 31.78125 56 36.171875 55.265625 
Q 40.578125 54.546875 44.28125 53.078125 
z
" id="DejaVuSans-115"/>
    </defs>
    <g transform="translate(1338.251562 363.839375)scale(0.1 -0.1)">
     <use xlink:href="#DejaVuSans-113"/>
     <use x="63.476562" xlink:href="#DejaVuSans-95"/>
     <use x="113.476562" xlink:href="#DejaVuSans-100"/>
     <use x="176.953125" xlink:href="#DejaVuSans-101"/>
     <use x="238.476562" xlink:href="#DejaVuSans-115"/>
    </g>
   </g>
   <g id="line2d_70">
    <path d="M 1310.251562 375.295625 
L 1330.251562 375.295625 
" style="fill:none;stroke:#e50000;stroke-linecap:square;stroke-width:1.5;"/>
   </g>
   <g id="line2d_71"/>
   <g id="text_55">
    <!-- error -->
    <g transform="translate(1338.251562 378.795625)scale(0.1 -0.1)">
     <use xlink:href="#DejaVuSans-101"/>
     <use x="61.523438" xlink:href="#DejaVuSans-114"/>
     <use x="102.621094" xlink:href="#DejaVuSans-114"/>
     <use x="143.703125" xlink:href="#DejaVuSans-111"/>
     <use x="204.884766" xlink:href="#DejaVuSans-114"/>
    </g>
   </g>
  </g>
 </g>
 <defs>
  <clipPath id="pf708f80aaa">
   <rect height="247.716" width="486.981818" x="172.8" y="84.9312"/>
  </clipPath>
  <clipPath id="p65c4bd2447">
   <rect height="247.716" width="486.981818" x="757.178182" y="84.9312"/>
  </clipPath>
  <clipPath id="p3d2e30d672">
   <rect height="247.716" width="486.981818" x="172.8" y="382.1904"/>
  </clipPath>
  <clipPath id="pf858ad8048">
   <rect height="247.716" width="486.981818" x="757.178182" y="382.1904"/>
  </clipPath>
 </defs>
</svg>
