<?xml version="1.0" encoding="utf-8" standalone="no"?>
<!DOCTYPE svg PUBLIC "-//W3C//DTD SVG 1.1//EN"
  "http://www.w3.org/Graphics/SVG/1.1/DTD/svg11.dtd">
<!-- Created with matplotlib (https://matplotlib.org/) -->
<svg height="707.76pt" version="1.1" viewBox="0 0 1382.4 707.76" width="1382.4pt" xmlns="http://www.w3.org/2000/svg" xmlns:xlink="http://www.w3.org/1999/xlink">
 <defs>
  <style type="text/css">
*{stroke-linecap:butt;stroke-linejoin:round;}
  </style>
 </defs>
 <g id="figure_1">
  <g id="patch_1">
   <path d="M 0 707.76 
L 1382.4 707.76 
L 1382.4 0 
L 0 0 
z
" style="fill:#ffffff;"/>
  </g>
  <g id="axes_1">
   <g id="patch_2">
    <path d="M 172.8 332.6472 
L 487.905882 332.6472 
L 487.905882 84.9312 
L 172.8 84.9312 
z
" style="fill:#ffffff;"/>
   </g>
   <g id="matplotlib.axis_1">
    <g id="xtick_1">
     <g id="line2d_1">
      <defs>
       <path d="M 0 0 
L 0 3.5 
" id="m67b68f0769" style="stroke:#000000;stroke-width:0.8;"/>
      </defs>
      <g>
       <use style="stroke:#000000;stroke-width:0.8;" x="187.122995" xlink:href="#m67b68f0769" y="332.6472"/>
      </g>
     </g>
     <g id="text_1">
      <!-- 0 -->
      <defs>
       <path d="M 31.78125 66.40625 
Q 24.171875 66.40625 20.328125 58.90625 
Q 16.5 51.421875 16.5 36.375 
Q 16.5 21.390625 20.328125 13.890625 
Q 24.171875 6.390625 31.78125 6.390625 
Q 39.453125 6.390625 43.28125 13.890625 
Q 47.125 21.390625 47.125 36.375 
Q 47.125 51.421875 43.28125 58.90625 
Q 39.453125 66.40625 31.78125 66.40625 
z
M 31.78125 74.21875 
Q 44.046875 74.21875 50.515625 64.515625 
Q 56.984375 54.828125 56.984375 36.375 
Q 56.984375 17.96875 50.515625 8.265625 
Q 44.046875 -1.421875 31.78125 -1.421875 
Q 19.53125 -1.421875 13.0625 8.265625 
Q 6.59375 17.96875 6.59375 36.375 
Q 6.59375 54.828125 13.0625 64.515625 
Q 19.53125 74.21875 31.78125 74.21875 
z
" id="DejaVuSans-48"/>
      </defs>
      <g transform="translate(183.941745 347.245637)scale(0.1 -0.1)">
       <use xlink:href="#DejaVuSans-48"/>
      </g>
     </g>
    </g>
    <g id="xtick_2">
     <g id="line2d_2">
      <g>
       <use style="stroke:#000000;stroke-width:0.8;" x="248.595075" xlink:href="#m67b68f0769" y="332.6472"/>
      </g>
     </g>
     <g id="text_2">
      <!-- 50 -->
      <defs>
       <path d="M 10.796875 72.90625 
L 49.515625 72.90625 
L 49.515625 64.59375 
L 19.828125 64.59375 
L 19.828125 46.734375 
Q 21.96875 47.46875 24.109375 47.828125 
Q 26.265625 48.1875 28.421875 48.1875 
Q 40.625 48.1875 47.75 41.5 
Q 54.890625 34.8125 54.890625 23.390625 
Q 54.890625 11.625 47.5625 5.09375 
Q 40.234375 -1.421875 26.90625 -1.421875 
Q 22.3125 -1.421875 17.546875 -0.640625 
Q 12.796875 0.140625 7.71875 1.703125 
L 7.71875 11.625 
Q 12.109375 9.234375 16.796875 8.0625 
Q 21.484375 6.890625 26.703125 6.890625 
Q 35.15625 6.890625 40.078125 11.328125 
Q 45.015625 15.765625 45.015625 23.390625 
Q 45.015625 31 40.078125 35.4375 
Q 35.15625 39.890625 26.703125 39.890625 
Q 22.75 39.890625 18.8125 39.015625 
Q 14.890625 38.140625 10.796875 36.28125 
z
" id="DejaVuSans-53"/>
      </defs>
      <g transform="translate(242.232575 347.245637)scale(0.1 -0.1)">
       <use xlink:href="#DejaVuSans-53"/>
       <use x="63.623047" xlink:href="#DejaVuSans-48"/>
      </g>
     </g>
    </g>
    <g id="xtick_3">
     <g id="line2d_3">
      <g>
       <use style="stroke:#000000;stroke-width:0.8;" x="310.067155" xlink:href="#m67b68f0769" y="332.6472"/>
      </g>
     </g>
     <g id="text_3">
      <!-- 100 -->
      <defs>
       <path d="M 12.40625 8.296875 
L 28.515625 8.296875 
L 28.515625 63.921875 
L 10.984375 60.40625 
L 10.984375 69.390625 
L 28.421875 72.90625 
L 38.28125 72.90625 
L 38.28125 8.296875 
L 54.390625 8.296875 
L 54.390625 0 
L 12.40625 0 
z
" id="DejaVuSans-49"/>
      </defs>
      <g transform="translate(300.523405 347.245637)scale(0.1 -0.1)">
       <use xlink:href="#DejaVuSans-49"/>
       <use x="63.623047" xlink:href="#DejaVuSans-48"/>
       <use x="127.246094" xlink:href="#DejaVuSans-48"/>
      </g>
     </g>
    </g>
    <g id="xtick_4">
     <g id="line2d_4">
      <g>
       <use style="stroke:#000000;stroke-width:0.8;" x="371.539235" xlink:href="#m67b68f0769" y="332.6472"/>
      </g>
     </g>
     <g id="text_4">
      <!-- 150 -->
      <g transform="translate(361.995485 347.245637)scale(0.1 -0.1)">
       <use xlink:href="#DejaVuSans-49"/>
       <use x="63.623047" xlink:href="#DejaVuSans-53"/>
       <use x="127.246094" xlink:href="#DejaVuSans-48"/>
      </g>
     </g>
    </g>
    <g id="xtick_5">
     <g id="line2d_5">
      <g>
       <use style="stroke:#000000;stroke-width:0.8;" x="433.011315" xlink:href="#m67b68f0769" y="332.6472"/>
      </g>
     </g>
     <g id="text_5">
      <!-- 200 -->
      <defs>
       <path d="M 19.1875 8.296875 
L 53.609375 8.296875 
L 53.609375 0 
L 7.328125 0 
L 7.328125 8.296875 
Q 12.9375 14.109375 22.625 23.890625 
Q 32.328125 33.6875 34.8125 36.53125 
Q 39.546875 41.84375 41.421875 45.53125 
Q 43.3125 49.21875 43.3125 52.78125 
Q 43.3125 58.59375 39.234375 62.25 
Q 35.15625 65.921875 28.609375 65.921875 
Q 23.96875 65.921875 18.8125 64.3125 
Q 13.671875 62.703125 7.8125 59.421875 
L 7.8125 69.390625 
Q 13.765625 71.78125 18.9375 73 
Q 24.125 74.21875 28.421875 74.21875 
Q 39.75 74.21875 46.484375 68.546875 
Q 53.21875 62.890625 53.21875 53.421875 
Q 53.21875 48.921875 51.53125 44.890625 
Q 49.859375 40.875 45.40625 35.40625 
Q 44.1875 33.984375 37.640625 27.21875 
Q 31.109375 20.453125 19.1875 8.296875 
z
" id="DejaVuSans-50"/>
      </defs>
      <g transform="translate(423.467565 347.245637)scale(0.1 -0.1)">
       <use xlink:href="#DejaVuSans-50"/>
       <use x="63.623047" xlink:href="#DejaVuSans-48"/>
       <use x="127.246094" xlink:href="#DejaVuSans-48"/>
      </g>
     </g>
    </g>
   </g>
   <g id="matplotlib.axis_2">
    <g id="ytick_1">
     <g id="line2d_6">
      <defs>
       <path d="M 0 0 
L -3.5 0 
" id="maa25eebfa8" style="stroke:#000000;stroke-width:0.8;"/>
      </defs>
      <g>
       <use style="stroke:#000000;stroke-width:0.8;" x="172.8" xlink:href="#maa25eebfa8" y="303.945392"/>
      </g>
     </g>
     <g id="text_6">
      <!-- 0.0 -->
      <defs>
       <path d="M 10.6875 12.40625 
L 21 12.40625 
L 21 0 
L 10.6875 0 
z
" id="DejaVuSans-46"/>
      </defs>
      <g transform="translate(149.896875 307.744611)scale(0.1 -0.1)">
       <use xlink:href="#DejaVuSans-48"/>
       <use x="63.623047" xlink:href="#DejaVuSans-46"/>
       <use x="95.410156" xlink:href="#DejaVuSans-48"/>
      </g>
     </g>
    </g>
    <g id="ytick_2">
     <g id="line2d_7">
      <g>
       <use style="stroke:#000000;stroke-width:0.8;" x="172.8" xlink:href="#maa25eebfa8" y="273.74797"/>
      </g>
     </g>
     <g id="text_7">
      <!-- 0.2 -->
      <g transform="translate(149.896875 277.547189)scale(0.1 -0.1)">
       <use xlink:href="#DejaVuSans-48"/>
       <use x="63.623047" xlink:href="#DejaVuSans-46"/>
       <use x="95.410156" xlink:href="#DejaVuSans-50"/>
      </g>
     </g>
    </g>
    <g id="ytick_3">
     <g id="line2d_8">
      <g>
       <use style="stroke:#000000;stroke-width:0.8;" x="172.8" xlink:href="#maa25eebfa8" y="243.550548"/>
      </g>
     </g>
     <g id="text_8">
      <!-- 0.4 -->
      <defs>
       <path d="M 37.796875 64.3125 
L 12.890625 25.390625 
L 37.796875 25.390625 
z
M 35.203125 72.90625 
L 47.609375 72.90625 
L 47.609375 25.390625 
L 58.015625 25.390625 
L 58.015625 17.1875 
L 47.609375 17.1875 
L 47.609375 0 
L 37.796875 0 
L 37.796875 17.1875 
L 4.890625 17.1875 
L 4.890625 26.703125 
z
" id="DejaVuSans-52"/>
      </defs>
      <g transform="translate(149.896875 247.349767)scale(0.1 -0.1)">
       <use xlink:href="#DejaVuSans-48"/>
       <use x="63.623047" xlink:href="#DejaVuSans-46"/>
       <use x="95.410156" xlink:href="#DejaVuSans-52"/>
      </g>
     </g>
    </g>
    <g id="ytick_4">
     <g id="line2d_9">
      <g>
       <use style="stroke:#000000;stroke-width:0.8;" x="172.8" xlink:href="#maa25eebfa8" y="213.353126"/>
      </g>
     </g>
     <g id="text_9">
      <!-- 0.6 -->
      <defs>
       <path d="M 33.015625 40.375 
Q 26.375 40.375 22.484375 35.828125 
Q 18.609375 31.296875 18.609375 23.390625 
Q 18.609375 15.53125 22.484375 10.953125 
Q 26.375 6.390625 33.015625 6.390625 
Q 39.65625 6.390625 43.53125 10.953125 
Q 47.40625 15.53125 47.40625 23.390625 
Q 47.40625 31.296875 43.53125 35.828125 
Q 39.65625 40.375 33.015625 40.375 
z
M 52.59375 71.296875 
L 52.59375 62.3125 
Q 48.875 64.0625 45.09375 64.984375 
Q 41.3125 65.921875 37.59375 65.921875 
Q 27.828125 65.921875 22.671875 59.328125 
Q 17.53125 52.734375 16.796875 39.40625 
Q 19.671875 43.65625 24.015625 45.921875 
Q 28.375 48.1875 33.59375 48.1875 
Q 44.578125 48.1875 50.953125 41.515625 
Q 57.328125 34.859375 57.328125 23.390625 
Q 57.328125 12.15625 50.6875 5.359375 
Q 44.046875 -1.421875 33.015625 -1.421875 
Q 20.359375 -1.421875 13.671875 8.265625 
Q 6.984375 17.96875 6.984375 36.375 
Q 6.984375 53.65625 15.1875 63.9375 
Q 23.390625 74.21875 37.203125 74.21875 
Q 40.921875 74.21875 44.703125 73.484375 
Q 48.484375 72.75 52.59375 71.296875 
z
" id="DejaVuSans-54"/>
      </defs>
      <g transform="translate(149.896875 217.152345)scale(0.1 -0.1)">
       <use xlink:href="#DejaVuSans-48"/>
       <use x="63.623047" xlink:href="#DejaVuSans-46"/>
       <use x="95.410156" xlink:href="#DejaVuSans-54"/>
      </g>
     </g>
    </g>
    <g id="ytick_5">
     <g id="line2d_10">
      <g>
       <use style="stroke:#000000;stroke-width:0.8;" x="172.8" xlink:href="#maa25eebfa8" y="183.155704"/>
      </g>
     </g>
     <g id="text_10">
      <!-- 0.8 -->
      <defs>
       <path d="M 31.78125 34.625 
Q 24.75 34.625 20.71875 30.859375 
Q 16.703125 27.09375 16.703125 20.515625 
Q 16.703125 13.921875 20.71875 10.15625 
Q 24.75 6.390625 31.78125 6.390625 
Q 38.8125 6.390625 42.859375 10.171875 
Q 46.921875 13.96875 46.921875 20.515625 
Q 46.921875 27.09375 42.890625 30.859375 
Q 38.875 34.625 31.78125 34.625 
z
M 21.921875 38.8125 
Q 15.578125 40.375 12.03125 44.71875 
Q 8.5 49.078125 8.5 55.328125 
Q 8.5 64.0625 14.71875 69.140625 
Q 20.953125 74.21875 31.78125 74.21875 
Q 42.671875 74.21875 48.875 69.140625 
Q 55.078125 64.0625 55.078125 55.328125 
Q 55.078125 49.078125 51.53125 44.71875 
Q 48 40.375 41.703125 38.8125 
Q 48.828125 37.15625 52.796875 32.3125 
Q 56.78125 27.484375 56.78125 20.515625 
Q 56.78125 9.90625 50.3125 4.234375 
Q 43.84375 -1.421875 31.78125 -1.421875 
Q 19.734375 -1.421875 13.25 4.234375 
Q 6.78125 9.90625 6.78125 20.515625 
Q 6.78125 27.484375 10.78125 32.3125 
Q 14.796875 37.15625 21.921875 38.8125 
z
M 18.3125 54.390625 
Q 18.3125 48.734375 21.84375 45.5625 
Q 25.390625 42.390625 31.78125 42.390625 
Q 38.140625 42.390625 41.71875 45.5625 
Q 45.3125 48.734375 45.3125 54.390625 
Q 45.3125 60.0625 41.71875 63.234375 
Q 38.140625 66.40625 31.78125 66.40625 
Q 25.390625 66.40625 21.84375 63.234375 
Q 18.3125 60.0625 18.3125 54.390625 
z
" id="DejaVuSans-56"/>
      </defs>
      <g transform="translate(149.896875 186.954923)scale(0.1 -0.1)">
       <use xlink:href="#DejaVuSans-48"/>
       <use x="63.623047" xlink:href="#DejaVuSans-46"/>
       <use x="95.410156" xlink:href="#DejaVuSans-56"/>
      </g>
     </g>
    </g>
    <g id="ytick_6">
     <g id="line2d_11">
      <g>
       <use style="stroke:#000000;stroke-width:0.8;" x="172.8" xlink:href="#maa25eebfa8" y="152.958283"/>
      </g>
     </g>
     <g id="text_11">
      <!-- 1.0 -->
      <g transform="translate(149.896875 156.757501)scale(0.1 -0.1)">
       <use xlink:href="#DejaVuSans-49"/>
       <use x="63.623047" xlink:href="#DejaVuSans-46"/>
       <use x="95.410156" xlink:href="#DejaVuSans-48"/>
      </g>
     </g>
    </g>
    <g id="ytick_7">
     <g id="line2d_12">
      <g>
       <use style="stroke:#000000;stroke-width:0.8;" x="172.8" xlink:href="#maa25eebfa8" y="122.760861"/>
      </g>
     </g>
     <g id="text_12">
      <!-- 1.2 -->
      <g transform="translate(149.896875 126.560079)scale(0.1 -0.1)">
       <use xlink:href="#DejaVuSans-49"/>
       <use x="63.623047" xlink:href="#DejaVuSans-46"/>
       <use x="95.410156" xlink:href="#DejaVuSans-50"/>
      </g>
     </g>
    </g>
    <g id="ytick_8">
     <g id="line2d_13">
      <g>
       <use style="stroke:#000000;stroke-width:0.8;" x="172.8" xlink:href="#maa25eebfa8" y="92.563439"/>
      </g>
     </g>
     <g id="text_13">
      <!-- 1.4 -->
      <g transform="translate(149.896875 96.362657)scale(0.1 -0.1)">
       <use xlink:href="#DejaVuSans-49"/>
       <use x="63.623047" xlink:href="#DejaVuSans-46"/>
       <use x="95.410156" xlink:href="#DejaVuSans-52"/>
      </g>
     </g>
    </g>
   </g>
   <g id="line2d_14">
    <path clip-path="url(#pb12e08bb41)" d="M 187.122995 303.945261 
L 189.581878 303.914857 
L 190.811319 303.744196 
L 192.040761 303.421772 
L 198.187969 301.212198 
L 200.646852 300.524496 
L 201.876294 300.043726 
L 203.105735 299.412723 
L 205.564619 297.814966 
L 208.023502 296.231236 
L 210.482385 294.963365 
L 212.941268 293.685408 
L 215.400151 291.969452 
L 219.088476 289.10594 
L 221.547359 287.600313 
L 224.006243 286.173874 
L 226.465126 284.35646 
L 230.153451 281.321632 
L 232.612334 279.710005 
L 235.071217 278.195929 
L 237.5301 276.300802 
L 241.218425 273.198991 
L 243.677308 271.572986 
L 246.136192 270.039794 
L 248.595075 268.148766 
L 251.053958 266.093384 
L 253.512841 264.39675 
L 257.201166 262.286861 
L 259.660049 260.514613 
L 262.118932 258.633194 
L 264.577816 257.117565 
L 267.036699 255.696588 
L 270.725024 253.002876 
L 275.64279 249.288166 
L 278.101673 247.195019 
L 286.707764 240.550781 
L 290.396089 238.238762 
L 292.854972 237.019861 
L 297.772739 235.25376 
L 302.690505 234.241335 
L 305.149388 233.814127 
L 308.837713 233.230077 
L 314.984921 231.853003 
L 321.132129 229.757848 
L 326.049896 227.759595 
L 332.197104 225.402136 
L 335.885428 224.291551 
L 338.344312 223.826368 
L 342.032636 223.343749 
L 344.49152 223.187268 
L 350.638728 222.923615 
L 353.097611 222.793258 
L 358.015377 222.134643 
L 360.47426 221.650017 
L 369.080352 219.685671 
L 372.768676 219.072438 
L 375.22756 218.781069 
L 377.686443 218.678146 
L 381.374768 218.765094 
L 382.604209 218.953119 
L 385.063092 219.672597 
L 388.751417 220.95616 
L 391.2103 222.052947 
L 397.357508 225.292381 
L 401.045833 227.494996 
L 403.504716 228.739894 
L 405.9636 229.803662 
L 408.422483 230.610085 
L 410.881366 231.067228 
L 413.340249 231.355682 
L 415.799132 231.401878 
L 418.258016 231.152812 
L 420.716899 230.625392 
L 421.94634 230.271236 
L 424.405224 229.243568 
L 426.864107 227.854571 
L 430.552432 225.238276 
L 434.240756 222.065652 
L 441.617406 214.748238 
L 444.076289 212.249825 
L 447.764614 209.031294 
L 450.223497 207.392605 
L 451.452939 206.818181 
L 453.911822 206.061714 
L 455.141264 206.003794 
L 456.370705 206.070752 
L 457.600147 206.265942 
L 460.05903 207.268669 
L 461.288472 207.981356 
L 463.747355 209.906449 
L 466.206238 212.414336 
L 467.43568 213.740754 
L 468.665121 215.268781 
L 472.353446 220.571465 
L 473.582888 222.382365 
L 473.582888 222.382365 
" style="fill:none;stroke:#ff796c;stroke-linecap:square;stroke-width:1.5;"/>
   </g>
   <g id="line2d_15">
    <path clip-path="url(#pb12e08bb41)" d="M 187.122995 304.868278 
L 192.040761 304.925771 
L 195.729086 305.202076 
L 203.105735 306.029164 
L 206.79406 306.680072 
L 217.859035 309.042504 
L 225.235684 310.80572 
L 244.90675 315.437997 
L 257.201166 317.711626 
L 267.036699 318.979717 
L 276.872232 320.048995 
L 285.478323 321.050868 
L 289.166648 321.312547 
L 292.854972 321.384697 
L 296.543297 321.194864 
L 300.231622 320.757571 
L 305.149388 319.845749 
L 311.296596 318.373776 
L 330.967662 313.299972 
L 334.655987 312.124913 
L 338.344312 310.729391 
L 342.032636 309.070537 
L 345.720961 307.166114 
L 350.638728 304.323024 
L 358.015377 299.681621 
L 365.392027 294.765911 
L 370.309793 291.211678 
L 373.998118 288.293727 
L 377.686443 285.095204 
L 381.374768 281.564106 
L 383.833651 278.967216 
L 387.521976 274.656886 
L 391.2103 269.897249 
L 394.898625 264.696921 
L 398.58695 259.120295 
L 403.504716 251.183928 
L 409.651924 240.78445 
L 417.028574 227.896333 
L 437.929081 191.000018 
L 450.223497 169.771205 
L 453.911822 162.978497 
L 457.600147 155.757902 
L 461.288472 148.010622 
L 464.976796 139.65472 
L 468.665121 130.685952 
L 472.353446 121.082142 
L 473.582888 117.762509 
L 473.582888 117.762509 
" style="fill:none;stroke:#ffff14;stroke-linecap:square;stroke-width:1.5;"/>
   </g>
   <g id="line2d_16">
    <path clip-path="url(#pb12e08bb41)" d="M 187.122995 304.868333 
L 237.5301 304.759675 
L 253.512841 304.511369 
L 265.807257 304.116514 
L 275.64279 303.602545 
L 284.248881 302.954846 
L 292.854972 302.069024 
L 300.231622 301.07597 
L 306.37883 300.052394 
L 312.526038 298.823044 
L 318.673246 297.360044 
L 324.820454 295.633689 
L 329.73822 294.04199 
L 334.655987 292.245059 
L 339.573753 290.22578 
L 344.49152 287.96664 
L 349.409286 285.449757 
L 354.327052 282.656914 
L 359.244819 279.569688 
L 364.162585 276.169637 
L 369.080352 272.438546 
L 373.998118 268.358651 
L 378.915884 263.912834 
L 383.833651 259.084807 
L 388.751417 253.859144 
L 393.669184 248.221353 
L 398.58695 242.158201 
L 403.504716 235.658061 
L 408.422483 228.711316 
L 413.340249 221.31093 
L 418.258016 213.453025 
L 423.175782 205.137278 
L 428.093548 196.367164 
L 433.011315 187.150022 
L 437.929081 177.496922 
L 442.846848 167.422418 
L 448.994056 154.263936 
L 455.141264 140.515257 
L 461.288472 126.221459 
L 468.665121 108.416777 
L 473.582888 96.191018 
L 473.582888 96.191018 
" style="fill:none;stroke:#014d4e;stroke-linecap:square;stroke-width:1.5;"/>
   </g>
   <g id="patch_3">
    <path d="M 172.8 332.6472 
L 172.8 84.9312 
" style="fill:none;stroke:#000000;stroke-linecap:square;stroke-linejoin:miter;stroke-width:0.8;"/>
   </g>
   <g id="patch_4">
    <path d="M 487.905882 332.6472 
L 487.905882 84.9312 
" style="fill:none;stroke:#000000;stroke-linecap:square;stroke-linejoin:miter;stroke-width:0.8;"/>
   </g>
   <g id="patch_5">
    <path d="M 172.8 332.6472 
L 487.905882 332.6472 
" style="fill:none;stroke:#000000;stroke-linecap:square;stroke-linejoin:miter;stroke-width:0.8;"/>
   </g>
   <g id="patch_6">
    <path d="M 172.8 84.9312 
L 487.905882 84.9312 
" style="fill:none;stroke:#000000;stroke-linecap:square;stroke-linejoin:miter;stroke-width:0.8;"/>
   </g>
   <g id="text_14">
    <!-- Lateral joint 0 -->
    <defs>
     <path d="M 9.8125 72.90625 
L 19.671875 72.90625 
L 19.671875 8.296875 
L 55.171875 8.296875 
L 55.171875 0 
L 9.8125 0 
z
" id="DejaVuSans-76"/>
     <path d="M 34.28125 27.484375 
Q 23.390625 27.484375 19.1875 25 
Q 14.984375 22.515625 14.984375 16.5 
Q 14.984375 11.71875 18.140625 8.90625 
Q 21.296875 6.109375 26.703125 6.109375 
Q 34.1875 6.109375 38.703125 11.40625 
Q 43.21875 16.703125 43.21875 25.484375 
L 43.21875 27.484375 
z
M 52.203125 31.203125 
L 52.203125 0 
L 43.21875 0 
L 43.21875 8.296875 
Q 40.140625 3.328125 35.546875 0.953125 
Q 30.953125 -1.421875 24.3125 -1.421875 
Q 15.921875 -1.421875 10.953125 3.296875 
Q 6 8.015625 6 15.921875 
Q 6 25.140625 12.171875 29.828125 
Q 18.359375 34.515625 30.609375 34.515625 
L 43.21875 34.515625 
L 43.21875 35.40625 
Q 43.21875 41.609375 39.140625 45 
Q 35.0625 48.390625 27.6875 48.390625 
Q 23 48.390625 18.546875 47.265625 
Q 14.109375 46.140625 10.015625 43.890625 
L 10.015625 52.203125 
Q 14.9375 54.109375 19.578125 55.046875 
Q 24.21875 56 28.609375 56 
Q 40.484375 56 46.34375 49.84375 
Q 52.203125 43.703125 52.203125 31.203125 
z
" id="DejaVuSans-97"/>
     <path d="M 18.3125 70.21875 
L 18.3125 54.6875 
L 36.8125 54.6875 
L 36.8125 47.703125 
L 18.3125 47.703125 
L 18.3125 18.015625 
Q 18.3125 11.328125 20.140625 9.421875 
Q 21.96875 7.515625 27.59375 7.515625 
L 36.8125 7.515625 
L 36.8125 0 
L 27.59375 0 
Q 17.1875 0 13.234375 3.875 
Q 9.28125 7.765625 9.28125 18.015625 
L 9.28125 47.703125 
L 2.6875 47.703125 
L 2.6875 54.6875 
L 9.28125 54.6875 
L 9.28125 70.21875 
z
" id="DejaVuSans-116"/>
     <path d="M 56.203125 29.59375 
L 56.203125 25.203125 
L 14.890625 25.203125 
Q 15.484375 15.921875 20.484375 11.0625 
Q 25.484375 6.203125 34.421875 6.203125 
Q 39.59375 6.203125 44.453125 7.46875 
Q 49.3125 8.734375 54.109375 11.28125 
L 54.109375 2.78125 
Q 49.265625 0.734375 44.1875 -0.34375 
Q 39.109375 -1.421875 33.890625 -1.421875 
Q 20.796875 -1.421875 13.15625 6.1875 
Q 5.515625 13.8125 5.515625 26.8125 
Q 5.515625 40.234375 12.765625 48.109375 
Q 20.015625 56 32.328125 56 
Q 43.359375 56 49.78125 48.890625 
Q 56.203125 41.796875 56.203125 29.59375 
z
M 47.21875 32.234375 
Q 47.125 39.59375 43.09375 43.984375 
Q 39.0625 48.390625 32.421875 48.390625 
Q 24.90625 48.390625 20.390625 44.140625 
Q 15.875 39.890625 15.1875 32.171875 
z
" id="DejaVuSans-101"/>
     <path d="M 41.109375 46.296875 
Q 39.59375 47.171875 37.8125 47.578125 
Q 36.03125 48 33.890625 48 
Q 26.265625 48 22.1875 43.046875 
Q 18.109375 38.09375 18.109375 28.8125 
L 18.109375 0 
L 9.078125 0 
L 9.078125 54.6875 
L 18.109375 54.6875 
L 18.109375 46.1875 
Q 20.953125 51.171875 25.484375 53.578125 
Q 30.03125 56 36.53125 56 
Q 37.453125 56 38.578125 55.875 
Q 39.703125 55.765625 41.0625 55.515625 
z
" id="DejaVuSans-114"/>
     <path d="M 9.421875 75.984375 
L 18.40625 75.984375 
L 18.40625 0 
L 9.421875 0 
z
" id="DejaVuSans-108"/>
     <path id="DejaVuSans-32"/>
     <path d="M 9.421875 54.6875 
L 18.40625 54.6875 
L 18.40625 -0.984375 
Q 18.40625 -11.421875 14.421875 -16.109375 
Q 10.453125 -20.796875 1.609375 -20.796875 
L -1.8125 -20.796875 
L -1.8125 -13.1875 
L 0.59375 -13.1875 
Q 5.71875 -13.1875 7.5625 -10.8125 
Q 9.421875 -8.453125 9.421875 -0.984375 
z
M 9.421875 75.984375 
L 18.40625 75.984375 
L 18.40625 64.59375 
L 9.421875 64.59375 
z
" id="DejaVuSans-106"/>
     <path d="M 30.609375 48.390625 
Q 23.390625 48.390625 19.1875 42.75 
Q 14.984375 37.109375 14.984375 27.296875 
Q 14.984375 17.484375 19.15625 11.84375 
Q 23.34375 6.203125 30.609375 6.203125 
Q 37.796875 6.203125 41.984375 11.859375 
Q 46.1875 17.53125 46.1875 27.296875 
Q 46.1875 37.015625 41.984375 42.703125 
Q 37.796875 48.390625 30.609375 48.390625 
z
M 30.609375 56 
Q 42.328125 56 49.015625 48.375 
Q 55.71875 40.765625 55.71875 27.296875 
Q 55.71875 13.875 49.015625 6.21875 
Q 42.328125 -1.421875 30.609375 -1.421875 
Q 18.84375 -1.421875 12.171875 6.21875 
Q 5.515625 13.875 5.515625 27.296875 
Q 5.515625 40.765625 12.171875 48.375 
Q 18.84375 56 30.609375 56 
z
" id="DejaVuSans-111"/>
     <path d="M 9.421875 54.6875 
L 18.40625 54.6875 
L 18.40625 0 
L 9.421875 0 
z
M 9.421875 75.984375 
L 18.40625 75.984375 
L 18.40625 64.59375 
L 9.421875 64.59375 
z
" id="DejaVuSans-105"/>
     <path d="M 54.890625 33.015625 
L 54.890625 0 
L 45.90625 0 
L 45.90625 32.71875 
Q 45.90625 40.484375 42.875 44.328125 
Q 39.84375 48.1875 33.796875 48.1875 
Q 26.515625 48.1875 22.3125 43.546875 
Q 18.109375 38.921875 18.109375 30.90625 
L 18.109375 0 
L 9.078125 0 
L 9.078125 54.6875 
L 18.109375 54.6875 
L 18.109375 46.1875 
Q 21.34375 51.125 25.703125 53.5625 
Q 30.078125 56 35.796875 56 
Q 45.21875 56 50.046875 50.171875 
Q 54.890625 44.34375 54.890625 33.015625 
z
" id="DejaVuSans-110"/>
    </defs>
    <g transform="translate(288.687629 78.9312)scale(0.12 -0.12)">
     <use xlink:href="#DejaVuSans-76"/>
     <use x="55.712891" xlink:href="#DejaVuSans-97"/>
     <use x="116.992188" xlink:href="#DejaVuSans-116"/>
     <use x="156.201172" xlink:href="#DejaVuSans-101"/>
     <use x="217.724609" xlink:href="#DejaVuSans-114"/>
     <use x="258.837891" xlink:href="#DejaVuSans-97"/>
     <use x="320.117188" xlink:href="#DejaVuSans-108"/>
     <use x="347.900391" xlink:href="#DejaVuSans-32"/>
     <use x="379.6875" xlink:href="#DejaVuSans-106"/>
     <use x="407.470703" xlink:href="#DejaVuSans-111"/>
     <use x="468.652344" xlink:href="#DejaVuSans-105"/>
     <use x="496.435547" xlink:href="#DejaVuSans-110"/>
     <use x="559.814453" xlink:href="#DejaVuSans-116"/>
     <use x="599.023438" xlink:href="#DejaVuSans-32"/>
     <use x="630.810547" xlink:href="#DejaVuSans-48"/>
    </g>
   </g>
  </g>
  <g id="axes_2">
   <g id="patch_7">
    <path d="M 550.927059 332.6472 
L 866.032941 332.6472 
L 866.032941 84.9312 
L 550.927059 84.9312 
z
" style="fill:#ffffff;"/>
   </g>
   <g id="matplotlib.axis_3">
    <g id="xtick_6">
     <g id="line2d_17">
      <g>
       <use style="stroke:#000000;stroke-width:0.8;" x="565.250053" xlink:href="#m67b68f0769" y="332.6472"/>
      </g>
     </g>
     <g id="text_15">
      <!-- 0 -->
      <g transform="translate(562.068803 347.245637)scale(0.1 -0.1)">
       <use xlink:href="#DejaVuSans-48"/>
      </g>
     </g>
    </g>
    <g id="xtick_7">
     <g id="line2d_18">
      <g>
       <use style="stroke:#000000;stroke-width:0.8;" x="626.722134" xlink:href="#m67b68f0769" y="332.6472"/>
      </g>
     </g>
     <g id="text_16">
      <!-- 50 -->
      <g transform="translate(620.359634 347.245637)scale(0.1 -0.1)">
       <use xlink:href="#DejaVuSans-53"/>
       <use x="63.623047" xlink:href="#DejaVuSans-48"/>
      </g>
     </g>
    </g>
    <g id="xtick_8">
     <g id="line2d_19">
      <g>
       <use style="stroke:#000000;stroke-width:0.8;" x="688.194214" xlink:href="#m67b68f0769" y="332.6472"/>
      </g>
     </g>
     <g id="text_17">
      <!-- 100 -->
      <g transform="translate(678.650464 347.245637)scale(0.1 -0.1)">
       <use xlink:href="#DejaVuSans-49"/>
       <use x="63.623047" xlink:href="#DejaVuSans-48"/>
       <use x="127.246094" xlink:href="#DejaVuSans-48"/>
      </g>
     </g>
    </g>
    <g id="xtick_9">
     <g id="line2d_20">
      <g>
       <use style="stroke:#000000;stroke-width:0.8;" x="749.666294" xlink:href="#m67b68f0769" y="332.6472"/>
      </g>
     </g>
     <g id="text_18">
      <!-- 150 -->
      <g transform="translate(740.122544 347.245637)scale(0.1 -0.1)">
       <use xlink:href="#DejaVuSans-49"/>
       <use x="63.623047" xlink:href="#DejaVuSans-53"/>
       <use x="127.246094" xlink:href="#DejaVuSans-48"/>
      </g>
     </g>
    </g>
    <g id="xtick_10">
     <g id="line2d_21">
      <g>
       <use style="stroke:#000000;stroke-width:0.8;" x="811.138374" xlink:href="#m67b68f0769" y="332.6472"/>
      </g>
     </g>
     <g id="text_19">
      <!-- 200 -->
      <g transform="translate(801.594624 347.245637)scale(0.1 -0.1)">
       <use xlink:href="#DejaVuSans-50"/>
       <use x="63.623047" xlink:href="#DejaVuSans-48"/>
       <use x="127.246094" xlink:href="#DejaVuSans-48"/>
      </g>
     </g>
    </g>
   </g>
   <g id="matplotlib.axis_4">
    <g id="ytick_9">
     <g id="line2d_22">
      <g>
       <use style="stroke:#000000;stroke-width:0.8;" x="550.927059" xlink:href="#maa25eebfa8" y="310.89009"/>
      </g>
     </g>
     <g id="text_20">
      <!-- −0.6 -->
      <defs>
       <path d="M 10.59375 35.5 
L 73.1875 35.5 
L 73.1875 27.203125 
L 10.59375 27.203125 
z
" id="DejaVuSans-8722"/>
      </defs>
      <g transform="translate(519.644246 314.689309)scale(0.1 -0.1)">
       <use xlink:href="#DejaVuSans-8722"/>
       <use x="83.789062" xlink:href="#DejaVuSans-48"/>
       <use x="147.412109" xlink:href="#DejaVuSans-46"/>
       <use x="179.199219" xlink:href="#DejaVuSans-54"/>
      </g>
     </g>
    </g>
    <g id="ytick_10">
     <g id="line2d_23">
      <g>
       <use style="stroke:#000000;stroke-width:0.8;" x="550.927059" xlink:href="#maa25eebfa8" y="281.987456"/>
      </g>
     </g>
     <g id="text_21">
      <!-- −0.4 -->
      <g transform="translate(519.644246 285.786675)scale(0.1 -0.1)">
       <use xlink:href="#DejaVuSans-8722"/>
       <use x="83.789062" xlink:href="#DejaVuSans-48"/>
       <use x="147.412109" xlink:href="#DejaVuSans-46"/>
       <use x="179.199219" xlink:href="#DejaVuSans-52"/>
      </g>
     </g>
    </g>
    <g id="ytick_11">
     <g id="line2d_24">
      <g>
       <use style="stroke:#000000;stroke-width:0.8;" x="550.927059" xlink:href="#maa25eebfa8" y="253.084823"/>
      </g>
     </g>
     <g id="text_22">
      <!-- −0.2 -->
      <g transform="translate(519.644246 256.884042)scale(0.1 -0.1)">
       <use xlink:href="#DejaVuSans-8722"/>
       <use x="83.789062" xlink:href="#DejaVuSans-48"/>
       <use x="147.412109" xlink:href="#DejaVuSans-46"/>
       <use x="179.199219" xlink:href="#DejaVuSans-50"/>
      </g>
     </g>
    </g>
    <g id="ytick_12">
     <g id="line2d_25">
      <g>
       <use style="stroke:#000000;stroke-width:0.8;" x="550.927059" xlink:href="#maa25eebfa8" y="224.182189"/>
      </g>
     </g>
     <g id="text_23">
      <!-- 0.0 -->
      <g transform="translate(528.023934 227.981408)scale(0.1 -0.1)">
       <use xlink:href="#DejaVuSans-48"/>
       <use x="63.623047" xlink:href="#DejaVuSans-46"/>
       <use x="95.410156" xlink:href="#DejaVuSans-48"/>
      </g>
     </g>
    </g>
    <g id="ytick_13">
     <g id="line2d_26">
      <g>
       <use style="stroke:#000000;stroke-width:0.8;" x="550.927059" xlink:href="#maa25eebfa8" y="195.279556"/>
      </g>
     </g>
     <g id="text_24">
      <!-- 0.2 -->
      <g transform="translate(528.023934 199.078775)scale(0.1 -0.1)">
       <use xlink:href="#DejaVuSans-48"/>
       <use x="63.623047" xlink:href="#DejaVuSans-46"/>
       <use x="95.410156" xlink:href="#DejaVuSans-50"/>
      </g>
     </g>
    </g>
    <g id="ytick_14">
     <g id="line2d_27">
      <g>
       <use style="stroke:#000000;stroke-width:0.8;" x="550.927059" xlink:href="#maa25eebfa8" y="166.376922"/>
      </g>
     </g>
     <g id="text_25">
      <!-- 0.4 -->
      <g transform="translate(528.023934 170.176141)scale(0.1 -0.1)">
       <use xlink:href="#DejaVuSans-48"/>
       <use x="63.623047" xlink:href="#DejaVuSans-46"/>
       <use x="95.410156" xlink:href="#DejaVuSans-52"/>
      </g>
     </g>
    </g>
    <g id="ytick_15">
     <g id="line2d_28">
      <g>
       <use style="stroke:#000000;stroke-width:0.8;" x="550.927059" xlink:href="#maa25eebfa8" y="137.474289"/>
      </g>
     </g>
     <g id="text_26">
      <!-- 0.6 -->
      <g transform="translate(528.023934 141.273508)scale(0.1 -0.1)">
       <use xlink:href="#DejaVuSans-48"/>
       <use x="63.623047" xlink:href="#DejaVuSans-46"/>
       <use x="95.410156" xlink:href="#DejaVuSans-54"/>
      </g>
     </g>
    </g>
    <g id="ytick_16">
     <g id="line2d_29">
      <g>
       <use style="stroke:#000000;stroke-width:0.8;" x="550.927059" xlink:href="#maa25eebfa8" y="108.571655"/>
      </g>
     </g>
     <g id="text_27">
      <!-- 0.8 -->
      <g transform="translate(528.023934 112.370874)scale(0.1 -0.1)">
       <use xlink:href="#DejaVuSans-48"/>
       <use x="63.623047" xlink:href="#DejaVuSans-46"/>
       <use x="95.410156" xlink:href="#DejaVuSans-56"/>
      </g>
     </g>
    </g>
   </g>
   <g id="line2d_30">
    <path clip-path="url(#pf963a23a2c)" d="M 565.250053 224.182075 
L 568.938378 224.104448 
L 573.856145 223.707876 
L 576.315028 223.772664 
L 580.003353 223.922154 
L 586.150561 223.892768 
L 593.52721 224.599761 
L 595.986094 224.738383 
L 598.444977 225.089161 
L 602.133302 225.765194 
L 609.509951 226.665377 
L 613.198276 227.340206 
L 616.886601 227.610716 
L 619.345484 227.819488 
L 624.26325 228.407253 
L 627.951575 228.389992 
L 631.6399 228.433045 
L 634.098783 228.453429 
L 636.557666 228.186487 
L 643.934316 226.678985 
L 646.393199 225.873965 
L 651.310966 223.848492 
L 653.769849 222.672671 
L 661.146498 218.773447 
L 667.293706 215.096215 
L 672.211473 211.640861 
L 674.670356 209.638814 
L 678.358681 206.360875 
L 680.817564 203.89884 
L 684.505889 199.911211 
L 688.194214 195.562924 
L 694.341422 187.835645 
L 718.930254 155.699381 
L 726.306903 145.133275 
L 733.683553 134.466753 
L 738.601319 127.78841 
L 742.289644 123.17853 
L 745.977969 118.985786 
L 748.436852 116.432505 
L 752.125177 112.989669 
L 754.58406 110.92629 
L 758.272385 108.207121 
L 761.96071 105.746857 
L 770.566801 100.706283 
L 773.025684 99.448661 
L 775.484567 98.373773 
L 777.94345 97.512289 
L 781.631775 96.545912 
L 784.090658 96.244673 
L 786.549542 96.198481 
L 789.008425 96.488845 
L 791.467308 97.143868 
L 793.926191 98.260192 
L 796.385074 99.719793 
L 798.843958 101.635184 
L 801.302841 104.006987 
L 803.761724 106.836165 
L 806.220607 110.177981 
L 808.67949 114.120064 
L 811.138374 118.740234 
L 813.597257 123.982224 
L 816.05614 129.905041 
L 818.515023 136.500325 
L 820.973906 143.673926 
L 824.662231 155.423758 
L 828.350556 168.200476 
L 840.644972 212.384539 
L 843.103855 220.271584 
L 845.562739 227.544586 
L 848.021622 234.216955 
L 850.480505 240.141014 
L 851.709947 242.847848 
L 851.709947 242.847848 
" style="fill:none;stroke:#ff796c;stroke-linecap:square;stroke-width:1.5;"/>
   </g>
   <g id="line2d_31">
    <path clip-path="url(#pf963a23a2c)" d="M 565.250053 300.061765 
L 573.856145 299.968641 
L 584.921119 299.563792 
L 603.362743 298.475518 
L 619.345484 297.535378 
L 625.492692 297.367141 
L 632.869342 297.35775 
L 639.01655 297.675576 
L 643.934316 298.14008 
L 650.081524 299.005406 
L 657.458174 300.294325 
L 663.605382 301.561679 
L 668.523148 302.759078 
L 673.440914 304.170868 
L 678.358681 305.807536 
L 685.73533 308.544364 
L 696.800305 312.653863 
L 702.947513 314.645743 
L 709.094721 316.389632 
L 716.47137 318.249714 
L 723.84802 319.905141 
L 728.765786 320.776262 
L 732.454111 321.20941 
L 736.142436 321.387382 
L 739.830761 321.274617 
L 743.519086 320.848099 
L 747.20741 320.095402 
L 749.666294 319.409982 
L 753.354618 318.105955 
L 757.042943 316.459152 
L 760.731268 314.520318 
L 764.419593 312.327013 
L 768.107918 309.885368 
L 771.796242 307.120327 
L 775.484567 303.987476 
L 777.94345 301.672552 
L 781.631775 297.792394 
L 784.090658 294.89397 
L 786.549542 291.746446 
L 789.008425 288.31132 
L 791.467308 284.616577 
L 795.155633 278.50759 
L 798.843958 271.745107 
L 801.302841 266.857723 
L 804.991166 258.955423 
L 808.67949 250.359496 
L 812.367815 241.054464 
L 816.05614 231.109552 
L 820.973906 216.976662 
L 828.350556 194.8069 
L 834.497764 176.485411 
L 838.186089 165.957482 
L 841.874414 156.020974 
L 845.562739 146.757494 
L 849.251063 138.180332 
L 851.709947 132.79514 
L 851.709947 132.79514 
" style="fill:none;stroke:#ffff14;stroke-linecap:square;stroke-width:1.5;"/>
   </g>
   <g id="line2d_32">
    <path clip-path="url(#pf963a23a2c)" d="M 565.250053 300.061675 
L 624.26325 299.955527 
L 641.475433 299.698631 
L 654.99929 299.274798 
L 666.064265 298.70082 
L 675.899798 297.952204 
L 684.505889 297.058941 
L 691.882538 296.075952 
L 699.259188 294.855067 
L 705.406396 293.628361 
L 711.553604 292.186161 
L 717.700812 290.50342 
L 723.84802 288.553882 
L 728.765786 286.783962 
L 733.683553 284.811955 
L 738.601319 282.624037 
L 743.519086 280.206814 
L 748.436852 277.547544 
L 753.354618 274.634348 
L 758.272385 271.456421 
L 763.190151 268.004156 
L 768.107918 264.269059 
L 773.025684 260.244052 
L 777.94345 255.923863 
L 782.861217 251.305443 
L 787.778983 246.388451 
L 792.69675 241.17561 
L 797.614516 235.672796 
L 802.532282 229.888927 
L 808.67949 222.281952 
L 814.826698 214.2823 
L 820.973906 205.921773 
L 828.350556 195.459597 
L 835.727206 184.581235 
L 843.103855 173.336972 
L 851.709947 159.814614 
L 851.709947 159.814614 
" style="fill:none;stroke:#014d4e;stroke-linecap:square;stroke-width:1.5;"/>
   </g>
   <g id="patch_8">
    <path d="M 550.927059 332.6472 
L 550.927059 84.9312 
" style="fill:none;stroke:#000000;stroke-linecap:square;stroke-linejoin:miter;stroke-width:0.8;"/>
   </g>
   <g id="patch_9">
    <path d="M 866.032941 332.6472 
L 866.032941 84.9312 
" style="fill:none;stroke:#000000;stroke-linecap:square;stroke-linejoin:miter;stroke-width:0.8;"/>
   </g>
   <g id="patch_10">
    <path d="M 550.927059 332.6472 
L 866.032941 332.6472 
" style="fill:none;stroke:#000000;stroke-linecap:square;stroke-linejoin:miter;stroke-width:0.8;"/>
   </g>
   <g id="patch_11">
    <path d="M 550.927059 84.9312 
L 866.032941 84.9312 
" style="fill:none;stroke:#000000;stroke-linecap:square;stroke-linejoin:miter;stroke-width:0.8;"/>
   </g>
   <g id="text_28">
    <!-- Lateral joint 1 -->
    <g transform="translate(666.814687 78.9312)scale(0.12 -0.12)">
     <use xlink:href="#DejaVuSans-76"/>
     <use x="55.712891" xlink:href="#DejaVuSans-97"/>
     <use x="116.992188" xlink:href="#DejaVuSans-116"/>
     <use x="156.201172" xlink:href="#DejaVuSans-101"/>
     <use x="217.724609" xlink:href="#DejaVuSans-114"/>
     <use x="258.837891" xlink:href="#DejaVuSans-97"/>
     <use x="320.117188" xlink:href="#DejaVuSans-108"/>
     <use x="347.900391" xlink:href="#DejaVuSans-32"/>
     <use x="379.6875" xlink:href="#DejaVuSans-106"/>
     <use x="407.470703" xlink:href="#DejaVuSans-111"/>
     <use x="468.652344" xlink:href="#DejaVuSans-105"/>
     <use x="496.435547" xlink:href="#DejaVuSans-110"/>
     <use x="559.814453" xlink:href="#DejaVuSans-116"/>
     <use x="599.023438" xlink:href="#DejaVuSans-32"/>
     <use x="630.810547" xlink:href="#DejaVuSans-49"/>
    </g>
   </g>
  </g>
  <g id="axes_3">
   <g id="patch_12">
    <path d="M 929.054118 332.6472 
L 1244.16 332.6472 
L 1244.16 84.9312 
L 929.054118 84.9312 
z
" style="fill:#ffffff;"/>
   </g>
   <g id="matplotlib.axis_5">
    <g id="xtick_11">
     <g id="line2d_33">
      <g>
       <use style="stroke:#000000;stroke-width:0.8;" x="943.377112" xlink:href="#m67b68f0769" y="332.6472"/>
      </g>
     </g>
     <g id="text_29">
      <!-- 0 -->
      <g transform="translate(940.195862 347.245637)scale(0.1 -0.1)">
       <use xlink:href="#DejaVuSans-48"/>
      </g>
     </g>
    </g>
    <g id="xtick_12">
     <g id="line2d_34">
      <g>
       <use style="stroke:#000000;stroke-width:0.8;" x="1004.849192" xlink:href="#m67b68f0769" y="332.6472"/>
      </g>
     </g>
     <g id="text_30">
      <!-- 50 -->
      <g transform="translate(998.486692 347.245637)scale(0.1 -0.1)">
       <use xlink:href="#DejaVuSans-53"/>
       <use x="63.623047" xlink:href="#DejaVuSans-48"/>
      </g>
     </g>
    </g>
    <g id="xtick_13">
     <g id="line2d_35">
      <g>
       <use style="stroke:#000000;stroke-width:0.8;" x="1066.321272" xlink:href="#m67b68f0769" y="332.6472"/>
      </g>
     </g>
     <g id="text_31">
      <!-- 100 -->
      <g transform="translate(1056.777522 347.245637)scale(0.1 -0.1)">
       <use xlink:href="#DejaVuSans-49"/>
       <use x="63.623047" xlink:href="#DejaVuSans-48"/>
       <use x="127.246094" xlink:href="#DejaVuSans-48"/>
      </g>
     </g>
    </g>
    <g id="xtick_14">
     <g id="line2d_36">
      <g>
       <use style="stroke:#000000;stroke-width:0.8;" x="1127.793352" xlink:href="#m67b68f0769" y="332.6472"/>
      </g>
     </g>
     <g id="text_32">
      <!-- 150 -->
      <g transform="translate(1118.249602 347.245637)scale(0.1 -0.1)">
       <use xlink:href="#DejaVuSans-49"/>
       <use x="63.623047" xlink:href="#DejaVuSans-53"/>
       <use x="127.246094" xlink:href="#DejaVuSans-48"/>
      </g>
     </g>
    </g>
    <g id="xtick_15">
     <g id="line2d_37">
      <g>
       <use style="stroke:#000000;stroke-width:0.8;" x="1189.265433" xlink:href="#m67b68f0769" y="332.6472"/>
      </g>
     </g>
     <g id="text_33">
      <!-- 200 -->
      <g transform="translate(1179.721683 347.245637)scale(0.1 -0.1)">
       <use xlink:href="#DejaVuSans-50"/>
       <use x="63.623047" xlink:href="#DejaVuSans-48"/>
       <use x="127.246094" xlink:href="#DejaVuSans-48"/>
      </g>
     </g>
    </g>
   </g>
   <g id="matplotlib.axis_6">
    <g id="ytick_17">
     <g id="line2d_38">
      <g>
       <use style="stroke:#000000;stroke-width:0.8;" x="929.054118" xlink:href="#maa25eebfa8" y="308.755587"/>
      </g>
     </g>
     <g id="text_34">
      <!-- −0.75 -->
      <defs>
       <path d="M 8.203125 72.90625 
L 55.078125 72.90625 
L 55.078125 68.703125 
L 28.609375 0 
L 18.3125 0 
L 43.21875 64.59375 
L 8.203125 64.59375 
z
" id="DejaVuSans-55"/>
      </defs>
      <g transform="translate(891.408805 312.554806)scale(0.1 -0.1)">
       <use xlink:href="#DejaVuSans-8722"/>
       <use x="83.789062" xlink:href="#DejaVuSans-48"/>
       <use x="147.412109" xlink:href="#DejaVuSans-46"/>
       <use x="179.199219" xlink:href="#DejaVuSans-55"/>
       <use x="242.822266" xlink:href="#DejaVuSans-53"/>
      </g>
     </g>
    </g>
    <g id="ytick_18">
     <g id="line2d_39">
      <g>
       <use style="stroke:#000000;stroke-width:0.8;" x="929.054118" xlink:href="#maa25eebfa8" y="278.345266"/>
      </g>
     </g>
     <g id="text_35">
      <!-- −0.50 -->
      <g transform="translate(891.408805 282.144485)scale(0.1 -0.1)">
       <use xlink:href="#DejaVuSans-8722"/>
       <use x="83.789062" xlink:href="#DejaVuSans-48"/>
       <use x="147.412109" xlink:href="#DejaVuSans-46"/>
       <use x="179.199219" xlink:href="#DejaVuSans-53"/>
       <use x="242.822266" xlink:href="#DejaVuSans-48"/>
      </g>
     </g>
    </g>
    <g id="ytick_19">
     <g id="line2d_40">
      <g>
       <use style="stroke:#000000;stroke-width:0.8;" x="929.054118" xlink:href="#maa25eebfa8" y="247.934945"/>
      </g>
     </g>
     <g id="text_36">
      <!-- −0.25 -->
      <g transform="translate(891.408805 251.734164)scale(0.1 -0.1)">
       <use xlink:href="#DejaVuSans-8722"/>
       <use x="83.789062" xlink:href="#DejaVuSans-48"/>
       <use x="147.412109" xlink:href="#DejaVuSans-46"/>
       <use x="179.199219" xlink:href="#DejaVuSans-50"/>
       <use x="242.822266" xlink:href="#DejaVuSans-53"/>
      </g>
     </g>
    </g>
    <g id="ytick_20">
     <g id="line2d_41">
      <g>
       <use style="stroke:#000000;stroke-width:0.8;" x="929.054118" xlink:href="#maa25eebfa8" y="217.524625"/>
      </g>
     </g>
     <g id="text_37">
      <!-- 0.00 -->
      <g transform="translate(899.788493 221.323843)scale(0.1 -0.1)">
       <use xlink:href="#DejaVuSans-48"/>
       <use x="63.623047" xlink:href="#DejaVuSans-46"/>
       <use x="95.410156" xlink:href="#DejaVuSans-48"/>
       <use x="159.033203" xlink:href="#DejaVuSans-48"/>
      </g>
     </g>
    </g>
    <g id="ytick_21">
     <g id="line2d_42">
      <g>
       <use style="stroke:#000000;stroke-width:0.8;" x="929.054118" xlink:href="#maa25eebfa8" y="187.114304"/>
      </g>
     </g>
     <g id="text_38">
      <!-- 0.25 -->
      <g transform="translate(899.788493 190.913522)scale(0.1 -0.1)">
       <use xlink:href="#DejaVuSans-48"/>
       <use x="63.623047" xlink:href="#DejaVuSans-46"/>
       <use x="95.410156" xlink:href="#DejaVuSans-50"/>
       <use x="159.033203" xlink:href="#DejaVuSans-53"/>
      </g>
     </g>
    </g>
    <g id="ytick_22">
     <g id="line2d_43">
      <g>
       <use style="stroke:#000000;stroke-width:0.8;" x="929.054118" xlink:href="#maa25eebfa8" y="156.703983"/>
      </g>
     </g>
     <g id="text_39">
      <!-- 0.50 -->
      <g transform="translate(899.788493 160.503202)scale(0.1 -0.1)">
       <use xlink:href="#DejaVuSans-48"/>
       <use x="63.623047" xlink:href="#DejaVuSans-46"/>
       <use x="95.410156" xlink:href="#DejaVuSans-53"/>
       <use x="159.033203" xlink:href="#DejaVuSans-48"/>
      </g>
     </g>
    </g>
    <g id="ytick_23">
     <g id="line2d_44">
      <g>
       <use style="stroke:#000000;stroke-width:0.8;" x="929.054118" xlink:href="#maa25eebfa8" y="126.293662"/>
      </g>
     </g>
     <g id="text_40">
      <!-- 0.75 -->
      <g transform="translate(899.788493 130.092881)scale(0.1 -0.1)">
       <use xlink:href="#DejaVuSans-48"/>
       <use x="63.623047" xlink:href="#DejaVuSans-46"/>
       <use x="95.410156" xlink:href="#DejaVuSans-55"/>
       <use x="159.033203" xlink:href="#DejaVuSans-53"/>
      </g>
     </g>
    </g>
    <g id="ytick_24">
     <g id="line2d_45">
      <g>
       <use style="stroke:#000000;stroke-width:0.8;" x="929.054118" xlink:href="#maa25eebfa8" y="95.883341"/>
      </g>
     </g>
     <g id="text_41">
      <!-- 1.00 -->
      <g transform="translate(899.788493 99.68256)scale(0.1 -0.1)">
       <use xlink:href="#DejaVuSans-49"/>
       <use x="63.623047" xlink:href="#DejaVuSans-46"/>
       <use x="95.410156" xlink:href="#DejaVuSans-48"/>
       <use x="159.033203" xlink:href="#DejaVuSans-48"/>
      </g>
     </g>
    </g>
   </g>
   <g id="line2d_46">
    <path clip-path="url(#p14884595a5)" d="M 943.377112 217.371767 
L 944.606554 218.031572 
L 945.835996 218.969525 
L 947.065437 219.232762 
L 948.294879 218.88108 
L 949.52432 218.736437 
L 950.753762 219.096775 
L 951.983204 219.313942 
L 953.212645 218.851174 
L 954.442087 218.234442 
L 955.671528 218.431695 
L 956.90097 219.489961 
L 958.130412 220.394938 
L 959.359853 220.399183 
L 960.589295 219.957452 
L 961.818736 219.971355 
L 963.048178 220.479354 
L 964.27762 220.704901 
L 965.507061 220.362083 
L 966.736503 220.243338 
L 967.965944 221.159665 
L 969.195386 222.728535 
L 970.424828 223.801393 
L 971.654269 223.980358 
L 972.883711 224.02575 
L 974.113152 224.715689 
L 975.342594 225.721072 
L 976.572036 226.193575 
L 977.801477 226.190472 
L 979.030919 226.70825 
L 980.26036 228.093322 
L 981.489802 229.307165 
L 982.719244 229.318123 
L 983.948685 228.531593 
L 985.178127 228.072591 
L 986.407568 228.113511 
L 987.63701 227.890624 
L 988.866452 227.255703 
L 990.095893 227.113041 
L 992.554776 228.801307 
L 993.784218 228.735272 
L 995.01366 228.119027 
L 996.243101 227.925553 
L 997.472543 228.273045 
L 998.701984 228.430151 
L 999.931426 228.268137 
L 1001.160868 228.547918 
L 1002.390309 229.589719 
L 1003.619751 230.469389 
L 1004.849192 230.193353 
L 1006.078634 229.062224 
L 1007.308076 228.117344 
L 1008.537517 227.58263 
L 1009.766959 226.800963 
L 1010.9964 225.630184 
L 1012.225842 224.886867 
L 1014.684725 225.090968 
L 1015.914167 224.197371 
L 1017.143608 222.670173 
L 1018.37305 221.6542 
L 1019.602492 221.400419 
L 1020.831933 221.713688 
L 1022.061375 222.162676 
L 1024.520258 219.860428 
L 1025.7497 221.514313 
L 1026.979141 222.584788 
L 1028.208583 221.07417 
L 1029.438024 219.797325 
L 1030.667466 220.102602 
L 1031.896908 220.094222 
L 1033.126349 218.996898 
L 1034.355791 218.694095 
L 1035.585232 219.516459 
L 1036.814674 219.004962 
L 1038.044116 216.338334 
L 1039.273557 214.797534 
L 1041.73244 217.835468 
L 1042.961882 215.75211 
L 1044.191324 212.419386 
L 1045.420765 212.135948 
L 1046.650207 214.086737 
L 1047.879648 214.228944 
L 1049.10909 211.998041 
L 1050.338532 210.282107 
L 1052.797415 209.934724 
L 1054.026856 208.912382 
L 1056.48574 207.600422 
L 1057.715181 205.443568 
L 1058.944623 202.813113 
L 1060.174064 202.220056 
L 1061.403506 202.849475 
L 1062.632948 201.071564 
L 1063.862389 196.585322 
L 1065.091831 193.532369 
L 1067.550714 194.278526 
L 1068.780156 191.249801 
L 1070.009597 186.880355 
L 1071.239039 185.072634 
L 1072.46848 185.588048 
L 1073.697922 185.292782 
L 1076.156805 180.301317 
L 1077.386247 179.107416 
L 1078.615688 178.456398 
L 1079.84513 177.574268 
L 1081.074572 176.913168 
L 1082.304013 175.593561 
L 1084.762896 170.483379 
L 1085.992338 170.038477 
L 1087.22178 170.359854 
L 1088.451221 168.349409 
L 1089.680663 163.810617 
L 1090.910104 160.555555 
L 1092.139546 160.98991 
L 1093.368988 161.733617 
L 1094.598429 158.709304 
L 1095.827871 153.680462 
L 1097.057312 151.671363 
L 1098.286754 153.207093 
L 1099.516196 153.621975 
L 1100.745637 150.325281 
L 1101.975079 146.502921 
L 1103.20452 145.862983 
L 1104.433962 147.118013 
L 1105.663404 146.457295 
L 1106.892845 143.362653 
L 1108.122287 140.759106 
L 1109.351728 140.145481 
L 1110.58117 139.736084 
L 1111.810612 137.825377 
L 1113.040053 135.317247 
L 1114.269495 133.712607 
L 1115.498936 132.606039 
L 1117.95782 128.943123 
L 1119.187261 128.048255 
L 1120.416703 127.886686 
L 1121.646144 126.847073 
L 1122.875586 125.008288 
L 1124.105028 124.305371 
L 1125.334469 125.310479 
L 1126.563911 125.974041 
L 1127.793352 124.792714 
L 1129.022794 123.336167 
L 1130.252236 123.786561 
L 1131.481677 125.333738 
L 1132.711119 125.448672 
L 1133.94056 124.220981 
L 1135.170002 123.580055 
L 1136.399444 116.668373 
L 1137.628885 113.806994 
L 1138.858327 118.252937 
L 1140.087768 119.979448 
L 1142.546652 106.422024 
L 1143.776093 109.037727 
L 1145.005535 113.757142 
L 1146.234976 110.277371 
L 1147.464418 103.655108 
L 1148.69386 104.904076 
L 1149.923301 110.334599 
L 1151.152743 108.784395 
L 1152.382184 103.448014 
L 1153.611626 105.808135 
L 1154.841068 112.475938 
L 1156.070509 110.74431 
L 1157.299951 103.894887 
L 1158.529392 105.680031 
L 1159.758834 112.720888 
L 1160.988276 110.688871 
L 1162.217717 103.424812 
L 1163.447159 104.865888 
L 1164.6766 109.543378 
L 1165.906042 104.50135 
L 1167.135484 98.342891 
L 1168.364925 103.291998 
L 1169.594367 107.311802 
L 1170.823808 99.843954 
L 1172.05325 96.191018 
L 1173.282692 103.667551 
L 1174.512133 104.599381 
L 1175.741575 98.008352 
L 1176.971017 102.536613 
L 1178.200458 110.889718 
L 1179.4299 105.666917 
L 1180.659341 103.294017 
L 1181.888783 113.631973 
L 1183.118225 115.506782 
L 1184.347666 110.431595 
L 1185.577108 119.670965 
L 1186.806549 126.614731 
L 1188.035991 118.859181 
L 1189.265433 122.78249 
L 1190.494874 132.954761 
L 1191.724316 127.032089 
L 1192.953757 129.212274 
L 1194.183199 141.896161 
L 1195.412641 136.206857 
L 1196.642082 134.626036 
L 1197.871524 146.515707 
L 1199.100965 140.828122 
L 1200.330407 140.575428 
L 1201.559849 155.366909 
L 1202.78929 150.571104 
L 1204.018732 152.142348 
L 1205.248173 165.463996 
L 1206.477615 157.157187 
L 1207.707057 161.569085 
L 1208.936498 173.81114 
L 1210.16594 165.768367 
L 1211.395381 176.551965 
L 1212.624823 184.083112 
L 1213.854265 174.54873 
L 1215.083706 186.001665 
L 1216.313148 183.081836 
L 1217.542589 175.403453 
L 1218.772031 187.721731 
L 1220.001473 181.053366 
L 1221.230914 181.912281 
L 1222.460356 194.02965 
L 1223.689797 180.184788 
L 1224.919239 171.502955 
L 1226.148681 184.7109 
L 1227.378122 183.402773 
L 1228.607564 194.546621 
L 1229.837005 188.536037 
L 1229.837005 188.536037 
" style="fill:none;stroke:#ff796c;stroke-linecap:square;stroke-width:1.5;"/>
   </g>
   <g id="line2d_47">
    <path clip-path="url(#p14884595a5)" d="M 943.377112 321.339018 
L 1028.208583 321.231932 
L 1038.044116 321.070405 
L 1065.091831 320.319509 
L 1085.992338 319.11022 
L 1097.057312 318.035841 
L 1108.122287 316.778973 
L 1114.269495 315.84535 
L 1124.105028 314.0954 
L 1131.481677 312.61659 
L 1137.628885 311.163506 
L 1148.69386 308.022148 
L 1157.299951 305.483386 
L 1162.217717 303.770703 
L 1168.364925 301.341458 
L 1184.347666 294.602893 
L 1190.494874 291.673403 
L 1195.412641 289.070707 
L 1215.083706 278.238392 
L 1220.001473 275.258531 
L 1227.378122 270.723383 
L 1229.837005 269.276527 
L 1229.837005 269.276527 
" style="fill:none;stroke:#ffff14;stroke-linecap:square;stroke-width:1.5;"/>
   </g>
   <g id="line2d_48">
    <path clip-path="url(#p14884595a5)" d="M 943.377112 321.339028 
L 1015.914167 321.234192 
L 1038.044116 320.978686 
L 1054.026856 320.594619 
L 1067.550714 320.062231 
L 1079.84513 319.349587 
L 1090.910104 318.467713 
L 1100.745637 317.448804 
L 1109.351728 316.342775 
L 1117.95782 315.006962 
L 1125.334469 313.657614 
L 1132.711119 312.10143 
L 1140.087768 310.322583 
L 1147.464418 308.307034 
L 1154.841068 306.042557 
L 1162.217717 303.520047 
L 1169.594367 300.735237 
L 1176.971017 297.689565 
L 1184.347666 294.390437 
L 1191.724316 290.851201 
L 1199.100965 287.090112 
L 1207.707057 282.44968 
L 1216.313148 277.569882 
L 1226.148681 271.742739 
L 1229.837005 269.497715 
L 1229.837005 269.497715 
" style="fill:none;stroke:#014d4e;stroke-linecap:square;stroke-width:1.5;"/>
   </g>
   <g id="patch_13">
    <path d="M 929.054118 332.6472 
L 929.054118 84.9312 
" style="fill:none;stroke:#000000;stroke-linecap:square;stroke-linejoin:miter;stroke-width:0.8;"/>
   </g>
   <g id="patch_14">
    <path d="M 1244.16 332.6472 
L 1244.16 84.9312 
" style="fill:none;stroke:#000000;stroke-linecap:square;stroke-linejoin:miter;stroke-width:0.8;"/>
   </g>
   <g id="patch_15">
    <path d="M 929.054118 332.6472 
L 1244.16 332.6472 
" style="fill:none;stroke:#000000;stroke-linecap:square;stroke-linejoin:miter;stroke-width:0.8;"/>
   </g>
   <g id="patch_16">
    <path d="M 929.054118 84.9312 
L 1244.16 84.9312 
" style="fill:none;stroke:#000000;stroke-linecap:square;stroke-linejoin:miter;stroke-width:0.8;"/>
   </g>
   <g id="text_42">
    <!-- Lateral joint 2 -->
    <g transform="translate(1044.941746 78.9312)scale(0.12 -0.12)">
     <use xlink:href="#DejaVuSans-76"/>
     <use x="55.712891" xlink:href="#DejaVuSans-97"/>
     <use x="116.992188" xlink:href="#DejaVuSans-116"/>
     <use x="156.201172" xlink:href="#DejaVuSans-101"/>
     <use x="217.724609" xlink:href="#DejaVuSans-114"/>
     <use x="258.837891" xlink:href="#DejaVuSans-97"/>
     <use x="320.117188" xlink:href="#DejaVuSans-108"/>
     <use x="347.900391" xlink:href="#DejaVuSans-32"/>
     <use x="379.6875" xlink:href="#DejaVuSans-106"/>
     <use x="407.470703" xlink:href="#DejaVuSans-111"/>
     <use x="468.652344" xlink:href="#DejaVuSans-105"/>
     <use x="496.435547" xlink:href="#DejaVuSans-110"/>
     <use x="559.814453" xlink:href="#DejaVuSans-116"/>
     <use x="599.023438" xlink:href="#DejaVuSans-32"/>
     <use x="630.810547" xlink:href="#DejaVuSans-50"/>
    </g>
   </g>
  </g>
  <g id="axes_4">
   <g id="patch_17">
    <path d="M 172.8 629.9064 
L 487.905882 629.9064 
L 487.905882 382.1904 
L 172.8 382.1904 
z
" style="fill:#ffffff;"/>
   </g>
   <g id="matplotlib.axis_7">
    <g id="xtick_16">
     <g id="line2d_49">
      <g>
       <use style="stroke:#000000;stroke-width:0.8;" x="187.122995" xlink:href="#m67b68f0769" y="629.9064"/>
      </g>
     </g>
     <g id="text_43">
      <!-- 0 -->
      <g transform="translate(183.941745 644.504838)scale(0.1 -0.1)">
       <use xlink:href="#DejaVuSans-48"/>
      </g>
     </g>
    </g>
    <g id="xtick_17">
     <g id="line2d_50">
      <g>
       <use style="stroke:#000000;stroke-width:0.8;" x="248.595075" xlink:href="#m67b68f0769" y="629.9064"/>
      </g>
     </g>
     <g id="text_44">
      <!-- 50 -->
      <g transform="translate(242.232575 644.504838)scale(0.1 -0.1)">
       <use xlink:href="#DejaVuSans-53"/>
       <use x="63.623047" xlink:href="#DejaVuSans-48"/>
      </g>
     </g>
    </g>
    <g id="xtick_18">
     <g id="line2d_51">
      <g>
       <use style="stroke:#000000;stroke-width:0.8;" x="310.067155" xlink:href="#m67b68f0769" y="629.9064"/>
      </g>
     </g>
     <g id="text_45">
      <!-- 100 -->
      <g transform="translate(300.523405 644.504838)scale(0.1 -0.1)">
       <use xlink:href="#DejaVuSans-49"/>
       <use x="63.623047" xlink:href="#DejaVuSans-48"/>
       <use x="127.246094" xlink:href="#DejaVuSans-48"/>
      </g>
     </g>
    </g>
    <g id="xtick_19">
     <g id="line2d_52">
      <g>
       <use style="stroke:#000000;stroke-width:0.8;" x="371.539235" xlink:href="#m67b68f0769" y="629.9064"/>
      </g>
     </g>
     <g id="text_46">
      <!-- 150 -->
      <g transform="translate(361.995485 644.504838)scale(0.1 -0.1)">
       <use xlink:href="#DejaVuSans-49"/>
       <use x="63.623047" xlink:href="#DejaVuSans-53"/>
       <use x="127.246094" xlink:href="#DejaVuSans-48"/>
      </g>
     </g>
    </g>
    <g id="xtick_20">
     <g id="line2d_53">
      <g>
       <use style="stroke:#000000;stroke-width:0.8;" x="433.011315" xlink:href="#m67b68f0769" y="629.9064"/>
      </g>
     </g>
     <g id="text_47">
      <!-- 200 -->
      <g transform="translate(423.467565 644.504838)scale(0.1 -0.1)">
       <use xlink:href="#DejaVuSans-50"/>
       <use x="63.623047" xlink:href="#DejaVuSans-48"/>
       <use x="127.246094" xlink:href="#DejaVuSans-48"/>
      </g>
     </g>
    </g>
   </g>
   <g id="matplotlib.axis_8">
    <g id="ytick_25">
     <g id="line2d_54">
      <g>
       <use style="stroke:#000000;stroke-width:0.8;" x="172.8" xlink:href="#maa25eebfa8" y="604.70658"/>
      </g>
     </g>
     <g id="text_48">
      <!-- −0.75 -->
      <g transform="translate(135.154687 608.505799)scale(0.1 -0.1)">
       <use xlink:href="#DejaVuSans-8722"/>
       <use x="83.789062" xlink:href="#DejaVuSans-48"/>
       <use x="147.412109" xlink:href="#DejaVuSans-46"/>
       <use x="179.199219" xlink:href="#DejaVuSans-55"/>
       <use x="242.822266" xlink:href="#DejaVuSans-53"/>
      </g>
     </g>
    </g>
    <g id="ytick_26">
     <g id="line2d_55">
      <g>
       <use style="stroke:#000000;stroke-width:0.8;" x="172.8" xlink:href="#maa25eebfa8" y="571.147403"/>
      </g>
     </g>
     <g id="text_49">
      <!-- −0.50 -->
      <g transform="translate(135.154687 574.946622)scale(0.1 -0.1)">
       <use xlink:href="#DejaVuSans-8722"/>
       <use x="83.789062" xlink:href="#DejaVuSans-48"/>
       <use x="147.412109" xlink:href="#DejaVuSans-46"/>
       <use x="179.199219" xlink:href="#DejaVuSans-53"/>
       <use x="242.822266" xlink:href="#DejaVuSans-48"/>
      </g>
     </g>
    </g>
    <g id="ytick_27">
     <g id="line2d_56">
      <g>
       <use style="stroke:#000000;stroke-width:0.8;" x="172.8" xlink:href="#maa25eebfa8" y="537.588226"/>
      </g>
     </g>
     <g id="text_50">
      <!-- −0.25 -->
      <g transform="translate(135.154687 541.387445)scale(0.1 -0.1)">
       <use xlink:href="#DejaVuSans-8722"/>
       <use x="83.789062" xlink:href="#DejaVuSans-48"/>
       <use x="147.412109" xlink:href="#DejaVuSans-46"/>
       <use x="179.199219" xlink:href="#DejaVuSans-50"/>
       <use x="242.822266" xlink:href="#DejaVuSans-53"/>
      </g>
     </g>
    </g>
    <g id="ytick_28">
     <g id="line2d_57">
      <g>
       <use style="stroke:#000000;stroke-width:0.8;" x="172.8" xlink:href="#maa25eebfa8" y="504.029049"/>
      </g>
     </g>
     <g id="text_51">
      <!-- 0.00 -->
      <g transform="translate(143.534375 507.828268)scale(0.1 -0.1)">
       <use xlink:href="#DejaVuSans-48"/>
       <use x="63.623047" xlink:href="#DejaVuSans-46"/>
       <use x="95.410156" xlink:href="#DejaVuSans-48"/>
       <use x="159.033203" xlink:href="#DejaVuSans-48"/>
      </g>
     </g>
    </g>
    <g id="ytick_29">
     <g id="line2d_58">
      <g>
       <use style="stroke:#000000;stroke-width:0.8;" x="172.8" xlink:href="#maa25eebfa8" y="470.469872"/>
      </g>
     </g>
     <g id="text_52">
      <!-- 0.25 -->
      <g transform="translate(143.534375 474.269091)scale(0.1 -0.1)">
       <use xlink:href="#DejaVuSans-48"/>
       <use x="63.623047" xlink:href="#DejaVuSans-46"/>
       <use x="95.410156" xlink:href="#DejaVuSans-50"/>
       <use x="159.033203" xlink:href="#DejaVuSans-53"/>
      </g>
     </g>
    </g>
    <g id="ytick_30">
     <g id="line2d_59">
      <g>
       <use style="stroke:#000000;stroke-width:0.8;" x="172.8" xlink:href="#maa25eebfa8" y="436.910695"/>
      </g>
     </g>
     <g id="text_53">
      <!-- 0.50 -->
      <g transform="translate(143.534375 440.709914)scale(0.1 -0.1)">
       <use xlink:href="#DejaVuSans-48"/>
       <use x="63.623047" xlink:href="#DejaVuSans-46"/>
       <use x="95.410156" xlink:href="#DejaVuSans-53"/>
       <use x="159.033203" xlink:href="#DejaVuSans-48"/>
      </g>
     </g>
    </g>
    <g id="ytick_31">
     <g id="line2d_60">
      <g>
       <use style="stroke:#000000;stroke-width:0.8;" x="172.8" xlink:href="#maa25eebfa8" y="403.351519"/>
      </g>
     </g>
     <g id="text_54">
      <!-- 0.75 -->
      <g transform="translate(143.534375 407.150737)scale(0.1 -0.1)">
       <use xlink:href="#DejaVuSans-48"/>
       <use x="63.623047" xlink:href="#DejaVuSans-46"/>
       <use x="95.410156" xlink:href="#DejaVuSans-55"/>
       <use x="159.033203" xlink:href="#DejaVuSans-53"/>
      </g>
     </g>
    </g>
   </g>
   <g id="line2d_61">
    <path clip-path="url(#pcfad456d65)" d="M 187.122995 503.739846 
L 188.352436 504.971823 
L 189.581878 507.096004 
L 190.811319 508.878273 
L 192.040761 509.705483 
L 193.270203 509.708672 
L 194.499644 509.111851 
L 195.729086 507.941922 
L 196.958527 506.501391 
L 198.187969 505.684631 
L 199.417411 506.333874 
L 201.876294 510.30505 
L 203.105735 511.3091 
L 204.335177 511.114069 
L 205.564619 510.229259 
L 206.79406 509.043681 
L 208.023502 507.700817 
L 209.252943 506.652367 
L 210.482385 506.75982 
L 211.711827 508.469213 
L 212.941268 511.078824 
L 214.17071 513.220977 
L 215.400151 514.113999 
L 216.629593 514.031764 
L 219.088476 513.427835 
L 220.317918 513.292732 
L 221.547359 513.67985 
L 222.776801 515.167361 
L 224.006243 517.500201 
L 225.235684 519.314914 
L 226.465126 519.347004 
L 227.694567 517.628753 
L 231.382892 510.263136 
L 232.612334 508.531808 
L 233.841775 508.083102 
L 236.300659 509.710545 
L 237.5301 509.423276 
L 238.759542 508.050205 
L 239.988983 506.433972 
L 241.218425 505.174904 
L 242.447867 504.369119 
L 243.677308 504.233464 
L 244.90675 505.137639 
L 246.136192 506.764835 
L 247.365633 507.814921 
L 248.595075 507.080214 
L 249.824516 504.592542 
L 253.512841 495.07014 
L 254.742283 492.611244 
L 255.971724 491.194911 
L 257.201166 490.67895 
L 258.430608 489.953135 
L 259.660049 488.001467 
L 262.118932 482.299757 
L 263.348374 480.491724 
L 264.577816 480.431093 
L 265.807257 482.234283 
L 267.036699 483.041805 
L 268.26614 482.632137 
L 269.495582 483.426657 
L 270.725024 483.222759 
L 271.954465 481.574036 
L 273.183907 481.424455 
L 274.413348 482.948161 
L 275.64279 483.228612 
L 276.872232 481.329503 
L 278.101673 479.849231 
L 280.560556 480.789649 
L 281.789998 479.374992 
L 283.01944 477.591362 
L 284.248881 477.423666 
L 285.478323 477.726075 
L 286.707764 476.586629 
L 287.937206 475.11953 
L 289.166648 475.362675 
L 290.396089 476.170967 
L 291.625531 475.378588 
L 292.854972 473.911447 
L 294.084414 474.027416 
L 295.313856 475.089318 
L 296.543297 474.755536 
L 297.772739 473.066572 
L 299.00218 472.459457 
L 300.231622 473.001165 
L 301.461064 472.320366 
L 302.690505 469.976189 
L 303.919947 468.182944 
L 305.149388 467.635575 
L 306.37883 466.23678 
L 307.608272 463.100866 
L 308.837713 460.302671 
L 311.296596 457.878751 
L 313.75548 452.133533 
L 314.984921 451.097708 
L 316.214363 450.886694 
L 317.443804 449.661348 
L 318.673246 447.748532 
L 319.902688 447.111826 
L 321.132129 447.623137 
L 322.361571 447.309514 
L 323.591012 445.911394 
L 324.820454 445.435841 
L 326.049896 445.594123 
L 327.279337 444.663556 
L 328.508779 442.478157 
L 329.73822 440.794719 
L 330.967662 440.02871 
L 332.197104 438.536808 
L 334.655987 432.052542 
L 335.885428 430.779704 
L 337.11487 430.138562 
L 338.344312 427.856353 
L 339.573753 424.798326 
L 340.803195 423.639423 
L 342.032636 424.394741 
L 343.262078 424.399435 
L 344.49152 422.732937 
L 345.720961 421.648178 
L 346.950403 422.692874 
L 348.179844 424.064662 
L 349.409286 423.47573 
L 350.638728 421.680485 
L 351.868169 421.027566 
L 353.097611 421.583503 
L 354.327052 421.10974 
L 356.785936 416.240699 
L 358.015377 415.304934 
L 359.244819 414.985136 
L 360.47426 413.611355 
L 361.703702 411.563207 
L 362.933144 410.599902 
L 365.392027 411.841211 
L 366.621468 411.910744 
L 367.85091 412.383758 
L 369.080352 414.01386 
L 370.309793 415.8934 
L 372.768676 418.098981 
L 373.998118 420.044931 
L 375.22756 422.21749 
L 376.457001 423.262949 
L 377.686443 423.851021 
L 378.915884 426.247506 
L 381.374768 417.687346 
L 382.604209 417.962324 
L 383.833651 417.454043 
L 385.063092 412.262889 
L 386.292534 407.661869 
L 387.521976 408.392476 
L 388.751417 409.325847 
L 391.2103 400.066901 
L 392.439742 403.361358 
L 393.669184 410.159191 
L 394.898625 410.653102 
L 396.128067 407.231598 
L 397.357508 409.680718 
L 398.58695 416.584712 
L 399.816392 418.240112 
L 401.045833 415.592262 
L 402.275275 417.515769 
L 403.504716 421.53645 
L 404.734158 418.324216 
L 405.9636 411.98234 
L 407.193041 412.851471 
L 408.422483 415.815655 
L 409.651924 410.317527 
L 410.881366 402.764028 
L 412.110808 403.251493 
L 413.340249 404.130553 
L 414.569691 397.999131 
L 415.799132 395.360067 
L 417.028574 400.481456 
L 418.258016 399.905169 
L 419.487457 393.450218 
L 420.716899 395.811108 
L 421.94634 402.402058 
L 423.175782 400.326032 
L 424.405224 400.766359 
L 425.634665 409.835167 
L 426.864107 411.7102 
L 428.093548 407.840658 
L 429.32299 414.471604 
L 430.552432 420.01547 
L 431.781873 415.224484 
L 433.011315 418.411315 
L 434.240756 424.870396 
L 435.470198 418.282598 
L 436.69964 416.637091 
L 437.929081 422.468402 
L 439.158523 415.576335 
L 440.387964 412.137169 
L 441.617406 418.392024 
L 442.846848 411.597643 
L 444.076289 408.144759 
L 445.305731 415.302433 
L 446.535172 409.028074 
L 447.764614 408.368803 
L 448.994056 417.207346 
L 450.223497 411.401156 
L 451.452939 414.777587 
L 452.68238 423.401751 
L 453.911822 417.257642 
L 455.141264 424.265013 
L 456.370705 429.066718 
L 457.600147 421.993855 
L 458.829588 429.662695 
L 460.05903 426.598374 
L 461.288472 419.127626 
L 462.517913 424.493979 
L 463.747355 415.663468 
L 464.976796 412.142707 
L 466.206238 417.606411 
L 467.43568 406.234701 
L 468.665121 398.700587 
L 469.894563 405.854712 
L 471.124004 403.035656 
L 472.353446 411.182066 
L 473.582888 409.97957 
L 473.582888 409.97957 
" style="fill:none;stroke:#ff796c;stroke-linecap:square;stroke-width:1.5;"/>
   </g>
   <g id="line2d_62">
    <path clip-path="url(#pcfad456d65)" d="M 187.122995 618.619411 
L 215.400151 618.521695 
L 230.153451 618.269136 
L 238.759542 618.182929 
L 257.201166 617.66758 
L 265.807257 617.503426 
L 275.64279 617.290093 
L 283.01944 617.426818 
L 290.396089 617.4908 
L 312.526038 617.2147 
L 318.673246 617.103712 
L 328.508779 616.877288 
L 344.49152 616.901694 
L 353.097611 616.585094 
L 359.244819 616.642273 
L 366.621468 616.680726 
L 381.374768 616.399186 
L 388.751417 616.582579 
L 392.439742 616.382989 
L 396.128067 615.930102 
L 403.504716 614.934968 
L 407.193041 614.678898 
L 415.799132 614.320167 
L 419.487457 613.897133 
L 424.405224 613.014198 
L 430.552432 611.87331 
L 434.240756 611.438887 
L 439.158523 611.125608 
L 444.076289 610.818121 
L 447.764614 610.351834 
L 451.452939 609.66582 
L 458.829588 608.143902 
L 462.517913 607.677478 
L 467.43568 607.186674 
L 469.894563 606.702005 
L 473.582888 605.670037 
L 473.582888 605.670037 
" style="fill:none;stroke:#ffff14;stroke-linecap:square;stroke-width:1.5;"/>
   </g>
   <g id="line2d_63">
    <path clip-path="url(#pcfad456d65)" d="M 187.122995 618.618957 
L 299.00218 618.51013 
L 330.967662 618.243713 
L 354.327052 617.833076 
L 372.768676 617.303437 
L 388.751417 616.642554 
L 403.504716 615.824545 
L 417.028574 614.870144 
L 430.552432 613.704837 
L 444.076289 612.330178 
L 458.829588 610.612709 
L 473.582888 608.704338 
L 473.582888 608.704338 
" style="fill:none;stroke:#014d4e;stroke-linecap:square;stroke-width:1.5;"/>
   </g>
   <g id="patch_18">
    <path d="M 172.8 629.9064 
L 172.8 382.1904 
" style="fill:none;stroke:#000000;stroke-linecap:square;stroke-linejoin:miter;stroke-width:0.8;"/>
   </g>
   <g id="patch_19">
    <path d="M 487.905882 629.9064 
L 487.905882 382.1904 
" style="fill:none;stroke:#000000;stroke-linecap:square;stroke-linejoin:miter;stroke-width:0.8;"/>
   </g>
   <g id="patch_20">
    <path d="M 172.8 629.9064 
L 487.905882 629.9064 
" style="fill:none;stroke:#000000;stroke-linecap:square;stroke-linejoin:miter;stroke-width:0.8;"/>
   </g>
   <g id="patch_21">
    <path d="M 172.8 382.1904 
L 487.905882 382.1904 
" style="fill:none;stroke:#000000;stroke-linecap:square;stroke-linejoin:miter;stroke-width:0.8;"/>
   </g>
   <g id="text_55">
    <!-- Lateral joint 3 -->
    <defs>
     <path d="M 40.578125 39.3125 
Q 47.65625 37.796875 51.625 33 
Q 55.609375 28.21875 55.609375 21.1875 
Q 55.609375 10.40625 48.1875 4.484375 
Q 40.765625 -1.421875 27.09375 -1.421875 
Q 22.515625 -1.421875 17.65625 -0.515625 
Q 12.796875 0.390625 7.625 2.203125 
L 7.625 11.71875 
Q 11.71875 9.328125 16.59375 8.109375 
Q 21.484375 6.890625 26.8125 6.890625 
Q 36.078125 6.890625 40.9375 10.546875 
Q 45.796875 14.203125 45.796875 21.1875 
Q 45.796875 27.640625 41.28125 31.265625 
Q 36.765625 34.90625 28.71875 34.90625 
L 20.21875 34.90625 
L 20.21875 43.015625 
L 29.109375 43.015625 
Q 36.375 43.015625 40.234375 45.921875 
Q 44.09375 48.828125 44.09375 54.296875 
Q 44.09375 59.90625 40.109375 62.90625 
Q 36.140625 65.921875 28.71875 65.921875 
Q 24.65625 65.921875 20.015625 65.03125 
Q 15.375 64.15625 9.8125 62.3125 
L 9.8125 71.09375 
Q 15.4375 72.65625 20.34375 73.4375 
Q 25.25 74.21875 29.59375 74.21875 
Q 40.828125 74.21875 47.359375 69.109375 
Q 53.90625 64.015625 53.90625 55.328125 
Q 53.90625 49.265625 50.4375 45.09375 
Q 46.96875 40.921875 40.578125 39.3125 
z
" id="DejaVuSans-51"/>
    </defs>
    <g transform="translate(288.687629 376.1904)scale(0.12 -0.12)">
     <use xlink:href="#DejaVuSans-76"/>
     <use x="55.712891" xlink:href="#DejaVuSans-97"/>
     <use x="116.992188" xlink:href="#DejaVuSans-116"/>
     <use x="156.201172" xlink:href="#DejaVuSans-101"/>
     <use x="217.724609" xlink:href="#DejaVuSans-114"/>
     <use x="258.837891" xlink:href="#DejaVuSans-97"/>
     <use x="320.117188" xlink:href="#DejaVuSans-108"/>
     <use x="347.900391" xlink:href="#DejaVuSans-32"/>
     <use x="379.6875" xlink:href="#DejaVuSans-106"/>
     <use x="407.470703" xlink:href="#DejaVuSans-111"/>
     <use x="468.652344" xlink:href="#DejaVuSans-105"/>
     <use x="496.435547" xlink:href="#DejaVuSans-110"/>
     <use x="559.814453" xlink:href="#DejaVuSans-116"/>
     <use x="599.023438" xlink:href="#DejaVuSans-32"/>
     <use x="630.810547" xlink:href="#DejaVuSans-51"/>
    </g>
   </g>
  </g>
  <g id="axes_5">
   <g id="patch_22">
    <path d="M 550.927059 629.9064 
L 866.032941 629.9064 
L 866.032941 382.1904 
L 550.927059 382.1904 
z
" style="fill:#ffffff;"/>
   </g>
   <g id="matplotlib.axis_9">
    <g id="xtick_21">
     <g id="line2d_64">
      <g>
       <use style="stroke:#000000;stroke-width:0.8;" x="565.250053" xlink:href="#m67b68f0769" y="629.9064"/>
      </g>
     </g>
     <g id="text_56">
      <!-- 0 -->
      <g transform="translate(562.068803 644.504838)scale(0.1 -0.1)">
       <use xlink:href="#DejaVuSans-48"/>
      </g>
     </g>
    </g>
    <g id="xtick_22">
     <g id="line2d_65">
      <g>
       <use style="stroke:#000000;stroke-width:0.8;" x="626.722134" xlink:href="#m67b68f0769" y="629.9064"/>
      </g>
     </g>
     <g id="text_57">
      <!-- 50 -->
      <g transform="translate(620.359634 644.504838)scale(0.1 -0.1)">
       <use xlink:href="#DejaVuSans-53"/>
       <use x="63.623047" xlink:href="#DejaVuSans-48"/>
      </g>
     </g>
    </g>
    <g id="xtick_23">
     <g id="line2d_66">
      <g>
       <use style="stroke:#000000;stroke-width:0.8;" x="688.194214" xlink:href="#m67b68f0769" y="629.9064"/>
      </g>
     </g>
     <g id="text_58">
      <!-- 100 -->
      <g transform="translate(678.650464 644.504838)scale(0.1 -0.1)">
       <use xlink:href="#DejaVuSans-49"/>
       <use x="63.623047" xlink:href="#DejaVuSans-48"/>
       <use x="127.246094" xlink:href="#DejaVuSans-48"/>
      </g>
     </g>
    </g>
    <g id="xtick_24">
     <g id="line2d_67">
      <g>
       <use style="stroke:#000000;stroke-width:0.8;" x="749.666294" xlink:href="#m67b68f0769" y="629.9064"/>
      </g>
     </g>
     <g id="text_59">
      <!-- 150 -->
      <g transform="translate(740.122544 644.504838)scale(0.1 -0.1)">
       <use xlink:href="#DejaVuSans-49"/>
       <use x="63.623047" xlink:href="#DejaVuSans-53"/>
       <use x="127.246094" xlink:href="#DejaVuSans-48"/>
      </g>
     </g>
    </g>
    <g id="xtick_25">
     <g id="line2d_68">
      <g>
       <use style="stroke:#000000;stroke-width:0.8;" x="811.138374" xlink:href="#m67b68f0769" y="629.9064"/>
      </g>
     </g>
     <g id="text_60">
      <!-- 200 -->
      <g transform="translate(801.594624 644.504838)scale(0.1 -0.1)">
       <use xlink:href="#DejaVuSans-50"/>
       <use x="63.623047" xlink:href="#DejaVuSans-48"/>
       <use x="127.246094" xlink:href="#DejaVuSans-48"/>
      </g>
     </g>
    </g>
   </g>
   <g id="matplotlib.axis_10">
    <g id="ytick_32">
     <g id="line2d_69">
      <g>
       <use style="stroke:#000000;stroke-width:0.8;" x="550.927059" xlink:href="#maa25eebfa8" y="600.997053"/>
      </g>
     </g>
     <g id="text_61">
      <!-- −0.50 -->
      <g transform="translate(513.281746 604.796272)scale(0.1 -0.1)">
       <use xlink:href="#DejaVuSans-8722"/>
       <use x="83.789062" xlink:href="#DejaVuSans-48"/>
       <use x="147.412109" xlink:href="#DejaVuSans-46"/>
       <use x="179.199219" xlink:href="#DejaVuSans-53"/>
       <use x="242.822266" xlink:href="#DejaVuSans-48"/>
      </g>
     </g>
    </g>
    <g id="ytick_33">
     <g id="line2d_70">
      <g>
       <use style="stroke:#000000;stroke-width:0.8;" x="550.927059" xlink:href="#maa25eebfa8" y="567.342267"/>
      </g>
     </g>
     <g id="text_62">
      <!-- −0.25 -->
      <g transform="translate(513.281746 571.141486)scale(0.1 -0.1)">
       <use xlink:href="#DejaVuSans-8722"/>
       <use x="83.789062" xlink:href="#DejaVuSans-48"/>
       <use x="147.412109" xlink:href="#DejaVuSans-46"/>
       <use x="179.199219" xlink:href="#DejaVuSans-50"/>
       <use x="242.822266" xlink:href="#DejaVuSans-53"/>
      </g>
     </g>
    </g>
    <g id="ytick_34">
     <g id="line2d_71">
      <g>
       <use style="stroke:#000000;stroke-width:0.8;" x="550.927059" xlink:href="#maa25eebfa8" y="533.687481"/>
      </g>
     </g>
     <g id="text_63">
      <!-- 0.00 -->
      <g transform="translate(521.661434 537.4867)scale(0.1 -0.1)">
       <use xlink:href="#DejaVuSans-48"/>
       <use x="63.623047" xlink:href="#DejaVuSans-46"/>
       <use x="95.410156" xlink:href="#DejaVuSans-48"/>
       <use x="159.033203" xlink:href="#DejaVuSans-48"/>
      </g>
     </g>
    </g>
    <g id="ytick_35">
     <g id="line2d_72">
      <g>
       <use style="stroke:#000000;stroke-width:0.8;" x="550.927059" xlink:href="#maa25eebfa8" y="500.032695"/>
      </g>
     </g>
     <g id="text_64">
      <!-- 0.25 -->
      <g transform="translate(521.661434 503.831913)scale(0.1 -0.1)">
       <use xlink:href="#DejaVuSans-48"/>
       <use x="63.623047" xlink:href="#DejaVuSans-46"/>
       <use x="95.410156" xlink:href="#DejaVuSans-50"/>
       <use x="159.033203" xlink:href="#DejaVuSans-53"/>
      </g>
     </g>
    </g>
    <g id="ytick_36">
     <g id="line2d_73">
      <g>
       <use style="stroke:#000000;stroke-width:0.8;" x="550.927059" xlink:href="#maa25eebfa8" y="466.377909"/>
      </g>
     </g>
     <g id="text_65">
      <!-- 0.50 -->
      <g transform="translate(521.661434 470.177127)scale(0.1 -0.1)">
       <use xlink:href="#DejaVuSans-48"/>
       <use x="63.623047" xlink:href="#DejaVuSans-46"/>
       <use x="95.410156" xlink:href="#DejaVuSans-53"/>
       <use x="159.033203" xlink:href="#DejaVuSans-48"/>
      </g>
     </g>
    </g>
    <g id="ytick_37">
     <g id="line2d_74">
      <g>
       <use style="stroke:#000000;stroke-width:0.8;" x="550.927059" xlink:href="#maa25eebfa8" y="432.723122"/>
      </g>
     </g>
     <g id="text_66">
      <!-- 0.75 -->
      <g transform="translate(521.661434 436.522341)scale(0.1 -0.1)">
       <use xlink:href="#DejaVuSans-48"/>
       <use x="63.623047" xlink:href="#DejaVuSans-46"/>
       <use x="95.410156" xlink:href="#DejaVuSans-55"/>
       <use x="159.033203" xlink:href="#DejaVuSans-53"/>
      </g>
     </g>
    </g>
    <g id="ytick_38">
     <g id="line2d_75">
      <g>
       <use style="stroke:#000000;stroke-width:0.8;" x="550.927059" xlink:href="#maa25eebfa8" y="399.068336"/>
      </g>
     </g>
     <g id="text_67">
      <!-- 1.00 -->
      <g transform="translate(521.661434 402.867555)scale(0.1 -0.1)">
       <use xlink:href="#DejaVuSans-49"/>
       <use x="63.623047" xlink:href="#DejaVuSans-46"/>
       <use x="95.410156" xlink:href="#DejaVuSans-48"/>
       <use x="159.033203" xlink:href="#DejaVuSans-48"/>
      </g>
     </g>
    </g>
   </g>
   <g id="line2d_76">
    <path clip-path="url(#p102dfa49b3)" d="M 565.250053 533.348499 
L 566.479495 534.779202 
L 568.938378 539.989633 
L 570.16782 541.575849 
L 571.397261 541.748968 
L 572.626703 540.64014 
L 575.085586 537.029981 
L 576.315028 536.38617 
L 577.544469 537.421684 
L 578.773911 539.81681 
L 580.003353 542.466229 
L 581.232794 544.176337 
L 582.462236 544.336069 
L 583.691677 543.054125 
L 586.150561 538.644723 
L 587.380002 537.203183 
L 588.609444 537.298047 
L 589.838885 539.001032 
L 591.068327 541.498287 
L 592.297769 543.520857 
L 593.52721 544.155723 
L 594.756652 543.29048 
L 597.215535 539.558617 
L 598.444977 538.255873 
L 599.674418 538.199341 
L 600.90386 539.582679 
L 602.133302 541.796116 
L 603.362743 543.551954 
L 604.592185 543.693687 
L 605.821626 541.962437 
L 609.509951 533.078717 
L 610.739393 531.672534 
L 611.968834 531.785628 
L 613.198276 532.914958 
L 614.427718 533.819465 
L 615.657159 533.418868 
L 616.886601 531.470407 
L 619.345484 525.615453 
L 620.574926 523.387786 
L 621.804367 522.403117 
L 623.033809 522.734577 
L 624.26325 523.71674 
L 625.492692 524.094844 
L 626.722134 522.797497 
L 627.951575 519.676203 
L 630.410458 511.219801 
L 631.6399 507.751002 
L 632.869342 505.59003 
L 634.098783 504.795609 
L 635.328225 504.730677 
L 636.557666 504.237639 
L 637.787108 502.414426 
L 639.01655 499.316584 
L 640.245991 495.84822 
L 641.475433 493.046316 
L 642.704874 492.275717 
L 643.934316 494.056556 
L 645.163758 495.447224 
L 646.393199 495.0201 
L 647.622641 494.365813 
L 650.081524 490.899928 
L 651.310966 491.275539 
L 652.540407 493.164326 
L 653.769849 493.637612 
L 654.99929 491.86849 
L 656.228732 490.319096 
L 657.458174 490.945121 
L 658.687615 492.6622 
L 659.917057 493.157714 
L 662.37594 491.517027 
L 663.605382 491.385532 
L 664.834823 491.480171 
L 666.064265 491.772877 
L 667.293706 492.181929 
L 668.523148 491.612947 
L 669.75259 489.779158 
L 670.982031 488.461011 
L 672.211473 488.95665 
L 673.440914 489.660681 
L 674.670356 488.36069 
L 675.899798 485.739356 
L 677.129239 484.547912 
L 678.358681 485.201296 
L 679.588122 485.341565 
L 680.817564 483.641647 
L 682.047006 481.553378 
L 683.276447 480.631296 
L 684.505889 480.343428 
L 685.73533 479.569833 
L 688.194214 477.07934 
L 690.653097 474.001425 
L 691.882538 473.070332 
L 693.11198 472.74669 
L 694.341422 471.710836 
L 695.570863 469.509141 
L 696.800305 467.560752 
L 698.029746 467.315325 
L 699.259188 467.660614 
L 700.48863 466.440779 
L 701.718071 463.912769 
L 702.947513 462.701486 
L 704.176954 463.070338 
L 705.406396 463.076694 
L 706.635838 461.520096 
L 707.865279 459.59312 
L 709.094721 458.716417 
L 710.324162 458.616801 
L 711.553604 457.938284 
L 712.783046 456.373144 
L 714.012487 455.055351 
L 717.700812 452.707906 
L 720.159695 451.667571 
L 722.618578 449.305288 
L 723.84802 449.094572 
L 725.077462 449.667737 
L 726.306903 449.483869 
L 727.536345 448.016662 
L 728.765786 446.759483 
L 729.995228 447.094827 
L 731.22467 448.148817 
L 732.454111 447.999855 
L 733.683553 446.517175 
L 734.912994 445.574778 
L 736.142436 446.347932 
L 737.371878 447.715733 
L 738.601319 448.00061 
L 739.830761 447.325346 
L 741.060202 447.23803 
L 742.289644 448.499019 
L 743.519086 450.176646 
L 744.748527 451.230129 
L 745.977969 451.798956 
L 747.20741 452.607703 
L 748.436852 453.844771 
L 750.895735 456.760802 
L 752.125177 458.384883 
L 753.354618 459.809179 
L 754.58406 460.87593 
L 755.813502 462.458638 
L 757.042943 466.437462 
L 758.272385 465.724992 
L 759.501826 463.327771 
L 760.731268 462.786737 
L 761.96071 463.394552 
L 763.190151 463.487293 
L 764.419593 464.064144 
L 765.649034 465.658311 
L 766.878476 465.564248 
L 768.107918 462.44455 
L 769.337359 460.485443 
L 770.566801 463.61495 
L 771.796242 468.124203 
L 773.025684 467.816229 
L 774.255126 464.107041 
L 775.484567 463.358686 
L 776.714009 466.115459 
L 777.94345 467.408996 
L 779.172892 466.537146 
L 780.402334 466.958872 
L 781.631775 467.500347 
L 782.861217 464.537943 
L 784.090658 461.280314 
L 785.3201 463.005505 
L 786.549542 465.959539 
L 787.778983 463.583934 
L 789.008425 459.065543 
L 790.237866 458.517792 
L 791.467308 458.977918 
L 792.69675 456.796014 
L 793.926191 456.642749 
L 795.155633 459.635296 
L 796.385074 458.173538 
L 797.614516 452.638477 
L 798.843958 451.852885 
L 800.073399 454.236495 
L 801.302841 452.860582 
L 802.532282 452.99039 
L 803.761724 456.971698 
L 804.991166 456.068853 
L 806.220607 451.543278 
L 807.450049 453.157009 
L 808.67949 455.317514 
L 809.908932 452.826069 
L 811.138374 454.868003 
L 812.367815 458.056333 
L 813.597257 453.153006 
L 814.826698 450.519955 
L 816.05614 452.374005 
L 817.285582 448.018997 
L 818.515023 446.267094 
L 819.744465 449.87277 
L 820.973906 445.279848 
L 822.203348 441.349784 
L 823.43279 442.542477 
L 824.662231 435.996314 
L 825.891673 433.153875 
L 827.121115 436.368022 
L 828.350556 431.385104 
L 829.579998 431.20377 
L 830.809439 433.150819 
L 832.038881 425.782553 
L 833.268323 425.875471 
L 834.497764 425.295349 
L 835.727206 418.902672 
L 836.956647 422.205147 
L 838.186089 419.79263 
L 839.415531 414.779954 
L 840.644972 416.984852 
L 841.874414 410.810416 
L 843.103855 408.458299 
L 844.333297 412.68181 
L 846.79218 401.938331 
L 848.021622 401.848548 
L 849.251063 394.009746 
L 850.480505 394.719892 
L 851.709947 393.450218 
L 851.709947 393.450218 
" style="fill:none;stroke:#ff796c;stroke-linecap:square;stroke-width:1.5;"/>
   </g>
   <g id="line2d_77">
    <path clip-path="url(#p102dfa49b3)" d="M 565.250053 604.684721 
L 584.921119 604.783295 
L 594.756652 605.070468 
L 613.198276 605.980157 
L 619.345484 606.463598 
L 634.098783 607.766731 
L 651.310966 608.879114 
L 657.458174 608.827926 
L 667.293706 608.394643 
L 673.440914 608.433497 
L 684.505889 608.72243 
L 706.635838 608.634597 
L 711.553604 608.288442 
L 717.700812 607.929055 
L 721.389137 607.89343 
L 731.22467 607.924742 
L 736.142436 607.658762 
L 747.20741 606.723041 
L 755.813502 606.068148 
L 763.190151 605.30618 
L 765.649034 605.108256 
L 769.337359 605.130501 
L 771.796242 605.236475 
L 775.484567 605.741508 
L 784.090658 606.948735 
L 795.155633 607.83753 
L 798.843958 608.551696 
L 809.908932 610.767914 
L 825.891673 612.689962 
L 829.579998 613.280148 
L 833.268323 614.058428 
L 838.186089 615.012885 
L 846.79218 616.672993 
L 849.251063 617.655513 
L 851.709947 618.646582 
L 851.709947 618.646582 
" style="fill:none;stroke:#ffff14;stroke-linecap:square;stroke-width:1.5;"/>
   </g>
   <g id="line2d_78">
    <path clip-path="url(#p102dfa49b3)" d="M 565.250053 604.685523 
L 851.709947 604.629646 
L 851.709947 604.629646 
" style="fill:none;stroke:#014d4e;stroke-linecap:square;stroke-width:1.5;"/>
   </g>
   <g id="patch_23">
    <path d="M 550.927059 629.9064 
L 550.927059 382.1904 
" style="fill:none;stroke:#000000;stroke-linecap:square;stroke-linejoin:miter;stroke-width:0.8;"/>
   </g>
   <g id="patch_24">
    <path d="M 866.032941 629.9064 
L 866.032941 382.1904 
" style="fill:none;stroke:#000000;stroke-linecap:square;stroke-linejoin:miter;stroke-width:0.8;"/>
   </g>
   <g id="patch_25">
    <path d="M 550.927059 629.9064 
L 866.032941 629.9064 
" style="fill:none;stroke:#000000;stroke-linecap:square;stroke-linejoin:miter;stroke-width:0.8;"/>
   </g>
   <g id="patch_26">
    <path d="M 550.927059 382.1904 
L 866.032941 382.1904 
" style="fill:none;stroke:#000000;stroke-linecap:square;stroke-linejoin:miter;stroke-width:0.8;"/>
   </g>
   <g id="text_68">
    <!-- Lateral joint 4 -->
    <g transform="translate(666.814687 376.1904)scale(0.12 -0.12)">
     <use xlink:href="#DejaVuSans-76"/>
     <use x="55.712891" xlink:href="#DejaVuSans-97"/>
     <use x="116.992188" xlink:href="#DejaVuSans-116"/>
     <use x="156.201172" xlink:href="#DejaVuSans-101"/>
     <use x="217.724609" xlink:href="#DejaVuSans-114"/>
     <use x="258.837891" xlink:href="#DejaVuSans-97"/>
     <use x="320.117188" xlink:href="#DejaVuSans-108"/>
     <use x="347.900391" xlink:href="#DejaVuSans-32"/>
     <use x="379.6875" xlink:href="#DejaVuSans-106"/>
     <use x="407.470703" xlink:href="#DejaVuSans-111"/>
     <use x="468.652344" xlink:href="#DejaVuSans-105"/>
     <use x="496.435547" xlink:href="#DejaVuSans-110"/>
     <use x="559.814453" xlink:href="#DejaVuSans-116"/>
     <use x="599.023438" xlink:href="#DejaVuSans-32"/>
     <use x="630.810547" xlink:href="#DejaVuSans-52"/>
    </g>
   </g>
  </g>
  <g id="axes_6">
   <g id="patch_27">
    <path d="M 929.054118 629.9064 
L 1244.16 629.9064 
L 1244.16 382.1904 
L 929.054118 382.1904 
z
" style="fill:#ffffff;"/>
   </g>
   <g id="matplotlib.axis_11">
    <g id="xtick_26">
     <g id="line2d_79">
      <g>
       <use style="stroke:#000000;stroke-width:0.8;" x="929.054118" xlink:href="#m67b68f0769" y="629.9064"/>
      </g>
     </g>
     <g id="text_69">
      <!-- 0.0 -->
      <g transform="translate(921.102555 644.504838)scale(0.1 -0.1)">
       <use xlink:href="#DejaVuSans-48"/>
       <use x="63.623047" xlink:href="#DejaVuSans-46"/>
       <use x="95.410156" xlink:href="#DejaVuSans-48"/>
      </g>
     </g>
    </g>
    <g id="xtick_27">
     <g id="line2d_80">
      <g>
       <use style="stroke:#000000;stroke-width:0.8;" x="992.075294" xlink:href="#m67b68f0769" y="629.9064"/>
      </g>
     </g>
     <g id="text_70">
      <!-- 0.2 -->
      <g transform="translate(984.123732 644.504838)scale(0.1 -0.1)">
       <use xlink:href="#DejaVuSans-48"/>
       <use x="63.623047" xlink:href="#DejaVuSans-46"/>
       <use x="95.410156" xlink:href="#DejaVuSans-50"/>
      </g>
     </g>
    </g>
    <g id="xtick_28">
     <g id="line2d_81">
      <g>
       <use style="stroke:#000000;stroke-width:0.8;" x="1055.096471" xlink:href="#m67b68f0769" y="629.9064"/>
      </g>
     </g>
     <g id="text_71">
      <!-- 0.4 -->
      <g transform="translate(1047.144908 644.504838)scale(0.1 -0.1)">
       <use xlink:href="#DejaVuSans-48"/>
       <use x="63.623047" xlink:href="#DejaVuSans-46"/>
       <use x="95.410156" xlink:href="#DejaVuSans-52"/>
      </g>
     </g>
    </g>
    <g id="xtick_29">
     <g id="line2d_82">
      <g>
       <use style="stroke:#000000;stroke-width:0.8;" x="1118.117647" xlink:href="#m67b68f0769" y="629.9064"/>
      </g>
     </g>
     <g id="text_72">
      <!-- 0.6 -->
      <g transform="translate(1110.166085 644.504838)scale(0.1 -0.1)">
       <use xlink:href="#DejaVuSans-48"/>
       <use x="63.623047" xlink:href="#DejaVuSans-46"/>
       <use x="95.410156" xlink:href="#DejaVuSans-54"/>
      </g>
     </g>
    </g>
    <g id="xtick_30">
     <g id="line2d_83">
      <g>
       <use style="stroke:#000000;stroke-width:0.8;" x="1181.138824" xlink:href="#m67b68f0769" y="629.9064"/>
      </g>
     </g>
     <g id="text_73">
      <!-- 0.8 -->
      <g transform="translate(1173.187261 644.504838)scale(0.1 -0.1)">
       <use xlink:href="#DejaVuSans-48"/>
       <use x="63.623047" xlink:href="#DejaVuSans-46"/>
       <use x="95.410156" xlink:href="#DejaVuSans-56"/>
      </g>
     </g>
    </g>
    <g id="xtick_31">
     <g id="line2d_84">
      <g>
       <use style="stroke:#000000;stroke-width:0.8;" x="1244.16" xlink:href="#m67b68f0769" y="629.9064"/>
      </g>
     </g>
     <g id="text_74">
      <!-- 1.0 -->
      <g transform="translate(1236.208438 644.504838)scale(0.1 -0.1)">
       <use xlink:href="#DejaVuSans-49"/>
       <use x="63.623047" xlink:href="#DejaVuSans-46"/>
       <use x="95.410156" xlink:href="#DejaVuSans-48"/>
      </g>
     </g>
    </g>
   </g>
   <g id="matplotlib.axis_12">
    <g id="ytick_39">
     <g id="line2d_85">
      <g>
       <use style="stroke:#000000;stroke-width:0.8;" x="929.054118" xlink:href="#maa25eebfa8" y="629.9064"/>
      </g>
     </g>
     <g id="text_75">
      <!-- 0.0 -->
      <g transform="translate(906.150993 633.705619)scale(0.1 -0.1)">
       <use xlink:href="#DejaVuSans-48"/>
       <use x="63.623047" xlink:href="#DejaVuSans-46"/>
       <use x="95.410156" xlink:href="#DejaVuSans-48"/>
      </g>
     </g>
    </g>
    <g id="ytick_40">
     <g id="line2d_86">
      <g>
       <use style="stroke:#000000;stroke-width:0.8;" x="929.054118" xlink:href="#maa25eebfa8" y="580.3632"/>
      </g>
     </g>
     <g id="text_76">
      <!-- 0.2 -->
      <g transform="translate(906.150993 584.162419)scale(0.1 -0.1)">
       <use xlink:href="#DejaVuSans-48"/>
       <use x="63.623047" xlink:href="#DejaVuSans-46"/>
       <use x="95.410156" xlink:href="#DejaVuSans-50"/>
      </g>
     </g>
    </g>
    <g id="ytick_41">
     <g id="line2d_87">
      <g>
       <use style="stroke:#000000;stroke-width:0.8;" x="929.054118" xlink:href="#maa25eebfa8" y="530.82"/>
      </g>
     </g>
     <g id="text_77">
      <!-- 0.4 -->
      <g transform="translate(906.150993 534.619219)scale(0.1 -0.1)">
       <use xlink:href="#DejaVuSans-48"/>
       <use x="63.623047" xlink:href="#DejaVuSans-46"/>
       <use x="95.410156" xlink:href="#DejaVuSans-52"/>
      </g>
     </g>
    </g>
    <g id="ytick_42">
     <g id="line2d_88">
      <g>
       <use style="stroke:#000000;stroke-width:0.8;" x="929.054118" xlink:href="#maa25eebfa8" y="481.2768"/>
      </g>
     </g>
     <g id="text_78">
      <!-- 0.6 -->
      <g transform="translate(906.150993 485.076019)scale(0.1 -0.1)">
       <use xlink:href="#DejaVuSans-48"/>
       <use x="63.623047" xlink:href="#DejaVuSans-46"/>
       <use x="95.410156" xlink:href="#DejaVuSans-54"/>
      </g>
     </g>
    </g>
    <g id="ytick_43">
     <g id="line2d_89">
      <g>
       <use style="stroke:#000000;stroke-width:0.8;" x="929.054118" xlink:href="#maa25eebfa8" y="431.7336"/>
      </g>
     </g>
     <g id="text_79">
      <!-- 0.8 -->
      <g transform="translate(906.150993 435.532819)scale(0.1 -0.1)">
       <use xlink:href="#DejaVuSans-48"/>
       <use x="63.623047" xlink:href="#DejaVuSans-46"/>
       <use x="95.410156" xlink:href="#DejaVuSans-56"/>
      </g>
     </g>
    </g>
    <g id="ytick_44">
     <g id="line2d_90">
      <g>
       <use style="stroke:#000000;stroke-width:0.8;" x="929.054118" xlink:href="#maa25eebfa8" y="382.1904"/>
      </g>
     </g>
     <g id="text_80">
      <!-- 1.0 -->
      <g transform="translate(906.150993 385.989619)scale(0.1 -0.1)">
       <use xlink:href="#DejaVuSans-49"/>
       <use x="63.623047" xlink:href="#DejaVuSans-46"/>
       <use x="95.410156" xlink:href="#DejaVuSans-48"/>
      </g>
     </g>
    </g>
   </g>
   <g id="patch_28">
    <path d="M 929.054118 629.9064 
L 929.054118 382.1904 
" style="fill:none;stroke:#000000;stroke-linecap:square;stroke-linejoin:miter;stroke-width:0.8;"/>
   </g>
   <g id="patch_29">
    <path d="M 1244.16 629.9064 
L 1244.16 382.1904 
" style="fill:none;stroke:#000000;stroke-linecap:square;stroke-linejoin:miter;stroke-width:0.8;"/>
   </g>
   <g id="patch_30">
    <path d="M 929.054118 629.9064 
L 1244.16 629.9064 
" style="fill:none;stroke:#000000;stroke-linecap:square;stroke-linejoin:miter;stroke-width:0.8;"/>
   </g>
   <g id="patch_31">
    <path d="M 929.054118 382.1904 
L 1244.16 382.1904 
" style="fill:none;stroke:#000000;stroke-linecap:square;stroke-linejoin:miter;stroke-width:0.8;"/>
   </g>
  </g>
  <g id="legend_1">
   <g id="patch_32">
    <path d="M 1308.251562 377.53625 
L 1375.4 377.53625 
Q 1377.4 377.53625 1377.4 375.53625 
L 1377.4 332.22375 
Q 1377.4 330.22375 1375.4 330.22375 
L 1308.251562 330.22375 
Q 1306.251562 330.22375 1306.251562 332.22375 
L 1306.251562 375.53625 
Q 1306.251562 377.53625 1308.251562 377.53625 
z
" style="fill:#ffffff;opacity:0.8;stroke:#cccccc;stroke-linejoin:miter;"/>
   </g>
   <g id="line2d_91">
    <path d="M 1310.251562 338.322187 
L 1330.251562 338.322187 
" style="fill:none;stroke:#ff796c;stroke-linecap:square;stroke-width:1.5;"/>
   </g>
   <g id="line2d_92"/>
   <g id="text_81">
    <!-- Torque -->
    <defs>
     <path d="M -0.296875 72.90625 
L 61.375 72.90625 
L 61.375 64.59375 
L 35.5 64.59375 
L 35.5 0 
L 25.59375 0 
L 25.59375 64.59375 
L -0.296875 64.59375 
z
" id="DejaVuSans-84"/>
     <path d="M 14.796875 27.296875 
Q 14.796875 17.390625 18.875 11.75 
Q 22.953125 6.109375 30.078125 6.109375 
Q 37.203125 6.109375 41.296875 11.75 
Q 45.40625 17.390625 45.40625 27.296875 
Q 45.40625 37.203125 41.296875 42.84375 
Q 37.203125 48.484375 30.078125 48.484375 
Q 22.953125 48.484375 18.875 42.84375 
Q 14.796875 37.203125 14.796875 27.296875 
z
M 45.40625 8.203125 
Q 42.578125 3.328125 38.25 0.953125 
Q 33.9375 -1.421875 27.875 -1.421875 
Q 17.96875 -1.421875 11.734375 6.484375 
Q 5.515625 14.40625 5.515625 27.296875 
Q 5.515625 40.1875 11.734375 48.09375 
Q 17.96875 56 27.875 56 
Q 33.9375 56 38.25 53.625 
Q 42.578125 51.265625 45.40625 46.390625 
L 45.40625 54.6875 
L 54.390625 54.6875 
L 54.390625 -20.796875 
L 45.40625 -20.796875 
z
" id="DejaVuSans-113"/>
     <path d="M 8.5 21.578125 
L 8.5 54.6875 
L 17.484375 54.6875 
L 17.484375 21.921875 
Q 17.484375 14.15625 20.5 10.265625 
Q 23.53125 6.390625 29.59375 6.390625 
Q 36.859375 6.390625 41.078125 11.03125 
Q 45.3125 15.671875 45.3125 23.6875 
L 45.3125 54.6875 
L 54.296875 54.6875 
L 54.296875 0 
L 45.3125 0 
L 45.3125 8.40625 
Q 42.046875 3.421875 37.71875 1 
Q 33.40625 -1.421875 27.6875 -1.421875 
Q 18.265625 -1.421875 13.375 4.4375 
Q 8.5 10.296875 8.5 21.578125 
z
M 31.109375 56 
z
" id="DejaVuSans-117"/>
    </defs>
    <g transform="translate(1338.251562 341.822187)scale(0.1 -0.1)">
     <use xlink:href="#DejaVuSans-84"/>
     <use x="60.818359" xlink:href="#DejaVuSans-111"/>
     <use x="122" xlink:href="#DejaVuSans-114"/>
     <use x="163.097656" xlink:href="#DejaVuSans-113"/>
     <use x="226.574219" xlink:href="#DejaVuSans-117"/>
     <use x="289.953125" xlink:href="#DejaVuSans-101"/>
    </g>
   </g>
   <g id="line2d_93">
    <path d="M 1310.251562 353.000313 
L 1330.251562 353.000313 
" style="fill:none;stroke:#ffff14;stroke-linecap:square;stroke-width:1.5;"/>
   </g>
   <g id="line2d_94"/>
   <g id="text_82">
    <!-- q -->
    <g transform="translate(1338.251562 356.500313)scale(0.1 -0.1)">
     <use xlink:href="#DejaVuSans-113"/>
    </g>
   </g>
   <g id="line2d_95">
    <path d="M 1310.251562 367.678437 
L 1330.251562 367.678437 
" style="fill:none;stroke:#014d4e;stroke-linecap:square;stroke-width:1.5;"/>
   </g>
   <g id="line2d_96"/>
   <g id="text_83">
    <!-- q_des -->
    <defs>
     <path d="M 50.984375 -16.609375 
L 50.984375 -23.578125 
L -0.984375 -23.578125 
L -0.984375 -16.609375 
z
" id="DejaVuSans-95"/>
     <path d="M 45.40625 46.390625 
L 45.40625 75.984375 
L 54.390625 75.984375 
L 54.390625 0 
L 45.40625 0 
L 45.40625 8.203125 
Q 42.578125 3.328125 38.25 0.953125 
Q 33.9375 -1.421875 27.875 -1.421875 
Q 17.96875 -1.421875 11.734375 6.484375 
Q 5.515625 14.40625 5.515625 27.296875 
Q 5.515625 40.1875 11.734375 48.09375 
Q 17.96875 56 27.875 56 
Q 33.9375 56 38.25 53.625 
Q 42.578125 51.265625 45.40625 46.390625 
z
M 14.796875 27.296875 
Q 14.796875 17.390625 18.875 11.75 
Q 22.953125 6.109375 30.078125 6.109375 
Q 37.203125 6.109375 41.296875 11.75 
Q 45.40625 17.390625 45.40625 27.296875 
Q 45.40625 37.203125 41.296875 42.84375 
Q 37.203125 48.484375 30.078125 48.484375 
Q 22.953125 48.484375 18.875 42.84375 
Q 14.796875 37.203125 14.796875 27.296875 
z
" id="DejaVuSans-100"/>
     <path d="M 44.28125 53.078125 
L 44.28125 44.578125 
Q 40.484375 46.53125 36.375 47.5 
Q 32.28125 48.484375 27.875 48.484375 
Q 21.1875 48.484375 17.84375 46.4375 
Q 14.5 44.390625 14.5 40.28125 
Q 14.5 37.15625 16.890625 35.375 
Q 19.28125 33.59375 26.515625 31.984375 
L 29.59375 31.296875 
Q 39.15625 29.25 43.1875 25.515625 
Q 47.21875 21.78125 47.21875 15.09375 
Q 47.21875 7.46875 41.1875 3.015625 
Q 35.15625 -1.421875 24.609375 -1.421875 
Q 20.21875 -1.421875 15.453125 -0.5625 
Q 10.6875 0.296875 5.421875 2 
L 5.421875 11.28125 
Q 10.40625 8.6875 15.234375 7.390625 
Q 20.0625 6.109375 24.8125 6.109375 
Q 31.15625 6.109375 34.5625 8.28125 
Q 37.984375 10.453125 37.984375 14.40625 
Q 37.984375 18.0625 35.515625 20.015625 
Q 33.0625 21.96875 24.703125 23.78125 
L 21.578125 24.515625 
Q 13.234375 26.265625 9.515625 29.90625 
Q 5.8125 33.546875 5.8125 39.890625 
Q 5.8125 47.609375 11.28125 51.796875 
Q 16.75 56 26.8125 56 
Q 31.78125 56 36.171875 55.265625 
Q 40.578125 54.546875 44.28125 53.078125 
z
" id="DejaVuSans-115"/>
    </defs>
    <g transform="translate(1338.251562 371.178437)scale(0.1 -0.1)">
     <use xlink:href="#DejaVuSans-113"/>
     <use x="63.476562" xlink:href="#DejaVuSans-95"/>
     <use x="113.476562" xlink:href="#DejaVuSans-100"/>
     <use x="176.953125" xlink:href="#DejaVuSans-101"/>
     <use x="238.476562" xlink:href="#DejaVuSans-115"/>
    </g>
   </g>
  </g>
 </g>
 <defs>
  <clipPath id="pb12e08bb41">
   <rect height="247.716" width="315.105882" x="172.8" y="84.9312"/>
  </clipPath>
  <clipPath id="pf963a23a2c">
   <rect height="247.716" width="315.105882" x="550.927059" y="84.9312"/>
  </clipPath>
  <clipPath id="p14884595a5">
   <rect height="247.716" width="315.105882" x="929.054118" y="84.9312"/>
  </clipPath>
  <clipPath id="pcfad456d65">
   <rect height="247.716" width="315.105882" x="172.8" y="382.1904"/>
  </clipPath>
  <clipPath id="p102dfa49b3">
   <rect height="247.716" width="315.105882" x="550.927059" y="382.1904"/>
  </clipPath>
 </defs>
</svg>
