<?xml version="1.0" encoding="utf-8" standalone="no"?>
<!DOCTYPE svg PUBLIC "-//W3C//DTD SVG 1.1//EN"
  "http://www.w3.org/Graphics/SVG/1.1/DTD/svg11.dtd">
<!-- Created with matplotlib (https://matplotlib.org/) -->
<svg height="707.76pt" version="1.1" viewBox="0 0 1382.4 707.76" width="1382.4pt" xmlns="http://www.w3.org/2000/svg" xmlns:xlink="http://www.w3.org/1999/xlink">
 <defs>
  <style type="text/css">
*{stroke-linecap:butt;stroke-linejoin:round;}
  </style>
 </defs>
 <g id="figure_1">
  <g id="patch_1">
   <path d="M 0 707.76 
L 1382.4 707.76 
L 1382.4 0 
L 0 0 
z
" style="fill:#ffffff;"/>
  </g>
  <g id="axes_1">
   <g id="patch_2">
    <path d="M 172.8 629.9064 
L 659.781818 629.9064 
L 659.781818 84.9312 
L 172.8 84.9312 
z
" style="fill:#ffffff;"/>
   </g>
   <g id="matplotlib.axis_1">
    <g id="xtick_1">
     <g id="line2d_1">
      <defs>
       <path d="M 0 0 
L 0 3.5 
" id="m78dd110228" style="stroke:#000000;stroke-width:0.8;"/>
      </defs>
      <g>
       <use style="stroke:#000000;stroke-width:0.8;" x="194.935537" xlink:href="#m78dd110228" y="629.9064"/>
      </g>
     </g>
     <g id="text_1">
      <!-- 0 -->
      <defs>
       <path d="M 31.78125 66.40625 
Q 24.171875 66.40625 20.328125 58.90625 
Q 16.5 51.421875 16.5 36.375 
Q 16.5 21.390625 20.328125 13.890625 
Q 24.171875 6.390625 31.78125 6.390625 
Q 39.453125 6.390625 43.28125 13.890625 
Q 47.125 21.390625 47.125 36.375 
Q 47.125 51.421875 43.28125 58.90625 
Q 39.453125 66.40625 31.78125 66.40625 
z
M 31.78125 74.21875 
Q 44.046875 74.21875 50.515625 64.515625 
Q 56.984375 54.828125 56.984375 36.375 
Q 56.984375 17.96875 50.515625 8.265625 
Q 44.046875 -1.421875 31.78125 -1.421875 
Q 19.53125 -1.421875 13.0625 8.265625 
Q 6.59375 17.96875 6.59375 36.375 
Q 6.59375 54.828125 13.0625 64.515625 
Q 19.53125 74.21875 31.78125 74.21875 
z
" id="DejaVuSans-48"/>
      </defs>
      <g transform="translate(191.754287 644.504838)scale(0.1 -0.1)">
       <use xlink:href="#DejaVuSans-48"/>
      </g>
     </g>
    </g>
    <g id="xtick_2">
     <g id="line2d_2">
      <g>
       <use style="stroke:#000000;stroke-width:0.8;" x="256.42314" xlink:href="#m78dd110228" y="629.9064"/>
      </g>
     </g>
     <g id="text_2">
      <!-- 100 -->
      <defs>
       <path d="M 12.40625 8.296875 
L 28.515625 8.296875 
L 28.515625 63.921875 
L 10.984375 60.40625 
L 10.984375 69.390625 
L 28.421875 72.90625 
L 38.28125 72.90625 
L 38.28125 8.296875 
L 54.390625 8.296875 
L 54.390625 0 
L 12.40625 0 
z
" id="DejaVuSans-49"/>
      </defs>
      <g transform="translate(246.87939 644.504838)scale(0.1 -0.1)">
       <use xlink:href="#DejaVuSans-49"/>
       <use x="63.623047" xlink:href="#DejaVuSans-48"/>
       <use x="127.246094" xlink:href="#DejaVuSans-48"/>
      </g>
     </g>
    </g>
    <g id="xtick_3">
     <g id="line2d_3">
      <g>
       <use style="stroke:#000000;stroke-width:0.8;" x="317.910744" xlink:href="#m78dd110228" y="629.9064"/>
      </g>
     </g>
     <g id="text_3">
      <!-- 200 -->
      <defs>
       <path d="M 19.1875 8.296875 
L 53.609375 8.296875 
L 53.609375 0 
L 7.328125 0 
L 7.328125 8.296875 
Q 12.9375 14.109375 22.625 23.890625 
Q 32.328125 33.6875 34.8125 36.53125 
Q 39.546875 41.84375 41.421875 45.53125 
Q 43.3125 49.21875 43.3125 52.78125 
Q 43.3125 58.59375 39.234375 62.25 
Q 35.15625 65.921875 28.609375 65.921875 
Q 23.96875 65.921875 18.8125 64.3125 
Q 13.671875 62.703125 7.8125 59.421875 
L 7.8125 69.390625 
Q 13.765625 71.78125 18.9375 73 
Q 24.125 74.21875 28.421875 74.21875 
Q 39.75 74.21875 46.484375 68.546875 
Q 53.21875 62.890625 53.21875 53.421875 
Q 53.21875 48.921875 51.53125 44.890625 
Q 49.859375 40.875 45.40625 35.40625 
Q 44.1875 33.984375 37.640625 27.21875 
Q 31.109375 20.453125 19.1875 8.296875 
z
" id="DejaVuSans-50"/>
      </defs>
      <g transform="translate(308.366994 644.504838)scale(0.1 -0.1)">
       <use xlink:href="#DejaVuSans-50"/>
       <use x="63.623047" xlink:href="#DejaVuSans-48"/>
       <use x="127.246094" xlink:href="#DejaVuSans-48"/>
      </g>
     </g>
    </g>
    <g id="xtick_4">
     <g id="line2d_4">
      <g>
       <use style="stroke:#000000;stroke-width:0.8;" x="379.398347" xlink:href="#m78dd110228" y="629.9064"/>
      </g>
     </g>
     <g id="text_4">
      <!-- 300 -->
      <defs>
       <path d="M 40.578125 39.3125 
Q 47.65625 37.796875 51.625 33 
Q 55.609375 28.21875 55.609375 21.1875 
Q 55.609375 10.40625 48.1875 4.484375 
Q 40.765625 -1.421875 27.09375 -1.421875 
Q 22.515625 -1.421875 17.65625 -0.515625 
Q 12.796875 0.390625 7.625 2.203125 
L 7.625 11.71875 
Q 11.71875 9.328125 16.59375 8.109375 
Q 21.484375 6.890625 26.8125 6.890625 
Q 36.078125 6.890625 40.9375 10.546875 
Q 45.796875 14.203125 45.796875 21.1875 
Q 45.796875 27.640625 41.28125 31.265625 
Q 36.765625 34.90625 28.71875 34.90625 
L 20.21875 34.90625 
L 20.21875 43.015625 
L 29.109375 43.015625 
Q 36.375 43.015625 40.234375 45.921875 
Q 44.09375 48.828125 44.09375 54.296875 
Q 44.09375 59.90625 40.109375 62.90625 
Q 36.140625 65.921875 28.71875 65.921875 
Q 24.65625 65.921875 20.015625 65.03125 
Q 15.375 64.15625 9.8125 62.3125 
L 9.8125 71.09375 
Q 15.4375 72.65625 20.34375 73.4375 
Q 25.25 74.21875 29.59375 74.21875 
Q 40.828125 74.21875 47.359375 69.109375 
Q 53.90625 64.015625 53.90625 55.328125 
Q 53.90625 49.265625 50.4375 45.09375 
Q 46.96875 40.921875 40.578125 39.3125 
z
" id="DejaVuSans-51"/>
      </defs>
      <g transform="translate(369.854597 644.504838)scale(0.1 -0.1)">
       <use xlink:href="#DejaVuSans-51"/>
       <use x="63.623047" xlink:href="#DejaVuSans-48"/>
       <use x="127.246094" xlink:href="#DejaVuSans-48"/>
      </g>
     </g>
    </g>
    <g id="xtick_5">
     <g id="line2d_5">
      <g>
       <use style="stroke:#000000;stroke-width:0.8;" x="440.88595" xlink:href="#m78dd110228" y="629.9064"/>
      </g>
     </g>
     <g id="text_5">
      <!-- 400 -->
      <defs>
       <path d="M 37.796875 64.3125 
L 12.890625 25.390625 
L 37.796875 25.390625 
z
M 35.203125 72.90625 
L 47.609375 72.90625 
L 47.609375 25.390625 
L 58.015625 25.390625 
L 58.015625 17.1875 
L 47.609375 17.1875 
L 47.609375 0 
L 37.796875 0 
L 37.796875 17.1875 
L 4.890625 17.1875 
L 4.890625 26.703125 
z
" id="DejaVuSans-52"/>
      </defs>
      <g transform="translate(431.3422 644.504838)scale(0.1 -0.1)">
       <use xlink:href="#DejaVuSans-52"/>
       <use x="63.623047" xlink:href="#DejaVuSans-48"/>
       <use x="127.246094" xlink:href="#DejaVuSans-48"/>
      </g>
     </g>
    </g>
    <g id="xtick_6">
     <g id="line2d_6">
      <g>
       <use style="stroke:#000000;stroke-width:0.8;" x="502.373554" xlink:href="#m78dd110228" y="629.9064"/>
      </g>
     </g>
     <g id="text_6">
      <!-- 500 -->
      <defs>
       <path d="M 10.796875 72.90625 
L 49.515625 72.90625 
L 49.515625 64.59375 
L 19.828125 64.59375 
L 19.828125 46.734375 
Q 21.96875 47.46875 24.109375 47.828125 
Q 26.265625 48.1875 28.421875 48.1875 
Q 40.625 48.1875 47.75 41.5 
Q 54.890625 34.8125 54.890625 23.390625 
Q 54.890625 11.625 47.5625 5.09375 
Q 40.234375 -1.421875 26.90625 -1.421875 
Q 22.3125 -1.421875 17.546875 -0.640625 
Q 12.796875 0.140625 7.71875 1.703125 
L 7.71875 11.625 
Q 12.109375 9.234375 16.796875 8.0625 
Q 21.484375 6.890625 26.703125 6.890625 
Q 35.15625 6.890625 40.078125 11.328125 
Q 45.015625 15.765625 45.015625 23.390625 
Q 45.015625 31 40.078125 35.4375 
Q 35.15625 39.890625 26.703125 39.890625 
Q 22.75 39.890625 18.8125 39.015625 
Q 14.890625 38.140625 10.796875 36.28125 
z
" id="DejaVuSans-53"/>
      </defs>
      <g transform="translate(492.829804 644.504838)scale(0.1 -0.1)">
       <use xlink:href="#DejaVuSans-53"/>
       <use x="63.623047" xlink:href="#DejaVuSans-48"/>
       <use x="127.246094" xlink:href="#DejaVuSans-48"/>
      </g>
     </g>
    </g>
    <g id="xtick_7">
     <g id="line2d_7">
      <g>
       <use style="stroke:#000000;stroke-width:0.8;" x="563.861157" xlink:href="#m78dd110228" y="629.9064"/>
      </g>
     </g>
     <g id="text_7">
      <!-- 600 -->
      <defs>
       <path d="M 33.015625 40.375 
Q 26.375 40.375 22.484375 35.828125 
Q 18.609375 31.296875 18.609375 23.390625 
Q 18.609375 15.53125 22.484375 10.953125 
Q 26.375 6.390625 33.015625 6.390625 
Q 39.65625 6.390625 43.53125 10.953125 
Q 47.40625 15.53125 47.40625 23.390625 
Q 47.40625 31.296875 43.53125 35.828125 
Q 39.65625 40.375 33.015625 40.375 
z
M 52.59375 71.296875 
L 52.59375 62.3125 
Q 48.875 64.0625 45.09375 64.984375 
Q 41.3125 65.921875 37.59375 65.921875 
Q 27.828125 65.921875 22.671875 59.328125 
Q 17.53125 52.734375 16.796875 39.40625 
Q 19.671875 43.65625 24.015625 45.921875 
Q 28.375 48.1875 33.59375 48.1875 
Q 44.578125 48.1875 50.953125 41.515625 
Q 57.328125 34.859375 57.328125 23.390625 
Q 57.328125 12.15625 50.6875 5.359375 
Q 44.046875 -1.421875 33.015625 -1.421875 
Q 20.359375 -1.421875 13.671875 8.265625 
Q 6.984375 17.96875 6.984375 36.375 
Q 6.984375 53.65625 15.1875 63.9375 
Q 23.390625 74.21875 37.203125 74.21875 
Q 40.921875 74.21875 44.703125 73.484375 
Q 48.484375 72.75 52.59375 71.296875 
z
" id="DejaVuSans-54"/>
      </defs>
      <g transform="translate(554.317407 644.504838)scale(0.1 -0.1)">
       <use xlink:href="#DejaVuSans-54"/>
       <use x="63.623047" xlink:href="#DejaVuSans-48"/>
       <use x="127.246094" xlink:href="#DejaVuSans-48"/>
      </g>
     </g>
    </g>
    <g id="xtick_8">
     <g id="line2d_8">
      <g>
       <use style="stroke:#000000;stroke-width:0.8;" x="625.34876" xlink:href="#m78dd110228" y="629.9064"/>
      </g>
     </g>
     <g id="text_8">
      <!-- 700 -->
      <defs>
       <path d="M 8.203125 72.90625 
L 55.078125 72.90625 
L 55.078125 68.703125 
L 28.609375 0 
L 18.3125 0 
L 43.21875 64.59375 
L 8.203125 64.59375 
z
" id="DejaVuSans-55"/>
      </defs>
      <g transform="translate(615.80501 644.504838)scale(0.1 -0.1)">
       <use xlink:href="#DejaVuSans-55"/>
       <use x="63.623047" xlink:href="#DejaVuSans-48"/>
       <use x="127.246094" xlink:href="#DejaVuSans-48"/>
      </g>
     </g>
    </g>
   </g>
   <g id="matplotlib.axis_2">
    <g id="ytick_1">
     <g id="line2d_9">
      <defs>
       <path d="M 0 0 
L -3.5 0 
" id="m19aaa52b06" style="stroke:#000000;stroke-width:0.8;"/>
      </defs>
      <g>
       <use style="stroke:#000000;stroke-width:0.8;" x="172.8" xlink:href="#m19aaa52b06" y="585.735421"/>
      </g>
     </g>
     <g id="text_9">
      <!-- −0.4 -->
      <defs>
       <path d="M 10.59375 35.5 
L 73.1875 35.5 
L 73.1875 27.203125 
L 10.59375 27.203125 
z
" id="DejaVuSans-8722"/>
       <path d="M 10.6875 12.40625 
L 21 12.40625 
L 21 0 
L 10.6875 0 
z
" id="DejaVuSans-46"/>
      </defs>
      <g transform="translate(141.517187 589.53464)scale(0.1 -0.1)">
       <use xlink:href="#DejaVuSans-8722"/>
       <use x="83.789062" xlink:href="#DejaVuSans-48"/>
       <use x="147.412109" xlink:href="#DejaVuSans-46"/>
       <use x="179.199219" xlink:href="#DejaVuSans-52"/>
      </g>
     </g>
    </g>
    <g id="ytick_2">
     <g id="line2d_10">
      <g>
       <use style="stroke:#000000;stroke-width:0.8;" x="172.8" xlink:href="#m19aaa52b06" y="482.666747"/>
      </g>
     </g>
     <g id="text_10">
      <!-- −0.2 -->
      <g transform="translate(141.517187 486.465966)scale(0.1 -0.1)">
       <use xlink:href="#DejaVuSans-8722"/>
       <use x="83.789062" xlink:href="#DejaVuSans-48"/>
       <use x="147.412109" xlink:href="#DejaVuSans-46"/>
       <use x="179.199219" xlink:href="#DejaVuSans-50"/>
      </g>
     </g>
    </g>
    <g id="ytick_3">
     <g id="line2d_11">
      <g>
       <use style="stroke:#000000;stroke-width:0.8;" x="172.8" xlink:href="#m19aaa52b06" y="379.598073"/>
      </g>
     </g>
     <g id="text_11">
      <!-- 0.0 -->
      <g transform="translate(149.896875 383.397292)scale(0.1 -0.1)">
       <use xlink:href="#DejaVuSans-48"/>
       <use x="63.623047" xlink:href="#DejaVuSans-46"/>
       <use x="95.410156" xlink:href="#DejaVuSans-48"/>
      </g>
     </g>
    </g>
    <g id="ytick_4">
     <g id="line2d_12">
      <g>
       <use style="stroke:#000000;stroke-width:0.8;" x="172.8" xlink:href="#m19aaa52b06" y="276.529399"/>
      </g>
     </g>
     <g id="text_12">
      <!-- 0.2 -->
      <g transform="translate(149.896875 280.328618)scale(0.1 -0.1)">
       <use xlink:href="#DejaVuSans-48"/>
       <use x="63.623047" xlink:href="#DejaVuSans-46"/>
       <use x="95.410156" xlink:href="#DejaVuSans-50"/>
      </g>
     </g>
    </g>
    <g id="ytick_5">
     <g id="line2d_13">
      <g>
       <use style="stroke:#000000;stroke-width:0.8;" x="172.8" xlink:href="#m19aaa52b06" y="173.460725"/>
      </g>
     </g>
     <g id="text_13">
      <!-- 0.4 -->
      <g transform="translate(149.896875 177.259944)scale(0.1 -0.1)">
       <use xlink:href="#DejaVuSans-48"/>
       <use x="63.623047" xlink:href="#DejaVuSans-46"/>
       <use x="95.410156" xlink:href="#DejaVuSans-52"/>
      </g>
     </g>
    </g>
   </g>
   <g id="line2d_14">
    <path clip-path="url(#p78d953ad33)" d="M 194.935537 379.532618 
L 195.550413 379.705534 
L 196.165289 379.99969 
L 196.780165 379.75763 
L 198.009917 380.011696 
L 198.624793 379.810688 
L 199.239669 380.083553 
L 200.469421 379.984533 
L 201.084298 380.200196 
L 201.699174 380.135654 
L 202.31405 380.191342 
L 202.928926 380.377073 
L 203.543802 380.337009 
L 204.773554 380.49233 
L 206.003306 380.596735 
L 209.077686 380.994047 
L 212.152066 381.332406 
L 215.226446 381.801721 
L 216.456198 381.93047 
L 226.909091 383.249401 
L 227.523967 383.241028 
L 228.138843 383.364631 
L 229.368595 383.443608 
L 231.213223 383.606562 
L 231.828099 383.544563 
L 232.442975 383.667342 
L 233.057851 383.600081 
L 234.287603 383.663261 
L 240.436364 383.679122 
L 241.05124 383.764102 
L 241.666116 383.659574 
L 242.280992 383.73962 
L 243.510744 383.689966 
L 245.355372 383.755646 
L 245.970248 383.644962 
L 246.585124 383.758197 
L 247.2 383.67868 
L 248.429752 383.733424 
L 249.044628 383.691721 
L 249.659504 383.774945 
L 250.27438 383.682195 
L 250.889256 383.790471 
L 251.504132 383.720034 
L 252.733884 383.795457 
L 253.34876 383.774103 
L 253.963636 383.878471 
L 254.578512 383.793247 
L 255.193388 383.935127 
L 255.808264 383.854797 
L 256.42314 383.958743 
L 257.652893 383.97113 
L 259.497521 384.127953 
L 260.112397 384.075792 
L 261.342149 384.199845 
L 267.490909 384.752982 
L 268.105785 384.886687 
L 268.720661 384.869462 
L 269.335537 385.025098 
L 269.950413 385.024794 
L 271.180165 385.19804 
L 273.024793 385.336217 
L 273.639669 385.481475 
L 274.254545 385.452892 
L 275.484298 385.580456 
L 281.018182 385.83033 
L 282.86281 385.729483 
L 283.477686 385.783958 
L 284.707438 385.687609 
L 289.01157 385.257898 
L 291.471074 384.797071 
L 292.08595 384.760312 
L 292.700826 384.56244 
L 293.315702 384.512546 
L 294.545455 384.229867 
L 297.619835 383.531765 
L 300.079339 382.838301 
L 300.694215 382.743033 
L 301.309091 382.495481 
L 301.923967 382.42119 
L 302.538843 382.175556 
L 303.768595 381.876046 
L 309.917355 380.312155 
L 310.532231 380.252886 
L 311.147107 380.02251 
L 311.761983 380.023755 
L 312.37686 379.771533 
L 312.991736 379.78917 
L 313.606612 379.564696 
L 314.221488 379.552754 
L 315.45124 379.334071 
L 318.52562 378.955704 
L 320.370248 378.873362 
L 320.985124 378.72934 
L 321.6 378.810885 
L 322.214876 378.667016 
L 322.829752 378.740927 
L 323.444628 378.64167 
L 324.67438 378.639636 
L 328.363636 378.614 
L 330.208264 378.67135 
L 330.82314 378.579067 
L 331.438017 378.675764 
L 332.052893 378.58703 
L 332.667769 378.656712 
L 333.897521 378.622748 
L 336.971901 378.585999 
L 339.431405 378.416386 
L 340.046281 378.435626 
L 340.661157 378.316584 
L 341.276033 378.335803 
L 342.505785 378.196529 
L 348.039669 377.351158 
L 351.11405 376.732312 
L 351.728926 376.552429 
L 352.343802 376.555758 
L 352.958678 376.052902 
L 353.573554 376.413574 
L 354.18843 375.687603 
L 354.803306 376.095486 
L 355.418182 375.501677 
L 356.033058 375.621466 
L 356.647934 375.431384 
L 357.26281 375.105192 
L 357.877686 375.346126 
L 358.492562 374.686107 
L 359.107438 375.131262 
L 359.722314 374.449877 
L 360.33719 374.758033 
L 360.952066 374.381449 
L 361.566942 374.301262 
L 362.181818 374.378798 
L 362.796694 373.895695 
L 363.41157 374.316109 
L 364.026446 373.658341 
L 364.641322 374.119489 
L 365.256198 373.622877 
L 365.871074 373.811134 
L 366.48595 373.723429 
L 367.100826 373.497241 
L 367.715702 373.836322 
L 368.330579 373.307163 
L 368.945455 373.85423 
L 369.560331 373.319604 
L 370.175207 373.749213 
L 370.790083 373.518586 
L 371.404959 373.588567 
L 372.019835 373.804298 
L 372.634711 373.495301 
L 373.249587 374.052141 
L 373.864463 373.863956 
L 375.094215 374.215778 
L 375.709091 374.020822 
L 376.323967 374.542379 
L 376.938843 374.177127 
L 377.553719 374.784221 
L 378.168595 374.534833 
L 378.783471 374.949137 
L 380.013223 375.102658 
L 380.628099 375.589574 
L 381.242975 375.335472 
L 381.857851 376.051268 
L 382.472727 375.71686 
L 383.087603 376.379426 
L 383.702479 376.254543 
L 384.932231 376.880812 
L 385.547107 376.89765 
L 386.161983 377.113133 
L 386.77686 377.644397 
L 387.391736 377.428512 
L 388.006612 378.317769 
L 388.621488 377.915302 
L 389.236364 378.799674 
L 389.85124 378.570471 
L 390.466116 379.083842 
L 391.080992 379.319975 
L 391.695868 379.291573 
L 392.310744 380.026912 
L 392.92562 379.608327 
L 393.540496 380.571278 
L 394.155372 380.146862 
L 394.770248 380.930784 
L 395.385124 380.863198 
L 396 381.168769 
L 396.614876 381.599876 
L 397.229752 381.405045 
L 397.844628 382.173769 
L 398.459504 381.747225 
L 399.07438 382.488712 
L 399.689256 382.234456 
L 400.304132 382.592206 
L 400.919008 382.800867 
L 401.533884 382.641789 
L 402.14876 383.313291 
L 402.763636 382.799809 
L 403.378512 383.642854 
L 403.993388 383.134004 
L 404.608264 383.743327 
L 405.22314 383.58073 
L 405.838017 383.683177 
L 406.452893 383.990752 
L 407.067769 383.609918 
L 407.682645 384.223091 
L 408.297521 383.66261 
L 408.912397 384.227674 
L 409.527273 383.885235 
L 410.757025 384.1961 
L 411.371901 383.88228 
L 411.986777 384.436254 
L 412.601653 383.794049 
L 413.216529 384.469013 
L 413.831405 383.853251 
L 414.446281 384.268205 
L 415.061157 384.010428 
L 415.676033 383.938002 
L 416.290909 384.15116 
L 416.905785 383.650161 
L 417.520661 384.162581 
L 418.135537 383.538212 
L 418.750413 383.996528 
L 419.365289 383.616401 
L 420.595041 383.774928 
L 421.209917 383.378193 
L 421.824793 383.853349 
L 422.439669 383.164796 
L 423.054545 383.744045 
L 423.669421 383.124497 
L 424.284298 383.459857 
L 424.899174 383.230258 
L 425.51405 383.125007 
L 426.128926 383.374945 
L 426.743802 382.898128 
L 427.358678 383.433716 
L 427.973554 382.877833 
L 428.58843 383.340658 
L 429.203306 383.048984 
L 430.433058 383.299407 
L 431.047934 382.940084 
L 431.66281 383.49258 
L 432.277686 382.899913 
L 432.892562 383.549902 
L 433.507438 383.461152 
L 434.122314 383.158777 
L 434.73719 384.006749 
L 435.352066 383.006967 
L 435.966942 383.913394 
L 436.581818 383.604348 
L 437.196694 383.678966 
L 437.81157 384.266391 
L 438.426446 383.885607 
L 439.041322 384.446051 
L 439.656198 384.28303 
L 440.88595 384.733135 
L 441.500826 384.577447 
L 442.115702 385.143288 
L 442.730579 384.778585 
L 443.345455 385.432827 
L 443.960331 385.189726 
L 444.575207 385.612701 
L 445.804959 385.761488 
L 446.419835 386.267206 
L 447.034711 385.973905 
L 447.649587 386.632596 
L 448.264463 386.305981 
L 448.879339 386.795469 
L 449.494215 386.738772 
L 450.109091 386.84155 
L 450.723967 387.183796 
L 451.338843 386.923533 
L 451.953719 387.523349 
L 452.568595 387.152417 
L 453.183471 387.689127 
L 453.798347 387.514497 
L 455.028099 387.886552 
L 455.642975 387.652881 
L 456.257851 388.115926 
L 456.872727 387.65659 
L 457.487603 388.119817 
L 458.102479 387.763862 
L 458.717355 387.93058 
L 459.332231 387.698369 
L 459.947107 387.919106 
L 460.561983 387.597357 
L 461.17686 387.809462 
L 461.791736 387.537611 
L 462.406612 387.560195 
L 463.021488 387.452454 
L 463.636364 387.206067 
L 464.25124 387.251094 
L 464.866116 386.815201 
L 465.480992 386.878128 
L 466.095868 386.439102 
L 466.710744 386.346865 
L 467.940496 385.735461 
L 468.555372 385.652762 
L 469.170248 385.125145 
L 469.785124 385.096846 
L 470.4 384.543353 
L 471.014876 384.373979 
L 472.244628 383.519159 
L 472.859504 383.283119 
L 473.47438 382.622498 
L 474.089256 382.472662 
L 474.704132 382.141513 
L 475.319008 381.199732 
L 475.933884 381.123484 
L 477.163636 379.909319 
L 477.778512 379.824929 
L 478.393388 378.867206 
L 479.008264 378.776455 
L 479.62314 378.034402 
L 481.467769 376.526037 
L 482.082645 375.875359 
L 482.697521 375.651119 
L 483.312397 374.627322 
L 483.927273 374.650868 
L 484.542149 373.592174 
L 485.157025 373.494439 
L 485.771901 372.75951 
L 486.386777 372.250784 
L 487.001653 371.983831 
L 487.616529 371.054909 
L 488.231405 371.081156 
L 488.846281 370.027835 
L 489.461157 369.974523 
L 490.076033 369.189753 
L 491.305785 368.45021 
L 491.920661 367.612538 
L 492.535537 367.675768 
L 493.150413 366.919432 
L 494.380165 366.369669 
L 494.995041 365.605741 
L 495.609917 365.759591 
L 496.224793 364.811075 
L 496.839669 364.967811 
L 497.454545 364.25228 
L 498.684298 363.833034 
L 499.299174 363.184174 
L 499.91405 363.398684 
L 500.528926 362.568584 
L 501.143802 362.846784 
L 501.758678 362.248834 
L 502.98843 362.097628 
L 503.603306 361.599782 
L 504.218182 361.908339 
L 504.833058 361.191408 
L 505.447934 361.548992 
L 506.06281 361.029654 
L 507.292562 361.027339 
L 507.907438 360.623653 
L 508.522314 361.017498 
L 509.13719 360.419621 
L 509.752066 360.875641 
L 510.366942 360.488297 
L 511.596694 360.694633 
L 512.21157 360.367562 
L 512.826446 360.829294 
L 513.441322 360.295755 
L 514.056198 360.767579 
L 514.671074 360.445842 
L 515.28595 360.562777 
L 515.900826 361.088985 
L 516.515702 360.088879 
L 517.130579 361.423933 
L 517.745455 360.133007 
L 518.360331 361.222745 
L 518.975207 360.697755 
L 519.590083 360.689949 
L 520.204959 360.995499 
L 520.819835 360.721655 
L 521.434711 361.459974 
L 522.049587 359.915095 
L 522.664463 361.695015 
L 523.279339 360.651079 
L 523.894215 360.772654 
L 524.509091 361.532148 
L 525.123967 359.97394 
L 525.738843 361.879719 
L 526.353719 359.767216 
L 526.968595 361.426119 
L 527.583471 360.521072 
L 528.198347 360.347565 
L 528.813223 361.414531 
L 529.428099 359.523223 
L 530.042975 361.592591 
L 530.657851 359.535942 
L 531.272727 360.785314 
L 532.502479 359.530003 
L 533.117355 360.843196 
L 533.732231 358.713918 
L 534.347107 360.656582 
L 534.961983 358.818263 
L 535.57686 359.611308 
L 536.191736 359.509823 
L 536.806612 358.360087 
L 537.421488 359.931931 
L 538.036364 357.708268 
L 538.65124 359.445449 
L 539.266116 357.924022 
L 540.495868 358.512974 
L 541.110744 356.929569 
L 541.72562 358.652242 
L 542.340496 356.457663 
L 542.955372 357.909352 
L 543.570248 356.853178 
L 544.185124 356.622461 
L 544.8 357.456089 
L 545.414876 355.610759 
L 546.029752 357.44278 
L 546.644628 355.466145 
L 547.259504 356.552113 
L 547.87438 356.043625 
L 548.489256 355.32005 
L 549.104132 356.597253 
L 549.719008 354.616184 
L 550.333884 356.445353 
L 550.94876 354.886056 
L 551.563636 355.581444 
L 552.178512 355.767031 
L 552.793388 354.689885 
L 553.408264 356.418115 
L 554.02314 354.546804 
L 554.638017 356.277856 
L 555.252893 355.333831 
L 555.867769 355.576189 
L 556.482645 356.47983 
L 557.097521 355.13764 
L 557.712397 357.181032 
L 558.327273 355.644096 
L 558.942149 357.138269 
L 560.171901 356.841184 
L 560.786777 358.498994 
L 561.401653 357.128501 
L 562.016529 359.338029 
L 562.631405 358.416159 
L 563.246281 359.504885 
L 563.861157 360.306409 
L 564.476033 359.719925 
L 565.090909 361.955035 
L 565.705785 360.992889 
L 566.320661 362.713265 
L 566.935537 363.086082 
L 567.550413 363.274068 
L 568.165289 365.259939 
L 568.780165 364.4385 
L 569.395041 366.819754 
L 570.009917 366.548993 
L 570.624793 367.756255 
L 571.239669 369.211019 
L 571.854545 368.784249 
L 572.469421 371.482067 
L 573.084298 370.740094 
L 573.699174 372.929743 
L 574.928926 374.07443 
L 575.543802 376.470466 
L 576.158678 375.838754 
L 576.773554 378.606932 
L 577.38843 378.607472 
L 578.003306 380.036426 
L 578.618182 381.806178 
L 579.233058 381.601756 
L 579.847934 384.466741 
L 580.46281 384.059333 
L 581.077686 386.220858 
L 581.692562 387.266959 
L 582.307438 387.689479 
L 582.922314 390.30606 
L 583.53719 389.818436 
L 584.152066 392.451224 
L 584.766942 392.852445 
L 585.381818 393.932022 
L 585.996694 396.04483 
L 586.61157 395.681081 
L 587.226446 398.437193 
L 587.841322 398.297248 
L 589.071074 401.363097 
L 589.68595 401.257039 
L 590.300826 403.668845 
L 590.915702 403.513508 
L 591.530579 405.120634 
L 592.145455 406.218289 
L 592.760331 406.328638 
L 593.375207 408.503238 
L 593.990083 408.056443 
L 594.604959 409.84205 
L 595.219835 410.332204 
L 595.834711 410.636904 
L 596.449587 412.394653 
L 597.064463 411.747662 
L 597.679339 413.555288 
L 598.294215 413.49143 
L 598.909091 413.990312 
L 599.523967 415.265953 
L 600.138843 414.53354 
L 600.753719 416.242665 
L 601.368595 415.695224 
L 602.598347 417.051084 
L 603.213223 416.267046 
L 603.828099 417.730911 
L 604.442975 416.75341 
L 605.057851 417.445918 
L 605.672727 417.606297 
L 606.287603 416.830315 
L 606.902479 417.987266 
L 607.517355 416.690557 
L 608.132231 417.402648 
L 608.747107 417.036896 
L 609.361983 416.296352 
L 609.97686 417.074063 
L 610.591736 415.513733 
L 611.206612 416.151688 
L 612.436364 414.55521 
L 613.05124 414.916767 
L 613.666116 413.166429 
L 614.280992 413.693082 
L 614.895868 412.39533 
L 616.12562 410.893539 
L 616.740496 411.372381 
L 617.355372 408.9802 
L 617.970248 408.860523 
L 618.585124 408.466966 
L 619.2 406.103676 
L 619.814876 407.104307 
L 620.429752 404.358662 
L 621.044628 404.295199 
L 621.659504 403.405748 
L 622.27438 401.085387 
L 622.889256 401.826476 
L 623.504132 398.861528 
L 624.119008 398.827873 
L 624.733884 397.575995 
L 625.34876 395.293898 
L 625.963636 395.78668 
L 626.578512 392.619951 
L 627.193388 392.587371 
L 627.808264 391.236046 
L 628.42314 388.055939 
L 629.038017 389.361811 
L 629.652893 385.135066 
L 630.267769 385.258075 
L 630.882645 383.813995 
L 631.497521 380.477607 
L 632.112397 381.630254 
L 632.727273 377.429582 
L 633.342149 377.05797 
L 633.957025 375.990333 
L 634.571901 372.03932 
L 635.186777 373.09378 
L 635.801653 369.107346 
L 636.416529 367.884797 
L 637.031405 367.306094 
L 637.031405 367.306094 
" style="fill:none;stroke:#ff796c;stroke-linecap:square;stroke-width:1.5;"/>
   </g>
   <g id="line2d_15">
    <path clip-path="url(#p78d953ad33)" d="M 194.935537 379.598073 
L 196.165289 379.662437 
L 202.31405 379.809901 
L 210.307438 380.057981 
L 217.68595 379.96481 
L 226.294215 379.65637 
L 231.213223 379.224628 
L 235.517355 378.610756 
L 242.895868 377.291816 
L 255.808264 375.010385 
L 266.876033 373.132816 
L 277.328926 371.428042 
L 281.633058 370.464648 
L 285.93719 369.273182 
L 290.856198 367.690875 
L 297.619835 365.256177 
L 309.917355 360.736167 
L 314.221488 359.449258 
L 318.52562 358.417672 
L 322.829752 357.619121 
L 328.978512 356.742013 
L 342.505785 354.932504 
L 348.039669 353.918804 
L 362.796694 350.989051 
L 365.871074 350.653648 
L 369.560331 350.487571 
L 372.634711 350.546285 
L 376.323967 350.832132 
L 380.013223 351.343495 
L 384.932231 352.302131 
L 389.85124 353.512408 
L 396 354.896567 
L 399.07438 355.399603 
L 402.14876 355.697103 
L 405.838017 355.873305 
L 409.527273 355.794845 
L 414.446281 355.455318 
L 418.750413 354.915018 
L 431.047934 353.405294 
L 434.73719 353.255069 
L 439.041322 353.350741 
L 452.568595 354.018646 
L 456.257851 353.853986 
L 459.332231 353.487385 
L 463.021488 352.790668 
L 465.480992 352.106553 
L 468.555372 351.024172 
L 471.629752 349.737718 
L 475.319008 347.903647 
L 487.616529 341.386918 
L 491.305785 339.806814 
L 493.765289 338.961373 
L 496.839669 338.188814 
L 499.91405 337.698573 
L 502.373554 337.55578 
L 505.447934 337.647288 
L 508.522314 338.00007 
L 511.596694 338.639612 
L 515.900826 339.820299 
L 528.198347 343.533493 
L 532.502479 344.514303 
L 546.029752 347.165578 
L 550.94876 348.57004 
L 553.408264 349.540488 
L 556.482645 351.103709 
L 558.942149 352.661521 
L 561.401653 354.559036 
L 563.246281 356.164493 
L 565.705785 358.571077 
L 568.165289 361.258334 
L 571.854545 365.777776 
L 574.928926 369.835983 
L 586.61157 385.570422 
L 589.68595 389.073144 
L 592.145455 391.481863 
L 593.990083 393.013142 
L 595.834711 394.261616 
L 597.679339 395.222032 
L 599.523967 395.903744 
L 601.368595 396.298122 
L 603.213223 396.385342 
L 605.057851 396.165651 
L 606.902479 395.660095 
L 608.747107 394.881012 
L 610.591736 393.822726 
L 612.436364 392.487619 
L 614.280992 390.904233 
L 616.12562 389.105221 
L 619.2 385.657819 
L 622.27438 381.770162 
L 625.963636 376.602303 
L 628.42314 372.862932 
L 632.112397 366.718095 
L 634.571901 362.323899 
L 637.646281 356.433967 
L 637.646281 356.433967 
" style="fill:none;stroke:#e50000;stroke-linecap:square;stroke-width:1.5;"/>
   </g>
   <g id="line2d_16">
    <path clip-path="url(#p78d953ad33)" d="M 194.935537 109.764916 
L 199.239669 109.875037 
L 203.543802 110.205298 
L 207.847934 110.755389 
L 212.152066 111.524799 
L 216.456198 112.51281 
L 220.760331 113.718499 
L 225.064463 115.140743 
L 229.368595 116.778214 
L 233.672727 118.629385 
L 238.591736 121.004459 
L 243.510744 123.653495 
L 248.429752 126.573266 
L 253.34876 129.760216 
L 258.267769 133.21046 
L 263.186777 136.919796 
L 268.105785 140.883705 
L 273.639669 145.64137 
L 279.173554 150.707772 
L 284.707438 156.075098 
L 290.241322 161.735073 
L 296.390083 168.356533 
L 302.538843 175.315899 
L 308.687603 182.599921 
L 315.45124 190.970759 
L 322.214876 199.698363 
L 329.593388 209.602633 
L 336.971901 219.8804 
L 344.965289 231.403432 
L 353.573554 244.223531 
L 362.796694 258.378831 
L 372.634711 273.889244 
L 383.702479 291.753797 
L 397.229752 314.030083 
L 418.135537 348.959435 
L 440.88595 386.86796 
L 453.798347 407.971654 
L 464.866116 425.652421 
L 474.704132 440.959038 
L 483.927273 454.889629 
L 492.535537 467.471485 
L 500.528926 478.74943 
L 507.907438 488.781268 
L 515.28595 498.421393 
L 522.049587 506.891478 
L 528.813223 514.990692 
L 534.961983 522.016068 
L 541.110744 528.706139 
L 547.259504 535.048169 
L 552.793388 540.448428 
L 558.327273 545.548661 
L 563.861157 550.341001 
L 569.395041 554.818061 
L 574.31405 558.527397 
L 579.233058 561.977641 
L 584.152066 565.164591 
L 589.071074 568.084362 
L 593.990083 570.733398 
L 598.909091 573.108472 
L 603.828099 575.206689 
L 608.132231 576.813502 
L 612.436364 578.204886 
L 616.740496 579.379542 
L 621.044628 580.336376 
L 625.34876 581.074494 
L 629.652893 581.593208 
L 633.957025 581.892034 
L 637.031405 581.970693 
L 637.031405 581.970693 
" style="fill:none;stroke:#014d4e;stroke-linecap:square;stroke-width:1.5;"/>
   </g>
   <g id="line2d_17">
    <path clip-path="url(#p78d953ad33)" d="M 194.935537 109.70306 
L 201.084298 109.802313 
L 206.003306 110.091683 
L 209.077686 110.495569 
L 212.766942 111.206805 
L 216.456198 112.131041 
L 220.760331 113.445877 
L 224.449587 114.794152 
L 228.138843 116.413857 
L 231.213223 117.992646 
L 234.902479 120.184623 
L 238.591736 122.627555 
L 243.510744 126.185958 
L 249.044628 130.466902 
L 253.963636 134.548075 
L 258.882645 138.908109 
L 265.031405 144.649364 
L 271.180165 150.695723 
L 275.484298 155.230541 
L 279.78843 160.123318 
L 283.477686 164.646603 
L 287.781818 170.272334 
L 292.700826 177.109183 
L 298.234711 185.2159 
L 305.613223 196.500725 
L 316.680992 213.444159 
L 340.046281 248.642552 
L 345.580165 257.621148 
L 351.728926 268.034819 
L 365.256198 291.163818 
L 370.790083 300.051368 
L 376.323967 308.495675 
L 381.242975 315.675226 
L 389.85124 327.76722 
L 396 336.571836 
L 399.689256 342.177779 
L 404.608264 350.051967 
L 409.527273 358.375872 
L 415.061157 368.088135 
L 432.277686 398.892647 
L 437.81157 408.059241 
L 444.575207 418.781592 
L 450.723967 428.562141 
L 456.872727 438.794575 
L 461.791736 447.453724 
L 466.095868 455.487902 
L 471.014876 465.129741 
L 477.778512 478.998919 
L 485.157025 494.049689 
L 489.461157 502.322186 
L 493.150413 508.990076 
L 496.839669 515.123033 
L 499.91405 519.850167 
L 502.98843 524.169444 
L 506.06281 528.152216 
L 509.13719 531.789787 
L 512.826446 535.734524 
L 516.515702 539.391883 
L 526.353719 548.482161 
L 531.887603 553.628242 
L 537.421488 558.742847 
L 541.110744 562.053613 
L 546.029752 566.079061 
L 548.489256 567.901516 
L 551.563636 569.845623 
L 554.02314 571.089015 
L 556.482645 572.010639 
L 558.327273 572.485213 
L 560.171901 572.729569 
L 562.631405 572.73661 
L 564.476033 572.51772 
L 566.935537 571.90571 
L 568.780165 571.226262 
L 571.854545 569.740733 
L 574.928926 567.899857 
L 580.46281 564.077798 
L 584.766942 561.107802 
L 587.841322 559.251427 
L 590.300826 558.041326 
L 592.760331 557.169178 
L 594.604959 556.765608 
L 596.449587 556.613225 
L 598.294215 556.715298 
L 600.138843 557.063556 
L 601.983471 557.663312 
L 603.828099 558.527853 
L 605.672727 559.655209 
L 607.517355 561.027187 
L 609.361983 562.630608 
L 611.206612 564.464411 
L 613.666116 567.256509 
L 616.12562 570.389872 
L 619.814876 575.524225 
L 624.119008 582.099092 
L 627.808264 588.132944 
L 632.112397 595.72747 
L 637.031405 605.1348 
L 637.031405 605.1348 
" style="fill:none;stroke:#ffff14;stroke-linecap:square;stroke-width:1.5;"/>
   </g>
   <g id="patch_3">
    <path d="M 172.8 629.9064 
L 172.8 84.9312 
" style="fill:none;stroke:#000000;stroke-linecap:square;stroke-linejoin:miter;stroke-width:0.8;"/>
   </g>
   <g id="patch_4">
    <path d="M 659.781818 629.9064 
L 659.781818 84.9312 
" style="fill:none;stroke:#000000;stroke-linecap:square;stroke-linejoin:miter;stroke-width:0.8;"/>
   </g>
   <g id="patch_5">
    <path d="M 172.8 629.9064 
L 659.781818 629.9064 
" style="fill:none;stroke:#000000;stroke-linecap:square;stroke-linejoin:miter;stroke-width:0.8;"/>
   </g>
   <g id="patch_6">
    <path d="M 172.8 84.9312 
L 659.781818 84.9312 
" style="fill:none;stroke:#000000;stroke-linecap:square;stroke-linejoin:miter;stroke-width:0.8;"/>
   </g>
   <g id="text_14">
    <!-- Right abduction -->
    <defs>
     <path d="M 44.390625 34.1875 
Q 47.5625 33.109375 50.5625 29.59375 
Q 53.5625 26.078125 56.59375 19.921875 
L 66.609375 0 
L 56 0 
L 46.6875 18.703125 
Q 43.0625 26.03125 39.671875 28.421875 
Q 36.28125 30.8125 30.421875 30.8125 
L 19.671875 30.8125 
L 19.671875 0 
L 9.8125 0 
L 9.8125 72.90625 
L 32.078125 72.90625 
Q 44.578125 72.90625 50.734375 67.671875 
Q 56.890625 62.453125 56.890625 51.90625 
Q 56.890625 45.015625 53.6875 40.46875 
Q 50.484375 35.9375 44.390625 34.1875 
z
M 19.671875 64.796875 
L 19.671875 38.921875 
L 32.078125 38.921875 
Q 39.203125 38.921875 42.84375 42.21875 
Q 46.484375 45.515625 46.484375 51.90625 
Q 46.484375 58.296875 42.84375 61.546875 
Q 39.203125 64.796875 32.078125 64.796875 
z
" id="DejaVuSans-82"/>
     <path d="M 9.421875 54.6875 
L 18.40625 54.6875 
L 18.40625 0 
L 9.421875 0 
z
M 9.421875 75.984375 
L 18.40625 75.984375 
L 18.40625 64.59375 
L 9.421875 64.59375 
z
" id="DejaVuSans-105"/>
     <path d="M 45.40625 27.984375 
Q 45.40625 37.75 41.375 43.109375 
Q 37.359375 48.484375 30.078125 48.484375 
Q 22.859375 48.484375 18.828125 43.109375 
Q 14.796875 37.75 14.796875 27.984375 
Q 14.796875 18.265625 18.828125 12.890625 
Q 22.859375 7.515625 30.078125 7.515625 
Q 37.359375 7.515625 41.375 12.890625 
Q 45.40625 18.265625 45.40625 27.984375 
z
M 54.390625 6.78125 
Q 54.390625 -7.171875 48.1875 -13.984375 
Q 42 -20.796875 29.203125 -20.796875 
Q 24.46875 -20.796875 20.265625 -20.09375 
Q 16.0625 -19.390625 12.109375 -17.921875 
L 12.109375 -9.1875 
Q 16.0625 -11.328125 19.921875 -12.34375 
Q 23.78125 -13.375 27.78125 -13.375 
Q 36.625 -13.375 41.015625 -8.765625 
Q 45.40625 -4.15625 45.40625 5.171875 
L 45.40625 9.625 
Q 42.625 4.78125 38.28125 2.390625 
Q 33.9375 0 27.875 0 
Q 17.828125 0 11.671875 7.65625 
Q 5.515625 15.328125 5.515625 27.984375 
Q 5.515625 40.671875 11.671875 48.328125 
Q 17.828125 56 27.875 56 
Q 33.9375 56 38.28125 53.609375 
Q 42.625 51.21875 45.40625 46.390625 
L 45.40625 54.6875 
L 54.390625 54.6875 
z
" id="DejaVuSans-103"/>
     <path d="M 54.890625 33.015625 
L 54.890625 0 
L 45.90625 0 
L 45.90625 32.71875 
Q 45.90625 40.484375 42.875 44.328125 
Q 39.84375 48.1875 33.796875 48.1875 
Q 26.515625 48.1875 22.3125 43.546875 
Q 18.109375 38.921875 18.109375 30.90625 
L 18.109375 0 
L 9.078125 0 
L 9.078125 75.984375 
L 18.109375 75.984375 
L 18.109375 46.1875 
Q 21.34375 51.125 25.703125 53.5625 
Q 30.078125 56 35.796875 56 
Q 45.21875 56 50.046875 50.171875 
Q 54.890625 44.34375 54.890625 33.015625 
z
" id="DejaVuSans-104"/>
     <path d="M 18.3125 70.21875 
L 18.3125 54.6875 
L 36.8125 54.6875 
L 36.8125 47.703125 
L 18.3125 47.703125 
L 18.3125 18.015625 
Q 18.3125 11.328125 20.140625 9.421875 
Q 21.96875 7.515625 27.59375 7.515625 
L 36.8125 7.515625 
L 36.8125 0 
L 27.59375 0 
Q 17.1875 0 13.234375 3.875 
Q 9.28125 7.765625 9.28125 18.015625 
L 9.28125 47.703125 
L 2.6875 47.703125 
L 2.6875 54.6875 
L 9.28125 54.6875 
L 9.28125 70.21875 
z
" id="DejaVuSans-116"/>
     <path id="DejaVuSans-32"/>
     <path d="M 34.28125 27.484375 
Q 23.390625 27.484375 19.1875 25 
Q 14.984375 22.515625 14.984375 16.5 
Q 14.984375 11.71875 18.140625 8.90625 
Q 21.296875 6.109375 26.703125 6.109375 
Q 34.1875 6.109375 38.703125 11.40625 
Q 43.21875 16.703125 43.21875 25.484375 
L 43.21875 27.484375 
z
M 52.203125 31.203125 
L 52.203125 0 
L 43.21875 0 
L 43.21875 8.296875 
Q 40.140625 3.328125 35.546875 0.953125 
Q 30.953125 -1.421875 24.3125 -1.421875 
Q 15.921875 -1.421875 10.953125 3.296875 
Q 6 8.015625 6 15.921875 
Q 6 25.140625 12.171875 29.828125 
Q 18.359375 34.515625 30.609375 34.515625 
L 43.21875 34.515625 
L 43.21875 35.40625 
Q 43.21875 41.609375 39.140625 45 
Q 35.0625 48.390625 27.6875 48.390625 
Q 23 48.390625 18.546875 47.265625 
Q 14.109375 46.140625 10.015625 43.890625 
L 10.015625 52.203125 
Q 14.9375 54.109375 19.578125 55.046875 
Q 24.21875 56 28.609375 56 
Q 40.484375 56 46.34375 49.84375 
Q 52.203125 43.703125 52.203125 31.203125 
z
" id="DejaVuSans-97"/>
     <path d="M 48.6875 27.296875 
Q 48.6875 37.203125 44.609375 42.84375 
Q 40.53125 48.484375 33.40625 48.484375 
Q 26.265625 48.484375 22.1875 42.84375 
Q 18.109375 37.203125 18.109375 27.296875 
Q 18.109375 17.390625 22.1875 11.75 
Q 26.265625 6.109375 33.40625 6.109375 
Q 40.53125 6.109375 44.609375 11.75 
Q 48.6875 17.390625 48.6875 27.296875 
z
M 18.109375 46.390625 
Q 20.953125 51.265625 25.265625 53.625 
Q 29.59375 56 35.59375 56 
Q 45.5625 56 51.78125 48.09375 
Q 58.015625 40.1875 58.015625 27.296875 
Q 58.015625 14.40625 51.78125 6.484375 
Q 45.5625 -1.421875 35.59375 -1.421875 
Q 29.59375 -1.421875 25.265625 0.953125 
Q 20.953125 3.328125 18.109375 8.203125 
L 18.109375 0 
L 9.078125 0 
L 9.078125 75.984375 
L 18.109375 75.984375 
z
" id="DejaVuSans-98"/>
     <path d="M 45.40625 46.390625 
L 45.40625 75.984375 
L 54.390625 75.984375 
L 54.390625 0 
L 45.40625 0 
L 45.40625 8.203125 
Q 42.578125 3.328125 38.25 0.953125 
Q 33.9375 -1.421875 27.875 -1.421875 
Q 17.96875 -1.421875 11.734375 6.484375 
Q 5.515625 14.40625 5.515625 27.296875 
Q 5.515625 40.1875 11.734375 48.09375 
Q 17.96875 56 27.875 56 
Q 33.9375 56 38.25 53.625 
Q 42.578125 51.265625 45.40625 46.390625 
z
M 14.796875 27.296875 
Q 14.796875 17.390625 18.875 11.75 
Q 22.953125 6.109375 30.078125 6.109375 
Q 37.203125 6.109375 41.296875 11.75 
Q 45.40625 17.390625 45.40625 27.296875 
Q 45.40625 37.203125 41.296875 42.84375 
Q 37.203125 48.484375 30.078125 48.484375 
Q 22.953125 48.484375 18.875 42.84375 
Q 14.796875 37.203125 14.796875 27.296875 
z
" id="DejaVuSans-100"/>
     <path d="M 8.5 21.578125 
L 8.5 54.6875 
L 17.484375 54.6875 
L 17.484375 21.921875 
Q 17.484375 14.15625 20.5 10.265625 
Q 23.53125 6.390625 29.59375 6.390625 
Q 36.859375 6.390625 41.078125 11.03125 
Q 45.3125 15.671875 45.3125 23.6875 
L 45.3125 54.6875 
L 54.296875 54.6875 
L 54.296875 0 
L 45.3125 0 
L 45.3125 8.40625 
Q 42.046875 3.421875 37.71875 1 
Q 33.40625 -1.421875 27.6875 -1.421875 
Q 18.265625 -1.421875 13.375 4.4375 
Q 8.5 10.296875 8.5 21.578125 
z
M 31.109375 56 
z
" id="DejaVuSans-117"/>
     <path d="M 48.78125 52.59375 
L 48.78125 44.1875 
Q 44.96875 46.296875 41.140625 47.34375 
Q 37.3125 48.390625 33.40625 48.390625 
Q 24.65625 48.390625 19.8125 42.84375 
Q 14.984375 37.3125 14.984375 27.296875 
Q 14.984375 17.28125 19.8125 11.734375 
Q 24.65625 6.203125 33.40625 6.203125 
Q 37.3125 6.203125 41.140625 7.25 
Q 44.96875 8.296875 48.78125 10.40625 
L 48.78125 2.09375 
Q 45.015625 0.34375 40.984375 -0.53125 
Q 36.96875 -1.421875 32.421875 -1.421875 
Q 20.0625 -1.421875 12.78125 6.34375 
Q 5.515625 14.109375 5.515625 27.296875 
Q 5.515625 40.671875 12.859375 48.328125 
Q 20.21875 56 33.015625 56 
Q 37.15625 56 41.109375 55.140625 
Q 45.0625 54.296875 48.78125 52.59375 
z
" id="DejaVuSans-99"/>
     <path d="M 30.609375 48.390625 
Q 23.390625 48.390625 19.1875 42.75 
Q 14.984375 37.109375 14.984375 27.296875 
Q 14.984375 17.484375 19.15625 11.84375 
Q 23.34375 6.203125 30.609375 6.203125 
Q 37.796875 6.203125 41.984375 11.859375 
Q 46.1875 17.53125 46.1875 27.296875 
Q 46.1875 37.015625 41.984375 42.703125 
Q 37.796875 48.390625 30.609375 48.390625 
z
M 30.609375 56 
Q 42.328125 56 49.015625 48.375 
Q 55.71875 40.765625 55.71875 27.296875 
Q 55.71875 13.875 49.015625 6.21875 
Q 42.328125 -1.421875 30.609375 -1.421875 
Q 18.84375 -1.421875 12.171875 6.21875 
Q 5.515625 13.875 5.515625 27.296875 
Q 5.515625 40.765625 12.171875 48.375 
Q 18.84375 56 30.609375 56 
z
" id="DejaVuSans-111"/>
     <path d="M 54.890625 33.015625 
L 54.890625 0 
L 45.90625 0 
L 45.90625 32.71875 
Q 45.90625 40.484375 42.875 44.328125 
Q 39.84375 48.1875 33.796875 48.1875 
Q 26.515625 48.1875 22.3125 43.546875 
Q 18.109375 38.921875 18.109375 30.90625 
L 18.109375 0 
L 9.078125 0 
L 9.078125 54.6875 
L 18.109375 54.6875 
L 18.109375 46.1875 
Q 21.34375 51.125 25.703125 53.5625 
Q 30.078125 56 35.796875 56 
Q 45.21875 56 50.046875 50.171875 
Q 54.890625 44.34375 54.890625 33.015625 
z
" id="DejaVuSans-110"/>
    </defs>
    <g transform="translate(368.694972 78.9312)scale(0.12 -0.12)">
     <use xlink:href="#DejaVuSans-82"/>
     <use x="69.482422" xlink:href="#DejaVuSans-105"/>
     <use x="97.265625" xlink:href="#DejaVuSans-103"/>
     <use x="160.742188" xlink:href="#DejaVuSans-104"/>
     <use x="224.121094" xlink:href="#DejaVuSans-116"/>
     <use x="263.330078" xlink:href="#DejaVuSans-32"/>
     <use x="295.117188" xlink:href="#DejaVuSans-97"/>
     <use x="356.396484" xlink:href="#DejaVuSans-98"/>
     <use x="419.873047" xlink:href="#DejaVuSans-100"/>
     <use x="483.349609" xlink:href="#DejaVuSans-117"/>
     <use x="546.728516" xlink:href="#DejaVuSans-99"/>
     <use x="601.708984" xlink:href="#DejaVuSans-116"/>
     <use x="640.917969" xlink:href="#DejaVuSans-105"/>
     <use x="668.701172" xlink:href="#DejaVuSans-111"/>
     <use x="729.882812" xlink:href="#DejaVuSans-110"/>
    </g>
   </g>
  </g>
  <g id="axes_2">
   <g id="patch_7">
    <path d="M 757.178182 629.9064 
L 1244.16 629.9064 
L 1244.16 84.9312 
L 757.178182 84.9312 
z
" style="fill:#ffffff;"/>
   </g>
   <g id="matplotlib.axis_3">
    <g id="xtick_9">
     <g id="line2d_18">
      <g>
       <use style="stroke:#000000;stroke-width:0.8;" x="779.313719" xlink:href="#m78dd110228" y="629.9064"/>
      </g>
     </g>
     <g id="text_15">
      <!-- 0 -->
      <g transform="translate(776.132469 644.504838)scale(0.1 -0.1)">
       <use xlink:href="#DejaVuSans-48"/>
      </g>
     </g>
    </g>
    <g id="xtick_10">
     <g id="line2d_19">
      <g>
       <use style="stroke:#000000;stroke-width:0.8;" x="840.801322" xlink:href="#m78dd110228" y="629.9064"/>
      </g>
     </g>
     <g id="text_16">
      <!-- 100 -->
      <g transform="translate(831.257572 644.504838)scale(0.1 -0.1)">
       <use xlink:href="#DejaVuSans-49"/>
       <use x="63.623047" xlink:href="#DejaVuSans-48"/>
       <use x="127.246094" xlink:href="#DejaVuSans-48"/>
      </g>
     </g>
    </g>
    <g id="xtick_11">
     <g id="line2d_20">
      <g>
       <use style="stroke:#000000;stroke-width:0.8;" x="902.288926" xlink:href="#m78dd110228" y="629.9064"/>
      </g>
     </g>
     <g id="text_17">
      <!-- 200 -->
      <g transform="translate(892.745176 644.504838)scale(0.1 -0.1)">
       <use xlink:href="#DejaVuSans-50"/>
       <use x="63.623047" xlink:href="#DejaVuSans-48"/>
       <use x="127.246094" xlink:href="#DejaVuSans-48"/>
      </g>
     </g>
    </g>
    <g id="xtick_12">
     <g id="line2d_21">
      <g>
       <use style="stroke:#000000;stroke-width:0.8;" x="963.776529" xlink:href="#m78dd110228" y="629.9064"/>
      </g>
     </g>
     <g id="text_18">
      <!-- 300 -->
      <g transform="translate(954.232779 644.504838)scale(0.1 -0.1)">
       <use xlink:href="#DejaVuSans-51"/>
       <use x="63.623047" xlink:href="#DejaVuSans-48"/>
       <use x="127.246094" xlink:href="#DejaVuSans-48"/>
      </g>
     </g>
    </g>
    <g id="xtick_13">
     <g id="line2d_22">
      <g>
       <use style="stroke:#000000;stroke-width:0.8;" x="1025.264132" xlink:href="#m78dd110228" y="629.9064"/>
      </g>
     </g>
     <g id="text_19">
      <!-- 400 -->
      <g transform="translate(1015.720382 644.504838)scale(0.1 -0.1)">
       <use xlink:href="#DejaVuSans-52"/>
       <use x="63.623047" xlink:href="#DejaVuSans-48"/>
       <use x="127.246094" xlink:href="#DejaVuSans-48"/>
      </g>
     </g>
    </g>
    <g id="xtick_14">
     <g id="line2d_23">
      <g>
       <use style="stroke:#000000;stroke-width:0.8;" x="1086.751736" xlink:href="#m78dd110228" y="629.9064"/>
      </g>
     </g>
     <g id="text_20">
      <!-- 500 -->
      <g transform="translate(1077.207986 644.504838)scale(0.1 -0.1)">
       <use xlink:href="#DejaVuSans-53"/>
       <use x="63.623047" xlink:href="#DejaVuSans-48"/>
       <use x="127.246094" xlink:href="#DejaVuSans-48"/>
      </g>
     </g>
    </g>
    <g id="xtick_15">
     <g id="line2d_24">
      <g>
       <use style="stroke:#000000;stroke-width:0.8;" x="1148.239339" xlink:href="#m78dd110228" y="629.9064"/>
      </g>
     </g>
     <g id="text_21">
      <!-- 600 -->
      <g transform="translate(1138.695589 644.504838)scale(0.1 -0.1)">
       <use xlink:href="#DejaVuSans-54"/>
       <use x="63.623047" xlink:href="#DejaVuSans-48"/>
       <use x="127.246094" xlink:href="#DejaVuSans-48"/>
      </g>
     </g>
    </g>
    <g id="xtick_16">
     <g id="line2d_25">
      <g>
       <use style="stroke:#000000;stroke-width:0.8;" x="1209.726942" xlink:href="#m78dd110228" y="629.9064"/>
      </g>
     </g>
     <g id="text_22">
      <!-- 700 -->
      <g transform="translate(1200.183192 644.504838)scale(0.1 -0.1)">
       <use xlink:href="#DejaVuSans-55"/>
       <use x="63.623047" xlink:href="#DejaVuSans-48"/>
       <use x="127.246094" xlink:href="#DejaVuSans-48"/>
      </g>
     </g>
    </g>
   </g>
   <g id="matplotlib.axis_4">
    <g id="ytick_6">
     <g id="line2d_26">
      <g>
       <use style="stroke:#000000;stroke-width:0.8;" x="757.178182" xlink:href="#m19aaa52b06" y="611.047594"/>
      </g>
     </g>
     <g id="text_23">
      <!-- −0.6 -->
      <g transform="translate(725.895369 614.846813)scale(0.1 -0.1)">
       <use xlink:href="#DejaVuSans-8722"/>
       <use x="83.789062" xlink:href="#DejaVuSans-48"/>
       <use x="147.412109" xlink:href="#DejaVuSans-46"/>
       <use x="179.199219" xlink:href="#DejaVuSans-54"/>
      </g>
     </g>
    </g>
    <g id="ytick_7">
     <g id="line2d_27">
      <g>
       <use style="stroke:#000000;stroke-width:0.8;" x="757.178182" xlink:href="#m19aaa52b06" y="510.041196"/>
      </g>
     </g>
     <g id="text_24">
      <!-- −0.4 -->
      <g transform="translate(725.895369 513.840415)scale(0.1 -0.1)">
       <use xlink:href="#DejaVuSans-8722"/>
       <use x="83.789062" xlink:href="#DejaVuSans-48"/>
       <use x="147.412109" xlink:href="#DejaVuSans-46"/>
       <use x="179.199219" xlink:href="#DejaVuSans-52"/>
      </g>
     </g>
    </g>
    <g id="ytick_8">
     <g id="line2d_28">
      <g>
       <use style="stroke:#000000;stroke-width:0.8;" x="757.178182" xlink:href="#m19aaa52b06" y="409.034798"/>
      </g>
     </g>
     <g id="text_25">
      <!-- −0.2 -->
      <g transform="translate(725.895369 412.834016)scale(0.1 -0.1)">
       <use xlink:href="#DejaVuSans-8722"/>
       <use x="83.789062" xlink:href="#DejaVuSans-48"/>
       <use x="147.412109" xlink:href="#DejaVuSans-46"/>
       <use x="179.199219" xlink:href="#DejaVuSans-50"/>
      </g>
     </g>
    </g>
    <g id="ytick_9">
     <g id="line2d_29">
      <g>
       <use style="stroke:#000000;stroke-width:0.8;" x="757.178182" xlink:href="#m19aaa52b06" y="308.028399"/>
      </g>
     </g>
     <g id="text_26">
      <!-- 0.0 -->
      <g transform="translate(734.275057 311.827618)scale(0.1 -0.1)">
       <use xlink:href="#DejaVuSans-48"/>
       <use x="63.623047" xlink:href="#DejaVuSans-46"/>
       <use x="95.410156" xlink:href="#DejaVuSans-48"/>
      </g>
     </g>
    </g>
    <g id="ytick_10">
     <g id="line2d_30">
      <g>
       <use style="stroke:#000000;stroke-width:0.8;" x="757.178182" xlink:href="#m19aaa52b06" y="207.022001"/>
      </g>
     </g>
     <g id="text_27">
      <!-- 0.2 -->
      <g transform="translate(734.275057 210.82122)scale(0.1 -0.1)">
       <use xlink:href="#DejaVuSans-48"/>
       <use x="63.623047" xlink:href="#DejaVuSans-46"/>
       <use x="95.410156" xlink:href="#DejaVuSans-50"/>
      </g>
     </g>
    </g>
    <g id="ytick_11">
     <g id="line2d_31">
      <g>
       <use style="stroke:#000000;stroke-width:0.8;" x="757.178182" xlink:href="#m19aaa52b06" y="106.015603"/>
      </g>
     </g>
     <g id="text_28">
      <!-- 0.4 -->
      <g transform="translate(734.275057 109.814821)scale(0.1 -0.1)">
       <use xlink:href="#DejaVuSans-48"/>
       <use x="63.623047" xlink:href="#DejaVuSans-46"/>
       <use x="95.410156" xlink:href="#DejaVuSans-52"/>
      </g>
     </g>
    </g>
   </g>
   <g id="line2d_32">
    <path clip-path="url(#p181dd3e711)" d="M 779.313719 308.003711 
L 780.543471 308.204241 
L 781.158347 308.112037 
L 782.388099 308.192274 
L 783.002975 308.090908 
L 783.617851 308.169518 
L 784.847603 308.065662 
L 786.077355 308.066958 
L 797.76 308.129965 
L 799.604628 308.192228 
L 803.293884 308.120154 
L 805.753388 308.174377 
L 821.740165 308.169707 
L 823.584793 308.223462 
L 827.27405 308.198978 
L 842.64595 308.252062 
L 844.490579 308.2278 
L 846.950083 308.29951 
L 848.794711 308.275485 
L 850.639339 308.286667 
L 861.707107 308.213611 
L 863.551736 308.256273 
L 868.470744 308.213189 
L 873.389752 308.262564 
L 878.30876 308.226655 
L 883.227769 308.228271 
L 923.194711 308.201805 
L 926.269091 308.165854 
L 929.958347 308.188746 
L 932.417851 308.163705 
L 937.951736 308.294388 
L 938.566612 308.070253 
L 939.181488 308.292795 
L 939.796364 308.122957 
L 940.41124 308.234037 
L 941.640992 308.158523 
L 942.255868 308.315002 
L 942.870744 308.115684 
L 943.48562 308.348054 
L 944.100496 308.135405 
L 944.715372 308.308868 
L 945.330248 308.210917 
L 947.789752 308.363138 
L 948.404628 308.143363 
L 949.019504 308.360021 
L 949.63438 308.196935 
L 950.249256 308.298833 
L 952.70876 308.166967 
L 953.323636 308.387113 
L 953.938512 308.178409 
L 954.553388 308.344734 
L 955.168264 308.248167 
L 959.472397 308.326438 
L 960.087273 308.190402 
L 960.702149 308.336307 
L 961.317025 308.138285 
L 961.931901 308.328543 
L 962.546777 308.18844 
L 963.161653 308.312642 
L 964.391405 308.289631 
L 965.006281 308.42701 
L 965.621157 308.260845 
L 966.236033 308.462139 
L 966.850909 308.238776 
L 967.465785 308.398073 
L 968.080661 308.24357 
L 969.310413 308.28315 
L 970.540165 308.201516 
L 971.155041 308.344236 
L 971.769917 308.198429 
L 972.384793 308.482669 
L 972.999669 308.247246 
L 973.614545 308.499197 
L 974.229421 308.293722 
L 974.844298 308.362413 
L 976.688926 308.301361 
L 977.303802 308.011321 
L 977.918678 308.283355 
L 978.533554 308.03067 
L 979.14843 308.269636 
L 979.763306 308.184667 
L 980.993058 308.356803 
L 981.607934 308.207767 
L 982.22281 308.423526 
L 982.837686 308.157513 
L 983.452562 308.343028 
L 984.067438 308.137415 
L 985.29719 308.179986 
L 985.912066 308.05476 
L 986.526942 308.276127 
L 987.141818 308.049603 
L 987.756694 308.367477 
L 988.37157 308.15834 
L 988.986446 308.384841 
L 990.216198 308.304312 
L 990.831074 308.378825 
L 991.44595 308.175284 
L 992.060826 308.360912 
L 992.675702 308.091547 
L 993.290579 308.276902 
L 993.905455 308.122654 
L 995.135207 308.257393 
L 995.750083 308.159244 
L 996.364959 308.405918 
L 996.979835 308.179972 
L 997.594711 308.462915 
L 998.209587 308.227564 
L 998.824463 308.38589 
L 1000.054215 308.228967 
L 1000.669091 308.30222 
L 1001.283967 308.105271 
L 1001.898843 308.320741 
L 1002.513719 308.105344 
L 1003.128595 308.329001 
L 1003.743471 308.232502 
L 1004.973223 308.402643 
L 1005.588099 308.289808 
L 1006.202975 308.506869 
L 1006.817851 308.254107 
L 1007.432727 308.488793 
L 1008.047603 308.246911 
L 1008.662479 308.379922 
L 1009.892231 308.270515 
L 1010.507107 308.39453 
L 1011.121983 308.241943 
L 1011.73686 308.491782 
L 1012.351736 308.312162 
L 1012.966612 308.525858 
L 1013.581488 308.431284 
L 1014.81124 308.524055 
L 1015.426116 308.359046 
L 1016.040992 308.542925 
L 1016.655868 308.27339 
L 1017.270744 308.493309 
L 1018.500496 308.260442 
L 1019.115372 308.557165 
L 1019.730248 308.133593 
L 1020.345124 308.473476 
L 1020.96 308.346414 
L 1021.574876 308.373129 
L 1022.189752 308.595455 
L 1022.804628 308.422156 
L 1023.419504 308.597729 
L 1024.03438 308.466881 
L 1025.264132 308.457363 
L 1025.879008 308.291793 
L 1026.493884 308.413844 
L 1027.10876 308.182292 
L 1027.723636 308.367048 
L 1028.338512 308.216011 
L 1029.568264 308.353315 
L 1030.18314 308.325723 
L 1030.798017 308.479129 
L 1031.412893 308.305219 
L 1032.027769 308.489754 
L 1032.642645 308.274024 
L 1033.257521 308.370815 
L 1034.487273 308.204868 
L 1035.102149 308.265515 
L 1035.717025 308.108166 
L 1036.331901 308.307676 
L 1036.946777 308.142112 
L 1037.561653 308.343253 
L 1038.176529 308.268063 
L 1039.406281 308.38375 
L 1040.021157 308.260832 
L 1040.636033 308.401398 
L 1041.250909 308.174171 
L 1041.865785 308.310258 
L 1042.480661 308.132996 
L 1043.095537 308.17582 
L 1043.710413 308.082443 
L 1044.325289 308.187686 
L 1044.940165 308.098449 
L 1045.555041 308.23205 
L 1046.169917 308.182139 
L 1047.399669 308.256982 
L 1049.244298 308.123917 
L 1049.859174 308.187391 
L 1050.47405 308.063986 
L 1052.933554 308.136703 
L 1053.54843 308.068433 
L 1054.163306 308.203975 
L 1054.778182 308.134714 
L 1056.007934 308.185514 
L 1058.467438 308.135842 
L 1059.082314 308.148309 
L 1059.69719 307.93058 
L 1060.312066 308.076837 
L 1061.541818 308.020501 
L 1062.156694 308.221534 
L 1062.77157 308.081332 
L 1063.386446 308.276718 
L 1064.616198 308.225971 
L 1065.231074 308.2663 
L 1066.460826 308.090488 
L 1067.075702 308.17695 
L 1067.690579 307.962521 
L 1068.305455 308.176717 
L 1068.920331 307.984077 
L 1069.535207 308.183053 
L 1070.764959 308.18269 
L 1071.379835 308.310837 
L 1071.994711 308.162195 
L 1072.609587 308.368161 
L 1073.224463 308.130708 
L 1073.839339 308.270629 
L 1074.454215 308.115304 
L 1076.298843 307.980856 
L 1076.913719 308.190561 
L 1077.528595 308.087575 
L 1078.758347 308.261845 
L 1079.373223 308.142844 
L 1079.988099 308.365874 
L 1080.602975 308.134749 
L 1081.217851 308.316278 
L 1081.832727 308.137892 
L 1083.062479 308.151767 
L 1083.677355 307.987118 
L 1084.292231 308.168798 
L 1084.907107 307.94956 
L 1085.521983 308.172649 
L 1086.13686 308.054398 
L 1087.366612 308.209154 
L 1087.981488 308.098779 
L 1088.596364 308.285015 
L 1089.21124 308.048762 
L 1089.826116 308.217286 
L 1090.440992 308.030053 
L 1091.670744 308.05412 
L 1092.28562 307.915131 
L 1092.900496 308.097404 
L 1093.515372 307.897708 
L 1094.130248 308.115229 
L 1094.745124 307.999691 
L 1095.974876 308.124293 
L 1096.589752 307.994757 
L 1097.204628 308.158169 
L 1097.819504 307.916908 
L 1098.43438 308.061222 
L 1099.049256 307.891211 
L 1099.664132 307.896841 
L 1100.279008 308.06175 
L 1100.893884 307.631338 
L 1101.50876 308.125043 
L 1102.123636 307.597555 
L 1102.738512 308.014015 
L 1103.353388 307.803767 
L 1103.968264 307.800301 
L 1104.58314 307.928794 
L 1105.198017 307.832503 
L 1105.812893 308.128803 
L 1106.427769 307.517818 
L 1107.042645 308.197386 
L 1107.657521 307.755112 
L 1108.272397 307.762975 
L 1108.887273 308.021296 
L 1109.502149 307.378344 
L 1110.117025 308.11028 
L 1110.731901 307.285464 
L 1111.346777 307.961165 
L 1111.961653 307.647032 
L 1112.576529 307.630215 
L 1113.191405 308.102525 
L 1113.806281 307.408898 
L 1114.421157 308.260099 
L 1115.036033 307.479598 
L 1115.650909 307.986557 
L 1116.880661 307.515425 
L 1117.495537 308.049736 
L 1118.110413 307.246429 
L 1118.725289 308.058733 
L 1119.340165 307.404058 
L 1119.955041 307.796851 
L 1120.569917 307.846997 
L 1121.184793 307.487596 
L 1121.799669 308.191458 
L 1122.414545 307.395384 
L 1123.029421 308.141878 
L 1123.644298 307.597617 
L 1124.87405 307.917861 
L 1125.488926 307.344518 
L 1126.103802 308.078966 
L 1126.718678 307.289109 
L 1127.333554 307.944525 
L 1127.94843 307.626474 
L 1128.563306 307.63866 
L 1129.178182 308.067918 
L 1129.793058 307.438589 
L 1130.407934 308.240517 
L 1131.02281 307.532334 
L 1131.637686 308.011712 
L 1132.867438 307.603059 
L 1133.482314 308.136598 
L 1134.09719 307.394259 
L 1134.712066 308.153576 
L 1135.326942 307.588824 
L 1135.941818 307.91292 
L 1136.556694 308.035425 
L 1137.17157 307.654961 
L 1137.786446 308.361951 
L 1138.401322 307.637333 
L 1139.016198 308.305525 
L 1139.631074 307.902085 
L 1140.24595 307.945704 
L 1140.860826 308.234256 
L 1141.475702 307.631996 
L 1142.090579 308.353902 
L 1142.705455 307.668472 
L 1143.320331 308.171739 
L 1144.550083 307.87466 
L 1145.164959 308.418949 
L 1145.779835 307.756779 
L 1146.394711 308.477993 
L 1147.009587 307.945903 
L 1147.624463 308.179612 
L 1148.239339 308.27953 
L 1148.854215 307.818351 
L 1149.469091 308.453276 
L 1150.083967 307.825143 
L 1150.698843 308.245265 
L 1151.928595 307.942751 
L 1152.543471 308.450544 
L 1153.158347 307.844441 
L 1153.773223 308.479001 
L 1154.388099 308.052844 
L 1155.617851 308.392633 
L 1156.232727 307.842249 
L 1156.847603 308.503505 
L 1157.462479 307.806284 
L 1158.077355 308.256566 
L 1159.307107 307.890493 
L 1159.921983 308.42467 
L 1160.53686 307.76864 
L 1161.151736 308.440343 
L 1161.766612 308.015361 
L 1162.381488 308.137291 
L 1162.996364 308.377712 
L 1163.61124 307.829724 
L 1164.226116 308.475143 
L 1164.840992 307.83063 
L 1165.455868 308.192543 
L 1166.070744 308.119956 
L 1166.68562 307.809997 
L 1167.300496 308.369635 
L 1167.915372 307.720304 
L 1168.530248 308.301535 
L 1169.145124 308.010323 
L 1169.76 307.984874 
L 1170.374876 308.361196 
L 1170.989752 307.761811 
L 1171.604628 308.382444 
L 1172.219504 307.866489 
L 1173.449256 308.163156 
L 1174.064132 307.68676 
L 1174.679008 308.215827 
L 1175.293884 307.757766 
L 1175.90876 308.009786 
L 1176.523636 308.078347 
L 1177.138512 307.773037 
L 1177.753388 308.286576 
L 1178.368264 307.779511 
L 1178.98314 308.153817 
L 1180.212893 307.837905 
L 1180.827769 308.231718 
L 1181.442645 307.701081 
L 1182.057521 308.154309 
L 1182.672397 307.898211 
L 1183.287273 307.887703 
L 1183.902149 308.20512 
L 1184.517025 307.756816 
L 1185.131901 308.282708 
L 1185.746777 307.938595 
L 1186.976529 308.244914 
L 1187.591405 307.842457 
L 1188.206281 308.334486 
L 1188.821157 307.887717 
L 1189.436033 308.116269 
L 1190.050909 308.160514 
L 1190.665785 307.864322 
L 1191.280661 308.351225 
L 1191.895537 307.9022 
L 1192.510413 308.261794 
L 1193.125289 308.217892 
L 1193.740165 308.042802 
L 1194.355041 308.474943 
L 1194.969917 308.004031 
L 1195.584793 308.406345 
L 1196.814545 308.133965 
L 1197.429421 308.481147 
L 1198.044298 308.025056 
L 1198.659174 308.48416 
L 1199.27405 308.253082 
L 1200.503802 308.279994 
L 1201.118678 308.801378 
L 1201.733554 308.216524 
L 1202.963306 308.744395 
L 1203.578182 308.191423 
L 1204.193058 308.958677 
L 1204.807934 308.267198 
L 1205.42281 308.635829 
L 1206.037686 308.696055 
L 1206.652562 308.215193 
L 1207.267438 308.952541 
L 1207.882314 308.260256 
L 1208.49719 308.733458 
L 1209.112066 308.744288 
L 1209.726942 308.362147 
L 1210.341818 309.072055 
L 1210.956694 308.352241 
L 1211.57157 308.854715 
L 1212.186446 308.829252 
L 1212.801322 308.09429 
L 1213.416198 309.134172 
L 1214.031074 308.030204 
L 1214.64595 308.663739 
L 1215.260826 308.714733 
L 1215.875702 308.052648 
L 1216.490579 309.176827 
L 1217.105455 308.211074 
L 1217.720331 308.759244 
L 1218.335207 309.031829 
L 1218.950083 308.162986 
L 1219.564959 309.263627 
L 1220.179835 308.376609 
L 1220.794711 308.590893 
L 1221.409587 309.078209 
L 1221.409587 309.078209 
" style="fill:none;stroke:#ff796c;stroke-linecap:square;stroke-width:1.5;"/>
   </g>
   <g id="line2d_33">
    <path clip-path="url(#p181dd3e711)" d="M 779.313719 308.028399 
L 783.617851 307.877376 
L 787.921983 307.363264 
L 798.989752 305.79496 
L 803.90876 304.956667 
L 815.591405 303.115304 
L 822.355041 302.470421 
L 827.27405 302.060501 
L 835.882314 301.093019 
L 849.409587 299.180731 
L 862.93686 296.857109 
L 867.240992 296.469157 
L 870.930248 296.33133 
L 877.693884 296.411861 
L 887.531901 296.966406 
L 892.450909 297.182116 
L 897.369917 297.158294 
L 901.059174 296.88814 
L 905.363306 296.364718 
L 912.126942 295.196939 
L 922.579835 293.392441 
L 926.883967 292.86665 
L 931.802975 292.541274 
L 936.107107 292.459258 
L 945.945124 292.347696 
L 949.63438 292.05074 
L 953.938512 291.384019 
L 958.857521 290.190618 
L 965.006281 288.207243 
L 967.465785 287.287163 
L 979.14843 282.667334 
L 985.912066 280.971702 
L 987.756694 280.731335 
L 992.675702 280.416811 
L 994.520331 280.342336 
L 997.594711 280.531897 
L 1000.054215 280.677123 
L 1003.128595 280.908549 
L 1007.432727 281.508958 
L 1013.581488 282.078451 
L 1016.040992 282.126504 
L 1019.730248 281.962282 
L 1021.574876 281.881409 
L 1024.03438 281.75758 
L 1031.412893 280.837635 
L 1036.331901 280.407301 
L 1039.406281 280.59199 
L 1044.325289 281.041802 
L 1046.784793 281.665663 
L 1051.703802 283.237397 
L 1053.54843 284.072921 
L 1058.467438 286.678431 
L 1061.541818 288.489235 
L 1066.460826 291.682305 
L 1070.150083 293.846887 
L 1073.224463 295.594313 
L 1076.913719 297.103088 
L 1079.988099 298.27999 
L 1081.832727 298.760025 
L 1085.521983 299.246235 
L 1087.981488 299.501479 
L 1090.440992 299.451962 
L 1097.204628 298.604986 
L 1099.664132 298.027228 
L 1103.353388 297.219387 
L 1107.042645 296.612136 
L 1108.887273 296.324133 
L 1111.961653 296.004943 
L 1114.421157 295.997158 
L 1115.650909 296.008575 
L 1121.799669 296.349598 
L 1123.644298 296.5854 
L 1126.103802 296.71833 
L 1129.793058 297.18604 
L 1134.09719 297.367637 
L 1135.941818 297.290674 
L 1138.401322 297.161881 
L 1141.475702 296.423211 
L 1145.779835 294.668153 
L 1148.854215 292.768396 
L 1153.158347 289.33639 
L 1156.847603 285.775912 
L 1159.307107 283.179462 
L 1167.300496 274.737317 
L 1171.604628 270.907588 
L 1174.679008 268.674756 
L 1176.523636 267.732926 
L 1178.368264 267.101307 
L 1179.598017 266.808426 
L 1180.827769 266.620568 
L 1182.672397 266.645875 
L 1183.902149 266.842265 
L 1185.746777 267.478475 
L 1186.976529 268.042834 
L 1188.821157 269.141379 
L 1190.050909 270.01613 
L 1191.895537 271.644404 
L 1193.125289 272.901752 
L 1195.584793 275.756185 
L 1198.659174 279.910339 
L 1201.733554 284.81339 
L 1204.193058 288.948592 
L 1210.341818 300.181022 
L 1217.720331 315.081504 
L 1222.024463 324.595147 
L 1222.024463 324.595147 
" style="fill:none;stroke:#e50000;stroke-linecap:square;stroke-width:1.5;"/>
   </g>
   <g id="line2d_34">
    <path clip-path="url(#p181dd3e711)" d="M 779.313719 109.7028 
L 783.617851 109.810718 
L 787.921983 110.13437 
L 792.226116 110.673455 
L 796.530248 111.42747 
L 800.83438 112.395712 
L 805.138512 113.577277 
L 809.442645 114.971064 
L 813.746777 116.575771 
L 818.665785 118.666064 
L 823.584793 121.027337 
L 828.503802 123.656713 
L 833.42281 126.55099 
L 838.341818 129.70664 
L 843.260826 133.11982 
L 848.179835 136.78637 
L 853.713719 141.208523 
L 859.247603 145.938866 
L 864.781488 150.970108 
L 870.315372 156.294489 
L 876.464132 162.544273 
L 882.612893 169.133916 
L 888.761653 176.050873 
L 894.910413 183.281977 
L 901.67405 191.582586 
L 908.437686 200.227528 
L 915.816198 210.027667 
L 923.194711 220.187018 
L 931.188099 231.566025 
L 939.796364 244.213232 
L 949.019504 258.163538 
L 959.472397 274.399852 
L 971.155041 292.976087 
L 985.912066 316.896884 
L 1035.717025 398.037582 
L 1047.399669 416.412582 
L 1057.237686 431.489982 
L 1066.460826 445.226383 
L 1075.069091 457.645821 
L 1083.062479 468.789772 
L 1090.440992 478.712683 
L 1097.819504 488.258359 
L 1104.58314 496.654808 
L 1111.346777 504.692938 
L 1117.495537 511.673797 
L 1123.644298 518.329927 
L 1129.793058 524.648655 
L 1135.326942 530.03708 
L 1140.860826 535.13415 
L 1146.394711 539.932006 
L 1151.928595 544.423252 
L 1157.462479 548.600961 
L 1162.381488 552.046045 
L 1167.300496 555.234104 
L 1172.219504 558.161252 
L 1177.138512 560.823922 
L 1182.057521 563.218873 
L 1186.976529 565.343184 
L 1191.280661 566.977905 
L 1195.584793 568.401907 
L 1199.888926 569.613862 
L 1204.193058 570.612638 
L 1208.49719 571.397305 
L 1212.801322 571.96713 
L 1217.105455 572.321582 
L 1221.409587 572.460329 
L 1221.409587 572.460329 
" style="fill:none;stroke:#014d4e;stroke-linecap:square;stroke-width:1.5;"/>
   </g>
   <g id="line2d_35">
    <path clip-path="url(#p181dd3e711)" d="M 779.313719 109.711873 
L 781.773223 109.79005 
L 784.232727 110.12675 
L 788.53686 111.02585 
L 792.226116 112.04295 
L 797.145124 113.620922 
L 800.219504 114.767841 
L 805.138512 116.952834 
L 808.827769 118.771868 
L 822.355041 126.008044 
L 826.044298 128.217135 
L 830.963306 131.456814 
L 834.652562 134.170304 
L 840.186446 138.510596 
L 844.490579 142.194189 
L 848.794711 146.109953 
L 853.713719 150.970615 
L 860.477355 157.970908 
L 870.315372 167.991558 
L 880.153388 177.91894 
L 886.302149 184.346725 
L 891.221157 189.76777 
L 895.525289 194.854643 
L 899.214545 199.550957 
L 903.518678 205.398788 
L 908.437686 212.509164 
L 915.201322 222.715064 
L 931.188099 247.05315 
L 945.945124 269.187582 
L 950.249256 276.185385 
L 954.553388 283.611553 
L 959.472397 292.622678 
L 968.080661 309.302746 
L 979.14843 331.40866 
L 985.912066 344.059815 
L 992.675702 355.627415 
L 996.364959 361.550111 
L 1003.743471 373.063264 
L 1008.047603 379.610865 
L 1016.040992 392.183983 
L 1037.561653 428.500953 
L 1043.710413 437.646531 
L 1046.784793 441.633451 
L 1051.088926 446.904606 
L 1053.54843 449.528239 
L 1060.312066 456.047235 
L 1064.001322 459.059949 
L 1067.075702 461.777405 
L 1069.535207 463.890445 
L 1072.609587 466.57387 
L 1078.758347 472.787604 
L 1081.217851 475.521641 
L 1087.366612 483.149363 
L 1090.440992 487.358062 
L 1099.049256 499.811948 
L 1103.353388 506.080199 
L 1109.502149 514.448532 
L 1113.806281 519.554654 
L 1115.650909 521.609715 
L 1118.110413 524.366605 
L 1128.563306 534.356526 
L 1130.407934 535.970073 
L 1139.016198 544.55168 
L 1142.705455 549.080635 
L 1145.164959 552.252306 
L 1148.854215 557.704503 
L 1151.313719 561.610448 
L 1155.617851 568.830607 
L 1160.53686 577.588456 
L 1164.226116 583.966542 
L 1166.68562 588.140871 
L 1170.374876 593.678881 
L 1172.219504 596.237803 
L 1174.064132 598.544571 
L 1176.523636 601.044892 
L 1178.368264 602.559388 
L 1180.212893 603.760164 
L 1182.057521 604.601397 
L 1183.287273 604.961564 
L 1185.131901 605.128378 
L 1186.361653 605.078102 
L 1188.206281 604.718685 
L 1189.436033 604.315297 
L 1190.665785 603.744984 
L 1192.510413 602.532974 
L 1194.355041 601.017397 
L 1195.584793 599.874744 
L 1197.429421 597.927725 
L 1199.27405 595.698483 
L 1201.733554 592.289286 
L 1206.037686 585.717511 
L 1207.882314 582.672617 
L 1214.031074 571.58188 
L 1217.720331 563.91853 
L 1221.409587 555.893582 
L 1221.409587 555.893582 
" style="fill:none;stroke:#ffff14;stroke-linecap:square;stroke-width:1.5;"/>
   </g>
   <g id="patch_8">
    <path d="M 757.178182 629.9064 
L 757.178182 84.9312 
" style="fill:none;stroke:#000000;stroke-linecap:square;stroke-linejoin:miter;stroke-width:0.8;"/>
   </g>
   <g id="patch_9">
    <path d="M 1244.16 629.9064 
L 1244.16 84.9312 
" style="fill:none;stroke:#000000;stroke-linecap:square;stroke-linejoin:miter;stroke-width:0.8;"/>
   </g>
   <g id="patch_10">
    <path d="M 757.178182 629.9064 
L 1244.16 629.9064 
" style="fill:none;stroke:#000000;stroke-linecap:square;stroke-linejoin:miter;stroke-width:0.8;"/>
   </g>
   <g id="patch_11">
    <path d="M 757.178182 84.9312 
L 1244.16 84.9312 
" style="fill:none;stroke:#000000;stroke-linecap:square;stroke-linejoin:miter;stroke-width:0.8;"/>
   </g>
   <g id="text_29">
    <!-- Left abduction -->
    <defs>
     <path d="M 9.8125 72.90625 
L 19.671875 72.90625 
L 19.671875 8.296875 
L 55.171875 8.296875 
L 55.171875 0 
L 9.8125 0 
z
" id="DejaVuSans-76"/>
     <path d="M 56.203125 29.59375 
L 56.203125 25.203125 
L 14.890625 25.203125 
Q 15.484375 15.921875 20.484375 11.0625 
Q 25.484375 6.203125 34.421875 6.203125 
Q 39.59375 6.203125 44.453125 7.46875 
Q 49.3125 8.734375 54.109375 11.28125 
L 54.109375 2.78125 
Q 49.265625 0.734375 44.1875 -0.34375 
Q 39.109375 -1.421875 33.890625 -1.421875 
Q 20.796875 -1.421875 13.15625 6.1875 
Q 5.515625 13.8125 5.515625 26.8125 
Q 5.515625 40.234375 12.765625 48.109375 
Q 20.015625 56 32.328125 56 
Q 43.359375 56 49.78125 48.890625 
Q 56.203125 41.796875 56.203125 29.59375 
z
M 47.21875 32.234375 
Q 47.125 39.59375 43.09375 43.984375 
Q 39.0625 48.390625 32.421875 48.390625 
Q 24.90625 48.390625 20.390625 44.140625 
Q 15.875 39.890625 15.1875 32.171875 
z
" id="DejaVuSans-101"/>
     <path d="M 37.109375 75.984375 
L 37.109375 68.5 
L 28.515625 68.5 
Q 23.6875 68.5 21.796875 66.546875 
Q 19.921875 64.59375 19.921875 59.515625 
L 19.921875 54.6875 
L 34.71875 54.6875 
L 34.71875 47.703125 
L 19.921875 47.703125 
L 19.921875 0 
L 10.890625 0 
L 10.890625 47.703125 
L 2.296875 47.703125 
L 2.296875 54.6875 
L 10.890625 54.6875 
L 10.890625 58.5 
Q 10.890625 67.625 15.140625 71.796875 
Q 19.390625 75.984375 28.609375 75.984375 
z
" id="DejaVuSans-102"/>
    </defs>
    <g transform="translate(957.375341 78.9312)scale(0.12 -0.12)">
     <use xlink:href="#DejaVuSans-76"/>
     <use x="55.697266" xlink:href="#DejaVuSans-101"/>
     <use x="117.220703" xlink:href="#DejaVuSans-102"/>
     <use x="152.410156" xlink:href="#DejaVuSans-116"/>
     <use x="191.619141" xlink:href="#DejaVuSans-32"/>
     <use x="223.40625" xlink:href="#DejaVuSans-97"/>
     <use x="284.685547" xlink:href="#DejaVuSans-98"/>
     <use x="348.162109" xlink:href="#DejaVuSans-100"/>
     <use x="411.638672" xlink:href="#DejaVuSans-117"/>
     <use x="475.017578" xlink:href="#DejaVuSans-99"/>
     <use x="529.998047" xlink:href="#DejaVuSans-116"/>
     <use x="569.207031" xlink:href="#DejaVuSans-105"/>
     <use x="596.990234" xlink:href="#DejaVuSans-111"/>
     <use x="658.171875" xlink:href="#DejaVuSans-110"/>
    </g>
   </g>
  </g>
 </g>
 <defs>
  <clipPath id="p78d953ad33">
   <rect height="544.9752" width="486.981818" x="172.8" y="84.9312"/>
  </clipPath>
  <clipPath id="p181dd3e711">
   <rect height="544.9752" width="486.981818" x="757.178182" y="84.9312"/>
  </clipPath>
 </defs>
</svg>
