<?xml version="1.0" encoding="utf-8" standalone="no"?>
<!DOCTYPE svg PUBLIC "-//W3C//DTD SVG 1.1//EN"
  "http://www.w3.org/Graphics/SVG/1.1/DTD/svg11.dtd">
<!-- Created with matplotlib (https://matplotlib.org/) -->
<svg height="707.76pt" version="1.1" viewBox="0 0 1382.4 707.76" width="1382.4pt" xmlns="http://www.w3.org/2000/svg" xmlns:xlink="http://www.w3.org/1999/xlink">
 <defs>
  <style type="text/css">
*{stroke-linecap:butt;stroke-linejoin:round;}
  </style>
 </defs>
 <g id="figure_1">
  <g id="patch_1">
   <path d="M 0 707.76 
L 1382.4 707.76 
L 1382.4 0 
L 0 0 
z
" style="fill:#ffffff;"/>
  </g>
  <g id="axes_1">
   <g id="patch_2">
    <path d="M 172.8 629.9064 
L 659.781818 629.9064 
L 659.781818 84.9312 
L 172.8 84.9312 
z
" style="fill:#ffffff;"/>
   </g>
   <g id="matplotlib.axis_1">
    <g id="xtick_1">
     <g id="line2d_1">
      <defs>
       <path d="M 0 0 
L 0 3.5 
" id="m6bd473f4ac" style="stroke:#000000;stroke-width:0.8;"/>
      </defs>
      <g>
       <use style="stroke:#000000;stroke-width:0.8;" x="214.73243" xlink:href="#m6bd473f4ac" y="629.9064"/>
      </g>
     </g>
     <g id="text_1">
      <!-- 0 -->
      <defs>
       <path d="M 31.78125 66.40625 
Q 24.171875 66.40625 20.328125 58.90625 
Q 16.5 51.421875 16.5 36.375 
Q 16.5 21.390625 20.328125 13.890625 
Q 24.171875 6.390625 31.78125 6.390625 
Q 39.453125 6.390625 43.28125 13.890625 
Q 47.125 21.390625 47.125 36.375 
Q 47.125 51.421875 43.28125 58.90625 
Q 39.453125 66.40625 31.78125 66.40625 
z
M 31.78125 74.21875 
Q 44.046875 74.21875 50.515625 64.515625 
Q 56.984375 54.828125 56.984375 36.375 
Q 56.984375 17.96875 50.515625 8.265625 
Q 44.046875 -1.421875 31.78125 -1.421875 
Q 19.53125 -1.421875 13.0625 8.265625 
Q 6.59375 17.96875 6.59375 36.375 
Q 6.59375 54.828125 13.0625 64.515625 
Q 19.53125 74.21875 31.78125 74.21875 
z
" id="DejaVuSans-48"/>
      </defs>
      <g transform="translate(211.55118 644.504838)scale(0.1 -0.1)">
       <use xlink:href="#DejaVuSans-48"/>
      </g>
     </g>
    </g>
    <g id="xtick_2">
     <g id="line2d_2">
      <g>
       <use style="stroke:#000000;stroke-width:0.8;" x="270.932402" xlink:href="#m6bd473f4ac" y="629.9064"/>
      </g>
     </g>
     <g id="text_2">
      <!-- 20 -->
      <defs>
       <path d="M 19.1875 8.296875 
L 53.609375 8.296875 
L 53.609375 0 
L 7.328125 0 
L 7.328125 8.296875 
Q 12.9375 14.109375 22.625 23.890625 
Q 32.328125 33.6875 34.8125 36.53125 
Q 39.546875 41.84375 41.421875 45.53125 
Q 43.3125 49.21875 43.3125 52.78125 
Q 43.3125 58.59375 39.234375 62.25 
Q 35.15625 65.921875 28.609375 65.921875 
Q 23.96875 65.921875 18.8125 64.3125 
Q 13.671875 62.703125 7.8125 59.421875 
L 7.8125 69.390625 
Q 13.765625 71.78125 18.9375 73 
Q 24.125 74.21875 28.421875 74.21875 
Q 39.75 74.21875 46.484375 68.546875 
Q 53.21875 62.890625 53.21875 53.421875 
Q 53.21875 48.921875 51.53125 44.890625 
Q 49.859375 40.875 45.40625 35.40625 
Q 44.1875 33.984375 37.640625 27.21875 
Q 31.109375 20.453125 19.1875 8.296875 
z
" id="DejaVuSans-50"/>
      </defs>
      <g transform="translate(264.569902 644.504838)scale(0.1 -0.1)">
       <use xlink:href="#DejaVuSans-50"/>
       <use x="63.623047" xlink:href="#DejaVuSans-48"/>
      </g>
     </g>
    </g>
    <g id="xtick_3">
     <g id="line2d_3">
      <g>
       <use style="stroke:#000000;stroke-width:0.8;" x="327.132374" xlink:href="#m6bd473f4ac" y="629.9064"/>
      </g>
     </g>
     <g id="text_3">
      <!-- 40 -->
      <defs>
       <path d="M 37.796875 64.3125 
L 12.890625 25.390625 
L 37.796875 25.390625 
z
M 35.203125 72.90625 
L 47.609375 72.90625 
L 47.609375 25.390625 
L 58.015625 25.390625 
L 58.015625 17.1875 
L 47.609375 17.1875 
L 47.609375 0 
L 37.796875 0 
L 37.796875 17.1875 
L 4.890625 17.1875 
L 4.890625 26.703125 
z
" id="DejaVuSans-52"/>
      </defs>
      <g transform="translate(320.769874 644.504838)scale(0.1 -0.1)">
       <use xlink:href="#DejaVuSans-52"/>
       <use x="63.623047" xlink:href="#DejaVuSans-48"/>
      </g>
     </g>
    </g>
    <g id="xtick_4">
     <g id="line2d_4">
      <g>
       <use style="stroke:#000000;stroke-width:0.8;" x="383.332345" xlink:href="#m6bd473f4ac" y="629.9064"/>
      </g>
     </g>
     <g id="text_4">
      <!-- 60 -->
      <defs>
       <path d="M 33.015625 40.375 
Q 26.375 40.375 22.484375 35.828125 
Q 18.609375 31.296875 18.609375 23.390625 
Q 18.609375 15.53125 22.484375 10.953125 
Q 26.375 6.390625 33.015625 6.390625 
Q 39.65625 6.390625 43.53125 10.953125 
Q 47.40625 15.53125 47.40625 23.390625 
Q 47.40625 31.296875 43.53125 35.828125 
Q 39.65625 40.375 33.015625 40.375 
z
M 52.59375 71.296875 
L 52.59375 62.3125 
Q 48.875 64.0625 45.09375 64.984375 
Q 41.3125 65.921875 37.59375 65.921875 
Q 27.828125 65.921875 22.671875 59.328125 
Q 17.53125 52.734375 16.796875 39.40625 
Q 19.671875 43.65625 24.015625 45.921875 
Q 28.375 48.1875 33.59375 48.1875 
Q 44.578125 48.1875 50.953125 41.515625 
Q 57.328125 34.859375 57.328125 23.390625 
Q 57.328125 12.15625 50.6875 5.359375 
Q 44.046875 -1.421875 33.015625 -1.421875 
Q 20.359375 -1.421875 13.671875 8.265625 
Q 6.984375 17.96875 6.984375 36.375 
Q 6.984375 53.65625 15.1875 63.9375 
Q 23.390625 74.21875 37.203125 74.21875 
Q 40.921875 74.21875 44.703125 73.484375 
Q 48.484375 72.75 52.59375 71.296875 
z
" id="DejaVuSans-54"/>
      </defs>
      <g transform="translate(376.969845 644.504838)scale(0.1 -0.1)">
       <use xlink:href="#DejaVuSans-54"/>
       <use x="63.623047" xlink:href="#DejaVuSans-48"/>
      </g>
     </g>
    </g>
    <g id="xtick_5">
     <g id="line2d_5">
      <g>
       <use style="stroke:#000000;stroke-width:0.8;" x="439.532317" xlink:href="#m6bd473f4ac" y="629.9064"/>
      </g>
     </g>
     <g id="text_5">
      <!-- 80 -->
      <defs>
       <path d="M 31.78125 34.625 
Q 24.75 34.625 20.71875 30.859375 
Q 16.703125 27.09375 16.703125 20.515625 
Q 16.703125 13.921875 20.71875 10.15625 
Q 24.75 6.390625 31.78125 6.390625 
Q 38.8125 6.390625 42.859375 10.171875 
Q 46.921875 13.96875 46.921875 20.515625 
Q 46.921875 27.09375 42.890625 30.859375 
Q 38.875 34.625 31.78125 34.625 
z
M 21.921875 38.8125 
Q 15.578125 40.375 12.03125 44.71875 
Q 8.5 49.078125 8.5 55.328125 
Q 8.5 64.0625 14.71875 69.140625 
Q 20.953125 74.21875 31.78125 74.21875 
Q 42.671875 74.21875 48.875 69.140625 
Q 55.078125 64.0625 55.078125 55.328125 
Q 55.078125 49.078125 51.53125 44.71875 
Q 48 40.375 41.703125 38.8125 
Q 48.828125 37.15625 52.796875 32.3125 
Q 56.78125 27.484375 56.78125 20.515625 
Q 56.78125 9.90625 50.3125 4.234375 
Q 43.84375 -1.421875 31.78125 -1.421875 
Q 19.734375 -1.421875 13.25 4.234375 
Q 6.78125 9.90625 6.78125 20.515625 
Q 6.78125 27.484375 10.78125 32.3125 
Q 14.796875 37.15625 21.921875 38.8125 
z
M 18.3125 54.390625 
Q 18.3125 48.734375 21.84375 45.5625 
Q 25.390625 42.390625 31.78125 42.390625 
Q 38.140625 42.390625 41.71875 45.5625 
Q 45.3125 48.734375 45.3125 54.390625 
Q 45.3125 60.0625 41.71875 63.234375 
Q 38.140625 66.40625 31.78125 66.40625 
Q 25.390625 66.40625 21.84375 63.234375 
Q 18.3125 60.0625 18.3125 54.390625 
z
" id="DejaVuSans-56"/>
      </defs>
      <g transform="translate(433.169817 644.504838)scale(0.1 -0.1)">
       <use xlink:href="#DejaVuSans-56"/>
       <use x="63.623047" xlink:href="#DejaVuSans-48"/>
      </g>
     </g>
    </g>
    <g id="xtick_6">
     <g id="line2d_6">
      <g>
       <use style="stroke:#000000;stroke-width:0.8;" x="495.732288" xlink:href="#m6bd473f4ac" y="629.9064"/>
      </g>
     </g>
     <g id="text_6">
      <!-- 100 -->
      <defs>
       <path d="M 12.40625 8.296875 
L 28.515625 8.296875 
L 28.515625 63.921875 
L 10.984375 60.40625 
L 10.984375 69.390625 
L 28.421875 72.90625 
L 38.28125 72.90625 
L 38.28125 8.296875 
L 54.390625 8.296875 
L 54.390625 0 
L 12.40625 0 
z
" id="DejaVuSans-49"/>
      </defs>
      <g transform="translate(486.188538 644.504838)scale(0.1 -0.1)">
       <use xlink:href="#DejaVuSans-49"/>
       <use x="63.623047" xlink:href="#DejaVuSans-48"/>
       <use x="127.246094" xlink:href="#DejaVuSans-48"/>
      </g>
     </g>
    </g>
    <g id="xtick_7">
     <g id="line2d_7">
      <g>
       <use style="stroke:#000000;stroke-width:0.8;" x="551.93226" xlink:href="#m6bd473f4ac" y="629.9064"/>
      </g>
     </g>
     <g id="text_7">
      <!-- 120 -->
      <g transform="translate(542.38851 644.504838)scale(0.1 -0.1)">
       <use xlink:href="#DejaVuSans-49"/>
       <use x="63.623047" xlink:href="#DejaVuSans-50"/>
       <use x="127.246094" xlink:href="#DejaVuSans-48"/>
      </g>
     </g>
    </g>
    <g id="xtick_8">
     <g id="line2d_8">
      <g>
       <use style="stroke:#000000;stroke-width:0.8;" x="608.132231" xlink:href="#m6bd473f4ac" y="629.9064"/>
      </g>
     </g>
     <g id="text_8">
      <!-- 140 -->
      <g transform="translate(598.588481 644.504838)scale(0.1 -0.1)">
       <use xlink:href="#DejaVuSans-49"/>
       <use x="63.623047" xlink:href="#DejaVuSans-52"/>
       <use x="127.246094" xlink:href="#DejaVuSans-48"/>
      </g>
     </g>
    </g>
   </g>
   <g id="matplotlib.axis_2">
    <g id="ytick_1">
     <g id="line2d_9">
      <defs>
       <path d="M 0 0 
L -3.5 0 
" id="m06a0103649" style="stroke:#000000;stroke-width:0.8;"/>
      </defs>
      <g>
       <use style="stroke:#000000;stroke-width:0.8;" x="172.8" xlink:href="#m06a0103649" y="604.203005"/>
      </g>
     </g>
     <g id="text_9">
      <!-- −6 -->
      <defs>
       <path d="M 10.59375 35.5 
L 73.1875 35.5 
L 73.1875 27.203125 
L 10.59375 27.203125 
z
" id="DejaVuSans-8722"/>
      </defs>
      <g transform="translate(151.057812 608.002223)scale(0.1 -0.1)">
       <use xlink:href="#DejaVuSans-8722"/>
       <use x="83.789062" xlink:href="#DejaVuSans-54"/>
      </g>
     </g>
    </g>
    <g id="ytick_2">
     <g id="line2d_10">
      <g>
       <use style="stroke:#000000;stroke-width:0.8;" x="172.8" xlink:href="#m06a0103649" y="539.208401"/>
      </g>
     </g>
     <g id="text_10">
      <!-- −4 -->
      <g transform="translate(151.057812 543.007619)scale(0.1 -0.1)">
       <use xlink:href="#DejaVuSans-8722"/>
       <use x="83.789062" xlink:href="#DejaVuSans-52"/>
      </g>
     </g>
    </g>
    <g id="ytick_3">
     <g id="line2d_11">
      <g>
       <use style="stroke:#000000;stroke-width:0.8;" x="172.8" xlink:href="#m06a0103649" y="474.213797"/>
      </g>
     </g>
     <g id="text_11">
      <!-- −2 -->
      <g transform="translate(151.057812 478.013015)scale(0.1 -0.1)">
       <use xlink:href="#DejaVuSans-8722"/>
       <use x="83.789062" xlink:href="#DejaVuSans-50"/>
      </g>
     </g>
    </g>
    <g id="ytick_4">
     <g id="line2d_12">
      <g>
       <use style="stroke:#000000;stroke-width:0.8;" x="172.8" xlink:href="#m06a0103649" y="409.219193"/>
      </g>
     </g>
     <g id="text_12">
      <!-- 0 -->
      <g transform="translate(159.4375 413.018411)scale(0.1 -0.1)">
       <use xlink:href="#DejaVuSans-48"/>
      </g>
     </g>
    </g>
    <g id="ytick_5">
     <g id="line2d_13">
      <g>
       <use style="stroke:#000000;stroke-width:0.8;" x="172.8" xlink:href="#m06a0103649" y="344.224589"/>
      </g>
     </g>
     <g id="text_13">
      <!-- 2 -->
      <g transform="translate(159.4375 348.023807)scale(0.1 -0.1)">
       <use xlink:href="#DejaVuSans-50"/>
      </g>
     </g>
    </g>
    <g id="ytick_6">
     <g id="line2d_14">
      <g>
       <use style="stroke:#000000;stroke-width:0.8;" x="172.8" xlink:href="#m06a0103649" y="279.229985"/>
      </g>
     </g>
     <g id="text_14">
      <!-- 4 -->
      <g transform="translate(159.4375 283.029203)scale(0.1 -0.1)">
       <use xlink:href="#DejaVuSans-52"/>
      </g>
     </g>
    </g>
    <g id="ytick_7">
     <g id="line2d_15">
      <g>
       <use style="stroke:#000000;stroke-width:0.8;" x="172.8" xlink:href="#m06a0103649" y="214.235381"/>
      </g>
     </g>
     <g id="text_15">
      <!-- 6 -->
      <g transform="translate(159.4375 218.034599)scale(0.1 -0.1)">
       <use xlink:href="#DejaVuSans-54"/>
      </g>
     </g>
    </g>
    <g id="ytick_8">
     <g id="line2d_16">
      <g>
       <use style="stroke:#000000;stroke-width:0.8;" x="172.8" xlink:href="#m06a0103649" y="149.240776"/>
      </g>
     </g>
     <g id="text_16">
      <!-- 8 -->
      <g transform="translate(159.4375 153.039995)scale(0.1 -0.1)">
       <use xlink:href="#DejaVuSans-56"/>
      </g>
     </g>
    </g>
   </g>
   <g id="line2d_17">
    <path clip-path="url(#p335e38fa8f)" d="M 214.73243 401.132872 
L 217.542429 417.040999 
L 220.352428 411.223572 
L 223.162426 401.023846 
L 225.972425 416.372232 
L 228.782423 412.788943 
L 231.592422 400.784255 
L 234.40242 415.406055 
L 237.212419 413.999482 
L 240.022418 400.810026 
L 242.832416 414.619753 
L 245.642415 415.263689 
L 248.452413 401.33282 
L 251.262412 414.11726 
L 254.072411 416.632358 
L 256.882409 402.051119 
L 259.692408 413.463892 
L 262.502406 417.713246 
L 265.312405 402.516786 
L 268.122403 412.571455 
L 270.932402 418.381094 
L 273.742401 402.942403 
L 276.552399 411.834344 
L 279.362398 419.099867 
L 282.172396 403.683619 
L 284.982395 411.52437 
L 287.792393 420.061597 
L 290.602392 404.690382 
L 293.412391 411.377829 
L 296.222389 420.89137 
L 299.032388 405.523126 
L 301.842386 411.044062 
L 304.652385 421.337962 
L 307.462383 405.996943 
L 310.272382 410.765224 
L 313.082381 421.665612 
L 315.892379 406.430094 
L 318.702378 410.924379 
L 321.512376 422.174185 
L 324.322375 406.979526 
L 327.132374 411.461777 
L 329.942372 422.713935 
L 332.752371 407.38446 
L 335.562369 411.971108 
L 338.372368 422.942593 
L 341.182366 407.377937 
L 343.992365 412.35206 
L 346.802364 422.888559 
L 349.612362 407.05192 
L 352.422361 412.901857 
L 355.232359 422.76166 
L 358.042358 406.728064 
L 360.852356 413.722165 
L 363.662355 422.583861 
L 366.472354 406.412908 
L 369.282352 414.585292 
L 372.092351 422.138461 
L 374.902349 405.891655 
L 377.712348 415.312445 
L 380.522347 421.262542 
L 383.332345 405.11602 
L 386.142344 416.027522 
L 388.952342 419.997397 
L 391.762341 404.364451 
L 394.572339 416.849392 
L 397.382338 418.481327 
L 400.192337 403.781091 
L 403.002335 417.711971 
L 405.812334 416.677079 
L 408.622332 403.341247 
L 411.432331 418.37587 
L 414.242329 414.470744 
L 417.052328 402.985471 
L 419.862327 418.697974 
L 422.672325 411.852354 
L 425.482324 402.80981 
L 428.292322 418.74365 
L 431.102321 409.012913 
L 433.91232 403.047999 
L 436.722318 418.496051 
L 439.532317 406.212937 
L 442.342315 403.702774 
L 445.152314 417.895795 
L 447.962312 403.544961 
L 450.772311 404.628348 
L 453.58231 416.773698 
L 456.392308 400.996366 
L 459.202307 405.694987 
L 462.012305 415.076381 
L 464.822304 398.729769 
L 467.632302 406.928083 
L 470.442301 412.94504 
L 473.2523 397.006058 
L 476.062298 408.348606 
L 478.872297 410.543255 
L 481.682295 396.006129 
L 484.492294 409.728372 
L 487.302293 407.893287 
L 490.112291 395.66106 
L 492.92229 410.788403 
L 495.732288 405.036606 
L 498.542287 395.862483 
L 501.352285 411.443077 
L 504.162284 402.119312 
L 506.972283 396.714278 
L 509.782281 411.744292 
L 512.59228 399.44301 
L 515.402278 398.264682 
L 518.212277 411.624047 
L 521.022275 397.242112 
L 523.832274 400.254218 
L 526.642273 410.941357 
L 529.452271 395.489378 
L 535.072268 409.629215 
L 537.882267 394.273612 
L 540.692266 404.743745 
L 543.502264 407.788557 
L 546.312263 393.823988 
L 549.122261 407.118931 
L 551.93226 405.436946 
L 554.742258 394.353039 
L 557.552257 409.323983 
L 560.362256 402.438861 
L 563.172254 396.11382 
L 565.982253 411.008531 
L 568.792251 398.661574 
L 571.60225 400.392819 
L 574.412248 410.90613 
L 577.222247 395.225009 
L 580.032246 408.669901 
L 582.842244 404.90222 
L 585.652243 398.701631 
L 588.462241 415.197577 
L 591.27224 390.398094 
L 594.082239 433.119739 
L 596.892237 342.594079 
L 599.702236 604.488821 
L 602.304647 -1 
M 602.651033 -1 
L 604.690731 708.76 
M 606.047451 708.76 
L 608.132231 77.059604 
L 610.94223 644.588771 
L 613.752229 536.934081 
L 616.562227 151.630945 
L 619.372226 635.378064 
L 622.182224 493.609072 
L 624.992223 172.59196 
L 627.802221 687.194766 
L 630.61222 422.240084 
L 633.422219 210.130896 
L 636.232217 672.673597 
L 639.042216 456.681449 
L 641.852214 165.292027 
L 644.662213 653.47145 
L 647.472212 350.835215 
L 650.28221 309.988453 
L 651.952778 708.76 
M 654.679425 708.76 
L 655.902207 499.222709 
L 658.712206 91.505474 
L 661.522204 443.201137 
L 664.332203 685.923353 
L 666.529586 -1 
M 670.187838 -1 
L 672.615499 708.76 
M 678.838117 708.76 
L 680.870192 -1 
M 688.879319 -1 
L 689.62219 248.021379 
L 692.432189 667.199875 
L 695.242187 471.772229 
L 698.052186 29.745123 
L 698.807934 -1 
M 723.741286 -1 
L 726.152172 444.188319 
L 728.379498 708.76 
M 729.327516 708.76 
L 731.772169 245.636076 
L 733.769195 -1 
M 739.328373 -1 
L 740.202165 177.31723 
L 741.862309 708.76 
M 760.762356 708.76 
L 762.682153 371.672801 
L 765.492152 371.004294 
L 767.879083 708.76 
M 775.052044 708.76 
L 776.732146 501.482775 
L 779.225788 -1 
M 785.867057 -1 
L 787.97214 235.545498 
L 790.782139 274.727007 
L 793.201664 -1 
M 824.031775 -1 
L 824.502122 78.845638 
L 825.874289 -1 
M 845.947459 -1 
L 848.579149 708.76 
M 856.798636 708.76 
L 858.222105 388.224062 
L 861.032103 223.651287 
L 863.842102 14.029154 
L 864.32888 -1 
M 869.794474 -1 
L 872.272098 218.997016 
L 875.082096 202.385986 
L 877.892095 246.213759 
L 880.688183 -1 
M 893.730806 -1 
L 894.752086 35.186513 
L 897.562085 248.456163 
L 900.372084 615.361793 
L 901.283634 708.76 
M 905.505879 708.76 
L 905.992081 668.061852 
L 908.802079 512.464218 
L 911.583923 708.76 
M 911.824241 708.76 
L 914.422076 684.433713 
L 917.232075 419.836817 
L 920.042074 536.417763 
L 922.807374 708.76 
M 930.486104 708.76 
L 931.282068 467.576727 
L 934.092067 562.733775 
L 935.484743 708.76 
M 937.83582 708.76 
L 939.712064 410.149235 
L 942.522062 643.236786 
L 943.719046 708.76 
M 949.463953 708.76 
L 950.952058 424.758191 
L 953.762057 516.389667 
L 954.925291 708.76 
M 963.38525 708.76 
L 965.002051 324.118725 
L 967.812049 69.480932 
L 970.622048 159.535964 
L 973.432047 429.984689 
L 976.242045 659.301328 
L 978.476297 708.76 
M 996.639699 708.76 
L 998.722034 561.204744 
L 1001.532032 390.37681 
L 1004.342031 491.452305 
L 1008.376494 708.76 
M 1016.313806 708.76 
L 1018.392024 416.257724 
L 1021.202022 271.02041 
L 1024.012021 358.77607 
L 1026.82202 234.006022 
L 1029.632018 295.972083 
L 1031.227705 -1 
M 1040.44762 -1 
L 1040.872013 41.108738 
L 1043.682011 236.050636 
L 1046.49201 163.224768 
L 1049.302008 130.921302 
L 1052.112007 135.315453 
L 1054.922005 99.10264 
L 1057.732004 110.22599 
L 1063.352001 390.341043 
L 1066.162 435.637487 
L 1068.971998 582.56841 
L 1071.781997 707.493364 
L 1074.591995 137.314437 
L 1075.486275 -1 
M 1082.601193 -1 
L 1083.021991 146.289375 
L 1085.83199 627.025006 
L 1088.641988 623.931154 
L 1091.451987 268.687961 
L 1092.523567 -1 
M 1096.197662 -1 
L 1097.071984 196.61954 
L 1099.881983 607.496914 
L 1100.330653 708.76 
M 1110.06199 708.76 
L 1111.121977 414.605995 
L 1113.365679 -1 
M 1114.323333 -1 
L 1116.741974 647.274234 
L 1119.551973 276.164594 
L 1122.361971 237.131929 
L 1125.17197 690.046091 
L 1127.622115 -1 
M 1151.056236 -1 
L 1153.271956 100.129268 
L 1156.081954 304.690502 
L 1157.96278 708.76 
M 1172.53989 708.76 
L 1172.941946 694.063055 
L 1175.751944 675.589119 
L 1178.3974 708.76 
M 1224.404427 708.76 
L 1226.331919 300.465054 
L 1227.956637 -1 
M 1240.944 -1 
L 1243.19191 115.878439 
L 1246.001909 338.070485 
L 1248.811907 466.693595 
L 1251.621906 640.72707 
L 1253.055097 708.76 
M 1274.651147 708.76 
L 1276.911893 632.248272 
L 1279.721892 548.776783 
L 1282.53189 638.011648 
L 1283.763736 708.76 
M 1295.969938 708.76 
L 1296.581883 638.52889 
L 1298.413757 -1 
M 1301.749983 -1 
L 1302.20188 64.439004 
L 1305.011879 225.81222 
L 1307.821877 504.8655 
L 1310.631876 517.275601 
L 1313.441875 496.008671 
L 1316.352714 708.76 
M 1337.132101 708.76 
L 1338.731862 632.52502 
L 1341.54186 521.692775 
L 1344.351859 525.96188 
L 1347.161858 610.565727 
L 1349.516691 708.76 
M 1350.278834 708.76 
L 1352.781855 554.002164 
L 1355.591853 105.980044 
L 1358.401852 330.201974 
L 1360.612638 708.76 
M 1361.680792 708.76 
L 1364.021849 196.536385 
L 1364.784618 -1 
L 1364.784618 -1 
" style="fill:none;stroke:#ff796c;stroke-linecap:square;stroke-width:1.5;"/>
   </g>
   <g id="line2d_18">
    <path clip-path="url(#p335e38fa8f)" d="M 214.73243 409.219193 
L 217.542429 409.21866 
L 220.352428 409.421379 
L 225.972425 409.379634 
L 228.782423 409.551141 
L 234.40242 409.49466 
L 237.212419 409.682243 
L 242.832416 409.746378 
L 248.452413 410.176428 
L 251.262412 410.237106 
L 256.882409 410.762203 
L 259.692408 410.823127 
L 265.312405 411.305773 
L 268.122403 411.324857 
L 273.742401 411.753214 
L 276.552399 411.759308 
L 282.172396 412.198419 
L 284.982395 412.210878 
L 290.602392 412.626593 
L 293.412391 412.596602 
L 299.032388 412.860506 
L 301.842386 412.737075 
L 307.462383 412.816225 
L 310.272382 412.625946 
L 315.892379 412.635498 
L 318.702378 412.44544 
L 332.752371 412.343704 
L 335.562369 412.151415 
L 341.182366 412.132808 
L 343.992365 411.921396 
L 363.662355 411.776388 
L 366.472354 411.874604 
L 369.282352 411.761087 
L 374.902349 411.893064 
L 377.712348 411.728469 
L 383.332345 411.733369 
L 386.142344 411.509261 
L 391.762341 411.415715 
L 394.572339 411.160362 
L 400.192337 410.995028 
L 403.002335 410.703688 
L 405.812334 410.630107 
L 408.622332 410.399724 
L 411.432331 410.032722 
L 414.242329 409.871782 
L 425.482324 408.389406 
L 428.292322 407.924019 
L 431.102321 407.675821 
L 436.722318 406.800716 
L 439.532317 406.583319 
L 445.152314 405.787761 
L 447.962312 405.58875 
L 450.772311 405.147855 
L 462.012305 403.991222 
L 464.822304 403.822504 
L 467.632302 403.457859 
L 473.2523 403.234474 
L 476.062298 402.967469 
L 481.682295 402.903895 
L 484.492294 402.70694 
L 487.302293 402.763704 
L 529.452271 401.578599 
L 532.26227 401.330479 
L 537.882267 401.228422 
L 540.692266 400.976156 
L 546.312263 400.92387 
L 549.122261 400.739893 
L 551.93226 400.840638 
L 557.552257 400.755961 
L 560.362256 400.960548 
L 565.982253 401.017664 
L 568.792251 401.292177 
L 571.60225 401.314669 
L 574.412248 401.505894 
L 577.222247 401.818522 
L 580.032246 401.89168 
L 582.842244 402.313493 
L 588.462241 402.88848 
L 591.27224 403.478812 
L 594.082239 403.651377 
L 596.892237 404.584226 
L 599.702236 404.142208 
L 602.512234 407.257692 
L 605.322233 398.083858 
L 608.132231 411.661313 
L 610.94223 398.237051 
L 613.752229 403.177318 
L 616.562227 400.153493 
L 619.372226 394.242244 
L 622.182224 396.244388 
L 624.992223 392.288072 
L 627.802221 386.877573 
L 630.61222 390.333579 
L 633.422219 387.016842 
L 636.232217 385.377185 
L 639.042216 389.703569 
L 641.852214 388.598859 
L 644.662213 387.049482 
L 647.472212 392.94731 
L 650.28221 390.036859 
L 653.092209 391.801184 
L 655.902207 405.382499 
L 664.332203 364.884509 
L 667.142202 358.627644 
L 669.9522 348.528116 
L 672.762199 335.029657 
L 675.572197 335.071955 
L 678.382196 348.65501 
L 681.192194 335.157195 
L 686.812192 335.243287 
L 692.432189 362.41131 
L 698.052186 335.418003 
L 700.862184 335.462204 
L 703.672183 349.047155 
L 706.482182 335.551228 
L 726.152172 335.869243 
L 728.96217 337.727638 
L 734.582167 337.832475 
L 740.202165 349.501334 
L 743.012163 360.598879 
L 745.822162 374.186836 
L 754.252157 333.708609 
L 768.30215 333.951409 
L 771.112149 339.983962 
L 785.162142 340.232326 
L 787.97214 353.161071 
L 790.782139 339.670926 
L 799.212135 339.823183 
L 802.022133 349.655342 
L 821.692123 444.801705 
L 824.502122 431.313636 
L 827.312121 444.906818 
L 835.742116 404.4441 
L 838.552115 405.327005 
L 841.362113 418.921005 
L 844.172112 405.434081 
L 855.412106 459.81231 
L 858.222105 459.866716 
L 866.652101 419.409228 
L 869.462099 408.581774 
L 872.272098 405.671699 
L 875.082096 419.267558 
L 889.132089 351.843628 
L 905.992081 433.426123 
L 908.802079 435.635134 
L 911.612078 432.116055 
L 914.422076 445.713891 
L 920.042074 418.74779 
L 925.662071 445.944382 
L 934.092067 405.496978 
L 939.712064 432.694841 
L 942.522062 422.998177 
L 948.142059 450.196775 
L 950.952058 436.71517 
L 953.762057 431.191806 
L 956.572055 427.753738 
L 959.382054 426.648046 
L 962.192052 426.107957 
L 965.002051 412.626933 
L 967.812049 400.014431 
L 970.622048 394.387122 
L 973.432047 387.096145 
L 976.242045 384.695381 
L 979.052044 381.87603 
L 981.862042 387.952464 
L 984.672041 398.507889 
L 987.48204 407.096501 
L 990.292038 410.830472 
L 993.102037 409.919099 
L 995.912035 398.318872 
L 1004.342031 357.879941 
L 1007.15203 360.061572 
L 1009.962028 366.916128 
L 1012.772027 376.434792 
L 1015.582025 385.248754 
L 1018.392024 390.732893 
L 1021.202022 377.253912 
L 1024.012021 368.622854 
L 1029.632018 341.665337 
L 1032.442017 351.88806 
L 1035.252015 338.409517 
L 1038.062014 352.012143 
L 1040.872013 341.031393 
L 1043.682011 354.634184 
L 1046.49201 356.60466 
L 1049.302008 351.22001 
L 1052.112007 349.755623 
L 1054.922005 351.805481 
L 1057.732004 349.435521 
L 1060.542003 351.204486 
L 1066.162 378.411217 
L 1068.971998 382.550334 
L 1074.591995 409.757486 
L 1077.401994 405.686879 
L 1085.83199 446.498306 
L 1088.641988 448.860882 
L 1091.451987 462.464879 
L 1094.261986 448.987851 
L 1097.071984 438.958942 
L 1099.881983 437.347631 
L 1102.691981 423.870776 
L 1105.50198 435.414724 
L 1108.311978 444.883124 
L 1111.121977 441.508196 
L 1113.931976 432.432935 
L 1119.551973 448.92687 
L 1122.361971 452.664558 
L 1125.17197 452.342063 
L 1127.981968 445.937934 
L 1130.791967 452.183256 
L 1133.601966 451.18016 
L 1136.411964 454.868622 
L 1139.221963 441.392391 
L 1142.031961 439.111783 
L 1144.84196 438.98705 
L 1147.651958 435.403593 
L 1150.461957 433.932224 
L 1153.271956 439.014321 
L 1156.081954 440.458986 
L 1158.891953 439.573132 
L 1161.701951 446.594134 
L 1164.51195 440.196128 
L 1167.321949 446.669797 
L 1175.751944 406.24228 
L 1181.371941 399.628157 
L 1184.18194 398.643885 
L 1186.991939 407.948494 
L 1189.801937 415.501849 
L 1192.611936 425.246271 
L 1195.421934 433.852557 
L 1198.231933 437.014841 
L 1201.041931 431.860864 
L 1203.85193 425.685998 
L 1206.661929 419.959408 
L 1209.471927 415.872877 
L 1212.281926 429.478357 
L 1215.091924 436.193766 
L 1217.901923 436.247169 
L 1220.711922 430.597858 
L 1223.52192 429.176823 
L 1226.331919 438.786409 
L 1229.141917 440.276465 
L 1231.951916 438.683304 
L 1234.761914 425.898363 
L 1240.381912 453.109364 
L 1243.19191 463.431887 
L 1246.001909 453.883709 
L 1248.811907 446.352307 
L 1251.621906 432.876693 
L 1254.431904 431.367896 
L 1257.241903 440.987686 
L 1260.051902 440.989141 
L 1262.8619 438.03478 
L 1265.671899 425.750493 
L 1268.481897 420.927948 
L 1271.291896 426.506742 
L 1276.911893 399.555267 
L 1279.721892 391.657479 
L 1282.53189 384.863255 
L 1285.341889 392.877604 
L 1293.771885 433.693265 
L 1296.581883 440.992506 
L 1299.391882 433.712508 
L 1302.20188 430.11517 
L 1305.011879 427.772357 
L 1307.821877 431.22768 
L 1310.631876 437.624288 
L 1313.441875 437.381615 
L 1316.251873 436.687654 
L 1319.061872 445.387928 
L 1321.87187 453.517703 
L 1324.681869 458.101484 
L 1327.491868 460.565071 
L 1330.301866 460.430011 
L 1333.111865 458.397305 
L 1335.921863 445.684304 
L 1341.54186 418.73127 
L 1344.351859 410.694976 
L 1347.161858 411.661553 
L 1352.781855 438.870285 
L 1355.591853 441.108938 
L 1358.401852 437.575009 
L 1361.21185 424.224504 
L 1364.021849 437.82862 
L 1366.831848 433.628655 
L 1369.641846 428.283503 
L 1372.451845 441.887439 
L 1375.261843 453.72059 
L 1378.071842 440.243314 
L 1380.881841 433.337046 
L 1383.4 436.809993 
L 1383.4 436.809993 
" style="fill:none;stroke:#e50000;stroke-linecap:square;stroke-width:1.5;"/>
   </g>
   <g id="line2d_19">
    <path clip-path="url(#p335e38fa8f)" d="M 214.73243 392.203645 
L 293.412391 392.314622 
L 372.092351 392.6459 
L 453.58231 393.215953 
L 535.072268 394.007889 
L 619.372226 395.047115 
L 709.29218 396.382284 
L 804.832132 398.028641 
L 908.802079 400.04518 
L 1032.442017 402.677159 
L 1203.85193 406.572644 
L 1383.4 410.687578 
L 1383.4 410.687578 
" style="fill:none;stroke:#014d4e;stroke-linecap:square;stroke-width:1.5;"/>
   </g>
   <g id="line2d_20">
    <path clip-path="url(#p335e38fa8f)" d="M 214.73243 392.204178 
L 217.542429 392.0016 
L 223.162426 392.044479 
L 225.972425 391.873964 
L 231.592422 391.933279 
L 234.40242 391.747538 
L 240.022418 391.687938 
L 245.642415 391.263556 
L 248.452413 391.206136 
L 254.072411 390.688405 
L 256.882409 390.631589 
L 262.502406 390.158005 
L 265.312405 390.143877 
L 270.932402 389.726279 
L 273.742401 389.725988 
L 279.362398 389.29933 
L 282.172396 389.293521 
L 287.792393 388.89195 
L 290.602392 388.929436 
L 296.222389 388.681367 
L 299.032388 388.813136 
L 304.652385 388.751507 
L 307.462383 388.950968 
L 313.082381 388.960621 
L 315.892379 389.160701 
L 329.942372 389.316746 
L 332.752371 389.520733 
L 338.372368 389.563575 
L 341.182366 389.787522 
L 360.852356 390.028043 
L 363.662355 389.944579 
L 366.472354 390.073124 
L 372.092351 389.972029 
L 374.902349 390.152477 
L 380.522347 390.180109 
L 383.332345 390.420894 
L 388.952342 390.548615 
L 391.762341 390.821465 
L 397.382338 391.022611 
L 400.192337 391.332267 
L 403.002335 391.424433 
L 405.812334 391.673675 
L 408.622332 392.059806 
L 411.432331 392.240146 
L 422.672325 393.802821 
L 425.482324 394.288955 
L 428.292322 394.558169 
L 433.91232 395.47611 
L 436.722318 395.715326 
L 442.342315 396.555322 
L 445.152314 396.77695 
L 447.962312 397.240729 
L 459.202307 398.491542 
L 462.012305 398.684464 
L 464.822304 399.073577 
L 470.442301 399.346683 
L 473.2523 399.63894 
L 478.872297 399.753803 
L 481.682295 399.976792 
L 484.492294 399.946321 
L 504.162284 400.771268 
L 506.972283 400.9291 
L 509.782281 400.899971 
L 515.402278 401.219022 
L 518.212277 401.200194 
L 521.022275 401.436641 
L 526.642273 401.556612 
L 529.452271 401.835106 
L 535.072268 401.99866 
L 537.882267 402.282049 
L 543.502264 402.397325 
L 546.312263 402.613167 
L 549.122261 402.544535 
L 554.742258 402.694176 
L 557.552257 402.522438 
L 563.172254 402.531753 
L 565.982253 402.29082 
L 568.792251 402.302151 
L 571.60225 402.14499 
L 574.412248 401.866668 
L 577.222247 401.828055 
L 580.032246 401.441027 
L 585.652243 400.936327 
L 588.462241 400.381496 
L 591.27224 400.244669 
L 594.082239 399.347794 
L 596.892237 399.826022 
L 599.702236 396.746982 
L 602.512234 405.957496 
L 605.322233 392.416953 
L 608.132231 405.87836 
L 610.94223 400.975471 
L 613.752229 404.036905 
L 616.562227 409.985994 
L 619.372226 408.02192 
L 622.182224 412.016535 
L 624.992223 417.465562 
L 627.802221 414.048312 
L 630.61222 417.404032 
L 633.422219 419.082898 
L 636.232217 414.795949 
L 639.042216 415.940319 
L 641.852214 417.529579 
L 644.662213 411.671859 
L 647.472212 414.622639 
L 650.28221 412.898866 
L 653.092209 399.358324 
L 661.522204 439.979951 
L 664.332203 446.278466 
L 667.142202 456.419859 
L 669.9522 469.960402 
L 672.762199 469.960402 
L 675.572197 456.419859 
L 678.382196 469.960402 
L 684.002193 469.960402 
L 689.62219 442.879317 
L 695.242187 469.960402 
L 698.052186 469.960402 
L 700.862184 456.419859 
L 703.672183 469.960402 
L 723.342173 469.960402 
L 726.152172 468.148244 
L 731.772169 468.136473 
L 737.392166 456.561469 
L 740.202165 445.511144 
L 743.012163 431.970602 
L 751.442159 472.592229 
L 765.492152 472.592229 
L 768.30215 466.608798 
L 782.352143 466.608798 
L 785.162142 453.730271 
L 787.97214 467.270814 
L 796.402136 467.270814 
L 799.212135 457.489759 
L 818.882125 362.705962 
L 821.692123 376.246504 
L 824.502122 362.705962 
L 832.932118 403.327589 
L 835.742116 402.497981 
L 838.552115 388.957438 
L 841.362113 402.497981 
L 852.602108 348.335811 
L 855.412106 348.335811 
L 863.842102 388.957438 
L 866.652101 399.83991 
L 869.462099 402.805152 
L 872.272098 389.26461 
L 886.322091 456.967322 
L 903.182082 375.724067 
L 905.992081 373.57208 
L 908.802079 377.148317 
L 911.612078 363.607775 
L 917.232075 390.68886 
L 922.852072 363.607775 
L 931.282068 404.229402 
L 936.902065 377.148317 
L 939.712064 386.903556 
L 945.332061 359.822471 
L 948.142059 373.363013 
L 950.952058 378.945432 
L 953.762057 382.442673 
L 956.572055 383.607655 
L 959.382054 384.207149 
L 962.192052 397.747691 
L 965.002051 410.419826 
L 967.812049 416.106879 
L 970.622048 423.457711 
L 973.432047 425.918438 
L 976.242045 428.797863 
L 979.052044 422.781608 
L 981.862042 412.28647 
L 984.672041 403.758249 
L 987.48204 400.084773 
L 990.292038 401.056744 
L 993.102037 412.717671 
L 1001.532032 453.339298 
L 1004.342031 451.218761 
L 1007.15203 444.425395 
L 1009.962028 434.968017 
L 1012.772027 426.215432 
L 1015.582025 420.792764 
L 1018.392024 434.333306 
L 1021.202022 443.026016 
L 1026.82202 470.107101 
L 1029.632018 459.946292 
L 1032.442017 473.486835 
L 1035.252015 459.946292 
L 1038.062014 470.989208 
L 1040.872013 457.448666 
L 1043.682011 455.540518 
L 1046.49201 460.987576 
L 1049.302008 462.514449 
L 1052.112007 460.527155 
L 1054.922005 462.959753 
L 1057.732004 461.253501 
L 1063.352001 434.172416 
L 1066.162 430.096229 
L 1071.781997 403.015144 
L 1074.591995 407.148887 
L 1083.021991 366.527259 
L 1085.83199 364.228076 
L 1088.641988 350.687534 
L 1091.451987 364.228076 
L 1094.261986 374.320558 
L 1097.071984 375.9955 
L 1099.881983 389.536043 
L 1102.691981 378.055838 
L 1105.50198 368.651236 
L 1108.311978 372.090013 
L 1111.121977 381.229176 
L 1116.741974 364.863194 
L 1119.551973 361.189555 
L 1122.361971 361.576146 
L 1125.17197 368.044417 
L 1127.981968 361.863281 
L 1130.791967 362.930606 
L 1133.601966 359.306415 
L 1136.411964 372.846958 
L 1139.221963 375.191917 
L 1142.031961 375.381039 
L 1144.84196 379.028922 
L 1147.651958 380.564754 
L 1150.461957 375.547153 
L 1153.271956 374.167018 
L 1156.081954 375.117434 
L 1158.891953 368.161025 
L 1161.701951 374.623654 
L 1164.51195 368.214635 
L 1172.941946 408.836263 
L 1178.561943 415.579913 
L 1181.371941 416.62898 
L 1184.18194 407.389186 
L 1186.991939 399.900665 
L 1189.801937 390.221095 
L 1192.611936 381.679676 
L 1195.421934 378.582274 
L 1198.231933 383.801146 
L 1201.041931 390.04092 
L 1203.85193 395.832429 
L 1206.661929 399.983889 
L 1209.471927 386.443347 
L 1212.281926 379.792883 
L 1215.091924 379.80443 
L 1217.901923 385.518697 
L 1220.711922 387.004692 
L 1223.52192 377.460069 
L 1226.331919 376.034976 
L 1229.141917 377.693101 
L 1231.951916 390.543005 
L 1237.571913 363.46192 
L 1240.381912 353.204348 
L 1243.19191 362.817471 
L 1246.001909 370.413811 
L 1248.811907 383.954353 
L 1251.621906 385.528069 
L 1254.431904 375.973187 
L 1257.241903 376.036628 
L 1260.051902 379.055871 
L 1262.8619 391.405025 
L 1265.671899 396.292421 
L 1268.481897 390.778461 
L 1274.101895 417.859546 
L 1276.911893 425.82211 
L 1279.721892 432.681086 
L 1282.53189 424.731465 
L 1290.961886 384.109838 
L 1293.771885 376.875219 
L 1296.581883 384.21981 
L 1299.391882 387.881709 
L 1302.20188 390.289053 
L 1305.011879 386.898226 
L 1307.821877 380.56608 
L 1310.631876 380.87318 
L 1313.441875 381.63153 
L 1316.251873 372.995607 
L 1319.061872 364.930143 
L 1321.87187 360.410633 
L 1324.681869 358.011275 
L 1327.491868 358.210521 
L 1330.301866 360.307369 
L 1333.111865 373.084466 
L 1338.731862 400.165551 
L 1341.54186 408.265796 
L 1344.351859 407.363122 
L 1349.971856 380.282037 
L 1352.781855 378.107126 
L 1355.591853 381.704743 
L 1358.401852 395.118879 
L 1361.21185 381.578336 
L 1364.021849 385.841816 
L 1366.831848 391.250422 
L 1369.641846 377.70988 
L 1372.451845 365.940059 
L 1375.261843 379.480602 
L 1378.071842 386.450072 
L 1380.881841 382.637767 
L 1383.4 383.876558 
L 1383.4 383.876558 
" style="fill:none;stroke:#ffff14;stroke-linecap:square;stroke-width:1.5;"/>
   </g>
   <g id="patch_3">
    <path d="M 172.8 629.9064 
L 172.8 84.9312 
" style="fill:none;stroke:#000000;stroke-linecap:square;stroke-linejoin:miter;stroke-width:0.8;"/>
   </g>
   <g id="patch_4">
    <path d="M 659.781818 629.9064 
L 659.781818 84.9312 
" style="fill:none;stroke:#000000;stroke-linecap:square;stroke-linejoin:miter;stroke-width:0.8;"/>
   </g>
   <g id="patch_5">
    <path d="M 172.8 629.9064 
L 659.781818 629.9064 
" style="fill:none;stroke:#000000;stroke-linecap:square;stroke-linejoin:miter;stroke-width:0.8;"/>
   </g>
   <g id="patch_6">
    <path d="M 172.8 84.9312 
L 659.781818 84.9312 
" style="fill:none;stroke:#000000;stroke-linecap:square;stroke-linejoin:miter;stroke-width:0.8;"/>
   </g>
   <g id="text_17">
    <!-- Right abduction -->
    <defs>
     <path d="M 44.390625 34.1875 
Q 47.5625 33.109375 50.5625 29.59375 
Q 53.5625 26.078125 56.59375 19.921875 
L 66.609375 0 
L 56 0 
L 46.6875 18.703125 
Q 43.0625 26.03125 39.671875 28.421875 
Q 36.28125 30.8125 30.421875 30.8125 
L 19.671875 30.8125 
L 19.671875 0 
L 9.8125 0 
L 9.8125 72.90625 
L 32.078125 72.90625 
Q 44.578125 72.90625 50.734375 67.671875 
Q 56.890625 62.453125 56.890625 51.90625 
Q 56.890625 45.015625 53.6875 40.46875 
Q 50.484375 35.9375 44.390625 34.1875 
z
M 19.671875 64.796875 
L 19.671875 38.921875 
L 32.078125 38.921875 
Q 39.203125 38.921875 42.84375 42.21875 
Q 46.484375 45.515625 46.484375 51.90625 
Q 46.484375 58.296875 42.84375 61.546875 
Q 39.203125 64.796875 32.078125 64.796875 
z
" id="DejaVuSans-82"/>
     <path d="M 9.421875 54.6875 
L 18.40625 54.6875 
L 18.40625 0 
L 9.421875 0 
z
M 9.421875 75.984375 
L 18.40625 75.984375 
L 18.40625 64.59375 
L 9.421875 64.59375 
z
" id="DejaVuSans-105"/>
     <path d="M 45.40625 27.984375 
Q 45.40625 37.75 41.375 43.109375 
Q 37.359375 48.484375 30.078125 48.484375 
Q 22.859375 48.484375 18.828125 43.109375 
Q 14.796875 37.75 14.796875 27.984375 
Q 14.796875 18.265625 18.828125 12.890625 
Q 22.859375 7.515625 30.078125 7.515625 
Q 37.359375 7.515625 41.375 12.890625 
Q 45.40625 18.265625 45.40625 27.984375 
z
M 54.390625 6.78125 
Q 54.390625 -7.171875 48.1875 -13.984375 
Q 42 -20.796875 29.203125 -20.796875 
Q 24.46875 -20.796875 20.265625 -20.09375 
Q 16.0625 -19.390625 12.109375 -17.921875 
L 12.109375 -9.1875 
Q 16.0625 -11.328125 19.921875 -12.34375 
Q 23.78125 -13.375 27.78125 -13.375 
Q 36.625 -13.375 41.015625 -8.765625 
Q 45.40625 -4.15625 45.40625 5.171875 
L 45.40625 9.625 
Q 42.625 4.78125 38.28125 2.390625 
Q 33.9375 0 27.875 0 
Q 17.828125 0 11.671875 7.65625 
Q 5.515625 15.328125 5.515625 27.984375 
Q 5.515625 40.671875 11.671875 48.328125 
Q 17.828125 56 27.875 56 
Q 33.9375 56 38.28125 53.609375 
Q 42.625 51.21875 45.40625 46.390625 
L 45.40625 54.6875 
L 54.390625 54.6875 
z
" id="DejaVuSans-103"/>
     <path d="M 54.890625 33.015625 
L 54.890625 0 
L 45.90625 0 
L 45.90625 32.71875 
Q 45.90625 40.484375 42.875 44.328125 
Q 39.84375 48.1875 33.796875 48.1875 
Q 26.515625 48.1875 22.3125 43.546875 
Q 18.109375 38.921875 18.109375 30.90625 
L 18.109375 0 
L 9.078125 0 
L 9.078125 75.984375 
L 18.109375 75.984375 
L 18.109375 46.1875 
Q 21.34375 51.125 25.703125 53.5625 
Q 30.078125 56 35.796875 56 
Q 45.21875 56 50.046875 50.171875 
Q 54.890625 44.34375 54.890625 33.015625 
z
" id="DejaVuSans-104"/>
     <path d="M 18.3125 70.21875 
L 18.3125 54.6875 
L 36.8125 54.6875 
L 36.8125 47.703125 
L 18.3125 47.703125 
L 18.3125 18.015625 
Q 18.3125 11.328125 20.140625 9.421875 
Q 21.96875 7.515625 27.59375 7.515625 
L 36.8125 7.515625 
L 36.8125 0 
L 27.59375 0 
Q 17.1875 0 13.234375 3.875 
Q 9.28125 7.765625 9.28125 18.015625 
L 9.28125 47.703125 
L 2.6875 47.703125 
L 2.6875 54.6875 
L 9.28125 54.6875 
L 9.28125 70.21875 
z
" id="DejaVuSans-116"/>
     <path id="DejaVuSans-32"/>
     <path d="M 34.28125 27.484375 
Q 23.390625 27.484375 19.1875 25 
Q 14.984375 22.515625 14.984375 16.5 
Q 14.984375 11.71875 18.140625 8.90625 
Q 21.296875 6.109375 26.703125 6.109375 
Q 34.1875 6.109375 38.703125 11.40625 
Q 43.21875 16.703125 43.21875 25.484375 
L 43.21875 27.484375 
z
M 52.203125 31.203125 
L 52.203125 0 
L 43.21875 0 
L 43.21875 8.296875 
Q 40.140625 3.328125 35.546875 0.953125 
Q 30.953125 -1.421875 24.3125 -1.421875 
Q 15.921875 -1.421875 10.953125 3.296875 
Q 6 8.015625 6 15.921875 
Q 6 25.140625 12.171875 29.828125 
Q 18.359375 34.515625 30.609375 34.515625 
L 43.21875 34.515625 
L 43.21875 35.40625 
Q 43.21875 41.609375 39.140625 45 
Q 35.0625 48.390625 27.6875 48.390625 
Q 23 48.390625 18.546875 47.265625 
Q 14.109375 46.140625 10.015625 43.890625 
L 10.015625 52.203125 
Q 14.9375 54.109375 19.578125 55.046875 
Q 24.21875 56 28.609375 56 
Q 40.484375 56 46.34375 49.84375 
Q 52.203125 43.703125 52.203125 31.203125 
z
" id="DejaVuSans-97"/>
     <path d="M 48.6875 27.296875 
Q 48.6875 37.203125 44.609375 42.84375 
Q 40.53125 48.484375 33.40625 48.484375 
Q 26.265625 48.484375 22.1875 42.84375 
Q 18.109375 37.203125 18.109375 27.296875 
Q 18.109375 17.390625 22.1875 11.75 
Q 26.265625 6.109375 33.40625 6.109375 
Q 40.53125 6.109375 44.609375 11.75 
Q 48.6875 17.390625 48.6875 27.296875 
z
M 18.109375 46.390625 
Q 20.953125 51.265625 25.265625 53.625 
Q 29.59375 56 35.59375 56 
Q 45.5625 56 51.78125 48.09375 
Q 58.015625 40.1875 58.015625 27.296875 
Q 58.015625 14.40625 51.78125 6.484375 
Q 45.5625 -1.421875 35.59375 -1.421875 
Q 29.59375 -1.421875 25.265625 0.953125 
Q 20.953125 3.328125 18.109375 8.203125 
L 18.109375 0 
L 9.078125 0 
L 9.078125 75.984375 
L 18.109375 75.984375 
z
" id="DejaVuSans-98"/>
     <path d="M 45.40625 46.390625 
L 45.40625 75.984375 
L 54.390625 75.984375 
L 54.390625 0 
L 45.40625 0 
L 45.40625 8.203125 
Q 42.578125 3.328125 38.25 0.953125 
Q 33.9375 -1.421875 27.875 -1.421875 
Q 17.96875 -1.421875 11.734375 6.484375 
Q 5.515625 14.40625 5.515625 27.296875 
Q 5.515625 40.1875 11.734375 48.09375 
Q 17.96875 56 27.875 56 
Q 33.9375 56 38.25 53.625 
Q 42.578125 51.265625 45.40625 46.390625 
z
M 14.796875 27.296875 
Q 14.796875 17.390625 18.875 11.75 
Q 22.953125 6.109375 30.078125 6.109375 
Q 37.203125 6.109375 41.296875 11.75 
Q 45.40625 17.390625 45.40625 27.296875 
Q 45.40625 37.203125 41.296875 42.84375 
Q 37.203125 48.484375 30.078125 48.484375 
Q 22.953125 48.484375 18.875 42.84375 
Q 14.796875 37.203125 14.796875 27.296875 
z
" id="DejaVuSans-100"/>
     <path d="M 8.5 21.578125 
L 8.5 54.6875 
L 17.484375 54.6875 
L 17.484375 21.921875 
Q 17.484375 14.15625 20.5 10.265625 
Q 23.53125 6.390625 29.59375 6.390625 
Q 36.859375 6.390625 41.078125 11.03125 
Q 45.3125 15.671875 45.3125 23.6875 
L 45.3125 54.6875 
L 54.296875 54.6875 
L 54.296875 0 
L 45.3125 0 
L 45.3125 8.40625 
Q 42.046875 3.421875 37.71875 1 
Q 33.40625 -1.421875 27.6875 -1.421875 
Q 18.265625 -1.421875 13.375 4.4375 
Q 8.5 10.296875 8.5 21.578125 
z
M 31.109375 56 
z
" id="DejaVuSans-117"/>
     <path d="M 48.78125 52.59375 
L 48.78125 44.1875 
Q 44.96875 46.296875 41.140625 47.34375 
Q 37.3125 48.390625 33.40625 48.390625 
Q 24.65625 48.390625 19.8125 42.84375 
Q 14.984375 37.3125 14.984375 27.296875 
Q 14.984375 17.28125 19.8125 11.734375 
Q 24.65625 6.203125 33.40625 6.203125 
Q 37.3125 6.203125 41.140625 7.25 
Q 44.96875 8.296875 48.78125 10.40625 
L 48.78125 2.09375 
Q 45.015625 0.34375 40.984375 -0.53125 
Q 36.96875 -1.421875 32.421875 -1.421875 
Q 20.0625 -1.421875 12.78125 6.34375 
Q 5.515625 14.109375 5.515625 27.296875 
Q 5.515625 40.671875 12.859375 48.328125 
Q 20.21875 56 33.015625 56 
Q 37.15625 56 41.109375 55.140625 
Q 45.0625 54.296875 48.78125 52.59375 
z
" id="DejaVuSans-99"/>
     <path d="M 30.609375 48.390625 
Q 23.390625 48.390625 19.1875 42.75 
Q 14.984375 37.109375 14.984375 27.296875 
Q 14.984375 17.484375 19.15625 11.84375 
Q 23.34375 6.203125 30.609375 6.203125 
Q 37.796875 6.203125 41.984375 11.859375 
Q 46.1875 17.53125 46.1875 27.296875 
Q 46.1875 37.015625 41.984375 42.703125 
Q 37.796875 48.390625 30.609375 48.390625 
z
M 30.609375 56 
Q 42.328125 56 49.015625 48.375 
Q 55.71875 40.765625 55.71875 27.296875 
Q 55.71875 13.875 49.015625 6.21875 
Q 42.328125 -1.421875 30.609375 -1.421875 
Q 18.84375 -1.421875 12.171875 6.21875 
Q 5.515625 13.875 5.515625 27.296875 
Q 5.515625 40.765625 12.171875 48.375 
Q 18.84375 56 30.609375 56 
z
" id="DejaVuSans-111"/>
     <path d="M 54.890625 33.015625 
L 54.890625 0 
L 45.90625 0 
L 45.90625 32.71875 
Q 45.90625 40.484375 42.875 44.328125 
Q 39.84375 48.1875 33.796875 48.1875 
Q 26.515625 48.1875 22.3125 43.546875 
Q 18.109375 38.921875 18.109375 30.90625 
L 18.109375 0 
L 9.078125 0 
L 9.078125 54.6875 
L 18.109375 54.6875 
L 18.109375 46.1875 
Q 21.34375 51.125 25.703125 53.5625 
Q 30.078125 56 35.796875 56 
Q 45.21875 56 50.046875 50.171875 
Q 54.890625 44.34375 54.890625 33.015625 
z
" id="DejaVuSans-110"/>
    </defs>
    <g transform="translate(368.694972 78.9312)scale(0.12 -0.12)">
     <use xlink:href="#DejaVuSans-82"/>
     <use x="69.482422" xlink:href="#DejaVuSans-105"/>
     <use x="97.265625" xlink:href="#DejaVuSans-103"/>
     <use x="160.742188" xlink:href="#DejaVuSans-104"/>
     <use x="224.121094" xlink:href="#DejaVuSans-116"/>
     <use x="263.330078" xlink:href="#DejaVuSans-32"/>
     <use x="295.117188" xlink:href="#DejaVuSans-97"/>
     <use x="356.396484" xlink:href="#DejaVuSans-98"/>
     <use x="419.873047" xlink:href="#DejaVuSans-100"/>
     <use x="483.349609" xlink:href="#DejaVuSans-117"/>
     <use x="546.728516" xlink:href="#DejaVuSans-99"/>
     <use x="601.708984" xlink:href="#DejaVuSans-116"/>
     <use x="640.917969" xlink:href="#DejaVuSans-105"/>
     <use x="668.701172" xlink:href="#DejaVuSans-111"/>
     <use x="729.882812" xlink:href="#DejaVuSans-110"/>
    </g>
   </g>
  </g>
  <g id="axes_2">
   <g id="patch_7">
    <path d="M 757.178182 629.9064 
L 1244.16 629.9064 
L 1244.16 84.9312 
L 757.178182 84.9312 
z
" style="fill:#ffffff;"/>
   </g>
   <g id="matplotlib.axis_3">
    <g id="xtick_9">
     <g id="line2d_21">
      <g>
       <use style="stroke:#000000;stroke-width:0.8;" x="791.26751" xlink:href="#m6bd473f4ac" y="629.9064"/>
      </g>
     </g>
     <g id="text_18">
      <!-- 0 -->
      <g transform="translate(788.08626 644.504838)scale(0.1 -0.1)">
       <use xlink:href="#DejaVuSans-48"/>
      </g>
     </g>
    </g>
    <g id="xtick_10">
     <g id="line2d_22">
      <g>
       <use style="stroke:#000000;stroke-width:0.8;" x="853.33912" xlink:href="#m6bd473f4ac" y="629.9064"/>
      </g>
     </g>
     <g id="text_19">
      <!-- 20 -->
      <g transform="translate(846.97662 644.504838)scale(0.1 -0.1)">
       <use xlink:href="#DejaVuSans-50"/>
       <use x="63.623047" xlink:href="#DejaVuSans-48"/>
      </g>
     </g>
    </g>
    <g id="xtick_11">
     <g id="line2d_23">
      <g>
       <use style="stroke:#000000;stroke-width:0.8;" x="915.410731" xlink:href="#m6bd473f4ac" y="629.9064"/>
      </g>
     </g>
     <g id="text_20">
      <!-- 40 -->
      <g transform="translate(909.048231 644.504838)scale(0.1 -0.1)">
       <use xlink:href="#DejaVuSans-52"/>
       <use x="63.623047" xlink:href="#DejaVuSans-48"/>
      </g>
     </g>
    </g>
    <g id="xtick_12">
     <g id="line2d_24">
      <g>
       <use style="stroke:#000000;stroke-width:0.8;" x="977.482341" xlink:href="#m6bd473f4ac" y="629.9064"/>
      </g>
     </g>
     <g id="text_21">
      <!-- 60 -->
      <g transform="translate(971.119841 644.504838)scale(0.1 -0.1)">
       <use xlink:href="#DejaVuSans-54"/>
       <use x="63.623047" xlink:href="#DejaVuSans-48"/>
      </g>
     </g>
    </g>
    <g id="xtick_13">
     <g id="line2d_25">
      <g>
       <use style="stroke:#000000;stroke-width:0.8;" x="1039.553951" xlink:href="#m6bd473f4ac" y="629.9064"/>
      </g>
     </g>
     <g id="text_22">
      <!-- 80 -->
      <g transform="translate(1033.191451 644.504838)scale(0.1 -0.1)">
       <use xlink:href="#DejaVuSans-56"/>
       <use x="63.623047" xlink:href="#DejaVuSans-48"/>
      </g>
     </g>
    </g>
    <g id="xtick_14">
     <g id="line2d_26">
      <g>
       <use style="stroke:#000000;stroke-width:0.8;" x="1101.625562" xlink:href="#m6bd473f4ac" y="629.9064"/>
      </g>
     </g>
     <g id="text_23">
      <!-- 100 -->
      <g transform="translate(1092.081812 644.504838)scale(0.1 -0.1)">
       <use xlink:href="#DejaVuSans-49"/>
       <use x="63.623047" xlink:href="#DejaVuSans-48"/>
       <use x="127.246094" xlink:href="#DejaVuSans-48"/>
      </g>
     </g>
    </g>
    <g id="xtick_15">
     <g id="line2d_27">
      <g>
       <use style="stroke:#000000;stroke-width:0.8;" x="1163.697172" xlink:href="#m6bd473f4ac" y="629.9064"/>
      </g>
     </g>
     <g id="text_24">
      <!-- 120 -->
      <g transform="translate(1154.153422 644.504838)scale(0.1 -0.1)">
       <use xlink:href="#DejaVuSans-49"/>
       <use x="63.623047" xlink:href="#DejaVuSans-50"/>
       <use x="127.246094" xlink:href="#DejaVuSans-48"/>
      </g>
     </g>
    </g>
    <g id="xtick_16">
     <g id="line2d_28">
      <g>
       <use style="stroke:#000000;stroke-width:0.8;" x="1225.768783" xlink:href="#m6bd473f4ac" y="629.9064"/>
      </g>
     </g>
     <g id="text_25">
      <!-- 140 -->
      <g transform="translate(1216.225033 644.504838)scale(0.1 -0.1)">
       <use xlink:href="#DejaVuSans-49"/>
       <use x="63.623047" xlink:href="#DejaVuSans-52"/>
       <use x="127.246094" xlink:href="#DejaVuSans-48"/>
      </g>
     </g>
    </g>
   </g>
   <g id="matplotlib.axis_4">
    <g id="ytick_9">
     <g id="line2d_29">
      <g>
       <use style="stroke:#000000;stroke-width:0.8;" x="757.178182" xlink:href="#m06a0103649" y="618.462101"/>
      </g>
     </g>
     <g id="text_26">
      <!-- −1.5 -->
      <defs>
       <path d="M 10.6875 12.40625 
L 21 12.40625 
L 21 0 
L 10.6875 0 
z
" id="DejaVuSans-46"/>
       <path d="M 10.796875 72.90625 
L 49.515625 72.90625 
L 49.515625 64.59375 
L 19.828125 64.59375 
L 19.828125 46.734375 
Q 21.96875 47.46875 24.109375 47.828125 
Q 26.265625 48.1875 28.421875 48.1875 
Q 40.625 48.1875 47.75 41.5 
Q 54.890625 34.8125 54.890625 23.390625 
Q 54.890625 11.625 47.5625 5.09375 
Q 40.234375 -1.421875 26.90625 -1.421875 
Q 22.3125 -1.421875 17.546875 -0.640625 
Q 12.796875 0.140625 7.71875 1.703125 
L 7.71875 11.625 
Q 12.109375 9.234375 16.796875 8.0625 
Q 21.484375 6.890625 26.703125 6.890625 
Q 35.15625 6.890625 40.078125 11.328125 
Q 45.015625 15.765625 45.015625 23.390625 
Q 45.015625 31 40.078125 35.4375 
Q 35.15625 39.890625 26.703125 39.890625 
Q 22.75 39.890625 18.8125 39.015625 
Q 14.890625 38.140625 10.796875 36.28125 
z
" id="DejaVuSans-53"/>
      </defs>
      <g transform="translate(725.895369 622.26132)scale(0.1 -0.1)">
       <use xlink:href="#DejaVuSans-8722"/>
       <use x="83.789062" xlink:href="#DejaVuSans-49"/>
       <use x="147.412109" xlink:href="#DejaVuSans-46"/>
       <use x="179.199219" xlink:href="#DejaVuSans-53"/>
      </g>
     </g>
    </g>
    <g id="ytick_10">
     <g id="line2d_30">
      <g>
       <use style="stroke:#000000;stroke-width:0.8;" x="757.178182" xlink:href="#m06a0103649" y="538.811441"/>
      </g>
     </g>
     <g id="text_27">
      <!-- −1.0 -->
      <g transform="translate(725.895369 542.61066)scale(0.1 -0.1)">
       <use xlink:href="#DejaVuSans-8722"/>
       <use x="83.789062" xlink:href="#DejaVuSans-49"/>
       <use x="147.412109" xlink:href="#DejaVuSans-46"/>
       <use x="179.199219" xlink:href="#DejaVuSans-48"/>
      </g>
     </g>
    </g>
    <g id="ytick_11">
     <g id="line2d_31">
      <g>
       <use style="stroke:#000000;stroke-width:0.8;" x="757.178182" xlink:href="#m06a0103649" y="459.160782"/>
      </g>
     </g>
     <g id="text_28">
      <!-- −0.5 -->
      <g transform="translate(725.895369 462.960001)scale(0.1 -0.1)">
       <use xlink:href="#DejaVuSans-8722"/>
       <use x="83.789062" xlink:href="#DejaVuSans-48"/>
       <use x="147.412109" xlink:href="#DejaVuSans-46"/>
       <use x="179.199219" xlink:href="#DejaVuSans-53"/>
      </g>
     </g>
    </g>
    <g id="ytick_12">
     <g id="line2d_32">
      <g>
       <use style="stroke:#000000;stroke-width:0.8;" x="757.178182" xlink:href="#m06a0103649" y="379.510122"/>
      </g>
     </g>
     <g id="text_29">
      <!-- 0.0 -->
      <g transform="translate(734.275057 383.309341)scale(0.1 -0.1)">
       <use xlink:href="#DejaVuSans-48"/>
       <use x="63.623047" xlink:href="#DejaVuSans-46"/>
       <use x="95.410156" xlink:href="#DejaVuSans-48"/>
      </g>
     </g>
    </g>
    <g id="ytick_13">
     <g id="line2d_33">
      <g>
       <use style="stroke:#000000;stroke-width:0.8;" x="757.178182" xlink:href="#m06a0103649" y="299.859463"/>
      </g>
     </g>
     <g id="text_30">
      <!-- 0.5 -->
      <g transform="translate(734.275057 303.658682)scale(0.1 -0.1)">
       <use xlink:href="#DejaVuSans-48"/>
       <use x="63.623047" xlink:href="#DejaVuSans-46"/>
       <use x="95.410156" xlink:href="#DejaVuSans-53"/>
      </g>
     </g>
    </g>
    <g id="ytick_14">
     <g id="line2d_34">
      <g>
       <use style="stroke:#000000;stroke-width:0.8;" x="757.178182" xlink:href="#m06a0103649" y="220.208803"/>
      </g>
     </g>
     <g id="text_31">
      <!-- 1.0 -->
      <g transform="translate(734.275057 224.008022)scale(0.1 -0.1)">
       <use xlink:href="#DejaVuSans-49"/>
       <use x="63.623047" xlink:href="#DejaVuSans-46"/>
       <use x="95.410156" xlink:href="#DejaVuSans-48"/>
      </g>
     </g>
    </g>
    <g id="ytick_15">
     <g id="line2d_35">
      <g>
       <use style="stroke:#000000;stroke-width:0.8;" x="757.178182" xlink:href="#m06a0103649" y="140.558144"/>
      </g>
     </g>
     <g id="text_32">
      <!-- 1.5 -->
      <g transform="translate(734.275057 144.357363)scale(0.1 -0.1)">
       <use xlink:href="#DejaVuSans-49"/>
       <use x="63.623047" xlink:href="#DejaVuSans-46"/>
       <use x="95.410156" xlink:href="#DejaVuSans-53"/>
      </g>
     </g>
    </g>
   </g>
   <g id="line2d_36">
    <path clip-path="url(#p715220f6fe)" d="M 791.26751 365.048173 
L 794.37109 398.053385 
L 797.474671 387.192627 
L 800.578251 366.945551 
L 803.681832 396.946195 
L 806.785412 388.736876 
L 809.888993 363.552332 
L 812.992573 391.497078 
L 816.096154 387.818383 
L 819.199734 361.177651 
L 822.303315 388.885704 
L 825.406895 390.791592 
L 828.510476 363.922399 
L 831.614057 390.257344 
L 834.717637 395.805783 
L 837.821218 366.787075 
L 840.924798 388.92785 
L 844.028379 396.171923 
L 847.131959 364.234671 
L 850.23554 382.417001 
L 853.33912 392.207949 
L 856.442701 360.022673 
L 859.546281 376.88082 
L 862.649862 391.096039 
L 865.753442 360.68569 
L 868.857023 377.037381 
L 871.960603 394.908615 
L 875.064184 365.024639 
L 878.167764 378.78636 
L 881.271345 397.690512 
L 884.374925 366.497455 
L 887.478506 376.577667 
L 890.582086 395.962138 
L 893.685667 364.243696 
L 896.789247 372.95341 
L 899.892828 394.362828 
L 902.996408 364.145074 
L 906.099989 373.882101 
L 909.20357 397.503101 
L 912.30715 368.452002 
L 915.410731 378.676941 
L 918.514311 402.116536 
L 921.617892 371.87971 
L 924.721472 380.949635 
L 927.825053 402.261827 
L 930.928633 370.003636 
L 934.032214 378.736984 
L 937.135794 398.665531 
L 940.239375 365.925869 
L 943.342955 377.15403 
L 946.446536 396.897366 
L 949.550116 365.01501 
L 952.653697 379.737302 
L 955.757277 398.283807 
L 958.860858 366.295597 
L 961.964438 383.022965 
L 965.068019 398.035114 
L 968.171599 364.586008 
L 971.27518 382.533953 
L 974.37876 393.230155 
L 977.482341 359.303275 
L 980.585921 380.280301 
L 983.689502 387.634434 
L 986.793083 355.910722 
L 989.896663 381.651755 
L 993.000244 385.915697 
L 996.103824 357.477462 
L 999.207405 387.144167 
L 1002.310985 386.391784 
L 1005.414566 360.463469 
L 1008.518146 391.639531 
L 1011.621727 384.015193 
L 1014.725307 360.729949 
L 1017.828888 392.425731 
L 1020.932468 378.409757 
L 1024.036049 360.201699 
L 1027.139629 393.041922 
L 1030.24321 374.302715 
L 1033.34679 363.695531 
L 1036.450371 396.870097 
L 1039.553951 373.97139 
L 1042.657532 370.875766 
L 1045.761112 401.387675 
L 1048.864693 373.589202 
L 1051.968273 376.601215 
L 1055.071854 401.526439 
L 1058.175434 369.428718 
L 1061.279015 378.622395 
L 1064.382596 397.243984 
L 1067.486176 363.86459 
L 1070.589757 380.552201 
L 1073.693337 393.163047 
L 1076.796918 361.639304 
L 1079.900498 385.674359 
L 1083.004079 391.24626 
L 1086.107659 362.842987 
L 1089.21124 391.451955 
L 1092.31482 388.125554 
L 1095.418401 363.306937 
L 1098.521981 393.533452 
L 1101.625562 381.134232 
L 1104.729142 361.692876 
L 1107.832723 392.511554 
L 1110.936303 373.078713 
L 1114.039884 362.004435 
L 1117.143464 392.840705 
L 1120.247045 368.63011 
L 1123.350625 367.347115 
L 1126.454206 395.757322 
L 1129.557786 367.748721 
L 1132.661367 374.927295 
L 1135.764947 397.387102 
L 1138.868528 366.180778 
L 1145.075689 394.615579 
L 1148.17927 362.702118 
L 1151.28285 383.7336 
L 1154.386431 389.754368 
L 1157.490011 361.149087 
L 1160.593592 389.048274 
L 1163.697172 386.376047 
L 1166.800753 364.428302 
L 1169.904333 396.540972 
L 1173.007914 382.997078 
L 1176.111494 370.201647 
L 1179.215075 401.370335 
L 1182.318655 374.695602 
L 1185.422236 377.274077 
L 1188.525816 398.207183 
L 1191.629397 363.09186 
L 1194.732977 390.553499 
L 1197.836558 381.15843 
L 1200.940138 366.748079 
L 1204.043719 402.405925 
L 1207.147299 346.99678 
L 1210.25088 440.923765 
L 1213.35446 237.421422 
L 1215.861569 708.76 
M 1216.711333 708.76 
L 1218.314515 -1 
M 1220.423843 -1 
L 1221.532249 708.76 
M 1223.959497 708.76 
L 1225.225747 -1 
M 1226.559868 -1 
L 1228.404523 708.76 
M 1231.299798 708.76 
L 1231.975944 658.619858 
L 1234.555494 -1 
M 1235.518214 -1 
L 1237.841822 708.76 
M 1239.225169 708.76 
L 1241.286685 502.528893 
L 1243.629071 -1 
M 1244.886343 -1 
L 1247.038127 708.76 
M 1248.381973 708.76 
L 1250.597427 333.789006 
L 1253.160275 -1 
M 1253.928425 -1 
L 1256.21353 708.76 
M 1258.268787 708.76 
L 1259.908168 503.211019 
L 1262.770976 -1 
M 1263.134429 -1 
L 1265.187764 708.76 
M 1267.515238 708.76 
L 1269.21891 318.564147 
L 1272.32249 141.633954 
L 1273.552353 708.76 
M 1277.793894 708.76 
L 1278.529651 440.279754 
L 1279.90965 -1 
M 1283.866281 -1 
L 1284.736812 213.859096 
L 1287.47012 708.76 
M 1287.976046 708.76 
L 1289.412158 -1 
M 1295.654211 -1 
L 1297.109475 708.76 
M 1304.255141 708.76 
L 1305.407 -1 
M 1315.170079 -1 
L 1315.772618 395.739283 
L 1316.927997 708.76 
M 1322.449633 708.76 
L 1325.083359 73.78558 
L 1326.263926 -1 
M 1352.992176 -1 
L 1353.015584 3.342695 
L 1356.119164 668.77961 
L 1359.222745 615.430927 
L 1360.813363 -1 
M 1372.591664 -1 
L 1373.897686 708.76 
L 1373.897686 708.76 
" style="fill:none;stroke:#ff796c;stroke-linecap:square;stroke-width:1.5;"/>
   </g>
   <g id="line2d_37">
    <path clip-path="url(#p715220f6fe)" d="M 791.26751 379.510122 
L 794.37109 379.509879 
L 797.474671 381.087318 
L 800.578251 380.877441 
L 803.681832 380.095426 
L 806.785412 380.867136 
L 809.888993 380.082725 
L 812.992573 378.610285 
L 816.096154 379.034825 
L 819.199734 378.417111 
L 822.303315 377.145105 
L 825.406895 377.970213 
L 828.510476 378.00226 
L 831.614057 377.08595 
L 834.717637 378.022534 
L 837.821218 378.084648 
L 840.924798 376.735286 
L 844.028379 376.961761 
L 847.131959 376.431777 
L 850.23554 374.372773 
L 853.33912 374.016488 
L 856.442701 373.393942 
L 859.546281 371.446539 
L 862.649862 371.438221 
L 865.753442 371.565386 
L 868.857023 370.360584 
L 871.960603 370.965761 
L 875.064184 371.691114 
L 878.167764 370.7395 
L 884.374925 371.743344 
L 887.478506 370.367254 
L 890.582086 370.326564 
L 893.685667 370.554702 
L 896.789247 369.044375 
L 899.892828 369.081462 
L 902.996408 369.743929 
L 906.099989 368.823913 
L 909.20357 369.518024 
L 912.30715 370.841969 
L 915.410731 370.385071 
L 918.514311 371.287618 
L 921.617892 372.524831 
L 924.721472 371.675737 
L 927.825053 372.005919 
L 930.928633 372.552174 
L 934.032214 371.027576 
L 937.135794 370.894618 
L 940.239375 371.16062 
L 943.342955 369.6139 
L 946.446536 369.813332 
L 949.550116 370.48061 
L 952.653697 369.41183 
L 955.757277 370.162529 
L 958.860858 371.069021 
L 961.964438 370.048412 
L 965.068019 370.727049 
L 968.171599 371.165344 
L 971.27518 369.616227 
L 974.37876 369.881951 
L 977.482341 369.795851 
L 980.585921 368.04051 
L 983.689502 368.50968 
L 986.793083 368.642547 
L 989.896663 367.525077 
L 993.000244 368.893306 
L 996.103824 369.648767 
L 999.207405 369.311694 
L 1002.310985 371.326512 
L 1005.414566 372.143008 
L 1008.518146 371.91412 
L 1011.621727 373.807159 
L 1014.725307 374.044904 
L 1017.828888 373.587108 
L 1020.932468 375.253216 
L 1027.139629 375.015026 
L 1030.24321 377.048005 
L 1033.34679 377.24347 
L 1036.450371 377.956731 
L 1039.553951 380.517289 
L 1042.657532 380.931714 
L 1045.761112 382.101867 
L 1048.864693 384.45673 
L 1051.968273 384.338737 
L 1055.071854 385.208259 
L 1058.175434 386.696144 
L 1061.279015 385.773167 
L 1064.382596 386.341946 
L 1067.486176 387.216536 
L 1070.589757 386.10523 
L 1076.796918 387.899089 
L 1079.900498 387.179063 
L 1083.004079 388.684571 
L 1086.107659 389.47671 
L 1089.21124 388.912468 
L 1092.31482 390.426314 
L 1095.418401 390.52919 
L 1098.521981 389.631424 
L 1101.625562 390.690505 
L 1104.729142 389.981071 
L 1107.832723 388.966135 
L 1110.936303 389.927315 
L 1114.039884 389.048645 
L 1117.143464 388.670554 
L 1120.247045 390.107682 
L 1123.350625 389.572839 
L 1126.454206 390.08287 
L 1129.557786 391.826879 
L 1132.661367 391.330733 
L 1135.764947 392.163703 
L 1138.868528 393.469465 
L 1141.972109 392.444002 
L 1145.075689 393.119982 
L 1148.17927 393.678101 
L 1151.28285 392.248972 
L 1154.386431 393.06795 
L 1157.490011 393.307507 
L 1160.593592 392.153636 
L 1163.697172 393.616338 
L 1166.800753 393.800952 
L 1169.904333 393.142868 
L 1173.007914 394.971022 
L 1176.111494 394.503603 
L 1179.215075 393.869997 
L 1182.318655 395.187979 
L 1185.422236 393.27554 
L 1188.525816 392.675236 
L 1191.629397 392.902382 
L 1194.732977 389.881428 
L 1197.836558 390.468677 
L 1200.940138 388.905705 
L 1204.043719 387.095652 
L 1207.147299 388.59991 
L 1210.25088 383.965009 
L 1213.35446 389.373143 
L 1216.458041 373.708291 
L 1219.561621 413.737532 
L 1222.665202 356.942581 
L 1225.768783 420.348076 
L 1228.872363 362.659563 
L 1231.975944 427.422037 
L 1235.079524 415.908536 
L 1238.183105 383.682486 
L 1241.286685 410.338054 
L 1244.390266 392.627178 
L 1247.493846 364.102507 
L 1250.597427 400.488378 
L 1253.701007 385.493093 
L 1256.804588 379.440946 
L 1259.908168 428.623744 
L 1263.011749 433.711073 
L 1266.115329 434.540241 
L 1269.21891 497.207245 
L 1272.32249 437.490073 
L 1275.426071 388.581358 
L 1278.529651 441.995331 
L 1281.633232 375.820729 
L 1284.736812 312.331795 
L 1290.943973 445.490153 
L 1294.047554 478.664975 
L 1297.151134 412.495714 
L 1300.254715 428.751156 
L 1306.461876 561.9201 
L 1312.669037 429.591025 
L 1321.979779 629.358473 
L 1325.083359 592.362752 
L 1328.18694 535.319926 
L 1331.29052 516.552376 
L 1334.394101 535.409981 
L 1340.601262 491.370768 
L 1343.704842 497.386273 
L 1346.808423 437.039225 
L 1349.912003 483.257058 
L 1353.015584 509.421064 
L 1356.119164 542.919383 
L 1359.222745 558.51709 
L 1365.429906 426.222205 
L 1368.533486 450.06411 
L 1371.637067 485.831229 
L 1377.844228 619.046229 
L 1383.4 619.527732 
L 1383.4 619.527732 
" style="fill:none;stroke:#e50000;stroke-linecap:square;stroke-width:1.5;"/>
   </g>
   <g id="line2d_38">
    <path clip-path="url(#p715220f6fe)" d="M 791.26751 316.952641 
L 831.614057 317.070023 
L 871.960603 317.421791 
L 912.30715 318.006813 
L 952.653697 318.823209 
L 993.000244 319.868351 
L 1033.34679 321.138879 
L 1073.693337 322.630704 
L 1114.039884 324.339029 
L 1154.386431 326.258358 
L 1197.836558 328.554206 
L 1241.286685 331.079035 
L 1284.736812 333.823426 
L 1331.29052 336.995843 
L 1377.844228 340.39496 
L 1383.4 340.815157 
L 1383.4 340.815157 
" style="fill:none;stroke:#014d4e;stroke-linecap:square;stroke-width:1.5;"/>
   </g>
   <g id="line2d_39">
    <path clip-path="url(#p715220f6fe)" d="M 791.26751 316.952884 
L 794.37109 315.37614 
L 797.474671 315.588102 
L 800.578251 316.37359 
L 803.681832 315.606743 
L 806.785412 316.397406 
L 809.888993 317.877488 
L 812.992573 317.461979 
L 816.096154 318.090112 
L 819.199734 319.373926 
L 822.303315 318.562015 
L 825.406895 318.544552 
L 828.510476 319.476835 
L 831.614057 318.557611 
L 834.717637 318.514245 
L 837.821218 319.883741 
L 840.924798 319.678787 
L 844.028379 320.231678 
L 847.131959 322.314975 
L 850.23554 322.696938 
L 853.33912 323.346546 
L 856.442701 325.322396 
L 859.546281 325.360545 
L 862.649862 325.264594 
L 865.753442 326.501992 
L 868.857023 325.930793 
L 871.960603 325.240799 
L 875.064184 326.229153 
L 881.271345 325.302928 
L 884.374925 326.719895 
L 887.478506 326.80284 
L 890.582086 326.618334 
L 893.685667 328.173668 
L 896.789247 328.182964 
L 899.892828 327.568255 
L 902.996408 328.537401 
L 906.099989 327.893792 
L 909.20357 326.621722 
L 912.30715 327.131865 
L 915.410731 326.283932 
L 918.514311 325.102701 
L 921.617892 326.009145 
L 924.721472 325.73768 
L 927.825053 325.251506 
L 930.928633 326.837549 
L 934.032214 327.033315 
L 937.135794 326.831483 
L 940.239375 328.443733 
L 943.342955 328.31119 
L 946.446536 327.712159 
L 949.550116 328.850542 
L 952.653697 328.170802 
L 955.757277 327.336623 
L 958.860858 328.430898 
L 961.964438 327.827277 
L 965.068019 327.465348 
L 968.171599 329.092179 
L 971.27518 328.905516 
L 974.37876 329.072022 
L 977.482341 330.909113 
L 980.585921 330.523035 
L 983.689502 330.474602 
L 986.793083 331.677843 
L 989.896663 330.396723 
L 993.000244 329.729707 
L 996.103824 330.156559 
L 999.207405 328.232852 
L 1002.310985 327.508797 
L 1005.414566 327.831455 
L 1008.518146 326.033514 
L 1011.621727 325.892192 
L 1014.725307 326.447733 
L 1017.828888 324.880692 
L 1024.036049 325.320975 
L 1027.139629 323.391016 
L 1030.24321 323.299885 
L 1033.34679 322.69227 
L 1036.450371 320.238668 
L 1039.553951 319.932507 
L 1042.657532 318.871923 
L 1045.761112 316.627933 
L 1048.864693 316.8581 
L 1051.968273 316.102052 
L 1055.071854 314.728939 
L 1058.175434 315.767982 
L 1061.279015 315.316562 
L 1064.382596 314.560621 
L 1067.486176 315.791865 
L 1073.693337 314.241738 
L 1076.796918 315.085552 
L 1079.900498 313.705112 
L 1083.004079 313.039319 
L 1086.107659 313.73118 
L 1089.21124 312.346224 
L 1092.31482 312.373508 
L 1095.418401 313.402702 
L 1098.521981 312.476312 
L 1101.625562 313.319699 
L 1104.729142 314.469847 
L 1107.832723 313.645137 
L 1110.936303 314.661531 
L 1114.039884 315.178597 
L 1117.143464 313.881693 
L 1120.247045 314.558006 
L 1123.350625 314.190689 
L 1126.454206 312.590635 
L 1129.557786 313.231973 
L 1132.661367 312.545431 
L 1135.764947 311.387329 
L 1138.868528 312.561682 
L 1141.972109 312.035819 
L 1145.075689 311.629042 
L 1148.17927 313.210733 
L 1151.28285 312.545534 
L 1154.386431 312.460973 
L 1157.490011 313.771052 
L 1160.593592 312.465767 
L 1163.697172 312.439777 
L 1166.800753 313.257687 
L 1169.904333 311.590561 
L 1173.007914 312.220204 
L 1176.111494 313.017229 
L 1179.215075 311.863856 
L 1182.318655 313.942093 
L 1185.422236 314.70938 
L 1188.525816 314.650398 
L 1191.629397 317.840694 
L 1194.732977 317.423962 
L 1197.836558 319.158623 
L 1200.940138 321.141534 
L 1204.043719 319.8113 
L 1207.147299 324.621386 
L 1210.25088 319.389596 
L 1213.35446 335.231947 
L 1216.458041 295.381358 
L 1219.561621 352.356109 
L 1222.665202 289.131558 
L 1225.768783 347.002159 
L 1228.872363 282.422909 
L 1231.975944 294.12077 
L 1235.079524 326.53231 
L 1238.183105 300.063361 
L 1241.286685 317.96198 
L 1244.390266 346.675514 
L 1247.493846 310.479623 
L 1250.597427 325.666002 
L 1253.701007 331.910351 
L 1256.804588 282.920863 
L 1259.908168 278.027945 
L 1263.011749 277.394288 
L 1266.115329 214.923889 
L 1269.21891 274.838758 
L 1272.32249 323.946256 
L 1275.426071 270.732151 
L 1278.529651 337.1077 
L 1281.633232 400.798658 
L 1287.840393 268.047559 
L 1290.943973 235.077965 
L 1294.047554 301.453515 
L 1297.151134 285.405418 
L 1303.358296 152.654319 
L 1309.565457 285.405418 
L 1318.876198 86.27877 
L 1321.979779 123.490145 
L 1325.083359 180.749645 
L 1328.18694 199.734887 
L 1331.29052 181.095985 
L 1337.497681 225.575623 
L 1340.601262 219.781832 
L 1343.704842 280.351589 
L 1346.808423 234.357457 
L 1349.912003 208.418138 
L 1353.015584 175.14549 
L 1356.119164 159.77443 
L 1362.326325 292.525529 
L 1365.429906 268.913181 
L 1368.533486 233.376579 
L 1374.740647 100.62548 
L 1383.4 100.555668 
L 1383.4 100.555668 
" style="fill:none;stroke:#ffff14;stroke-linecap:square;stroke-width:1.5;"/>
   </g>
   <g id="patch_8">
    <path d="M 757.178182 629.9064 
L 757.178182 84.9312 
" style="fill:none;stroke:#000000;stroke-linecap:square;stroke-linejoin:miter;stroke-width:0.8;"/>
   </g>
   <g id="patch_9">
    <path d="M 1244.16 629.9064 
L 1244.16 84.9312 
" style="fill:none;stroke:#000000;stroke-linecap:square;stroke-linejoin:miter;stroke-width:0.8;"/>
   </g>
   <g id="patch_10">
    <path d="M 757.178182 629.9064 
L 1244.16 629.9064 
" style="fill:none;stroke:#000000;stroke-linecap:square;stroke-linejoin:miter;stroke-width:0.8;"/>
   </g>
   <g id="patch_11">
    <path d="M 757.178182 84.9312 
L 1244.16 84.9312 
" style="fill:none;stroke:#000000;stroke-linecap:square;stroke-linejoin:miter;stroke-width:0.8;"/>
   </g>
   <g id="text_33">
    <!-- Left abduction -->
    <defs>
     <path d="M 9.8125 72.90625 
L 19.671875 72.90625 
L 19.671875 8.296875 
L 55.171875 8.296875 
L 55.171875 0 
L 9.8125 0 
z
" id="DejaVuSans-76"/>
     <path d="M 56.203125 29.59375 
L 56.203125 25.203125 
L 14.890625 25.203125 
Q 15.484375 15.921875 20.484375 11.0625 
Q 25.484375 6.203125 34.421875 6.203125 
Q 39.59375 6.203125 44.453125 7.46875 
Q 49.3125 8.734375 54.109375 11.28125 
L 54.109375 2.78125 
Q 49.265625 0.734375 44.1875 -0.34375 
Q 39.109375 -1.421875 33.890625 -1.421875 
Q 20.796875 -1.421875 13.15625 6.1875 
Q 5.515625 13.8125 5.515625 26.8125 
Q 5.515625 40.234375 12.765625 48.109375 
Q 20.015625 56 32.328125 56 
Q 43.359375 56 49.78125 48.890625 
Q 56.203125 41.796875 56.203125 29.59375 
z
M 47.21875 32.234375 
Q 47.125 39.59375 43.09375 43.984375 
Q 39.0625 48.390625 32.421875 48.390625 
Q 24.90625 48.390625 20.390625 44.140625 
Q 15.875 39.890625 15.1875 32.171875 
z
" id="DejaVuSans-101"/>
     <path d="M 37.109375 75.984375 
L 37.109375 68.5 
L 28.515625 68.5 
Q 23.6875 68.5 21.796875 66.546875 
Q 19.921875 64.59375 19.921875 59.515625 
L 19.921875 54.6875 
L 34.71875 54.6875 
L 34.71875 47.703125 
L 19.921875 47.703125 
L 19.921875 0 
L 10.890625 0 
L 10.890625 47.703125 
L 2.296875 47.703125 
L 2.296875 54.6875 
L 10.890625 54.6875 
L 10.890625 58.5 
Q 10.890625 67.625 15.140625 71.796875 
Q 19.390625 75.984375 28.609375 75.984375 
z
" id="DejaVuSans-102"/>
    </defs>
    <g transform="translate(957.375341 78.9312)scale(0.12 -0.12)">
     <use xlink:href="#DejaVuSans-76"/>
     <use x="55.697266" xlink:href="#DejaVuSans-101"/>
     <use x="117.220703" xlink:href="#DejaVuSans-102"/>
     <use x="152.410156" xlink:href="#DejaVuSans-116"/>
     <use x="191.619141" xlink:href="#DejaVuSans-32"/>
     <use x="223.40625" xlink:href="#DejaVuSans-97"/>
     <use x="284.685547" xlink:href="#DejaVuSans-98"/>
     <use x="348.162109" xlink:href="#DejaVuSans-100"/>
     <use x="411.638672" xlink:href="#DejaVuSans-117"/>
     <use x="475.017578" xlink:href="#DejaVuSans-99"/>
     <use x="529.998047" xlink:href="#DejaVuSans-116"/>
     <use x="569.207031" xlink:href="#DejaVuSans-105"/>
     <use x="596.990234" xlink:href="#DejaVuSans-111"/>
     <use x="658.171875" xlink:href="#DejaVuSans-110"/>
    </g>
   </g>
  </g>
 </g>
 <defs>
  <clipPath id="p335e38fa8f">
   <rect height="544.9752" width="486.981818" x="172.8" y="84.9312"/>
  </clipPath>
  <clipPath id="p715220f6fe">
   <rect height="544.9752" width="486.981818" x="757.178182" y="84.9312"/>
  </clipPath>
 </defs>
</svg>
