<?xml version="1.0" encoding="utf-8" standalone="no"?>
<!DOCTYPE svg PUBLIC "-//W3C//DTD SVG 1.1//EN"
  "http://www.w3.org/Graphics/SVG/1.1/DTD/svg11.dtd">
<!-- Created with matplotlib (https://matplotlib.org/) -->
<svg height="345.6pt" version="1.1" viewBox="0 0 460.8 345.6" width="460.8pt" xmlns="http://www.w3.org/2000/svg" xmlns:xlink="http://www.w3.org/1999/xlink">
 <defs>
  <style type="text/css">
*{stroke-linecap:butt;stroke-linejoin:round;}
  </style>
 </defs>
 <g id="figure_1">
  <g id="patch_1">
   <path d="M 0 345.6 
L 460.8 345.6 
L 460.8 0 
L 0 0 
z
" style="fill:#ffffff;"/>
  </g>
  <g id="axes_1">
   <g id="patch_2">
    <path d="M 57.6 307.584 
L 219.927273 307.584 
L 219.927273 41.472 
L 57.6 41.472 
z
" style="fill:#ffffff;"/>
   </g>
   <g id="matplotlib.axis_1">
    <g id="xtick_1">
     <g id="line2d_1">
      <defs>
       <path d="M 0 0 
L 0 3.5 
" id="mbce37ee34a" style="stroke:#000000;stroke-width:0.8;"/>
      </defs>
      <g>
       <use style="stroke:#000000;stroke-width:0.8;" x="64.978512" xlink:href="#mbce37ee34a" y="307.584"/>
      </g>
     </g>
     <g id="text_1">
      <!-- 0 -->
      <defs>
       <path d="M 31.78125 66.40625 
Q 24.171875 66.40625 20.328125 58.90625 
Q 16.5 51.421875 16.5 36.375 
Q 16.5 21.390625 20.328125 13.890625 
Q 24.171875 6.390625 31.78125 6.390625 
Q 39.453125 6.390625 43.28125 13.890625 
Q 47.125 21.390625 47.125 36.375 
Q 47.125 51.421875 43.28125 58.90625 
Q 39.453125 66.40625 31.78125 66.40625 
z
M 31.78125 74.21875 
Q 44.046875 74.21875 50.515625 64.515625 
Q 56.984375 54.828125 56.984375 36.375 
Q 56.984375 17.96875 50.515625 8.265625 
Q 44.046875 -1.421875 31.78125 -1.421875 
Q 19.53125 -1.421875 13.0625 8.265625 
Q 6.59375 17.96875 6.59375 36.375 
Q 6.59375 54.828125 13.0625 64.515625 
Q 19.53125 74.21875 31.78125 74.21875 
z
" id="DejaVuSans-48"/>
      </defs>
      <g transform="translate(61.797262 322.182437)scale(0.1 -0.1)">
       <use xlink:href="#DejaVuSans-48"/>
      </g>
     </g>
    </g>
    <g id="xtick_2">
     <g id="line2d_2">
      <g>
       <use style="stroke:#000000;stroke-width:0.8;" x="126.466116" xlink:href="#mbce37ee34a" y="307.584"/>
      </g>
     </g>
     <g id="text_2">
      <!-- 200 -->
      <defs>
       <path d="M 19.1875 8.296875 
L 53.609375 8.296875 
L 53.609375 0 
L 7.328125 0 
L 7.328125 8.296875 
Q 12.9375 14.109375 22.625 23.890625 
Q 32.328125 33.6875 34.8125 36.53125 
Q 39.546875 41.84375 41.421875 45.53125 
Q 43.3125 49.21875 43.3125 52.78125 
Q 43.3125 58.59375 39.234375 62.25 
Q 35.15625 65.921875 28.609375 65.921875 
Q 23.96875 65.921875 18.8125 64.3125 
Q 13.671875 62.703125 7.8125 59.421875 
L 7.8125 69.390625 
Q 13.765625 71.78125 18.9375 73 
Q 24.125 74.21875 28.421875 74.21875 
Q 39.75 74.21875 46.484375 68.546875 
Q 53.21875 62.890625 53.21875 53.421875 
Q 53.21875 48.921875 51.53125 44.890625 
Q 49.859375 40.875 45.40625 35.40625 
Q 44.1875 33.984375 37.640625 27.21875 
Q 31.109375 20.453125 19.1875 8.296875 
z
" id="DejaVuSans-50"/>
      </defs>
      <g transform="translate(116.922366 322.182437)scale(0.1 -0.1)">
       <use xlink:href="#DejaVuSans-50"/>
       <use x="63.623047" xlink:href="#DejaVuSans-48"/>
       <use x="127.246094" xlink:href="#DejaVuSans-48"/>
      </g>
     </g>
    </g>
    <g id="xtick_3">
     <g id="line2d_3">
      <g>
       <use style="stroke:#000000;stroke-width:0.8;" x="187.953719" xlink:href="#mbce37ee34a" y="307.584"/>
      </g>
     </g>
     <g id="text_3">
      <!-- 400 -->
      <defs>
       <path d="M 37.796875 64.3125 
L 12.890625 25.390625 
L 37.796875 25.390625 
z
M 35.203125 72.90625 
L 47.609375 72.90625 
L 47.609375 25.390625 
L 58.015625 25.390625 
L 58.015625 17.1875 
L 47.609375 17.1875 
L 47.609375 0 
L 37.796875 0 
L 37.796875 17.1875 
L 4.890625 17.1875 
L 4.890625 26.703125 
z
" id="DejaVuSans-52"/>
      </defs>
      <g transform="translate(178.409969 322.182437)scale(0.1 -0.1)">
       <use xlink:href="#DejaVuSans-52"/>
       <use x="63.623047" xlink:href="#DejaVuSans-48"/>
       <use x="127.246094" xlink:href="#DejaVuSans-48"/>
      </g>
     </g>
    </g>
   </g>
   <g id="matplotlib.axis_2">
    <g id="ytick_1">
     <g id="line2d_4">
      <defs>
       <path d="M 0 0 
L -3.5 0 
" id="m5db5055494" style="stroke:#000000;stroke-width:0.8;"/>
      </defs>
      <g>
       <use style="stroke:#000000;stroke-width:0.8;" x="57.6" xlink:href="#m5db5055494" y="290.274896"/>
      </g>
     </g>
     <g id="text_4">
      <!-- −0.8 -->
      <defs>
       <path d="M 10.59375 35.5 
L 73.1875 35.5 
L 73.1875 27.203125 
L 10.59375 27.203125 
z
" id="DejaVuSans-8722"/>
       <path d="M 10.6875 12.40625 
L 21 12.40625 
L 21 0 
L 10.6875 0 
z
" id="DejaVuSans-46"/>
       <path d="M 31.78125 34.625 
Q 24.75 34.625 20.71875 30.859375 
Q 16.703125 27.09375 16.703125 20.515625 
Q 16.703125 13.921875 20.71875 10.15625 
Q 24.75 6.390625 31.78125 6.390625 
Q 38.8125 6.390625 42.859375 10.171875 
Q 46.921875 13.96875 46.921875 20.515625 
Q 46.921875 27.09375 42.890625 30.859375 
Q 38.875 34.625 31.78125 34.625 
z
M 21.921875 38.8125 
Q 15.578125 40.375 12.03125 44.71875 
Q 8.5 49.078125 8.5 55.328125 
Q 8.5 64.0625 14.71875 69.140625 
Q 20.953125 74.21875 31.78125 74.21875 
Q 42.671875 74.21875 48.875 69.140625 
Q 55.078125 64.0625 55.078125 55.328125 
Q 55.078125 49.078125 51.53125 44.71875 
Q 48 40.375 41.703125 38.8125 
Q 48.828125 37.15625 52.796875 32.3125 
Q 56.78125 27.484375 56.78125 20.515625 
Q 56.78125 9.90625 50.3125 4.234375 
Q 43.84375 -1.421875 31.78125 -1.421875 
Q 19.734375 -1.421875 13.25 4.234375 
Q 6.78125 9.90625 6.78125 20.515625 
Q 6.78125 27.484375 10.78125 32.3125 
Q 14.796875 37.15625 21.921875 38.8125 
z
M 18.3125 54.390625 
Q 18.3125 48.734375 21.84375 45.5625 
Q 25.390625 42.390625 31.78125 42.390625 
Q 38.140625 42.390625 41.71875 45.5625 
Q 45.3125 48.734375 45.3125 54.390625 
Q 45.3125 60.0625 41.71875 63.234375 
Q 38.140625 66.40625 31.78125 66.40625 
Q 25.390625 66.40625 21.84375 63.234375 
Q 18.3125 60.0625 18.3125 54.390625 
z
" id="DejaVuSans-56"/>
      </defs>
      <g transform="translate(26.317187 294.074114)scale(0.1 -0.1)">
       <use xlink:href="#DejaVuSans-8722"/>
       <use x="83.789062" xlink:href="#DejaVuSans-48"/>
       <use x="147.412109" xlink:href="#DejaVuSans-46"/>
       <use x="179.199219" xlink:href="#DejaVuSans-56"/>
      </g>
     </g>
    </g>
    <g id="ytick_2">
     <g id="line2d_5">
      <g>
       <use style="stroke:#000000;stroke-width:0.8;" x="57.6" xlink:href="#m5db5055494" y="250.591828"/>
      </g>
     </g>
     <g id="text_5">
      <!-- −0.6 -->
      <defs>
       <path d="M 33.015625 40.375 
Q 26.375 40.375 22.484375 35.828125 
Q 18.609375 31.296875 18.609375 23.390625 
Q 18.609375 15.53125 22.484375 10.953125 
Q 26.375 6.390625 33.015625 6.390625 
Q 39.65625 6.390625 43.53125 10.953125 
Q 47.40625 15.53125 47.40625 23.390625 
Q 47.40625 31.296875 43.53125 35.828125 
Q 39.65625 40.375 33.015625 40.375 
z
M 52.59375 71.296875 
L 52.59375 62.3125 
Q 48.875 64.0625 45.09375 64.984375 
Q 41.3125 65.921875 37.59375 65.921875 
Q 27.828125 65.921875 22.671875 59.328125 
Q 17.53125 52.734375 16.796875 39.40625 
Q 19.671875 43.65625 24.015625 45.921875 
Q 28.375 48.1875 33.59375 48.1875 
Q 44.578125 48.1875 50.953125 41.515625 
Q 57.328125 34.859375 57.328125 23.390625 
Q 57.328125 12.15625 50.6875 5.359375 
Q 44.046875 -1.421875 33.015625 -1.421875 
Q 20.359375 -1.421875 13.671875 8.265625 
Q 6.984375 17.96875 6.984375 36.375 
Q 6.984375 53.65625 15.1875 63.9375 
Q 23.390625 74.21875 37.203125 74.21875 
Q 40.921875 74.21875 44.703125 73.484375 
Q 48.484375 72.75 52.59375 71.296875 
z
" id="DejaVuSans-54"/>
      </defs>
      <g transform="translate(26.317187 254.391047)scale(0.1 -0.1)">
       <use xlink:href="#DejaVuSans-8722"/>
       <use x="83.789062" xlink:href="#DejaVuSans-48"/>
       <use x="147.412109" xlink:href="#DejaVuSans-46"/>
       <use x="179.199219" xlink:href="#DejaVuSans-54"/>
      </g>
     </g>
    </g>
    <g id="ytick_3">
     <g id="line2d_6">
      <g>
       <use style="stroke:#000000;stroke-width:0.8;" x="57.6" xlink:href="#m5db5055494" y="210.908761"/>
      </g>
     </g>
     <g id="text_6">
      <!-- −0.4 -->
      <g transform="translate(26.317187 214.70798)scale(0.1 -0.1)">
       <use xlink:href="#DejaVuSans-8722"/>
       <use x="83.789062" xlink:href="#DejaVuSans-48"/>
       <use x="147.412109" xlink:href="#DejaVuSans-46"/>
       <use x="179.199219" xlink:href="#DejaVuSans-52"/>
      </g>
     </g>
    </g>
    <g id="ytick_4">
     <g id="line2d_7">
      <g>
       <use style="stroke:#000000;stroke-width:0.8;" x="57.6" xlink:href="#m5db5055494" y="171.225694"/>
      </g>
     </g>
     <g id="text_7">
      <!-- −0.2 -->
      <g transform="translate(26.317187 175.024913)scale(0.1 -0.1)">
       <use xlink:href="#DejaVuSans-8722"/>
       <use x="83.789062" xlink:href="#DejaVuSans-48"/>
       <use x="147.412109" xlink:href="#DejaVuSans-46"/>
       <use x="179.199219" xlink:href="#DejaVuSans-50"/>
      </g>
     </g>
    </g>
    <g id="ytick_5">
     <g id="line2d_8">
      <g>
       <use style="stroke:#000000;stroke-width:0.8;" x="57.6" xlink:href="#m5db5055494" y="131.542627"/>
      </g>
     </g>
     <g id="text_8">
      <!-- 0.0 -->
      <g transform="translate(34.696875 135.341846)scale(0.1 -0.1)">
       <use xlink:href="#DejaVuSans-48"/>
       <use x="63.623047" xlink:href="#DejaVuSans-46"/>
       <use x="95.410156" xlink:href="#DejaVuSans-48"/>
      </g>
     </g>
    </g>
    <g id="ytick_6">
     <g id="line2d_9">
      <g>
       <use style="stroke:#000000;stroke-width:0.8;" x="57.6" xlink:href="#m5db5055494" y="91.85956"/>
      </g>
     </g>
     <g id="text_9">
      <!-- 0.2 -->
      <g transform="translate(34.696875 95.658779)scale(0.1 -0.1)">
       <use xlink:href="#DejaVuSans-48"/>
       <use x="63.623047" xlink:href="#DejaVuSans-46"/>
       <use x="95.410156" xlink:href="#DejaVuSans-50"/>
      </g>
     </g>
    </g>
    <g id="ytick_7">
     <g id="line2d_10">
      <g>
       <use style="stroke:#000000;stroke-width:0.8;" x="57.6" xlink:href="#m5db5055494" y="52.176493"/>
      </g>
     </g>
     <g id="text_10">
      <!-- 0.4 -->
      <g transform="translate(34.696875 55.975712)scale(0.1 -0.1)">
       <use xlink:href="#DejaVuSans-48"/>
       <use x="63.623047" xlink:href="#DejaVuSans-46"/>
       <use x="95.410156" xlink:href="#DejaVuSans-52"/>
      </g>
     </g>
    </g>
   </g>
   <g id="line2d_11">
    <path clip-path="url(#p9d40cb4069)" d="M 64.978512 131.547654 
L 66.515702 131.736957 
L 71.127273 132.527167 
L 72.357025 132.75511 
L 72.664463 132.920137 
L 74.816529 133.069451 
L 75.431405 133.490689 
L 76.353719 134.178317 
L 77.276033 133.320918 
L 77.890909 133.503749 
L 78.813223 134.164259 
L 79.120661 133.184676 
L 79.428099 132.972398 
L 80.042975 133.598367 
L 80.657851 134.416437 
L 81.272727 133.961968 
L 82.195041 133.545208 
L 83.117355 134.041997 
L 83.424793 134.204815 
L 85.269421 133.880187 
L 89.573554 133.999922 
L 90.18843 133.929906 
L 90.495868 133.638652 
L 91.418182 133.796046 
L 92.033058 133.484851 
L 92.647934 134.014251 
L 93.26281 133.476446 
L 93.570248 133.530932 
L 93.877686 133.806559 
L 94.185124 133.925327 
L 94.8 133.31475 
L 95.414876 133.978037 
L 95.722314 133.819998 
L 96.029752 133.510283 
L 96.33719 133.829545 
L 96.644628 133.688355 
L 96.952066 133.795425 
L 97.259504 133.673419 
L 97.566942 134.006721 
L 98.181818 133.705158 
L 98.489256 133.664127 
L 98.796694 134.033496 
L 99.41157 134.021351 
L 99.719008 137.419992 
L 100.026446 139.555918 
L 100.333884 139.679219 
L 100.94876 136.010531 
L 101.256198 134.114554 
L 101.563636 129.592456 
L 101.871074 130.046689 
L 102.48595 133.682586 
L 102.793388 133.974972 
L 103.100826 132.837093 
L 103.408264 132.324262 
L 103.715702 132.673585 
L 104.02314 133.422842 
L 104.330579 137.271293 
L 104.638017 138.867135 
L 104.945455 137.657636 
L 105.867769 130.264048 
L 106.175207 129.32912 
L 106.790083 135.031484 
L 107.404959 131.104128 
L 107.712397 130.478609 
L 108.327273 136.383507 
L 108.634711 136.349302 
L 108.942149 133.279954 
L 109.249587 126.350758 
L 109.557025 134.146262 
L 109.864463 134.968485 
L 110.171901 131.618925 
L 110.479339 129.609706 
L 111.094215 134.39157 
L 111.401653 133.977528 
L 112.016529 130.560808 
L 112.323967 130.894498 
L 112.938843 133.689178 
L 113.246281 129.810276 
L 113.861157 133.443889 
L 114.168595 132.049525 
L 114.476033 132.191415 
L 114.783471 133.30296 
L 115.090909 128.769696 
L 115.398347 131.487067 
L 115.705785 137.233388 
L 116.013223 127.259302 
L 116.320661 135.9358 
L 116.628099 126.767589 
L 116.935537 137.923211 
L 117.242975 127.321875 
L 117.550413 135.463664 
L 117.857851 127.045377 
L 118.165289 139.362954 
L 118.472727 125.547442 
L 118.780165 136.199256 
L 119.087603 126.865878 
L 119.395041 139.58619 
L 119.702479 124.804664 
L 120.009917 137.707926 
L 120.317355 126.846178 
L 120.624793 137.361066 
L 120.932231 126.511859 
L 121.239669 136.971983 
L 121.547107 128.395662 
L 121.854545 133.470885 
L 122.161983 132.027952 
L 122.469421 132.469839 
L 122.77686 132.666166 
L 123.084298 132.534708 
L 123.699174 132.629524 
L 124.31405 132.582465 
L 124.621488 132.718984 
L 125.543802 132.526958 
L 126.466116 133.15864 
L 127.080992 132.453971 
L 127.38843 139.576166 
L 127.695868 141.712759 
L 128.003306 128.434371 
L 128.310744 127.592484 
L 128.618182 129.488832 
L 128.92562 135.253606 
L 129.233058 127.992604 
L 129.540496 133.43046 
L 129.847934 131.748753 
L 130.155372 131.850011 
L 130.46281 130.828688 
L 130.770248 132.350421 
L 131.077686 133.085036 
L 131.385124 131.782996 
L 131.692562 132.697795 
L 132 132.74571 
L 132.307438 133.343431 
L 132.614876 133.186122 
L 132.922314 136.11624 
L 133.229752 135.700737 
L 133.53719 139.323523 
L 133.844628 136.510669 
L 134.459504 128.303188 
L 135.07438 131.894228 
L 135.381818 134.860224 
L 135.689256 130.179266 
L 135.996694 138.431242 
L 136.304132 137.484244 
L 136.61157 135.461047 
L 136.919008 129.867971 
L 137.226446 128.862631 
L 137.533884 128.926323 
L 137.841322 134.512272 
L 138.14876 132.222107 
L 138.763636 129.345458 
L 139.071074 135.023719 
L 139.378512 134.796329 
L 139.68595 130.673744 
L 139.993388 128.775395 
L 140.300826 135.623279 
L 140.915702 130.120584 
L 141.22314 130.723933 
L 141.530579 132.806449 
L 141.838017 132.505272 
L 142.145455 132.037671 
L 142.452893 132.498719 
L 142.760331 131.976426 
L 143.067769 133.344551 
L 143.375207 133.753585 
L 143.682645 133.480016 
L 143.990083 132.713869 
L 144.604959 130.413268 
L 144.912397 132.654411 
L 145.219835 131.55433 
L 145.527273 130.02952 
L 145.834711 134.828206 
L 146.449587 127.212003 
L 146.757025 130.984781 
L 147.371901 133.370057 
L 147.679339 133.919077 
L 147.986777 134.208661 
L 148.294215 135.084723 
L 148.909091 133.698396 
L 149.216529 131.122907 
L 149.523967 130.837931 
L 150.138843 132.777988 
L 150.446281 131.74558 
L 150.753719 131.285673 
L 151.061157 131.615244 
L 151.368595 133.033071 
L 151.676033 133.25502 
L 151.983471 132.274353 
L 152.290909 131.781085 
L 152.598347 131.881178 
L 152.905785 132.626632 
L 153.213223 132.431181 
L 153.520661 132.859303 
L 154.135537 130.37029 
L 154.442975 136.581677 
L 154.750413 130.145846 
L 155.057851 119.310711 
L 155.980165 136.61034 
L 156.287603 138.106935 
L 156.595041 137.046525 
L 157.209917 132.613595 
L 157.517355 115.50638 
L 158.747107 138.71746 
L 159.054545 137.907509 
L 159.669421 133.21839 
L 159.97686 116.074484 
L 161.206612 137.009349 
L 161.51405 136.9361 
L 161.821488 135.758926 
L 162.128926 118.58221 
L 163.358678 134.321279 
L 163.666116 135.016772 
L 163.973554 135.264484 
L 164.280992 135.253088 
L 164.58843 118.031524 
L 165.818182 131.788194 
L 166.12562 133.510711 
L 166.740496 134.796294 
L 167.355372 135.54492 
L 167.66281 118.262058 
L 168.892562 130.554753 
L 169.814876 134.178682 
L 170.73719 136.063195 
L 171.044628 118.706258 
L 172.581818 130.089238 
L 173.196694 132.653677 
L 173.81157 134.944232 
L 174.426446 136.445705 
L 174.733884 118.999935 
L 175.656198 125.248593 
L 176.271074 129.754466 
L 176.88595 131.688245 
L 177.808264 135.015656 
L 178.42314 136.789769 
L 178.730579 119.239522 
L 179.038017 123.769322 
L 179.960331 129.191263 
L 180.267769 129.415724 
L 180.575207 129.386626 
L 181.190083 129.660599 
L 181.804959 130.182888 
L 182.112397 130.645657 
L 182.419835 131.484685 
L 183.649587 135.917431 
L 183.957025 139.922396 
L 184.571901 141.642549 
L 184.879339 142.14707 
L 185.186777 142.335369 
L 185.494215 142.149711 
L 185.801653 141.318365 
L 186.109091 139.504407 
L 186.416529 121.726147 
L 187.338843 129.387067 
L 188.568595 134.994918 
L 188.876033 135.372148 
L 189.183471 135.461093 
L 189.490909 117.581692 
L 189.798347 137.07312 
L 190.105785 127.057144 
L 190.413223 126.845809 
L 190.720661 126.875886 
L 191.642975 127.591506 
L 192.872727 128.727924 
L 194.409917 129.687885 
L 194.717355 130.026702 
L 195.024793 130.59283 
L 195.332231 128.98634 
L 195.639669 130.376936 
L 195.947107 134.665451 
L 196.869421 132.203877 
L 197.17686 131.976936 
L 197.484298 132.099661 
L 198.099174 132.753278 
L 198.406612 125.492093 
L 198.71405 127.013721 
L 199.943802 134.681223 
L 200.25124 134.772914 
L 200.558678 132.664605 
L 200.866116 132.110578 
L 201.173554 128.414912 
L 201.480992 127.832188 
L 202.095868 130.937541 
L 202.403306 133.558951 
L 202.710744 134.918007 
L 203.018182 132.807438 
L 203.32562 131.748834 
L 203.633058 131.538619 
L 203.940496 131.528656 
L 204.247934 131.80201 
L 204.86281 132.746318 
L 205.170248 131.469805 
L 205.477686 132.566827 
L 205.785124 134.913411 
L 206.092562 122.141244 
L 206.4 132.604843 
L 206.707438 138.316517 
L 207.014876 122.402304 
L 207.322314 128.128328 
L 207.629752 146.955014 
L 207.93719 128.481387 
L 208.244628 127.009965 
L 208.552066 127.944316 
L 208.859504 129.275015 
L 209.166942 125.208429 
L 209.47438 143.960849 
L 209.781818 125.425046 
L 210.396694 112.854681 
L 211.01157 150.159526 
L 211.626446 122.858646 
L 211.933884 123.700568 
L 212.241322 128.331212 
L 212.241322 128.331212 
" style="fill:none;stroke:#ff796c;stroke-linecap:square;stroke-width:1.5;"/>
   </g>
   <g id="line2d_12">
    <path clip-path="url(#p9d40cb4069)" d="M 64.978512 131.542627 
L 65.900826 131.605155 
L 71.742149 131.993279 
L 75.738843 132.358053 
L 76.661157 132.653268 
L 77.583471 132.263652 
L 78.505785 132.420214 
L 79.120661 132.62206 
L 79.428099 132.184635 
L 79.735537 132.087645 
L 80.657851 132.536989 
L 80.965289 132.71568 
L 81.580165 132.507751 
L 82.502479 132.313846 
L 84.347107 132.521933 
L 85.884298 132.435585 
L 89.266116 132.469878 
L 90.495868 132.406281 
L 90.803306 132.274394 
L 92.033058 132.261872 
L 92.340496 132.19261 
L 92.955372 132.421831 
L 93.570248 132.178092 
L 94.185124 132.319193 
L 94.492562 132.369144 
L 95.107438 132.093374 
L 95.722314 132.382218 
L 96.33719 132.169721 
L 96.644628 132.308686 
L 97.259504 132.288474 
L 97.566942 132.231881 
L 97.87438 132.377056 
L 98.796694 132.217703 
L 99.104132 132.378911 
L 99.719008 132.36843 
L 100.026446 133.87156 
L 100.333884 134.814043 
L 100.641322 134.864166 
L 101.256198 133.230656 
L 101.563636 132.387703 
L 101.871074 130.38213 
L 102.178512 130.582512 
L 102.793388 132.190399 
L 103.100826 132.317647 
L 103.408264 131.811272 
L 103.715702 131.582184 
L 104.02314 131.735189 
L 104.330579 132.065239 
L 104.638017 133.767848 
L 104.945455 134.47125 
L 105.252893 133.931475 
L 106.175207 130.648784 
L 106.482645 130.23384 
L 107.097521 132.757164 
L 107.712397 131.013443 
L 108.019835 130.735303 
L 108.634711 133.347865 
L 108.942149 133.329746 
L 109.249587 131.967416 
L 109.557025 128.896552 
L 109.864463 132.349856 
L 110.171901 132.71192 
L 110.479339 131.226006 
L 110.786777 130.334973 
L 111.401653 132.450916 
L 111.709091 132.265428 
L 112.323967 130.748967 
L 112.631405 130.896053 
L 113.246281 132.131492 
L 113.553719 130.411921 
L 114.168595 132.019573 
L 114.476033 131.400457 
L 114.783471 131.462173 
L 115.090909 131.953266 
L 115.398347 129.944064 
L 115.705785 131.147573 
L 116.013223 133.691524 
L 116.320661 129.271674 
L 116.628099 133.114658 
L 116.935537 129.052393 
L 117.242975 133.993264 
L 117.550413 129.295877 
L 117.857851 132.90181 
L 118.165289 129.172179 
L 118.472727 134.627141 
L 118.780165 128.506677 
L 119.087603 133.224422 
L 119.395041 129.089755 
L 119.702479 134.722771 
L 120.009917 128.175214 
L 120.317355 133.88973 
L 120.624793 129.078377 
L 120.932231 133.734515 
L 121.239669 128.929171 
L 121.547107 133.560919 
L 121.854545 129.762068 
L 122.161983 132.009184 
L 122.469421 131.369238 
L 123.084298 131.650174 
L 123.699174 131.62247 
L 126.466116 131.80533 
L 126.773554 131.858435 
L 127.38843 131.544894 
L 127.695868 134.696989 
L 128.003306 135.639502 
L 128.310744 129.75925 
L 128.618182 129.387613 
L 128.92562 130.227961 
L 129.233058 132.779381 
L 129.540496 129.56503 
L 129.847934 131.972301 
L 130.155372 131.227365 
L 130.46281 131.271972 
L 130.770248 130.819846 
L 131.077686 131.493349 
L 131.385124 131.818034 
L 131.692562 131.241303 
L 132 131.645946 
L 132.307438 131.666704 
L 132.614876 131.930728 
L 132.922314 131.860482 
L 133.229752 133.156356 
L 133.53719 132.970912 
L 133.844628 134.572435 
L 134.152066 133.32519 
L 134.766942 129.692369 
L 135.381818 131.282857 
L 135.689256 132.594872 
L 135.996694 130.523326 
L 136.304132 134.174107 
L 136.61157 133.752955 
L 136.919008 132.856182 
L 137.226446 130.381308 
L 137.533884 129.937551 
L 137.841322 129.966967 
L 138.14876 132.438647 
L 138.456198 131.425052 
L 139.071074 130.153531 
L 139.378512 132.665905 
L 139.68595 132.564459 
L 139.993388 130.740524 
L 140.300826 129.90174 
L 140.608264 132.931516 
L 141.22314 130.497224 
L 141.530579 130.765019 
L 141.838017 131.686721 
L 142.452893 131.34698 
L 142.760331 131.551214 
L 143.067769 131.320466 
L 143.375207 131.925852 
L 143.682645 132.106655 
L 143.990083 131.98549 
L 144.297521 131.646638 
L 144.912397 130.630322 
L 145.219835 131.622336 
L 145.834711 130.462698 
L 146.142149 132.585723 
L 146.757025 129.218674 
L 147.064463 130.889446 
L 147.679339 131.945901 
L 148.601653 132.704241 
L 149.216529 132.090503 
L 149.523967 130.951656 
L 149.831405 130.826685 
L 150.446281 131.68662 
L 150.753719 131.230587 
L 151.061157 131.028107 
L 151.368595 131.174909 
L 151.676033 131.802827 
L 151.983471 131.901437 
L 152.290909 131.468216 
L 152.598347 131.250884 
L 152.905785 131.296106 
L 153.213223 131.626655 
L 153.520661 131.540927 
L 153.828099 131.73099 
L 154.442975 130.6323 
L 154.750413 133.380119 
L 155.057851 130.534101 
L 155.365289 125.745553 
L 156.287603 133.40451 
L 156.595041 134.065619 
L 156.902479 133.595648 
L 157.517355 131.635237 
L 157.824793 124.073693 
L 159.054545 134.349232 
L 159.361983 133.989879 
L 159.97686 131.915798 
L 160.284298 124.337845 
L 161.51405 133.608262 
L 161.821488 133.575353 
L 162.128926 133.054407 
L 162.436364 125.460545 
L 163.666116 132.434776 
L 163.973554 132.742838 
L 164.58843 132.847849 
L 164.895868 125.234077 
L 166.12562 131.334444 
L 166.433058 132.097684 
L 167.047934 132.66776 
L 167.66281 132.999628 
L 167.970248 125.358455 
L 169.2 130.813295 
L 170.122314 132.420613 
L 171.044628 133.255742 
L 171.352066 125.581338 
L 172.889256 130.639028 
L 173.504132 131.777442 
L 174.119008 132.792858 
L 174.733884 133.457927 
L 175.041322 125.743772 
L 175.963636 128.524297 
L 176.578512 130.524554 
L 177.500826 131.944203 
L 178.42314 133.272163 
L 178.730579 133.646576 
L 179.038017 125.885518 
L 179.345455 127.895302 
L 180.267769 130.305788 
L 180.882645 130.398009 
L 181.497521 130.524945 
L 182.419835 130.968834 
L 183.034711 131.864718 
L 183.957025 133.309525 
L 184.264463 135.081735 
L 184.879339 135.840586 
L 185.186777 136.062278 
L 185.494215 136.14394 
L 185.801653 136.060186 
L 186.109091 135.690991 
L 186.416529 134.88742 
L 186.723967 127.026185 
L 187.953719 131.09301 
L 188.568595 132.610952 
L 189.183471 133.084061 
L 189.490909 133.124325 
L 189.798347 125.219821 
L 190.105785 133.845513 
L 190.413223 129.416979 
L 191.028099 129.344841 
L 192.257851 129.818911 
L 193.487603 130.277501 
L 194.717355 130.631257 
L 195.332231 131.037552 
L 195.639669 130.329406 
L 195.947107 130.948269 
L 196.254545 132.850216 
L 197.17686 131.764944 
L 197.484298 131.666637 
L 198.099174 131.871305 
L 198.406612 132.017027 
L 198.71405 128.803734 
L 199.636364 131.086399 
L 200.25124 132.890001 
L 200.558678 132.931924 
L 200.866116 131.999507 
L 201.173554 131.756202 
L 201.480992 130.121826 
L 201.78843 129.867351 
L 202.403306 131.249794 
L 202.710744 132.413555 
L 203.018182 133.017248 
L 203.32562 132.083697 
L 203.633058 131.61685 
L 204.247934 131.524201 
L 204.86281 131.881896 
L 205.170248 132.070549 
L 205.477686 131.507226 
L 205.785124 131.995597 
L 206.092562 133.037055 
L 206.4 127.381545 
L 206.707438 132.022156 
L 207.014876 134.554917 
L 207.322314 127.504679 
L 207.629752 130.047314 
L 207.93719 138.397068 
L 208.244628 130.207231 
L 208.552066 129.558743 
L 209.166942 130.570398 
L 209.47438 128.77129 
L 209.781818 137.091124 
L 210.089256 128.87135 
L 210.704132 123.309654 
L 211.319008 139.904329 
L 211.933884 127.760091 
L 212.241322 128.140074 
L 212.54876 130.204736 
L 212.54876 130.204736 
" style="fill:none;stroke:#e50000;stroke-linecap:square;stroke-width:1.5;"/>
   </g>
   <g id="line2d_13">
    <path clip-path="url(#p9d40cb4069)" d="M 64.978512 53.625107 
L 67.130579 53.747748 
L 69.282645 54.115412 
L 71.434711 54.727328 
L 73.586777 55.582212 
L 75.738843 56.678269 
L 77.890909 58.0132 
L 80.350413 59.827716 
L 82.809917 61.945582 
L 85.269421 64.360992 
L 87.728926 67.067325 
L 90.495868 70.450427 
L 93.26281 74.180584 
L 96.33719 78.716466 
L 99.41157 83.645385 
L 102.793388 89.495915 
L 106.482645 96.35586 
L 110.479339 104.301933 
L 114.783471 113.393154 
L 119.395041 123.663355 
L 124.621488 135.842711 
L 131.077686 151.46277 
L 143.375207 181.957266 
L 151.676033 202.226337 
L 157.517355 215.933765 
L 162.436364 226.940983 
L 166.740496 236.06901 
L 170.73719 244.054013 
L 174.426446 250.953709 
L 177.808264 256.84368 
L 181.190083 262.286309 
L 184.264463 266.82219 
L 187.338843 270.945612 
L 190.105785 274.289406 
L 192.872727 277.273182 
L 195.332231 279.614795 
L 197.791736 281.657335 
L 200.25124 283.395205 
L 202.403306 284.66215 
L 204.555372 285.689513 
L 206.707438 286.475138 
L 208.859504 287.017377 
L 211.01157 287.31509 
L 212.241322 287.375164 
L 212.241322 287.375164 
" style="fill:none;stroke:#014d4e;stroke-linecap:square;stroke-width:1.5;"/>
   </g>
   <g id="line2d_14">
    <path clip-path="url(#p9d40cb4069)" d="M 64.978512 53.576656 
L 68.052893 53.648357 
L 70.204959 53.980612 
L 72.664463 54.597087 
L 75.738843 55.747618 
L 76.353719 55.924775 
L 77.276033 56.886545 
L 78.198347 57.34566 
L 78.813223 57.578328 
L 79.120661 58.240202 
L 79.428099 58.566421 
L 80.657851 58.902919 
L 81.887603 60.295856 
L 82.502479 60.840235 
L 83.424793 61.470381 
L 88.343802 66.838396 
L 90.18843 69.19351 
L 90.803306 70.105259 
L 91.72562 71.346925 
L 92.340496 72.134894 
L 92.647934 72.443109 
L 93.570248 73.958886 
L 94.185124 74.672374 
L 94.8 75.847394 
L 95.414876 76.473924 
L 96.644628 78.491078 
L 97.87438 80.372541 
L 98.489256 81.451589 
L 99.104132 82.290253 
L 99.41157 82.819582 
L 99.719008 81.830162 
L 100.026446 81.405088 
L 100.333884 81.876051 
L 101.256198 85.937606 
L 101.563636 88.478744 
L 101.871074 88.817493 
L 102.48595 88.298463 
L 102.793388 88.720895 
L 103.408264 90.566106 
L 104.02314 91.206487 
L 104.330579 90.070671 
L 104.638017 89.937411 
L 104.945455 91.050654 
L 105.867769 96.073455 
L 106.175207 97.074923 
L 106.790083 95.734225 
L 107.404959 98.673174 
L 107.712397 99.55359 
L 108.327273 98.154776 
L 108.634711 98.784316 
L 108.942149 100.761061 
L 109.249587 104.449309 
L 109.557025 101.616332 
L 109.864463 101.877512 
L 110.479339 105.509587 
L 110.786777 104.874619 
L 111.094215 104.660116 
L 111.401653 105.483026 
L 112.016529 108.282566 
L 112.323967 108.781082 
L 112.631405 108.72408 
L 112.938843 108.844835 
L 113.246281 111.217938 
L 113.553719 110.958959 
L 113.861157 110.925089 
L 114.168595 112.205418 
L 114.476033 112.807418 
L 114.783471 112.982516 
L 115.090909 115.660355 
L 115.398347 115.127901 
L 115.705785 113.257394 
L 116.013223 118.353048 
L 116.320661 115.188198 
L 116.628099 119.930901 
L 116.935537 115.672741 
L 117.242975 121.055081 
L 117.550413 118.136316 
L 117.857851 122.5553 
L 118.165289 117.791847 
L 118.472727 124.605945 
L 118.780165 120.583931 
L 119.087603 125.416394 
L 119.395041 120.483211 
L 119.702479 127.732607 
L 120.009917 122.721907 
L 120.317355 128.239022 
L 120.624793 124.290562 
L 120.932231 129.805469 
L 121.239669 125.88514 
L 121.547107 130.397234 
L 121.854545 128.865155 
L 122.161983 130.221903 
L 122.77686 131.379737 
L 124.31405 135.046666 
L 125.236364 137.27654 
L 127.080992 141.729639 
L 127.38843 139.319572 
L 127.695868 139.120287 
L 128.003306 145.744936 
L 128.310744 146.862106 
L 128.618182 146.768397 
L 128.92562 144.964689 
L 129.233058 148.927792 
L 129.540496 147.270283 
L 129.847934 148.765957 
L 130.155372 149.473033 
L 130.46281 150.677753 
L 130.770248 150.757726 
L 131.077686 151.187364 
L 131.385124 152.519234 
L 131.692562 152.870513 
L 132.614876 154.928117 
L 132.922314 154.390973 
L 133.229752 155.335769 
L 133.53719 154.494186 
L 134.152066 159.197555 
L 134.459504 161.657276 
L 135.07438 161.59115 
L 135.381818 161.041922 
L 135.689256 163.876614 
L 135.996694 160.989307 
L 136.304132 162.174228 
L 136.61157 163.835031 
L 136.919008 167.074166 
L 137.226446 168.282379 
L 137.533884 169.017584 
L 137.841322 167.310655 
L 138.456198 170.453316 
L 138.763636 171.890484 
L 139.071074 170.143058 
L 139.378512 171.009419 
L 139.68595 173.598204 
L 139.993388 175.201739 
L 140.300826 172.936583 
L 140.915702 176.899592 
L 141.22314 177.395827 
L 141.530579 177.237895 
L 142.760331 180.65595 
L 143.067769 180.812531 
L 143.375207 181.393239 
L 143.990083 183.37477 
L 144.604959 185.910378 
L 144.912397 185.677094 
L 145.527273 188.352201 
L 145.834711 186.985848 
L 146.449587 191.863958 
L 146.757025 190.947509 
L 147.371901 191.397124 
L 148.294215 192.890967 
L 148.909091 195.001168 
L 149.216529 196.886654 
L 149.523967 197.757158 
L 150.138843 198.384848 
L 150.753719 200.526184 
L 151.061157 201.118913 
L 151.368595 201.22923 
L 151.676033 201.867528 
L 152.290909 203.987788 
L 152.598347 204.675302 
L 152.905785 205.076036 
L 153.828099 207.742762 
L 154.135537 208.980364 
L 154.442975 206.956092 
L 154.750413 210.524017 
L 155.057851 216.032802 
L 155.980165 210.524217 
L 156.287603 210.576352 
L 156.595041 211.757741 
L 157.209917 215.135394 
L 157.517355 223.4027 
L 157.824793 221.321344 
L 158.439669 216.229328 
L 158.747107 215.930445 
L 159.054545 216.985528 
L 159.669421 220.444752 
L 159.97686 228.712058 
L 160.284298 226.872646 
L 160.899174 222.394923 
L 161.206612 222.176911 
L 161.51405 222.887955 
L 161.821488 224.084705 
L 162.128926 232.35201 
L 162.743802 229.659628 
L 163.05124 228.373163 
L 163.358678 228.047378 
L 163.666116 228.400529 
L 164.280992 229.610321 
L 164.58843 237.877627 
L 165.510744 234.630047 
L 166.12562 234.241891 
L 166.740496 234.943877 
L 167.355372 235.872837 
L 167.66281 244.140142 
L 168.892562 241.160673 
L 169.507438 241.093479 
L 170.73719 242.340899 
L 171.044628 250.608204 
L 172.581818 248.466873 
L 172.889256 248.541564 
L 173.504132 248.452522 
L 174.119008 248.825891 
L 174.426446 249.03841 
L 174.733884 257.305715 
L 175.34876 256.633226 
L 176.271074 255.238167 
L 176.88595 255.438392 
L 177.500826 255.421791 
L 178.42314 255.763431 
L 178.730579 264.030737 
L 179.038017 262.523435 
L 179.345455 262.239006 
L 179.652893 261.670295 
L 179.960331 261.597599 
L 182.112397 264.263053 
L 182.419835 264.349132 
L 183.649587 264.180517 
L 183.957025 262.847749 
L 184.571901 262.95544 
L 184.879339 263.160812 
L 185.494215 264.004524 
L 185.801653 264.788241 
L 186.109091 266.002116 
L 186.416529 274.269422 
L 187.338843 272.060265 
L 187.646281 271.784191 
L 187.953719 271.263072 
L 188.261157 271.031197 
L 188.568595 271.101899 
L 189.183471 271.632565 
L 189.490909 279.899871 
L 189.798347 271.632565 
L 190.105785 276.415054 
L 190.720661 277.18175 
L 191.950413 278.042974 
L 193.487603 279.075655 
L 194.717355 279.815629 
L 195.024793 279.8434 
L 195.332231 280.828016 
L 195.639669 280.480948 
L 195.947107 278.846112 
L 196.869421 280.704486 
L 197.484298 281.237947 
L 198.099174 281.416936 
L 198.406612 284.859459 
L 198.71405 284.405465 
L 199.636364 282.359584 
L 199.943802 281.84743 
L 200.25124 282.005908 
L 200.558678 283.13389 
L 200.866116 283.567915 
L 201.173554 285.388159 
L 201.480992 285.823643 
L 202.095868 284.788603 
L 202.403306 283.791222 
L 202.710744 283.34902 
L 203.018182 284.439164 
L 203.32562 285.0577 
L 203.940496 285.43899 
L 204.247934 285.452385 
L 204.86281 285.288668 
L 205.170248 285.974128 
L 205.477686 285.602949 
L 205.785124 284.673732 
L 206.092562 290.436529 
L 206.4 285.898246 
L 206.707438 283.462849 
L 207.014876 290.605482 
L 207.322314 288.150272 
L 207.629752 279.882966 
L 207.93719 288.150272 
L 208.244628 288.871247 
L 208.552066 288.520573 
L 208.859504 287.989606 
L 209.166942 289.846235 
L 209.47438 281.57893 
L 209.781818 289.846235 
L 210.396694 295.488 
L 211.01157 278.953389 
L 211.626446 291.137674 
L 211.933884 290.770207 
L 212.241322 288.713056 
L 212.241322 288.713056 
" style="fill:none;stroke:#ffff14;stroke-linecap:square;stroke-width:1.5;"/>
   </g>
   <g id="patch_3">
    <path d="M 57.6 307.584 
L 57.6 41.472 
" style="fill:none;stroke:#000000;stroke-linecap:square;stroke-linejoin:miter;stroke-width:0.8;"/>
   </g>
   <g id="patch_4">
    <path d="M 219.927273 307.584 
L 219.927273 41.472 
" style="fill:none;stroke:#000000;stroke-linecap:square;stroke-linejoin:miter;stroke-width:0.8;"/>
   </g>
   <g id="patch_5">
    <path d="M 57.6 307.584 
L 219.927273 307.584 
" style="fill:none;stroke:#000000;stroke-linecap:square;stroke-linejoin:miter;stroke-width:0.8;"/>
   </g>
   <g id="patch_6">
    <path d="M 57.6 41.472 
L 219.927273 41.472 
" style="fill:none;stroke:#000000;stroke-linecap:square;stroke-linejoin:miter;stroke-width:0.8;"/>
   </g>
   <g id="text_11">
    <!-- Right abduction -->
    <defs>
     <path d="M 44.390625 34.1875 
Q 47.5625 33.109375 50.5625 29.59375 
Q 53.5625 26.078125 56.59375 19.921875 
L 66.609375 0 
L 56 0 
L 46.6875 18.703125 
Q 43.0625 26.03125 39.671875 28.421875 
Q 36.28125 30.8125 30.421875 30.8125 
L 19.671875 30.8125 
L 19.671875 0 
L 9.8125 0 
L 9.8125 72.90625 
L 32.078125 72.90625 
Q 44.578125 72.90625 50.734375 67.671875 
Q 56.890625 62.453125 56.890625 51.90625 
Q 56.890625 45.015625 53.6875 40.46875 
Q 50.484375 35.9375 44.390625 34.1875 
z
M 19.671875 64.796875 
L 19.671875 38.921875 
L 32.078125 38.921875 
Q 39.203125 38.921875 42.84375 42.21875 
Q 46.484375 45.515625 46.484375 51.90625 
Q 46.484375 58.296875 42.84375 61.546875 
Q 39.203125 64.796875 32.078125 64.796875 
z
" id="DejaVuSans-82"/>
     <path d="M 9.421875 54.6875 
L 18.40625 54.6875 
L 18.40625 0 
L 9.421875 0 
z
M 9.421875 75.984375 
L 18.40625 75.984375 
L 18.40625 64.59375 
L 9.421875 64.59375 
z
" id="DejaVuSans-105"/>
     <path d="M 45.40625 27.984375 
Q 45.40625 37.75 41.375 43.109375 
Q 37.359375 48.484375 30.078125 48.484375 
Q 22.859375 48.484375 18.828125 43.109375 
Q 14.796875 37.75 14.796875 27.984375 
Q 14.796875 18.265625 18.828125 12.890625 
Q 22.859375 7.515625 30.078125 7.515625 
Q 37.359375 7.515625 41.375 12.890625 
Q 45.40625 18.265625 45.40625 27.984375 
z
M 54.390625 6.78125 
Q 54.390625 -7.171875 48.1875 -13.984375 
Q 42 -20.796875 29.203125 -20.796875 
Q 24.46875 -20.796875 20.265625 -20.09375 
Q 16.0625 -19.390625 12.109375 -17.921875 
L 12.109375 -9.1875 
Q 16.0625 -11.328125 19.921875 -12.34375 
Q 23.78125 -13.375 27.78125 -13.375 
Q 36.625 -13.375 41.015625 -8.765625 
Q 45.40625 -4.15625 45.40625 5.171875 
L 45.40625 9.625 
Q 42.625 4.78125 38.28125 2.390625 
Q 33.9375 0 27.875 0 
Q 17.828125 0 11.671875 7.65625 
Q 5.515625 15.328125 5.515625 27.984375 
Q 5.515625 40.671875 11.671875 48.328125 
Q 17.828125 56 27.875 56 
Q 33.9375 56 38.28125 53.609375 
Q 42.625 51.21875 45.40625 46.390625 
L 45.40625 54.6875 
L 54.390625 54.6875 
z
" id="DejaVuSans-103"/>
     <path d="M 54.890625 33.015625 
L 54.890625 0 
L 45.90625 0 
L 45.90625 32.71875 
Q 45.90625 40.484375 42.875 44.328125 
Q 39.84375 48.1875 33.796875 48.1875 
Q 26.515625 48.1875 22.3125 43.546875 
Q 18.109375 38.921875 18.109375 30.90625 
L 18.109375 0 
L 9.078125 0 
L 9.078125 75.984375 
L 18.109375 75.984375 
L 18.109375 46.1875 
Q 21.34375 51.125 25.703125 53.5625 
Q 30.078125 56 35.796875 56 
Q 45.21875 56 50.046875 50.171875 
Q 54.890625 44.34375 54.890625 33.015625 
z
" id="DejaVuSans-104"/>
     <path d="M 18.3125 70.21875 
L 18.3125 54.6875 
L 36.8125 54.6875 
L 36.8125 47.703125 
L 18.3125 47.703125 
L 18.3125 18.015625 
Q 18.3125 11.328125 20.140625 9.421875 
Q 21.96875 7.515625 27.59375 7.515625 
L 36.8125 7.515625 
L 36.8125 0 
L 27.59375 0 
Q 17.1875 0 13.234375 3.875 
Q 9.28125 7.765625 9.28125 18.015625 
L 9.28125 47.703125 
L 2.6875 47.703125 
L 2.6875 54.6875 
L 9.28125 54.6875 
L 9.28125 70.21875 
z
" id="DejaVuSans-116"/>
     <path id="DejaVuSans-32"/>
     <path d="M 34.28125 27.484375 
Q 23.390625 27.484375 19.1875 25 
Q 14.984375 22.515625 14.984375 16.5 
Q 14.984375 11.71875 18.140625 8.90625 
Q 21.296875 6.109375 26.703125 6.109375 
Q 34.1875 6.109375 38.703125 11.40625 
Q 43.21875 16.703125 43.21875 25.484375 
L 43.21875 27.484375 
z
M 52.203125 31.203125 
L 52.203125 0 
L 43.21875 0 
L 43.21875 8.296875 
Q 40.140625 3.328125 35.546875 0.953125 
Q 30.953125 -1.421875 24.3125 -1.421875 
Q 15.921875 -1.421875 10.953125 3.296875 
Q 6 8.015625 6 15.921875 
Q 6 25.140625 12.171875 29.828125 
Q 18.359375 34.515625 30.609375 34.515625 
L 43.21875 34.515625 
L 43.21875 35.40625 
Q 43.21875 41.609375 39.140625 45 
Q 35.0625 48.390625 27.6875 48.390625 
Q 23 48.390625 18.546875 47.265625 
Q 14.109375 46.140625 10.015625 43.890625 
L 10.015625 52.203125 
Q 14.9375 54.109375 19.578125 55.046875 
Q 24.21875 56 28.609375 56 
Q 40.484375 56 46.34375 49.84375 
Q 52.203125 43.703125 52.203125 31.203125 
z
" id="DejaVuSans-97"/>
     <path d="M 48.6875 27.296875 
Q 48.6875 37.203125 44.609375 42.84375 
Q 40.53125 48.484375 33.40625 48.484375 
Q 26.265625 48.484375 22.1875 42.84375 
Q 18.109375 37.203125 18.109375 27.296875 
Q 18.109375 17.390625 22.1875 11.75 
Q 26.265625 6.109375 33.40625 6.109375 
Q 40.53125 6.109375 44.609375 11.75 
Q 48.6875 17.390625 48.6875 27.296875 
z
M 18.109375 46.390625 
Q 20.953125 51.265625 25.265625 53.625 
Q 29.59375 56 35.59375 56 
Q 45.5625 56 51.78125 48.09375 
Q 58.015625 40.1875 58.015625 27.296875 
Q 58.015625 14.40625 51.78125 6.484375 
Q 45.5625 -1.421875 35.59375 -1.421875 
Q 29.59375 -1.421875 25.265625 0.953125 
Q 20.953125 3.328125 18.109375 8.203125 
L 18.109375 0 
L 9.078125 0 
L 9.078125 75.984375 
L 18.109375 75.984375 
z
" id="DejaVuSans-98"/>
     <path d="M 45.40625 46.390625 
L 45.40625 75.984375 
L 54.390625 75.984375 
L 54.390625 0 
L 45.40625 0 
L 45.40625 8.203125 
Q 42.578125 3.328125 38.25 0.953125 
Q 33.9375 -1.421875 27.875 -1.421875 
Q 17.96875 -1.421875 11.734375 6.484375 
Q 5.515625 14.40625 5.515625 27.296875 
Q 5.515625 40.1875 11.734375 48.09375 
Q 17.96875 56 27.875 56 
Q 33.9375 56 38.25 53.625 
Q 42.578125 51.265625 45.40625 46.390625 
z
M 14.796875 27.296875 
Q 14.796875 17.390625 18.875 11.75 
Q 22.953125 6.109375 30.078125 6.109375 
Q 37.203125 6.109375 41.296875 11.75 
Q 45.40625 17.390625 45.40625 27.296875 
Q 45.40625 37.203125 41.296875 42.84375 
Q 37.203125 48.484375 30.078125 48.484375 
Q 22.953125 48.484375 18.875 42.84375 
Q 14.796875 37.203125 14.796875 27.296875 
z
" id="DejaVuSans-100"/>
     <path d="M 8.5 21.578125 
L 8.5 54.6875 
L 17.484375 54.6875 
L 17.484375 21.921875 
Q 17.484375 14.15625 20.5 10.265625 
Q 23.53125 6.390625 29.59375 6.390625 
Q 36.859375 6.390625 41.078125 11.03125 
Q 45.3125 15.671875 45.3125 23.6875 
L 45.3125 54.6875 
L 54.296875 54.6875 
L 54.296875 0 
L 45.3125 0 
L 45.3125 8.40625 
Q 42.046875 3.421875 37.71875 1 
Q 33.40625 -1.421875 27.6875 -1.421875 
Q 18.265625 -1.421875 13.375 4.4375 
Q 8.5 10.296875 8.5 21.578125 
z
M 31.109375 56 
z
" id="DejaVuSans-117"/>
     <path d="M 48.78125 52.59375 
L 48.78125 44.1875 
Q 44.96875 46.296875 41.140625 47.34375 
Q 37.3125 48.390625 33.40625 48.390625 
Q 24.65625 48.390625 19.8125 42.84375 
Q 14.984375 37.3125 14.984375 27.296875 
Q 14.984375 17.28125 19.8125 11.734375 
Q 24.65625 6.203125 33.40625 6.203125 
Q 37.3125 6.203125 41.140625 7.25 
Q 44.96875 8.296875 48.78125 10.40625 
L 48.78125 2.09375 
Q 45.015625 0.34375 40.984375 -0.53125 
Q 36.96875 -1.421875 32.421875 -1.421875 
Q 20.0625 -1.421875 12.78125 6.34375 
Q 5.515625 14.109375 5.515625 27.296875 
Q 5.515625 40.671875 12.859375 48.328125 
Q 20.21875 56 33.015625 56 
Q 37.15625 56 41.109375 55.140625 
Q 45.0625 54.296875 48.78125 52.59375 
z
" id="DejaVuSans-99"/>
     <path d="M 30.609375 48.390625 
Q 23.390625 48.390625 19.1875 42.75 
Q 14.984375 37.109375 14.984375 27.296875 
Q 14.984375 17.484375 19.15625 11.84375 
Q 23.34375 6.203125 30.609375 6.203125 
Q 37.796875 6.203125 41.984375 11.859375 
Q 46.1875 17.53125 46.1875 27.296875 
Q 46.1875 37.015625 41.984375 42.703125 
Q 37.796875 48.390625 30.609375 48.390625 
z
M 30.609375 56 
Q 42.328125 56 49.015625 48.375 
Q 55.71875 40.765625 55.71875 27.296875 
Q 55.71875 13.875 49.015625 6.21875 
Q 42.328125 -1.421875 30.609375 -1.421875 
Q 18.84375 -1.421875 12.171875 6.21875 
Q 5.515625 13.875 5.515625 27.296875 
Q 5.515625 40.765625 12.171875 48.375 
Q 18.84375 56 30.609375 56 
z
" id="DejaVuSans-111"/>
     <path d="M 54.890625 33.015625 
L 54.890625 0 
L 45.90625 0 
L 45.90625 32.71875 
Q 45.90625 40.484375 42.875 44.328125 
Q 39.84375 48.1875 33.796875 48.1875 
Q 26.515625 48.1875 22.3125 43.546875 
Q 18.109375 38.921875 18.109375 30.90625 
L 18.109375 0 
L 9.078125 0 
L 9.078125 54.6875 
L 18.109375 54.6875 
L 18.109375 46.1875 
Q 21.34375 51.125 25.703125 53.5625 
Q 30.078125 56 35.796875 56 
Q 45.21875 56 50.046875 50.171875 
Q 54.890625 44.34375 54.890625 33.015625 
z
" id="DejaVuSans-110"/>
    </defs>
    <g transform="translate(91.167699 35.472)scale(0.12 -0.12)">
     <use xlink:href="#DejaVuSans-82"/>
     <use x="69.482422" xlink:href="#DejaVuSans-105"/>
     <use x="97.265625" xlink:href="#DejaVuSans-103"/>
     <use x="160.742188" xlink:href="#DejaVuSans-104"/>
     <use x="224.121094" xlink:href="#DejaVuSans-116"/>
     <use x="263.330078" xlink:href="#DejaVuSans-32"/>
     <use x="295.117188" xlink:href="#DejaVuSans-97"/>
     <use x="356.396484" xlink:href="#DejaVuSans-98"/>
     <use x="419.873047" xlink:href="#DejaVuSans-100"/>
     <use x="483.349609" xlink:href="#DejaVuSans-117"/>
     <use x="546.728516" xlink:href="#DejaVuSans-99"/>
     <use x="601.708984" xlink:href="#DejaVuSans-116"/>
     <use x="640.917969" xlink:href="#DejaVuSans-105"/>
     <use x="668.701172" xlink:href="#DejaVuSans-111"/>
     <use x="729.882812" xlink:href="#DejaVuSans-110"/>
    </g>
   </g>
  </g>
  <g id="axes_2">
   <g id="patch_7">
    <path d="M 252.392727 307.584 
L 414.72 307.584 
L 414.72 41.472 
L 252.392727 41.472 
z
" style="fill:#ffffff;"/>
   </g>
   <g id="matplotlib.axis_3">
    <g id="xtick_4">
     <g id="line2d_15">
      <g>
       <use style="stroke:#000000;stroke-width:0.8;" x="259.77124" xlink:href="#mbce37ee34a" y="307.584"/>
      </g>
     </g>
     <g id="text_12">
      <!-- 0 -->
      <g transform="translate(256.58999 322.182437)scale(0.1 -0.1)">
       <use xlink:href="#DejaVuSans-48"/>
      </g>
     </g>
    </g>
    <g id="xtick_5">
     <g id="line2d_16">
      <g>
       <use style="stroke:#000000;stroke-width:0.8;" x="321.258843" xlink:href="#mbce37ee34a" y="307.584"/>
      </g>
     </g>
     <g id="text_13">
      <!-- 200 -->
      <g transform="translate(311.715093 322.182437)scale(0.1 -0.1)">
       <use xlink:href="#DejaVuSans-50"/>
       <use x="63.623047" xlink:href="#DejaVuSans-48"/>
       <use x="127.246094" xlink:href="#DejaVuSans-48"/>
      </g>
     </g>
    </g>
    <g id="xtick_6">
     <g id="line2d_17">
      <g>
       <use style="stroke:#000000;stroke-width:0.8;" x="382.746446" xlink:href="#mbce37ee34a" y="307.584"/>
      </g>
     </g>
     <g id="text_14">
      <!-- 400 -->
      <g transform="translate(373.202696 322.182437)scale(0.1 -0.1)">
       <use xlink:href="#DejaVuSans-52"/>
       <use x="63.623047" xlink:href="#DejaVuSans-48"/>
       <use x="127.246094" xlink:href="#DejaVuSans-48"/>
      </g>
     </g>
    </g>
   </g>
   <g id="matplotlib.axis_4">
    <g id="ytick_8">
     <g id="line2d_18">
      <g>
       <use style="stroke:#000000;stroke-width:0.8;" x="252.392727" xlink:href="#m5db5055494" y="285.771483"/>
      </g>
     </g>
     <g id="text_15">
      <!-- −1.00 -->
      <defs>
       <path d="M 12.40625 8.296875 
L 28.515625 8.296875 
L 28.515625 63.921875 
L 10.984375 60.40625 
L 10.984375 69.390625 
L 28.421875 72.90625 
L 38.28125 72.90625 
L 38.28125 8.296875 
L 54.390625 8.296875 
L 54.390625 0 
L 12.40625 0 
z
" id="DejaVuSans-49"/>
      </defs>
      <g transform="translate(214.747415 289.570702)scale(0.1 -0.1)">
       <use xlink:href="#DejaVuSans-8722"/>
       <use x="83.789062" xlink:href="#DejaVuSans-49"/>
       <use x="147.412109" xlink:href="#DejaVuSans-46"/>
       <use x="179.199219" xlink:href="#DejaVuSans-48"/>
       <use x="242.822266" xlink:href="#DejaVuSans-48"/>
      </g>
     </g>
    </g>
    <g id="ytick_9">
     <g id="line2d_19">
      <g>
       <use style="stroke:#000000;stroke-width:0.8;" x="252.392727" xlink:href="#m5db5055494" y="253.850546"/>
      </g>
     </g>
     <g id="text_16">
      <!-- −0.75 -->
      <defs>
       <path d="M 8.203125 72.90625 
L 55.078125 72.90625 
L 55.078125 68.703125 
L 28.609375 0 
L 18.3125 0 
L 43.21875 64.59375 
L 8.203125 64.59375 
z
" id="DejaVuSans-55"/>
       <path d="M 10.796875 72.90625 
L 49.515625 72.90625 
L 49.515625 64.59375 
L 19.828125 64.59375 
L 19.828125 46.734375 
Q 21.96875 47.46875 24.109375 47.828125 
Q 26.265625 48.1875 28.421875 48.1875 
Q 40.625 48.1875 47.75 41.5 
Q 54.890625 34.8125 54.890625 23.390625 
Q 54.890625 11.625 47.5625 5.09375 
Q 40.234375 -1.421875 26.90625 -1.421875 
Q 22.3125 -1.421875 17.546875 -0.640625 
Q 12.796875 0.140625 7.71875 1.703125 
L 7.71875 11.625 
Q 12.109375 9.234375 16.796875 8.0625 
Q 21.484375 6.890625 26.703125 6.890625 
Q 35.15625 6.890625 40.078125 11.328125 
Q 45.015625 15.765625 45.015625 23.390625 
Q 45.015625 31 40.078125 35.4375 
Q 35.15625 39.890625 26.703125 39.890625 
Q 22.75 39.890625 18.8125 39.015625 
Q 14.890625 38.140625 10.796875 36.28125 
z
" id="DejaVuSans-53"/>
      </defs>
      <g transform="translate(214.747415 257.649765)scale(0.1 -0.1)">
       <use xlink:href="#DejaVuSans-8722"/>
       <use x="83.789062" xlink:href="#DejaVuSans-48"/>
       <use x="147.412109" xlink:href="#DejaVuSans-46"/>
       <use x="179.199219" xlink:href="#DejaVuSans-55"/>
       <use x="242.822266" xlink:href="#DejaVuSans-53"/>
      </g>
     </g>
    </g>
    <g id="ytick_10">
     <g id="line2d_20">
      <g>
       <use style="stroke:#000000;stroke-width:0.8;" x="252.392727" xlink:href="#m5db5055494" y="221.92961"/>
      </g>
     </g>
     <g id="text_17">
      <!-- −0.50 -->
      <g transform="translate(214.747415 225.728829)scale(0.1 -0.1)">
       <use xlink:href="#DejaVuSans-8722"/>
       <use x="83.789062" xlink:href="#DejaVuSans-48"/>
       <use x="147.412109" xlink:href="#DejaVuSans-46"/>
       <use x="179.199219" xlink:href="#DejaVuSans-53"/>
       <use x="242.822266" xlink:href="#DejaVuSans-48"/>
      </g>
     </g>
    </g>
    <g id="ytick_11">
     <g id="line2d_21">
      <g>
       <use style="stroke:#000000;stroke-width:0.8;" x="252.392727" xlink:href="#m5db5055494" y="190.008674"/>
      </g>
     </g>
     <g id="text_18">
      <!-- −0.25 -->
      <g transform="translate(214.747415 193.807892)scale(0.1 -0.1)">
       <use xlink:href="#DejaVuSans-8722"/>
       <use x="83.789062" xlink:href="#DejaVuSans-48"/>
       <use x="147.412109" xlink:href="#DejaVuSans-46"/>
       <use x="179.199219" xlink:href="#DejaVuSans-50"/>
       <use x="242.822266" xlink:href="#DejaVuSans-53"/>
      </g>
     </g>
    </g>
    <g id="ytick_12">
     <g id="line2d_22">
      <g>
       <use style="stroke:#000000;stroke-width:0.8;" x="252.392727" xlink:href="#m5db5055494" y="158.087737"/>
      </g>
     </g>
     <g id="text_19">
      <!-- 0.00 -->
      <g transform="translate(223.127102 161.886956)scale(0.1 -0.1)">
       <use xlink:href="#DejaVuSans-48"/>
       <use x="63.623047" xlink:href="#DejaVuSans-46"/>
       <use x="95.410156" xlink:href="#DejaVuSans-48"/>
       <use x="159.033203" xlink:href="#DejaVuSans-48"/>
      </g>
     </g>
    </g>
    <g id="ytick_13">
     <g id="line2d_23">
      <g>
       <use style="stroke:#000000;stroke-width:0.8;" x="252.392727" xlink:href="#m5db5055494" y="126.166801"/>
      </g>
     </g>
     <g id="text_20">
      <!-- 0.25 -->
      <g transform="translate(223.127102 129.96602)scale(0.1 -0.1)">
       <use xlink:href="#DejaVuSans-48"/>
       <use x="63.623047" xlink:href="#DejaVuSans-46"/>
       <use x="95.410156" xlink:href="#DejaVuSans-50"/>
       <use x="159.033203" xlink:href="#DejaVuSans-53"/>
      </g>
     </g>
    </g>
    <g id="ytick_14">
     <g id="line2d_24">
      <g>
       <use style="stroke:#000000;stroke-width:0.8;" x="252.392727" xlink:href="#m5db5055494" y="94.245865"/>
      </g>
     </g>
     <g id="text_21">
      <!-- 0.50 -->
      <g transform="translate(223.127102 98.045083)scale(0.1 -0.1)">
       <use xlink:href="#DejaVuSans-48"/>
       <use x="63.623047" xlink:href="#DejaVuSans-46"/>
       <use x="95.410156" xlink:href="#DejaVuSans-53"/>
       <use x="159.033203" xlink:href="#DejaVuSans-48"/>
      </g>
     </g>
    </g>
    <g id="ytick_15">
     <g id="line2d_25">
      <g>
       <use style="stroke:#000000;stroke-width:0.8;" x="252.392727" xlink:href="#m5db5055494" y="62.324928"/>
      </g>
     </g>
     <g id="text_22">
      <!-- 0.75 -->
      <g transform="translate(223.127102 66.124147)scale(0.1 -0.1)">
       <use xlink:href="#DejaVuSans-48"/>
       <use x="63.623047" xlink:href="#DejaVuSans-46"/>
       <use x="95.410156" xlink:href="#DejaVuSans-55"/>
       <use x="159.033203" xlink:href="#DejaVuSans-53"/>
      </g>
     </g>
    </g>
   </g>
   <g id="line2d_26">
    <path clip-path="url(#p8dbc511995)" d="M 259.77124 158.088539 
L 266.227438 158.253575 
L 273.60595 158.506081 
L 274.220826 158.31587 
L 276.065455 158.473798 
L 277.602645 158.455853 
L 278.832397 158.48886 
L 281.599339 158.487382 
L 284.981157 158.468679 
L 285.903471 158.438085 
L 288.977851 158.467954 
L 289.900165 158.421054 
L 290.515041 158.451136 
L 291.129917 158.452661 
L 292.052231 158.427727 
L 292.667107 158.455255 
L 293.589421 158.485238 
L 294.204298 158.483298 
L 294.819174 159.367364 
L 295.126612 159.387061 
L 296.048926 158.498055 
L 296.356364 157.775605 
L 296.663802 157.848173 
L 297.278678 158.429027 
L 297.586116 158.475738 
L 298.200992 158.212015 
L 298.815868 158.387535 
L 299.123306 159.002426 
L 299.430744 159.257412 
L 299.738182 159.064148 
L 300.660496 157.882636 
L 300.967934 157.733228 
L 301.58281 158.644477 
L 302.197686 158.016848 
L 302.505124 157.916882 
L 303.12 158.860594 
L 303.427438 158.855127 
L 303.734876 158.364548 
L 304.042314 157.257089 
L 304.349752 158.502944 
L 304.65719 158.634351 
L 305.272066 157.777889 
L 305.886942 158.542134 
L 306.19438 158.475959 
L 306.809256 157.929861 
L 307.116694 157.983194 
L 307.73157 158.42986 
L 308.039008 157.809927 
L 308.653884 158.390641 
L 308.961322 158.167794 
L 309.26876 158.190471 
L 309.576198 158.368124 
L 309.883636 157.643627 
L 310.191074 158.077896 
L 310.498512 158.996221 
L 310.80595 157.402207 
L 311.113388 158.788812 
L 311.420826 157.32359 
L 311.728264 159.106386 
L 312.035702 157.412124 
L 312.34314 158.713283 
L 312.650579 157.367911 
L 312.958017 159.336407 
L 313.265455 157.128465 
L 313.572893 158.830769 
L 313.880331 157.339145 
L 314.187769 159.372018 
L 314.495207 157.009692 
L 314.802645 159.071812 
L 315.110083 157.33593 
L 315.417521 159.016354 
L 315.724959 157.282481 
L 316.032397 158.954146 
L 316.339835 157.583519 
L 316.647273 158.394607 
L 316.954711 158.164006 
L 317.569587 158.266002 
L 319.106777 158.252625 
L 321.258843 158.344714 
L 321.873719 158.232087 
L 322.181157 159.370462 
L 322.488595 159.711972 
L 322.796033 157.58948 
L 323.103471 157.454908 
L 323.410909 157.75803 
L 323.718347 158.679494 
L 324.025785 157.518833 
L 324.333223 158.388063 
L 324.640661 158.119242 
L 324.948099 158.135429 
L 325.255537 157.972168 
L 325.870413 158.332848 
L 326.177851 158.124712 
L 326.485289 158.270946 
L 327.407603 158.349009 
L 327.715041 158.817417 
L 328.022479 158.750993 
L 328.329917 159.330086 
L 328.637355 158.880448 
L 329.252231 157.568574 
L 329.867107 158.142572 
L 330.174545 158.616674 
L 330.481983 157.868417 
L 330.789421 159.187427 
L 331.09686 159.036057 
L 331.404298 158.712652 
L 331.711736 157.818584 
L 332.019174 157.657872 
L 332.326612 157.668054 
L 332.63405 158.561026 
L 333.248926 157.978245 
L 333.556364 157.735036 
L 333.863802 158.642783 
L 334.17124 158.606431 
L 334.478678 157.947352 
L 334.786116 157.643858 
L 335.093554 158.738642 
L 335.70843 157.858888 
L 336.015868 157.955351 
L 336.323306 158.288303 
L 337.553058 158.155596 
L 337.860496 158.37434 
L 338.475372 158.395998 
L 339.090248 158.058468 
L 339.397686 157.90563 
L 339.705124 158.26399 
L 340.32 157.844264 
L 340.627438 158.611584 
L 341.242314 157.393704 
L 341.549752 157.997186 
L 342.472066 158.466532 
L 343.39438 158.552446 
L 343.701818 158.431216 
L 344.009256 158.019182 
L 344.316694 157.973589 
L 344.93157 158.283982 
L 345.546446 158.045223 
L 345.853884 158.097952 
L 346.161322 158.324795 
L 346.46876 158.360305 
L 347.083636 158.124486 
L 348.313388 158.296993 
L 348.928264 157.898773 
L 349.235702 158.892546 
L 349.54314 157.862848 
L 349.850579 156.129282 
L 350.772893 158.89662 
L 351.080331 159.135987 
L 351.387769 158.966375 
L 352.002645 158.257222 
L 352.310083 155.520284 
L 353.539835 159.232841 
L 353.847273 159.103305 
L 354.462149 158.353233 
L 354.769587 155.610611 
L 355.999339 158.959082 
L 356.306777 158.947366 
L 356.614215 158.759078 
L 356.921653 156.011582 
L 358.151405 158.528865 
L 358.766281 158.67971 
L 359.073719 158.677888 
L 359.381157 155.923466 
L 360.610909 158.123465 
L 360.918347 158.398906 
L 361.840661 158.671126 
L 362.148099 158.724191 
L 362.455537 155.960357 
L 363.685289 157.925963 
L 364.607603 158.505374 
L 365.529917 158.806688 
L 365.837355 156.031307 
L 367.681983 158.030748 
L 368.604298 158.627473 
L 369.219174 158.867525 
L 369.526612 156.078229 
L 370.448926 157.0772 
L 371.063802 157.797485 
L 373.215868 158.922074 
L 373.523306 156.116588 
L 373.830744 156.840674 
L 374.753058 157.707316 
L 377.212562 158.073862 
L 378.442314 158.782308 
L 378.749752 159.422417 
L 379.672066 159.778016 
L 380.286942 159.778433 
L 380.59438 159.645471 
L 380.901818 159.355249 
L 381.209256 156.511438 
L 382.439008 157.976145 
L 383.053884 158.523483 
L 383.66876 158.69371 
L 383.976198 158.707934 
L 384.283636 155.849054 
L 384.591074 158.965331 
L 384.898512 157.364087 
L 385.820826 157.366876 
L 389.817521 157.929048 
L 390.124959 157.672514 
L 390.432397 157.894513 
L 390.739835 158.578846 
L 391.969587 158.149792 
L 392.891901 158.273701 
L 393.199339 157.114744 
L 394.121653 157.932989 
L 394.736529 158.581039 
L 395.043967 158.595668 
L 395.351405 158.259257 
L 395.658843 158.17085 
L 395.966281 157.581101 
L 396.273719 157.488114 
L 396.888595 157.983564 
L 397.196033 158.401737 
L 397.503471 158.618531 
L 397.810909 158.281838 
L 398.118347 158.112954 
L 399.040661 158.121438 
L 399.655537 158.272086 
L 399.962975 158.068436 
L 400.270413 158.243449 
L 400.577851 158.617786 
L 400.885289 156.580115 
L 401.192727 158.24924 
L 401.500165 159.160002 
L 401.807603 156.621987 
L 402.115041 157.535082 
L 402.422479 160.532459 
L 402.729917 157.589897 
L 403.037355 157.355508 
L 403.652231 157.716277 
L 403.959669 157.068817 
L 404.267107 160.052443 
L 404.574545 157.102029 
L 405.189421 155.101014 
L 405.804298 161.02817 
L 406.419174 156.689965 
L 406.726612 156.823774 
L 407.03405 157.55959 
L 407.03405 157.55959 
" style="fill:none;stroke:#ff796c;stroke-linecap:square;stroke-width:1.5;"/>
   </g>
   <g id="line2d_27">
    <path clip-path="url(#p8dbc511995)" d="M 259.77124 158.087737 
L 266.842314 158.642858 
L 270.224132 159.136876 
L 271.761322 159.549608 
L 272.06876 159.467477 
L 273.913388 160.124358 
L 274.220826 159.796827 
L 274.528264 159.786524 
L 276.065455 160.393674 
L 278.217521 161.075687 
L 281.291901 162.259503 
L 284.366281 163.651546 
L 286.825785 164.737376 
L 289.900165 165.833712 
L 294.511736 167.85151 
L 295.126612 170.025334 
L 295.741488 171.305622 
L 296.356364 172.518755 
L 296.663802 172.427636 
L 297.586116 173.795035 
L 299.123306 174.782543 
L 299.738182 177.064819 
L 300.660496 179.535467 
L 300.967934 179.809481 
L 301.890248 181.244248 
L 302.505124 181.599651 
L 302.812562 181.961133 
L 303.427438 184.269892 
L 304.042314 186.398771 
L 304.349752 186.441536 
L 304.65719 187.194164 
L 305.579504 188.073895 
L 306.501818 190.02729 
L 306.809256 191.237741 
L 308.039008 193.187802 
L 308.346446 193.242395 
L 308.961322 194.371167 
L 309.883636 195.380128 
L 310.191074 195.009216 
L 310.80595 196.176942 
L 311.113388 196.378611 
L 311.420826 197.048336 
L 311.728264 197.289496 
L 312.035702 197.985082 
L 312.34314 198.192708 
L 312.650579 198.862208 
L 312.958017 199.12987 
L 313.265455 199.827851 
L 313.572893 200.015631 
L 313.880331 200.663612 
L 314.187769 200.942447 
L 314.495207 201.635531 
L 314.802645 201.866585 
L 315.110083 202.507332 
L 315.417521 202.800235 
L 315.724959 203.452639 
L 316.032397 203.811122 
L 316.954711 205.549259 
L 320.336529 209.76668 
L 322.181157 211.915606 
L 322.488595 211.416776 
L 323.103471 214.815939 
L 323.718347 217.044662 
L 324.333223 218.399953 
L 324.948099 219.606322 
L 325.562975 220.79765 
L 325.870413 221.689926 
L 327.100165 223.087356 
L 328.022479 223.915223 
L 328.329917 223.561924 
L 328.637355 226.550392 
L 328.944793 226.186844 
L 329.252231 223.589009 
L 329.559669 222.665769 
L 330.174545 225.138436 
L 330.789421 226.333888 
L 331.09686 226.254318 
L 331.404298 226.527405 
L 332.019174 227.717198 
L 332.941488 230.428686 
L 333.863802 231.904572 
L 334.17124 232.592009 
L 334.786116 233.401214 
L 336.938182 237.656341 
L 337.553058 238.603839 
L 337.860496 238.545172 
L 338.475372 239.118952 
L 341.242314 244.044872 
L 341.549752 244.665467 
L 341.85719 247.603853 
L 342.164628 248.541654 
L 342.472066 248.474977 
L 342.779504 248.616014 
L 343.086942 249.18482 
L 343.39438 250.943204 
L 344.316694 252.899276 
L 345.239008 255.029122 
L 348.620826 260.218482 
L 349.235702 261.085732 
L 350.158017 263.106574 
L 350.465455 262.586116 
L 351.080331 261.28756 
L 351.387769 261.444502 
L 351.695207 262.285124 
L 352.617521 266.008257 
L 352.924959 265.337672 
L 353.232397 264.160125 
L 353.539835 263.491826 
L 353.847273 263.559077 
L 354.154711 264.405486 
L 355.077025 268.470355 
L 355.384463 268.041862 
L 355.691901 267.171766 
L 355.999339 266.822208 
L 356.306777 266.958335 
L 356.614215 267.732473 
L 357.229091 269.977965 
L 357.536529 269.913535 
L 357.843967 269.449114 
L 358.151405 269.316024 
L 358.458843 269.392436 
L 358.766281 269.797919 
L 359.381157 271.521158 
L 359.688595 272.363361 
L 359.996033 272.049651 
L 360.303471 271.442882 
L 360.610909 271.148354 
L 360.918347 271.027565 
L 361.533223 271.516767 
L 362.148099 272.796285 
L 362.762975 274.488576 
L 363.070413 274.248526 
L 363.685289 273.466817 
L 364.300165 273.546665 
L 364.915041 274.163175 
L 365.529917 275.36505 
L 366.144793 277.052685 
L 366.452231 276.979682 
L 367.067107 276.419138 
L 367.374545 276.371733 
L 368.604298 277.120568 
L 369.219174 278.171205 
L 369.83405 279.604338 
L 370.141488 279.441664 
L 370.756364 278.804994 
L 371.063802 278.751873 
L 371.678678 278.907067 
L 371.986116 279.01409 
L 372.600992 279.644133 
L 373.523306 281.112524 
L 373.830744 281.843087 
L 374.44562 281.77719 
L 375.060496 282.019577 
L 377.212562 281.753494 
L 377.52 281.84831 
L 378.134876 282.41603 
L 378.749752 283.276464 
L 379.05719 283.809653 
L 379.672066 285.511444 
L 380.286942 287.912325 
L 380.901818 291.504583 
L 381.209256 293.916952 
L 381.516694 295.283072 
L 381.824132 295.488 
L 382.13157 294.957693 
L 382.746446 293.339675 
L 383.053884 292.88901 
L 383.361322 292.882809 
L 383.66876 293.28288 
L 384.283636 294.678781 
L 384.591074 294.853862 
L 384.898512 294.002773 
L 385.20595 294.156502 
L 385.820826 293.616519 
L 387.665455 291.510043 
L 388.895207 290.549138 
L 389.817521 290.102418 
L 390.124959 290.055519 
L 390.432397 288.190586 
L 390.739835 287.114126 
L 391.047273 285.314244 
L 391.662149 285.607195 
L 392.584463 286.18811 
L 393.506777 286.741153 
L 393.814215 286.697041 
L 394.736529 286.21252 
L 395.351405 286.600558 
L 395.966281 287.141772 
L 396.273719 287.300562 
L 396.888595 286.95356 
L 397.196033 286.731775 
L 397.503471 286.700418 
L 398.118347 287.116386 
L 398.733223 287.421836 
L 400.885289 287.782946 
L 401.192727 287.982604 
L 401.500165 287.793459 
L 401.807603 287.379613 
L 402.115041 287.730081 
L 402.422479 287.653256 
L 402.729917 287.29049 
L 403.037355 288.028494 
L 403.652231 287.986653 
L 403.959669 287.869263 
L 404.267107 287.341326 
L 404.574545 284.853831 
L 404.881983 285.256802 
L 405.189421 283.951532 
L 405.49686 280.765593 
L 406.111736 270.163933 
L 406.419174 270.211722 
L 406.726612 270.45531 
L 407.03405 270.4675 
L 407.341488 270.36398 
L 407.341488 270.36398 
" style="fill:none;stroke:#e50000;stroke-linecap:square;stroke-width:1.5;"/>
   </g>
   <g id="line2d_28">
    <path clip-path="url(#p8dbc511995)" d="M 259.77124 57.805158 
L 262.230744 57.908233 
L 264.690248 58.217177 
L 267.149752 58.731142 
L 269.916694 59.552641 
L 272.683636 60.628972 
L 275.450579 61.956402 
L 278.217521 63.530326 
L 280.984463 65.345284 
L 284.058843 67.636913 
L 287.133223 70.20851 
L 290.515041 73.347453 
L 293.89686 76.795545 
L 297.586116 80.888651 
L 301.58281 85.684689 
L 305.886942 91.231581 
L 310.498512 97.562432 
L 315.724959 105.146751 
L 321.566281 114.026713 
L 329.559669 126.625419 
L 346.776198 153.905992 
L 352.924959 163.158187 
L 358.151405 170.62306 
L 362.762975 176.826367 
L 367.067107 182.236606 
L 371.063802 186.891547 
L 374.753058 190.843174 
L 378.134876 194.152864 
L 381.516694 197.145809 
L 384.591074 199.578725 
L 387.665455 201.726614 
L 390.432397 203.408388 
L 393.199339 204.84599 
L 395.966281 206.034434 
L 398.733223 206.969596 
L 401.500165 207.648234 
L 403.959669 208.03419 
L 406.419174 208.214529 
L 407.03405 208.227416 
L 407.03405 208.227416 
" style="fill:none;stroke:#014d4e;stroke-linecap:square;stroke-width:1.5;"/>
   </g>
   <g id="line2d_29">
    <path clip-path="url(#p8dbc511995)" d="M 259.77124 57.785734 
L 264.690248 57.876345 
L 268.072066 58.200722 
L 270.224132 58.521872 
L 271.453884 58.65749 
L 271.761322 58.862354 
L 273.60595 59.007138 
L 273.913388 59.479105 
L 274.220826 59.636922 
L 275.758017 59.813265 
L 284.981157 62.366991 
L 285.596033 62.642606 
L 286.518347 63.022666 
L 293.589421 67.007253 
L 294.204298 67.35996 
L 294.819174 65.84968 
L 295.126612 65.440546 
L 295.741488 65.014497 
L 296.048926 64.71162 
L 296.356364 65.147386 
L 297.278678 64.827625 
L 297.893554 65.190249 
L 298.50843 65.502042 
L 298.815868 65.630939 
L 299.430744 64.0803 
L 300.353058 62.723119 
L 300.660496 62.824466 
L 300.967934 62.744336 
L 301.275372 62.5282 
L 301.58281 62.528177 
L 302.197686 62.941926 
L 302.505124 62.968019 
L 302.812562 62.349013 
L 303.427438 60.703871 
L 303.734876 60.100295 
L 304.042314 60.454828 
L 304.349752 60.101392 
L 305.272066 60.430426 
L 305.579504 60.255718 
L 305.886942 60.283257 
L 306.501818 58.903733 
L 307.73157 58.6189 
L 308.039008 58.984868 
L 308.346446 58.748277 
L 308.653884 58.702194 
L 309.26876 58.908189 
L 309.576198 58.974553 
L 309.883636 59.775745 
L 310.191074 59.554016 
L 310.498512 59.473228 
L 310.80595 59.70645 
L 311.113388 59.473117 
L 311.420826 59.66983 
L 311.728264 59.41358 
L 312.035702 59.646734 
L 312.34314 59.419438 
L 312.650579 59.595388 
L 312.958017 59.342404 
L 313.265455 59.60099 
L 313.572893 59.400724 
L 313.880331 59.570933 
L 314.187769 59.328204 
L 314.495207 59.548796 
L 314.802645 59.360967 
L 315.110083 59.522234 
L 315.417521 59.325232 
L 315.724959 59.423366 
L 316.032397 59.221031 
L 316.339835 59.2788 
L 316.647273 59.062163 
L 318.799339 59.602919 
L 321.258843 60.426042 
L 321.873719 60.675558 
L 322.181157 61.651896 
L 322.796033 59.210045 
L 323.410909 57.941561 
L 323.718347 57.5889 
L 324.025785 57.549271 
L 324.333223 57.299772 
L 324.948099 57.283627 
L 325.255537 57.085201 
L 325.562975 56.6778 
L 326.485289 57.016281 
L 327.715041 57.860736 
L 328.022479 58.702691 
L 328.329917 56.203257 
L 328.637355 57.056198 
L 328.944793 60.143762 
L 329.252231 61.557047 
L 329.867107 60.065334 
L 330.174545 59.848096 
L 330.481983 59.851846 
L 330.789421 60.422725 
L 331.09686 60.641136 
L 331.711736 60.434825 
L 332.326612 59.526794 
L 332.63405 59.199456 
L 333.248926 59.263445 
L 333.556364 59.200258 
L 333.863802 59.005079 
L 334.478678 59.180304 
L 334.786116 59.028062 
L 335.093554 58.745671 
L 335.70843 58.738415 
L 336.323306 58.324083 
L 337.24562 58.402051 
L 337.553058 58.951332 
L 338.167934 59.357937 
L 338.78281 59.236906 
L 339.090248 59.353682 
L 339.397686 59.277695 
L 339.705124 59.057481 
L 340.32 59.073617 
L 340.627438 58.876792 
L 341.242314 58.691046 
L 341.549752 56.238081 
L 341.85719 55.785154 
L 342.472066 56.678823 
L 342.779504 56.59313 
L 343.086942 55.317231 
L 343.701818 55.009659 
L 344.316694 54.480473 
L 344.93157 54.111866 
L 345.853884 53.986384 
L 346.776198 54.016884 
L 348.928264 54.195182 
L 349.54314 53.836032 
L 349.850579 53.568 
L 350.772893 56.770816 
L 351.080331 57.07286 
L 351.387769 56.690048 
L 352.310083 54.333104 
L 352.617521 55.456607 
L 353.232397 58.204454 
L 353.539835 58.586247 
L 353.847273 58.187552 
L 354.769587 55.457658 
L 355.077025 56.328355 
L 355.384463 57.639232 
L 355.691901 58.428126 
L 355.999339 58.729872 
L 356.306777 58.392126 
L 356.921653 57.014898 
L 357.229091 57.511164 
L 357.843967 58.96766 
L 358.151405 59.318361 
L 358.458843 59.33838 
L 358.766281 59.020514 
L 359.381157 58.039597 
L 359.688595 58.772184 
L 360.303471 60.506112 
L 360.610909 61.04062 
L 361.225785 61.373574 
L 361.533223 61.241716 
L 361.840661 60.909053 
L 362.455537 60.02446 
L 363.070413 61.560227 
L 363.377851 62.243777 
L 363.992727 62.952775 
L 364.607603 63.117333 
L 364.915041 62.990923 
L 365.222479 62.688614 
L 365.837355 61.766091 
L 366.144793 62.218592 
L 366.759669 63.531936 
L 367.067107 63.95261 
L 368.29686 64.67561 
L 368.604298 64.592339 
L 369.219174 63.984438 
L 369.526612 63.628934 
L 370.141488 64.86404 
L 370.756364 65.882765 
L 371.986116 66.702098 
L 372.600992 66.592118 
L 373.215868 66.213853 
L 373.523306 65.809069 
L 374.138182 66.519243 
L 374.753058 66.911335 
L 376.905124 69.319364 
L 377.212562 69.520369 
L 377.827438 69.536533 
L 378.442314 69.249557 
L 378.749752 68.999156 
L 379.364628 67.855001 
L 379.979504 66.001087 
L 380.59438 62.945034 
L 380.901818 60.796703 
L 381.209256 59.691897 
L 381.516694 59.745546 
L 381.824132 60.531683 
L 382.439008 62.653077 
L 382.746446 63.351265 
L 383.053884 63.6022 
L 383.361322 63.444062 
L 383.976198 62.523584 
L 384.283636 62.581973 
L 384.591074 63.663689 
L 384.898512 63.737736 
L 385.513388 64.72468 
L 387.358017 68.102617 
L 388.587769 69.852592 
L 389.510083 70.859975 
L 389.817521 71.087788 
L 390.124959 73.130633 
L 390.432397 74.381999 
L 390.739835 76.353771 
L 391.354711 76.395524 
L 392.277025 76.293872 
L 393.199339 76.192574 
L 393.814215 76.679304 
L 394.121653 77.074175 
L 394.429091 77.28043 
L 395.043967 77.153422 
L 395.658843 76.86079 
L 395.966281 76.821609 
L 397.196033 77.868863 
L 397.503471 77.821958 
L 398.118347 77.564914 
L 398.733223 77.580042 
L 399.655537 77.693052 
L 399.962975 77.638196 
L 400.577851 77.755479 
L 400.885289 77.624862 
L 401.192727 77.879856 
L 401.500165 78.356358 
L 401.807603 78.065348 
L 402.115041 78.198432 
L 402.422479 78.614256 
L 402.729917 77.926105 
L 403.344793 78.05803 
L 403.652231 78.215648 
L 403.959669 78.780601 
L 404.267107 81.301898 
L 404.574545 80.929515 
L 404.881983 82.262156 
L 405.189421 85.47225 
L 405.804298 96.112562 
L 406.111736 96.079269 
L 406.419174 95.846956 
L 406.726612 95.842821 
L 407.03405 95.951174 
L 407.03405 95.951174 
" style="fill:none;stroke:#ffff14;stroke-linecap:square;stroke-width:1.5;"/>
   </g>
   <g id="patch_8">
    <path d="M 252.392727 307.584 
L 252.392727 41.472 
" style="fill:none;stroke:#000000;stroke-linecap:square;stroke-linejoin:miter;stroke-width:0.8;"/>
   </g>
   <g id="patch_9">
    <path d="M 414.72 307.584 
L 414.72 41.472 
" style="fill:none;stroke:#000000;stroke-linecap:square;stroke-linejoin:miter;stroke-width:0.8;"/>
   </g>
   <g id="patch_10">
    <path d="M 252.392727 307.584 
L 414.72 307.584 
" style="fill:none;stroke:#000000;stroke-linecap:square;stroke-linejoin:miter;stroke-width:0.8;"/>
   </g>
   <g id="patch_11">
    <path d="M 252.392727 41.472 
L 414.72 41.472 
" style="fill:none;stroke:#000000;stroke-linecap:square;stroke-linejoin:miter;stroke-width:0.8;"/>
   </g>
   <g id="text_23">
    <!-- Left abduction -->
    <defs>
     <path d="M 9.8125 72.90625 
L 19.671875 72.90625 
L 19.671875 8.296875 
L 55.171875 8.296875 
L 55.171875 0 
L 9.8125 0 
z
" id="DejaVuSans-76"/>
     <path d="M 56.203125 29.59375 
L 56.203125 25.203125 
L 14.890625 25.203125 
Q 15.484375 15.921875 20.484375 11.0625 
Q 25.484375 6.203125 34.421875 6.203125 
Q 39.59375 6.203125 44.453125 7.46875 
Q 49.3125 8.734375 54.109375 11.28125 
L 54.109375 2.78125 
Q 49.265625 0.734375 44.1875 -0.34375 
Q 39.109375 -1.421875 33.890625 -1.421875 
Q 20.796875 -1.421875 13.15625 6.1875 
Q 5.515625 13.8125 5.515625 26.8125 
Q 5.515625 40.234375 12.765625 48.109375 
Q 20.015625 56 32.328125 56 
Q 43.359375 56 49.78125 48.890625 
Q 56.203125 41.796875 56.203125 29.59375 
z
M 47.21875 32.234375 
Q 47.125 39.59375 43.09375 43.984375 
Q 39.0625 48.390625 32.421875 48.390625 
Q 24.90625 48.390625 20.390625 44.140625 
Q 15.875 39.890625 15.1875 32.171875 
z
" id="DejaVuSans-101"/>
     <path d="M 37.109375 75.984375 
L 37.109375 68.5 
L 28.515625 68.5 
Q 23.6875 68.5 21.796875 66.546875 
Q 19.921875 64.59375 19.921875 59.515625 
L 19.921875 54.6875 
L 34.71875 54.6875 
L 34.71875 47.703125 
L 19.921875 47.703125 
L 19.921875 0 
L 10.890625 0 
L 10.890625 47.703125 
L 2.296875 47.703125 
L 2.296875 54.6875 
L 10.890625 54.6875 
L 10.890625 58.5 
Q 10.890625 67.625 15.140625 71.796875 
Q 19.390625 75.984375 28.609375 75.984375 
z
" id="DejaVuSans-102"/>
    </defs>
    <g transform="translate(290.262614 35.472)scale(0.12 -0.12)">
     <use xlink:href="#DejaVuSans-76"/>
     <use x="55.697266" xlink:href="#DejaVuSans-101"/>
     <use x="117.220703" xlink:href="#DejaVuSans-102"/>
     <use x="152.410156" xlink:href="#DejaVuSans-116"/>
     <use x="191.619141" xlink:href="#DejaVuSans-32"/>
     <use x="223.40625" xlink:href="#DejaVuSans-97"/>
     <use x="284.685547" xlink:href="#DejaVuSans-98"/>
     <use x="348.162109" xlink:href="#DejaVuSans-100"/>
     <use x="411.638672" xlink:href="#DejaVuSans-117"/>
     <use x="475.017578" xlink:href="#DejaVuSans-99"/>
     <use x="529.998047" xlink:href="#DejaVuSans-116"/>
     <use x="569.207031" xlink:href="#DejaVuSans-105"/>
     <use x="596.990234" xlink:href="#DejaVuSans-111"/>
     <use x="658.171875" xlink:href="#DejaVuSans-110"/>
    </g>
   </g>
  </g>
 </g>
 <defs>
  <clipPath id="p9d40cb4069">
   <rect height="266.112" width="162.327273" x="57.6" y="41.472"/>
  </clipPath>
  <clipPath id="p8dbc511995">
   <rect height="266.112" width="162.327273" x="252.392727" y="41.472"/>
  </clipPath>
 </defs>
</svg>
