<?xml version="1.0" encoding="utf-8" standalone="no"?>
<!DOCTYPE svg PUBLIC "-//W3C//DTD SVG 1.1//EN"
  "http://www.w3.org/Graphics/SVG/1.1/DTD/svg11.dtd">
<!-- Created with matplotlib (https://matplotlib.org/) -->
<svg height="707.76pt" version="1.1" viewBox="0 0 1382.4 707.76" width="1382.4pt" xmlns="http://www.w3.org/2000/svg" xmlns:xlink="http://www.w3.org/1999/xlink">
 <defs>
  <style type="text/css">
*{stroke-linecap:butt;stroke-linejoin:round;}
  </style>
 </defs>
 <g id="figure_1">
  <g id="patch_1">
   <path d="M 0 707.76 
L 1382.4 707.76 
L 1382.4 0 
L 0 0 
z
" style="fill:#ffffff;"/>
  </g>
  <g id="axes_1">
   <g id="patch_2">
    <path d="M 172.8 629.9064 
L 659.781818 629.9064 
L 659.781818 84.9312 
L 172.8 84.9312 
z
" style="fill:#ffffff;"/>
   </g>
   <g id="matplotlib.axis_1">
    <g id="xtick_1">
     <g id="line2d_1">
      <defs>
       <path d="M 0 0 
L 0 3.5 
" id="m8d670e9606" style="stroke:#000000;stroke-width:0.8;"/>
      </defs>
      <g>
       <use style="stroke:#000000;stroke-width:0.8;" x="194.935537" xlink:href="#m8d670e9606" y="629.9064"/>
      </g>
     </g>
     <g id="text_1">
      <!-- 0 -->
      <defs>
       <path d="M 31.78125 66.40625 
Q 24.171875 66.40625 20.328125 58.90625 
Q 16.5 51.421875 16.5 36.375 
Q 16.5 21.390625 20.328125 13.890625 
Q 24.171875 6.390625 31.78125 6.390625 
Q 39.453125 6.390625 43.28125 13.890625 
Q 47.125 21.390625 47.125 36.375 
Q 47.125 51.421875 43.28125 58.90625 
Q 39.453125 66.40625 31.78125 66.40625 
z
M 31.78125 74.21875 
Q 44.046875 74.21875 50.515625 64.515625 
Q 56.984375 54.828125 56.984375 36.375 
Q 56.984375 17.96875 50.515625 8.265625 
Q 44.046875 -1.421875 31.78125 -1.421875 
Q 19.53125 -1.421875 13.0625 8.265625 
Q 6.59375 17.96875 6.59375 36.375 
Q 6.59375 54.828125 13.0625 64.515625 
Q 19.53125 74.21875 31.78125 74.21875 
z
" id="DejaVuSans-48"/>
      </defs>
      <g transform="translate(191.754287 644.504838)scale(0.1 -0.1)">
       <use xlink:href="#DejaVuSans-48"/>
      </g>
     </g>
    </g>
    <g id="xtick_2">
     <g id="line2d_2">
      <g>
       <use style="stroke:#000000;stroke-width:0.8;" x="287.166942" xlink:href="#m8d670e9606" y="629.9064"/>
      </g>
     </g>
     <g id="text_2">
      <!-- 100 -->
      <defs>
       <path d="M 12.40625 8.296875 
L 28.515625 8.296875 
L 28.515625 63.921875 
L 10.984375 60.40625 
L 10.984375 69.390625 
L 28.421875 72.90625 
L 38.28125 72.90625 
L 38.28125 8.296875 
L 54.390625 8.296875 
L 54.390625 0 
L 12.40625 0 
z
" id="DejaVuSans-49"/>
      </defs>
      <g transform="translate(277.623192 644.504838)scale(0.1 -0.1)">
       <use xlink:href="#DejaVuSans-49"/>
       <use x="63.623047" xlink:href="#DejaVuSans-48"/>
       <use x="127.246094" xlink:href="#DejaVuSans-48"/>
      </g>
     </g>
    </g>
    <g id="xtick_3">
     <g id="line2d_3">
      <g>
       <use style="stroke:#000000;stroke-width:0.8;" x="379.398347" xlink:href="#m8d670e9606" y="629.9064"/>
      </g>
     </g>
     <g id="text_3">
      <!-- 200 -->
      <defs>
       <path d="M 19.1875 8.296875 
L 53.609375 8.296875 
L 53.609375 0 
L 7.328125 0 
L 7.328125 8.296875 
Q 12.9375 14.109375 22.625 23.890625 
Q 32.328125 33.6875 34.8125 36.53125 
Q 39.546875 41.84375 41.421875 45.53125 
Q 43.3125 49.21875 43.3125 52.78125 
Q 43.3125 58.59375 39.234375 62.25 
Q 35.15625 65.921875 28.609375 65.921875 
Q 23.96875 65.921875 18.8125 64.3125 
Q 13.671875 62.703125 7.8125 59.421875 
L 7.8125 69.390625 
Q 13.765625 71.78125 18.9375 73 
Q 24.125 74.21875 28.421875 74.21875 
Q 39.75 74.21875 46.484375 68.546875 
Q 53.21875 62.890625 53.21875 53.421875 
Q 53.21875 48.921875 51.53125 44.890625 
Q 49.859375 40.875 45.40625 35.40625 
Q 44.1875 33.984375 37.640625 27.21875 
Q 31.109375 20.453125 19.1875 8.296875 
z
" id="DejaVuSans-50"/>
      </defs>
      <g transform="translate(369.854597 644.504838)scale(0.1 -0.1)">
       <use xlink:href="#DejaVuSans-50"/>
       <use x="63.623047" xlink:href="#DejaVuSans-48"/>
       <use x="127.246094" xlink:href="#DejaVuSans-48"/>
      </g>
     </g>
    </g>
    <g id="xtick_4">
     <g id="line2d_4">
      <g>
       <use style="stroke:#000000;stroke-width:0.8;" x="471.629752" xlink:href="#m8d670e9606" y="629.9064"/>
      </g>
     </g>
     <g id="text_4">
      <!-- 300 -->
      <defs>
       <path d="M 40.578125 39.3125 
Q 47.65625 37.796875 51.625 33 
Q 55.609375 28.21875 55.609375 21.1875 
Q 55.609375 10.40625 48.1875 4.484375 
Q 40.765625 -1.421875 27.09375 -1.421875 
Q 22.515625 -1.421875 17.65625 -0.515625 
Q 12.796875 0.390625 7.625 2.203125 
L 7.625 11.71875 
Q 11.71875 9.328125 16.59375 8.109375 
Q 21.484375 6.890625 26.8125 6.890625 
Q 36.078125 6.890625 40.9375 10.546875 
Q 45.796875 14.203125 45.796875 21.1875 
Q 45.796875 27.640625 41.28125 31.265625 
Q 36.765625 34.90625 28.71875 34.90625 
L 20.21875 34.90625 
L 20.21875 43.015625 
L 29.109375 43.015625 
Q 36.375 43.015625 40.234375 45.921875 
Q 44.09375 48.828125 44.09375 54.296875 
Q 44.09375 59.90625 40.109375 62.90625 
Q 36.140625 65.921875 28.71875 65.921875 
Q 24.65625 65.921875 20.015625 65.03125 
Q 15.375 64.15625 9.8125 62.3125 
L 9.8125 71.09375 
Q 15.4375 72.65625 20.34375 73.4375 
Q 25.25 74.21875 29.59375 74.21875 
Q 40.828125 74.21875 47.359375 69.109375 
Q 53.90625 64.015625 53.90625 55.328125 
Q 53.90625 49.265625 50.4375 45.09375 
Q 46.96875 40.921875 40.578125 39.3125 
z
" id="DejaVuSans-51"/>
      </defs>
      <g transform="translate(462.086002 644.504838)scale(0.1 -0.1)">
       <use xlink:href="#DejaVuSans-51"/>
       <use x="63.623047" xlink:href="#DejaVuSans-48"/>
       <use x="127.246094" xlink:href="#DejaVuSans-48"/>
      </g>
     </g>
    </g>
    <g id="xtick_5">
     <g id="line2d_5">
      <g>
       <use style="stroke:#000000;stroke-width:0.8;" x="563.861157" xlink:href="#m8d670e9606" y="629.9064"/>
      </g>
     </g>
     <g id="text_5">
      <!-- 400 -->
      <defs>
       <path d="M 37.796875 64.3125 
L 12.890625 25.390625 
L 37.796875 25.390625 
z
M 35.203125 72.90625 
L 47.609375 72.90625 
L 47.609375 25.390625 
L 58.015625 25.390625 
L 58.015625 17.1875 
L 47.609375 17.1875 
L 47.609375 0 
L 37.796875 0 
L 37.796875 17.1875 
L 4.890625 17.1875 
L 4.890625 26.703125 
z
" id="DejaVuSans-52"/>
      </defs>
      <g transform="translate(554.317407 644.504838)scale(0.1 -0.1)">
       <use xlink:href="#DejaVuSans-52"/>
       <use x="63.623047" xlink:href="#DejaVuSans-48"/>
       <use x="127.246094" xlink:href="#DejaVuSans-48"/>
      </g>
     </g>
    </g>
    <g id="xtick_6">
     <g id="line2d_6">
      <g>
       <use style="stroke:#000000;stroke-width:0.8;" x="656.092562" xlink:href="#m8d670e9606" y="629.9064"/>
      </g>
     </g>
     <g id="text_6">
      <!-- 500 -->
      <defs>
       <path d="M 10.796875 72.90625 
L 49.515625 72.90625 
L 49.515625 64.59375 
L 19.828125 64.59375 
L 19.828125 46.734375 
Q 21.96875 47.46875 24.109375 47.828125 
Q 26.265625 48.1875 28.421875 48.1875 
Q 40.625 48.1875 47.75 41.5 
Q 54.890625 34.8125 54.890625 23.390625 
Q 54.890625 11.625 47.5625 5.09375 
Q 40.234375 -1.421875 26.90625 -1.421875 
Q 22.3125 -1.421875 17.546875 -0.640625 
Q 12.796875 0.140625 7.71875 1.703125 
L 7.71875 11.625 
Q 12.109375 9.234375 16.796875 8.0625 
Q 21.484375 6.890625 26.703125 6.890625 
Q 35.15625 6.890625 40.078125 11.328125 
Q 45.015625 15.765625 45.015625 23.390625 
Q 45.015625 31 40.078125 35.4375 
Q 35.15625 39.890625 26.703125 39.890625 
Q 22.75 39.890625 18.8125 39.015625 
Q 14.890625 38.140625 10.796875 36.28125 
z
" id="DejaVuSans-53"/>
      </defs>
      <g transform="translate(646.548812 644.504838)scale(0.1 -0.1)">
       <use xlink:href="#DejaVuSans-53"/>
       <use x="63.623047" xlink:href="#DejaVuSans-48"/>
       <use x="127.246094" xlink:href="#DejaVuSans-48"/>
      </g>
     </g>
    </g>
   </g>
   <g id="matplotlib.axis_2">
    <g id="ytick_1">
     <g id="line2d_7">
      <defs>
       <path d="M 0 0 
L -3.5 0 
" id="m06b9d60616" style="stroke:#000000;stroke-width:0.8;"/>
      </defs>
      <g>
       <use style="stroke:#000000;stroke-width:0.8;" x="172.8" xlink:href="#m06b9d60616" y="588.392977"/>
      </g>
     </g>
     <g id="text_7">
      <!-- −1.5 -->
      <defs>
       <path d="M 10.59375 35.5 
L 73.1875 35.5 
L 73.1875 27.203125 
L 10.59375 27.203125 
z
" id="DejaVuSans-8722"/>
       <path d="M 10.6875 12.40625 
L 21 12.40625 
L 21 0 
L 10.6875 0 
z
" id="DejaVuSans-46"/>
      </defs>
      <g transform="translate(141.517187 592.192196)scale(0.1 -0.1)">
       <use xlink:href="#DejaVuSans-8722"/>
       <use x="83.789062" xlink:href="#DejaVuSans-49"/>
       <use x="147.412109" xlink:href="#DejaVuSans-46"/>
       <use x="179.199219" xlink:href="#DejaVuSans-53"/>
      </g>
     </g>
    </g>
    <g id="ytick_2">
     <g id="line2d_8">
      <g>
       <use style="stroke:#000000;stroke-width:0.8;" x="172.8" xlink:href="#m06b9d60616" y="470.11616"/>
      </g>
     </g>
     <g id="text_8">
      <!-- −1.0 -->
      <g transform="translate(141.517187 473.915379)scale(0.1 -0.1)">
       <use xlink:href="#DejaVuSans-8722"/>
       <use x="83.789062" xlink:href="#DejaVuSans-49"/>
       <use x="147.412109" xlink:href="#DejaVuSans-46"/>
       <use x="179.199219" xlink:href="#DejaVuSans-48"/>
      </g>
     </g>
    </g>
    <g id="ytick_3">
     <g id="line2d_9">
      <g>
       <use style="stroke:#000000;stroke-width:0.8;" x="172.8" xlink:href="#m06b9d60616" y="351.839343"/>
      </g>
     </g>
     <g id="text_9">
      <!-- −0.5 -->
      <g transform="translate(141.517187 355.638561)scale(0.1 -0.1)">
       <use xlink:href="#DejaVuSans-8722"/>
       <use x="83.789062" xlink:href="#DejaVuSans-48"/>
       <use x="147.412109" xlink:href="#DejaVuSans-46"/>
       <use x="179.199219" xlink:href="#DejaVuSans-53"/>
      </g>
     </g>
    </g>
    <g id="ytick_4">
     <g id="line2d_10">
      <g>
       <use style="stroke:#000000;stroke-width:0.8;" x="172.8" xlink:href="#m06b9d60616" y="233.562525"/>
      </g>
     </g>
     <g id="text_10">
      <!-- 0.0 -->
      <g transform="translate(149.896875 237.361744)scale(0.1 -0.1)">
       <use xlink:href="#DejaVuSans-48"/>
       <use x="63.623047" xlink:href="#DejaVuSans-46"/>
       <use x="95.410156" xlink:href="#DejaVuSans-48"/>
      </g>
     </g>
    </g>
    <g id="ytick_5">
     <g id="line2d_11">
      <g>
       <use style="stroke:#000000;stroke-width:0.8;" x="172.8" xlink:href="#m06b9d60616" y="115.285708"/>
      </g>
     </g>
     <g id="text_11">
      <!-- 0.5 -->
      <g transform="translate(149.896875 119.084927)scale(0.1 -0.1)">
       <use xlink:href="#DejaVuSans-48"/>
       <use x="63.623047" xlink:href="#DejaVuSans-46"/>
       <use x="95.410156" xlink:href="#DejaVuSans-53"/>
      </g>
     </g>
    </g>
   </g>
   <g id="line2d_12">
    <path clip-path="url(#p24c3ea4382)" d="M 194.935537 233.562528 
L 205.080992 233.692472 
L 216.14876 234.068025 
L 227.216529 234.641597 
L 241.973554 235.617515 
L 257.652893 236.874609 
L 274.254545 238.470609 
L 296.390083 240.565798 
L 312.991736 241.878637 
L 327.74876 242.851614 
L 336.971901 243.259055 
L 344.350413 243.389348 
L 350.806612 243.295991 
L 356.340496 243.018423 
L 361.87438 242.542767 
L 367.408264 241.875413 
L 384.932231 239.224124 
L 388.621488 238.481682 
L 392.310744 237.509263 
L 395.077686 236.491211 
L 399.689256 234.425848 
L 401.533884 234.057279 
L 403.378512 233.976865 
L 412.601653 234.066898 
L 417.213223 233.977544 
L 419.980165 234.167013 
L 421.824793 234.433371 
L 423.669421 234.873318 
L 427.358678 236.008026 
L 429.203306 236.302888 
L 431.970248 236.453578 
L 486.386777 237.218101 
L 500.221488 237.681531 
L 506.677686 238.104286 
L 513.133884 238.756242 
L 518.667769 239.547024 
L 523.279339 240.420705 
L 527.890909 241.537038 
L 534.347107 243.434434 
L 539.880992 245.276558 
L 556.482645 250.998351 
L 562.938843 253.010604 
L 571.239669 255.339156 
L 585.996694 259.233724 
L 597.986777 262.203057 
L 609.97686 264.880719 
L 617.355372 266.265525 
L 624.733884 267.233602 
L 630.267769 267.486842 
L 633.957025 267.354131 
L 636.723967 266.647188 
L 636.723967 266.647188 
" style="fill:none;stroke:#ff796c;stroke-linecap:square;stroke-width:1.5;"/>
   </g>
   <g id="line2d_13">
    <path clip-path="url(#p24c3ea4382)" d="M 194.935537 233.562525 
L 199.547107 233.64783 
L 204.158678 233.987991 
L 208.770248 234.584416 
L 213.381818 235.397546 
L 217.993388 236.409059 
L 222.604959 237.646117 
L 229.061157 239.697061 
L 234.595041 241.672321 
L 240.128926 243.868356 
L 246.585124 246.685315 
L 253.041322 249.745174 
L 259.497521 253.054906 
L 265.953719 256.602151 
L 277.943802 263.550324 
L 298.234711 275.568667 
L 307.457851 280.737033 
L 315.758678 285.161831 
L 321.292562 287.904969 
L 325.904132 289.989557 
L 330.515702 291.820871 
L 334.204959 293.048649 
L 337.894215 294.009696 
L 340.661157 294.518652 
L 343.428099 294.812392 
L 346.195041 294.856305 
L 348.961983 294.609383 
L 350.806612 294.261555 
L 352.65124 293.75102 
L 354.495868 293.063654 
L 356.340496 292.185679 
L 358.185124 291.102636 
L 360.029752 289.802876 
L 361.87438 288.276653 
L 363.719008 286.518008 
L 365.563636 284.527303 
L 367.408264 282.268214 
L 370.175207 278.327961 
L 372.942149 273.97202 
L 377.553719 266.178734 
L 388.621488 246.994338 
L 391.38843 241.641678 
L 393.233058 237.599871 
L 395.077686 233.001962 
L 397.844628 225.211911 
L 399.689256 220.03349 
L 401.533884 215.5592 
L 404.300826 209.697822 
L 413.523967 191.07588 
L 417.213223 183.844139 
L 419.057851 180.531266 
L 420.902479 177.676187 
L 421.824793 176.488181 
L 422.747107 175.501629 
L 423.669421 174.749299 
L 424.591736 174.270879 
L 425.51405 174.105224 
L 426.436364 174.260759 
L 427.358678 174.710941 
L 429.203306 176.086858 
L 431.970248 178.310406 
L 433.814876 179.577699 
L 436.581818 181.155438 
L 439.34876 182.436179 
L 443.038017 183.887107 
L 453.183471 187.471762 
L 469.785124 192.534914 
L 480.852893 196.157689 
L 486.386777 198.166063 
L 490.998347 200.04305 
L 494.687603 201.735099 
L 498.37686 203.653222 
L 502.066116 205.872919 
L 505.755372 208.329054 
L 508.522314 210.392412 
L 511.289256 212.701048 
L 514.056198 215.294201 
L 516.82314 218.210223 
L 519.590083 221.485129 
L 522.357025 225.109224 
L 525.123967 229.058129 
L 527.890909 233.360425 
L 532.502479 241.217956 
L 539.880992 253.399945 
L 546.33719 263.596513 
L 552.793388 273.420627 
L 555.560331 277.264309 
L 558.327273 280.659978 
L 561.094215 283.638099 
L 563.861157 286.228548 
L 573.084298 294.101957 
L 577.695868 297.737364 
L 581.385124 300.410874 
L 585.07438 302.83821 
L 588.763636 304.95224 
L 591.530579 306.350309 
L 594.297521 307.595509 
L 597.986777 308.98515 
L 600.753719 309.810162 
L 603.520661 310.359688 
L 606.287603 310.688407 
L 609.054545 310.816948 
L 610.899174 310.711755 
L 613.666116 310.158674 
L 616.433058 309.331657 
L 617.355372 308.891921 
L 618.277686 308.5971 
L 622.889256 305.653577 
L 623.81157 305.037022 
L 624.733884 304.130005 
L 625.656198 303.396504 
L 629.345455 299.187181 
L 632.112397 295.419963 
L 633.957025 292.256318 
L 634.879339 290.307273 
L 636.723967 284.650706 
L 637.646281 281.47715 
L 637.646281 281.47715 
" style="fill:none;stroke:#e50000;stroke-linecap:square;stroke-width:1.5;"/>
   </g>
   <g id="line2d_14">
    <path clip-path="url(#p24c3ea4382)" d="M 194.935537 109.703332 
L 199.547107 109.835963 
L 204.158678 110.233716 
L 208.770248 110.896163 
L 213.381818 111.822597 
L 217.993388 113.012024 
L 222.604959 114.463171 
L 227.216529 116.174484 
L 231.828099 118.144131 
L 236.439669 120.370002 
L 241.05124 122.849714 
L 245.66281 125.580612 
L 250.27438 128.559771 
L 254.88595 131.784001 
L 259.497521 135.24985 
L 264.109091 138.953606 
L 269.642975 143.706548 
L 275.17686 148.789024 
L 280.710744 154.193196 
L 286.244628 159.910732 
L 291.778512 165.932816 
L 297.312397 172.250162 
L 303.768595 179.980557 
L 310.224793 188.083336 
L 316.680992 196.541496 
L 323.13719 205.337284 
L 330.515702 215.779327 
L 337.894215 226.609602 
L 346.195041 239.22072 
L 354.495868 252.241851 
L 363.719008 267.135674 
L 373.864463 283.962918 
L 384.932231 302.750906 
L 398.766942 326.696104 
L 421.824793 367.147097 
L 442.115702 402.564809 
L 455.028099 424.662509 
L 466.095868 443.161278 
L 475.319008 458.177864 
L 484.542149 472.762997 
L 492.842975 485.469061 
L 500.221488 496.391796 
L 507.6 506.933623 
L 514.978512 517.065649 
L 521.434711 525.573144 
L 527.890909 533.727752 
L 534.347107 541.512356 
L 540.803306 548.910621 
L 546.33719 554.932705 
L 551.871074 560.650241 
L 557.404959 566.054413 
L 562.938843 571.136889 
L 568.472727 575.889832 
L 574.006612 580.305912 
L 578.618182 583.723726 
L 583.229752 586.89921 
L 587.841322 589.828963 
L 592.452893 592.509849 
L 597.064463 594.938997 
L 601.676033 597.113805 
L 606.287603 599.031945 
L 610.899174 600.691363 
L 615.510744 602.090281 
L 620.122314 603.227203 
L 624.733884 604.100909 
L 629.345455 604.710465 
L 633.957025 605.055219 
L 636.723967 605.1348 
L 636.723967 605.1348 
" style="fill:none;stroke:#014d4e;stroke-linecap:square;stroke-width:1.5;"/>
   </g>
   <g id="line2d_15">
    <path clip-path="url(#p24c3ea4382)" d="M 194.935537 109.702893 
L 213.381818 109.800867 
L 224.449587 110.178729 
L 229.983471 110.557932 
L 236.439669 111.188505 
L 242.895868 112.028293 
L 249.352066 113.100579 
L 255.808264 114.414419 
L 262.264463 115.959999 
L 267.798347 117.471328 
L 273.332231 119.25692 
L 278.866116 121.265097 
L 283.477686 123.156921 
L 288.089256 125.277287 
L 292.700826 127.636035 
L 297.312397 130.244019 
L 301.923967 133.10896 
L 306.535537 136.234045 
L 311.147107 139.603202 
L 315.758678 143.241081 
L 320.370248 147.185043 
L 324.059504 150.5923 
L 327.74876 154.255372 
L 331.438017 158.210426 
L 335.127273 162.500948 
L 338.816529 167.1804 
L 342.505785 172.312658 
L 345.272727 176.504645 
L 348.039669 181.033582 
L 350.806612 185.941951 
L 353.573554 191.275075 
L 356.340496 197.078593 
L 359.107438 203.396057 
L 361.87438 210.259882 
L 364.641322 217.68261 
L 367.408264 225.759284 
L 371.097521 237.43246 
L 375.709091 252.864537 
L 387.699174 294.073333 
L 390.466116 304.199476 
L 393.233058 315.259909 
L 396 327.551613 
L 399.689256 344.166156 
L 402.456198 355.100158 
L 412.601653 393.423852 
L 417.213223 410.461129 
L 419.980165 419.792568 
L 421.824793 425.207993 
L 423.669421 429.677943 
L 424.591736 431.4624 
L 425.51405 432.925042 
L 426.436364 434.092344 
L 428.280992 435.949034 
L 431.047934 438.56746 
L 433.814876 441.562905 
L 436.581818 444.922098 
L 441.193388 450.987847 
L 455.028099 469.931263 
L 463.328926 481.345818 
L 471.629752 492.36554 
L 479.008264 501.788228 
L 484.542149 508.510001 
L 489.153719 513.787667 
L 492.842975 517.738466 
L 496.532231 521.389992 
L 499.299174 523.886463 
L 502.98843 526.886614 
L 505.755372 528.905817 
L 508.522314 530.653054 
L 511.289256 532.083215 
L 513.133884 532.840924 
L 514.978512 533.428117 
L 516.82314 533.833659 
L 518.667769 534.046658 
L 520.512397 534.075553 
L 522.357025 533.934377 
L 524.201653 533.616599 
L 526.046281 533.113907 
L 527.890909 532.400795 
L 552.793388 520.381253 
L 554.638017 519.690246 
L 556.482645 519.162297 
L 559.249587 518.656879 
L 562.016529 518.469705 
L 570.317355 518.388205 
L 580.46281 518.174847 
L 585.07438 518.264496 
L 590.608264 518.679765 
L 594.297521 519.10558 
L 597.986777 519.666743 
L 602.598347 520.720873 
L 606.287603 521.84264 
L 609.054545 522.831119 
L 610.899174 523.694085 
L 613.666116 525.214241 
L 617.355372 527.541989 
L 620.122314 529.865688 
L 621.044628 530.548142 
L 621.966942 531.517278 
L 622.889256 532.308582 
L 623.81157 533.379794 
L 624.733884 534.26693 
L 629.345455 540.327497 
L 631.190083 543.022733 
L 633.034711 546.313681 
L 633.957025 548.310471 
L 635.801653 554.030702 
L 636.723967 557.220175 
L 636.723967 557.220175 
" style="fill:none;stroke:#ffff14;stroke-linecap:square;stroke-width:1.5;"/>
   </g>
   <g id="patch_3">
    <path d="M 172.8 629.9064 
L 172.8 84.9312 
" style="fill:none;stroke:#000000;stroke-linecap:square;stroke-linejoin:miter;stroke-width:0.8;"/>
   </g>
   <g id="patch_4">
    <path d="M 659.781818 629.9064 
L 659.781818 84.9312 
" style="fill:none;stroke:#000000;stroke-linecap:square;stroke-linejoin:miter;stroke-width:0.8;"/>
   </g>
   <g id="patch_5">
    <path d="M 172.8 629.9064 
L 659.781818 629.9064 
" style="fill:none;stroke:#000000;stroke-linecap:square;stroke-linejoin:miter;stroke-width:0.8;"/>
   </g>
   <g id="patch_6">
    <path d="M 172.8 84.9312 
L 659.781818 84.9312 
" style="fill:none;stroke:#000000;stroke-linecap:square;stroke-linejoin:miter;stroke-width:0.8;"/>
   </g>
   <g id="text_12">
    <!-- Right abduction -->
    <defs>
     <path d="M 44.390625 34.1875 
Q 47.5625 33.109375 50.5625 29.59375 
Q 53.5625 26.078125 56.59375 19.921875 
L 66.609375 0 
L 56 0 
L 46.6875 18.703125 
Q 43.0625 26.03125 39.671875 28.421875 
Q 36.28125 30.8125 30.421875 30.8125 
L 19.671875 30.8125 
L 19.671875 0 
L 9.8125 0 
L 9.8125 72.90625 
L 32.078125 72.90625 
Q 44.578125 72.90625 50.734375 67.671875 
Q 56.890625 62.453125 56.890625 51.90625 
Q 56.890625 45.015625 53.6875 40.46875 
Q 50.484375 35.9375 44.390625 34.1875 
z
M 19.671875 64.796875 
L 19.671875 38.921875 
L 32.078125 38.921875 
Q 39.203125 38.921875 42.84375 42.21875 
Q 46.484375 45.515625 46.484375 51.90625 
Q 46.484375 58.296875 42.84375 61.546875 
Q 39.203125 64.796875 32.078125 64.796875 
z
" id="DejaVuSans-82"/>
     <path d="M 9.421875 54.6875 
L 18.40625 54.6875 
L 18.40625 0 
L 9.421875 0 
z
M 9.421875 75.984375 
L 18.40625 75.984375 
L 18.40625 64.59375 
L 9.421875 64.59375 
z
" id="DejaVuSans-105"/>
     <path d="M 45.40625 27.984375 
Q 45.40625 37.75 41.375 43.109375 
Q 37.359375 48.484375 30.078125 48.484375 
Q 22.859375 48.484375 18.828125 43.109375 
Q 14.796875 37.75 14.796875 27.984375 
Q 14.796875 18.265625 18.828125 12.890625 
Q 22.859375 7.515625 30.078125 7.515625 
Q 37.359375 7.515625 41.375 12.890625 
Q 45.40625 18.265625 45.40625 27.984375 
z
M 54.390625 6.78125 
Q 54.390625 -7.171875 48.1875 -13.984375 
Q 42 -20.796875 29.203125 -20.796875 
Q 24.46875 -20.796875 20.265625 -20.09375 
Q 16.0625 -19.390625 12.109375 -17.921875 
L 12.109375 -9.1875 
Q 16.0625 -11.328125 19.921875 -12.34375 
Q 23.78125 -13.375 27.78125 -13.375 
Q 36.625 -13.375 41.015625 -8.765625 
Q 45.40625 -4.15625 45.40625 5.171875 
L 45.40625 9.625 
Q 42.625 4.78125 38.28125 2.390625 
Q 33.9375 0 27.875 0 
Q 17.828125 0 11.671875 7.65625 
Q 5.515625 15.328125 5.515625 27.984375 
Q 5.515625 40.671875 11.671875 48.328125 
Q 17.828125 56 27.875 56 
Q 33.9375 56 38.28125 53.609375 
Q 42.625 51.21875 45.40625 46.390625 
L 45.40625 54.6875 
L 54.390625 54.6875 
z
" id="DejaVuSans-103"/>
     <path d="M 54.890625 33.015625 
L 54.890625 0 
L 45.90625 0 
L 45.90625 32.71875 
Q 45.90625 40.484375 42.875 44.328125 
Q 39.84375 48.1875 33.796875 48.1875 
Q 26.515625 48.1875 22.3125 43.546875 
Q 18.109375 38.921875 18.109375 30.90625 
L 18.109375 0 
L 9.078125 0 
L 9.078125 75.984375 
L 18.109375 75.984375 
L 18.109375 46.1875 
Q 21.34375 51.125 25.703125 53.5625 
Q 30.078125 56 35.796875 56 
Q 45.21875 56 50.046875 50.171875 
Q 54.890625 44.34375 54.890625 33.015625 
z
" id="DejaVuSans-104"/>
     <path d="M 18.3125 70.21875 
L 18.3125 54.6875 
L 36.8125 54.6875 
L 36.8125 47.703125 
L 18.3125 47.703125 
L 18.3125 18.015625 
Q 18.3125 11.328125 20.140625 9.421875 
Q 21.96875 7.515625 27.59375 7.515625 
L 36.8125 7.515625 
L 36.8125 0 
L 27.59375 0 
Q 17.1875 0 13.234375 3.875 
Q 9.28125 7.765625 9.28125 18.015625 
L 9.28125 47.703125 
L 2.6875 47.703125 
L 2.6875 54.6875 
L 9.28125 54.6875 
L 9.28125 70.21875 
z
" id="DejaVuSans-116"/>
     <path id="DejaVuSans-32"/>
     <path d="M 34.28125 27.484375 
Q 23.390625 27.484375 19.1875 25 
Q 14.984375 22.515625 14.984375 16.5 
Q 14.984375 11.71875 18.140625 8.90625 
Q 21.296875 6.109375 26.703125 6.109375 
Q 34.1875 6.109375 38.703125 11.40625 
Q 43.21875 16.703125 43.21875 25.484375 
L 43.21875 27.484375 
z
M 52.203125 31.203125 
L 52.203125 0 
L 43.21875 0 
L 43.21875 8.296875 
Q 40.140625 3.328125 35.546875 0.953125 
Q 30.953125 -1.421875 24.3125 -1.421875 
Q 15.921875 -1.421875 10.953125 3.296875 
Q 6 8.015625 6 15.921875 
Q 6 25.140625 12.171875 29.828125 
Q 18.359375 34.515625 30.609375 34.515625 
L 43.21875 34.515625 
L 43.21875 35.40625 
Q 43.21875 41.609375 39.140625 45 
Q 35.0625 48.390625 27.6875 48.390625 
Q 23 48.390625 18.546875 47.265625 
Q 14.109375 46.140625 10.015625 43.890625 
L 10.015625 52.203125 
Q 14.9375 54.109375 19.578125 55.046875 
Q 24.21875 56 28.609375 56 
Q 40.484375 56 46.34375 49.84375 
Q 52.203125 43.703125 52.203125 31.203125 
z
" id="DejaVuSans-97"/>
     <path d="M 48.6875 27.296875 
Q 48.6875 37.203125 44.609375 42.84375 
Q 40.53125 48.484375 33.40625 48.484375 
Q 26.265625 48.484375 22.1875 42.84375 
Q 18.109375 37.203125 18.109375 27.296875 
Q 18.109375 17.390625 22.1875 11.75 
Q 26.265625 6.109375 33.40625 6.109375 
Q 40.53125 6.109375 44.609375 11.75 
Q 48.6875 17.390625 48.6875 27.296875 
z
M 18.109375 46.390625 
Q 20.953125 51.265625 25.265625 53.625 
Q 29.59375 56 35.59375 56 
Q 45.5625 56 51.78125 48.09375 
Q 58.015625 40.1875 58.015625 27.296875 
Q 58.015625 14.40625 51.78125 6.484375 
Q 45.5625 -1.421875 35.59375 -1.421875 
Q 29.59375 -1.421875 25.265625 0.953125 
Q 20.953125 3.328125 18.109375 8.203125 
L 18.109375 0 
L 9.078125 0 
L 9.078125 75.984375 
L 18.109375 75.984375 
z
" id="DejaVuSans-98"/>
     <path d="M 45.40625 46.390625 
L 45.40625 75.984375 
L 54.390625 75.984375 
L 54.390625 0 
L 45.40625 0 
L 45.40625 8.203125 
Q 42.578125 3.328125 38.25 0.953125 
Q 33.9375 -1.421875 27.875 -1.421875 
Q 17.96875 -1.421875 11.734375 6.484375 
Q 5.515625 14.40625 5.515625 27.296875 
Q 5.515625 40.1875 11.734375 48.09375 
Q 17.96875 56 27.875 56 
Q 33.9375 56 38.25 53.625 
Q 42.578125 51.265625 45.40625 46.390625 
z
M 14.796875 27.296875 
Q 14.796875 17.390625 18.875 11.75 
Q 22.953125 6.109375 30.078125 6.109375 
Q 37.203125 6.109375 41.296875 11.75 
Q 45.40625 17.390625 45.40625 27.296875 
Q 45.40625 37.203125 41.296875 42.84375 
Q 37.203125 48.484375 30.078125 48.484375 
Q 22.953125 48.484375 18.875 42.84375 
Q 14.796875 37.203125 14.796875 27.296875 
z
" id="DejaVuSans-100"/>
     <path d="M 8.5 21.578125 
L 8.5 54.6875 
L 17.484375 54.6875 
L 17.484375 21.921875 
Q 17.484375 14.15625 20.5 10.265625 
Q 23.53125 6.390625 29.59375 6.390625 
Q 36.859375 6.390625 41.078125 11.03125 
Q 45.3125 15.671875 45.3125 23.6875 
L 45.3125 54.6875 
L 54.296875 54.6875 
L 54.296875 0 
L 45.3125 0 
L 45.3125 8.40625 
Q 42.046875 3.421875 37.71875 1 
Q 33.40625 -1.421875 27.6875 -1.421875 
Q 18.265625 -1.421875 13.375 4.4375 
Q 8.5 10.296875 8.5 21.578125 
z
M 31.109375 56 
z
" id="DejaVuSans-117"/>
     <path d="M 48.78125 52.59375 
L 48.78125 44.1875 
Q 44.96875 46.296875 41.140625 47.34375 
Q 37.3125 48.390625 33.40625 48.390625 
Q 24.65625 48.390625 19.8125 42.84375 
Q 14.984375 37.3125 14.984375 27.296875 
Q 14.984375 17.28125 19.8125 11.734375 
Q 24.65625 6.203125 33.40625 6.203125 
Q 37.3125 6.203125 41.140625 7.25 
Q 44.96875 8.296875 48.78125 10.40625 
L 48.78125 2.09375 
Q 45.015625 0.34375 40.984375 -0.53125 
Q 36.96875 -1.421875 32.421875 -1.421875 
Q 20.0625 -1.421875 12.78125 6.34375 
Q 5.515625 14.109375 5.515625 27.296875 
Q 5.515625 40.671875 12.859375 48.328125 
Q 20.21875 56 33.015625 56 
Q 37.15625 56 41.109375 55.140625 
Q 45.0625 54.296875 48.78125 52.59375 
z
" id="DejaVuSans-99"/>
     <path d="M 30.609375 48.390625 
Q 23.390625 48.390625 19.1875 42.75 
Q 14.984375 37.109375 14.984375 27.296875 
Q 14.984375 17.484375 19.15625 11.84375 
Q 23.34375 6.203125 30.609375 6.203125 
Q 37.796875 6.203125 41.984375 11.859375 
Q 46.1875 17.53125 46.1875 27.296875 
Q 46.1875 37.015625 41.984375 42.703125 
Q 37.796875 48.390625 30.609375 48.390625 
z
M 30.609375 56 
Q 42.328125 56 49.015625 48.375 
Q 55.71875 40.765625 55.71875 27.296875 
Q 55.71875 13.875 49.015625 6.21875 
Q 42.328125 -1.421875 30.609375 -1.421875 
Q 18.84375 -1.421875 12.171875 6.21875 
Q 5.515625 13.875 5.515625 27.296875 
Q 5.515625 40.765625 12.171875 48.375 
Q 18.84375 56 30.609375 56 
z
" id="DejaVuSans-111"/>
     <path d="M 54.890625 33.015625 
L 54.890625 0 
L 45.90625 0 
L 45.90625 32.71875 
Q 45.90625 40.484375 42.875 44.328125 
Q 39.84375 48.1875 33.796875 48.1875 
Q 26.515625 48.1875 22.3125 43.546875 
Q 18.109375 38.921875 18.109375 30.90625 
L 18.109375 0 
L 9.078125 0 
L 9.078125 54.6875 
L 18.109375 54.6875 
L 18.109375 46.1875 
Q 21.34375 51.125 25.703125 53.5625 
Q 30.078125 56 35.796875 56 
Q 45.21875 56 50.046875 50.171875 
Q 54.890625 44.34375 54.890625 33.015625 
z
" id="DejaVuSans-110"/>
    </defs>
    <g transform="translate(368.694972 78.9312)scale(0.12 -0.12)">
     <use xlink:href="#DejaVuSans-82"/>
     <use x="69.482422" xlink:href="#DejaVuSans-105"/>
     <use x="97.265625" xlink:href="#DejaVuSans-103"/>
     <use x="160.742188" xlink:href="#DejaVuSans-104"/>
     <use x="224.121094" xlink:href="#DejaVuSans-116"/>
     <use x="263.330078" xlink:href="#DejaVuSans-32"/>
     <use x="295.117188" xlink:href="#DejaVuSans-97"/>
     <use x="356.396484" xlink:href="#DejaVuSans-98"/>
     <use x="419.873047" xlink:href="#DejaVuSans-100"/>
     <use x="483.349609" xlink:href="#DejaVuSans-117"/>
     <use x="546.728516" xlink:href="#DejaVuSans-99"/>
     <use x="601.708984" xlink:href="#DejaVuSans-116"/>
     <use x="640.917969" xlink:href="#DejaVuSans-105"/>
     <use x="668.701172" xlink:href="#DejaVuSans-111"/>
     <use x="729.882812" xlink:href="#DejaVuSans-110"/>
    </g>
   </g>
  </g>
  <g id="axes_2">
   <g id="patch_7">
    <path d="M 757.178182 629.9064 
L 1244.16 629.9064 
L 1244.16 84.9312 
L 757.178182 84.9312 
z
" style="fill:#ffffff;"/>
   </g>
   <g id="matplotlib.axis_3">
    <g id="xtick_7">
     <g id="line2d_16">
      <g>
       <use style="stroke:#000000;stroke-width:0.8;" x="779.313719" xlink:href="#m8d670e9606" y="629.9064"/>
      </g>
     </g>
     <g id="text_13">
      <!-- 0 -->
      <g transform="translate(776.132469 644.504838)scale(0.1 -0.1)">
       <use xlink:href="#DejaVuSans-48"/>
      </g>
     </g>
    </g>
    <g id="xtick_8">
     <g id="line2d_17">
      <g>
       <use style="stroke:#000000;stroke-width:0.8;" x="871.545124" xlink:href="#m8d670e9606" y="629.9064"/>
      </g>
     </g>
     <g id="text_14">
      <!-- 100 -->
      <g transform="translate(862.001374 644.504838)scale(0.1 -0.1)">
       <use xlink:href="#DejaVuSans-49"/>
       <use x="63.623047" xlink:href="#DejaVuSans-48"/>
       <use x="127.246094" xlink:href="#DejaVuSans-48"/>
      </g>
     </g>
    </g>
    <g id="xtick_9">
     <g id="line2d_18">
      <g>
       <use style="stroke:#000000;stroke-width:0.8;" x="963.776529" xlink:href="#m8d670e9606" y="629.9064"/>
      </g>
     </g>
     <g id="text_15">
      <!-- 200 -->
      <g transform="translate(954.232779 644.504838)scale(0.1 -0.1)">
       <use xlink:href="#DejaVuSans-50"/>
       <use x="63.623047" xlink:href="#DejaVuSans-48"/>
       <use x="127.246094" xlink:href="#DejaVuSans-48"/>
      </g>
     </g>
    </g>
    <g id="xtick_10">
     <g id="line2d_19">
      <g>
       <use style="stroke:#000000;stroke-width:0.8;" x="1056.007934" xlink:href="#m8d670e9606" y="629.9064"/>
      </g>
     </g>
     <g id="text_16">
      <!-- 300 -->
      <g transform="translate(1046.464184 644.504838)scale(0.1 -0.1)">
       <use xlink:href="#DejaVuSans-51"/>
       <use x="63.623047" xlink:href="#DejaVuSans-48"/>
       <use x="127.246094" xlink:href="#DejaVuSans-48"/>
      </g>
     </g>
    </g>
    <g id="xtick_11">
     <g id="line2d_20">
      <g>
       <use style="stroke:#000000;stroke-width:0.8;" x="1148.239339" xlink:href="#m8d670e9606" y="629.9064"/>
      </g>
     </g>
     <g id="text_17">
      <!-- 400 -->
      <g transform="translate(1138.695589 644.504838)scale(0.1 -0.1)">
       <use xlink:href="#DejaVuSans-52"/>
       <use x="63.623047" xlink:href="#DejaVuSans-48"/>
       <use x="127.246094" xlink:href="#DejaVuSans-48"/>
      </g>
     </g>
    </g>
    <g id="xtick_12">
     <g id="line2d_21">
      <g>
       <use style="stroke:#000000;stroke-width:0.8;" x="1240.470744" xlink:href="#m8d670e9606" y="629.9064"/>
      </g>
     </g>
     <g id="text_18">
      <!-- 500 -->
      <g transform="translate(1230.926994 644.504838)scale(0.1 -0.1)">
       <use xlink:href="#DejaVuSans-53"/>
       <use x="63.623047" xlink:href="#DejaVuSans-48"/>
       <use x="127.246094" xlink:href="#DejaVuSans-48"/>
      </g>
     </g>
    </g>
   </g>
   <g id="matplotlib.axis_4">
    <g id="ytick_6">
     <g id="line2d_22">
      <g>
       <use style="stroke:#000000;stroke-width:0.8;" x="757.178182" xlink:href="#m06b9d60616" y="596.778833"/>
      </g>
     </g>
     <g id="text_19">
      <!-- −2.0 -->
      <g transform="translate(725.895369 600.578052)scale(0.1 -0.1)">
       <use xlink:href="#DejaVuSans-8722"/>
       <use x="83.789062" xlink:href="#DejaVuSans-50"/>
       <use x="147.412109" xlink:href="#DejaVuSans-46"/>
       <use x="179.199219" xlink:href="#DejaVuSans-48"/>
      </g>
     </g>
    </g>
    <g id="ytick_7">
     <g id="line2d_23">
      <g>
       <use style="stroke:#000000;stroke-width:0.8;" x="757.178182" xlink:href="#m06b9d60616" y="528.576115"/>
      </g>
     </g>
     <g id="text_20">
      <!-- −1.5 -->
      <g transform="translate(725.895369 532.375333)scale(0.1 -0.1)">
       <use xlink:href="#DejaVuSans-8722"/>
       <use x="83.789062" xlink:href="#DejaVuSans-49"/>
       <use x="147.412109" xlink:href="#DejaVuSans-46"/>
       <use x="179.199219" xlink:href="#DejaVuSans-53"/>
      </g>
     </g>
    </g>
    <g id="ytick_8">
     <g id="line2d_24">
      <g>
       <use style="stroke:#000000;stroke-width:0.8;" x="757.178182" xlink:href="#m06b9d60616" y="460.373396"/>
      </g>
     </g>
     <g id="text_21">
      <!-- −1.0 -->
      <g transform="translate(725.895369 464.172615)scale(0.1 -0.1)">
       <use xlink:href="#DejaVuSans-8722"/>
       <use x="83.789062" xlink:href="#DejaVuSans-49"/>
       <use x="147.412109" xlink:href="#DejaVuSans-46"/>
       <use x="179.199219" xlink:href="#DejaVuSans-48"/>
      </g>
     </g>
    </g>
    <g id="ytick_9">
     <g id="line2d_25">
      <g>
       <use style="stroke:#000000;stroke-width:0.8;" x="757.178182" xlink:href="#m06b9d60616" y="392.170678"/>
      </g>
     </g>
     <g id="text_22">
      <!-- −0.5 -->
      <g transform="translate(725.895369 395.969896)scale(0.1 -0.1)">
       <use xlink:href="#DejaVuSans-8722"/>
       <use x="83.789062" xlink:href="#DejaVuSans-48"/>
       <use x="147.412109" xlink:href="#DejaVuSans-46"/>
       <use x="179.199219" xlink:href="#DejaVuSans-53"/>
      </g>
     </g>
    </g>
    <g id="ytick_10">
     <g id="line2d_26">
      <g>
       <use style="stroke:#000000;stroke-width:0.8;" x="757.178182" xlink:href="#m06b9d60616" y="323.967959"/>
      </g>
     </g>
     <g id="text_23">
      <!-- 0.0 -->
      <g transform="translate(734.275057 327.767178)scale(0.1 -0.1)">
       <use xlink:href="#DejaVuSans-48"/>
       <use x="63.623047" xlink:href="#DejaVuSans-46"/>
       <use x="95.410156" xlink:href="#DejaVuSans-48"/>
      </g>
     </g>
    </g>
    <g id="ytick_11">
     <g id="line2d_27">
      <g>
       <use style="stroke:#000000;stroke-width:0.8;" x="757.178182" xlink:href="#m06b9d60616" y="255.765241"/>
      </g>
     </g>
     <g id="text_24">
      <!-- 0.5 -->
      <g transform="translate(734.275057 259.56446)scale(0.1 -0.1)">
       <use xlink:href="#DejaVuSans-48"/>
       <use x="63.623047" xlink:href="#DejaVuSans-46"/>
       <use x="95.410156" xlink:href="#DejaVuSans-53"/>
      </g>
     </g>
    </g>
    <g id="ytick_12">
     <g id="line2d_28">
      <g>
       <use style="stroke:#000000;stroke-width:0.8;" x="757.178182" xlink:href="#m06b9d60616" y="187.562522"/>
      </g>
     </g>
     <g id="text_25">
      <!-- 1.0 -->
      <g transform="translate(734.275057 191.361741)scale(0.1 -0.1)">
       <use xlink:href="#DejaVuSans-49"/>
       <use x="63.623047" xlink:href="#DejaVuSans-46"/>
       <use x="95.410156" xlink:href="#DejaVuSans-48"/>
      </g>
     </g>
    </g>
    <g id="ytick_13">
     <g id="line2d_29">
      <g>
       <use style="stroke:#000000;stroke-width:0.8;" x="757.178182" xlink:href="#m06b9d60616" y="119.359804"/>
      </g>
     </g>
     <g id="text_26">
      <!-- 1.5 -->
      <g transform="translate(734.275057 123.159023)scale(0.1 -0.1)">
       <use xlink:href="#DejaVuSans-49"/>
       <use x="63.623047" xlink:href="#DejaVuSans-46"/>
       <use x="95.410156" xlink:href="#DejaVuSans-53"/>
      </g>
     </g>
    </g>
   </g>
   <g id="line2d_30">
    <path clip-path="url(#pb5cd50da0e)" d="M 779.313719 323.96796 
L 803.293884 324.080839 
L 835.574876 324.471208 
L 878.923636 325.225646 
L 916.738512 325.748667 
L 934.262479 325.804651 
L 947.174876 325.627028 
L 960.087273 325.216665 
L 977.61124 324.523679 
L 987.756694 323.938693 
L 1008.047603 323.823875 
L 1019.115372 324.113558 
L 1092.900496 325.128457 
L 1105.812893 325.592083 
L 1115.958347 326.171698 
L 1133.482314 327.399247 
L 1151.928595 328.625055 
L 1195.277355 331.167209 
L 1210.956694 331.886337 
L 1219.257521 332.02344 
L 1221.102149 331.969342 
L 1221.102149 331.969342 
" style="fill:none;stroke:#ff796c;stroke-linecap:square;stroke-width:1.5;"/>
   </g>
   <g id="line2d_31">
    <path clip-path="url(#pb5cd50da0e)" d="M 779.313719 323.967959 
L 785.769917 324.076896 
L 791.303802 324.398565 
L 797.76 325.00293 
L 805.138512 325.930071 
L 812.517025 327.125979 
L 820.817851 328.682546 
L 830.040992 330.638735 
L 840.186446 333.007466 
L 851.254215 335.865087 
L 866.01124 339.891629 
L 876.156694 342.544879 
L 885.379835 344.716897 
L 894.602975 346.630669 
L 903.826116 348.344688 
L 910.282314 349.347975 
L 915.816198 350.005841 
L 920.427769 350.358341 
L 925.039339 350.47722 
L 928.728595 350.36176 
L 932.417851 350.016118 
L 935.184793 349.575793 
L 937.951736 348.957258 
L 940.718678 348.140536 
L 943.48562 347.107172 
L 946.252562 345.845746 
L 949.019504 344.355256 
L 951.786446 342.596949 
L 955.475702 339.695158 
L 965.621157 331.386493 
L 969.310413 328.760392 
L 977.61124 323.071558 
L 980.378182 320.697478 
L 984.067438 317.365018 
L 986.83438 315.291425 
L 998.824463 306.866382 
L 1002.513719 304.489669 
L 1005.280661 302.993478 
L 1007.125289 302.269459 
L 1008.969917 301.882778 
L 1009.892231 301.882966 
L 1010.814545 302.050245 
L 1011.73686 302.410157 
L 1013.581488 303.561188 
L 1016.34843 305.810802 
L 1020.96 309.655448 
L 1025.57157 313.177378 
L 1044.940165 327.307469 
L 1055.08562 334.787386 
L 1064.30876 341.862772 
L 1070.764959 347.066082 
L 1076.298843 351.784162 
L 1080.910413 355.961434 
L 1085.521983 360.436128 
L 1091.055868 366.140521 
L 1095.667438 371.241929 
L 1099.356694 375.660911 
L 1103.04595 380.449226 
L 1106.735207 385.638299 
L 1110.424463 391.223862 
L 1113.191405 395.725653 
L 1119.647603 406.955727 
L 1127.94843 421.636212 
L 1135.326942 435.13734 
L 1141.78314 446.958372 
L 1158.384793 476.643394 
L 1166.68562 492.398738 
L 1175.90876 510.386459 
L 1184.209587 527.137745 
L 1192.510413 544.627501 
L 1205.42281 573.128714 
L 1208.189752 579.460122 
L 1215.568264 595.296325 
L 1217.412893 598.895637 
L 1219.257521 602.003336 
L 1221.102149 604.173673 
L 1222.024463 605.1348 
L 1222.024463 605.1348 
" style="fill:none;stroke:#e50000;stroke-linecap:square;stroke-width:1.5;"/>
   </g>
   <g id="line2d_32">
    <path clip-path="url(#pb5cd50da0e)" d="M 779.313719 109.7028 
L 784.847603 109.812927 
L 790.381488 110.143139 
L 795.915372 110.692925 
L 801.449256 111.46144 
L 806.98314 112.447497 
L 812.517025 113.649576 
L 818.050909 115.065823 
L 823.584793 116.694056 
L 829.118678 118.531762 
L 834.652562 120.576109 
L 841.10876 123.218129 
L 847.564959 126.131561 
L 854.021157 129.310292 
L 860.477355 132.747651 
L 866.933554 136.436423 
L 873.389752 140.368868 
L 879.84595 144.536732 
L 887.224463 149.577032 
L 894.602975 154.899564 
L 901.981488 160.489738 
L 910.282314 167.079496 
L 918.58314 173.965718 
L 926.883967 181.12452 
L 936.107107 189.368202 
L 946.252562 198.747329 
L 957.320331 209.295279 
L 970.232727 221.933583 
L 985.912066 237.615034 
L 1036.639339 288.613005 
L 1048.629421 300.228359 
L 1059.69719 310.645901 
L 1069.842645 319.882171 
L 1079.065785 327.977268 
L 1087.366612 334.987644 
L 1095.667438 341.712048 
L 1103.968264 348.127157 
L 1111.346777 353.551804 
L 1118.725289 358.699602 
L 1126.103802 363.556442 
L 1132.56 367.557013 
L 1139.016198 371.316219 
L 1145.472397 374.826169 
L 1151.928595 378.079499 
L 1158.384793 381.069379 
L 1164.840992 383.789536 
L 1171.29719 386.234261 
L 1176.831074 388.106613 
L 1182.364959 389.769941 
L 1187.898843 391.22168 
L 1193.432727 392.459591 
L 1198.966612 393.481767 
L 1204.500496 394.286629 
L 1210.03438 394.872939 
L 1215.568264 395.239791 
L 1221.102149 395.38662 
L 1221.102149 395.38662 
" style="fill:none;stroke:#014d4e;stroke-linecap:square;stroke-width:1.5;"/>
   </g>
   <g id="line2d_33">
    <path clip-path="url(#pb5cd50da0e)" d="M 779.313719 109.703029 
L 798.682314 109.806724 
L 808.827769 110.134202 
L 816.206281 110.573636 
L 823.584793 111.222893 
L 830.963306 112.104612 
L 838.341818 113.238531 
L 845.720331 114.585129 
L 853.098843 116.202408 
L 860.477355 118.09298 
L 866.01124 119.720076 
L 871.545124 121.581147 
L 877.079008 123.690347 
L 882.612893 126.057178 
L 888.146777 128.685569 
L 893.680661 131.556595 
L 899.214545 134.641379 
L 904.74843 137.967635 
L 910.282314 141.574911 
L 914.893884 144.832199 
L 919.505455 148.357744 
L 924.117025 152.200219 
L 927.806281 155.541897 
L 931.495537 159.162149 
L 935.184793 163.10859 
L 938.87405 167.427658 
L 942.563306 172.162686 
L 946.252562 177.341349 
L 949.941818 182.954832 
L 952.70876 187.647444 
L 958.242645 197.559544 
L 964.698843 209.060941 
L 969.310413 216.849969 
L 976.688926 229.252175 
L 980.378182 236.169669 
L 984.067438 243.090065 
L 993.290579 259.010734 
L 1000.669091 271.45528 
L 1004.358347 277.259926 
L 1006.202975 279.852747 
L 1008.047603 282.107268 
L 1008.969917 283.040541 
L 1009.892231 283.806362 
L 1010.814545 284.379149 
L 1012.659174 285.092157 
L 1014.503802 285.48514 
L 1020.96 286.628384 
L 1025.57157 287.768776 
L 1032.027769 289.395352 
L 1038.483967 291.050888 
L 1046.784793 293.111904 
L 1053.240992 294.48161 
L 1059.69719 295.620896 
L 1065.231074 296.369917 
L 1069.842645 296.784048 
L 1074.454215 296.958184 
L 1078.143471 296.890041 
L 1081.832727 296.602731 
L 1085.521983 296.053373 
L 1089.21124 295.310247 
L 1092.900496 294.320384 
L 1095.667438 293.364622 
L 1098.43438 292.192954 
L 1101.201322 290.778126 
L 1103.968264 289.098192 
L 1106.735207 287.165677 
L 1109.502149 284.965126 
L 1112.269091 282.453023 
L 1115.036033 279.553874 
L 1123.33686 270.681203 
L 1127.94843 265.392506 
L 1132.56 259.803263 
L 1153.773223 233.117926 
L 1158.384793 226.666444 
L 1163.918678 218.526765 
L 1169.452562 209.998727 
L 1174.986446 201.087085 
L 1180.520331 191.732479 
L 1186.054215 181.858937 
L 1190.665785 173.206321 
L 1197.121983 160.413418 
L 1200.81124 152.880653 
L 1205.42281 143.081507 
L 1210.03438 133.280197 
L 1212.801322 127.540143 
L 1216.490579 120.351874 
L 1218.335207 117.305353 
L 1220.179835 115.171727 
L 1221.102149 114.219779 
L 1221.102149 114.219779 
" style="fill:none;stroke:#ffff14;stroke-linecap:square;stroke-width:1.5;"/>
   </g>
   <g id="patch_8">
    <path d="M 757.178182 629.9064 
L 757.178182 84.9312 
" style="fill:none;stroke:#000000;stroke-linecap:square;stroke-linejoin:miter;stroke-width:0.8;"/>
   </g>
   <g id="patch_9">
    <path d="M 1244.16 629.9064 
L 1244.16 84.9312 
" style="fill:none;stroke:#000000;stroke-linecap:square;stroke-linejoin:miter;stroke-width:0.8;"/>
   </g>
   <g id="patch_10">
    <path d="M 757.178182 629.9064 
L 1244.16 629.9064 
" style="fill:none;stroke:#000000;stroke-linecap:square;stroke-linejoin:miter;stroke-width:0.8;"/>
   </g>
   <g id="patch_11">
    <path d="M 757.178182 84.9312 
L 1244.16 84.9312 
" style="fill:none;stroke:#000000;stroke-linecap:square;stroke-linejoin:miter;stroke-width:0.8;"/>
   </g>
   <g id="text_27">
    <!-- Left abduction -->
    <defs>
     <path d="M 9.8125 72.90625 
L 19.671875 72.90625 
L 19.671875 8.296875 
L 55.171875 8.296875 
L 55.171875 0 
L 9.8125 0 
z
" id="DejaVuSans-76"/>
     <path d="M 56.203125 29.59375 
L 56.203125 25.203125 
L 14.890625 25.203125 
Q 15.484375 15.921875 20.484375 11.0625 
Q 25.484375 6.203125 34.421875 6.203125 
Q 39.59375 6.203125 44.453125 7.46875 
Q 49.3125 8.734375 54.109375 11.28125 
L 54.109375 2.78125 
Q 49.265625 0.734375 44.1875 -0.34375 
Q 39.109375 -1.421875 33.890625 -1.421875 
Q 20.796875 -1.421875 13.15625 6.1875 
Q 5.515625 13.8125 5.515625 26.8125 
Q 5.515625 40.234375 12.765625 48.109375 
Q 20.015625 56 32.328125 56 
Q 43.359375 56 49.78125 48.890625 
Q 56.203125 41.796875 56.203125 29.59375 
z
M 47.21875 32.234375 
Q 47.125 39.59375 43.09375 43.984375 
Q 39.0625 48.390625 32.421875 48.390625 
Q 24.90625 48.390625 20.390625 44.140625 
Q 15.875 39.890625 15.1875 32.171875 
z
" id="DejaVuSans-101"/>
     <path d="M 37.109375 75.984375 
L 37.109375 68.5 
L 28.515625 68.5 
Q 23.6875 68.5 21.796875 66.546875 
Q 19.921875 64.59375 19.921875 59.515625 
L 19.921875 54.6875 
L 34.71875 54.6875 
L 34.71875 47.703125 
L 19.921875 47.703125 
L 19.921875 0 
L 10.890625 0 
L 10.890625 47.703125 
L 2.296875 47.703125 
L 2.296875 54.6875 
L 10.890625 54.6875 
L 10.890625 58.5 
Q 10.890625 67.625 15.140625 71.796875 
Q 19.390625 75.984375 28.609375 75.984375 
z
" id="DejaVuSans-102"/>
    </defs>
    <g transform="translate(957.375341 78.9312)scale(0.12 -0.12)">
     <use xlink:href="#DejaVuSans-76"/>
     <use x="55.697266" xlink:href="#DejaVuSans-101"/>
     <use x="117.220703" xlink:href="#DejaVuSans-102"/>
     <use x="152.410156" xlink:href="#DejaVuSans-116"/>
     <use x="191.619141" xlink:href="#DejaVuSans-32"/>
     <use x="223.40625" xlink:href="#DejaVuSans-97"/>
     <use x="284.685547" xlink:href="#DejaVuSans-98"/>
     <use x="348.162109" xlink:href="#DejaVuSans-100"/>
     <use x="411.638672" xlink:href="#DejaVuSans-117"/>
     <use x="475.017578" xlink:href="#DejaVuSans-99"/>
     <use x="529.998047" xlink:href="#DejaVuSans-116"/>
     <use x="569.207031" xlink:href="#DejaVuSans-105"/>
     <use x="596.990234" xlink:href="#DejaVuSans-111"/>
     <use x="658.171875" xlink:href="#DejaVuSans-110"/>
    </g>
   </g>
  </g>
 </g>
 <defs>
  <clipPath id="p24c3ea4382">
   <rect height="544.9752" width="486.981818" x="172.8" y="84.9312"/>
  </clipPath>
  <clipPath id="pb5cd50da0e">
   <rect height="544.9752" width="486.981818" x="757.178182" y="84.9312"/>
  </clipPath>
 </defs>
</svg>
